<?xml version="1.0" encoding="UTF-8" standalone="no"?>
<!DOCTYPE svg PUBLIC "-//W3C//DTD SVG 1.1//EN"
 "http://www.w3.org/Graphics/SVG/1.1/DTD/svg11.dtd">
<!-- Generated by graphviz version 2.43.0 (0)
 -->
<!-- Title: Libs/Engine/sources/Components/AController/AController.hpp Pages: 1 -->
<svg width="2966pt" height="440pt"
 viewBox="0.00 0.00 2965.50 440.00" xmlns="http://www.w3.org/2000/svg" xmlns:xlink="http://www.w3.org/1999/xlink">
<g id="graph0" class="graph" transform="scale(1 1) rotate(0) translate(4 436)">
<title>Libs/Engine/sources/Components/AController/AController.hpp</title>
<polygon fill="white" stroke="transparent" points="-4,4 -4,-436 2961.5,-436 2961.5,4 -4,4"/>
<!-- Node1 -->
<g id="node1" class="node">
<title>Node1</title>
<g id="a_node1"><a xlink:title=" ">
<polygon fill="#bfbfbf" stroke="black" points="1156.5,-390.5 1156.5,-431.5 1295.5,-431.5 1295.5,-390.5 1156.5,-390.5"/>
<text text-anchor="start" x="1164.5" y="-419.5" font-family="Helvetica,sans-Serif" font-size="10.00">Libs/Engine/sources</text>
<text text-anchor="start" x="1164.5" y="-408.5" font-family="Helvetica,sans-Serif" font-size="10.00">/Components/AController</text>
<text text-anchor="middle" x="1226" y="-397.5" font-family="Helvetica,sans-Serif" font-size="10.00">/AController.hpp</text>
</a>
</g>
</g>
<!-- Node2 -->
<g id="node2" class="node">
<title>Node2</title>
<g id="a_node2"><a xlink:href="AController_8cpp.html" target="_top" xlink:title=" ">
<polygon fill="white" stroke="black" points="806.5,-312.5 806.5,-353.5 945.5,-353.5 945.5,-312.5 806.5,-312.5"/>
<text text-anchor="start" x="814.5" y="-341.5" font-family="Helvetica,sans-Serif" font-size="10.00">Libs/Engine/sources</text>
<text text-anchor="start" x="814.5" y="-330.5" font-family="Helvetica,sans-Serif" font-size="10.00">/Components/AController</text>
<text text-anchor="middle" x="876" y="-319.5" font-family="Helvetica,sans-Serif" font-size="10.00">/AController.cpp</text>
</a>
</g>
</g>
<!-- Node1&#45;&gt;Node2 -->
<g id="edge1" class="edge">
<title>Node1&#45;&gt;Node2</title>
<path fill="none" stroke="midnightblue" d="M1146.44,-393.82C1093.52,-382.92 1022.51,-368.02 960,-354 955.32,-352.95 950.5,-351.85 945.64,-350.73"/>
<polygon fill="midnightblue" stroke="midnightblue" points="1145.94,-397.29 1156.44,-395.88 1147.35,-390.43 1145.94,-397.29"/>
</g>
<!-- Node3 -->
<g id="node3" class="node">
<title>Node3</title>
<g id="a_node3"><a xlink:href="AIAlgo_8hpp.html" target="_top" xlink:title=" ">
<polygon fill="white" stroke="black" points="1099.5,-162 1099.5,-192 1270.5,-192 1270.5,-162 1099.5,-162"/>
<text text-anchor="start" x="1107.5" y="-180" font-family="Helvetica,sans-Serif" font-size="10.00">Libs/Engine/sources</text>
<text text-anchor="middle" x="1185" y="-169" font-family="Helvetica,sans-Serif" font-size="10.00">/Components/AIAlgo/AIAlgo.hpp</text>
</a>
</g>
</g>
<!-- Node1&#45;&gt;Node3 -->
<g id="edge2" class="edge">
<title>Node1&#45;&gt;Node3</title>
<path fill="none" stroke="midnightblue" d="M1220.74,-380.25C1211.83,-329.8 1194.07,-229.31 1187.51,-192.2"/>
<polygon fill="midnightblue" stroke="midnightblue" points="1217.32,-380.98 1222.5,-390.22 1224.21,-379.76 1217.32,-380.98"/>
</g>
<!-- Node9 -->
<g id="node9" class="node">
<title>Node9</title>
<g id="a_node9"><a xlink:href="CoolDownBoost_8hpp.html" target="_top" xlink:title=" ">
<polygon fill="white" stroke="black" points="1002.5,-234.5 1002.5,-275.5 1163.5,-275.5 1163.5,-234.5 1002.5,-234.5"/>
<text text-anchor="start" x="1010.5" y="-263.5" font-family="Helvetica,sans-Serif" font-size="10.00">Libs/Engine/sources</text>
<text text-anchor="start" x="1010.5" y="-252.5" font-family="Helvetica,sans-Serif" font-size="10.00">/Components/CoolDownBoost</text>
<text text-anchor="middle" x="1083" y="-241.5" font-family="Helvetica,sans-Serif" font-size="10.00">/CoolDownBoost.hpp</text>
</a>
</g>
</g>
<!-- Node1&#45;&gt;Node9 -->
<g id="edge8" class="edge">
<title>Node1&#45;&gt;Node9</title>
<path fill="none" stroke="midnightblue" d="M1201.06,-383.14C1172.62,-352.51 1126.8,-303.17 1101.42,-275.83"/>
<polygon fill="midnightblue" stroke="midnightblue" points="1198.52,-385.55 1207.89,-390.5 1203.65,-380.79 1198.52,-385.55"/>
</g>
<!-- Node10 -->
<g id="node10" class="node">
<title>Node10</title>
<g id="a_node10"><a xlink:href="HUD_8hpp.html" target="_top" xlink:title=" ">
<polygon fill="white" stroke="black" points="353.5,-162 353.5,-192 506.5,-192 506.5,-162 353.5,-162"/>
<text text-anchor="start" x="361.5" y="-180" font-family="Helvetica,sans-Serif" font-size="10.00">Libs/Engine/sources</text>
<text text-anchor="middle" x="430" y="-169" font-family="Helvetica,sans-Serif" font-size="10.00">/Components/HUD/HUD.hpp</text>
</a>
</g>
</g>
<!-- Node1&#45;&gt;Node10 -->
<g id="edge11" class="edge">
<title>Node1&#45;&gt;Node10</title>
<path fill="none" stroke="midnightblue" d="M1166.81,-386.83C1112.08,-365.84 1028.23,-334.81 954,-312 789.52,-261.46 592.02,-214.62 493.05,-192.07"/>
<polygon fill="midnightblue" stroke="midnightblue" points="1165.76,-390.17 1176.35,-390.49 1168.27,-383.64 1165.76,-390.17"/>
</g>
<!-- Node18 -->
<g id="node18" class="node">
<title>Node18</title>
<g id="a_node18"><a xlink:href="PlayerInputs_8hpp.html" target="_top" xlink:title=" ">
<polygon fill="white" stroke="black" points="1317.5,-312.5 1317.5,-353.5 1462.5,-353.5 1462.5,-312.5 1317.5,-312.5"/>
<text text-anchor="start" x="1325.5" y="-341.5" font-family="Helvetica,sans-Serif" font-size="10.00">Libs/Engine/sources</text>
<text text-anchor="start" x="1325.5" y="-330.5" font-family="Helvetica,sans-Serif" font-size="10.00">/Components/PlayerInputs</text>
<text text-anchor="middle" x="1390" y="-319.5" font-family="Helvetica,sans-Serif" font-size="10.00">/PlayerInputs.hpp</text>
</a>
</g>
</g>
<!-- Node1&#45;&gt;Node18 -->
<g id="edge22" class="edge">
<title>Node1&#45;&gt;Node18</title>
<path fill="none" stroke="midnightblue" d="M1277.38,-386.19C1300.07,-375.67 1326.41,-363.47 1347.91,-353.51"/>
<polygon fill="midnightblue" stroke="midnightblue" points="1275.84,-383.05 1268.23,-390.43 1278.78,-389.4 1275.84,-383.05"/>
</g>
<!-- Node21 -->
<g id="node21" class="node">
<title>Node21</title>
<g id="a_node21"><a xlink:href="RangeBoost_8hpp.html" target="_top" xlink:title=" ">
<polygon fill="white" stroke="black" points="1581.5,-234.5 1581.5,-275.5 1724.5,-275.5 1724.5,-234.5 1581.5,-234.5"/>
<text text-anchor="start" x="1589.5" y="-263.5" font-family="Helvetica,sans-Serif" font-size="10.00">Libs/Engine/sources</text>
<text text-anchor="start" x="1589.5" y="-252.5" font-family="Helvetica,sans-Serif" font-size="10.00">/Components/RangeBoost</text>
<text text-anchor="middle" x="1653" y="-241.5" font-family="Helvetica,sans-Serif" font-size="10.00">/RangeBoost.hpp</text>
</a>
</g>
</g>
<!-- Node1&#45;&gt;Node21 -->
<g id="edge51" class="edge">
<title>Node1&#45;&gt;Node21</title>
<path fill="none" stroke="midnightblue" d="M1305.51,-397.58C1354.49,-388.55 1418.02,-374.32 1472,-354 1527.85,-332.98 1587.86,-297.68 1622.83,-275.68"/>
<polygon fill="midnightblue" stroke="midnightblue" points="1304.82,-394.15 1295.6,-399.38 1306.06,-401.04 1304.82,-394.15"/>
</g>
<!-- Node33 -->
<g id="node33" class="node">
<title>Node33</title>
<g id="a_node33"><a xlink:href="SpeedBoost_8hpp.html" target="_top" xlink:title=" ">
<polygon fill="white" stroke="black" points="1220,-234.5 1220,-275.5 1362,-275.5 1362,-234.5 1220,-234.5"/>
<text text-anchor="start" x="1228" y="-263.5" font-family="Helvetica,sans-Serif" font-size="10.00">Libs/Engine/sources</text>
<text text-anchor="start" x="1228" y="-252.5" font-family="Helvetica,sans-Serif" font-size="10.00">/Components/SpeedBoost</text>
<text text-anchor="middle" x="1291" y="-241.5" font-family="Helvetica,sans-Serif" font-size="10.00">/SpeedBoost.hpp</text>
</a>
</g>
</g>
<!-- Node1&#45;&gt;Node33 -->
<g id="edge52" class="edge">
<title>Node1&#45;&gt;Node33</title>
<path fill="none" stroke="midnightblue" d="M1238.17,-381.17C1251.14,-350.43 1271.34,-302.59 1282.63,-275.83"/>
<polygon fill="midnightblue" stroke="midnightblue" points="1234.9,-379.92 1234.23,-390.5 1241.35,-382.64 1234.9,-379.92"/>
</g>
<!-- Node34 -->
<g id="node34" class="node">
<title>Node34</title>
<g id="a_node34"><a xlink:href="BehaviourSystem_8hpp.html" target="_top" xlink:title=" ">
<polygon fill="white" stroke="black" points="2484.5,-156.5 2484.5,-197.5 2635.5,-197.5 2635.5,-156.5 2484.5,-156.5"/>
<text text-anchor="start" x="2492.5" y="-185.5" font-family="Helvetica,sans-Serif" font-size="10.00">Libs/Engine/sources</text>
<text text-anchor="start" x="2492.5" y="-174.5" font-family="Helvetica,sans-Serif" font-size="10.00">/Systems/BehaviourSystem</text>
<text text-anchor="middle" x="2560" y="-163.5" font-family="Helvetica,sans-Serif" font-size="10.00">/BehaviourSystem.hpp</text>
</a>
</g>
</g>
<!-- Node1&#45;&gt;Node34 -->
<g id="edge53" class="edge">
<title>Node1&#45;&gt;Node34</title>
<path fill="none" stroke="midnightblue" d="M1305.7,-408.31C1490.21,-402.71 1959.69,-378.64 2336,-276 2405.41,-257.07 2481.11,-220.24 2524.34,-197.52"/>
<polygon fill="midnightblue" stroke="midnightblue" points="1305.44,-404.82 1295.55,-408.61 1305.65,-411.82 1305.44,-404.82"/>
</g>
<!-- Node4 -->
<g id="node4" class="node">
<title>Node4</title>
<g id="a_node4"><a xlink:href="AIAlgo_8cpp.html" target="_top" xlink:title=" ">
<polygon fill="white" stroke="black" points="994,-84 994,-114 1164,-114 1164,-84 994,-84"/>
<text text-anchor="start" x="1002" y="-102" font-family="Helvetica,sans-Serif" font-size="10.00">Libs/Engine/sources</text>
<text text-anchor="middle" x="1079" y="-91" font-family="Helvetica,sans-Serif" font-size="10.00">/Components/AIAlgo/AIAlgo.cpp</text>
</a>
</g>
</g>
<!-- Node3&#45;&gt;Node4 -->
<g id="edge3" class="edge">
<title>Node3&#45;&gt;Node4</title>
<path fill="none" stroke="midnightblue" d="M1156.56,-155.61C1138.33,-142.54 1115.11,-125.89 1098.85,-114.23"/>
<polygon fill="midnightblue" stroke="midnightblue" points="1154.9,-158.72 1165.06,-161.7 1158.97,-153.03 1154.9,-158.72"/>
</g>
<!-- Node5 -->
<g id="node5" class="node">
<title>Node5</title>
<g id="a_node5"><a xlink:href="CoolDownBoost_8cpp.html" target="_top" xlink:title=" ">
<polygon fill="white" stroke="black" points="814.5,-78.5 814.5,-119.5 975.5,-119.5 975.5,-78.5 814.5,-78.5"/>
<text text-anchor="start" x="822.5" y="-107.5" font-family="Helvetica,sans-Serif" font-size="10.00">Libs/Engine/sources</text>
<text text-anchor="start" x="822.5" y="-96.5" font-family="Helvetica,sans-Serif" font-size="10.00">/Components/CoolDownBoost</text>
<text text-anchor="middle" x="895" y="-85.5" font-family="Helvetica,sans-Serif" font-size="10.00">/CoolDownBoost.cpp</text>
</a>
</g>
</g>
<!-- Node3&#45;&gt;Node5 -->
<g id="edge4" class="edge">
<title>Node3&#45;&gt;Node5</title>
<path fill="none" stroke="midnightblue" d="M1121.59,-159.38C1076.8,-147.64 1016.61,-131.87 969.52,-119.53"/>
<polygon fill="midnightblue" stroke="midnightblue" points="1120.91,-162.82 1131.47,-161.97 1122.69,-156.05 1120.91,-162.82"/>
</g>
<!-- Node6 -->
<g id="node6" class="node">
<title>Node6</title>
<g id="a_node6"><a xlink:href="RangeBoost_8cpp.html" target="_top" xlink:title=" ">
<polygon fill="white" stroke="black" points="1418.5,-78.5 1418.5,-119.5 1561.5,-119.5 1561.5,-78.5 1418.5,-78.5"/>
<text text-anchor="start" x="1426.5" y="-107.5" font-family="Helvetica,sans-Serif" font-size="10.00">Libs/Engine/sources</text>
<text text-anchor="start" x="1426.5" y="-96.5" font-family="Helvetica,sans-Serif" font-size="10.00">/Components/RangeBoost</text>
<text text-anchor="middle" x="1490" y="-85.5" font-family="Helvetica,sans-Serif" font-size="10.00">/RangeBoost.cpp</text>
</a>
</g>
</g>
<!-- Node3&#45;&gt;Node6 -->
<g id="edge5" class="edge">
<title>Node3&#45;&gt;Node6</title>
<path fill="none" stroke="midnightblue" d="M1251.23,-159.5C1300.56,-147.2 1367.86,-130.44 1418.43,-117.83"/>
<polygon fill="midnightblue" stroke="midnightblue" points="1250.15,-156.16 1241.3,-161.97 1251.85,-162.95 1250.15,-156.16"/>
</g>
<!-- Node7 -->
<g id="node7" class="node">
<title>Node7</title>
<g id="a_node7"><a xlink:href="SpeedBoost_8cpp.html" target="_top" xlink:title=" ">
<polygon fill="white" stroke="black" points="1220,-78.5 1220,-119.5 1362,-119.5 1362,-78.5 1220,-78.5"/>
<text text-anchor="start" x="1228" y="-107.5" font-family="Helvetica,sans-Serif" font-size="10.00">Libs/Engine/sources</text>
<text text-anchor="start" x="1228" y="-96.5" font-family="Helvetica,sans-Serif" font-size="10.00">/Components/SpeedBoost</text>
<text text-anchor="middle" x="1291" y="-85.5" font-family="Helvetica,sans-Serif" font-size="10.00">/SpeedBoost.cpp</text>
</a>
</g>
</g>
<!-- Node3&#45;&gt;Node7 -->
<g id="edge6" class="edge">
<title>Node3&#45;&gt;Node7</title>
<path fill="none" stroke="midnightblue" d="M1213.17,-155.8C1228.77,-144.62 1248.07,-130.78 1263.55,-119.68"/>
<polygon fill="midnightblue" stroke="midnightblue" points="1211.03,-153.03 1204.94,-161.7 1215.1,-158.72 1211.03,-153.03"/>
</g>
<!-- Node8 -->
<g id="node8" class="node">
<title>Node8</title>
<g id="a_node8"><a xlink:href="EntityFactory_8cpp.html" target="_top" xlink:title=" ">
<polygon fill="white" stroke="black" points="738.5,-6 738.5,-36 907.5,-36 907.5,-6 738.5,-6"/>
<text text-anchor="start" x="746.5" y="-24" font-family="Helvetica,sans-Serif" font-size="10.00">Libs/Engine/sources</text>
<text text-anchor="middle" x="823" y="-13" font-family="Helvetica,sans-Serif" font-size="10.00">/EntityFactory/EntityFactory.cpp</text>
</a>
</g>
</g>
<!-- Node3&#45;&gt;Node8 -->
<g id="edge7" class="edge">
<title>Node3&#45;&gt;Node8</title>
<path fill="none" stroke="midnightblue" d="M1189.41,-151.81C1191.96,-129.6 1191.61,-97.3 1173,-78 1137.34,-41 999.26,-28.45 907.56,-24.18"/>
<polygon fill="midnightblue" stroke="midnightblue" points="1185.93,-151.41 1188,-161.8 1192.87,-152.39 1185.93,-151.41"/>
</g>
<!-- Node9&#45;&gt;Node5 -->
<g id="edge9" class="edge">
<title>Node9&#45;&gt;Node5</title>
<path fill="none" stroke="midnightblue" d="M1051.13,-227.89C1013.71,-197.24 952.5,-147.1 918.91,-119.59"/>
<polygon fill="midnightblue" stroke="midnightblue" points="1049.24,-230.87 1059.19,-234.5 1053.67,-225.45 1049.24,-230.87"/>
</g>
<!-- Node9&#45;&gt;Node8 -->
<g id="edge10" class="edge">
<title>Node9&#45;&gt;Node8</title>
<path fill="none" stroke="midnightblue" d="M1005.99,-231.49C922.95,-205.48 798.97,-160.98 772,-120 761.74,-104.41 765.26,-95.41 772,-78 778.5,-61.2 792.65,-46.34 804.4,-36.16"/>
<polygon fill="midnightblue" stroke="midnightblue" points="1005.07,-234.87 1015.66,-234.49 1007.14,-228.19 1005.07,-234.87"/>
</g>
<!-- Node11 -->
<g id="node11" class="node">
<title>Node11</title>
<g id="a_node11"><a xlink:href="HUD_8cpp.html" target="_top" xlink:title=" ">
<polygon fill="white" stroke="black" points="170,-84 170,-114 322,-114 322,-84 170,-84"/>
<text text-anchor="start" x="178" y="-102" font-family="Helvetica,sans-Serif" font-size="10.00">Libs/Engine/sources</text>
<text text-anchor="middle" x="246" y="-91" font-family="Helvetica,sans-Serif" font-size="10.00">/Components/HUD/HUD.cpp</text>
</a>
</g>
</g>
<!-- Node10&#45;&gt;Node11 -->
<g id="edge12" class="edge">
<title>Node10&#45;&gt;Node11</title>
<path fill="none" stroke="midnightblue" d="M386.53,-158.05C353.96,-144.59 310.02,-126.44 279.99,-114.04"/>
<polygon fill="midnightblue" stroke="midnightblue" points="385.24,-161.3 395.82,-161.88 387.92,-154.83 385.24,-161.3"/>
</g>
<!-- Node12 -->
<g id="node12" class="node">
<title>Node12</title>
<g id="a_node12"><a xlink:href="HUDBonusBar_8hpp.html" target="_top" xlink:title=" ">
<polygon fill="white" stroke="black" points="340.5,-78.5 340.5,-119.5 519.5,-119.5 519.5,-78.5 340.5,-78.5"/>
<text text-anchor="start" x="348.5" y="-107.5" font-family="Helvetica,sans-Serif" font-size="10.00">Libs/Engine/sources</text>
<text text-anchor="start" x="348.5" y="-96.5" font-family="Helvetica,sans-Serif" font-size="10.00">/Components/HUD/HUDBonusBar</text>
<text text-anchor="middle" x="430" y="-85.5" font-family="Helvetica,sans-Serif" font-size="10.00">/HUDBonusBar.hpp</text>
</a>
</g>
</g>
<!-- Node10&#45;&gt;Node12 -->
<g id="edge13" class="edge">
<title>Node10&#45;&gt;Node12</title>
<path fill="none" stroke="midnightblue" d="M430,-151.66C430,-141.33 430,-129.44 430,-119.68"/>
<polygon fill="midnightblue" stroke="midnightblue" points="426.5,-151.7 430,-161.7 433.5,-151.71 426.5,-151.7"/>
</g>
<!-- Node14 -->
<g id="node14" class="node">
<title>Node14</title>
<g id="a_node14"><a xlink:href="HUDBonusIcon_8hpp.html" target="_top" xlink:title=" ">
<polygon fill="white" stroke="black" points="538,-78.5 538,-119.5 720,-119.5 720,-78.5 538,-78.5"/>
<text text-anchor="start" x="546" y="-107.5" font-family="Helvetica,sans-Serif" font-size="10.00">Libs/Engine/sources</text>
<text text-anchor="start" x="546" y="-96.5" font-family="Helvetica,sans-Serif" font-size="10.00">/Components/HUD/HUDBonusIcon</text>
<text text-anchor="middle" x="629" y="-85.5" font-family="Helvetica,sans-Serif" font-size="10.00">/HUDBonusIcon.hpp</text>
</a>
</g>
</g>
<!-- Node10&#45;&gt;Node14 -->
<g id="edge16" class="edge">
<title>Node10&#45;&gt;Node14</title>
<path fill="none" stroke="midnightblue" d="M476.46,-158.26C506.77,-146.68 546.35,-131.56 577.61,-119.63"/>
<polygon fill="midnightblue" stroke="midnightblue" points="475.06,-155.05 466.96,-161.88 477.55,-161.58 475.06,-155.05"/>
</g>
<!-- Node16 -->
<g id="node16" class="node">
<title>Node16</title>
<g id="a_node16"><a xlink:href="HUDText_8hpp.html" target="_top" xlink:title=" ">
<polygon fill="white" stroke="black" points="0,-78.5 0,-119.5 152,-119.5 152,-78.5 0,-78.5"/>
<text text-anchor="start" x="8" y="-107.5" font-family="Helvetica,sans-Serif" font-size="10.00">Libs/Engine/sources</text>
<text text-anchor="start" x="8" y="-96.5" font-family="Helvetica,sans-Serif" font-size="10.00">/Components/HUD/HUDText</text>
<text text-anchor="middle" x="76" y="-85.5" font-family="Helvetica,sans-Serif" font-size="10.00">/HUDText.hpp</text>
</a>
</g>
</g>
<!-- Node10&#45;&gt;Node16 -->
<g id="edge19" class="edge">
<title>Node10&#45;&gt;Node16</title>
<path fill="none" stroke="midnightblue" d="M350.1,-159.93C296.53,-149.02 224.44,-134.06 161,-120 158.19,-119.38 155.32,-118.74 152.43,-118.08"/>
<polygon fill="midnightblue" stroke="midnightblue" points="349.73,-163.43 360.22,-161.99 351.12,-156.57 349.73,-163.43"/>
</g>
<!-- Node12&#45;&gt;Node8 -->
<g id="edge15" class="edge">
<title>Node12&#45;&gt;Node8</title>
<path fill="none" stroke="midnightblue" d="M529.64,-77.9C619.39,-60.92 643.49,-58.79 729,-42 738.5,-40.14 748.51,-38.09 758.33,-36.04"/>
<polygon fill="midnightblue" stroke="midnightblue" points="528.73,-74.51 519.56,-79.82 530.04,-81.39 528.73,-74.51"/>
</g>
<!-- Node13 -->
<g id="node13" class="node">
<title>Node13</title>
<g id="a_node13"><a xlink:href="HUDBonusBar_8cpp.html" target="_top" xlink:title=" ">
<polygon fill="white" stroke="black" points="340.5,-0.5 340.5,-41.5 519.5,-41.5 519.5,-0.5 340.5,-0.5"/>
<text text-anchor="start" x="348.5" y="-29.5" font-family="Helvetica,sans-Serif" font-size="10.00">Libs/Engine/sources</text>
<text text-anchor="start" x="348.5" y="-18.5" font-family="Helvetica,sans-Serif" font-size="10.00">/Components/HUD/HUDBonusBar</text>
<text text-anchor="middle" x="430" y="-7.5" font-family="Helvetica,sans-Serif" font-size="10.00">/HUDBonusBar.cpp</text>
</a>
</g>
</g>
<!-- Node12&#45;&gt;Node13 -->
<g id="edge14" class="edge">
<title>Node12&#45;&gt;Node13</title>
<path fill="none" stroke="midnightblue" d="M430,-68.3C430,-59.3 430,-49.65 430,-41.51"/>
<polygon fill="midnightblue" stroke="midnightblue" points="426.5,-68.43 430,-78.43 433.5,-68.43 426.5,-68.43"/>
</g>
<!-- Node14&#45;&gt;Node8 -->
<g id="edge18" class="edge">
<title>Node14&#45;&gt;Node8</title>
<path fill="none" stroke="midnightblue" d="M688.29,-74.77C720.52,-62.15 759.33,-46.94 786.99,-36.11"/>
<polygon fill="midnightblue" stroke="midnightblue" points="686.99,-71.52 678.96,-78.43 689.55,-78.04 686.99,-71.52"/>
</g>
<!-- Node15 -->
<g id="node15" class="node">
<title>Node15</title>
<g id="a_node15"><a xlink:href="HUDBonusIcon_8cpp.html" target="_top" xlink:title=" ">
<polygon fill="white" stroke="black" points="538,-0.5 538,-41.5 720,-41.5 720,-0.5 538,-0.5"/>
<text text-anchor="start" x="546" y="-29.5" font-family="Helvetica,sans-Serif" font-size="10.00">Libs/Engine/sources</text>
<text text-anchor="start" x="546" y="-18.5" font-family="Helvetica,sans-Serif" font-size="10.00">/Components/HUD/HUDBonusIcon</text>
<text text-anchor="middle" x="629" y="-7.5" font-family="Helvetica,sans-Serif" font-size="10.00">/HUDBonusIcon.cpp</text>
</a>
</g>
</g>
<!-- Node14&#45;&gt;Node15 -->
<g id="edge17" class="edge">
<title>Node14&#45;&gt;Node15</title>
<path fill="none" stroke="midnightblue" d="M629,-68.3C629,-59.3 629,-49.65 629,-41.51"/>
<polygon fill="midnightblue" stroke="midnightblue" points="625.5,-68.43 629,-78.43 632.5,-68.43 625.5,-68.43"/>
</g>
<!-- Node16&#45;&gt;Node8 -->
<g id="edge21" class="edge">
<title>Node16&#45;&gt;Node8</title>
<path fill="none" stroke="midnightblue" d="M162.48,-77.92C413.02,-41.83 481.7,-75.96 729,-42 740.24,-40.46 752.14,-38.32 763.56,-36.02"/>
<polygon fill="midnightblue" stroke="midnightblue" points="161.73,-74.49 152.34,-79.4 162.74,-81.41 161.73,-74.49"/>
</g>
<!-- Node17 -->
<g id="node17" class="node">
<title>Node17</title>
<g id="a_node17"><a xlink:href="HUDText_8cpp.html" target="_top" xlink:title=" ">
<polygon fill="white" stroke="black" points="0,-0.5 0,-41.5 152,-41.5 152,-0.5 0,-0.5"/>
<text text-anchor="start" x="8" y="-29.5" font-family="Helvetica,sans-Serif" font-size="10.00">Libs/Engine/sources</text>
<text text-anchor="start" x="8" y="-18.5" font-family="Helvetica,sans-Serif" font-size="10.00">/Components/HUD/HUDText</text>
<text text-anchor="middle" x="76" y="-7.5" font-family="Helvetica,sans-Serif" font-size="10.00">/HUDText.cpp</text>
</a>
</g>
</g>
<!-- Node16&#45;&gt;Node17 -->
<g id="edge20" class="edge">
<title>Node16&#45;&gt;Node17</title>
<path fill="none" stroke="midnightblue" d="M76,-68.3C76,-59.3 76,-49.65 76,-41.51"/>
<polygon fill="midnightblue" stroke="midnightblue" points="72.5,-68.43 76,-78.43 79.5,-68.43 72.5,-68.43"/>
</g>
<!-- Node18&#45;&gt;Node8 -->
<g id="edge50" class="edge">
<title>Node18&#45;&gt;Node8</title>
<path fill="none" stroke="midnightblue" d="M1392.3,-302.44C1396.27,-242.38 1401.33,-109.17 1371,-78 1339.36,-45.49 1053.56,-30.41 907.75,-24.78"/>
<polygon fill="midnightblue" stroke="midnightblue" points="1388.8,-302.2 1391.6,-312.42 1395.79,-302.69 1388.8,-302.2"/>
</g>
<!-- Node18&#45;&gt;Node9 -->
<g id="edge24" class="edge">
<title>Node18&#45;&gt;Node9</title>
<path fill="none" stroke="midnightblue" d="M1307.48,-311.57C1262.29,-300.38 1206.58,-286.59 1161.96,-275.55"/>
<polygon fill="midnightblue" stroke="midnightblue" points="1306.7,-314.98 1317.25,-313.99 1308.38,-308.19 1306.7,-314.98"/>
</g>
<!-- Node19 -->
<g id="node19" class="node">
<title>Node19</title>
<g id="a_node19"><a xlink:href="Bomberman_2sources_2main_8cpp.html" target="_top" xlink:title=" ">
<polygon fill="white" stroke="black" points="2239.5,-11.5 2239.5,-30.5 2404.5,-30.5 2404.5,-11.5 2239.5,-11.5"/>
<text text-anchor="middle" x="2322" y="-18.5" font-family="Helvetica,sans-Serif" font-size="10.00">Bomberman/sources/main.cpp</text>
</a>
</g>
</g>
<!-- Node18&#45;&gt;Node19 -->
<g id="edge23" class="edge">
<title>Node18&#45;&gt;Node19</title>
<path fill="none" stroke="midnightblue" d="M1472.65,-321.06C1542.62,-311.2 1645.39,-295.3 1734,-276 1990.21,-220.19 2124.77,-312.34 2303,-120 2326.44,-94.7 2324.92,-49.52 2323.08,-30.65"/>
<polygon fill="midnightblue" stroke="midnightblue" points="1471.99,-317.62 1462.57,-322.47 1472.96,-324.55 1471.99,-317.62"/>
</g>
<!-- Node20 -->
<g id="node20" class="node">
<title>Node20</title>
<g id="a_node20"><a xlink:href="PlayerInputs_8cpp.html" target="_top" xlink:title=" ">
<polygon fill="white" stroke="black" points="1418.5,-234.5 1418.5,-275.5 1563.5,-275.5 1563.5,-234.5 1418.5,-234.5"/>
<text text-anchor="start" x="1426.5" y="-263.5" font-family="Helvetica,sans-Serif" font-size="10.00">Libs/Engine/sources</text>
<text text-anchor="start" x="1426.5" y="-252.5" font-family="Helvetica,sans-Serif" font-size="10.00">/Components/PlayerInputs</text>
<text text-anchor="middle" x="1491" y="-241.5" font-family="Helvetica,sans-Serif" font-size="10.00">/PlayerInputs.cpp</text>
</a>
</g>
</g>
<!-- Node18&#45;&gt;Node20 -->
<g id="edge25" class="edge">
<title>Node18&#45;&gt;Node20</title>
<path fill="none" stroke="midnightblue" d="M1424.09,-306.35C1437.48,-296.27 1452.6,-284.89 1465.08,-275.51"/>
<polygon fill="midnightblue" stroke="midnightblue" points="1421.9,-303.62 1416.01,-312.43 1426.1,-309.21 1421.9,-303.62"/>
</g>
<!-- Node18&#45;&gt;Node21 -->
<g id="edge26" class="edge">
<title>Node18&#45;&gt;Node21</title>
<path fill="none" stroke="midnightblue" d="M1467.58,-309.58C1505.01,-298.76 1549.49,-285.91 1585.5,-275.51"/>
<polygon fill="midnightblue" stroke="midnightblue" points="1466.36,-306.29 1457.73,-312.43 1468.31,-313.01 1466.36,-306.29"/>
</g>
<!-- Node18&#45;&gt;Node33 -->
<g id="edge47" class="edge">
<title>Node18&#45;&gt;Node33</title>
<path fill="none" stroke="midnightblue" d="M1356.22,-306.06C1343.18,-296.06 1328.52,-284.8 1316.41,-275.51"/>
<polygon fill="midnightblue" stroke="midnightblue" points="1354.44,-309.11 1364.51,-312.43 1358.7,-303.56 1354.44,-309.11"/>
</g>
<!-- Node21&#45;&gt;Node6 -->
<g id="edge27" class="edge">
<title>Node21&#45;&gt;Node6</title>
<path fill="none" stroke="midnightblue" d="M1602.86,-229.35C1587.84,-220.63 1571.93,-209.98 1559,-198 1533.97,-174.81 1512.69,-141.11 1500.63,-119.89"/>
<polygon fill="midnightblue" stroke="midnightblue" points="1601.15,-232.4 1611.58,-234.25 1604.58,-226.3 1601.15,-232.4"/>
</g>
<!-- Node22 -->
<g id="node22" class="node">
<title>Node22</title>
<g id="a_node22"><a xlink:href="EntityFactory_8hpp.html" target="_top" xlink:title=" ">
<polygon fill="white" stroke="black" points="1568,-162 1568,-192 1738,-192 1738,-162 1568,-162"/>
<text text-anchor="start" x="1576" y="-180" font-family="Helvetica,sans-Serif" font-size="10.00">Libs/Engine/sources</text>
<text text-anchor="middle" x="1653" y="-169" font-family="Helvetica,sans-Serif" font-size="10.00">/EntityFactory/EntityFactory.hpp</text>
</a>
</g>
</g>
<!-- Node21&#45;&gt;Node22 -->
<g id="edge28" class="edge">
<title>Node21&#45;&gt;Node22</title>
<path fill="none" stroke="midnightblue" d="M1653,-224.28C1653,-213.25 1653,-201.25 1653,-192.23"/>
<polygon fill="midnightblue" stroke="midnightblue" points="1649.5,-224.43 1653,-234.43 1656.5,-224.43 1649.5,-224.43"/>
</g>
<!-- Node22&#45;&gt;Node5 -->
<g id="edge30" class="edge">
<title>Node22&#45;&gt;Node5</title>
<path fill="none" stroke="midnightblue" d="M1557.63,-172.06C1427.58,-165.76 1187.61,-150.86 985,-120 981.99,-119.54 978.94,-119.04 975.86,-118.51"/>
<polygon fill="midnightblue" stroke="midnightblue" points="1557.79,-175.57 1567.95,-172.55 1558.13,-168.58 1557.79,-175.57"/>
</g>
<!-- Node22&#45;&gt;Node6 -->
<g id="edge32" class="edge">
<title>Node22&#45;&gt;Node6</title>
<path fill="none" stroke="midnightblue" d="M1613.65,-157.65C1589,-146.16 1557.25,-131.36 1532.1,-119.63"/>
<polygon fill="midnightblue" stroke="midnightblue" points="1612.18,-160.83 1622.72,-161.88 1615.14,-154.49 1612.18,-160.83"/>
</g>
<!-- Node22&#45;&gt;Node7 -->
<g id="edge33" class="edge">
<title>Node22&#45;&gt;Node7</title>
<path fill="none" stroke="midnightblue" d="M1576.25,-159.89C1512.93,-146.59 1423.78,-127.88 1362.07,-114.92"/>
<polygon fill="midnightblue" stroke="midnightblue" points="1575.68,-163.34 1586.18,-161.97 1577.11,-156.49 1575.68,-163.34"/>
</g>
<!-- Node22&#45;&gt;Node8 -->
<g id="edge34" class="edge">
<title>Node22&#45;&gt;Node8</title>
<path fill="none" stroke="midnightblue" d="M1641.03,-152.96C1627.49,-129.56 1603.09,-94.48 1571,-78 1513.22,-48.33 1091.23,-30.9 907.78,-24.64"/>
<polygon fill="midnightblue" stroke="midnightblue" points="1638.08,-154.86 1646,-161.89 1644.2,-151.45 1638.08,-154.86"/>
</g>
<!-- Node23 -->
<g id="node23" class="node">
<title>Node23</title>
<g id="a_node23"><a xlink:href="Box_8cpp.html" target="_top" xlink:title=" ">
<polygon fill="white" stroke="black" points="2148.5,-84 2148.5,-114 2293.5,-114 2293.5,-84 2148.5,-84"/>
<text text-anchor="start" x="2156.5" y="-102" font-family="Helvetica,sans-Serif" font-size="10.00">Libs/Engine/sources</text>
<text text-anchor="middle" x="2221" y="-91" font-family="Helvetica,sans-Serif" font-size="10.00">/Components/Box/Box.cpp</text>
</a>
</g>
</g>
<!-- Node22&#45;&gt;Node23 -->
<g id="edge29" class="edge">
<title>Node22&#45;&gt;Node23</title>
<path fill="none" stroke="midnightblue" d="M1748.41,-168.54C1846.77,-160.03 2004.35,-144.08 2139,-120 2148.23,-118.35 2157.97,-116.27 2167.39,-114.09"/>
<polygon fill="midnightblue" stroke="midnightblue" points="1747.85,-165.08 1738.19,-169.42 1748.45,-172.05 1747.85,-165.08"/>
</g>
<!-- Node24 -->
<g id="node24" class="node">
<title>Node24</title>
<g id="a_node24"><a xlink:href="Explosion_8cpp.html" target="_top" xlink:title=" ">
<polygon fill="white" stroke="black" points="1656.5,-78.5 1656.5,-119.5 1787.5,-119.5 1787.5,-78.5 1656.5,-78.5"/>
<text text-anchor="start" x="1664.5" y="-107.5" font-family="Helvetica,sans-Serif" font-size="10.00">Libs/Engine/sources</text>
<text text-anchor="start" x="1664.5" y="-96.5" font-family="Helvetica,sans-Serif" font-size="10.00">/Components/Explosion</text>
<text text-anchor="middle" x="1722" y="-85.5" font-family="Helvetica,sans-Serif" font-size="10.00">/Explosion.cpp</text>
</a>
</g>
</g>
<!-- Node22&#45;&gt;Node24 -->
<g id="edge31" class="edge">
<title>Node22&#45;&gt;Node24</title>
<path fill="none" stroke="midnightblue" d="M1672.76,-154.23C1682.65,-143.34 1694.52,-130.26 1704.13,-119.68"/>
<polygon fill="midnightblue" stroke="midnightblue" points="1670.11,-151.95 1665.98,-161.7 1675.29,-156.65 1670.11,-151.95"/>
</g>
<!-- Node25 -->
<g id="node25" class="node">
<title>Node25</title>
<g id="a_node25"><a xlink:href="Scenes_8cpp.html" target="_top" xlink:title=" ">
<polygon fill="white" stroke="black" points="1723.5,-6 1723.5,-36 1836.5,-36 1836.5,-6 1723.5,-6"/>
<text text-anchor="start" x="1731.5" y="-24" font-family="Helvetica,sans-Serif" font-size="10.00">Libs/Engine/sources</text>
<text text-anchor="middle" x="1780" y="-13" font-family="Helvetica,sans-Serif" font-size="10.00">/Scenes/Scenes.cpp</text>
</a>
</g>
</g>
<!-- Node22&#45;&gt;Node25 -->
<g id="edge35" class="edge">
<title>Node22&#45;&gt;Node25</title>
<path fill="none" stroke="midnightblue" d="M1644.44,-152.43C1638.31,-131.17 1633.45,-99.97 1648,-78 1664.83,-52.57 1695.78,-38.66 1723.48,-31.06"/>
<polygon fill="midnightblue" stroke="midnightblue" points="1641.1,-153.5 1647.46,-161.98 1647.78,-151.39 1641.1,-153.5"/>
</g>
<!-- Node26 -->
<g id="node26" class="node">
<title>Node26</title>
<g id="a_node26"><a xlink:href="Scenes_8hpp.html" target="_top" xlink:title=" ">
<polygon fill="white" stroke="black" points="1844.5,-84 1844.5,-114 1957.5,-114 1957.5,-84 1844.5,-84"/>
<text text-anchor="start" x="1852.5" y="-102" font-family="Helvetica,sans-Serif" font-size="10.00">Libs/Engine/sources</text>
<text text-anchor="middle" x="1901" y="-91" font-family="Helvetica,sans-Serif" font-size="10.00">/Scenes/Scenes.hpp</text>
</a>
</g>
</g>
<!-- Node22&#45;&gt;Node26 -->
<g id="edge36" class="edge">
<title>Node22&#45;&gt;Node26</title>
<path fill="none" stroke="midnightblue" d="M1708.49,-159C1752.62,-145.47 1813.65,-126.77 1855.07,-114.07"/>
<polygon fill="midnightblue" stroke="midnightblue" points="1707.31,-155.7 1698.78,-161.97 1709.36,-162.39 1707.31,-155.7"/>
</g>
<!-- Node30 -->
<g id="node30" class="node">
<title>Node30</title>
<g id="a_node30"><a xlink:href="PauseSystem_8hpp.html" target="_top" xlink:title=" ">
<polygon fill="white" stroke="black" points="2350,-78.5 2350,-119.5 2480,-119.5 2480,-78.5 2350,-78.5"/>
<text text-anchor="start" x="2358" y="-107.5" font-family="Helvetica,sans-Serif" font-size="10.00">Libs/Engine/sources</text>
<text text-anchor="start" x="2358" y="-96.5" font-family="Helvetica,sans-Serif" font-size="10.00">/Systems/PauseSystem</text>
<text text-anchor="middle" x="2415" y="-85.5" font-family="Helvetica,sans-Serif" font-size="10.00">/PauseSystem.hpp</text>
</a>
</g>
</g>
<!-- Node22&#45;&gt;Node30 -->
<g id="edge43" class="edge">
<title>Node22&#45;&gt;Node30</title>
<path fill="none" stroke="midnightblue" d="M1748.26,-170.51C1875.2,-162.57 2106.62,-145.94 2303,-120 2318.18,-118 2334.43,-115.37 2349.71,-112.69"/>
<polygon fill="midnightblue" stroke="midnightblue" points="1747.95,-167.02 1738.18,-171.13 1748.38,-174.01 1747.95,-167.02"/>
</g>
<!-- Node32 -->
<g id="node32" class="node">
<title>Node32</title>
<g id="a_node32"><a xlink:href="Prototype_2sources_2Drawable_2main_8cpp.html" target="_top" xlink:title=" ">
<polygon fill="white" stroke="black" points="1976,-84 1976,-114 2130,-114 2130,-84 1976,-84"/>
<text text-anchor="start" x="1984" y="-102" font-family="Helvetica,sans-Serif" font-size="10.00">Prototype/sources/Drawable</text>
<text text-anchor="middle" x="2053" y="-91" font-family="Helvetica,sans-Serif" font-size="10.00">/main.cpp</text>
</a>
</g>
</g>
<!-- Node22&#45;&gt;Node32 -->
<g id="edge46" class="edge">
<title>Node22&#45;&gt;Node32</title>
<path fill="none" stroke="midnightblue" d="M1748.4,-160.31C1810.77,-149.73 1893.91,-135.01 1967,-120 1975.86,-118.18 1985.2,-116.14 1994.34,-114.07"/>
<polygon fill="midnightblue" stroke="midnightblue" points="1747.46,-156.92 1738.19,-162.04 1748.63,-163.82 1747.46,-156.92"/>
</g>
<!-- Node26&#45;&gt;Node8 -->
<g id="edge40" class="edge">
<title>Node26&#45;&gt;Node8</title>
<path fill="none" stroke="midnightblue" d="M1834.08,-83.78C1821.79,-81.55 1809.05,-79.5 1797,-78 1469.87,-37.32 1077.19,-26.13 907.7,-23.1"/>
<polygon fill="midnightblue" stroke="midnightblue" points="1833.8,-87.29 1844.27,-85.68 1835.08,-80.4 1833.8,-87.29"/>
</g>
<!-- Node26&#45;&gt;Node19 -->
<g id="edge37" class="edge">
<title>Node26&#45;&gt;Node19</title>
<path fill="none" stroke="midnightblue" d="M1954.35,-81.15C1958.61,-80.02 1962.86,-78.95 1967,-78 2063.55,-55.87 2176.87,-39.65 2249.03,-30.52"/>
<polygon fill="midnightblue" stroke="midnightblue" points="1953.14,-77.86 1944.44,-83.91 1955.01,-84.6 1953.14,-77.86"/>
</g>
<!-- Node26&#45;&gt;Node25 -->
<g id="edge41" class="edge">
<title>Node26&#45;&gt;Node25</title>
<path fill="none" stroke="midnightblue" d="M1869.9,-78.47C1848.78,-65.2 1821.34,-47.96 1802.36,-36.04"/>
<polygon fill="midnightblue" stroke="midnightblue" points="1868.19,-81.53 1878.52,-83.88 1871.92,-75.6 1868.19,-81.53"/>
</g>
<!-- Node27 -->
<g id="node27" class="node">
<title>Node27</title>
<g id="a_node27"><a xlink:href="ButtonCallbacks_8cpp.html" target="_top" xlink:title=" ">
<polygon fill="white" stroke="black" points="1855,-0.5 1855,-41.5 2019,-41.5 2019,-0.5 1855,-0.5"/>
<text text-anchor="start" x="1863" y="-29.5" font-family="Helvetica,sans-Serif" font-size="10.00">Libs/Engine/sources</text>
<text text-anchor="start" x="1863" y="-18.5" font-family="Helvetica,sans-Serif" font-size="10.00">/Components/ButtonCallbacks</text>
<text text-anchor="middle" x="1937" y="-7.5" font-family="Helvetica,sans-Serif" font-size="10.00">/ButtonCallbacks.cpp</text>
</a>
</g>
</g>
<!-- Node26&#45;&gt;Node27 -->
<g id="edge38" class="edge">
<title>Node26&#45;&gt;Node27</title>
<path fill="none" stroke="midnightblue" d="M1912.07,-74.63C1917.07,-64.08 1922.91,-51.75 1927.68,-41.68"/>
<polygon fill="midnightblue" stroke="midnightblue" points="1908.89,-73.17 1907.77,-83.7 1915.22,-76.17 1908.89,-73.17"/>
</g>
<!-- Node28 -->
<g id="node28" class="node">
<title>Node28</title>
<g id="a_node28"><a xlink:href="GameConfigurator_8cpp.html" target="_top" xlink:title=" ">
<polygon fill="white" stroke="black" points="2422.5,-0.5 2422.5,-41.5 2595.5,-41.5 2595.5,-0.5 2422.5,-0.5"/>
<text text-anchor="start" x="2430.5" y="-29.5" font-family="Helvetica,sans-Serif" font-size="10.00">Libs/Engine/sources</text>
<text text-anchor="start" x="2430.5" y="-18.5" font-family="Helvetica,sans-Serif" font-size="10.00">/Components/GameConfigurator</text>
<text text-anchor="middle" x="2509" y="-7.5" font-family="Helvetica,sans-Serif" font-size="10.00">/GameConfigurator.cpp</text>
</a>
</g>
</g>
<!-- Node26&#45;&gt;Node28 -->
<g id="edge39" class="edge">
<title>Node26&#45;&gt;Node28</title>
<path fill="none" stroke="midnightblue" d="M1952.48,-81.25C1957.36,-80.01 1962.25,-78.9 1967,-78 2162.82,-40.89 2216.75,-70.59 2414,-42 2416.75,-41.6 2419.54,-41.17 2422.36,-40.71"/>
<polygon fill="midnightblue" stroke="midnightblue" points="1951.3,-77.95 1942.56,-83.94 1953.13,-84.7 1951.3,-77.95"/>
</g>
<!-- Node29 -->
<g id="node29" class="node">
<title>Node29</title>
<g id="a_node29"><a xlink:href="Prototype_2sources_2Behaviour_2main_8cpp.html" target="_top" xlink:title=" ">
<polygon fill="white" stroke="black" points="2800.5,-6 2800.5,-36 2957.5,-36 2957.5,-6 2800.5,-6"/>
<text text-anchor="start" x="2808.5" y="-24" font-family="Helvetica,sans-Serif" font-size="10.00">Prototype/sources/Behaviour</text>
<text text-anchor="middle" x="2879" y="-13" font-family="Helvetica,sans-Serif" font-size="10.00">/main.cpp</text>
</a>
</g>
</g>
<!-- Node26&#45;&gt;Node29 -->
<g id="edge42" class="edge">
<title>Node26&#45;&gt;Node29</title>
<path fill="none" stroke="midnightblue" d="M1951.63,-81.28C1956.78,-80 1961.97,-78.86 1967,-78 2311.66,-18.84 2405.1,-77.47 2753,-42 2768.31,-40.44 2784.6,-38.25 2800.2,-35.89"/>
<polygon fill="midnightblue" stroke="midnightblue" points="1950.56,-77.94 1941.81,-83.91 1952.38,-84.7 1950.56,-77.94"/>
</g>
<!-- Node30&#45;&gt;Node19 -->
<g id="edge44" class="edge">
<title>Node30&#45;&gt;Node19</title>
<path fill="none" stroke="midnightblue" d="M2383.2,-72.01C2365.53,-57.57 2344.7,-40.55 2332.46,-30.55"/>
<polygon fill="midnightblue" stroke="midnightblue" points="2381.09,-74.81 2391.05,-78.43 2385.52,-69.39 2381.09,-74.81"/>
</g>
<!-- Node31 -->
<g id="node31" class="node">
<title>Node31</title>
<g id="a_node31"><a xlink:href="PauseSystem_8cpp.html" target="_top" xlink:title=" ">
<polygon fill="white" stroke="black" points="2614,-0.5 2614,-41.5 2744,-41.5 2744,-0.5 2614,-0.5"/>
<text text-anchor="start" x="2622" y="-29.5" font-family="Helvetica,sans-Serif" font-size="10.00">Libs/Engine/sources</text>
<text text-anchor="start" x="2622" y="-18.5" font-family="Helvetica,sans-Serif" font-size="10.00">/Systems/PauseSystem</text>
<text text-anchor="middle" x="2679" y="-7.5" font-family="Helvetica,sans-Serif" font-size="10.00">/PauseSystem.cpp</text>
</a>
</g>
</g>
<!-- Node30&#45;&gt;Node31 -->
<g id="edge45" class="edge">
<title>Node30&#45;&gt;Node31</title>
<path fill="none" stroke="midnightblue" d="M2489.98,-76.42C2528.94,-65.2 2576.11,-51.62 2613.58,-40.83"/>
<polygon fill="midnightblue" stroke="midnightblue" points="2488.9,-73.08 2480.26,-79.21 2490.84,-79.81 2488.9,-73.08"/>
</g>
<!-- Node33&#45;&gt;Node7 -->
<g id="edge48" class="edge">
<title>Node33&#45;&gt;Node7</title>
<path fill="none" stroke="midnightblue" d="M1291,-224.36C1291,-193.61 1291,-146.36 1291,-119.83"/>
<polygon fill="midnightblue" stroke="midnightblue" points="1287.5,-224.5 1291,-234.5 1294.5,-224.5 1287.5,-224.5"/>
</g>
<!-- Node33&#45;&gt;Node8 -->
<g id="edge49" class="edge">
<title>Node33&#45;&gt;Node8</title>
<path fill="none" stroke="midnightblue" d="M1209.78,-237.19C1078.02,-209.12 829.81,-152.57 805,-120 786.13,-95.23 802.7,-56.84 814.19,-36.23"/>
<polygon fill="midnightblue" stroke="midnightblue" points="1209.33,-240.68 1219.84,-239.33 1210.78,-233.83 1209.33,-240.68"/>
</g>
<!-- Node34&#45;&gt;Node19 -->
<g id="edge54" class="edge">
<title>Node34&#45;&gt;Node19</title>
<path fill="none" stroke="midnightblue" d="M2542.46,-147.96C2526.12,-122.61 2502.33,-87.79 2489,-78 2467.44,-62.16 2397.32,-41.81 2355.1,-30.51"/>
<polygon fill="midnightblue" stroke="midnightblue" points="2539.57,-149.93 2547.9,-156.48 2545.46,-146.17 2539.57,-149.93"/>
</g>
<!-- Node34&#45;&gt;Node25 -->
<g id="edge56" class="edge">
<title>Node34&#45;&gt;Node25</title>
<path fill="none" stroke="midnightblue" d="M2474.22,-173.84C2294.12,-168.67 1888.8,-153.43 1836,-120 1805.54,-100.71 1789.93,-58.52 1783.57,-36.32"/>
<polygon fill="midnightblue" stroke="midnightblue" points="2474.36,-177.35 2484.45,-174.13 2474.56,-170.35 2474.36,-177.35"/>
</g>
<!-- Node34&#45;&gt;Node28 -->
<g id="edge55" class="edge">
<title>Node34&#45;&gt;Node28</title>
<path fill="none" stroke="midnightblue" d="M2645.68,-174.77C2755.62,-170.26 2924.98,-151.61 2861,-78 2823.31,-34.64 2661.6,-51.86 2605,-42 2601.9,-41.46 2598.74,-40.89 2595.56,-40.31"/>
<polygon fill="midnightblue" stroke="midnightblue" points="2645.42,-171.28 2635.56,-175.15 2645.69,-178.27 2645.42,-171.28"/>
</g>
<!-- Node34&#45;&gt;Node29 -->
<g id="edge59" class="edge">
<title>Node34&#45;&gt;Node29</title>
<path fill="none" stroke="midnightblue" d="M2645.77,-173.16C2730.73,-168.32 2852.34,-155.26 2882,-120 2901.83,-96.42 2892.12,-57.2 2884.73,-36.23"/>
<polygon fill="midnightblue" stroke="midnightblue" points="2645.39,-169.67 2635.6,-173.71 2645.77,-176.66 2645.39,-169.67"/>
</g>
<!-- Node34&#45;&gt;Node30 -->
<g id="edge58" class="edge">
<title>Node34&#45;&gt;Node30</title>
<path fill="none" stroke="midnightblue" d="M2513.77,-151.77C2493.89,-141.35 2470.97,-129.34 2452.21,-119.51"/>
<polygon fill="midnightblue" stroke="midnightblue" points="2512.18,-154.89 2522.66,-156.43 2515.43,-148.69 2512.18,-154.89"/>
</g>
<!-- Node35 -->
<g id="node35" class="node">
<title>Node35</title>
<g id="a_node35"><a xlink:href="BehaviourSystem_8cpp.html" target="_top" xlink:title=" ">
<polygon fill="white" stroke="black" points="2536.5,-78.5 2536.5,-119.5 2687.5,-119.5 2687.5,-78.5 2536.5,-78.5"/>
<text text-anchor="start" x="2544.5" y="-107.5" font-family="Helvetica,sans-Serif" font-size="10.00">Libs/Engine/sources</text>
<text text-anchor="start" x="2544.5" y="-96.5" font-family="Helvetica,sans-Serif" font-size="10.00">/Systems/BehaviourSystem</text>
<text text-anchor="middle" x="2612" y="-85.5" font-family="Helvetica,sans-Serif" font-size="10.00">/BehaviourSystem.cpp</text>
</a>
</g>
</g>
<!-- Node34&#45;&gt;Node35 -->
<g id="edge57" class="edge">
<title>Node34&#45;&gt;Node35</title>
<path fill="none" stroke="midnightblue" d="M2579.13,-148.05C2585.61,-138.57 2592.72,-128.18 2598.65,-119.51"/>
<polygon fill="midnightblue" stroke="midnightblue" points="2576.15,-146.2 2573.39,-156.43 2581.93,-150.15 2576.15,-146.2"/>
</g>
<!-- Node36 -->
<g id="node36" class="node">
<title>Node36</title>
<g id="a_node36"><a xlink:href="Prototype_2sources_2Shaders_2main_8cpp.html" target="_top" xlink:title=" ">
<polygon fill="white" stroke="black" points="2706,-84 2706,-114 2852,-114 2852,-84 2706,-84"/>
<text text-anchor="start" x="2714" y="-102" font-family="Helvetica,sans-Serif" font-size="10.00">Prototype/sources/Shaders</text>
<text text-anchor="middle" x="2779" y="-91" font-family="Helvetica,sans-Serif" font-size="10.00">/main.cpp</text>
</a>
</g>
</g>
<!-- Node34&#45;&gt;Node36 -->
<g id="edge60" class="edge">
<title>Node34&#45;&gt;Node36</title>
<path fill="none" stroke="midnightblue" d="M2626,-153.1C2662.56,-140.41 2706.85,-125.04 2738.35,-114.11"/>
<polygon fill="midnightblue" stroke="midnightblue" points="2624.7,-149.84 2616.4,-156.43 2626.99,-156.46 2624.7,-149.84"/>
</g>
</g>
</svg>
