<?xml version="1.0" encoding="UTF-8" standalone="no"?>
<!DOCTYPE svg PUBLIC "-//W3C//DTD SVG 1.1//EN"
 "http://www.w3.org/Graphics/SVG/1.1/DTD/svg11.dtd">
<!-- Generated by graphviz version 2.43.0 (0)
 -->
<!-- Title: Libs/ECS/tests/AddSystem/AddSystem.hpp Pages: 1 -->
<svg width="1063pt" height="386pt"
 viewBox="0.00 0.00 1062.50 386.00" xmlns="http://www.w3.org/2000/svg" xmlns:xlink="http://www.w3.org/1999/xlink">
<g id="graph0" class="graph" transform="scale(1 1) rotate(0) translate(4 382)">
<title>Libs/ECS/tests/AddSystem/AddSystem.hpp</title>
<polygon fill="white" stroke="transparent" points="-4,4 -4,-382 1058.5,-382 1058.5,4 -4,4"/>
<!-- Node1 -->
<g id="node1" class="node">
<title>Node1</title>
<g id="a_node1"><a xlink:title=" ">
<polygon fill="#bfbfbf" stroke="black" points="3.5,-347.5 3.5,-377.5 146.5,-377.5 146.5,-347.5 3.5,-347.5"/>
<text text-anchor="start" x="11.5" y="-365.5" font-family="Helvetica,sans-Serif" font-size="10.00">Libs/ECS/tests/AddSystem</text>
<text text-anchor="middle" x="75" y="-354.5" font-family="Helvetica,sans-Serif" font-size="10.00">/AddSystem.hpp</text>
</a>
</g>
</g>
<!-- Node2 -->
<g id="node2" class="node">
<title>Node2</title>
<g id="a_node2"><a xlink:title=" ">
<polygon fill="white" stroke="#bfbfbf" points="0,-123.5 0,-142.5 44,-142.5 44,-123.5 0,-123.5"/>
<text text-anchor="middle" x="22" y="-130.5" font-family="Helvetica,sans-Serif" font-size="10.00">string</text>
</a>
</g>
</g>
<!-- Node1&#45;&gt;Node2 -->
<g id="edge1" class="edge">
<title>Node1&#45;&gt;Node2</title>
<path fill="none" stroke="midnightblue" d="M52.22,-347.44C40.21,-338.62 26.62,-326.07 20,-311 -3.55,-257.41 9.05,-185.58 17.05,-152.32"/>
<polygon fill="midnightblue" stroke="midnightblue" points="20.44,-153.16 19.52,-142.6 13.66,-151.43 20.44,-153.16"/>
</g>
<!-- Node3 -->
<g id="node3" class="node">
<title>Node3</title>
<g id="a_node3"><a xlink:title=" ">
<polygon fill="white" stroke="#bfbfbf" points="62.5,-123.5 62.5,-142.5 109.5,-142.5 109.5,-123.5 62.5,-123.5"/>
<text text-anchor="middle" x="86" y="-130.5" font-family="Helvetica,sans-Serif" font-size="10.00">vector</text>
</a>
</g>
</g>
<!-- Node1&#45;&gt;Node3 -->
<g id="edge2" class="edge">
<title>Node1&#45;&gt;Node3</title>
<path fill="none" stroke="midnightblue" d="M54.76,-347.41C43.7,-338.43 31.05,-325.72 25,-311 21.62,-302.78 23.36,-299.74 25,-291 34.93,-238.01 62.19,-179.92 76.68,-151.56"/>
<polygon fill="midnightblue" stroke="midnightblue" points="79.87,-153 81.38,-142.51 73.66,-149.77 79.87,-153"/>
</g>
<!-- Node4 -->
<g id="node4" class="node">
<title>Node4</title>
<g id="a_node4"><a xlink:href="Entity_8hpp.html" target="_top" xlink:title=" ">
<polygon fill="white" stroke="black" points="282.5,-235.5 282.5,-254.5 347.5,-254.5 347.5,-235.5 282.5,-235.5"/>
<text text-anchor="middle" x="315" y="-242.5" font-family="Helvetica,sans-Serif" font-size="10.00">Entity.hpp</text>
</a>
</g>
</g>
<!-- Node1&#45;&gt;Node4 -->
<g id="edge3" class="edge">
<title>Node1&#45;&gt;Node4</title>
<path fill="none" stroke="midnightblue" d="M104.43,-347.34C151.42,-324.72 242.73,-280.78 288.08,-258.95"/>
<polygon fill="midnightblue" stroke="midnightblue" points="289.8,-262.01 297.29,-254.52 286.76,-255.71 289.8,-262.01"/>
</g>
<!-- Node20 -->
<g id="node20" class="node">
<title>Node20</title>
<g id="a_node20"><a xlink:href="ASystem_8hpp.html" target="_top" xlink:title=" ">
<polygon fill="white" stroke="black" points="34.5,-291.5 34.5,-310.5 115.5,-310.5 115.5,-291.5 34.5,-291.5"/>
<text text-anchor="middle" x="75" y="-298.5" font-family="Helvetica,sans-Serif" font-size="10.00">ASystem.hpp</text>
</a>
</g>
</g>
<!-- Node1&#45;&gt;Node20 -->
<g id="edge31" class="edge">
<title>Node1&#45;&gt;Node20</title>
<path fill="none" stroke="midnightblue" d="M75,-347.4C75,-339.47 75,-329.46 75,-320.86"/>
<polygon fill="midnightblue" stroke="midnightblue" points="78.5,-320.66 75,-310.66 71.5,-320.66 78.5,-320.66"/>
</g>
<!-- Node21 -->
<g id="node21" class="node">
<title>Node21</title>
<g id="a_node21"><a xlink:href="StorageComponent_8hpp.html" target="_top" xlink:title=" ">
<polygon fill="white" stroke="black" points="497.5,-235.5 497.5,-254.5 628.5,-254.5 628.5,-235.5 497.5,-235.5"/>
<text text-anchor="middle" x="563" y="-242.5" font-family="Helvetica,sans-Serif" font-size="10.00">StorageComponent.hpp</text>
</a>
</g>
</g>
<!-- Node1&#45;&gt;Node21 -->
<g id="edge35" class="edge">
<title>Node1&#45;&gt;Node21</title>
<path fill="none" stroke="midnightblue" d="M134.35,-347.45C232.92,-324.12 428.3,-277.88 517.12,-256.86"/>
<polygon fill="midnightblue" stroke="midnightblue" points="517.98,-260.25 526.91,-254.54 516.37,-253.44 517.98,-260.25"/>
</g>
<!-- Node4&#45;&gt;Node3 -->
<g id="edge8" class="edge">
<title>Node4&#45;&gt;Node3</title>
<path fill="none" stroke="midnightblue" d="M282.2,-239.36C248.77,-233.6 196.26,-221.63 156,-199 133.52,-186.36 112.53,-165.1 99.5,-150.35"/>
<polygon fill="midnightblue" stroke="midnightblue" points="101.97,-147.85 92.81,-142.53 96.66,-152.4 101.97,-147.85"/>
</g>
<!-- Node5 -->
<g id="node5" class="node">
<title>Node5</title>
<g id="a_node5"><a xlink:title=" ">
<polygon fill="white" stroke="#bfbfbf" points="128,-123.5 128,-142.5 190,-142.5 190,-123.5 128,-123.5"/>
<text text-anchor="middle" x="159" y="-130.5" font-family="Helvetica,sans-Serif" font-size="10.00">cinttypes</text>
</a>
</g>
</g>
<!-- Node4&#45;&gt;Node5 -->
<g id="edge4" class="edge">
<title>Node4&#45;&gt;Node5</title>
<path fill="none" stroke="midnightblue" d="M282.39,-243.28C249.03,-240.68 198.2,-231.24 170,-199 159.06,-186.49 156.99,-167.27 157.25,-152.96"/>
<polygon fill="midnightblue" stroke="midnightblue" points="160.75,-152.95 157.83,-142.77 153.77,-152.56 160.75,-152.95"/>
</g>
<!-- Node6 -->
<g id="node6" class="node">
<title>Node6</title>
<g id="a_node6"><a xlink:title=" ">
<polygon fill="white" stroke="#bfbfbf" points="581.5,-123.5 581.5,-142.5 674.5,-142.5 674.5,-123.5 581.5,-123.5"/>
<text text-anchor="middle" x="628" y="-130.5" font-family="Helvetica,sans-Serif" font-size="10.00">unordered_map</text>
</a>
</g>
</g>
<!-- Node4&#45;&gt;Node6 -->
<g id="edge5" class="edge">
<title>Node4&#45;&gt;Node6</title>
<path fill="none" stroke="midnightblue" d="M347.75,-242.21C393.36,-238.7 477.72,-228.45 543,-199 569.82,-186.9 595.99,-164.89 612.05,-149.86"/>
<polygon fill="midnightblue" stroke="midnightblue" points="614.69,-152.19 619.47,-142.73 609.84,-147.14 614.69,-152.19"/>
</g>
<!-- Node7 -->
<g id="node7" class="node">
<title>Node7</title>
<g id="a_node7"><a xlink:title=" ">
<polygon fill="white" stroke="#bfbfbf" points="258,-123.5 258,-142.5 316,-142.5 316,-123.5 258,-123.5"/>
<text text-anchor="middle" x="287" y="-130.5" font-family="Helvetica,sans-Serif" font-size="10.00">memory</text>
</a>
</g>
</g>
<!-- Node4&#45;&gt;Node7 -->
<g id="edge6" class="edge">
<title>Node4&#45;&gt;Node7</title>
<path fill="none" stroke="midnightblue" d="M312.8,-235.37C308.28,-217.62 297.86,-176.67 291.73,-152.6"/>
<polygon fill="midnightblue" stroke="midnightblue" points="295.05,-151.42 289.19,-142.59 288.26,-153.15 295.05,-151.42"/>
</g>
<!-- Node8 -->
<g id="node8" class="node">
<title>Node8</title>
<g id="a_node8"><a xlink:title=" ">
<polygon fill="white" stroke="#bfbfbf" points="334,-123.5 334,-142.5 398,-142.5 398,-123.5 334,-123.5"/>
<text text-anchor="middle" x="366" y="-130.5" font-family="Helvetica,sans-Serif" font-size="10.00">algorithm</text>
</a>
</g>
</g>
<!-- Node4&#45;&gt;Node8 -->
<g id="edge7" class="edge">
<title>Node4&#45;&gt;Node8</title>
<path fill="none" stroke="midnightblue" d="M319,-235.37C327.31,-217.46 346.56,-175.92 357.68,-151.95"/>
<polygon fill="midnightblue" stroke="midnightblue" points="360.99,-153.14 362.02,-142.59 354.64,-150.19 360.99,-153.14"/>
</g>
<!-- Node9 -->
<g id="node9" class="node">
<title>Node9</title>
<g id="a_node9"><a xlink:title=" ">
<polygon fill="white" stroke="#bfbfbf" points="472.5,-123.5 472.5,-142.5 563.5,-142.5 563.5,-123.5 472.5,-123.5"/>
<text text-anchor="middle" x="518" y="-130.5" font-family="Helvetica,sans-Serif" font-size="10.00">Exceptions.hpp</text>
</a>
</g>
</g>
<!-- Node4&#45;&gt;Node9 -->
<g id="edge9" class="edge">
<title>Node4&#45;&gt;Node9</title>
<path fill="none" stroke="midnightblue" d="M347.92,-241.89C401.54,-237.69 503.97,-226.22 526,-199 536.59,-185.91 532.25,-166.22 526.72,-151.94"/>
<polygon fill="midnightblue" stroke="midnightblue" points="529.88,-150.44 522.67,-142.67 523.46,-153.24 529.88,-150.44"/>
</g>
<!-- Node10 -->
<g id="node10" class="node">
<title>Node10</title>
<g id="a_node10"><a xlink:href="ComponentManager_8hpp.html" target="_top" xlink:title=" ">
<polygon fill="white" stroke="black" points="381,-179.5 381,-198.5 517,-198.5 517,-179.5 381,-179.5"/>
<text text-anchor="middle" x="449" y="-186.5" font-family="Helvetica,sans-Serif" font-size="10.00">ComponentManager.hpp</text>
</a>
</g>
</g>
<!-- Node4&#45;&gt;Node10 -->
<g id="edge10" class="edge">
<title>Node4&#45;&gt;Node10</title>
<path fill="none" stroke="midnightblue" d="M336.23,-235.44C358.38,-226.52 393.32,-212.44 418.44,-202.32"/>
<polygon fill="midnightblue" stroke="midnightblue" points="419.9,-205.5 427.87,-198.52 417.28,-199.01 419.9,-205.5"/>
</g>
<!-- Node11 -->
<g id="node11" class="node">
<title>Node11</title>
<g id="a_node11"><a xlink:href="IComponent_8hpp.html" target="_top" xlink:title=" ">
<polygon fill="white" stroke="black" points="692.5,-123.5 692.5,-142.5 789.5,-142.5 789.5,-123.5 692.5,-123.5"/>
<text text-anchor="middle" x="741" y="-130.5" font-family="Helvetica,sans-Serif" font-size="10.00">IComponent.hpp</text>
</a>
</g>
</g>
<!-- Node4&#45;&gt;Node11 -->
<g id="edge30" class="edge">
<title>Node4&#45;&gt;Node11</title>
<path fill="none" stroke="midnightblue" d="M347.63,-240.4C397.03,-234.47 493.49,-221.09 573,-199 623.52,-184.97 679.92,-161.44 712.84,-146.87"/>
<polygon fill="midnightblue" stroke="midnightblue" points="714.56,-149.93 722.26,-142.65 711.71,-143.54 714.56,-149.93"/>
</g>
<!-- Node18 -->
<g id="node18" class="node">
<title>Node18</title>
<g id="a_node18"><a xlink:href="EntityManager_8hpp.html" target="_top" xlink:title=" ">
<polygon fill="white" stroke="black" points="179,-179.5 179,-198.5 287,-198.5 287,-179.5 179,-179.5"/>
<text text-anchor="middle" x="233" y="-186.5" font-family="Helvetica,sans-Serif" font-size="10.00">EntityManager.hpp</text>
</a>
</g>
</g>
<!-- Node4&#45;&gt;Node18 -->
<g id="edge25" class="edge">
<title>Node4&#45;&gt;Node18</title>
<path fill="none" stroke="midnightblue" d="M301.83,-235.32C289.15,-226.98 269.77,-214.21 254.79,-204.35"/>
<polygon fill="midnightblue" stroke="midnightblue" points="256.42,-201.23 246.14,-198.65 252.57,-207.08 256.42,-201.23"/>
</g>
<!-- Node10&#45;&gt;Node2 -->
<g id="edge12" class="edge">
<title>Node10&#45;&gt;Node2</title>
<path fill="none" stroke="midnightblue" d="M380.84,-183.78C303.67,-178.21 174.13,-166.48 54.32,-142.96"/>
<polygon fill="midnightblue" stroke="midnightblue" points="54.73,-139.47 44.24,-140.95 53.36,-146.34 54.73,-139.47"/>
</g>
<!-- Node10&#45;&gt;Node3 -->
<g id="edge13" class="edge">
<title>Node10&#45;&gt;Node3</title>
<path fill="none" stroke="midnightblue" d="M380.94,-181.35C316.13,-174.42 215.74,-162.14 119.59,-142.87"/>
<polygon fill="midnightblue" stroke="midnightblue" points="120.2,-139.42 109.7,-140.86 118.81,-146.28 120.2,-139.42"/>
</g>
<!-- Node10&#45;&gt;Node6 -->
<g id="edge11" class="edge">
<title>Node10&#45;&gt;Node6</title>
<path fill="none" stroke="midnightblue" d="M477.36,-179.44C507.74,-170.28 556.11,-155.69 589.82,-145.52"/>
<polygon fill="midnightblue" stroke="midnightblue" points="591.21,-148.76 599.77,-142.52 589.18,-142.05 591.21,-148.76"/>
</g>
<!-- Node10&#45;&gt;Node7 -->
<g id="edge14" class="edge">
<title>Node10&#45;&gt;Node7</title>
<path fill="none" stroke="midnightblue" d="M423.33,-179.44C396.08,-170.36 352.82,-155.94 322.35,-145.78"/>
<polygon fill="midnightblue" stroke="midnightblue" points="323.14,-142.36 312.55,-142.52 320.93,-149 323.14,-142.36"/>
</g>
<!-- Node10&#45;&gt;Node8 -->
<g id="edge15" class="edge">
<title>Node10&#45;&gt;Node8</title>
<path fill="none" stroke="midnightblue" d="M435.66,-179.32C422.84,-170.98 403.22,-158.21 388.06,-148.35"/>
<polygon fill="midnightblue" stroke="midnightblue" points="389.59,-145.17 379.3,-142.65 385.78,-151.04 389.59,-145.17"/>
</g>
<!-- Node10&#45;&gt;Node9 -->
<g id="edge16" class="edge">
<title>Node10&#45;&gt;Node9</title>
<path fill="none" stroke="midnightblue" d="M460.09,-179.32C470.49,-171.18 486.26,-158.84 498.72,-149.09"/>
<polygon fill="midnightblue" stroke="midnightblue" points="500.99,-151.75 506.71,-142.83 496.68,-146.24 500.99,-151.75"/>
</g>
<!-- Node10&#45;&gt;Node11 -->
<g id="edge17" class="edge">
<title>Node10&#45;&gt;Node11</title>
<path fill="none" stroke="midnightblue" d="M495.27,-179.44C546.74,-169.92 629.89,-154.55 685,-144.36"/>
<polygon fill="midnightblue" stroke="midnightblue" points="685.75,-147.78 694.95,-142.52 684.48,-140.89 685.75,-147.78"/>
</g>
<!-- Node17 -->
<g id="node17" class="node">
<title>Node17</title>
<g id="a_node17"><a xlink:title=" ">
<polygon fill="white" stroke="#bfbfbf" points="416,-123.5 416,-142.5 454,-142.5 454,-123.5 416,-123.5"/>
<text text-anchor="middle" x="435" y="-130.5" font-family="Helvetica,sans-Serif" font-size="10.00">map</text>
</a>
</g>
</g>
<!-- Node10&#45;&gt;Node17 -->
<g id="edge24" class="edge">
<title>Node10&#45;&gt;Node17</title>
<path fill="none" stroke="midnightblue" d="M446.69,-179.08C444.83,-171.93 442.16,-161.64 439.85,-152.69"/>
<polygon fill="midnightblue" stroke="midnightblue" points="443.17,-151.55 437.27,-142.75 436.39,-153.31 443.17,-151.55"/>
</g>
<!-- Node12 -->
<g id="node12" class="node">
<title>Node12</title>
<g id="a_node12"><a xlink:title=" ">
<polygon fill="white" stroke="#bfbfbf" points="656.5,-6 656.5,-25 713.5,-25 713.5,-6 656.5,-6"/>
<text text-anchor="middle" x="685" y="-13" font-family="Helvetica,sans-Serif" font-size="10.00">ostream</text>
</a>
</g>
</g>
<!-- Node11&#45;&gt;Node12 -->
<g id="edge18" class="edge">
<title>Node11&#45;&gt;Node12</title>
<path fill="none" stroke="midnightblue" d="M736.79,-123.32C727.67,-104.51 705.92,-59.65 693.71,-34.46"/>
<polygon fill="midnightblue" stroke="midnightblue" points="696.77,-32.75 689.26,-25.28 690.47,-35.81 696.77,-32.75"/>
</g>
<!-- Node13 -->
<g id="node13" class="node">
<title>Node13</title>
<g id="a_node13"><a xlink:href="IXMLSerializable_8hpp.html" target="_top" xlink:title=" ">
<polygon fill="white" stroke="black" points="728.5,-67.5 728.5,-86.5 847.5,-86.5 847.5,-67.5 728.5,-67.5"/>
<text text-anchor="middle" x="788" y="-74.5" font-family="Helvetica,sans-Serif" font-size="10.00">IXMLSerializable.hpp</text>
</a>
</g>
</g>
<!-- Node11&#45;&gt;Node13 -->
<g id="edge19" class="edge">
<title>Node11&#45;&gt;Node13</title>
<path fill="none" stroke="midnightblue" d="M748.76,-123.08C755.54,-115.3 765.54,-103.8 773.76,-94.37"/>
<polygon fill="midnightblue" stroke="midnightblue" points="776.46,-96.59 780.38,-86.75 771.18,-92 776.46,-96.59"/>
</g>
<!-- Node13&#45;&gt;Node12 -->
<g id="edge20" class="edge">
<title>Node13&#45;&gt;Node12</title>
<path fill="none" stroke="midnightblue" d="M773.24,-67.48C756.34,-57.71 728.42,-41.58 708.51,-30.08"/>
<polygon fill="midnightblue" stroke="midnightblue" points="710.14,-26.98 699.73,-25.01 706.64,-33.04 710.14,-26.98"/>
</g>
<!-- Node14 -->
<g id="node14" class="node">
<title>Node14</title>
<g id="a_node14"><a xlink:title=" ">
<polygon fill="white" stroke="#bfbfbf" points="863,-6 863,-25 923,-25 923,-6 863,-6"/>
<text text-anchor="middle" x="893" y="-13" font-family="Helvetica,sans-Serif" font-size="10.00">iostream</text>
</a>
</g>
</g>
<!-- Node13&#45;&gt;Node14 -->
<g id="edge21" class="edge">
<title>Node13&#45;&gt;Node14</title>
<path fill="none" stroke="midnightblue" d="M803.04,-67.48C820.28,-57.71 848.74,-41.58 869.03,-30.08"/>
<polygon fill="midnightblue" stroke="midnightblue" points="871.01,-32.98 877.98,-25.01 867.56,-26.89 871.01,-32.98"/>
</g>
<!-- Node15 -->
<g id="node15" class="node">
<title>Node15</title>
<g id="a_node15"><a xlink:title=" ">
<polygon fill="white" stroke="#bfbfbf" points="941.5,-0.5 941.5,-30.5 1054.5,-30.5 1054.5,-0.5 941.5,-0.5"/>
<text text-anchor="start" x="949.5" y="-18.5" font-family="Helvetica,sans-Serif" font-size="10.00">boost/property_tree</text>
<text text-anchor="middle" x="998" y="-7.5" font-family="Helvetica,sans-Serif" font-size="10.00">/ptree.hpp</text>
</a>
</g>
</g>
<!-- Node13&#45;&gt;Node15 -->
<g id="edge22" class="edge">
<title>Node13&#45;&gt;Node15</title>
<path fill="none" stroke="midnightblue" d="M818.09,-67.48C849.45,-58.59 899.43,-44.43 938.76,-33.29"/>
<polygon fill="midnightblue" stroke="midnightblue" points="939.84,-36.62 948.51,-30.52 937.93,-29.88 939.84,-36.62"/>
</g>
<!-- Node16 -->
<g id="node16" class="node">
<title>Node16</title>
<g id="a_node16"><a xlink:title=" ">
<polygon fill="white" stroke="#bfbfbf" points="731.5,-0.5 731.5,-30.5 844.5,-30.5 844.5,-0.5 731.5,-0.5"/>
<text text-anchor="start" x="739.5" y="-18.5" font-family="Helvetica,sans-Serif" font-size="10.00">boost/property_tree</text>
<text text-anchor="middle" x="788" y="-7.5" font-family="Helvetica,sans-Serif" font-size="10.00">/xml_parser.hpp</text>
</a>
</g>
</g>
<!-- Node13&#45;&gt;Node16 -->
<g id="edge23" class="edge">
<title>Node13&#45;&gt;Node16</title>
<path fill="none" stroke="midnightblue" d="M788,-67.48C788,-60.47 788,-50.19 788,-40.7"/>
<polygon fill="midnightblue" stroke="midnightblue" points="791.5,-40.52 788,-30.52 784.5,-40.52 791.5,-40.52"/>
</g>
<!-- Node18&#45;&gt;Node3 -->
<g id="edge26" class="edge">
<title>Node18&#45;&gt;Node3</title>
<path fill="none" stroke="midnightblue" d="M209.71,-179.44C185.19,-170.44 146.4,-156.19 118.8,-146.05"/>
<polygon fill="midnightblue" stroke="midnightblue" points="119.78,-142.68 109.18,-142.52 117.36,-149.25 119.78,-142.68"/>
</g>
<!-- Node18&#45;&gt;Node5 -->
<g id="edge27" class="edge">
<title>Node18&#45;&gt;Node5</title>
<path fill="none" stroke="midnightblue" d="M221.11,-179.32C209.85,-171.11 192.71,-158.6 179.29,-148.81"/>
<polygon fill="midnightblue" stroke="midnightblue" points="181.25,-145.9 171.11,-142.83 177.12,-151.56 181.25,-145.9"/>
</g>
<!-- Node18&#45;&gt;Node7 -->
<g id="edge28" class="edge">
<title>Node18&#45;&gt;Node7</title>
<path fill="none" stroke="midnightblue" d="M241.92,-179.08C249.78,-171.22 261.43,-159.57 270.92,-150.08"/>
<polygon fill="midnightblue" stroke="midnightblue" points="273.65,-152.3 278.25,-142.75 268.7,-147.35 273.65,-152.3"/>
</g>
<!-- Node19 -->
<g id="node19" class="node">
<title>Node19</title>
<g id="a_node19"><a xlink:title=" ">
<polygon fill="white" stroke="#bfbfbf" points="208,-123.5 208,-142.5 240,-142.5 240,-123.5 208,-123.5"/>
<text text-anchor="middle" x="224" y="-130.5" font-family="Helvetica,sans-Serif" font-size="10.00">list</text>
</a>
</g>
</g>
<!-- Node18&#45;&gt;Node19 -->
<g id="edge29" class="edge">
<title>Node18&#45;&gt;Node19</title>
<path fill="none" stroke="midnightblue" d="M231.51,-179.08C230.32,-171.93 228.61,-161.64 227.12,-152.69"/>
<polygon fill="midnightblue" stroke="midnightblue" points="230.55,-152.04 225.46,-142.75 223.65,-153.19 230.55,-152.04"/>
</g>
<!-- Node20&#45;&gt;Node2 -->
<g id="edge32" class="edge">
<title>Node20&#45;&gt;Node2</title>
<path fill="none" stroke="midnightblue" d="M72.15,-291.08C63.77,-264.83 39.1,-187.55 27.78,-152.12"/>
<polygon fill="midnightblue" stroke="midnightblue" points="31.11,-151.03 24.74,-142.57 24.44,-153.16 31.11,-151.03"/>
</g>
<!-- Node20&#45;&gt;Node3 -->
<g id="edge33" class="edge">
<title>Node20&#45;&gt;Node3</title>
<path fill="none" stroke="midnightblue" d="M75.59,-291.08C77.32,-264.95 82.41,-188.21 84.77,-152.58"/>
<polygon fill="midnightblue" stroke="midnightblue" points="88.26,-152.78 85.43,-142.57 81.28,-152.31 88.26,-152.78"/>
</g>
<!-- Node20&#45;&gt;Node4 -->
<g id="edge34" class="edge">
<title>Node20&#45;&gt;Node4</title>
<path fill="none" stroke="midnightblue" d="M113.03,-291.44C156.41,-281.68 227.16,-265.77 272.37,-255.59"/>
<polygon fill="midnightblue" stroke="midnightblue" points="273.17,-259 282.16,-253.39 271.64,-252.17 273.17,-259"/>
</g>
<!-- Node21&#45;&gt;Node11 -->
<g id="edge36" class="edge">
<title>Node21&#45;&gt;Node11</title>
<path fill="none" stroke="midnightblue" d="M593.89,-235.45C617.57,-228.04 650.43,-215.84 676,-199 696.31,-185.63 715.47,-165.15 727.66,-150.76"/>
<polygon fill="midnightblue" stroke="midnightblue" points="730.63,-152.65 734.29,-142.7 725.23,-148.2 730.63,-152.65"/>
</g>
</g>
</svg>
