<?xml version="1.0" encoding="UTF-8" standalone="no"?>
<!DOCTYPE svg PUBLIC "-//W3C//DTD SVG 1.1//EN"
 "http://www.w3.org/Graphics/SVG/1.1/DTD/svg11.dtd">
<!-- Generated by graphviz version 2.43.0 (0)
 -->
<!-- Title: Libs/Engine/sources/Systems/AIMapsGenerator/AIMapsGenerator.hpp Pages: 1 -->
<svg width="867pt" height="206pt"
 viewBox="0.00 0.00 866.50 206.00" xmlns="http://www.w3.org/2000/svg" xmlns:xlink="http://www.w3.org/1999/xlink">
<g id="graph0" class="graph" transform="scale(1 1) rotate(0) translate(4 202)">
<title>Libs/Engine/sources/Systems/AIMapsGenerator/AIMapsGenerator.hpp</title>
<polygon fill="white" stroke="transparent" points="-4,4 -4,-202 862.5,-202 862.5,4 -4,4"/>
<!-- Node1 -->
<g id="node1" class="node">
<title>Node1</title>
<g id="a_node1"><a xlink:title=" ">
<polygon fill="#bfbfbf" stroke="black" points="524.5,-156.5 524.5,-197.5 673.5,-197.5 673.5,-156.5 524.5,-156.5"/>
<text text-anchor="start" x="532.5" y="-185.5" font-family="Helvetica,sans-Serif" font-size="10.00">Libs/Engine/sources</text>
<text text-anchor="start" x="532.5" y="-174.5" font-family="Helvetica,sans-Serif" font-size="10.00">/Systems/AIMapsGenerator</text>
<text text-anchor="middle" x="599" y="-163.5" font-family="Helvetica,sans-Serif" font-size="10.00">/AIMapsGenerator.hpp</text>
</a>
</g>
</g>
<!-- Node2 -->
<g id="node2" class="node">
<title>Node2</title>
<g id="a_node2"><a xlink:href="AIAlgo_8hpp.html" target="_top" xlink:title=" ">
<polygon fill="white" stroke="black" points="353.5,-84 353.5,-114 524.5,-114 524.5,-84 353.5,-84"/>
<text text-anchor="start" x="361.5" y="-102" font-family="Helvetica,sans-Serif" font-size="10.00">Libs/Engine/sources</text>
<text text-anchor="middle" x="439" y="-91" font-family="Helvetica,sans-Serif" font-size="10.00">/Components/AIAlgo/AIAlgo.hpp</text>
</a>
</g>
</g>
<!-- Node1&#45;&gt;Node2 -->
<g id="edge1" class="edge">
<title>Node1&#45;&gt;Node2</title>
<path fill="none" stroke="midnightblue" d="M548.75,-152.13C522.54,-139.68 491.36,-124.87 468.95,-114.23"/>
<polygon fill="midnightblue" stroke="midnightblue" points="547.26,-155.3 557.8,-156.43 550.26,-148.98 547.26,-155.3"/>
</g>
<!-- Node8 -->
<g id="node8" class="node">
<title>Node8</title>
<g id="a_node8"><a xlink:href="Scenes_8cpp.html" target="_top" xlink:title=" ">
<polygon fill="white" stroke="black" points="542.5,-84 542.5,-114 655.5,-114 655.5,-84 542.5,-84"/>
<text text-anchor="start" x="550.5" y="-102" font-family="Helvetica,sans-Serif" font-size="10.00">Libs/Engine/sources</text>
<text text-anchor="middle" x="599" y="-91" font-family="Helvetica,sans-Serif" font-size="10.00">/Scenes/Scenes.cpp</text>
</a>
</g>
</g>
<!-- Node1&#45;&gt;Node8 -->
<g id="edge7" class="edge">
<title>Node1&#45;&gt;Node8</title>
<path fill="none" stroke="midnightblue" d="M599,-146.28C599,-135.25 599,-123.25 599,-114.23"/>
<polygon fill="midnightblue" stroke="midnightblue" points="595.5,-146.43 599,-156.43 602.5,-146.43 595.5,-146.43"/>
</g>
<!-- Node9 -->
<g id="node9" class="node">
<title>Node9</title>
<g id="a_node9"><a xlink:href="AIMapsGenerator_8cpp.html" target="_top" xlink:title=" ">
<polygon fill="white" stroke="black" points="673.5,-78.5 673.5,-119.5 822.5,-119.5 822.5,-78.5 673.5,-78.5"/>
<text text-anchor="start" x="681.5" y="-107.5" font-family="Helvetica,sans-Serif" font-size="10.00">Libs/Engine/sources</text>
<text text-anchor="start" x="681.5" y="-96.5" font-family="Helvetica,sans-Serif" font-size="10.00">/Systems/AIMapsGenerator</text>
<text text-anchor="middle" x="748" y="-85.5" font-family="Helvetica,sans-Serif" font-size="10.00">/AIMapsGenerator.cpp</text>
</a>
</g>
</g>
<!-- Node1&#45;&gt;Node9 -->
<g id="edge8" class="edge">
<title>Node1&#45;&gt;Node9</title>
<path fill="none" stroke="midnightblue" d="M646.51,-151.77C666.93,-141.35 690.49,-129.34 709.76,-119.51"/>
<polygon fill="midnightblue" stroke="midnightblue" points="644.69,-148.77 637.37,-156.43 647.87,-155 644.69,-148.77"/>
</g>
<!-- Node3 -->
<g id="node3" class="node">
<title>Node3</title>
<g id="a_node3"><a xlink:href="AIAlgo_8cpp.html" target="_top" xlink:title=" ">
<polygon fill="white" stroke="black" points="0,-6 0,-36 170,-36 170,-6 0,-6"/>
<text text-anchor="start" x="8" y="-24" font-family="Helvetica,sans-Serif" font-size="10.00">Libs/Engine/sources</text>
<text text-anchor="middle" x="85" y="-13" font-family="Helvetica,sans-Serif" font-size="10.00">/Components/AIAlgo/AIAlgo.cpp</text>
</a>
</g>
</g>
<!-- Node2&#45;&gt;Node3 -->
<g id="edge2" class="edge">
<title>Node2&#45;&gt;Node3</title>
<path fill="none" stroke="midnightblue" d="M363.72,-81.84C300.35,-68.23 210.63,-48.97 150.26,-36.01"/>
<polygon fill="midnightblue" stroke="midnightblue" points="363.15,-85.29 373.66,-83.97 364.62,-78.45 363.15,-85.29"/>
</g>
<!-- Node4 -->
<g id="node4" class="node">
<title>Node4</title>
<g id="a_node4"><a xlink:href="CoolDownBoost_8cpp.html" target="_top" xlink:title=" ">
<polygon fill="white" stroke="black" points="188.5,-0.5 188.5,-41.5 349.5,-41.5 349.5,-0.5 188.5,-0.5"/>
<text text-anchor="start" x="196.5" y="-29.5" font-family="Helvetica,sans-Serif" font-size="10.00">Libs/Engine/sources</text>
<text text-anchor="start" x="196.5" y="-18.5" font-family="Helvetica,sans-Serif" font-size="10.00">/Components/CoolDownBoost</text>
<text text-anchor="middle" x="269" y="-7.5" font-family="Helvetica,sans-Serif" font-size="10.00">/CoolDownBoost.cpp</text>
</a>
</g>
</g>
<!-- Node2&#45;&gt;Node4 -->
<g id="edge3" class="edge">
<title>Node2&#45;&gt;Node4</title>
<path fill="none" stroke="midnightblue" d="M397.96,-79.65C372.25,-68.16 339.14,-53.36 312.9,-41.63"/>
<polygon fill="midnightblue" stroke="midnightblue" points="396.86,-83 407.42,-83.88 399.72,-76.61 396.86,-83"/>
</g>
<!-- Node5 -->
<g id="node5" class="node">
<title>Node5</title>
<g id="a_node5"><a xlink:href="RangeBoost_8cpp.html" target="_top" xlink:title=" ">
<polygon fill="white" stroke="black" points="367.5,-0.5 367.5,-41.5 510.5,-41.5 510.5,-0.5 367.5,-0.5"/>
<text text-anchor="start" x="375.5" y="-29.5" font-family="Helvetica,sans-Serif" font-size="10.00">Libs/Engine/sources</text>
<text text-anchor="start" x="375.5" y="-18.5" font-family="Helvetica,sans-Serif" font-size="10.00">/Components/RangeBoost</text>
<text text-anchor="middle" x="439" y="-7.5" font-family="Helvetica,sans-Serif" font-size="10.00">/RangeBoost.cpp</text>
</a>
</g>
</g>
<!-- Node2&#45;&gt;Node5 -->
<g id="edge4" class="edge">
<title>Node2&#45;&gt;Node5</title>
<path fill="none" stroke="midnightblue" d="M439,-73.66C439,-63.33 439,-51.44 439,-41.68"/>
<polygon fill="midnightblue" stroke="midnightblue" points="435.5,-73.7 439,-83.7 442.5,-73.71 435.5,-73.7"/>
</g>
<!-- Node6 -->
<g id="node6" class="node">
<title>Node6</title>
<g id="a_node6"><a xlink:href="SpeedBoost_8cpp.html" target="_top" xlink:title=" ">
<polygon fill="white" stroke="black" points="529,-0.5 529,-41.5 671,-41.5 671,-0.5 529,-0.5"/>
<text text-anchor="start" x="537" y="-29.5" font-family="Helvetica,sans-Serif" font-size="10.00">Libs/Engine/sources</text>
<text text-anchor="start" x="537" y="-18.5" font-family="Helvetica,sans-Serif" font-size="10.00">/Components/SpeedBoost</text>
<text text-anchor="middle" x="600" y="-7.5" font-family="Helvetica,sans-Serif" font-size="10.00">/SpeedBoost.cpp</text>
</a>
</g>
</g>
<!-- Node2&#45;&gt;Node6 -->
<g id="edge5" class="edge">
<title>Node2&#45;&gt;Node6</title>
<path fill="none" stroke="midnightblue" d="M478.19,-79.5C502.49,-68.03 533.68,-53.3 558.42,-41.63"/>
<polygon fill="midnightblue" stroke="midnightblue" points="476.45,-76.45 468.91,-83.88 479.44,-82.78 476.45,-76.45"/>
</g>
<!-- Node7 -->
<g id="node7" class="node">
<title>Node7</title>
<g id="a_node7"><a xlink:href="EntityFactory_8cpp.html" target="_top" xlink:title=" ">
<polygon fill="white" stroke="black" points="689.5,-6 689.5,-36 858.5,-36 858.5,-6 689.5,-6"/>
<text text-anchor="start" x="697.5" y="-24" font-family="Helvetica,sans-Serif" font-size="10.00">Libs/Engine/sources</text>
<text text-anchor="middle" x="774" y="-13" font-family="Helvetica,sans-Serif" font-size="10.00">/EntityFactory/EntityFactory.cpp</text>
</a>
</g>
</g>
<!-- Node2&#45;&gt;Node7 -->
<g id="edge6" class="edge">
<title>Node2&#45;&gt;Node7</title>
<path fill="none" stroke="midnightblue" d="M510.61,-81.75C570.56,-68.15 655.23,-48.95 712.24,-36.01"/>
<polygon fill="midnightblue" stroke="midnightblue" points="509.81,-78.35 500.83,-83.97 511.36,-85.17 509.81,-78.35"/>
</g>
</g>
</svg>
