<?xml version="1.0" encoding="UTF-8" standalone="no"?>
<!DOCTYPE svg PUBLIC "-//W3C//DTD SVG 1.1//EN"
 "http://www.w3.org/Graphics/SVG/1.1/DTD/svg11.dtd">
<!-- Generated by graphviz version 2.43.0 (0)
 -->
<!-- Title: Libs/RayLib/sources/Shader/AmbientShader/AmbientShader.hpp Pages: 1 -->
<svg width="542pt" height="285pt"
 viewBox="0.00 0.00 541.50 285.00" xmlns="http://www.w3.org/2000/svg" xmlns:xlink="http://www.w3.org/1999/xlink">
<g id="graph0" class="graph" transform="scale(1 1) rotate(0) translate(4 281)">
<title>Libs/RayLib/sources/Shader/AmbientShader/AmbientShader.hpp</title>
<polygon fill="white" stroke="transparent" points="-4,4 -4,-281 537.5,-281 537.5,4 -4,4"/>
<!-- Node1 -->
<g id="node1" class="node">
<title>Node1</title>
<g id="a_node1"><a xlink:title=" ">
<polygon fill="#bfbfbf" stroke="black" points="144.5,-235.5 144.5,-276.5 275.5,-276.5 275.5,-235.5 144.5,-235.5"/>
<text text-anchor="start" x="152.5" y="-264.5" font-family="Helvetica,sans-Serif" font-size="10.00">Libs/RayLib/sources</text>
<text text-anchor="start" x="152.5" y="-253.5" font-family="Helvetica,sans-Serif" font-size="10.00">/Shader/AmbientShader</text>
<text text-anchor="middle" x="210" y="-242.5" font-family="Helvetica,sans-Serif" font-size="10.00">/AmbientShader.hpp</text>
</a>
</g>
</g>
<!-- Node2 -->
<g id="node2" class="node">
<title>Node2</title>
<g id="a_node2"><a xlink:href="Shader_8hpp.html" target="_top" xlink:title=" ">
<polygon fill="white" stroke="black" points="122.5,-179.5 122.5,-198.5 193.5,-198.5 193.5,-179.5 122.5,-179.5"/>
<text text-anchor="middle" x="158" y="-186.5" font-family="Helvetica,sans-Serif" font-size="10.00">Shader.hpp</text>
</a>
</g>
</g>
<!-- Node1&#45;&gt;Node2 -->
<g id="edge1" class="edge">
<title>Node1&#45;&gt;Node2</title>
<path fill="none" stroke="midnightblue" d="M194.4,-235.5C187.04,-226.3 178.35,-215.44 171.31,-206.63"/>
<polygon fill="midnightblue" stroke="midnightblue" points="173.9,-204.27 164.92,-198.65 168.44,-208.65 173.9,-204.27"/>
</g>
<!-- Node7 -->
<g id="node7" class="node">
<title>Node7</title>
<g id="a_node7"><a xlink:href="Color_8hpp.html" target="_top" xlink:title=" ">
<polygon fill="white" stroke="black" points="231,-179.5 231,-198.5 293,-198.5 293,-179.5 231,-179.5"/>
<text text-anchor="middle" x="262" y="-186.5" font-family="Helvetica,sans-Serif" font-size="10.00">Color.hpp</text>
</a>
</g>
</g>
<!-- Node1&#45;&gt;Node7 -->
<g id="edge6" class="edge">
<title>Node1&#45;&gt;Node7</title>
<path fill="none" stroke="midnightblue" d="M225.6,-235.5C232.96,-226.3 241.65,-215.44 248.69,-206.63"/>
<polygon fill="midnightblue" stroke="midnightblue" points="251.56,-208.65 255.08,-198.65 246.1,-204.27 251.56,-208.65"/>
</g>
<!-- Node3 -->
<g id="node3" class="node">
<title>Node3</title>
<g id="a_node3"><a xlink:href="IAsset_8hpp.html" target="_top" xlink:title=" ">
<polygon fill="white" stroke="black" points="0,-123.5 0,-142.5 68,-142.5 68,-123.5 0,-123.5"/>
<text text-anchor="middle" x="34" y="-130.5" font-family="Helvetica,sans-Serif" font-size="10.00">IAsset.hpp</text>
</a>
</g>
</g>
<!-- Node2&#45;&gt;Node3 -->
<g id="edge2" class="edge">
<title>Node2&#45;&gt;Node3</title>
<path fill="none" stroke="midnightblue" d="M138.35,-179.44C118.04,-170.6 86.1,-156.69 62.9,-146.59"/>
<polygon fill="midnightblue" stroke="midnightblue" points="64.12,-143.3 53.56,-142.52 61.33,-149.72 64.12,-143.3"/>
</g>
<!-- Node4 -->
<g id="node4" class="node">
<title>Node4</title>
<g id="a_node4"><a xlink:title=" ">
<polygon fill="white" stroke="#bfbfbf" points="86,-123.5 86,-142.5 130,-142.5 130,-123.5 86,-123.5"/>
<text text-anchor="middle" x="108" y="-130.5" font-family="Helvetica,sans-Serif" font-size="10.00">string</text>
</a>
</g>
</g>
<!-- Node2&#45;&gt;Node4 -->
<g id="edge3" class="edge">
<title>Node2&#45;&gt;Node4</title>
<path fill="none" stroke="midnightblue" d="M149.74,-179.08C142.54,-171.3 131.89,-159.8 123.15,-150.37"/>
<polygon fill="midnightblue" stroke="midnightblue" points="125.47,-147.71 116.1,-142.75 120.33,-152.47 125.47,-147.71"/>
</g>
<!-- Node5 -->
<g id="node5" class="node">
<title>Node5</title>
<g id="a_node5"><a xlink:title=" ">
<polygon fill="white" stroke="#bfbfbf" points="163.5,-67.5 163.5,-86.5 216.5,-86.5 216.5,-67.5 163.5,-67.5"/>
<text text-anchor="middle" x="190" y="-74.5" font-family="Helvetica,sans-Serif" font-size="10.00">raylib.h</text>
</a>
</g>
</g>
<!-- Node2&#45;&gt;Node5 -->
<g id="edge4" class="edge">
<title>Node2&#45;&gt;Node5</title>
<path fill="none" stroke="midnightblue" d="M160.51,-179.37C165.7,-161.54 177.7,-120.3 184.68,-96.27"/>
<polygon fill="midnightblue" stroke="midnightblue" points="188.07,-97.17 187.5,-86.59 181.35,-95.22 188.07,-97.17"/>
</g>
<!-- Node6 -->
<g id="node6" class="node">
<title>Node6</title>
<g id="a_node6"><a xlink:title=" ">
<polygon fill="white" stroke="#bfbfbf" points="186.5,-123.5 186.5,-142.5 233.5,-142.5 233.5,-123.5 186.5,-123.5"/>
<text text-anchor="middle" x="210" y="-130.5" font-family="Helvetica,sans-Serif" font-size="10.00">vector</text>
</a>
</g>
</g>
<!-- Node2&#45;&gt;Node6 -->
<g id="edge5" class="edge">
<title>Node2&#45;&gt;Node6</title>
<path fill="none" stroke="midnightblue" d="M166.59,-179.08C174.16,-171.22 185.38,-159.57 194.51,-150.08"/>
<polygon fill="midnightblue" stroke="midnightblue" points="197.16,-152.38 201.57,-142.75 192.12,-147.53 197.16,-152.38"/>
</g>
<!-- Node7&#45;&gt;Node5 -->
<g id="edge7" class="edge">
<title>Node7&#45;&gt;Node5</title>
<path fill="none" stroke="midnightblue" d="M261.07,-179.35C259.34,-166.23 254.65,-140.95 243,-123 235.2,-110.98 223.23,-100.42 212.64,-92.57"/>
<polygon fill="midnightblue" stroke="midnightblue" points="214.38,-89.51 204.19,-86.63 210.36,-95.24 214.38,-89.51"/>
</g>
<!-- Node8 -->
<g id="node8" class="node">
<title>Node8</title>
<g id="a_node8"><a xlink:href="Vector3_8hpp.html" target="_top" xlink:title=" ">
<polygon fill="white" stroke="black" points="290,-123.5 290,-142.5 364,-142.5 364,-123.5 290,-123.5"/>
<text text-anchor="middle" x="327" y="-130.5" font-family="Helvetica,sans-Serif" font-size="10.00">Vector3.hpp</text>
</a>
</g>
</g>
<!-- Node7&#45;&gt;Node8 -->
<g id="edge8" class="edge">
<title>Node7&#45;&gt;Node8</title>
<path fill="none" stroke="midnightblue" d="M272.44,-179.32C282.15,-171.26 296.82,-159.08 308.5,-149.37"/>
<polygon fill="midnightblue" stroke="midnightblue" points="310.91,-151.92 316.37,-142.83 306.44,-146.53 310.91,-151.92"/>
</g>
<!-- Node8&#45;&gt;Node5 -->
<g id="edge9" class="edge">
<title>Node8&#45;&gt;Node5</title>
<path fill="none" stroke="midnightblue" d="M305.29,-123.44C282.65,-114.52 246.93,-100.44 221.25,-90.32"/>
<polygon fill="midnightblue" stroke="midnightblue" points="222.19,-86.93 211.61,-86.52 219.63,-93.44 222.19,-86.93"/>
</g>
<!-- Node9 -->
<g id="node9" class="node">
<title>Node9</title>
<g id="a_node9"><a xlink:href="IXMLSerializable_8hpp.html" target="_top" xlink:title=" ">
<polygon fill="white" stroke="black" points="234.5,-67.5 234.5,-86.5 353.5,-86.5 353.5,-67.5 234.5,-67.5"/>
<text text-anchor="middle" x="294" y="-74.5" font-family="Helvetica,sans-Serif" font-size="10.00">IXMLSerializable.hpp</text>
</a>
</g>
</g>
<!-- Node8&#45;&gt;Node9 -->
<g id="edge10" class="edge">
<title>Node8&#45;&gt;Node9</title>
<path fill="none" stroke="midnightblue" d="M321.55,-123.08C316.99,-115.61 310.33,-104.72 304.71,-95.52"/>
<polygon fill="midnightblue" stroke="midnightblue" points="307.55,-93.46 299.35,-86.75 301.58,-97.11 307.55,-93.46"/>
</g>
<!-- Node14 -->
<g id="node14" class="node">
<title>Node14</title>
<g id="a_node14"><a xlink:title=" ">
<polygon fill="white" stroke="#bfbfbf" points="371.5,-67.5 371.5,-86.5 418.5,-86.5 418.5,-67.5 371.5,-67.5"/>
<text text-anchor="middle" x="395" y="-74.5" font-family="Helvetica,sans-Serif" font-size="10.00">cmath</text>
</a>
</g>
</g>
<!-- Node8&#45;&gt;Node14 -->
<g id="edge15" class="edge">
<title>Node8&#45;&gt;Node14</title>
<path fill="none" stroke="midnightblue" d="M337.93,-123.32C348.17,-115.18 363.72,-102.84 376,-93.09"/>
<polygon fill="midnightblue" stroke="midnightblue" points="378.22,-95.79 383.88,-86.83 373.87,-90.31 378.22,-95.79"/>
</g>
<!-- Node15 -->
<g id="node15" class="node">
<title>Node15</title>
<g id="a_node15"><a xlink:title=" ">
<polygon fill="white" stroke="#bfbfbf" points="437,-67.5 437,-86.5 493,-86.5 493,-67.5 437,-67.5"/>
<text text-anchor="middle" x="465" y="-74.5" font-family="Helvetica,sans-Serif" font-size="10.00">sstream</text>
</a>
</g>
</g>
<!-- Node8&#45;&gt;Node15 -->
<g id="edge16" class="edge">
<title>Node8&#45;&gt;Node15</title>
<path fill="none" stroke="midnightblue" d="M348.87,-123.44C371.78,-114.48 407.98,-100.31 433.87,-90.18"/>
<polygon fill="midnightblue" stroke="midnightblue" points="435.2,-93.42 443.24,-86.52 432.65,-86.9 435.2,-93.42"/>
</g>
<!-- Node10 -->
<g id="node10" class="node">
<title>Node10</title>
<g id="a_node10"><a xlink:title=" ">
<polygon fill="white" stroke="#bfbfbf" points="135.5,-6 135.5,-25 192.5,-25 192.5,-6 135.5,-6"/>
<text text-anchor="middle" x="164" y="-13" font-family="Helvetica,sans-Serif" font-size="10.00">ostream</text>
</a>
</g>
</g>
<!-- Node9&#45;&gt;Node10 -->
<g id="edge11" class="edge">
<title>Node9&#45;&gt;Node10</title>
<path fill="none" stroke="midnightblue" d="M275.37,-67.48C253.56,-57.49 217.2,-40.85 191.98,-29.31"/>
<polygon fill="midnightblue" stroke="midnightblue" points="193.14,-25.99 182.59,-25.01 190.23,-32.35 193.14,-25.99"/>
</g>
<!-- Node11 -->
<g id="node11" class="node">
<title>Node11</title>
<g id="a_node11"><a xlink:title=" ">
<polygon fill="white" stroke="#bfbfbf" points="211,-6 211,-25 271,-25 271,-6 211,-6"/>
<text text-anchor="middle" x="241" y="-13" font-family="Helvetica,sans-Serif" font-size="10.00">iostream</text>
</a>
</g>
</g>
<!-- Node9&#45;&gt;Node11 -->
<g id="edge12" class="edge">
<title>Node9&#45;&gt;Node11</title>
<path fill="none" stroke="midnightblue" d="M286.41,-67.48C278.3,-58.37 265.27,-43.74 255.24,-32.48"/>
<polygon fill="midnightblue" stroke="midnightblue" points="257.84,-30.15 248.58,-25.01 252.62,-34.8 257.84,-30.15"/>
</g>
<!-- Node12 -->
<g id="node12" class="node">
<title>Node12</title>
<g id="a_node12"><a xlink:title=" ">
<polygon fill="white" stroke="#bfbfbf" points="289.5,-0.5 289.5,-30.5 402.5,-30.5 402.5,-0.5 289.5,-0.5"/>
<text text-anchor="start" x="297.5" y="-18.5" font-family="Helvetica,sans-Serif" font-size="10.00">boost/property_tree</text>
<text text-anchor="middle" x="346" y="-7.5" font-family="Helvetica,sans-Serif" font-size="10.00">/ptree.hpp</text>
</a>
</g>
</g>
<!-- Node9&#45;&gt;Node12 -->
<g id="edge13" class="edge">
<title>Node9&#45;&gt;Node12</title>
<path fill="none" stroke="midnightblue" d="M301.45,-67.48C308.1,-59.87 318.12,-48.4 326.98,-38.26"/>
<polygon fill="midnightblue" stroke="midnightblue" points="329.8,-40.36 333.74,-30.52 324.53,-35.75 329.8,-40.36"/>
</g>
<!-- Node13 -->
<g id="node13" class="node">
<title>Node13</title>
<g id="a_node13"><a xlink:title=" ">
<polygon fill="white" stroke="#bfbfbf" points="420.5,-0.5 420.5,-30.5 533.5,-30.5 533.5,-0.5 420.5,-0.5"/>
<text text-anchor="start" x="428.5" y="-18.5" font-family="Helvetica,sans-Serif" font-size="10.00">boost/property_tree</text>
<text text-anchor="middle" x="477" y="-7.5" font-family="Helvetica,sans-Serif" font-size="10.00">/xml_parser.hpp</text>
</a>
</g>
</g>
<!-- Node9&#45;&gt;Node13 -->
<g id="edge14" class="edge">
<title>Node9&#45;&gt;Node13</title>
<path fill="none" stroke="midnightblue" d="M320.22,-67.48C347.2,-58.7 390,-44.79 424.06,-33.71"/>
<polygon fill="midnightblue" stroke="midnightblue" points="425.44,-36.94 433.87,-30.52 423.28,-30.29 425.44,-36.94"/>
</g>
</g>
</svg>
