<?xml version="1.0" encoding="UTF-8" standalone="no"?>
<!DOCTYPE svg PUBLIC "-//W3C//DTD SVG 1.1//EN"
 "http://www.w3.org/Graphics/SVG/1.1/DTD/svg11.dtd">
<!-- Generated by graphviz version 2.43.0 (0)
 -->
<!-- Title: Libs/RayLib/sources/Shader/AmbientShader/AmbientShader.cpp Pages: 1 -->
<svg width="467pt" height="341pt"
 viewBox="0.00 0.00 466.50 341.00" xmlns="http://www.w3.org/2000/svg" xmlns:xlink="http://www.w3.org/1999/xlink">
<g id="graph0" class="graph" transform="scale(1 1) rotate(0) translate(4 337)">
<title>Libs/RayLib/sources/Shader/AmbientShader/AmbientShader.cpp</title>
<polygon fill="white" stroke="transparent" points="-4,4 -4,-337 462.5,-337 462.5,4 -4,4"/>
<!-- Node1 -->
<g id="node1" class="node">
<title>Node1</title>
<g id="a_node1"><a xlink:title=" ">
<polygon fill="#bfbfbf" stroke="black" points="301,-291.5 301,-332.5 432,-332.5 432,-291.5 301,-291.5"/>
<text text-anchor="start" x="309" y="-320.5" font-family="Helvetica,sans-Serif" font-size="10.00">Libs/RayLib/sources</text>
<text text-anchor="start" x="309" y="-309.5" font-family="Helvetica,sans-Serif" font-size="10.00">/Shader/AmbientShader</text>
<text text-anchor="middle" x="366.5" y="-298.5" font-family="Helvetica,sans-Serif" font-size="10.00">/AmbientShader.cpp</text>
</a>
</g>
</g>
<!-- Node2 -->
<g id="node2" class="node">
<title>Node2</title>
<g id="a_node2"><a xlink:href="AmbientShader_8hpp.html" target="_top" xlink:title=" ">
<polygon fill="white" stroke="black" points="199.5,-235.5 199.5,-254.5 311.5,-254.5 311.5,-235.5 199.5,-235.5"/>
<text text-anchor="middle" x="255.5" y="-242.5" font-family="Helvetica,sans-Serif" font-size="10.00">AmbientShader.hpp</text>
</a>
</g>
</g>
<!-- Node1&#45;&gt;Node2 -->
<g id="edge1" class="edge">
<title>Node1&#45;&gt;Node2</title>
<path fill="none" stroke="midnightblue" d="M333.2,-291.5C315.85,-281.34 295.04,-269.16 279.33,-259.95"/>
<polygon fill="midnightblue" stroke="midnightblue" points="280.67,-256.69 270.28,-254.65 277.14,-262.73 280.67,-256.69"/>
</g>
<!-- Node12 -->
<g id="node12" class="node">
<title>Node12</title>
<g id="a_node12"><a xlink:title=" ">
<polygon fill="white" stroke="#bfbfbf" points="398.5,-6 398.5,-25 458.5,-25 458.5,-6 398.5,-6"/>
<text text-anchor="middle" x="428.5" y="-13" font-family="Helvetica,sans-Serif" font-size="10.00">iostream</text>
</a>
</g>
</g>
<!-- Node1&#45;&gt;Node12 -->
<g id="edge20" class="edge">
<title>Node1&#45;&gt;Node12</title>
<path fill="none" stroke="midnightblue" d="M385.91,-291.43C395.07,-281.27 405.51,-268.24 412.5,-255 426.56,-228.39 431.5,-220.1 431.5,-190 431.5,-190 431.5,-190 431.5,-132 431.5,-97.85 430.17,-58.04 429.28,-35.21"/>
<polygon fill="midnightblue" stroke="midnightblue" points="432.78,-35.04 428.88,-25.19 425.79,-35.32 432.78,-35.04"/>
</g>
<!-- Node17 -->
<g id="node17" class="node">
<title>Node17</title>
<g id="a_node17"><a xlink:href="Vector4_8hpp.html" target="_top" xlink:title=" ">
<polygon fill="white" stroke="black" points="329.5,-235.5 329.5,-254.5 403.5,-254.5 403.5,-235.5 329.5,-235.5"/>
<text text-anchor="middle" x="366.5" y="-242.5" font-family="Helvetica,sans-Serif" font-size="10.00">Vector4.hpp</text>
</a>
</g>
</g>
<!-- Node1&#45;&gt;Node17 -->
<g id="edge18" class="edge">
<title>Node1&#45;&gt;Node17</title>
<path fill="none" stroke="midnightblue" d="M366.5,-291.5C366.5,-283.07 366.5,-273.24 366.5,-264.87"/>
<polygon fill="midnightblue" stroke="midnightblue" points="370,-264.65 366.5,-254.65 363,-264.65 370,-264.65"/>
</g>
<!-- Node3 -->
<g id="node3" class="node">
<title>Node3</title>
<g id="a_node3"><a xlink:href="Shader_8hpp.html" target="_top" xlink:title=" ">
<polygon fill="white" stroke="black" points="137,-179.5 137,-198.5 208,-198.5 208,-179.5 137,-179.5"/>
<text text-anchor="middle" x="172.5" y="-186.5" font-family="Helvetica,sans-Serif" font-size="10.00">Shader.hpp</text>
</a>
</g>
</g>
<!-- Node2&#45;&gt;Node3 -->
<g id="edge2" class="edge">
<title>Node2&#45;&gt;Node3</title>
<path fill="none" stroke="midnightblue" d="M242.16,-235.32C229.34,-226.98 209.72,-214.21 194.56,-204.35"/>
<polygon fill="midnightblue" stroke="midnightblue" points="196.09,-201.17 185.8,-198.65 192.28,-207.04 196.09,-201.17"/>
</g>
<!-- Node8 -->
<g id="node8" class="node">
<title>Node8</title>
<g id="a_node8"><a xlink:href="Color_8hpp.html" target="_top" xlink:title=" ">
<polygon fill="white" stroke="black" points="226.5,-179.5 226.5,-198.5 288.5,-198.5 288.5,-179.5 226.5,-179.5"/>
<text text-anchor="middle" x="257.5" y="-186.5" font-family="Helvetica,sans-Serif" font-size="10.00">Color.hpp</text>
</a>
</g>
</g>
<!-- Node2&#45;&gt;Node8 -->
<g id="edge7" class="edge">
<title>Node2&#45;&gt;Node8</title>
<path fill="none" stroke="midnightblue" d="M255.83,-235.08C256.09,-228.01 256.47,-217.86 256.8,-208.99"/>
<polygon fill="midnightblue" stroke="midnightblue" points="260.3,-208.87 257.18,-198.75 253.31,-208.61 260.3,-208.87"/>
</g>
<!-- Node4 -->
<g id="node4" class="node">
<title>Node4</title>
<g id="a_node4"><a xlink:href="IAsset_8hpp.html" target="_top" xlink:title=" ">
<polygon fill="white" stroke="black" points="65.5,-123.5 65.5,-142.5 133.5,-142.5 133.5,-123.5 65.5,-123.5"/>
<text text-anchor="middle" x="99.5" y="-130.5" font-family="Helvetica,sans-Serif" font-size="10.00">IAsset.hpp</text>
</a>
</g>
</g>
<!-- Node3&#45;&gt;Node4 -->
<g id="edge3" class="edge">
<title>Node3&#45;&gt;Node4</title>
<path fill="none" stroke="midnightblue" d="M160.77,-179.32C149.66,-171.11 132.76,-158.6 119.52,-148.81"/>
<polygon fill="midnightblue" stroke="midnightblue" points="121.56,-145.97 111.44,-142.83 117.4,-151.59 121.56,-145.97"/>
</g>
<!-- Node5 -->
<g id="node5" class="node">
<title>Node5</title>
<g id="a_node5"><a xlink:title=" ">
<polygon fill="white" stroke="#bfbfbf" points="151.5,-123.5 151.5,-142.5 195.5,-142.5 195.5,-123.5 151.5,-123.5"/>
<text text-anchor="middle" x="173.5" y="-130.5" font-family="Helvetica,sans-Serif" font-size="10.00">string</text>
</a>
</g>
</g>
<!-- Node3&#45;&gt;Node5 -->
<g id="edge4" class="edge">
<title>Node3&#45;&gt;Node5</title>
<path fill="none" stroke="midnightblue" d="M172.67,-179.08C172.8,-172.01 172.98,-161.86 173.15,-152.99"/>
<polygon fill="midnightblue" stroke="midnightblue" points="176.65,-152.81 173.34,-142.75 169.65,-152.68 176.65,-152.81"/>
</g>
<!-- Node6 -->
<g id="node6" class="node">
<title>Node6</title>
<g id="a_node6"><a xlink:title=" ">
<polygon fill="white" stroke="#bfbfbf" points="332,-67.5 332,-86.5 385,-86.5 385,-67.5 332,-67.5"/>
<text text-anchor="middle" x="358.5" y="-74.5" font-family="Helvetica,sans-Serif" font-size="10.00">raylib.h</text>
</a>
</g>
</g>
<!-- Node3&#45;&gt;Node6 -->
<g id="edge5" class="edge">
<title>Node3&#45;&gt;Node6</title>
<path fill="none" stroke="midnightblue" d="M208.17,-179.76C234.1,-172.68 269.27,-160.78 296.5,-143 316.4,-130.01 334.57,-109.45 346.03,-94.94"/>
<polygon fill="midnightblue" stroke="midnightblue" points="348.95,-96.88 352.25,-86.81 343.39,-92.63 348.95,-96.88"/>
</g>
<!-- Node7 -->
<g id="node7" class="node">
<title>Node7</title>
<g id="a_node7"><a xlink:title=" ">
<polygon fill="white" stroke="#bfbfbf" points="0,-123.5 0,-142.5 47,-142.5 47,-123.5 0,-123.5"/>
<text text-anchor="middle" x="23.5" y="-130.5" font-family="Helvetica,sans-Serif" font-size="10.00">vector</text>
</a>
</g>
</g>
<!-- Node3&#45;&gt;Node7 -->
<g id="edge6" class="edge">
<title>Node3&#45;&gt;Node7</title>
<path fill="none" stroke="midnightblue" d="M148.89,-179.44C124.04,-170.44 84.73,-156.19 56.75,-146.05"/>
<polygon fill="midnightblue" stroke="midnightblue" points="57.59,-142.63 47,-142.52 55.21,-149.21 57.59,-142.63"/>
</g>
<!-- Node8&#45;&gt;Node6 -->
<g id="edge8" class="edge">
<title>Node8&#45;&gt;Node6</title>
<path fill="none" stroke="midnightblue" d="M277.81,-179.36C293.65,-171.76 315.28,-159.35 329.5,-143 341.15,-129.61 348.85,-110.79 353.37,-96.84"/>
<polygon fill="midnightblue" stroke="midnightblue" points="356.83,-97.48 356.33,-86.9 350.13,-95.49 356.83,-97.48"/>
</g>
<!-- Node9 -->
<g id="node9" class="node">
<title>Node9</title>
<g id="a_node9"><a xlink:href="Vector3_8hpp.html" target="_top" xlink:title=" ">
<polygon fill="white" stroke="black" points="213.5,-123.5 213.5,-142.5 287.5,-142.5 287.5,-123.5 213.5,-123.5"/>
<text text-anchor="middle" x="250.5" y="-130.5" font-family="Helvetica,sans-Serif" font-size="10.00">Vector3.hpp</text>
</a>
</g>
</g>
<!-- Node8&#45;&gt;Node9 -->
<g id="edge9" class="edge">
<title>Node8&#45;&gt;Node9</title>
<path fill="none" stroke="midnightblue" d="M256.34,-179.08C255.42,-171.93 254.08,-161.64 252.92,-152.69"/>
<polygon fill="midnightblue" stroke="midnightblue" points="256.39,-152.22 251.63,-142.75 249.45,-153.12 256.39,-152.22"/>
</g>
<!-- Node9&#45;&gt;Node6 -->
<g id="edge10" class="edge">
<title>Node9&#45;&gt;Node6</title>
<path fill="none" stroke="midnightblue" d="M267.85,-123.32C285.17,-114.66 312.02,-101.24 332,-91.25"/>
<polygon fill="midnightblue" stroke="midnightblue" points="333.81,-94.26 341.19,-86.65 330.68,-88 333.81,-94.26"/>
</g>
<!-- Node10 -->
<g id="node10" class="node">
<title>Node10</title>
<g id="a_node10"><a xlink:href="IXMLSerializable_8hpp.html" target="_top" xlink:title=" ">
<polygon fill="white" stroke="black" points="130,-67.5 130,-86.5 249,-86.5 249,-67.5 130,-67.5"/>
<text text-anchor="middle" x="189.5" y="-74.5" font-family="Helvetica,sans-Serif" font-size="10.00">IXMLSerializable.hpp</text>
</a>
</g>
</g>
<!-- Node9&#45;&gt;Node10 -->
<g id="edge11" class="edge">
<title>Node9&#45;&gt;Node10</title>
<path fill="none" stroke="midnightblue" d="M240.7,-123.32C231.68,-115.34 218.09,-103.31 207.18,-93.65"/>
<polygon fill="midnightblue" stroke="midnightblue" points="209.29,-90.84 199.48,-86.83 204.65,-96.08 209.29,-90.84"/>
</g>
<!-- Node15 -->
<g id="node15" class="node">
<title>Node15</title>
<g id="a_node15"><a xlink:title=" ">
<polygon fill="white" stroke="#bfbfbf" points="267,-67.5 267,-86.5 314,-86.5 314,-67.5 267,-67.5"/>
<text text-anchor="middle" x="290.5" y="-74.5" font-family="Helvetica,sans-Serif" font-size="10.00">cmath</text>
</a>
</g>
</g>
<!-- Node9&#45;&gt;Node15 -->
<g id="edge16" class="edge">
<title>Node9&#45;&gt;Node15</title>
<path fill="none" stroke="midnightblue" d="M257.11,-123.08C262.76,-115.46 271.04,-104.26 277.95,-94.94"/>
<polygon fill="midnightblue" stroke="midnightblue" points="280.88,-96.87 284.02,-86.75 275.25,-92.7 280.88,-96.87"/>
</g>
<!-- Node16 -->
<g id="node16" class="node">
<title>Node16</title>
<g id="a_node16"><a xlink:title=" ">
<polygon fill="white" stroke="#bfbfbf" points="55.5,-67.5 55.5,-86.5 111.5,-86.5 111.5,-67.5 55.5,-67.5"/>
<text text-anchor="middle" x="83.5" y="-74.5" font-family="Helvetica,sans-Serif" font-size="10.00">sstream</text>
</a>
</g>
</g>
<!-- Node9&#45;&gt;Node16 -->
<g id="edge17" class="edge">
<title>Node9&#45;&gt;Node16</title>
<path fill="none" stroke="midnightblue" d="M224.04,-123.44C195.82,-114.32 150.96,-99.81 119.53,-89.65"/>
<polygon fill="midnightblue" stroke="midnightblue" points="120.43,-86.26 109.84,-86.52 118.28,-92.92 120.43,-86.26"/>
</g>
<!-- Node11 -->
<g id="node11" class="node">
<title>Node11</title>
<g id="a_node11"><a xlink:title=" ">
<polygon fill="white" stroke="#bfbfbf" points="58,-6 58,-25 115,-25 115,-6 58,-6"/>
<text text-anchor="middle" x="86.5" y="-13" font-family="Helvetica,sans-Serif" font-size="10.00">ostream</text>
</a>
</g>
</g>
<!-- Node10&#45;&gt;Node11 -->
<g id="edge12" class="edge">
<title>Node10&#45;&gt;Node11</title>
<path fill="none" stroke="midnightblue" d="M174.74,-67.48C157.84,-57.71 129.92,-41.58 110.01,-30.08"/>
<polygon fill="midnightblue" stroke="midnightblue" points="111.64,-26.98 101.23,-25.01 108.14,-33.04 111.64,-26.98"/>
</g>
<!-- Node10&#45;&gt;Node12 -->
<g id="edge13" class="edge">
<title>Node10&#45;&gt;Node12</title>
<path fill="none" stroke="midnightblue" d="M232.25,-67.47C272.16,-59.2 333.26,-45.77 385.5,-31 388.51,-30.15 391.62,-29.21 394.73,-28.24"/>
<polygon fill="midnightblue" stroke="midnightblue" points="396.1,-31.48 404.52,-25.05 393.93,-24.82 396.1,-31.48"/>
</g>
<!-- Node13 -->
<g id="node13" class="node">
<title>Node13</title>
<g id="a_node13"><a xlink:title=" ">
<polygon fill="white" stroke="#bfbfbf" points="133,-0.5 133,-30.5 246,-30.5 246,-0.5 133,-0.5"/>
<text text-anchor="start" x="141" y="-18.5" font-family="Helvetica,sans-Serif" font-size="10.00">boost/property_tree</text>
<text text-anchor="middle" x="189.5" y="-7.5" font-family="Helvetica,sans-Serif" font-size="10.00">/ptree.hpp</text>
</a>
</g>
</g>
<!-- Node10&#45;&gt;Node13 -->
<g id="edge14" class="edge">
<title>Node10&#45;&gt;Node13</title>
<path fill="none" stroke="midnightblue" d="M189.5,-67.48C189.5,-60.47 189.5,-50.19 189.5,-40.7"/>
<polygon fill="midnightblue" stroke="midnightblue" points="193,-40.52 189.5,-30.52 186,-40.52 193,-40.52"/>
</g>
<!-- Node14 -->
<g id="node14" class="node">
<title>Node14</title>
<g id="a_node14"><a xlink:title=" ">
<polygon fill="white" stroke="#bfbfbf" points="264,-0.5 264,-30.5 377,-30.5 377,-0.5 264,-0.5"/>
<text text-anchor="start" x="272" y="-18.5" font-family="Helvetica,sans-Serif" font-size="10.00">boost/property_tree</text>
<text text-anchor="middle" x="320.5" y="-7.5" font-family="Helvetica,sans-Serif" font-size="10.00">/xml_parser.hpp</text>
</a>
</g>
</g>
<!-- Node10&#45;&gt;Node14 -->
<g id="edge15" class="edge">
<title>Node10&#45;&gt;Node14</title>
<path fill="none" stroke="midnightblue" d="M208.27,-67.48C227.01,-58.96 256.39,-45.62 280.39,-34.72"/>
<polygon fill="midnightblue" stroke="midnightblue" points="281.97,-37.85 289.63,-30.52 279.07,-31.47 281.97,-37.85"/>
</g>
<!-- Node17&#45;&gt;Node6 -->
<g id="edge19" class="edge">
<title>Node17&#45;&gt;Node6</title>
<path fill="none" stroke="midnightblue" d="M366.07,-235.08C364.81,-208.95 361.11,-132.21 359.4,-96.58"/>
<polygon fill="midnightblue" stroke="midnightblue" points="362.89,-96.39 358.91,-86.57 355.9,-96.73 362.89,-96.39"/>
</g>
</g>
</svg>
