<?xml version="1.0" encoding="UTF-8" standalone="no"?>
<!DOCTYPE svg PUBLIC "-//W3C//DTD SVG 1.1//EN"
 "http://www.w3.org/Graphics/SVG/1.1/DTD/svg11.dtd">
<!-- Generated by graphviz version 2.43.0 (0)
 -->
<!-- Title: Libs/Engine/sources/Components/Animator/Animator.cpp Pages: 1 -->
<svg width="1928pt" height="565pt"
 viewBox="0.00 0.00 1927.50 565.00" xmlns="http://www.w3.org/2000/svg" xmlns:xlink="http://www.w3.org/1999/xlink">
<g id="graph0" class="graph" transform="scale(1 1) rotate(0) translate(4 561)">
<title>Libs/Engine/sources/Components/Animator/Animator.cpp</title>
<polygon fill="white" stroke="transparent" points="-4,4 -4,-561 1923.5,-561 1923.5,4 -4,4"/>
<!-- Node1 -->
<g id="node1" class="node">
<title>Node1</title>
<g id="a_node1"><a xlink:title=" ">
<polygon fill="#bfbfbf" stroke="black" points="1128.5,-515.5 1128.5,-556.5 1257.5,-556.5 1257.5,-515.5 1128.5,-515.5"/>
<text text-anchor="start" x="1136.5" y="-544.5" font-family="Helvetica,sans-Serif" font-size="10.00">Libs/Engine/sources</text>
<text text-anchor="start" x="1136.5" y="-533.5" font-family="Helvetica,sans-Serif" font-size="10.00">/Components/Animator</text>
<text text-anchor="middle" x="1193" y="-522.5" font-family="Helvetica,sans-Serif" font-size="10.00">/Animator.cpp</text>
</a>
</g>
</g>
<!-- Node2 -->
<g id="node2" class="node">
<title>Node2</title>
<g id="a_node2"><a xlink:href="Animator_8hpp.html" target="_top" xlink:title=" ">
<polygon fill="white" stroke="black" points="1152,-459.5 1152,-478.5 1234,-478.5 1234,-459.5 1152,-459.5"/>
<text text-anchor="middle" x="1193" y="-466.5" font-family="Helvetica,sans-Serif" font-size="10.00">Animator.hpp</text>
</a>
</g>
</g>
<!-- Node1&#45;&gt;Node2 -->
<g id="edge1" class="edge">
<title>Node1&#45;&gt;Node2</title>
<path fill="none" stroke="midnightblue" d="M1193,-515.5C1193,-507.07 1193,-497.24 1193,-488.87"/>
<polygon fill="midnightblue" stroke="midnightblue" points="1196.5,-488.65 1193,-478.65 1189.5,-488.65 1196.5,-488.65"/>
</g>
<!-- Node3 -->
<g id="node3" class="node">
<title>Node3</title>
<g id="a_node3"><a xlink:href="IComponent_8hpp.html" target="_top" xlink:title=" ">
<polygon fill="white" stroke="black" points="1822.5,-235.5 1822.5,-254.5 1919.5,-254.5 1919.5,-235.5 1822.5,-235.5"/>
<text text-anchor="middle" x="1871" y="-242.5" font-family="Helvetica,sans-Serif" font-size="10.00">IComponent.hpp</text>
</a>
</g>
</g>
<!-- Node2&#45;&gt;Node3 -->
<g id="edge2" class="edge">
<title>Node2&#45;&gt;Node3</title>
<path fill="none" stroke="midnightblue" d="M1230.45,-459.45C1319.37,-438.65 1549.6,-381.88 1734,-311 1774.05,-295.6 1818.63,-273.47 1845.75,-259.41"/>
<polygon fill="midnightblue" stroke="midnightblue" points="1847.66,-262.36 1854.9,-254.63 1844.42,-256.15 1847.66,-262.36"/>
</g>
<!-- Node9 -->
<g id="node9" class="node">
<title>Node9</title>
<g id="a_node9"><a xlink:href="ModelAnimation_8hpp.html" target="_top" xlink:title=" ">
<polygon fill="white" stroke="black" points="856,-403.5 856,-422.5 974,-422.5 974,-403.5 856,-403.5"/>
<text text-anchor="middle" x="915" y="-410.5" font-family="Helvetica,sans-Serif" font-size="10.00">ModelAnimation.hpp</text>
</a>
</g>
</g>
<!-- Node2&#45;&gt;Node9 -->
<g id="edge9" class="edge">
<title>Node2&#45;&gt;Node9</title>
<path fill="none" stroke="midnightblue" d="M1151.98,-460.03C1103.45,-450.61 1022.51,-434.88 968.94,-424.48"/>
<polygon fill="midnightblue" stroke="midnightblue" points="969.43,-421.01 958.94,-422.54 968.09,-427.88 969.43,-421.01"/>
</g>
<!-- Node29 -->
<g id="node29" class="node">
<title>Node29</title>
<g id="a_node29"><a xlink:href="AssetCache_8hpp.html" target="_top" xlink:title=" ">
<polygon fill="white" stroke="black" points="1050.5,-291.5 1050.5,-310.5 1145.5,-310.5 1145.5,-291.5 1050.5,-291.5"/>
<text text-anchor="middle" x="1098" y="-298.5" font-family="Helvetica,sans-Serif" font-size="10.00">AssetCache.hpp</text>
</a>
</g>
</g>
<!-- Node2&#45;&gt;Node29 -->
<g id="edge64" class="edge">
<title>Node2&#45;&gt;Node29</title>
<path fill="none" stroke="midnightblue" d="M1185.99,-459.33C1179,-450.47 1168.14,-436.19 1160,-423 1138.29,-387.83 1117.27,-344.17 1106.16,-320.08"/>
<polygon fill="midnightblue" stroke="midnightblue" points="1109.24,-318.41 1101.9,-310.77 1102.87,-321.32 1109.24,-318.41"/>
</g>
<!-- Node32 -->
<g id="node32" class="node">
<title>Node32</title>
<g id="a_node32"><a xlink:title=" ">
<polygon fill="white" stroke="#bfbfbf" points="1220,-235.5 1220,-254.5 1258,-254.5 1258,-235.5 1220,-235.5"/>
<text text-anchor="middle" x="1239" y="-242.5" font-family="Helvetica,sans-Serif" font-size="10.00">map</text>
</a>
</g>
</g>
<!-- Node2&#45;&gt;Node32 -->
<g id="edge93" class="edge">
<title>Node2&#45;&gt;Node32</title>
<path fill="none" stroke="midnightblue" d="M1191.23,-459.47C1186.19,-433.16 1173.61,-351.44 1198,-291 1202.62,-279.56 1211.54,-269.2 1219.89,-261.31"/>
<polygon fill="midnightblue" stroke="midnightblue" points="1222.38,-263.79 1227.56,-254.55 1217.75,-258.54 1222.38,-263.79"/>
</g>
<!-- Node33 -->
<g id="node33" class="node">
<title>Node33</title>
<g id="a_node33"><a xlink:title=" ">
<polygon fill="white" stroke="#bfbfbf" points="1276,-235.5 1276,-254.5 1334,-254.5 1334,-235.5 1276,-235.5"/>
<text text-anchor="middle" x="1305" y="-242.5" font-family="Helvetica,sans-Serif" font-size="10.00">memory</text>
</a>
</g>
</g>
<!-- Node2&#45;&gt;Node33 -->
<g id="edge94" class="edge">
<title>Node2&#45;&gt;Node33</title>
<path fill="none" stroke="midnightblue" d="M1197.39,-459.3C1213.97,-426.42 1273.02,-309.39 1295.87,-264.09"/>
<polygon fill="midnightblue" stroke="midnightblue" points="1299.14,-265.39 1300.52,-254.88 1292.89,-262.24 1299.14,-265.39"/>
</g>
<!-- Node34 -->
<g id="node34" class="node">
<title>Node34</title>
<g id="a_node34"><a xlink:href="Entity_8hpp.html" target="_top" xlink:title=" ">
<polygon fill="white" stroke="black" points="1467.5,-347.5 1467.5,-366.5 1532.5,-366.5 1532.5,-347.5 1467.5,-347.5"/>
<text text-anchor="middle" x="1500" y="-354.5" font-family="Helvetica,sans-Serif" font-size="10.00">Entity.hpp</text>
</a>
</g>
</g>
<!-- Node2&#45;&gt;Node34 -->
<g id="edge71" class="edge">
<title>Node2&#45;&gt;Node34</title>
<path fill="none" stroke="midnightblue" d="M1216.83,-459.46C1271.02,-440.05 1403.57,-392.55 1466.19,-370.12"/>
<polygon fill="midnightblue" stroke="midnightblue" points="1467.74,-373.28 1475.97,-366.61 1465.37,-366.69 1467.74,-373.28"/>
</g>
<!-- Node4 -->
<g id="node4" class="node">
<title>Node4</title>
<g id="a_node4"><a xlink:title=" ">
<polygon fill="white" stroke="#bfbfbf" points="1411.5,-6 1411.5,-25 1468.5,-25 1468.5,-6 1411.5,-6"/>
<text text-anchor="middle" x="1440" y="-13" font-family="Helvetica,sans-Serif" font-size="10.00">ostream</text>
</a>
</g>
</g>
<!-- Node3&#45;&gt;Node4 -->
<g id="edge3" class="edge">
<title>Node3&#45;&gt;Node4</title>
<path fill="none" stroke="midnightblue" d="M1854.89,-235.5C1789.69,-201.08 1545.05,-71.95 1465.3,-29.86"/>
<polygon fill="midnightblue" stroke="midnightblue" points="1466.9,-26.74 1456.42,-25.17 1463.63,-32.93 1466.9,-26.74"/>
</g>
<!-- Node5 -->
<g id="node5" class="node">
<title>Node5</title>
<g id="a_node5"><a xlink:href="IXMLSerializable_8hpp.html" target="_top" xlink:title=" ">
<polygon fill="white" stroke="black" points="787.5,-67.5 787.5,-86.5 906.5,-86.5 906.5,-67.5 787.5,-67.5"/>
<text text-anchor="middle" x="847" y="-74.5" font-family="Helvetica,sans-Serif" font-size="10.00">IXMLSerializable.hpp</text>
</a>
</g>
</g>
<!-- Node3&#45;&gt;Node5 -->
<g id="edge4" class="edge">
<title>Node3&#45;&gt;Node5</title>
<path fill="none" stroke="midnightblue" d="M1822.3,-236.11C1654.09,-208.84 1097.59,-118.62 909.64,-88.15"/>
<polygon fill="midnightblue" stroke="midnightblue" points="910.08,-84.68 899.64,-86.53 908.96,-91.59 910.08,-84.68"/>
</g>
<!-- Node5&#45;&gt;Node4 -->
<g id="edge5" class="edge">
<title>Node5&#45;&gt;Node4</title>
<path fill="none" stroke="midnightblue" d="M906.57,-70.02C1027.84,-57.85 1300.42,-30.51 1401.41,-20.37"/>
<polygon fill="midnightblue" stroke="midnightblue" points="1401.87,-23.84 1411.47,-19.36 1401.17,-16.88 1401.87,-23.84"/>
</g>
<!-- Node6 -->
<g id="node6" class="node">
<title>Node6</title>
<g id="a_node6"><a xlink:title=" ">
<polygon fill="white" stroke="#bfbfbf" points="712,-6 712,-25 772,-25 772,-6 712,-6"/>
<text text-anchor="middle" x="742" y="-13" font-family="Helvetica,sans-Serif" font-size="10.00">iostream</text>
</a>
</g>
</g>
<!-- Node5&#45;&gt;Node6 -->
<g id="edge6" class="edge">
<title>Node5&#45;&gt;Node6</title>
<path fill="none" stroke="midnightblue" d="M831.96,-67.48C814.72,-57.71 786.26,-41.58 765.97,-30.08"/>
<polygon fill="midnightblue" stroke="midnightblue" points="767.44,-26.89 757.02,-25.01 763.99,-32.98 767.44,-26.89"/>
</g>
<!-- Node7 -->
<g id="node7" class="node">
<title>Node7</title>
<g id="a_node7"><a xlink:title=" ">
<polygon fill="white" stroke="#bfbfbf" points="790.5,-0.5 790.5,-30.5 903.5,-30.5 903.5,-0.5 790.5,-0.5"/>
<text text-anchor="start" x="798.5" y="-18.5" font-family="Helvetica,sans-Serif" font-size="10.00">boost/property_tree</text>
<text text-anchor="middle" x="847" y="-7.5" font-family="Helvetica,sans-Serif" font-size="10.00">/ptree.hpp</text>
</a>
</g>
</g>
<!-- Node5&#45;&gt;Node7 -->
<g id="edge7" class="edge">
<title>Node5&#45;&gt;Node7</title>
<path fill="none" stroke="midnightblue" d="M847,-67.48C847,-60.47 847,-50.19 847,-40.7"/>
<polygon fill="midnightblue" stroke="midnightblue" points="850.5,-40.52 847,-30.52 843.5,-40.52 850.5,-40.52"/>
</g>
<!-- Node8 -->
<g id="node8" class="node">
<title>Node8</title>
<g id="a_node8"><a xlink:title=" ">
<polygon fill="white" stroke="#bfbfbf" points="921.5,-0.5 921.5,-30.5 1034.5,-30.5 1034.5,-0.5 921.5,-0.5"/>
<text text-anchor="start" x="929.5" y="-18.5" font-family="Helvetica,sans-Serif" font-size="10.00">boost/property_tree</text>
<text text-anchor="middle" x="978" y="-7.5" font-family="Helvetica,sans-Serif" font-size="10.00">/xml_parser.hpp</text>
</a>
</g>
</g>
<!-- Node5&#45;&gt;Node8 -->
<g id="edge8" class="edge">
<title>Node5&#45;&gt;Node8</title>
<path fill="none" stroke="midnightblue" d="M865.77,-67.48C884.51,-58.96 913.89,-45.62 937.89,-34.72"/>
<polygon fill="midnightblue" stroke="midnightblue" points="939.47,-37.85 947.13,-30.52 936.57,-31.47 939.47,-37.85"/>
</g>
<!-- Node10 -->
<g id="node10" class="node">
<title>Node10</title>
<g id="a_node10"><a xlink:title=" ">
<polygon fill="white" stroke="#bfbfbf" points="353.5,-67.5 353.5,-86.5 406.5,-86.5 406.5,-67.5 353.5,-67.5"/>
<text text-anchor="middle" x="380" y="-74.5" font-family="Helvetica,sans-Serif" font-size="10.00">raylib.h</text>
</a>
</g>
</g>
<!-- Node9&#45;&gt;Node10 -->
<g id="edge10" class="edge">
<title>Node9&#45;&gt;Node10</title>
<path fill="none" stroke="midnightblue" d="M855.67,-411.12C652.91,-407.35 0,-388.5 0,-302 0,-302 0,-302 0,-188 0,-143.21 36.19,-141.44 77,-123 166.2,-82.71 283.75,-77.09 342.78,-77.12"/>
<polygon fill="midnightblue" stroke="midnightblue" points="343.08,-80.62 353.11,-77.18 343.13,-73.62 343.08,-80.62"/>
</g>
<!-- Node11 -->
<g id="node11" class="node">
<title>Node11</title>
<g id="a_node11"><a xlink:title=" ">
<polygon fill="white" stroke="#bfbfbf" points="936,-179.5 936,-198.5 980,-198.5 980,-179.5 936,-179.5"/>
<text text-anchor="middle" x="958" y="-186.5" font-family="Helvetica,sans-Serif" font-size="10.00">string</text>
</a>
</g>
</g>
<!-- Node9&#45;&gt;Node11 -->
<g id="edge11" class="edge">
<title>Node9&#45;&gt;Node11</title>
<path fill="none" stroke="midnightblue" d="M919.62,-403.41C928.49,-386.37 947.7,-346.85 955,-311 962.24,-275.43 961.08,-232.77 959.55,-208.79"/>
<polygon fill="midnightblue" stroke="midnightblue" points="963.03,-208.34 958.81,-198.62 956.05,-208.85 963.03,-208.34"/>
</g>
<!-- Node12 -->
<g id="node12" class="node">
<title>Node12</title>
<g id="a_node12"><a xlink:title=" ">
<polygon fill="white" stroke="#bfbfbf" points="1154.5,-235.5 1154.5,-254.5 1201.5,-254.5 1201.5,-235.5 1154.5,-235.5"/>
<text text-anchor="middle" x="1178" y="-242.5" font-family="Helvetica,sans-Serif" font-size="10.00">vector</text>
</a>
</g>
</g>
<!-- Node9&#45;&gt;Node12 -->
<g id="edge12" class="edge">
<title>Node9&#45;&gt;Node12</title>
<path fill="none" stroke="midnightblue" d="M938.3,-403.46C956.26,-395.97 980.84,-383.68 998,-367 1025.98,-339.79 1011.72,-315.63 1042,-291 1050.16,-284.37 1106.88,-266.86 1144.45,-255.74"/>
<polygon fill="midnightblue" stroke="midnightblue" points="1145.87,-258.97 1154.48,-252.79 1143.9,-252.26 1145.87,-258.97"/>
</g>
<!-- Node13 -->
<g id="node13" class="node">
<title>Node13</title>
<g id="a_node13"><a xlink:href="Model_8hpp.html" target="_top" xlink:title=" ">
<polygon fill="white" stroke="black" points="556,-347.5 556,-366.5 624,-366.5 624,-347.5 556,-347.5"/>
<text text-anchor="middle" x="590" y="-354.5" font-family="Helvetica,sans-Serif" font-size="10.00">Model.hpp</text>
</a>
</g>
</g>
<!-- Node9&#45;&gt;Node13 -->
<g id="edge13" class="edge">
<title>Node9&#45;&gt;Node13</title>
<path fill="none" stroke="midnightblue" d="M863.5,-403.44C800.22,-392.93 693.92,-375.27 634.19,-365.34"/>
<polygon fill="midnightblue" stroke="midnightblue" points="634.75,-361.89 624.31,-363.7 633.6,-368.79 634.75,-361.89"/>
</g>
<!-- Node24 -->
<g id="node24" class="node">
<title>Node24</title>
<g id="a_node24"><a xlink:href="IAsset_8hpp.html" target="_top" xlink:title=" ">
<polygon fill="white" stroke="black" points="812,-235.5 812,-254.5 880,-254.5 880,-235.5 812,-235.5"/>
<text text-anchor="middle" x="846" y="-242.5" font-family="Helvetica,sans-Serif" font-size="10.00">IAsset.hpp</text>
</a>
</g>
</g>
<!-- Node9&#45;&gt;Node24 -->
<g id="edge63" class="edge">
<title>Node9&#45;&gt;Node24</title>
<path fill="none" stroke="midnightblue" d="M910.21,-403.29C900.85,-386.04 879.85,-346.18 866,-311 859.92,-295.55 854.48,-277.46 850.82,-264.29"/>
<polygon fill="midnightblue" stroke="midnightblue" points="854.17,-263.29 848.18,-254.56 847.42,-265.12 854.17,-263.29"/>
</g>
<!-- Node13&#45;&gt;Node10 -->
<g id="edge14" class="edge">
<title>Node13&#45;&gt;Node10</title>
<path fill="none" stroke="midnightblue" d="M555.89,-356.5C435.54,-357.35 38,-352.15 38,-246 38,-246 38,-246 38,-188 38,-124.39 255.09,-92.32 343.35,-81.9"/>
<polygon fill="midnightblue" stroke="midnightblue" points="343.91,-85.36 353.45,-80.74 343.11,-78.41 343.91,-85.36"/>
</g>
<!-- Node13&#45;&gt;Node11 -->
<g id="edge15" class="edge">
<title>Node13&#45;&gt;Node11</title>
<path fill="none" stroke="midnightblue" d="M624.23,-354.94C661.71,-352.12 721.83,-342.56 762,-311 792.18,-287.29 773.14,-259.11 803,-235 838.51,-206.33 891.57,-195.92 925.48,-192.15"/>
<polygon fill="midnightblue" stroke="midnightblue" points="926.16,-195.6 935.77,-191.14 925.48,-188.63 926.16,-195.6"/>
</g>
<!-- Node14 -->
<g id="node14" class="node">
<title>Node14</title>
<g id="a_node14"><a xlink:href="Vector3_8hpp.html" target="_top" xlink:title=" ">
<polygon fill="white" stroke="black" points="436,-123.5 436,-142.5 510,-142.5 510,-123.5 436,-123.5"/>
<text text-anchor="middle" x="473" y="-130.5" font-family="Helvetica,sans-Serif" font-size="10.00">Vector3.hpp</text>
</a>
</g>
</g>
<!-- Node13&#45;&gt;Node14 -->
<g id="edge16" class="edge">
<title>Node13&#45;&gt;Node14</title>
<path fill="none" stroke="midnightblue" d="M555.6,-353.13C494.11,-347.5 368.29,-333.56 331,-311 280.97,-280.74 274.61,-256.09 262,-199 260.08,-190.32 256.41,-185.91 262,-179 282.18,-154.06 369.87,-142.34 425.65,-137.33"/>
<polygon fill="midnightblue" stroke="midnightblue" points="426.01,-140.81 435.68,-136.46 425.41,-133.83 426.01,-140.81"/>
</g>
<!-- Node17 -->
<g id="node17" class="node">
<title>Node17</title>
<g id="a_node17"><a xlink:href="Color_8hpp.html" target="_top" xlink:title=" ">
<polygon fill="white" stroke="black" points="271,-179.5 271,-198.5 333,-198.5 333,-179.5 271,-179.5"/>
<text text-anchor="middle" x="302" y="-186.5" font-family="Helvetica,sans-Serif" font-size="10.00">Color.hpp</text>
</a>
</g>
</g>
<!-- Node13&#45;&gt;Node17 -->
<g id="edge21" class="edge">
<title>Node13&#45;&gt;Node17</title>
<path fill="none" stroke="midnightblue" d="M555.69,-355.91C492.45,-353.64 358.52,-338.66 299,-255 289.4,-241.5 291.78,-222.14 295.57,-208.07"/>
<polygon fill="midnightblue" stroke="midnightblue" points="298.91,-209.1 298.56,-198.51 292.23,-207.01 298.91,-209.1"/>
</g>
<!-- Node18 -->
<g id="node18" class="node">
<title>Node18</title>
<g id="a_node18"><a xlink:href="Texture_8hpp.html" target="_top" xlink:title=" ">
<polygon fill="white" stroke="black" points="509,-291.5 509,-310.5 583,-310.5 583,-291.5 509,-291.5"/>
<text text-anchor="middle" x="546" y="-298.5" font-family="Helvetica,sans-Serif" font-size="10.00">Texture.hpp</text>
</a>
</g>
</g>
<!-- Node13&#45;&gt;Node18 -->
<g id="edge24" class="edge">
<title>Node13&#45;&gt;Node18</title>
<path fill="none" stroke="midnightblue" d="M582.73,-347.08C576.46,-339.38 567.21,-328.03 559.57,-318.65"/>
<polygon fill="midnightblue" stroke="midnightblue" points="562.16,-316.29 553.13,-310.75 556.73,-320.71 562.16,-316.29"/>
</g>
<!-- Node25 -->
<g id="node25" class="node">
<title>Node25</title>
<g id="a_node25"><a xlink:href="Mesh_8hpp.html" target="_top" xlink:title=" ">
<polygon fill="white" stroke="black" points="603,-291.5 603,-310.5 667,-310.5 667,-291.5 603,-291.5"/>
<text text-anchor="middle" x="635" y="-298.5" font-family="Helvetica,sans-Serif" font-size="10.00">Mesh.hpp</text>
</a>
</g>
</g>
<!-- Node13&#45;&gt;Node25 -->
<g id="edge48" class="edge">
<title>Node13&#45;&gt;Node25</title>
<path fill="none" stroke="midnightblue" d="M597.43,-347.08C603.85,-339.38 613.31,-328.03 621.12,-318.65"/>
<polygon fill="midnightblue" stroke="midnightblue" points="623.99,-320.67 627.71,-310.75 618.62,-316.19 623.99,-320.67"/>
</g>
<!-- Node26 -->
<g id="node26" class="node">
<title>Node26</title>
<g id="a_node26"><a xlink:href="IDrawable_8hpp.html" target="_top" xlink:title=" ">
<polygon fill="white" stroke="black" points="104.5,-235.5 104.5,-254.5 191.5,-254.5 191.5,-235.5 104.5,-235.5"/>
<text text-anchor="middle" x="148" y="-242.5" font-family="Helvetica,sans-Serif" font-size="10.00">IDrawable.hpp</text>
</a>
</g>
</g>
<!-- Node13&#45;&gt;Node26 -->
<g id="edge53" class="edge">
<title>Node13&#45;&gt;Node26</title>
<path fill="none" stroke="midnightblue" d="M555.82,-355.07C473.5,-352.36 266.6,-342.51 206,-311 185.11,-300.14 168.18,-278.45 158.11,-263.12"/>
<polygon fill="midnightblue" stroke="midnightblue" points="161.03,-261.17 152.76,-254.55 155.09,-264.88 161.03,-261.17"/>
</g>
<!-- Node27 -->
<g id="node27" class="node">
<title>Node27</title>
<g id="a_node27"><a xlink:href="Shader_8hpp.html" target="_top" xlink:title=" ">
<polygon fill="white" stroke="black" points="874.5,-291.5 874.5,-310.5 945.5,-310.5 945.5,-291.5 874.5,-291.5"/>
<text text-anchor="middle" x="910" y="-298.5" font-family="Helvetica,sans-Serif" font-size="10.00">Shader.hpp</text>
</a>
</g>
</g>
<!-- Node13&#45;&gt;Node27 -->
<g id="edge57" class="edge">
<title>Node13&#45;&gt;Node27</title>
<path fill="none" stroke="midnightblue" d="M624.25,-350.22C682.1,-340.46 799.2,-320.7 864.1,-309.75"/>
<polygon fill="midnightblue" stroke="midnightblue" points="864.77,-313.18 874.05,-308.07 863.61,-306.28 864.77,-313.18"/>
</g>
<!-- Node28 -->
<g id="node28" class="node">
<title>Node28</title>
<g id="a_node28"><a xlink:title=" ">
<polygon fill="white" stroke="#bfbfbf" points="685.5,-291.5 685.5,-310.5 752.5,-310.5 752.5,-291.5 685.5,-291.5"/>
<text text-anchor="middle" x="719" y="-298.5" font-family="Helvetica,sans-Serif" font-size="10.00">raymath.h</text>
</a>
</g>
</g>
<!-- Node13&#45;&gt;Node28 -->
<g id="edge62" class="edge">
<title>Node13&#45;&gt;Node28</title>
<path fill="none" stroke="midnightblue" d="M610.44,-347.44C631.67,-338.56 665.1,-324.56 689.25,-314.45"/>
<polygon fill="midnightblue" stroke="midnightblue" points="690.78,-317.61 698.66,-310.52 688.08,-311.15 690.78,-317.61"/>
</g>
<!-- Node14&#45;&gt;Node5 -->
<g id="edge18" class="edge">
<title>Node14&#45;&gt;Node5</title>
<path fill="none" stroke="midnightblue" d="M510.23,-126.62C572.47,-117.64 698.6,-99.43 777.6,-88.02"/>
<polygon fill="midnightblue" stroke="midnightblue" points="778.55,-91.42 787.94,-86.53 777.55,-84.49 778.55,-91.42"/>
</g>
<!-- Node14&#45;&gt;Node10 -->
<g id="edge17" class="edge">
<title>Node14&#45;&gt;Node10</title>
<path fill="none" stroke="midnightblue" d="M458.06,-123.32C443.41,-114.82 420.87,-101.73 403.76,-91.8"/>
<polygon fill="midnightblue" stroke="midnightblue" points="405.31,-88.65 394.9,-86.65 401.8,-94.7 405.31,-88.65"/>
</g>
<!-- Node15 -->
<g id="node15" class="node">
<title>Node15</title>
<g id="a_node15"><a xlink:title=" ">
<polygon fill="white" stroke="#bfbfbf" points="536.5,-67.5 536.5,-86.5 583.5,-86.5 583.5,-67.5 536.5,-67.5"/>
<text text-anchor="middle" x="560" y="-74.5" font-family="Helvetica,sans-Serif" font-size="10.00">cmath</text>
</a>
</g>
</g>
<!-- Node14&#45;&gt;Node15 -->
<g id="edge19" class="edge">
<title>Node14&#45;&gt;Node15</title>
<path fill="none" stroke="midnightblue" d="M486.98,-123.32C500.55,-114.9 521.38,-101.97 537.32,-92.07"/>
<polygon fill="midnightblue" stroke="midnightblue" points="539.41,-94.9 546.06,-86.65 535.71,-88.95 539.41,-94.9"/>
</g>
<!-- Node16 -->
<g id="node16" class="node">
<title>Node16</title>
<g id="a_node16"><a xlink:title=" ">
<polygon fill="white" stroke="#bfbfbf" points="445,-67.5 445,-86.5 501,-86.5 501,-67.5 445,-67.5"/>
<text text-anchor="middle" x="473" y="-74.5" font-family="Helvetica,sans-Serif" font-size="10.00">sstream</text>
</a>
</g>
</g>
<!-- Node14&#45;&gt;Node16 -->
<g id="edge20" class="edge">
<title>Node14&#45;&gt;Node16</title>
<path fill="none" stroke="midnightblue" d="M473,-123.08C473,-116.01 473,-105.86 473,-96.99"/>
<polygon fill="midnightblue" stroke="midnightblue" points="476.5,-96.75 473,-86.75 469.5,-96.75 476.5,-96.75"/>
</g>
<!-- Node17&#45;&gt;Node10 -->
<g id="edge22" class="edge">
<title>Node17&#45;&gt;Node10</title>
<path fill="none" stroke="midnightblue" d="M308.04,-179.12C316.6,-166.55 332.82,-142.9 347,-123 353.69,-113.61 361.29,-103.23 367.51,-94.81"/>
<polygon fill="midnightblue" stroke="midnightblue" points="370.46,-96.7 373.6,-86.58 364.84,-92.53 370.46,-96.7"/>
</g>
<!-- Node17&#45;&gt;Node14 -->
<g id="edge23" class="edge">
<title>Node17&#45;&gt;Node14</title>
<path fill="none" stroke="midnightblue" d="M329.1,-179.44C357.99,-170.32 403.92,-155.81 436.11,-145.65"/>
<polygon fill="midnightblue" stroke="midnightblue" points="437.55,-148.87 446.03,-142.52 435.44,-142.19 437.55,-148.87"/>
</g>
<!-- Node18&#45;&gt;Node10 -->
<g id="edge25" class="edge">
<title>Node18&#45;&gt;Node10</title>
<path fill="none" stroke="midnightblue" d="M508.77,-299.09C405.73,-296.19 122.59,-285.48 95,-255 14.19,-165.72 249.79,-105.2 343.44,-85.22"/>
<polygon fill="midnightblue" stroke="midnightblue" points="344.28,-88.62 353.35,-83.14 342.84,-81.77 344.28,-88.62"/>
</g>
<!-- Node18&#45;&gt;Node11 -->
<g id="edge26" class="edge">
<title>Node18&#45;&gt;Node11</title>
<path fill="none" stroke="midnightblue" d="M573.82,-291.47C616.05,-278.62 698.95,-253.8 770,-235 824.57,-220.56 888.58,-205.67 926.08,-197.16"/>
<polygon fill="midnightblue" stroke="midnightblue" points="926.94,-200.55 935.92,-194.93 925.39,-193.72 926.94,-200.55"/>
</g>
<!-- Node18&#45;&gt;Node17 -->
<g id="edge36" class="edge">
<title>Node18&#45;&gt;Node17</title>
<path fill="none" stroke="midnightblue" d="M508.73,-297.69C450.5,-293.29 341.79,-281.66 315,-255 303.03,-243.09 300.51,-223.47 300.54,-208.9"/>
<polygon fill="midnightblue" stroke="midnightblue" points="304.05,-208.67 300.98,-198.54 297.06,-208.38 304.05,-208.67"/>
</g>
<!-- Node19 -->
<g id="node19" class="node">
<title>Node19</title>
<g id="a_node19"><a xlink:href="Image_8hpp.html" target="_top" xlink:title=" ">
<polygon fill="white" stroke="black" points="574,-235.5 574,-254.5 642,-254.5 642,-235.5 574,-235.5"/>
<text text-anchor="middle" x="608" y="-242.5" font-family="Helvetica,sans-Serif" font-size="10.00">Image.hpp</text>
</a>
</g>
</g>
<!-- Node18&#45;&gt;Node19 -->
<g id="edge27" class="edge">
<title>Node18&#45;&gt;Node19</title>
<path fill="none" stroke="midnightblue" d="M555.96,-291.32C565.13,-283.34 578.94,-271.31 590.03,-261.65"/>
<polygon fill="midnightblue" stroke="midnightblue" points="592.62,-264.04 597.86,-254.83 588.02,-258.76 592.62,-264.04"/>
</g>
<!-- Node20 -->
<g id="node20" class="node">
<title>Node20</title>
<g id="a_node20"><a xlink:href="Vector2_8hpp.html" target="_top" xlink:title=" ">
<polygon fill="white" stroke="black" points="539,-179.5 539,-198.5 613,-198.5 613,-179.5 539,-179.5"/>
<text text-anchor="middle" x="576" y="-186.5" font-family="Helvetica,sans-Serif" font-size="10.00">Vector2.hpp</text>
</a>
</g>
</g>
<!-- Node18&#45;&gt;Node20 -->
<g id="edge37" class="edge">
<title>Node18&#45;&gt;Node20</title>
<path fill="none" stroke="midnightblue" d="M548.35,-291.37C553.22,-273.54 564.46,-232.3 571.02,-208.27"/>
<polygon fill="midnightblue" stroke="midnightblue" points="574.4,-209.16 573.66,-198.59 567.65,-207.32 574.4,-209.16"/>
</g>
<!-- Node21 -->
<g id="node21" class="node">
<title>Node21</title>
<g id="a_node21"><a xlink:href="Camera3D_8hpp.html" target="_top" xlink:title=" ">
<polygon fill="white" stroke="black" points="428.5,-235.5 428.5,-254.5 517.5,-254.5 517.5,-235.5 428.5,-235.5"/>
<text text-anchor="middle" x="473" y="-242.5" font-family="Helvetica,sans-Serif" font-size="10.00">Camera3D.hpp</text>
</a>
</g>
</g>
<!-- Node18&#45;&gt;Node21 -->
<g id="edge38" class="edge">
<title>Node18&#45;&gt;Node21</title>
<path fill="none" stroke="midnightblue" d="M534.27,-291.32C523.16,-283.11 506.26,-270.6 493.02,-260.81"/>
<polygon fill="midnightblue" stroke="midnightblue" points="495.06,-257.97 484.94,-254.83 490.9,-263.59 495.06,-257.97"/>
</g>
<!-- Node23 -->
<g id="node23" class="node">
<title>Node23</title>
<g id="a_node23"><a xlink:href="Rectangle_8hpp.html" target="_top" xlink:title=" ">
<polygon fill="white" stroke="black" points="324,-235.5 324,-254.5 410,-254.5 410,-235.5 324,-235.5"/>
<text text-anchor="middle" x="367" y="-242.5" font-family="Helvetica,sans-Serif" font-size="10.00">Rectangle.hpp</text>
</a>
</g>
</g>
<!-- Node18&#45;&gt;Node23 -->
<g id="edge44" class="edge">
<title>Node18&#45;&gt;Node23</title>
<path fill="none" stroke="midnightblue" d="M517.64,-291.44C487.26,-282.28 438.89,-267.69 405.18,-257.52"/>
<polygon fill="midnightblue" stroke="midnightblue" points="405.82,-254.05 395.23,-254.52 403.79,-260.76 405.82,-254.05"/>
</g>
<!-- Node18&#45;&gt;Node24 -->
<g id="edge47" class="edge">
<title>Node18&#45;&gt;Node24</title>
<path fill="none" stroke="midnightblue" d="M583.2,-292.99C586.85,-292.31 590.5,-291.64 594,-291 666.8,-277.68 751.52,-262.64 801.85,-253.77"/>
<polygon fill="midnightblue" stroke="midnightblue" points="802.5,-257.2 811.74,-252.02 801.29,-250.31 802.5,-257.2"/>
</g>
<!-- Node19&#45;&gt;Node10 -->
<g id="edge29" class="edge">
<title>Node19&#45;&gt;Node10</title>
<path fill="none" stroke="midnightblue" d="M613.48,-235.1C620.71,-222.11 631.49,-197.49 622,-179 602.52,-141.03 582.52,-141.38 544,-123 502.47,-103.18 450.71,-90.81 416.58,-84.17"/>
<polygon fill="midnightblue" stroke="midnightblue" points="417.06,-80.7 406.58,-82.29 415.76,-87.58 417.06,-80.7"/>
</g>
<!-- Node19&#45;&gt;Node11 -->
<g id="edge28" class="edge">
<title>Node19&#45;&gt;Node11</title>
<path fill="none" stroke="midnightblue" d="M642.2,-238.72C709.82,-228.29 859.77,-205.16 925.76,-194.97"/>
<polygon fill="midnightblue" stroke="midnightblue" points="926.63,-198.38 935.98,-193.4 925.56,-191.46 926.63,-198.38"/>
</g>
<!-- Node19&#45;&gt;Node17 -->
<g id="edge30" class="edge">
<title>Node19&#45;&gt;Node17</title>
<path fill="none" stroke="midnightblue" d="M573.79,-237.96C517.18,-227.97 404.22,-208.04 343.27,-197.28"/>
<polygon fill="midnightblue" stroke="midnightblue" points="343.69,-193.8 333.24,-195.51 342.48,-200.7 343.69,-193.8"/>
</g>
<!-- Node19&#45;&gt;Node20 -->
<g id="edge31" class="edge">
<title>Node19&#45;&gt;Node20</title>
<path fill="none" stroke="midnightblue" d="M602.72,-235.08C598.29,-227.61 591.84,-216.72 586.38,-207.52"/>
<polygon fill="midnightblue" stroke="midnightblue" points="589.29,-205.57 581.19,-198.75 583.27,-209.14 589.29,-205.57"/>
</g>
<!-- Node20&#45;&gt;Node5 -->
<g id="edge35" class="edge">
<title>Node20&#45;&gt;Node5</title>
<path fill="none" stroke="midnightblue" d="M597.26,-179.37C645.05,-159.97 761.09,-112.87 816.53,-90.37"/>
<polygon fill="midnightblue" stroke="midnightblue" points="817.88,-93.6 825.83,-86.59 815.25,-87.11 817.88,-93.6"/>
</g>
<!-- Node20&#45;&gt;Node10 -->
<g id="edge32" class="edge">
<title>Node20&#45;&gt;Node10</title>
<path fill="none" stroke="midnightblue" d="M570.48,-179.07C561.42,-165.12 542.07,-138.18 519,-123 487.63,-102.36 446.06,-90.54 416.57,-84.25"/>
<polygon fill="midnightblue" stroke="midnightblue" points="417.18,-80.8 406.68,-82.24 415.79,-87.66 417.18,-80.8"/>
</g>
<!-- Node20&#45;&gt;Node14 -->
<g id="edge34" class="edge">
<title>Node20&#45;&gt;Node14</title>
<path fill="none" stroke="midnightblue" d="M559.45,-179.32C543.01,-170.7 517.57,-157.36 498.53,-147.39"/>
<polygon fill="midnightblue" stroke="midnightblue" points="499.99,-144.2 489.51,-142.65 496.74,-150.4 499.99,-144.2"/>
</g>
<!-- Node20&#45;&gt;Node15 -->
<g id="edge33" class="edge">
<title>Node20&#45;&gt;Node15</title>
<path fill="none" stroke="midnightblue" d="M574.74,-179.37C572.16,-161.62 566.21,-120.67 562.71,-96.6"/>
<polygon fill="midnightblue" stroke="midnightblue" points="566.15,-95.98 561.25,-86.59 559.23,-96.99 566.15,-95.98"/>
</g>
<!-- Node21&#45;&gt;Node10 -->
<g id="edge39" class="edge">
<title>Node21&#45;&gt;Node10</title>
<path fill="none" stroke="midnightblue" d="M458.64,-235.37C446.47,-227.35 429.38,-214.37 419,-199 397.26,-166.8 386.98,-121.67 382.67,-96.62"/>
<polygon fill="midnightblue" stroke="midnightblue" points="386.12,-95.97 381.1,-86.64 379.2,-97.06 386.12,-95.97"/>
</g>
<!-- Node21&#45;&gt;Node14 -->
<g id="edge41" class="edge">
<title>Node21&#45;&gt;Node14</title>
<path fill="none" stroke="midnightblue" d="M478.37,-235.29C485.34,-222.92 496.15,-199.51 492,-179 490.11,-169.65 486.21,-159.83 482.43,-151.75"/>
<polygon fill="midnightblue" stroke="midnightblue" points="485.47,-150.01 477.88,-142.63 479.21,-153.14 485.47,-150.01"/>
</g>
<!-- Node21&#45;&gt;Node20 -->
<g id="edge40" class="edge">
<title>Node21&#45;&gt;Node20</title>
<path fill="none" stroke="midnightblue" d="M489.55,-235.32C505.99,-226.7 531.43,-213.36 550.47,-203.39"/>
<polygon fill="midnightblue" stroke="midnightblue" points="552.26,-206.4 559.49,-198.65 549.01,-200.2 552.26,-206.4"/>
</g>
<!-- Node22 -->
<g id="node22" class="node">
<title>Node22</title>
<g id="a_node22"><a xlink:href="Ray_8hpp.html" target="_top" xlink:title=" ">
<polygon fill="white" stroke="black" points="427.5,-179.5 427.5,-198.5 482.5,-198.5 482.5,-179.5 427.5,-179.5"/>
<text text-anchor="middle" x="455" y="-186.5" font-family="Helvetica,sans-Serif" font-size="10.00">Ray.hpp</text>
</a>
</g>
</g>
<!-- Node21&#45;&gt;Node22 -->
<g id="edge42" class="edge">
<title>Node21&#45;&gt;Node22</title>
<path fill="none" stroke="midnightblue" d="M470.03,-235.08C467.62,-227.85 464.14,-217.41 461.13,-208.4"/>
<polygon fill="midnightblue" stroke="midnightblue" points="464.4,-207.13 457.92,-198.75 457.76,-209.34 464.4,-207.13"/>
</g>
<!-- Node22&#45;&gt;Node14 -->
<g id="edge43" class="edge">
<title>Node22&#45;&gt;Node14</title>
<path fill="none" stroke="midnightblue" d="M457.97,-179.08C460.38,-171.85 463.86,-161.41 466.87,-152.4"/>
<polygon fill="midnightblue" stroke="midnightblue" points="470.24,-153.34 470.08,-142.75 463.6,-151.13 470.24,-153.34"/>
</g>
<!-- Node23&#45;&gt;Node10 -->
<g id="edge45" class="edge">
<title>Node23&#45;&gt;Node10</title>
<path fill="none" stroke="midnightblue" d="M367.7,-235.08C369.75,-208.95 375.75,-132.21 378.55,-96.58"/>
<polygon fill="midnightblue" stroke="midnightblue" points="382.04,-96.81 379.33,-86.57 375.06,-96.26 382.04,-96.81"/>
</g>
<!-- Node23&#45;&gt;Node17 -->
<g id="edge46" class="edge">
<title>Node23&#45;&gt;Node17</title>
<path fill="none" stroke="midnightblue" d="M356.56,-235.32C346.85,-227.26 332.18,-215.08 320.5,-205.37"/>
<polygon fill="midnightblue" stroke="midnightblue" points="322.56,-202.53 312.63,-198.83 318.09,-207.92 322.56,-202.53"/>
</g>
<!-- Node25&#45;&gt;Node10 -->
<g id="edge49" class="edge">
<title>Node25&#45;&gt;Node10</title>
<path fill="none" stroke="midnightblue" d="M643.48,-291.23C651.05,-282.75 661.6,-269.13 666,-255 668.64,-246.51 668.1,-243.64 666,-235 651.15,-174.02 635.11,-153.03 580,-123 552.21,-107.86 466.5,-92.04 416.77,-83.79"/>
<polygon fill="midnightblue" stroke="midnightblue" points="417.17,-80.31 406.73,-82.14 416.04,-87.21 417.17,-80.31"/>
</g>
<!-- Node25&#45;&gt;Node14 -->
<g id="edge51" class="edge">
<title>Node25&#45;&gt;Node14</title>
<path fill="none" stroke="midnightblue" d="M639.11,-291.28C643.06,-282.38 648.74,-268.07 651,-255 657.15,-219.37 649.81,-202.1 622,-179 593.21,-155.09 551.95,-143.88 520.15,-138.62"/>
<polygon fill="midnightblue" stroke="midnightblue" points="520.6,-135.15 510.19,-137.12 519.55,-142.07 520.6,-135.15"/>
</g>
<!-- Node25&#45;&gt;Node19 -->
<g id="edge50" class="edge">
<title>Node25&#45;&gt;Node19</title>
<path fill="none" stroke="midnightblue" d="M630.54,-291.08C626.85,-283.69 621.48,-272.95 616.91,-263.81"/>
<polygon fill="midnightblue" stroke="midnightblue" points="619.98,-262.13 612.38,-254.75 613.72,-265.26 619.98,-262.13"/>
</g>
<!-- Node25&#45;&gt;Node24 -->
<g id="edge52" class="edge">
<title>Node25&#45;&gt;Node24</title>
<path fill="none" stroke="midnightblue" d="M667.05,-291.8C703.29,-282.52 762.49,-267.37 802.79,-257.06"/>
<polygon fill="midnightblue" stroke="midnightblue" points="803.78,-260.42 812.6,-254.55 802.05,-253.64 803.78,-260.42"/>
</g>
<!-- Node26&#45;&gt;Node10 -->
<g id="edge54" class="edge">
<title>Node26&#45;&gt;Node10</title>
<path fill="none" stroke="midnightblue" d="M150.01,-235.36C153.55,-221.82 162.08,-195.42 178,-179 224.71,-130.81 299.26,-101.91 343.54,-88.05"/>
<polygon fill="midnightblue" stroke="midnightblue" points="344.76,-91.33 353.31,-85.08 342.73,-84.64 344.76,-91.33"/>
</g>
<!-- Node26&#45;&gt;Node14 -->
<g id="edge55" class="edge">
<title>Node26&#45;&gt;Node14</title>
<path fill="none" stroke="midnightblue" d="M153.11,-235.13C161.92,-220.75 181.38,-192.6 206,-179 242.96,-158.59 359.52,-144.66 425.77,-138.17"/>
<polygon fill="midnightblue" stroke="midnightblue" points="426.33,-141.64 435.95,-137.2 425.66,-134.67 426.33,-141.64"/>
</g>
<!-- Node26&#45;&gt;Node17 -->
<g id="edge56" class="edge">
<title>Node26&#45;&gt;Node17</title>
<path fill="none" stroke="midnightblue" d="M172.4,-235.44C198.2,-226.4 239.08,-212.06 268.02,-201.92"/>
<polygon fill="midnightblue" stroke="midnightblue" points="269.43,-205.13 277.71,-198.52 267.12,-198.52 269.43,-205.13"/>
</g>
<!-- Node27&#45;&gt;Node10 -->
<g id="edge60" class="edge">
<title>Node27&#45;&gt;Node10</title>
<path fill="none" stroke="midnightblue" d="M909.49,-291.25C908.23,-277.55 903.9,-250.95 889,-235 797.5,-137.06 737.54,-160.98 609,-123 573.5,-112.51 472.01,-94.07 416.82,-84.37"/>
<polygon fill="midnightblue" stroke="midnightblue" points="417.21,-80.89 406.76,-82.61 416,-87.78 417.21,-80.89"/>
</g>
<!-- Node27&#45;&gt;Node11 -->
<g id="edge59" class="edge">
<title>Node27&#45;&gt;Node11</title>
<path fill="none" stroke="midnightblue" d="M913.77,-291.37C921.58,-273.46 939.71,-231.92 950.17,-207.95"/>
<polygon fill="midnightblue" stroke="midnightblue" points="953.46,-209.16 954.25,-198.59 947.04,-206.36 953.46,-209.16"/>
</g>
<!-- Node27&#45;&gt;Node12 -->
<g id="edge61" class="edge">
<title>Node27&#45;&gt;Node12</title>
<path fill="none" stroke="midnightblue" d="M945.61,-294.06C989.91,-286.48 1068.04,-272.48 1144.47,-254.97"/>
<polygon fill="midnightblue" stroke="midnightblue" points="1145.31,-258.37 1154.26,-252.71 1143.73,-251.55 1145.31,-258.37"/>
</g>
<!-- Node27&#45;&gt;Node24 -->
<g id="edge58" class="edge">
<title>Node27&#45;&gt;Node24</title>
<path fill="none" stroke="midnightblue" d="M899.72,-291.32C890.16,-283.26 875.72,-271.08 864.22,-261.37"/>
<polygon fill="midnightblue" stroke="midnightblue" points="866.37,-258.61 856.47,-254.83 861.86,-263.96 866.37,-258.61"/>
</g>
<!-- Node29&#45;&gt;Node24 -->
<g id="edge65" class="edge">
<title>Node29&#45;&gt;Node24</title>
<path fill="none" stroke="midnightblue" d="M1058.07,-291.44C1012.3,-281.64 937.5,-265.61 890.06,-255.44"/>
<polygon fill="midnightblue" stroke="midnightblue" points="890.6,-251.98 880.09,-253.3 889.13,-258.82 890.6,-251.98"/>
</g>
<!-- Node30 -->
<g id="node30" class="node">
<title>Node30</title>
<g id="a_node30"><a xlink:href="EngineExceptions_8hpp.html" target="_top" xlink:title=" ">
<polygon fill="white" stroke="black" points="1012,-235.5 1012,-254.5 1136,-254.5 1136,-235.5 1012,-235.5"/>
<text text-anchor="middle" x="1074" y="-242.5" font-family="Helvetica,sans-Serif" font-size="10.00">EngineExceptions.hpp</text>
</a>
</g>
</g>
<!-- Node29&#45;&gt;Node30 -->
<g id="edge66" class="edge">
<title>Node29&#45;&gt;Node30</title>
<path fill="none" stroke="midnightblue" d="M1094.04,-291.08C1090.79,-283.77 1086.08,-273.18 1082.05,-264.1"/>
<polygon fill="midnightblue" stroke="midnightblue" points="1085.15,-262.47 1077.89,-254.75 1078.75,-265.31 1085.15,-262.47"/>
</g>
<!-- Node29&#45;&gt;Node32 -->
<g id="edge69" class="edge">
<title>Node29&#45;&gt;Node32</title>
<path fill="none" stroke="midnightblue" d="M1120.34,-291.44C1144.72,-282.11 1183.8,-267.14 1210.4,-256.95"/>
<polygon fill="midnightblue" stroke="midnightblue" points="1211.84,-260.15 1219.93,-253.3 1209.34,-253.61 1211.84,-260.15"/>
</g>
<!-- Node29&#45;&gt;Node33 -->
<g id="edge70" class="edge">
<title>Node29&#45;&gt;Node33</title>
<path fill="none" stroke="midnightblue" d="M1130.8,-291.44C1167.43,-281.89 1226.68,-266.43 1265.74,-256.24"/>
<polygon fill="midnightblue" stroke="midnightblue" points="1266.91,-259.55 1275.7,-253.64 1265.14,-252.78 1266.91,-259.55"/>
</g>
<!-- Node30&#45;&gt;Node11 -->
<g id="edge68" class="edge">
<title>Node30&#45;&gt;Node11</title>
<path fill="none" stroke="midnightblue" d="M1055.62,-235.44C1036.78,-226.68 1007.27,-212.94 985.62,-202.86"/>
<polygon fill="midnightblue" stroke="midnightblue" points="986.84,-199.56 976.29,-198.52 983.88,-205.91 986.84,-199.56"/>
</g>
<!-- Node31 -->
<g id="node31" class="node">
<title>Node31</title>
<g id="a_node31"><a xlink:title=" ">
<polygon fill="white" stroke="#bfbfbf" points="1041.5,-179.5 1041.5,-198.5 1106.5,-198.5 1106.5,-179.5 1041.5,-179.5"/>
<text text-anchor="middle" x="1074" y="-186.5" font-family="Helvetica,sans-Serif" font-size="10.00">exception</text>
</a>
</g>
</g>
<!-- Node30&#45;&gt;Node31 -->
<g id="edge67" class="edge">
<title>Node30&#45;&gt;Node31</title>
<path fill="none" stroke="midnightblue" d="M1074,-235.08C1074,-228.01 1074,-217.86 1074,-208.99"/>
<polygon fill="midnightblue" stroke="midnightblue" points="1077.5,-208.75 1074,-198.75 1070.5,-208.75 1077.5,-208.75"/>
</g>
<!-- Node34&#45;&gt;Node3 -->
<g id="edge92" class="edge">
<title>Node34&#45;&gt;Node3</title>
<path fill="none" stroke="midnightblue" d="M1532.57,-349.45C1570.64,-341.53 1635.41,-327.21 1690,-311 1743.54,-295.1 1804.39,-272.23 1840.14,-258.28"/>
<polygon fill="midnightblue" stroke="midnightblue" points="1841.5,-261.51 1849.53,-254.6 1838.94,-254.99 1841.5,-261.51"/>
</g>
<!-- Node34&#45;&gt;Node12 -->
<g id="edge76" class="edge">
<title>Node34&#45;&gt;Node12</title>
<path fill="none" stroke="midnightblue" d="M1467.2,-351.81C1426.01,-345.86 1353.62,-333.17 1295,-311 1259.66,-297.63 1222.01,-275.02 1199.25,-260.31"/>
<polygon fill="midnightblue" stroke="midnightblue" points="1201.01,-257.28 1190.73,-254.72 1197.17,-263.13 1201.01,-257.28"/>
</g>
<!-- Node34&#45;&gt;Node33 -->
<g id="edge74" class="edge">
<title>Node34&#45;&gt;Node33</title>
<path fill="none" stroke="midnightblue" d="M1467.14,-353.09C1417.49,-347.95 1327,-335.42 1307,-311 1296.61,-298.32 1297.36,-279.11 1299.96,-264.87"/>
<polygon fill="midnightblue" stroke="midnightblue" points="1303.46,-265.25 1302.26,-254.72 1296.64,-263.7 1303.46,-265.25"/>
</g>
<!-- Node35 -->
<g id="node35" class="node">
<title>Node35</title>
<g id="a_node35"><a xlink:title=" ">
<polygon fill="white" stroke="#bfbfbf" points="1402,-235.5 1402,-254.5 1464,-254.5 1464,-235.5 1402,-235.5"/>
<text text-anchor="middle" x="1433" y="-242.5" font-family="Helvetica,sans-Serif" font-size="10.00">cinttypes</text>
</a>
</g>
</g>
<!-- Node34&#45;&gt;Node35 -->
<g id="edge72" class="edge">
<title>Node34&#45;&gt;Node35</title>
<path fill="none" stroke="midnightblue" d="M1494.33,-347.44C1488.4,-338.44 1478.88,-323.83 1471,-311 1461.3,-295.2 1450.68,-276.95 1443.14,-263.82"/>
<polygon fill="midnightblue" stroke="midnightblue" points="1446.04,-261.85 1438.04,-254.9 1439.97,-265.32 1446.04,-261.85"/>
</g>
<!-- Node36 -->
<g id="node36" class="node">
<title>Node36</title>
<g id="a_node36"><a xlink:title=" ">
<polygon fill="white" stroke="#bfbfbf" points="1711.5,-235.5 1711.5,-254.5 1804.5,-254.5 1804.5,-235.5 1711.5,-235.5"/>
<text text-anchor="middle" x="1758" y="-242.5" font-family="Helvetica,sans-Serif" font-size="10.00">unordered_map</text>
</a>
</g>
</g>
<!-- Node34&#45;&gt;Node36 -->
<g id="edge73" class="edge">
<title>Node34&#45;&gt;Node36</title>
<path fill="none" stroke="midnightblue" d="M1532.69,-349.81C1565.58,-342.88 1617.25,-330.07 1659,-311 1688.87,-297.36 1720,-275.44 1739.19,-260.88"/>
<polygon fill="midnightblue" stroke="midnightblue" points="1741.58,-263.46 1747.36,-254.58 1737.31,-257.92 1741.58,-263.46"/>
</g>
<!-- Node37 -->
<g id="node37" class="node">
<title>Node37</title>
<g id="a_node37"><a xlink:title=" ">
<polygon fill="white" stroke="#bfbfbf" points="1520,-235.5 1520,-254.5 1584,-254.5 1584,-235.5 1520,-235.5"/>
<text text-anchor="middle" x="1552" y="-242.5" font-family="Helvetica,sans-Serif" font-size="10.00">algorithm</text>
</a>
</g>
</g>
<!-- Node34&#45;&gt;Node37 -->
<g id="edge75" class="edge">
<title>Node34&#45;&gt;Node37</title>
<path fill="none" stroke="midnightblue" d="M1532.56,-354.27C1562.15,-350.77 1604.24,-340.53 1625,-311 1639.95,-289.73 1610.87,-270.64 1585.1,-258.74"/>
<polygon fill="midnightblue" stroke="midnightblue" points="1586.41,-255.49 1575.84,-254.69 1583.6,-261.9 1586.41,-255.49"/>
</g>
<!-- Node38 -->
<g id="node38" class="node">
<title>Node38</title>
<g id="a_node38"><a xlink:title=" ">
<polygon fill="white" stroke="#bfbfbf" points="1602.5,-235.5 1602.5,-254.5 1693.5,-254.5 1693.5,-235.5 1602.5,-235.5"/>
<text text-anchor="middle" x="1648" y="-242.5" font-family="Helvetica,sans-Serif" font-size="10.00">Exceptions.hpp</text>
</a>
</g>
</g>
<!-- Node34&#45;&gt;Node38 -->
<g id="edge77" class="edge">
<title>Node34&#45;&gt;Node38</title>
<path fill="none" stroke="midnightblue" d="M1532.73,-355.27C1565.51,-352.64 1614.76,-343.15 1641,-311 1651.42,-298.23 1652.27,-279.04 1651.06,-264.82"/>
<polygon fill="midnightblue" stroke="midnightblue" points="1654.51,-264.18 1649.78,-254.69 1647.56,-265.05 1654.51,-264.18"/>
</g>
<!-- Node39 -->
<g id="node39" class="node">
<title>Node39</title>
<g id="a_node39"><a xlink:href="ComponentManager_8hpp.html" target="_top" xlink:title=" ">
<polygon fill="white" stroke="black" points="1480,-291.5 1480,-310.5 1616,-310.5 1616,-291.5 1480,-291.5"/>
<text text-anchor="middle" x="1548" y="-298.5" font-family="Helvetica,sans-Serif" font-size="10.00">ComponentManager.hpp</text>
</a>
</g>
</g>
<!-- Node34&#45;&gt;Node39 -->
<g id="edge78" class="edge">
<title>Node34&#45;&gt;Node39</title>
<path fill="none" stroke="midnightblue" d="M1507.93,-347.08C1514.85,-339.3 1525.07,-327.8 1533.45,-318.37"/>
<polygon fill="midnightblue" stroke="midnightblue" points="1536.19,-320.55 1540.22,-310.75 1530.96,-315.9 1536.19,-320.55"/>
</g>
<!-- Node40 -->
<g id="node40" class="node">
<title>Node40</title>
<g id="a_node40"><a xlink:href="EntityManager_8hpp.html" target="_top" xlink:title=" ">
<polygon fill="white" stroke="black" points="1316,-291.5 1316,-310.5 1424,-310.5 1424,-291.5 1316,-291.5"/>
<text text-anchor="middle" x="1370" y="-298.5" font-family="Helvetica,sans-Serif" font-size="10.00">EntityManager.hpp</text>
</a>
</g>
</g>
<!-- Node34&#45;&gt;Node40 -->
<g id="edge87" class="edge">
<title>Node34&#45;&gt;Node40</title>
<path fill="none" stroke="midnightblue" d="M1479.4,-347.44C1458.01,-338.56 1424.32,-324.56 1399.98,-314.45"/>
<polygon fill="midnightblue" stroke="midnightblue" points="1401.08,-311.12 1390.5,-310.52 1398.39,-317.58 1401.08,-311.12"/>
</g>
<!-- Node39&#45;&gt;Node3 -->
<g id="edge85" class="edge">
<title>Node39&#45;&gt;Node3</title>
<path fill="none" stroke="midnightblue" d="M1599.18,-291.44C1657.11,-281.76 1751.32,-266.01 1812.21,-255.83"/>
<polygon fill="midnightblue" stroke="midnightblue" points="1813.15,-259.22 1822.44,-254.12 1812,-252.32 1813.15,-259.22"/>
</g>
<!-- Node39&#45;&gt;Node11 -->
<g id="edge80" class="edge">
<title>Node39&#45;&gt;Node11</title>
<path fill="none" stroke="midnightblue" d="M1541.26,-291.33C1529.31,-276.72 1502.86,-247.55 1473,-235 1382.56,-196.99 1130.61,-208.85 1033,-199 1019,-197.59 1003.56,-195.78 990.34,-194.15"/>
<polygon fill="midnightblue" stroke="midnightblue" points="990.65,-190.66 980.29,-192.9 989.78,-197.61 990.65,-190.66"/>
</g>
<!-- Node39&#45;&gt;Node12 -->
<g id="edge81" class="edge">
<title>Node39&#45;&gt;Node12</title>
<path fill="none" stroke="midnightblue" d="M1479.78,-293.59C1413.59,-286.76 1310.21,-274.48 1211.54,-254.86"/>
<polygon fill="midnightblue" stroke="midnightblue" points="1212.2,-251.42 1201.7,-252.87 1210.81,-258.28 1212.2,-251.42"/>
</g>
<!-- Node39&#45;&gt;Node32 -->
<g id="edge86" class="edge">
<title>Node39&#45;&gt;Node32</title>
<path fill="none" stroke="midnightblue" d="M1479.86,-292.04C1424.95,-284.95 1345.66,-273.2 1268.11,-254.96"/>
<polygon fill="midnightblue" stroke="midnightblue" points="1268.71,-251.51 1258.17,-252.59 1267.08,-258.32 1268.71,-251.51"/>
</g>
<!-- Node39&#45;&gt;Node33 -->
<g id="edge82" class="edge">
<title>Node39&#45;&gt;Node33</title>
<path fill="none" stroke="midnightblue" d="M1508.27,-291.48C1469.04,-283.03 1407.07,-269.55 1344.14,-255.23"/>
<polygon fill="midnightblue" stroke="midnightblue" points="1344.56,-251.74 1334.03,-252.93 1343.01,-258.56 1344.56,-251.74"/>
</g>
<!-- Node39&#45;&gt;Node36 -->
<g id="edge79" class="edge">
<title>Node39&#45;&gt;Node36</title>
<path fill="none" stroke="midnightblue" d="M1581.28,-291.44C1617.45,-282.14 1675.38,-267.25 1714.98,-257.06"/>
<polygon fill="midnightblue" stroke="midnightblue" points="1716.07,-260.4 1724.88,-254.52 1714.32,-253.62 1716.07,-260.4"/>
</g>
<!-- Node39&#45;&gt;Node37 -->
<g id="edge83" class="edge">
<title>Node39&#45;&gt;Node37</title>
<path fill="none" stroke="midnightblue" d="M1548.66,-291.08C1549.18,-284.01 1549.94,-273.86 1550.59,-264.99"/>
<polygon fill="midnightblue" stroke="midnightblue" points="1554.1,-264.98 1551.35,-254.75 1547.12,-264.47 1554.1,-264.98"/>
</g>
<!-- Node39&#45;&gt;Node38 -->
<g id="edge84" class="edge">
<title>Node39&#45;&gt;Node38</title>
<path fill="none" stroke="midnightblue" d="M1564.07,-291.32C1579.96,-282.74 1604.51,-269.49 1622.96,-259.52"/>
<polygon fill="midnightblue" stroke="midnightblue" points="1624.84,-262.49 1631.97,-254.65 1621.51,-256.33 1624.84,-262.49"/>
</g>
<!-- Node40&#45;&gt;Node12 -->
<g id="edge88" class="edge">
<title>Node40&#45;&gt;Node12</title>
<path fill="none" stroke="midnightblue" d="M1339.58,-291.44C1304.74,-281.65 1247.83,-265.64 1211.68,-255.47"/>
<polygon fill="midnightblue" stroke="midnightblue" points="1212.2,-251.98 1201.62,-252.64 1210.3,-258.72 1212.2,-251.98"/>
</g>
<!-- Node40&#45;&gt;Node33 -->
<g id="edge90" class="edge">
<title>Node40&#45;&gt;Node33</title>
<path fill="none" stroke="midnightblue" d="M1359.56,-291.32C1349.85,-283.26 1335.18,-271.08 1323.5,-261.37"/>
<polygon fill="midnightblue" stroke="midnightblue" points="1325.56,-258.53 1315.63,-254.83 1321.09,-263.92 1325.56,-258.53"/>
</g>
<!-- Node40&#45;&gt;Node35 -->
<g id="edge89" class="edge">
<title>Node40&#45;&gt;Node35</title>
<path fill="none" stroke="midnightblue" d="M1380.12,-291.32C1389.53,-283.26 1403.74,-271.08 1415.07,-261.37"/>
<polygon fill="midnightblue" stroke="midnightblue" points="1417.38,-264 1422.69,-254.83 1412.82,-258.68 1417.38,-264"/>
</g>
<!-- Node41 -->
<g id="node41" class="node">
<title>Node41</title>
<g id="a_node41"><a xlink:title=" ">
<polygon fill="white" stroke="#bfbfbf" points="1352,-235.5 1352,-254.5 1384,-254.5 1384,-235.5 1352,-235.5"/>
<text text-anchor="middle" x="1368" y="-242.5" font-family="Helvetica,sans-Serif" font-size="10.00">list</text>
</a>
</g>
</g>
<!-- Node40&#45;&gt;Node41 -->
<g id="edge91" class="edge">
<title>Node40&#45;&gt;Node41</title>
<path fill="none" stroke="midnightblue" d="M1369.67,-291.08C1369.41,-284.01 1369.03,-273.86 1368.7,-264.99"/>
<polygon fill="midnightblue" stroke="midnightblue" points="1372.19,-264.61 1368.32,-254.75 1365.2,-264.87 1372.19,-264.61"/>
</g>
</g>
</svg>
