<?xml version="1.0" encoding="UTF-8" standalone="no"?>
<!DOCTYPE svg PUBLIC "-//W3C//DTD SVG 1.1//EN"
 "http://www.w3.org/Graphics/SVG/1.1/DTD/svg11.dtd">
<!-- Generated by graphviz version 2.43.0 (0)
 -->
<!-- Title: Libs/Engine/sources/Components/APickUp/APickUp.hpp Pages: 1 -->
<svg width="1396pt" height="362pt"
 viewBox="0.00 0.00 1396.00 362.00" xmlns="http://www.w3.org/2000/svg" xmlns:xlink="http://www.w3.org/1999/xlink">
<g id="graph0" class="graph" transform="scale(1 1) rotate(0) translate(4 358)">
<title>Libs/Engine/sources/Components/APickUp/APickUp.hpp</title>
<polygon fill="white" stroke="transparent" points="-4,4 -4,-358 1392,-358 1392,4 -4,4"/>
<!-- Node1 -->
<g id="node1" class="node">
<title>Node1</title>
<g id="a_node1"><a xlink:title=" ">
<polygon fill="#bfbfbf" stroke="black" points="205,-312.5 205,-353.5 330,-353.5 330,-312.5 205,-312.5"/>
<text text-anchor="start" x="213" y="-341.5" font-family="Helvetica,sans-Serif" font-size="10.00">Libs/Engine/sources</text>
<text text-anchor="start" x="213" y="-330.5" font-family="Helvetica,sans-Serif" font-size="10.00">/Components/APickUp</text>
<text text-anchor="middle" x="267.5" y="-319.5" font-family="Helvetica,sans-Serif" font-size="10.00">/APickUp.hpp</text>
</a>
</g>
</g>
<!-- Node2 -->
<g id="node2" class="node">
<title>Node2</title>
<g id="a_node2"><a xlink:href="APickUp_8cpp.html" target="_top" xlink:title=" ">
<polygon fill="white" stroke="black" points="95,-234.5 95,-275.5 220,-275.5 220,-234.5 95,-234.5"/>
<text text-anchor="start" x="103" y="-263.5" font-family="Helvetica,sans-Serif" font-size="10.00">Libs/Engine/sources</text>
<text text-anchor="start" x="103" y="-252.5" font-family="Helvetica,sans-Serif" font-size="10.00">/Components/APickUp</text>
<text text-anchor="middle" x="157.5" y="-241.5" font-family="Helvetica,sans-Serif" font-size="10.00">/APickUp.cpp</text>
</a>
</g>
</g>
<!-- Node1&#45;&gt;Node2 -->
<g id="edge1" class="edge">
<title>Node1&#45;&gt;Node2</title>
<path fill="none" stroke="midnightblue" d="M230.79,-306.64C216.1,-296.49 199.45,-284.98 185.73,-275.51"/>
<polygon fill="midnightblue" stroke="midnightblue" points="228.96,-309.62 239.17,-312.43 232.93,-303.86 228.96,-309.62"/>
</g>
<!-- Node3 -->
<g id="node3" class="node">
<title>Node3</title>
<g id="a_node3"><a xlink:href="CoolDownBoost_8hpp.html" target="_top" xlink:title=" ">
<polygon fill="white" stroke="black" points="206,-156.5 206,-197.5 367,-197.5 367,-156.5 206,-156.5"/>
<text text-anchor="start" x="214" y="-185.5" font-family="Helvetica,sans-Serif" font-size="10.00">Libs/Engine/sources</text>
<text text-anchor="start" x="214" y="-174.5" font-family="Helvetica,sans-Serif" font-size="10.00">/Components/CoolDownBoost</text>
<text text-anchor="middle" x="286.5" y="-163.5" font-family="Helvetica,sans-Serif" font-size="10.00">/CoolDownBoost.hpp</text>
</a>
</g>
</g>
<!-- Node1&#45;&gt;Node3 -->
<g id="edge2" class="edge">
<title>Node1&#45;&gt;Node3</title>
<path fill="none" stroke="midnightblue" d="M271.16,-302.36C274.95,-271.61 280.78,-224.36 284.05,-197.83"/>
<polygon fill="midnightblue" stroke="midnightblue" points="267.66,-302.14 269.91,-312.5 274.6,-303 267.66,-302.14"/>
</g>
<!-- Node6 -->
<g id="node6" class="node">
<title>Node6</title>
<g id="a_node6"><a xlink:href="RangeBoost_8hpp.html" target="_top" xlink:title=" ">
<polygon fill="white" stroke="black" points="642,-234.5 642,-275.5 785,-275.5 785,-234.5 642,-234.5"/>
<text text-anchor="start" x="650" y="-263.5" font-family="Helvetica,sans-Serif" font-size="10.00">Libs/Engine/sources</text>
<text text-anchor="start" x="650" y="-252.5" font-family="Helvetica,sans-Serif" font-size="10.00">/Components/RangeBoost</text>
<text text-anchor="middle" x="713.5" y="-241.5" font-family="Helvetica,sans-Serif" font-size="10.00">/RangeBoost.hpp</text>
</a>
</g>
</g>
<!-- Node1&#45;&gt;Node6 -->
<g id="edge5" class="edge">
<title>Node1&#45;&gt;Node6</title>
<path fill="none" stroke="midnightblue" d="M340.34,-319.59C423.54,-305.41 558.84,-282.35 641.64,-268.25"/>
<polygon fill="midnightblue" stroke="midnightblue" points="339.72,-316.14 330.45,-321.27 340.9,-323.04 339.72,-316.14"/>
</g>
<!-- Node21 -->
<g id="node21" class="node">
<title>Node21</title>
<g id="a_node21"><a xlink:href="SpeedBoost_8hpp.html" target="_top" xlink:title=" ">
<polygon fill="white" stroke="black" points="26.5,-156.5 26.5,-197.5 168.5,-197.5 168.5,-156.5 26.5,-156.5"/>
<text text-anchor="start" x="34.5" y="-185.5" font-family="Helvetica,sans-Serif" font-size="10.00">Libs/Engine/sources</text>
<text text-anchor="start" x="34.5" y="-174.5" font-family="Helvetica,sans-Serif" font-size="10.00">/Components/SpeedBoost</text>
<text text-anchor="middle" x="97.5" y="-163.5" font-family="Helvetica,sans-Serif" font-size="10.00">/SpeedBoost.hpp</text>
</a>
</g>
</g>
<!-- Node1&#45;&gt;Node21 -->
<g id="edge26" class="edge">
<title>Node1&#45;&gt;Node21</title>
<path fill="none" stroke="midnightblue" d="M262.06,-302.38C256.76,-280.99 246.74,-252.7 228.5,-234 212.18,-217.27 190.06,-205.25 168.64,-196.76"/>
<polygon fill="midnightblue" stroke="midnightblue" points="258.67,-303.27 264.3,-312.25 265.5,-301.72 258.67,-303.27"/>
</g>
<!-- Node4 -->
<g id="node4" class="node">
<title>Node4</title>
<g id="a_node4"><a xlink:href="CoolDownBoost_8cpp.html" target="_top" xlink:title=" ">
<polygon fill="white" stroke="black" points="225,-78.5 225,-119.5 386,-119.5 386,-78.5 225,-78.5"/>
<text text-anchor="start" x="233" y="-107.5" font-family="Helvetica,sans-Serif" font-size="10.00">Libs/Engine/sources</text>
<text text-anchor="start" x="233" y="-96.5" font-family="Helvetica,sans-Serif" font-size="10.00">/Components/CoolDownBoost</text>
<text text-anchor="middle" x="305.5" y="-85.5" font-family="Helvetica,sans-Serif" font-size="10.00">/CoolDownBoost.cpp</text>
</a>
</g>
</g>
<!-- Node3&#45;&gt;Node4 -->
<g id="edge3" class="edge">
<title>Node3&#45;&gt;Node4</title>
<path fill="none" stroke="midnightblue" d="M293.85,-146.59C296.12,-137.51 298.56,-127.74 300.62,-119.51"/>
<polygon fill="midnightblue" stroke="midnightblue" points="290.42,-145.88 291.39,-156.43 297.21,-147.58 290.42,-145.88"/>
</g>
<!-- Node5 -->
<g id="node5" class="node">
<title>Node5</title>
<g id="a_node5"><a xlink:href="EntityFactory_8cpp.html" target="_top" xlink:title=" ">
<polygon fill="white" stroke="black" points="0,-6 0,-36 169,-36 169,-6 0,-6"/>
<text text-anchor="start" x="8" y="-24" font-family="Helvetica,sans-Serif" font-size="10.00">Libs/Engine/sources</text>
<text text-anchor="middle" x="84.5" y="-13" font-family="Helvetica,sans-Serif" font-size="10.00">/EntityFactory/EntityFactory.cpp</text>
</a>
</g>
</g>
<!-- Node3&#45;&gt;Node5 -->
<g id="edge4" class="edge">
<title>Node3&#45;&gt;Node5</title>
<path fill="none" stroke="midnightblue" d="M251.07,-149.94C239.4,-140.86 226.58,-130.35 215.5,-120 197.11,-102.81 196.94,-94 177.5,-78 157.42,-61.47 131.96,-46.49 112.76,-36.19"/>
<polygon fill="midnightblue" stroke="midnightblue" points="249.26,-152.96 259.33,-156.27 253.52,-147.41 249.26,-152.96"/>
</g>
<!-- Node7 -->
<g id="node7" class="node">
<title>Node7</title>
<g id="a_node7"><a xlink:href="RangeBoost_8cpp.html" target="_top" xlink:title=" ">
<polygon fill="white" stroke="black" points="1245,-78.5 1245,-119.5 1388,-119.5 1388,-78.5 1245,-78.5"/>
<text text-anchor="start" x="1253" y="-107.5" font-family="Helvetica,sans-Serif" font-size="10.00">Libs/Engine/sources</text>
<text text-anchor="start" x="1253" y="-96.5" font-family="Helvetica,sans-Serif" font-size="10.00">/Components/RangeBoost</text>
<text text-anchor="middle" x="1316.5" y="-85.5" font-family="Helvetica,sans-Serif" font-size="10.00">/RangeBoost.cpp</text>
</a>
</g>
</g>
<!-- Node6&#45;&gt;Node7 -->
<g id="edge6" class="edge">
<title>Node6&#45;&gt;Node7</title>
<path fill="none" stroke="midnightblue" d="M794.79,-233.24C913.3,-202.97 1131.62,-147.22 1244.58,-118.37"/>
<polygon fill="midnightblue" stroke="midnightblue" points="793.86,-229.86 785.04,-235.73 795.6,-236.65 793.86,-229.86"/>
</g>
<!-- Node8 -->
<g id="node8" class="node">
<title>Node8</title>
<g id="a_node8"><a xlink:href="EntityFactory_8hpp.html" target="_top" xlink:title=" ">
<polygon fill="white" stroke="black" points="628.5,-162 628.5,-192 798.5,-192 798.5,-162 628.5,-162"/>
<text text-anchor="start" x="636.5" y="-180" font-family="Helvetica,sans-Serif" font-size="10.00">Libs/Engine/sources</text>
<text text-anchor="middle" x="713.5" y="-169" font-family="Helvetica,sans-Serif" font-size="10.00">/EntityFactory/EntityFactory.hpp</text>
</a>
</g>
</g>
<!-- Node6&#45;&gt;Node8 -->
<g id="edge7" class="edge">
<title>Node6&#45;&gt;Node8</title>
<path fill="none" stroke="midnightblue" d="M713.5,-224.28C713.5,-213.25 713.5,-201.25 713.5,-192.23"/>
<polygon fill="midnightblue" stroke="midnightblue" points="710,-224.43 713.5,-234.43 717,-224.43 710,-224.43"/>
</g>
<!-- Node8&#45;&gt;Node4 -->
<g id="edge9" class="edge">
<title>Node8&#45;&gt;Node4</title>
<path fill="none" stroke="midnightblue" d="M618.31,-160.37C555.02,-149.7 470.13,-134.86 395.5,-120 392.52,-119.41 389.48,-118.79 386.42,-118.16"/>
<polygon fill="midnightblue" stroke="midnightblue" points="617.83,-163.84 628.28,-162.05 619,-156.94 617.83,-163.84"/>
</g>
<!-- Node8&#45;&gt;Node5 -->
<g id="edge13" class="edge">
<title>Node8&#45;&gt;Node5</title>
<path fill="none" stroke="midnightblue" d="M669.9,-157.76C649.34,-148.1 625.08,-135.1 605.5,-120 585.57,-104.63 590.01,-89.26 567.5,-78 489.66,-39.07 263.53,-55.17 177.5,-42 166.89,-40.38 155.67,-38.29 144.84,-36.07"/>
<polygon fill="midnightblue" stroke="midnightblue" points="668.51,-160.98 679.06,-161.96 671.43,-154.61 668.51,-160.98"/>
</g>
<!-- Node8&#45;&gt;Node7 -->
<g id="edge11" class="edge">
<title>Node8&#45;&gt;Node7</title>
<path fill="none" stroke="midnightblue" d="M808.99,-169.76C914.27,-161.96 1088.36,-146.32 1236.5,-120 1239.18,-119.52 1241.9,-119.01 1244.64,-118.46"/>
<polygon fill="midnightblue" stroke="midnightblue" points="808.42,-166.29 798.71,-170.51 808.93,-173.27 808.42,-166.29"/>
</g>
<!-- Node9 -->
<g id="node9" class="node">
<title>Node9</title>
<g id="a_node9"><a xlink:href="Box_8cpp.html" target="_top" xlink:title=" ">
<polygon fill="white" stroke="black" points="933,-84 933,-114 1078,-114 1078,-84 933,-84"/>
<text text-anchor="start" x="941" y="-102" font-family="Helvetica,sans-Serif" font-size="10.00">Libs/Engine/sources</text>
<text text-anchor="middle" x="1005.5" y="-91" font-family="Helvetica,sans-Serif" font-size="10.00">/Components/Box/Box.cpp</text>
</a>
</g>
</g>
<!-- Node8&#45;&gt;Node9 -->
<g id="edge8" class="edge">
<title>Node8&#45;&gt;Node9</title>
<path fill="none" stroke="midnightblue" d="M777.2,-159.42C829.29,-145.86 902.14,-126.9 951.42,-114.07"/>
<polygon fill="midnightblue" stroke="midnightblue" points="776.19,-156.07 767.4,-161.97 777.96,-162.84 776.19,-156.07"/>
</g>
<!-- Node10 -->
<g id="node10" class="node">
<title>Node10</title>
<g id="a_node10"><a xlink:href="Explosion_8cpp.html" target="_top" xlink:title=" ">
<polygon fill="white" stroke="black" points="1096,-78.5 1096,-119.5 1227,-119.5 1227,-78.5 1096,-78.5"/>
<text text-anchor="start" x="1104" y="-107.5" font-family="Helvetica,sans-Serif" font-size="10.00">Libs/Engine/sources</text>
<text text-anchor="start" x="1104" y="-96.5" font-family="Helvetica,sans-Serif" font-size="10.00">/Components/Explosion</text>
<text text-anchor="middle" x="1161.5" y="-85.5" font-family="Helvetica,sans-Serif" font-size="10.00">/Explosion.cpp</text>
</a>
</g>
</g>
<!-- Node8&#45;&gt;Node10 -->
<g id="edge10" class="edge">
<title>Node8&#45;&gt;Node10</title>
<path fill="none" stroke="midnightblue" d="M808.68,-164.83C884.59,-155.18 993.4,-139.69 1087.5,-120 1090.24,-119.43 1093.02,-118.81 1095.83,-118.17"/>
<polygon fill="midnightblue" stroke="midnightblue" points="808.15,-161.37 798.66,-166.09 809.02,-168.31 808.15,-161.37"/>
</g>
<!-- Node11 -->
<g id="node11" class="node">
<title>Node11</title>
<g id="a_node11"><a xlink:href="SpeedBoost_8cpp.html" target="_top" xlink:title=" ">
<polygon fill="white" stroke="black" points="26.5,-78.5 26.5,-119.5 168.5,-119.5 168.5,-78.5 26.5,-78.5"/>
<text text-anchor="start" x="34.5" y="-107.5" font-family="Helvetica,sans-Serif" font-size="10.00">Libs/Engine/sources</text>
<text text-anchor="start" x="34.5" y="-96.5" font-family="Helvetica,sans-Serif" font-size="10.00">/Components/SpeedBoost</text>
<text text-anchor="middle" x="97.5" y="-85.5" font-family="Helvetica,sans-Serif" font-size="10.00">/SpeedBoost.cpp</text>
</a>
</g>
</g>
<!-- Node8&#45;&gt;Node11 -->
<g id="edge12" class="edge">
<title>Node8&#45;&gt;Node11</title>
<path fill="none" stroke="midnightblue" d="M618.16,-166.88C517.78,-156.9 355.22,-139.68 215.5,-120 200.27,-117.86 183.99,-115.28 168.53,-112.7"/>
<polygon fill="midnightblue" stroke="midnightblue" points="617.99,-170.38 628.28,-167.88 618.68,-163.41 617.99,-170.38"/>
</g>
<!-- Node12 -->
<g id="node12" class="node">
<title>Node12</title>
<g id="a_node12"><a xlink:href="Scenes_8cpp.html" target="_top" xlink:title=" ">
<polygon fill="white" stroke="black" points="736,-6 736,-36 849,-36 849,-6 736,-6"/>
<text text-anchor="start" x="744" y="-24" font-family="Helvetica,sans-Serif" font-size="10.00">Libs/Engine/sources</text>
<text text-anchor="middle" x="792.5" y="-13" font-family="Helvetica,sans-Serif" font-size="10.00">/Scenes/Scenes.cpp</text>
</a>
</g>
</g>
<!-- Node8&#45;&gt;Node12 -->
<g id="edge14" class="edge">
<title>Node8&#45;&gt;Node12</title>
<path fill="none" stroke="midnightblue" d="M725.5,-152.61C742.11,-120.23 771.6,-62.74 785.23,-36.18"/>
<polygon fill="midnightblue" stroke="midnightblue" points="722.24,-151.29 720.79,-161.79 728.47,-154.49 722.24,-151.29"/>
</g>
<!-- Node13 -->
<g id="node13" class="node">
<title>Node13</title>
<g id="a_node13"><a xlink:href="Scenes_8hpp.html" target="_top" xlink:title=" ">
<polygon fill="white" stroke="black" points="615,-84 615,-114 728,-114 728,-84 615,-84"/>
<text text-anchor="start" x="623" y="-102" font-family="Helvetica,sans-Serif" font-size="10.00">Libs/Engine/sources</text>
<text text-anchor="middle" x="671.5" y="-91" font-family="Helvetica,sans-Serif" font-size="10.00">/Scenes/Scenes.hpp</text>
</a>
</g>
</g>
<!-- Node8&#45;&gt;Node13 -->
<g id="edge15" class="edge">
<title>Node8&#45;&gt;Node13</title>
<path fill="none" stroke="midnightblue" d="M700.63,-152.7C693.68,-140.14 685.34,-125.04 679.36,-114.23"/>
<polygon fill="midnightblue" stroke="midnightblue" points="697.7,-154.65 705.6,-161.7 703.83,-151.26 697.7,-154.65"/>
</g>
<!-- Node18 -->
<g id="node18" class="node">
<title>Node18</title>
<g id="a_node18"><a xlink:href="PauseSystem_8hpp.html" target="_top" xlink:title=" ">
<polygon fill="white" stroke="black" points="784.5,-78.5 784.5,-119.5 914.5,-119.5 914.5,-78.5 784.5,-78.5"/>
<text text-anchor="start" x="792.5" y="-107.5" font-family="Helvetica,sans-Serif" font-size="10.00">Libs/Engine/sources</text>
<text text-anchor="start" x="792.5" y="-96.5" font-family="Helvetica,sans-Serif" font-size="10.00">/Systems/PauseSystem</text>
<text text-anchor="middle" x="849.5" y="-85.5" font-family="Helvetica,sans-Serif" font-size="10.00">/PauseSystem.hpp</text>
</a>
</g>
</g>
<!-- Node8&#45;&gt;Node18 -->
<g id="edge22" class="edge">
<title>Node8&#45;&gt;Node18</title>
<path fill="none" stroke="midnightblue" d="M747.7,-156.89C768.06,-145.51 793.85,-131.1 814.38,-119.63"/>
<polygon fill="midnightblue" stroke="midnightblue" points="745.78,-153.95 738.76,-161.88 749.2,-160.06 745.78,-153.95"/>
</g>
<!-- Node20 -->
<g id="node20" class="node">
<title>Node20</title>
<g id="a_node20"><a xlink:href="Prototype_2sources_2Drawable_2main_8cpp.html" target="_top" xlink:title=" ">
<polygon fill="white" stroke="black" points="404.5,-84 404.5,-114 558.5,-114 558.5,-84 404.5,-84"/>
<text text-anchor="start" x="412.5" y="-102" font-family="Helvetica,sans-Serif" font-size="10.00">Prototype/sources/Drawable</text>
<text text-anchor="middle" x="481.5" y="-91" font-family="Helvetica,sans-Serif" font-size="10.00">/main.cpp</text>
</a>
</g>
</g>
<!-- Node8&#45;&gt;Node20 -->
<g id="edge25" class="edge">
<title>Node8&#45;&gt;Node20</title>
<path fill="none" stroke="midnightblue" d="M661.07,-158.83C619.82,-145.31 563.06,-126.72 524.47,-114.07"/>
<polygon fill="midnightblue" stroke="midnightblue" points="660.08,-162.18 670.68,-161.97 662.26,-155.53 660.08,-162.18"/>
</g>
<!-- Node13&#45;&gt;Node5 -->
<g id="edge19" class="edge">
<title>Node13&#45;&gt;Node5</title>
<path fill="none" stroke="midnightblue" d="M616.65,-81.44C611.23,-80.14 605.78,-78.96 600.5,-78 414.86,-44.27 364.11,-69.89 177.5,-42 166.72,-40.39 155.32,-38.28 144.33,-36.03"/>
<polygon fill="midnightblue" stroke="midnightblue" points="615.79,-84.84 626.35,-83.9 617.52,-78.05 615.79,-84.84"/>
</g>
<!-- Node13&#45;&gt;Node12 -->
<g id="edge20" class="edge">
<title>Node13&#45;&gt;Node12</title>
<path fill="none" stroke="midnightblue" d="M702.6,-78.47C723.72,-65.2 751.16,-47.96 770.14,-36.04"/>
<polygon fill="midnightblue" stroke="midnightblue" points="700.58,-75.6 693.98,-83.88 704.31,-81.53 700.58,-75.6"/>
</g>
<!-- Node14 -->
<g id="node14" class="node">
<title>Node14</title>
<g id="a_node14"><a xlink:href="Bomberman_2sources_2main_8cpp.html" target="_top" xlink:title=" ">
<polygon fill="white" stroke="black" points="867,-11.5 867,-30.5 1032,-30.5 1032,-11.5 867,-11.5"/>
<text text-anchor="middle" x="949.5" y="-18.5" font-family="Helvetica,sans-Serif" font-size="10.00">Bomberman/sources/main.cpp</text>
</a>
</g>
</g>
<!-- Node13&#45;&gt;Node14 -->
<g id="edge16" class="edge">
<title>Node13&#45;&gt;Node14</title>
<path fill="none" stroke="midnightblue" d="M732.5,-81.32C789.88,-65.64 873.49,-42.78 918.33,-30.52"/>
<polygon fill="midnightblue" stroke="midnightblue" points="731.54,-77.96 722.81,-83.97 733.38,-84.71 731.54,-77.96"/>
</g>
<!-- Node15 -->
<g id="node15" class="node">
<title>Node15</title>
<g id="a_node15"><a xlink:href="ButtonCallbacks_8cpp.html" target="_top" xlink:title=" ">
<polygon fill="white" stroke="black" points="553.5,-0.5 553.5,-41.5 717.5,-41.5 717.5,-0.5 553.5,-0.5"/>
<text text-anchor="start" x="561.5" y="-29.5" font-family="Helvetica,sans-Serif" font-size="10.00">Libs/Engine/sources</text>
<text text-anchor="start" x="561.5" y="-18.5" font-family="Helvetica,sans-Serif" font-size="10.00">/Components/ButtonCallbacks</text>
<text text-anchor="middle" x="635.5" y="-7.5" font-family="Helvetica,sans-Serif" font-size="10.00">/ButtonCallbacks.cpp</text>
</a>
</g>
</g>
<!-- Node13&#45;&gt;Node15 -->
<g id="edge17" class="edge">
<title>Node13&#45;&gt;Node15</title>
<path fill="none" stroke="midnightblue" d="M660.43,-74.63C655.43,-64.08 649.59,-51.75 644.82,-41.68"/>
<polygon fill="midnightblue" stroke="midnightblue" points="657.28,-76.17 664.73,-83.7 663.61,-73.17 657.28,-76.17"/>
</g>
<!-- Node16 -->
<g id="node16" class="node">
<title>Node16</title>
<g id="a_node16"><a xlink:href="GameConfigurator_8cpp.html" target="_top" xlink:title=" ">
<polygon fill="white" stroke="black" points="187,-0.5 187,-41.5 360,-41.5 360,-0.5 187,-0.5"/>
<text text-anchor="start" x="195" y="-29.5" font-family="Helvetica,sans-Serif" font-size="10.00">Libs/Engine/sources</text>
<text text-anchor="start" x="195" y="-18.5" font-family="Helvetica,sans-Serif" font-size="10.00">/Components/GameConfigurator</text>
<text text-anchor="middle" x="273.5" y="-7.5" font-family="Helvetica,sans-Serif" font-size="10.00">/GameConfigurator.cpp</text>
</a>
</g>
</g>
<!-- Node13&#45;&gt;Node16 -->
<g id="edge18" class="edge">
<title>Node13&#45;&gt;Node16</title>
<path fill="none" stroke="midnightblue" d="M614.84,-81.38C610.01,-80.17 605.18,-79.02 600.5,-78 498.54,-55.81 471.15,-60.75 368.5,-42 365.76,-41.5 362.99,-40.98 360.18,-40.45"/>
<polygon fill="midnightblue" stroke="midnightblue" points="614.17,-84.82 624.73,-83.96 615.93,-78.05 614.17,-84.82"/>
</g>
<!-- Node17 -->
<g id="node17" class="node">
<title>Node17</title>
<g id="a_node17"><a xlink:href="Prototype_2sources_2Behaviour_2main_8cpp.html" target="_top" xlink:title=" ">
<polygon fill="white" stroke="black" points="378,-6 378,-36 535,-36 535,-6 378,-6"/>
<text text-anchor="start" x="386" y="-24" font-family="Helvetica,sans-Serif" font-size="10.00">Prototype/sources/Behaviour</text>
<text text-anchor="middle" x="456.5" y="-13" font-family="Helvetica,sans-Serif" font-size="10.00">/main.cpp</text>
</a>
</g>
</g>
<!-- Node13&#45;&gt;Node17 -->
<g id="edge21" class="edge">
<title>Node13&#45;&gt;Node17</title>
<path fill="none" stroke="midnightblue" d="M621.94,-80.48C583.8,-67 531.78,-48.61 496.32,-36.07"/>
<polygon fill="midnightblue" stroke="midnightblue" points="621.22,-83.94 631.82,-83.97 623.55,-77.34 621.22,-83.94"/>
</g>
<!-- Node18&#45;&gt;Node14 -->
<g id="edge23" class="edge">
<title>Node18&#45;&gt;Node14</title>
<path fill="none" stroke="midnightblue" d="M883.44,-72.2C902.5,-57.72 925.03,-40.6 938.25,-30.55"/>
<polygon fill="midnightblue" stroke="midnightblue" points="881.1,-69.59 875.25,-78.43 885.33,-75.16 881.1,-69.59"/>
</g>
<!-- Node19 -->
<g id="node19" class="node">
<title>Node19</title>
<g id="a_node19"><a xlink:href="PauseSystem_8cpp.html" target="_top" xlink:title=" ">
<polygon fill="white" stroke="black" points="1050.5,-0.5 1050.5,-41.5 1180.5,-41.5 1180.5,-0.5 1050.5,-0.5"/>
<text text-anchor="start" x="1058.5" y="-29.5" font-family="Helvetica,sans-Serif" font-size="10.00">Libs/Engine/sources</text>
<text text-anchor="start" x="1058.5" y="-18.5" font-family="Helvetica,sans-Serif" font-size="10.00">/Systems/PauseSystem</text>
<text text-anchor="middle" x="1115.5" y="-7.5" font-family="Helvetica,sans-Serif" font-size="10.00">/PauseSystem.cpp</text>
</a>
</g>
</g>
<!-- Node18&#45;&gt;Node19 -->
<g id="edge24" class="edge">
<title>Node18&#45;&gt;Node19</title>
<path fill="none" stroke="midnightblue" d="M924.19,-76.66C963.81,-65.34 1012.05,-51.56 1050.18,-40.66"/>
<polygon fill="midnightblue" stroke="midnightblue" points="923.22,-73.3 914.57,-79.41 925.15,-80.03 923.22,-73.3"/>
</g>
<!-- Node21&#45;&gt;Node5 -->
<g id="edge28" class="edge">
<title>Node21&#45;&gt;Node5</title>
<path fill="none" stroke="midnightblue" d="M46.13,-150.91C34.66,-142.73 23.99,-132.46 17.5,-120 8.88,-103.44 9.59,-94.91 17.5,-78 25.91,-60.01 43.26,-45.77 58.19,-36.15"/>
<polygon fill="midnightblue" stroke="midnightblue" points="44.3,-153.89 54.57,-156.5 48.17,-148.06 44.3,-153.89"/>
</g>
<!-- Node21&#45;&gt;Node11 -->
<g id="edge27" class="edge">
<title>Node21&#45;&gt;Node11</title>
<path fill="none" stroke="midnightblue" d="M97.5,-146.3C97.5,-137.3 97.5,-127.65 97.5,-119.51"/>
<polygon fill="midnightblue" stroke="midnightblue" points="94,-146.43 97.5,-156.43 101,-146.43 94,-146.43"/>
</g>
</g>
</svg>
