<?xml version="1.0" encoding="UTF-8" standalone="no"?>
<!DOCTYPE svg PUBLIC "-//W3C//DTD SVG 1.1//EN"
 "http://www.w3.org/Graphics/SVG/1.1/DTD/svg11.dtd">
<!-- Generated by graphviz version 2.43.0 (0)
 -->
<!-- Title: Libs/ECS/sources/Systems/ASystem.cpp Pages: 1 -->
<svg width="799pt" height="386pt"
 viewBox="0.00 0.00 799.00 386.00" xmlns="http://www.w3.org/2000/svg" xmlns:xlink="http://www.w3.org/1999/xlink">
<g id="graph0" class="graph" transform="scale(1 1) rotate(0) translate(4 382)">
<title>Libs/ECS/sources/Systems/ASystem.cpp</title>
<polygon fill="white" stroke="transparent" points="-4,4 -4,-382 795,-382 795,4 -4,4"/>
<!-- Node1 -->
<g id="node1" class="node">
<title>Node1</title>
<g id="a_node1"><a xlink:title=" ">
<polygon fill="#bfbfbf" stroke="black" points="400.5,-347.5 400.5,-377.5 543.5,-377.5 543.5,-347.5 400.5,-347.5"/>
<text text-anchor="start" x="408.5" y="-365.5" font-family="Helvetica,sans-Serif" font-size="10.00">Libs/ECS/sources/Systems</text>
<text text-anchor="middle" x="472" y="-354.5" font-family="Helvetica,sans-Serif" font-size="10.00">/ASystem.cpp</text>
</a>
</g>
</g>
<!-- Node2 -->
<g id="node2" class="node">
<title>Node2</title>
<g id="a_node2"><a xlink:href="ASystem_8hpp.html" target="_top" xlink:title=" ">
<polygon fill="white" stroke="black" points="431.5,-291.5 431.5,-310.5 512.5,-310.5 512.5,-291.5 431.5,-291.5"/>
<text text-anchor="middle" x="472" y="-298.5" font-family="Helvetica,sans-Serif" font-size="10.00">ASystem.hpp</text>
</a>
</g>
</g>
<!-- Node1&#45;&gt;Node2 -->
<g id="edge1" class="edge">
<title>Node1&#45;&gt;Node2</title>
<path fill="none" stroke="midnightblue" d="M472,-347.4C472,-339.47 472,-329.46 472,-320.86"/>
<polygon fill="midnightblue" stroke="midnightblue" points="475.5,-320.66 472,-310.66 468.5,-320.66 475.5,-320.66"/>
</g>
<!-- Node3 -->
<g id="node3" class="node">
<title>Node3</title>
<g id="a_node3"><a xlink:title=" ">
<polygon fill="white" stroke="#bfbfbf" points="0,-123.5 0,-142.5 44,-142.5 44,-123.5 0,-123.5"/>
<text text-anchor="middle" x="22" y="-130.5" font-family="Helvetica,sans-Serif" font-size="10.00">string</text>
</a>
</g>
</g>
<!-- Node2&#45;&gt;Node3 -->
<g id="edge2" class="edge">
<title>Node2&#45;&gt;Node3</title>
<path fill="none" stroke="midnightblue" d="M444.84,-291.44C392.44,-274.77 273.93,-236.32 176,-199 131.71,-182.12 81.25,-160.32 50.52,-146.75"/>
<polygon fill="midnightblue" stroke="midnightblue" points="51.83,-143.5 41.27,-142.65 48.99,-149.9 51.83,-143.5"/>
</g>
<!-- Node4 -->
<g id="node4" class="node">
<title>Node4</title>
<g id="a_node4"><a xlink:title=" ">
<polygon fill="white" stroke="#bfbfbf" points="613.5,-123.5 613.5,-142.5 660.5,-142.5 660.5,-123.5 613.5,-123.5"/>
<text text-anchor="middle" x="637" y="-130.5" font-family="Helvetica,sans-Serif" font-size="10.00">vector</text>
</a>
</g>
</g>
<!-- Node2&#45;&gt;Node4 -->
<g id="edge3" class="edge">
<title>Node2&#45;&gt;Node4</title>
<path fill="none" stroke="midnightblue" d="M512.84,-294.64C564.98,-285.36 653.21,-260.93 693,-199 705.34,-179.79 682.82,-160.27 662.76,-147.71"/>
<polygon fill="midnightblue" stroke="midnightblue" points="664.53,-144.69 654.14,-142.61 660.97,-150.72 664.53,-144.69"/>
</g>
<!-- Node5 -->
<g id="node5" class="node">
<title>Node5</title>
<g id="a_node5"><a xlink:href="Entity_8hpp.html" target="_top" xlink:title=" ">
<polygon fill="white" stroke="black" points="439.5,-235.5 439.5,-254.5 504.5,-254.5 504.5,-235.5 439.5,-235.5"/>
<text text-anchor="middle" x="472" y="-242.5" font-family="Helvetica,sans-Serif" font-size="10.00">Entity.hpp</text>
</a>
</g>
</g>
<!-- Node2&#45;&gt;Node5 -->
<g id="edge4" class="edge">
<title>Node2&#45;&gt;Node5</title>
<path fill="none" stroke="midnightblue" d="M472,-291.08C472,-284.01 472,-273.86 472,-264.99"/>
<polygon fill="midnightblue" stroke="midnightblue" points="475.5,-264.75 472,-254.75 468.5,-264.75 475.5,-264.75"/>
</g>
<!-- Node5&#45;&gt;Node4 -->
<g id="edge9" class="edge">
<title>Node5&#45;&gt;Node4</title>
<path fill="none" stroke="midnightblue" d="M484.22,-235.47C502.24,-222.94 537.02,-198.88 567,-179 582.85,-168.49 600.9,-156.89 614.71,-148.1"/>
<polygon fill="midnightblue" stroke="midnightblue" points="616.94,-150.83 623.51,-142.51 613.19,-144.92 616.94,-150.83"/>
</g>
<!-- Node6 -->
<g id="node6" class="node">
<title>Node6</title>
<g id="a_node6"><a xlink:title=" ">
<polygon fill="white" stroke="#bfbfbf" points="729,-123.5 729,-142.5 791,-142.5 791,-123.5 729,-123.5"/>
<text text-anchor="middle" x="760" y="-130.5" font-family="Helvetica,sans-Serif" font-size="10.00">cinttypes</text>
</a>
</g>
</g>
<!-- Node5&#45;&gt;Node6 -->
<g id="edge5" class="edge">
<title>Node5&#45;&gt;Node6</title>
<path fill="none" stroke="midnightblue" d="M504.64,-243.03C549.52,-240.47 631.71,-231.34 693,-199 715.29,-187.24 735.22,-165.79 747.43,-150.75"/>
<polygon fill="midnightblue" stroke="midnightblue" points="750.28,-152.8 753.69,-142.77 744.77,-148.48 750.28,-152.8"/>
</g>
<!-- Node7 -->
<g id="node7" class="node">
<title>Node7</title>
<g id="a_node7"><a xlink:title=" ">
<polygon fill="white" stroke="#bfbfbf" points="425.5,-123.5 425.5,-142.5 518.5,-142.5 518.5,-123.5 425.5,-123.5"/>
<text text-anchor="middle" x="472" y="-130.5" font-family="Helvetica,sans-Serif" font-size="10.00">unordered_map</text>
</a>
</g>
</g>
<!-- Node5&#45;&gt;Node7 -->
<g id="edge6" class="edge">
<title>Node5&#45;&gt;Node7</title>
<path fill="none" stroke="midnightblue" d="M472,-235.37C472,-217.62 472,-176.67 472,-152.6"/>
<polygon fill="midnightblue" stroke="midnightblue" points="475.5,-152.59 472,-142.59 468.5,-152.59 475.5,-152.59"/>
</g>
<!-- Node8 -->
<g id="node8" class="node">
<title>Node8</title>
<g id="a_node8"><a xlink:title=" ">
<polygon fill="white" stroke="#bfbfbf" points="537,-123.5 537,-142.5 595,-142.5 595,-123.5 537,-123.5"/>
<text text-anchor="middle" x="566" y="-130.5" font-family="Helvetica,sans-Serif" font-size="10.00">memory</text>
</a>
</g>
</g>
<!-- Node5&#45;&gt;Node8 -->
<g id="edge7" class="edge">
<title>Node5&#45;&gt;Node8</title>
<path fill="none" stroke="midnightblue" d="M479.38,-235.37C495.03,-217.05 531.78,-174.05 552.02,-150.36"/>
<polygon fill="midnightblue" stroke="midnightblue" points="554.82,-152.47 558.66,-142.59 549.5,-147.92 554.82,-152.47"/>
</g>
<!-- Node9 -->
<g id="node9" class="node">
<title>Node9</title>
<g id="a_node9"><a xlink:title=" ">
<polygon fill="white" stroke="#bfbfbf" points="62,-123.5 62,-142.5 126,-142.5 126,-123.5 62,-123.5"/>
<text text-anchor="middle" x="94" y="-130.5" font-family="Helvetica,sans-Serif" font-size="10.00">algorithm</text>
</a>
</g>
</g>
<!-- Node5&#45;&gt;Node9 -->
<g id="edge8" class="edge">
<title>Node5&#45;&gt;Node9</title>
<path fill="none" stroke="midnightblue" d="M439.48,-240.76C392.22,-235.42 302.2,-222.93 229,-199 188.04,-185.61 143.56,-162.33 117.27,-147.57"/>
<polygon fill="midnightblue" stroke="midnightblue" points="118.87,-144.45 108.45,-142.55 115.41,-150.54 118.87,-144.45"/>
</g>
<!-- Node10 -->
<g id="node10" class="node">
<title>Node10</title>
<g id="a_node10"><a xlink:title=" ">
<polygon fill="white" stroke="#bfbfbf" points="144.5,-123.5 144.5,-142.5 235.5,-142.5 235.5,-123.5 144.5,-123.5"/>
<text text-anchor="middle" x="190" y="-130.5" font-family="Helvetica,sans-Serif" font-size="10.00">Exceptions.hpp</text>
</a>
</g>
</g>
<!-- Node5&#45;&gt;Node10 -->
<g id="edge10" class="edge">
<title>Node5&#45;&gt;Node10</title>
<path fill="none" stroke="midnightblue" d="M439.5,-242.35C396.47,-239.03 319.27,-229.02 261,-199 237.9,-187.1 216.67,-165.68 203.56,-150.69"/>
<polygon fill="midnightblue" stroke="midnightblue" points="205.96,-148.1 196.82,-142.73 200.61,-152.62 205.96,-148.1"/>
</g>
<!-- Node11 -->
<g id="node11" class="node">
<title>Node11</title>
<g id="a_node11"><a xlink:href="ComponentManager_8hpp.html" target="_top" xlink:title=" ">
<polygon fill="white" stroke="black" points="270,-179.5 270,-198.5 406,-198.5 406,-179.5 270,-179.5"/>
<text text-anchor="middle" x="338" y="-186.5" font-family="Helvetica,sans-Serif" font-size="10.00">ComponentManager.hpp</text>
</a>
</g>
</g>
<!-- Node5&#45;&gt;Node11 -->
<g id="edge11" class="edge">
<title>Node5&#45;&gt;Node11</title>
<path fill="none" stroke="midnightblue" d="M450.77,-235.44C428.62,-226.52 393.68,-212.44 368.56,-202.32"/>
<polygon fill="midnightblue" stroke="midnightblue" points="369.72,-199.01 359.13,-198.52 367.1,-205.5 369.72,-199.01"/>
</g>
<!-- Node12 -->
<g id="node12" class="node">
<title>Node12</title>
<g id="a_node12"><a xlink:href="IComponent_8hpp.html" target="_top" xlink:title=" ">
<polygon fill="white" stroke="black" points="310.5,-123.5 310.5,-142.5 407.5,-142.5 407.5,-123.5 310.5,-123.5"/>
<text text-anchor="middle" x="359" y="-130.5" font-family="Helvetica,sans-Serif" font-size="10.00">IComponent.hpp</text>
</a>
</g>
</g>
<!-- Node5&#45;&gt;Node12 -->
<g id="edge31" class="edge">
<title>Node5&#45;&gt;Node12</title>
<path fill="none" stroke="midnightblue" d="M465.07,-235.16C454.76,-222.23 434.51,-197.69 415,-179 403.77,-168.24 390.2,-157.29 379.23,-148.89"/>
<polygon fill="midnightblue" stroke="midnightblue" points="381.17,-145.97 371.08,-142.74 376.96,-151.56 381.17,-145.97"/>
</g>
<!-- Node19 -->
<g id="node19" class="node">
<title>Node19</title>
<g id="a_node19"><a xlink:href="EntityManager_8hpp.html" target="_top" xlink:title=" ">
<polygon fill="white" stroke="black" points="576,-179.5 576,-198.5 684,-198.5 684,-179.5 576,-179.5"/>
<text text-anchor="middle" x="630" y="-186.5" font-family="Helvetica,sans-Serif" font-size="10.00">EntityManager.hpp</text>
</a>
</g>
</g>
<!-- Node5&#45;&gt;Node19 -->
<g id="edge26" class="edge">
<title>Node5&#45;&gt;Node19</title>
<path fill="none" stroke="midnightblue" d="M497.04,-235.44C523.62,-226.36 565.81,-211.94 595.52,-201.78"/>
<polygon fill="midnightblue" stroke="midnightblue" points="596.75,-205.06 605.08,-198.52 594.49,-198.44 596.75,-205.06"/>
</g>
<!-- Node11&#45;&gt;Node3 -->
<g id="edge13" class="edge">
<title>Node11&#45;&gt;Node3</title>
<path fill="none" stroke="midnightblue" d="M269.89,-179.7C214.24,-172.36 133.42,-160.42 54.39,-143.08"/>
<polygon fill="midnightblue" stroke="midnightblue" points="54.79,-139.58 44.26,-140.83 53.26,-146.42 54.79,-139.58"/>
</g>
<!-- Node11&#45;&gt;Node4 -->
<g id="edge14" class="edge">
<title>Node11&#45;&gt;Node4</title>
<path fill="none" stroke="midnightblue" d="M398.55,-179.5C450.35,-171.83 527.08,-159.54 603.05,-143.02"/>
<polygon fill="midnightblue" stroke="midnightblue" points="604.26,-146.34 613.28,-140.77 602.76,-139.5 604.26,-146.34"/>
</g>
<!-- Node11&#45;&gt;Node7 -->
<g id="edge12" class="edge">
<title>Node11&#45;&gt;Node7</title>
<path fill="none" stroke="midnightblue" d="M359.23,-179.44C381.38,-170.52 416.32,-156.44 441.44,-146.32"/>
<polygon fill="midnightblue" stroke="midnightblue" points="442.9,-149.5 450.87,-142.52 440.28,-143.01 442.9,-149.5"/>
</g>
<!-- Node11&#45;&gt;Node8 -->
<g id="edge15" class="edge">
<title>Node11&#45;&gt;Node8</title>
<path fill="none" stroke="midnightblue" d="M374.13,-179.44C415.86,-169.56 484.26,-153.36 527.13,-143.21"/>
<polygon fill="midnightblue" stroke="midnightblue" points="527.99,-146.6 536.91,-140.89 526.38,-139.79 527.99,-146.6"/>
</g>
<!-- Node11&#45;&gt;Node9 -->
<g id="edge16" class="edge">
<title>Node11&#45;&gt;Node9</title>
<path fill="none" stroke="midnightblue" d="M299.34,-179.44C254.86,-169.6 182.08,-153.49 136.18,-143.33"/>
<polygon fill="midnightblue" stroke="midnightblue" points="136.77,-139.88 126.25,-141.14 135.26,-146.72 136.77,-139.88"/>
</g>
<!-- Node11&#45;&gt;Node10 -->
<g id="edge17" class="edge">
<title>Node11&#45;&gt;Node10</title>
<path fill="none" stroke="midnightblue" d="M314.55,-179.44C289.87,-170.44 250.81,-156.19 223.02,-146.05"/>
<polygon fill="midnightblue" stroke="midnightblue" points="223.94,-142.66 213.34,-142.52 221.54,-149.23 223.94,-142.66"/>
</g>
<!-- Node11&#45;&gt;Node12 -->
<g id="edge18" class="edge">
<title>Node11&#45;&gt;Node12</title>
<path fill="none" stroke="midnightblue" d="M341.47,-179.08C344.31,-171.77 348.43,-161.18 351.96,-152.1"/>
<polygon fill="midnightblue" stroke="midnightblue" points="355.23,-153.34 355.6,-142.75 348.71,-150.8 355.23,-153.34"/>
</g>
<!-- Node18 -->
<g id="node18" class="node">
<title>Node18</title>
<g id="a_node18"><a xlink:title=" ">
<polygon fill="white" stroke="#bfbfbf" points="254,-123.5 254,-142.5 292,-142.5 292,-123.5 254,-123.5"/>
<text text-anchor="middle" x="273" y="-130.5" font-family="Helvetica,sans-Serif" font-size="10.00">map</text>
</a>
</g>
</g>
<!-- Node11&#45;&gt;Node18 -->
<g id="edge25" class="edge">
<title>Node11&#45;&gt;Node18</title>
<path fill="none" stroke="midnightblue" d="M327.56,-179.32C317.85,-171.26 303.18,-159.08 291.5,-149.37"/>
<polygon fill="midnightblue" stroke="midnightblue" points="293.56,-146.53 283.63,-142.83 289.09,-151.92 293.56,-146.53"/>
</g>
<!-- Node13 -->
<g id="node13" class="node">
<title>Node13</title>
<g id="a_node13"><a xlink:title=" ">
<polygon fill="white" stroke="#bfbfbf" points="275.5,-6 275.5,-25 332.5,-25 332.5,-6 275.5,-6"/>
<text text-anchor="middle" x="304" y="-13" font-family="Helvetica,sans-Serif" font-size="10.00">ostream</text>
</a>
</g>
</g>
<!-- Node12&#45;&gt;Node13 -->
<g id="edge19" class="edge">
<title>Node12&#45;&gt;Node13</title>
<path fill="none" stroke="midnightblue" d="M354.87,-123.32C345.91,-104.51 324.55,-59.65 312.55,-34.46"/>
<polygon fill="midnightblue" stroke="midnightblue" points="315.64,-32.81 308.18,-25.28 309.32,-35.82 315.64,-32.81"/>
</g>
<!-- Node14 -->
<g id="node14" class="node">
<title>Node14</title>
<g id="a_node14"><a xlink:href="IXMLSerializable_8hpp.html" target="_top" xlink:title=" ">
<polygon fill="white" stroke="black" points="347.5,-67.5 347.5,-86.5 466.5,-86.5 466.5,-67.5 347.5,-67.5"/>
<text text-anchor="middle" x="407" y="-74.5" font-family="Helvetica,sans-Serif" font-size="10.00">IXMLSerializable.hpp</text>
</a>
</g>
</g>
<!-- Node12&#45;&gt;Node14 -->
<g id="edge20" class="edge">
<title>Node12&#45;&gt;Node14</title>
<path fill="none" stroke="midnightblue" d="M366.93,-123.08C373.85,-115.3 384.07,-103.8 392.45,-94.37"/>
<polygon fill="midnightblue" stroke="midnightblue" points="395.19,-96.55 399.22,-86.75 389.96,-91.9 395.19,-96.55"/>
</g>
<!-- Node14&#45;&gt;Node13 -->
<g id="edge21" class="edge">
<title>Node14&#45;&gt;Node13</title>
<path fill="none" stroke="midnightblue" d="M392.24,-67.48C375.34,-57.71 347.42,-41.58 327.51,-30.08"/>
<polygon fill="midnightblue" stroke="midnightblue" points="329.14,-26.98 318.73,-25.01 325.64,-33.04 329.14,-26.98"/>
</g>
<!-- Node15 -->
<g id="node15" class="node">
<title>Node15</title>
<g id="a_node15"><a xlink:title=" ">
<polygon fill="white" stroke="#bfbfbf" points="482,-6 482,-25 542,-25 542,-6 482,-6"/>
<text text-anchor="middle" x="512" y="-13" font-family="Helvetica,sans-Serif" font-size="10.00">iostream</text>
</a>
</g>
</g>
<!-- Node14&#45;&gt;Node15 -->
<g id="edge22" class="edge">
<title>Node14&#45;&gt;Node15</title>
<path fill="none" stroke="midnightblue" d="M422.04,-67.48C439.28,-57.71 467.74,-41.58 488.03,-30.08"/>
<polygon fill="midnightblue" stroke="midnightblue" points="490.01,-32.98 496.98,-25.01 486.56,-26.89 490.01,-32.98"/>
</g>
<!-- Node16 -->
<g id="node16" class="node">
<title>Node16</title>
<g id="a_node16"><a xlink:title=" ">
<polygon fill="white" stroke="#bfbfbf" points="560.5,-0.5 560.5,-30.5 673.5,-30.5 673.5,-0.5 560.5,-0.5"/>
<text text-anchor="start" x="568.5" y="-18.5" font-family="Helvetica,sans-Serif" font-size="10.00">boost/property_tree</text>
<text text-anchor="middle" x="617" y="-7.5" font-family="Helvetica,sans-Serif" font-size="10.00">/ptree.hpp</text>
</a>
</g>
</g>
<!-- Node14&#45;&gt;Node16 -->
<g id="edge23" class="edge">
<title>Node14&#45;&gt;Node16</title>
<path fill="none" stroke="midnightblue" d="M437.09,-67.48C468.45,-58.59 518.43,-44.43 557.76,-33.29"/>
<polygon fill="midnightblue" stroke="midnightblue" points="558.84,-36.62 567.51,-30.52 556.93,-29.88 558.84,-36.62"/>
</g>
<!-- Node17 -->
<g id="node17" class="node">
<title>Node17</title>
<g id="a_node17"><a xlink:title=" ">
<polygon fill="white" stroke="#bfbfbf" points="350.5,-0.5 350.5,-30.5 463.5,-30.5 463.5,-0.5 350.5,-0.5"/>
<text text-anchor="start" x="358.5" y="-18.5" font-family="Helvetica,sans-Serif" font-size="10.00">boost/property_tree</text>
<text text-anchor="middle" x="407" y="-7.5" font-family="Helvetica,sans-Serif" font-size="10.00">/xml_parser.hpp</text>
</a>
</g>
</g>
<!-- Node14&#45;&gt;Node17 -->
<g id="edge24" class="edge">
<title>Node14&#45;&gt;Node17</title>
<path fill="none" stroke="midnightblue" d="M407,-67.48C407,-60.47 407,-50.19 407,-40.7"/>
<polygon fill="midnightblue" stroke="midnightblue" points="410.5,-40.52 407,-30.52 403.5,-40.52 410.5,-40.52"/>
</g>
<!-- Node19&#45;&gt;Node4 -->
<g id="edge27" class="edge">
<title>Node19&#45;&gt;Node4</title>
<path fill="none" stroke="midnightblue" d="M631.16,-179.08C632.08,-171.93 633.42,-161.64 634.58,-152.69"/>
<polygon fill="midnightblue" stroke="midnightblue" points="638.05,-153.12 635.87,-142.75 631.11,-152.22 638.05,-153.12"/>
</g>
<!-- Node19&#45;&gt;Node6 -->
<g id="edge28" class="edge">
<title>Node19&#45;&gt;Node6</title>
<path fill="none" stroke="midnightblue" d="M650.6,-179.44C671.99,-170.56 705.68,-156.56 730.02,-146.45"/>
<polygon fill="midnightblue" stroke="midnightblue" points="731.61,-149.58 739.5,-142.52 728.92,-143.12 731.61,-149.58"/>
</g>
<!-- Node19&#45;&gt;Node8 -->
<g id="edge29" class="edge">
<title>Node19&#45;&gt;Node8</title>
<path fill="none" stroke="midnightblue" d="M619.72,-179.32C610.16,-171.26 595.72,-159.08 584.22,-149.37"/>
<polygon fill="midnightblue" stroke="midnightblue" points="586.37,-146.61 576.47,-142.83 581.86,-151.96 586.37,-146.61"/>
</g>
<!-- Node20 -->
<g id="node20" class="node">
<title>Node20</title>
<g id="a_node20"><a xlink:title=" ">
<polygon fill="white" stroke="#bfbfbf" points="679,-123.5 679,-142.5 711,-142.5 711,-123.5 679,-123.5"/>
<text text-anchor="middle" x="695" y="-130.5" font-family="Helvetica,sans-Serif" font-size="10.00">list</text>
</a>
</g>
</g>
<!-- Node19&#45;&gt;Node20 -->
<g id="edge30" class="edge">
<title>Node19&#45;&gt;Node20</title>
<path fill="none" stroke="midnightblue" d="M640.44,-179.32C650.15,-171.26 664.82,-159.08 676.5,-149.37"/>
<polygon fill="midnightblue" stroke="midnightblue" points="678.91,-151.92 684.37,-142.83 674.44,-146.53 678.91,-151.92"/>
</g>
</g>
</svg>
