<?xml version="1.0" encoding="UTF-8" standalone="no"?>
<!DOCTYPE svg PUBLIC "-//W3C//DTD SVG 1.1//EN"
 "http://www.w3.org/Graphics/SVG/1.1/DTD/svg11.dtd">
<!-- Generated by graphviz version 2.43.0 (0)
 -->
<!-- Title: Libs/Engine/sources/ModelShader/BasicLight/BasicLight.hpp Pages: 1 -->
<svg width="415pt" height="285pt"
 viewBox="0.00 0.00 415.00 285.00" xmlns="http://www.w3.org/2000/svg" xmlns:xlink="http://www.w3.org/1999/xlink">
<g id="graph0" class="graph" transform="scale(1 1) rotate(0) translate(4 281)">
<title>Libs/Engine/sources/ModelShader/BasicLight/BasicLight.hpp</title>
<polygon fill="white" stroke="transparent" points="-4,4 -4,-281 411,-281 411,4 -4,4"/>
<!-- Node1 -->
<g id="node1" class="node">
<title>Node1</title>
<g id="a_node1"><a xlink:title=" ">
<polygon fill="#bfbfbf" stroke="black" points="100,-235.5 100,-276.5 237,-276.5 237,-235.5 100,-235.5"/>
<text text-anchor="start" x="108" y="-264.5" font-family="Helvetica,sans-Serif" font-size="10.00">Libs/Engine/sources</text>
<text text-anchor="start" x="108" y="-253.5" font-family="Helvetica,sans-Serif" font-size="10.00">/ModelShader/BasicLight</text>
<text text-anchor="middle" x="168.5" y="-242.5" font-family="Helvetica,sans-Serif" font-size="10.00">/BasicLight.hpp</text>
</a>
</g>
</g>
<!-- Node2 -->
<g id="node2" class="node">
<title>Node2</title>
<g id="a_node2"><a xlink:href="Vector3_8hpp.html" target="_top" xlink:title=" ">
<polygon fill="white" stroke="black" points="119.5,-123.5 119.5,-142.5 193.5,-142.5 193.5,-123.5 119.5,-123.5"/>
<text text-anchor="middle" x="156.5" y="-130.5" font-family="Helvetica,sans-Serif" font-size="10.00">Vector3.hpp</text>
</a>
</g>
</g>
<!-- Node1&#45;&gt;Node2 -->
<g id="edge1" class="edge">
<title>Node1&#45;&gt;Node2</title>
<path fill="none" stroke="midnightblue" d="M166.55,-235.29C164.28,-212.48 160.58,-175.19 158.36,-152.78"/>
<polygon fill="midnightblue" stroke="midnightblue" points="161.82,-152.18 157.35,-142.57 154.85,-152.87 161.82,-152.18"/>
</g>
<!-- Node11 -->
<g id="node11" class="node">
<title>Node11</title>
<g id="a_node11"><a xlink:href="Color_8hpp.html" target="_top" xlink:title=" ">
<polygon fill="white" stroke="black" points="78.5,-179.5 78.5,-198.5 140.5,-198.5 140.5,-179.5 78.5,-179.5"/>
<text text-anchor="middle" x="109.5" y="-186.5" font-family="Helvetica,sans-Serif" font-size="10.00">Color.hpp</text>
</a>
</g>
</g>
<!-- Node1&#45;&gt;Node11 -->
<g id="edge10" class="edge">
<title>Node1&#45;&gt;Node11</title>
<path fill="none" stroke="midnightblue" d="M150.8,-235.5C142.27,-226.11 132.18,-214.98 124.1,-206.08"/>
<polygon fill="midnightblue" stroke="midnightblue" points="126.67,-203.7 117.35,-198.65 121.48,-208.41 126.67,-203.7"/>
</g>
<!-- Node12 -->
<g id="node12" class="node">
<title>Node12</title>
<g id="a_node12"><a xlink:href="Shader_8hpp.html" target="_top" xlink:title=" ">
<polygon fill="white" stroke="black" points="210,-179.5 210,-198.5 281,-198.5 281,-179.5 210,-179.5"/>
<text text-anchor="middle" x="245.5" y="-186.5" font-family="Helvetica,sans-Serif" font-size="10.00">Shader.hpp</text>
</a>
</g>
</g>
<!-- Node1&#45;&gt;Node12 -->
<g id="edge13" class="edge">
<title>Node1&#45;&gt;Node12</title>
<path fill="none" stroke="midnightblue" d="M191.6,-235.5C203.07,-225.82 216.71,-214.3 227.41,-205.27"/>
<polygon fill="midnightblue" stroke="midnightblue" points="229.87,-207.78 235.25,-198.65 225.35,-202.43 229.87,-207.78"/>
</g>
<!-- Node3 -->
<g id="node3" class="node">
<title>Node3</title>
<g id="a_node3"><a xlink:title=" ">
<polygon fill="white" stroke="#bfbfbf" points="27,-67.5 27,-86.5 80,-86.5 80,-67.5 27,-67.5"/>
<text text-anchor="middle" x="53.5" y="-74.5" font-family="Helvetica,sans-Serif" font-size="10.00">raylib.h</text>
</a>
</g>
</g>
<!-- Node2&#45;&gt;Node3 -->
<g id="edge2" class="edge">
<title>Node2&#45;&gt;Node3</title>
<path fill="none" stroke="midnightblue" d="M139.95,-123.32C123.51,-114.7 98.07,-101.36 79.03,-91.39"/>
<polygon fill="midnightblue" stroke="midnightblue" points="80.49,-88.2 70.01,-86.65 77.24,-94.4 80.49,-88.2"/>
</g>
<!-- Node4 -->
<g id="node4" class="node">
<title>Node4</title>
<g id="a_node4"><a xlink:href="IXMLSerializable_8hpp.html" target="_top" xlink:title=" ">
<polygon fill="white" stroke="black" points="98,-67.5 98,-86.5 217,-86.5 217,-67.5 98,-67.5"/>
<text text-anchor="middle" x="157.5" y="-74.5" font-family="Helvetica,sans-Serif" font-size="10.00">IXMLSerializable.hpp</text>
</a>
</g>
</g>
<!-- Node2&#45;&gt;Node4 -->
<g id="edge3" class="edge">
<title>Node2&#45;&gt;Node4</title>
<path fill="none" stroke="midnightblue" d="M156.67,-123.08C156.8,-116.01 156.98,-105.86 157.15,-96.99"/>
<polygon fill="midnightblue" stroke="midnightblue" points="160.65,-96.81 157.34,-86.75 153.65,-96.68 160.65,-96.81"/>
</g>
<!-- Node9 -->
<g id="node9" class="node">
<title>Node9</title>
<g id="a_node9"><a xlink:title=" ">
<polygon fill="white" stroke="#bfbfbf" points="235,-67.5 235,-86.5 282,-86.5 282,-67.5 235,-67.5"/>
<text text-anchor="middle" x="258.5" y="-74.5" font-family="Helvetica,sans-Serif" font-size="10.00">cmath</text>
</a>
</g>
</g>
<!-- Node2&#45;&gt;Node9 -->
<g id="edge8" class="edge">
<title>Node2&#45;&gt;Node9</title>
<path fill="none" stroke="midnightblue" d="M172.89,-123.32C189.17,-114.7 214.37,-101.36 233.22,-91.39"/>
<polygon fill="midnightblue" stroke="midnightblue" points="234.95,-94.43 242.15,-86.65 231.68,-88.24 234.95,-94.43"/>
</g>
<!-- Node10 -->
<g id="node10" class="node">
<title>Node10</title>
<g id="a_node10"><a xlink:title=" ">
<polygon fill="white" stroke="#bfbfbf" points="300.5,-67.5 300.5,-86.5 356.5,-86.5 356.5,-67.5 300.5,-67.5"/>
<text text-anchor="middle" x="328.5" y="-74.5" font-family="Helvetica,sans-Serif" font-size="10.00">sstream</text>
</a>
</g>
</g>
<!-- Node2&#45;&gt;Node10 -->
<g id="edge9" class="edge">
<title>Node2&#45;&gt;Node10</title>
<path fill="none" stroke="midnightblue" d="M183.75,-123.44C212.94,-114.28 259.42,-99.69 291.81,-89.52"/>
<polygon fill="midnightblue" stroke="midnightblue" points="292.88,-92.85 301.37,-86.52 290.78,-86.17 292.88,-92.85"/>
</g>
<!-- Node5 -->
<g id="node5" class="node">
<title>Node5</title>
<g id="a_node5"><a xlink:title=" ">
<polygon fill="white" stroke="#bfbfbf" points="0,-6 0,-25 57,-25 57,-6 0,-6"/>
<text text-anchor="middle" x="28.5" y="-13" font-family="Helvetica,sans-Serif" font-size="10.00">ostream</text>
</a>
</g>
</g>
<!-- Node4&#45;&gt;Node5 -->
<g id="edge4" class="edge">
<title>Node4&#45;&gt;Node5</title>
<path fill="none" stroke="midnightblue" d="M139.02,-67.48C117.37,-57.49 81.29,-40.85 56.27,-29.31"/>
<polygon fill="midnightblue" stroke="midnightblue" points="57.49,-26.02 46.95,-25.01 54.56,-32.38 57.49,-26.02"/>
</g>
<!-- Node6 -->
<g id="node6" class="node">
<title>Node6</title>
<g id="a_node6"><a xlink:title=" ">
<polygon fill="white" stroke="#bfbfbf" points="75.5,-6 75.5,-25 135.5,-25 135.5,-6 75.5,-6"/>
<text text-anchor="middle" x="105.5" y="-13" font-family="Helvetica,sans-Serif" font-size="10.00">iostream</text>
</a>
</g>
</g>
<!-- Node4&#45;&gt;Node6 -->
<g id="edge5" class="edge">
<title>Node4&#45;&gt;Node6</title>
<path fill="none" stroke="midnightblue" d="M150.05,-67.48C142.17,-58.46 129.56,-44.02 119.76,-32.81"/>
<polygon fill="midnightblue" stroke="midnightblue" points="122.15,-30.24 112.94,-25.01 116.88,-34.84 122.15,-30.24"/>
</g>
<!-- Node7 -->
<g id="node7" class="node">
<title>Node7</title>
<g id="a_node7"><a xlink:title=" ">
<polygon fill="white" stroke="#bfbfbf" points="154,-0.5 154,-30.5 267,-30.5 267,-0.5 154,-0.5"/>
<text text-anchor="start" x="162" y="-18.5" font-family="Helvetica,sans-Serif" font-size="10.00">boost/property_tree</text>
<text text-anchor="middle" x="210.5" y="-7.5" font-family="Helvetica,sans-Serif" font-size="10.00">/ptree.hpp</text>
</a>
</g>
</g>
<!-- Node4&#45;&gt;Node7 -->
<g id="edge6" class="edge">
<title>Node4&#45;&gt;Node7</title>
<path fill="none" stroke="midnightblue" d="M165.09,-67.48C171.87,-59.87 182.09,-48.4 191.11,-38.26"/>
<polygon fill="midnightblue" stroke="midnightblue" points="193.97,-40.32 198.01,-30.52 188.74,-35.66 193.97,-40.32"/>
</g>
<!-- Node8 -->
<g id="node8" class="node">
<title>Node8</title>
<g id="a_node8"><a xlink:title=" ">
<polygon fill="white" stroke="#bfbfbf" points="285,-0.5 285,-30.5 398,-30.5 398,-0.5 285,-0.5"/>
<text text-anchor="start" x="293" y="-18.5" font-family="Helvetica,sans-Serif" font-size="10.00">boost/property_tree</text>
<text text-anchor="middle" x="341.5" y="-7.5" font-family="Helvetica,sans-Serif" font-size="10.00">/xml_parser.hpp</text>
</a>
</g>
</g>
<!-- Node4&#45;&gt;Node8 -->
<g id="edge7" class="edge">
<title>Node4&#45;&gt;Node8</title>
<path fill="none" stroke="midnightblue" d="M183.86,-67.48C211,-58.7 254.02,-44.79 288.27,-33.71"/>
<polygon fill="midnightblue" stroke="midnightblue" points="289.7,-36.93 298.13,-30.52 287.54,-30.27 289.7,-36.93"/>
</g>
<!-- Node11&#45;&gt;Node2 -->
<g id="edge12" class="edge">
<title>Node11&#45;&gt;Node2</title>
<path fill="none" stroke="midnightblue" d="M117.26,-179.08C124.04,-171.3 134.04,-159.8 142.26,-150.37"/>
<polygon fill="midnightblue" stroke="midnightblue" points="144.96,-152.59 148.88,-142.75 139.68,-148 144.96,-152.59"/>
</g>
<!-- Node11&#45;&gt;Node3 -->
<g id="edge11" class="edge">
<title>Node11&#45;&gt;Node3</title>
<path fill="none" stroke="midnightblue" d="M102.4,-179.48C95.37,-170.75 84.66,-156.56 77.5,-143 69.6,-128.04 63.14,-109.9 58.92,-96.59"/>
<polygon fill="midnightblue" stroke="midnightblue" points="62.17,-95.27 55.92,-86.72 55.48,-97.31 62.17,-95.27"/>
</g>
<!-- Node12&#45;&gt;Node3 -->
<g id="edge16" class="edge">
<title>Node12&#45;&gt;Node3</title>
<path fill="none" stroke="midnightblue" d="M209.95,-181.53C181.32,-175.11 140.96,-163.23 110.5,-143 91.63,-130.47 75.2,-110.12 64.89,-95.52"/>
<polygon fill="midnightblue" stroke="midnightblue" points="67.55,-93.21 59.03,-86.91 61.76,-97.15 67.55,-93.21"/>
</g>
<!-- Node13 -->
<g id="node13" class="node">
<title>Node13</title>
<g id="a_node13"><a xlink:href="IAsset_8hpp.html" target="_top" xlink:title=" ">
<polygon fill="white" stroke="black" points="211.5,-123.5 211.5,-142.5 279.5,-142.5 279.5,-123.5 211.5,-123.5"/>
<text text-anchor="middle" x="245.5" y="-130.5" font-family="Helvetica,sans-Serif" font-size="10.00">IAsset.hpp</text>
</a>
</g>
</g>
<!-- Node12&#45;&gt;Node13 -->
<g id="edge14" class="edge">
<title>Node12&#45;&gt;Node13</title>
<path fill="none" stroke="midnightblue" d="M245.5,-179.08C245.5,-172.01 245.5,-161.86 245.5,-152.99"/>
<polygon fill="midnightblue" stroke="midnightblue" points="249,-152.75 245.5,-142.75 242,-152.75 249,-152.75"/>
</g>
<!-- Node14 -->
<g id="node14" class="node">
<title>Node14</title>
<g id="a_node14"><a xlink:title=" ">
<polygon fill="white" stroke="#bfbfbf" points="297.5,-123.5 297.5,-142.5 341.5,-142.5 341.5,-123.5 297.5,-123.5"/>
<text text-anchor="middle" x="319.5" y="-130.5" font-family="Helvetica,sans-Serif" font-size="10.00">string</text>
</a>
</g>
</g>
<!-- Node12&#45;&gt;Node14 -->
<g id="edge15" class="edge">
<title>Node12&#45;&gt;Node14</title>
<path fill="none" stroke="midnightblue" d="M257.39,-179.32C268.65,-171.11 285.79,-158.6 299.21,-148.81"/>
<polygon fill="midnightblue" stroke="midnightblue" points="301.38,-151.56 307.39,-142.83 297.25,-145.9 301.38,-151.56"/>
</g>
<!-- Node15 -->
<g id="node15" class="node">
<title>Node15</title>
<g id="a_node15"><a xlink:title=" ">
<polygon fill="white" stroke="#bfbfbf" points="360,-123.5 360,-142.5 407,-142.5 407,-123.5 360,-123.5"/>
<text text-anchor="middle" x="383.5" y="-130.5" font-family="Helvetica,sans-Serif" font-size="10.00">vector</text>
</a>
</g>
</g>
<!-- Node12&#45;&gt;Node15 -->
<g id="edge17" class="edge">
<title>Node12&#45;&gt;Node15</title>
<path fill="none" stroke="midnightblue" d="M267.37,-179.44C290.28,-170.48 326.48,-156.31 352.37,-146.18"/>
<polygon fill="midnightblue" stroke="midnightblue" points="353.7,-149.42 361.74,-142.52 351.15,-142.9 353.7,-149.42"/>
</g>
</g>
</svg>
