<?xml version="1.0" encoding="UTF-8" standalone="no"?>
<!DOCTYPE svg PUBLIC "-//W3C//DTD SVG 1.1//EN"
 "http://www.w3.org/Graphics/SVG/1.1/DTD/svg11.dtd">
<!-- Generated by graphviz version 2.43.0 (0)
 -->
<!-- Title: Libs/Engine/sources/Systems/BehaviourSystem/BehaviourSystem.hpp Pages: 1 -->
<svg width="990pt" height="206pt"
 viewBox="0.00 0.00 989.59 206.00" xmlns="http://www.w3.org/2000/svg" xmlns:xlink="http://www.w3.org/1999/xlink">
<g id="graph0" class="graph" transform="scale(1 1) rotate(0) translate(4 202)">
<title>Libs/Engine/sources/Systems/BehaviourSystem/BehaviourSystem.hpp</title>
<polygon fill="white" stroke="transparent" points="-4,4 -4,-202 985.59,-202 985.59,4 -4,4"/>
<!-- Node1 -->
<g id="node1" class="node">
<title>Node1</title>
<g id="a_node1"><a xlink:title=" ">
<polygon fill="#bfbfbf" stroke="black" points="342.09,-156.5 342.09,-197.5 493.09,-197.5 493.09,-156.5 342.09,-156.5"/>
<text text-anchor="start" x="350.09" y="-185.5" font-family="Helvetica,sans-Serif" font-size="10.00">Libs/Engine/sources</text>
<text text-anchor="start" x="350.09" y="-174.5" font-family="Helvetica,sans-Serif" font-size="10.00">/Systems/BehaviourSystem</text>
<text text-anchor="middle" x="417.59" y="-163.5" font-family="Helvetica,sans-Serif" font-size="10.00">/BehaviourSystem.hpp</text>
</a>
</g>
</g>
<!-- Node2 -->
<g id="node2" class="node">
<title>Node2</title>
<g id="a_node2"><a xlink:href="Bomberman_2sources_2main_8cpp.html" target="_top" xlink:title=" ">
<polygon fill="white" stroke="black" points="119.09,-11.5 119.09,-30.5 284.09,-30.5 284.09,-11.5 119.09,-11.5"/>
<text text-anchor="middle" x="201.59" y="-18.5" font-family="Helvetica,sans-Serif" font-size="10.00">Bomberman/sources/main.cpp</text>
</a>
</g>
</g>
<!-- Node1&#45;&gt;Node2 -->
<g id="edge1" class="edge">
<title>Node1&#45;&gt;Node2</title>
<path fill="none" stroke="midnightblue" d="M331.86,-176.84C225,-175.85 51.4,-166.81 10.59,-120 -32.21,-70.91 72.42,-43.17 143.15,-30.51"/>
<polygon fill="midnightblue" stroke="midnightblue" points="331.96,-180.34 341.99,-176.92 332.01,-173.34 331.96,-180.34"/>
</g>
<!-- Node3 -->
<g id="node3" class="node">
<title>Node3</title>
<g id="a_node3"><a xlink:href="GameConfigurator_8cpp.html" target="_top" xlink:title=" ">
<polygon fill="white" stroke="black" points="20.09,-78.5 20.09,-119.5 193.09,-119.5 193.09,-78.5 20.09,-78.5"/>
<text text-anchor="start" x="28.09" y="-107.5" font-family="Helvetica,sans-Serif" font-size="10.00">Libs/Engine/sources</text>
<text text-anchor="start" x="28.09" y="-96.5" font-family="Helvetica,sans-Serif" font-size="10.00">/Components/GameConfigurator</text>
<text text-anchor="middle" x="106.59" y="-85.5" font-family="Helvetica,sans-Serif" font-size="10.00">/GameConfigurator.cpp</text>
</a>
</g>
</g>
<!-- Node1&#45;&gt;Node3 -->
<g id="edge2" class="edge">
<title>Node1&#45;&gt;Node3</title>
<path fill="none" stroke="midnightblue" d="M332.07,-155.1C286.59,-143.99 231.01,-130.41 186.42,-119.51"/>
<polygon fill="midnightblue" stroke="midnightblue" points="331.36,-158.53 341.91,-157.51 333.03,-151.73 331.36,-158.53"/>
</g>
<!-- Node4 -->
<g id="node4" class="node">
<title>Node4</title>
<g id="a_node4"><a xlink:href="Scenes_8cpp.html" target="_top" xlink:title=" ">
<polygon fill="white" stroke="black" points="211.09,-84 211.09,-114 324.09,-114 324.09,-84 211.09,-84"/>
<text text-anchor="start" x="219.09" y="-102" font-family="Helvetica,sans-Serif" font-size="10.00">Libs/Engine/sources</text>
<text text-anchor="middle" x="267.59" y="-91" font-family="Helvetica,sans-Serif" font-size="10.00">/Scenes/Scenes.cpp</text>
</a>
</g>
</g>
<!-- Node1&#45;&gt;Node4 -->
<g id="edge3" class="edge">
<title>Node1&#45;&gt;Node4</title>
<path fill="none" stroke="midnightblue" d="M369.84,-151.81C345.4,-139.43 316.5,-124.78 295.67,-114.23"/>
<polygon fill="midnightblue" stroke="midnightblue" points="368.46,-155.03 378.96,-156.43 371.62,-148.79 368.46,-155.03"/>
</g>
<!-- Node5 -->
<g id="node5" class="node">
<title>Node5</title>
<g id="a_node5"><a xlink:href="BehaviourSystem_8cpp.html" target="_top" xlink:title=" ">
<polygon fill="white" stroke="black" points="342.09,-78.5 342.09,-119.5 493.09,-119.5 493.09,-78.5 342.09,-78.5"/>
<text text-anchor="start" x="350.09" y="-107.5" font-family="Helvetica,sans-Serif" font-size="10.00">Libs/Engine/sources</text>
<text text-anchor="start" x="350.09" y="-96.5" font-family="Helvetica,sans-Serif" font-size="10.00">/Systems/BehaviourSystem</text>
<text text-anchor="middle" x="417.59" y="-85.5" font-family="Helvetica,sans-Serif" font-size="10.00">/BehaviourSystem.cpp</text>
</a>
</g>
</g>
<!-- Node1&#45;&gt;Node5 -->
<g id="edge4" class="edge">
<title>Node1&#45;&gt;Node5</title>
<path fill="none" stroke="midnightblue" d="M417.59,-146.3C417.59,-137.3 417.59,-127.65 417.59,-119.51"/>
<polygon fill="midnightblue" stroke="midnightblue" points="414.09,-146.43 417.59,-156.43 421.09,-146.43 414.09,-146.43"/>
</g>
<!-- Node6 -->
<g id="node6" class="node">
<title>Node6</title>
<g id="a_node6"><a xlink:href="PauseSystem_8hpp.html" target="_top" xlink:title=" ">
<polygon fill="white" stroke="black" points="511.59,-78.5 511.59,-119.5 641.59,-119.5 641.59,-78.5 511.59,-78.5"/>
<text text-anchor="start" x="519.59" y="-107.5" font-family="Helvetica,sans-Serif" font-size="10.00">Libs/Engine/sources</text>
<text text-anchor="start" x="519.59" y="-96.5" font-family="Helvetica,sans-Serif" font-size="10.00">/Systems/PauseSystem</text>
<text text-anchor="middle" x="576.59" y="-85.5" font-family="Helvetica,sans-Serif" font-size="10.00">/PauseSystem.hpp</text>
</a>
</g>
</g>
<!-- Node1&#45;&gt;Node6 -->
<g id="edge5" class="edge">
<title>Node1&#45;&gt;Node6</title>
<path fill="none" stroke="midnightblue" d="M467.7,-152.05C489.63,-141.57 515.03,-129.42 535.78,-119.51"/>
<polygon fill="midnightblue" stroke="midnightblue" points="466.05,-148.96 458.54,-156.43 469.07,-155.27 466.05,-148.96"/>
</g>
<!-- Node8 -->
<g id="node8" class="node">
<title>Node8</title>
<g id="a_node8"><a xlink:href="Prototype_2sources_2Behaviour_2main_8cpp.html" target="_top" xlink:title=" ">
<polygon fill="white" stroke="black" points="660.09,-84 660.09,-114 817.09,-114 817.09,-84 660.09,-84"/>
<text text-anchor="start" x="668.09" y="-102" font-family="Helvetica,sans-Serif" font-size="10.00">Prototype/sources/Behaviour</text>
<text text-anchor="middle" x="738.59" y="-91" font-family="Helvetica,sans-Serif" font-size="10.00">/main.cpp</text>
</a>
</g>
</g>
<!-- Node1&#45;&gt;Node8 -->
<g id="edge8" class="edge">
<title>Node1&#45;&gt;Node8</title>
<path fill="none" stroke="midnightblue" d="M503.09,-155.76C558.68,-142.6 629.75,-125.77 679.21,-114.06"/>
<polygon fill="midnightblue" stroke="midnightblue" points="502.18,-152.38 493.26,-158.09 503.79,-159.19 502.18,-152.38"/>
</g>
<!-- Node9 -->
<g id="node9" class="node">
<title>Node9</title>
<g id="a_node9"><a xlink:href="Prototype_2sources_2Shaders_2main_8cpp.html" target="_top" xlink:title=" ">
<polygon fill="white" stroke="black" points="835.59,-84 835.59,-114 981.59,-114 981.59,-84 835.59,-84"/>
<text text-anchor="start" x="843.59" y="-102" font-family="Helvetica,sans-Serif" font-size="10.00">Prototype/sources/Shaders</text>
<text text-anchor="middle" x="908.59" y="-91" font-family="Helvetica,sans-Serif" font-size="10.00">/main.cpp</text>
</a>
</g>
</g>
<!-- Node1&#45;&gt;Node9 -->
<g id="edge9" class="edge">
<title>Node1&#45;&gt;Node9</title>
<path fill="none" stroke="midnightblue" d="M503.5,-166.85C586.55,-157.39 715.74,-141.05 826.59,-120 835.66,-118.28 845.23,-116.19 854.51,-114.03"/>
<polygon fill="midnightblue" stroke="midnightblue" points="502.89,-163.39 493.35,-168 503.68,-170.35 502.89,-163.39"/>
</g>
<!-- Node6&#45;&gt;Node2 -->
<g id="edge6" class="edge">
<title>Node6&#45;&gt;Node2</title>
<path fill="none" stroke="midnightblue" d="M501.53,-77.84C409.42,-57.14 312.87,-40.23 254.6,-30.54"/>
<polygon fill="midnightblue" stroke="midnightblue" points="500.76,-81.25 511.29,-80.05 502.31,-74.42 500.76,-81.25"/>
</g>
<!-- Node7 -->
<g id="node7" class="node">
<title>Node7</title>
<g id="a_node7"><a xlink:href="PauseSystem_8cpp.html" target="_top" xlink:title=" ">
<polygon fill="white" stroke="black" points="511.59,-0.5 511.59,-41.5 641.59,-41.5 641.59,-0.5 511.59,-0.5"/>
<text text-anchor="start" x="519.59" y="-29.5" font-family="Helvetica,sans-Serif" font-size="10.00">Libs/Engine/sources</text>
<text text-anchor="start" x="519.59" y="-18.5" font-family="Helvetica,sans-Serif" font-size="10.00">/Systems/PauseSystem</text>
<text text-anchor="middle" x="576.59" y="-7.5" font-family="Helvetica,sans-Serif" font-size="10.00">/PauseSystem.cpp</text>
</a>
</g>
</g>
<!-- Node6&#45;&gt;Node7 -->
<g id="edge7" class="edge">
<title>Node6&#45;&gt;Node7</title>
<path fill="none" stroke="midnightblue" d="M576.59,-68.3C576.59,-59.3 576.59,-49.65 576.59,-41.51"/>
<polygon fill="midnightblue" stroke="midnightblue" points="573.09,-68.43 576.59,-78.43 580.09,-68.43 573.09,-68.43"/>
</g>
</g>
</svg>
