<?xml version="1.0" encoding="UTF-8" standalone="no"?>
<!DOCTYPE svg PUBLIC "-//W3C//DTD SVG 1.1//EN"
 "http://www.w3.org/Graphics/SVG/1.1/DTD/svg11.dtd">
<!-- Generated by graphviz version 2.43.0 (0)
 -->
<!-- Title: Libs/Engine/sources/Components/Box/Box.hpp Pages: 1 -->
<svg width="1560pt" height="554pt"
 viewBox="0.00 0.00 1560.00 554.00" xmlns="http://www.w3.org/2000/svg" xmlns:xlink="http://www.w3.org/1999/xlink">
<g id="graph0" class="graph" transform="scale(1 1) rotate(0) translate(4 550)">
<title>Libs/Engine/sources/Components/Box/Box.hpp</title>
<polygon fill="white" stroke="transparent" points="-4,4 -4,-550 1556,-550 1556,4 -4,4"/>
<!-- Node1 -->
<g id="node1" class="node">
<title>Node1</title>
<g id="a_node1"><a xlink:title=" ">
<polygon fill="#bfbfbf" stroke="black" points="459,-515.5 459,-545.5 605,-545.5 605,-515.5 459,-515.5"/>
<text text-anchor="start" x="467" y="-533.5" font-family="Helvetica,sans-Serif" font-size="10.00">Libs/Engine/sources</text>
<text text-anchor="middle" x="532" y="-522.5" font-family="Helvetica,sans-Serif" font-size="10.00">/Components/Box/Box.hpp</text>
</a>
</g>
</g>
<!-- Node2 -->
<g id="node2" class="node">
<title>Node2</title>
<g id="a_node2"><a xlink:href="Destructible_8hpp.html" target="_top" xlink:title=" ">
<polygon fill="white" stroke="black" points="384.5,-291.5 384.5,-310.5 481.5,-310.5 481.5,-291.5 384.5,-291.5"/>
<text text-anchor="middle" x="433" y="-298.5" font-family="Helvetica,sans-Serif" font-size="10.00">Destructible.hpp</text>
</a>
</g>
</g>
<!-- Node1&#45;&gt;Node2 -->
<g id="edge1" class="edge">
<title>Node1&#45;&gt;Node2</title>
<path fill="none" stroke="midnightblue" d="M515.11,-515.1C505.07,-505.74 492.82,-492.74 485,-479 454.95,-426.22 440.88,-354.51 435.61,-320.87"/>
<polygon fill="midnightblue" stroke="midnightblue" points="439.03,-320.04 434.1,-310.66 432.1,-321.06 439.03,-320.04"/>
</g>
<!-- Node25 -->
<g id="node25" class="node">
<title>Node25</title>
<g id="a_node25"><a xlink:href="Coordinator_8hpp.html" target="_top" xlink:title=" ">
<polygon fill="white" stroke="black" points="1262,-403.5 1262,-422.5 1356,-422.5 1356,-403.5 1262,-403.5"/>
<text text-anchor="middle" x="1309" y="-410.5" font-family="Helvetica,sans-Serif" font-size="10.00">Coordinator.hpp</text>
</a>
</g>
</g>
<!-- Node1&#45;&gt;Node25 -->
<g id="edge37" class="edge">
<title>Node1&#45;&gt;Node25</title>
<path fill="none" stroke="midnightblue" d="M605.1,-518.63C758.79,-495.79 1112.64,-443.19 1251.54,-422.54"/>
<polygon fill="midnightblue" stroke="midnightblue" points="1252.19,-425.98 1261.56,-421.05 1251.16,-419.06 1252.19,-425.98"/>
</g>
<!-- Node29 -->
<g id="node29" class="node">
<title>Node29</title>
<g id="a_node29"><a xlink:href="Camera_8hpp.html" target="_top" xlink:title=" ">
<polygon fill="white" stroke="black" points="494,-459.5 494,-478.5 570,-478.5 570,-459.5 494,-459.5"/>
<text text-anchor="middle" x="532" y="-466.5" font-family="Helvetica,sans-Serif" font-size="10.00">Camera.hpp</text>
</a>
</g>
</g>
<!-- Node1&#45;&gt;Node29 -->
<g id="edge53" class="edge">
<title>Node1&#45;&gt;Node29</title>
<path fill="none" stroke="midnightblue" d="M532,-515.4C532,-507.47 532,-497.46 532,-488.86"/>
<polygon fill="midnightblue" stroke="midnightblue" points="535.5,-488.66 532,-478.66 528.5,-488.66 535.5,-488.66"/>
</g>
<!-- Node3 -->
<g id="node3" class="node">
<title>Node3</title>
<g id="a_node3"><a xlink:title=" ">
<polygon fill="white" stroke="#bfbfbf" points="403,-123.5 403,-142.5 465,-142.5 465,-123.5 403,-123.5"/>
<text text-anchor="middle" x="434" y="-130.5" font-family="Helvetica,sans-Serif" font-size="10.00">cinttypes</text>
</a>
</g>
</g>
<!-- Node2&#45;&gt;Node3 -->
<g id="edge2" class="edge">
<title>Node2&#45;&gt;Node3</title>
<path fill="none" stroke="midnightblue" d="M428.83,-291.27C424.79,-282.37 418.87,-268.05 416,-255 408.74,-221.96 404.38,-211.95 412,-179 414.23,-169.36 418.82,-159.41 423.24,-151.31"/>
<polygon fill="midnightblue" stroke="midnightblue" points="426.35,-152.92 428.36,-142.52 420.3,-149.4 426.35,-152.92"/>
</g>
<!-- Node4 -->
<g id="node4" class="node">
<title>Node4</title>
<g id="a_node4"><a xlink:href="IComponent_8hpp.html" target="_top" xlink:title=" ">
<polygon fill="white" stroke="black" points="534.5,-123.5 534.5,-142.5 631.5,-142.5 631.5,-123.5 534.5,-123.5"/>
<text text-anchor="middle" x="583" y="-130.5" font-family="Helvetica,sans-Serif" font-size="10.00">IComponent.hpp</text>
</a>
</g>
</g>
<!-- Node2&#45;&gt;Node4 -->
<g id="edge3" class="edge">
<title>Node2&#45;&gt;Node4</title>
<path fill="none" stroke="midnightblue" d="M430.94,-291.21C426.42,-269.47 418.01,-212.56 445,-179 464.06,-155.3 495.81,-143.94 524.06,-138.56"/>
<polygon fill="midnightblue" stroke="midnightblue" points="525,-141.95 534.28,-136.84 523.84,-135.05 525,-141.95"/>
</g>
<!-- Node10 -->
<g id="node10" class="node">
<title>Node10</title>
<g id="a_node10"><a xlink:href="Vector3_8hpp.html" target="_top" xlink:title=" ">
<polygon fill="white" stroke="black" points="133,-235.5 133,-254.5 207,-254.5 207,-235.5 133,-235.5"/>
<text text-anchor="middle" x="170" y="-242.5" font-family="Helvetica,sans-Serif" font-size="10.00">Vector3.hpp</text>
</a>
</g>
</g>
<!-- Node2&#45;&gt;Node10 -->
<g id="edge10" class="edge">
<title>Node2&#45;&gt;Node10</title>
<path fill="none" stroke="midnightblue" d="M391.33,-291.44C343.9,-281.71 266.61,-265.84 217.05,-255.66"/>
<polygon fill="midnightblue" stroke="midnightblue" points="217.73,-252.23 207.23,-253.64 216.32,-259.08 217.73,-252.23"/>
</g>
<!-- Node14 -->
<g id="node14" class="node">
<title>Node14</title>
<g id="a_node14"><a xlink:href="Entity_8hpp.html" target="_top" xlink:title=" ">
<polygon fill="white" stroke="black" points="722.5,-235.5 722.5,-254.5 787.5,-254.5 787.5,-235.5 722.5,-235.5"/>
<text text-anchor="middle" x="755" y="-242.5" font-family="Helvetica,sans-Serif" font-size="10.00">Entity.hpp</text>
</a>
</g>
</g>
<!-- Node2&#45;&gt;Node14 -->
<g id="edge15" class="edge">
<title>Node2&#45;&gt;Node14</title>
<path fill="none" stroke="midnightblue" d="M481.56,-291.86C544.2,-281.35 652.23,-263.24 712.03,-253.21"/>
<polygon fill="midnightblue" stroke="midnightblue" points="712.98,-256.6 722.26,-251.49 711.82,-249.69 712.98,-256.6"/>
</g>
<!-- Node5 -->
<g id="node5" class="node">
<title>Node5</title>
<g id="a_node5"><a xlink:title=" ">
<polygon fill="white" stroke="#bfbfbf" points="540.5,-6 540.5,-25 597.5,-25 597.5,-6 540.5,-6"/>
<text text-anchor="middle" x="569" y="-13" font-family="Helvetica,sans-Serif" font-size="10.00">ostream</text>
</a>
</g>
</g>
<!-- Node4&#45;&gt;Node5 -->
<g id="edge4" class="edge">
<title>Node4&#45;&gt;Node5</title>
<path fill="none" stroke="midnightblue" d="M581.95,-123.32C579.7,-104.76 574.37,-60.84 571.3,-35.47"/>
<polygon fill="midnightblue" stroke="midnightblue" points="574.74,-34.79 570.06,-25.28 567.79,-35.63 574.74,-34.79"/>
</g>
<!-- Node6 -->
<g id="node6" class="node">
<title>Node6</title>
<g id="a_node6"><a xlink:href="IXMLSerializable_8hpp.html" target="_top" xlink:title=" ">
<polygon fill="white" stroke="black" points="256.5,-67.5 256.5,-86.5 375.5,-86.5 375.5,-67.5 256.5,-67.5"/>
<text text-anchor="middle" x="316" y="-74.5" font-family="Helvetica,sans-Serif" font-size="10.00">IXMLSerializable.hpp</text>
</a>
</g>
</g>
<!-- Node4&#45;&gt;Node6 -->
<g id="edge5" class="edge">
<title>Node4&#45;&gt;Node6</title>
<path fill="none" stroke="midnightblue" d="M540.69,-123.44C493.92,-113.98 418.54,-98.74 368.15,-88.55"/>
<polygon fill="midnightblue" stroke="midnightblue" points="368.6,-85.07 358.11,-86.52 367.22,-91.93 368.6,-85.07"/>
</g>
<!-- Node6&#45;&gt;Node5 -->
<g id="edge6" class="edge">
<title>Node6&#45;&gt;Node5</title>
<path fill="none" stroke="midnightblue" d="M354.95,-67.45C394.75,-58.63 458.29,-44.33 513,-31 518.69,-29.61 524.69,-28.11 530.57,-26.61"/>
<polygon fill="midnightblue" stroke="midnightblue" points="531.45,-29.99 540.26,-24.11 529.71,-23.21 531.45,-29.99"/>
</g>
<!-- Node7 -->
<g id="node7" class="node">
<title>Node7</title>
<g id="a_node7"><a xlink:title=" ">
<polygon fill="white" stroke="#bfbfbf" points="181,-6 181,-25 241,-25 241,-6 181,-6"/>
<text text-anchor="middle" x="211" y="-13" font-family="Helvetica,sans-Serif" font-size="10.00">iostream</text>
</a>
</g>
</g>
<!-- Node6&#45;&gt;Node7 -->
<g id="edge7" class="edge">
<title>Node6&#45;&gt;Node7</title>
<path fill="none" stroke="midnightblue" d="M300.96,-67.48C283.72,-57.71 255.26,-41.58 234.97,-30.08"/>
<polygon fill="midnightblue" stroke="midnightblue" points="236.44,-26.89 226.02,-25.01 232.99,-32.98 236.44,-26.89"/>
</g>
<!-- Node8 -->
<g id="node8" class="node">
<title>Node8</title>
<g id="a_node8"><a xlink:title=" ">
<polygon fill="white" stroke="#bfbfbf" points="259.5,-0.5 259.5,-30.5 372.5,-30.5 372.5,-0.5 259.5,-0.5"/>
<text text-anchor="start" x="267.5" y="-18.5" font-family="Helvetica,sans-Serif" font-size="10.00">boost/property_tree</text>
<text text-anchor="middle" x="316" y="-7.5" font-family="Helvetica,sans-Serif" font-size="10.00">/ptree.hpp</text>
</a>
</g>
</g>
<!-- Node6&#45;&gt;Node8 -->
<g id="edge8" class="edge">
<title>Node6&#45;&gt;Node8</title>
<path fill="none" stroke="midnightblue" d="M316,-67.48C316,-60.47 316,-50.19 316,-40.7"/>
<polygon fill="midnightblue" stroke="midnightblue" points="319.5,-40.52 316,-30.52 312.5,-40.52 319.5,-40.52"/>
</g>
<!-- Node9 -->
<g id="node9" class="node">
<title>Node9</title>
<g id="a_node9"><a xlink:title=" ">
<polygon fill="white" stroke="#bfbfbf" points="390.5,-0.5 390.5,-30.5 503.5,-30.5 503.5,-0.5 390.5,-0.5"/>
<text text-anchor="start" x="398.5" y="-18.5" font-family="Helvetica,sans-Serif" font-size="10.00">boost/property_tree</text>
<text text-anchor="middle" x="447" y="-7.5" font-family="Helvetica,sans-Serif" font-size="10.00">/xml_parser.hpp</text>
</a>
</g>
</g>
<!-- Node6&#45;&gt;Node9 -->
<g id="edge9" class="edge">
<title>Node6&#45;&gt;Node9</title>
<path fill="none" stroke="midnightblue" d="M334.77,-67.48C353.51,-58.96 382.89,-45.62 406.89,-34.72"/>
<polygon fill="midnightblue" stroke="midnightblue" points="408.47,-37.85 416.13,-30.52 405.57,-31.47 408.47,-37.85"/>
</g>
<!-- Node10&#45;&gt;Node6 -->
<g id="edge12" class="edge">
<title>Node10&#45;&gt;Node6</title>
<path fill="none" stroke="midnightblue" d="M154.65,-235.44C135.21,-223.44 105.76,-200.66 119,-179 149.96,-128.33 215.31,-102.03 262.26,-89.14"/>
<polygon fill="midnightblue" stroke="midnightblue" points="263.2,-92.52 271.98,-86.59 261.42,-85.75 263.2,-92.52"/>
</g>
<!-- Node11 -->
<g id="node11" class="node">
<title>Node11</title>
<g id="a_node11"><a xlink:title=" ">
<polygon fill="white" stroke="#bfbfbf" points="306.5,-179.5 306.5,-198.5 359.5,-198.5 359.5,-179.5 306.5,-179.5"/>
<text text-anchor="middle" x="333" y="-186.5" font-family="Helvetica,sans-Serif" font-size="10.00">raylib.h</text>
</a>
</g>
</g>
<!-- Node10&#45;&gt;Node11 -->
<g id="edge11" class="edge">
<title>Node10&#45;&gt;Node11</title>
<path fill="none" stroke="midnightblue" d="M195.83,-235.44C223.25,-226.36 266.78,-211.94 297.43,-201.78"/>
<polygon fill="midnightblue" stroke="midnightblue" points="298.9,-204.98 307.29,-198.52 296.7,-198.34 298.9,-204.98"/>
</g>
<!-- Node12 -->
<g id="node12" class="node">
<title>Node12</title>
<g id="a_node12"><a xlink:title=" ">
<polygon fill="white" stroke="#bfbfbf" points="202.5,-179.5 202.5,-198.5 249.5,-198.5 249.5,-179.5 202.5,-179.5"/>
<text text-anchor="middle" x="226" y="-186.5" font-family="Helvetica,sans-Serif" font-size="10.00">cmath</text>
</a>
</g>
</g>
<!-- Node10&#45;&gt;Node12 -->
<g id="edge13" class="edge">
<title>Node10&#45;&gt;Node12</title>
<path fill="none" stroke="midnightblue" d="M179,-235.32C187.19,-227.42 199.51,-215.55 209.47,-205.94"/>
<polygon fill="midnightblue" stroke="midnightblue" points="212.07,-208.29 216.84,-198.83 207.21,-203.26 212.07,-208.29"/>
</g>
<!-- Node13 -->
<g id="node13" class="node">
<title>Node13</title>
<g id="a_node13"><a xlink:title=" ">
<polygon fill="white" stroke="#bfbfbf" points="128,-179.5 128,-198.5 184,-198.5 184,-179.5 128,-179.5"/>
<text text-anchor="middle" x="156" y="-186.5" font-family="Helvetica,sans-Serif" font-size="10.00">sstream</text>
</a>
</g>
</g>
<!-- Node10&#45;&gt;Node13 -->
<g id="edge14" class="edge">
<title>Node10&#45;&gt;Node13</title>
<path fill="none" stroke="midnightblue" d="M167.69,-235.08C165.83,-227.93 163.16,-217.64 160.85,-208.69"/>
<polygon fill="midnightblue" stroke="midnightblue" points="164.17,-207.55 158.27,-198.75 157.39,-209.31 164.17,-207.55"/>
</g>
<!-- Node14&#45;&gt;Node3 -->
<g id="edge16" class="edge">
<title>Node14&#45;&gt;Node3</title>
<path fill="none" stroke="midnightblue" d="M730.08,-235.46C673.31,-216.01 534.25,-168.36 468.95,-145.98"/>
<polygon fill="midnightblue" stroke="midnightblue" points="469.72,-142.54 459.13,-142.61 467.45,-149.16 469.72,-142.54"/>
</g>
<!-- Node14&#45;&gt;Node4 -->
<g id="edge36" class="edge">
<title>Node14&#45;&gt;Node4</title>
<path fill="none" stroke="midnightblue" d="M741.5,-235.37C711.99,-216.49 641.46,-171.38 605.26,-148.24"/>
<polygon fill="midnightblue" stroke="midnightblue" points="606.74,-145.03 596.43,-142.59 602.97,-150.93 606.74,-145.03"/>
</g>
<!-- Node15 -->
<g id="node15" class="node">
<title>Node15</title>
<g id="a_node15"><a xlink:title=" ">
<polygon fill="white" stroke="#bfbfbf" points="879.5,-123.5 879.5,-142.5 972.5,-142.5 972.5,-123.5 879.5,-123.5"/>
<text text-anchor="middle" x="926" y="-130.5" font-family="Helvetica,sans-Serif" font-size="10.00">unordered_map</text>
</a>
</g>
</g>
<!-- Node14&#45;&gt;Node15 -->
<g id="edge17" class="edge">
<title>Node14&#45;&gt;Node15</title>
<path fill="none" stroke="midnightblue" d="M768.42,-235.37C797.76,-216.49 867.88,-171.38 903.87,-148.24"/>
<polygon fill="midnightblue" stroke="midnightblue" points="906.13,-150.95 912.64,-142.59 902.34,-145.06 906.13,-150.95"/>
</g>
<!-- Node16 -->
<g id="node16" class="node">
<title>Node16</title>
<g id="a_node16"><a xlink:title=" ">
<polygon fill="white" stroke="#bfbfbf" points="1295,-123.5 1295,-142.5 1353,-142.5 1353,-123.5 1295,-123.5"/>
<text text-anchor="middle" x="1324" y="-130.5" font-family="Helvetica,sans-Serif" font-size="10.00">memory</text>
</a>
</g>
</g>
<!-- Node14&#45;&gt;Node16 -->
<g id="edge18" class="edge">
<title>Node14&#45;&gt;Node16</title>
<path fill="none" stroke="midnightblue" d="M787.7,-244.26C886.88,-244.56 1182.64,-241.78 1267,-199 1287.84,-188.43 1304.41,-166.68 1314.2,-151.25"/>
<polygon fill="midnightblue" stroke="midnightblue" points="1317.24,-152.99 1319.4,-142.62 1311.24,-149.38 1317.24,-152.99"/>
</g>
<!-- Node17 -->
<g id="node17" class="node">
<title>Node17</title>
<g id="a_node17"><a xlink:title=" ">
<polygon fill="white" stroke="#bfbfbf" points="688,-123.5 688,-142.5 752,-142.5 752,-123.5 688,-123.5"/>
<text text-anchor="middle" x="720" y="-130.5" font-family="Helvetica,sans-Serif" font-size="10.00">algorithm</text>
</a>
</g>
</g>
<!-- Node14&#45;&gt;Node17 -->
<g id="edge19" class="edge">
<title>Node14&#45;&gt;Node17</title>
<path fill="none" stroke="midnightblue" d="M752.25,-235.37C746.58,-217.54 733.46,-176.3 725.81,-152.27"/>
<polygon fill="midnightblue" stroke="midnightblue" points="729.1,-151.06 722.73,-142.59 722.43,-153.18 729.1,-151.06"/>
</g>
<!-- Node18 -->
<g id="node18" class="node">
<title>Node18</title>
<g id="a_node18"><a xlink:title=" ">
<polygon fill="white" stroke="#bfbfbf" points="1079.5,-123.5 1079.5,-142.5 1126.5,-142.5 1126.5,-123.5 1079.5,-123.5"/>
<text text-anchor="middle" x="1103" y="-130.5" font-family="Helvetica,sans-Serif" font-size="10.00">vector</text>
</a>
</g>
</g>
<!-- Node14&#45;&gt;Node18 -->
<g id="edge20" class="edge">
<title>Node14&#45;&gt;Node18</title>
<path fill="none" stroke="midnightblue" d="M787.59,-242.8C857.7,-239.66 1020.13,-229.24 1065,-199 1081.22,-188.07 1091.47,-167.7 1097.18,-152.67"/>
<polygon fill="midnightblue" stroke="midnightblue" points="1100.6,-153.47 1100.55,-142.87 1093.98,-151.19 1100.6,-153.47"/>
</g>
<!-- Node19 -->
<g id="node19" class="node">
<title>Node19</title>
<g id="a_node19"><a xlink:title=" ">
<polygon fill="white" stroke="#bfbfbf" points="770.5,-123.5 770.5,-142.5 861.5,-142.5 861.5,-123.5 770.5,-123.5"/>
<text text-anchor="middle" x="816" y="-130.5" font-family="Helvetica,sans-Serif" font-size="10.00">Exceptions.hpp</text>
</a>
</g>
</g>
<!-- Node14&#45;&gt;Node19 -->
<g id="edge21" class="edge">
<title>Node14&#45;&gt;Node19</title>
<path fill="none" stroke="midnightblue" d="M759.79,-235.37C769.76,-217.38 792.96,-175.55 806.23,-151.63"/>
<polygon fill="midnightblue" stroke="midnightblue" points="809.45,-153.03 811.24,-142.59 803.33,-149.64 809.45,-153.03"/>
</g>
<!-- Node20 -->
<g id="node20" class="node">
<title>Node20</title>
<g id="a_node20"><a xlink:href="ComponentManager_8hpp.html" target="_top" xlink:title=" ">
<polygon fill="white" stroke="black" points="920,-179.5 920,-198.5 1056,-198.5 1056,-179.5 920,-179.5"/>
<text text-anchor="middle" x="988" y="-186.5" font-family="Helvetica,sans-Serif" font-size="10.00">ComponentManager.hpp</text>
</a>
</g>
</g>
<!-- Node14&#45;&gt;Node20 -->
<g id="edge22" class="edge">
<title>Node14&#45;&gt;Node20</title>
<path fill="none" stroke="midnightblue" d="M787.89,-236.38C827.89,-227.11 895.69,-211.39 941.14,-200.86"/>
<polygon fill="midnightblue" stroke="midnightblue" points="942.1,-204.23 951.05,-198.56 940.52,-197.41 942.1,-204.23"/>
</g>
<!-- Node23 -->
<g id="node23" class="node">
<title>Node23</title>
<g id="a_node23"><a xlink:href="EntityManager_8hpp.html" target="_top" xlink:title=" ">
<polygon fill="white" stroke="black" points="1150,-179.5 1150,-198.5 1258,-198.5 1258,-179.5 1150,-179.5"/>
<text text-anchor="middle" x="1204" y="-186.5" font-family="Helvetica,sans-Serif" font-size="10.00">EntityManager.hpp</text>
</a>
</g>
</g>
<!-- Node14&#45;&gt;Node23 -->
<g id="edge31" class="edge">
<title>Node14&#45;&gt;Node23</title>
<path fill="none" stroke="midnightblue" d="M787.65,-240.07C861.52,-231.19 1042.58,-209.41 1139.8,-197.72"/>
<polygon fill="midnightblue" stroke="midnightblue" points="1140.29,-201.19 1149.8,-196.52 1139.45,-194.24 1140.29,-201.19"/>
</g>
<!-- Node20&#45;&gt;Node4 -->
<g id="edge29" class="edge">
<title>Node20&#45;&gt;Node4</title>
<path fill="none" stroke="midnightblue" d="M923.83,-179.44C846.29,-169.1 716.91,-151.85 641.84,-141.85"/>
<polygon fill="midnightblue" stroke="midnightblue" points="641.99,-138.34 631.62,-140.48 641.07,-145.27 641.99,-138.34"/>
</g>
<!-- Node20&#45;&gt;Node15 -->
<g id="edge23" class="edge">
<title>Node20&#45;&gt;Node15</title>
<path fill="none" stroke="midnightblue" d="M978.04,-179.32C968.87,-171.34 955.06,-159.31 943.97,-149.65"/>
<polygon fill="midnightblue" stroke="midnightblue" points="945.98,-146.76 936.14,-142.83 941.38,-152.04 945.98,-146.76"/>
</g>
<!-- Node20&#45;&gt;Node16 -->
<g id="edge26" class="edge">
<title>Node20&#45;&gt;Node16</title>
<path fill="none" stroke="midnightblue" d="M1055.14,-179.48C1113.41,-171.71 1200.23,-159.26 1284.59,-143.15"/>
<polygon fill="midnightblue" stroke="midnightblue" points="1285.44,-146.55 1294.59,-141.22 1284.11,-139.68 1285.44,-146.55"/>
</g>
<!-- Node20&#45;&gt;Node17 -->
<g id="edge27" class="edge">
<title>Node20&#45;&gt;Node17</title>
<path fill="none" stroke="midnightblue" d="M944.21,-179.48C898.66,-170.56 825.27,-156.08 762,-143 761.9,-142.98 761.8,-142.96 761.7,-142.94"/>
<polygon fill="midnightblue" stroke="midnightblue" points="762.6,-139.55 752.09,-140.93 761.16,-146.4 762.6,-139.55"/>
</g>
<!-- Node20&#45;&gt;Node18 -->
<g id="edge25" class="edge">
<title>Node20&#45;&gt;Node18</title>
<path fill="none" stroke="midnightblue" d="M1006.22,-179.44C1024.9,-170.68 1054.16,-156.94 1075.62,-146.86"/>
<polygon fill="midnightblue" stroke="midnightblue" points="1077.3,-149.93 1084.86,-142.52 1074.32,-143.6 1077.3,-149.93"/>
</g>
<!-- Node20&#45;&gt;Node19 -->
<g id="edge28" class="edge">
<title>Node20&#45;&gt;Node19</title>
<path fill="none" stroke="midnightblue" d="M960.75,-179.44C931.56,-170.28 885.08,-155.69 852.69,-145.52"/>
<polygon fill="midnightblue" stroke="midnightblue" points="853.72,-142.17 843.13,-142.52 851.62,-148.85 853.72,-142.17"/>
</g>
<!-- Node21 -->
<g id="node21" class="node">
<title>Node21</title>
<g id="a_node21"><a xlink:title=" ">
<polygon fill="white" stroke="#bfbfbf" points="1416,-123.5 1416,-142.5 1460,-142.5 1460,-123.5 1416,-123.5"/>
<text text-anchor="middle" x="1438" y="-130.5" font-family="Helvetica,sans-Serif" font-size="10.00">string</text>
</a>
</g>
</g>
<!-- Node20&#45;&gt;Node21 -->
<g id="edge24" class="edge">
<title>Node20&#45;&gt;Node21</title>
<path fill="none" stroke="midnightblue" d="M1056.35,-179.8C1154.8,-167.98 1332.71,-146.63 1405.56,-137.89"/>
<polygon fill="midnightblue" stroke="midnightblue" points="1406.41,-141.32 1415.93,-136.65 1405.58,-134.37 1406.41,-141.32"/>
</g>
<!-- Node22 -->
<g id="node22" class="node">
<title>Node22</title>
<g id="a_node22"><a xlink:title=" ">
<polygon fill="white" stroke="#bfbfbf" points="1239,-123.5 1239,-142.5 1277,-142.5 1277,-123.5 1239,-123.5"/>
<text text-anchor="middle" x="1258" y="-130.5" font-family="Helvetica,sans-Serif" font-size="10.00">map</text>
</a>
</g>
</g>
<!-- Node20&#45;&gt;Node22 -->
<g id="edge30" class="edge">
<title>Node20&#45;&gt;Node22</title>
<path fill="none" stroke="midnightblue" d="M1043.91,-179.45C1093.01,-171.5 1166.2,-158.55 1229,-143 1229.1,-142.98 1229.2,-142.95 1229.3,-142.93"/>
<polygon fill="midnightblue" stroke="midnightblue" points="1230.04,-146.35 1238.74,-140.32 1228.17,-139.61 1230.04,-146.35"/>
</g>
<!-- Node23&#45;&gt;Node3 -->
<g id="edge33" class="edge">
<title>Node23&#45;&gt;Node3</title>
<path fill="none" stroke="midnightblue" d="M1149.74,-184.45C994.37,-174.26 556.9,-145.54 526,-143 509.34,-141.63 491,-139.89 475.11,-138.3"/>
<polygon fill="midnightblue" stroke="midnightblue" points="475.37,-134.81 465.07,-137.28 474.66,-141.77 475.37,-134.81"/>
</g>
<!-- Node23&#45;&gt;Node16 -->
<g id="edge34" class="edge">
<title>Node23&#45;&gt;Node16</title>
<path fill="none" stroke="midnightblue" d="M1223.01,-179.44C1242.59,-170.64 1273.31,-156.81 1295.73,-146.72"/>
<polygon fill="midnightblue" stroke="midnightblue" points="1297.39,-149.81 1305.07,-142.52 1294.52,-143.43 1297.39,-149.81"/>
</g>
<!-- Node23&#45;&gt;Node18 -->
<g id="edge32" class="edge">
<title>Node23&#45;&gt;Node18</title>
<path fill="none" stroke="midnightblue" d="M1187.77,-179.32C1171.65,-170.7 1146.7,-157.36 1128.04,-147.39"/>
<polygon fill="midnightblue" stroke="midnightblue" points="1129.66,-144.28 1119.19,-142.65 1126.36,-150.46 1129.66,-144.28"/>
</g>
<!-- Node24 -->
<g id="node24" class="node">
<title>Node24</title>
<g id="a_node24"><a xlink:title=" ">
<polygon fill="white" stroke="#bfbfbf" points="1188,-123.5 1188,-142.5 1220,-142.5 1220,-123.5 1188,-123.5"/>
<text text-anchor="middle" x="1204" y="-130.5" font-family="Helvetica,sans-Serif" font-size="10.00">list</text>
</a>
</g>
</g>
<!-- Node23&#45;&gt;Node24 -->
<g id="edge35" class="edge">
<title>Node23&#45;&gt;Node24</title>
<path fill="none" stroke="midnightblue" d="M1204,-179.08C1204,-172.01 1204,-161.86 1204,-152.99"/>
<polygon fill="midnightblue" stroke="midnightblue" points="1207.5,-152.75 1204,-142.75 1200.5,-152.75 1207.5,-152.75"/>
</g>
<!-- Node25&#45;&gt;Node16 -->
<g id="edge39" class="edge">
<title>Node25&#45;&gt;Node16</title>
<path fill="none" stroke="midnightblue" d="M1356.33,-408.06C1387.45,-403.12 1427.06,-391.99 1453,-367 1475.07,-345.74 1476,-332.64 1476,-302 1476,-302 1476,-302 1476,-244 1476,-188.28 1408.13,-157.91 1363.09,-143.89"/>
<polygon fill="midnightblue" stroke="midnightblue" points="1363.89,-140.48 1353.31,-140.99 1361.9,-147.19 1363.89,-140.48"/>
</g>
<!-- Node25&#45;&gt;Node21 -->
<g id="edge40" class="edge">
<title>Node25&#45;&gt;Node21</title>
<path fill="none" stroke="midnightblue" d="M1356.14,-410.99C1426.81,-406.7 1552,-387.09 1552,-302 1552,-302 1552,-302 1552,-244 1552,-197.11 1501.45,-163.89 1467.67,-146.93"/>
<polygon fill="midnightblue" stroke="midnightblue" points="1469.17,-143.77 1458.64,-142.58 1466.13,-150.07 1469.17,-143.77"/>
</g>
<!-- Node25&#45;&gt;Node22 -->
<g id="edge41" class="edge">
<title>Node25&#45;&gt;Node22</title>
<path fill="none" stroke="midnightblue" d="M1307.46,-403.1C1302.08,-372.13 1283.58,-266.22 1267,-179 1265.34,-170.28 1263.42,-160.63 1261.78,-152.51"/>
<polygon fill="midnightblue" stroke="midnightblue" points="1265.2,-151.72 1259.77,-142.62 1258.34,-153.11 1265.2,-151.72"/>
</g>
<!-- Node25&#45;&gt;Node23 -->
<g id="edge52" class="edge">
<title>Node25&#45;&gt;Node23</title>
<path fill="none" stroke="midnightblue" d="M1304.88,-403.3C1289.34,-370.42 1233.98,-253.39 1212.56,-208.09"/>
<polygon fill="midnightblue" stroke="midnightblue" points="1215.64,-206.43 1208.2,-198.88 1209.31,-209.42 1215.64,-206.43"/>
</g>
<!-- Node26 -->
<g id="node26" class="node">
<title>Node26</title>
<g id="a_node26"><a xlink:title=" ">
<polygon fill="white" stroke="#bfbfbf" points="1394,-347.5 1394,-366.5 1444,-366.5 1444,-347.5 1394,-347.5"/>
<text text-anchor="middle" x="1419" y="-354.5" font-family="Helvetica,sans-Serif" font-size="10.00">chrono</text>
</a>
</g>
</g>
<!-- Node25&#45;&gt;Node26 -->
<g id="edge38" class="edge">
<title>Node25&#45;&gt;Node26</title>
<path fill="none" stroke="midnightblue" d="M1326.67,-403.32C1344.39,-394.62 1371.9,-381.12 1392.29,-371.11"/>
<polygon fill="midnightblue" stroke="midnightblue" points="1393.94,-374.2 1401.37,-366.65 1390.85,-367.92 1393.94,-374.2"/>
</g>
<!-- Node27 -->
<g id="node27" class="node">
<title>Node27</title>
<g id="a_node27"><a xlink:href="SystemManager_8hpp.html" target="_top" xlink:title=" ">
<polygon fill="white" stroke="black" points="1064,-347.5 1064,-366.5 1180,-366.5 1180,-347.5 1064,-347.5"/>
<text text-anchor="middle" x="1122" y="-354.5" font-family="Helvetica,sans-Serif" font-size="10.00">SystemManager.hpp</text>
</a>
</g>
</g>
<!-- Node25&#45;&gt;Node27 -->
<g id="edge42" class="edge">
<title>Node25&#45;&gt;Node27</title>
<path fill="none" stroke="midnightblue" d="M1279.37,-403.44C1247.5,-394.24 1196.67,-379.56 1161.44,-369.39"/>
<polygon fill="midnightblue" stroke="midnightblue" points="1162.07,-365.93 1151.49,-366.52 1160.13,-372.65 1162.07,-365.93"/>
</g>
<!-- Node27&#45;&gt;Node15 -->
<g id="edge46" class="edge">
<title>Node27&#45;&gt;Node15</title>
<path fill="none" stroke="midnightblue" d="M1099.63,-347.49C1054.04,-328.77 951.28,-279.17 911,-199 903.54,-184.16 909.15,-165.54 915.52,-152.04"/>
<polygon fill="midnightblue" stroke="midnightblue" points="918.79,-153.34 920.34,-142.86 912.6,-150.09 918.79,-153.34"/>
</g>
<!-- Node27&#45;&gt;Node16 -->
<g id="edge43" class="edge">
<title>Node27&#45;&gt;Node16</title>
<path fill="none" stroke="midnightblue" d="M1134.27,-347.39C1164.61,-325.6 1244.26,-265.21 1293,-199 1303.64,-184.54 1312.1,-165.85 1317.48,-152.22"/>
<polygon fill="midnightblue" stroke="midnightblue" points="1320.87,-153.15 1321.11,-142.56 1314.31,-150.69 1320.87,-153.15"/>
</g>
<!-- Node27&#45;&gt;Node17 -->
<g id="edge44" class="edge">
<title>Node27&#45;&gt;Node17</title>
<path fill="none" stroke="midnightblue" d="M1063.95,-350.3C961.85,-338.94 756.84,-309.74 714,-255 690.86,-225.43 702.91,-178.27 712.32,-152.43"/>
<polygon fill="midnightblue" stroke="midnightblue" points="715.72,-153.36 716.08,-142.77 709.19,-150.81 715.72,-153.36"/>
</g>
<!-- Node27&#45;&gt;Node19 -->
<g id="edge51" class="edge">
<title>Node27&#45;&gt;Node19</title>
<path fill="none" stroke="midnightblue" d="M1085.8,-347.49C1059.18,-340.26 1022.78,-328.27 994,-311 920.59,-266.96 855.03,-186.28 828.5,-151.13"/>
<polygon fill="midnightblue" stroke="midnightblue" points="831.12,-148.79 822.34,-142.86 825.5,-152.97 831.12,-148.79"/>
</g>
<!-- Node27&#45;&gt;Node21 -->
<g id="edge45" class="edge">
<title>Node27&#45;&gt;Node21</title>
<path fill="none" stroke="midnightblue" d="M1140.4,-347.37C1157.96,-338.87 1184.93,-325.15 1207,-311 1290.82,-257.23 1382.5,-181.34 1420.25,-149.26"/>
<polygon fill="midnightblue" stroke="midnightblue" points="1422.53,-151.92 1427.86,-142.76 1417.99,-146.59 1422.53,-151.92"/>
</g>
<!-- Node28 -->
<g id="node28" class="node">
<title>Node28</title>
<g id="a_node28"><a xlink:href="ASystem_8hpp.html" target="_top" xlink:title=" ">
<polygon fill="white" stroke="black" points="1081.5,-291.5 1081.5,-310.5 1162.5,-310.5 1162.5,-291.5 1081.5,-291.5"/>
<text text-anchor="middle" x="1122" y="-298.5" font-family="Helvetica,sans-Serif" font-size="10.00">ASystem.hpp</text>
</a>
</g>
</g>
<!-- Node27&#45;&gt;Node28 -->
<g id="edge47" class="edge">
<title>Node27&#45;&gt;Node28</title>
<path fill="none" stroke="midnightblue" d="M1122,-347.08C1122,-340.01 1122,-329.86 1122,-320.99"/>
<polygon fill="midnightblue" stroke="midnightblue" points="1125.5,-320.75 1122,-310.75 1118.5,-320.75 1125.5,-320.75"/>
</g>
<!-- Node28&#45;&gt;Node14 -->
<g id="edge50" class="edge">
<title>Node28&#45;&gt;Node14</title>
<path fill="none" stroke="midnightblue" d="M1081.32,-294.01C1011.33,-283.72 868.77,-262.74 797.53,-252.26"/>
<polygon fill="midnightblue" stroke="midnightblue" points="797.95,-248.78 787.55,-250.79 796.93,-255.71 797.95,-248.78"/>
</g>
<!-- Node28&#45;&gt;Node18 -->
<g id="edge49" class="edge">
<title>Node28&#45;&gt;Node18</title>
<path fill="none" stroke="midnightblue" d="M1120.98,-291.08C1117.99,-264.95 1109.2,-188.21 1105.13,-152.58"/>
<polygon fill="midnightblue" stroke="midnightblue" points="1108.6,-152.11 1103.98,-142.57 1101.64,-152.9 1108.6,-152.11"/>
</g>
<!-- Node28&#45;&gt;Node21 -->
<g id="edge48" class="edge">
<title>Node28&#45;&gt;Node21</title>
<path fill="none" stroke="midnightblue" d="M1138.54,-291.31C1190.38,-264.08 1349.88,-180.29 1412.44,-147.43"/>
<polygon fill="midnightblue" stroke="midnightblue" points="1414.39,-150.35 1421.62,-142.61 1411.14,-144.16 1414.39,-150.35"/>
</g>
<!-- Node29&#45;&gt;Node4 -->
<g id="edge54" class="edge">
<title>Node29&#45;&gt;Node4</title>
<path fill="none" stroke="midnightblue" d="M533.31,-459.41C540.03,-415.38 570.67,-214.74 580.18,-152.48"/>
<polygon fill="midnightblue" stroke="midnightblue" points="583.65,-152.95 581.7,-142.54 576.73,-151.89 583.65,-152.95"/>
</g>
<!-- Node29&#45;&gt;Node10 -->
<g id="edge55" class="edge">
<title>Node29&#45;&gt;Node10</title>
<path fill="none" stroke="midnightblue" d="M499.85,-459.47C430.6,-440.8 269.67,-395.68 221,-367 189.57,-348.48 175.54,-344.45 161,-311 154.55,-296.16 158.03,-277.78 162.4,-264.35"/>
<polygon fill="midnightblue" stroke="midnightblue" points="165.75,-265.41 165.93,-254.81 159.18,-262.98 165.75,-265.41"/>
</g>
<!-- Node29&#45;&gt;Node14 -->
<g id="edge66" class="edge">
<title>Node29&#45;&gt;Node14</title>
<path fill="none" stroke="midnightblue" d="M543.07,-459.39C554.21,-450.58 571.73,-436.33 586,-423 646.12,-366.81 712.01,-294.32 740.52,-262.37"/>
<polygon fill="midnightblue" stroke="midnightblue" points="743.21,-264.61 747.24,-254.81 737.98,-259.96 743.21,-264.61"/>
</g>
<!-- Node29&#45;&gt;Node25 -->
<g id="edge74" class="edge">
<title>Node29&#45;&gt;Node25</title>
<path fill="none" stroke="midnightblue" d="M570,-465.36C696.01,-456.6 1100.63,-428.48 1251.54,-417.99"/>
<polygon fill="midnightblue" stroke="midnightblue" points="1252.23,-421.45 1261.96,-417.27 1251.74,-414.47 1252.23,-421.45"/>
</g>
<!-- Node30 -->
<g id="node30" class="node">
<title>Node30</title>
<g id="a_node30"><a xlink:href="Camera3D_8hpp.html" target="_top" xlink:title=" ">
<polygon fill="white" stroke="black" points="229.5,-347.5 229.5,-366.5 318.5,-366.5 318.5,-347.5 229.5,-347.5"/>
<text text-anchor="middle" x="274" y="-354.5" font-family="Helvetica,sans-Serif" font-size="10.00">Camera3D.hpp</text>
</a>
</g>
</g>
<!-- Node29&#45;&gt;Node30 -->
<g id="edge56" class="edge">
<title>Node29&#45;&gt;Node30</title>
<path fill="none" stroke="midnightblue" d="M515.88,-459.41C491.13,-446.39 442.08,-421.22 399,-403 369.56,-390.55 335.35,-378.39 310.18,-369.86"/>
<polygon fill="midnightblue" stroke="midnightblue" points="311.25,-366.53 300.66,-366.66 309.02,-373.16 311.25,-366.53"/>
</g>
<!-- Node33 -->
<g id="node33" class="node">
<title>Node33</title>
<g id="a_node33"><a xlink:href="Transform_8hpp.html" target="_top" xlink:title=" ">
<polygon fill="white" stroke="black" points="0,-291.5 0,-310.5 86,-310.5 86,-291.5 0,-291.5"/>
<text text-anchor="middle" x="43" y="-298.5" font-family="Helvetica,sans-Serif" font-size="10.00">Transform.hpp</text>
</a>
</g>
</g>
<!-- Node29&#45;&gt;Node33 -->
<g id="edge67" class="edge">
<title>Node29&#45;&gt;Node33</title>
<path fill="none" stroke="midnightblue" d="M493.76,-461.4C424.09,-448.6 272.63,-417.17 153,-367 119.89,-353.11 84.67,-330.8 63.25,-316.27"/>
<polygon fill="midnightblue" stroke="midnightblue" points="65.18,-313.35 54.96,-310.56 61.21,-319.12 65.18,-313.35"/>
</g>
<!-- Node34 -->
<g id="node34" class="node">
<title>Node34</title>
<g id="a_node34"><a xlink:href="IBehaviour_8hpp.html" target="_top" xlink:title=" ">
<polygon fill="white" stroke="black" points="581.5,-291.5 581.5,-310.5 670.5,-310.5 670.5,-291.5 581.5,-291.5"/>
<text text-anchor="middle" x="626" y="-298.5" font-family="Helvetica,sans-Serif" font-size="10.00">IBehaviour.hpp</text>
</a>
</g>
</g>
<!-- Node29&#45;&gt;Node34 -->
<g id="edge71" class="edge">
<title>Node29&#45;&gt;Node34</title>
<path fill="none" stroke="midnightblue" d="M539.54,-459.43C547.05,-450.66 558.62,-436.44 567,-423 588.75,-388.1 608.48,-344.01 618.68,-319.85"/>
<polygon fill="midnightblue" stroke="midnightblue" points="621.95,-321.11 622.57,-310.53 615.49,-318.42 621.95,-321.11"/>
</g>
<!-- Node35 -->
<g id="node35" class="node">
<title>Node35</title>
<g id="a_node35"><a xlink:href="Sound_8hpp.html" target="_top" xlink:title=" ">
<polygon fill="white" stroke="black" points="468,-235.5 468,-254.5 536,-254.5 536,-235.5 468,-235.5"/>
<text text-anchor="middle" x="502" y="-242.5" font-family="Helvetica,sans-Serif" font-size="10.00">Sound.hpp</text>
</a>
</g>
</g>
<!-- Node29&#45;&gt;Node35 -->
<g id="edge75" class="edge">
<title>Node29&#45;&gt;Node35</title>
<path fill="none" stroke="midnightblue" d="M530.82,-459.3C526.41,-426.63 510.77,-310.87 504.56,-264.96"/>
<polygon fill="midnightblue" stroke="midnightblue" points="508.01,-264.32 503.2,-254.88 501.07,-265.26 508.01,-264.32"/>
</g>
<!-- Node30&#45;&gt;Node10 -->
<g id="edge63" class="edge">
<title>Node30&#45;&gt;Node10</title>
<path fill="none" stroke="midnightblue" d="M229.46,-348.13C208,-341.88 184.13,-330.74 171,-311 162.02,-297.51 162.8,-278.7 165.22,-264.78"/>
<polygon fill="midnightblue" stroke="midnightblue" points="168.67,-265.38 167.35,-254.87 161.83,-263.91 168.67,-265.38"/>
</g>
<!-- Node30&#45;&gt;Node11 -->
<g id="edge57" class="edge">
<title>Node30&#45;&gt;Node11</title>
<path fill="none" stroke="midnightblue" d="M294.85,-347.43C309.58,-340.13 328.2,-328.09 337,-311 353.93,-278.1 345.69,-233.23 338.88,-208.41"/>
<polygon fill="midnightblue" stroke="midnightblue" points="342.15,-207.13 335.95,-198.53 335.44,-209.12 342.15,-207.13"/>
</g>
<!-- Node31 -->
<g id="node31" class="node">
<title>Node31</title>
<g id="a_node31"><a xlink:href="Vector2_8hpp.html" target="_top" xlink:title=" ">
<polygon fill="white" stroke="black" points="254,-291.5 254,-310.5 328,-310.5 328,-291.5 254,-291.5"/>
<text text-anchor="middle" x="291" y="-298.5" font-family="Helvetica,sans-Serif" font-size="10.00">Vector2.hpp</text>
</a>
</g>
</g>
<!-- Node30&#45;&gt;Node31 -->
<g id="edge58" class="edge">
<title>Node30&#45;&gt;Node31</title>
<path fill="none" stroke="midnightblue" d="M276.81,-347.08C279.08,-339.85 282.37,-329.41 285.21,-320.4"/>
<polygon fill="midnightblue" stroke="midnightblue" points="288.58,-321.34 288.25,-310.75 281.9,-319.24 288.58,-321.34"/>
</g>
<!-- Node32 -->
<g id="node32" class="node">
<title>Node32</title>
<g id="a_node32"><a xlink:href="Ray_8hpp.html" target="_top" xlink:title=" ">
<polygon fill="white" stroke="black" points="180.5,-291.5 180.5,-310.5 235.5,-310.5 235.5,-291.5 180.5,-291.5"/>
<text text-anchor="middle" x="208" y="-298.5" font-family="Helvetica,sans-Serif" font-size="10.00">Ray.hpp</text>
</a>
</g>
</g>
<!-- Node30&#45;&gt;Node32 -->
<g id="edge64" class="edge">
<title>Node30&#45;&gt;Node32</title>
<path fill="none" stroke="midnightblue" d="M263.4,-347.32C253.54,-339.26 238.65,-327.08 226.78,-317.37"/>
<polygon fill="midnightblue" stroke="midnightblue" points="228.75,-314.46 218.8,-310.83 224.32,-319.88 228.75,-314.46"/>
</g>
<!-- Node31&#45;&gt;Node6 -->
<g id="edge62" class="edge">
<title>Node31&#45;&gt;Node6</title>
<path fill="none" stroke="midnightblue" d="M291.15,-291.46C291.56,-271.64 293.06,-221.01 298,-179 301.41,-150.03 307.82,-116.79 312,-96.6"/>
<polygon fill="midnightblue" stroke="midnightblue" points="315.47,-97.1 314.11,-86.6 308.62,-95.66 315.47,-97.1"/>
</g>
<!-- Node31&#45;&gt;Node10 -->
<g id="edge61" class="edge">
<title>Node31&#45;&gt;Node10</title>
<path fill="none" stroke="midnightblue" d="M271.83,-291.44C252.09,-282.64 221.11,-268.81 198.51,-258.72"/>
<polygon fill="midnightblue" stroke="midnightblue" points="199.64,-255.4 189.08,-254.52 196.79,-261.79 199.64,-255.4"/>
</g>
<!-- Node31&#45;&gt;Node11 -->
<g id="edge59" class="edge">
<title>Node31&#45;&gt;Node11</title>
<path fill="none" stroke="midnightblue" d="M294.3,-291.37C301.13,-273.46 316.99,-231.92 326.15,-207.95"/>
<polygon fill="midnightblue" stroke="midnightblue" points="329.42,-209.18 329.72,-198.59 322.88,-206.69 329.42,-209.18"/>
</g>
<!-- Node31&#45;&gt;Node12 -->
<g id="edge60" class="edge">
<title>Node31&#45;&gt;Node12</title>
<path fill="none" stroke="midnightblue" d="M285.79,-291.39C280.34,-282.35 271.52,-267.7 264,-255 254.55,-239.05 243.91,-220.82 236.29,-207.73"/>
<polygon fill="midnightblue" stroke="midnightblue" points="239.18,-205.74 231.13,-198.85 233.13,-209.25 239.18,-205.74"/>
</g>
<!-- Node32&#45;&gt;Node10 -->
<g id="edge65" class="edge">
<title>Node32&#45;&gt;Node10</title>
<path fill="none" stroke="midnightblue" d="M201.73,-291.08C196.36,-283.46 188.48,-272.26 181.92,-262.94"/>
<polygon fill="midnightblue" stroke="midnightblue" points="184.78,-260.91 176.16,-254.75 179.05,-264.94 184.78,-260.91"/>
</g>
<!-- Node33&#45;&gt;Node3 -->
<g id="edge68" class="edge">
<title>Node33&#45;&gt;Node3</title>
<path fill="none" stroke="midnightblue" d="M43.19,-291.26C44.2,-268.62 50.26,-207.84 86,-179 132.33,-141.62 310.73,-135.09 392.56,-134.09"/>
<polygon fill="midnightblue" stroke="midnightblue" points="392.78,-137.59 402.74,-133.99 392.71,-130.59 392.78,-137.59"/>
</g>
<!-- Node33&#45;&gt;Node4 -->
<g id="edge69" class="edge">
<title>Node33&#45;&gt;Node4</title>
<path fill="none" stroke="midnightblue" d="M47.16,-291.37C59.54,-266.03 96.73,-192.75 119,-179 127.54,-173.73 401.59,-149.59 524.44,-139"/>
<polygon fill="midnightblue" stroke="midnightblue" points="524.77,-142.49 534.43,-138.14 524.17,-135.52 524.77,-142.49"/>
</g>
<!-- Node33&#45;&gt;Node10 -->
<g id="edge70" class="edge">
<title>Node33&#45;&gt;Node10</title>
<path fill="none" stroke="midnightblue" d="M63.12,-291.44C84.02,-282.56 116.93,-268.56 140.72,-258.45"/>
<polygon fill="midnightblue" stroke="midnightblue" points="142.14,-261.65 149.97,-254.52 139.4,-255.21 142.14,-261.65"/>
</g>
<!-- Node34&#45;&gt;Node4 -->
<g id="edge72" class="edge">
<title>Node34&#45;&gt;Node4</title>
<path fill="none" stroke="midnightblue" d="M624.9,-291.34C622.22,-271.28 614.62,-220.15 602,-179 599.2,-169.88 595.19,-160.08 591.58,-151.97"/>
<polygon fill="midnightblue" stroke="midnightblue" points="594.7,-150.38 587.33,-142.77 588.34,-153.31 594.7,-150.38"/>
</g>
<!-- Node34&#45;&gt;Node14 -->
<g id="edge73" class="edge">
<title>Node34&#45;&gt;Node14</title>
<path fill="none" stroke="midnightblue" d="M646.44,-291.44C667.67,-282.56 701.1,-268.56 725.25,-258.45"/>
<polygon fill="midnightblue" stroke="midnightblue" points="726.78,-261.61 734.66,-254.52 724.08,-255.15 726.78,-261.61"/>
</g>
<!-- Node35&#45;&gt;Node11 -->
<g id="edge77" class="edge">
<title>Node35&#45;&gt;Node11</title>
<path fill="none" stroke="midnightblue" d="M475.22,-235.44C446.67,-226.32 401.27,-211.81 369.46,-201.65"/>
<polygon fill="midnightblue" stroke="midnightblue" points="370.24,-198.23 359.65,-198.52 368.11,-204.89 370.24,-198.23"/>
</g>
<!-- Node35&#45;&gt;Node21 -->
<g id="edge76" class="edge">
<title>Node35&#45;&gt;Node21</title>
<path fill="none" stroke="midnightblue" d="M536.01,-242.61C674.88,-236.85 1194.96,-214.43 1267,-199 1319.91,-187.67 1378.13,-162.63 1411.16,-147.15"/>
<polygon fill="midnightblue" stroke="midnightblue" points="1413.04,-150.13 1420.57,-142.68 1410.04,-143.81 1413.04,-150.13"/>
</g>
<!-- Node36 -->
<g id="node36" class="node">
<title>Node36</title>
<g id="a_node36"><a xlink:href="IAsset_8hpp.html" target="_top" xlink:title=" ">
<polygon fill="white" stroke="black" points="454,-179.5 454,-198.5 522,-198.5 522,-179.5 454,-179.5"/>
<text text-anchor="middle" x="488" y="-186.5" font-family="Helvetica,sans-Serif" font-size="10.00">IAsset.hpp</text>
</a>
</g>
</g>
<!-- Node35&#45;&gt;Node36 -->
<g id="edge78" class="edge">
<title>Node35&#45;&gt;Node36</title>
<path fill="none" stroke="midnightblue" d="M499.69,-235.08C497.83,-227.93 495.16,-217.64 492.85,-208.69"/>
<polygon fill="midnightblue" stroke="midnightblue" points="496.17,-207.55 490.27,-198.75 489.39,-209.31 496.17,-207.55"/>
</g>
</g>
</svg>
