<?xml version="1.0" encoding="UTF-8" standalone="no"?>
<!DOCTYPE svg PUBLIC "-//W3C//DTD SVG 1.1//EN"
 "http://www.w3.org/Graphics/SVG/1.1/DTD/svg11.dtd">
<!-- Generated by graphviz version 2.43.0 (0)
 -->
<!-- Title: Libs/Engine/sources/Components/ButtonCallbacks/ButtonCallbacks.hpp Pages: 1 -->
<svg width="1886pt" height="565pt"
 viewBox="0.00 0.00 1886.00 565.00" xmlns="http://www.w3.org/2000/svg" xmlns:xlink="http://www.w3.org/1999/xlink">
<g id="graph0" class="graph" transform="scale(1 1) rotate(0) translate(4 561)">
<title>Libs/Engine/sources/Components/ButtonCallbacks/ButtonCallbacks.hpp</title>
<polygon fill="white" stroke="transparent" points="-4,4 -4,-561 1882,-561 1882,4 -4,4"/>
<!-- Node1 -->
<g id="node1" class="node">
<title>Node1</title>
<g id="a_node1"><a xlink:title=" ">
<polygon fill="#bfbfbf" stroke="black" points="630,-515.5 630,-556.5 794,-556.5 794,-515.5 630,-515.5"/>
<text text-anchor="start" x="638" y="-544.5" font-family="Helvetica,sans-Serif" font-size="10.00">Libs/Engine/sources</text>
<text text-anchor="start" x="638" y="-533.5" font-family="Helvetica,sans-Serif" font-size="10.00">/Components/ButtonCallbacks</text>
<text text-anchor="middle" x="712" y="-522.5" font-family="Helvetica,sans-Serif" font-size="10.00">/ButtonCallbacks.hpp</text>
</a>
</g>
</g>
<!-- Node2 -->
<g id="node2" class="node">
<title>Node2</title>
<g id="a_node2"><a xlink:href="IComponent_8hpp.html" target="_top" xlink:title=" ">
<polygon fill="white" stroke="black" points="135.5,-179.5 135.5,-198.5 232.5,-198.5 232.5,-179.5 135.5,-179.5"/>
<text text-anchor="middle" x="184" y="-186.5" font-family="Helvetica,sans-Serif" font-size="10.00">IComponent.hpp</text>
</a>
</g>
</g>
<!-- Node1&#45;&gt;Node2 -->
<g id="edge1" class="edge">
<title>Node1&#45;&gt;Node2</title>
<path fill="none" stroke="midnightblue" d="M629.98,-529.55C442.76,-516 0,-477.28 0,-414 0,-414 0,-414 0,-300 0,-240.61 71.49,-212.52 125.34,-199.79"/>
<polygon fill="midnightblue" stroke="midnightblue" points="126.18,-203.18 135.17,-197.58 124.65,-196.35 126.18,-203.18"/>
</g>
<!-- Node5 -->
<g id="node5" class="node">
<title>Node5</title>
<g id="a_node5"><a xlink:title=" ">
<polygon fill="white" stroke="#bfbfbf" points="1339,-6 1339,-25 1399,-25 1399,-6 1339,-6"/>
<text text-anchor="middle" x="1369" y="-13" font-family="Helvetica,sans-Serif" font-size="10.00">iostream</text>
</a>
</g>
</g>
<!-- Node1&#45;&gt;Node5 -->
<g id="edge78" class="edge">
<title>Node1&#45;&gt;Node5</title>
<path fill="none" stroke="midnightblue" d="M794.18,-535.01C1007,-534.33 1572.04,-527.84 1752,-479 1812.81,-462.49 1878,-477.01 1878,-414 1878,-414 1878,-414 1878,-132 1878,-36.12 1530.2,-19.83 1409.6,-17.07"/>
<polygon fill="midnightblue" stroke="midnightblue" points="1409.39,-13.56 1399.32,-16.85 1409.24,-20.56 1409.39,-13.56"/>
</g>
<!-- Node8 -->
<g id="node8" class="node">
<title>Node8</title>
<g id="a_node8"><a xlink:href="Entity_8hpp.html" target="_top" xlink:title=" ">
<polygon fill="white" stroke="black" points="493.5,-291.5 493.5,-310.5 558.5,-310.5 558.5,-291.5 493.5,-291.5"/>
<text text-anchor="middle" x="526" y="-298.5" font-family="Helvetica,sans-Serif" font-size="10.00">Entity.hpp</text>
</a>
</g>
</g>
<!-- Node1&#45;&gt;Node8 -->
<g id="edge8" class="edge">
<title>Node1&#45;&gt;Node8</title>
<path fill="none" stroke="midnightblue" d="M685.75,-515.32C659.25,-494.5 618.28,-459.65 590,-423 564.32,-389.73 543.58,-344.69 533.21,-320.01"/>
<polygon fill="midnightblue" stroke="midnightblue" points="536.34,-318.42 529.3,-310.5 529.86,-321.08 536.34,-318.42"/>
</g>
<!-- Node20 -->
<g id="node20" class="node">
<title>Node20</title>
<g id="a_node20"><a xlink:href="IBehaviour_8hpp.html" target="_top" xlink:title=" ">
<polygon fill="white" stroke="black" points="28.5,-347.5 28.5,-366.5 117.5,-366.5 117.5,-347.5 28.5,-347.5"/>
<text text-anchor="middle" x="73" y="-354.5" font-family="Helvetica,sans-Serif" font-size="10.00">IBehaviour.hpp</text>
</a>
</g>
</g>
<!-- Node1&#45;&gt;Node20 -->
<g id="edge30" class="edge">
<title>Node1&#45;&gt;Node20</title>
<path fill="none" stroke="midnightblue" d="M641.48,-515.47C507.53,-478.36 220.18,-398.77 113.75,-369.29"/>
<polygon fill="midnightblue" stroke="midnightblue" points="114.6,-365.89 104.03,-366.59 112.73,-372.64 114.6,-365.89"/>
</g>
<!-- Node21 -->
<g id="node21" class="node">
<title>Node21</title>
<g id="a_node21"><a xlink:href="Button_8hpp.html" target="_top" xlink:title=" ">
<polygon fill="white" stroke="black" points="806,-403.5 806,-422.5 876,-422.5 876,-403.5 806,-403.5"/>
<text text-anchor="middle" x="841" y="-410.5" font-family="Helvetica,sans-Serif" font-size="10.00">Button.hpp</text>
</a>
</g>
</g>
<!-- Node1&#45;&gt;Node21 -->
<g id="edge33" class="edge">
<title>Node1&#45;&gt;Node21</title>
<path fill="none" stroke="midnightblue" d="M733.01,-515.29C758.56,-491.33 801.14,-451.39 824.47,-429.51"/>
<polygon fill="midnightblue" stroke="midnightblue" points="826.96,-431.97 831.86,-422.57 822.17,-426.86 826.96,-431.97"/>
</g>
<!-- Node38 -->
<g id="node38" class="node">
<title>Node38</title>
<g id="a_node38"><a xlink:href="Coordinator_8hpp.html" target="_top" xlink:title=" ">
<polygon fill="white" stroke="black" points="1649,-459.5 1649,-478.5 1743,-478.5 1743,-459.5 1649,-459.5"/>
<text text-anchor="middle" x="1696" y="-466.5" font-family="Helvetica,sans-Serif" font-size="10.00">Coordinator.hpp</text>
</a>
</g>
</g>
<!-- Node1&#45;&gt;Node38 -->
<g id="edge79" class="edge">
<title>Node1&#45;&gt;Node38</title>
<path fill="none" stroke="midnightblue" d="M794.2,-529.57C988.52,-516.73 1472.34,-484.77 1638.73,-473.78"/>
<polygon fill="midnightblue" stroke="midnightblue" points="1639.01,-477.27 1648.76,-473.12 1638.55,-470.29 1639.01,-477.27"/>
</g>
<!-- Node3 -->
<g id="node3" class="node">
<title>Node3</title>
<g id="a_node3"><a xlink:title=" ">
<polygon fill="white" stroke="#bfbfbf" points="370.5,-6 370.5,-25 427.5,-25 427.5,-6 370.5,-6"/>
<text text-anchor="middle" x="399" y="-13" font-family="Helvetica,sans-Serif" font-size="10.00">ostream</text>
</a>
</g>
</g>
<!-- Node2&#45;&gt;Node3 -->
<g id="edge2" class="edge">
<title>Node2&#45;&gt;Node3</title>
<path fill="none" stroke="midnightblue" d="M194.66,-179.5C228.98,-152.12 336.86,-66.07 380.45,-31.29"/>
<polygon fill="midnightblue" stroke="midnightblue" points="382.64,-34.03 388.27,-25.06 378.27,-28.56 382.64,-34.03"/>
</g>
<!-- Node4 -->
<g id="node4" class="node">
<title>Node4</title>
<g id="a_node4"><a xlink:href="IXMLSerializable_8hpp.html" target="_top" xlink:title=" ">
<polygon fill="white" stroke="black" points="554.5,-67.5 554.5,-86.5 673.5,-86.5 673.5,-67.5 554.5,-67.5"/>
<text text-anchor="middle" x="614" y="-74.5" font-family="Helvetica,sans-Serif" font-size="10.00">IXMLSerializable.hpp</text>
</a>
</g>
</g>
<!-- Node2&#45;&gt;Node4 -->
<g id="edge3" class="edge">
<title>Node2&#45;&gt;Node4</title>
<path fill="none" stroke="midnightblue" d="M217.38,-179.46C294.46,-159.74 484.79,-111.05 570.69,-89.08"/>
<polygon fill="midnightblue" stroke="midnightblue" points="571.82,-92.4 580.64,-86.53 570.08,-85.62 571.82,-92.4"/>
</g>
<!-- Node4&#45;&gt;Node3 -->
<g id="edge4" class="edge">
<title>Node4&#45;&gt;Node3</title>
<path fill="none" stroke="midnightblue" d="M583.2,-67.48C544.79,-56.85 479.15,-38.68 437.48,-27.15"/>
<polygon fill="midnightblue" stroke="midnightblue" points="438.26,-23.73 427.69,-24.44 436.39,-30.48 438.26,-23.73"/>
</g>
<!-- Node4&#45;&gt;Node5 -->
<g id="edge5" class="edge">
<title>Node4&#45;&gt;Node5</title>
<path fill="none" stroke="midnightblue" d="M673.82,-67.99C676.92,-67.64 680,-67.31 683,-67 927.65,-42.06 1222.59,-24.57 1328.61,-18.68"/>
<polygon fill="midnightblue" stroke="midnightblue" points="1329.07,-22.16 1338.86,-18.11 1328.68,-15.17 1329.07,-22.16"/>
</g>
<!-- Node6 -->
<g id="node6" class="node">
<title>Node6</title>
<g id="a_node6"><a xlink:title=" ">
<polygon fill="white" stroke="#bfbfbf" points="491.5,-0.5 491.5,-30.5 604.5,-30.5 604.5,-0.5 491.5,-0.5"/>
<text text-anchor="start" x="499.5" y="-18.5" font-family="Helvetica,sans-Serif" font-size="10.00">boost/property_tree</text>
<text text-anchor="middle" x="548" y="-7.5" font-family="Helvetica,sans-Serif" font-size="10.00">/ptree.hpp</text>
</a>
</g>
</g>
<!-- Node4&#45;&gt;Node6 -->
<g id="edge6" class="edge">
<title>Node4&#45;&gt;Node6</title>
<path fill="none" stroke="midnightblue" d="M604.54,-67.48C595.86,-59.64 582.62,-47.71 571.14,-37.37"/>
<polygon fill="midnightblue" stroke="midnightblue" points="573.33,-34.62 563.55,-30.52 568.64,-39.82 573.33,-34.62"/>
</g>
<!-- Node7 -->
<g id="node7" class="node">
<title>Node7</title>
<g id="a_node7"><a xlink:title=" ">
<polygon fill="white" stroke="#bfbfbf" points="622.5,-0.5 622.5,-30.5 735.5,-30.5 735.5,-0.5 622.5,-0.5"/>
<text text-anchor="start" x="630.5" y="-18.5" font-family="Helvetica,sans-Serif" font-size="10.00">boost/property_tree</text>
<text text-anchor="middle" x="679" y="-7.5" font-family="Helvetica,sans-Serif" font-size="10.00">/xml_parser.hpp</text>
</a>
</g>
</g>
<!-- Node4&#45;&gt;Node7 -->
<g id="edge7" class="edge">
<title>Node4&#45;&gt;Node7</title>
<path fill="none" stroke="midnightblue" d="M623.31,-67.48C631.87,-59.64 644.9,-47.71 656.21,-37.37"/>
<polygon fill="midnightblue" stroke="midnightblue" points="658.67,-39.86 663.68,-30.52 653.94,-34.69 658.67,-39.86"/>
</g>
<!-- Node8&#45;&gt;Node2 -->
<g id="edge29" class="edge">
<title>Node8&#45;&gt;Node2</title>
<path fill="none" stroke="midnightblue" d="M493.21,-291.67C460.33,-283.13 408.36,-269.15 364,-255 311.34,-238.2 251.11,-215.79 215.38,-202.15"/>
<polygon fill="midnightblue" stroke="midnightblue" points="216.57,-198.86 205.98,-198.55 214.07,-205.39 216.57,-198.86"/>
</g>
<!-- Node9 -->
<g id="node9" class="node">
<title>Node9</title>
<g id="a_node9"><a xlink:title=" ">
<polygon fill="white" stroke="#bfbfbf" points="1413,-179.5 1413,-198.5 1475,-198.5 1475,-179.5 1413,-179.5"/>
<text text-anchor="middle" x="1444" y="-186.5" font-family="Helvetica,sans-Serif" font-size="10.00">cinttypes</text>
</a>
</g>
</g>
<!-- Node8&#45;&gt;Node9 -->
<g id="edge9" class="edge">
<title>Node8&#45;&gt;Node9</title>
<path fill="none" stroke="midnightblue" d="M558.56,-297.34C582.47,-295.43 615.74,-292.88 645,-291 795.57,-281.31 1177.71,-295.68 1323,-255 1361.31,-244.27 1401.09,-219.92 1424.14,-204.25"/>
<polygon fill="midnightblue" stroke="midnightblue" points="1426.17,-207.1 1432.39,-198.53 1422.18,-201.35 1426.17,-207.1"/>
</g>
<!-- Node10 -->
<g id="node10" class="node">
<title>Node10</title>
<g id="a_node10"><a xlink:title=" ">
<polygon fill="white" stroke="#bfbfbf" points="250.5,-179.5 250.5,-198.5 343.5,-198.5 343.5,-179.5 250.5,-179.5"/>
<text text-anchor="middle" x="297" y="-186.5" font-family="Helvetica,sans-Serif" font-size="10.00">unordered_map</text>
</a>
</g>
</g>
<!-- Node8&#45;&gt;Node10 -->
<g id="edge10" class="edge">
<title>Node8&#45;&gt;Node10</title>
<path fill="none" stroke="midnightblue" d="M498.49,-291.4C473.57,-283.22 436.1,-269.98 405,-255 373.57,-239.86 339.41,-218.37 318.1,-204.31"/>
<polygon fill="midnightblue" stroke="midnightblue" points="319.8,-201.24 309.54,-198.6 315.91,-207.06 319.8,-201.24"/>
</g>
<!-- Node11 -->
<g id="node11" class="node">
<title>Node11</title>
<g id="a_node11"><a xlink:title=" ">
<polygon fill="white" stroke="#bfbfbf" points="1553,-179.5 1553,-198.5 1611,-198.5 1611,-179.5 1553,-179.5"/>
<text text-anchor="middle" x="1582" y="-186.5" font-family="Helvetica,sans-Serif" font-size="10.00">memory</text>
</a>
</g>
</g>
<!-- Node8&#45;&gt;Node11 -->
<g id="edge11" class="edge">
<title>Node8&#45;&gt;Node11</title>
<path fill="none" stroke="midnightblue" d="M558.56,-297.22C582.46,-295.25 615.73,-292.68 645,-291 695.96,-288.07 1522.77,-286.41 1563,-255 1576.74,-244.28 1580.94,-224.18 1582.04,-209.16"/>
<polygon fill="midnightblue" stroke="midnightblue" points="1585.54,-209.02 1582.38,-198.9 1578.55,-208.78 1585.54,-209.02"/>
</g>
<!-- Node12 -->
<g id="node12" class="node">
<title>Node12</title>
<g id="a_node12"><a xlink:title=" ">
<polygon fill="white" stroke="#bfbfbf" points="362,-179.5 362,-198.5 426,-198.5 426,-179.5 362,-179.5"/>
<text text-anchor="middle" x="394" y="-186.5" font-family="Helvetica,sans-Serif" font-size="10.00">algorithm</text>
</a>
</g>
</g>
<!-- Node8&#45;&gt;Node12 -->
<g id="edge12" class="edge">
<title>Node8&#45;&gt;Node12</title>
<path fill="none" stroke="midnightblue" d="M493.19,-292.37C470.97,-285.73 442.25,-274.11 423,-255 410.14,-242.24 402.5,-222.77 398.31,-208.47"/>
<polygon fill="midnightblue" stroke="midnightblue" points="401.68,-207.52 395.76,-198.73 394.91,-209.29 401.68,-207.52"/>
</g>
<!-- Node13 -->
<g id="node13" class="node">
<title>Node13</title>
<g id="a_node13"><a xlink:title=" ">
<polygon fill="white" stroke="#bfbfbf" points="1347.5,-179.5 1347.5,-198.5 1394.5,-198.5 1394.5,-179.5 1347.5,-179.5"/>
<text text-anchor="middle" x="1371" y="-186.5" font-family="Helvetica,sans-Serif" font-size="10.00">vector</text>
</a>
</g>
</g>
<!-- Node8&#45;&gt;Node13 -->
<g id="edge13" class="edge">
<title>Node8&#45;&gt;Node13</title>
<path fill="none" stroke="midnightblue" d="M558.77,-297.4C672.66,-288.34 1044.97,-258.52 1057,-255 1075.32,-249.64 1076.9,-241.06 1095,-235 1179.42,-206.74 1284.51,-195.88 1337.34,-191.99"/>
<polygon fill="midnightblue" stroke="midnightblue" points="1337.76,-195.47 1347.49,-191.28 1337.27,-188.48 1337.76,-195.47"/>
</g>
<!-- Node14 -->
<g id="node14" class="node">
<title>Node14</title>
<g id="a_node14"><a xlink:title=" ">
<polygon fill="white" stroke="#bfbfbf" points="444.5,-179.5 444.5,-198.5 535.5,-198.5 535.5,-179.5 444.5,-179.5"/>
<text text-anchor="middle" x="490" y="-186.5" font-family="Helvetica,sans-Serif" font-size="10.00">Exceptions.hpp</text>
</a>
</g>
</g>
<!-- Node8&#45;&gt;Node14 -->
<g id="edge14" class="edge">
<title>Node8&#45;&gt;Node14</title>
<path fill="none" stroke="midnightblue" d="M493.11,-293.83C471.41,-287.86 444.57,-276.44 431,-255 418.58,-235.37 441.87,-216.07 462.75,-203.67"/>
<polygon fill="midnightblue" stroke="midnightblue" points="464.72,-206.57 471.73,-198.64 461.3,-200.47 464.72,-206.57"/>
</g>
<!-- Node15 -->
<g id="node15" class="node">
<title>Node15</title>
<g id="a_node15"><a xlink:href="ComponentManager_8hpp.html" target="_top" xlink:title=" ">
<polygon fill="white" stroke="black" points="440,-235.5 440,-254.5 576,-254.5 576,-235.5 440,-235.5"/>
<text text-anchor="middle" x="508" y="-242.5" font-family="Helvetica,sans-Serif" font-size="10.00">ComponentManager.hpp</text>
</a>
</g>
</g>
<!-- Node8&#45;&gt;Node15 -->
<g id="edge15" class="edge">
<title>Node8&#45;&gt;Node15</title>
<path fill="none" stroke="midnightblue" d="M523.03,-291.08C520.62,-283.85 517.14,-273.41 514.13,-264.4"/>
<polygon fill="midnightblue" stroke="midnightblue" points="517.4,-263.13 510.92,-254.75 510.76,-265.34 517.4,-263.13"/>
</g>
<!-- Node18 -->
<g id="node18" class="node">
<title>Node18</title>
<g id="a_node18"><a xlink:href="EntityManager_8hpp.html" target="_top" xlink:title=" ">
<polygon fill="white" stroke="black" points="1446,-235.5 1446,-254.5 1554,-254.5 1554,-235.5 1446,-235.5"/>
<text text-anchor="middle" x="1500" y="-242.5" font-family="Helvetica,sans-Serif" font-size="10.00">EntityManager.hpp</text>
</a>
</g>
</g>
<!-- Node8&#45;&gt;Node18 -->
<g id="edge24" class="edge">
<title>Node8&#45;&gt;Node18</title>
<path fill="none" stroke="midnightblue" d="M558.56,-297.32C582.47,-295.4 615.74,-292.85 645,-291 960.78,-271.07 1040.1,-272.87 1356,-255 1382.16,-253.52 1410.98,-251.75 1435.92,-250.17"/>
<polygon fill="midnightblue" stroke="midnightblue" points="1436.23,-253.66 1445.99,-249.53 1435.79,-246.67 1436.23,-253.66"/>
</g>
<!-- Node15&#45;&gt;Node2 -->
<g id="edge22" class="edge">
<title>Node15&#45;&gt;Node2</title>
<path fill="none" stroke="midnightblue" d="M456.66,-235.44C398.43,-225.74 303.66,-209.94 242.59,-199.76"/>
<polygon fill="midnightblue" stroke="midnightblue" points="243.15,-196.31 232.71,-198.12 242,-203.22 243.15,-196.31"/>
</g>
<!-- Node15&#45;&gt;Node10 -->
<g id="edge16" class="edge">
<title>Node15&#45;&gt;Node10</title>
<path fill="none" stroke="midnightblue" d="M474.57,-235.44C438.14,-226.12 379.77,-211.18 339.97,-201"/>
<polygon fill="midnightblue" stroke="midnightblue" points="340.83,-197.61 330.28,-198.52 339.1,-204.39 340.83,-197.61"/>
</g>
<!-- Node15&#45;&gt;Node11 -->
<g id="edge19" class="edge">
<title>Node15&#45;&gt;Node11</title>
<path fill="none" stroke="midnightblue" d="M576.15,-239.73C602.64,-238.14 633.23,-236.39 661,-235 1048.84,-215.6 1148.16,-242.9 1534,-199 1536.88,-198.67 1539.85,-198.27 1542.83,-197.82"/>
<polygon fill="midnightblue" stroke="midnightblue" points="1543.62,-201.24 1552.91,-196.15 1542.47,-194.33 1543.62,-201.24"/>
</g>
<!-- Node15&#45;&gt;Node12 -->
<g id="edge20" class="edge">
<title>Node15&#45;&gt;Node12</title>
<path fill="none" stroke="midnightblue" d="M489.94,-235.44C471.43,-226.68 442.42,-212.94 421.14,-202.86"/>
<polygon fill="midnightblue" stroke="midnightblue" points="422.51,-199.63 411.98,-198.52 419.52,-205.96 422.51,-199.63"/>
</g>
<!-- Node15&#45;&gt;Node13 -->
<g id="edge18" class="edge">
<title>Node15&#45;&gt;Node13</title>
<path fill="none" stroke="midnightblue" d="M576.08,-239.74C750.67,-228.82 1209.61,-200.1 1337.5,-192.1"/>
<polygon fill="midnightblue" stroke="midnightblue" points="1337.72,-195.59 1347.48,-191.47 1337.28,-188.6 1337.72,-195.59"/>
</g>
<!-- Node15&#45;&gt;Node14 -->
<g id="edge21" class="edge">
<title>Node15&#45;&gt;Node14</title>
<path fill="none" stroke="midnightblue" d="M505.03,-235.08C502.62,-227.85 499.14,-217.41 496.13,-208.4"/>
<polygon fill="midnightblue" stroke="midnightblue" points="499.4,-207.13 492.92,-198.75 492.76,-209.34 499.4,-207.13"/>
</g>
<!-- Node16 -->
<g id="node16" class="node">
<title>Node16</title>
<g id="a_node16"><a xlink:title=" ">
<polygon fill="white" stroke="#bfbfbf" points="1652,-179.5 1652,-198.5 1696,-198.5 1696,-179.5 1652,-179.5"/>
<text text-anchor="middle" x="1674" y="-186.5" font-family="Helvetica,sans-Serif" font-size="10.00">string</text>
</a>
</g>
</g>
<!-- Node15&#45;&gt;Node16 -->
<g id="edge17" class="edge">
<title>Node15&#45;&gt;Node16</title>
<path fill="none" stroke="midnightblue" d="M576.15,-239.68C602.63,-238.08 633.23,-236.34 661,-235 1087.03,-214.48 1195.67,-242.15 1620,-199 1627.05,-198.28 1634.58,-197.22 1641.7,-196.07"/>
<polygon fill="midnightblue" stroke="midnightblue" points="1642.48,-199.49 1651.75,-194.36 1641.31,-192.59 1642.48,-199.49"/>
</g>
<!-- Node17 -->
<g id="node17" class="node">
<title>Node17</title>
<g id="a_node17"><a xlink:title=" ">
<polygon fill="white" stroke="#bfbfbf" points="565,-179.5 565,-198.5 603,-198.5 603,-179.5 565,-179.5"/>
<text text-anchor="middle" x="584" y="-186.5" font-family="Helvetica,sans-Serif" font-size="10.00">map</text>
</a>
</g>
</g>
<!-- Node15&#45;&gt;Node17 -->
<g id="edge23" class="edge">
<title>Node15&#45;&gt;Node17</title>
<path fill="none" stroke="midnightblue" d="M520.21,-235.32C531.78,-227.11 549.38,-214.6 563.16,-204.81"/>
<polygon fill="midnightblue" stroke="midnightblue" points="565.44,-207.48 571.57,-198.83 561.39,-201.77 565.44,-207.48"/>
</g>
<!-- Node18&#45;&gt;Node9 -->
<g id="edge26" class="edge">
<title>Node18&#45;&gt;Node9</title>
<path fill="none" stroke="midnightblue" d="M1491,-235.32C1482.81,-227.42 1470.49,-215.55 1460.53,-205.94"/>
<polygon fill="midnightblue" stroke="midnightblue" points="1462.79,-203.26 1453.16,-198.83 1457.93,-208.29 1462.79,-203.26"/>
</g>
<!-- Node18&#45;&gt;Node11 -->
<g id="edge27" class="edge">
<title>Node18&#45;&gt;Node11</title>
<path fill="none" stroke="midnightblue" d="M1513.17,-235.32C1525.85,-226.98 1545.23,-214.21 1560.21,-204.35"/>
<polygon fill="midnightblue" stroke="midnightblue" points="1562.43,-207.08 1568.86,-198.65 1558.58,-201.23 1562.43,-207.08"/>
</g>
<!-- Node18&#45;&gt;Node13 -->
<g id="edge25" class="edge">
<title>Node18&#45;&gt;Node13</title>
<path fill="none" stroke="midnightblue" d="M1479.56,-235.44C1458.33,-226.56 1424.9,-212.56 1400.75,-202.45"/>
<polygon fill="midnightblue" stroke="midnightblue" points="1401.92,-199.15 1391.34,-198.52 1399.22,-205.61 1401.92,-199.15"/>
</g>
<!-- Node19 -->
<g id="node19" class="node">
<title>Node19</title>
<g id="a_node19"><a xlink:title=" ">
<polygon fill="white" stroke="#bfbfbf" points="1493,-179.5 1493,-198.5 1525,-198.5 1525,-179.5 1493,-179.5"/>
<text text-anchor="middle" x="1509" y="-186.5" font-family="Helvetica,sans-Serif" font-size="10.00">list</text>
</a>
</g>
</g>
<!-- Node18&#45;&gt;Node19 -->
<g id="edge28" class="edge">
<title>Node18&#45;&gt;Node19</title>
<path fill="none" stroke="midnightblue" d="M1501.49,-235.08C1502.68,-227.93 1504.39,-217.64 1505.88,-208.69"/>
<polygon fill="midnightblue" stroke="midnightblue" points="1509.35,-209.19 1507.54,-198.75 1502.45,-208.04 1509.35,-209.19"/>
</g>
<!-- Node20&#45;&gt;Node2 -->
<g id="edge31" class="edge">
<title>Node20&#45;&gt;Node2</title>
<path fill="none" stroke="midnightblue" d="M72.03,-347.37C70.12,-326.01 68.04,-269.9 94,-235 105.42,-219.65 123.53,-209.2 140.53,-202.26"/>
<polygon fill="midnightblue" stroke="midnightblue" points="142.22,-205.37 150.35,-198.58 139.76,-198.81 142.22,-205.37"/>
</g>
<!-- Node20&#45;&gt;Node8 -->
<g id="edge32" class="edge">
<title>Node20&#45;&gt;Node8</title>
<path fill="none" stroke="midnightblue" d="M117.68,-350.67C204.99,-340.27 397.24,-317.35 483.11,-307.11"/>
<polygon fill="midnightblue" stroke="midnightblue" points="483.77,-310.56 493.28,-305.9 482.94,-303.61 483.77,-310.56"/>
</g>
<!-- Node21&#45;&gt;Node2 -->
<g id="edge34" class="edge">
<title>Node21&#45;&gt;Node2</title>
<path fill="none" stroke="midnightblue" d="M805.69,-404.75C714.83,-385.98 474.65,-335.52 397,-311 334.27,-291.19 316.15,-289.26 260,-255 236.99,-240.96 213.94,-220.05 199.36,-205.76"/>
<polygon fill="midnightblue" stroke="midnightblue" points="201.73,-203.18 192.18,-198.58 196.78,-208.13 201.73,-203.18"/>
</g>
<!-- Node21&#45;&gt;Node13 -->
<g id="edge36" class="edge">
<title>Node21&#45;&gt;Node13</title>
<path fill="none" stroke="midnightblue" d="M876.22,-410.56C958.44,-406.78 1160.67,-394.84 1222,-367 1289.62,-336.31 1303.96,-316.22 1346,-255 1355.83,-240.69 1362.5,-221.98 1366.46,-208.31"/>
<polygon fill="midnightblue" stroke="midnightblue" points="1369.85,-209.17 1369.06,-198.61 1363.09,-207.36 1369.85,-209.17"/>
</g>
<!-- Node22 -->
<g id="node22" class="node">
<title>Node22</title>
<g id="a_node22"><a xlink:title=" ">
<polygon fill="white" stroke="#bfbfbf" points="674.5,-347.5 674.5,-366.5 739.5,-366.5 739.5,-347.5 674.5,-347.5"/>
<text text-anchor="middle" x="707" y="-354.5" font-family="Helvetica,sans-Serif" font-size="10.00">functional</text>
</a>
</g>
</g>
<!-- Node21&#45;&gt;Node22 -->
<g id="edge35" class="edge">
<title>Node21&#45;&gt;Node22</title>
<path fill="none" stroke="midnightblue" d="M819.77,-403.44C797.62,-394.52 762.68,-380.44 737.56,-370.32"/>
<polygon fill="midnightblue" stroke="midnightblue" points="738.72,-367.01 728.13,-366.52 736.1,-373.5 738.72,-367.01"/>
</g>
<!-- Node23 -->
<g id="node23" class="node">
<title>Node23</title>
<g id="a_node23"><a xlink:href="Texture_8hpp.html" target="_top" xlink:title=" ">
<polygon fill="white" stroke="black" points="946,-291.5 946,-310.5 1020,-310.5 1020,-291.5 946,-291.5"/>
<text text-anchor="middle" x="983" y="-298.5" font-family="Helvetica,sans-Serif" font-size="10.00">Texture.hpp</text>
</a>
</g>
</g>
<!-- Node21&#45;&gt;Node23 -->
<g id="edge37" class="edge">
<title>Node21&#45;&gt;Node23</title>
<path fill="none" stroke="midnightblue" d="M862.48,-403.48C880.73,-395.63 907.07,-382.82 927,-367 944.42,-353.18 960.57,-333.37 971,-319.26"/>
<polygon fill="midnightblue" stroke="midnightblue" points="973.99,-321.09 976.99,-310.93 968.31,-317.01 973.99,-321.09"/>
</g>
<!-- Node33 -->
<g id="node33" class="node">
<title>Node33</title>
<g id="a_node33"><a xlink:href="Rectangle_8hpp.html" target="_top" xlink:title=" ">
<polygon fill="white" stroke="black" points="1228,-235.5 1228,-254.5 1314,-254.5 1314,-235.5 1228,-235.5"/>
<text text-anchor="middle" x="1271" y="-242.5" font-family="Helvetica,sans-Serif" font-size="10.00">Rectangle.hpp</text>
</a>
</g>
</g>
<!-- Node21&#45;&gt;Node33 -->
<g id="edge71" class="edge">
<title>Node21&#45;&gt;Node33</title>
<path fill="none" stroke="midnightblue" d="M876.25,-411.36C955.41,-409.32 1144.48,-400.94 1197,-367 1234.62,-342.68 1256.15,-291.82 1265.45,-264.42"/>
<polygon fill="midnightblue" stroke="midnightblue" points="1268.89,-265.15 1268.61,-254.56 1262.22,-263.01 1268.89,-265.15"/>
</g>
<!-- Node35 -->
<g id="node35" class="node">
<title>Node35</title>
<g id="a_node35"><a xlink:href="IUIObject_8hpp.html" target="_top" xlink:title=" ">
<polygon fill="white" stroke="black" points="834.5,-347.5 834.5,-366.5 917.5,-366.5 917.5,-347.5 834.5,-347.5"/>
<text text-anchor="middle" x="876" y="-354.5" font-family="Helvetica,sans-Serif" font-size="10.00">IUIObject.hpp</text>
</a>
</g>
</g>
<!-- Node21&#45;&gt;Node35 -->
<g id="edge67" class="edge">
<title>Node21&#45;&gt;Node35</title>
<path fill="none" stroke="midnightblue" d="M846.78,-403.08C851.67,-395.53 858.83,-384.49 864.83,-375.23"/>
<polygon fill="midnightblue" stroke="midnightblue" points="867.83,-377.05 870.33,-366.75 861.95,-373.24 867.83,-377.05"/>
</g>
<!-- Node36 -->
<g id="node36" class="node">
<title>Node36</title>
<g id="a_node36"><a xlink:href="Mouse_8hpp.html" target="_top" xlink:title=" ">
<polygon fill="white" stroke="black" points="670,-235.5 670,-254.5 740,-254.5 740,-235.5 670,-235.5"/>
<text text-anchor="middle" x="705" y="-242.5" font-family="Helvetica,sans-Serif" font-size="10.00">Mouse.hpp</text>
</a>
</g>
</g>
<!-- Node21&#45;&gt;Node36 -->
<g id="edge72" class="edge">
<title>Node21&#45;&gt;Node36</title>
<path fill="none" stroke="midnightblue" d="M836.96,-403.35C826.91,-382.43 799.11,-328.05 765,-291 754.11,-279.17 739.76,-268.28 727.82,-260.17"/>
<polygon fill="midnightblue" stroke="midnightblue" points="729.55,-257.12 719.27,-254.55 725.7,-262.97 729.55,-257.12"/>
</g>
<!-- Node37 -->
<g id="node37" class="node">
<title>Node37</title>
<g id="a_node37"><a xlink:href="BoundingBox_8hpp.html" target="_top" xlink:title=" ">
<polygon fill="white" stroke="black" points="654,-291.5 654,-310.5 756,-310.5 756,-291.5 654,-291.5"/>
<text text-anchor="middle" x="705" y="-298.5" font-family="Helvetica,sans-Serif" font-size="10.00">BoundingBox.hpp</text>
</a>
</g>
</g>
<!-- Node21&#45;&gt;Node37 -->
<g id="edge76" class="edge">
<title>Node21&#45;&gt;Node37</title>
<path fill="none" stroke="midnightblue" d="M830.33,-403.37C807.29,-384.73 752.64,-340.53 723.71,-317.13"/>
<polygon fill="midnightblue" stroke="midnightblue" points="725.6,-314.16 715.62,-310.59 721.2,-319.6 725.6,-314.16"/>
</g>
<!-- Node23&#45;&gt;Node16 -->
<g id="edge39" class="edge">
<title>Node23&#45;&gt;Node16</title>
<path fill="none" stroke="midnightblue" d="M1020.16,-300.22C1136.24,-300.46 1490.63,-297.58 1596,-255 1621.92,-244.52 1645.67,-222.07 1659.98,-206.51"/>
<polygon fill="midnightblue" stroke="midnightblue" points="1662.9,-208.5 1666.92,-198.69 1657.66,-203.85 1662.9,-208.5"/>
</g>
<!-- Node24 -->
<g id="node24" class="node">
<title>Node24</title>
<g id="a_node24"><a xlink:title=" ">
<polygon fill="white" stroke="#bfbfbf" points="933.5,-67.5 933.5,-86.5 986.5,-86.5 986.5,-67.5 933.5,-67.5"/>
<text text-anchor="middle" x="960" y="-74.5" font-family="Helvetica,sans-Serif" font-size="10.00">raylib.h</text>
</a>
</g>
</g>
<!-- Node23&#45;&gt;Node24 -->
<g id="edge38" class="edge">
<title>Node23&#45;&gt;Node24</title>
<path fill="none" stroke="midnightblue" d="M1020.19,-296.97C1071.86,-291.9 1161.26,-279.73 1181,-255 1186.55,-248.05 1185.08,-242.9 1181,-235 1141.45,-158.39 1045.33,-111.03 993.86,-90.28"/>
<polygon fill="midnightblue" stroke="midnightblue" points="995.08,-87 984.49,-86.6 992.52,-93.52 995.08,-87"/>
</g>
<!-- Node25 -->
<g id="node25" class="node">
<title>Node25</title>
<g id="a_node25"><a xlink:href="Image_8hpp.html" target="_top" xlink:title=" ">
<polygon fill="white" stroke="black" points="980,-235.5 980,-254.5 1048,-254.5 1048,-235.5 980,-235.5"/>
<text text-anchor="middle" x="1014" y="-242.5" font-family="Helvetica,sans-Serif" font-size="10.00">Image.hpp</text>
</a>
</g>
</g>
<!-- Node23&#45;&gt;Node25 -->
<g id="edge40" class="edge">
<title>Node23&#45;&gt;Node25</title>
<path fill="none" stroke="midnightblue" d="M988.12,-291.08C992.41,-283.61 998.66,-272.72 1003.94,-263.52"/>
<polygon fill="midnightblue" stroke="midnightblue" points="1007.03,-265.17 1008.98,-254.75 1000.96,-261.68 1007.03,-265.17"/>
</g>
<!-- Node26 -->
<g id="node26" class="node">
<title>Node26</title>
<g id="a_node26"><a xlink:href="Color_8hpp.html" target="_top" xlink:title=" ">
<polygon fill="white" stroke="black" points="959,-179.5 959,-198.5 1021,-198.5 1021,-179.5 959,-179.5"/>
<text text-anchor="middle" x="990" y="-186.5" font-family="Helvetica,sans-Serif" font-size="10.00">Color.hpp</text>
</a>
</g>
</g>
<!-- Node23&#45;&gt;Node26 -->
<g id="edge55" class="edge">
<title>Node23&#45;&gt;Node26</title>
<path fill="none" stroke="midnightblue" d="M979.21,-291.15C974.33,-278.62 966.95,-255.02 971,-235 972.89,-225.65 976.79,-215.83 980.57,-207.75"/>
<polygon fill="midnightblue" stroke="midnightblue" points="983.79,-209.14 985.12,-198.63 977.53,-206.01 983.79,-209.14"/>
</g>
<!-- Node30 -->
<g id="node30" class="node">
<title>Node30</title>
<g id="a_node30"><a xlink:href="Vector2_8hpp.html" target="_top" xlink:title=" ">
<polygon fill="white" stroke="black" points="829,-179.5 829,-198.5 903,-198.5 903,-179.5 829,-179.5"/>
<text text-anchor="middle" x="866" y="-186.5" font-family="Helvetica,sans-Serif" font-size="10.00">Vector2.hpp</text>
</a>
</g>
</g>
<!-- Node23&#45;&gt;Node30 -->
<g id="edge56" class="edge">
<title>Node23&#45;&gt;Node30</title>
<path fill="none" stroke="midnightblue" d="M973.82,-291.37C954.17,-272.89 907.79,-229.29 882.75,-205.74"/>
<polygon fill="midnightblue" stroke="midnightblue" points="884.82,-202.89 875.14,-198.59 880.03,-207.99 884.82,-202.89"/>
</g>
<!-- Node31 -->
<g id="node31" class="node">
<title>Node31</title>
<g id="a_node31"><a xlink:href="Camera3D_8hpp.html" target="_top" xlink:title=" ">
<polygon fill="white" stroke="black" points="758.5,-235.5 758.5,-254.5 847.5,-254.5 847.5,-235.5 758.5,-235.5"/>
<text text-anchor="middle" x="803" y="-242.5" font-family="Helvetica,sans-Serif" font-size="10.00">Camera3D.hpp</text>
</a>
</g>
</g>
<!-- Node23&#45;&gt;Node31 -->
<g id="edge57" class="edge">
<title>Node23&#45;&gt;Node31</title>
<path fill="none" stroke="midnightblue" d="M954.48,-291.44C923.93,-282.28 875.29,-267.69 841.4,-257.52"/>
<polygon fill="midnightblue" stroke="midnightblue" points="841.97,-254.04 831.39,-254.52 839.96,-260.74 841.97,-254.04"/>
</g>
<!-- Node23&#45;&gt;Node33 -->
<g id="edge63" class="edge">
<title>Node23&#45;&gt;Node33</title>
<path fill="none" stroke="midnightblue" d="M1020.06,-293.05C1070.37,-283.62 1160.56,-266.71 1218.01,-255.94"/>
<polygon fill="midnightblue" stroke="midnightblue" points="1218.8,-259.35 1227.98,-254.07 1217.51,-252.47 1218.8,-259.35"/>
</g>
<!-- Node34 -->
<g id="node34" class="node">
<title>Node34</title>
<g id="a_node34"><a xlink:href="IAsset_8hpp.html" target="_top" xlink:title=" ">
<polygon fill="white" stroke="black" points="1104,-235.5 1104,-254.5 1172,-254.5 1172,-235.5 1104,-235.5"/>
<text text-anchor="middle" x="1138" y="-242.5" font-family="Helvetica,sans-Serif" font-size="10.00">IAsset.hpp</text>
</a>
</g>
</g>
<!-- Node23&#45;&gt;Node34 -->
<g id="edge66" class="edge">
<title>Node23&#45;&gt;Node34</title>
<path fill="none" stroke="midnightblue" d="M1007.56,-291.44C1033.52,-282.4 1074.67,-268.06 1103.8,-257.92"/>
<polygon fill="midnightblue" stroke="midnightblue" points="1105.26,-261.11 1113.55,-254.52 1102.96,-254.5 1105.26,-261.11"/>
</g>
<!-- Node25&#45;&gt;Node16 -->
<g id="edge41" class="edge">
<title>Node25&#45;&gt;Node16</title>
<path fill="none" stroke="midnightblue" d="M1048.26,-239.87C1062.67,-238.22 1079.64,-236.38 1095,-235 1327.94,-214.08 1387.71,-226.26 1620,-199 1627.19,-198.16 1634.87,-197.02 1642.13,-195.84"/>
<polygon fill="midnightblue" stroke="midnightblue" points="1642.73,-199.29 1652,-194.16 1641.55,-192.38 1642.73,-199.29"/>
</g>
<!-- Node25&#45;&gt;Node24 -->
<g id="edge42" class="edge">
<title>Node25&#45;&gt;Node24</title>
<path fill="none" stroke="midnightblue" d="M1019.04,-235.49C1025.8,-222.99 1036.24,-198.97 1030,-179 1019.41,-145.12 993.02,-112.62 975.84,-94.01"/>
<polygon fill="midnightblue" stroke="midnightblue" points="978.32,-91.54 968.89,-86.71 973.24,-96.37 978.32,-91.54"/>
</g>
<!-- Node25&#45;&gt;Node26 -->
<g id="edge43" class="edge">
<title>Node25&#45;&gt;Node26</title>
<path fill="none" stroke="midnightblue" d="M1010.04,-235.08C1006.79,-227.77 1002.08,-217.18 998.05,-208.1"/>
<polygon fill="midnightblue" stroke="midnightblue" points="1001.15,-206.47 993.89,-198.75 994.75,-209.31 1001.15,-206.47"/>
</g>
<!-- Node25&#45;&gt;Node30 -->
<g id="edge50" class="edge">
<title>Node25&#45;&gt;Node30</title>
<path fill="none" stroke="midnightblue" d="M990.55,-235.44C965.87,-226.44 926.81,-212.19 899.02,-202.05"/>
<polygon fill="midnightblue" stroke="midnightblue" points="899.94,-198.66 889.34,-198.52 897.54,-205.23 899.94,-198.66"/>
</g>
<!-- Node26&#45;&gt;Node24 -->
<g id="edge44" class="edge">
<title>Node26&#45;&gt;Node24</title>
<path fill="none" stroke="midnightblue" d="M987.65,-179.37C982.78,-161.54 971.54,-120.3 964.98,-96.27"/>
<polygon fill="midnightblue" stroke="midnightblue" points="968.35,-95.32 962.34,-86.59 961.6,-97.16 968.35,-95.32"/>
</g>
<!-- Node27 -->
<g id="node27" class="node">
<title>Node27</title>
<g id="a_node27"><a xlink:href="Vector3_8hpp.html" target="_top" xlink:title=" ">
<polygon fill="white" stroke="black" points="685,-123.5 685,-142.5 759,-142.5 759,-123.5 685,-123.5"/>
<text text-anchor="middle" x="722" y="-130.5" font-family="Helvetica,sans-Serif" font-size="10.00">Vector3.hpp</text>
</a>
</g>
</g>
<!-- Node26&#45;&gt;Node27 -->
<g id="edge45" class="edge">
<title>Node26&#45;&gt;Node27</title>
<path fill="none" stroke="midnightblue" d="M959,-181.75C912.4,-172.36 823.95,-154.54 769.28,-143.53"/>
<polygon fill="midnightblue" stroke="midnightblue" points="769.64,-140.03 759.15,-141.48 768.26,-146.89 769.64,-140.03"/>
</g>
<!-- Node27&#45;&gt;Node4 -->
<g id="edge47" class="edge">
<title>Node27&#45;&gt;Node4</title>
<path fill="none" stroke="midnightblue" d="M704.65,-123.32C687.33,-114.66 660.48,-101.24 640.5,-91.25"/>
<polygon fill="midnightblue" stroke="midnightblue" points="641.82,-88 631.31,-86.65 638.69,-94.26 641.82,-88"/>
</g>
<!-- Node27&#45;&gt;Node24 -->
<g id="edge46" class="edge">
<title>Node27&#45;&gt;Node24</title>
<path fill="none" stroke="midnightblue" d="M759.19,-123.56C804.06,-113.38 879.03,-96.37 923.57,-86.27"/>
<polygon fill="midnightblue" stroke="midnightblue" points="924.41,-89.66 933.39,-84.04 922.86,-82.84 924.41,-89.66"/>
</g>
<!-- Node28 -->
<g id="node28" class="node">
<title>Node28</title>
<g id="a_node28"><a xlink:title=" ">
<polygon fill="white" stroke="#bfbfbf" points="766.5,-67.5 766.5,-86.5 813.5,-86.5 813.5,-67.5 766.5,-67.5"/>
<text text-anchor="middle" x="790" y="-74.5" font-family="Helvetica,sans-Serif" font-size="10.00">cmath</text>
</a>
</g>
</g>
<!-- Node27&#45;&gt;Node28 -->
<g id="edge48" class="edge">
<title>Node27&#45;&gt;Node28</title>
<path fill="none" stroke="midnightblue" d="M732.93,-123.32C743.17,-115.18 758.72,-102.84 771,-93.09"/>
<polygon fill="midnightblue" stroke="midnightblue" points="773.22,-95.79 778.88,-86.83 768.87,-90.31 773.22,-95.79"/>
</g>
<!-- Node29 -->
<g id="node29" class="node">
<title>Node29</title>
<g id="a_node29"><a xlink:title=" ">
<polygon fill="white" stroke="#bfbfbf" points="692,-67.5 692,-86.5 748,-86.5 748,-67.5 692,-67.5"/>
<text text-anchor="middle" x="720" y="-74.5" font-family="Helvetica,sans-Serif" font-size="10.00">sstream</text>
</a>
</g>
</g>
<!-- Node27&#45;&gt;Node29 -->
<g id="edge49" class="edge">
<title>Node27&#45;&gt;Node29</title>
<path fill="none" stroke="midnightblue" d="M721.67,-123.08C721.41,-116.01 721.03,-105.86 720.7,-96.99"/>
<polygon fill="midnightblue" stroke="midnightblue" points="724.19,-96.61 720.32,-86.75 717.2,-96.87 724.19,-96.61"/>
</g>
<!-- Node30&#45;&gt;Node4 -->
<g id="edge54" class="edge">
<title>Node30&#45;&gt;Node4</title>
<path fill="none" stroke="midnightblue" d="M828.71,-185.46C788.64,-181.35 724.22,-170.66 676,-143 655.16,-131.05 636.96,-109.95 625.76,-95.03"/>
<polygon fill="midnightblue" stroke="midnightblue" points="628.42,-92.74 619.73,-86.68 622.74,-96.84 628.42,-92.74"/>
</g>
<!-- Node30&#45;&gt;Node24 -->
<g id="edge51" class="edge">
<title>Node30&#45;&gt;Node24</title>
<path fill="none" stroke="midnightblue" d="M872.35,-179.37C881.75,-166.72 900.09,-142.51 917,-123 925.58,-113.1 935.68,-102.48 943.93,-94.05"/>
<polygon fill="midnightblue" stroke="midnightblue" points="946.63,-96.3 951.17,-86.73 941.65,-91.38 946.63,-96.3"/>
</g>
<!-- Node30&#45;&gt;Node27 -->
<g id="edge53" class="edge">
<title>Node30&#45;&gt;Node27</title>
<path fill="none" stroke="midnightblue" d="M843.18,-179.44C819.17,-170.44 781.17,-156.19 754.13,-146.05"/>
<polygon fill="midnightblue" stroke="midnightblue" points="755.3,-142.75 744.71,-142.52 752.84,-149.3 755.3,-142.75"/>
</g>
<!-- Node30&#45;&gt;Node28 -->
<g id="edge52" class="edge">
<title>Node30&#45;&gt;Node28</title>
<path fill="none" stroke="midnightblue" d="M860.04,-179.37C847.49,-161.22 818.19,-118.8 801.74,-94.99"/>
<polygon fill="midnightblue" stroke="midnightblue" points="804.5,-92.83 795.94,-86.59 798.74,-96.81 804.5,-92.83"/>
</g>
<!-- Node31&#45;&gt;Node24 -->
<g id="edge58" class="edge">
<title>Node31&#45;&gt;Node24</title>
<path fill="none" stroke="midnightblue" d="M843.7,-235.49C866.35,-228.91 893.6,-217.66 912,-199 940.34,-170.27 952.5,-122.74 957.26,-96.62"/>
<polygon fill="midnightblue" stroke="midnightblue" points="960.75,-97 958.92,-86.57 953.84,-95.86 960.75,-97"/>
</g>
<!-- Node31&#45;&gt;Node27 -->
<g id="edge60" class="edge">
<title>Node31&#45;&gt;Node27</title>
<path fill="none" stroke="midnightblue" d="M796.64,-235.37C783.22,-217.14 751.77,-174.43 734.28,-150.68"/>
<polygon fill="midnightblue" stroke="midnightblue" points="737.07,-148.57 728.33,-142.59 731.44,-152.72 737.07,-148.57"/>
</g>
<!-- Node31&#45;&gt;Node30 -->
<g id="edge59" class="edge">
<title>Node31&#45;&gt;Node30</title>
<path fill="none" stroke="midnightblue" d="M813.12,-235.32C822.53,-227.26 836.74,-215.08 848.07,-205.37"/>
<polygon fill="midnightblue" stroke="midnightblue" points="850.38,-208 855.69,-198.83 845.82,-202.68 850.38,-208"/>
</g>
<!-- Node32 -->
<g id="node32" class="node">
<title>Node32</title>
<g id="a_node32"><a xlink:href="Ray_8hpp.html" target="_top" xlink:title=" ">
<polygon fill="white" stroke="black" points="679.5,-179.5 679.5,-198.5 734.5,-198.5 734.5,-179.5 679.5,-179.5"/>
<text text-anchor="middle" x="707" y="-186.5" font-family="Helvetica,sans-Serif" font-size="10.00">Ray.hpp</text>
</a>
</g>
</g>
<!-- Node31&#45;&gt;Node32 -->
<g id="edge61" class="edge">
<title>Node31&#45;&gt;Node32</title>
<path fill="none" stroke="midnightblue" d="M787.58,-235.32C772.46,-226.82 749.18,-213.73 731.53,-203.8"/>
<polygon fill="midnightblue" stroke="midnightblue" points="732.82,-200.51 722.39,-198.65 729.39,-206.61 732.82,-200.51"/>
</g>
<!-- Node32&#45;&gt;Node27 -->
<g id="edge62" class="edge">
<title>Node32&#45;&gt;Node27</title>
<path fill="none" stroke="midnightblue" d="M709.48,-179.08C711.49,-171.85 714.39,-161.41 716.89,-152.4"/>
<polygon fill="midnightblue" stroke="midnightblue" points="720.26,-153.32 719.57,-142.75 713.52,-151.45 720.26,-153.32"/>
</g>
<!-- Node33&#45;&gt;Node24 -->
<g id="edge64" class="edge">
<title>Node33&#45;&gt;Node24</title>
<path fill="none" stroke="midnightblue" d="M1269.67,-235.28C1265.75,-212.7 1252,-152.06 1214,-123 1180.54,-97.41 1059.1,-85.13 997.05,-80.42"/>
<polygon fill="midnightblue" stroke="midnightblue" points="997.13,-76.91 986.91,-79.67 996.62,-83.89 997.13,-76.91"/>
</g>
<!-- Node33&#45;&gt;Node26 -->
<g id="edge65" class="edge">
<title>Node33&#45;&gt;Node26</title>
<path fill="none" stroke="midnightblue" d="M1227.71,-235.68C1174.16,-225.39 1083.67,-208 1031.14,-197.91"/>
<polygon fill="midnightblue" stroke="midnightblue" points="1031.64,-194.44 1021.16,-195.99 1030.32,-201.31 1031.64,-194.44"/>
</g>
<!-- Node35&#45;&gt;Node2 -->
<g id="edge68" class="edge">
<title>Node35&#45;&gt;Node2</title>
<path fill="none" stroke="midnightblue" d="M834.42,-352.21C747.89,-344.15 551.02,-324.94 485,-311 403.03,-293.69 382.26,-287.42 305,-255 269.28,-240.01 230.17,-217.87 206.36,-203.69"/>
<polygon fill="midnightblue" stroke="midnightblue" points="208.1,-200.66 197.73,-198.5 204.49,-206.66 208.1,-200.66"/>
</g>
<!-- Node35&#45;&gt;Node23 -->
<g id="edge70" class="edge">
<title>Node35&#45;&gt;Node23</title>
<path fill="none" stroke="midnightblue" d="M893.19,-347.32C910.35,-338.66 936.95,-325.24 956.75,-315.25"/>
<polygon fill="midnightblue" stroke="midnightblue" points="958.5,-318.28 965.85,-310.65 955.35,-312.04 958.5,-318.28"/>
</g>
<!-- Node35&#45;&gt;Node30 -->
<g id="edge69" class="edge">
<title>Node35&#45;&gt;Node30</title>
<path fill="none" stroke="midnightblue" d="M875.46,-347.08C873.89,-320.95 869.27,-244.21 867.12,-208.58"/>
<polygon fill="midnightblue" stroke="midnightblue" points="870.61,-208.34 866.52,-198.57 863.62,-208.76 870.61,-208.34"/>
</g>
<!-- Node36&#45;&gt;Node24 -->
<g id="edge73" class="edge">
<title>Node36&#45;&gt;Node24</title>
<path fill="none" stroke="midnightblue" d="M718.35,-235.31C759.83,-208.3 886.78,-125.67 938.11,-92.25"/>
<polygon fill="midnightblue" stroke="midnightblue" points="940.31,-94.99 946.78,-86.61 936.49,-89.13 940.31,-94.99"/>
</g>
<!-- Node36&#45;&gt;Node30 -->
<g id="edge74" class="edge">
<title>Node36&#45;&gt;Node30</title>
<path fill="none" stroke="midnightblue" d="M730.51,-235.44C757.6,-226.36 800.59,-211.94 830.87,-201.78"/>
<polygon fill="midnightblue" stroke="midnightblue" points="832.24,-205.01 840.61,-198.52 830.01,-198.38 832.24,-205.01"/>
</g>
<!-- Node36&#45;&gt;Node32 -->
<g id="edge75" class="edge">
<title>Node36&#45;&gt;Node32</title>
<path fill="none" stroke="midnightblue" d="M705.33,-235.08C705.59,-228.01 705.97,-217.86 706.3,-208.99"/>
<polygon fill="midnightblue" stroke="midnightblue" points="709.8,-208.87 706.68,-198.75 702.81,-208.61 709.8,-208.87"/>
</g>
<!-- Node37&#45;&gt;Node27 -->
<g id="edge77" class="edge">
<title>Node37&#45;&gt;Node27</title>
<path fill="none" stroke="midnightblue" d="M692.22,-291.37C681.61,-283.36 667.27,-270.38 661,-255 657.64,-246.77 660.22,-243.85 661,-235 663.23,-209.82 658.61,-201.04 671,-179 677.87,-166.78 689.34,-156.21 699.67,-148.4"/>
<polygon fill="midnightblue" stroke="midnightblue" points="701.83,-151.15 707.94,-142.5 697.77,-145.45 701.83,-151.15"/>
</g>
<!-- Node38&#45;&gt;Node11 -->
<g id="edge81" class="edge">
<title>Node38&#45;&gt;Node11</title>
<path fill="none" stroke="midnightblue" d="M1701.28,-459.23C1711.73,-441.04 1734,-397.6 1734,-358 1734,-358 1734,-358 1734,-300 1734,-244.28 1666.13,-213.91 1621.09,-199.89"/>
<polygon fill="midnightblue" stroke="midnightblue" points="1621.89,-196.48 1611.31,-196.99 1619.9,-203.19 1621.89,-196.48"/>
</g>
<!-- Node38&#45;&gt;Node16 -->
<g id="edge82" class="edge">
<title>Node38&#45;&gt;Node16</title>
<path fill="none" stroke="midnightblue" d="M1743.02,-461.7C1769.28,-455.84 1800.69,-444.59 1821,-423 1841.62,-401.08 1840,-388.1 1840,-358 1840,-358 1840,-358 1840,-300 1840,-236.39 1754.25,-207.39 1706.01,-196.11"/>
<polygon fill="midnightblue" stroke="midnightblue" points="1706.56,-192.65 1696.04,-193.91 1705.05,-199.49 1706.56,-192.65"/>
</g>
<!-- Node38&#45;&gt;Node17 -->
<g id="edge83" class="edge">
<title>Node38&#45;&gt;Node17</title>
<path fill="none" stroke="midnightblue" d="M1648.71,-468.07C1458.2,-468.06 752.84,-465.15 663,-423 627.68,-406.43 604,-397.02 604,-358 604,-358 604,-358 604,-300 604,-267.44 595.41,-230.32 589.49,-208.59"/>
<polygon fill="midnightblue" stroke="midnightblue" points="592.79,-207.41 586.7,-198.74 586.06,-209.32 592.79,-207.41"/>
</g>
<!-- Node38&#45;&gt;Node18 -->
<g id="edge94" class="edge">
<title>Node38&#45;&gt;Node18</title>
<path fill="none" stroke="midnightblue" d="M1688.32,-459.3C1658.93,-426.01 1553.34,-306.42 1514.49,-262.41"/>
<polygon fill="midnightblue" stroke="midnightblue" points="1517.09,-260.06 1507.84,-254.88 1511.84,-264.7 1517.09,-260.06"/>
</g>
<!-- Node39 -->
<g id="node39" class="node">
<title>Node39</title>
<g id="a_node39"><a xlink:title=" ">
<polygon fill="white" stroke="#bfbfbf" points="1762,-403.5 1762,-422.5 1812,-422.5 1812,-403.5 1762,-403.5"/>
<text text-anchor="middle" x="1787" y="-410.5" font-family="Helvetica,sans-Serif" font-size="10.00">chrono</text>
</a>
</g>
</g>
<!-- Node38&#45;&gt;Node39 -->
<g id="edge80" class="edge">
<title>Node38&#45;&gt;Node39</title>
<path fill="none" stroke="midnightblue" d="M1710.62,-459.32C1724.95,-450.82 1747.01,-437.73 1763.75,-427.8"/>
<polygon fill="midnightblue" stroke="midnightblue" points="1765.6,-430.77 1772.42,-422.65 1762.03,-424.75 1765.6,-430.77"/>
</g>
<!-- Node40 -->
<g id="node40" class="node">
<title>Node40</title>
<g id="a_node40"><a xlink:href="SystemManager_8hpp.html" target="_top" xlink:title=" ">
<polygon fill="white" stroke="black" points="672,-403.5 672,-422.5 788,-422.5 788,-403.5 672,-403.5"/>
<text text-anchor="middle" x="730" y="-410.5" font-family="Helvetica,sans-Serif" font-size="10.00">SystemManager.hpp</text>
</a>
</g>
</g>
<!-- Node38&#45;&gt;Node40 -->
<g id="edge84" class="edge">
<title>Node38&#45;&gt;Node40</title>
<path fill="none" stroke="midnightblue" d="M1648.63,-467.02C1516.05,-463.99 1129.87,-453.12 798.36,-423.04"/>
<polygon fill="midnightblue" stroke="midnightblue" points="798.35,-419.53 788.07,-422.1 797.71,-426.5 798.35,-419.53"/>
</g>
<!-- Node40&#45;&gt;Node10 -->
<g id="edge88" class="edge">
<title>Node40&#45;&gt;Node10</title>
<path fill="none" stroke="midnightblue" d="M671.98,-412.03C617.02,-409.81 533.66,-400.47 470,-367 394.94,-327.53 332.79,-243.72 308.26,-207.39"/>
<polygon fill="midnightblue" stroke="midnightblue" points="311.04,-205.26 302.6,-198.86 305.21,-209.13 311.04,-205.26"/>
</g>
<!-- Node40&#45;&gt;Node11 -->
<g id="edge85" class="edge">
<title>Node40&#45;&gt;Node11</title>
<path fill="none" stroke="midnightblue" d="M788.09,-404.04C791.1,-403.68 794.08,-403.33 797,-403 974.39,-383.11 1021.59,-400.02 1197,-367 1372.55,-333.95 1475.72,-397.83 1583,-255 1592.84,-241.9 1591.2,-222.75 1587.93,-208.63"/>
<polygon fill="midnightblue" stroke="midnightblue" points="1591.19,-207.3 1585.15,-198.59 1584.45,-209.16 1591.19,-207.3"/>
</g>
<!-- Node40&#45;&gt;Node12 -->
<g id="edge86" class="edge">
<title>Node40&#45;&gt;Node12</title>
<path fill="none" stroke="midnightblue" d="M671.82,-408.2C625.49,-403.33 560.01,-392.24 508,-367 450.05,-338.88 439.92,-314.81 416,-255 409.78,-239.44 403.75,-221.37 399.59,-208.23"/>
<polygon fill="midnightblue" stroke="midnightblue" points="402.88,-207.03 396.56,-198.52 396.19,-209.11 402.88,-207.03"/>
</g>
<!-- Node40&#45;&gt;Node14 -->
<g id="edge93" class="edge">
<title>Node40&#45;&gt;Node14</title>
<path fill="none" stroke="midnightblue" d="M671.98,-403.92C595.58,-389.6 465.9,-351.56 423,-255 413.21,-232.97 437.42,-214.6 459.42,-203.07"/>
<polygon fill="midnightblue" stroke="midnightblue" points="461.18,-206.1 468.61,-198.55 458.09,-199.82 461.18,-206.1"/>
</g>
<!-- Node40&#45;&gt;Node16 -->
<g id="edge87" class="edge">
<title>Node40&#45;&gt;Node16</title>
<path fill="none" stroke="midnightblue" d="M788.08,-403.96C791.09,-403.62 794.08,-403.29 797,-403 1128.96,-369.66 1231.18,-432.23 1542,-311 1592.37,-291.35 1614.22,-295.54 1650,-255 1661.56,-241.91 1667.72,-222.76 1670.9,-208.63"/>
<polygon fill="midnightblue" stroke="midnightblue" points="1674.38,-209.08 1672.85,-198.59 1667.51,-207.74 1674.38,-209.08"/>
</g>
<!-- Node41 -->
<g id="node41" class="node">
<title>Node41</title>
<g id="a_node41"><a xlink:href="ASystem_8hpp.html" target="_top" xlink:title=" ">
<polygon fill="white" stroke="black" points="1106.5,-347.5 1106.5,-366.5 1187.5,-366.5 1187.5,-347.5 1106.5,-347.5"/>
<text text-anchor="middle" x="1147" y="-354.5" font-family="Helvetica,sans-Serif" font-size="10.00">ASystem.hpp</text>
</a>
</g>
</g>
<!-- Node40&#45;&gt;Node41 -->
<g id="edge89" class="edge">
<title>Node40&#45;&gt;Node41</title>
<path fill="none" stroke="midnightblue" d="M788.1,-404.17C791.11,-403.78 794.09,-403.38 797,-403 903.45,-389.01 1028.18,-373.08 1096.28,-364.43"/>
<polygon fill="midnightblue" stroke="midnightblue" points="1096.83,-367.89 1106.3,-363.16 1095.94,-360.94 1096.83,-367.89"/>
</g>
<!-- Node41&#45;&gt;Node8 -->
<g id="edge92" class="edge">
<title>Node41&#45;&gt;Node8</title>
<path fill="none" stroke="midnightblue" d="M1106.25,-352.46C994.39,-342.73 683.27,-315.68 568.9,-305.73"/>
<polygon fill="midnightblue" stroke="midnightblue" points="569.04,-302.23 558.77,-304.85 568.43,-309.2 569.04,-302.23"/>
</g>
<!-- Node41&#45;&gt;Node13 -->
<g id="edge91" class="edge">
<title>Node41&#45;&gt;Node13</title>
<path fill="none" stroke="midnightblue" d="M1167.75,-347.49C1202.57,-332.52 1273.81,-298.83 1323,-255 1338.49,-241.2 1352.1,-221.65 1360.83,-207.61"/>
<polygon fill="midnightblue" stroke="midnightblue" points="1363.92,-209.27 1366.06,-198.9 1357.92,-205.67 1363.92,-209.27"/>
</g>
<!-- Node41&#45;&gt;Node16 -->
<g id="edge90" class="edge">
<title>Node41&#45;&gt;Node16</title>
<path fill="none" stroke="midnightblue" d="M1187.82,-356.81C1275.32,-356.65 1484.44,-345.99 1626,-255 1643.83,-243.54 1657.34,-222.96 1665.41,-208.02"/>
<polygon fill="midnightblue" stroke="midnightblue" points="1668.71,-209.26 1670.12,-198.76 1662.47,-206.09 1668.71,-209.26"/>
</g>
</g>
</svg>
