<?xml version="1.0" encoding="UTF-8" standalone="no"?>
<!DOCTYPE svg PUBLIC "-//W3C//DTD SVG 1.1//EN"
 "http://www.w3.org/Graphics/SVG/1.1/DTD/svg11.dtd">
<!-- Generated by graphviz version 2.43.0 (0)
 -->
<!-- Title: Libs/Engine/sources/Components/Button/Button.hpp Pages: 1 -->
<svg width="1189pt" height="273pt"
 viewBox="0.00 0.00 1188.50 273.00" xmlns="http://www.w3.org/2000/svg" xmlns:xlink="http://www.w3.org/1999/xlink">
<g id="graph0" class="graph" transform="scale(1 1) rotate(0) translate(4 269)">
<title>Libs/Engine/sources/Components/Button/Button.hpp</title>
<polygon fill="white" stroke="transparent" points="-4,4 -4,-269 1184.5,-269 1184.5,4 -4,4"/>
<!-- Node1 -->
<g id="node1" class="node">
<title>Node1</title>
<g id="a_node1"><a xlink:title=" ">
<polygon fill="#bfbfbf" stroke="black" points="590.5,-234.5 590.5,-264.5 763.5,-264.5 763.5,-234.5 590.5,-234.5"/>
<text text-anchor="start" x="598.5" y="-252.5" font-family="Helvetica,sans-Serif" font-size="10.00">Libs/Engine/sources</text>
<text text-anchor="middle" x="677" y="-241.5" font-family="Helvetica,sans-Serif" font-size="10.00">/Components/Button/Button.hpp</text>
</a>
</g>
</g>
<!-- Node2 -->
<g id="node2" class="node">
<title>Node2</title>
<g id="a_node2"><a xlink:href="Bomberman_2sources_2main_8cpp.html" target="_top" xlink:title=" ">
<polygon fill="white" stroke="black" points="148.5,-11.5 148.5,-30.5 313.5,-30.5 313.5,-11.5 148.5,-11.5"/>
<text text-anchor="middle" x="231" y="-18.5" font-family="Helvetica,sans-Serif" font-size="10.00">Bomberman/sources/main.cpp</text>
</a>
</g>
</g>
<!-- Node1&#45;&gt;Node2 -->
<g id="edge1" class="edge">
<title>Node1&#45;&gt;Node2</title>
<path fill="none" stroke="midnightblue" d="M580.17,-238.04C537.43,-230.76 487.58,-218.52 446,-198 371.9,-161.43 368.35,-129.83 304,-78 282.6,-60.77 257,-41.41 242.51,-30.57"/>
<polygon fill="midnightblue" stroke="midnightblue" points="579.87,-241.53 590.3,-239.69 581,-234.63 579.87,-241.53"/>
</g>
<!-- Node3 -->
<g id="node3" class="node">
<title>Node3</title>
<g id="a_node3"><a xlink:href="Button_8cpp.html" target="_top" xlink:title=" ">
<polygon fill="white" stroke="black" points="959,-162 959,-192 1131,-192 1131,-162 959,-162"/>
<text text-anchor="start" x="967" y="-180" font-family="Helvetica,sans-Serif" font-size="10.00">Libs/Engine/sources</text>
<text text-anchor="middle" x="1045" y="-169" font-family="Helvetica,sans-Serif" font-size="10.00">/Components/Button/Button.cpp</text>
</a>
</g>
</g>
<!-- Node1&#45;&gt;Node3 -->
<g id="edge2" class="edge">
<title>Node1&#45;&gt;Node3</title>
<path fill="none" stroke="midnightblue" d="M762.68,-232.61C815.31,-222.78 884.09,-209.83 945,-198 954.82,-196.09 965.18,-194.05 975.35,-192.03"/>
<polygon fill="midnightblue" stroke="midnightblue" points="761.9,-229.19 752.71,-234.47 763.18,-236.07 761.9,-229.19"/>
</g>
<!-- Node4 -->
<g id="node4" class="node">
<title>Node4</title>
<g id="a_node4"><a xlink:href="ButtonCallbacks_8hpp.html" target="_top" xlink:title=" ">
<polygon fill="white" stroke="black" points="540,-156.5 540,-197.5 704,-197.5 704,-156.5 540,-156.5"/>
<text text-anchor="start" x="548" y="-185.5" font-family="Helvetica,sans-Serif" font-size="10.00">Libs/Engine/sources</text>
<text text-anchor="start" x="548" y="-174.5" font-family="Helvetica,sans-Serif" font-size="10.00">/Components/ButtonCallbacks</text>
<text text-anchor="middle" x="622" y="-163.5" font-family="Helvetica,sans-Serif" font-size="10.00">/ButtonCallbacks.hpp</text>
</a>
</g>
</g>
<!-- Node1&#45;&gt;Node4 -->
<g id="edge3" class="edge">
<title>Node1&#45;&gt;Node4</title>
<path fill="none" stroke="midnightblue" d="M659.65,-226.26C652.47,-217.06 644.23,-206.49 637.28,-197.59"/>
<polygon fill="midnightblue" stroke="midnightblue" points="656.96,-228.5 665.87,-234.23 662.48,-224.2 656.96,-228.5"/>
</g>
<!-- Node6 -->
<g id="node6" class="node">
<title>Node6</title>
<g id="a_node6"><a xlink:href="EntityFactory_8cpp.html" target="_top" xlink:title=" ">
<polygon fill="white" stroke="black" points="1011.5,-6 1011.5,-36 1180.5,-36 1180.5,-6 1011.5,-6"/>
<text text-anchor="start" x="1019.5" y="-24" font-family="Helvetica,sans-Serif" font-size="10.00">Libs/Engine/sources</text>
<text text-anchor="middle" x="1096" y="-13" font-family="Helvetica,sans-Serif" font-size="10.00">/EntityFactory/EntityFactory.cpp</text>
</a>
</g>
</g>
<!-- Node1&#45;&gt;Node6 -->
<g id="edge20" class="edge">
<title>Node1&#45;&gt;Node6</title>
<path fill="none" stroke="midnightblue" d="M716.88,-230.04C736.62,-220.72 760.72,-209.07 782,-198 891.78,-140.91 1019.58,-66.85 1071.85,-36.22"/>
<polygon fill="midnightblue" stroke="midnightblue" points="715.14,-226.99 707.57,-234.41 718.11,-233.33 715.14,-226.99"/>
</g>
<!-- Node7 -->
<g id="node7" class="node">
<title>Node7</title>
<g id="a_node7"><a xlink:href="Scenes_8cpp.html" target="_top" xlink:title=" ">
<polygon fill="white" stroke="black" points="331.5,-6 331.5,-36 444.5,-36 444.5,-6 331.5,-6"/>
<text text-anchor="start" x="339.5" y="-24" font-family="Helvetica,sans-Serif" font-size="10.00">Libs/Engine/sources</text>
<text text-anchor="middle" x="388" y="-13" font-family="Helvetica,sans-Serif" font-size="10.00">/Scenes/Scenes.cpp</text>
</a>
</g>
</g>
<!-- Node1&#45;&gt;Node7 -->
<g id="edge21" class="edge">
<title>Node1&#45;&gt;Node7</title>
<path fill="none" stroke="midnightblue" d="M599.85,-231.68C539.54,-214.3 458.8,-180.86 415,-120 396.55,-94.36 390.7,-56.66 388.85,-36.31"/>
<polygon fill="midnightblue" stroke="midnightblue" points="599.15,-235.12 609.73,-234.44 601.03,-228.38 599.15,-235.12"/>
</g>
<!-- Node8 -->
<g id="node8" class="node">
<title>Node8</title>
<g id="a_node8"><a xlink:href="Scenes_8hpp.html" target="_top" xlink:title=" ">
<polygon fill="white" stroke="black" points="675.5,-84 675.5,-114 788.5,-114 788.5,-84 675.5,-84"/>
<text text-anchor="start" x="683.5" y="-102" font-family="Helvetica,sans-Serif" font-size="10.00">Libs/Engine/sources</text>
<text text-anchor="middle" x="732" y="-91" font-family="Helvetica,sans-Serif" font-size="10.00">/Scenes/Scenes.hpp</text>
</a>
</g>
</g>
<!-- Node1&#45;&gt;Node8 -->
<g id="edge22" class="edge">
<title>Node1&#45;&gt;Node8</title>
<path fill="none" stroke="midnightblue" d="M695.71,-226.62C702.07,-218.16 708.67,-208.09 713,-198 725.1,-169.81 729.55,-133.75 731.14,-114.18"/>
<polygon fill="midnightblue" stroke="midnightblue" points="692.95,-224.46 689.51,-234.48 698.45,-228.8 692.95,-224.46"/>
</g>
<!-- Node10 -->
<g id="node10" class="node">
<title>Node10</title>
<g id="a_node10"><a xlink:href="Prototype_2sources_2Behaviour_2main_8cpp.html" target="_top" xlink:title=" ">
<polygon fill="white" stroke="black" points="836.5,-6 836.5,-36 993.5,-36 993.5,-6 836.5,-6"/>
<text text-anchor="start" x="844.5" y="-24" font-family="Helvetica,sans-Serif" font-size="10.00">Prototype/sources/Behaviour</text>
<text text-anchor="middle" x="915" y="-13" font-family="Helvetica,sans-Serif" font-size="10.00">/main.cpp</text>
</a>
</g>
</g>
<!-- Node1&#45;&gt;Node10 -->
<g id="edge24" class="edge">
<title>Node1&#45;&gt;Node10</title>
<path fill="none" stroke="midnightblue" d="M704.54,-228.3C736.76,-204.11 791.05,-161.63 833,-120 861.03,-92.19 889.72,-55.67 904.61,-36"/>
<polygon fill="midnightblue" stroke="midnightblue" points="702.37,-225.55 696.45,-234.33 706.56,-231.16 702.37,-225.55"/>
</g>
<!-- Node11 -->
<g id="node11" class="node">
<title>Node11</title>
<g id="a_node11"><a xlink:href="PauseSystem_8hpp.html" target="_top" xlink:title=" ">
<polygon fill="white" stroke="black" points="165,-78.5 165,-119.5 295,-119.5 295,-78.5 165,-78.5"/>
<text text-anchor="start" x="173" y="-107.5" font-family="Helvetica,sans-Serif" font-size="10.00">Libs/Engine/sources</text>
<text text-anchor="start" x="173" y="-96.5" font-family="Helvetica,sans-Serif" font-size="10.00">/Systems/PauseSystem</text>
<text text-anchor="middle" x="230" y="-85.5" font-family="Helvetica,sans-Serif" font-size="10.00">/PauseSystem.hpp</text>
</a>
</g>
</g>
<!-- Node1&#45;&gt;Node11 -->
<g id="edge23" class="edge">
<title>Node1&#45;&gt;Node11</title>
<path fill="none" stroke="midnightblue" d="M580.22,-243.28C487.11,-236.83 354.03,-223.45 309,-198 276.66,-179.72 252.43,-142.5 239.81,-119.56"/>
<polygon fill="midnightblue" stroke="midnightblue" points="580.02,-246.77 590.23,-243.96 580.49,-239.79 580.02,-246.77"/>
</g>
<!-- Node4&#45;&gt;Node2 -->
<g id="edge4" class="edge">
<title>Node4&#45;&gt;Node2</title>
<path fill="none" stroke="midnightblue" d="M529.87,-155.9C493.48,-146.72 451.67,-134.61 415,-120 378.42,-105.43 371.74,-96.53 337,-78 305.41,-61.15 268.42,-41.66 247.55,-30.69"/>
<polygon fill="midnightblue" stroke="midnightblue" points="529.44,-159.4 539.98,-158.41 531.12,-152.61 529.44,-159.4"/>
</g>
<!-- Node5 -->
<g id="node5" class="node">
<title>Node5</title>
<g id="a_node5"><a xlink:href="ButtonCallbacks_8cpp.html" target="_top" xlink:title=" ">
<polygon fill="white" stroke="black" points="463,-0.5 463,-41.5 627,-41.5 627,-0.5 463,-0.5"/>
<text text-anchor="start" x="471" y="-29.5" font-family="Helvetica,sans-Serif" font-size="10.00">Libs/Engine/sources</text>
<text text-anchor="start" x="471" y="-18.5" font-family="Helvetica,sans-Serif" font-size="10.00">/Components/ButtonCallbacks</text>
<text text-anchor="middle" x="545" y="-7.5" font-family="Helvetica,sans-Serif" font-size="10.00">/ButtonCallbacks.cpp</text>
</a>
</g>
</g>
<!-- Node4&#45;&gt;Node5 -->
<g id="edge5" class="edge">
<title>Node4&#45;&gt;Node5</title>
<path fill="none" stroke="midnightblue" d="M631.54,-146.6C636.38,-126.19 639.16,-98.99 628,-78 619.76,-62.5 605.1,-50.51 590.37,-41.68"/>
<polygon fill="midnightblue" stroke="midnightblue" points="628.14,-145.75 628.96,-156.31 634.91,-147.54 628.14,-145.75"/>
</g>
<!-- Node4&#45;&gt;Node6 -->
<g id="edge6" class="edge">
<title>Node4&#45;&gt;Node6</title>
<path fill="none" stroke="midnightblue" d="M714.02,-155.91C751.47,-146.62 794.84,-134.43 833,-120 872.04,-105.24 878.29,-93.61 917,-78 958.67,-61.19 1007.43,-46.23 1043.53,-36.01"/>
<polygon fill="midnightblue" stroke="midnightblue" points="713.01,-152.56 704.13,-158.33 714.67,-159.36 713.01,-152.56"/>
</g>
<!-- Node4&#45;&gt;Node7 -->
<g id="edge7" class="edge">
<title>Node4&#45;&gt;Node7</title>
<path fill="none" stroke="midnightblue" d="M529.96,-156.4C504.36,-148.03 477.66,-136.29 456,-120 425.88,-97.35 404.22,-57.37 394.21,-36.15"/>
<polygon fill="midnightblue" stroke="midnightblue" points="529.12,-159.81 539.71,-159.45 531.21,-153.12 529.12,-159.81"/>
</g>
<!-- Node4&#45;&gt;Node8 -->
<g id="edge8" class="edge">
<title>Node4&#45;&gt;Node8</title>
<path fill="none" stroke="midnightblue" d="M658.68,-150.66C676.24,-138.53 696.61,-124.45 711.41,-114.23"/>
<polygon fill="midnightblue" stroke="midnightblue" points="656.57,-147.86 650.33,-156.43 660.54,-153.62 656.57,-147.86"/>
</g>
<!-- Node4&#45;&gt;Node10 -->
<g id="edge18" class="edge">
<title>Node4&#45;&gt;Node10</title>
<path fill="none" stroke="midnightblue" d="M714.07,-155.48C742.2,-146.95 772.43,-135.36 798,-120 820.9,-106.25 820.75,-95.43 841,-78 858.58,-62.86 879.8,-47.04 895,-36.09"/>
<polygon fill="midnightblue" stroke="midnightblue" points="712.83,-152.2 704.22,-158.38 714.81,-158.92 712.83,-152.2"/>
</g>
<!-- Node4&#45;&gt;Node11 -->
<g id="edge15" class="edge">
<title>Node4&#45;&gt;Node11</title>
<path fill="none" stroke="midnightblue" d="M529.83,-158.13C457.75,-144.16 359.32,-125.07 295.22,-112.64"/>
<polygon fill="midnightblue" stroke="midnightblue" points="529.34,-161.6 539.82,-160.07 530.67,-154.73 529.34,-161.6"/>
</g>
<!-- Node13 -->
<g id="node13" class="node">
<title>Node13</title>
<g id="a_node13"><a xlink:href="Prototype_2sources_2Drawable_2main_8cpp.html" target="_top" xlink:title=" ">
<polygon fill="white" stroke="black" points="465,-84 465,-114 619,-114 619,-84 465,-84"/>
<text text-anchor="start" x="473" y="-102" font-family="Helvetica,sans-Serif" font-size="10.00">Prototype/sources/Drawable</text>
<text text-anchor="middle" x="542" y="-91" font-family="Helvetica,sans-Serif" font-size="10.00">/main.cpp</text>
</a>
</g>
</g>
<!-- Node4&#45;&gt;Node13 -->
<g id="edge19" class="edge">
<title>Node4&#45;&gt;Node13</title>
<path fill="none" stroke="midnightblue" d="M593.92,-149.32C581.48,-137.51 567.35,-124.08 556.97,-114.23"/>
<polygon fill="midnightblue" stroke="midnightblue" points="591.74,-152.08 601.4,-156.43 596.56,-147 591.74,-152.08"/>
</g>
<!-- Node8&#45;&gt;Node2 -->
<g id="edge9" class="edge">
<title>Node8&#45;&gt;Node2</title>
<path fill="none" stroke="midnightblue" d="M665.59,-84.48C653.13,-82.16 640.19,-79.89 628,-78 492.67,-57.06 457.04,-64.73 322,-42 303.34,-38.86 282.73,-34.41 265.84,-30.51"/>
<polygon fill="midnightblue" stroke="midnightblue" points="664.98,-87.93 675.46,-86.35 666.28,-81.05 664.98,-87.93"/>
</g>
<!-- Node8&#45;&gt;Node5 -->
<g id="edge10" class="edge">
<title>Node8&#45;&gt;Node5</title>
<path fill="none" stroke="midnightblue" d="M687.97,-80.11C659.54,-68.55 622.53,-53.51 593.29,-41.63"/>
<polygon fill="midnightblue" stroke="midnightblue" points="686.68,-83.36 697.26,-83.88 689.32,-76.88 686.68,-83.36"/>
</g>
<!-- Node8&#45;&gt;Node6 -->
<g id="edge12" class="edge">
<title>Node8&#45;&gt;Node6</title>
<path fill="none" stroke="midnightblue" d="M798.55,-84.4C853.43,-73.15 933.3,-56.7 1003,-42 1012.13,-40.07 1021.76,-38.03 1031.22,-36"/>
<polygon fill="midnightblue" stroke="midnightblue" points="797.7,-81.01 788.6,-86.44 799.1,-87.86 797.7,-81.01"/>
</g>
<!-- Node8&#45;&gt;Node7 -->
<g id="edge13" class="edge">
<title>Node8&#45;&gt;Node7</title>
<path fill="none" stroke="midnightblue" d="M665.34,-84.92C589.73,-70.03 474.25,-47.09 454,-42 446.92,-40.22 439.46,-38.15 432.22,-36.03"/>
<polygon fill="midnightblue" stroke="midnightblue" points="664.78,-88.38 675.27,-86.87 666.14,-81.51 664.78,-88.38"/>
</g>
<!-- Node9 -->
<g id="node9" class="node">
<title>Node9</title>
<g id="a_node9"><a xlink:href="GameConfigurator_8cpp.html" target="_top" xlink:title=" ">
<polygon fill="white" stroke="black" points="645.5,-0.5 645.5,-41.5 818.5,-41.5 818.5,-0.5 645.5,-0.5"/>
<text text-anchor="start" x="653.5" y="-29.5" font-family="Helvetica,sans-Serif" font-size="10.00">Libs/Engine/sources</text>
<text text-anchor="start" x="653.5" y="-18.5" font-family="Helvetica,sans-Serif" font-size="10.00">/Components/GameConfigurator</text>
<text text-anchor="middle" x="732" y="-7.5" font-family="Helvetica,sans-Serif" font-size="10.00">/GameConfigurator.cpp</text>
</a>
</g>
</g>
<!-- Node8&#45;&gt;Node9 -->
<g id="edge11" class="edge">
<title>Node8&#45;&gt;Node9</title>
<path fill="none" stroke="midnightblue" d="M732,-73.66C732,-63.33 732,-51.44 732,-41.68"/>
<polygon fill="midnightblue" stroke="midnightblue" points="728.5,-73.7 732,-83.7 735.5,-73.71 728.5,-73.7"/>
</g>
<!-- Node8&#45;&gt;Node10 -->
<g id="edge14" class="edge">
<title>Node8&#45;&gt;Node10</title>
<path fill="none" stroke="midnightblue" d="M775.23,-80.05C807.62,-66.59 851.33,-48.44 881.19,-36.04"/>
<polygon fill="midnightblue" stroke="midnightblue" points="773.88,-76.82 765.99,-83.88 776.57,-83.28 773.88,-76.82"/>
</g>
<!-- Node11&#45;&gt;Node2 -->
<g id="edge16" class="edge">
<title>Node11&#45;&gt;Node2</title>
<path fill="none" stroke="midnightblue" d="M230.39,-68.05C230.57,-54.56 230.77,-39.65 230.89,-30.55"/>
<polygon fill="midnightblue" stroke="midnightblue" points="226.89,-68.38 230.26,-78.43 233.89,-68.48 226.89,-68.38"/>
</g>
<!-- Node12 -->
<g id="node12" class="node">
<title>Node12</title>
<g id="a_node12"><a xlink:href="PauseSystem_8cpp.html" target="_top" xlink:title=" ">
<polygon fill="white" stroke="black" points="0,-0.5 0,-41.5 130,-41.5 130,-0.5 0,-0.5"/>
<text text-anchor="start" x="8" y="-29.5" font-family="Helvetica,sans-Serif" font-size="10.00">Libs/Engine/sources</text>
<text text-anchor="start" x="8" y="-18.5" font-family="Helvetica,sans-Serif" font-size="10.00">/Systems/PauseSystem</text>
<text text-anchor="middle" x="65" y="-7.5" font-family="Helvetica,sans-Serif" font-size="10.00">/PauseSystem.cpp</text>
</a>
</g>
</g>
<!-- Node11&#45;&gt;Node12 -->
<g id="edge17" class="edge">
<title>Node11&#45;&gt;Node12</title>
<path fill="none" stroke="midnightblue" d="M178.31,-74.19C155.48,-63.67 128.98,-51.47 107.35,-41.51"/>
<polygon fill="midnightblue" stroke="midnightblue" points="176.96,-77.42 187.51,-78.43 179.89,-71.07 176.96,-77.42"/>
</g>
</g>
</svg>
