<?xml version="1.0" encoding="UTF-8" standalone="no"?>
<!DOCTYPE svg PUBLIC "-//W3C//DTD SVG 1.1//EN"
 "http://www.w3.org/Graphics/SVG/1.1/DTD/svg11.dtd">
<!-- Generated by graphviz version 2.43.0 (0)
 -->
<!-- Title: Libs/Engine/sources/Components/Button/Button.cpp Pages: 1 -->
<svg width="1511pt" height="498pt"
 viewBox="0.00 0.00 1510.50 498.00" xmlns="http://www.w3.org/2000/svg" xmlns:xlink="http://www.w3.org/1999/xlink">
<g id="graph0" class="graph" transform="scale(1 1) rotate(0) translate(4 494)">
<title>Libs/Engine/sources/Components/Button/Button.cpp</title>
<polygon fill="white" stroke="transparent" points="-4,4 -4,-494 1506.5,-494 1506.5,4 -4,4"/>
<!-- Node1 -->
<g id="node1" class="node">
<title>Node1</title>
<g id="a_node1"><a xlink:title=" ">
<polygon fill="#bfbfbf" stroke="black" points="1083.5,-459.5 1083.5,-489.5 1255.5,-489.5 1255.5,-459.5 1083.5,-459.5"/>
<text text-anchor="start" x="1091.5" y="-477.5" font-family="Helvetica,sans-Serif" font-size="10.00">Libs/Engine/sources</text>
<text text-anchor="middle" x="1169.5" y="-466.5" font-family="Helvetica,sans-Serif" font-size="10.00">/Components/Button/Button.cpp</text>
</a>
</g>
</g>
<!-- Node2 -->
<g id="node2" class="node">
<title>Node2</title>
<g id="a_node2"><a xlink:href="Button_8hpp.html" target="_top" xlink:title=" ">
<polygon fill="white" stroke="black" points="522.5,-403.5 522.5,-422.5 592.5,-422.5 592.5,-403.5 522.5,-403.5"/>
<text text-anchor="middle" x="557.5" y="-410.5" font-family="Helvetica,sans-Serif" font-size="10.00">Button.hpp</text>
</a>
</g>
</g>
<!-- Node1&#45;&gt;Node2 -->
<g id="edge1" class="edge">
<title>Node1&#45;&gt;Node2</title>
<path fill="none" stroke="midnightblue" d="M1083.44,-465.13C951.64,-452.32 704.4,-428.28 602.83,-418.41"/>
<polygon fill="midnightblue" stroke="midnightblue" points="602.9,-414.9 592.61,-417.41 602.22,-421.86 602.9,-414.9"/>
</g>
<!-- Node27 -->
<g id="node27" class="node">
<title>Node27</title>
<g id="a_node27"><a xlink:title=" ">
<polygon fill="white" stroke="#bfbfbf" points="1246.5,-235.5 1246.5,-254.5 1304.5,-254.5 1304.5,-235.5 1246.5,-235.5"/>
<text text-anchor="middle" x="1275.5" y="-242.5" font-family="Helvetica,sans-Serif" font-size="10.00">memory</text>
</a>
</g>
</g>
<!-- Node1&#45;&gt;Node27 -->
<g id="edge52" class="edge">
<title>Node1&#45;&gt;Node27</title>
<path fill="none" stroke="midnightblue" d="M1171.52,-459.2C1176.58,-426.99 1192.03,-347.24 1227.5,-291 1234.76,-279.49 1245.65,-268.95 1255.23,-260.97"/>
<polygon fill="midnightblue" stroke="midnightblue" points="1257.53,-263.61 1263.18,-254.65 1253.17,-258.13 1257.53,-263.61"/>
</g>
<!-- Node28 -->
<g id="node28" class="node">
<title>Node28</title>
<g id="a_node28"><a xlink:href="Window_8hpp.html" target="_top" xlink:title=" ">
<polygon fill="white" stroke="black" points="1009.5,-291.5 1009.5,-310.5 1085.5,-310.5 1085.5,-291.5 1009.5,-291.5"/>
<text text-anchor="middle" x="1047.5" y="-298.5" font-family="Helvetica,sans-Serif" font-size="10.00">Window.hpp</text>
</a>
</g>
</g>
<!-- Node1&#45;&gt;Node28 -->
<g id="edge53" class="edge">
<title>Node1&#45;&gt;Node28</title>
<path fill="none" stroke="midnightblue" d="M1159.52,-459.47C1137.25,-428.17 1083.61,-352.76 1059.54,-318.93"/>
<polygon fill="midnightblue" stroke="midnightblue" points="1062.24,-316.68 1053.59,-310.56 1056.53,-320.74 1062.24,-316.68"/>
</g>
<!-- Node29 -->
<g id="node29" class="node">
<title>Node29</title>
<g id="a_node29"><a xlink:href="AssetCache_8hpp.html" target="_top" xlink:title=" ">
<polygon fill="white" stroke="black" points="1236,-291.5 1236,-310.5 1331,-310.5 1331,-291.5 1236,-291.5"/>
<text text-anchor="middle" x="1283.5" y="-298.5" font-family="Helvetica,sans-Serif" font-size="10.00">AssetCache.hpp</text>
</a>
</g>
</g>
<!-- Node1&#45;&gt;Node29 -->
<g id="edge62" class="edge">
<title>Node1&#45;&gt;Node29</title>
<path fill="none" stroke="midnightblue" d="M1186.84,-459.26C1197.7,-449.76 1211.47,-436.56 1221.5,-423 1246.2,-389.61 1266.23,-344.95 1276.35,-320.29"/>
<polygon fill="midnightblue" stroke="midnightblue" points="1279.7,-321.35 1280.17,-310.76 1273.2,-318.74 1279.7,-321.35"/>
</g>
<!-- Node33 -->
<g id="node33" class="node">
<title>Node33</title>
<g id="a_node33"><a xlink:href="Physics2D_8hpp.html" target="_top" xlink:title=" ">
<polygon fill="white" stroke="black" points="220.5,-291.5 220.5,-310.5 308.5,-310.5 308.5,-291.5 220.5,-291.5"/>
<text text-anchor="middle" x="264.5" y="-298.5" font-family="Helvetica,sans-Serif" font-size="10.00">Physics2D.hpp</text>
</a>
</g>
</g>
<!-- Node1&#45;&gt;Node33 -->
<g id="edge69" class="edge">
<title>Node1&#45;&gt;Node33</title>
<path fill="none" stroke="midnightblue" d="M1083.25,-474.27C956.8,-473.74 714.33,-466.39 513.5,-423 442.31,-407.62 424.29,-400.27 359.5,-367 331.26,-352.5 301.49,-330.97 282.96,-316.71"/>
<polygon fill="midnightblue" stroke="midnightblue" points="285.09,-313.94 275.05,-310.55 280.79,-319.46 285.09,-313.94"/>
</g>
<!-- Node3 -->
<g id="node3" class="node">
<title>Node3</title>
<g id="a_node3"><a xlink:href="IComponent_8hpp.html" target="_top" xlink:title=" ">
<polygon fill="white" stroke="black" points="0,-123.5 0,-142.5 97,-142.5 97,-123.5 0,-123.5"/>
<text text-anchor="middle" x="48.5" y="-130.5" font-family="Helvetica,sans-Serif" font-size="10.00">IComponent.hpp</text>
</a>
</g>
</g>
<!-- Node2&#45;&gt;Node3 -->
<g id="edge2" class="edge">
<title>Node2&#45;&gt;Node3</title>
<path fill="none" stroke="midnightblue" d="M522.11,-411.91C406.68,-410.69 48.5,-399.08 48.5,-302 48.5,-302 48.5,-302 48.5,-244 48.5,-211.95 48.5,-174.64 48.5,-152.75"/>
<polygon fill="midnightblue" stroke="midnightblue" points="52,-152.56 48.5,-142.56 45,-152.56 52,-152.56"/>
</g>
<!-- Node9 -->
<g id="node9" class="node">
<title>Node9</title>
<g id="a_node9"><a xlink:title=" ">
<polygon fill="white" stroke="#bfbfbf" points="525,-347.5 525,-366.5 590,-366.5 590,-347.5 525,-347.5"/>
<text text-anchor="middle" x="557.5" y="-354.5" font-family="Helvetica,sans-Serif" font-size="10.00">functional</text>
</a>
</g>
</g>
<!-- Node2&#45;&gt;Node9 -->
<g id="edge9" class="edge">
<title>Node2&#45;&gt;Node9</title>
<path fill="none" stroke="midnightblue" d="M557.5,-403.08C557.5,-396.01 557.5,-385.86 557.5,-376.99"/>
<polygon fill="midnightblue" stroke="midnightblue" points="561,-376.75 557.5,-366.75 554,-376.75 561,-376.75"/>
</g>
<!-- Node10 -->
<g id="node10" class="node">
<title>Node10</title>
<g id="a_node10"><a xlink:title=" ">
<polygon fill="white" stroke="#bfbfbf" points="608,-347.5 608,-366.5 655,-366.5 655,-347.5 608,-347.5"/>
<text text-anchor="middle" x="631.5" y="-354.5" font-family="Helvetica,sans-Serif" font-size="10.00">vector</text>
</a>
</g>
</g>
<!-- Node2&#45;&gt;Node10 -->
<g id="edge10" class="edge">
<title>Node2&#45;&gt;Node10</title>
<path fill="none" stroke="midnightblue" d="M569.39,-403.32C580.65,-395.11 597.79,-382.6 611.21,-372.81"/>
<polygon fill="midnightblue" stroke="midnightblue" points="613.38,-375.56 619.39,-366.83 609.25,-369.9 613.38,-375.56"/>
</g>
<!-- Node11 -->
<g id="node11" class="node">
<title>Node11</title>
<g id="a_node11"><a xlink:href="Texture_8hpp.html" target="_top" xlink:title=" ">
<polygon fill="white" stroke="black" points="655.5,-291.5 655.5,-310.5 729.5,-310.5 729.5,-291.5 655.5,-291.5"/>
<text text-anchor="middle" x="692.5" y="-298.5" font-family="Helvetica,sans-Serif" font-size="10.00">Texture.hpp</text>
</a>
</g>
</g>
<!-- Node2&#45;&gt;Node11 -->
<g id="edge11" class="edge">
<title>Node2&#45;&gt;Node11</title>
<path fill="none" stroke="midnightblue" d="M592.66,-404.47C615.63,-397.96 644.89,-386.44 664.5,-367 677.29,-354.32 684.62,-334.84 688.54,-320.51"/>
<polygon fill="midnightblue" stroke="midnightblue" points="691.95,-321.3 690.91,-310.76 685.15,-319.65 691.95,-321.3"/>
</g>
<!-- Node22 -->
<g id="node22" class="node">
<title>Node22</title>
<g id="a_node22"><a xlink:href="Rectangle_8hpp.html" target="_top" xlink:title=" ">
<polygon fill="white" stroke="black" points="312.5,-235.5 312.5,-254.5 398.5,-254.5 398.5,-235.5 312.5,-235.5"/>
<text text-anchor="middle" x="355.5" y="-242.5" font-family="Helvetica,sans-Serif" font-size="10.00">Rectangle.hpp</text>
</a>
</g>
</g>
<!-- Node2&#45;&gt;Node22 -->
<g id="edge45" class="edge">
<title>Node2&#45;&gt;Node22</title>
<path fill="none" stroke="midnightblue" d="M522.19,-407.88C475.02,-401.64 395.11,-388.21 375.5,-367 349.69,-339.08 350.16,-291.23 352.8,-264.85"/>
<polygon fill="midnightblue" stroke="midnightblue" points="356.3,-265.03 354.04,-254.68 349.35,-264.18 356.3,-265.03"/>
</g>
<!-- Node24 -->
<g id="node24" class="node">
<title>Node24</title>
<g id="a_node24"><a xlink:href="IUIObject_8hpp.html" target="_top" xlink:title=" ">
<polygon fill="white" stroke="black" points="385,-347.5 385,-366.5 468,-366.5 468,-347.5 385,-347.5"/>
<text text-anchor="middle" x="426.5" y="-354.5" font-family="Helvetica,sans-Serif" font-size="10.00">IUIObject.hpp</text>
</a>
</g>
</g>
<!-- Node2&#45;&gt;Node24 -->
<g id="edge41" class="edge">
<title>Node2&#45;&gt;Node24</title>
<path fill="none" stroke="midnightblue" d="M536.74,-403.44C515.18,-394.56 481.24,-380.56 456.71,-370.45"/>
<polygon fill="midnightblue" stroke="midnightblue" points="457.74,-367.09 447.16,-366.52 455.07,-373.56 457.74,-367.09"/>
</g>
<!-- Node25 -->
<g id="node25" class="node">
<title>Node25</title>
<g id="a_node25"><a xlink:href="Mouse_8hpp.html" target="_top" xlink:title=" ">
<polygon fill="white" stroke="black" points="454.5,-235.5 454.5,-254.5 524.5,-254.5 524.5,-235.5 454.5,-235.5"/>
<text text-anchor="middle" x="489.5" y="-242.5" font-family="Helvetica,sans-Serif" font-size="10.00">Mouse.hpp</text>
</a>
</g>
</g>
<!-- Node2&#45;&gt;Node25 -->
<g id="edge46" class="edge">
<title>Node2&#45;&gt;Node25</title>
<path fill="none" stroke="midnightblue" d="M547.1,-403.46C537.66,-395.14 524.1,-381.63 516.5,-367 499.19,-333.69 492.94,-289.62 490.71,-264.9"/>
<polygon fill="midnightblue" stroke="midnightblue" points="494.18,-264.43 489.92,-254.73 487.2,-264.97 494.18,-264.43"/>
</g>
<!-- Node26 -->
<g id="node26" class="node">
<title>Node26</title>
<g id="a_node26"><a xlink:href="BoundingBox_8hpp.html" target="_top" xlink:title=" ">
<polygon fill="white" stroke="black" points="1088.5,-235.5 1088.5,-254.5 1190.5,-254.5 1190.5,-235.5 1088.5,-235.5"/>
<text text-anchor="middle" x="1139.5" y="-242.5" font-family="Helvetica,sans-Serif" font-size="10.00">BoundingBox.hpp</text>
</a>
</g>
</g>
<!-- Node2&#45;&gt;Node26 -->
<g id="edge50" class="edge">
<title>Node2&#45;&gt;Node26</title>
<path fill="none" stroke="midnightblue" d="M592.73,-409.92C701.78,-402.85 1031.4,-376.39 1112.5,-311 1126.6,-299.63 1133.42,-279.64 1136.67,-264.82"/>
<polygon fill="midnightblue" stroke="midnightblue" points="1140.16,-265.19 1138.52,-254.72 1133.27,-263.93 1140.16,-265.19"/>
</g>
<!-- Node4 -->
<g id="node4" class="node">
<title>Node4</title>
<g id="a_node4"><a xlink:title=" ">
<polygon fill="white" stroke="#bfbfbf" points="118,-6 118,-25 175,-25 175,-6 118,-6"/>
<text text-anchor="middle" x="146.5" y="-13" font-family="Helvetica,sans-Serif" font-size="10.00">ostream</text>
</a>
</g>
</g>
<!-- Node3&#45;&gt;Node4 -->
<g id="edge3" class="edge">
<title>Node3&#45;&gt;Node4</title>
<path fill="none" stroke="midnightblue" d="M55.87,-123.32C72.11,-104.17 111.25,-58.04 132.39,-33.13"/>
<polygon fill="midnightblue" stroke="midnightblue" points="135.25,-35.17 139.05,-25.28 129.91,-30.64 135.25,-35.17"/>
</g>
<!-- Node5 -->
<g id="node5" class="node">
<title>Node5</title>
<g id="a_node5"><a xlink:href="IXMLSerializable_8hpp.html" target="_top" xlink:title=" ">
<polygon fill="white" stroke="black" points="350,-67.5 350,-86.5 469,-86.5 469,-67.5 350,-67.5"/>
<text text-anchor="middle" x="409.5" y="-74.5" font-family="Helvetica,sans-Serif" font-size="10.00">IXMLSerializable.hpp</text>
</a>
</g>
</g>
<!-- Node3&#45;&gt;Node5 -->
<g id="edge4" class="edge">
<title>Node3&#45;&gt;Node5</title>
<path fill="none" stroke="midnightblue" d="M97.19,-124.72C160.38,-115.26 270.97,-98.72 342.17,-88.07"/>
<polygon fill="midnightblue" stroke="midnightblue" points="343.01,-91.49 352.38,-86.54 341.97,-84.56 343.01,-91.49"/>
</g>
<!-- Node5&#45;&gt;Node4 -->
<g id="edge5" class="edge">
<title>Node5&#45;&gt;Node4</title>
<path fill="none" stroke="midnightblue" d="M371.82,-67.48C322.12,-56.23 235.12,-36.55 185.01,-25.21"/>
<polygon fill="midnightblue" stroke="midnightblue" points="185.73,-21.79 175.21,-22.99 184.19,-28.61 185.73,-21.79"/>
</g>
<!-- Node6 -->
<g id="node6" class="node">
<title>Node6</title>
<g id="a_node6"><a xlink:title=" ">
<polygon fill="white" stroke="#bfbfbf" points="484.5,-6 484.5,-25 544.5,-25 544.5,-6 484.5,-6"/>
<text text-anchor="middle" x="514.5" y="-13" font-family="Helvetica,sans-Serif" font-size="10.00">iostream</text>
</a>
</g>
</g>
<!-- Node5&#45;&gt;Node6 -->
<g id="edge6" class="edge">
<title>Node5&#45;&gt;Node6</title>
<path fill="none" stroke="midnightblue" d="M424.54,-67.48C441.78,-57.71 470.24,-41.58 490.53,-30.08"/>
<polygon fill="midnightblue" stroke="midnightblue" points="492.51,-32.98 499.48,-25.01 489.06,-26.89 492.51,-32.98"/>
</g>
<!-- Node7 -->
<g id="node7" class="node">
<title>Node7</title>
<g id="a_node7"><a xlink:title=" ">
<polygon fill="white" stroke="#bfbfbf" points="222,-0.5 222,-30.5 335,-30.5 335,-0.5 222,-0.5"/>
<text text-anchor="start" x="230" y="-18.5" font-family="Helvetica,sans-Serif" font-size="10.00">boost/property_tree</text>
<text text-anchor="middle" x="278.5" y="-7.5" font-family="Helvetica,sans-Serif" font-size="10.00">/ptree.hpp</text>
</a>
</g>
</g>
<!-- Node5&#45;&gt;Node7 -->
<g id="edge7" class="edge">
<title>Node5&#45;&gt;Node7</title>
<path fill="none" stroke="midnightblue" d="M390.73,-67.48C371.99,-58.96 342.61,-45.62 318.61,-34.72"/>
<polygon fill="midnightblue" stroke="midnightblue" points="319.93,-31.47 309.37,-30.52 317.03,-37.85 319.93,-31.47"/>
</g>
<!-- Node8 -->
<g id="node8" class="node">
<title>Node8</title>
<g id="a_node8"><a xlink:title=" ">
<polygon fill="white" stroke="#bfbfbf" points="353,-0.5 353,-30.5 466,-30.5 466,-0.5 353,-0.5"/>
<text text-anchor="start" x="361" y="-18.5" font-family="Helvetica,sans-Serif" font-size="10.00">boost/property_tree</text>
<text text-anchor="middle" x="409.5" y="-7.5" font-family="Helvetica,sans-Serif" font-size="10.00">/xml_parser.hpp</text>
</a>
</g>
</g>
<!-- Node5&#45;&gt;Node8 -->
<g id="edge8" class="edge">
<title>Node5&#45;&gt;Node8</title>
<path fill="none" stroke="midnightblue" d="M409.5,-67.48C409.5,-60.47 409.5,-50.19 409.5,-40.7"/>
<polygon fill="midnightblue" stroke="midnightblue" points="413,-40.52 409.5,-30.52 406,-40.52 413,-40.52"/>
</g>
<!-- Node12 -->
<g id="node12" class="node">
<title>Node12</title>
<g id="a_node12"><a xlink:title=" ">
<polygon fill="white" stroke="#bfbfbf" points="502,-67.5 502,-86.5 555,-86.5 555,-67.5 502,-67.5"/>
<text text-anchor="middle" x="528.5" y="-74.5" font-family="Helvetica,sans-Serif" font-size="10.00">raylib.h</text>
</a>
</g>
</g>
<!-- Node11&#45;&gt;Node12 -->
<g id="edge12" class="edge">
<title>Node11&#45;&gt;Node12</title>
<path fill="none" stroke="midnightblue" d="M683.24,-291.47C673.98,-282.73 659.56,-268.54 648.5,-255 603.59,-200.02 558.82,-128.42 539.04,-95.7"/>
<polygon fill="midnightblue" stroke="midnightblue" points="541.87,-93.63 533.73,-86.86 535.87,-97.24 541.87,-93.63"/>
</g>
<!-- Node13 -->
<g id="node13" class="node">
<title>Node13</title>
<g id="a_node13"><a xlink:title=" ">
<polygon fill="white" stroke="#bfbfbf" points="924.5,-179.5 924.5,-198.5 968.5,-198.5 968.5,-179.5 924.5,-179.5"/>
<text text-anchor="middle" x="946.5" y="-186.5" font-family="Helvetica,sans-Serif" font-size="10.00">string</text>
</a>
</g>
</g>
<!-- Node11&#45;&gt;Node13 -->
<g id="edge13" class="edge">
<title>Node11&#45;&gt;Node13</title>
<path fill="none" stroke="midnightblue" d="M729.73,-296.89C769.04,-292.31 831.82,-281.25 879.5,-255 901.57,-242.85 921.55,-221.48 933.83,-206.57"/>
<polygon fill="midnightblue" stroke="midnightblue" points="936.64,-208.66 940.13,-198.66 931.17,-204.3 936.64,-208.66"/>
</g>
<!-- Node14 -->
<g id="node14" class="node">
<title>Node14</title>
<g id="a_node14"><a xlink:href="Image_8hpp.html" target="_top" xlink:title=" ">
<polygon fill="white" stroke="black" points="802.5,-235.5 802.5,-254.5 870.5,-254.5 870.5,-235.5 802.5,-235.5"/>
<text text-anchor="middle" x="836.5" y="-242.5" font-family="Helvetica,sans-Serif" font-size="10.00">Image.hpp</text>
</a>
</g>
</g>
<!-- Node11&#45;&gt;Node14 -->
<g id="edge14" class="edge">
<title>Node11&#45;&gt;Node14</title>
<path fill="none" stroke="midnightblue" d="M715.32,-291.44C739.33,-282.44 777.33,-268.19 804.37,-258.05"/>
<polygon fill="midnightblue" stroke="midnightblue" points="805.66,-261.3 813.79,-254.52 803.2,-254.75 805.66,-261.3"/>
</g>
<!-- Node15 -->
<g id="node15" class="node">
<title>Node15</title>
<g id="a_node15"><a xlink:href="Color_8hpp.html" target="_top" xlink:title=" ">
<polygon fill="white" stroke="black" points="765.5,-179.5 765.5,-198.5 827.5,-198.5 827.5,-179.5 765.5,-179.5"/>
<text text-anchor="middle" x="796.5" y="-186.5" font-family="Helvetica,sans-Serif" font-size="10.00">Color.hpp</text>
</a>
</g>
</g>
<!-- Node11&#45;&gt;Node15 -->
<g id="edge29" class="edge">
<title>Node11&#45;&gt;Node15</title>
<path fill="none" stroke="midnightblue" d="M707.77,-291.43C721.38,-283.28 741.29,-270.05 755.5,-255 768.91,-240.79 780.4,-221.57 787.77,-207.72"/>
<polygon fill="midnightblue" stroke="midnightblue" points="790.93,-209.22 792.38,-198.73 784.7,-206.03 790.93,-209.22"/>
</g>
<!-- Node19 -->
<g id="node19" class="node">
<title>Node19</title>
<g id="a_node19"><a xlink:href="Vector2_8hpp.html" target="_top" xlink:title=" ">
<polygon fill="white" stroke="black" points="485.5,-179.5 485.5,-198.5 559.5,-198.5 559.5,-179.5 485.5,-179.5"/>
<text text-anchor="middle" x="522.5" y="-186.5" font-family="Helvetica,sans-Serif" font-size="10.00">Vector2.hpp</text>
</a>
</g>
</g>
<!-- Node11&#45;&gt;Node19 -->
<g id="edge30" class="edge">
<title>Node11&#45;&gt;Node19</title>
<path fill="none" stroke="midnightblue" d="M657.49,-291.46C633.21,-284.38 600.96,-272.6 576.5,-255 558.53,-242.06 542.98,-221.79 533.24,-207.32"/>
<polygon fill="midnightblue" stroke="midnightblue" points="536.09,-205.28 527.71,-198.79 530.21,-209.09 536.09,-205.28"/>
</g>
<!-- Node20 -->
<g id="node20" class="node">
<title>Node20</title>
<g id="a_node20"><a xlink:href="Camera3D_8hpp.html" target="_top" xlink:title=" ">
<polygon fill="white" stroke="black" points="657,-235.5 657,-254.5 746,-254.5 746,-235.5 657,-235.5"/>
<text text-anchor="middle" x="701.5" y="-242.5" font-family="Helvetica,sans-Serif" font-size="10.00">Camera3D.hpp</text>
</a>
</g>
</g>
<!-- Node11&#45;&gt;Node20 -->
<g id="edge31" class="edge">
<title>Node11&#45;&gt;Node20</title>
<path fill="none" stroke="midnightblue" d="M693.99,-291.08C695.18,-283.93 696.89,-273.64 698.38,-264.69"/>
<polygon fill="midnightblue" stroke="midnightblue" points="701.85,-265.19 700.04,-254.75 694.95,-264.04 701.85,-265.19"/>
</g>
<!-- Node11&#45;&gt;Node22 -->
<g id="edge37" class="edge">
<title>Node11&#45;&gt;Node22</title>
<path fill="none" stroke="midnightblue" d="M655.47,-294.07C595.7,-284.49 477.72,-265.58 408.88,-254.55"/>
<polygon fill="midnightblue" stroke="midnightblue" points="409.11,-251.05 398.68,-252.92 408,-257.96 409.11,-251.05"/>
</g>
<!-- Node23 -->
<g id="node23" class="node">
<title>Node23</title>
<g id="a_node23"><a xlink:href="IAsset_8hpp.html" target="_top" xlink:title=" ">
<polygon fill="white" stroke="black" points="964.5,-235.5 964.5,-254.5 1032.5,-254.5 1032.5,-235.5 964.5,-235.5"/>
<text text-anchor="middle" x="998.5" y="-242.5" font-family="Helvetica,sans-Serif" font-size="10.00">IAsset.hpp</text>
</a>
</g>
</g>
<!-- Node11&#45;&gt;Node23 -->
<g id="edge40" class="edge">
<title>Node11&#45;&gt;Node23</title>
<path fill="none" stroke="midnightblue" d="M729.72,-293.43C786.33,-283.44 893.87,-264.46 954.35,-253.79"/>
<polygon fill="midnightblue" stroke="midnightblue" points="955.12,-257.21 964.36,-252.03 953.9,-250.32 955.12,-257.21"/>
</g>
<!-- Node14&#45;&gt;Node12 -->
<g id="edge16" class="edge">
<title>Node14&#45;&gt;Node12</title>
<path fill="none" stroke="midnightblue" d="M838.2,-235.31C840.31,-222.58 842.92,-198.27 836.5,-179 826.66,-149.49 821.06,-139.19 794.5,-123 756.62,-99.91 629.12,-86.35 565.4,-80.86"/>
<polygon fill="midnightblue" stroke="midnightblue" points="565.63,-77.37 555.38,-80.02 565.05,-84.34 565.63,-77.37"/>
</g>
<!-- Node14&#45;&gt;Node13 -->
<g id="edge15" class="edge">
<title>Node14&#45;&gt;Node13</title>
<path fill="none" stroke="midnightblue" d="M854.17,-235.32C871.89,-226.62 899.4,-213.12 919.79,-203.11"/>
<polygon fill="midnightblue" stroke="midnightblue" points="921.44,-206.2 928.87,-198.65 918.35,-199.92 921.44,-206.2"/>
</g>
<!-- Node14&#45;&gt;Node15 -->
<g id="edge17" class="edge">
<title>Node14&#45;&gt;Node15</title>
<path fill="none" stroke="midnightblue" d="M829.89,-235.08C824.24,-227.46 815.96,-216.26 809.05,-206.94"/>
<polygon fill="midnightblue" stroke="midnightblue" points="811.75,-204.7 802.98,-198.75 806.12,-208.87 811.75,-204.7"/>
</g>
<!-- Node14&#45;&gt;Node19 -->
<g id="edge24" class="edge">
<title>Node14&#45;&gt;Node19</title>
<path fill="none" stroke="midnightblue" d="M802.3,-238.12C745.99,-228.43 633.64,-209.11 569.77,-198.13"/>
<polygon fill="midnightblue" stroke="midnightblue" points="570.02,-194.62 559.57,-196.37 568.83,-201.52 570.02,-194.62"/>
</g>
<!-- Node15&#45;&gt;Node12 -->
<g id="edge18" class="edge">
<title>Node15&#45;&gt;Node12</title>
<path fill="none" stroke="midnightblue" d="M796.23,-179.33C795.28,-165.24 791.27,-137.49 774.5,-123 758.86,-109.49 630.41,-91.18 565.6,-82.69"/>
<polygon fill="midnightblue" stroke="midnightblue" points="565.77,-79.18 555.4,-81.36 564.87,-86.12 565.77,-79.18"/>
</g>
<!-- Node16 -->
<g id="node16" class="node">
<title>Node16</title>
<g id="a_node16"><a xlink:href="Vector3_8hpp.html" target="_top" xlink:title=" ">
<polygon fill="white" stroke="black" points="691.5,-123.5 691.5,-142.5 765.5,-142.5 765.5,-123.5 691.5,-123.5"/>
<text text-anchor="middle" x="728.5" y="-130.5" font-family="Helvetica,sans-Serif" font-size="10.00">Vector3.hpp</text>
</a>
</g>
</g>
<!-- Node15&#45;&gt;Node16 -->
<g id="edge19" class="edge">
<title>Node15&#45;&gt;Node16</title>
<path fill="none" stroke="midnightblue" d="M785.57,-179.32C775.33,-171.18 759.78,-158.84 747.5,-149.09"/>
<polygon fill="midnightblue" stroke="midnightblue" points="749.63,-146.31 739.62,-142.83 745.28,-151.79 749.63,-146.31"/>
</g>
<!-- Node16&#45;&gt;Node5 -->
<g id="edge21" class="edge">
<title>Node16&#45;&gt;Node5</title>
<path fill="none" stroke="midnightblue" d="M691.28,-125.7C636.91,-116.5 535.17,-99.27 469.97,-88.24"/>
<polygon fill="midnightblue" stroke="midnightblue" points="470.27,-84.74 459.83,-86.52 469.11,-91.64 470.27,-84.74"/>
</g>
<!-- Node16&#45;&gt;Node12 -->
<g id="edge20" class="edge">
<title>Node16&#45;&gt;Node12</title>
<path fill="none" stroke="midnightblue" d="M696.81,-123.44C661.07,-113.79 603.03,-98.12 565.31,-87.94"/>
<polygon fill="midnightblue" stroke="midnightblue" points="565.81,-84.45 555.24,-85.22 563.98,-91.21 565.81,-84.45"/>
</g>
<!-- Node17 -->
<g id="node17" class="node">
<title>Node17</title>
<g id="a_node17"><a xlink:title=" ">
<polygon fill="white" stroke="#bfbfbf" points="640,-67.5 640,-86.5 687,-86.5 687,-67.5 640,-67.5"/>
<text text-anchor="middle" x="663.5" y="-74.5" font-family="Helvetica,sans-Serif" font-size="10.00">cmath</text>
</a>
</g>
</g>
<!-- Node16&#45;&gt;Node17 -->
<g id="edge22" class="edge">
<title>Node16&#45;&gt;Node17</title>
<path fill="none" stroke="midnightblue" d="M718.06,-123.32C708.35,-115.26 693.68,-103.08 682,-93.37"/>
<polygon fill="midnightblue" stroke="midnightblue" points="684.06,-90.53 674.13,-86.83 679.59,-95.92 684.06,-90.53"/>
</g>
<!-- Node18 -->
<g id="node18" class="node">
<title>Node18</title>
<g id="a_node18"><a xlink:title=" ">
<polygon fill="white" stroke="#bfbfbf" points="705.5,-67.5 705.5,-86.5 761.5,-86.5 761.5,-67.5 705.5,-67.5"/>
<text text-anchor="middle" x="733.5" y="-74.5" font-family="Helvetica,sans-Serif" font-size="10.00">sstream</text>
</a>
</g>
</g>
<!-- Node16&#45;&gt;Node18 -->
<g id="edge23" class="edge">
<title>Node16&#45;&gt;Node18</title>
<path fill="none" stroke="midnightblue" d="M729.33,-123.08C729.98,-116.01 730.92,-105.86 731.74,-96.99"/>
<polygon fill="midnightblue" stroke="midnightblue" points="735.25,-97.03 732.69,-86.75 728.28,-96.39 735.25,-97.03"/>
</g>
<!-- Node19&#45;&gt;Node5 -->
<g id="edge28" class="edge">
<title>Node19&#45;&gt;Node5</title>
<path fill="none" stroke="midnightblue" d="M513.63,-179.37C494.65,-160.89 449.86,-117.29 425.67,-93.74"/>
<polygon fill="midnightblue" stroke="midnightblue" points="427.93,-91.06 418.33,-86.59 423.05,-96.07 427.93,-91.06"/>
</g>
<!-- Node19&#45;&gt;Node12 -->
<g id="edge25" class="edge">
<title>Node19&#45;&gt;Node12</title>
<path fill="none" stroke="midnightblue" d="M522.97,-179.37C523.94,-161.62 526.17,-120.67 527.49,-96.6"/>
<polygon fill="midnightblue" stroke="midnightblue" points="530.98,-96.77 528.03,-86.59 523.99,-96.39 530.98,-96.77"/>
</g>
<!-- Node19&#45;&gt;Node16 -->
<g id="edge27" class="edge">
<title>Node19&#45;&gt;Node16</title>
<path fill="none" stroke="midnightblue" d="M555.14,-179.44C590.55,-170.16 647.21,-155.31 686.05,-145.13"/>
<polygon fill="midnightblue" stroke="midnightblue" points="687.23,-148.44 696.01,-142.52 685.45,-141.67 687.23,-148.44"/>
</g>
<!-- Node19&#45;&gt;Node17 -->
<g id="edge26" class="edge">
<title>Node19&#45;&gt;Node17</title>
<path fill="none" stroke="midnightblue" d="M533.56,-179.37C557.55,-160.65 614.6,-116.15 644.49,-92.83"/>
<polygon fill="midnightblue" stroke="midnightblue" points="646.76,-95.5 652.49,-86.59 642.45,-89.98 646.76,-95.5"/>
</g>
<!-- Node20&#45;&gt;Node12 -->
<g id="edge32" class="edge">
<title>Node20&#45;&gt;Node12</title>
<path fill="none" stroke="midnightblue" d="M687.87,-235.2C675.73,-226.9 658.01,-213.57 645.5,-199 620.08,-169.38 628.71,-150.98 601.5,-123 588.73,-109.87 571.37,-98.96 556.78,-91.18"/>
<polygon fill="midnightblue" stroke="midnightblue" points="558.17,-87.96 547.67,-86.52 554.98,-94.19 558.17,-87.96"/>
</g>
<!-- Node20&#45;&gt;Node16 -->
<g id="edge34" class="edge">
<title>Node20&#45;&gt;Node16</title>
<path fill="none" stroke="midnightblue" d="M705.45,-235.21C709.31,-226.27 715.1,-211.92 718.5,-199 722.54,-183.63 725.14,-165.75 726.68,-152.64"/>
<polygon fill="midnightblue" stroke="midnightblue" points="730.18,-152.85 727.76,-142.53 723.22,-152.1 730.18,-152.85"/>
</g>
<!-- Node20&#45;&gt;Node19 -->
<g id="edge33" class="edge">
<title>Node20&#45;&gt;Node19</title>
<path fill="none" stroke="midnightblue" d="M673.14,-235.44C642.76,-226.28 594.39,-211.69 560.68,-201.52"/>
<polygon fill="midnightblue" stroke="midnightblue" points="561.32,-198.05 550.73,-198.52 559.29,-204.76 561.32,-198.05"/>
</g>
<!-- Node21 -->
<g id="node21" class="node">
<title>Node21</title>
<g id="a_node21"><a xlink:href="Ray_8hpp.html" target="_top" xlink:title=" ">
<polygon fill="white" stroke="black" points="654,-179.5 654,-198.5 709,-198.5 709,-179.5 654,-179.5"/>
<text text-anchor="middle" x="681.5" y="-186.5" font-family="Helvetica,sans-Serif" font-size="10.00">Ray.hpp</text>
</a>
</g>
</g>
<!-- Node20&#45;&gt;Node21 -->
<g id="edge35" class="edge">
<title>Node20&#45;&gt;Node21</title>
<path fill="none" stroke="midnightblue" d="M698.2,-235.08C695.52,-227.85 691.65,-217.41 688.31,-208.4"/>
<polygon fill="midnightblue" stroke="midnightblue" points="691.5,-206.91 684.74,-198.75 684.93,-209.34 691.5,-206.91"/>
</g>
<!-- Node21&#45;&gt;Node16 -->
<g id="edge36" class="edge">
<title>Node21&#45;&gt;Node16</title>
<path fill="none" stroke="midnightblue" d="M689.26,-179.08C696.04,-171.3 706.04,-159.8 714.26,-150.37"/>
<polygon fill="midnightblue" stroke="midnightblue" points="716.96,-152.59 720.88,-142.75 711.68,-148 716.96,-152.59"/>
</g>
<!-- Node22&#45;&gt;Node12 -->
<g id="edge38" class="edge">
<title>Node22&#45;&gt;Node12</title>
<path fill="none" stroke="midnightblue" d="M364.8,-235.08C392.74,-208.27 476.19,-128.19 511.94,-93.89"/>
<polygon fill="midnightblue" stroke="midnightblue" points="514.78,-96.02 519.57,-86.57 509.93,-90.97 514.78,-96.02"/>
</g>
<!-- Node22&#45;&gt;Node15 -->
<g id="edge39" class="edge">
<title>Node22&#45;&gt;Node15</title>
<path fill="none" stroke="midnightblue" d="M398.59,-238.72C483.6,-228.31 671.88,-205.26 755.32,-195.04"/>
<polygon fill="midnightblue" stroke="midnightblue" points="755.93,-198.49 765.43,-193.8 755.08,-191.55 755.93,-198.49"/>
</g>
<!-- Node24&#45;&gt;Node3 -->
<g id="edge42" class="edge">
<title>Node24&#45;&gt;Node3</title>
<path fill="none" stroke="midnightblue" d="M384.87,-352.59C340.33,-347.76 268.41,-336.46 211.5,-311 135.89,-277.17 79.62,-189.56 58.09,-151.78"/>
<polygon fill="midnightblue" stroke="midnightblue" points="61.08,-149.95 53.16,-142.91 54.96,-153.36 61.08,-149.95"/>
</g>
<!-- Node24&#45;&gt;Node11 -->
<g id="edge44" class="edge">
<title>Node24&#45;&gt;Node11</title>
<path fill="none" stroke="midnightblue" d="M468.06,-347.56C516.04,-337.82 594.8,-321.83 645.12,-311.62"/>
<polygon fill="midnightblue" stroke="midnightblue" points="645.99,-315.01 655.09,-309.59 644.6,-308.15 645.99,-315.01"/>
</g>
<!-- Node24&#45;&gt;Node19 -->
<g id="edge43" class="edge">
<title>Node24&#45;&gt;Node19</title>
<path fill="none" stroke="midnightblue" d="M425.51,-347.49C423.5,-326.39 421.05,-270.83 445.5,-235 455.47,-220.38 471.89,-209.85 487,-202.67"/>
<polygon fill="midnightblue" stroke="midnightblue" points="488.44,-205.86 496.18,-198.62 485.62,-199.45 488.44,-205.86"/>
</g>
<!-- Node25&#45;&gt;Node12 -->
<g id="edge47" class="edge">
<title>Node25&#45;&gt;Node12</title>
<path fill="none" stroke="midnightblue" d="M485.27,-235.12C479.85,-222.56 471.68,-198.91 476.5,-179 484.2,-147.21 503.75,-114.22 516.56,-94.92"/>
<polygon fill="midnightblue" stroke="midnightblue" points="519.49,-96.85 522.23,-86.62 513.7,-92.91 519.49,-96.85"/>
</g>
<!-- Node25&#45;&gt;Node19 -->
<g id="edge48" class="edge">
<title>Node25&#45;&gt;Node19</title>
<path fill="none" stroke="midnightblue" d="M494.95,-235.08C499.51,-227.61 506.17,-216.72 511.79,-207.52"/>
<polygon fill="midnightblue" stroke="midnightblue" points="514.92,-209.11 517.15,-198.75 508.95,-205.46 514.92,-209.11"/>
</g>
<!-- Node25&#45;&gt;Node21 -->
<g id="edge49" class="edge">
<title>Node25&#45;&gt;Node21</title>
<path fill="none" stroke="midnightblue" d="M519.92,-235.44C553.56,-225.98 607.77,-210.74 644,-200.55"/>
<polygon fill="midnightblue" stroke="midnightblue" points="645.03,-203.89 653.71,-197.82 643.14,-197.15 645.03,-203.89"/>
</g>
<!-- Node26&#45;&gt;Node16 -->
<g id="edge51" class="edge">
<title>Node26&#45;&gt;Node16</title>
<path fill="none" stroke="midnightblue" d="M1121.46,-235.35C1091.99,-221.54 1031.38,-194.5 977.5,-179 908.58,-159.17 826.3,-146.33 775.73,-139.63"/>
<polygon fill="midnightblue" stroke="midnightblue" points="776.11,-136.15 765.74,-138.33 775.21,-143.09 776.11,-136.15"/>
</g>
<!-- Node28&#45;&gt;Node13 -->
<g id="edge57" class="edge">
<title>Node28&#45;&gt;Node13</title>
<path fill="none" stroke="midnightblue" d="M1049.25,-291.08C1051.37,-277.63 1053.32,-251.9 1041.5,-235 1026.87,-214.08 999.88,-202.59 978.39,-196.47"/>
<polygon fill="midnightblue" stroke="midnightblue" points="979.22,-193.07 968.67,-193.95 977.47,-199.84 979.22,-193.07"/>
</g>
<!-- Node28&#45;&gt;Node14 -->
<g id="edge60" class="edge">
<title>Node28&#45;&gt;Node14</title>
<path fill="none" stroke="midnightblue" d="M1014.07,-291.44C977.64,-282.12 919.27,-267.18 879.47,-257"/>
<polygon fill="midnightblue" stroke="midnightblue" points="880.33,-253.61 869.78,-254.52 878.6,-260.39 880.33,-253.61"/>
</g>
<!-- Node28&#45;&gt;Node15 -->
<g id="edge56" class="edge">
<title>Node28&#45;&gt;Node15</title>
<path fill="none" stroke="midnightblue" d="M1027.8,-291.37C983.72,-272.05 876.96,-225.26 825.36,-202.65"/>
<polygon fill="midnightblue" stroke="midnightblue" points="826.67,-199.4 816.1,-198.59 823.86,-205.81 826.67,-199.4"/>
</g>
<!-- Node28&#45;&gt;Node16 -->
<g id="edge55" class="edge">
<title>Node28&#45;&gt;Node16</title>
<path fill="none" stroke="midnightblue" d="M1085.58,-297.43C1140.1,-292.24 1230.59,-277.16 1199.5,-235 1149.38,-167.02 885.14,-143.44 775.86,-136.51"/>
<polygon fill="midnightblue" stroke="midnightblue" points="775.98,-133.01 765.78,-135.89 775.55,-140 775.98,-133.01"/>
</g>
<!-- Node28&#45;&gt;Node19 -->
<g id="edge54" class="edge">
<title>Node28&#45;&gt;Node19</title>
<path fill="none" stroke="midnightblue" d="M1009.45,-300.25C937.4,-299.74 776.76,-293.87 648.5,-255 609.44,-243.16 568.12,-219.39 543.85,-204.11"/>
<polygon fill="midnightblue" stroke="midnightblue" points="545.73,-201.16 535.43,-198.71 541.96,-207.05 545.73,-201.16"/>
</g>
<!-- Node28&#45;&gt;Node26 -->
<g id="edge61" class="edge">
<title>Node28&#45;&gt;Node26</title>
<path fill="none" stroke="midnightblue" d="M1062.28,-291.32C1076.77,-282.82 1099.07,-269.73 1115.99,-259.8"/>
<polygon fill="midnightblue" stroke="midnightblue" points="1117.9,-262.74 1124.76,-254.65 1114.36,-256.7 1117.9,-262.74"/>
</g>
<!-- Node28&#45;&gt;Node27 -->
<g id="edge58" class="edge">
<title>Node28&#45;&gt;Node27</title>
<path fill="none" stroke="midnightblue" d="M1083.63,-291.44C1125.36,-281.56 1193.76,-265.36 1236.63,-255.21"/>
<polygon fill="midnightblue" stroke="midnightblue" points="1237.49,-258.6 1246.41,-252.89 1235.88,-251.79 1237.49,-258.6"/>
</g>
<!-- Node28&#45;&gt;Node28 -->
<g id="edge59" class="edge">
<title>Node28&#45;&gt;Node28</title>
<path fill="none" stroke="midnightblue" d="M1071.38,-310.53C1087.61,-313.31 1103.5,-310.13 1103.5,-301 1103.5,-293.79 1093.61,-290.3 1081.46,-290.51"/>
<polygon fill="midnightblue" stroke="midnightblue" points="1081,-287.04 1071.38,-291.47 1081.67,-294 1081,-287.04"/>
</g>
<!-- Node29&#45;&gt;Node23 -->
<g id="edge63" class="edge">
<title>Node29&#45;&gt;Node23</title>
<path fill="none" stroke="midnightblue" d="M1238.34,-291.44C1184.78,-281.29 1096.07,-264.49 1042.86,-254.41"/>
<polygon fill="midnightblue" stroke="midnightblue" points="1043.19,-250.91 1032.71,-252.48 1041.89,-257.78 1043.19,-250.91"/>
</g>
<!-- Node29&#45;&gt;Node27 -->
<g id="edge68" class="edge">
<title>Node29&#45;&gt;Node27</title>
<path fill="none" stroke="midnightblue" d="M1282.18,-291.08C1281.12,-283.93 1279.59,-273.64 1278.27,-264.69"/>
<polygon fill="midnightblue" stroke="midnightblue" points="1281.72,-264.13 1276.8,-254.75 1274.8,-265.16 1281.72,-264.13"/>
</g>
<!-- Node30 -->
<g id="node30" class="node">
<title>Node30</title>
<g id="a_node30"><a xlink:href="EngineExceptions_8hpp.html" target="_top" xlink:title=" ">
<polygon fill="white" stroke="black" points="1378.5,-235.5 1378.5,-254.5 1502.5,-254.5 1502.5,-235.5 1378.5,-235.5"/>
<text text-anchor="middle" x="1440.5" y="-242.5" font-family="Helvetica,sans-Serif" font-size="10.00">EngineExceptions.hpp</text>
</a>
</g>
</g>
<!-- Node29&#45;&gt;Node30 -->
<g id="edge64" class="edge">
<title>Node29&#45;&gt;Node30</title>
<path fill="none" stroke="midnightblue" d="M1308.38,-291.44C1334.79,-282.36 1376.72,-267.94 1406.24,-257.78"/>
<polygon fill="midnightblue" stroke="midnightblue" points="1407.42,-261.08 1415.74,-254.52 1405.14,-254.46 1407.42,-261.08"/>
</g>
<!-- Node32 -->
<g id="node32" class="node">
<title>Node32</title>
<g id="a_node32"><a xlink:title=" ">
<polygon fill="white" stroke="#bfbfbf" points="1322.5,-235.5 1322.5,-254.5 1360.5,-254.5 1360.5,-235.5 1322.5,-235.5"/>
<text text-anchor="middle" x="1341.5" y="-242.5" font-family="Helvetica,sans-Serif" font-size="10.00">map</text>
</a>
</g>
</g>
<!-- Node29&#45;&gt;Node32 -->
<g id="edge67" class="edge">
<title>Node29&#45;&gt;Node32</title>
<path fill="none" stroke="midnightblue" d="M1292.82,-291.32C1301.39,-283.34 1314.31,-271.31 1324.69,-261.65"/>
<polygon fill="midnightblue" stroke="midnightblue" points="1327.08,-264.21 1332.01,-254.83 1322.31,-259.09 1327.08,-264.21"/>
</g>
<!-- Node30&#45;&gt;Node13 -->
<g id="edge66" class="edge">
<title>Node30&#45;&gt;Node13</title>
<path fill="none" stroke="midnightblue" d="M1378.17,-236.03C1375.24,-235.67 1372.34,-235.33 1369.5,-235 1223.67,-218 1049.25,-200.27 978.58,-193.19"/>
<polygon fill="midnightblue" stroke="midnightblue" points="978.83,-189.7 968.54,-192.19 978.14,-196.66 978.83,-189.7"/>
</g>
<!-- Node31 -->
<g id="node31" class="node">
<title>Node31</title>
<g id="a_node31"><a xlink:title=" ">
<polygon fill="white" stroke="#bfbfbf" points="1408,-179.5 1408,-198.5 1473,-198.5 1473,-179.5 1408,-179.5"/>
<text text-anchor="middle" x="1440.5" y="-186.5" font-family="Helvetica,sans-Serif" font-size="10.00">exception</text>
</a>
</g>
</g>
<!-- Node30&#45;&gt;Node31 -->
<g id="edge65" class="edge">
<title>Node30&#45;&gt;Node31</title>
<path fill="none" stroke="midnightblue" d="M1440.5,-235.08C1440.5,-228.01 1440.5,-217.86 1440.5,-208.99"/>
<polygon fill="midnightblue" stroke="midnightblue" points="1444,-208.75 1440.5,-198.75 1437,-208.75 1444,-208.75"/>
</g>
<!-- Node33&#45;&gt;Node12 -->
<g id="edge70" class="edge">
<title>Node33&#45;&gt;Node12</title>
<path fill="none" stroke="midnightblue" d="M220.19,-293.47C177.49,-285.13 122.23,-267.68 143.5,-235 183.65,-173.32 404.14,-110.28 492.17,-87.19"/>
<polygon fill="midnightblue" stroke="midnightblue" points="493.19,-90.54 501.99,-84.64 491.43,-83.77 493.19,-90.54"/>
</g>
<!-- Node33&#45;&gt;Node16 -->
<g id="edge71" class="edge">
<title>Node33&#45;&gt;Node16</title>
<path fill="none" stroke="midnightblue" d="M264.22,-291.11C264.28,-277.22 266.51,-250.36 281.5,-235 336.98,-178.18 577.78,-148.56 681.12,-138.27"/>
<polygon fill="midnightblue" stroke="midnightblue" points="681.65,-141.73 691.26,-137.28 680.97,-134.77 681.65,-141.73"/>
</g>
<!-- Node33&#45;&gt;Node19 -->
<g id="edge72" class="edge">
<title>Node33&#45;&gt;Node19</title>
<path fill="none" stroke="midnightblue" d="M267.17,-291.25C271.99,-277.05 283.53,-249.15 303.5,-235 330.63,-215.77 419.54,-202.13 475.39,-195.2"/>
<polygon fill="midnightblue" stroke="midnightblue" points="475.9,-198.66 485.41,-193.99 475.06,-191.72 475.9,-198.66"/>
</g>
<!-- Node33&#45;&gt;Node22 -->
<g id="edge73" class="edge">
<title>Node33&#45;&gt;Node22</title>
<path fill="none" stroke="midnightblue" d="M279.12,-291.32C293.45,-282.82 315.51,-269.73 332.25,-259.8"/>
<polygon fill="midnightblue" stroke="midnightblue" points="334.1,-262.77 340.92,-254.65 330.53,-256.75 334.1,-262.77"/>
</g>
<!-- Node34 -->
<g id="node34" class="node">
<title>Node34</title>
<g id="a_node34"><a xlink:href="Circle_8hpp.html" target="_top" xlink:title=" ">
<polygon fill="white" stroke="black" points="153,-235.5 153,-254.5 218,-254.5 218,-235.5 153,-235.5"/>
<text text-anchor="middle" x="185.5" y="-242.5" font-family="Helvetica,sans-Serif" font-size="10.00">Circle.hpp</text>
</a>
</g>
</g>
<!-- Node33&#45;&gt;Node34 -->
<g id="edge74" class="edge">
<title>Node33&#45;&gt;Node34</title>
<path fill="none" stroke="midnightblue" d="M251.81,-291.32C239.6,-282.98 220.92,-270.21 206.5,-260.35"/>
<polygon fill="midnightblue" stroke="midnightblue" points="208.39,-257.41 198.16,-254.65 204.44,-263.19 208.39,-257.41"/>
</g>
<!-- Node34&#45;&gt;Node12 -->
<g id="edge75" class="edge">
<title>Node34&#45;&gt;Node12</title>
<path fill="none" stroke="midnightblue" d="M203.46,-235.31C259.95,-207.97 434.28,-123.6 501.59,-91.02"/>
<polygon fill="midnightblue" stroke="midnightblue" points="503.24,-94.11 510.72,-86.61 500.19,-87.81 503.24,-94.11"/>
</g>
<!-- Node34&#45;&gt;Node19 -->
<g id="edge76" class="edge">
<title>Node34&#45;&gt;Node19</title>
<path fill="none" stroke="midnightblue" d="M218.12,-238.77C277.98,-229.18 405.59,-208.73 475.06,-197.6"/>
<polygon fill="midnightblue" stroke="midnightblue" points="475.96,-201 485.28,-195.96 474.85,-194.09 475.96,-201"/>
</g>
</g>
</svg>
