<?xml version="1.0" encoding="UTF-8" standalone="no"?>
<!DOCTYPE svg PUBLIC "-//W3C//DTD SVG 1.1//EN"
 "http://www.w3.org/Graphics/SVG/1.1/DTD/svg11.dtd">
<!-- Generated by graphviz version 2.43.0 (0)
 -->
<!-- Title: Libs/Engine/sources/Components/Button/Button.hpp Pages: 1 -->
<svg width="813pt" height="442pt"
 viewBox="0.00 0.00 813.00 442.00" xmlns="http://www.w3.org/2000/svg" xmlns:xlink="http://www.w3.org/1999/xlink">
<g id="graph0" class="graph" transform="scale(1 1) rotate(0) translate(4 438)">
<title>Libs/Engine/sources/Components/Button/Button.hpp</title>
<polygon fill="white" stroke="transparent" points="-4,4 -4,-438 809,-438 809,4 -4,4"/>
<!-- Node1 -->
<g id="node1" class="node">
<title>Node1</title>
<g id="a_node1"><a xlink:title=" ">
<polygon fill="#bfbfbf" stroke="black" points="417.5,-403.5 417.5,-433.5 590.5,-433.5 590.5,-403.5 417.5,-403.5"/>
<text text-anchor="start" x="425.5" y="-421.5" font-family="Helvetica,sans-Serif" font-size="10.00">Libs/Engine/sources</text>
<text text-anchor="middle" x="504" y="-410.5" font-family="Helvetica,sans-Serif" font-size="10.00">/Components/Button/Button.hpp</text>
</a>
</g>
</g>
<!-- Node2 -->
<g id="node2" class="node">
<title>Node2</title>
<g id="a_node2"><a xlink:href="IComponent_8hpp.html" target="_top" xlink:title=" ">
<polygon fill="white" stroke="black" points="680.5,-123.5 680.5,-142.5 777.5,-142.5 777.5,-123.5 680.5,-123.5"/>
<text text-anchor="middle" x="729" y="-130.5" font-family="Helvetica,sans-Serif" font-size="10.00">IComponent.hpp</text>
</a>
</g>
</g>
<!-- Node1&#45;&gt;Node2 -->
<g id="edge1" class="edge">
<title>Node1&#45;&gt;Node2</title>
<path fill="none" stroke="midnightblue" d="M582.3,-403.42C671.48,-385.11 805,-349.72 805,-302 805,-302 805,-302 805,-244 805,-204.28 771.04,-168.5 748.52,-149.15"/>
<polygon fill="midnightblue" stroke="midnightblue" points="750.48,-146.24 740.54,-142.57 746.02,-151.63 750.48,-146.24"/>
</g>
<!-- Node8 -->
<g id="node8" class="node">
<title>Node8</title>
<g id="a_node8"><a xlink:title=" ">
<polygon fill="white" stroke="#bfbfbf" points="310.5,-347.5 310.5,-366.5 375.5,-366.5 375.5,-347.5 310.5,-347.5"/>
<text text-anchor="middle" x="343" y="-354.5" font-family="Helvetica,sans-Serif" font-size="10.00">functional</text>
</a>
</g>
</g>
<!-- Node1&#45;&gt;Node8 -->
<g id="edge8" class="edge">
<title>Node1&#45;&gt;Node8</title>
<path fill="none" stroke="midnightblue" d="M465.85,-403.4C438.47,-393.28 401.96,-379.79 375.87,-370.15"/>
<polygon fill="midnightblue" stroke="midnightblue" points="377.02,-366.84 366.43,-366.66 374.59,-373.41 377.02,-366.84"/>
</g>
<!-- Node9 -->
<g id="node9" class="node">
<title>Node9</title>
<g id="a_node9"><a xlink:title=" ">
<polygon fill="white" stroke="#bfbfbf" points="393.5,-347.5 393.5,-366.5 440.5,-366.5 440.5,-347.5 393.5,-347.5"/>
<text text-anchor="middle" x="417" y="-354.5" font-family="Helvetica,sans-Serif" font-size="10.00">vector</text>
</a>
</g>
</g>
<!-- Node1&#45;&gt;Node9 -->
<g id="edge9" class="edge">
<title>Node1&#45;&gt;Node9</title>
<path fill="none" stroke="midnightblue" d="M483.38,-403.4C469.7,-394.04 451.79,-381.79 438.02,-372.38"/>
<polygon fill="midnightblue" stroke="midnightblue" points="439.89,-369.41 429.66,-366.66 435.94,-375.19 439.89,-369.41"/>
</g>
<!-- Node10 -->
<g id="node10" class="node">
<title>Node10</title>
<g id="a_node10"><a xlink:href="Texture_8hpp.html" target="_top" xlink:title=" ">
<polygon fill="white" stroke="black" points="246,-291.5 246,-310.5 320,-310.5 320,-291.5 246,-291.5"/>
<text text-anchor="middle" x="283" y="-298.5" font-family="Helvetica,sans-Serif" font-size="10.00">Texture.hpp</text>
</a>
</g>
</g>
<!-- Node1&#45;&gt;Node10 -->
<g id="edge10" class="edge">
<title>Node1&#45;&gt;Node10</title>
<path fill="none" stroke="midnightblue" d="M496.67,-403.35C487.62,-387.29 470.72,-361.43 449,-347 413.24,-323.24 365.27,-311.97 330.1,-306.66"/>
<polygon fill="midnightblue" stroke="midnightblue" points="330.47,-303.18 320.08,-305.26 329.5,-310.11 330.47,-303.18"/>
</g>
<!-- Node21 -->
<g id="node21" class="node">
<title>Node21</title>
<g id="a_node21"><a xlink:href="Rectangle_8hpp.html" target="_top" xlink:title=" ">
<polygon fill="white" stroke="black" points="0,-235.5 0,-254.5 86,-254.5 86,-235.5 0,-235.5"/>
<text text-anchor="middle" x="43" y="-242.5" font-family="Helvetica,sans-Serif" font-size="10.00">Rectangle.hpp</text>
</a>
</g>
</g>
<!-- Node1&#45;&gt;Node21 -->
<g id="edge44" class="edge">
<title>Node1&#45;&gt;Node21</title>
<path fill="none" stroke="midnightblue" d="M433.01,-403.4C393.58,-394.68 343.95,-382.25 301,-367 212.18,-335.46 112.66,-283.85 67.57,-259.51"/>
<polygon fill="midnightblue" stroke="midnightblue" points="69.01,-256.31 58.55,-254.61 65.67,-262.46 69.01,-256.31"/>
</g>
<!-- Node23 -->
<g id="node23" class="node">
<title>Node23</title>
<g id="a_node23"><a xlink:href="IUIObject_8hpp.html" target="_top" xlink:title=" ">
<polygon fill="white" stroke="black" points="497.5,-347.5 497.5,-366.5 580.5,-366.5 580.5,-347.5 497.5,-347.5"/>
<text text-anchor="middle" x="539" y="-354.5" font-family="Helvetica,sans-Serif" font-size="10.00">IUIObject.hpp</text>
</a>
</g>
</g>
<!-- Node1&#45;&gt;Node23 -->
<g id="edge40" class="edge">
<title>Node1&#45;&gt;Node23</title>
<path fill="none" stroke="midnightblue" d="M512.29,-403.4C517.22,-395.02 523.51,-384.33 528.75,-375.42"/>
<polygon fill="midnightblue" stroke="midnightblue" points="531.85,-377.05 533.91,-366.66 525.82,-373.5 531.85,-377.05"/>
</g>
<!-- Node24 -->
<g id="node24" class="node">
<title>Node24</title>
<g id="a_node24"><a xlink:href="Mouse_8hpp.html" target="_top" xlink:title=" ">
<polygon fill="white" stroke="black" points="574,-235.5 574,-254.5 644,-254.5 644,-235.5 574,-235.5"/>
<text text-anchor="middle" x="609" y="-242.5" font-family="Helvetica,sans-Serif" font-size="10.00">Mouse.hpp</text>
</a>
</g>
</g>
<!-- Node1&#45;&gt;Node24 -->
<g id="edge45" class="edge">
<title>Node1&#45;&gt;Node24</title>
<path fill="none" stroke="midnightblue" d="M542.38,-403.46C559.26,-395.35 577.77,-383.44 589,-367 610.25,-335.9 611.68,-290 610.54,-264.61"/>
<polygon fill="midnightblue" stroke="midnightblue" points="614.02,-264.27 609.89,-254.51 607.04,-264.71 614.02,-264.27"/>
</g>
<!-- Node25 -->
<g id="node25" class="node">
<title>Node25</title>
<g id="a_node25"><a xlink:href="BoundingBox_8hpp.html" target="_top" xlink:title=" ">
<polygon fill="white" stroke="black" points="675,-291.5 675,-310.5 777,-310.5 777,-291.5 675,-291.5"/>
<text text-anchor="middle" x="726" y="-298.5" font-family="Helvetica,sans-Serif" font-size="10.00">BoundingBox.hpp</text>
</a>
</g>
</g>
<!-- Node1&#45;&gt;Node25 -->
<g id="edge49" class="edge">
<title>Node1&#45;&gt;Node25</title>
<path fill="none" stroke="midnightblue" d="M541.43,-403.42C565.23,-394.03 596.45,-380.89 623,-367 652.57,-351.53 684.83,-330.43 705.22,-316.52"/>
<polygon fill="midnightblue" stroke="midnightblue" points="707.45,-319.23 713.7,-310.68 703.48,-313.47 707.45,-319.23"/>
</g>
<!-- Node3 -->
<g id="node3" class="node">
<title>Node3</title>
<g id="a_node3"><a xlink:title=" ">
<polygon fill="white" stroke="#bfbfbf" points="700.5,-6 700.5,-25 757.5,-25 757.5,-6 700.5,-6"/>
<text text-anchor="middle" x="729" y="-13" font-family="Helvetica,sans-Serif" font-size="10.00">ostream</text>
</a>
</g>
</g>
<!-- Node2&#45;&gt;Node3 -->
<g id="edge2" class="edge">
<title>Node2&#45;&gt;Node3</title>
<path fill="none" stroke="midnightblue" d="M729,-123.32C729,-104.76 729,-60.84 729,-35.47"/>
<polygon fill="midnightblue" stroke="midnightblue" points="732.5,-35.28 729,-25.28 725.5,-35.28 732.5,-35.28"/>
</g>
<!-- Node4 -->
<g id="node4" class="node">
<title>Node4</title>
<g id="a_node4"><a xlink:href="IXMLSerializable_8hpp.html" target="_top" xlink:title=" ">
<polygon fill="white" stroke="black" points="526.5,-67.5 526.5,-86.5 645.5,-86.5 645.5,-67.5 526.5,-67.5"/>
<text text-anchor="middle" x="586" y="-74.5" font-family="Helvetica,sans-Serif" font-size="10.00">IXMLSerializable.hpp</text>
</a>
</g>
</g>
<!-- Node2&#45;&gt;Node4 -->
<g id="edge3" class="edge">
<title>Node2&#45;&gt;Node4</title>
<path fill="none" stroke="midnightblue" d="M706.34,-123.44C682.6,-114.48 645.09,-100.31 618.26,-90.18"/>
<polygon fill="midnightblue" stroke="midnightblue" points="619.14,-86.77 608.55,-86.52 616.67,-93.32 619.14,-86.77"/>
</g>
<!-- Node4&#45;&gt;Node3 -->
<g id="edge4" class="edge">
<title>Node4&#45;&gt;Node3</title>
<path fill="none" stroke="midnightblue" d="M606.49,-67.48C630.81,-57.36 671.55,-40.4 699.32,-28.85"/>
<polygon fill="midnightblue" stroke="midnightblue" points="700.66,-32.08 708.55,-25.01 697.97,-25.62 700.66,-32.08"/>
</g>
<!-- Node5 -->
<g id="node5" class="node">
<title>Node5</title>
<g id="a_node5"><a xlink:title=" ">
<polygon fill="white" stroke="#bfbfbf" points="491,-6 491,-25 551,-25 551,-6 491,-6"/>
<text text-anchor="middle" x="521" y="-13" font-family="Helvetica,sans-Serif" font-size="10.00">iostream</text>
</a>
</g>
</g>
<!-- Node4&#45;&gt;Node5 -->
<g id="edge5" class="edge">
<title>Node4&#45;&gt;Node5</title>
<path fill="none" stroke="midnightblue" d="M576.69,-67.48C566.55,-58.2 550.14,-43.17 537.75,-31.83"/>
<polygon fill="midnightblue" stroke="midnightblue" points="540.04,-29.18 530.3,-25.01 535.31,-34.34 540.04,-29.18"/>
</g>
<!-- Node6 -->
<g id="node6" class="node">
<title>Node6</title>
<g id="a_node6"><a xlink:title=" ">
<polygon fill="white" stroke="#bfbfbf" points="569.5,-0.5 569.5,-30.5 682.5,-30.5 682.5,-0.5 569.5,-0.5"/>
<text text-anchor="start" x="577.5" y="-18.5" font-family="Helvetica,sans-Serif" font-size="10.00">boost/property_tree</text>
<text text-anchor="middle" x="626" y="-7.5" font-family="Helvetica,sans-Serif" font-size="10.00">/ptree.hpp</text>
</a>
</g>
</g>
<!-- Node4&#45;&gt;Node6 -->
<g id="edge6" class="edge">
<title>Node4&#45;&gt;Node6</title>
<path fill="none" stroke="midnightblue" d="M591.73,-67.48C596.74,-60.02 604.25,-48.85 610.96,-38.87"/>
<polygon fill="midnightblue" stroke="midnightblue" points="613.9,-40.77 616.57,-30.52 608.09,-36.87 613.9,-40.77"/>
</g>
<!-- Node7 -->
<g id="node7" class="node">
<title>Node7</title>
<g id="a_node7"><a xlink:title=" ">
<polygon fill="white" stroke="#bfbfbf" points="359.5,-0.5 359.5,-30.5 472.5,-30.5 472.5,-0.5 359.5,-0.5"/>
<text text-anchor="start" x="367.5" y="-18.5" font-family="Helvetica,sans-Serif" font-size="10.00">boost/property_tree</text>
<text text-anchor="middle" x="416" y="-7.5" font-family="Helvetica,sans-Serif" font-size="10.00">/xml_parser.hpp</text>
</a>
</g>
</g>
<!-- Node4&#45;&gt;Node7 -->
<g id="edge7" class="edge">
<title>Node4&#45;&gt;Node7</title>
<path fill="none" stroke="midnightblue" d="M561.64,-67.48C536.68,-58.74 497.16,-44.91 465.59,-33.86"/>
<polygon fill="midnightblue" stroke="midnightblue" points="466.66,-30.52 456.07,-30.52 464.35,-37.13 466.66,-30.52"/>
</g>
<!-- Node11 -->
<g id="node11" class="node">
<title>Node11</title>
<g id="a_node11"><a xlink:title=" ">
<polygon fill="white" stroke="#bfbfbf" points="290.5,-67.5 290.5,-86.5 343.5,-86.5 343.5,-67.5 290.5,-67.5"/>
<text text-anchor="middle" x="317" y="-74.5" font-family="Helvetica,sans-Serif" font-size="10.00">raylib.h</text>
</a>
</g>
</g>
<!-- Node10&#45;&gt;Node11 -->
<g id="edge11" class="edge">
<title>Node10&#45;&gt;Node11</title>
<path fill="none" stroke="midnightblue" d="M254.33,-291.4C203.51,-274.54 105.77,-233.95 137,-179 167.24,-125.79 237.26,-98.62 280.51,-86.43"/>
<polygon fill="midnightblue" stroke="midnightblue" points="281.61,-89.76 290.36,-83.78 279.8,-83 281.61,-89.76"/>
</g>
<!-- Node12 -->
<g id="node12" class="node">
<title>Node12</title>
<g id="a_node12"><a xlink:title=" ">
<polygon fill="white" stroke="#bfbfbf" points="226,-179.5 226,-198.5 270,-198.5 270,-179.5 226,-179.5"/>
<text text-anchor="middle" x="248" y="-186.5" font-family="Helvetica,sans-Serif" font-size="10.00">string</text>
</a>
</g>
</g>
<!-- Node10&#45;&gt;Node12 -->
<g id="edge12" class="edge">
<title>Node10&#45;&gt;Node12</title>
<path fill="none" stroke="midnightblue" d="M256.07,-291.36C239.28,-284.41 219.02,-272.82 209,-255 199.26,-237.67 214.59,-218.17 228.79,-205.08"/>
<polygon fill="midnightblue" stroke="midnightblue" points="231.11,-207.71 236.4,-198.53 226.54,-202.4 231.11,-207.71"/>
</g>
<!-- Node13 -->
<g id="node13" class="node">
<title>Node13</title>
<g id="a_node13"><a xlink:href="Image_8hpp.html" target="_top" xlink:title=" ">
<polygon fill="white" stroke="black" points="218,-235.5 218,-254.5 286,-254.5 286,-235.5 218,-235.5"/>
<text text-anchor="middle" x="252" y="-242.5" font-family="Helvetica,sans-Serif" font-size="10.00">Image.hpp</text>
</a>
</g>
</g>
<!-- Node10&#45;&gt;Node13 -->
<g id="edge13" class="edge">
<title>Node10&#45;&gt;Node13</title>
<path fill="none" stroke="midnightblue" d="M277.88,-291.08C273.59,-283.61 267.34,-272.72 262.06,-263.52"/>
<polygon fill="midnightblue" stroke="midnightblue" points="265.04,-261.68 257.02,-254.75 258.97,-265.17 265.04,-261.68"/>
</g>
<!-- Node14 -->
<g id="node14" class="node">
<title>Node14</title>
<g id="a_node14"><a xlink:href="Color_8hpp.html" target="_top" xlink:title=" ">
<polygon fill="white" stroke="black" points="146,-179.5 146,-198.5 208,-198.5 208,-179.5 146,-179.5"/>
<text text-anchor="middle" x="177" y="-186.5" font-family="Helvetica,sans-Serif" font-size="10.00">Color.hpp</text>
</a>
</g>
</g>
<!-- Node10&#45;&gt;Node14 -->
<g id="edge28" class="edge">
<title>Node10&#45;&gt;Node14</title>
<path fill="none" stroke="midnightblue" d="M258.03,-291.43C240.27,-284.2 216.98,-272.24 202,-255 190.49,-241.75 183.99,-222.62 180.53,-208.55"/>
<polygon fill="midnightblue" stroke="midnightblue" points="183.9,-207.58 178.36,-198.55 177.06,-209.06 183.9,-207.58"/>
</g>
<!-- Node18 -->
<g id="node18" class="node">
<title>Node18</title>
<g id="a_node18"><a xlink:href="Vector2_8hpp.html" target="_top" xlink:title=" ">
<polygon fill="white" stroke="black" points="375,-179.5 375,-198.5 449,-198.5 449,-179.5 375,-179.5"/>
<text text-anchor="middle" x="412" y="-186.5" font-family="Helvetica,sans-Serif" font-size="10.00">Vector2.hpp</text>
</a>
</g>
</g>
<!-- Node10&#45;&gt;Node18 -->
<g id="edge29" class="edge">
<title>Node10&#45;&gt;Node18</title>
<path fill="none" stroke="midnightblue" d="M288.22,-291.11C296.43,-277.69 313.46,-252.02 333,-235 347.89,-222.04 367.08,-211 382.82,-203.1"/>
<polygon fill="midnightblue" stroke="midnightblue" points="384.63,-206.11 392.1,-198.6 381.58,-199.81 384.63,-206.11"/>
</g>
<!-- Node19 -->
<g id="node19" class="node">
<title>Node19</title>
<g id="a_node19"><a xlink:href="Camera3D_8hpp.html" target="_top" xlink:title=" ">
<polygon fill="white" stroke="black" points="428.5,-235.5 428.5,-254.5 517.5,-254.5 517.5,-235.5 428.5,-235.5"/>
<text text-anchor="middle" x="473" y="-242.5" font-family="Helvetica,sans-Serif" font-size="10.00">Camera3D.hpp</text>
</a>
</g>
</g>
<!-- Node10&#45;&gt;Node19 -->
<g id="edge30" class="edge">
<title>Node10&#45;&gt;Node19</title>
<path fill="none" stroke="midnightblue" d="M313.11,-291.44C345.63,-282.2 397.58,-267.44 433.39,-257.26"/>
<polygon fill="midnightblue" stroke="midnightblue" points="434.37,-260.62 443.03,-254.52 432.46,-253.88 434.37,-260.62"/>
</g>
<!-- Node10&#45;&gt;Node21 -->
<g id="edge36" class="edge">
<title>Node10&#45;&gt;Node21</title>
<path fill="none" stroke="midnightblue" d="M245.76,-291.62C204.15,-282.26 136.63,-267.07 91.06,-256.81"/>
<polygon fill="midnightblue" stroke="midnightblue" points="91.64,-253.36 81.12,-254.58 90.11,-260.19 91.64,-253.36"/>
</g>
<!-- Node22 -->
<g id="node22" class="node">
<title>Node22</title>
<g id="a_node22"><a xlink:href="IAsset_8hpp.html" target="_top" xlink:title=" ">
<polygon fill="white" stroke="black" points="342,-235.5 342,-254.5 410,-254.5 410,-235.5 342,-235.5"/>
<text text-anchor="middle" x="376" y="-242.5" font-family="Helvetica,sans-Serif" font-size="10.00">IAsset.hpp</text>
</a>
</g>
</g>
<!-- Node10&#45;&gt;Node22 -->
<g id="edge39" class="edge">
<title>Node10&#45;&gt;Node22</title>
<path fill="none" stroke="midnightblue" d="M297.94,-291.32C312.59,-282.82 335.13,-269.73 352.24,-259.8"/>
<polygon fill="midnightblue" stroke="midnightblue" points="354.2,-262.7 361.1,-254.65 350.69,-256.65 354.2,-262.7"/>
</g>
<!-- Node13&#45;&gt;Node11 -->
<g id="edge15" class="edge">
<title>Node13&#45;&gt;Node11</title>
<path fill="none" stroke="midnightblue" d="M258.02,-235.37C263.97,-226.55 273.02,-212.3 279,-199 294.66,-164.15 306.55,-120.95 312.59,-96.74"/>
<polygon fill="midnightblue" stroke="midnightblue" points="316.05,-97.31 315,-86.77 309.24,-95.66 316.05,-97.31"/>
</g>
<!-- Node13&#45;&gt;Node12 -->
<g id="edge14" class="edge">
<title>Node13&#45;&gt;Node12</title>
<path fill="none" stroke="midnightblue" d="M251.34,-235.08C250.82,-228.01 250.06,-217.86 249.41,-208.99"/>
<polygon fill="midnightblue" stroke="midnightblue" points="252.88,-208.47 248.65,-198.75 245.9,-208.98 252.88,-208.47"/>
</g>
<!-- Node13&#45;&gt;Node14 -->
<g id="edge16" class="edge">
<title>Node13&#45;&gt;Node14</title>
<path fill="none" stroke="midnightblue" d="M239.95,-235.32C228.54,-227.11 211.17,-214.6 197.57,-204.81"/>
<polygon fill="midnightblue" stroke="midnightblue" points="199.43,-201.84 189.27,-198.83 195.34,-207.52 199.43,-201.84"/>
</g>
<!-- Node13&#45;&gt;Node18 -->
<g id="edge23" class="edge">
<title>Node13&#45;&gt;Node18</title>
<path fill="none" stroke="midnightblue" d="M277.35,-235.44C304.27,-226.36 347,-211.94 377.09,-201.78"/>
<polygon fill="midnightblue" stroke="midnightblue" points="378.41,-205.03 386.77,-198.52 376.17,-198.4 378.41,-205.03"/>
</g>
<!-- Node14&#45;&gt;Node11 -->
<g id="edge17" class="edge">
<title>Node14&#45;&gt;Node11</title>
<path fill="none" stroke="midnightblue" d="M187.99,-179.37C211.81,-160.65 268.44,-116.15 298.12,-92.83"/>
<polygon fill="midnightblue" stroke="midnightblue" points="300.36,-95.52 306.07,-86.59 296.04,-90.02 300.36,-95.52"/>
</g>
<!-- Node15 -->
<g id="node15" class="node">
<title>Node15</title>
<g id="a_node15"><a xlink:href="Vector3_8hpp.html" target="_top" xlink:title=" ">
<polygon fill="white" stroke="black" points="440,-123.5 440,-142.5 514,-142.5 514,-123.5 440,-123.5"/>
<text text-anchor="middle" x="477" y="-130.5" font-family="Helvetica,sans-Serif" font-size="10.00">Vector3.hpp</text>
</a>
</g>
</g>
<!-- Node14&#45;&gt;Node15 -->
<g id="edge18" class="edge">
<title>Node14&#45;&gt;Node15</title>
<path fill="none" stroke="midnightblue" d="M208.41,-180.78C211.31,-180.16 214.21,-179.56 217,-179 291.13,-164.25 377.71,-149.82 429.9,-141.43"/>
<polygon fill="midnightblue" stroke="midnightblue" points="430.54,-144.87 439.86,-139.83 429.44,-137.96 430.54,-144.87"/>
</g>
<!-- Node15&#45;&gt;Node4 -->
<g id="edge20" class="edge">
<title>Node15&#45;&gt;Node4</title>
<path fill="none" stroke="midnightblue" d="M494.51,-123.32C512.07,-114.62 539.33,-101.12 559.53,-91.11"/>
<polygon fill="midnightblue" stroke="midnightblue" points="561.12,-94.23 568.53,-86.65 558.02,-87.96 561.12,-94.23"/>
</g>
<!-- Node15&#45;&gt;Node11 -->
<g id="edge19" class="edge">
<title>Node15&#45;&gt;Node11</title>
<path fill="none" stroke="midnightblue" d="M451.65,-123.44C424.73,-114.36 382,-99.94 351.91,-89.78"/>
<polygon fill="midnightblue" stroke="midnightblue" points="352.83,-86.4 342.23,-86.52 350.59,-93.03 352.83,-86.4"/>
</g>
<!-- Node16 -->
<g id="node16" class="node">
<title>Node16</title>
<g id="a_node16"><a xlink:title=" ">
<polygon fill="white" stroke="#bfbfbf" points="386.5,-67.5 386.5,-86.5 433.5,-86.5 433.5,-67.5 386.5,-67.5"/>
<text text-anchor="middle" x="410" y="-74.5" font-family="Helvetica,sans-Serif" font-size="10.00">cmath</text>
</a>
</g>
</g>
<!-- Node15&#45;&gt;Node16 -->
<g id="edge21" class="edge">
<title>Node15&#45;&gt;Node16</title>
<path fill="none" stroke="midnightblue" d="M466.24,-123.32C456.23,-115.26 441.11,-103.08 429.07,-93.37"/>
<polygon fill="midnightblue" stroke="midnightblue" points="430.94,-90.38 420.96,-86.83 426.55,-95.83 430.94,-90.38"/>
</g>
<!-- Node17 -->
<g id="node17" class="node">
<title>Node17</title>
<g id="a_node17"><a xlink:title=" ">
<polygon fill="white" stroke="#bfbfbf" points="452,-67.5 452,-86.5 508,-86.5 508,-67.5 452,-67.5"/>
<text text-anchor="middle" x="480" y="-74.5" font-family="Helvetica,sans-Serif" font-size="10.00">sstream</text>
</a>
</g>
</g>
<!-- Node15&#45;&gt;Node17 -->
<g id="edge22" class="edge">
<title>Node15&#45;&gt;Node17</title>
<path fill="none" stroke="midnightblue" d="M477.5,-123.08C477.89,-116.01 478.45,-105.86 478.95,-96.99"/>
<polygon fill="midnightblue" stroke="midnightblue" points="482.45,-96.93 479.51,-86.75 475.46,-96.54 482.45,-96.93"/>
</g>
<!-- Node18&#45;&gt;Node4 -->
<g id="edge27" class="edge">
<title>Node18&#45;&gt;Node4</title>
<path fill="none" stroke="midnightblue" d="M442.41,-179.46C465.71,-172.05 498,-159.85 523,-143 542.86,-129.62 561.4,-109.14 573.15,-94.75"/>
<polygon fill="midnightblue" stroke="midnightblue" points="576.07,-96.71 579.54,-86.7 570.58,-92.35 576.07,-96.71"/>
</g>
<!-- Node18&#45;&gt;Node11 -->
<g id="edge24" class="edge">
<title>Node18&#45;&gt;Node11</title>
<path fill="none" stroke="midnightblue" d="M404.55,-179.37C388.73,-161.05 351.59,-118.05 331.13,-94.36"/>
<polygon fill="midnightblue" stroke="midnightblue" points="333.6,-91.87 324.42,-86.59 328.31,-96.45 333.6,-91.87"/>
</g>
<!-- Node18&#45;&gt;Node15 -->
<g id="edge26" class="edge">
<title>Node18&#45;&gt;Node15</title>
<path fill="none" stroke="midnightblue" d="M422.44,-179.32C432.15,-171.26 446.82,-159.08 458.5,-149.37"/>
<polygon fill="midnightblue" stroke="midnightblue" points="460.91,-151.92 466.37,-142.83 456.44,-146.53 460.91,-151.92"/>
</g>
<!-- Node18&#45;&gt;Node16 -->
<g id="edge25" class="edge">
<title>Node18&#45;&gt;Node16</title>
<path fill="none" stroke="midnightblue" d="M411.84,-179.37C411.52,-161.62 410.78,-120.67 410.34,-96.6"/>
<polygon fill="midnightblue" stroke="midnightblue" points="413.84,-96.53 410.16,-86.59 406.84,-96.65 413.84,-96.53"/>
</g>
<!-- Node19&#45;&gt;Node11 -->
<g id="edge31" class="edge">
<title>Node19&#45;&gt;Node11</title>
<path fill="none" stroke="midnightblue" d="M433.61,-235.43C411.29,-228.79 384.26,-217.5 366,-199 337.57,-170.19 324.96,-122.7 319.93,-96.6"/>
<polygon fill="midnightblue" stroke="midnightblue" points="323.35,-95.8 318.17,-86.56 316.45,-97.01 323.35,-95.8"/>
</g>
<!-- Node19&#45;&gt;Node15 -->
<g id="edge33" class="edge">
<title>Node19&#45;&gt;Node15</title>
<path fill="none" stroke="midnightblue" d="M473.31,-235.37C473.96,-217.62 475.45,-176.67 476.32,-152.6"/>
<polygon fill="midnightblue" stroke="midnightblue" points="479.82,-152.71 476.69,-142.59 472.83,-152.46 479.82,-152.71"/>
</g>
<!-- Node19&#45;&gt;Node18 -->
<g id="edge32" class="edge">
<title>Node19&#45;&gt;Node18</title>
<path fill="none" stroke="midnightblue" d="M463.2,-235.32C454.18,-227.34 440.59,-215.31 429.68,-205.65"/>
<polygon fill="midnightblue" stroke="midnightblue" points="431.79,-202.84 421.98,-198.83 427.15,-208.08 431.79,-202.84"/>
</g>
<!-- Node20 -->
<g id="node20" class="node">
<title>Node20</title>
<g id="a_node20"><a xlink:href="Ray_8hpp.html" target="_top" xlink:title=" ">
<polygon fill="white" stroke="black" points="505.5,-179.5 505.5,-198.5 560.5,-198.5 560.5,-179.5 505.5,-179.5"/>
<text text-anchor="middle" x="533" y="-186.5" font-family="Helvetica,sans-Serif" font-size="10.00">Ray.hpp</text>
</a>
</g>
</g>
<!-- Node19&#45;&gt;Node20 -->
<g id="edge34" class="edge">
<title>Node19&#45;&gt;Node20</title>
<path fill="none" stroke="midnightblue" d="M482.64,-235.32C491.51,-227.34 504.87,-215.31 515.61,-205.65"/>
<polygon fill="midnightblue" stroke="midnightblue" points="518.09,-208.13 523.18,-198.83 513.41,-202.92 518.09,-208.13"/>
</g>
<!-- Node20&#45;&gt;Node15 -->
<g id="edge35" class="edge">
<title>Node20&#45;&gt;Node15</title>
<path fill="none" stroke="midnightblue" d="M524,-179.32C515.81,-171.42 503.49,-159.55 493.53,-149.94"/>
<polygon fill="midnightblue" stroke="midnightblue" points="495.79,-147.26 486.16,-142.83 490.93,-152.29 495.79,-147.26"/>
</g>
<!-- Node21&#45;&gt;Node11 -->
<g id="edge37" class="edge">
<title>Node21&#45;&gt;Node11</title>
<path fill="none" stroke="midnightblue" d="M44.37,-235.34C48.42,-212.92 62.43,-152.61 100,-123 127.48,-101.34 225.44,-87.74 279.87,-81.69"/>
<polygon fill="midnightblue" stroke="midnightblue" points="280.57,-85.13 290.14,-80.57 279.82,-78.17 280.57,-85.13"/>
</g>
<!-- Node21&#45;&gt;Node14 -->
<g id="edge38" class="edge">
<title>Node21&#45;&gt;Node14</title>
<path fill="none" stroke="midnightblue" d="M64.23,-235.44C86.38,-226.52 121.32,-212.44 146.44,-202.32"/>
<polygon fill="midnightblue" stroke="midnightblue" points="147.9,-205.5 155.87,-198.52 145.28,-199.01 147.9,-205.5"/>
</g>
<!-- Node23&#45;&gt;Node2 -->
<g id="edge41" class="edge">
<title>Node23&#45;&gt;Node2</title>
<path fill="none" stroke="midnightblue" d="M550.66,-347.48C572.46,-331.17 620.17,-293.72 653,-255 681.48,-221.41 707.01,-176.21 719.99,-151.67"/>
<polygon fill="midnightblue" stroke="midnightblue" points="723.1,-153.27 724.61,-142.78 716.89,-150.04 723.1,-153.27"/>
</g>
<!-- Node23&#45;&gt;Node10 -->
<g id="edge43" class="edge">
<title>Node23&#45;&gt;Node10</title>
<path fill="none" stroke="midnightblue" d="M498.44,-347.44C452.63,-337.78 378.21,-322.08 329.93,-311.9"/>
<polygon fill="midnightblue" stroke="midnightblue" points="330.56,-308.45 320.05,-309.82 329.11,-315.3 330.56,-308.45"/>
</g>
<!-- Node23&#45;&gt;Node18 -->
<g id="edge42" class="edge">
<title>Node23&#45;&gt;Node18</title>
<path fill="none" stroke="midnightblue" d="M540.84,-347.29C544.86,-325.77 552.12,-269.29 526,-235 510.04,-214.04 482.85,-202.83 459.03,-196.84"/>
<polygon fill="midnightblue" stroke="midnightblue" points="459.59,-193.38 449.07,-194.58 458.04,-200.21 459.59,-193.38"/>
</g>
<!-- Node24&#45;&gt;Node11 -->
<g id="edge46" class="edge">
<title>Node24&#45;&gt;Node11</title>
<path fill="none" stroke="midnightblue" d="M605.76,-235.46C596.65,-212.77 568.51,-150.84 523,-123 508.66,-114.23 408.87,-94.88 353.61,-84.65"/>
<polygon fill="midnightblue" stroke="midnightblue" points="353.99,-81.16 343.52,-82.79 352.72,-88.04 353.99,-81.16"/>
</g>
<!-- Node24&#45;&gt;Node18 -->
<g id="edge47" class="edge">
<title>Node24&#45;&gt;Node18</title>
<path fill="none" stroke="midnightblue" d="M577.78,-235.44C544.07,-226.2 490.2,-211.44 453.07,-201.26"/>
<polygon fill="midnightblue" stroke="midnightblue" points="453.64,-197.78 443.07,-198.52 451.79,-204.54 453.64,-197.78"/>
</g>
<!-- Node24&#45;&gt;Node20 -->
<g id="edge48" class="edge">
<title>Node24&#45;&gt;Node20</title>
<path fill="none" stroke="midnightblue" d="M596.79,-235.32C585.22,-227.11 567.62,-214.6 553.84,-204.81"/>
<polygon fill="midnightblue" stroke="midnightblue" points="555.61,-201.77 545.43,-198.83 551.56,-207.48 555.61,-201.77"/>
</g>
<!-- Node25&#45;&gt;Node15 -->
<g id="edge50" class="edge">
<title>Node25&#45;&gt;Node15</title>
<path fill="none" stroke="midnightblue" d="M716.91,-291.15C703.44,-278.22 677.17,-253.67 653,-235 617.49,-207.57 607.91,-201.35 569,-179 548.35,-167.14 524.13,-155.37 505.72,-146.85"/>
<polygon fill="midnightblue" stroke="midnightblue" points="506.96,-143.57 496.41,-142.58 504.05,-149.93 506.96,-143.57"/>
</g>
</g>
</svg>
