<?xml version="1.0" encoding="UTF-8" standalone="no"?>
<!DOCTYPE svg PUBLIC "-//W3C//DTD SVG 1.1//EN"
 "http://www.w3.org/Graphics/SVG/1.1/DTD/svg11.dtd">
<!-- Generated by graphviz version 2.43.0 (0)
 -->
<!-- Title: Libs/RayLib/sources/Circle/Circle.hpp Pages: 1 -->
<svg width="519pt" height="274pt"
 viewBox="0.00 0.00 519.00 274.00" xmlns="http://www.w3.org/2000/svg" xmlns:xlink="http://www.w3.org/1999/xlink">
<g id="graph0" class="graph" transform="scale(1 1) rotate(0) translate(4 270)">
<title>Libs/RayLib/sources/Circle/Circle.hpp</title>
<polygon fill="white" stroke="transparent" points="-4,4 -4,-270 515,-270 515,4 -4,4"/>
<!-- Node1 -->
<g id="node1" class="node">
<title>Node1</title>
<g id="a_node1"><a xlink:title=" ">
<polygon fill="#bfbfbf" stroke="black" points="3,-235.5 3,-265.5 116,-265.5 116,-235.5 3,-235.5"/>
<text text-anchor="start" x="11" y="-253.5" font-family="Helvetica,sans-Serif" font-size="10.00">Libs/RayLib/sources</text>
<text text-anchor="middle" x="59.5" y="-242.5" font-family="Helvetica,sans-Serif" font-size="10.00">/Circle/Circle.hpp</text>
</a>
</g>
</g>
<!-- Node2 -->
<g id="node2" class="node">
<title>Node2</title>
<g id="a_node2"><a xlink:title=" ">
<polygon fill="white" stroke="#bfbfbf" points="0,-67.5 0,-86.5 53,-86.5 53,-67.5 0,-67.5"/>
<text text-anchor="middle" x="26.5" y="-74.5" font-family="Helvetica,sans-Serif" font-size="10.00">raylib.h</text>
</a>
</g>
</g>
<!-- Node1&#45;&gt;Node2 -->
<g id="edge1" class="edge">
<title>Node1&#45;&gt;Node2</title>
<path fill="none" stroke="midnightblue" d="M56.8,-235.47C50.88,-204.7 36.76,-131.33 30.1,-96.7"/>
<polygon fill="midnightblue" stroke="midnightblue" points="33.47,-95.72 28.15,-86.56 26.6,-97.04 33.47,-95.72"/>
</g>
<!-- Node3 -->
<g id="node3" class="node">
<title>Node3</title>
<g id="a_node3"><a xlink:href="Vector2_8hpp.html" target="_top" xlink:title=" ">
<polygon fill="white" stroke="black" points="60.5,-179.5 60.5,-198.5 134.5,-198.5 134.5,-179.5 60.5,-179.5"/>
<text text-anchor="middle" x="97.5" y="-186.5" font-family="Helvetica,sans-Serif" font-size="10.00">Vector2.hpp</text>
</a>
</g>
</g>
<!-- Node1&#45;&gt;Node3 -->
<g id="edge2" class="edge">
<title>Node1&#45;&gt;Node3</title>
<path fill="none" stroke="midnightblue" d="M68.51,-235.4C73.91,-226.93 80.83,-216.1 86.55,-207.14"/>
<polygon fill="midnightblue" stroke="midnightblue" points="89.54,-208.97 91.97,-198.66 83.64,-205.2 89.54,-208.97"/>
</g>
<!-- Node3&#45;&gt;Node2 -->
<g id="edge3" class="edge">
<title>Node3&#45;&gt;Node2</title>
<path fill="none" stroke="midnightblue" d="M91.93,-179.37C80.26,-161.3 53.08,-119.18 37.67,-95.31"/>
<polygon fill="midnightblue" stroke="midnightblue" points="40.41,-93.1 32.05,-86.59 34.53,-96.89 40.41,-93.1"/>
</g>
<!-- Node4 -->
<g id="node4" class="node">
<title>Node4</title>
<g id="a_node4"><a xlink:title=" ">
<polygon fill="white" stroke="#bfbfbf" points="71,-67.5 71,-86.5 118,-86.5 118,-67.5 71,-67.5"/>
<text text-anchor="middle" x="94.5" y="-74.5" font-family="Helvetica,sans-Serif" font-size="10.00">cmath</text>
</a>
</g>
</g>
<!-- Node3&#45;&gt;Node4 -->
<g id="edge4" class="edge">
<title>Node3&#45;&gt;Node4</title>
<path fill="none" stroke="midnightblue" d="M97.26,-179.37C96.78,-161.62 95.66,-120.67 95.01,-96.6"/>
<polygon fill="midnightblue" stroke="midnightblue" points="98.51,-96.49 94.73,-86.59 91.51,-96.68 98.51,-96.49"/>
</g>
<!-- Node5 -->
<g id="node5" class="node">
<title>Node5</title>
<g id="a_node5"><a xlink:href="Vector3_8hpp.html" target="_top" xlink:title=" ">
<polygon fill="white" stroke="black" points="125.5,-123.5 125.5,-142.5 199.5,-142.5 199.5,-123.5 125.5,-123.5"/>
<text text-anchor="middle" x="162.5" y="-130.5" font-family="Helvetica,sans-Serif" font-size="10.00">Vector3.hpp</text>
</a>
</g>
</g>
<!-- Node3&#45;&gt;Node5 -->
<g id="edge5" class="edge">
<title>Node3&#45;&gt;Node5</title>
<path fill="none" stroke="midnightblue" d="M107.94,-179.32C117.65,-171.26 132.32,-159.08 144,-149.37"/>
<polygon fill="midnightblue" stroke="midnightblue" points="146.41,-151.92 151.87,-142.83 141.94,-146.53 146.41,-151.92"/>
</g>
<!-- Node6 -->
<g id="node6" class="node">
<title>Node6</title>
<g id="a_node6"><a xlink:href="IXMLSerializable_8hpp.html" target="_top" xlink:title=" ">
<polygon fill="white" stroke="black" points="211,-67.5 211,-86.5 330,-86.5 330,-67.5 211,-67.5"/>
<text text-anchor="middle" x="270.5" y="-74.5" font-family="Helvetica,sans-Serif" font-size="10.00">IXMLSerializable.hpp</text>
</a>
</g>
</g>
<!-- Node3&#45;&gt;Node6 -->
<g id="edge14" class="edge">
<title>Node3&#45;&gt;Node6</title>
<path fill="none" stroke="midnightblue" d="M128.43,-179.36C151.71,-171.97 183.74,-159.84 208.5,-143 228.15,-129.64 246.37,-109.16 257.91,-94.76"/>
<polygon fill="midnightblue" stroke="midnightblue" points="260.8,-96.75 264.18,-86.7 255.27,-92.45 260.8,-96.75"/>
</g>
<!-- Node5&#45;&gt;Node2 -->
<g id="edge6" class="edge">
<title>Node5&#45;&gt;Node2</title>
<path fill="none" stroke="midnightblue" d="M140.95,-123.44C118.47,-114.52 83.01,-100.44 57.52,-90.32"/>
<polygon fill="midnightblue" stroke="midnightblue" points="58.53,-86.95 47.95,-86.52 55.95,-93.46 58.53,-86.95"/>
</g>
<!-- Node5&#45;&gt;Node4 -->
<g id="edge12" class="edge">
<title>Node5&#45;&gt;Node4</title>
<path fill="none" stroke="midnightblue" d="M151.57,-123.32C141.33,-115.18 125.78,-102.84 113.5,-93.09"/>
<polygon fill="midnightblue" stroke="midnightblue" points="115.63,-90.31 105.62,-86.83 111.28,-95.79 115.63,-90.31"/>
</g>
<!-- Node5&#45;&gt;Node6 -->
<g id="edge7" class="edge">
<title>Node5&#45;&gt;Node6</title>
<path fill="none" stroke="midnightblue" d="M179.85,-123.32C197.17,-114.66 224.02,-101.24 244,-91.25"/>
<polygon fill="midnightblue" stroke="midnightblue" points="245.81,-94.26 253.19,-86.65 242.68,-88 245.81,-94.26"/>
</g>
<!-- Node11 -->
<g id="node11" class="node">
<title>Node11</title>
<g id="a_node11"><a xlink:title=" ">
<polygon fill="white" stroke="#bfbfbf" points="136.5,-67.5 136.5,-86.5 192.5,-86.5 192.5,-67.5 136.5,-67.5"/>
<text text-anchor="middle" x="164.5" y="-74.5" font-family="Helvetica,sans-Serif" font-size="10.00">sstream</text>
</a>
</g>
</g>
<!-- Node5&#45;&gt;Node11 -->
<g id="edge13" class="edge">
<title>Node5&#45;&gt;Node11</title>
<path fill="none" stroke="midnightblue" d="M162.83,-123.08C163.09,-116.01 163.47,-105.86 163.8,-96.99"/>
<polygon fill="midnightblue" stroke="midnightblue" points="167.3,-96.87 164.18,-86.75 160.31,-96.61 167.3,-96.87"/>
</g>
<!-- Node7 -->
<g id="node7" class="node">
<title>Node7</title>
<g id="a_node7"><a xlink:title=" ">
<polygon fill="white" stroke="#bfbfbf" points="113,-6 113,-25 170,-25 170,-6 113,-6"/>
<text text-anchor="middle" x="141.5" y="-13" font-family="Helvetica,sans-Serif" font-size="10.00">ostream</text>
</a>
</g>
</g>
<!-- Node6&#45;&gt;Node7 -->
<g id="edge8" class="edge">
<title>Node6&#45;&gt;Node7</title>
<path fill="none" stroke="midnightblue" d="M252.02,-67.48C230.37,-57.49 194.29,-40.85 169.27,-29.31"/>
<polygon fill="midnightblue" stroke="midnightblue" points="170.49,-26.02 159.95,-25.01 167.56,-32.38 170.49,-26.02"/>
</g>
<!-- Node8 -->
<g id="node8" class="node">
<title>Node8</title>
<g id="a_node8"><a xlink:title=" ">
<polygon fill="white" stroke="#bfbfbf" points="188.5,-6 188.5,-25 248.5,-25 248.5,-6 188.5,-6"/>
<text text-anchor="middle" x="218.5" y="-13" font-family="Helvetica,sans-Serif" font-size="10.00">iostream</text>
</a>
</g>
</g>
<!-- Node6&#45;&gt;Node8 -->
<g id="edge9" class="edge">
<title>Node6&#45;&gt;Node8</title>
<path fill="none" stroke="midnightblue" d="M263.05,-67.48C255.17,-58.46 242.56,-44.02 232.76,-32.81"/>
<polygon fill="midnightblue" stroke="midnightblue" points="235.15,-30.24 225.94,-25.01 229.88,-34.84 235.15,-30.24"/>
</g>
<!-- Node9 -->
<g id="node9" class="node">
<title>Node9</title>
<g id="a_node9"><a xlink:title=" ">
<polygon fill="white" stroke="#bfbfbf" points="267,-0.5 267,-30.5 380,-30.5 380,-0.5 267,-0.5"/>
<text text-anchor="start" x="275" y="-18.5" font-family="Helvetica,sans-Serif" font-size="10.00">boost/property_tree</text>
<text text-anchor="middle" x="323.5" y="-7.5" font-family="Helvetica,sans-Serif" font-size="10.00">/ptree.hpp</text>
</a>
</g>
</g>
<!-- Node6&#45;&gt;Node9 -->
<g id="edge10" class="edge">
<title>Node6&#45;&gt;Node9</title>
<path fill="none" stroke="midnightblue" d="M278.09,-67.48C284.87,-59.87 295.09,-48.4 304.11,-38.26"/>
<polygon fill="midnightblue" stroke="midnightblue" points="306.97,-40.32 311.01,-30.52 301.74,-35.66 306.97,-40.32"/>
</g>
<!-- Node10 -->
<g id="node10" class="node">
<title>Node10</title>
<g id="a_node10"><a xlink:title=" ">
<polygon fill="white" stroke="#bfbfbf" points="398,-0.5 398,-30.5 511,-30.5 511,-0.5 398,-0.5"/>
<text text-anchor="start" x="406" y="-18.5" font-family="Helvetica,sans-Serif" font-size="10.00">boost/property_tree</text>
<text text-anchor="middle" x="454.5" y="-7.5" font-family="Helvetica,sans-Serif" font-size="10.00">/xml_parser.hpp</text>
</a>
</g>
</g>
<!-- Node6&#45;&gt;Node10 -->
<g id="edge11" class="edge">
<title>Node6&#45;&gt;Node10</title>
<path fill="none" stroke="midnightblue" d="M296.86,-67.48C324,-58.7 367.02,-44.79 401.27,-33.71"/>
<polygon fill="midnightblue" stroke="midnightblue" points="402.7,-36.93 411.13,-30.52 400.54,-30.27 402.7,-36.93"/>
</g>
</g>
</svg>
