<?xml version="1.0" encoding="UTF-8" standalone="no"?>
<!DOCTYPE svg PUBLIC "-//W3C//DTD SVG 1.1//EN"
 "http://www.w3.org/Graphics/SVG/1.1/DTD/svg11.dtd">
<!-- Generated by graphviz version 2.43.0 (0)
 -->
<!-- Title: RayLib::RayCollision Pages: 1 -->
<svg width="204pt" height="563pt"
 viewBox="0.00 0.00 204.00 563.00" xmlns="http://www.w3.org/2000/svg" xmlns:xlink="http://www.w3.org/1999/xlink">
<g id="graph0" class="graph" transform="scale(1 1) rotate(0) translate(4 559)">
<title>RayLib::RayCollision</title>
<polygon fill="white" stroke="transparent" points="-4,4 -4,-559 200,-559 200,4 -4,4"/>
<!-- Node1 -->
<g id="node1" class="node">
<title>Node1</title>
<g id="a_node1"><a xlink:title="RayCollision encapsulation.">
<polygon fill="#bfbfbf" stroke="black" points="21.5,-0.5 21.5,-178.5 137.5,-178.5 137.5,-0.5 21.5,-0.5"/>
<text text-anchor="middle" x="79.5" y="-166.5" font-family="Helvetica,sans-Serif" font-size="10.00">RayLib::RayCollision</text>
<polyline fill="none" stroke="black" points="21.5,-159.5 137.5,-159.5 "/>
<text text-anchor="start" x="29.5" y="-147.5" font-family="Helvetica,sans-Serif" font-size="10.00">&#45; _hit</text>
<text text-anchor="start" x="29.5" y="-136.5" font-family="Helvetica,sans-Serif" font-size="10.00">&#45; _distance</text>
<polyline fill="none" stroke="black" points="21.5,-129.5 137.5,-129.5 "/>
<text text-anchor="start" x="29.5" y="-117.5" font-family="Helvetica,sans-Serif" font-size="10.00">+ RayCollision()</text>
<text text-anchor="start" x="29.5" y="-106.5" font-family="Helvetica,sans-Serif" font-size="10.00">+ ~RayCollision()</text>
<text text-anchor="start" x="29.5" y="-95.5" font-family="Helvetica,sans-Serif" font-size="10.00">+ RayCollision()</text>
<text text-anchor="start" x="29.5" y="-84.5" font-family="Helvetica,sans-Serif" font-size="10.00">+ RayCollision()</text>
<text text-anchor="start" x="29.5" y="-73.5" font-family="Helvetica,sans-Serif" font-size="10.00">+ operator=()</text>
<text text-anchor="start" x="29.5" y="-62.5" font-family="Helvetica,sans-Serif" font-size="10.00">+ operator=()</text>
<text text-anchor="start" x="29.5" y="-51.5" font-family="Helvetica,sans-Serif" font-size="10.00">+ GetHitInfo()</text>
<text text-anchor="start" x="29.5" y="-40.5" font-family="Helvetica,sans-Serif" font-size="10.00">+ HasHit()</text>
<text text-anchor="start" x="29.5" y="-29.5" font-family="Helvetica,sans-Serif" font-size="10.00">+ GetDistance()</text>
<text text-anchor="start" x="29.5" y="-18.5" font-family="Helvetica,sans-Serif" font-size="10.00">+ GetPosition()</text>
<text text-anchor="start" x="29.5" y="-7.5" font-family="Helvetica,sans-Serif" font-size="10.00">+ GetNormal()</text>
</a>
</g>
</g>
<!-- Node2 -->
<g id="node2" class="node">
<title>Node2</title>
<g id="a_node2"><a xlink:href="classRayLib_1_1Vector3.html" target="_top" xlink:title="Vector3 encapsulation.">
<polygon fill="white" stroke="black" points="33.5,-237.5 33.5,-404.5 125.5,-404.5 125.5,-237.5 33.5,-237.5"/>
<text text-anchor="middle" x="79.5" y="-392.5" font-family="Helvetica,sans-Serif" font-size="10.00">RayLib::Vector3</text>
<polyline fill="none" stroke="black" points="33.5,-385.5 125.5,-385.5 "/>
<text text-anchor="middle" x="79.5" y="-373.5" font-family="Helvetica,sans-Serif" font-size="10.00"> </text>
<polyline fill="none" stroke="black" points="33.5,-366.5 125.5,-366.5 "/>
<text text-anchor="start" x="41.5" y="-354.5" font-family="Helvetica,sans-Serif" font-size="10.00">+ Vector3()</text>
<text text-anchor="start" x="41.5" y="-343.5" font-family="Helvetica,sans-Serif" font-size="10.00">+ Vector3()</text>
<text text-anchor="start" x="41.5" y="-332.5" font-family="Helvetica,sans-Serif" font-size="10.00">+ Vector3()</text>
<text text-anchor="start" x="41.5" y="-321.5" font-family="Helvetica,sans-Serif" font-size="10.00">+ Vector3()</text>
<text text-anchor="start" x="41.5" y="-310.5" font-family="Helvetica,sans-Serif" font-size="10.00">+ Vector3()</text>
<text text-anchor="start" x="41.5" y="-299.5" font-family="Helvetica,sans-Serif" font-size="10.00">+ Vector3()</text>
<text text-anchor="start" x="41.5" y="-288.5" font-family="Helvetica,sans-Serif" font-size="10.00">+ ~Vector3()</text>
<text text-anchor="start" x="41.5" y="-277.5" font-family="Helvetica,sans-Serif" font-size="10.00">+ getVector3()</text>
<text text-anchor="start" x="41.5" y="-266.5" font-family="Helvetica,sans-Serif" font-size="10.00">+ operator=()</text>
<text text-anchor="start" x="41.5" y="-255.5" font-family="Helvetica,sans-Serif" font-size="10.00">+ operator*=()</text>
<text text-anchor="start" x="41.5" y="-244.5" font-family="Helvetica,sans-Serif" font-size="10.00">and 13 more...</text>
</a>
</g>
</g>
<!-- Node2&#45;&gt;Node1 -->
<g id="edge1" class="edge">
<title>Node2&#45;&gt;Node1</title>
<path fill="none" stroke="#404040" d="M79.5,-237.47C79.5,-222.46 79.5,-206.66 79.5,-191.19"/>
<polygon fill="none" stroke="#404040" points="79.5,-190.89 75.5,-184.89 79.5,-178.89 83.5,-184.89 79.5,-190.89"/>
<text text-anchor="middle" x="103" y="-211" font-family="Helvetica,sans-Serif" font-size="10.00"> &#45;_normal</text>
<text text-anchor="middle" x="103" y="-200" font-family="Helvetica,sans-Serif" font-size="10.00">&#45;_point</text>
</g>
<!-- Node3 -->
<g id="node3" class="node">
<title>Node3</title>
<g id="a_node3"><a xlink:title=" ">
<polygon fill="white" stroke="#bfbfbf" points="0,-470 0,-527 53,-527 53,-470 0,-470"/>
<text text-anchor="middle" x="26.5" y="-515" font-family="Helvetica,sans-Serif" font-size="10.00">Vector3</text>
<polyline fill="none" stroke="#bfbfbf" points="0,-508 53,-508 "/>
<text text-anchor="middle" x="26.5" y="-496" font-family="Helvetica,sans-Serif" font-size="10.00"> </text>
<polyline fill="none" stroke="#bfbfbf" points="0,-489 53,-489 "/>
<text text-anchor="middle" x="26.5" y="-477" font-family="Helvetica,sans-Serif" font-size="10.00"> </text>
</a>
</g>
</g>
<!-- Node3&#45;&gt;Node2 -->
<g id="edge2" class="edge">
<title>Node3&#45;&gt;Node2</title>
<path fill="none" stroke="midnightblue" d="M37.81,-460.05C42.72,-443.8 48.68,-424.07 54.54,-404.67"/>
<polygon fill="none" stroke="midnightblue" points="34.44,-459.11 34.9,-469.69 41.14,-461.13 34.44,-459.11"/>
</g>
<!-- Node4 -->
<g id="node4" class="node">
<title>Node4</title>
<g id="a_node4"><a xlink:href="classIXMLSerializable.html" target="_top" xlink:title=" ">
<polygon fill="white" stroke="black" points="71,-442.5 71,-554.5 196,-554.5 196,-442.5 71,-442.5"/>
<text text-anchor="middle" x="133.5" y="-542.5" font-family="Helvetica,sans-Serif" font-size="10.00">IXMLSerializable</text>
<polyline fill="none" stroke="black" points="71,-535.5 196,-535.5 "/>
<text text-anchor="middle" x="133.5" y="-523.5" font-family="Helvetica,sans-Serif" font-size="10.00"> </text>
<polyline fill="none" stroke="black" points="71,-516.5 196,-516.5 "/>
<text text-anchor="start" x="79" y="-504.5" font-family="Helvetica,sans-Serif" font-size="10.00">+ IXMLSerializable()</text>
<text text-anchor="start" x="79" y="-493.5" font-family="Helvetica,sans-Serif" font-size="10.00">+ ~IXMLSerializable()</text>
<text text-anchor="start" x="79" y="-482.5" font-family="Helvetica,sans-Serif" font-size="10.00">+ IXMLSerializable()</text>
<text text-anchor="start" x="79" y="-471.5" font-family="Helvetica,sans-Serif" font-size="10.00">+ operator=()</text>
<text text-anchor="start" x="79" y="-460.5" font-family="Helvetica,sans-Serif" font-size="10.00">+ operator&lt;&lt;()</text>
<text text-anchor="start" x="79" y="-449.5" font-family="Helvetica,sans-Serif" font-size="10.00">+ operator&lt;&lt;()</text>
</a>
</g>
</g>
<!-- Node4&#45;&gt;Node2 -->
<g id="edge3" class="edge">
<title>Node4&#45;&gt;Node2</title>
<path fill="none" stroke="midnightblue" d="M113.57,-432.74C110.77,-423.64 107.87,-414.19 104.98,-404.81"/>
<polygon fill="none" stroke="midnightblue" points="110.28,-433.92 116.56,-442.45 116.97,-431.87 110.28,-433.92"/>
</g>
</g>
</svg>
