<?xml version="1.0" encoding="UTF-8" standalone="no"?>
<!DOCTYPE svg PUBLIC "-//W3C//DTD SVG 1.1//EN"
 "http://www.w3.org/Graphics/SVG/1.1/DTD/svg11.dtd">
<!-- Generated by graphviz version 2.43.0 (0)
 -->
<!-- Title: Component::AIAlgo Pages: 1 -->
<svg width="151pt" height="926pt"
 viewBox="0.00 0.00 151.00 926.00" xmlns="http://www.w3.org/2000/svg" xmlns:xlink="http://www.w3.org/1999/xlink">
<g id="graph0" class="graph" transform="scale(1 1) rotate(0) translate(4 922)">
<title>Component::AIAlgo</title>
<polygon fill="white" stroke="transparent" points="-4,4 -4,-922 147,-922 147,4 -4,4"/>
<!-- Node1 -->
<g id="node1" class="node">
<title>Node1</title>
<g id="a_node1"><a xlink:title=" ">
<polygon fill="#bfbfbf" stroke="black" points="0,-0.5 0,-277.5 143,-277.5 143,-0.5 0,-0.5"/>
<text text-anchor="middle" x="71.5" y="-265.5" font-family="Helvetica,sans-Serif" font-size="10.00">Component::AIAlgo</text>
<polyline fill="none" stroke="black" points="0,-258.5 143,-258.5 "/>
<text text-anchor="start" x="8" y="-246.5" font-family="Helvetica,sans-Serif" font-size="10.00">&#45; _ai_player</text>
<text text-anchor="start" x="8" y="-235.5" font-family="Helvetica,sans-Serif" font-size="10.00">&#45; _state</text>
<text text-anchor="start" x="8" y="-224.5" font-family="Helvetica,sans-Serif" font-size="10.00">&#45; _entities</text>
<text text-anchor="start" x="8" y="-213.5" font-family="Helvetica,sans-Serif" font-size="10.00">&#45; _speed</text>
<text text-anchor="start" x="8" y="-202.5" font-family="Helvetica,sans-Serif" font-size="10.00">&#45; _direction</text>
<text text-anchor="start" x="8" y="-191.5" font-family="Helvetica,sans-Serif" font-size="10.00">&#45; _window</text>
<text text-anchor="start" x="8" y="-180.5" font-family="Helvetica,sans-Serif" font-size="10.00">&#45; _directionPath</text>
<text text-anchor="start" x="8" y="-169.5" font-family="Helvetica,sans-Serif" font-size="10.00">&#45; _currentState</text>
<text text-anchor="start" x="8" y="-158.5" font-family="Helvetica,sans-Serif" font-size="10.00">&#45; _enabled</text>
<text text-anchor="start" x="8" y="-147.5" font-family="Helvetica,sans-Serif" font-size="10.00">&#45; _stateDuration</text>
<text text-anchor="start" x="8" y="-136.5" font-family="Helvetica,sans-Serif" font-size="10.00">&#45; _timeToStateChange</text>
<polyline fill="none" stroke="black" points="0,-129.5 143,-129.5 "/>
<text text-anchor="start" x="8" y="-117.5" font-family="Helvetica,sans-Serif" font-size="10.00">+ AIAlgo()</text>
<text text-anchor="start" x="8" y="-106.5" font-family="Helvetica,sans-Serif" font-size="10.00">+ ~AIAlgo()</text>
<text text-anchor="start" x="8" y="-95.5" font-family="Helvetica,sans-Serif" font-size="10.00">+ AIAlgo()</text>
<text text-anchor="start" x="8" y="-84.5" font-family="Helvetica,sans-Serif" font-size="10.00">+ operator=()</text>
<text text-anchor="start" x="8" y="-73.5" font-family="Helvetica,sans-Serif" font-size="10.00">+ Update()</text>
<text text-anchor="start" x="8" y="-62.5" font-family="Helvetica,sans-Serif" font-size="10.00">+ FixedUpdate()</text>
<text text-anchor="start" x="8" y="-51.5" font-family="Helvetica,sans-Serif" font-size="10.00">+ LateUpdate()</text>
<text text-anchor="start" x="8" y="-40.5" font-family="Helvetica,sans-Serif" font-size="10.00">+ operator&lt;&lt;()</text>
<text text-anchor="start" x="8" y="-29.5" font-family="Helvetica,sans-Serif" font-size="10.00">+ operator&lt;&lt;()</text>
<text text-anchor="start" x="8" y="-18.5" font-family="Helvetica,sans-Serif" font-size="10.00">+ GetClosestSymbolPos()</text>
<text text-anchor="start" x="8" y="-7.5" font-family="Helvetica,sans-Serif" font-size="10.00">and 8 more...</text>
</a>
</g>
</g>
<!-- Node2 -->
<g id="node2" class="node">
<title>Node2</title>
<g id="a_node2"><a xlink:href="classComponent_1_1AController.html" target="_top" xlink:title=" ">
<polygon fill="white" stroke="black" points="4.5,-314.5 4.5,-481.5 138.5,-481.5 138.5,-314.5 4.5,-314.5"/>
<text text-anchor="middle" x="71.5" y="-469.5" font-family="Helvetica,sans-Serif" font-size="10.00">Component::AController</text>
<polyline fill="none" stroke="black" points="4.5,-462.5 138.5,-462.5 "/>
<text text-anchor="start" x="12.5" y="-450.5" font-family="Helvetica,sans-Serif" font-size="10.00"># _movement</text>
<text text-anchor="start" x="12.5" y="-439.5" font-family="Helvetica,sans-Serif" font-size="10.00"># _dropBomb</text>
<polyline fill="none" stroke="black" points="4.5,-432.5 138.5,-432.5 "/>
<text text-anchor="start" x="12.5" y="-420.5" font-family="Helvetica,sans-Serif" font-size="10.00">+ AController()</text>
<text text-anchor="start" x="12.5" y="-409.5" font-family="Helvetica,sans-Serif" font-size="10.00">+ ~AController()</text>
<text text-anchor="start" x="12.5" y="-398.5" font-family="Helvetica,sans-Serif" font-size="10.00">+ AController()</text>
<text text-anchor="start" x="12.5" y="-387.5" font-family="Helvetica,sans-Serif" font-size="10.00">+ operator=()</text>
<text text-anchor="start" x="12.5" y="-376.5" font-family="Helvetica,sans-Serif" font-size="10.00">+ GetMovement()</text>
<text text-anchor="start" x="12.5" y="-365.5" font-family="Helvetica,sans-Serif" font-size="10.00">+ GetDropBomb()</text>
<text text-anchor="start" x="12.5" y="-354.5" font-family="Helvetica,sans-Serif" font-size="10.00">+ GetAController()</text>
<text text-anchor="start" x="12.5" y="-343.5" font-family="Helvetica,sans-Serif" font-size="10.00">+ Update()</text>
<text text-anchor="start" x="12.5" y="-332.5" font-family="Helvetica,sans-Serif" font-size="10.00">+ FixedUpdate()</text>
<text text-anchor="start" x="12.5" y="-321.5" font-family="Helvetica,sans-Serif" font-size="10.00">+ LateUpdate()</text>
</a>
</g>
</g>
<!-- Node2&#45;&gt;Node1 -->
<g id="edge1" class="edge">
<title>Node2&#45;&gt;Node1</title>
<path fill="none" stroke="midnightblue" d="M71.5,-304.24C71.5,-295.59 71.5,-286.71 71.5,-277.76"/>
<polygon fill="none" stroke="midnightblue" points="68,-304.27 71.5,-314.27 75,-304.27 68,-304.27"/>
</g>
<!-- Node3 -->
<g id="node3" class="node">
<title>Node3</title>
<g id="a_node3"><a xlink:href="classComponent_1_1IBehaviour.html" target="_top" xlink:title="IBehaviour base component (CF Monobehaviour class in Unity)">
<polygon fill="white" stroke="black" points="6,-518.5 6,-641.5 137,-641.5 137,-518.5 6,-518.5"/>
<text text-anchor="middle" x="71.5" y="-629.5" font-family="Helvetica,sans-Serif" font-size="10.00">Component::IBehaviour</text>
<polyline fill="none" stroke="black" points="6,-622.5 137,-622.5 "/>
<text text-anchor="middle" x="71.5" y="-610.5" font-family="Helvetica,sans-Serif" font-size="10.00"> </text>
<polyline fill="none" stroke="black" points="6,-603.5 137,-603.5 "/>
<text text-anchor="start" x="14" y="-591.5" font-family="Helvetica,sans-Serif" font-size="10.00">+ IBehaviour()</text>
<text text-anchor="start" x="14" y="-580.5" font-family="Helvetica,sans-Serif" font-size="10.00">+ ~IBehaviour()</text>
<text text-anchor="start" x="14" y="-569.5" font-family="Helvetica,sans-Serif" font-size="10.00">+ IBehaviour()</text>
<text text-anchor="start" x="14" y="-558.5" font-family="Helvetica,sans-Serif" font-size="10.00">+ operator=()</text>
<text text-anchor="start" x="14" y="-547.5" font-family="Helvetica,sans-Serif" font-size="10.00">+ Update()</text>
<text text-anchor="start" x="14" y="-536.5" font-family="Helvetica,sans-Serif" font-size="10.00">+ FixedUpdate()</text>
<text text-anchor="start" x="14" y="-525.5" font-family="Helvetica,sans-Serif" font-size="10.00">+ LateUpdate()</text>
</a>
</g>
</g>
<!-- Node3&#45;&gt;Node2 -->
<g id="edge2" class="edge">
<title>Node3&#45;&gt;Node2</title>
<path fill="none" stroke="midnightblue" d="M71.5,-508.25C71.5,-499.57 71.5,-490.63 71.5,-481.79"/>
<polygon fill="none" stroke="midnightblue" points="68,-508.31 71.5,-518.31 75,-508.31 68,-508.31"/>
</g>
<!-- Node4 -->
<g id="node4" class="node">
<title>Node4</title>
<g id="a_node4"><a xlink:href="classECS_1_1IComponent.html" target="_top" xlink:title="Base Interface class to create a new component.">
<polygon fill="white" stroke="black" points="20,-678.5 20,-768.5 123,-768.5 123,-678.5 20,-678.5"/>
<text text-anchor="middle" x="71.5" y="-756.5" font-family="Helvetica,sans-Serif" font-size="10.00">ECS::IComponent</text>
<polyline fill="none" stroke="black" points="20,-749.5 123,-749.5 "/>
<text text-anchor="middle" x="71.5" y="-737.5" font-family="Helvetica,sans-Serif" font-size="10.00"> </text>
<polyline fill="none" stroke="black" points="20,-730.5 123,-730.5 "/>
<text text-anchor="start" x="28" y="-718.5" font-family="Helvetica,sans-Serif" font-size="10.00">+ IComponent()</text>
<text text-anchor="start" x="28" y="-707.5" font-family="Helvetica,sans-Serif" font-size="10.00">+ ~IComponent()</text>
<text text-anchor="start" x="28" y="-696.5" font-family="Helvetica,sans-Serif" font-size="10.00">+ IComponent()</text>
<text text-anchor="start" x="28" y="-685.5" font-family="Helvetica,sans-Serif" font-size="10.00">+ operator=()</text>
</a>
</g>
</g>
<!-- Node4&#45;&gt;Node3 -->
<g id="edge3" class="edge">
<title>Node4&#45;&gt;Node3</title>
<path fill="none" stroke="midnightblue" d="M71.5,-668.11C71.5,-659.42 71.5,-650.38 71.5,-641.56"/>
<polygon fill="none" stroke="midnightblue" points="68,-668.12 71.5,-678.12 75,-668.12 68,-668.12"/>
</g>
<!-- Node5 -->
<g id="node5" class="node">
<title>Node5</title>
<g id="a_node5"><a xlink:href="classIXMLSerializable.html" target="_top" xlink:title=" ">
<polygon fill="white" stroke="black" points="9,-805.5 9,-917.5 134,-917.5 134,-805.5 9,-805.5"/>
<text text-anchor="middle" x="71.5" y="-905.5" font-family="Helvetica,sans-Serif" font-size="10.00">IXMLSerializable</text>
<polyline fill="none" stroke="black" points="9,-898.5 134,-898.5 "/>
<text text-anchor="middle" x="71.5" y="-886.5" font-family="Helvetica,sans-Serif" font-size="10.00"> </text>
<polyline fill="none" stroke="black" points="9,-879.5 134,-879.5 "/>
<text text-anchor="start" x="17" y="-867.5" font-family="Helvetica,sans-Serif" font-size="10.00">+ IXMLSerializable()</text>
<text text-anchor="start" x="17" y="-856.5" font-family="Helvetica,sans-Serif" font-size="10.00">+ ~IXMLSerializable()</text>
<text text-anchor="start" x="17" y="-845.5" font-family="Helvetica,sans-Serif" font-size="10.00">+ IXMLSerializable()</text>
<text text-anchor="start" x="17" y="-834.5" font-family="Helvetica,sans-Serif" font-size="10.00">+ operator=()</text>
<text text-anchor="start" x="17" y="-823.5" font-family="Helvetica,sans-Serif" font-size="10.00">+ operator&lt;&lt;()</text>
<text text-anchor="start" x="17" y="-812.5" font-family="Helvetica,sans-Serif" font-size="10.00">+ operator&lt;&lt;()</text>
</a>
</g>
</g>
<!-- Node5&#45;&gt;Node4 -->
<g id="edge4" class="edge">
<title>Node5&#45;&gt;Node4</title>
<path fill="none" stroke="midnightblue" d="M71.5,-795.08C71.5,-786.07 71.5,-777.01 71.5,-768.51"/>
<polygon fill="none" stroke="midnightblue" points="68,-795.18 71.5,-805.18 75,-795.18 68,-795.18"/>
</g>
</g>
</svg>
