<?xml version="1.0" encoding="UTF-8" standalone="no"?>
<!DOCTYPE svg PUBLIC "-//W3C//DTD SVG 1.1//EN"
 "http://www.w3.org/Graphics/SVG/1.1/DTD/svg11.dtd">
<!-- Generated by graphviz version 2.43.0 (0)
 -->
<!-- Title: Component::SquareCollider Pages: 1 -->
<svg width="435pt" height="887pt"
 viewBox="0.00 0.00 435.00 887.00" xmlns="http://www.w3.org/2000/svg" xmlns:xlink="http://www.w3.org/1999/xlink">
<g id="graph0" class="graph" transform="scale(1 1) rotate(0) translate(4 883)">
<title>Component::SquareCollider</title>
<polygon fill="white" stroke="transparent" points="-4,4 -4,-883 431,-883 431,4 -4,4"/>
<!-- Node1 -->
<g id="node1" class="node">
<title>Node1</title>
<g id="a_node1"><a xlink:title=" ">
<polygon fill="#bfbfbf" stroke="black" points="166.5,-0.5 166.5,-167.5 316.5,-167.5 316.5,-0.5 166.5,-0.5"/>
<text text-anchor="middle" x="241.5" y="-155.5" font-family="Helvetica,sans-Serif" font-size="10.00">Component::SquareCollider</text>
<polyline fill="none" stroke="black" points="166.5,-148.5 316.5,-148.5 "/>
<text text-anchor="middle" x="241.5" y="-136.5" font-family="Helvetica,sans-Serif" font-size="10.00"> </text>
<polyline fill="none" stroke="black" points="166.5,-129.5 316.5,-129.5 "/>
<text text-anchor="start" x="174.5" y="-117.5" font-family="Helvetica,sans-Serif" font-size="10.00">+ SquareCollider()</text>
<text text-anchor="start" x="174.5" y="-106.5" font-family="Helvetica,sans-Serif" font-size="10.00">+ ~SquareCollider()</text>
<text text-anchor="start" x="174.5" y="-95.5" font-family="Helvetica,sans-Serif" font-size="10.00">+ SquareCollider()</text>
<text text-anchor="start" x="174.5" y="-84.5" font-family="Helvetica,sans-Serif" font-size="10.00">+ operator=()</text>
<text text-anchor="start" x="174.5" y="-73.5" font-family="Helvetica,sans-Serif" font-size="10.00">+ IsColliding()</text>
<text text-anchor="start" x="174.5" y="-62.5" font-family="Helvetica,sans-Serif" font-size="10.00">+ IsCollidingAtPosition()</text>
<text text-anchor="start" x="174.5" y="-51.5" font-family="Helvetica,sans-Serif" font-size="10.00">+ CheckCollision()</text>
<text text-anchor="start" x="174.5" y="-40.5" font-family="Helvetica,sans-Serif" font-size="10.00">+ CheckCollision()</text>
<text text-anchor="start" x="174.5" y="-29.5" font-family="Helvetica,sans-Serif" font-size="10.00">+ DrawLines()</text>
<text text-anchor="start" x="174.5" y="-18.5" font-family="Helvetica,sans-Serif" font-size="10.00">+ GetCollision()</text>
<text text-anchor="start" x="174.5" y="-7.5" font-family="Helvetica,sans-Serif" font-size="10.00">and 6 more...</text>
</a>
</g>
</g>
<!-- Node2 -->
<g id="node2" class="node">
<title>Node2</title>
<g id="a_node2"><a xlink:href="classComponent_1_1Collider.html" target="_top" xlink:title="Collider base component class.">
<polygon fill="white" stroke="black" points="97.5,-215.5 97.5,-393.5 233.5,-393.5 233.5,-215.5 97.5,-215.5"/>
<text text-anchor="middle" x="165.5" y="-381.5" font-family="Helvetica,sans-Serif" font-size="10.00">Component::Collider</text>
<polyline fill="none" stroke="black" points="97.5,-374.5 233.5,-374.5 "/>
<text text-anchor="start" x="105.5" y="-362.5" font-family="Helvetica,sans-Serif" font-size="10.00"># _otherEntities</text>
<text text-anchor="start" x="105.5" y="-351.5" font-family="Helvetica,sans-Serif" font-size="10.00"># _collisionMask</text>
<polyline fill="none" stroke="black" points="97.5,-344.5 233.5,-344.5 "/>
<text text-anchor="start" x="105.5" y="-332.5" font-family="Helvetica,sans-Serif" font-size="10.00">+ Collider()</text>
<text text-anchor="start" x="105.5" y="-321.5" font-family="Helvetica,sans-Serif" font-size="10.00">+ ~Collider()</text>
<text text-anchor="start" x="105.5" y="-310.5" font-family="Helvetica,sans-Serif" font-size="10.00">+ Collider()</text>
<text text-anchor="start" x="105.5" y="-299.5" font-family="Helvetica,sans-Serif" font-size="10.00">+ operator=()</text>
<text text-anchor="start" x="105.5" y="-288.5" font-family="Helvetica,sans-Serif" font-size="10.00">+ IsColliding()</text>
<text text-anchor="start" x="105.5" y="-277.5" font-family="Helvetica,sans-Serif" font-size="10.00">+ IsCollidingAtPosition()</text>
<text text-anchor="start" x="105.5" y="-266.5" font-family="Helvetica,sans-Serif" font-size="10.00">+ CheckCollision()</text>
<text text-anchor="start" x="105.5" y="-255.5" font-family="Helvetica,sans-Serif" font-size="10.00">+ CheckCollision()</text>
<text text-anchor="start" x="105.5" y="-244.5" font-family="Helvetica,sans-Serif" font-size="10.00">+ DrawLines()</text>
<text text-anchor="start" x="105.5" y="-233.5" font-family="Helvetica,sans-Serif" font-size="10.00">+ GetCollision()</text>
<text text-anchor="start" x="105.5" y="-222.5" font-family="Helvetica,sans-Serif" font-size="10.00">+ GetCollisionPosition()</text>
</a>
</g>
</g>
<!-- Node2&#45;&gt;Node1 -->
<g id="edge1" class="edge">
<title>Node2&#45;&gt;Node1</title>
<path fill="none" stroke="midnightblue" d="M199.55,-205.59C203.97,-192.89 208.46,-179.98 212.78,-167.56"/>
<polygon fill="none" stroke="midnightblue" points="196.17,-204.66 196.19,-215.26 202.78,-206.96 196.17,-204.66"/>
</g>
<!-- Node3 -->
<g id="node3" class="node">
<title>Node3</title>
<g id="a_node3"><a xlink:href="classECS_1_1IComponent.html" target="_top" xlink:title="Base Interface class to create a new component.">
<polygon fill="white" stroke="black" points="17,-485.5 17,-575.5 120,-575.5 120,-485.5 17,-485.5"/>
<text text-anchor="middle" x="68.5" y="-563.5" font-family="Helvetica,sans-Serif" font-size="10.00">ECS::IComponent</text>
<polyline fill="none" stroke="black" points="17,-556.5 120,-556.5 "/>
<text text-anchor="middle" x="68.5" y="-544.5" font-family="Helvetica,sans-Serif" font-size="10.00"> </text>
<polyline fill="none" stroke="black" points="17,-537.5 120,-537.5 "/>
<text text-anchor="start" x="25" y="-525.5" font-family="Helvetica,sans-Serif" font-size="10.00">+ IComponent()</text>
<text text-anchor="start" x="25" y="-514.5" font-family="Helvetica,sans-Serif" font-size="10.00">+ ~IComponent()</text>
<text text-anchor="start" x="25" y="-503.5" font-family="Helvetica,sans-Serif" font-size="10.00">+ IComponent()</text>
<text text-anchor="start" x="25" y="-492.5" font-family="Helvetica,sans-Serif" font-size="10.00">+ operator=()</text>
</a>
</g>
</g>
<!-- Node3&#45;&gt;Node2 -->
<g id="edge2" class="edge">
<title>Node3&#45;&gt;Node2</title>
<path fill="none" stroke="midnightblue" d="M91.78,-475.75C102.42,-451.17 115.31,-421.4 127.31,-393.68"/>
<polygon fill="none" stroke="midnightblue" points="88.43,-474.68 87.66,-485.24 94.85,-477.46 88.43,-474.68"/>
</g>
<!-- Node4 -->
<g id="node4" class="node">
<title>Node4</title>
<g id="a_node4"><a xlink:href="classIXMLSerializable.html" target="_top" xlink:title=" ">
<polygon fill="white" stroke="black" points="0,-717 0,-829 125,-829 125,-717 0,-717"/>
<text text-anchor="middle" x="62.5" y="-817" font-family="Helvetica,sans-Serif" font-size="10.00">IXMLSerializable</text>
<polyline fill="none" stroke="black" points="0,-810 125,-810 "/>
<text text-anchor="middle" x="62.5" y="-798" font-family="Helvetica,sans-Serif" font-size="10.00"> </text>
<polyline fill="none" stroke="black" points="0,-791 125,-791 "/>
<text text-anchor="start" x="8" y="-779" font-family="Helvetica,sans-Serif" font-size="10.00">+ IXMLSerializable()</text>
<text text-anchor="start" x="8" y="-768" font-family="Helvetica,sans-Serif" font-size="10.00">+ ~IXMLSerializable()</text>
<text text-anchor="start" x="8" y="-757" font-family="Helvetica,sans-Serif" font-size="10.00">+ IXMLSerializable()</text>
<text text-anchor="start" x="8" y="-746" font-family="Helvetica,sans-Serif" font-size="10.00">+ operator=()</text>
<text text-anchor="start" x="8" y="-735" font-family="Helvetica,sans-Serif" font-size="10.00">+ operator&lt;&lt;()</text>
<text text-anchor="start" x="8" y="-724" font-family="Helvetica,sans-Serif" font-size="10.00">+ operator&lt;&lt;()</text>
</a>
</g>
</g>
<!-- Node4&#45;&gt;Node3 -->
<g id="edge3" class="edge">
<title>Node4&#45;&gt;Node3</title>
<path fill="none" stroke="midnightblue" d="M64.13,-706.77C65.17,-665.15 66.48,-612.32 67.4,-575.59"/>
<polygon fill="none" stroke="midnightblue" points="60.63,-706.74 63.88,-716.82 67.62,-706.91 60.63,-706.74"/>
</g>
<!-- Node5 -->
<g id="node5" class="node">
<title>Node5</title>
<g id="a_node5"><a xlink:href="classECS_1_1Entity.html" target="_top" xlink:title="Scene object containing components and an ID.">
<polygon fill="white" stroke="black" points="143.5,-441.5 143.5,-619.5 257.5,-619.5 257.5,-441.5 143.5,-441.5"/>
<text text-anchor="middle" x="200.5" y="-607.5" font-family="Helvetica,sans-Serif" font-size="10.00">ECS::Entity</text>
<polyline fill="none" stroke="black" points="143.5,-600.5 257.5,-600.5 "/>
<text text-anchor="start" x="151.5" y="-588.5" font-family="Helvetica,sans-Serif" font-size="10.00">&#45; _id</text>
<text text-anchor="start" x="151.5" y="-577.5" font-family="Helvetica,sans-Serif" font-size="10.00">&#45; _tag</text>
<polyline fill="none" stroke="black" points="143.5,-570.5 257.5,-570.5 "/>
<text text-anchor="start" x="151.5" y="-558.5" font-family="Helvetica,sans-Serif" font-size="10.00">+ Entity()</text>
<text text-anchor="start" x="151.5" y="-547.5" font-family="Helvetica,sans-Serif" font-size="10.00">+ Entity()</text>
<text text-anchor="start" x="151.5" y="-536.5" font-family="Helvetica,sans-Serif" font-size="10.00">+ ~Entity()</text>
<text text-anchor="start" x="151.5" y="-525.5" font-family="Helvetica,sans-Serif" font-size="10.00">+ Entity()</text>
<text text-anchor="start" x="151.5" y="-514.5" font-family="Helvetica,sans-Serif" font-size="10.00">+ operator=()</text>
<text text-anchor="start" x="151.5" y="-503.5" font-family="Helvetica,sans-Serif" font-size="10.00">+ GetComponent()</text>
<text text-anchor="start" x="151.5" y="-492.5" font-family="Helvetica,sans-Serif" font-size="10.00">+ OfType()</text>
<text text-anchor="start" x="151.5" y="-481.5" font-family="Helvetica,sans-Serif" font-size="10.00">+ GetComponents()</text>
<text text-anchor="start" x="151.5" y="-470.5" font-family="Helvetica,sans-Serif" font-size="10.00">+ AddComponent()</text>
<text text-anchor="start" x="151.5" y="-459.5" font-family="Helvetica,sans-Serif" font-size="10.00">+ AddComponent()</text>
<text text-anchor="start" x="151.5" y="-448.5" font-family="Helvetica,sans-Serif" font-size="10.00">and 9 more...</text>
</a>
</g>
</g>
<!-- Node5&#45;&gt;Node2 -->
<g id="edge4" class="edge">
<title>Node5&#45;&gt;Node2</title>
<path fill="none" stroke="#404040" d="M186.72,-441.29C184.9,-429.66 183.03,-417.67 181.18,-405.86"/>
<polygon fill="none" stroke="#404040" points="181.12,-405.48 176.24,-400.17 179.27,-393.63 184.15,-398.94 181.12,-405.48"/>
<text text-anchor="middle" x="214" y="-415" font-family="Helvetica,sans-Serif" font-size="10.00"> #_myEntity</text>
</g>
<!-- Node6 -->
<g id="node6" class="node">
<title>Node6</title>
<g id="a_node6"><a xlink:href="classECS_1_1EntityManager.html" target="_top" xlink:title="Class used to manipulate Entities (a.k.a A Scene)">
<polygon fill="white" stroke="black" points="143,-700.5 143,-845.5 258,-845.5 258,-700.5 143,-700.5"/>
<text text-anchor="middle" x="200.5" y="-833.5" font-family="Helvetica,sans-Serif" font-size="10.00">ECS::EntityManager</text>
<polyline fill="none" stroke="black" points="143,-826.5 258,-826.5 "/>
<text text-anchor="start" x="151" y="-814.5" font-family="Helvetica,sans-Serif" font-size="10.00">&#45; _available</text>
<text text-anchor="start" x="151" y="-803.5" font-family="Helvetica,sans-Serif" font-size="10.00">&#45; _max</text>
<text text-anchor="start" x="151" y="-792.5" font-family="Helvetica,sans-Serif" font-size="10.00">&#45; _entities</text>
<polyline fill="none" stroke="black" points="143,-785.5 258,-785.5 "/>
<text text-anchor="start" x="151" y="-773.5" font-family="Helvetica,sans-Serif" font-size="10.00">+ EntityManager()</text>
<text text-anchor="start" x="151" y="-762.5" font-family="Helvetica,sans-Serif" font-size="10.00">+ ~EntityManager()</text>
<text text-anchor="start" x="151" y="-751.5" font-family="Helvetica,sans-Serif" font-size="10.00">+ EntityManager()</text>
<text text-anchor="start" x="151" y="-740.5" font-family="Helvetica,sans-Serif" font-size="10.00">+ operator=()</text>
<text text-anchor="start" x="151" y="-729.5" font-family="Helvetica,sans-Serif" font-size="10.00">+ CreateEntity()</text>
<text text-anchor="start" x="151" y="-718.5" font-family="Helvetica,sans-Serif" font-size="10.00">+ DeleteEntity()</text>
<text text-anchor="start" x="151" y="-707.5" font-family="Helvetica,sans-Serif" font-size="10.00">+ GetEntities()</text>
</a>
</g>
</g>
<!-- Node6&#45;&gt;Node5 -->
<g id="edge5" class="edge">
<title>Node6&#45;&gt;Node5</title>
<path fill="none" stroke="#404040" d="M200.5,-700.49C200.5,-679.01 200.5,-655.04 200.5,-632.05"/>
<polygon fill="none" stroke="#404040" points="200.5,-631.77 196.5,-625.77 200.5,-619.77 204.5,-625.77 200.5,-631.77"/>
<text text-anchor="middle" x="242.5" y="-641" font-family="Helvetica,sans-Serif" font-size="10.00"> &#45;_entityManager</text>
</g>
<!-- Node7 -->
<g id="node7" class="node">
<title>Node7</title>
<g id="a_node7"><a xlink:href="classECS_1_1ComponentManager.html" target="_top" xlink:title="Class used to manipulate Components.">
<polygon fill="white" stroke="black" points="276,-667.5 276,-878.5 427,-878.5 427,-667.5 276,-667.5"/>
<text text-anchor="middle" x="351.5" y="-866.5" font-family="Helvetica,sans-Serif" font-size="10.00">ECS::ComponentManager</text>
<polyline fill="none" stroke="black" points="276,-859.5 427,-859.5 "/>
<text text-anchor="start" x="284" y="-847.5" font-family="Helvetica,sans-Serif" font-size="10.00">&#45; _bases</text>
<text text-anchor="start" x="284" y="-836.5" font-family="Helvetica,sans-Serif" font-size="10.00">&#45; _components</text>
<polyline fill="none" stroke="black" points="276,-829.5 427,-829.5 "/>
<text text-anchor="start" x="284" y="-817.5" font-family="Helvetica,sans-Serif" font-size="10.00">+ ComponentManager()</text>
<text text-anchor="start" x="284" y="-806.5" font-family="Helvetica,sans-Serif" font-size="10.00">+ ~ComponentManager()</text>
<text text-anchor="start" x="284" y="-795.5" font-family="Helvetica,sans-Serif" font-size="10.00">+ ComponentManager()</text>
<text text-anchor="start" x="284" y="-784.5" font-family="Helvetica,sans-Serif" font-size="10.00">+ operator=()</text>
<text text-anchor="start" x="284" y="-773.5" font-family="Helvetica,sans-Serif" font-size="10.00">+ GetComponent()</text>
<text text-anchor="start" x="284" y="-762.5" font-family="Helvetica,sans-Serif" font-size="10.00">+ OfType()</text>
<text text-anchor="start" x="284" y="-751.5" font-family="Helvetica,sans-Serif" font-size="10.00">+ GetComponents()</text>
<text text-anchor="start" x="284" y="-740.5" font-family="Helvetica,sans-Serif" font-size="10.00">+ AddComponent()</text>
<text text-anchor="start" x="284" y="-729.5" font-family="Helvetica,sans-Serif" font-size="10.00">+ AddComponent()</text>
<text text-anchor="start" x="284" y="-718.5" font-family="Helvetica,sans-Serif" font-size="10.00">+ RemoveComponent()</text>
<text text-anchor="start" x="284" y="-707.5" font-family="Helvetica,sans-Serif" font-size="10.00">+ HasComponent()</text>
<text text-anchor="start" x="284" y="-696.5" font-family="Helvetica,sans-Serif" font-size="10.00">+ HasComponent()</text>
<text text-anchor="start" x="284" y="-685.5" font-family="Helvetica,sans-Serif" font-size="10.00">+ HasComponents()</text>
<text text-anchor="start" x="284" y="-674.5" font-family="Helvetica,sans-Serif" font-size="10.00">+ GetComponentByName()</text>
</a>
</g>
</g>
<!-- Node7&#45;&gt;Node5 -->
<g id="edge6" class="edge">
<title>Node7&#45;&gt;Node5</title>
<path fill="none" stroke="#404040" d="M305.53,-667.46C300.13,-657.32 294.42,-647.34 288.5,-638 281.52,-626.99 273.53,-615.85 265.29,-605.14"/>
<polygon fill="none" stroke="#404040" points="265.08,-604.87 258.23,-602.62 257.66,-595.44 264.52,-597.68 265.08,-604.87"/>
<text text-anchor="middle" x="350.5" y="-641" font-family="Helvetica,sans-Serif" font-size="10.00"> &#45;_componentManager</text>
</g>
<!-- Node8 -->
<g id="node8" class="node">
<title>Node8</title>
<g id="a_node8"><a xlink:href="classRayLib_1_1Rectangle.html" target="_top" xlink:title="Rectangle encapsulation.">
<polygon fill="white" stroke="black" points="252,-232 252,-377 387,-377 387,-232 252,-232"/>
<text text-anchor="middle" x="319.5" y="-365" font-family="Helvetica,sans-Serif" font-size="10.00">RayLib::Rectangle</text>
<polyline fill="none" stroke="black" points="252,-358 387,-358 "/>
<text text-anchor="middle" x="319.5" y="-346" font-family="Helvetica,sans-Serif" font-size="10.00"> </text>
<polyline fill="none" stroke="black" points="252,-339 387,-339 "/>
<text text-anchor="start" x="260" y="-327" font-family="Helvetica,sans-Serif" font-size="10.00">+ Rectangle()</text>
<text text-anchor="start" x="260" y="-316" font-family="Helvetica,sans-Serif" font-size="10.00">+ Rectangle()</text>
<text text-anchor="start" x="260" y="-305" font-family="Helvetica,sans-Serif" font-size="10.00">+ Rectangle()</text>
<text text-anchor="start" x="260" y="-294" font-family="Helvetica,sans-Serif" font-size="10.00">+ operator=()</text>
<text text-anchor="start" x="260" y="-283" font-family="Helvetica,sans-Serif" font-size="10.00">+ operator=()</text>
<text text-anchor="start" x="260" y="-272" font-family="Helvetica,sans-Serif" font-size="10.00">+ GetRectangle()</text>
<text text-anchor="start" x="260" y="-261" font-family="Helvetica,sans-Serif" font-size="10.00">+ ~Rectangle()</text>
<text text-anchor="start" x="260" y="-250" font-family="Helvetica,sans-Serif" font-size="10.00">+ DrawRectangle()</text>
<text text-anchor="start" x="260" y="-239" font-family="Helvetica,sans-Serif" font-size="10.00">+ DrawRectangleLines()</text>
</a>
</g>
</g>
<!-- Node8&#45;&gt;Node1 -->
<g id="edge7" class="edge">
<title>Node8&#45;&gt;Node1</title>
<path fill="none" stroke="#404040" d="M293.96,-231.95C287.95,-215.11 281.45,-196.9 275.14,-179.23"/>
<polygon fill="none" stroke="#404040" points="275.06,-179.01 269.28,-174.7 271.02,-167.71 276.81,-172.01 275.06,-179.01"/>
<text text-anchor="middle" x="296" y="-189" font-family="Helvetica,sans-Serif" font-size="10.00"> &#45;_rect</text>
</g>
<!-- Node9 -->
<g id="node9" class="node">
<title>Node9</title>
<g id="a_node9"><a xlink:title=" ">
<polygon fill="white" stroke="#bfbfbf" points="287,-502 287,-559 352,-559 352,-502 287,-502"/>
<text text-anchor="middle" x="319.5" y="-547" font-family="Helvetica,sans-Serif" font-size="10.00">Rectangle</text>
<polyline fill="none" stroke="#bfbfbf" points="287,-540 352,-540 "/>
<text text-anchor="middle" x="319.5" y="-528" font-family="Helvetica,sans-Serif" font-size="10.00"> </text>
<polyline fill="none" stroke="#bfbfbf" points="287,-521 352,-521 "/>
<text text-anchor="middle" x="319.5" y="-509" font-family="Helvetica,sans-Serif" font-size="10.00"> </text>
</a>
</g>
</g>
<!-- Node9&#45;&gt;Node8 -->
<g id="edge8" class="edge">
<title>Node9&#45;&gt;Node8</title>
<path fill="none" stroke="midnightblue" d="M319.5,-491.55C319.5,-460.32 319.5,-415.16 319.5,-377.15"/>
<polygon fill="none" stroke="midnightblue" points="316,-491.58 319.5,-501.58 323,-491.58 316,-491.58"/>
</g>
</g>
</svg>
