<?xml version="1.0" encoding="UTF-8" standalone="no"?>
<!DOCTYPE svg PUBLIC "-//W3C//DTD SVG 1.1//EN"
 "http://www.w3.org/Graphics/SVG/1.1/DTD/svg11.dtd">
<!-- Generated by graphviz version 2.43.0 (0)
 -->
<!-- Title: RayLib::Shader Pages: 1 -->
<svg width="248pt" height="540pt"
 viewBox="0.00 0.00 248.00 540.00" xmlns="http://www.w3.org/2000/svg" xmlns:xlink="http://www.w3.org/1999/xlink">
<g id="graph0" class="graph" transform="scale(1 1) rotate(0) translate(4 536)">
<title>RayLib::Shader</title>
<polygon fill="white" stroke="transparent" points="-4,4 -4,-536 244,-536 244,4 -4,4"/>
<!-- Node1 -->
<g id="node1" class="node">
<title>Node1</title>
<g id="a_node1"><a xlink:title="Shader Encapsulation of the raylib structure Shader.">
<polygon fill="#bfbfbf" stroke="black" points="76.5,-226.5 76.5,-404.5 170.5,-404.5 170.5,-226.5 76.5,-226.5"/>
<text text-anchor="middle" x="123.5" y="-392.5" font-family="Helvetica,sans-Serif" font-size="10.00">RayLib::Shader</text>
<polyline fill="none" stroke="black" points="76.5,-385.5 170.5,-385.5 "/>
<text text-anchor="start" x="84.5" y="-373.5" font-family="Helvetica,sans-Serif" font-size="10.00"># _shader</text>
<polyline fill="none" stroke="black" points="76.5,-366.5 170.5,-366.5 "/>
<text text-anchor="start" x="84.5" y="-354.5" font-family="Helvetica,sans-Serif" font-size="10.00">+ Shader()</text>
<text text-anchor="start" x="84.5" y="-343.5" font-family="Helvetica,sans-Serif" font-size="10.00">+ Shader()</text>
<text text-anchor="start" x="84.5" y="-332.5" font-family="Helvetica,sans-Serif" font-size="10.00">+ Shader()</text>
<text text-anchor="start" x="84.5" y="-321.5" font-family="Helvetica,sans-Serif" font-size="10.00">+ Shader()</text>
<text text-anchor="start" x="84.5" y="-310.5" font-family="Helvetica,sans-Serif" font-size="10.00">+ ~Shader()</text>
<text text-anchor="start" x="84.5" y="-299.5" font-family="Helvetica,sans-Serif" font-size="10.00">+ GetShader()</text>
<text text-anchor="start" x="84.5" y="-288.5" font-family="Helvetica,sans-Serif" font-size="10.00">+ GetLocation()</text>
<text text-anchor="start" x="84.5" y="-277.5" font-family="Helvetica,sans-Serif" font-size="10.00">+ SetValue()</text>
<text text-anchor="start" x="84.5" y="-266.5" font-family="Helvetica,sans-Serif" font-size="10.00">+ SetLoc()</text>
<text text-anchor="start" x="84.5" y="-255.5" font-family="Helvetica,sans-Serif" font-size="10.00">+ Unload()</text>
<text text-anchor="start" x="84.5" y="-244.5" font-family="Helvetica,sans-Serif" font-size="10.00">+ BeginMode()</text>
<text text-anchor="start" x="84.5" y="-233.5" font-family="Helvetica,sans-Serif" font-size="10.00">+ EndMode()</text>
</a>
</g>
</g>
<!-- Node3 -->
<g id="node3" class="node">
<title>Node3</title>
<g id="a_node3"><a xlink:href="classAmbientShader.html" target="_top" xlink:title=" ">
<polygon fill="white" stroke="black" points="0,-61 0,-129 119,-129 119,-61 0,-61"/>
<text text-anchor="middle" x="59.5" y="-117" font-family="Helvetica,sans-Serif" font-size="10.00">AmbientShader</text>
<polyline fill="none" stroke="black" points="0,-110 119,-110 "/>
<text text-anchor="middle" x="59.5" y="-98" font-family="Helvetica,sans-Serif" font-size="10.00"> </text>
<polyline fill="none" stroke="black" points="0,-91 119,-91 "/>
<text text-anchor="start" x="8" y="-79" font-family="Helvetica,sans-Serif" font-size="10.00">+ AmbientShader()</text>
<text text-anchor="start" x="8" y="-68" font-family="Helvetica,sans-Serif" font-size="10.00">+ ~AmbientShader()</text>
</a>
</g>
</g>
<!-- Node1&#45;&gt;Node3 -->
<g id="edge2" class="edge">
<title>Node1&#45;&gt;Node3</title>
<path fill="none" stroke="midnightblue" d="M94.81,-216.57C85.62,-185.17 76.05,-152.52 69.2,-129.13"/>
<polygon fill="none" stroke="midnightblue" points="91.48,-217.64 97.65,-226.26 98.2,-215.68 91.48,-217.64"/>
</g>
<!-- Node4 -->
<g id="node4" class="node">
<title>Node4</title>
<g id="a_node4"><a xlink:href="classBasicLight.html" target="_top" xlink:title=" ">
<polygon fill="white" stroke="black" points="137,-0.5 137,-189.5 240,-189.5 240,-0.5 137,-0.5"/>
<text text-anchor="middle" x="188.5" y="-177.5" font-family="Helvetica,sans-Serif" font-size="10.00">BasicLight</text>
<polyline fill="none" stroke="black" points="137,-170.5 240,-170.5 "/>
<text text-anchor="start" x="145" y="-158.5" font-family="Helvetica,sans-Serif" font-size="10.00">&#45; _type</text>
<text text-anchor="start" x="145" y="-147.5" font-family="Helvetica,sans-Serif" font-size="10.00">&#45; _position</text>
<text text-anchor="start" x="145" y="-136.5" font-family="Helvetica,sans-Serif" font-size="10.00">&#45; _target</text>
<text text-anchor="start" x="145" y="-125.5" font-family="Helvetica,sans-Serif" font-size="10.00">&#45; _color</text>
<text text-anchor="start" x="145" y="-114.5" font-family="Helvetica,sans-Serif" font-size="10.00">&#45; _typeLoc</text>
<text text-anchor="start" x="145" y="-103.5" font-family="Helvetica,sans-Serif" font-size="10.00">&#45; _posLoc</text>
<text text-anchor="start" x="145" y="-92.5" font-family="Helvetica,sans-Serif" font-size="10.00">&#45; _targetLoc</text>
<text text-anchor="start" x="145" y="-81.5" font-family="Helvetica,sans-Serif" font-size="10.00">&#45; _colorLoc</text>
<polyline fill="none" stroke="black" points="137,-74.5 240,-74.5 "/>
<text text-anchor="start" x="145" y="-62.5" font-family="Helvetica,sans-Serif" font-size="10.00">+ BasicLight()</text>
<text text-anchor="start" x="145" y="-51.5" font-family="Helvetica,sans-Serif" font-size="10.00">+ ~BasicLight()</text>
<text text-anchor="start" x="145" y="-40.5" font-family="Helvetica,sans-Serif" font-size="10.00">+ BasicLight()</text>
<text text-anchor="start" x="145" y="-29.5" font-family="Helvetica,sans-Serif" font-size="10.00">+ operator=()</text>
<text text-anchor="start" x="145" y="-18.5" font-family="Helvetica,sans-Serif" font-size="10.00">+ UpdateValues()</text>
<text text-anchor="start" x="145" y="-7.5" font-family="Helvetica,sans-Serif" font-size="10.00">+ GetPosition()</text>
</a>
</g>
</g>
<!-- Node1&#45;&gt;Node4 -->
<g id="edge3" class="edge">
<title>Node1&#45;&gt;Node4</title>
<path fill="none" stroke="midnightblue" d="M152.63,-216.57C155.3,-207.59 158.01,-198.51 160.67,-189.57"/>
<polygon fill="none" stroke="midnightblue" points="149.25,-215.67 149.75,-226.26 155.96,-217.67 149.25,-215.67"/>
</g>
<!-- Node2 -->
<g id="node2" class="node">
<title>Node2</title>
<g id="a_node2"><a xlink:href="classRayLib_1_1IAsset.html" target="_top" xlink:title=" ">
<polygon fill="white" stroke="black" points="80.5,-441.5 80.5,-531.5 166.5,-531.5 166.5,-441.5 80.5,-441.5"/>
<text text-anchor="middle" x="123.5" y="-519.5" font-family="Helvetica,sans-Serif" font-size="10.00">RayLib::IAsset</text>
<polyline fill="none" stroke="black" points="80.5,-512.5 166.5,-512.5 "/>
<text text-anchor="middle" x="123.5" y="-500.5" font-family="Helvetica,sans-Serif" font-size="10.00"> </text>
<polyline fill="none" stroke="black" points="80.5,-493.5 166.5,-493.5 "/>
<text text-anchor="start" x="88.5" y="-481.5" font-family="Helvetica,sans-Serif" font-size="10.00">+ IAsset()</text>
<text text-anchor="start" x="88.5" y="-470.5" font-family="Helvetica,sans-Serif" font-size="10.00">+ ~IAsset()</text>
<text text-anchor="start" x="88.5" y="-459.5" font-family="Helvetica,sans-Serif" font-size="10.00">+ IAsset()</text>
<text text-anchor="start" x="88.5" y="-448.5" font-family="Helvetica,sans-Serif" font-size="10.00">+ operator=()</text>
</a>
</g>
</g>
<!-- Node2&#45;&gt;Node1 -->
<g id="edge1" class="edge">
<title>Node2&#45;&gt;Node1</title>
<path fill="none" stroke="midnightblue" d="M123.5,-431.06C123.5,-422.63 123.5,-413.73 123.5,-404.78"/>
<polygon fill="none" stroke="midnightblue" points="120,-431.1 123.5,-441.1 127,-431.1 120,-431.1"/>
</g>
</g>
</svg>
