<?xml version="1.0" encoding="UTF-8" standalone="no"?>
<!DOCTYPE svg PUBLIC "-//W3C//DTD SVG 1.1//EN"
 "http://www.w3.org/Graphics/SVG/1.1/DTD/svg11.dtd">
<!-- Generated by graphviz version 2.43.0 (0)
 -->
<!-- Title: Component::PlayerInputs Pages: 1 -->
<svg width="681pt" height="1509pt"
 viewBox="0.00 0.00 681.00 1509.00" xmlns="http://www.w3.org/2000/svg" xmlns:xlink="http://www.w3.org/1999/xlink">
<g id="graph0" class="graph" transform="scale(1 1) rotate(0) translate(4 1505)">
<title>Component::PlayerInputs</title>
<polygon fill="white" stroke="transparent" points="-4,4 -4,-1505 677,-1505 677,4 -4,4"/>
<!-- Node1 -->
<g id="node1" class="node">
<title>Node1</title>
<g id="a_node1"><a xlink:title=" ">
<polygon fill="#bfbfbf" stroke="black" points="358,-0.5 358,-156.5 498,-156.5 498,-0.5 358,-0.5"/>
<text text-anchor="middle" x="428" y="-144.5" font-family="Helvetica,sans-Serif" font-size="10.00">Component::PlayerInputs</text>
<polyline fill="none" stroke="black" points="358,-137.5 498,-137.5 "/>
<text text-anchor="start" x="366" y="-125.5" font-family="Helvetica,sans-Serif" font-size="10.00">&#45; _window</text>
<text text-anchor="start" x="366" y="-114.5" font-family="Helvetica,sans-Serif" font-size="10.00">&#45; _bombKey</text>
<polyline fill="none" stroke="black" points="358,-107.5 498,-107.5 "/>
<text text-anchor="start" x="366" y="-95.5" font-family="Helvetica,sans-Serif" font-size="10.00">+ PlayerInputs()</text>
<text text-anchor="start" x="366" y="-84.5" font-family="Helvetica,sans-Serif" font-size="10.00">+ ~PlayerInputs()</text>
<text text-anchor="start" x="366" y="-73.5" font-family="Helvetica,sans-Serif" font-size="10.00">+ PlayerInputs()</text>
<text text-anchor="start" x="366" y="-62.5" font-family="Helvetica,sans-Serif" font-size="10.00">+ operator=()</text>
<text text-anchor="start" x="366" y="-51.5" font-family="Helvetica,sans-Serif" font-size="10.00">+ Update()</text>
<text text-anchor="start" x="366" y="-40.5" font-family="Helvetica,sans-Serif" font-size="10.00">+ FixedUpdate()</text>
<text text-anchor="start" x="366" y="-29.5" font-family="Helvetica,sans-Serif" font-size="10.00">+ LateUpdate()</text>
<text text-anchor="start" x="366" y="-18.5" font-family="Helvetica,sans-Serif" font-size="10.00">+ operator&lt;&lt;()</text>
<text text-anchor="start" x="366" y="-7.5" font-family="Helvetica,sans-Serif" font-size="10.00">+ operator&lt;&lt;()</text>
</a>
</g>
</g>
<!-- Node2 -->
<g id="node2" class="node">
<title>Node2</title>
<g id="a_node2"><a xlink:href="classComponent_1_1AController.html" target="_top" xlink:title=" ">
<polygon fill="white" stroke="black" points="182,-194.5 182,-350.5 316,-350.5 316,-194.5 182,-194.5"/>
<text text-anchor="middle" x="249" y="-338.5" font-family="Helvetica,sans-Serif" font-size="10.00">Component::AController</text>
<polyline fill="none" stroke="black" points="182,-331.5 316,-331.5 "/>
<text text-anchor="middle" x="249" y="-319.5" font-family="Helvetica,sans-Serif" font-size="10.00"> </text>
<polyline fill="none" stroke="black" points="182,-312.5 316,-312.5 "/>
<text text-anchor="start" x="190" y="-300.5" font-family="Helvetica,sans-Serif" font-size="10.00">+ AController()</text>
<text text-anchor="start" x="190" y="-289.5" font-family="Helvetica,sans-Serif" font-size="10.00">+ ~AController()</text>
<text text-anchor="start" x="190" y="-278.5" font-family="Helvetica,sans-Serif" font-size="10.00">+ AController()</text>
<text text-anchor="start" x="190" y="-267.5" font-family="Helvetica,sans-Serif" font-size="10.00">+ operator=()</text>
<text text-anchor="start" x="190" y="-256.5" font-family="Helvetica,sans-Serif" font-size="10.00">+ GetMovement()</text>
<text text-anchor="start" x="190" y="-245.5" font-family="Helvetica,sans-Serif" font-size="10.00">+ GetDropBomb()</text>
<text text-anchor="start" x="190" y="-234.5" font-family="Helvetica,sans-Serif" font-size="10.00">+ GetAController()</text>
<text text-anchor="start" x="190" y="-223.5" font-family="Helvetica,sans-Serif" font-size="10.00">+ Update()</text>
<text text-anchor="start" x="190" y="-212.5" font-family="Helvetica,sans-Serif" font-size="10.00">+ FixedUpdate()</text>
<text text-anchor="start" x="190" y="-201.5" font-family="Helvetica,sans-Serif" font-size="10.00">+ LateUpdate()</text>
</a>
</g>
</g>
<!-- Node2&#45;&gt;Node1 -->
<g id="edge1" class="edge">
<title>Node2&#45;&gt;Node1</title>
<path fill="none" stroke="midnightblue" d="M323.23,-191.88C334.66,-179.62 346.43,-166.99 357.77,-154.83"/>
<polygon fill="none" stroke="midnightblue" points="320.42,-189.76 316.16,-199.46 325.54,-194.53 320.42,-189.76"/>
</g>
<!-- Node3 -->
<g id="node3" class="node">
<title>Node3</title>
<g id="a_node3"><a xlink:href="classComponent_1_1IBehaviour.html" target="_top" xlink:title="IBehaviour base component (CF Monobehaviour class in Unity)">
<polygon fill="white" stroke="black" points="107.5,-930 107.5,-1053 238.5,-1053 238.5,-930 107.5,-930"/>
<text text-anchor="middle" x="173" y="-1041" font-family="Helvetica,sans-Serif" font-size="10.00">Component::IBehaviour</text>
<polyline fill="none" stroke="black" points="107.5,-1034 238.5,-1034 "/>
<text text-anchor="middle" x="173" y="-1022" font-family="Helvetica,sans-Serif" font-size="10.00"> </text>
<polyline fill="none" stroke="black" points="107.5,-1015 238.5,-1015 "/>
<text text-anchor="start" x="115.5" y="-1003" font-family="Helvetica,sans-Serif" font-size="10.00">+ IBehaviour()</text>
<text text-anchor="start" x="115.5" y="-992" font-family="Helvetica,sans-Serif" font-size="10.00">+ ~IBehaviour()</text>
<text text-anchor="start" x="115.5" y="-981" font-family="Helvetica,sans-Serif" font-size="10.00">+ IBehaviour()</text>
<text text-anchor="start" x="115.5" y="-970" font-family="Helvetica,sans-Serif" font-size="10.00">+ operator=()</text>
<text text-anchor="start" x="115.5" y="-959" font-family="Helvetica,sans-Serif" font-size="10.00">+ Update()</text>
<text text-anchor="start" x="115.5" y="-948" font-family="Helvetica,sans-Serif" font-size="10.00">+ FixedUpdate()</text>
<text text-anchor="start" x="115.5" y="-937" font-family="Helvetica,sans-Serif" font-size="10.00">+ LateUpdate()</text>
</a>
</g>
</g>
<!-- Node3&#45;&gt;Node2 -->
<g id="edge2" class="edge">
<title>Node3&#45;&gt;Node2</title>
<path fill="none" stroke="midnightblue" d="M179.54,-919.8C189.96,-808.64 211.38,-586.25 233,-398 234.77,-382.63 236.78,-366.21 238.78,-350.5"/>
<polygon fill="none" stroke="midnightblue" points="176.04,-919.6 178.6,-929.88 183.01,-920.25 176.04,-919.6"/>
</g>
<!-- Node10 -->
<g id="node10" class="node">
<title>Node10</title>
<g id="a_node10"><a xlink:href="classComponent_1_1Movement.html" target="_top" xlink:title="Behaviour script responsible for moving an entity.">
<polygon fill="white" stroke="black" points="54.5,-415 54.5,-659 185.5,-659 185.5,-415 54.5,-415"/>
<text text-anchor="middle" x="120" y="-647" font-family="Helvetica,sans-Serif" font-size="10.00">Component::Movement</text>
<polyline fill="none" stroke="black" points="54.5,-640 185.5,-640 "/>
<text text-anchor="start" x="62.5" y="-628" font-family="Helvetica,sans-Serif" font-size="10.00">&#45; _colliding</text>
<text text-anchor="start" x="62.5" y="-617" font-family="Helvetica,sans-Serif" font-size="10.00">&#45; _speed</text>
<text text-anchor="start" x="62.5" y="-606" font-family="Helvetica,sans-Serif" font-size="10.00">&#45; _startSpeed</text>
<text text-anchor="start" x="62.5" y="-595" font-family="Helvetica,sans-Serif" font-size="10.00">&#45; _bonusTime</text>
<text text-anchor="start" x="62.5" y="-584" font-family="Helvetica,sans-Serif" font-size="10.00">&#45; _maxSpeed</text>
<text text-anchor="start" x="62.5" y="-573" font-family="Helvetica,sans-Serif" font-size="10.00">&#45; _collisionMask</text>
<polyline fill="none" stroke="black" points="54.5,-566 185.5,-566 "/>
<text text-anchor="start" x="62.5" y="-554" font-family="Helvetica,sans-Serif" font-size="10.00">+ Movement()</text>
<text text-anchor="start" x="62.5" y="-543" font-family="Helvetica,sans-Serif" font-size="10.00">+ ~Movement()</text>
<text text-anchor="start" x="62.5" y="-532" font-family="Helvetica,sans-Serif" font-size="10.00">+ Movement()</text>
<text text-anchor="start" x="62.5" y="-521" font-family="Helvetica,sans-Serif" font-size="10.00">+ operator=()</text>
<text text-anchor="start" x="62.5" y="-510" font-family="Helvetica,sans-Serif" font-size="10.00">+ Update()</text>
<text text-anchor="start" x="62.5" y="-499" font-family="Helvetica,sans-Serif" font-size="10.00">+ FixedUpdate()</text>
<text text-anchor="start" x="62.5" y="-488" font-family="Helvetica,sans-Serif" font-size="10.00">+ LateUpdate()</text>
<text text-anchor="start" x="62.5" y="-477" font-family="Helvetica,sans-Serif" font-size="10.00">+ GetBonusTime()</text>
<text text-anchor="start" x="62.5" y="-466" font-family="Helvetica,sans-Serif" font-size="10.00">+ SlipperyCollisions()</text>
<text text-anchor="start" x="62.5" y="-455" font-family="Helvetica,sans-Serif" font-size="10.00">+ CheckCollidersPos()</text>
<text text-anchor="start" x="62.5" y="-444" font-family="Helvetica,sans-Serif" font-size="10.00">+ BoostSpeed()</text>
<text text-anchor="start" x="62.5" y="-433" font-family="Helvetica,sans-Serif" font-size="10.00">+ operator&lt;&lt;()</text>
<text text-anchor="start" x="62.5" y="-422" font-family="Helvetica,sans-Serif" font-size="10.00">+ operator&lt;&lt;()</text>
</a>
</g>
</g>
<!-- Node3&#45;&gt;Node10 -->
<g id="edge11" class="edge">
<title>Node3&#45;&gt;Node10</title>
<path fill="none" stroke="midnightblue" d="M164.74,-919.97C156.59,-850.42 143.98,-742.74 134.22,-659.42"/>
<polygon fill="none" stroke="midnightblue" points="161.27,-920.42 165.91,-929.94 168.22,-919.6 161.27,-920.42"/>
</g>
<!-- Node4 -->
<g id="node4" class="node">
<title>Node4</title>
<g id="a_node4"><a xlink:href="classECS_1_1IComponent.html" target="_top" xlink:title="Base Interface class to create a new component.">
<polygon fill="white" stroke="black" points="121.5,-1200 121.5,-1290 224.5,-1290 224.5,-1200 121.5,-1200"/>
<text text-anchor="middle" x="173" y="-1278" font-family="Helvetica,sans-Serif" font-size="10.00">ECS::IComponent</text>
<polyline fill="none" stroke="black" points="121.5,-1271 224.5,-1271 "/>
<text text-anchor="middle" x="173" y="-1259" font-family="Helvetica,sans-Serif" font-size="10.00"> </text>
<polyline fill="none" stroke="black" points="121.5,-1252 224.5,-1252 "/>
<text text-anchor="start" x="129.5" y="-1240" font-family="Helvetica,sans-Serif" font-size="10.00">+ IComponent()</text>
<text text-anchor="start" x="129.5" y="-1229" font-family="Helvetica,sans-Serif" font-size="10.00">+ ~IComponent()</text>
<text text-anchor="start" x="129.5" y="-1218" font-family="Helvetica,sans-Serif" font-size="10.00">+ IComponent()</text>
<text text-anchor="start" x="129.5" y="-1207" font-family="Helvetica,sans-Serif" font-size="10.00">+ operator=()</text>
</a>
</g>
</g>
<!-- Node4&#45;&gt;Node3 -->
<g id="edge3" class="edge">
<title>Node4&#45;&gt;Node3</title>
<path fill="none" stroke="midnightblue" d="M173,-1189.75C173,-1149.55 173,-1094.73 173,-1053.09"/>
<polygon fill="none" stroke="midnightblue" points="169.5,-1189.9 173,-1199.9 176.5,-1189.9 169.5,-1189.9"/>
</g>
<!-- Node6 -->
<g id="node6" class="node">
<title>Node6</title>
<g id="a_node6"><a xlink:href="classComponent_1_1DropBomb.html" target="_top" xlink:title="Behaviour for players or AI allowing to drop a bomb upon pressing a key.">
<polygon fill="white" stroke="black" points="242.5,-398.5 242.5,-675.5 399.5,-675.5 399.5,-398.5 242.5,-398.5"/>
<text text-anchor="middle" x="321" y="-663.5" font-family="Helvetica,sans-Serif" font-size="10.00">Component::DropBomb</text>
<polyline fill="none" stroke="black" points="242.5,-656.5 399.5,-656.5 "/>
<text text-anchor="start" x="250.5" y="-644.5" font-family="Helvetica,sans-Serif" font-size="10.00">+ timeToDrop</text>
<text text-anchor="start" x="250.5" y="-633.5" font-family="Helvetica,sans-Serif" font-size="10.00">&#45; _coordinator</text>
<text text-anchor="start" x="250.5" y="-622.5" font-family="Helvetica,sans-Serif" font-size="10.00">&#45; _window</text>
<text text-anchor="start" x="250.5" y="-611.5" font-family="Helvetica,sans-Serif" font-size="10.00">&#45; _bombNumber</text>
<text text-anchor="start" x="250.5" y="-600.5" font-family="Helvetica,sans-Serif" font-size="10.00">&#45; _defaultBombNumber</text>
<text text-anchor="start" x="250.5" y="-589.5" font-family="Helvetica,sans-Serif" font-size="10.00">&#45; _bonusTimeRange</text>
<text text-anchor="start" x="250.5" y="-578.5" font-family="Helvetica,sans-Serif" font-size="10.00">&#45; _bonusTimeCoolDown</text>
<text text-anchor="start" x="250.5" y="-567.5" font-family="Helvetica,sans-Serif" font-size="10.00">&#45; _defaultDropDelay</text>
<text text-anchor="start" x="250.5" y="-556.5" font-family="Helvetica,sans-Serif" font-size="10.00">&#45; _dropDelay</text>
<text text-anchor="start" x="250.5" y="-545.5" font-family="Helvetica,sans-Serif" font-size="10.00">&#45; _minDelay</text>
<text text-anchor="start" x="250.5" y="-534.5" font-family="Helvetica,sans-Serif" font-size="10.00">&#45; _maxBombs</text>
<polyline fill="none" stroke="black" points="242.5,-527.5 399.5,-527.5 "/>
<text text-anchor="start" x="250.5" y="-515.5" font-family="Helvetica,sans-Serif" font-size="10.00">+ DropBomb()</text>
<text text-anchor="start" x="250.5" y="-504.5" font-family="Helvetica,sans-Serif" font-size="10.00">+ ~DropBomb()</text>
<text text-anchor="start" x="250.5" y="-493.5" font-family="Helvetica,sans-Serif" font-size="10.00">+ DropBomb()</text>
<text text-anchor="start" x="250.5" y="-482.5" font-family="Helvetica,sans-Serif" font-size="10.00">+ operator=()</text>
<text text-anchor="start" x="250.5" y="-471.5" font-family="Helvetica,sans-Serif" font-size="10.00">+ InstantiateBomb()</text>
<text text-anchor="start" x="250.5" y="-460.5" font-family="Helvetica,sans-Serif" font-size="10.00">+ CreateBomb()</text>
<text text-anchor="start" x="250.5" y="-449.5" font-family="Helvetica,sans-Serif" font-size="10.00">+ GetBombNumber()</text>
<text text-anchor="start" x="250.5" y="-438.5" font-family="Helvetica,sans-Serif" font-size="10.00">+ GetBonusTimeRange()</text>
<text text-anchor="start" x="250.5" y="-427.5" font-family="Helvetica,sans-Serif" font-size="10.00">+ GetBonusTimeCoolDown()</text>
<text text-anchor="start" x="250.5" y="-416.5" font-family="Helvetica,sans-Serif" font-size="10.00">+ BoostBombNumber()</text>
<text text-anchor="start" x="250.5" y="-405.5" font-family="Helvetica,sans-Serif" font-size="10.00">and 6 more...</text>
</a>
</g>
</g>
<!-- Node4&#45;&gt;Node6 -->
<g id="edge6" class="edge">
<title>Node4&#45;&gt;Node6</title>
<path fill="none" stroke="midnightblue" d="M202.64,-1190.93C218.56,-1159.86 236.94,-1119.3 247,-1081 290.87,-914 251.9,-864.19 281,-694 282.04,-687.94 283.19,-681.76 284.43,-675.54"/>
<polygon fill="none" stroke="midnightblue" points="199.51,-1189.36 198,-1199.85 205.72,-1192.59 199.51,-1189.36"/>
</g>
<!-- Node5 -->
<g id="node5" class="node">
<title>Node5</title>
<g id="a_node5"><a xlink:href="classIXMLSerializable.html" target="_top" xlink:title=" ">
<polygon fill="white" stroke="black" points="110.5,-1388.5 110.5,-1500.5 235.5,-1500.5 235.5,-1388.5 110.5,-1388.5"/>
<text text-anchor="middle" x="173" y="-1488.5" font-family="Helvetica,sans-Serif" font-size="10.00">IXMLSerializable</text>
<polyline fill="none" stroke="black" points="110.5,-1481.5 235.5,-1481.5 "/>
<text text-anchor="middle" x="173" y="-1469.5" font-family="Helvetica,sans-Serif" font-size="10.00"> </text>
<polyline fill="none" stroke="black" points="110.5,-1462.5 235.5,-1462.5 "/>
<text text-anchor="start" x="118.5" y="-1450.5" font-family="Helvetica,sans-Serif" font-size="10.00">+ IXMLSerializable()</text>
<text text-anchor="start" x="118.5" y="-1439.5" font-family="Helvetica,sans-Serif" font-size="10.00">+ ~IXMLSerializable()</text>
<text text-anchor="start" x="118.5" y="-1428.5" font-family="Helvetica,sans-Serif" font-size="10.00">+ IXMLSerializable()</text>
<text text-anchor="start" x="118.5" y="-1417.5" font-family="Helvetica,sans-Serif" font-size="10.00">+ operator=()</text>
<text text-anchor="start" x="118.5" y="-1406.5" font-family="Helvetica,sans-Serif" font-size="10.00">+ operator&lt;&lt;()</text>
<text text-anchor="start" x="118.5" y="-1395.5" font-family="Helvetica,sans-Serif" font-size="10.00">+ operator&lt;&lt;()</text>
</a>
</g>
</g>
<!-- Node5&#45;&gt;Node4 -->
<g id="edge4" class="edge">
<title>Node5&#45;&gt;Node4</title>
<path fill="none" stroke="midnightblue" d="M173,-1378.44C173,-1349.47 173,-1316.1 173,-1290.11"/>
<polygon fill="none" stroke="midnightblue" points="169.5,-1378.49 173,-1388.49 176.5,-1378.49 169.5,-1378.49"/>
</g>
<!-- Node11 -->
<g id="node11" class="node">
<title>Node11</title>
<g id="a_node11"><a xlink:href="classRayLib_1_1Vector3.html" target="_top" xlink:title="Vector3 encapsulation.">
<polygon fill="white" stroke="black" points="0,-1161.5 0,-1328.5 92,-1328.5 92,-1161.5 0,-1161.5"/>
<text text-anchor="middle" x="46" y="-1316.5" font-family="Helvetica,sans-Serif" font-size="10.00">RayLib::Vector3</text>
<polyline fill="none" stroke="black" points="0,-1309.5 92,-1309.5 "/>
<text text-anchor="middle" x="46" y="-1297.5" font-family="Helvetica,sans-Serif" font-size="10.00"> </text>
<polyline fill="none" stroke="black" points="0,-1290.5 92,-1290.5 "/>
<text text-anchor="start" x="8" y="-1278.5" font-family="Helvetica,sans-Serif" font-size="10.00">+ Vector3()</text>
<text text-anchor="start" x="8" y="-1267.5" font-family="Helvetica,sans-Serif" font-size="10.00">+ Vector3()</text>
<text text-anchor="start" x="8" y="-1256.5" font-family="Helvetica,sans-Serif" font-size="10.00">+ Vector3()</text>
<text text-anchor="start" x="8" y="-1245.5" font-family="Helvetica,sans-Serif" font-size="10.00">+ Vector3()</text>
<text text-anchor="start" x="8" y="-1234.5" font-family="Helvetica,sans-Serif" font-size="10.00">+ Vector3()</text>
<text text-anchor="start" x="8" y="-1223.5" font-family="Helvetica,sans-Serif" font-size="10.00">+ Vector3()</text>
<text text-anchor="start" x="8" y="-1212.5" font-family="Helvetica,sans-Serif" font-size="10.00">+ ~Vector3()</text>
<text text-anchor="start" x="8" y="-1201.5" font-family="Helvetica,sans-Serif" font-size="10.00">+ getVector3()</text>
<text text-anchor="start" x="8" y="-1190.5" font-family="Helvetica,sans-Serif" font-size="10.00">+ operator=()</text>
<text text-anchor="start" x="8" y="-1179.5" font-family="Helvetica,sans-Serif" font-size="10.00">+ operator*=()</text>
<text text-anchor="start" x="8" y="-1168.5" font-family="Helvetica,sans-Serif" font-size="10.00">and 13 more...</text>
</a>
</g>
</g>
<!-- Node5&#45;&gt;Node11 -->
<g id="edge14" class="edge">
<title>Node5&#45;&gt;Node11</title>
<path fill="none" stroke="midnightblue" d="M130.82,-1379.93C124.48,-1370.26 118.04,-1360.38 112,-1351 105.53,-1340.95 98.76,-1330.33 92.13,-1319.85"/>
<polygon fill="none" stroke="midnightblue" points="127.94,-1381.92 136.35,-1388.36 133.79,-1378.08 127.94,-1381.92"/>
</g>
<!-- Node14 -->
<g id="node14" class="node">
<title>Node14</title>
<g id="a_node14"><a xlink:href="classRayLib_1_1Vector2.html" target="_top" xlink:title=" ">
<polygon fill="white" stroke="black" points="545,-1156 545,-1334 673,-1334 673,-1156 545,-1156"/>
<text text-anchor="middle" x="609" y="-1322" font-family="Helvetica,sans-Serif" font-size="10.00">RayLib::Vector2&lt; int &gt;</text>
<polyline fill="none" stroke="black" points="545,-1315 673,-1315 "/>
<text text-anchor="start" x="553" y="-1303" font-family="Helvetica,sans-Serif" font-size="10.00">+ x</text>
<text text-anchor="start" x="553" y="-1292" font-family="Helvetica,sans-Serif" font-size="10.00">+ y</text>
<polyline fill="none" stroke="black" points="545,-1285 673,-1285 "/>
<text text-anchor="start" x="553" y="-1273" font-family="Helvetica,sans-Serif" font-size="10.00">+ Vector2()</text>
<text text-anchor="start" x="553" y="-1262" font-family="Helvetica,sans-Serif" font-size="10.00">+ Vector2()</text>
<text text-anchor="start" x="553" y="-1251" font-family="Helvetica,sans-Serif" font-size="10.00">+ Vector2()</text>
<text text-anchor="start" x="553" y="-1240" font-family="Helvetica,sans-Serif" font-size="10.00">+ Vector2()</text>
<text text-anchor="start" x="553" y="-1229" font-family="Helvetica,sans-Serif" font-size="10.00">+ Vector2()</text>
<text text-anchor="start" x="553" y="-1218" font-family="Helvetica,sans-Serif" font-size="10.00">+ Vector2()</text>
<text text-anchor="start" x="553" y="-1207" font-family="Helvetica,sans-Serif" font-size="10.00">+ ~Vector2()</text>
<text text-anchor="start" x="553" y="-1196" font-family="Helvetica,sans-Serif" font-size="10.00">+ getVector2()</text>
<text text-anchor="start" x="553" y="-1185" font-family="Helvetica,sans-Serif" font-size="10.00">+ operator=()</text>
<text text-anchor="start" x="553" y="-1174" font-family="Helvetica,sans-Serif" font-size="10.00">+ operator+=()</text>
<text text-anchor="start" x="553" y="-1163" font-family="Helvetica,sans-Serif" font-size="10.00">and 6 more...</text>
</a>
</g>
</g>
<!-- Node5&#45;&gt;Node14 -->
<g id="edge18" class="edge">
<title>Node5&#45;&gt;Node14</title>
<path fill="none" stroke="midnightblue" d="M245.81,-1439.82C323.83,-1432.68 448.29,-1411.83 536,-1351 542.93,-1346.19 549.42,-1340.5 555.43,-1334.29"/>
<polygon fill="none" stroke="midnightblue" points="245.25,-1436.35 235.58,-1440.7 245.85,-1443.32 245.25,-1436.35"/>
</g>
<!-- Node6&#45;&gt;Node2 -->
<g id="edge5" class="edge">
<title>Node6&#45;&gt;Node2</title>
<path fill="none" stroke="#404040" d="M283.21,-398.22C279.88,-386.09 276.58,-374.04 273.4,-362.47"/>
<polygon fill="none" stroke="#404040" points="273.33,-362.19 267.88,-357.46 270.15,-350.62 275.6,-355.35 273.33,-362.19"/>
<text text-anchor="middle" x="310.5" y="-372" font-family="Helvetica,sans-Serif" font-size="10.00"> #_dropBomb</text>
</g>
<!-- Node7 -->
<g id="node7" class="node">
<title>Node7</title>
<g id="a_node7"><a xlink:href="classECS_1_1Entity.html" target="_top" xlink:title="Scene object containing components and an ID.">
<polygon fill="white" stroke="black" points="307,-902.5 307,-1080.5 421,-1080.5 421,-902.5 307,-902.5"/>
<text text-anchor="middle" x="364" y="-1068.5" font-family="Helvetica,sans-Serif" font-size="10.00">ECS::Entity</text>
<polyline fill="none" stroke="black" points="307,-1061.5 421,-1061.5 "/>
<text text-anchor="start" x="315" y="-1049.5" font-family="Helvetica,sans-Serif" font-size="10.00">&#45; _id</text>
<text text-anchor="start" x="315" y="-1038.5" font-family="Helvetica,sans-Serif" font-size="10.00">&#45; _tag</text>
<polyline fill="none" stroke="black" points="307,-1031.5 421,-1031.5 "/>
<text text-anchor="start" x="315" y="-1019.5" font-family="Helvetica,sans-Serif" font-size="10.00">+ Entity()</text>
<text text-anchor="start" x="315" y="-1008.5" font-family="Helvetica,sans-Serif" font-size="10.00">+ Entity()</text>
<text text-anchor="start" x="315" y="-997.5" font-family="Helvetica,sans-Serif" font-size="10.00">+ ~Entity()</text>
<text text-anchor="start" x="315" y="-986.5" font-family="Helvetica,sans-Serif" font-size="10.00">+ Entity()</text>
<text text-anchor="start" x="315" y="-975.5" font-family="Helvetica,sans-Serif" font-size="10.00">+ operator=()</text>
<text text-anchor="start" x="315" y="-964.5" font-family="Helvetica,sans-Serif" font-size="10.00">+ GetComponent()</text>
<text text-anchor="start" x="315" y="-953.5" font-family="Helvetica,sans-Serif" font-size="10.00">+ OfType()</text>
<text text-anchor="start" x="315" y="-942.5" font-family="Helvetica,sans-Serif" font-size="10.00">+ GetComponents()</text>
<text text-anchor="start" x="315" y="-931.5" font-family="Helvetica,sans-Serif" font-size="10.00">+ AddComponent()</text>
<text text-anchor="start" x="315" y="-920.5" font-family="Helvetica,sans-Serif" font-size="10.00">+ AddComponent()</text>
<text text-anchor="start" x="315" y="-909.5" font-family="Helvetica,sans-Serif" font-size="10.00">and 9 more...</text>
</a>
</g>
</g>
<!-- Node7&#45;&gt;Node1 -->
<g id="edge19" class="edge">
<title>Node7&#45;&gt;Node1</title>
<path fill="none" stroke="#404040" d="M389.39,-902.46C390.74,-896.24 391.97,-890.04 393,-884 436.78,-627.31 435.38,-318.25 431.37,-168.93"/>
<polygon fill="none" stroke="#404040" points="431.36,-168.71 427.2,-162.83 431.03,-156.72 435.19,-162.6 431.36,-168.71"/>
<text text-anchor="middle" x="453.5" y="-372" font-family="Helvetica,sans-Serif" font-size="10.00"> &#45;_entity</text>
</g>
<!-- Node7&#45;&gt;Node6 -->
<g id="edge7" class="edge">
<title>Node7&#45;&gt;Node6</title>
<path fill="none" stroke="#404040" d="M358.85,-902.48C355.06,-843.43 349.3,-763.95 342,-694 341.79,-691.94 341.57,-689.87 341.34,-687.79"/>
<polygon fill="none" stroke="#404040" points="341.33,-687.68 336.69,-682.16 340,-675.75 344.64,-681.27 341.33,-687.68"/>
<text text-anchor="middle" x="373.5" y="-786.5" font-family="Helvetica,sans-Serif" font-size="10.00"> &#45;_self</text>
</g>
<!-- Node7&#45;&gt;Node10 -->
<g id="edge15" class="edge">
<title>Node7&#45;&gt;Node10</title>
<path fill="none" stroke="#404040" d="M307.64,-902.24C303.98,-896.1 300.4,-889.98 297,-884 257.42,-814.42 216.51,-735.01 184,-669.84"/>
<polygon fill="none" stroke="#404040" points="184,-669.83 177.74,-666.24 178.65,-659.09 184.91,-662.68 184,-669.83"/>
<text text-anchor="middle" x="317.5" y="-786.5" font-family="Helvetica,sans-Serif" font-size="10.00"> &#45;_entity</text>
</g>
<!-- Node8 -->
<g id="node8" class="node">
<title>Node8</title>
<g id="a_node8"><a xlink:href="classECS_1_1EntityManager.html" target="_top" xlink:title="Class used to manipulate Entities (a.k.a A Scene)">
<polygon fill="white" stroke="black" points="242.5,-1172.5 242.5,-1317.5 357.5,-1317.5 357.5,-1172.5 242.5,-1172.5"/>
<text text-anchor="middle" x="300" y="-1305.5" font-family="Helvetica,sans-Serif" font-size="10.00">ECS::EntityManager</text>
<polyline fill="none" stroke="black" points="242.5,-1298.5 357.5,-1298.5 "/>
<text text-anchor="start" x="250.5" y="-1286.5" font-family="Helvetica,sans-Serif" font-size="10.00">&#45; _available</text>
<text text-anchor="start" x="250.5" y="-1275.5" font-family="Helvetica,sans-Serif" font-size="10.00">&#45; _max</text>
<text text-anchor="start" x="250.5" y="-1264.5" font-family="Helvetica,sans-Serif" font-size="10.00">&#45; _entities</text>
<polyline fill="none" stroke="black" points="242.5,-1257.5 357.5,-1257.5 "/>
<text text-anchor="start" x="250.5" y="-1245.5" font-family="Helvetica,sans-Serif" font-size="10.00">+ EntityManager()</text>
<text text-anchor="start" x="250.5" y="-1234.5" font-family="Helvetica,sans-Serif" font-size="10.00">+ ~EntityManager()</text>
<text text-anchor="start" x="250.5" y="-1223.5" font-family="Helvetica,sans-Serif" font-size="10.00">+ EntityManager()</text>
<text text-anchor="start" x="250.5" y="-1212.5" font-family="Helvetica,sans-Serif" font-size="10.00">+ operator=()</text>
<text text-anchor="start" x="250.5" y="-1201.5" font-family="Helvetica,sans-Serif" font-size="10.00">+ CreateEntity()</text>
<text text-anchor="start" x="250.5" y="-1190.5" font-family="Helvetica,sans-Serif" font-size="10.00">+ DeleteEntity()</text>
<text text-anchor="start" x="250.5" y="-1179.5" font-family="Helvetica,sans-Serif" font-size="10.00">+ GetEntities()</text>
</a>
</g>
</g>
<!-- Node8&#45;&gt;Node7 -->
<g id="edge8" class="edge">
<title>Node8&#45;&gt;Node7</title>
<path fill="none" stroke="#404040" d="M318.25,-1172.27C324.56,-1147.48 331.75,-1119.23 338.53,-1092.59"/>
<polygon fill="none" stroke="#404040" points="338.55,-1092.51 336.15,-1085.71 341.51,-1080.88 343.91,-1087.69 338.55,-1092.51"/>
<text text-anchor="middle" x="378" y="-1107.5" font-family="Helvetica,sans-Serif" font-size="10.00"> &#45;_entityManager</text>
</g>
<!-- Node9 -->
<g id="node9" class="node">
<title>Node9</title>
<g id="a_node9"><a xlink:href="classECS_1_1ComponentManager.html" target="_top" xlink:title="Class used to manipulate Components.">
<polygon fill="white" stroke="black" points="375.5,-1139.5 375.5,-1350.5 526.5,-1350.5 526.5,-1139.5 375.5,-1139.5"/>
<text text-anchor="middle" x="451" y="-1338.5" font-family="Helvetica,sans-Serif" font-size="10.00">ECS::ComponentManager</text>
<polyline fill="none" stroke="black" points="375.5,-1331.5 526.5,-1331.5 "/>
<text text-anchor="start" x="383.5" y="-1319.5" font-family="Helvetica,sans-Serif" font-size="10.00">&#45; _bases</text>
<text text-anchor="start" x="383.5" y="-1308.5" font-family="Helvetica,sans-Serif" font-size="10.00">&#45; _components</text>
<polyline fill="none" stroke="black" points="375.5,-1301.5 526.5,-1301.5 "/>
<text text-anchor="start" x="383.5" y="-1289.5" font-family="Helvetica,sans-Serif" font-size="10.00">+ ComponentManager()</text>
<text text-anchor="start" x="383.5" y="-1278.5" font-family="Helvetica,sans-Serif" font-size="10.00">+ ~ComponentManager()</text>
<text text-anchor="start" x="383.5" y="-1267.5" font-family="Helvetica,sans-Serif" font-size="10.00">+ ComponentManager()</text>
<text text-anchor="start" x="383.5" y="-1256.5" font-family="Helvetica,sans-Serif" font-size="10.00">+ operator=()</text>
<text text-anchor="start" x="383.5" y="-1245.5" font-family="Helvetica,sans-Serif" font-size="10.00">+ GetComponent()</text>
<text text-anchor="start" x="383.5" y="-1234.5" font-family="Helvetica,sans-Serif" font-size="10.00">+ OfType()</text>
<text text-anchor="start" x="383.5" y="-1223.5" font-family="Helvetica,sans-Serif" font-size="10.00">+ GetComponents()</text>
<text text-anchor="start" x="383.5" y="-1212.5" font-family="Helvetica,sans-Serif" font-size="10.00">+ AddComponent()</text>
<text text-anchor="start" x="383.5" y="-1201.5" font-family="Helvetica,sans-Serif" font-size="10.00">+ AddComponent()</text>
<text text-anchor="start" x="383.5" y="-1190.5" font-family="Helvetica,sans-Serif" font-size="10.00">+ RemoveComponent()</text>
<text text-anchor="start" x="383.5" y="-1179.5" font-family="Helvetica,sans-Serif" font-size="10.00">+ HasComponent()</text>
<text text-anchor="start" x="383.5" y="-1168.5" font-family="Helvetica,sans-Serif" font-size="10.00">+ HasComponent()</text>
<text text-anchor="start" x="383.5" y="-1157.5" font-family="Helvetica,sans-Serif" font-size="10.00">+ HasComponents()</text>
<text text-anchor="start" x="383.5" y="-1146.5" font-family="Helvetica,sans-Serif" font-size="10.00">+ GetComponentByName()</text>
</a>
</g>
</g>
<!-- Node9&#45;&gt;Node7 -->
<g id="edge9" class="edge">
<title>Node9&#45;&gt;Node7</title>
<path fill="none" stroke="#404040" d="M435.74,-1139.13C432.51,-1125.44 428.64,-1111.76 424,-1099 423.14,-1096.62 422.22,-1094.24 421.27,-1091.85"/>
<polygon fill="none" stroke="#404040" points="421.21,-1091.7 415.17,-1087.75 416.5,-1080.66 422.53,-1084.62 421.21,-1091.7"/>
<text text-anchor="middle" x="486" y="-1107.5" font-family="Helvetica,sans-Serif" font-size="10.00"> &#45;_componentManager</text>
</g>
<!-- Node10&#45;&gt;Node2 -->
<g id="edge10" class="edge">
<title>Node10&#45;&gt;Node2</title>
<path fill="none" stroke="#404040" d="M115.32,-414.62C118.1,-398.7 122.73,-383.06 130,-369 139.86,-349.92 155.42,-333.35 172.07,-319.6"/>
<polygon fill="none" stroke="#404040" points="172.52,-319.25 174.77,-312.4 181.96,-311.84 179.71,-318.69 172.52,-319.25"/>
<text text-anchor="middle" x="165" y="-372" font-family="Helvetica,sans-Serif" font-size="10.00"> #_movement</text>
</g>
<!-- Node11&#45;&gt;Node10 -->
<g id="edge12" class="edge">
<title>Node11&#45;&gt;Node10</title>
<path fill="none" stroke="#404040" d="M44.18,-1161.08C43.69,-1135.41 43.24,-1107.04 43,-1081 42.27,-1001.45 34.72,-981.12 43,-902 51.1,-824.57 68.64,-739.37 84.94,-670.87"/>
<polygon fill="none" stroke="#404040" points="84.95,-670.82 82.46,-664.05 87.75,-659.15 90.24,-665.92 84.95,-670.82"/>
<text text-anchor="middle" x="70.5" y="-989" font-family="Helvetica,sans-Serif" font-size="10.00"> +direction</text>
</g>
<!-- Node12 -->
<g id="node12" class="node">
<title>Node12</title>
<g id="a_node12"><a xlink:title=" ">
<polygon fill="white" stroke="#bfbfbf" points="19.5,-1416 19.5,-1473 72.5,-1473 72.5,-1416 19.5,-1416"/>
<text text-anchor="middle" x="46" y="-1461" font-family="Helvetica,sans-Serif" font-size="10.00">Vector3</text>
<polyline fill="none" stroke="#bfbfbf" points="19.5,-1454 72.5,-1454 "/>
<text text-anchor="middle" x="46" y="-1442" font-family="Helvetica,sans-Serif" font-size="10.00"> </text>
<polyline fill="none" stroke="#bfbfbf" points="19.5,-1435 72.5,-1435 "/>
<text text-anchor="middle" x="46" y="-1423" font-family="Helvetica,sans-Serif" font-size="10.00"> </text>
</a>
</g>
</g>
<!-- Node12&#45;&gt;Node11 -->
<g id="edge13" class="edge">
<title>Node12&#45;&gt;Node11</title>
<path fill="none" stroke="midnightblue" d="M46,-1405.48C46,-1383.69 46,-1355.45 46,-1328.81"/>
<polygon fill="none" stroke="midnightblue" points="42.5,-1405.62 46,-1415.62 49.5,-1405.62 42.5,-1405.62"/>
</g>
<!-- Node13 -->
<g id="node13" class="node">
<title>Node13</title>
<g id="a_node13"><a xlink:href="classRayLib_1_1Input.html" target="_top" xlink:title="Input encapsulation.">
<polygon fill="white" stroke="black" points="488,-694.5 488,-883.5 614,-883.5 614,-694.5 488,-694.5"/>
<text text-anchor="middle" x="551" y="-871.5" font-family="Helvetica,sans-Serif" font-size="10.00">RayLib::Input</text>
<polyline fill="none" stroke="black" points="488,-864.5 614,-864.5 "/>
<text text-anchor="middle" x="551" y="-852.5" font-family="Helvetica,sans-Serif" font-size="10.00"> </text>
<polyline fill="none" stroke="black" points="488,-845.5 614,-845.5 "/>
<text text-anchor="start" x="496" y="-833.5" font-family="Helvetica,sans-Serif" font-size="10.00">+ Input()</text>
<text text-anchor="start" x="496" y="-822.5" font-family="Helvetica,sans-Serif" font-size="10.00">+ Input()</text>
<text text-anchor="start" x="496" y="-811.5" font-family="Helvetica,sans-Serif" font-size="10.00">+ ~Input()</text>
<text text-anchor="start" x="496" y="-800.5" font-family="Helvetica,sans-Serif" font-size="10.00">+ operator=()</text>
<text text-anchor="start" x="496" y="-789.5" font-family="Helvetica,sans-Serif" font-size="10.00">+ GetHorizontalAxis()</text>
<text text-anchor="start" x="496" y="-778.5" font-family="Helvetica,sans-Serif" font-size="10.00">+ GetVerticalAxis()</text>
<text text-anchor="start" x="496" y="-767.5" font-family="Helvetica,sans-Serif" font-size="10.00">+ GetKeyPressed()</text>
<text text-anchor="start" x="496" y="-756.5" font-family="Helvetica,sans-Serif" font-size="10.00">+ IsKeyDown()</text>
<text text-anchor="start" x="496" y="-745.5" font-family="Helvetica,sans-Serif" font-size="10.00">+ GetCharPressed()</text>
<text text-anchor="start" x="496" y="-734.5" font-family="Helvetica,sans-Serif" font-size="10.00">+ IsKeyPressed()</text>
<text text-anchor="start" x="496" y="-723.5" font-family="Helvetica,sans-Serif" font-size="10.00">+ IsKeyReleased()</text>
<text text-anchor="start" x="496" y="-712.5" font-family="Helvetica,sans-Serif" font-size="10.00">+ GetHorizontalKeys()</text>
<text text-anchor="start" x="496" y="-701.5" font-family="Helvetica,sans-Serif" font-size="10.00">+ GetVerticalKeys()</text>
</a>
</g>
</g>
<!-- Node13&#45;&gt;Node1 -->
<g id="edge16" class="edge">
<title>Node13&#45;&gt;Node1</title>
<path fill="none" stroke="#404040" d="M534.73,-694.28C510.9,-557.02 466.81,-303.04 443.45,-168.5"/>
<polygon fill="none" stroke="#404040" points="443.45,-168.48 438.48,-163.25 441.39,-156.65 446.36,-161.88 443.45,-168.48"/>
<text text-anchor="middle" x="498.5" y="-372" font-family="Helvetica,sans-Serif" font-size="10.00"> &#45;_input</text>
</g>
<!-- Node14&#45;&gt;Node13 -->
<g id="edge17" class="edge">
<title>Node14&#45;&gt;Node13</title>
<path fill="none" stroke="#404040" d="M597.75,-1155.93C588.24,-1081.49 574.59,-974.66 564.49,-895.63"/>
<polygon fill="none" stroke="#404040" points="564.49,-895.59 559.76,-890.15 562.97,-883.69 567.7,-889.13 564.49,-895.59"/>
<text text-anchor="middle" x="632.5" y="-1113" font-family="Helvetica,sans-Serif" font-size="10.00"> &#45;_verticalAxis</text>
<text text-anchor="middle" x="632.5" y="-1102" font-family="Helvetica,sans-Serif" font-size="10.00">&#45;_horizontalAxis</text>
</g>
</g>
</svg>
