<?xml version="1.0" encoding="UTF-8" standalone="no"?>
<!DOCTYPE svg PUBLIC "-//W3C//DTD SVG 1.1//EN"
 "http://www.w3.org/Graphics/SVG/1.1/DTD/svg11.dtd">
<!-- Generated by graphviz version 2.43.0 (0)
 -->
<!-- Title: Component::Particle Pages: 1 -->
<svg width="226pt" height="681pt"
 viewBox="0.00 0.00 225.50 681.00" xmlns="http://www.w3.org/2000/svg" xmlns:xlink="http://www.w3.org/1999/xlink">
<g id="graph0" class="graph" transform="scale(1 1) rotate(0) translate(4 677)">
<title>Component::Particle</title>
<polygon fill="white" stroke="transparent" points="-4,4 -4,-677 221.5,-677 221.5,4 -4,4"/>
<!-- Node1 -->
<g id="node1" class="node">
<title>Node1</title>
<g id="a_node1"><a xlink:title=" ">
<polygon fill="#bfbfbf" stroke="black" points="60,-0.5 60,-156.5 175,-156.5 175,-0.5 60,-0.5"/>
<text text-anchor="middle" x="117.5" y="-144.5" font-family="Helvetica,sans-Serif" font-size="10.00">Component::Particle</text>
<polyline fill="none" stroke="black" points="60,-137.5 175,-137.5 "/>
<text text-anchor="start" x="68" y="-125.5" font-family="Helvetica,sans-Serif" font-size="10.00">&#45; _lifeTimer</text>
<text text-anchor="start" x="68" y="-114.5" font-family="Helvetica,sans-Serif" font-size="10.00">&#45; _speed</text>
<polyline fill="none" stroke="black" points="60,-107.5 175,-107.5 "/>
<text text-anchor="start" x="68" y="-95.5" font-family="Helvetica,sans-Serif" font-size="10.00">+ Particle()</text>
<text text-anchor="start" x="68" y="-84.5" font-family="Helvetica,sans-Serif" font-size="10.00">+ ~Particle()</text>
<text text-anchor="start" x="68" y="-73.5" font-family="Helvetica,sans-Serif" font-size="10.00">+ Particle()</text>
<text text-anchor="start" x="68" y="-62.5" font-family="Helvetica,sans-Serif" font-size="10.00">+ operator=()</text>
<text text-anchor="start" x="68" y="-51.5" font-family="Helvetica,sans-Serif" font-size="10.00">+ Update()</text>
<text text-anchor="start" x="68" y="-40.5" font-family="Helvetica,sans-Serif" font-size="10.00">+ FixedUpdate()</text>
<text text-anchor="start" x="68" y="-29.5" font-family="Helvetica,sans-Serif" font-size="10.00">+ LateUpdate()</text>
<text text-anchor="start" x="68" y="-18.5" font-family="Helvetica,sans-Serif" font-size="10.00">+ operator&lt;&lt;()</text>
<text text-anchor="start" x="68" y="-7.5" font-family="Helvetica,sans-Serif" font-size="10.00">+ operator&lt;&lt;()</text>
</a>
</g>
</g>
<!-- Node2 -->
<g id="node2" class="node">
<title>Node2</title>
<g id="a_node2"><a xlink:href="classComponent_1_1IBehaviour.html" target="_top" xlink:title="IBehaviour base component (CF Monobehaviour class in Unity)">
<polygon fill="white" stroke="black" points="0,-194.5 0,-317.5 131,-317.5 131,-194.5 0,-194.5"/>
<text text-anchor="middle" x="65.5" y="-305.5" font-family="Helvetica,sans-Serif" font-size="10.00">Component::IBehaviour</text>
<polyline fill="none" stroke="black" points="0,-298.5 131,-298.5 "/>
<text text-anchor="middle" x="65.5" y="-286.5" font-family="Helvetica,sans-Serif" font-size="10.00"> </text>
<polyline fill="none" stroke="black" points="0,-279.5 131,-279.5 "/>
<text text-anchor="start" x="8" y="-267.5" font-family="Helvetica,sans-Serif" font-size="10.00">+ IBehaviour()</text>
<text text-anchor="start" x="8" y="-256.5" font-family="Helvetica,sans-Serif" font-size="10.00">+ ~IBehaviour()</text>
<text text-anchor="start" x="8" y="-245.5" font-family="Helvetica,sans-Serif" font-size="10.00">+ IBehaviour()</text>
<text text-anchor="start" x="8" y="-234.5" font-family="Helvetica,sans-Serif" font-size="10.00">+ operator=()</text>
<text text-anchor="start" x="8" y="-223.5" font-family="Helvetica,sans-Serif" font-size="10.00">+ Update()</text>
<text text-anchor="start" x="8" y="-212.5" font-family="Helvetica,sans-Serif" font-size="10.00">+ FixedUpdate()</text>
<text text-anchor="start" x="8" y="-201.5" font-family="Helvetica,sans-Serif" font-size="10.00">+ LateUpdate()</text>
</a>
</g>
</g>
<!-- Node2&#45;&gt;Node1 -->
<g id="edge1" class="edge">
<title>Node2&#45;&gt;Node1</title>
<path fill="none" stroke="midnightblue" d="M86.43,-184.35C89.13,-175.24 91.91,-165.87 94.64,-156.67"/>
<polygon fill="none" stroke="midnightblue" points="83.03,-183.53 83.54,-194.11 89.74,-185.52 83.03,-183.53"/>
</g>
<!-- Node3 -->
<g id="node3" class="node">
<title>Node3</title>
<g id="a_node3"><a xlink:href="classECS_1_1IComponent.html" target="_top" xlink:title="Base Interface class to create a new component.">
<polygon fill="white" stroke="black" points="4,-394 4,-484 107,-484 107,-394 4,-394"/>
<text text-anchor="middle" x="55.5" y="-472" font-family="Helvetica,sans-Serif" font-size="10.00">ECS::IComponent</text>
<polyline fill="none" stroke="black" points="4,-465 107,-465 "/>
<text text-anchor="middle" x="55.5" y="-453" font-family="Helvetica,sans-Serif" font-size="10.00"> </text>
<polyline fill="none" stroke="black" points="4,-446 107,-446 "/>
<text text-anchor="start" x="12" y="-434" font-family="Helvetica,sans-Serif" font-size="10.00">+ IComponent()</text>
<text text-anchor="start" x="12" y="-423" font-family="Helvetica,sans-Serif" font-size="10.00">+ ~IComponent()</text>
<text text-anchor="start" x="12" y="-412" font-family="Helvetica,sans-Serif" font-size="10.00">+ IComponent()</text>
<text text-anchor="start" x="12" y="-401" font-family="Helvetica,sans-Serif" font-size="10.00">+ operator=()</text>
</a>
</g>
</g>
<!-- Node3&#45;&gt;Node2 -->
<g id="edge2" class="edge">
<title>Node3&#45;&gt;Node2</title>
<path fill="none" stroke="midnightblue" d="M58.51,-383.47C59.66,-362.69 60.98,-338.87 62.15,-317.56"/>
<polygon fill="none" stroke="midnightblue" points="55,-383.54 57.95,-393.72 61.99,-383.93 55,-383.54"/>
</g>
<!-- Node4 -->
<g id="node4" class="node">
<title>Node4</title>
<g id="a_node4"><a xlink:href="classIXMLSerializable.html" target="_top" xlink:title=" ">
<polygon fill="white" stroke="black" points="0,-560.5 0,-672.5 125,-672.5 125,-560.5 0,-560.5"/>
<text text-anchor="middle" x="62.5" y="-660.5" font-family="Helvetica,sans-Serif" font-size="10.00">IXMLSerializable</text>
<polyline fill="none" stroke="black" points="0,-653.5 125,-653.5 "/>
<text text-anchor="middle" x="62.5" y="-641.5" font-family="Helvetica,sans-Serif" font-size="10.00"> </text>
<polyline fill="none" stroke="black" points="0,-634.5 125,-634.5 "/>
<text text-anchor="start" x="8" y="-622.5" font-family="Helvetica,sans-Serif" font-size="10.00">+ IXMLSerializable()</text>
<text text-anchor="start" x="8" y="-611.5" font-family="Helvetica,sans-Serif" font-size="10.00">+ ~IXMLSerializable()</text>
<text text-anchor="start" x="8" y="-600.5" font-family="Helvetica,sans-Serif" font-size="10.00">+ IXMLSerializable()</text>
<text text-anchor="start" x="8" y="-589.5" font-family="Helvetica,sans-Serif" font-size="10.00">+ operator=()</text>
<text text-anchor="start" x="8" y="-578.5" font-family="Helvetica,sans-Serif" font-size="10.00">+ operator&lt;&lt;()</text>
<text text-anchor="start" x="8" y="-567.5" font-family="Helvetica,sans-Serif" font-size="10.00">+ operator&lt;&lt;()</text>
</a>
</g>
</g>
<!-- Node4&#45;&gt;Node3 -->
<g id="edge3" class="edge">
<title>Node4&#45;&gt;Node3</title>
<path fill="none" stroke="midnightblue" d="M59.91,-550.45C59.02,-528.31 58.06,-504.11 57.26,-484.01"/>
<polygon fill="none" stroke="midnightblue" points="56.41,-550.6 60.3,-560.45 63.4,-550.32 56.41,-550.6"/>
</g>
<!-- Node5 -->
<g id="node5" class="node">
<title>Node5</title>
<g id="a_node5"><a xlink:href="classRayLib_1_1Vector3.html" target="_top" xlink:title="Vector3 encapsulation.">
<polygon fill="white" stroke="black" points="125.5,-355.5 125.5,-522.5 217.5,-522.5 217.5,-355.5 125.5,-355.5"/>
<text text-anchor="middle" x="171.5" y="-510.5" font-family="Helvetica,sans-Serif" font-size="10.00">RayLib::Vector3</text>
<polyline fill="none" stroke="black" points="125.5,-503.5 217.5,-503.5 "/>
<text text-anchor="middle" x="171.5" y="-491.5" font-family="Helvetica,sans-Serif" font-size="10.00"> </text>
<polyline fill="none" stroke="black" points="125.5,-484.5 217.5,-484.5 "/>
<text text-anchor="start" x="133.5" y="-472.5" font-family="Helvetica,sans-Serif" font-size="10.00">+ Vector3()</text>
<text text-anchor="start" x="133.5" y="-461.5" font-family="Helvetica,sans-Serif" font-size="10.00">+ Vector3()</text>
<text text-anchor="start" x="133.5" y="-450.5" font-family="Helvetica,sans-Serif" font-size="10.00">+ Vector3()</text>
<text text-anchor="start" x="133.5" y="-439.5" font-family="Helvetica,sans-Serif" font-size="10.00">+ Vector3()</text>
<text text-anchor="start" x="133.5" y="-428.5" font-family="Helvetica,sans-Serif" font-size="10.00">+ Vector3()</text>
<text text-anchor="start" x="133.5" y="-417.5" font-family="Helvetica,sans-Serif" font-size="10.00">+ Vector3()</text>
<text text-anchor="start" x="133.5" y="-406.5" font-family="Helvetica,sans-Serif" font-size="10.00">+ ~Vector3()</text>
<text text-anchor="start" x="133.5" y="-395.5" font-family="Helvetica,sans-Serif" font-size="10.00">+ getVector3()</text>
<text text-anchor="start" x="133.5" y="-384.5" font-family="Helvetica,sans-Serif" font-size="10.00">+ operator=()</text>
<text text-anchor="start" x="133.5" y="-373.5" font-family="Helvetica,sans-Serif" font-size="10.00">+ operator*=()</text>
<text text-anchor="start" x="133.5" y="-362.5" font-family="Helvetica,sans-Serif" font-size="10.00">and 13 more...</text>
</a>
</g>
</g>
<!-- Node4&#45;&gt;Node5 -->
<g id="edge6" class="edge">
<title>Node4&#45;&gt;Node5</title>
<path fill="none" stroke="midnightblue" d="M102.12,-551.7C109.7,-539.51 117.69,-526.64 125.44,-514.16"/>
<polygon fill="none" stroke="midnightblue" points="98.99,-550.11 96.69,-560.45 104.94,-553.8 98.99,-550.11"/>
</g>
<!-- Node5&#45;&gt;Node1 -->
<g id="edge4" class="edge">
<title>Node5&#45;&gt;Node1</title>
<path fill="none" stroke="#404040" d="M161.9,-355.37C156.09,-308.03 148.15,-247.57 139.5,-194 138.17,-185.78 136.7,-177.25 135.17,-168.72"/>
<polygon fill="none" stroke="#404040" points="135.13,-168.49 130.12,-163.31 132.98,-156.69 137.99,-161.87 135.13,-168.49"/>
<text text-anchor="middle" x="185" y="-253.5" font-family="Helvetica,sans-Serif" font-size="10.00"> &#45;_direction</text>
</g>
<!-- Node6 -->
<g id="node6" class="node">
<title>Node6</title>
<g id="a_node6"><a xlink:title=" ">
<polygon fill="white" stroke="#bfbfbf" points="145,-588 145,-645 198,-645 198,-588 145,-588"/>
<text text-anchor="middle" x="171.5" y="-633" font-family="Helvetica,sans-Serif" font-size="10.00">Vector3</text>
<polyline fill="none" stroke="#bfbfbf" points="145,-626 198,-626 "/>
<text text-anchor="middle" x="171.5" y="-614" font-family="Helvetica,sans-Serif" font-size="10.00"> </text>
<polyline fill="none" stroke="#bfbfbf" points="145,-607 198,-607 "/>
<text text-anchor="middle" x="171.5" y="-595" font-family="Helvetica,sans-Serif" font-size="10.00"> </text>
</a>
</g>
</g>
<!-- Node6&#45;&gt;Node5 -->
<g id="edge5" class="edge">
<title>Node6&#45;&gt;Node5</title>
<path fill="none" stroke="midnightblue" d="M171.5,-577.59C171.5,-561.43 171.5,-541.88 171.5,-522.67"/>
<polygon fill="none" stroke="midnightblue" points="168,-577.69 171.5,-587.69 175,-577.69 168,-577.69"/>
</g>
</g>
</svg>
