<?xml version="1.0" encoding="UTF-8" standalone="no"?>
<!DOCTYPE svg PUBLIC "-//W3C//DTD SVG 1.1//EN"
 "http://www.w3.org/Graphics/SVG/1.1/DTD/svg11.dtd">
<!-- Generated by graphviz version 2.43.0 (0)
 -->
<!-- Title: Component::TextUI Pages: 1 -->
<svg width="133pt" height="667pt"
 viewBox="0.00 0.00 133.00 667.00" xmlns="http://www.w3.org/2000/svg" xmlns:xlink="http://www.w3.org/1999/xlink">
<g id="graph0" class="graph" transform="scale(1 1) rotate(0) translate(4 663)">
<title>Component::TextUI</title>
<polygon fill="white" stroke="transparent" points="-4,4 -4,-663 129,-663 129,4 -4,4"/>
<!-- Node1 -->
<g id="node1" class="node">
<title>Node1</title>
<g id="a_node1"><a xlink:title=" ">
<polygon fill="#bfbfbf" stroke="black" points="7.5,-0.5 7.5,-244.5 117.5,-244.5 117.5,-0.5 7.5,-0.5"/>
<text text-anchor="middle" x="62.5" y="-232.5" font-family="Helvetica,sans-Serif" font-size="10.00">Component::TextUI</text>
<polyline fill="none" stroke="black" points="7.5,-225.5 117.5,-225.5 "/>
<text text-anchor="start" x="15.5" y="-213.5" font-family="Helvetica,sans-Serif" font-size="10.00">&#45; _string</text>
<text text-anchor="start" x="15.5" y="-202.5" font-family="Helvetica,sans-Serif" font-size="10.00">&#45; _font</text>
<text text-anchor="start" x="15.5" y="-191.5" font-family="Helvetica,sans-Serif" font-size="10.00">&#45; _color</text>
<text text-anchor="start" x="15.5" y="-180.5" font-family="Helvetica,sans-Serif" font-size="10.00">&#45; _size</text>
<text text-anchor="start" x="15.5" y="-169.5" font-family="Helvetica,sans-Serif" font-size="10.00">&#45; _spacing</text>
<polyline fill="none" stroke="black" points="7.5,-162.5 117.5,-162.5 "/>
<text text-anchor="start" x="15.5" y="-150.5" font-family="Helvetica,sans-Serif" font-size="10.00">+ TextUI()</text>
<text text-anchor="start" x="15.5" y="-139.5" font-family="Helvetica,sans-Serif" font-size="10.00">+ ~TextUI()</text>
<text text-anchor="start" x="15.5" y="-128.5" font-family="Helvetica,sans-Serif" font-size="10.00">+ TextUI()</text>
<text text-anchor="start" x="15.5" y="-117.5" font-family="Helvetica,sans-Serif" font-size="10.00">+ operator=()</text>
<text text-anchor="start" x="15.5" y="-106.5" font-family="Helvetica,sans-Serif" font-size="10.00">+ operator&lt;&lt;()</text>
<text text-anchor="start" x="15.5" y="-95.5" font-family="Helvetica,sans-Serif" font-size="10.00">+ operator&lt;&lt;()</text>
<text text-anchor="start" x="15.5" y="-84.5" font-family="Helvetica,sans-Serif" font-size="10.00">+ Draw()</text>
<text text-anchor="start" x="15.5" y="-73.5" font-family="Helvetica,sans-Serif" font-size="10.00">+ GetContent()</text>
<text text-anchor="start" x="15.5" y="-62.5" font-family="Helvetica,sans-Serif" font-size="10.00">+ SetString()</text>
<text text-anchor="start" x="15.5" y="-51.5" font-family="Helvetica,sans-Serif" font-size="10.00">+ GetSpacing()</text>
<text text-anchor="start" x="15.5" y="-40.5" font-family="Helvetica,sans-Serif" font-size="10.00">+ SetSpacing()</text>
<text text-anchor="start" x="15.5" y="-29.5" font-family="Helvetica,sans-Serif" font-size="10.00">+ GetSize()</text>
<text text-anchor="start" x="15.5" y="-18.5" font-family="Helvetica,sans-Serif" font-size="10.00">+ SetSize()</text>
<text text-anchor="start" x="15.5" y="-7.5" font-family="Helvetica,sans-Serif" font-size="10.00">+ MeasureText()</text>
</a>
</g>
</g>
<!-- Node2 -->
<g id="node2" class="node">
<title>Node2</title>
<g id="a_node2"><a xlink:href="classComponent_1_1IUIObject.html" target="_top" xlink:title="Base class for UI objects.">
<polygon fill="white" stroke="black" points="0.5,-281.5 0.5,-382.5 124.5,-382.5 124.5,-281.5 0.5,-281.5"/>
<text text-anchor="middle" x="62.5" y="-370.5" font-family="Helvetica,sans-Serif" font-size="10.00">Component::IUIObject</text>
<polyline fill="none" stroke="black" points="0.5,-363.5 124.5,-363.5 "/>
<text text-anchor="middle" x="62.5" y="-351.5" font-family="Helvetica,sans-Serif" font-size="10.00"> </text>
<polyline fill="none" stroke="black" points="0.5,-344.5 124.5,-344.5 "/>
<text text-anchor="start" x="8.5" y="-332.5" font-family="Helvetica,sans-Serif" font-size="10.00">+ IUIObject()</text>
<text text-anchor="start" x="8.5" y="-321.5" font-family="Helvetica,sans-Serif" font-size="10.00">+ ~IUIObject()</text>
<text text-anchor="start" x="8.5" y="-310.5" font-family="Helvetica,sans-Serif" font-size="10.00">+ IUIObject()</text>
<text text-anchor="start" x="8.5" y="-299.5" font-family="Helvetica,sans-Serif" font-size="10.00">+ operator=()</text>
<text text-anchor="start" x="8.5" y="-288.5" font-family="Helvetica,sans-Serif" font-size="10.00">+ Draw()</text>
</a>
</g>
</g>
<!-- Node2&#45;&gt;Node1 -->
<g id="edge1" class="edge">
<title>Node2&#45;&gt;Node1</title>
<path fill="none" stroke="midnightblue" d="M62.5,-271.25C62.5,-262.8 62.5,-253.87 62.5,-244.76"/>
<polygon fill="none" stroke="midnightblue" points="59,-271.3 62.5,-281.3 66,-271.3 59,-271.3"/>
</g>
<!-- Node3 -->
<g id="node3" class="node">
<title>Node3</title>
<g id="a_node3"><a xlink:href="classECS_1_1IComponent.html" target="_top" xlink:title="Base Interface class to create a new component.">
<polygon fill="white" stroke="black" points="11,-419.5 11,-509.5 114,-509.5 114,-419.5 11,-419.5"/>
<text text-anchor="middle" x="62.5" y="-497.5" font-family="Helvetica,sans-Serif" font-size="10.00">ECS::IComponent</text>
<polyline fill="none" stroke="black" points="11,-490.5 114,-490.5 "/>
<text text-anchor="middle" x="62.5" y="-478.5" font-family="Helvetica,sans-Serif" font-size="10.00"> </text>
<polyline fill="none" stroke="black" points="11,-471.5 114,-471.5 "/>
<text text-anchor="start" x="19" y="-459.5" font-family="Helvetica,sans-Serif" font-size="10.00">+ IComponent()</text>
<text text-anchor="start" x="19" y="-448.5" font-family="Helvetica,sans-Serif" font-size="10.00">+ ~IComponent()</text>
<text text-anchor="start" x="19" y="-437.5" font-family="Helvetica,sans-Serif" font-size="10.00">+ IComponent()</text>
<text text-anchor="start" x="19" y="-426.5" font-family="Helvetica,sans-Serif" font-size="10.00">+ operator=()</text>
</a>
</g>
</g>
<!-- Node3&#45;&gt;Node2 -->
<g id="edge2" class="edge">
<title>Node3&#45;&gt;Node2</title>
<path fill="none" stroke="midnightblue" d="M62.5,-409.13C62.5,-400.31 62.5,-391.22 62.5,-382.52"/>
<polygon fill="none" stroke="midnightblue" points="59,-409.32 62.5,-419.32 66,-409.32 59,-409.32"/>
</g>
<!-- Node4 -->
<g id="node4" class="node">
<title>Node4</title>
<g id="a_node4"><a xlink:href="classIXMLSerializable.html" target="_top" xlink:title=" ">
<polygon fill="white" stroke="black" points="0,-546.5 0,-658.5 125,-658.5 125,-546.5 0,-546.5"/>
<text text-anchor="middle" x="62.5" y="-646.5" font-family="Helvetica,sans-Serif" font-size="10.00">IXMLSerializable</text>
<polyline fill="none" stroke="black" points="0,-639.5 125,-639.5 "/>
<text text-anchor="middle" x="62.5" y="-627.5" font-family="Helvetica,sans-Serif" font-size="10.00"> </text>
<polyline fill="none" stroke="black" points="0,-620.5 125,-620.5 "/>
<text text-anchor="start" x="8" y="-608.5" font-family="Helvetica,sans-Serif" font-size="10.00">+ IXMLSerializable()</text>
<text text-anchor="start" x="8" y="-597.5" font-family="Helvetica,sans-Serif" font-size="10.00">+ ~IXMLSerializable()</text>
<text text-anchor="start" x="8" y="-586.5" font-family="Helvetica,sans-Serif" font-size="10.00">+ IXMLSerializable()</text>
<text text-anchor="start" x="8" y="-575.5" font-family="Helvetica,sans-Serif" font-size="10.00">+ operator=()</text>
<text text-anchor="start" x="8" y="-564.5" font-family="Helvetica,sans-Serif" font-size="10.00">+ operator&lt;&lt;()</text>
<text text-anchor="start" x="8" y="-553.5" font-family="Helvetica,sans-Serif" font-size="10.00">+ operator&lt;&lt;()</text>
</a>
</g>
</g>
<!-- Node4&#45;&gt;Node3 -->
<g id="edge3" class="edge">
<title>Node4&#45;&gt;Node3</title>
<path fill="none" stroke="midnightblue" d="M62.5,-536.08C62.5,-527.07 62.5,-518.01 62.5,-509.51"/>
<polygon fill="none" stroke="midnightblue" points="59,-536.18 62.5,-546.18 66,-536.18 59,-536.18"/>
</g>
</g>
</svg>
