<?xml version="1.0" encoding="UTF-8" standalone="no"?>
<!DOCTYPE svg PUBLIC "-//W3C//DTD SVG 1.1//EN"
 "http://www.w3.org/Graphics/SVG/1.1/DTD/svg11.dtd">
<!-- Generated by graphviz version 2.43.0 (0)
 -->
<!-- Title: Component::Drawable3D Pages: 1 -->
<svg width="225pt" height="541pt"
 viewBox="0.00 0.00 225.00 541.00" xmlns="http://www.w3.org/2000/svg" xmlns:xlink="http://www.w3.org/1999/xlink">
<g id="graph0" class="graph" transform="scale(1 1) rotate(0) translate(4 537)">
<title>Component::Drawable3D</title>
<polygon fill="white" stroke="transparent" points="-4,4 -4,-537 221,-537 221,4 -4,4"/>
<!-- Node1 -->
<g id="node1" class="node">
<title>Node1</title>
<g id="a_node1"><a xlink:title=" ">
<polygon fill="#bfbfbf" stroke="black" points="48,-0.5 48,-189.5 187,-189.5 187,-0.5 48,-0.5"/>
<text text-anchor="middle" x="117.5" y="-177.5" font-family="Helvetica,sans-Serif" font-size="10.00">Component::Drawable3D</text>
<polyline fill="none" stroke="black" points="48,-170.5 187,-170.5 "/>
<text text-anchor="start" x="56" y="-158.5" font-family="Helvetica,sans-Serif" font-size="10.00">&#45; _model</text>
<text text-anchor="start" x="56" y="-147.5" font-family="Helvetica,sans-Serif" font-size="10.00">&#45; _texture</text>
<text text-anchor="start" x="56" y="-136.5" font-family="Helvetica,sans-Serif" font-size="10.00">&#45; _shader</text>
<polyline fill="none" stroke="black" points="48,-129.5 187,-129.5 "/>
<text text-anchor="start" x="56" y="-117.5" font-family="Helvetica,sans-Serif" font-size="10.00">+ Drawable3D()</text>
<text text-anchor="start" x="56" y="-106.5" font-family="Helvetica,sans-Serif" font-size="10.00">+ Drawable3D()</text>
<text text-anchor="start" x="56" y="-95.5" font-family="Helvetica,sans-Serif" font-size="10.00">+ Drawable3D()</text>
<text text-anchor="start" x="56" y="-84.5" font-family="Helvetica,sans-Serif" font-size="10.00">+ Drawable3D()</text>
<text text-anchor="start" x="56" y="-73.5" font-family="Helvetica,sans-Serif" font-size="10.00">+ ~Drawable3D()</text>
<text text-anchor="start" x="56" y="-62.5" font-family="Helvetica,sans-Serif" font-size="10.00">+ Draw()</text>
<text text-anchor="start" x="56" y="-51.5" font-family="Helvetica,sans-Serif" font-size="10.00">+ SetMaterialTexture()</text>
<text text-anchor="start" x="56" y="-40.5" font-family="Helvetica,sans-Serif" font-size="10.00">+ SetMaterialShader()</text>
<text text-anchor="start" x="56" y="-29.5" font-family="Helvetica,sans-Serif" font-size="10.00">+ SetTexture()</text>
<text text-anchor="start" x="56" y="-18.5" font-family="Helvetica,sans-Serif" font-size="10.00">+ SetModel()</text>
<text text-anchor="start" x="56" y="-7.5" font-family="Helvetica,sans-Serif" font-size="10.00">and 9 more...</text>
</a>
</g>
</g>
<!-- Node2 -->
<g id="node2" class="node">
<title>Node2</title>
<g id="a_node2"><a xlink:href="classECS_1_1IComponent.html" target="_top" xlink:title="Base Interface class to create a new component.">
<polygon fill="white" stroke="black" points="11,-265 11,-355 114,-355 114,-265 11,-265"/>
<text text-anchor="middle" x="62.5" y="-343" font-family="Helvetica,sans-Serif" font-size="10.00">ECS::IComponent</text>
<polyline fill="none" stroke="black" points="11,-336 114,-336 "/>
<text text-anchor="middle" x="62.5" y="-324" font-family="Helvetica,sans-Serif" font-size="10.00"> </text>
<polyline fill="none" stroke="black" points="11,-317 114,-317 "/>
<text text-anchor="start" x="19" y="-305" font-family="Helvetica,sans-Serif" font-size="10.00">+ IComponent()</text>
<text text-anchor="start" x="19" y="-294" font-family="Helvetica,sans-Serif" font-size="10.00">+ ~IComponent()</text>
<text text-anchor="start" x="19" y="-283" font-family="Helvetica,sans-Serif" font-size="10.00">+ IComponent()</text>
<text text-anchor="start" x="19" y="-272" font-family="Helvetica,sans-Serif" font-size="10.00">+ operator=()</text>
</a>
</g>
</g>
<!-- Node2&#45;&gt;Node1 -->
<g id="edge1" class="edge">
<title>Node2&#45;&gt;Node1</title>
<path fill="none" stroke="midnightblue" d="M76.42,-255.09C81.55,-235.21 87.53,-212.07 93.31,-189.7"/>
<polygon fill="none" stroke="midnightblue" points="73.01,-254.31 73.9,-264.87 79.79,-256.06 73.01,-254.31"/>
</g>
<!-- Node3 -->
<g id="node3" class="node">
<title>Node3</title>
<g id="a_node3"><a xlink:href="classIXMLSerializable.html" target="_top" xlink:title=" ">
<polygon fill="white" stroke="black" points="0,-420.5 0,-532.5 125,-532.5 125,-420.5 0,-420.5"/>
<text text-anchor="middle" x="62.5" y="-520.5" font-family="Helvetica,sans-Serif" font-size="10.00">IXMLSerializable</text>
<polyline fill="none" stroke="black" points="0,-513.5 125,-513.5 "/>
<text text-anchor="middle" x="62.5" y="-501.5" font-family="Helvetica,sans-Serif" font-size="10.00"> </text>
<polyline fill="none" stroke="black" points="0,-494.5 125,-494.5 "/>
<text text-anchor="start" x="8" y="-482.5" font-family="Helvetica,sans-Serif" font-size="10.00">+ IXMLSerializable()</text>
<text text-anchor="start" x="8" y="-471.5" font-family="Helvetica,sans-Serif" font-size="10.00">+ ~IXMLSerializable()</text>
<text text-anchor="start" x="8" y="-460.5" font-family="Helvetica,sans-Serif" font-size="10.00">+ IXMLSerializable()</text>
<text text-anchor="start" x="8" y="-449.5" font-family="Helvetica,sans-Serif" font-size="10.00">+ operator=()</text>
<text text-anchor="start" x="8" y="-438.5" font-family="Helvetica,sans-Serif" font-size="10.00">+ operator&lt;&lt;()</text>
<text text-anchor="start" x="8" y="-427.5" font-family="Helvetica,sans-Serif" font-size="10.00">+ operator&lt;&lt;()</text>
</a>
</g>
</g>
<!-- Node3&#45;&gt;Node2 -->
<g id="edge2" class="edge">
<title>Node3&#45;&gt;Node2</title>
<path fill="none" stroke="midnightblue" d="M62.5,-410.16C62.5,-391.71 62.5,-372.07 62.5,-355.18"/>
<polygon fill="none" stroke="midnightblue" points="59,-410.27 62.5,-420.27 66,-410.27 59,-410.27"/>
</g>
<!-- Node4 -->
<g id="node4" class="node">
<title>Node4</title>
<g id="a_node4"><a xlink:href="classRayLib_1_1Color.html" target="_top" xlink:title="RayLib Color encapsulation.">
<polygon fill="white" stroke="black" points="132,-237.5 132,-382.5 217,-382.5 217,-237.5 132,-237.5"/>
<text text-anchor="middle" x="174.5" y="-370.5" font-family="Helvetica,sans-Serif" font-size="10.00">RayLib::Color</text>
<polyline fill="none" stroke="black" points="132,-363.5 217,-363.5 "/>
<text text-anchor="middle" x="174.5" y="-351.5" font-family="Helvetica,sans-Serif" font-size="10.00"> </text>
<polyline fill="none" stroke="black" points="132,-344.5 217,-344.5 "/>
<text text-anchor="start" x="140" y="-332.5" font-family="Helvetica,sans-Serif" font-size="10.00">+ Color()</text>
<text text-anchor="start" x="140" y="-321.5" font-family="Helvetica,sans-Serif" font-size="10.00">+ Color()</text>
<text text-anchor="start" x="140" y="-310.5" font-family="Helvetica,sans-Serif" font-size="10.00">+ Color()</text>
<text text-anchor="start" x="140" y="-299.5" font-family="Helvetica,sans-Serif" font-size="10.00">+ Color()</text>
<text text-anchor="start" x="140" y="-288.5" font-family="Helvetica,sans-Serif" font-size="10.00">+ Color()</text>
<text text-anchor="start" x="140" y="-277.5" font-family="Helvetica,sans-Serif" font-size="10.00">+ ~Color()</text>
<text text-anchor="start" x="140" y="-266.5" font-family="Helvetica,sans-Serif" font-size="10.00">+ getColor()</text>
<text text-anchor="start" x="140" y="-255.5" font-family="Helvetica,sans-Serif" font-size="10.00">+ operator=()</text>
<text text-anchor="start" x="140" y="-244.5" font-family="Helvetica,sans-Serif" font-size="10.00">+ Lerp()</text>
</a>
</g>
</g>
<!-- Node4&#45;&gt;Node1 -->
<g id="edge3" class="edge">
<title>Node4&#45;&gt;Node1</title>
<path fill="none" stroke="#404040" d="M155.36,-237.48C152.25,-225.85 148.97,-213.59 145.69,-201.35"/>
<polygon fill="none" stroke="#404040" points="145.66,-201.24 140.25,-196.48 142.56,-189.65 147.98,-194.41 145.66,-201.24"/>
<text text-anchor="middle" x="168" y="-211" font-family="Helvetica,sans-Serif" font-size="10.00"> &#45;_color</text>
</g>
<!-- Node5 -->
<g id="node5" class="node">
<title>Node5</title>
<g id="a_node5"><a xlink:title=" ">
<polygon fill="white" stroke="#bfbfbf" points="153.5,-448 153.5,-505 195.5,-505 195.5,-448 153.5,-448"/>
<text text-anchor="middle" x="174.5" y="-493" font-family="Helvetica,sans-Serif" font-size="10.00">Color</text>
<polyline fill="none" stroke="#bfbfbf" points="153.5,-486 195.5,-486 "/>
<text text-anchor="middle" x="174.5" y="-474" font-family="Helvetica,sans-Serif" font-size="10.00"> </text>
<polyline fill="none" stroke="#bfbfbf" points="153.5,-467 195.5,-467 "/>
<text text-anchor="middle" x="174.5" y="-455" font-family="Helvetica,sans-Serif" font-size="10.00"> </text>
</a>
</g>
</g>
<!-- Node5&#45;&gt;Node4 -->
<g id="edge4" class="edge">
<title>Node5&#45;&gt;Node4</title>
<path fill="none" stroke="midnightblue" d="M174.5,-437.73C174.5,-421.35 174.5,-401.61 174.5,-382.63"/>
<polygon fill="none" stroke="midnightblue" points="171,-437.97 174.5,-447.97 178,-437.97 171,-437.97"/>
</g>
</g>
</svg>
