<?xml version="1.0" encoding="UTF-8" standalone="no"?>
<!DOCTYPE svg PUBLIC "-//W3C//DTD SVG 1.1//EN"
 "http://www.w3.org/Graphics/SVG/1.1/DTD/svg11.dtd">
<!-- Generated by graphviz version 2.43.0 (0)
 -->
<!-- Title: Component::SpeedBoost Pages: 1 -->
<svg width="574pt" height="1093pt"
 viewBox="0.00 0.00 574.00 1093.00" xmlns="http://www.w3.org/2000/svg" xmlns:xlink="http://www.w3.org/1999/xlink">
<g id="graph0" class="graph" transform="scale(1 1) rotate(0) translate(4 1089)">
<title>Component::SpeedBoost</title>
<polygon fill="white" stroke="transparent" points="-4,4 -4,-1089 570,-1089 570,4 -4,4"/>
<!-- Node1 -->
<g id="node1" class="node">
<title>Node1</title>
<g id="a_node1"><a xlink:title=" ">
<polygon fill="#bfbfbf" stroke="black" points="137,-0.5 137,-145.5 274,-145.5 274,-0.5 137,-0.5"/>
<text text-anchor="middle" x="205.5" y="-133.5" font-family="Helvetica,sans-Serif" font-size="10.00">Component::SpeedBoost</text>
<polyline fill="none" stroke="black" points="137,-126.5 274,-126.5 "/>
<text text-anchor="middle" x="205.5" y="-114.5" font-family="Helvetica,sans-Serif" font-size="10.00"> </text>
<polyline fill="none" stroke="black" points="137,-107.5 274,-107.5 "/>
<text text-anchor="start" x="145" y="-95.5" font-family="Helvetica,sans-Serif" font-size="10.00">+ SpeedBoost()</text>
<text text-anchor="start" x="145" y="-84.5" font-family="Helvetica,sans-Serif" font-size="10.00">+ ~SpeedBoost()</text>
<text text-anchor="start" x="145" y="-73.5" font-family="Helvetica,sans-Serif" font-size="10.00">+ SpeedBoost()</text>
<text text-anchor="start" x="145" y="-62.5" font-family="Helvetica,sans-Serif" font-size="10.00">+ operator=()</text>
<text text-anchor="start" x="145" y="-51.5" font-family="Helvetica,sans-Serif" font-size="10.00">+ OnPickup()</text>
<text text-anchor="start" x="145" y="-40.5" font-family="Helvetica,sans-Serif" font-size="10.00">+ ApplyBoost()</text>
<text text-anchor="start" x="145" y="-29.5" font-family="Helvetica,sans-Serif" font-size="10.00">+ LateUpdate()</text>
<text text-anchor="start" x="145" y="-18.5" font-family="Helvetica,sans-Serif" font-size="10.00">+ operator&lt;&lt;()</text>
<text text-anchor="start" x="145" y="-7.5" font-family="Helvetica,sans-Serif" font-size="10.00">+ operator&lt;&lt;()</text>
</a>
</g>
</g>
<!-- Node2 -->
<g id="node2" class="node">
<title>Node2</title>
<g id="a_node2"><a xlink:href="classComponent_1_1APickUp.html" target="_top" xlink:title=" ">
<polygon fill="white" stroke="black" points="146,-183.5 146,-328.5 265,-328.5 265,-183.5 146,-183.5"/>
<text text-anchor="middle" x="205.5" y="-316.5" font-family="Helvetica,sans-Serif" font-size="10.00">Component::APickUp</text>
<polyline fill="none" stroke="black" points="146,-309.5 265,-309.5 "/>
<text text-anchor="start" x="154" y="-297.5" font-family="Helvetica,sans-Serif" font-size="10.00"># _pickupRadius</text>
<polyline fill="none" stroke="black" points="146,-290.5 265,-290.5 "/>
<text text-anchor="start" x="154" y="-278.5" font-family="Helvetica,sans-Serif" font-size="10.00">+ APickUp()</text>
<text text-anchor="start" x="154" y="-267.5" font-family="Helvetica,sans-Serif" font-size="10.00">+ ~APickUp()</text>
<text text-anchor="start" x="154" y="-256.5" font-family="Helvetica,sans-Serif" font-size="10.00">+ APickUp()</text>
<text text-anchor="start" x="154" y="-245.5" font-family="Helvetica,sans-Serif" font-size="10.00">+ operator=()</text>
<text text-anchor="start" x="154" y="-234.5" font-family="Helvetica,sans-Serif" font-size="10.00">+ OnPickup()</text>
<text text-anchor="start" x="154" y="-223.5" font-family="Helvetica,sans-Serif" font-size="10.00">+ Update()</text>
<text text-anchor="start" x="154" y="-212.5" font-family="Helvetica,sans-Serif" font-size="10.00">+ FixedUpdate()</text>
<text text-anchor="start" x="154" y="-201.5" font-family="Helvetica,sans-Serif" font-size="10.00">+ LateUpdate()</text>
<text text-anchor="start" x="154" y="-190.5" font-family="Helvetica,sans-Serif" font-size="10.00"># getPlayerNbr()</text>
</a>
</g>
</g>
<!-- Node2&#45;&gt;Node1 -->
<g id="edge1" class="edge">
<title>Node2&#45;&gt;Node1</title>
<path fill="none" stroke="midnightblue" d="M205.5,-173.46C205.5,-164.17 205.5,-154.75 205.5,-145.61"/>
<polygon fill="none" stroke="midnightblue" points="202,-173.46 205.5,-183.46 209,-173.46 202,-173.46"/>
</g>
<!-- Node3 -->
<g id="node3" class="node">
<title>Node3</title>
<g id="a_node3"><a xlink:href="classComponent_1_1IBehaviour.html" target="_top" xlink:title="IBehaviour base component (CF Monobehaviour class in Unity)">
<polygon fill="white" stroke="black" points="0,-464.5 0,-587.5 131,-587.5 131,-464.5 0,-464.5"/>
<text text-anchor="middle" x="65.5" y="-575.5" font-family="Helvetica,sans-Serif" font-size="10.00">Component::IBehaviour</text>
<polyline fill="none" stroke="black" points="0,-568.5 131,-568.5 "/>
<text text-anchor="middle" x="65.5" y="-556.5" font-family="Helvetica,sans-Serif" font-size="10.00"> </text>
<polyline fill="none" stroke="black" points="0,-549.5 131,-549.5 "/>
<text text-anchor="start" x="8" y="-537.5" font-family="Helvetica,sans-Serif" font-size="10.00">+ IBehaviour()</text>
<text text-anchor="start" x="8" y="-526.5" font-family="Helvetica,sans-Serif" font-size="10.00">+ ~IBehaviour()</text>
<text text-anchor="start" x="8" y="-515.5" font-family="Helvetica,sans-Serif" font-size="10.00">+ IBehaviour()</text>
<text text-anchor="start" x="8" y="-504.5" font-family="Helvetica,sans-Serif" font-size="10.00">+ operator=()</text>
<text text-anchor="start" x="8" y="-493.5" font-family="Helvetica,sans-Serif" font-size="10.00">+ Update()</text>
<text text-anchor="start" x="8" y="-482.5" font-family="Helvetica,sans-Serif" font-size="10.00">+ FixedUpdate()</text>
<text text-anchor="start" x="8" y="-471.5" font-family="Helvetica,sans-Serif" font-size="10.00">+ LateUpdate()</text>
</a>
</g>
</g>
<!-- Node3&#45;&gt;Node2 -->
<g id="edge2" class="edge">
<title>Node3&#45;&gt;Node2</title>
<path fill="none" stroke="midnightblue" d="M99.41,-455.08C111.78,-430.01 126.04,-401.62 139.5,-376 147.57,-360.63 156.45,-344.27 165.01,-328.77"/>
<polygon fill="none" stroke="midnightblue" points="96.22,-453.63 94.94,-464.15 102.5,-456.72 96.22,-453.63"/>
</g>
<!-- Node4 -->
<g id="node4" class="node">
<title>Node4</title>
<g id="a_node4"><a xlink:href="classECS_1_1IComponent.html" target="_top" xlink:title="Base Interface class to create a new component.">
<polygon fill="white" stroke="black" points="14,-784 14,-874 117,-874 117,-784 14,-784"/>
<text text-anchor="middle" x="65.5" y="-862" font-family="Helvetica,sans-Serif" font-size="10.00">ECS::IComponent</text>
<polyline fill="none" stroke="black" points="14,-855 117,-855 "/>
<text text-anchor="middle" x="65.5" y="-843" font-family="Helvetica,sans-Serif" font-size="10.00"> </text>
<polyline fill="none" stroke="black" points="14,-836 117,-836 "/>
<text text-anchor="start" x="22" y="-824" font-family="Helvetica,sans-Serif" font-size="10.00">+ IComponent()</text>
<text text-anchor="start" x="22" y="-813" font-family="Helvetica,sans-Serif" font-size="10.00">+ ~IComponent()</text>
<text text-anchor="start" x="22" y="-802" font-family="Helvetica,sans-Serif" font-size="10.00">+ IComponent()</text>
<text text-anchor="start" x="22" y="-791" font-family="Helvetica,sans-Serif" font-size="10.00">+ operator=()</text>
</a>
</g>
</g>
<!-- Node4&#45;&gt;Node3 -->
<g id="edge3" class="edge">
<title>Node4&#45;&gt;Node3</title>
<path fill="none" stroke="midnightblue" d="M65.5,-773.8C65.5,-721.38 65.5,-642.09 65.5,-587.61"/>
<polygon fill="none" stroke="midnightblue" points="62,-773.91 65.5,-783.91 69,-773.91 62,-773.91"/>
</g>
<!-- Node5 -->
<g id="node5" class="node">
<title>Node5</title>
<g id="a_node5"><a xlink:href="classIXMLSerializable.html" target="_top" xlink:title=" ">
<polygon fill="white" stroke="black" points="3,-972.5 3,-1084.5 128,-1084.5 128,-972.5 3,-972.5"/>
<text text-anchor="middle" x="65.5" y="-1072.5" font-family="Helvetica,sans-Serif" font-size="10.00">IXMLSerializable</text>
<polyline fill="none" stroke="black" points="3,-1065.5 128,-1065.5 "/>
<text text-anchor="middle" x="65.5" y="-1053.5" font-family="Helvetica,sans-Serif" font-size="10.00"> </text>
<polyline fill="none" stroke="black" points="3,-1046.5 128,-1046.5 "/>
<text text-anchor="start" x="11" y="-1034.5" font-family="Helvetica,sans-Serif" font-size="10.00">+ IXMLSerializable()</text>
<text text-anchor="start" x="11" y="-1023.5" font-family="Helvetica,sans-Serif" font-size="10.00">+ ~IXMLSerializable()</text>
<text text-anchor="start" x="11" y="-1012.5" font-family="Helvetica,sans-Serif" font-size="10.00">+ IXMLSerializable()</text>
<text text-anchor="start" x="11" y="-1001.5" font-family="Helvetica,sans-Serif" font-size="10.00">+ operator=()</text>
<text text-anchor="start" x="11" y="-990.5" font-family="Helvetica,sans-Serif" font-size="10.00">+ operator&lt;&lt;()</text>
<text text-anchor="start" x="11" y="-979.5" font-family="Helvetica,sans-Serif" font-size="10.00">+ operator&lt;&lt;()</text>
</a>
</g>
</g>
<!-- Node5&#45;&gt;Node4 -->
<g id="edge4" class="edge">
<title>Node5&#45;&gt;Node4</title>
<path fill="none" stroke="midnightblue" d="M65.5,-962.44C65.5,-933.47 65.5,-900.1 65.5,-874.11"/>
<polygon fill="none" stroke="midnightblue" points="62,-962.49 65.5,-972.49 69,-962.49 62,-962.49"/>
</g>
<!-- Node6 -->
<g id="node6" class="node">
<title>Node6</title>
<g id="a_node6"><a xlink:href="classECS_1_1Coordinator.html" target="_top" xlink:title="Public class used to manipulates scenes and theirs entities and systems.">
<polygon fill="white" stroke="black" points="149,-376.5 149,-675.5 262,-675.5 262,-376.5 149,-376.5"/>
<text text-anchor="middle" x="205.5" y="-663.5" font-family="Helvetica,sans-Serif" font-size="10.00">ECS::Coordinator</text>
<polyline fill="none" stroke="black" points="149,-656.5 262,-656.5 "/>
<text text-anchor="start" x="157" y="-644.5" font-family="Helvetica,sans-Serif" font-size="10.00">+ CloseWindow</text>
<text text-anchor="start" x="157" y="-633.5" font-family="Helvetica,sans-Serif" font-size="10.00">&#45; _scenes</text>
<text text-anchor="start" x="157" y="-622.5" font-family="Helvetica,sans-Serif" font-size="10.00">&#45; _currentScene</text>
<text text-anchor="start" x="157" y="-611.5" font-family="Helvetica,sans-Serif" font-size="10.00">&#45; _fixedDeltaTime</text>
<text text-anchor="start" x="157" y="-600.5" font-family="Helvetica,sans-Serif" font-size="10.00">&#45; _duration</text>
<text text-anchor="start" x="157" y="-589.5" font-family="Helvetica,sans-Serif" font-size="10.00">&#45; _lastRun</text>
<text text-anchor="start" x="157" y="-578.5" font-family="Helvetica,sans-Serif" font-size="10.00">&#45; _firstRun</text>
<text text-anchor="start" x="157" y="-567.5" font-family="Helvetica,sans-Serif" font-size="10.00">&#45; _gameIsRunning</text>
<text text-anchor="start" x="157" y="-556.5" font-family="Helvetica,sans-Serif" font-size="10.00">&#45; _coordinator</text>
<polyline fill="none" stroke="black" points="149,-549.5 262,-549.5 "/>
<text text-anchor="start" x="157" y="-537.5" font-family="Helvetica,sans-Serif" font-size="10.00">+ Coordinator()</text>
<text text-anchor="start" x="157" y="-526.5" font-family="Helvetica,sans-Serif" font-size="10.00">+ ~Coordinator()</text>
<text text-anchor="start" x="157" y="-515.5" font-family="Helvetica,sans-Serif" font-size="10.00">+ Coordinator()</text>
<text text-anchor="start" x="157" y="-504.5" font-family="Helvetica,sans-Serif" font-size="10.00">+ operator=()</text>
<text text-anchor="start" x="157" y="-493.5" font-family="Helvetica,sans-Serif" font-size="10.00">+ AddSystem()</text>
<text text-anchor="start" x="157" y="-482.5" font-family="Helvetica,sans-Serif" font-size="10.00">+ CreateEntity()</text>
<text text-anchor="start" x="157" y="-471.5" font-family="Helvetica,sans-Serif" font-size="10.00">+ RemoveSystem()</text>
<text text-anchor="start" x="157" y="-460.5" font-family="Helvetica,sans-Serif" font-size="10.00">+ GetSystem()</text>
<text text-anchor="start" x="157" y="-449.5" font-family="Helvetica,sans-Serif" font-size="10.00">+ HasSystem()</text>
<text text-anchor="start" x="157" y="-438.5" font-family="Helvetica,sans-Serif" font-size="10.00">+ Run()</text>
<text text-anchor="start" x="157" y="-427.5" font-family="Helvetica,sans-Serif" font-size="10.00">and 9 more...</text>
<text text-anchor="start" x="157" y="-416.5" font-family="Helvetica,sans-Serif" font-size="10.00">+ GetInstance()</text>
<text text-anchor="start" x="157" y="-405.5" font-family="Helvetica,sans-Serif" font-size="10.00">&#45; Update()</text>
<text text-anchor="start" x="157" y="-394.5" font-family="Helvetica,sans-Serif" font-size="10.00">&#45; FixedUpdate()</text>
<text text-anchor="start" x="157" y="-383.5" font-family="Helvetica,sans-Serif" font-size="10.00">&#45; LateUpdate()</text>
</a>
</g>
</g>
<!-- Node6&#45;&gt;Node2 -->
<g id="edge5" class="edge">
<title>Node6&#45;&gt;Node2</title>
<path fill="none" stroke="#404040" d="M205.5,-376.5C205.5,-364.35 205.5,-352.36 205.5,-340.94"/>
<polygon fill="none" stroke="#404040" points="205.5,-340.78 201.5,-334.78 205.5,-328.78 209.5,-334.78 205.5,-340.78"/>
<text text-anchor="middle" x="242" y="-350" font-family="Helvetica,sans-Serif" font-size="10.00"> #_coordinator</text>
</g>
<!-- Node7 -->
<g id="node7" class="node">
<title>Node7</title>
<g id="a_node7"><a xlink:href="classECS_1_1SystemManager.html" target="_top" xlink:title="Class used to manipulate Systems.">
<polygon fill="white" stroke="black" points="141,-756.5 141,-901.5 264,-901.5 264,-756.5 141,-756.5"/>
<text text-anchor="middle" x="202.5" y="-889.5" font-family="Helvetica,sans-Serif" font-size="10.00">ECS::SystemManager</text>
<polyline fill="none" stroke="black" points="141,-882.5 264,-882.5 "/>
<text text-anchor="start" x="149" y="-870.5" font-family="Helvetica,sans-Serif" font-size="10.00">&#45; _systems</text>
<polyline fill="none" stroke="black" points="141,-863.5 264,-863.5 "/>
<text text-anchor="start" x="149" y="-851.5" font-family="Helvetica,sans-Serif" font-size="10.00">+ SystemManager()</text>
<text text-anchor="start" x="149" y="-840.5" font-family="Helvetica,sans-Serif" font-size="10.00">+ ~SystemManager()</text>
<text text-anchor="start" x="149" y="-829.5" font-family="Helvetica,sans-Serif" font-size="10.00">+ SystemManager()</text>
<text text-anchor="start" x="149" y="-818.5" font-family="Helvetica,sans-Serif" font-size="10.00">+ operator=()</text>
<text text-anchor="start" x="149" y="-807.5" font-family="Helvetica,sans-Serif" font-size="10.00">+ AddSystem()</text>
<text text-anchor="start" x="149" y="-796.5" font-family="Helvetica,sans-Serif" font-size="10.00">+ RemoveSystem()</text>
<text text-anchor="start" x="149" y="-785.5" font-family="Helvetica,sans-Serif" font-size="10.00">+ HasSystem()</text>
<text text-anchor="start" x="149" y="-774.5" font-family="Helvetica,sans-Serif" font-size="10.00">+ GetSystem()</text>
<text text-anchor="start" x="149" y="-763.5" font-family="Helvetica,sans-Serif" font-size="10.00">+ GetSystems()</text>
</a>
</g>
</g>
<!-- Node7&#45;&gt;Node6 -->
<g id="edge6" class="edge">
<title>Node7&#45;&gt;Node6</title>
<path fill="none" stroke="#404040" d="M203.21,-756.29C203.42,-735.46 203.66,-711.83 203.9,-687.85"/>
<polygon fill="none" stroke="#404040" points="203.9,-687.68 199.96,-681.64 204.02,-675.68 207.96,-681.72 203.9,-687.68"/>
<text text-anchor="middle" x="250" y="-697" font-family="Helvetica,sans-Serif" font-size="10.00"> &#45;_systemManager</text>
</g>
<!-- Node8 -->
<g id="node8" class="node">
<title>Node8</title>
<g id="a_node8"><a xlink:href="classECS_1_1Entity.html" target="_top" xlink:title="Scene object containing components and an ID.">
<polygon fill="white" stroke="black" points="282.5,-437 282.5,-615 396.5,-615 396.5,-437 282.5,-437"/>
<text text-anchor="middle" x="339.5" y="-603" font-family="Helvetica,sans-Serif" font-size="10.00">ECS::Entity</text>
<polyline fill="none" stroke="black" points="282.5,-596 396.5,-596 "/>
<text text-anchor="start" x="290.5" y="-584" font-family="Helvetica,sans-Serif" font-size="10.00">&#45; _id</text>
<text text-anchor="start" x="290.5" y="-573" font-family="Helvetica,sans-Serif" font-size="10.00">&#45; _tag</text>
<polyline fill="none" stroke="black" points="282.5,-566 396.5,-566 "/>
<text text-anchor="start" x="290.5" y="-554" font-family="Helvetica,sans-Serif" font-size="10.00">+ Entity()</text>
<text text-anchor="start" x="290.5" y="-543" font-family="Helvetica,sans-Serif" font-size="10.00">+ Entity()</text>
<text text-anchor="start" x="290.5" y="-532" font-family="Helvetica,sans-Serif" font-size="10.00">+ ~Entity()</text>
<text text-anchor="start" x="290.5" y="-521" font-family="Helvetica,sans-Serif" font-size="10.00">+ Entity()</text>
<text text-anchor="start" x="290.5" y="-510" font-family="Helvetica,sans-Serif" font-size="10.00">+ operator=()</text>
<text text-anchor="start" x="290.5" y="-499" font-family="Helvetica,sans-Serif" font-size="10.00">+ GetComponent()</text>
<text text-anchor="start" x="290.5" y="-488" font-family="Helvetica,sans-Serif" font-size="10.00">+ OfType()</text>
<text text-anchor="start" x="290.5" y="-477" font-family="Helvetica,sans-Serif" font-size="10.00">+ GetComponents()</text>
<text text-anchor="start" x="290.5" y="-466" font-family="Helvetica,sans-Serif" font-size="10.00">+ AddComponent()</text>
<text text-anchor="start" x="290.5" y="-455" font-family="Helvetica,sans-Serif" font-size="10.00">+ AddComponent()</text>
<text text-anchor="start" x="290.5" y="-444" font-family="Helvetica,sans-Serif" font-size="10.00">and 9 more...</text>
</a>
</g>
</g>
<!-- Node8&#45;&gt;Node2 -->
<g id="edge7" class="edge">
<title>Node8&#45;&gt;Node2</title>
<path fill="none" stroke="#404040" d="M318.73,-436.57C309.85,-407.03 297.91,-374.63 282.5,-347 279.45,-341.53 276.03,-336.08 272.38,-330.74"/>
<polygon fill="none" stroke="#404040" points="272.1,-330.35 265.35,-327.81 265.11,-320.6 271.85,-323.14 272.1,-330.35"/>
<text text-anchor="middle" x="310.5" y="-350" font-family="Helvetica,sans-Serif" font-size="10.00"> #_entity</text>
</g>
<!-- Node9 -->
<g id="node9" class="node">
<title>Node9</title>
<g id="a_node9"><a xlink:href="classECS_1_1EntityManager.html" target="_top" xlink:title="Class used to manipulate Entities (a.k.a A Scene)">
<polygon fill="white" stroke="black" points="282,-756.5 282,-901.5 397,-901.5 397,-756.5 282,-756.5"/>
<text text-anchor="middle" x="339.5" y="-889.5" font-family="Helvetica,sans-Serif" font-size="10.00">ECS::EntityManager</text>
<polyline fill="none" stroke="black" points="282,-882.5 397,-882.5 "/>
<text text-anchor="start" x="290" y="-870.5" font-family="Helvetica,sans-Serif" font-size="10.00">&#45; _available</text>
<text text-anchor="start" x="290" y="-859.5" font-family="Helvetica,sans-Serif" font-size="10.00">&#45; _max</text>
<text text-anchor="start" x="290" y="-848.5" font-family="Helvetica,sans-Serif" font-size="10.00">&#45; _entities</text>
<polyline fill="none" stroke="black" points="282,-841.5 397,-841.5 "/>
<text text-anchor="start" x="290" y="-829.5" font-family="Helvetica,sans-Serif" font-size="10.00">+ EntityManager()</text>
<text text-anchor="start" x="290" y="-818.5" font-family="Helvetica,sans-Serif" font-size="10.00">+ ~EntityManager()</text>
<text text-anchor="start" x="290" y="-807.5" font-family="Helvetica,sans-Serif" font-size="10.00">+ EntityManager()</text>
<text text-anchor="start" x="290" y="-796.5" font-family="Helvetica,sans-Serif" font-size="10.00">+ operator=()</text>
<text text-anchor="start" x="290" y="-785.5" font-family="Helvetica,sans-Serif" font-size="10.00">+ CreateEntity()</text>
<text text-anchor="start" x="290" y="-774.5" font-family="Helvetica,sans-Serif" font-size="10.00">+ DeleteEntity()</text>
<text text-anchor="start" x="290" y="-763.5" font-family="Helvetica,sans-Serif" font-size="10.00">+ GetEntities()</text>
</a>
</g>
</g>
<!-- Node9&#45;&gt;Node8 -->
<g id="edge8" class="edge">
<title>Node9&#45;&gt;Node8</title>
<path fill="none" stroke="#404040" d="M339.5,-756.29C339.5,-717.67 339.5,-669.41 339.5,-627.14"/>
<polygon fill="none" stroke="#404040" points="339.5,-627.1 335.5,-621.1 339.5,-615.1 343.5,-621.1 339.5,-627.1"/>
<text text-anchor="middle" x="381.5" y="-697" font-family="Helvetica,sans-Serif" font-size="10.00"> &#45;_entityManager</text>
</g>
<!-- Node10 -->
<g id="node10" class="node">
<title>Node10</title>
<g id="a_node10"><a xlink:href="classECS_1_1ComponentManager.html" target="_top" xlink:title="Class used to manipulate Components.">
<polygon fill="white" stroke="black" points="415,-723.5 415,-934.5 566,-934.5 566,-723.5 415,-723.5"/>
<text text-anchor="middle" x="490.5" y="-922.5" font-family="Helvetica,sans-Serif" font-size="10.00">ECS::ComponentManager</text>
<polyline fill="none" stroke="black" points="415,-915.5 566,-915.5 "/>
<text text-anchor="start" x="423" y="-903.5" font-family="Helvetica,sans-Serif" font-size="10.00">&#45; _bases</text>
<text text-anchor="start" x="423" y="-892.5" font-family="Helvetica,sans-Serif" font-size="10.00">&#45; _components</text>
<polyline fill="none" stroke="black" points="415,-885.5 566,-885.5 "/>
<text text-anchor="start" x="423" y="-873.5" font-family="Helvetica,sans-Serif" font-size="10.00">+ ComponentManager()</text>
<text text-anchor="start" x="423" y="-862.5" font-family="Helvetica,sans-Serif" font-size="10.00">+ ~ComponentManager()</text>
<text text-anchor="start" x="423" y="-851.5" font-family="Helvetica,sans-Serif" font-size="10.00">+ ComponentManager()</text>
<text text-anchor="start" x="423" y="-840.5" font-family="Helvetica,sans-Serif" font-size="10.00">+ operator=()</text>
<text text-anchor="start" x="423" y="-829.5" font-family="Helvetica,sans-Serif" font-size="10.00">+ GetComponent()</text>
<text text-anchor="start" x="423" y="-818.5" font-family="Helvetica,sans-Serif" font-size="10.00">+ OfType()</text>
<text text-anchor="start" x="423" y="-807.5" font-family="Helvetica,sans-Serif" font-size="10.00">+ GetComponents()</text>
<text text-anchor="start" x="423" y="-796.5" font-family="Helvetica,sans-Serif" font-size="10.00">+ AddComponent()</text>
<text text-anchor="start" x="423" y="-785.5" font-family="Helvetica,sans-Serif" font-size="10.00">+ AddComponent()</text>
<text text-anchor="start" x="423" y="-774.5" font-family="Helvetica,sans-Serif" font-size="10.00">+ RemoveComponent()</text>
<text text-anchor="start" x="423" y="-763.5" font-family="Helvetica,sans-Serif" font-size="10.00">+ HasComponent()</text>
<text text-anchor="start" x="423" y="-752.5" font-family="Helvetica,sans-Serif" font-size="10.00">+ HasComponent()</text>
<text text-anchor="start" x="423" y="-741.5" font-family="Helvetica,sans-Serif" font-size="10.00">+ HasComponents()</text>
<text text-anchor="start" x="423" y="-730.5" font-family="Helvetica,sans-Serif" font-size="10.00">+ GetComponentByName()</text>
</a>
</g>
</g>
<!-- Node10&#45;&gt;Node8 -->
<g id="edge9" class="edge">
<title>Node10&#45;&gt;Node8</title>
<path fill="none" stroke="#404040" d="M441.78,-723.17C437.01,-713.28 432.2,-703.43 427.5,-694 416.45,-671.82 404.25,-648.17 392.54,-625.85"/>
<polygon fill="none" stroke="#404040" points="392.43,-625.64 386.09,-622.19 386.84,-615.02 393.17,-618.46 392.43,-625.64"/>
<text text-anchor="middle" x="488.5" y="-697" font-family="Helvetica,sans-Serif" font-size="10.00"> &#45;_componentManager</text>
</g>
</g>
</svg>
