<?xml version="1.0" encoding="UTF-8" standalone="no"?>
<!DOCTYPE svg PUBLIC "-//W3C//DTD SVG 1.1//EN"
 "http://www.w3.org/Graphics/SVG/1.1/DTD/svg11.dtd">
<!-- Generated by graphviz version 2.43.0 (0)
 -->
<!-- Title: Component::HUDBonusBar Pages: 1 -->
<svg width="537pt" height="1545pt"
 viewBox="0.00 0.00 537.00 1545.00" xmlns="http://www.w3.org/2000/svg" xmlns:xlink="http://www.w3.org/1999/xlink">
<g id="graph0" class="graph" transform="scale(1 1) rotate(0) translate(4 1541)">
<title>Component::HUDBonusBar</title>
<polygon fill="white" stroke="transparent" points="-4,4 -4,-1541 533,-1541 533,4 -4,4"/>
<!-- Node1 -->
<g id="node1" class="node">
<title>Node1</title>
<g id="a_node1"><a xlink:title=" ">
<polygon fill="#bfbfbf" stroke="black" points="101.5,-0.5 101.5,-178.5 249.5,-178.5 249.5,-0.5 101.5,-0.5"/>
<text text-anchor="middle" x="175.5" y="-166.5" font-family="Helvetica,sans-Serif" font-size="10.00">Component::HUDBonusBar</text>
<polyline fill="none" stroke="black" points="101.5,-159.5 249.5,-159.5 "/>
<text text-anchor="start" x="109.5" y="-147.5" font-family="Helvetica,sans-Serif" font-size="10.00">&#45; _timer</text>
<text text-anchor="start" x="109.5" y="-136.5" font-family="Helvetica,sans-Serif" font-size="10.00">&#45; _maxTimer</text>
<text text-anchor="start" x="109.5" y="-125.5" font-family="Helvetica,sans-Serif" font-size="10.00">&#45; _entityTag</text>
<text text-anchor="start" x="109.5" y="-114.5" font-family="Helvetica,sans-Serif" font-size="10.00">&#45; _isBg</text>
<polyline fill="none" stroke="black" points="101.5,-107.5 249.5,-107.5 "/>
<text text-anchor="start" x="109.5" y="-95.5" font-family="Helvetica,sans-Serif" font-size="10.00">+ HUDBonusBar()</text>
<text text-anchor="start" x="109.5" y="-84.5" font-family="Helvetica,sans-Serif" font-size="10.00">+ ~HUDBonusBar()</text>
<text text-anchor="start" x="109.5" y="-73.5" font-family="Helvetica,sans-Serif" font-size="10.00">+ HUDBonusBar()</text>
<text text-anchor="start" x="109.5" y="-62.5" font-family="Helvetica,sans-Serif" font-size="10.00">+ operator=()</text>
<text text-anchor="start" x="109.5" y="-51.5" font-family="Helvetica,sans-Serif" font-size="10.00">+ Update()</text>
<text text-anchor="start" x="109.5" y="-40.5" font-family="Helvetica,sans-Serif" font-size="10.00">+ FixedUpdate()</text>
<text text-anchor="start" x="109.5" y="-29.5" font-family="Helvetica,sans-Serif" font-size="10.00">+ LateUpdate()</text>
<text text-anchor="start" x="109.5" y="-18.5" font-family="Helvetica,sans-Serif" font-size="10.00">+ operator&lt;&lt;()</text>
<text text-anchor="start" x="109.5" y="-7.5" font-family="Helvetica,sans-Serif" font-size="10.00">+ operator&lt;&lt;()</text>
</a>
</g>
</g>
<!-- Node2 -->
<g id="node2" class="node">
<title>Node2</title>
<g id="a_node2"><a xlink:href="classComponent_1_1HUD.html" target="_top" xlink:title="HUD base component class.">
<polygon fill="white" stroke="black" points="98,-216.5 98,-372.5 253,-372.5 253,-216.5 98,-216.5"/>
<text text-anchor="middle" x="175.5" y="-360.5" font-family="Helvetica,sans-Serif" font-size="10.00">Component::HUD</text>
<polyline fill="none" stroke="black" points="98,-353.5 253,-353.5 "/>
<text text-anchor="middle" x="175.5" y="-341.5" font-family="Helvetica,sans-Serif" font-size="10.00"> </text>
<polyline fill="none" stroke="black" points="98,-334.5 253,-334.5 "/>
<text text-anchor="start" x="106" y="-322.5" font-family="Helvetica,sans-Serif" font-size="10.00">+ HUD()</text>
<text text-anchor="start" x="106" y="-311.5" font-family="Helvetica,sans-Serif" font-size="10.00">+ ~HUD()</text>
<text text-anchor="start" x="106" y="-300.5" font-family="Helvetica,sans-Serif" font-size="10.00">+ HUD()</text>
<text text-anchor="start" x="106" y="-289.5" font-family="Helvetica,sans-Serif" font-size="10.00">+ operator=()</text>
<text text-anchor="start" x="106" y="-278.5" font-family="Helvetica,sans-Serif" font-size="10.00">+ getOffset()</text>
<text text-anchor="start" x="106" y="-267.5" font-family="Helvetica,sans-Serif" font-size="10.00">+ getAController()</text>
<text text-anchor="start" x="106" y="-256.5" font-family="Helvetica,sans-Serif" font-size="10.00">+ Update()</text>
<text text-anchor="start" x="106" y="-245.5" font-family="Helvetica,sans-Serif" font-size="10.00">+ FixedUpdate()</text>
<text text-anchor="start" x="106" y="-234.5" font-family="Helvetica,sans-Serif" font-size="10.00">+ LateUpdate()</text>
<text text-anchor="start" x="106" y="-223.5" font-family="Helvetica,sans-Serif" font-size="10.00">+ GetOffsetFromPlayerNbr()</text>
</a>
</g>
</g>
<!-- Node2&#45;&gt;Node1 -->
<g id="edge1" class="edge">
<title>Node2&#45;&gt;Node1</title>
<path fill="none" stroke="midnightblue" d="M175.5,-206.25C175.5,-197.12 175.5,-187.84 175.5,-178.7"/>
<polygon fill="none" stroke="midnightblue" points="172,-206.46 175.5,-216.46 179,-206.46 172,-206.46"/>
</g>
<!-- Node3 -->
<g id="node3" class="node">
<title>Node3</title>
<g id="a_node3"><a xlink:href="classComponent_1_1IBehaviour.html" target="_top" xlink:title="IBehaviour base component (CF Monobehaviour class in Unity)">
<polygon fill="white" stroke="black" points="0,-977 0,-1100 131,-1100 131,-977 0,-977"/>
<text text-anchor="middle" x="65.5" y="-1088" font-family="Helvetica,sans-Serif" font-size="10.00">Component::IBehaviour</text>
<polyline fill="none" stroke="black" points="0,-1081 131,-1081 "/>
<text text-anchor="middle" x="65.5" y="-1069" font-family="Helvetica,sans-Serif" font-size="10.00"> </text>
<polyline fill="none" stroke="black" points="0,-1062 131,-1062 "/>
<text text-anchor="start" x="8" y="-1050" font-family="Helvetica,sans-Serif" font-size="10.00">+ IBehaviour()</text>
<text text-anchor="start" x="8" y="-1039" font-family="Helvetica,sans-Serif" font-size="10.00">+ ~IBehaviour()</text>
<text text-anchor="start" x="8" y="-1028" font-family="Helvetica,sans-Serif" font-size="10.00">+ IBehaviour()</text>
<text text-anchor="start" x="8" y="-1017" font-family="Helvetica,sans-Serif" font-size="10.00">+ operator=()</text>
<text text-anchor="start" x="8" y="-1006" font-family="Helvetica,sans-Serif" font-size="10.00">+ Update()</text>
<text text-anchor="start" x="8" y="-995" font-family="Helvetica,sans-Serif" font-size="10.00">+ FixedUpdate()</text>
<text text-anchor="start" x="8" y="-984" font-family="Helvetica,sans-Serif" font-size="10.00">+ LateUpdate()</text>
</a>
</g>
</g>
<!-- Node3&#45;&gt;Node2 -->
<g id="edge2" class="edge">
<title>Node3&#45;&gt;Node2</title>
<path fill="none" stroke="midnightblue" d="M54.91,-966.91C52.4,-946.06 50.23,-923.16 49.5,-902 42.09,-686.76 16.78,-618.85 99.5,-420 106.11,-404.1 114.58,-387.86 123.44,-372.59"/>
<polygon fill="none" stroke="midnightblue" points="51.46,-967.47 56.17,-976.96 58.4,-966.6 51.46,-967.47"/>
</g>
<!-- Node6 -->
<g id="node6" class="node">
<title>Node6</title>
<g id="a_node6"><a xlink:href="classComponent_1_1AController.html" target="_top" xlink:title=" ">
<polygon fill="white" stroke="black" points="108.5,-420.5 108.5,-576.5 242.5,-576.5 242.5,-420.5 108.5,-420.5"/>
<text text-anchor="middle" x="175.5" y="-564.5" font-family="Helvetica,sans-Serif" font-size="10.00">Component::AController</text>
<polyline fill="none" stroke="black" points="108.5,-557.5 242.5,-557.5 "/>
<text text-anchor="middle" x="175.5" y="-545.5" font-family="Helvetica,sans-Serif" font-size="10.00"> </text>
<polyline fill="none" stroke="black" points="108.5,-538.5 242.5,-538.5 "/>
<text text-anchor="start" x="116.5" y="-526.5" font-family="Helvetica,sans-Serif" font-size="10.00">+ AController()</text>
<text text-anchor="start" x="116.5" y="-515.5" font-family="Helvetica,sans-Serif" font-size="10.00">+ ~AController()</text>
<text text-anchor="start" x="116.5" y="-504.5" font-family="Helvetica,sans-Serif" font-size="10.00">+ AController()</text>
<text text-anchor="start" x="116.5" y="-493.5" font-family="Helvetica,sans-Serif" font-size="10.00">+ operator=()</text>
<text text-anchor="start" x="116.5" y="-482.5" font-family="Helvetica,sans-Serif" font-size="10.00">+ GetMovement()</text>
<text text-anchor="start" x="116.5" y="-471.5" font-family="Helvetica,sans-Serif" font-size="10.00">+ GetDropBomb()</text>
<text text-anchor="start" x="116.5" y="-460.5" font-family="Helvetica,sans-Serif" font-size="10.00">+ GetAController()</text>
<text text-anchor="start" x="116.5" y="-449.5" font-family="Helvetica,sans-Serif" font-size="10.00">+ Update()</text>
<text text-anchor="start" x="116.5" y="-438.5" font-family="Helvetica,sans-Serif" font-size="10.00">+ FixedUpdate()</text>
<text text-anchor="start" x="116.5" y="-427.5" font-family="Helvetica,sans-Serif" font-size="10.00">+ LateUpdate()</text>
</a>
</g>
</g>
<!-- Node3&#45;&gt;Node6 -->
<g id="edge6" class="edge">
<title>Node3&#45;&gt;Node6</title>
<path fill="none" stroke="midnightblue" d="M57.61,-966.74C50.83,-882.54 47.6,-738.9 87.5,-624 93.19,-607.62 101.72,-591.48 111.28,-576.51"/>
<polygon fill="none" stroke="midnightblue" points="54.14,-967.29 58.47,-976.96 61.12,-966.7 54.14,-967.29"/>
</g>
<!-- Node11 -->
<g id="node11" class="node">
<title>Node11</title>
<g id="a_node11"><a xlink:href="classComponent_1_1Movement.html" target="_top" xlink:title="Behaviour script responsible for moving an entity.">
<polygon fill="white" stroke="black" points="272,-641 272,-885 403,-885 403,-641 272,-641"/>
<text text-anchor="middle" x="337.5" y="-873" font-family="Helvetica,sans-Serif" font-size="10.00">Component::Movement</text>
<polyline fill="none" stroke="black" points="272,-866 403,-866 "/>
<text text-anchor="start" x="280" y="-854" font-family="Helvetica,sans-Serif" font-size="10.00">&#45; _colliding</text>
<text text-anchor="start" x="280" y="-843" font-family="Helvetica,sans-Serif" font-size="10.00">&#45; _speed</text>
<text text-anchor="start" x="280" y="-832" font-family="Helvetica,sans-Serif" font-size="10.00">&#45; _startSpeed</text>
<text text-anchor="start" x="280" y="-821" font-family="Helvetica,sans-Serif" font-size="10.00">&#45; _bonusTime</text>
<text text-anchor="start" x="280" y="-810" font-family="Helvetica,sans-Serif" font-size="10.00">&#45; _maxSpeed</text>
<text text-anchor="start" x="280" y="-799" font-family="Helvetica,sans-Serif" font-size="10.00">&#45; _collisionMask</text>
<polyline fill="none" stroke="black" points="272,-792 403,-792 "/>
<text text-anchor="start" x="280" y="-780" font-family="Helvetica,sans-Serif" font-size="10.00">+ Movement()</text>
<text text-anchor="start" x="280" y="-769" font-family="Helvetica,sans-Serif" font-size="10.00">+ ~Movement()</text>
<text text-anchor="start" x="280" y="-758" font-family="Helvetica,sans-Serif" font-size="10.00">+ Movement()</text>
<text text-anchor="start" x="280" y="-747" font-family="Helvetica,sans-Serif" font-size="10.00">+ operator=()</text>
<text text-anchor="start" x="280" y="-736" font-family="Helvetica,sans-Serif" font-size="10.00">+ Update()</text>
<text text-anchor="start" x="280" y="-725" font-family="Helvetica,sans-Serif" font-size="10.00">+ FixedUpdate()</text>
<text text-anchor="start" x="280" y="-714" font-family="Helvetica,sans-Serif" font-size="10.00">+ LateUpdate()</text>
<text text-anchor="start" x="280" y="-703" font-family="Helvetica,sans-Serif" font-size="10.00">+ GetBonusTime()</text>
<text text-anchor="start" x="280" y="-692" font-family="Helvetica,sans-Serif" font-size="10.00">+ SlipperyCollisions()</text>
<text text-anchor="start" x="280" y="-681" font-family="Helvetica,sans-Serif" font-size="10.00">+ CheckCollidersPos()</text>
<text text-anchor="start" x="280" y="-670" font-family="Helvetica,sans-Serif" font-size="10.00">+ BoostSpeed()</text>
<text text-anchor="start" x="280" y="-659" font-family="Helvetica,sans-Serif" font-size="10.00">+ operator&lt;&lt;()</text>
<text text-anchor="start" x="280" y="-648" font-family="Helvetica,sans-Serif" font-size="10.00">+ operator&lt;&lt;()</text>
</a>
</g>
</g>
<!-- Node3&#45;&gt;Node11 -->
<g id="edge13" class="edge">
<title>Node3&#45;&gt;Node11</title>
<path fill="none" stroke="midnightblue" d="M132.74,-970.12C153.74,-951.86 177.89,-933.45 202.5,-920 226.93,-906.65 240.89,-919.55 262.5,-902 268.74,-896.93 274.54,-891.19 279.92,-885.01"/>
<polygon fill="none" stroke="midnightblue" points="130.32,-967.58 125.15,-976.83 134.96,-972.82 130.32,-967.58"/>
</g>
<!-- Node4 -->
<g id="node4" class="node">
<title>Node4</title>
<g id="a_node4"><a xlink:href="classECS_1_1IComponent.html" target="_top" xlink:title="Base Interface class to create a new component.">
<polygon fill="white" stroke="black" points="14,-1236 14,-1326 117,-1326 117,-1236 14,-1236"/>
<text text-anchor="middle" x="65.5" y="-1314" font-family="Helvetica,sans-Serif" font-size="10.00">ECS::IComponent</text>
<polyline fill="none" stroke="black" points="14,-1307 117,-1307 "/>
<text text-anchor="middle" x="65.5" y="-1295" font-family="Helvetica,sans-Serif" font-size="10.00"> </text>
<polyline fill="none" stroke="black" points="14,-1288 117,-1288 "/>
<text text-anchor="start" x="22" y="-1276" font-family="Helvetica,sans-Serif" font-size="10.00">+ IComponent()</text>
<text text-anchor="start" x="22" y="-1265" font-family="Helvetica,sans-Serif" font-size="10.00">+ ~IComponent()</text>
<text text-anchor="start" x="22" y="-1254" font-family="Helvetica,sans-Serif" font-size="10.00">+ IComponent()</text>
<text text-anchor="start" x="22" y="-1243" font-family="Helvetica,sans-Serif" font-size="10.00">+ operator=()</text>
</a>
</g>
</g>
<!-- Node4&#45;&gt;Node3 -->
<g id="edge3" class="edge">
<title>Node4&#45;&gt;Node3</title>
<path fill="none" stroke="midnightblue" d="M65.5,-1225.7C65.5,-1188.35 65.5,-1138.72 65.5,-1100.09"/>
<polygon fill="none" stroke="midnightblue" points="62,-1225.89 65.5,-1235.89 69,-1225.89 62,-1225.89"/>
</g>
<!-- Node7 -->
<g id="node7" class="node">
<title>Node7</title>
<g id="a_node7"><a xlink:href="classComponent_1_1DropBomb.html" target="_top" xlink:title="Behaviour for players or AI allowing to drop a bomb upon pressing a key.">
<polygon fill="white" stroke="black" points="97,-624.5 97,-901.5 254,-901.5 254,-624.5 97,-624.5"/>
<text text-anchor="middle" x="175.5" y="-889.5" font-family="Helvetica,sans-Serif" font-size="10.00">Component::DropBomb</text>
<polyline fill="none" stroke="black" points="97,-882.5 254,-882.5 "/>
<text text-anchor="start" x="105" y="-870.5" font-family="Helvetica,sans-Serif" font-size="10.00">+ timeToDrop</text>
<text text-anchor="start" x="105" y="-859.5" font-family="Helvetica,sans-Serif" font-size="10.00">&#45; _coordinator</text>
<text text-anchor="start" x="105" y="-848.5" font-family="Helvetica,sans-Serif" font-size="10.00">&#45; _window</text>
<text text-anchor="start" x="105" y="-837.5" font-family="Helvetica,sans-Serif" font-size="10.00">&#45; _bombNumber</text>
<text text-anchor="start" x="105" y="-826.5" font-family="Helvetica,sans-Serif" font-size="10.00">&#45; _defaultBombNumber</text>
<text text-anchor="start" x="105" y="-815.5" font-family="Helvetica,sans-Serif" font-size="10.00">&#45; _bonusTimeRange</text>
<text text-anchor="start" x="105" y="-804.5" font-family="Helvetica,sans-Serif" font-size="10.00">&#45; _bonusTimeCoolDown</text>
<text text-anchor="start" x="105" y="-793.5" font-family="Helvetica,sans-Serif" font-size="10.00">&#45; _defaultDropDelay</text>
<text text-anchor="start" x="105" y="-782.5" font-family="Helvetica,sans-Serif" font-size="10.00">&#45; _dropDelay</text>
<text text-anchor="start" x="105" y="-771.5" font-family="Helvetica,sans-Serif" font-size="10.00">&#45; _minDelay</text>
<text text-anchor="start" x="105" y="-760.5" font-family="Helvetica,sans-Serif" font-size="10.00">&#45; _maxBombs</text>
<polyline fill="none" stroke="black" points="97,-753.5 254,-753.5 "/>
<text text-anchor="start" x="105" y="-741.5" font-family="Helvetica,sans-Serif" font-size="10.00">+ DropBomb()</text>
<text text-anchor="start" x="105" y="-730.5" font-family="Helvetica,sans-Serif" font-size="10.00">+ ~DropBomb()</text>
<text text-anchor="start" x="105" y="-719.5" font-family="Helvetica,sans-Serif" font-size="10.00">+ DropBomb()</text>
<text text-anchor="start" x="105" y="-708.5" font-family="Helvetica,sans-Serif" font-size="10.00">+ operator=()</text>
<text text-anchor="start" x="105" y="-697.5" font-family="Helvetica,sans-Serif" font-size="10.00">+ InstantiateBomb()</text>
<text text-anchor="start" x="105" y="-686.5" font-family="Helvetica,sans-Serif" font-size="10.00">+ CreateBomb()</text>
<text text-anchor="start" x="105" y="-675.5" font-family="Helvetica,sans-Serif" font-size="10.00">+ GetBombNumber()</text>
<text text-anchor="start" x="105" y="-664.5" font-family="Helvetica,sans-Serif" font-size="10.00">+ GetBonusTimeRange()</text>
<text text-anchor="start" x="105" y="-653.5" font-family="Helvetica,sans-Serif" font-size="10.00">+ GetBonusTimeCoolDown()</text>
<text text-anchor="start" x="105" y="-642.5" font-family="Helvetica,sans-Serif" font-size="10.00">+ BoostBombNumber()</text>
<text text-anchor="start" x="105" y="-631.5" font-family="Helvetica,sans-Serif" font-size="10.00">and 6 more...</text>
</a>
</g>
</g>
<!-- Node4&#45;&gt;Node7 -->
<g id="edge8" class="edge">
<title>Node4&#45;&gt;Node7</title>
<path fill="none" stroke="midnightblue" d="M97.15,-1226.85C112.54,-1198.48 129.76,-1162.4 139.5,-1128 160.17,-1054.98 169.38,-970.82 173.34,-901.82"/>
<polygon fill="none" stroke="midnightblue" points="93.99,-1225.33 92.24,-1235.78 100.13,-1228.71 93.99,-1225.33"/>
</g>
<!-- Node5 -->
<g id="node5" class="node">
<title>Node5</title>
<g id="a_node5"><a xlink:href="classIXMLSerializable.html" target="_top" xlink:title=" ">
<polygon fill="white" stroke="black" points="194,-1424.5 194,-1536.5 319,-1536.5 319,-1424.5 194,-1424.5"/>
<text text-anchor="middle" x="256.5" y="-1524.5" font-family="Helvetica,sans-Serif" font-size="10.00">IXMLSerializable</text>
<polyline fill="none" stroke="black" points="194,-1517.5 319,-1517.5 "/>
<text text-anchor="middle" x="256.5" y="-1505.5" font-family="Helvetica,sans-Serif" font-size="10.00"> </text>
<polyline fill="none" stroke="black" points="194,-1498.5 319,-1498.5 "/>
<text text-anchor="start" x="202" y="-1486.5" font-family="Helvetica,sans-Serif" font-size="10.00">+ IXMLSerializable()</text>
<text text-anchor="start" x="202" y="-1475.5" font-family="Helvetica,sans-Serif" font-size="10.00">+ ~IXMLSerializable()</text>
<text text-anchor="start" x="202" y="-1464.5" font-family="Helvetica,sans-Serif" font-size="10.00">+ IXMLSerializable()</text>
<text text-anchor="start" x="202" y="-1453.5" font-family="Helvetica,sans-Serif" font-size="10.00">+ operator=()</text>
<text text-anchor="start" x="202" y="-1442.5" font-family="Helvetica,sans-Serif" font-size="10.00">+ operator&lt;&lt;()</text>
<text text-anchor="start" x="202" y="-1431.5" font-family="Helvetica,sans-Serif" font-size="10.00">+ operator&lt;&lt;()</text>
</a>
</g>
</g>
<!-- Node5&#45;&gt;Node4 -->
<g id="edge4" class="edge">
<title>Node5&#45;&gt;Node4</title>
<path fill="none" stroke="midnightblue" d="M185.2,-1437.52C164.42,-1423.18 142.7,-1405.93 125.5,-1387 109.26,-1369.13 95.51,-1346.13 85.28,-1326.21"/>
<polygon fill="none" stroke="midnightblue" points="183.48,-1440.58 193.72,-1443.28 187.4,-1434.78 183.48,-1440.58"/>
</g>
<!-- Node12 -->
<g id="node12" class="node">
<title>Node12</title>
<g id="a_node12"><a xlink:href="classRayLib_1_1Vector3.html" target="_top" xlink:title="Vector3 encapsulation.">
<polygon fill="white" stroke="black" points="399.5,-955 399.5,-1122 491.5,-1122 491.5,-955 399.5,-955"/>
<text text-anchor="middle" x="445.5" y="-1110" font-family="Helvetica,sans-Serif" font-size="10.00">RayLib::Vector3</text>
<polyline fill="none" stroke="black" points="399.5,-1103 491.5,-1103 "/>
<text text-anchor="middle" x="445.5" y="-1091" font-family="Helvetica,sans-Serif" font-size="10.00"> </text>
<polyline fill="none" stroke="black" points="399.5,-1084 491.5,-1084 "/>
<text text-anchor="start" x="407.5" y="-1072" font-family="Helvetica,sans-Serif" font-size="10.00">+ Vector3()</text>
<text text-anchor="start" x="407.5" y="-1061" font-family="Helvetica,sans-Serif" font-size="10.00">+ Vector3()</text>
<text text-anchor="start" x="407.5" y="-1050" font-family="Helvetica,sans-Serif" font-size="10.00">+ Vector3()</text>
<text text-anchor="start" x="407.5" y="-1039" font-family="Helvetica,sans-Serif" font-size="10.00">+ Vector3()</text>
<text text-anchor="start" x="407.5" y="-1028" font-family="Helvetica,sans-Serif" font-size="10.00">+ Vector3()</text>
<text text-anchor="start" x="407.5" y="-1017" font-family="Helvetica,sans-Serif" font-size="10.00">+ Vector3()</text>
<text text-anchor="start" x="407.5" y="-1006" font-family="Helvetica,sans-Serif" font-size="10.00">+ ~Vector3()</text>
<text text-anchor="start" x="407.5" y="-995" font-family="Helvetica,sans-Serif" font-size="10.00">+ getVector3()</text>
<text text-anchor="start" x="407.5" y="-984" font-family="Helvetica,sans-Serif" font-size="10.00">+ operator=()</text>
<text text-anchor="start" x="407.5" y="-973" font-family="Helvetica,sans-Serif" font-size="10.00">+ operator*=()</text>
<text text-anchor="start" x="407.5" y="-962" font-family="Helvetica,sans-Serif" font-size="10.00">and 13 more...</text>
</a>
</g>
</g>
<!-- Node5&#45;&gt;Node12 -->
<g id="edge16" class="edge">
<title>Node5&#45;&gt;Node12</title>
<path fill="none" stroke="midnightblue" d="M328.65,-1459.12C364.68,-1445 405.25,-1422.23 427.5,-1387 454.32,-1344.54 453.89,-1210.68 450.3,-1122.03"/>
<polygon fill="none" stroke="midnightblue" points="327.24,-1455.91 319.11,-1462.71 329.7,-1462.47 327.24,-1455.91"/>
</g>
<!-- Node6&#45;&gt;Node2 -->
<g id="edge5" class="edge">
<title>Node6&#45;&gt;Node2</title>
<path fill="none" stroke="#404040" d="M175.5,-420.27C175.5,-408.69 175.5,-396.68 175.5,-384.88"/>
<polygon fill="none" stroke="#404040" points="175.5,-384.69 171.5,-378.69 175.5,-372.69 179.5,-378.69 175.5,-384.69"/>
<text text-anchor="middle" x="219.5" y="-394" font-family="Helvetica,sans-Serif" font-size="10.00"> #_myAController</text>
</g>
<!-- Node7&#45;&gt;Node6 -->
<g id="edge7" class="edge">
<title>Node7&#45;&gt;Node6</title>
<path fill="none" stroke="#404040" d="M175.5,-624.22C175.5,-612.22 175.5,-600.29 175.5,-588.84"/>
<polygon fill="none" stroke="#404040" points="175.5,-588.62 171.5,-582.62 175.5,-576.62 179.5,-582.62 175.5,-588.62"/>
<text text-anchor="middle" x="209" y="-598" font-family="Helvetica,sans-Serif" font-size="10.00"> #_dropBomb</text>
</g>
<!-- Node8 -->
<g id="node8" class="node">
<title>Node8</title>
<g id="a_node8"><a xlink:href="classECS_1_1Entity.html" target="_top" xlink:title="Scene object containing components and an ID.">
<polygon fill="white" stroke="black" points="196.5,-949.5 196.5,-1127.5 310.5,-1127.5 310.5,-949.5 196.5,-949.5"/>
<text text-anchor="middle" x="253.5" y="-1115.5" font-family="Helvetica,sans-Serif" font-size="10.00">ECS::Entity</text>
<polyline fill="none" stroke="black" points="196.5,-1108.5 310.5,-1108.5 "/>
<text text-anchor="start" x="204.5" y="-1096.5" font-family="Helvetica,sans-Serif" font-size="10.00">&#45; _id</text>
<text text-anchor="start" x="204.5" y="-1085.5" font-family="Helvetica,sans-Serif" font-size="10.00">&#45; _tag</text>
<polyline fill="none" stroke="black" points="196.5,-1078.5 310.5,-1078.5 "/>
<text text-anchor="start" x="204.5" y="-1066.5" font-family="Helvetica,sans-Serif" font-size="10.00">+ Entity()</text>
<text text-anchor="start" x="204.5" y="-1055.5" font-family="Helvetica,sans-Serif" font-size="10.00">+ Entity()</text>
<text text-anchor="start" x="204.5" y="-1044.5" font-family="Helvetica,sans-Serif" font-size="10.00">+ ~Entity()</text>
<text text-anchor="start" x="204.5" y="-1033.5" font-family="Helvetica,sans-Serif" font-size="10.00">+ Entity()</text>
<text text-anchor="start" x="204.5" y="-1022.5" font-family="Helvetica,sans-Serif" font-size="10.00">+ operator=()</text>
<text text-anchor="start" x="204.5" y="-1011.5" font-family="Helvetica,sans-Serif" font-size="10.00">+ GetComponent()</text>
<text text-anchor="start" x="204.5" y="-1000.5" font-family="Helvetica,sans-Serif" font-size="10.00">+ OfType()</text>
<text text-anchor="start" x="204.5" y="-989.5" font-family="Helvetica,sans-Serif" font-size="10.00">+ GetComponents()</text>
<text text-anchor="start" x="204.5" y="-978.5" font-family="Helvetica,sans-Serif" font-size="10.00">+ AddComponent()</text>
<text text-anchor="start" x="204.5" y="-967.5" font-family="Helvetica,sans-Serif" font-size="10.00">+ AddComponent()</text>
<text text-anchor="start" x="204.5" y="-956.5" font-family="Helvetica,sans-Serif" font-size="10.00">and 9 more...</text>
</a>
</g>
</g>
<!-- Node8&#45;&gt;Node7 -->
<g id="edge9" class="edge">
<title>Node8&#45;&gt;Node7</title>
<path fill="none" stroke="#404040" d="M214.65,-949.39C212.43,-943.22 210.35,-937.05 208.5,-931 206.73,-925.23 205.04,-919.32 203.41,-913.33"/>
<polygon fill="none" stroke="#404040" points="203.41,-913.33 198.02,-908.53 200.38,-901.72 205.76,-906.51 203.41,-913.33"/>
<text text-anchor="middle" x="224" y="-923" font-family="Helvetica,sans-Serif" font-size="10.00"> &#45;_self</text>
</g>
<!-- Node8&#45;&gt;Node11 -->
<g id="edge17" class="edge">
<title>Node8&#45;&gt;Node11</title>
<path fill="none" stroke="#404040" d="M280.54,-949.46C285.69,-932.68 291.19,-914.77 296.67,-896.95"/>
<polygon fill="none" stroke="#404040" points="296.73,-896.74 294.67,-889.83 300.26,-885.26 302.32,-892.17 296.73,-896.74"/>
<text text-anchor="middle" x="309" y="-923" font-family="Helvetica,sans-Serif" font-size="10.00"> &#45;_entity</text>
</g>
<!-- Node9 -->
<g id="node9" class="node">
<title>Node9</title>
<g id="a_node9"><a xlink:href="classECS_1_1EntityManager.html" target="_top" xlink:title="Class used to manipulate Entities (a.k.a A Scene)">
<polygon fill="white" stroke="black" points="135,-1208.5 135,-1353.5 250,-1353.5 250,-1208.5 135,-1208.5"/>
<text text-anchor="middle" x="192.5" y="-1341.5" font-family="Helvetica,sans-Serif" font-size="10.00">ECS::EntityManager</text>
<polyline fill="none" stroke="black" points="135,-1334.5 250,-1334.5 "/>
<text text-anchor="start" x="143" y="-1322.5" font-family="Helvetica,sans-Serif" font-size="10.00">&#45; _available</text>
<text text-anchor="start" x="143" y="-1311.5" font-family="Helvetica,sans-Serif" font-size="10.00">&#45; _max</text>
<text text-anchor="start" x="143" y="-1300.5" font-family="Helvetica,sans-Serif" font-size="10.00">&#45; _entities</text>
<polyline fill="none" stroke="black" points="135,-1293.5 250,-1293.5 "/>
<text text-anchor="start" x="143" y="-1281.5" font-family="Helvetica,sans-Serif" font-size="10.00">+ EntityManager()</text>
<text text-anchor="start" x="143" y="-1270.5" font-family="Helvetica,sans-Serif" font-size="10.00">+ ~EntityManager()</text>
<text text-anchor="start" x="143" y="-1259.5" font-family="Helvetica,sans-Serif" font-size="10.00">+ EntityManager()</text>
<text text-anchor="start" x="143" y="-1248.5" font-family="Helvetica,sans-Serif" font-size="10.00">+ operator=()</text>
<text text-anchor="start" x="143" y="-1237.5" font-family="Helvetica,sans-Serif" font-size="10.00">+ CreateEntity()</text>
<text text-anchor="start" x="143" y="-1226.5" font-family="Helvetica,sans-Serif" font-size="10.00">+ DeleteEntity()</text>
<text text-anchor="start" x="143" y="-1215.5" font-family="Helvetica,sans-Serif" font-size="10.00">+ GetEntities()</text>
</a>
</g>
</g>
<!-- Node9&#45;&gt;Node8 -->
<g id="edge10" class="edge">
<title>Node9&#45;&gt;Node8</title>
<path fill="none" stroke="#404040" d="M203.2,-1208.27C206.81,-1187.99 211.27,-1166.01 216.5,-1146 217.09,-1143.73 217.71,-1141.43 218.36,-1139.13"/>
<polygon fill="none" stroke="#404040" points="218.38,-1139.03 216.22,-1132.15 221.73,-1127.51 223.9,-1134.38 218.38,-1139.03"/>
<text text-anchor="middle" x="258.5" y="-1149" font-family="Helvetica,sans-Serif" font-size="10.00"> &#45;_entityManager</text>
</g>
<!-- Node10 -->
<g id="node10" class="node">
<title>Node10</title>
<g id="a_node10"><a xlink:href="classECS_1_1ComponentManager.html" target="_top" xlink:title="Class used to manipulate Components.">
<polygon fill="white" stroke="black" points="268,-1175.5 268,-1386.5 419,-1386.5 419,-1175.5 268,-1175.5"/>
<text text-anchor="middle" x="343.5" y="-1374.5" font-family="Helvetica,sans-Serif" font-size="10.00">ECS::ComponentManager</text>
<polyline fill="none" stroke="black" points="268,-1367.5 419,-1367.5 "/>
<text text-anchor="start" x="276" y="-1355.5" font-family="Helvetica,sans-Serif" font-size="10.00">&#45; _bases</text>
<text text-anchor="start" x="276" y="-1344.5" font-family="Helvetica,sans-Serif" font-size="10.00">&#45; _components</text>
<polyline fill="none" stroke="black" points="268,-1337.5 419,-1337.5 "/>
<text text-anchor="start" x="276" y="-1325.5" font-family="Helvetica,sans-Serif" font-size="10.00">+ ComponentManager()</text>
<text text-anchor="start" x="276" y="-1314.5" font-family="Helvetica,sans-Serif" font-size="10.00">+ ~ComponentManager()</text>
<text text-anchor="start" x="276" y="-1303.5" font-family="Helvetica,sans-Serif" font-size="10.00">+ ComponentManager()</text>
<text text-anchor="start" x="276" y="-1292.5" font-family="Helvetica,sans-Serif" font-size="10.00">+ operator=()</text>
<text text-anchor="start" x="276" y="-1281.5" font-family="Helvetica,sans-Serif" font-size="10.00">+ GetComponent()</text>
<text text-anchor="start" x="276" y="-1270.5" font-family="Helvetica,sans-Serif" font-size="10.00">+ OfType()</text>
<text text-anchor="start" x="276" y="-1259.5" font-family="Helvetica,sans-Serif" font-size="10.00">+ GetComponents()</text>
<text text-anchor="start" x="276" y="-1248.5" font-family="Helvetica,sans-Serif" font-size="10.00">+ AddComponent()</text>
<text text-anchor="start" x="276" y="-1237.5" font-family="Helvetica,sans-Serif" font-size="10.00">+ AddComponent()</text>
<text text-anchor="start" x="276" y="-1226.5" font-family="Helvetica,sans-Serif" font-size="10.00">+ RemoveComponent()</text>
<text text-anchor="start" x="276" y="-1215.5" font-family="Helvetica,sans-Serif" font-size="10.00">+ HasComponent()</text>
<text text-anchor="start" x="276" y="-1204.5" font-family="Helvetica,sans-Serif" font-size="10.00">+ HasComponent()</text>
<text text-anchor="start" x="276" y="-1193.5" font-family="Helvetica,sans-Serif" font-size="10.00">+ HasComponents()</text>
<text text-anchor="start" x="276" y="-1182.5" font-family="Helvetica,sans-Serif" font-size="10.00">+ GetComponentByName()</text>
</a>
</g>
</g>
<!-- Node10&#45;&gt;Node8 -->
<g id="edge11" class="edge">
<title>Node10&#45;&gt;Node8</title>
<path fill="none" stroke="#404040" d="M311.11,-1175.39C307.66,-1165.41 304.1,-1155.48 300.5,-1146 299.6,-1143.64 298.68,-1141.25 297.74,-1138.85"/>
<polygon fill="none" stroke="#404040" points="297.67,-1138.68 291.72,-1134.6 293.21,-1127.54 299.15,-1131.62 297.67,-1138.68"/>
<text text-anchor="middle" x="359.5" y="-1149" font-family="Helvetica,sans-Serif" font-size="10.00"> &#45;_componentManager</text>
</g>
<!-- Node11&#45;&gt;Node6 -->
<g id="edge12" class="edge">
<title>Node11&#45;&gt;Node6</title>
<path fill="none" stroke="#404040" d="M274.19,-640.82C265.24,-625.2 255.88,-609.58 246.5,-595 244.73,-592.24 242.9,-589.46 241.04,-586.67"/>
<polygon fill="none" stroke="#404040" points="240.89,-586.46 234.21,-583.75 234.13,-576.54 240.82,-579.24 240.89,-586.46"/>
<text text-anchor="middle" x="287.5" y="-598" font-family="Helvetica,sans-Serif" font-size="10.00"> #_movement</text>
</g>
<!-- Node12&#45;&gt;Node2 -->
<g id="edge18" class="edge">
<title>Node12&#45;&gt;Node2</title>
<path fill="none" stroke="#404040" d="M449.89,-954.84C451.86,-869.73 447.79,-734.33 411.5,-624 381.24,-532 315.08,-443.78 260.49,-381.97"/>
<polygon fill="none" stroke="#404040" points="260.18,-381.62 253.2,-379.81 252.18,-372.67 259.16,-374.48 260.18,-381.62"/>
<text text-anchor="middle" x="427" y="-598" font-family="Helvetica,sans-Serif" font-size="10.00"> #_offset</text>
</g>
<!-- Node12&#45;&gt;Node11 -->
<g id="edge14" class="edge">
<title>Node12&#45;&gt;Node11</title>
<path fill="none" stroke="#404040" d="M399.49,-984.6C387.41,-968.33 375.54,-949.75 367.5,-931 362.89,-920.24 358.98,-908.79 355.68,-897.13"/>
<polygon fill="none" stroke="#404040" points="355.65,-897.02 350.24,-892.25 352.57,-885.42 357.98,-890.19 355.65,-897.02"/>
<text text-anchor="middle" x="395" y="-923" font-family="Helvetica,sans-Serif" font-size="10.00"> +direction</text>
</g>
<!-- Node13 -->
<g id="node13" class="node">
<title>Node13</title>
<g id="a_node13"><a xlink:title=" ">
<polygon fill="white" stroke="#bfbfbf" points="476,-1252.5 476,-1309.5 529,-1309.5 529,-1252.5 476,-1252.5"/>
<text text-anchor="middle" x="502.5" y="-1297.5" font-family="Helvetica,sans-Serif" font-size="10.00">Vector3</text>
<polyline fill="none" stroke="#bfbfbf" points="476,-1290.5 529,-1290.5 "/>
<text text-anchor="middle" x="502.5" y="-1278.5" font-family="Helvetica,sans-Serif" font-size="10.00"> </text>
<polyline fill="none" stroke="#bfbfbf" points="476,-1271.5 529,-1271.5 "/>
<text text-anchor="middle" x="502.5" y="-1259.5" font-family="Helvetica,sans-Serif" font-size="10.00"> </text>
</a>
</g>
</g>
<!-- Node13&#45;&gt;Node12 -->
<g id="edge15" class="edge">
<title>Node13&#45;&gt;Node12</title>
<path fill="none" stroke="midnightblue" d="M493.62,-1242.55C486.01,-1210.42 474.76,-1162.96 465.05,-1122"/>
<polygon fill="none" stroke="midnightblue" points="490.25,-1243.49 495.96,-1252.41 497.06,-1241.87 490.25,-1243.49"/>
</g>
</g>
</svg>
