<?xml version="1.0" encoding="UTF-8" standalone="no"?>
<!DOCTYPE svg PUBLIC "-//W3C//DTD SVG 1.1//EN"
 "http://www.w3.org/Graphics/SVG/1.1/DTD/svg11.dtd">
<!-- Generated by graphviz version 2.43.0 (0)
 -->
<!-- Title: Component::Button Pages: 1 -->
<svg width="389pt" height="669pt"
 viewBox="0.00 0.00 389.00 669.00" xmlns="http://www.w3.org/2000/svg" xmlns:xlink="http://www.w3.org/1999/xlink">
<g id="graph0" class="graph" transform="scale(1 1) rotate(0) translate(4 665)">
<title>Component::Button</title>
<polygon fill="white" stroke="transparent" points="-4,4 -4,-665 385,-665 385,4 -4,4"/>
<!-- Node1 -->
<g id="node1" class="node">
<title>Node1</title>
<g id="a_node1"><a xlink:title="Button class.">
<polygon fill="#bfbfbf" stroke="black" points="155,-0.5 155,-189.5 266,-189.5 266,-0.5 155,-0.5"/>
<text text-anchor="middle" x="210.5" y="-177.5" font-family="Helvetica,sans-Serif" font-size="10.00">Component::Button</text>
<polyline fill="none" stroke="black" points="155,-170.5 266,-170.5 "/>
<text text-anchor="start" x="163" y="-158.5" font-family="Helvetica,sans-Serif" font-size="10.00">&#45; _callbacks</text>
<text text-anchor="start" x="163" y="-147.5" font-family="Helvetica,sans-Serif" font-size="10.00">&#45; _texture</text>
<text text-anchor="start" x="163" y="-136.5" font-family="Helvetica,sans-Serif" font-size="10.00">&#45; _lerp</text>
<polyline fill="none" stroke="black" points="155,-129.5 266,-129.5 "/>
<text text-anchor="start" x="163" y="-117.5" font-family="Helvetica,sans-Serif" font-size="10.00">+ Button()</text>
<text text-anchor="start" x="163" y="-106.5" font-family="Helvetica,sans-Serif" font-size="10.00">+ ~Button()</text>
<text text-anchor="start" x="163" y="-95.5" font-family="Helvetica,sans-Serif" font-size="10.00">+ Button()</text>
<text text-anchor="start" x="163" y="-84.5" font-family="Helvetica,sans-Serif" font-size="10.00">+ operator=()</text>
<text text-anchor="start" x="163" y="-73.5" font-family="Helvetica,sans-Serif" font-size="10.00">+ Draw()</text>
<text text-anchor="start" x="163" y="-62.5" font-family="Helvetica,sans-Serif" font-size="10.00">+ IsMouseOver()</text>
<text text-anchor="start" x="163" y="-51.5" font-family="Helvetica,sans-Serif" font-size="10.00">+ AddCallback()</text>
<text text-anchor="start" x="163" y="-40.5" font-family="Helvetica,sans-Serif" font-size="10.00">+ OnClick()</text>
<text text-anchor="start" x="163" y="-29.5" font-family="Helvetica,sans-Serif" font-size="10.00">+ operator&lt;&lt;()</text>
<text text-anchor="start" x="163" y="-18.5" font-family="Helvetica,sans-Serif" font-size="10.00">+ operator&lt;&lt;()</text>
<text text-anchor="start" x="163" y="-7.5" font-family="Helvetica,sans-Serif" font-size="10.00">+ GetTexture()</text>
</a>
</g>
</g>
<!-- Node2 -->
<g id="node2" class="node">
<title>Node2</title>
<g id="a_node2"><a xlink:href="classComponent_1_1IUIObject.html" target="_top" xlink:title="Base class for UI objects.">
<polygon fill="white" stroke="black" points="0.5,-259.5 0.5,-360.5 124.5,-360.5 124.5,-259.5 0.5,-259.5"/>
<text text-anchor="middle" x="62.5" y="-348.5" font-family="Helvetica,sans-Serif" font-size="10.00">Component::IUIObject</text>
<polyline fill="none" stroke="black" points="0.5,-341.5 124.5,-341.5 "/>
<text text-anchor="middle" x="62.5" y="-329.5" font-family="Helvetica,sans-Serif" font-size="10.00"> </text>
<polyline fill="none" stroke="black" points="0.5,-322.5 124.5,-322.5 "/>
<text text-anchor="start" x="8.5" y="-310.5" font-family="Helvetica,sans-Serif" font-size="10.00">+ IUIObject()</text>
<text text-anchor="start" x="8.5" y="-299.5" font-family="Helvetica,sans-Serif" font-size="10.00">+ ~IUIObject()</text>
<text text-anchor="start" x="8.5" y="-288.5" font-family="Helvetica,sans-Serif" font-size="10.00">+ IUIObject()</text>
<text text-anchor="start" x="8.5" y="-277.5" font-family="Helvetica,sans-Serif" font-size="10.00">+ operator=()</text>
<text text-anchor="start" x="8.5" y="-266.5" font-family="Helvetica,sans-Serif" font-size="10.00">+ Draw()</text>
</a>
</g>
</g>
<!-- Node2&#45;&gt;Node1 -->
<g id="edge1" class="edge">
<title>Node2&#45;&gt;Node1</title>
<path fill="none" stroke="midnightblue" d="M102.78,-251.03C118.79,-227.98 137.48,-201.09 154.75,-176.23"/>
<polygon fill="none" stroke="midnightblue" points="99.84,-249.12 97.01,-259.33 105.59,-253.11 99.84,-249.12"/>
</g>
<!-- Node3 -->
<g id="node3" class="node">
<title>Node3</title>
<g id="a_node3"><a xlink:href="classECS_1_1IComponent.html" target="_top" xlink:title="Base Interface class to create a new component.">
<polygon fill="white" stroke="black" points="11,-420.5 11,-510.5 114,-510.5 114,-420.5 11,-420.5"/>
<text text-anchor="middle" x="62.5" y="-498.5" font-family="Helvetica,sans-Serif" font-size="10.00">ECS::IComponent</text>
<polyline fill="none" stroke="black" points="11,-491.5 114,-491.5 "/>
<text text-anchor="middle" x="62.5" y="-479.5" font-family="Helvetica,sans-Serif" font-size="10.00"> </text>
<polyline fill="none" stroke="black" points="11,-472.5 114,-472.5 "/>
<text text-anchor="start" x="19" y="-460.5" font-family="Helvetica,sans-Serif" font-size="10.00">+ IComponent()</text>
<text text-anchor="start" x="19" y="-449.5" font-family="Helvetica,sans-Serif" font-size="10.00">+ ~IComponent()</text>
<text text-anchor="start" x="19" y="-438.5" font-family="Helvetica,sans-Serif" font-size="10.00">+ IComponent()</text>
<text text-anchor="start" x="19" y="-427.5" font-family="Helvetica,sans-Serif" font-size="10.00">+ operator=()</text>
</a>
</g>
</g>
<!-- Node3&#45;&gt;Node2 -->
<g id="edge2" class="edge">
<title>Node3&#45;&gt;Node2</title>
<path fill="none" stroke="midnightblue" d="M62.5,-409.81C62.5,-393.79 62.5,-376.38 62.5,-360.69"/>
<polygon fill="none" stroke="midnightblue" points="59,-410.1 62.5,-420.1 66,-410.1 59,-410.1"/>
</g>
<!-- Node4 -->
<g id="node4" class="node">
<title>Node4</title>
<g id="a_node4"><a xlink:href="classIXMLSerializable.html" target="_top" xlink:title=" ">
<polygon fill="white" stroke="black" points="0,-548.5 0,-660.5 125,-660.5 125,-548.5 0,-548.5"/>
<text text-anchor="middle" x="62.5" y="-648.5" font-family="Helvetica,sans-Serif" font-size="10.00">IXMLSerializable</text>
<polyline fill="none" stroke="black" points="0,-641.5 125,-641.5 "/>
<text text-anchor="middle" x="62.5" y="-629.5" font-family="Helvetica,sans-Serif" font-size="10.00"> </text>
<polyline fill="none" stroke="black" points="0,-622.5 125,-622.5 "/>
<text text-anchor="start" x="8" y="-610.5" font-family="Helvetica,sans-Serif" font-size="10.00">+ IXMLSerializable()</text>
<text text-anchor="start" x="8" y="-599.5" font-family="Helvetica,sans-Serif" font-size="10.00">+ ~IXMLSerializable()</text>
<text text-anchor="start" x="8" y="-588.5" font-family="Helvetica,sans-Serif" font-size="10.00">+ IXMLSerializable()</text>
<text text-anchor="start" x="8" y="-577.5" font-family="Helvetica,sans-Serif" font-size="10.00">+ operator=()</text>
<text text-anchor="start" x="8" y="-566.5" font-family="Helvetica,sans-Serif" font-size="10.00">+ operator&lt;&lt;()</text>
<text text-anchor="start" x="8" y="-555.5" font-family="Helvetica,sans-Serif" font-size="10.00">+ operator&lt;&lt;()</text>
</a>
</g>
</g>
<!-- Node4&#45;&gt;Node3 -->
<g id="edge3" class="edge">
<title>Node4&#45;&gt;Node3</title>
<path fill="none" stroke="midnightblue" d="M62.5,-538.13C62.5,-528.83 62.5,-519.44 62.5,-510.67"/>
<polygon fill="none" stroke="midnightblue" points="59,-538.17 62.5,-548.17 66,-538.17 59,-538.17"/>
</g>
<!-- Node5 -->
<g id="node5" class="node">
<title>Node5</title>
<g id="a_node5"><a xlink:href="classRayLib_1_1Rectangle.html" target="_top" xlink:title="Rectangle encapsulation.">
<polygon fill="white" stroke="black" points="143,-237.5 143,-382.5 278,-382.5 278,-237.5 143,-237.5"/>
<text text-anchor="middle" x="210.5" y="-370.5" font-family="Helvetica,sans-Serif" font-size="10.00">RayLib::Rectangle</text>
<polyline fill="none" stroke="black" points="143,-363.5 278,-363.5 "/>
<text text-anchor="middle" x="210.5" y="-351.5" font-family="Helvetica,sans-Serif" font-size="10.00"> </text>
<polyline fill="none" stroke="black" points="143,-344.5 278,-344.5 "/>
<text text-anchor="start" x="151" y="-332.5" font-family="Helvetica,sans-Serif" font-size="10.00">+ Rectangle()</text>
<text text-anchor="start" x="151" y="-321.5" font-family="Helvetica,sans-Serif" font-size="10.00">+ Rectangle()</text>
<text text-anchor="start" x="151" y="-310.5" font-family="Helvetica,sans-Serif" font-size="10.00">+ Rectangle()</text>
<text text-anchor="start" x="151" y="-299.5" font-family="Helvetica,sans-Serif" font-size="10.00">+ operator=()</text>
<text text-anchor="start" x="151" y="-288.5" font-family="Helvetica,sans-Serif" font-size="10.00">+ operator=()</text>
<text text-anchor="start" x="151" y="-277.5" font-family="Helvetica,sans-Serif" font-size="10.00">+ GetRectangle()</text>
<text text-anchor="start" x="151" y="-266.5" font-family="Helvetica,sans-Serif" font-size="10.00">+ ~Rectangle()</text>
<text text-anchor="start" x="151" y="-255.5" font-family="Helvetica,sans-Serif" font-size="10.00">+ DrawRectangle()</text>
<text text-anchor="start" x="151" y="-244.5" font-family="Helvetica,sans-Serif" font-size="10.00">+ DrawRectangleLines()</text>
</a>
</g>
</g>
<!-- Node5&#45;&gt;Node1 -->
<g id="edge4" class="edge">
<title>Node5&#45;&gt;Node1</title>
<path fill="none" stroke="#404040" d="M210.5,-237.48C210.5,-225.97 210.5,-213.84 210.5,-201.73"/>
<polygon fill="none" stroke="#404040" points="210.5,-201.65 206.5,-195.65 210.5,-189.65 214.5,-195.65 210.5,-201.65"/>
<text text-anchor="middle" x="226" y="-211" font-family="Helvetica,sans-Serif" font-size="10.00"> &#45;_rect</text>
</g>
<!-- Node6 -->
<g id="node6" class="node">
<title>Node6</title>
<g id="a_node6"><a xlink:title=" ">
<polygon fill="white" stroke="#bfbfbf" points="178,-437 178,-494 243,-494 243,-437 178,-437"/>
<text text-anchor="middle" x="210.5" y="-482" font-family="Helvetica,sans-Serif" font-size="10.00">Rectangle</text>
<polyline fill="none" stroke="#bfbfbf" points="178,-475 243,-475 "/>
<text text-anchor="middle" x="210.5" y="-463" font-family="Helvetica,sans-Serif" font-size="10.00"> </text>
<polyline fill="none" stroke="#bfbfbf" points="178,-456 243,-456 "/>
<text text-anchor="middle" x="210.5" y="-444" font-family="Helvetica,sans-Serif" font-size="10.00"> </text>
</a>
</g>
</g>
<!-- Node6&#45;&gt;Node5 -->
<g id="edge5" class="edge">
<title>Node6&#45;&gt;Node5</title>
<path fill="none" stroke="midnightblue" d="M210.5,-426.54C210.5,-413.24 210.5,-397.84 210.5,-382.71"/>
<polygon fill="none" stroke="midnightblue" points="207,-426.7 210.5,-436.7 214,-426.7 207,-426.7"/>
</g>
<!-- Node7 -->
<g id="node7" class="node">
<title>Node7</title>
<g id="a_node7"><a xlink:href="classRayLib_1_1Color.html" target="_top" xlink:title="RayLib Color encapsulation.">
<polygon fill="white" stroke="black" points="296,-237.5 296,-382.5 381,-382.5 381,-237.5 296,-237.5"/>
<text text-anchor="middle" x="338.5" y="-370.5" font-family="Helvetica,sans-Serif" font-size="10.00">RayLib::Color</text>
<polyline fill="none" stroke="black" points="296,-363.5 381,-363.5 "/>
<text text-anchor="middle" x="338.5" y="-351.5" font-family="Helvetica,sans-Serif" font-size="10.00"> </text>
<polyline fill="none" stroke="black" points="296,-344.5 381,-344.5 "/>
<text text-anchor="start" x="304" y="-332.5" font-family="Helvetica,sans-Serif" font-size="10.00">+ Color()</text>
<text text-anchor="start" x="304" y="-321.5" font-family="Helvetica,sans-Serif" font-size="10.00">+ Color()</text>
<text text-anchor="start" x="304" y="-310.5" font-family="Helvetica,sans-Serif" font-size="10.00">+ Color()</text>
<text text-anchor="start" x="304" y="-299.5" font-family="Helvetica,sans-Serif" font-size="10.00">+ Color()</text>
<text text-anchor="start" x="304" y="-288.5" font-family="Helvetica,sans-Serif" font-size="10.00">+ Color()</text>
<text text-anchor="start" x="304" y="-277.5" font-family="Helvetica,sans-Serif" font-size="10.00">+ ~Color()</text>
<text text-anchor="start" x="304" y="-266.5" font-family="Helvetica,sans-Serif" font-size="10.00">+ getColor()</text>
<text text-anchor="start" x="304" y="-255.5" font-family="Helvetica,sans-Serif" font-size="10.00">+ operator=()</text>
<text text-anchor="start" x="304" y="-244.5" font-family="Helvetica,sans-Serif" font-size="10.00">+ Lerp()</text>
</a>
</g>
</g>
<!-- Node7&#45;&gt;Node1 -->
<g id="edge6" class="edge">
<title>Node7&#45;&gt;Node1</title>
<path fill="none" stroke="#404040" d="M295.88,-238.07C288.36,-225.56 280.4,-212.32 272.48,-199.14"/>
<polygon fill="none" stroke="#404040" points="272.32,-198.88 265.81,-195.8 266.14,-188.59 272.66,-191.68 272.32,-198.88"/>
<text text-anchor="middle" x="297" y="-211" font-family="Helvetica,sans-Serif" font-size="10.00"> &#45;_tint</text>
</g>
<!-- Node8 -->
<g id="node8" class="node">
<title>Node8</title>
<g id="a_node8"><a xlink:title=" ">
<polygon fill="white" stroke="#bfbfbf" points="317.5,-437 317.5,-494 359.5,-494 359.5,-437 317.5,-437"/>
<text text-anchor="middle" x="338.5" y="-482" font-family="Helvetica,sans-Serif" font-size="10.00">Color</text>
<polyline fill="none" stroke="#bfbfbf" points="317.5,-475 359.5,-475 "/>
<text text-anchor="middle" x="338.5" y="-463" font-family="Helvetica,sans-Serif" font-size="10.00"> </text>
<polyline fill="none" stroke="#bfbfbf" points="317.5,-456 359.5,-456 "/>
<text text-anchor="middle" x="338.5" y="-444" font-family="Helvetica,sans-Serif" font-size="10.00"> </text>
</a>
</g>
</g>
<!-- Node8&#45;&gt;Node7 -->
<g id="edge7" class="edge">
<title>Node8&#45;&gt;Node7</title>
<path fill="none" stroke="midnightblue" d="M338.5,-426.54C338.5,-413.24 338.5,-397.84 338.5,-382.71"/>
<polygon fill="none" stroke="midnightblue" points="335,-426.7 338.5,-436.7 342,-426.7 335,-426.7"/>
</g>
</g>
</svg>
