<?xml version="1.0" encoding="UTF-8" standalone="no"?>
<!DOCTYPE svg PUBLIC "-//W3C//DTD SVG 1.1//EN"
 "http://www.w3.org/Graphics/SVG/1.1/DTD/svg11.dtd">
<!-- Generated by graphviz version 2.43.0 (0)
 -->
<!-- Title: Component::AController Pages: 1 -->
<svg width="524pt" height="1125pt"
 viewBox="0.00 0.00 523.50 1125.00" xmlns="http://www.w3.org/2000/svg" xmlns:xlink="http://www.w3.org/1999/xlink">
<g id="graph0" class="graph" transform="scale(1 1) rotate(0) translate(4 1121)">
<title>Component::AController</title>
<polygon fill="white" stroke="transparent" points="-4,4 -4,-1121 519.5,-1121 519.5,4 -4,4"/>
<!-- Node1 -->
<g id="node1" class="node">
<title>Node1</title>
<g id="a_node1"><a xlink:title=" ">
<polygon fill="#bfbfbf" stroke="black" points="173.5,-0.5 173.5,-156.5 307.5,-156.5 307.5,-0.5 173.5,-0.5"/>
<text text-anchor="middle" x="240.5" y="-144.5" font-family="Helvetica,sans-Serif" font-size="10.00">Component::AController</text>
<polyline fill="none" stroke="black" points="173.5,-137.5 307.5,-137.5 "/>
<text text-anchor="middle" x="240.5" y="-125.5" font-family="Helvetica,sans-Serif" font-size="10.00"> </text>
<polyline fill="none" stroke="black" points="173.5,-118.5 307.5,-118.5 "/>
<text text-anchor="start" x="181.5" y="-106.5" font-family="Helvetica,sans-Serif" font-size="10.00">+ AController()</text>
<text text-anchor="start" x="181.5" y="-95.5" font-family="Helvetica,sans-Serif" font-size="10.00">+ ~AController()</text>
<text text-anchor="start" x="181.5" y="-84.5" font-family="Helvetica,sans-Serif" font-size="10.00">+ AController()</text>
<text text-anchor="start" x="181.5" y="-73.5" font-family="Helvetica,sans-Serif" font-size="10.00">+ operator=()</text>
<text text-anchor="start" x="181.5" y="-62.5" font-family="Helvetica,sans-Serif" font-size="10.00">+ GetMovement()</text>
<text text-anchor="start" x="181.5" y="-51.5" font-family="Helvetica,sans-Serif" font-size="10.00">+ GetDropBomb()</text>
<text text-anchor="start" x="181.5" y="-40.5" font-family="Helvetica,sans-Serif" font-size="10.00">+ GetAController()</text>
<text text-anchor="start" x="181.5" y="-29.5" font-family="Helvetica,sans-Serif" font-size="10.00">+ Update()</text>
<text text-anchor="start" x="181.5" y="-18.5" font-family="Helvetica,sans-Serif" font-size="10.00">+ FixedUpdate()</text>
<text text-anchor="start" x="181.5" y="-7.5" font-family="Helvetica,sans-Serif" font-size="10.00">+ LateUpdate()</text>
</a>
</g>
</g>
<!-- Node2 -->
<g id="node2" class="node">
<title>Node2</title>
<g id="a_node2"><a xlink:href="classComponent_1_1IBehaviour.html" target="_top" xlink:title="IBehaviour base component (CF Monobehaviour class in Unity)">
<polygon fill="white" stroke="black" points="80,-557 80,-680 211,-680 211,-557 80,-557"/>
<text text-anchor="middle" x="145.5" y="-668" font-family="Helvetica,sans-Serif" font-size="10.00">Component::IBehaviour</text>
<polyline fill="none" stroke="black" points="80,-661 211,-661 "/>
<text text-anchor="middle" x="145.5" y="-649" font-family="Helvetica,sans-Serif" font-size="10.00"> </text>
<polyline fill="none" stroke="black" points="80,-642 211,-642 "/>
<text text-anchor="start" x="88" y="-630" font-family="Helvetica,sans-Serif" font-size="10.00">+ IBehaviour()</text>
<text text-anchor="start" x="88" y="-619" font-family="Helvetica,sans-Serif" font-size="10.00">+ ~IBehaviour()</text>
<text text-anchor="start" x="88" y="-608" font-family="Helvetica,sans-Serif" font-size="10.00">+ IBehaviour()</text>
<text text-anchor="start" x="88" y="-597" font-family="Helvetica,sans-Serif" font-size="10.00">+ operator=()</text>
<text text-anchor="start" x="88" y="-586" font-family="Helvetica,sans-Serif" font-size="10.00">+ Update()</text>
<text text-anchor="start" x="88" y="-575" font-family="Helvetica,sans-Serif" font-size="10.00">+ FixedUpdate()</text>
<text text-anchor="start" x="88" y="-564" font-family="Helvetica,sans-Serif" font-size="10.00">+ LateUpdate()</text>
</a>
</g>
</g>
<!-- Node2&#45;&gt;Node1 -->
<g id="edge1" class="edge">
<title>Node2&#45;&gt;Node1</title>
<path fill="none" stroke="midnightblue" d="M134.33,-546.83C123.82,-462.8 114.75,-319.41 152.5,-204 157.85,-187.65 166.15,-171.57 175.57,-156.69"/>
<polygon fill="none" stroke="midnightblue" points="130.86,-547.31 135.61,-556.78 137.8,-546.42 130.86,-547.31"/>
</g>
<!-- Node9 -->
<g id="node9" class="node">
<title>Node9</title>
<g id="a_node9"><a xlink:href="classComponent_1_1Movement.html" target="_top" xlink:title="Behaviour script responsible for moving an entity.">
<polygon fill="white" stroke="black" points="337,-221 337,-465 468,-465 468,-221 337,-221"/>
<text text-anchor="middle" x="402.5" y="-453" font-family="Helvetica,sans-Serif" font-size="10.00">Component::Movement</text>
<polyline fill="none" stroke="black" points="337,-446 468,-446 "/>
<text text-anchor="start" x="345" y="-434" font-family="Helvetica,sans-Serif" font-size="10.00">&#45; _colliding</text>
<text text-anchor="start" x="345" y="-423" font-family="Helvetica,sans-Serif" font-size="10.00">&#45; _speed</text>
<text text-anchor="start" x="345" y="-412" font-family="Helvetica,sans-Serif" font-size="10.00">&#45; _startSpeed</text>
<text text-anchor="start" x="345" y="-401" font-family="Helvetica,sans-Serif" font-size="10.00">&#45; _bonusTime</text>
<text text-anchor="start" x="345" y="-390" font-family="Helvetica,sans-Serif" font-size="10.00">&#45; _maxSpeed</text>
<text text-anchor="start" x="345" y="-379" font-family="Helvetica,sans-Serif" font-size="10.00">&#45; _collisionMask</text>
<polyline fill="none" stroke="black" points="337,-372 468,-372 "/>
<text text-anchor="start" x="345" y="-360" font-family="Helvetica,sans-Serif" font-size="10.00">+ Movement()</text>
<text text-anchor="start" x="345" y="-349" font-family="Helvetica,sans-Serif" font-size="10.00">+ ~Movement()</text>
<text text-anchor="start" x="345" y="-338" font-family="Helvetica,sans-Serif" font-size="10.00">+ Movement()</text>
<text text-anchor="start" x="345" y="-327" font-family="Helvetica,sans-Serif" font-size="10.00">+ operator=()</text>
<text text-anchor="start" x="345" y="-316" font-family="Helvetica,sans-Serif" font-size="10.00">+ Update()</text>
<text text-anchor="start" x="345" y="-305" font-family="Helvetica,sans-Serif" font-size="10.00">+ FixedUpdate()</text>
<text text-anchor="start" x="345" y="-294" font-family="Helvetica,sans-Serif" font-size="10.00">+ LateUpdate()</text>
<text text-anchor="start" x="345" y="-283" font-family="Helvetica,sans-Serif" font-size="10.00">+ GetBonusTime()</text>
<text text-anchor="start" x="345" y="-272" font-family="Helvetica,sans-Serif" font-size="10.00">+ SlipperyCollisions()</text>
<text text-anchor="start" x="345" y="-261" font-family="Helvetica,sans-Serif" font-size="10.00">+ CheckCollidersPos()</text>
<text text-anchor="start" x="345" y="-250" font-family="Helvetica,sans-Serif" font-size="10.00">+ BoostSpeed()</text>
<text text-anchor="start" x="345" y="-239" font-family="Helvetica,sans-Serif" font-size="10.00">+ operator&lt;&lt;()</text>
<text text-anchor="start" x="345" y="-228" font-family="Helvetica,sans-Serif" font-size="10.00">+ operator&lt;&lt;()</text>
</a>
</g>
</g>
<!-- Node2&#45;&gt;Node9 -->
<g id="edge10" class="edge">
<title>Node2&#45;&gt;Node9</title>
<path fill="none" stroke="midnightblue" d="M218.59,-550.49C239.9,-532.79 263.85,-514.58 287.5,-500 304.44,-489.56 313.89,-495.51 328.5,-482 334.09,-476.83 339.34,-471.15 344.26,-465.11"/>
<polygon fill="none" stroke="midnightblue" points="216.26,-547.87 210.86,-556.98 220.77,-553.23 216.26,-547.87"/>
</g>
<!-- Node3 -->
<g id="node3" class="node">
<title>Node3</title>
<g id="a_node3"><a xlink:href="classECS_1_1IComponent.html" target="_top" xlink:title="Base Interface class to create a new component.">
<polygon fill="white" stroke="black" points="0,-816 0,-906 103,-906 103,-816 0,-816"/>
<text text-anchor="middle" x="51.5" y="-894" font-family="Helvetica,sans-Serif" font-size="10.00">ECS::IComponent</text>
<polyline fill="none" stroke="black" points="0,-887 103,-887 "/>
<text text-anchor="middle" x="51.5" y="-875" font-family="Helvetica,sans-Serif" font-size="10.00"> </text>
<polyline fill="none" stroke="black" points="0,-868 103,-868 "/>
<text text-anchor="start" x="8" y="-856" font-family="Helvetica,sans-Serif" font-size="10.00">+ IComponent()</text>
<text text-anchor="start" x="8" y="-845" font-family="Helvetica,sans-Serif" font-size="10.00">+ ~IComponent()</text>
<text text-anchor="start" x="8" y="-834" font-family="Helvetica,sans-Serif" font-size="10.00">+ IComponent()</text>
<text text-anchor="start" x="8" y="-823" font-family="Helvetica,sans-Serif" font-size="10.00">+ operator=()</text>
</a>
</g>
</g>
<!-- Node3&#45;&gt;Node2 -->
<g id="edge2" class="edge">
<title>Node3&#45;&gt;Node2</title>
<path fill="none" stroke="midnightblue" d="M72.54,-806.18C87.15,-768.78 106.66,-718.88 121.82,-680.09"/>
<polygon fill="none" stroke="midnightblue" points="69.12,-805.3 68.74,-815.89 75.64,-807.85 69.12,-805.3"/>
</g>
<!-- Node5 -->
<g id="node5" class="node">
<title>Node5</title>
<g id="a_node5"><a xlink:href="classComponent_1_1DropBomb.html" target="_top" xlink:title="Behaviour for players or AI allowing to drop a bomb upon pressing a key.">
<polygon fill="white" stroke="black" points="162,-204.5 162,-481.5 319,-481.5 319,-204.5 162,-204.5"/>
<text text-anchor="middle" x="240.5" y="-469.5" font-family="Helvetica,sans-Serif" font-size="10.00">Component::DropBomb</text>
<polyline fill="none" stroke="black" points="162,-462.5 319,-462.5 "/>
<text text-anchor="start" x="170" y="-450.5" font-family="Helvetica,sans-Serif" font-size="10.00">+ timeToDrop</text>
<text text-anchor="start" x="170" y="-439.5" font-family="Helvetica,sans-Serif" font-size="10.00">&#45; _coordinator</text>
<text text-anchor="start" x="170" y="-428.5" font-family="Helvetica,sans-Serif" font-size="10.00">&#45; _window</text>
<text text-anchor="start" x="170" y="-417.5" font-family="Helvetica,sans-Serif" font-size="10.00">&#45; _bombNumber</text>
<text text-anchor="start" x="170" y="-406.5" font-family="Helvetica,sans-Serif" font-size="10.00">&#45; _defaultBombNumber</text>
<text text-anchor="start" x="170" y="-395.5" font-family="Helvetica,sans-Serif" font-size="10.00">&#45; _bonusTimeRange</text>
<text text-anchor="start" x="170" y="-384.5" font-family="Helvetica,sans-Serif" font-size="10.00">&#45; _bonusTimeCoolDown</text>
<text text-anchor="start" x="170" y="-373.5" font-family="Helvetica,sans-Serif" font-size="10.00">&#45; _defaultDropDelay</text>
<text text-anchor="start" x="170" y="-362.5" font-family="Helvetica,sans-Serif" font-size="10.00">&#45; _dropDelay</text>
<text text-anchor="start" x="170" y="-351.5" font-family="Helvetica,sans-Serif" font-size="10.00">&#45; _minDelay</text>
<text text-anchor="start" x="170" y="-340.5" font-family="Helvetica,sans-Serif" font-size="10.00">&#45; _maxBombs</text>
<polyline fill="none" stroke="black" points="162,-333.5 319,-333.5 "/>
<text text-anchor="start" x="170" y="-321.5" font-family="Helvetica,sans-Serif" font-size="10.00">+ DropBomb()</text>
<text text-anchor="start" x="170" y="-310.5" font-family="Helvetica,sans-Serif" font-size="10.00">+ ~DropBomb()</text>
<text text-anchor="start" x="170" y="-299.5" font-family="Helvetica,sans-Serif" font-size="10.00">+ DropBomb()</text>
<text text-anchor="start" x="170" y="-288.5" font-family="Helvetica,sans-Serif" font-size="10.00">+ operator=()</text>
<text text-anchor="start" x="170" y="-277.5" font-family="Helvetica,sans-Serif" font-size="10.00">+ InstantiateBomb()</text>
<text text-anchor="start" x="170" y="-266.5" font-family="Helvetica,sans-Serif" font-size="10.00">+ CreateBomb()</text>
<text text-anchor="start" x="170" y="-255.5" font-family="Helvetica,sans-Serif" font-size="10.00">+ GetBombNumber()</text>
<text text-anchor="start" x="170" y="-244.5" font-family="Helvetica,sans-Serif" font-size="10.00">+ GetBonusTimeRange()</text>
<text text-anchor="start" x="170" y="-233.5" font-family="Helvetica,sans-Serif" font-size="10.00">+ GetBonusTimeCoolDown()</text>
<text text-anchor="start" x="170" y="-222.5" font-family="Helvetica,sans-Serif" font-size="10.00">+ BoostBombNumber()</text>
<text text-anchor="start" x="170" y="-211.5" font-family="Helvetica,sans-Serif" font-size="10.00">and 6 more...</text>
</a>
</g>
</g>
<!-- Node3&#45;&gt;Node5 -->
<g id="edge5" class="edge">
<title>Node3&#45;&gt;Node5</title>
<path fill="none" stroke="midnightblue" d="M43.82,-805.84C36.6,-738.15 31.94,-620.14 70.5,-529 90.3,-482.2 127.29,-439.68 161.71,-407.24"/>
<polygon fill="none" stroke="midnightblue" points="40.36,-806.31 44.95,-815.85 47.31,-805.52 40.36,-806.31"/>
</g>
<!-- Node4 -->
<g id="node4" class="node">
<title>Node4</title>
<g id="a_node4"><a xlink:href="classIXMLSerializable.html" target="_top" xlink:title=" ">
<polygon fill="white" stroke="black" points="222,-1004.5 222,-1116.5 347,-1116.5 347,-1004.5 222,-1004.5"/>
<text text-anchor="middle" x="284.5" y="-1104.5" font-family="Helvetica,sans-Serif" font-size="10.00">IXMLSerializable</text>
<polyline fill="none" stroke="black" points="222,-1097.5 347,-1097.5 "/>
<text text-anchor="middle" x="284.5" y="-1085.5" font-family="Helvetica,sans-Serif" font-size="10.00"> </text>
<polyline fill="none" stroke="black" points="222,-1078.5 347,-1078.5 "/>
<text text-anchor="start" x="230" y="-1066.5" font-family="Helvetica,sans-Serif" font-size="10.00">+ IXMLSerializable()</text>
<text text-anchor="start" x="230" y="-1055.5" font-family="Helvetica,sans-Serif" font-size="10.00">+ ~IXMLSerializable()</text>
<text text-anchor="start" x="230" y="-1044.5" font-family="Helvetica,sans-Serif" font-size="10.00">+ IXMLSerializable()</text>
<text text-anchor="start" x="230" y="-1033.5" font-family="Helvetica,sans-Serif" font-size="10.00">+ operator=()</text>
<text text-anchor="start" x="230" y="-1022.5" font-family="Helvetica,sans-Serif" font-size="10.00">+ operator&lt;&lt;()</text>
<text text-anchor="start" x="230" y="-1011.5" font-family="Helvetica,sans-Serif" font-size="10.00">+ operator&lt;&lt;()</text>
</a>
</g>
</g>
<!-- Node4&#45;&gt;Node3 -->
<g id="edge3" class="edge">
<title>Node4&#45;&gt;Node3</title>
<path fill="none" stroke="midnightblue" d="M212.54,-1032.05C178.96,-1016.66 140.18,-994.89 111.5,-967 93.89,-949.88 79.84,-926.47 69.78,-906.11"/>
<polygon fill="none" stroke="midnightblue" points="211.3,-1035.33 221.86,-1036.22 214.16,-1028.94 211.3,-1035.33"/>
</g>
<!-- Node10 -->
<g id="node10" class="node">
<title>Node10</title>
<g id="a_node10"><a xlink:href="classRayLib_1_1Vector3.html" target="_top" xlink:title="Vector3 encapsulation.">
<polygon fill="white" stroke="black" points="423.5,-777.5 423.5,-944.5 515.5,-944.5 515.5,-777.5 423.5,-777.5"/>
<text text-anchor="middle" x="469.5" y="-932.5" font-family="Helvetica,sans-Serif" font-size="10.00">RayLib::Vector3</text>
<polyline fill="none" stroke="black" points="423.5,-925.5 515.5,-925.5 "/>
<text text-anchor="middle" x="469.5" y="-913.5" font-family="Helvetica,sans-Serif" font-size="10.00"> </text>
<polyline fill="none" stroke="black" points="423.5,-906.5 515.5,-906.5 "/>
<text text-anchor="start" x="431.5" y="-894.5" font-family="Helvetica,sans-Serif" font-size="10.00">+ Vector3()</text>
<text text-anchor="start" x="431.5" y="-883.5" font-family="Helvetica,sans-Serif" font-size="10.00">+ Vector3()</text>
<text text-anchor="start" x="431.5" y="-872.5" font-family="Helvetica,sans-Serif" font-size="10.00">+ Vector3()</text>
<text text-anchor="start" x="431.5" y="-861.5" font-family="Helvetica,sans-Serif" font-size="10.00">+ Vector3()</text>
<text text-anchor="start" x="431.5" y="-850.5" font-family="Helvetica,sans-Serif" font-size="10.00">+ Vector3()</text>
<text text-anchor="start" x="431.5" y="-839.5" font-family="Helvetica,sans-Serif" font-size="10.00">+ Vector3()</text>
<text text-anchor="start" x="431.5" y="-828.5" font-family="Helvetica,sans-Serif" font-size="10.00">+ ~Vector3()</text>
<text text-anchor="start" x="431.5" y="-817.5" font-family="Helvetica,sans-Serif" font-size="10.00">+ getVector3()</text>
<text text-anchor="start" x="431.5" y="-806.5" font-family="Helvetica,sans-Serif" font-size="10.00">+ operator=()</text>
<text text-anchor="start" x="431.5" y="-795.5" font-family="Helvetica,sans-Serif" font-size="10.00">+ operator*=()</text>
<text text-anchor="start" x="431.5" y="-784.5" font-family="Helvetica,sans-Serif" font-size="10.00">and 13 more...</text>
</a>
</g>
</g>
<!-- Node4&#45;&gt;Node10 -->
<g id="edge13" class="edge">
<title>Node4&#45;&gt;Node10</title>
<path fill="none" stroke="midnightblue" d="M355.67,-1017.82C376.32,-1003.49 397.77,-986.17 414.5,-967 420.45,-960.18 425.98,-952.6 431.06,-944.72"/>
<polygon fill="none" stroke="midnightblue" points="353.51,-1015.06 347.2,-1023.57 357.44,-1020.85 353.51,-1015.06"/>
</g>
<!-- Node5&#45;&gt;Node1 -->
<g id="edge4" class="edge">
<title>Node5&#45;&gt;Node1</title>
<path fill="none" stroke="#404040" d="M240.5,-204.22C240.5,-192.22 240.5,-180.29 240.5,-168.84"/>
<polygon fill="none" stroke="#404040" points="240.5,-168.62 236.5,-162.62 240.5,-156.62 244.5,-162.62 240.5,-168.62"/>
<text text-anchor="middle" x="274" y="-178" font-family="Helvetica,sans-Serif" font-size="10.00"> #_dropBomb</text>
</g>
<!-- Node6 -->
<g id="node6" class="node">
<title>Node6</title>
<g id="a_node6"><a xlink:href="classECS_1_1Entity.html" target="_top" xlink:title="Scene object containing components and an ID.">
<polygon fill="white" stroke="black" points="270.5,-529.5 270.5,-707.5 384.5,-707.5 384.5,-529.5 270.5,-529.5"/>
<text text-anchor="middle" x="327.5" y="-695.5" font-family="Helvetica,sans-Serif" font-size="10.00">ECS::Entity</text>
<polyline fill="none" stroke="black" points="270.5,-688.5 384.5,-688.5 "/>
<text text-anchor="start" x="278.5" y="-676.5" font-family="Helvetica,sans-Serif" font-size="10.00">&#45; _id</text>
<text text-anchor="start" x="278.5" y="-665.5" font-family="Helvetica,sans-Serif" font-size="10.00">&#45; _tag</text>
<polyline fill="none" stroke="black" points="270.5,-658.5 384.5,-658.5 "/>
<text text-anchor="start" x="278.5" y="-646.5" font-family="Helvetica,sans-Serif" font-size="10.00">+ Entity()</text>
<text text-anchor="start" x="278.5" y="-635.5" font-family="Helvetica,sans-Serif" font-size="10.00">+ Entity()</text>
<text text-anchor="start" x="278.5" y="-624.5" font-family="Helvetica,sans-Serif" font-size="10.00">+ ~Entity()</text>
<text text-anchor="start" x="278.5" y="-613.5" font-family="Helvetica,sans-Serif" font-size="10.00">+ Entity()</text>
<text text-anchor="start" x="278.5" y="-602.5" font-family="Helvetica,sans-Serif" font-size="10.00">+ operator=()</text>
<text text-anchor="start" x="278.5" y="-591.5" font-family="Helvetica,sans-Serif" font-size="10.00">+ GetComponent()</text>
<text text-anchor="start" x="278.5" y="-580.5" font-family="Helvetica,sans-Serif" font-size="10.00">+ OfType()</text>
<text text-anchor="start" x="278.5" y="-569.5" font-family="Helvetica,sans-Serif" font-size="10.00">+ GetComponents()</text>
<text text-anchor="start" x="278.5" y="-558.5" font-family="Helvetica,sans-Serif" font-size="10.00">+ AddComponent()</text>
<text text-anchor="start" x="278.5" y="-547.5" font-family="Helvetica,sans-Serif" font-size="10.00">+ AddComponent()</text>
<text text-anchor="start" x="278.5" y="-536.5" font-family="Helvetica,sans-Serif" font-size="10.00">and 9 more...</text>
</a>
</g>
</g>
<!-- Node6&#45;&gt;Node5 -->
<g id="edge6" class="edge">
<title>Node6&#45;&gt;Node5</title>
<path fill="none" stroke="#404040" d="M299.49,-529.46C295.8,-517.86 291.94,-505.73 288.04,-493.45"/>
<polygon fill="none" stroke="#404040" points="287.93,-493.09 282.3,-488.59 284.29,-481.66 289.92,-486.16 287.93,-493.09"/>
<text text-anchor="middle" x="307" y="-503" font-family="Helvetica,sans-Serif" font-size="10.00"> &#45;_self</text>
</g>
<!-- Node6&#45;&gt;Node9 -->
<g id="edge14" class="edge">
<title>Node6&#45;&gt;Node9</title>
<path fill="none" stroke="#404040" d="M351.64,-529.46C356.25,-512.68 361.16,-494.77 366.04,-476.95"/>
<polygon fill="none" stroke="#404040" points="366.07,-476.84 363.8,-469.99 369.25,-465.26 371.52,-472.11 366.07,-476.84"/>
<text text-anchor="middle" x="378" y="-503" font-family="Helvetica,sans-Serif" font-size="10.00"> &#45;_entity</text>
</g>
<!-- Node7 -->
<g id="node7" class="node">
<title>Node7</title>
<g id="a_node7"><a xlink:href="classECS_1_1EntityManager.html" target="_top" xlink:title="Class used to manipulate Entities (a.k.a A Scene)">
<polygon fill="white" stroke="black" points="290,-788.5 290,-933.5 405,-933.5 405,-788.5 290,-788.5"/>
<text text-anchor="middle" x="347.5" y="-921.5" font-family="Helvetica,sans-Serif" font-size="10.00">ECS::EntityManager</text>
<polyline fill="none" stroke="black" points="290,-914.5 405,-914.5 "/>
<text text-anchor="start" x="298" y="-902.5" font-family="Helvetica,sans-Serif" font-size="10.00">&#45; _available</text>
<text text-anchor="start" x="298" y="-891.5" font-family="Helvetica,sans-Serif" font-size="10.00">&#45; _max</text>
<text text-anchor="start" x="298" y="-880.5" font-family="Helvetica,sans-Serif" font-size="10.00">&#45; _entities</text>
<polyline fill="none" stroke="black" points="290,-873.5 405,-873.5 "/>
<text text-anchor="start" x="298" y="-861.5" font-family="Helvetica,sans-Serif" font-size="10.00">+ EntityManager()</text>
<text text-anchor="start" x="298" y="-850.5" font-family="Helvetica,sans-Serif" font-size="10.00">+ ~EntityManager()</text>
<text text-anchor="start" x="298" y="-839.5" font-family="Helvetica,sans-Serif" font-size="10.00">+ EntityManager()</text>
<text text-anchor="start" x="298" y="-828.5" font-family="Helvetica,sans-Serif" font-size="10.00">+ operator=()</text>
<text text-anchor="start" x="298" y="-817.5" font-family="Helvetica,sans-Serif" font-size="10.00">+ CreateEntity()</text>
<text text-anchor="start" x="298" y="-806.5" font-family="Helvetica,sans-Serif" font-size="10.00">+ DeleteEntity()</text>
<text text-anchor="start" x="298" y="-795.5" font-family="Helvetica,sans-Serif" font-size="10.00">+ GetEntities()</text>
</a>
</g>
</g>
<!-- Node7&#45;&gt;Node6 -->
<g id="edge7" class="edge">
<title>Node7&#45;&gt;Node6</title>
<path fill="none" stroke="#404040" d="M341.55,-788.49C339.76,-766.92 337.76,-742.82 335.84,-719.73"/>
<polygon fill="none" stroke="#404040" points="335.84,-719.73 331.35,-714.08 334.84,-707.77 339.32,-713.42 335.84,-719.73"/>
<text text-anchor="middle" x="378.5" y="-729" font-family="Helvetica,sans-Serif" font-size="10.00"> &#45;_entityManager</text>
</g>
<!-- Node8 -->
<g id="node8" class="node">
<title>Node8</title>
<g id="a_node8"><a xlink:href="classECS_1_1ComponentManager.html" target="_top" xlink:title="Class used to manipulate Components.">
<polygon fill="white" stroke="black" points="121,-755.5 121,-966.5 272,-966.5 272,-755.5 121,-755.5"/>
<text text-anchor="middle" x="196.5" y="-954.5" font-family="Helvetica,sans-Serif" font-size="10.00">ECS::ComponentManager</text>
<polyline fill="none" stroke="black" points="121,-947.5 272,-947.5 "/>
<text text-anchor="start" x="129" y="-935.5" font-family="Helvetica,sans-Serif" font-size="10.00">&#45; _bases</text>
<text text-anchor="start" x="129" y="-924.5" font-family="Helvetica,sans-Serif" font-size="10.00">&#45; _components</text>
<polyline fill="none" stroke="black" points="121,-917.5 272,-917.5 "/>
<text text-anchor="start" x="129" y="-905.5" font-family="Helvetica,sans-Serif" font-size="10.00">+ ComponentManager()</text>
<text text-anchor="start" x="129" y="-894.5" font-family="Helvetica,sans-Serif" font-size="10.00">+ ~ComponentManager()</text>
<text text-anchor="start" x="129" y="-883.5" font-family="Helvetica,sans-Serif" font-size="10.00">+ ComponentManager()</text>
<text text-anchor="start" x="129" y="-872.5" font-family="Helvetica,sans-Serif" font-size="10.00">+ operator=()</text>
<text text-anchor="start" x="129" y="-861.5" font-family="Helvetica,sans-Serif" font-size="10.00">+ GetComponent()</text>
<text text-anchor="start" x="129" y="-850.5" font-family="Helvetica,sans-Serif" font-size="10.00">+ OfType()</text>
<text text-anchor="start" x="129" y="-839.5" font-family="Helvetica,sans-Serif" font-size="10.00">+ GetComponents()</text>
<text text-anchor="start" x="129" y="-828.5" font-family="Helvetica,sans-Serif" font-size="10.00">+ AddComponent()</text>
<text text-anchor="start" x="129" y="-817.5" font-family="Helvetica,sans-Serif" font-size="10.00">+ AddComponent()</text>
<text text-anchor="start" x="129" y="-806.5" font-family="Helvetica,sans-Serif" font-size="10.00">+ RemoveComponent()</text>
<text text-anchor="start" x="129" y="-795.5" font-family="Helvetica,sans-Serif" font-size="10.00">+ HasComponent()</text>
<text text-anchor="start" x="129" y="-784.5" font-family="Helvetica,sans-Serif" font-size="10.00">+ HasComponent()</text>
<text text-anchor="start" x="129" y="-773.5" font-family="Helvetica,sans-Serif" font-size="10.00">+ HasComponents()</text>
<text text-anchor="start" x="129" y="-762.5" font-family="Helvetica,sans-Serif" font-size="10.00">+ GetComponentByName()</text>
</a>
</g>
</g>
<!-- Node8&#45;&gt;Node6 -->
<g id="edge8" class="edge">
<title>Node8&#45;&gt;Node6</title>
<path fill="none" stroke="#404040" d="M210.46,-755.49C213.68,-745.24 217.64,-735.22 222.5,-726 232.42,-707.18 246.74,-689.5 261.63,-674.16"/>
<polygon fill="none" stroke="#404040" points="261.93,-673.86 263.36,-666.8 270.44,-665.4 269,-672.47 261.93,-673.86"/>
<text text-anchor="middle" x="277.5" y="-729" font-family="Helvetica,sans-Serif" font-size="10.00"> &#45;_componentManager</text>
</g>
<!-- Node9&#45;&gt;Node1 -->
<g id="edge9" class="edge">
<title>Node9&#45;&gt;Node1</title>
<path fill="none" stroke="#404040" d="M339.55,-220.59C330.54,-205 321.07,-189.45 311.5,-175 309.69,-172.27 307.83,-169.51 305.94,-166.73"/>
<polygon fill="none" stroke="#404040" points="305.79,-166.52 299.09,-163.86 298.96,-156.65 305.66,-159.31 305.79,-166.52"/>
<text text-anchor="middle" x="351.5" y="-178" font-family="Helvetica,sans-Serif" font-size="10.00"> #_movement</text>
</g>
<!-- Node10&#45;&gt;Node9 -->
<g id="edge11" class="edge">
<title>Node10&#45;&gt;Node9</title>
<path fill="none" stroke="#404040" d="M458.77,-777.38C448.28,-696.56 432.12,-572.15 419.81,-477.32"/>
<polygon fill="none" stroke="#404040" points="419.8,-477.22 415.06,-471.79 418.25,-465.32 422.99,-470.76 419.8,-477.22"/>
<text text-anchor="middle" x="476" y="-616" font-family="Helvetica,sans-Serif" font-size="10.00"> +direction</text>
</g>
<!-- Node11 -->
<g id="node11" class="node">
<title>Node11</title>
<g id="a_node11"><a xlink:title=" ">
<polygon fill="white" stroke="#bfbfbf" points="443,-1032 443,-1089 496,-1089 496,-1032 443,-1032"/>
<text text-anchor="middle" x="469.5" y="-1077" font-family="Helvetica,sans-Serif" font-size="10.00">Vector3</text>
<polyline fill="none" stroke="#bfbfbf" points="443,-1070 496,-1070 "/>
<text text-anchor="middle" x="469.5" y="-1058" font-family="Helvetica,sans-Serif" font-size="10.00"> </text>
<polyline fill="none" stroke="#bfbfbf" points="443,-1051 496,-1051 "/>
<text text-anchor="middle" x="469.5" y="-1039" font-family="Helvetica,sans-Serif" font-size="10.00"> </text>
</a>
</g>
</g>
<!-- Node11&#45;&gt;Node10 -->
<g id="edge12" class="edge">
<title>Node11&#45;&gt;Node10</title>
<path fill="none" stroke="midnightblue" d="M469.5,-1021.48C469.5,-999.69 469.5,-971.45 469.5,-944.81"/>
<polygon fill="none" stroke="midnightblue" points="466,-1021.62 469.5,-1031.62 473,-1021.62 466,-1021.62"/>
</g>
</g>
</svg>
