<?xml version="1.0" encoding="UTF-8" standalone="no"?>
<!DOCTYPE svg PUBLIC "-//W3C//DTD SVG 1.1//EN"
 "http://www.w3.org/Graphics/SVG/1.1/DTD/svg11.dtd">
<!-- Generated by graphviz version 2.43.0 (0)
 -->
<!-- Title: RayLib::Ray Pages: 1 -->
<svg width="204pt" height="530pt"
 viewBox="0.00 0.00 204.00 530.00" xmlns="http://www.w3.org/2000/svg" xmlns:xlink="http://www.w3.org/1999/xlink">
<g id="graph0" class="graph" transform="scale(1 1) rotate(0) translate(4 526)">
<title>RayLib::Ray</title>
<polygon fill="white" stroke="transparent" points="-4,4 -4,-526 200,-526 200,4 -4,4"/>
<!-- Node1 -->
<g id="node1" class="node">
<title>Node1</title>
<g id="a_node1"><a xlink:title="Ray encapsulation.">
<polygon fill="#bfbfbf" stroke="black" points="31,-0.5 31,-145.5 128,-145.5 128,-0.5 31,-0.5"/>
<text text-anchor="middle" x="79.5" y="-133.5" font-family="Helvetica,sans-Serif" font-size="10.00">RayLib::Ray</text>
<polyline fill="none" stroke="black" points="31,-126.5 128,-126.5 "/>
<text text-anchor="middle" x="79.5" y="-114.5" font-family="Helvetica,sans-Serif" font-size="10.00"> </text>
<polyline fill="none" stroke="black" points="31,-107.5 128,-107.5 "/>
<text text-anchor="start" x="39" y="-95.5" font-family="Helvetica,sans-Serif" font-size="10.00">+ Ray()</text>
<text text-anchor="start" x="39" y="-84.5" font-family="Helvetica,sans-Serif" font-size="10.00">+ Ray()</text>
<text text-anchor="start" x="39" y="-73.5" font-family="Helvetica,sans-Serif" font-size="10.00">+ Ray()</text>
<text text-anchor="start" x="39" y="-62.5" font-family="Helvetica,sans-Serif" font-size="10.00">+ Ray()</text>
<text text-anchor="start" x="39" y="-51.5" font-family="Helvetica,sans-Serif" font-size="10.00">+ operator=()</text>
<text text-anchor="start" x="39" y="-40.5" font-family="Helvetica,sans-Serif" font-size="10.00">+ ~Ray()</text>
<text text-anchor="start" x="39" y="-29.5" font-family="Helvetica,sans-Serif" font-size="10.00">+ GetPosition()</text>
<text text-anchor="start" x="39" y="-18.5" font-family="Helvetica,sans-Serif" font-size="10.00">+ GetDirection()</text>
<text text-anchor="start" x="39" y="-7.5" font-family="Helvetica,sans-Serif" font-size="10.00">+ GetRay()</text>
</a>
</g>
</g>
<!-- Node2 -->
<g id="node2" class="node">
<title>Node2</title>
<g id="a_node2"><a xlink:href="classRayLib_1_1Vector3.html" target="_top" xlink:title="Vector3 encapsulation.">
<polygon fill="white" stroke="black" points="33.5,-204.5 33.5,-371.5 125.5,-371.5 125.5,-204.5 33.5,-204.5"/>
<text text-anchor="middle" x="79.5" y="-359.5" font-family="Helvetica,sans-Serif" font-size="10.00">RayLib::Vector3</text>
<polyline fill="none" stroke="black" points="33.5,-352.5 125.5,-352.5 "/>
<text text-anchor="middle" x="79.5" y="-340.5" font-family="Helvetica,sans-Serif" font-size="10.00"> </text>
<polyline fill="none" stroke="black" points="33.5,-333.5 125.5,-333.5 "/>
<text text-anchor="start" x="41.5" y="-321.5" font-family="Helvetica,sans-Serif" font-size="10.00">+ Vector3()</text>
<text text-anchor="start" x="41.5" y="-310.5" font-family="Helvetica,sans-Serif" font-size="10.00">+ Vector3()</text>
<text text-anchor="start" x="41.5" y="-299.5" font-family="Helvetica,sans-Serif" font-size="10.00">+ Vector3()</text>
<text text-anchor="start" x="41.5" y="-288.5" font-family="Helvetica,sans-Serif" font-size="10.00">+ Vector3()</text>
<text text-anchor="start" x="41.5" y="-277.5" font-family="Helvetica,sans-Serif" font-size="10.00">+ Vector3()</text>
<text text-anchor="start" x="41.5" y="-266.5" font-family="Helvetica,sans-Serif" font-size="10.00">+ Vector3()</text>
<text text-anchor="start" x="41.5" y="-255.5" font-family="Helvetica,sans-Serif" font-size="10.00">+ ~Vector3()</text>
<text text-anchor="start" x="41.5" y="-244.5" font-family="Helvetica,sans-Serif" font-size="10.00">+ getVector3()</text>
<text text-anchor="start" x="41.5" y="-233.5" font-family="Helvetica,sans-Serif" font-size="10.00">+ operator=()</text>
<text text-anchor="start" x="41.5" y="-222.5" font-family="Helvetica,sans-Serif" font-size="10.00">+ operator*=()</text>
<text text-anchor="start" x="41.5" y="-211.5" font-family="Helvetica,sans-Serif" font-size="10.00">and 13 more...</text>
</a>
</g>
</g>
<!-- Node2&#45;&gt;Node1 -->
<g id="edge1" class="edge">
<title>Node2&#45;&gt;Node1</title>
<path fill="none" stroke="#404040" d="M79.5,-204.34C79.5,-189.03 79.5,-173.02 79.5,-157.67"/>
<polygon fill="none" stroke="#404040" points="79.5,-157.53 75.5,-151.53 79.5,-145.53 83.5,-151.53 79.5,-157.53"/>
<text text-anchor="middle" x="107" y="-178" font-family="Helvetica,sans-Serif" font-size="10.00"> &#45;_direction</text>
<text text-anchor="middle" x="107" y="-167" font-family="Helvetica,sans-Serif" font-size="10.00">&#45;_position</text>
</g>
<!-- Node3 -->
<g id="node3" class="node">
<title>Node3</title>
<g id="a_node3"><a xlink:title=" ">
<polygon fill="white" stroke="#bfbfbf" points="0,-437 0,-494 53,-494 53,-437 0,-437"/>
<text text-anchor="middle" x="26.5" y="-482" font-family="Helvetica,sans-Serif" font-size="10.00">Vector3</text>
<polyline fill="none" stroke="#bfbfbf" points="0,-475 53,-475 "/>
<text text-anchor="middle" x="26.5" y="-463" font-family="Helvetica,sans-Serif" font-size="10.00"> </text>
<polyline fill="none" stroke="#bfbfbf" points="0,-456 53,-456 "/>
<text text-anchor="middle" x="26.5" y="-444" font-family="Helvetica,sans-Serif" font-size="10.00"> </text>
</a>
</g>
</g>
<!-- Node3&#45;&gt;Node2 -->
<g id="edge2" class="edge">
<title>Node3&#45;&gt;Node2</title>
<path fill="none" stroke="midnightblue" d="M37.81,-427.05C42.72,-410.8 48.68,-391.07 54.54,-371.67"/>
<polygon fill="none" stroke="midnightblue" points="34.44,-426.11 34.9,-436.69 41.14,-428.13 34.44,-426.11"/>
</g>
<!-- Node4 -->
<g id="node4" class="node">
<title>Node4</title>
<g id="a_node4"><a xlink:href="classIXMLSerializable.html" target="_top" xlink:title=" ">
<polygon fill="white" stroke="black" points="71,-409.5 71,-521.5 196,-521.5 196,-409.5 71,-409.5"/>
<text text-anchor="middle" x="133.5" y="-509.5" font-family="Helvetica,sans-Serif" font-size="10.00">IXMLSerializable</text>
<polyline fill="none" stroke="black" points="71,-502.5 196,-502.5 "/>
<text text-anchor="middle" x="133.5" y="-490.5" font-family="Helvetica,sans-Serif" font-size="10.00"> </text>
<polyline fill="none" stroke="black" points="71,-483.5 196,-483.5 "/>
<text text-anchor="start" x="79" y="-471.5" font-family="Helvetica,sans-Serif" font-size="10.00">+ IXMLSerializable()</text>
<text text-anchor="start" x="79" y="-460.5" font-family="Helvetica,sans-Serif" font-size="10.00">+ ~IXMLSerializable()</text>
<text text-anchor="start" x="79" y="-449.5" font-family="Helvetica,sans-Serif" font-size="10.00">+ IXMLSerializable()</text>
<text text-anchor="start" x="79" y="-438.5" font-family="Helvetica,sans-Serif" font-size="10.00">+ operator=()</text>
<text text-anchor="start" x="79" y="-427.5" font-family="Helvetica,sans-Serif" font-size="10.00">+ operator&lt;&lt;()</text>
<text text-anchor="start" x="79" y="-416.5" font-family="Helvetica,sans-Serif" font-size="10.00">+ operator&lt;&lt;()</text>
</a>
</g>
</g>
<!-- Node4&#45;&gt;Node2 -->
<g id="edge3" class="edge">
<title>Node4&#45;&gt;Node2</title>
<path fill="none" stroke="midnightblue" d="M113.57,-399.74C110.77,-390.64 107.87,-381.19 104.98,-371.81"/>
<polygon fill="none" stroke="midnightblue" points="110.28,-400.92 116.56,-409.45 116.97,-398.87 110.28,-400.92"/>
</g>
</g>
</svg>
