<?xml version="1.0" encoding="UTF-8" standalone="no"?>
<!DOCTYPE svg PUBLIC "-//W3C//DTD SVG 1.1//EN"
 "http://www.w3.org/Graphics/SVG/1.1/DTD/svg11.dtd">
<!-- Generated by graphviz version 2.43.0 (0)
 -->
<!-- Title: RayLib::Font Pages: 1 -->
<svg width="155pt" height="271pt"
 viewBox="0.00 0.00 155.00 271.00" xmlns="http://www.w3.org/2000/svg" xmlns:xlink="http://www.w3.org/1999/xlink">
<g id="graph0" class="graph" transform="scale(1 1) rotate(0) translate(4 267)">
<title>RayLib::Font</title>
<polygon fill="white" stroke="transparent" points="-4,4 -4,-267 151,-267 151,4 -4,4"/>
<!-- Node1 -->
<g id="node1" class="node">
<title>Node1</title>
<g id="a_node1"><a xlink:title="Font encapsulation.">
<polygon fill="#bfbfbf" stroke="black" points="0,-0.5 0,-134.5 98,-134.5 98,-0.5 0,-0.5"/>
<text text-anchor="middle" x="49" y="-122.5" font-family="Helvetica,sans-Serif" font-size="10.00">RayLib::Font</text>
<polyline fill="none" stroke="black" points="0,-115.5 98,-115.5 "/>
<text text-anchor="middle" x="49" y="-103.5" font-family="Helvetica,sans-Serif" font-size="10.00"> </text>
<polyline fill="none" stroke="black" points="0,-96.5 98,-96.5 "/>
<text text-anchor="start" x="8" y="-84.5" font-family="Helvetica,sans-Serif" font-size="10.00">+ Font()</text>
<text text-anchor="start" x="8" y="-73.5" font-family="Helvetica,sans-Serif" font-size="10.00">+ Font()</text>
<text text-anchor="start" x="8" y="-62.5" font-family="Helvetica,sans-Serif" font-size="10.00">+ Font()</text>
<text text-anchor="start" x="8" y="-51.5" font-family="Helvetica,sans-Serif" font-size="10.00">+ Font()</text>
<text text-anchor="start" x="8" y="-40.5" font-family="Helvetica,sans-Serif" font-size="10.00">+ operator=()</text>
<text text-anchor="start" x="8" y="-29.5" font-family="Helvetica,sans-Serif" font-size="10.00">+ DrawText()</text>
<text text-anchor="start" x="8" y="-18.5" font-family="Helvetica,sans-Serif" font-size="10.00">+ MeasureText()</text>
<text text-anchor="start" x="8" y="-7.5" font-family="Helvetica,sans-Serif" font-size="10.00">+ ~Font()</text>
</a>
</g>
</g>
<!-- Node1&#45;&gt;Node1 -->
<g id="edge2" class="edge">
<title>Node1&#45;&gt;Node1</title>
<path fill="none" stroke="#404040" d="M98.08,-82.74C108.49,-81.19 116,-76.11 116,-67.5 116,-62.66 113.62,-58.93 109.69,-56.32"/>
<polygon fill="none" stroke="#404040" points="109.41,-56.22 102.42,-58.01 98.08,-52.26 105.06,-50.46 109.41,-56.22"/>
<text text-anchor="middle" x="131.5" y="-65" font-family="Helvetica,sans-Serif" font-size="10.00"> +font</text>
</g>
<!-- Node2 -->
<g id="node2" class="node">
<title>Node2</title>
<g id="a_node2"><a xlink:href="classRayLib_1_1IAsset.html" target="_top" xlink:title=" ">
<polygon fill="white" stroke="black" points="6,-172.5 6,-262.5 92,-262.5 92,-172.5 6,-172.5"/>
<text text-anchor="middle" x="49" y="-250.5" font-family="Helvetica,sans-Serif" font-size="10.00">RayLib::IAsset</text>
<polyline fill="none" stroke="black" points="6,-243.5 92,-243.5 "/>
<text text-anchor="middle" x="49" y="-231.5" font-family="Helvetica,sans-Serif" font-size="10.00"> </text>
<polyline fill="none" stroke="black" points="6,-224.5 92,-224.5 "/>
<text text-anchor="start" x="14" y="-212.5" font-family="Helvetica,sans-Serif" font-size="10.00">+ IAsset()</text>
<text text-anchor="start" x="14" y="-201.5" font-family="Helvetica,sans-Serif" font-size="10.00">+ ~IAsset()</text>
<text text-anchor="start" x="14" y="-190.5" font-family="Helvetica,sans-Serif" font-size="10.00">+ IAsset()</text>
<text text-anchor="start" x="14" y="-179.5" font-family="Helvetica,sans-Serif" font-size="10.00">+ operator=()</text>
</a>
</g>
</g>
<!-- Node2&#45;&gt;Node1 -->
<g id="edge1" class="edge">
<title>Node2&#45;&gt;Node1</title>
<path fill="none" stroke="midnightblue" d="M49,-162.46C49,-153.38 49,-143.87 49,-134.53"/>
<polygon fill="none" stroke="midnightblue" points="45.5,-162.5 49,-172.5 52.5,-162.5 45.5,-162.5"/>
</g>
</g>
</svg>
