<?xml version="1.0" encoding="UTF-8" standalone="no"?>
<!DOCTYPE svg PUBLIC "-//W3C//DTD SVG 1.1//EN"
 "http://www.w3.org/Graphics/SVG/1.1/DTD/svg11.dtd">
<!-- Generated by graphviz version 2.43.0 (0)
 -->
<!-- Title: Component::Destructible Pages: 1 -->
<svg width="435pt" height="628pt"
 viewBox="0.00 0.00 435.00 628.00" xmlns="http://www.w3.org/2000/svg" xmlns:xlink="http://www.w3.org/1999/xlink">
<g id="graph0" class="graph" transform="scale(1 1) rotate(0) translate(4 624)">
<title>Component::Destructible</title>
<polygon fill="white" stroke="transparent" points="-4,4 -4,-624 431,-624 431,4 -4,4"/>
<!-- Node1 -->
<g id="node1" class="node">
<title>Node1</title>
<g id="a_node1"><a xlink:title="Component allowing for entities to be destructible.">
<polygon fill="#bfbfbf" stroke="black" points="62.5,-0.5 62.5,-134.5 200.5,-134.5 200.5,-0.5 62.5,-0.5"/>
<text text-anchor="middle" x="131.5" y="-122.5" font-family="Helvetica,sans-Serif" font-size="10.00">Component::Destructible</text>
<polyline fill="none" stroke="black" points="62.5,-115.5 200.5,-115.5 "/>
<text text-anchor="start" x="70.5" y="-103.5" font-family="Helvetica,sans-Serif" font-size="10.00"># _resistance</text>
<polyline fill="none" stroke="black" points="62.5,-96.5 200.5,-96.5 "/>
<text text-anchor="start" x="70.5" y="-84.5" font-family="Helvetica,sans-Serif" font-size="10.00">+ Destructible()</text>
<text text-anchor="start" x="70.5" y="-73.5" font-family="Helvetica,sans-Serif" font-size="10.00">+ ~Destructible()</text>
<text text-anchor="start" x="70.5" y="-62.5" font-family="Helvetica,sans-Serif" font-size="10.00">+ Destructible()</text>
<text text-anchor="start" x="70.5" y="-51.5" font-family="Helvetica,sans-Serif" font-size="10.00">+ operator=()</text>
<text text-anchor="start" x="70.5" y="-40.5" font-family="Helvetica,sans-Serif" font-size="10.00">+ GetResistance()</text>
<text text-anchor="start" x="70.5" y="-29.5" font-family="Helvetica,sans-Serif" font-size="10.00">+ TakeDamage()</text>
<text text-anchor="start" x="70.5" y="-18.5" font-family="Helvetica,sans-Serif" font-size="10.00">+ operator&lt;&lt;()</text>
<text text-anchor="start" x="70.5" y="-7.5" font-family="Helvetica,sans-Serif" font-size="10.00">+ operator&lt;&lt;()</text>
</a>
</g>
</g>
<!-- Node2 -->
<g id="node2" class="node">
<title>Node2</title>
<g id="a_node2"><a xlink:href="classECS_1_1IComponent.html" target="_top" xlink:title="Base Interface class to create a new component.">
<polygon fill="white" stroke="black" points="17,-226.5 17,-316.5 120,-316.5 120,-226.5 17,-226.5"/>
<text text-anchor="middle" x="68.5" y="-304.5" font-family="Helvetica,sans-Serif" font-size="10.00">ECS::IComponent</text>
<polyline fill="none" stroke="black" points="17,-297.5 120,-297.5 "/>
<text text-anchor="middle" x="68.5" y="-285.5" font-family="Helvetica,sans-Serif" font-size="10.00"> </text>
<polyline fill="none" stroke="black" points="17,-278.5 120,-278.5 "/>
<text text-anchor="start" x="25" y="-266.5" font-family="Helvetica,sans-Serif" font-size="10.00">+ IComponent()</text>
<text text-anchor="start" x="25" y="-255.5" font-family="Helvetica,sans-Serif" font-size="10.00">+ ~IComponent()</text>
<text text-anchor="start" x="25" y="-244.5" font-family="Helvetica,sans-Serif" font-size="10.00">+ IComponent()</text>
<text text-anchor="start" x="25" y="-233.5" font-family="Helvetica,sans-Serif" font-size="10.00">+ operator=()</text>
</a>
</g>
</g>
<!-- Node2&#45;&gt;Node1 -->
<g id="edge1" class="edge">
<title>Node2&#45;&gt;Node1</title>
<path fill="none" stroke="midnightblue" d="M85.36,-216.43C93.21,-191.27 102.62,-161.11 110.88,-134.6"/>
<polygon fill="none" stroke="midnightblue" points="81.96,-215.58 82.33,-226.17 88.64,-217.67 81.96,-215.58"/>
</g>
<!-- Node3 -->
<g id="node3" class="node">
<title>Node3</title>
<g id="a_node3"><a xlink:href="classIXMLSerializable.html" target="_top" xlink:title=" ">
<polygon fill="white" stroke="black" points="0,-458 0,-570 125,-570 125,-458 0,-458"/>
<text text-anchor="middle" x="62.5" y="-558" font-family="Helvetica,sans-Serif" font-size="10.00">IXMLSerializable</text>
<polyline fill="none" stroke="black" points="0,-551 125,-551 "/>
<text text-anchor="middle" x="62.5" y="-539" font-family="Helvetica,sans-Serif" font-size="10.00"> </text>
<polyline fill="none" stroke="black" points="0,-532 125,-532 "/>
<text text-anchor="start" x="8" y="-520" font-family="Helvetica,sans-Serif" font-size="10.00">+ IXMLSerializable()</text>
<text text-anchor="start" x="8" y="-509" font-family="Helvetica,sans-Serif" font-size="10.00">+ ~IXMLSerializable()</text>
<text text-anchor="start" x="8" y="-498" font-family="Helvetica,sans-Serif" font-size="10.00">+ IXMLSerializable()</text>
<text text-anchor="start" x="8" y="-487" font-family="Helvetica,sans-Serif" font-size="10.00">+ operator=()</text>
<text text-anchor="start" x="8" y="-476" font-family="Helvetica,sans-Serif" font-size="10.00">+ operator&lt;&lt;()</text>
<text text-anchor="start" x="8" y="-465" font-family="Helvetica,sans-Serif" font-size="10.00">+ operator&lt;&lt;()</text>
</a>
</g>
</g>
<!-- Node3&#45;&gt;Node2 -->
<g id="edge2" class="edge">
<title>Node3&#45;&gt;Node2</title>
<path fill="none" stroke="midnightblue" d="M64.13,-447.77C65.17,-406.15 66.48,-353.32 67.4,-316.59"/>
<polygon fill="none" stroke="midnightblue" points="60.63,-447.74 63.88,-457.82 67.62,-447.91 60.63,-447.74"/>
</g>
<!-- Node4 -->
<g id="node4" class="node">
<title>Node4</title>
<g id="a_node4"><a xlink:href="classECS_1_1Entity.html" target="_top" xlink:title="Scene object containing components and an ID.">
<polygon fill="white" stroke="black" points="143.5,-182.5 143.5,-360.5 257.5,-360.5 257.5,-182.5 143.5,-182.5"/>
<text text-anchor="middle" x="200.5" y="-348.5" font-family="Helvetica,sans-Serif" font-size="10.00">ECS::Entity</text>
<polyline fill="none" stroke="black" points="143.5,-341.5 257.5,-341.5 "/>
<text text-anchor="start" x="151.5" y="-329.5" font-family="Helvetica,sans-Serif" font-size="10.00">&#45; _id</text>
<text text-anchor="start" x="151.5" y="-318.5" font-family="Helvetica,sans-Serif" font-size="10.00">&#45; _tag</text>
<polyline fill="none" stroke="black" points="143.5,-311.5 257.5,-311.5 "/>
<text text-anchor="start" x="151.5" y="-299.5" font-family="Helvetica,sans-Serif" font-size="10.00">+ Entity()</text>
<text text-anchor="start" x="151.5" y="-288.5" font-family="Helvetica,sans-Serif" font-size="10.00">+ Entity()</text>
<text text-anchor="start" x="151.5" y="-277.5" font-family="Helvetica,sans-Serif" font-size="10.00">+ ~Entity()</text>
<text text-anchor="start" x="151.5" y="-266.5" font-family="Helvetica,sans-Serif" font-size="10.00">+ Entity()</text>
<text text-anchor="start" x="151.5" y="-255.5" font-family="Helvetica,sans-Serif" font-size="10.00">+ operator=()</text>
<text text-anchor="start" x="151.5" y="-244.5" font-family="Helvetica,sans-Serif" font-size="10.00">+ GetComponent()</text>
<text text-anchor="start" x="151.5" y="-233.5" font-family="Helvetica,sans-Serif" font-size="10.00">+ OfType()</text>
<text text-anchor="start" x="151.5" y="-222.5" font-family="Helvetica,sans-Serif" font-size="10.00">+ GetComponents()</text>
<text text-anchor="start" x="151.5" y="-211.5" font-family="Helvetica,sans-Serif" font-size="10.00">+ AddComponent()</text>
<text text-anchor="start" x="151.5" y="-200.5" font-family="Helvetica,sans-Serif" font-size="10.00">+ AddComponent()</text>
<text text-anchor="start" x="151.5" y="-189.5" font-family="Helvetica,sans-Serif" font-size="10.00">and 9 more...</text>
</a>
</g>
</g>
<!-- Node4&#45;&gt;Node1 -->
<g id="edge3" class="edge">
<title>Node4&#45;&gt;Node1</title>
<path fill="none" stroke="#404040" d="M170.44,-182.49C166.32,-170.45 162.13,-158.16 158.08,-146.31"/>
<polygon fill="none" stroke="#404040" points="157.97,-146 152.25,-141.62 154.1,-134.65 159.82,-139.03 157.97,-146"/>
<text text-anchor="middle" x="195" y="-156" font-family="Helvetica,sans-Serif" font-size="10.00"> #_myEntity</text>
</g>
<!-- Node5 -->
<g id="node5" class="node">
<title>Node5</title>
<g id="a_node5"><a xlink:href="classECS_1_1EntityManager.html" target="_top" xlink:title="Class used to manipulate Entities (a.k.a A Scene)">
<polygon fill="white" stroke="black" points="143,-441.5 143,-586.5 258,-586.5 258,-441.5 143,-441.5"/>
<text text-anchor="middle" x="200.5" y="-574.5" font-family="Helvetica,sans-Serif" font-size="10.00">ECS::EntityManager</text>
<polyline fill="none" stroke="black" points="143,-567.5 258,-567.5 "/>
<text text-anchor="start" x="151" y="-555.5" font-family="Helvetica,sans-Serif" font-size="10.00">&#45; _available</text>
<text text-anchor="start" x="151" y="-544.5" font-family="Helvetica,sans-Serif" font-size="10.00">&#45; _max</text>
<text text-anchor="start" x="151" y="-533.5" font-family="Helvetica,sans-Serif" font-size="10.00">&#45; _entities</text>
<polyline fill="none" stroke="black" points="143,-526.5 258,-526.5 "/>
<text text-anchor="start" x="151" y="-514.5" font-family="Helvetica,sans-Serif" font-size="10.00">+ EntityManager()</text>
<text text-anchor="start" x="151" y="-503.5" font-family="Helvetica,sans-Serif" font-size="10.00">+ ~EntityManager()</text>
<text text-anchor="start" x="151" y="-492.5" font-family="Helvetica,sans-Serif" font-size="10.00">+ EntityManager()</text>
<text text-anchor="start" x="151" y="-481.5" font-family="Helvetica,sans-Serif" font-size="10.00">+ operator=()</text>
<text text-anchor="start" x="151" y="-470.5" font-family="Helvetica,sans-Serif" font-size="10.00">+ CreateEntity()</text>
<text text-anchor="start" x="151" y="-459.5" font-family="Helvetica,sans-Serif" font-size="10.00">+ DeleteEntity()</text>
<text text-anchor="start" x="151" y="-448.5" font-family="Helvetica,sans-Serif" font-size="10.00">+ GetEntities()</text>
</a>
</g>
</g>
<!-- Node5&#45;&gt;Node4 -->
<g id="edge4" class="edge">
<title>Node5&#45;&gt;Node4</title>
<path fill="none" stroke="#404040" d="M200.5,-441.49C200.5,-420.01 200.5,-396.04 200.5,-373.05"/>
<polygon fill="none" stroke="#404040" points="200.5,-372.77 196.5,-366.77 200.5,-360.77 204.5,-366.77 200.5,-372.77"/>
<text text-anchor="middle" x="242.5" y="-382" font-family="Helvetica,sans-Serif" font-size="10.00"> &#45;_entityManager</text>
</g>
<!-- Node6 -->
<g id="node6" class="node">
<title>Node6</title>
<g id="a_node6"><a xlink:href="classECS_1_1ComponentManager.html" target="_top" xlink:title="Class used to manipulate Components.">
<polygon fill="white" stroke="black" points="276,-408.5 276,-619.5 427,-619.5 427,-408.5 276,-408.5"/>
<text text-anchor="middle" x="351.5" y="-607.5" font-family="Helvetica,sans-Serif" font-size="10.00">ECS::ComponentManager</text>
<polyline fill="none" stroke="black" points="276,-600.5 427,-600.5 "/>
<text text-anchor="start" x="284" y="-588.5" font-family="Helvetica,sans-Serif" font-size="10.00">&#45; _bases</text>
<text text-anchor="start" x="284" y="-577.5" font-family="Helvetica,sans-Serif" font-size="10.00">&#45; _components</text>
<polyline fill="none" stroke="black" points="276,-570.5 427,-570.5 "/>
<text text-anchor="start" x="284" y="-558.5" font-family="Helvetica,sans-Serif" font-size="10.00">+ ComponentManager()</text>
<text text-anchor="start" x="284" y="-547.5" font-family="Helvetica,sans-Serif" font-size="10.00">+ ~ComponentManager()</text>
<text text-anchor="start" x="284" y="-536.5" font-family="Helvetica,sans-Serif" font-size="10.00">+ ComponentManager()</text>
<text text-anchor="start" x="284" y="-525.5" font-family="Helvetica,sans-Serif" font-size="10.00">+ operator=()</text>
<text text-anchor="start" x="284" y="-514.5" font-family="Helvetica,sans-Serif" font-size="10.00">+ GetComponent()</text>
<text text-anchor="start" x="284" y="-503.5" font-family="Helvetica,sans-Serif" font-size="10.00">+ OfType()</text>
<text text-anchor="start" x="284" y="-492.5" font-family="Helvetica,sans-Serif" font-size="10.00">+ GetComponents()</text>
<text text-anchor="start" x="284" y="-481.5" font-family="Helvetica,sans-Serif" font-size="10.00">+ AddComponent()</text>
<text text-anchor="start" x="284" y="-470.5" font-family="Helvetica,sans-Serif" font-size="10.00">+ AddComponent()</text>
<text text-anchor="start" x="284" y="-459.5" font-family="Helvetica,sans-Serif" font-size="10.00">+ RemoveComponent()</text>
<text text-anchor="start" x="284" y="-448.5" font-family="Helvetica,sans-Serif" font-size="10.00">+ HasComponent()</text>
<text text-anchor="start" x="284" y="-437.5" font-family="Helvetica,sans-Serif" font-size="10.00">+ HasComponent()</text>
<text text-anchor="start" x="284" y="-426.5" font-family="Helvetica,sans-Serif" font-size="10.00">+ HasComponents()</text>
<text text-anchor="start" x="284" y="-415.5" font-family="Helvetica,sans-Serif" font-size="10.00">+ GetComponentByName()</text>
</a>
</g>
</g>
<!-- Node6&#45;&gt;Node4 -->
<g id="edge5" class="edge">
<title>Node6&#45;&gt;Node4</title>
<path fill="none" stroke="#404040" d="M305.53,-408.46C300.13,-398.32 294.42,-388.34 288.5,-379 281.52,-367.99 273.53,-356.85 265.29,-346.14"/>
<polygon fill="none" stroke="#404040" points="265.08,-345.87 258.23,-343.62 257.66,-336.44 264.52,-338.68 265.08,-345.87"/>
<text text-anchor="middle" x="350.5" y="-382" font-family="Helvetica,sans-Serif" font-size="10.00"> &#45;_componentManager</text>
</g>
</g>
</svg>
