<?xml version="1.0" encoding="UTF-8" standalone="no"?>
<!DOCTYPE svg PUBLIC "-//W3C//DTD SVG 1.1//EN"
 "http://www.w3.org/Graphics/SVG/1.1/DTD/svg11.dtd">
<!-- Generated by graphviz version 2.43.0 (0)
 -->
<!-- Title: ObjectComponent Pages: 1 -->
<svg width="582pt" height="464pt"
 viewBox="0.00 0.00 582.00 464.00" xmlns="http://www.w3.org/2000/svg" xmlns:xlink="http://www.w3.org/1999/xlink">
<g id="graph0" class="graph" transform="scale(1 1) rotate(0) translate(4 460)">
<title>ObjectComponent</title>
<polygon fill="white" stroke="transparent" points="-4,4 -4,-460 578,-460 578,4 -4,4"/>
<!-- Node1 -->
<g id="node1" class="node">
<title>Node1</title>
<g id="a_node1"><a xlink:title=" ">
<polygon fill="#bfbfbf" stroke="black" points="169,-0.5 169,-90.5 300,-90.5 300,-0.5 169,-0.5"/>
<text text-anchor="middle" x="234.5" y="-78.5" font-family="Helvetica,sans-Serif" font-size="10.00">ObjectComponent</text>
<polyline fill="none" stroke="black" points="169,-71.5 300,-71.5 "/>
<text text-anchor="start" x="177" y="-59.5" font-family="Helvetica,sans-Serif" font-size="10.00">+ size</text>
<polyline fill="none" stroke="black" points="169,-52.5 300,-52.5 "/>
<text text-anchor="start" x="177" y="-40.5" font-family="Helvetica,sans-Serif" font-size="10.00">+ ObjectComponent()</text>
<text text-anchor="start" x="177" y="-29.5" font-family="Helvetica,sans-Serif" font-size="10.00">+ ~ObjectComponent()</text>
<text text-anchor="start" x="177" y="-18.5" font-family="Helvetica,sans-Serif" font-size="10.00">+ operator&lt;&lt;()</text>
<text text-anchor="start" x="177" y="-7.5" font-family="Helvetica,sans-Serif" font-size="10.00">+ operator&lt;&lt;()</text>
</a>
</g>
</g>
<!-- Node2 -->
<g id="node2" class="node">
<title>Node2</title>
<g id="a_node2"><a xlink:href="classECS_1_1IComponent.html" target="_top" xlink:title="Base Interface class to create a new component.">
<polygon fill="white" stroke="black" points="4,-177 4,-267 107,-267 107,-177 4,-177"/>
<text text-anchor="middle" x="55.5" y="-255" font-family="Helvetica,sans-Serif" font-size="10.00">ECS::IComponent</text>
<polyline fill="none" stroke="black" points="4,-248 107,-248 "/>
<text text-anchor="middle" x="55.5" y="-236" font-family="Helvetica,sans-Serif" font-size="10.00"> </text>
<polyline fill="none" stroke="black" points="4,-229 107,-229 "/>
<text text-anchor="start" x="12" y="-217" font-family="Helvetica,sans-Serif" font-size="10.00">+ IComponent()</text>
<text text-anchor="start" x="12" y="-206" font-family="Helvetica,sans-Serif" font-size="10.00">+ ~IComponent()</text>
<text text-anchor="start" x="12" y="-195" font-family="Helvetica,sans-Serif" font-size="10.00">+ IComponent()</text>
<text text-anchor="start" x="12" y="-184" font-family="Helvetica,sans-Serif" font-size="10.00">+ operator=()</text>
</a>
</g>
</g>
<!-- Node2&#45;&gt;Node1 -->
<g id="edge1" class="edge">
<title>Node2&#45;&gt;Node1</title>
<path fill="none" stroke="midnightblue" d="M90.38,-168.87C98.44,-158.21 107.35,-147.39 116.5,-138 132.87,-121.2 152.42,-104.84 170.84,-90.71"/>
<polygon fill="none" stroke="midnightblue" points="87.52,-166.84 84.39,-176.96 93.15,-171 87.52,-166.84"/>
</g>
<!-- Node3 -->
<g id="node3" class="node">
<title>Node3</title>
<g id="a_node3"><a xlink:href="classIXMLSerializable.html" target="_top" xlink:title=" ">
<polygon fill="white" stroke="black" points="0,-343.5 0,-455.5 125,-455.5 125,-343.5 0,-343.5"/>
<text text-anchor="middle" x="62.5" y="-443.5" font-family="Helvetica,sans-Serif" font-size="10.00">IXMLSerializable</text>
<polyline fill="none" stroke="black" points="0,-436.5 125,-436.5 "/>
<text text-anchor="middle" x="62.5" y="-424.5" font-family="Helvetica,sans-Serif" font-size="10.00"> </text>
<polyline fill="none" stroke="black" points="0,-417.5 125,-417.5 "/>
<text text-anchor="start" x="8" y="-405.5" font-family="Helvetica,sans-Serif" font-size="10.00">+ IXMLSerializable()</text>
<text text-anchor="start" x="8" y="-394.5" font-family="Helvetica,sans-Serif" font-size="10.00">+ ~IXMLSerializable()</text>
<text text-anchor="start" x="8" y="-383.5" font-family="Helvetica,sans-Serif" font-size="10.00">+ IXMLSerializable()</text>
<text text-anchor="start" x="8" y="-372.5" font-family="Helvetica,sans-Serif" font-size="10.00">+ operator=()</text>
<text text-anchor="start" x="8" y="-361.5" font-family="Helvetica,sans-Serif" font-size="10.00">+ operator&lt;&lt;()</text>
<text text-anchor="start" x="8" y="-350.5" font-family="Helvetica,sans-Serif" font-size="10.00">+ operator&lt;&lt;()</text>
</a>
</g>
</g>
<!-- Node3&#45;&gt;Node2 -->
<g id="edge2" class="edge">
<title>Node3&#45;&gt;Node2</title>
<path fill="none" stroke="midnightblue" d="M59.91,-333.45C59.02,-311.31 58.06,-287.11 57.26,-267.01"/>
<polygon fill="none" stroke="midnightblue" points="56.41,-333.6 60.3,-343.45 63.4,-333.32 56.41,-333.6"/>
</g>
<!-- Node4 -->
<g id="node4" class="node">
<title>Node4</title>
<g id="a_node4"><a xlink:href="classRayLib_1_1Vector3.html" target="_top" xlink:title="Vector3 encapsulation.">
<polygon fill="white" stroke="black" points="125.5,-138.5 125.5,-305.5 217.5,-305.5 217.5,-138.5 125.5,-138.5"/>
<text text-anchor="middle" x="171.5" y="-293.5" font-family="Helvetica,sans-Serif" font-size="10.00">RayLib::Vector3</text>
<polyline fill="none" stroke="black" points="125.5,-286.5 217.5,-286.5 "/>
<text text-anchor="middle" x="171.5" y="-274.5" font-family="Helvetica,sans-Serif" font-size="10.00"> </text>
<polyline fill="none" stroke="black" points="125.5,-267.5 217.5,-267.5 "/>
<text text-anchor="start" x="133.5" y="-255.5" font-family="Helvetica,sans-Serif" font-size="10.00">+ Vector3()</text>
<text text-anchor="start" x="133.5" y="-244.5" font-family="Helvetica,sans-Serif" font-size="10.00">+ Vector3()</text>
<text text-anchor="start" x="133.5" y="-233.5" font-family="Helvetica,sans-Serif" font-size="10.00">+ Vector3()</text>
<text text-anchor="start" x="133.5" y="-222.5" font-family="Helvetica,sans-Serif" font-size="10.00">+ Vector3()</text>
<text text-anchor="start" x="133.5" y="-211.5" font-family="Helvetica,sans-Serif" font-size="10.00">+ Vector3()</text>
<text text-anchor="start" x="133.5" y="-200.5" font-family="Helvetica,sans-Serif" font-size="10.00">+ Vector3()</text>
<text text-anchor="start" x="133.5" y="-189.5" font-family="Helvetica,sans-Serif" font-size="10.00">+ ~Vector3()</text>
<text text-anchor="start" x="133.5" y="-178.5" font-family="Helvetica,sans-Serif" font-size="10.00">+ getVector3()</text>
<text text-anchor="start" x="133.5" y="-167.5" font-family="Helvetica,sans-Serif" font-size="10.00">+ operator=()</text>
<text text-anchor="start" x="133.5" y="-156.5" font-family="Helvetica,sans-Serif" font-size="10.00">+ operator*=()</text>
<text text-anchor="start" x="133.5" y="-145.5" font-family="Helvetica,sans-Serif" font-size="10.00">and 13 more...</text>
</a>
</g>
</g>
<!-- Node3&#45;&gt;Node4 -->
<g id="edge5" class="edge">
<title>Node3&#45;&gt;Node4</title>
<path fill="none" stroke="midnightblue" d="M102.12,-334.7C109.7,-322.51 117.69,-309.64 125.44,-297.16"/>
<polygon fill="none" stroke="midnightblue" points="98.99,-333.11 96.69,-343.45 104.94,-336.8 98.99,-333.11"/>
</g>
<!-- Node4&#45;&gt;Node1 -->
<g id="edge3" class="edge">
<title>Node4&#45;&gt;Node1</title>
<path fill="none" stroke="#404040" d="M201.34,-138.35C205.73,-126.19 210.16,-113.91 214.3,-102.46"/>
<polygon fill="none" stroke="#404040" points="214.41,-102.15 212.68,-95.15 218.48,-90.86 220.21,-97.87 214.41,-102.15"/>
<text text-anchor="middle" x="236" y="-112" font-family="Helvetica,sans-Serif" font-size="10.00"> +position</text>
</g>
<!-- Node5 -->
<g id="node5" class="node">
<title>Node5</title>
<g id="a_node5"><a xlink:title=" ">
<polygon fill="white" stroke="#bfbfbf" points="145,-371 145,-428 198,-428 198,-371 145,-371"/>
<text text-anchor="middle" x="171.5" y="-416" font-family="Helvetica,sans-Serif" font-size="10.00">Vector3</text>
<polyline fill="none" stroke="#bfbfbf" points="145,-409 198,-409 "/>
<text text-anchor="middle" x="171.5" y="-397" font-family="Helvetica,sans-Serif" font-size="10.00"> </text>
<polyline fill="none" stroke="#bfbfbf" points="145,-390 198,-390 "/>
<text text-anchor="middle" x="171.5" y="-378" font-family="Helvetica,sans-Serif" font-size="10.00"> </text>
</a>
</g>
</g>
<!-- Node5&#45;&gt;Node4 -->
<g id="edge4" class="edge">
<title>Node5&#45;&gt;Node4</title>
<path fill="none" stroke="midnightblue" d="M171.5,-360.59C171.5,-344.43 171.5,-324.88 171.5,-305.67"/>
<polygon fill="none" stroke="midnightblue" points="168,-360.69 171.5,-370.69 175,-360.69 168,-360.69"/>
</g>
<!-- Node6 -->
<g id="node6" class="node">
<title>Node6</title>
<g id="a_node6"><a xlink:href="classRayLib_1_1Model.html" target="_top" xlink:title="Model encapsulation.">
<polygon fill="white" stroke="black" points="235.5,-138.5 235.5,-305.5 363.5,-305.5 363.5,-138.5 235.5,-138.5"/>
<text text-anchor="middle" x="299.5" y="-293.5" font-family="Helvetica,sans-Serif" font-size="10.00">RayLib::Model</text>
<polyline fill="none" stroke="black" points="235.5,-286.5 363.5,-286.5 "/>
<text text-anchor="start" x="243.5" y="-274.5" font-family="Helvetica,sans-Serif" font-size="10.00">&#45; _fileName</text>
<polyline fill="none" stroke="black" points="235.5,-267.5 363.5,-267.5 "/>
<text text-anchor="start" x="243.5" y="-255.5" font-family="Helvetica,sans-Serif" font-size="10.00">+ Model()</text>
<text text-anchor="start" x="243.5" y="-244.5" font-family="Helvetica,sans-Serif" font-size="10.00">+ Model()</text>
<text text-anchor="start" x="243.5" y="-233.5" font-family="Helvetica,sans-Serif" font-size="10.00">+ Model()</text>
<text text-anchor="start" x="243.5" y="-222.5" font-family="Helvetica,sans-Serif" font-size="10.00">+ ~Model()</text>
<text text-anchor="start" x="243.5" y="-211.5" font-family="Helvetica,sans-Serif" font-size="10.00">+ Draw()</text>
<text text-anchor="start" x="243.5" y="-200.5" font-family="Helvetica,sans-Serif" font-size="10.00">+ DrawEx()</text>
<text text-anchor="start" x="243.5" y="-189.5" font-family="Helvetica,sans-Serif" font-size="10.00">+ SetMaterialTexture()</text>
<text text-anchor="start" x="243.5" y="-178.5" font-family="Helvetica,sans-Serif" font-size="10.00">+ SetMaterialShader()</text>
<text text-anchor="start" x="243.5" y="-167.5" font-family="Helvetica,sans-Serif" font-size="10.00">+ GetModel()</text>
<text text-anchor="start" x="243.5" y="-156.5" font-family="Helvetica,sans-Serif" font-size="10.00">+ GetFileName()</text>
<text text-anchor="start" x="243.5" y="-145.5" font-family="Helvetica,sans-Serif" font-size="10.00">+ RotateModel()</text>
</a>
</g>
</g>
<!-- Node6&#45;&gt;Node1 -->
<g id="edge6" class="edge">
<title>Node6&#45;&gt;Node1</title>
<path fill="none" stroke="#404040" d="M274.2,-138.32C270.79,-128.38 267.18,-118.42 263.5,-109 262.58,-106.65 261.62,-104.26 260.62,-101.86"/>
<polygon fill="none" stroke="#404040" points="260.52,-101.62 254.47,-97.69 255.78,-90.59 261.82,-94.53 260.52,-101.62"/>
<text text-anchor="middle" x="289" y="-112" font-family="Helvetica,sans-Serif" font-size="10.00"> +model</text>
</g>
<!-- Node6&#45;&gt;Node6 -->
<g id="edge8" class="edge">
<title>Node6&#45;&gt;Node6</title>
<path fill="none" stroke="#404040" d="M363.79,-239.7C374.29,-237.16 381.5,-231.26 381.5,-222 381.5,-216.64 379.09,-212.41 375.03,-209.31"/>
<polygon fill="none" stroke="#404040" points="374.75,-209.19 367.64,-210.4 363.79,-204.3 370.9,-203.09 374.75,-209.19"/>
<text text-anchor="middle" x="403" y="-219.5" font-family="Helvetica,sans-Serif" font-size="10.00"> &#45;_model</text>
</g>
<!-- Node7 -->
<g id="node7" class="node">
<title>Node7</title>
<g id="a_node7"><a xlink:href="classRayLib_1_1IAsset.html" target="_top" xlink:title=" ">
<polygon fill="white" stroke="black" points="361.5,-354.5 361.5,-444.5 447.5,-444.5 447.5,-354.5 361.5,-354.5"/>
<text text-anchor="middle" x="404.5" y="-432.5" font-family="Helvetica,sans-Serif" font-size="10.00">RayLib::IAsset</text>
<polyline fill="none" stroke="black" points="361.5,-425.5 447.5,-425.5 "/>
<text text-anchor="middle" x="404.5" y="-413.5" font-family="Helvetica,sans-Serif" font-size="10.00"> </text>
<polyline fill="none" stroke="black" points="361.5,-406.5 447.5,-406.5 "/>
<text text-anchor="start" x="369.5" y="-394.5" font-family="Helvetica,sans-Serif" font-size="10.00">+ IAsset()</text>
<text text-anchor="start" x="369.5" y="-383.5" font-family="Helvetica,sans-Serif" font-size="10.00">+ ~IAsset()</text>
<text text-anchor="start" x="369.5" y="-372.5" font-family="Helvetica,sans-Serif" font-size="10.00">+ IAsset()</text>
<text text-anchor="start" x="369.5" y="-361.5" font-family="Helvetica,sans-Serif" font-size="10.00">+ operator=()</text>
</a>
</g>
</g>
<!-- Node7&#45;&gt;Node6 -->
<g id="edge7" class="edge">
<title>Node7&#45;&gt;Node6</title>
<path fill="none" stroke="midnightblue" d="M372.67,-345.29C365.16,-332.74 356.98,-319.07 348.9,-305.56"/>
<polygon fill="none" stroke="midnightblue" points="369.87,-347.43 378,-354.21 375.87,-343.84 369.87,-347.43"/>
</g>
<!-- Node8 -->
<g id="node8" class="node">
<title>Node8</title>
<g id="a_node8"><a xlink:href="classRayLib_1_1Texture.html" target="_top" xlink:title="Texture encapsulation.">
<polygon fill="white" stroke="black" points="443,-138.5 443,-305.5 574,-305.5 574,-138.5 443,-138.5"/>
<text text-anchor="middle" x="508.5" y="-293.5" font-family="Helvetica,sans-Serif" font-size="10.00">RayLib::Texture</text>
<polyline fill="none" stroke="black" points="443,-286.5 574,-286.5 "/>
<text text-anchor="start" x="451" y="-274.5" font-family="Helvetica,sans-Serif" font-size="10.00">&#45; _texture</text>
<text text-anchor="start" x="451" y="-263.5" font-family="Helvetica,sans-Serif" font-size="10.00">&#45; _fileName</text>
<polyline fill="none" stroke="black" points="443,-256.5 574,-256.5 "/>
<text text-anchor="start" x="451" y="-244.5" font-family="Helvetica,sans-Serif" font-size="10.00">+ ~Texture()</text>
<text text-anchor="start" x="451" y="-233.5" font-family="Helvetica,sans-Serif" font-size="10.00">+ Texture()</text>
<text text-anchor="start" x="451" y="-222.5" font-family="Helvetica,sans-Serif" font-size="10.00">+ Texture()</text>
<text text-anchor="start" x="451" y="-211.5" font-family="Helvetica,sans-Serif" font-size="10.00">+ DrawTexture()</text>
<text text-anchor="start" x="451" y="-200.5" font-family="Helvetica,sans-Serif" font-size="10.00">+ DrawTextureEx()</text>
<text text-anchor="start" x="451" y="-189.5" font-family="Helvetica,sans-Serif" font-size="10.00">+ DrawTextureRec()</text>
<text text-anchor="start" x="451" y="-178.5" font-family="Helvetica,sans-Serif" font-size="10.00">+ DrawBillboard()</text>
<text text-anchor="start" x="451" y="-167.5" font-family="Helvetica,sans-Serif" font-size="10.00">+ DrawTextureNPatch()</text>
<text text-anchor="start" x="451" y="-156.5" font-family="Helvetica,sans-Serif" font-size="10.00">+ GetTexture()</text>
<text text-anchor="start" x="451" y="-145.5" font-family="Helvetica,sans-Serif" font-size="10.00">+ GetFileName()</text>
</a>
</g>
</g>
<!-- Node7&#45;&gt;Node8 -->
<g id="edge10" class="edge">
<title>Node7&#45;&gt;Node8</title>
<path fill="none" stroke="midnightblue" d="M436.03,-345.29C443.47,-332.74 451.57,-319.07 459.57,-305.56"/>
<polygon fill="none" stroke="midnightblue" points="432.83,-343.83 430.74,-354.21 438.85,-347.4 432.83,-343.83"/>
</g>
<!-- Node8&#45;&gt;Node1 -->
<g id="edge9" class="edge">
<title>Node8&#45;&gt;Node1</title>
<path fill="none" stroke="#404040" d="M442.78,-145.3C439.73,-142.75 436.63,-140.3 433.5,-138 396.54,-110.85 350.24,-88.98 311.6,-73.43"/>
<polygon fill="none" stroke="#404040" points="311.57,-73.42 304.52,-74.94 300.4,-69.01 307.45,-67.5 311.57,-73.42"/>
<text text-anchor="middle" x="428" y="-112" font-family="Helvetica,sans-Serif" font-size="10.00"> +texture</text>
</g>
</g>
</svg>
