<?xml version="1.0" encoding="UTF-8" standalone="no"?>
<!DOCTYPE svg PUBLIC "-//W3C//DTD SVG 1.1//EN"
 "http://www.w3.org/Graphics/SVG/1.1/DTD/svg11.dtd">
<!-- Generated by graphviz version 2.43.0 (0)
 -->
<!-- Title: Component::Camera Pages: 1 -->
<svg width="627pt" height="910pt"
 viewBox="0.00 0.00 626.50 910.00" xmlns="http://www.w3.org/2000/svg" xmlns:xlink="http://www.w3.org/1999/xlink">
<g id="graph0" class="graph" transform="scale(1 1) rotate(0) translate(4 906)">
<title>Component::Camera</title>
<polygon fill="white" stroke="transparent" points="-4,4 -4,-906 622.5,-906 622.5,4 -4,4"/>
<!-- Node1 -->
<g id="node1" class="node">
<title>Node1</title>
<g id="a_node1"><a xlink:title="Camera component.">
<polygon fill="#bfbfbf" stroke="black" points="217,-0.5 217,-233.5 348,-233.5 348,-0.5 217,-0.5"/>
<text text-anchor="middle" x="282.5" y="-221.5" font-family="Helvetica,sans-Serif" font-size="10.00">Component::Camera</text>
<polyline fill="none" stroke="black" points="217,-214.5 348,-214.5 "/>
<text text-anchor="start" x="225" y="-202.5" font-family="Helvetica,sans-Serif" font-size="10.00">&#45; _lerpTime</text>
<text text-anchor="start" x="225" y="-191.5" font-family="Helvetica,sans-Serif" font-size="10.00">&#45; _minHeight</text>
<text text-anchor="start" x="225" y="-180.5" font-family="Helvetica,sans-Serif" font-size="10.00">&#45; _music</text>
<polyline fill="none" stroke="black" points="217,-173.5 348,-173.5 "/>
<text text-anchor="start" x="225" y="-161.5" font-family="Helvetica,sans-Serif" font-size="10.00">+ Camera()</text>
<text text-anchor="start" x="225" y="-150.5" font-family="Helvetica,sans-Serif" font-size="10.00">+ Camera()</text>
<text text-anchor="start" x="225" y="-139.5" font-family="Helvetica,sans-Serif" font-size="10.00">+ ~Camera()</text>
<text text-anchor="start" x="225" y="-128.5" font-family="Helvetica,sans-Serif" font-size="10.00">+ Camera()</text>
<text text-anchor="start" x="225" y="-117.5" font-family="Helvetica,sans-Serif" font-size="10.00">+ operator=()</text>
<text text-anchor="start" x="225" y="-106.5" font-family="Helvetica,sans-Serif" font-size="10.00">+ Update()</text>
<text text-anchor="start" x="225" y="-95.5" font-family="Helvetica,sans-Serif" font-size="10.00">+ FixedUpdate()</text>
<text text-anchor="start" x="225" y="-84.5" font-family="Helvetica,sans-Serif" font-size="10.00">+ LateUpdate()</text>
<text text-anchor="start" x="225" y="-73.5" font-family="Helvetica,sans-Serif" font-size="10.00">+ LerpToPos()</text>
<text text-anchor="start" x="225" y="-62.5" font-family="Helvetica,sans-Serif" font-size="10.00">+ operator&lt;&lt;()</text>
<text text-anchor="start" x="225" y="-51.5" font-family="Helvetica,sans-Serif" font-size="10.00">+ operator&lt;&lt;()</text>
<text text-anchor="start" x="225" y="-40.5" font-family="Helvetica,sans-Serif" font-size="10.00">+ GetAveragePosition()</text>
<text text-anchor="start" x="225" y="-29.5" font-family="Helvetica,sans-Serif" font-size="10.00">+ IsPositionOffScreen()</text>
<text text-anchor="start" x="225" y="-18.5" font-family="Helvetica,sans-Serif" font-size="10.00">+ GetEntity()</text>
<text text-anchor="start" x="225" y="-7.5" font-family="Helvetica,sans-Serif" font-size="10.00">+ GetMainCamera()</text>
</a>
</g>
</g>
<!-- Node2 -->
<g id="node2" class="node">
<title>Node2</title>
<g id="a_node2"><a xlink:href="classComponent_1_1IBehaviour.html" target="_top" xlink:title="IBehaviour base component (CF Monobehaviour class in Unity)">
<polygon fill="white" stroke="black" points="0,-314.5 0,-437.5 131,-437.5 131,-314.5 0,-314.5"/>
<text text-anchor="middle" x="65.5" y="-425.5" font-family="Helvetica,sans-Serif" font-size="10.00">Component::IBehaviour</text>
<polyline fill="none" stroke="black" points="0,-418.5 131,-418.5 "/>
<text text-anchor="middle" x="65.5" y="-406.5" font-family="Helvetica,sans-Serif" font-size="10.00"> </text>
<polyline fill="none" stroke="black" points="0,-399.5 131,-399.5 "/>
<text text-anchor="start" x="8" y="-387.5" font-family="Helvetica,sans-Serif" font-size="10.00">+ IBehaviour()</text>
<text text-anchor="start" x="8" y="-376.5" font-family="Helvetica,sans-Serif" font-size="10.00">+ ~IBehaviour()</text>
<text text-anchor="start" x="8" y="-365.5" font-family="Helvetica,sans-Serif" font-size="10.00">+ IBehaviour()</text>
<text text-anchor="start" x="8" y="-354.5" font-family="Helvetica,sans-Serif" font-size="10.00">+ operator=()</text>
<text text-anchor="start" x="8" y="-343.5" font-family="Helvetica,sans-Serif" font-size="10.00">+ Update()</text>
<text text-anchor="start" x="8" y="-332.5" font-family="Helvetica,sans-Serif" font-size="10.00">+ FixedUpdate()</text>
<text text-anchor="start" x="8" y="-321.5" font-family="Helvetica,sans-Serif" font-size="10.00">+ LateUpdate()</text>
</a>
</g>
</g>
<!-- Node2&#45;&gt;Node1 -->
<g id="edge1" class="edge">
<title>Node2&#45;&gt;Node1</title>
<path fill="none" stroke="midnightblue" d="M119.67,-306.39C126.63,-297.8 133.69,-289.16 140.5,-281 165.02,-251.6 192.54,-219.75 216.78,-192.07"/>
<polygon fill="none" stroke="midnightblue" points="116.88,-304.28 113.33,-314.26 122.33,-308.67 116.88,-304.28"/>
</g>
<!-- Node3 -->
<g id="node3" class="node">
<title>Node3</title>
<g id="a_node3"><a xlink:href="classECS_1_1IComponent.html" target="_top" xlink:title="Base Interface class to create a new component.">
<polygon fill="white" stroke="black" points="46,-601 46,-691 149,-691 149,-601 46,-601"/>
<text text-anchor="middle" x="97.5" y="-679" font-family="Helvetica,sans-Serif" font-size="10.00">ECS::IComponent</text>
<polyline fill="none" stroke="black" points="46,-672 149,-672 "/>
<text text-anchor="middle" x="97.5" y="-660" font-family="Helvetica,sans-Serif" font-size="10.00"> </text>
<polyline fill="none" stroke="black" points="46,-653 149,-653 "/>
<text text-anchor="start" x="54" y="-641" font-family="Helvetica,sans-Serif" font-size="10.00">+ IComponent()</text>
<text text-anchor="start" x="54" y="-630" font-family="Helvetica,sans-Serif" font-size="10.00">+ ~IComponent()</text>
<text text-anchor="start" x="54" y="-619" font-family="Helvetica,sans-Serif" font-size="10.00">+ IComponent()</text>
<text text-anchor="start" x="54" y="-608" font-family="Helvetica,sans-Serif" font-size="10.00">+ operator=()</text>
</a>
</g>
</g>
<!-- Node3&#45;&gt;Node2 -->
<g id="edge2" class="edge">
<title>Node3&#45;&gt;Node2</title>
<path fill="none" stroke="midnightblue" d="M91.02,-590.74C85.73,-546.44 78.26,-483.87 72.77,-437.87"/>
<polygon fill="none" stroke="midnightblue" points="87.55,-591.23 92.22,-600.75 94.51,-590.4 87.55,-591.23"/>
</g>
<!-- Node5 -->
<g id="node5" class="node">
<title>Node5</title>
<g id="a_node5"><a xlink:href="classComponent_1_1Transform.html" target="_top" xlink:title=" ">
<polygon fill="white" stroke="black" points="149.5,-320 149.5,-432 277.5,-432 277.5,-320 149.5,-320"/>
<text text-anchor="middle" x="213.5" y="-420" font-family="Helvetica,sans-Serif" font-size="10.00">Component::Transform</text>
<polyline fill="none" stroke="black" points="149.5,-413 277.5,-413 "/>
<text text-anchor="middle" x="213.5" y="-401" font-family="Helvetica,sans-Serif" font-size="10.00"> </text>
<polyline fill="none" stroke="black" points="149.5,-394 277.5,-394 "/>
<text text-anchor="start" x="157.5" y="-382" font-family="Helvetica,sans-Serif" font-size="10.00">+ Transform()</text>
<text text-anchor="start" x="157.5" y="-371" font-family="Helvetica,sans-Serif" font-size="10.00">+ ~Transform()</text>
<text text-anchor="start" x="157.5" y="-360" font-family="Helvetica,sans-Serif" font-size="10.00">+ Transform()</text>
<text text-anchor="start" x="157.5" y="-349" font-family="Helvetica,sans-Serif" font-size="10.00">+ operator=()</text>
<text text-anchor="start" x="157.5" y="-338" font-family="Helvetica,sans-Serif" font-size="10.00">+ operator&lt;&lt;()</text>
<text text-anchor="start" x="157.5" y="-327" font-family="Helvetica,sans-Serif" font-size="10.00">+ operator&lt;&lt;()</text>
</a>
</g>
</g>
<!-- Node3&#45;&gt;Node5 -->
<g id="edge5" class="edge">
<title>Node3&#45;&gt;Node5</title>
<path fill="none" stroke="midnightblue" d="M120.65,-591.52C140.6,-545.43 169.29,-479.14 189.49,-432.48"/>
<polygon fill="none" stroke="midnightblue" points="117.42,-590.18 116.66,-600.75 123.84,-592.96 117.42,-590.18"/>
</g>
<!-- Node4 -->
<g id="node4" class="node">
<title>Node4</title>
<g id="a_node4"><a xlink:href="classIXMLSerializable.html" target="_top" xlink:title=" ">
<polygon fill="white" stroke="black" points="42,-789.5 42,-901.5 167,-901.5 167,-789.5 42,-789.5"/>
<text text-anchor="middle" x="104.5" y="-889.5" font-family="Helvetica,sans-Serif" font-size="10.00">IXMLSerializable</text>
<polyline fill="none" stroke="black" points="42,-882.5 167,-882.5 "/>
<text text-anchor="middle" x="104.5" y="-870.5" font-family="Helvetica,sans-Serif" font-size="10.00"> </text>
<polyline fill="none" stroke="black" points="42,-863.5 167,-863.5 "/>
<text text-anchor="start" x="50" y="-851.5" font-family="Helvetica,sans-Serif" font-size="10.00">+ IXMLSerializable()</text>
<text text-anchor="start" x="50" y="-840.5" font-family="Helvetica,sans-Serif" font-size="10.00">+ ~IXMLSerializable()</text>
<text text-anchor="start" x="50" y="-829.5" font-family="Helvetica,sans-Serif" font-size="10.00">+ IXMLSerializable()</text>
<text text-anchor="start" x="50" y="-818.5" font-family="Helvetica,sans-Serif" font-size="10.00">+ operator=()</text>
<text text-anchor="start" x="50" y="-807.5" font-family="Helvetica,sans-Serif" font-size="10.00">+ operator&lt;&lt;()</text>
<text text-anchor="start" x="50" y="-796.5" font-family="Helvetica,sans-Serif" font-size="10.00">+ operator&lt;&lt;()</text>
</a>
</g>
</g>
<!-- Node4&#45;&gt;Node3 -->
<g id="edge3" class="edge">
<title>Node4&#45;&gt;Node3</title>
<path fill="none" stroke="midnightblue" d="M102.19,-779.44C101.17,-750.47 99.98,-717.1 99.06,-691.11"/>
<polygon fill="none" stroke="midnightblue" points="98.7,-779.62 102.55,-789.49 105.69,-779.37 98.7,-779.62"/>
</g>
<!-- Node6 -->
<g id="node6" class="node">
<title>Node6</title>
<g id="a_node6"><a xlink:href="classRayLib_1_1Vector3.html" target="_top" xlink:title="Vector3 encapsulation.">
<polygon fill="white" stroke="black" points="167.5,-562.5 167.5,-729.5 259.5,-729.5 259.5,-562.5 167.5,-562.5"/>
<text text-anchor="middle" x="213.5" y="-717.5" font-family="Helvetica,sans-Serif" font-size="10.00">RayLib::Vector3</text>
<polyline fill="none" stroke="black" points="167.5,-710.5 259.5,-710.5 "/>
<text text-anchor="middle" x="213.5" y="-698.5" font-family="Helvetica,sans-Serif" font-size="10.00"> </text>
<polyline fill="none" stroke="black" points="167.5,-691.5 259.5,-691.5 "/>
<text text-anchor="start" x="175.5" y="-679.5" font-family="Helvetica,sans-Serif" font-size="10.00">+ Vector3()</text>
<text text-anchor="start" x="175.5" y="-668.5" font-family="Helvetica,sans-Serif" font-size="10.00">+ Vector3()</text>
<text text-anchor="start" x="175.5" y="-657.5" font-family="Helvetica,sans-Serif" font-size="10.00">+ Vector3()</text>
<text text-anchor="start" x="175.5" y="-646.5" font-family="Helvetica,sans-Serif" font-size="10.00">+ Vector3()</text>
<text text-anchor="start" x="175.5" y="-635.5" font-family="Helvetica,sans-Serif" font-size="10.00">+ Vector3()</text>
<text text-anchor="start" x="175.5" y="-624.5" font-family="Helvetica,sans-Serif" font-size="10.00">+ Vector3()</text>
<text text-anchor="start" x="175.5" y="-613.5" font-family="Helvetica,sans-Serif" font-size="10.00">+ ~Vector3()</text>
<text text-anchor="start" x="175.5" y="-602.5" font-family="Helvetica,sans-Serif" font-size="10.00">+ getVector3()</text>
<text text-anchor="start" x="175.5" y="-591.5" font-family="Helvetica,sans-Serif" font-size="10.00">+ operator=()</text>
<text text-anchor="start" x="175.5" y="-580.5" font-family="Helvetica,sans-Serif" font-size="10.00">+ operator*=()</text>
<text text-anchor="start" x="175.5" y="-569.5" font-family="Helvetica,sans-Serif" font-size="10.00">and 13 more...</text>
</a>
</g>
</g>
<!-- Node4&#45;&gt;Node6 -->
<g id="edge8" class="edge">
<title>Node4&#45;&gt;Node6</title>
<path fill="none" stroke="midnightblue" d="M141.41,-780.66C146.85,-771.08 152.36,-761.3 157.5,-752 161.5,-744.77 165.62,-737.23 169.72,-729.67"/>
<polygon fill="none" stroke="midnightblue" points="138.35,-778.96 136.44,-789.38 144.44,-782.43 138.35,-778.96"/>
</g>
<!-- Node5&#45;&gt;Node1 -->
<g id="edge4" class="edge">
<title>Node5&#45;&gt;Node1</title>
<path fill="none" stroke="#404040" d="M228.3,-319.87C234.22,-297.83 241.3,-271.47 248.35,-245.18"/>
<polygon fill="none" stroke="#404040" points="248.37,-245.12 246.06,-238.29 251.48,-233.53 253.79,-240.36 248.37,-245.12"/>
<text text-anchor="middle" x="277" y="-255" font-family="Helvetica,sans-Serif" font-size="10.00"> &#45;_transform</text>
</g>
<!-- Node6&#45;&gt;Node5 -->
<g id="edge6" class="edge">
<title>Node6&#45;&gt;Node5</title>
<path fill="none" stroke="#404040" d="M213.5,-562.4C213.5,-524.57 213.5,-480.29 213.5,-444.5"/>
<polygon fill="none" stroke="#404040" points="213.5,-444.21 209.5,-438.21 213.5,-432.21 217.5,-438.21 213.5,-444.21"/>
<text text-anchor="middle" x="238.5" y="-514" font-family="Helvetica,sans-Serif" font-size="10.00"> +rotation</text>
<text text-anchor="middle" x="238.5" y="-503" font-family="Helvetica,sans-Serif" font-size="10.00">+scale</text>
<text text-anchor="middle" x="238.5" y="-492" font-family="Helvetica,sans-Serif" font-size="10.00">+position</text>
</g>
<!-- Node7 -->
<g id="node7" class="node">
<title>Node7</title>
<g id="a_node7"><a xlink:title=" ">
<polygon fill="white" stroke="#bfbfbf" points="187,-817 187,-874 240,-874 240,-817 187,-817"/>
<text text-anchor="middle" x="213.5" y="-862" font-family="Helvetica,sans-Serif" font-size="10.00">Vector3</text>
<polyline fill="none" stroke="#bfbfbf" points="187,-855 240,-855 "/>
<text text-anchor="middle" x="213.5" y="-843" font-family="Helvetica,sans-Serif" font-size="10.00"> </text>
<polyline fill="none" stroke="#bfbfbf" points="187,-836 240,-836 "/>
<text text-anchor="middle" x="213.5" y="-824" font-family="Helvetica,sans-Serif" font-size="10.00"> </text>
</a>
</g>
</g>
<!-- Node7&#45;&gt;Node6 -->
<g id="edge7" class="edge">
<title>Node7&#45;&gt;Node6</title>
<path fill="none" stroke="midnightblue" d="M213.5,-806.48C213.5,-784.69 213.5,-756.45 213.5,-729.81"/>
<polygon fill="none" stroke="midnightblue" points="210,-806.62 213.5,-816.62 217,-806.62 210,-806.62"/>
</g>
<!-- Node8 -->
<g id="node8" class="node">
<title>Node8</title>
<g id="a_node8"><a xlink:href="classECS_1_1Entity.html" target="_top" xlink:title="Scene object containing components and an ID.">
<polygon fill="white" stroke="black" points="295.5,-287 295.5,-465 409.5,-465 409.5,-287 295.5,-287"/>
<text text-anchor="middle" x="352.5" y="-453" font-family="Helvetica,sans-Serif" font-size="10.00">ECS::Entity</text>
<polyline fill="none" stroke="black" points="295.5,-446 409.5,-446 "/>
<text text-anchor="start" x="303.5" y="-434" font-family="Helvetica,sans-Serif" font-size="10.00">&#45; _id</text>
<text text-anchor="start" x="303.5" y="-423" font-family="Helvetica,sans-Serif" font-size="10.00">&#45; _tag</text>
<polyline fill="none" stroke="black" points="295.5,-416 409.5,-416 "/>
<text text-anchor="start" x="303.5" y="-404" font-family="Helvetica,sans-Serif" font-size="10.00">+ Entity()</text>
<text text-anchor="start" x="303.5" y="-393" font-family="Helvetica,sans-Serif" font-size="10.00">+ Entity()</text>
<text text-anchor="start" x="303.5" y="-382" font-family="Helvetica,sans-Serif" font-size="10.00">+ ~Entity()</text>
<text text-anchor="start" x="303.5" y="-371" font-family="Helvetica,sans-Serif" font-size="10.00">+ Entity()</text>
<text text-anchor="start" x="303.5" y="-360" font-family="Helvetica,sans-Serif" font-size="10.00">+ operator=()</text>
<text text-anchor="start" x="303.5" y="-349" font-family="Helvetica,sans-Serif" font-size="10.00">+ GetComponent()</text>
<text text-anchor="start" x="303.5" y="-338" font-family="Helvetica,sans-Serif" font-size="10.00">+ OfType()</text>
<text text-anchor="start" x="303.5" y="-327" font-family="Helvetica,sans-Serif" font-size="10.00">+ GetComponents()</text>
<text text-anchor="start" x="303.5" y="-316" font-family="Helvetica,sans-Serif" font-size="10.00">+ AddComponent()</text>
<text text-anchor="start" x="303.5" y="-305" font-family="Helvetica,sans-Serif" font-size="10.00">+ AddComponent()</text>
<text text-anchor="start" x="303.5" y="-294" font-family="Helvetica,sans-Serif" font-size="10.00">and 9 more...</text>
</a>
</g>
</g>
<!-- Node8&#45;&gt;Node1 -->
<g id="edge9" class="edge">
<title>Node8&#45;&gt;Node1</title>
<path fill="none" stroke="#404040" d="M328.51,-286.91C324.86,-273.52 321.03,-259.47 317.21,-245.44"/>
<polygon fill="none" stroke="#404040" points="317.16,-245.25 311.72,-240.51 314.01,-233.67 319.44,-238.41 317.16,-245.25"/>
<text text-anchor="middle" x="342" y="-255" font-family="Helvetica,sans-Serif" font-size="10.00"> &#45;_entity</text>
</g>
<!-- Node9 -->
<g id="node9" class="node">
<title>Node9</title>
<g id="a_node9"><a xlink:href="classECS_1_1EntityManager.html" target="_top" xlink:title="Class used to manipulate Entities (a.k.a A Scene)">
<polygon fill="white" stroke="black" points="286,-573.5 286,-718.5 401,-718.5 401,-573.5 286,-573.5"/>
<text text-anchor="middle" x="343.5" y="-706.5" font-family="Helvetica,sans-Serif" font-size="10.00">ECS::EntityManager</text>
<polyline fill="none" stroke="black" points="286,-699.5 401,-699.5 "/>
<text text-anchor="start" x="294" y="-687.5" font-family="Helvetica,sans-Serif" font-size="10.00">&#45; _available</text>
<text text-anchor="start" x="294" y="-676.5" font-family="Helvetica,sans-Serif" font-size="10.00">&#45; _max</text>
<text text-anchor="start" x="294" y="-665.5" font-family="Helvetica,sans-Serif" font-size="10.00">&#45; _entities</text>
<polyline fill="none" stroke="black" points="286,-658.5 401,-658.5 "/>
<text text-anchor="start" x="294" y="-646.5" font-family="Helvetica,sans-Serif" font-size="10.00">+ EntityManager()</text>
<text text-anchor="start" x="294" y="-635.5" font-family="Helvetica,sans-Serif" font-size="10.00">+ ~EntityManager()</text>
<text text-anchor="start" x="294" y="-624.5" font-family="Helvetica,sans-Serif" font-size="10.00">+ EntityManager()</text>
<text text-anchor="start" x="294" y="-613.5" font-family="Helvetica,sans-Serif" font-size="10.00">+ operator=()</text>
<text text-anchor="start" x="294" y="-602.5" font-family="Helvetica,sans-Serif" font-size="10.00">+ CreateEntity()</text>
<text text-anchor="start" x="294" y="-591.5" font-family="Helvetica,sans-Serif" font-size="10.00">+ DeleteEntity()</text>
<text text-anchor="start" x="294" y="-580.5" font-family="Helvetica,sans-Serif" font-size="10.00">+ GetEntities()</text>
</a>
</g>
</g>
<!-- Node9&#45;&gt;Node8 -->
<g id="edge10" class="edge">
<title>Node9&#45;&gt;Node8</title>
<path fill="none" stroke="#404040" d="M345.91,-573.18C346.9,-543.76 348.06,-509.2 349.13,-477.35"/>
<polygon fill="none" stroke="#404040" points="349.13,-477.29 345.34,-471.16 349.53,-465.29 353.33,-471.42 349.13,-477.29"/>
<text text-anchor="middle" x="390.5" y="-503" font-family="Helvetica,sans-Serif" font-size="10.00"> &#45;_entityManager</text>
</g>
<!-- Node10 -->
<g id="node10" class="node">
<title>Node10</title>
<g id="a_node10"><a xlink:href="classECS_1_1ComponentManager.html" target="_top" xlink:title="Class used to manipulate Components.">
<polygon fill="white" stroke="black" points="419,-540.5 419,-751.5 570,-751.5 570,-540.5 419,-540.5"/>
<text text-anchor="middle" x="494.5" y="-739.5" font-family="Helvetica,sans-Serif" font-size="10.00">ECS::ComponentManager</text>
<polyline fill="none" stroke="black" points="419,-732.5 570,-732.5 "/>
<text text-anchor="start" x="427" y="-720.5" font-family="Helvetica,sans-Serif" font-size="10.00">&#45; _bases</text>
<text text-anchor="start" x="427" y="-709.5" font-family="Helvetica,sans-Serif" font-size="10.00">&#45; _components</text>
<polyline fill="none" stroke="black" points="419,-702.5 570,-702.5 "/>
<text text-anchor="start" x="427" y="-690.5" font-family="Helvetica,sans-Serif" font-size="10.00">+ ComponentManager()</text>
<text text-anchor="start" x="427" y="-679.5" font-family="Helvetica,sans-Serif" font-size="10.00">+ ~ComponentManager()</text>
<text text-anchor="start" x="427" y="-668.5" font-family="Helvetica,sans-Serif" font-size="10.00">+ ComponentManager()</text>
<text text-anchor="start" x="427" y="-657.5" font-family="Helvetica,sans-Serif" font-size="10.00">+ operator=()</text>
<text text-anchor="start" x="427" y="-646.5" font-family="Helvetica,sans-Serif" font-size="10.00">+ GetComponent()</text>
<text text-anchor="start" x="427" y="-635.5" font-family="Helvetica,sans-Serif" font-size="10.00">+ OfType()</text>
<text text-anchor="start" x="427" y="-624.5" font-family="Helvetica,sans-Serif" font-size="10.00">+ GetComponents()</text>
<text text-anchor="start" x="427" y="-613.5" font-family="Helvetica,sans-Serif" font-size="10.00">+ AddComponent()</text>
<text text-anchor="start" x="427" y="-602.5" font-family="Helvetica,sans-Serif" font-size="10.00">+ AddComponent()</text>
<text text-anchor="start" x="427" y="-591.5" font-family="Helvetica,sans-Serif" font-size="10.00">+ RemoveComponent()</text>
<text text-anchor="start" x="427" y="-580.5" font-family="Helvetica,sans-Serif" font-size="10.00">+ HasComponent()</text>
<text text-anchor="start" x="427" y="-569.5" font-family="Helvetica,sans-Serif" font-size="10.00">+ HasComponent()</text>
<text text-anchor="start" x="427" y="-558.5" font-family="Helvetica,sans-Serif" font-size="10.00">+ HasComponents()</text>
<text text-anchor="start" x="427" y="-547.5" font-family="Helvetica,sans-Serif" font-size="10.00">+ GetComponentByName()</text>
</a>
</g>
</g>
<!-- Node10&#45;&gt;Node8 -->
<g id="edge11" class="edge">
<title>Node10&#45;&gt;Node8</title>
<path fill="none" stroke="#404040" d="M462.76,-540.46C455.38,-522.64 446.65,-504.81 436.5,-489 430.39,-479.48 425.78,-479.66 418.5,-471 418.13,-470.56 417.76,-470.12 417.39,-469.68"/>
<polygon fill="none" stroke="#404040" points="417.22,-469.46 410.33,-467.31 409.67,-460.13 416.55,-462.28 417.22,-469.46"/>
<text text-anchor="middle" x="508.5" y="-503" font-family="Helvetica,sans-Serif" font-size="10.00"> &#45;_componentManager</text>
</g>
<!-- Node11 -->
<g id="node11" class="node">
<title>Node11</title>
<g id="a_node11"><a xlink:href="classRayLib_1_1Camera3D.html" target="_top" xlink:title="Camera3D Encapsulation of the raylib structure Camera3D.">
<polygon fill="white" stroke="black" points="427.5,-281.5 427.5,-470.5 551.5,-470.5 551.5,-281.5 427.5,-281.5"/>
<text text-anchor="middle" x="489.5" y="-458.5" font-family="Helvetica,sans-Serif" font-size="10.00">RayLib::Camera3D</text>
<polyline fill="none" stroke="black" points="427.5,-451.5 551.5,-451.5 "/>
<text text-anchor="middle" x="489.5" y="-439.5" font-family="Helvetica,sans-Serif" font-size="10.00"> </text>
<polyline fill="none" stroke="black" points="427.5,-432.5 551.5,-432.5 "/>
<text text-anchor="start" x="435.5" y="-420.5" font-family="Helvetica,sans-Serif" font-size="10.00">+ Camera3D()</text>
<text text-anchor="start" x="435.5" y="-409.5" font-family="Helvetica,sans-Serif" font-size="10.00">+ ~Camera3D()</text>
<text text-anchor="start" x="435.5" y="-398.5" font-family="Helvetica,sans-Serif" font-size="10.00">+ SetCameraMode()</text>
<text text-anchor="start" x="435.5" y="-387.5" font-family="Helvetica,sans-Serif" font-size="10.00">+ BeginMode()</text>
<text text-anchor="start" x="435.5" y="-376.5" font-family="Helvetica,sans-Serif" font-size="10.00">+ EndMode()</text>
<text text-anchor="start" x="435.5" y="-365.5" font-family="Helvetica,sans-Serif" font-size="10.00">+ Update()</text>
<text text-anchor="start" x="435.5" y="-354.5" font-family="Helvetica,sans-Serif" font-size="10.00">+ GetMouseRay()</text>
<text text-anchor="start" x="435.5" y="-343.5" font-family="Helvetica,sans-Serif" font-size="10.00">+ GetCamera()</text>
<text text-anchor="start" x="435.5" y="-332.5" font-family="Helvetica,sans-Serif" font-size="10.00">+ SetPosition()</text>
<text text-anchor="start" x="435.5" y="-321.5" font-family="Helvetica,sans-Serif" font-size="10.00">+ GetPosition()</text>
<text text-anchor="start" x="435.5" y="-310.5" font-family="Helvetica,sans-Serif" font-size="10.00">+ GetTarget()</text>
<text text-anchor="start" x="435.5" y="-299.5" font-family="Helvetica,sans-Serif" font-size="10.00">+ SetTarget()</text>
<text text-anchor="start" x="435.5" y="-288.5" font-family="Helvetica,sans-Serif" font-size="10.00">+ GetWorldToScreen()</text>
</a>
</g>
</g>
<!-- Node11&#45;&gt;Node1 -->
<g id="edge12" class="edge">
<title>Node11&#45;&gt;Node1</title>
<path fill="none" stroke="#404040" d="M427.39,-292.29C424.4,-288.46 421.43,-284.68 418.5,-281 398.58,-255.92 376.52,-229.08 356.06,-204.58"/>
<polygon fill="none" stroke="#404040" points="356,-204.51 349.08,-202.47 348.3,-195.3 355.22,-197.34 356,-204.51"/>
<text text-anchor="middle" x="424" y="-255" font-family="Helvetica,sans-Serif" font-size="10.00"> +camera</text>
</g>
<!-- Node11&#45;&gt;Node11 -->
<g id="edge13" class="edge">
<title>Node11&#45;&gt;Node11</title>
<path fill="none" stroke="#404040" d="M551.55,-396.65C562.16,-393.83 569.5,-386.95 569.5,-376 569.5,-369.5 566.91,-364.43 562.59,-360.8"/>
<polygon fill="none" stroke="#404040" points="562.31,-360.66 555.16,-361.59 551.55,-355.35 558.71,-354.42 562.31,-360.66"/>
<text text-anchor="middle" x="594" y="-373.5" font-family="Helvetica,sans-Serif" font-size="10.00"> &#45;_camera</text>
</g>
</g>
</svg>
