<?xml version="1.0" encoding="UTF-8" standalone="no"?>
<!DOCTYPE svg PUBLIC "-//W3C//DTD SVG 1.1//EN"
 "http://www.w3.org/Graphics/SVG/1.1/DTD/svg11.dtd">
<!-- Generated by graphviz version 2.43.0 (0)
 -->
<!-- Title: RayLib::Circle Pages: 1 -->
<svg width="145pt" height="497pt"
 viewBox="0.00 0.00 145.00 497.00" xmlns="http://www.w3.org/2000/svg" xmlns:xlink="http://www.w3.org/1999/xlink">
<g id="graph0" class="graph" transform="scale(1 1) rotate(0) translate(4 493)">
<title>RayLib::Circle</title>
<polygon fill="white" stroke="transparent" points="-4,4 -4,-493 141,-493 141,4 -4,4"/>
<!-- Node1 -->
<g id="node1" class="node">
<title>Node1</title>
<g id="a_node1"><a xlink:title=" ">
<polygon fill="#bfbfbf" stroke="black" points="25.5,-0.5 25.5,-112.5 111.5,-112.5 111.5,-0.5 25.5,-0.5"/>
<text text-anchor="middle" x="68.5" y="-100.5" font-family="Helvetica,sans-Serif" font-size="10.00">RayLib::Circle</text>
<polyline fill="none" stroke="black" points="25.5,-93.5 111.5,-93.5 "/>
<text text-anchor="start" x="33.5" y="-81.5" font-family="Helvetica,sans-Serif" font-size="10.00">&#45; _radius</text>
<polyline fill="none" stroke="black" points="25.5,-74.5 111.5,-74.5 "/>
<text text-anchor="start" x="33.5" y="-62.5" font-family="Helvetica,sans-Serif" font-size="10.00">+ Circle()</text>
<text text-anchor="start" x="33.5" y="-51.5" font-family="Helvetica,sans-Serif" font-size="10.00">+ ~Circle()</text>
<text text-anchor="start" x="33.5" y="-40.5" font-family="Helvetica,sans-Serif" font-size="10.00">+ SetRadius()</text>
<text text-anchor="start" x="33.5" y="-29.5" font-family="Helvetica,sans-Serif" font-size="10.00">+ GetCenter()</text>
<text text-anchor="start" x="33.5" y="-18.5" font-family="Helvetica,sans-Serif" font-size="10.00">+ GetRadius()</text>
<text text-anchor="start" x="33.5" y="-7.5" font-family="Helvetica,sans-Serif" font-size="10.00">+ SetCenter()</text>
</a>
</g>
</g>
<!-- Node2 -->
<g id="node2" class="node">
<title>Node2</title>
<g id="a_node2"><a xlink:href="classRayLib_1_1Vector2.html" target="_top" xlink:title=" ">
<polygon fill="white" stroke="black" points="0,-160.5 0,-338.5 137,-338.5 137,-160.5 0,-160.5"/>
<text text-anchor="middle" x="68.5" y="-326.5" font-family="Helvetica,sans-Serif" font-size="10.00">RayLib::Vector2&lt; float &gt;</text>
<polyline fill="none" stroke="black" points="0,-319.5 137,-319.5 "/>
<text text-anchor="start" x="8" y="-307.5" font-family="Helvetica,sans-Serif" font-size="10.00">+ x</text>
<text text-anchor="start" x="8" y="-296.5" font-family="Helvetica,sans-Serif" font-size="10.00">+ y</text>
<polyline fill="none" stroke="black" points="0,-289.5 137,-289.5 "/>
<text text-anchor="start" x="8" y="-277.5" font-family="Helvetica,sans-Serif" font-size="10.00">+ Vector2()</text>
<text text-anchor="start" x="8" y="-266.5" font-family="Helvetica,sans-Serif" font-size="10.00">+ Vector2()</text>
<text text-anchor="start" x="8" y="-255.5" font-family="Helvetica,sans-Serif" font-size="10.00">+ Vector2()</text>
<text text-anchor="start" x="8" y="-244.5" font-family="Helvetica,sans-Serif" font-size="10.00">+ Vector2()</text>
<text text-anchor="start" x="8" y="-233.5" font-family="Helvetica,sans-Serif" font-size="10.00">+ Vector2()</text>
<text text-anchor="start" x="8" y="-222.5" font-family="Helvetica,sans-Serif" font-size="10.00">+ Vector2()</text>
<text text-anchor="start" x="8" y="-211.5" font-family="Helvetica,sans-Serif" font-size="10.00">+ ~Vector2()</text>
<text text-anchor="start" x="8" y="-200.5" font-family="Helvetica,sans-Serif" font-size="10.00">+ getVector2()</text>
<text text-anchor="start" x="8" y="-189.5" font-family="Helvetica,sans-Serif" font-size="10.00">+ operator=()</text>
<text text-anchor="start" x="8" y="-178.5" font-family="Helvetica,sans-Serif" font-size="10.00">+ operator+=()</text>
<text text-anchor="start" x="8" y="-167.5" font-family="Helvetica,sans-Serif" font-size="10.00">and 6 more...</text>
</a>
</g>
</g>
<!-- Node2&#45;&gt;Node1 -->
<g id="edge1" class="edge">
<title>Node2&#45;&gt;Node1</title>
<path fill="none" stroke="#404040" d="M68.5,-160.27C68.5,-148.35 68.5,-136.28 68.5,-124.81"/>
<polygon fill="none" stroke="#404040" points="68.5,-124.63 64.5,-118.64 68.5,-112.63 72.5,-118.63 68.5,-124.63"/>
<text text-anchor="middle" x="90" y="-134" font-family="Helvetica,sans-Serif" font-size="10.00"> &#45;_center</text>
</g>
<!-- Node3 -->
<g id="node3" class="node">
<title>Node3</title>
<g id="a_node3"><a xlink:href="classIXMLSerializable.html" target="_top" xlink:title=" ">
<polygon fill="white" stroke="black" points="6,-376.5 6,-488.5 131,-488.5 131,-376.5 6,-376.5"/>
<text text-anchor="middle" x="68.5" y="-476.5" font-family="Helvetica,sans-Serif" font-size="10.00">IXMLSerializable</text>
<polyline fill="none" stroke="black" points="6,-469.5 131,-469.5 "/>
<text text-anchor="middle" x="68.5" y="-457.5" font-family="Helvetica,sans-Serif" font-size="10.00"> </text>
<polyline fill="none" stroke="black" points="6,-450.5 131,-450.5 "/>
<text text-anchor="start" x="14" y="-438.5" font-family="Helvetica,sans-Serif" font-size="10.00">+ IXMLSerializable()</text>
<text text-anchor="start" x="14" y="-427.5" font-family="Helvetica,sans-Serif" font-size="10.00">+ ~IXMLSerializable()</text>
<text text-anchor="start" x="14" y="-416.5" font-family="Helvetica,sans-Serif" font-size="10.00">+ IXMLSerializable()</text>
<text text-anchor="start" x="14" y="-405.5" font-family="Helvetica,sans-Serif" font-size="10.00">+ operator=()</text>
<text text-anchor="start" x="14" y="-394.5" font-family="Helvetica,sans-Serif" font-size="10.00">+ operator&lt;&lt;()</text>
<text text-anchor="start" x="14" y="-383.5" font-family="Helvetica,sans-Serif" font-size="10.00">+ operator&lt;&lt;()</text>
</a>
</g>
</g>
<!-- Node3&#45;&gt;Node2 -->
<g id="edge2" class="edge">
<title>Node3&#45;&gt;Node2</title>
<path fill="none" stroke="midnightblue" d="M68.5,-366.01C68.5,-357.16 68.5,-347.97 68.5,-338.8"/>
<polygon fill="none" stroke="midnightblue" points="65,-366.21 68.5,-376.21 72,-366.21 65,-366.21"/>
</g>
</g>
</svg>
