<?xml version="1.0" encoding="UTF-8" standalone="no"?>
<!DOCTYPE svg PUBLIC "-//W3C//DTD SVG 1.1//EN"
 "http://www.w3.org/Graphics/SVG/1.1/DTD/svg11.dtd">
<!-- Generated by graphviz version 2.43.0 (0)
 -->
<!-- Title: Component::Collider Pages: 1 -->
<svg width="435pt" height="672pt"
 viewBox="0.00 0.00 435.00 672.00" xmlns="http://www.w3.org/2000/svg" xmlns:xlink="http://www.w3.org/1999/xlink">
<g id="graph0" class="graph" transform="scale(1 1) rotate(0) translate(4 668)">
<title>Component::Collider</title>
<polygon fill="white" stroke="transparent" points="-4,4 -4,-668 431,-668 431,4 -4,4"/>
<!-- Node1 -->
<g id="node1" class="node">
<title>Node1</title>
<g id="a_node1"><a xlink:title="Collider base component class.">
<polygon fill="#bfbfbf" stroke="black" points="63.5,-0.5 63.5,-178.5 199.5,-178.5 199.5,-0.5 63.5,-0.5"/>
<text text-anchor="middle" x="131.5" y="-166.5" font-family="Helvetica,sans-Serif" font-size="10.00">Component::Collider</text>
<polyline fill="none" stroke="black" points="63.5,-159.5 199.5,-159.5 "/>
<text text-anchor="start" x="71.5" y="-147.5" font-family="Helvetica,sans-Serif" font-size="10.00"># _otherEntities</text>
<text text-anchor="start" x="71.5" y="-136.5" font-family="Helvetica,sans-Serif" font-size="10.00"># _collisionMask</text>
<polyline fill="none" stroke="black" points="63.5,-129.5 199.5,-129.5 "/>
<text text-anchor="start" x="71.5" y="-117.5" font-family="Helvetica,sans-Serif" font-size="10.00">+ Collider()</text>
<text text-anchor="start" x="71.5" y="-106.5" font-family="Helvetica,sans-Serif" font-size="10.00">+ ~Collider()</text>
<text text-anchor="start" x="71.5" y="-95.5" font-family="Helvetica,sans-Serif" font-size="10.00">+ Collider()</text>
<text text-anchor="start" x="71.5" y="-84.5" font-family="Helvetica,sans-Serif" font-size="10.00">+ operator=()</text>
<text text-anchor="start" x="71.5" y="-73.5" font-family="Helvetica,sans-Serif" font-size="10.00">+ IsColliding()</text>
<text text-anchor="start" x="71.5" y="-62.5" font-family="Helvetica,sans-Serif" font-size="10.00">+ IsCollidingAtPosition()</text>
<text text-anchor="start" x="71.5" y="-51.5" font-family="Helvetica,sans-Serif" font-size="10.00">+ CheckCollision()</text>
<text text-anchor="start" x="71.5" y="-40.5" font-family="Helvetica,sans-Serif" font-size="10.00">+ CheckCollision()</text>
<text text-anchor="start" x="71.5" y="-29.5" font-family="Helvetica,sans-Serif" font-size="10.00">+ DrawLines()</text>
<text text-anchor="start" x="71.5" y="-18.5" font-family="Helvetica,sans-Serif" font-size="10.00">+ GetCollision()</text>
<text text-anchor="start" x="71.5" y="-7.5" font-family="Helvetica,sans-Serif" font-size="10.00">+ GetCollisionPosition()</text>
</a>
</g>
</g>
<!-- Node2 -->
<g id="node2" class="node">
<title>Node2</title>
<g id="a_node2"><a xlink:href="classECS_1_1IComponent.html" target="_top" xlink:title="Base Interface class to create a new component.">
<polygon fill="white" stroke="black" points="17,-270.5 17,-360.5 120,-360.5 120,-270.5 17,-270.5"/>
<text text-anchor="middle" x="68.5" y="-348.5" font-family="Helvetica,sans-Serif" font-size="10.00">ECS::IComponent</text>
<polyline fill="none" stroke="black" points="17,-341.5 120,-341.5 "/>
<text text-anchor="middle" x="68.5" y="-329.5" font-family="Helvetica,sans-Serif" font-size="10.00"> </text>
<polyline fill="none" stroke="black" points="17,-322.5 120,-322.5 "/>
<text text-anchor="start" x="25" y="-310.5" font-family="Helvetica,sans-Serif" font-size="10.00">+ IComponent()</text>
<text text-anchor="start" x="25" y="-299.5" font-family="Helvetica,sans-Serif" font-size="10.00">+ ~IComponent()</text>
<text text-anchor="start" x="25" y="-288.5" font-family="Helvetica,sans-Serif" font-size="10.00">+ IComponent()</text>
<text text-anchor="start" x="25" y="-277.5" font-family="Helvetica,sans-Serif" font-size="10.00">+ operator=()</text>
</a>
</g>
</g>
<!-- Node2&#45;&gt;Node1 -->
<g id="edge1" class="edge">
<title>Node2&#45;&gt;Node1</title>
<path fill="none" stroke="midnightblue" d="M83.71,-260.42C90.6,-235.91 98.94,-206.28 106.7,-178.68"/>
<polygon fill="none" stroke="midnightblue" points="80.29,-259.67 80.95,-270.24 87.02,-261.57 80.29,-259.67"/>
</g>
<!-- Node3 -->
<g id="node3" class="node">
<title>Node3</title>
<g id="a_node3"><a xlink:href="classIXMLSerializable.html" target="_top" xlink:title=" ">
<polygon fill="white" stroke="black" points="0,-502 0,-614 125,-614 125,-502 0,-502"/>
<text text-anchor="middle" x="62.5" y="-602" font-family="Helvetica,sans-Serif" font-size="10.00">IXMLSerializable</text>
<polyline fill="none" stroke="black" points="0,-595 125,-595 "/>
<text text-anchor="middle" x="62.5" y="-583" font-family="Helvetica,sans-Serif" font-size="10.00"> </text>
<polyline fill="none" stroke="black" points="0,-576 125,-576 "/>
<text text-anchor="start" x="8" y="-564" font-family="Helvetica,sans-Serif" font-size="10.00">+ IXMLSerializable()</text>
<text text-anchor="start" x="8" y="-553" font-family="Helvetica,sans-Serif" font-size="10.00">+ ~IXMLSerializable()</text>
<text text-anchor="start" x="8" y="-542" font-family="Helvetica,sans-Serif" font-size="10.00">+ IXMLSerializable()</text>
<text text-anchor="start" x="8" y="-531" font-family="Helvetica,sans-Serif" font-size="10.00">+ operator=()</text>
<text text-anchor="start" x="8" y="-520" font-family="Helvetica,sans-Serif" font-size="10.00">+ operator&lt;&lt;()</text>
<text text-anchor="start" x="8" y="-509" font-family="Helvetica,sans-Serif" font-size="10.00">+ operator&lt;&lt;()</text>
</a>
</g>
</g>
<!-- Node3&#45;&gt;Node2 -->
<g id="edge2" class="edge">
<title>Node3&#45;&gt;Node2</title>
<path fill="none" stroke="midnightblue" d="M64.13,-491.77C65.17,-450.15 66.48,-397.32 67.4,-360.59"/>
<polygon fill="none" stroke="midnightblue" points="60.63,-491.74 63.88,-501.82 67.62,-491.91 60.63,-491.74"/>
</g>
<!-- Node4 -->
<g id="node4" class="node">
<title>Node4</title>
<g id="a_node4"><a xlink:href="classECS_1_1Entity.html" target="_top" xlink:title="Scene object containing components and an ID.">
<polygon fill="white" stroke="black" points="143.5,-226.5 143.5,-404.5 257.5,-404.5 257.5,-226.5 143.5,-226.5"/>
<text text-anchor="middle" x="200.5" y="-392.5" font-family="Helvetica,sans-Serif" font-size="10.00">ECS::Entity</text>
<polyline fill="none" stroke="black" points="143.5,-385.5 257.5,-385.5 "/>
<text text-anchor="start" x="151.5" y="-373.5" font-family="Helvetica,sans-Serif" font-size="10.00">&#45; _id</text>
<text text-anchor="start" x="151.5" y="-362.5" font-family="Helvetica,sans-Serif" font-size="10.00">&#45; _tag</text>
<polyline fill="none" stroke="black" points="143.5,-355.5 257.5,-355.5 "/>
<text text-anchor="start" x="151.5" y="-343.5" font-family="Helvetica,sans-Serif" font-size="10.00">+ Entity()</text>
<text text-anchor="start" x="151.5" y="-332.5" font-family="Helvetica,sans-Serif" font-size="10.00">+ Entity()</text>
<text text-anchor="start" x="151.5" y="-321.5" font-family="Helvetica,sans-Serif" font-size="10.00">+ ~Entity()</text>
<text text-anchor="start" x="151.5" y="-310.5" font-family="Helvetica,sans-Serif" font-size="10.00">+ Entity()</text>
<text text-anchor="start" x="151.5" y="-299.5" font-family="Helvetica,sans-Serif" font-size="10.00">+ operator=()</text>
<text text-anchor="start" x="151.5" y="-288.5" font-family="Helvetica,sans-Serif" font-size="10.00">+ GetComponent()</text>
<text text-anchor="start" x="151.5" y="-277.5" font-family="Helvetica,sans-Serif" font-size="10.00">+ OfType()</text>
<text text-anchor="start" x="151.5" y="-266.5" font-family="Helvetica,sans-Serif" font-size="10.00">+ GetComponents()</text>
<text text-anchor="start" x="151.5" y="-255.5" font-family="Helvetica,sans-Serif" font-size="10.00">+ AddComponent()</text>
<text text-anchor="start" x="151.5" y="-244.5" font-family="Helvetica,sans-Serif" font-size="10.00">+ AddComponent()</text>
<text text-anchor="start" x="151.5" y="-233.5" font-family="Helvetica,sans-Serif" font-size="10.00">and 9 more...</text>
</a>
</g>
</g>
<!-- Node4&#45;&gt;Node1 -->
<g id="edge3" class="edge">
<title>Node4&#45;&gt;Node1</title>
<path fill="none" stroke="#404040" d="M173.33,-226.29C169.67,-214.42 165.9,-202.17 162.18,-190.11"/>
<polygon fill="none" stroke="#404040" points="162.18,-190.1 156.59,-185.54 158.65,-178.63 164.24,-183.19 162.18,-190.1"/>
<text text-anchor="middle" x="197" y="-200" font-family="Helvetica,sans-Serif" font-size="10.00"> #_myEntity</text>
</g>
<!-- Node5 -->
<g id="node5" class="node">
<title>Node5</title>
<g id="a_node5"><a xlink:href="classECS_1_1EntityManager.html" target="_top" xlink:title="Class used to manipulate Entities (a.k.a A Scene)">
<polygon fill="white" stroke="black" points="143,-485.5 143,-630.5 258,-630.5 258,-485.5 143,-485.5"/>
<text text-anchor="middle" x="200.5" y="-618.5" font-family="Helvetica,sans-Serif" font-size="10.00">ECS::EntityManager</text>
<polyline fill="none" stroke="black" points="143,-611.5 258,-611.5 "/>
<text text-anchor="start" x="151" y="-599.5" font-family="Helvetica,sans-Serif" font-size="10.00">&#45; _available</text>
<text text-anchor="start" x="151" y="-588.5" font-family="Helvetica,sans-Serif" font-size="10.00">&#45; _max</text>
<text text-anchor="start" x="151" y="-577.5" font-family="Helvetica,sans-Serif" font-size="10.00">&#45; _entities</text>
<polyline fill="none" stroke="black" points="143,-570.5 258,-570.5 "/>
<text text-anchor="start" x="151" y="-558.5" font-family="Helvetica,sans-Serif" font-size="10.00">+ EntityManager()</text>
<text text-anchor="start" x="151" y="-547.5" font-family="Helvetica,sans-Serif" font-size="10.00">+ ~EntityManager()</text>
<text text-anchor="start" x="151" y="-536.5" font-family="Helvetica,sans-Serif" font-size="10.00">+ EntityManager()</text>
<text text-anchor="start" x="151" y="-525.5" font-family="Helvetica,sans-Serif" font-size="10.00">+ operator=()</text>
<text text-anchor="start" x="151" y="-514.5" font-family="Helvetica,sans-Serif" font-size="10.00">+ CreateEntity()</text>
<text text-anchor="start" x="151" y="-503.5" font-family="Helvetica,sans-Serif" font-size="10.00">+ DeleteEntity()</text>
<text text-anchor="start" x="151" y="-492.5" font-family="Helvetica,sans-Serif" font-size="10.00">+ GetEntities()</text>
</a>
</g>
</g>
<!-- Node5&#45;&gt;Node4 -->
<g id="edge4" class="edge">
<title>Node5&#45;&gt;Node4</title>
<path fill="none" stroke="#404040" d="M200.5,-485.49C200.5,-464.01 200.5,-440.04 200.5,-417.05"/>
<polygon fill="none" stroke="#404040" points="200.5,-416.77 196.5,-410.77 200.5,-404.77 204.5,-410.77 200.5,-416.77"/>
<text text-anchor="middle" x="242.5" y="-426" font-family="Helvetica,sans-Serif" font-size="10.00"> &#45;_entityManager</text>
</g>
<!-- Node6 -->
<g id="node6" class="node">
<title>Node6</title>
<g id="a_node6"><a xlink:href="classECS_1_1ComponentManager.html" target="_top" xlink:title="Class used to manipulate Components.">
<polygon fill="white" stroke="black" points="276,-452.5 276,-663.5 427,-663.5 427,-452.5 276,-452.5"/>
<text text-anchor="middle" x="351.5" y="-651.5" font-family="Helvetica,sans-Serif" font-size="10.00">ECS::ComponentManager</text>
<polyline fill="none" stroke="black" points="276,-644.5 427,-644.5 "/>
<text text-anchor="start" x="284" y="-632.5" font-family="Helvetica,sans-Serif" font-size="10.00">&#45; _bases</text>
<text text-anchor="start" x="284" y="-621.5" font-family="Helvetica,sans-Serif" font-size="10.00">&#45; _components</text>
<polyline fill="none" stroke="black" points="276,-614.5 427,-614.5 "/>
<text text-anchor="start" x="284" y="-602.5" font-family="Helvetica,sans-Serif" font-size="10.00">+ ComponentManager()</text>
<text text-anchor="start" x="284" y="-591.5" font-family="Helvetica,sans-Serif" font-size="10.00">+ ~ComponentManager()</text>
<text text-anchor="start" x="284" y="-580.5" font-family="Helvetica,sans-Serif" font-size="10.00">+ ComponentManager()</text>
<text text-anchor="start" x="284" y="-569.5" font-family="Helvetica,sans-Serif" font-size="10.00">+ operator=()</text>
<text text-anchor="start" x="284" y="-558.5" font-family="Helvetica,sans-Serif" font-size="10.00">+ GetComponent()</text>
<text text-anchor="start" x="284" y="-547.5" font-family="Helvetica,sans-Serif" font-size="10.00">+ OfType()</text>
<text text-anchor="start" x="284" y="-536.5" font-family="Helvetica,sans-Serif" font-size="10.00">+ GetComponents()</text>
<text text-anchor="start" x="284" y="-525.5" font-family="Helvetica,sans-Serif" font-size="10.00">+ AddComponent()</text>
<text text-anchor="start" x="284" y="-514.5" font-family="Helvetica,sans-Serif" font-size="10.00">+ AddComponent()</text>
<text text-anchor="start" x="284" y="-503.5" font-family="Helvetica,sans-Serif" font-size="10.00">+ RemoveComponent()</text>
<text text-anchor="start" x="284" y="-492.5" font-family="Helvetica,sans-Serif" font-size="10.00">+ HasComponent()</text>
<text text-anchor="start" x="284" y="-481.5" font-family="Helvetica,sans-Serif" font-size="10.00">+ HasComponent()</text>
<text text-anchor="start" x="284" y="-470.5" font-family="Helvetica,sans-Serif" font-size="10.00">+ HasComponents()</text>
<text text-anchor="start" x="284" y="-459.5" font-family="Helvetica,sans-Serif" font-size="10.00">+ GetComponentByName()</text>
</a>
</g>
</g>
<!-- Node6&#45;&gt;Node4 -->
<g id="edge5" class="edge">
<title>Node6&#45;&gt;Node4</title>
<path fill="none" stroke="#404040" d="M305.53,-452.46C300.13,-442.32 294.42,-432.34 288.5,-423 281.52,-411.99 273.53,-400.85 265.29,-390.14"/>
<polygon fill="none" stroke="#404040" points="265.08,-389.87 258.23,-387.62 257.66,-380.44 264.52,-382.68 265.08,-389.87"/>
<text text-anchor="middle" x="350.5" y="-426" font-family="Helvetica,sans-Serif" font-size="10.00"> &#45;_componentManager</text>
</g>
</g>
</svg>
