<?xml version="1.0" encoding="UTF-8" standalone="no"?>
<!DOCTYPE svg PUBLIC "-//W3C//DTD SVG 1.1//EN"
 "http://www.w3.org/Graphics/SVG/1.1/DTD/svg11.dtd">
<!-- Generated by graphviz version 2.43.0 (0)
 -->
<!-- Title: Component::RenderSystem Pages: 1 -->
<svg width="158pt" height="380pt"
 viewBox="0.00 0.00 158.00 380.00" xmlns="http://www.w3.org/2000/svg" xmlns:xlink="http://www.w3.org/1999/xlink">
<g id="graph0" class="graph" transform="scale(1 1) rotate(0) translate(4 376)">
<title>Component::RenderSystem</title>
<polygon fill="white" stroke="transparent" points="-4,4 -4,-376 154,-376 154,4 -4,4"/>
<!-- Node1 -->
<g id="node1" class="node">
<title>Node1</title>
<g id="a_node1"><a xlink:title="Renderer system.">
<polygon fill="#bfbfbf" stroke="black" points="0,-0.5 0,-112.5 150,-112.5 150,-0.5 0,-0.5"/>
<text text-anchor="middle" x="75" y="-100.5" font-family="Helvetica,sans-Serif" font-size="10.00">Component::RenderSystem</text>
<polyline fill="none" stroke="black" points="0,-93.5 150,-93.5 "/>
<text text-anchor="middle" x="75" y="-81.5" font-family="Helvetica,sans-Serif" font-size="10.00"> </text>
<polyline fill="none" stroke="black" points="0,-74.5 150,-74.5 "/>
<text text-anchor="start" x="8" y="-62.5" font-family="Helvetica,sans-Serif" font-size="10.00">+ RenderSystem()</text>
<text text-anchor="start" x="8" y="-51.5" font-family="Helvetica,sans-Serif" font-size="10.00">+ ~RenderSystem()</text>
<text text-anchor="start" x="8" y="-40.5" font-family="Helvetica,sans-Serif" font-size="10.00">+ RenderSystem()</text>
<text text-anchor="start" x="8" y="-29.5" font-family="Helvetica,sans-Serif" font-size="10.00">+ operator=()</text>
<text text-anchor="start" x="8" y="-18.5" font-family="Helvetica,sans-Serif" font-size="10.00">+ Update()</text>
<text text-anchor="start" x="8" y="-7.5" font-family="Helvetica,sans-Serif" font-size="10.00">+ FixedUpdate()</text>
</a>
</g>
</g>
<!-- Node2 -->
<g id="node2" class="node">
<title>Node2</title>
<g id="a_node2"><a xlink:href="classECS_1_1ASystem.html" target="_top" xlink:title="Base Abstract class to create a new System.">
<polygon fill="white" stroke="black" points="14,-149.5 14,-371.5 136,-371.5 136,-149.5 14,-149.5"/>
<text text-anchor="middle" x="75" y="-359.5" font-family="Helvetica,sans-Serif" font-size="10.00">ECS::ASystem</text>
<polyline fill="none" stroke="black" points="14,-352.5 136,-352.5 "/>
<text text-anchor="start" x="22" y="-340.5" font-family="Helvetica,sans-Serif" font-size="10.00">&#45; _dependencies</text>
<text text-anchor="start" x="22" y="-329.5" font-family="Helvetica,sans-Serif" font-size="10.00">&#45; _enabled</text>
<polyline fill="none" stroke="black" points="14,-322.5 136,-322.5 "/>
<text text-anchor="start" x="22" y="-310.5" font-family="Helvetica,sans-Serif" font-size="10.00">+ ASystem()</text>
<text text-anchor="start" x="22" y="-299.5" font-family="Helvetica,sans-Serif" font-size="10.00">+ ASystem()</text>
<text text-anchor="start" x="22" y="-288.5" font-family="Helvetica,sans-Serif" font-size="10.00">+ ~ASystem()</text>
<text text-anchor="start" x="22" y="-277.5" font-family="Helvetica,sans-Serif" font-size="10.00">+ ASystem()</text>
<text text-anchor="start" x="22" y="-266.5" font-family="Helvetica,sans-Serif" font-size="10.00">+ operator=()</text>
<text text-anchor="start" x="22" y="-255.5" font-family="Helvetica,sans-Serif" font-size="10.00">+ Update()</text>
<text text-anchor="start" x="22" y="-244.5" font-family="Helvetica,sans-Serif" font-size="10.00">+ FixedUpdate()</text>
<text text-anchor="start" x="22" y="-233.5" font-family="Helvetica,sans-Serif" font-size="10.00">+ LateUpdate()</text>
<text text-anchor="start" x="22" y="-222.5" font-family="Helvetica,sans-Serif" font-size="10.00">+ OnDisable()</text>
<text text-anchor="start" x="22" y="-211.5" font-family="Helvetica,sans-Serif" font-size="10.00">+ OnEnable()</text>
<text text-anchor="start" x="22" y="-200.5" font-family="Helvetica,sans-Serif" font-size="10.00">+ GetDependencies()</text>
<text text-anchor="start" x="22" y="-189.5" font-family="Helvetica,sans-Serif" font-size="10.00">+ GetStatus()</text>
<text text-anchor="start" x="22" y="-178.5" font-family="Helvetica,sans-Serif" font-size="10.00">+ SetStatus()</text>
<text text-anchor="start" x="22" y="-167.5" font-family="Helvetica,sans-Serif" font-size="10.00">+ ToggleStatus()</text>
<text text-anchor="start" x="22" y="-156.5" font-family="Helvetica,sans-Serif" font-size="10.00"># AddDependency()</text>
</a>
</g>
</g>
<!-- Node2&#45;&gt;Node1 -->
<g id="edge1" class="edge">
<title>Node2&#45;&gt;Node1</title>
<path fill="none" stroke="midnightblue" d="M75,-139.24C75,-130.01 75,-120.99 75,-112.53"/>
<polygon fill="none" stroke="midnightblue" points="71.5,-139.34 75,-149.34 78.5,-139.34 71.5,-139.34"/>
</g>
</g>
</svg>
