<?xml version="1.0" encoding="UTF-8" standalone="no"?>
<!DOCTYPE svg PUBLIC "-//W3C//DTD SVG 1.1//EN"
 "http://www.w3.org/Graphics/SVG/1.1/DTD/svg11.dtd">
<!-- Generated by graphviz version 2.43.0 (0)
 -->
<!-- Title: Component::Box Pages: 1 -->
<svg width="435pt" height="811pt"
 viewBox="0.00 0.00 435.00 811.00" xmlns="http://www.w3.org/2000/svg" xmlns:xlink="http://www.w3.org/1999/xlink">
<g id="graph0" class="graph" transform="scale(1 1) rotate(0) translate(4 807)">
<title>Component::Box</title>
<polygon fill="white" stroke="transparent" points="-4,4 -4,-807 431,-807 431,4 -4,4"/>
<!-- Node1 -->
<g id="node1" class="node">
<title>Node1</title>
<g id="a_node1"><a xlink:title=" ">
<polygon fill="#bfbfbf" stroke="black" points="77,-0.5 77,-145.5 186,-145.5 186,-0.5 77,-0.5"/>
<text text-anchor="middle" x="131.5" y="-133.5" font-family="Helvetica,sans-Serif" font-size="10.00">Component::Box</text>
<polyline fill="none" stroke="black" points="77,-126.5 186,-126.5 "/>
<text text-anchor="start" x="85" y="-114.5" font-family="Helvetica,sans-Serif" font-size="10.00">&#45; _lootChance</text>
<polyline fill="none" stroke="black" points="77,-107.5 186,-107.5 "/>
<text text-anchor="start" x="85" y="-95.5" font-family="Helvetica,sans-Serif" font-size="10.00">+ Box()</text>
<text text-anchor="start" x="85" y="-84.5" font-family="Helvetica,sans-Serif" font-size="10.00">+ ~Box()</text>
<text text-anchor="start" x="85" y="-73.5" font-family="Helvetica,sans-Serif" font-size="10.00">+ Box()</text>
<text text-anchor="start" x="85" y="-62.5" font-family="Helvetica,sans-Serif" font-size="10.00">+ operator=()</text>
<text text-anchor="start" x="85" y="-51.5" font-family="Helvetica,sans-Serif" font-size="10.00">+ TakeDamage()</text>
<text text-anchor="start" x="85" y="-40.5" font-family="Helvetica,sans-Serif" font-size="10.00">+ SpawnLoot()</text>
<text text-anchor="start" x="85" y="-29.5" font-family="Helvetica,sans-Serif" font-size="10.00">+ SpawnParticles()</text>
<text text-anchor="start" x="85" y="-18.5" font-family="Helvetica,sans-Serif" font-size="10.00">+ operator&lt;&lt;()</text>
<text text-anchor="start" x="85" y="-7.5" font-family="Helvetica,sans-Serif" font-size="10.00">+ operator&lt;&lt;()</text>
</a>
</g>
</g>
<!-- Node2 -->
<g id="node2" class="node">
<title>Node2</title>
<g id="a_node2"><a xlink:href="classComponent_1_1Destructible.html" target="_top" xlink:title="Component allowing for entities to be destructible.">
<polygon fill="white" stroke="black" points="62.5,-183.5 62.5,-317.5 200.5,-317.5 200.5,-183.5 62.5,-183.5"/>
<text text-anchor="middle" x="131.5" y="-305.5" font-family="Helvetica,sans-Serif" font-size="10.00">Component::Destructible</text>
<polyline fill="none" stroke="black" points="62.5,-298.5 200.5,-298.5 "/>
<text text-anchor="start" x="70.5" y="-286.5" font-family="Helvetica,sans-Serif" font-size="10.00"># _resistance</text>
<polyline fill="none" stroke="black" points="62.5,-279.5 200.5,-279.5 "/>
<text text-anchor="start" x="70.5" y="-267.5" font-family="Helvetica,sans-Serif" font-size="10.00">+ Destructible()</text>
<text text-anchor="start" x="70.5" y="-256.5" font-family="Helvetica,sans-Serif" font-size="10.00">+ ~Destructible()</text>
<text text-anchor="start" x="70.5" y="-245.5" font-family="Helvetica,sans-Serif" font-size="10.00">+ Destructible()</text>
<text text-anchor="start" x="70.5" y="-234.5" font-family="Helvetica,sans-Serif" font-size="10.00">+ operator=()</text>
<text text-anchor="start" x="70.5" y="-223.5" font-family="Helvetica,sans-Serif" font-size="10.00">+ GetResistance()</text>
<text text-anchor="start" x="70.5" y="-212.5" font-family="Helvetica,sans-Serif" font-size="10.00">+ TakeDamage()</text>
<text text-anchor="start" x="70.5" y="-201.5" font-family="Helvetica,sans-Serif" font-size="10.00">+ operator&lt;&lt;()</text>
<text text-anchor="start" x="70.5" y="-190.5" font-family="Helvetica,sans-Serif" font-size="10.00">+ operator&lt;&lt;()</text>
</a>
</g>
</g>
<!-- Node2&#45;&gt;Node1 -->
<g id="edge1" class="edge">
<title>Node2&#45;&gt;Node1</title>
<path fill="none" stroke="midnightblue" d="M131.5,-173.01C131.5,-163.94 131.5,-154.71 131.5,-145.72"/>
<polygon fill="none" stroke="midnightblue" points="128,-173.15 131.5,-183.15 135,-173.15 128,-173.15"/>
</g>
<!-- Node3 -->
<g id="node3" class="node">
<title>Node3</title>
<g id="a_node3"><a xlink:href="classECS_1_1IComponent.html" target="_top" xlink:title="Base Interface class to create a new component.">
<polygon fill="white" stroke="black" points="17,-409.5 17,-499.5 120,-499.5 120,-409.5 17,-409.5"/>
<text text-anchor="middle" x="68.5" y="-487.5" font-family="Helvetica,sans-Serif" font-size="10.00">ECS::IComponent</text>
<polyline fill="none" stroke="black" points="17,-480.5 120,-480.5 "/>
<text text-anchor="middle" x="68.5" y="-468.5" font-family="Helvetica,sans-Serif" font-size="10.00"> </text>
<polyline fill="none" stroke="black" points="17,-461.5 120,-461.5 "/>
<text text-anchor="start" x="25" y="-449.5" font-family="Helvetica,sans-Serif" font-size="10.00">+ IComponent()</text>
<text text-anchor="start" x="25" y="-438.5" font-family="Helvetica,sans-Serif" font-size="10.00">+ ~IComponent()</text>
<text text-anchor="start" x="25" y="-427.5" font-family="Helvetica,sans-Serif" font-size="10.00">+ IComponent()</text>
<text text-anchor="start" x="25" y="-416.5" font-family="Helvetica,sans-Serif" font-size="10.00">+ operator=()</text>
</a>
</g>
</g>
<!-- Node3&#45;&gt;Node2 -->
<g id="edge2" class="edge">
<title>Node3&#45;&gt;Node2</title>
<path fill="none" stroke="midnightblue" d="M85.36,-399.43C93.21,-374.27 102.62,-344.11 110.88,-317.6"/>
<polygon fill="none" stroke="midnightblue" points="81.96,-398.58 82.33,-409.17 88.64,-400.67 81.96,-398.58"/>
</g>
<!-- Node4 -->
<g id="node4" class="node">
<title>Node4</title>
<g id="a_node4"><a xlink:href="classIXMLSerializable.html" target="_top" xlink:title=" ">
<polygon fill="white" stroke="black" points="0,-641 0,-753 125,-753 125,-641 0,-641"/>
<text text-anchor="middle" x="62.5" y="-741" font-family="Helvetica,sans-Serif" font-size="10.00">IXMLSerializable</text>
<polyline fill="none" stroke="black" points="0,-734 125,-734 "/>
<text text-anchor="middle" x="62.5" y="-722" font-family="Helvetica,sans-Serif" font-size="10.00"> </text>
<polyline fill="none" stroke="black" points="0,-715 125,-715 "/>
<text text-anchor="start" x="8" y="-703" font-family="Helvetica,sans-Serif" font-size="10.00">+ IXMLSerializable()</text>
<text text-anchor="start" x="8" y="-692" font-family="Helvetica,sans-Serif" font-size="10.00">+ ~IXMLSerializable()</text>
<text text-anchor="start" x="8" y="-681" font-family="Helvetica,sans-Serif" font-size="10.00">+ IXMLSerializable()</text>
<text text-anchor="start" x="8" y="-670" font-family="Helvetica,sans-Serif" font-size="10.00">+ operator=()</text>
<text text-anchor="start" x="8" y="-659" font-family="Helvetica,sans-Serif" font-size="10.00">+ operator&lt;&lt;()</text>
<text text-anchor="start" x="8" y="-648" font-family="Helvetica,sans-Serif" font-size="10.00">+ operator&lt;&lt;()</text>
</a>
</g>
</g>
<!-- Node4&#45;&gt;Node3 -->
<g id="edge3" class="edge">
<title>Node4&#45;&gt;Node3</title>
<path fill="none" stroke="midnightblue" d="M64.13,-630.77C65.17,-589.15 66.48,-536.32 67.4,-499.59"/>
<polygon fill="none" stroke="midnightblue" points="60.63,-630.74 63.88,-640.82 67.62,-630.91 60.63,-630.74"/>
</g>
<!-- Node5 -->
<g id="node5" class="node">
<title>Node5</title>
<g id="a_node5"><a xlink:href="classECS_1_1Entity.html" target="_top" xlink:title="Scene object containing components and an ID.">
<polygon fill="white" stroke="black" points="143.5,-365.5 143.5,-543.5 257.5,-543.5 257.5,-365.5 143.5,-365.5"/>
<text text-anchor="middle" x="200.5" y="-531.5" font-family="Helvetica,sans-Serif" font-size="10.00">ECS::Entity</text>
<polyline fill="none" stroke="black" points="143.5,-524.5 257.5,-524.5 "/>
<text text-anchor="start" x="151.5" y="-512.5" font-family="Helvetica,sans-Serif" font-size="10.00">&#45; _id</text>
<text text-anchor="start" x="151.5" y="-501.5" font-family="Helvetica,sans-Serif" font-size="10.00">&#45; _tag</text>
<polyline fill="none" stroke="black" points="143.5,-494.5 257.5,-494.5 "/>
<text text-anchor="start" x="151.5" y="-482.5" font-family="Helvetica,sans-Serif" font-size="10.00">+ Entity()</text>
<text text-anchor="start" x="151.5" y="-471.5" font-family="Helvetica,sans-Serif" font-size="10.00">+ Entity()</text>
<text text-anchor="start" x="151.5" y="-460.5" font-family="Helvetica,sans-Serif" font-size="10.00">+ ~Entity()</text>
<text text-anchor="start" x="151.5" y="-449.5" font-family="Helvetica,sans-Serif" font-size="10.00">+ Entity()</text>
<text text-anchor="start" x="151.5" y="-438.5" font-family="Helvetica,sans-Serif" font-size="10.00">+ operator=()</text>
<text text-anchor="start" x="151.5" y="-427.5" font-family="Helvetica,sans-Serif" font-size="10.00">+ GetComponent()</text>
<text text-anchor="start" x="151.5" y="-416.5" font-family="Helvetica,sans-Serif" font-size="10.00">+ OfType()</text>
<text text-anchor="start" x="151.5" y="-405.5" font-family="Helvetica,sans-Serif" font-size="10.00">+ GetComponents()</text>
<text text-anchor="start" x="151.5" y="-394.5" font-family="Helvetica,sans-Serif" font-size="10.00">+ AddComponent()</text>
<text text-anchor="start" x="151.5" y="-383.5" font-family="Helvetica,sans-Serif" font-size="10.00">+ AddComponent()</text>
<text text-anchor="start" x="151.5" y="-372.5" font-family="Helvetica,sans-Serif" font-size="10.00">and 9 more...</text>
</a>
</g>
</g>
<!-- Node5&#45;&gt;Node2 -->
<g id="edge4" class="edge">
<title>Node5&#45;&gt;Node2</title>
<path fill="none" stroke="#404040" d="M170.44,-365.49C166.32,-353.45 162.13,-341.16 158.08,-329.31"/>
<polygon fill="none" stroke="#404040" points="157.97,-329 152.25,-324.62 154.1,-317.65 159.82,-322.03 157.97,-329"/>
<text text-anchor="middle" x="195" y="-339" font-family="Helvetica,sans-Serif" font-size="10.00"> #_myEntity</text>
</g>
<!-- Node6 -->
<g id="node6" class="node">
<title>Node6</title>
<g id="a_node6"><a xlink:href="classECS_1_1EntityManager.html" target="_top" xlink:title="Class used to manipulate Entities (a.k.a A Scene)">
<polygon fill="white" stroke="black" points="143,-624.5 143,-769.5 258,-769.5 258,-624.5 143,-624.5"/>
<text text-anchor="middle" x="200.5" y="-757.5" font-family="Helvetica,sans-Serif" font-size="10.00">ECS::EntityManager</text>
<polyline fill="none" stroke="black" points="143,-750.5 258,-750.5 "/>
<text text-anchor="start" x="151" y="-738.5" font-family="Helvetica,sans-Serif" font-size="10.00">&#45; _available</text>
<text text-anchor="start" x="151" y="-727.5" font-family="Helvetica,sans-Serif" font-size="10.00">&#45; _max</text>
<text text-anchor="start" x="151" y="-716.5" font-family="Helvetica,sans-Serif" font-size="10.00">&#45; _entities</text>
<polyline fill="none" stroke="black" points="143,-709.5 258,-709.5 "/>
<text text-anchor="start" x="151" y="-697.5" font-family="Helvetica,sans-Serif" font-size="10.00">+ EntityManager()</text>
<text text-anchor="start" x="151" y="-686.5" font-family="Helvetica,sans-Serif" font-size="10.00">+ ~EntityManager()</text>
<text text-anchor="start" x="151" y="-675.5" font-family="Helvetica,sans-Serif" font-size="10.00">+ EntityManager()</text>
<text text-anchor="start" x="151" y="-664.5" font-family="Helvetica,sans-Serif" font-size="10.00">+ operator=()</text>
<text text-anchor="start" x="151" y="-653.5" font-family="Helvetica,sans-Serif" font-size="10.00">+ CreateEntity()</text>
<text text-anchor="start" x="151" y="-642.5" font-family="Helvetica,sans-Serif" font-size="10.00">+ DeleteEntity()</text>
<text text-anchor="start" x="151" y="-631.5" font-family="Helvetica,sans-Serif" font-size="10.00">+ GetEntities()</text>
</a>
</g>
</g>
<!-- Node6&#45;&gt;Node5 -->
<g id="edge5" class="edge">
<title>Node6&#45;&gt;Node5</title>
<path fill="none" stroke="#404040" d="M200.5,-624.49C200.5,-603.01 200.5,-579.04 200.5,-556.05"/>
<polygon fill="none" stroke="#404040" points="200.5,-555.77 196.5,-549.77 200.5,-543.77 204.5,-549.77 200.5,-555.77"/>
<text text-anchor="middle" x="242.5" y="-565" font-family="Helvetica,sans-Serif" font-size="10.00"> &#45;_entityManager</text>
</g>
<!-- Node7 -->
<g id="node7" class="node">
<title>Node7</title>
<g id="a_node7"><a xlink:href="classECS_1_1ComponentManager.html" target="_top" xlink:title="Class used to manipulate Components.">
<polygon fill="white" stroke="black" points="276,-591.5 276,-802.5 427,-802.5 427,-591.5 276,-591.5"/>
<text text-anchor="middle" x="351.5" y="-790.5" font-family="Helvetica,sans-Serif" font-size="10.00">ECS::ComponentManager</text>
<polyline fill="none" stroke="black" points="276,-783.5 427,-783.5 "/>
<text text-anchor="start" x="284" y="-771.5" font-family="Helvetica,sans-Serif" font-size="10.00">&#45; _bases</text>
<text text-anchor="start" x="284" y="-760.5" font-family="Helvetica,sans-Serif" font-size="10.00">&#45; _components</text>
<polyline fill="none" stroke="black" points="276,-753.5 427,-753.5 "/>
<text text-anchor="start" x="284" y="-741.5" font-family="Helvetica,sans-Serif" font-size="10.00">+ ComponentManager()</text>
<text text-anchor="start" x="284" y="-730.5" font-family="Helvetica,sans-Serif" font-size="10.00">+ ~ComponentManager()</text>
<text text-anchor="start" x="284" y="-719.5" font-family="Helvetica,sans-Serif" font-size="10.00">+ ComponentManager()</text>
<text text-anchor="start" x="284" y="-708.5" font-family="Helvetica,sans-Serif" font-size="10.00">+ operator=()</text>
<text text-anchor="start" x="284" y="-697.5" font-family="Helvetica,sans-Serif" font-size="10.00">+ GetComponent()</text>
<text text-anchor="start" x="284" y="-686.5" font-family="Helvetica,sans-Serif" font-size="10.00">+ OfType()</text>
<text text-anchor="start" x="284" y="-675.5" font-family="Helvetica,sans-Serif" font-size="10.00">+ GetComponents()</text>
<text text-anchor="start" x="284" y="-664.5" font-family="Helvetica,sans-Serif" font-size="10.00">+ AddComponent()</text>
<text text-anchor="start" x="284" y="-653.5" font-family="Helvetica,sans-Serif" font-size="10.00">+ AddComponent()</text>
<text text-anchor="start" x="284" y="-642.5" font-family="Helvetica,sans-Serif" font-size="10.00">+ RemoveComponent()</text>
<text text-anchor="start" x="284" y="-631.5" font-family="Helvetica,sans-Serif" font-size="10.00">+ HasComponent()</text>
<text text-anchor="start" x="284" y="-620.5" font-family="Helvetica,sans-Serif" font-size="10.00">+ HasComponent()</text>
<text text-anchor="start" x="284" y="-609.5" font-family="Helvetica,sans-Serif" font-size="10.00">+ HasComponents()</text>
<text text-anchor="start" x="284" y="-598.5" font-family="Helvetica,sans-Serif" font-size="10.00">+ GetComponentByName()</text>
</a>
</g>
</g>
<!-- Node7&#45;&gt;Node5 -->
<g id="edge6" class="edge">
<title>Node7&#45;&gt;Node5</title>
<path fill="none" stroke="#404040" d="M305.53,-591.46C300.13,-581.32 294.42,-571.34 288.5,-562 281.52,-550.99 273.53,-539.85 265.29,-529.14"/>
<polygon fill="none" stroke="#404040" points="265.08,-528.87 258.23,-526.62 257.66,-519.44 264.52,-521.68 265.08,-528.87"/>
<text text-anchor="middle" x="350.5" y="-565" font-family="Helvetica,sans-Serif" font-size="10.00"> &#45;_componentManager</text>
</g>
</g>
</svg>
