<?xml version="1.0" encoding="UTF-8" standalone="no"?>
<!DOCTYPE svg PUBLIC "-//W3C//DTD SVG 1.1//EN"
 "http://www.w3.org/Graphics/SVG/1.1/DTD/svg11.dtd">
<!-- Generated by graphviz version 2.43.0 (0)
 -->
<!-- Title: Component::Transform Pages: 1 -->
<svg width="226pt" height="508pt"
 viewBox="0.00 0.00 225.50 508.00" xmlns="http://www.w3.org/2000/svg" xmlns:xlink="http://www.w3.org/1999/xlink">
<g id="graph0" class="graph" transform="scale(1 1) rotate(0) translate(4 504)">
<title>Component::Transform</title>
<polygon fill="white" stroke="transparent" points="-4,4 -4,-504 221.5,-504 221.5,4 -4,4"/>
<!-- Node1 -->
<g id="node1" class="node">
<title>Node1</title>
<g id="a_node1"><a xlink:title=" ">
<polygon fill="#bfbfbf" stroke="black" points="48.5,-0.5 48.5,-112.5 176.5,-112.5 176.5,-0.5 48.5,-0.5"/>
<text text-anchor="middle" x="112.5" y="-100.5" font-family="Helvetica,sans-Serif" font-size="10.00">Component::Transform</text>
<polyline fill="none" stroke="black" points="48.5,-93.5 176.5,-93.5 "/>
<text text-anchor="middle" x="112.5" y="-81.5" font-family="Helvetica,sans-Serif" font-size="10.00"> </text>
<polyline fill="none" stroke="black" points="48.5,-74.5 176.5,-74.5 "/>
<text text-anchor="start" x="56.5" y="-62.5" font-family="Helvetica,sans-Serif" font-size="10.00">+ Transform()</text>
<text text-anchor="start" x="56.5" y="-51.5" font-family="Helvetica,sans-Serif" font-size="10.00">+ ~Transform()</text>
<text text-anchor="start" x="56.5" y="-40.5" font-family="Helvetica,sans-Serif" font-size="10.00">+ Transform()</text>
<text text-anchor="start" x="56.5" y="-29.5" font-family="Helvetica,sans-Serif" font-size="10.00">+ operator=()</text>
<text text-anchor="start" x="56.5" y="-18.5" font-family="Helvetica,sans-Serif" font-size="10.00">+ operator&lt;&lt;()</text>
<text text-anchor="start" x="56.5" y="-7.5" font-family="Helvetica,sans-Serif" font-size="10.00">+ operator&lt;&lt;()</text>
</a>
</g>
</g>
<!-- Node2 -->
<g id="node2" class="node">
<title>Node2</title>
<g id="a_node2"><a xlink:href="classECS_1_1IComponent.html" target="_top" xlink:title="Base Interface class to create a new component.">
<polygon fill="white" stroke="black" points="4,-221 4,-311 107,-311 107,-221 4,-221"/>
<text text-anchor="middle" x="55.5" y="-299" font-family="Helvetica,sans-Serif" font-size="10.00">ECS::IComponent</text>
<polyline fill="none" stroke="black" points="4,-292 107,-292 "/>
<text text-anchor="middle" x="55.5" y="-280" font-family="Helvetica,sans-Serif" font-size="10.00"> </text>
<polyline fill="none" stroke="black" points="4,-273 107,-273 "/>
<text text-anchor="start" x="12" y="-261" font-family="Helvetica,sans-Serif" font-size="10.00">+ IComponent()</text>
<text text-anchor="start" x="12" y="-250" font-family="Helvetica,sans-Serif" font-size="10.00">+ ~IComponent()</text>
<text text-anchor="start" x="12" y="-239" font-family="Helvetica,sans-Serif" font-size="10.00">+ IComponent()</text>
<text text-anchor="start" x="12" y="-228" font-family="Helvetica,sans-Serif" font-size="10.00">+ operator=()</text>
</a>
</g>
</g>
<!-- Node2&#45;&gt;Node1 -->
<g id="edge1" class="edge">
<title>Node2&#45;&gt;Node1</title>
<path fill="none" stroke="midnightblue" d="M70.33,-211.03C78.65,-180.73 89.01,-143.01 97.38,-112.54"/>
<polygon fill="none" stroke="midnightblue" points="66.86,-210.42 67.59,-220.99 73.61,-212.28 66.86,-210.42"/>
</g>
<!-- Node3 -->
<g id="node3" class="node">
<title>Node3</title>
<g id="a_node3"><a xlink:href="classIXMLSerializable.html" target="_top" xlink:title=" ">
<polygon fill="white" stroke="black" points="0,-387.5 0,-499.5 125,-499.5 125,-387.5 0,-387.5"/>
<text text-anchor="middle" x="62.5" y="-487.5" font-family="Helvetica,sans-Serif" font-size="10.00">IXMLSerializable</text>
<polyline fill="none" stroke="black" points="0,-480.5 125,-480.5 "/>
<text text-anchor="middle" x="62.5" y="-468.5" font-family="Helvetica,sans-Serif" font-size="10.00"> </text>
<polyline fill="none" stroke="black" points="0,-461.5 125,-461.5 "/>
<text text-anchor="start" x="8" y="-449.5" font-family="Helvetica,sans-Serif" font-size="10.00">+ IXMLSerializable()</text>
<text text-anchor="start" x="8" y="-438.5" font-family="Helvetica,sans-Serif" font-size="10.00">+ ~IXMLSerializable()</text>
<text text-anchor="start" x="8" y="-427.5" font-family="Helvetica,sans-Serif" font-size="10.00">+ IXMLSerializable()</text>
<text text-anchor="start" x="8" y="-416.5" font-family="Helvetica,sans-Serif" font-size="10.00">+ operator=()</text>
<text text-anchor="start" x="8" y="-405.5" font-family="Helvetica,sans-Serif" font-size="10.00">+ operator&lt;&lt;()</text>
<text text-anchor="start" x="8" y="-394.5" font-family="Helvetica,sans-Serif" font-size="10.00">+ operator&lt;&lt;()</text>
</a>
</g>
</g>
<!-- Node3&#45;&gt;Node2 -->
<g id="edge2" class="edge">
<title>Node3&#45;&gt;Node2</title>
<path fill="none" stroke="midnightblue" d="M59.91,-377.45C59.02,-355.31 58.06,-331.11 57.26,-311.01"/>
<polygon fill="none" stroke="midnightblue" points="56.41,-377.6 60.3,-387.45 63.4,-377.32 56.41,-377.6"/>
</g>
<!-- Node4 -->
<g id="node4" class="node">
<title>Node4</title>
<g id="a_node4"><a xlink:href="classRayLib_1_1Vector3.html" target="_top" xlink:title="Vector3 encapsulation.">
<polygon fill="white" stroke="black" points="125.5,-182.5 125.5,-349.5 217.5,-349.5 217.5,-182.5 125.5,-182.5"/>
<text text-anchor="middle" x="171.5" y="-337.5" font-family="Helvetica,sans-Serif" font-size="10.00">RayLib::Vector3</text>
<polyline fill="none" stroke="black" points="125.5,-330.5 217.5,-330.5 "/>
<text text-anchor="middle" x="171.5" y="-318.5" font-family="Helvetica,sans-Serif" font-size="10.00"> </text>
<polyline fill="none" stroke="black" points="125.5,-311.5 217.5,-311.5 "/>
<text text-anchor="start" x="133.5" y="-299.5" font-family="Helvetica,sans-Serif" font-size="10.00">+ Vector3()</text>
<text text-anchor="start" x="133.5" y="-288.5" font-family="Helvetica,sans-Serif" font-size="10.00">+ Vector3()</text>
<text text-anchor="start" x="133.5" y="-277.5" font-family="Helvetica,sans-Serif" font-size="10.00">+ Vector3()</text>
<text text-anchor="start" x="133.5" y="-266.5" font-family="Helvetica,sans-Serif" font-size="10.00">+ Vector3()</text>
<text text-anchor="start" x="133.5" y="-255.5" font-family="Helvetica,sans-Serif" font-size="10.00">+ Vector3()</text>
<text text-anchor="start" x="133.5" y="-244.5" font-family="Helvetica,sans-Serif" font-size="10.00">+ Vector3()</text>
<text text-anchor="start" x="133.5" y="-233.5" font-family="Helvetica,sans-Serif" font-size="10.00">+ ~Vector3()</text>
<text text-anchor="start" x="133.5" y="-222.5" font-family="Helvetica,sans-Serif" font-size="10.00">+ getVector3()</text>
<text text-anchor="start" x="133.5" y="-211.5" font-family="Helvetica,sans-Serif" font-size="10.00">+ operator=()</text>
<text text-anchor="start" x="133.5" y="-200.5" font-family="Helvetica,sans-Serif" font-size="10.00">+ operator*=()</text>
<text text-anchor="start" x="133.5" y="-189.5" font-family="Helvetica,sans-Serif" font-size="10.00">and 13 more...</text>
</a>
</g>
</g>
<!-- Node3&#45;&gt;Node4 -->
<g id="edge5" class="edge">
<title>Node3&#45;&gt;Node4</title>
<path fill="none" stroke="midnightblue" d="M102.12,-378.7C109.7,-366.51 117.69,-353.64 125.44,-341.16"/>
<polygon fill="none" stroke="midnightblue" points="98.99,-377.11 96.69,-387.45 104.94,-380.8 98.99,-377.11"/>
</g>
<!-- Node4&#45;&gt;Node1 -->
<g id="edge3" class="edge">
<title>Node4&#45;&gt;Node1</title>
<path fill="none" stroke="#404040" d="M148.01,-182.39C142.53,-163.11 136.76,-142.81 131.5,-124.31"/>
<polygon fill="none" stroke="#404040" points="131.49,-124.29 126,-119.62 128.21,-112.75 133.7,-117.43 131.49,-124.29"/>
<text text-anchor="middle" x="167.5" y="-156" font-family="Helvetica,sans-Serif" font-size="10.00"> +rotation</text>
<text text-anchor="middle" x="167.5" y="-145" font-family="Helvetica,sans-Serif" font-size="10.00">+scale</text>
<text text-anchor="middle" x="167.5" y="-134" font-family="Helvetica,sans-Serif" font-size="10.00">+position</text>
</g>
<!-- Node5 -->
<g id="node5" class="node">
<title>Node5</title>
<g id="a_node5"><a xlink:title=" ">
<polygon fill="white" stroke="#bfbfbf" points="145,-415 145,-472 198,-472 198,-415 145,-415"/>
<text text-anchor="middle" x="171.5" y="-460" font-family="Helvetica,sans-Serif" font-size="10.00">Vector3</text>
<polyline fill="none" stroke="#bfbfbf" points="145,-453 198,-453 "/>
<text text-anchor="middle" x="171.5" y="-441" font-family="Helvetica,sans-Serif" font-size="10.00"> </text>
<polyline fill="none" stroke="#bfbfbf" points="145,-434 198,-434 "/>
<text text-anchor="middle" x="171.5" y="-422" font-family="Helvetica,sans-Serif" font-size="10.00"> </text>
</a>
</g>
</g>
<!-- Node5&#45;&gt;Node4 -->
<g id="edge4" class="edge">
<title>Node5&#45;&gt;Node4</title>
<path fill="none" stroke="midnightblue" d="M171.5,-404.59C171.5,-388.43 171.5,-368.88 171.5,-349.67"/>
<polygon fill="none" stroke="midnightblue" points="168,-404.69 171.5,-414.69 175,-404.69 168,-404.69"/>
</g>
</g>
</svg>
