<?xml version="1.0" encoding="UTF-8" standalone="no"?>
<!DOCTYPE svg PUBLIC "-//W3C//DTD SVG 1.1//EN"
 "http://www.w3.org/Graphics/SVG/1.1/DTD/svg11.dtd">
<!-- Generated by graphviz version 2.43.0 (0)
 -->
<!-- Title: BasicLight Pages: 1 -->
<svg width="175pt" height="542pt"
 viewBox="0.00 0.00 174.50 542.00" xmlns="http://www.w3.org/2000/svg" xmlns:xlink="http://www.w3.org/1999/xlink">
<g id="graph0" class="graph" transform="scale(1 1) rotate(0) translate(4 538)">
<title>BasicLight</title>
<polygon fill="white" stroke="transparent" points="-4,4 -4,-538 170.5,-538 170.5,4 -4,4"/>
<!-- Node1 -->
<g id="node1" class="node">
<title>Node1</title>
<g id="a_node1"><a xlink:title=" ">
<polygon fill="#bfbfbf" stroke="black" points="0,-0.5 0,-189.5 103,-189.5 103,-0.5 0,-0.5"/>
<text text-anchor="middle" x="51.5" y="-177.5" font-family="Helvetica,sans-Serif" font-size="10.00">BasicLight</text>
<polyline fill="none" stroke="black" points="0,-170.5 103,-170.5 "/>
<text text-anchor="start" x="8" y="-158.5" font-family="Helvetica,sans-Serif" font-size="10.00">&#45; _type</text>
<text text-anchor="start" x="8" y="-147.5" font-family="Helvetica,sans-Serif" font-size="10.00">&#45; _position</text>
<text text-anchor="start" x="8" y="-136.5" font-family="Helvetica,sans-Serif" font-size="10.00">&#45; _target</text>
<text text-anchor="start" x="8" y="-125.5" font-family="Helvetica,sans-Serif" font-size="10.00">&#45; _color</text>
<text text-anchor="start" x="8" y="-114.5" font-family="Helvetica,sans-Serif" font-size="10.00">&#45; _typeLoc</text>
<text text-anchor="start" x="8" y="-103.5" font-family="Helvetica,sans-Serif" font-size="10.00">&#45; _posLoc</text>
<text text-anchor="start" x="8" y="-92.5" font-family="Helvetica,sans-Serif" font-size="10.00">&#45; _targetLoc</text>
<text text-anchor="start" x="8" y="-81.5" font-family="Helvetica,sans-Serif" font-size="10.00">&#45; _colorLoc</text>
<polyline fill="none" stroke="black" points="0,-74.5 103,-74.5 "/>
<text text-anchor="start" x="8" y="-62.5" font-family="Helvetica,sans-Serif" font-size="10.00">+ BasicLight()</text>
<text text-anchor="start" x="8" y="-51.5" font-family="Helvetica,sans-Serif" font-size="10.00">+ ~BasicLight()</text>
<text text-anchor="start" x="8" y="-40.5" font-family="Helvetica,sans-Serif" font-size="10.00">+ BasicLight()</text>
<text text-anchor="start" x="8" y="-29.5" font-family="Helvetica,sans-Serif" font-size="10.00">+ operator=()</text>
<text text-anchor="start" x="8" y="-18.5" font-family="Helvetica,sans-Serif" font-size="10.00">+ UpdateValues()</text>
<text text-anchor="start" x="8" y="-7.5" font-family="Helvetica,sans-Serif" font-size="10.00">+ GetPosition()</text>
</a>
</g>
</g>
<!-- Node2 -->
<g id="node2" class="node">
<title>Node2</title>
<g id="a_node2"><a xlink:href="classRayLib_1_1Shader.html" target="_top" xlink:title="Shader Encapsulation of the raylib structure Shader.">
<polygon fill="white" stroke="black" points="4.5,-227.5 4.5,-405.5 98.5,-405.5 98.5,-227.5 4.5,-227.5"/>
<text text-anchor="middle" x="51.5" y="-393.5" font-family="Helvetica,sans-Serif" font-size="10.00">RayLib::Shader</text>
<polyline fill="none" stroke="black" points="4.5,-386.5 98.5,-386.5 "/>
<text text-anchor="middle" x="51.5" y="-374.5" font-family="Helvetica,sans-Serif" font-size="10.00"> </text>
<polyline fill="none" stroke="black" points="4.5,-367.5 98.5,-367.5 "/>
<text text-anchor="start" x="12.5" y="-355.5" font-family="Helvetica,sans-Serif" font-size="10.00">+ Shader()</text>
<text text-anchor="start" x="12.5" y="-344.5" font-family="Helvetica,sans-Serif" font-size="10.00">+ Shader()</text>
<text text-anchor="start" x="12.5" y="-333.5" font-family="Helvetica,sans-Serif" font-size="10.00">+ Shader()</text>
<text text-anchor="start" x="12.5" y="-322.5" font-family="Helvetica,sans-Serif" font-size="10.00">+ Shader()</text>
<text text-anchor="start" x="12.5" y="-311.5" font-family="Helvetica,sans-Serif" font-size="10.00">+ ~Shader()</text>
<text text-anchor="start" x="12.5" y="-300.5" font-family="Helvetica,sans-Serif" font-size="10.00">+ GetShader()</text>
<text text-anchor="start" x="12.5" y="-289.5" font-family="Helvetica,sans-Serif" font-size="10.00">+ GetLocation()</text>
<text text-anchor="start" x="12.5" y="-278.5" font-family="Helvetica,sans-Serif" font-size="10.00">+ SetValue()</text>
<text text-anchor="start" x="12.5" y="-267.5" font-family="Helvetica,sans-Serif" font-size="10.00">+ SetLoc()</text>
<text text-anchor="start" x="12.5" y="-256.5" font-family="Helvetica,sans-Serif" font-size="10.00">+ Unload()</text>
<text text-anchor="start" x="12.5" y="-245.5" font-family="Helvetica,sans-Serif" font-size="10.00">+ BeginMode()</text>
<text text-anchor="start" x="12.5" y="-234.5" font-family="Helvetica,sans-Serif" font-size="10.00">+ EndMode()</text>
</a>
</g>
</g>
<!-- Node2&#45;&gt;Node1 -->
<g id="edge1" class="edge">
<title>Node2&#45;&gt;Node1</title>
<path fill="none" stroke="midnightblue" d="M51.5,-217.24C51.5,-208.11 51.5,-198.87 51.5,-189.78"/>
<polygon fill="none" stroke="midnightblue" points="48,-217.49 51.5,-227.49 55,-217.49 48,-217.49"/>
</g>
<!-- Node2&#45;&gt;Node2 -->
<g id="edge3" class="edge">
<title>Node2&#45;&gt;Node2</title>
<path fill="none" stroke="#404040" d="M98.54,-336.2C108.93,-334.35 116.5,-327.79 116.5,-316.5 116.5,-309.98 113.97,-305.03 109.83,-301.66"/>
<polygon fill="none" stroke="#404040" points="109.56,-301.54 102.46,-302.84 98.54,-296.8 105.63,-295.49 109.56,-301.54"/>
<text text-anchor="middle" x="141.5" y="-314" font-family="Helvetica,sans-Serif" font-size="10.00"> #_shader</text>
</g>
<!-- Node3 -->
<g id="node3" class="node">
<title>Node3</title>
<g id="a_node3"><a xlink:href="classRayLib_1_1IAsset.html" target="_top" xlink:title=" ">
<polygon fill="white" stroke="black" points="8.5,-443.5 8.5,-533.5 94.5,-533.5 94.5,-443.5 8.5,-443.5"/>
<text text-anchor="middle" x="51.5" y="-521.5" font-family="Helvetica,sans-Serif" font-size="10.00">RayLib::IAsset</text>
<polyline fill="none" stroke="black" points="8.5,-514.5 94.5,-514.5 "/>
<text text-anchor="middle" x="51.5" y="-502.5" font-family="Helvetica,sans-Serif" font-size="10.00"> </text>
<polyline fill="none" stroke="black" points="8.5,-495.5 94.5,-495.5 "/>
<text text-anchor="start" x="16.5" y="-483.5" font-family="Helvetica,sans-Serif" font-size="10.00">+ IAsset()</text>
<text text-anchor="start" x="16.5" y="-472.5" font-family="Helvetica,sans-Serif" font-size="10.00">+ ~IAsset()</text>
<text text-anchor="start" x="16.5" y="-461.5" font-family="Helvetica,sans-Serif" font-size="10.00">+ IAsset()</text>
<text text-anchor="start" x="16.5" y="-450.5" font-family="Helvetica,sans-Serif" font-size="10.00">+ operator=()</text>
</a>
</g>
</g>
<!-- Node3&#45;&gt;Node2 -->
<g id="edge2" class="edge">
<title>Node3&#45;&gt;Node2</title>
<path fill="none" stroke="midnightblue" d="M51.5,-433.2C51.5,-424.38 51.5,-415.06 51.5,-405.69"/>
<polygon fill="none" stroke="midnightblue" points="48,-433.28 51.5,-443.28 55,-433.28 48,-433.28"/>
</g>
</g>
</svg>
