<?xml version="1.0" encoding="UTF-8" standalone="no"?>
<!DOCTYPE svg PUBLIC "-//W3C//DTD SVG 1.1//EN"
 "http://www.w3.org/Graphics/SVG/1.1/DTD/svg11.dtd">
<!-- Generated by graphviz version 2.43.0 (0)
 -->
<!-- Title: Component::UISystem Pages: 1 -->
<svg width="134pt" height="369pt"
 viewBox="0.00 0.00 134.00 369.00" xmlns="http://www.w3.org/2000/svg" xmlns:xlink="http://www.w3.org/1999/xlink">
<g id="graph0" class="graph" transform="scale(1 1) rotate(0) translate(4 365)">
<title>Component::UISystem</title>
<polygon fill="white" stroke="transparent" points="-4,4 -4,-365 130,-365 130,4 -4,4"/>
<!-- Node1 -->
<g id="node1" class="node">
<title>Node1</title>
<g id="a_node1"><a xlink:title="UI System.">
<polygon fill="#bfbfbf" stroke="black" points="0,-0.5 0,-101.5 126,-101.5 126,-0.5 0,-0.5"/>
<text text-anchor="middle" x="63" y="-89.5" font-family="Helvetica,sans-Serif" font-size="10.00">Component::UISystem</text>
<polyline fill="none" stroke="black" points="0,-82.5 126,-82.5 "/>
<text text-anchor="start" x="8" y="-70.5" font-family="Helvetica,sans-Serif" font-size="10.00">&#45; _window</text>
<polyline fill="none" stroke="black" points="0,-63.5 126,-63.5 "/>
<text text-anchor="start" x="8" y="-51.5" font-family="Helvetica,sans-Serif" font-size="10.00">+ UISystem()</text>
<text text-anchor="start" x="8" y="-40.5" font-family="Helvetica,sans-Serif" font-size="10.00">+ ~UISystem()</text>
<text text-anchor="start" x="8" y="-29.5" font-family="Helvetica,sans-Serif" font-size="10.00">+ UISystem()</text>
<text text-anchor="start" x="8" y="-18.5" font-family="Helvetica,sans-Serif" font-size="10.00">+ operator=()</text>
<text text-anchor="start" x="8" y="-7.5" font-family="Helvetica,sans-Serif" font-size="10.00">+ LateUpdate()</text>
</a>
</g>
</g>
<!-- Node2 -->
<g id="node2" class="node">
<title>Node2</title>
<g id="a_node2"><a xlink:href="classECS_1_1ASystem.html" target="_top" xlink:title="Base Abstract class to create a new System.">
<polygon fill="white" stroke="black" points="2,-138.5 2,-360.5 124,-360.5 124,-138.5 2,-138.5"/>
<text text-anchor="middle" x="63" y="-348.5" font-family="Helvetica,sans-Serif" font-size="10.00">ECS::ASystem</text>
<polyline fill="none" stroke="black" points="2,-341.5 124,-341.5 "/>
<text text-anchor="start" x="10" y="-329.5" font-family="Helvetica,sans-Serif" font-size="10.00">&#45; _dependencies</text>
<text text-anchor="start" x="10" y="-318.5" font-family="Helvetica,sans-Serif" font-size="10.00">&#45; _enabled</text>
<polyline fill="none" stroke="black" points="2,-311.5 124,-311.5 "/>
<text text-anchor="start" x="10" y="-299.5" font-family="Helvetica,sans-Serif" font-size="10.00">+ ASystem()</text>
<text text-anchor="start" x="10" y="-288.5" font-family="Helvetica,sans-Serif" font-size="10.00">+ ASystem()</text>
<text text-anchor="start" x="10" y="-277.5" font-family="Helvetica,sans-Serif" font-size="10.00">+ ~ASystem()</text>
<text text-anchor="start" x="10" y="-266.5" font-family="Helvetica,sans-Serif" font-size="10.00">+ ASystem()</text>
<text text-anchor="start" x="10" y="-255.5" font-family="Helvetica,sans-Serif" font-size="10.00">+ operator=()</text>
<text text-anchor="start" x="10" y="-244.5" font-family="Helvetica,sans-Serif" font-size="10.00">+ Update()</text>
<text text-anchor="start" x="10" y="-233.5" font-family="Helvetica,sans-Serif" font-size="10.00">+ FixedUpdate()</text>
<text text-anchor="start" x="10" y="-222.5" font-family="Helvetica,sans-Serif" font-size="10.00">+ LateUpdate()</text>
<text text-anchor="start" x="10" y="-211.5" font-family="Helvetica,sans-Serif" font-size="10.00">+ OnDisable()</text>
<text text-anchor="start" x="10" y="-200.5" font-family="Helvetica,sans-Serif" font-size="10.00">+ OnEnable()</text>
<text text-anchor="start" x="10" y="-189.5" font-family="Helvetica,sans-Serif" font-size="10.00">+ GetDependencies()</text>
<text text-anchor="start" x="10" y="-178.5" font-family="Helvetica,sans-Serif" font-size="10.00">+ GetStatus()</text>
<text text-anchor="start" x="10" y="-167.5" font-family="Helvetica,sans-Serif" font-size="10.00">+ SetStatus()</text>
<text text-anchor="start" x="10" y="-156.5" font-family="Helvetica,sans-Serif" font-size="10.00">+ ToggleStatus()</text>
<text text-anchor="start" x="10" y="-145.5" font-family="Helvetica,sans-Serif" font-size="10.00"># AddDependency()</text>
</a>
</g>
</g>
<!-- Node2&#45;&gt;Node1 -->
<g id="edge1" class="edge">
<title>Node2&#45;&gt;Node1</title>
<path fill="none" stroke="midnightblue" d="M63,-128.34C63,-119.09 63,-110.11 63,-101.76"/>
<polygon fill="none" stroke="midnightblue" points="59.5,-128.47 63,-138.47 66.5,-128.47 59.5,-128.47"/>
</g>
</g>
</svg>
