<?xml version="1.0" encoding="UTF-8" standalone="no"?>
<!DOCTYPE svg PUBLIC "-//W3C//DTD SVG 1.1//EN"
 "http://www.w3.org/Graphics/SVG/1.1/DTD/svg11.dtd">
<!-- Generated by graphviz version 2.43.0 (0)
 -->
<!-- Title: Component::TextBoxCallback Pages: 1 -->
<svg width="857pt" height="1304pt"
 viewBox="0.00 0.00 856.50 1304.00" xmlns="http://www.w3.org/2000/svg" xmlns:xlink="http://www.w3.org/1999/xlink">
<g id="graph0" class="graph" transform="scale(1 1) rotate(0) translate(4 1300)">
<title>Component::TextBoxCallback</title>
<polygon fill="white" stroke="transparent" points="-4,4 -4,-1300 852.5,-1300 852.5,4 -4,4"/>
<!-- Node1 -->
<g id="node1" class="node">
<title>Node1</title>
<g id="a_node1"><a xlink:title="Behaviour of the TextBox.">
<polygon fill="#bfbfbf" stroke="black" points="371.5,-0.5 371.5,-156.5 531.5,-156.5 531.5,-0.5 371.5,-0.5"/>
<text text-anchor="middle" x="451.5" y="-144.5" font-family="Helvetica,sans-Serif" font-size="10.00">Component::TextBoxCallback</text>
<polyline fill="none" stroke="black" points="371.5,-137.5 531.5,-137.5 "/>
<text text-anchor="middle" x="451.5" y="-125.5" font-family="Helvetica,sans-Serif" font-size="10.00"> </text>
<polyline fill="none" stroke="black" points="371.5,-118.5 531.5,-118.5 "/>
<text text-anchor="start" x="379.5" y="-106.5" font-family="Helvetica,sans-Serif" font-size="10.00">+ TextBoxCallback()</text>
<text text-anchor="start" x="379.5" y="-95.5" font-family="Helvetica,sans-Serif" font-size="10.00">+ ~TextBoxCallback()</text>
<text text-anchor="start" x="379.5" y="-84.5" font-family="Helvetica,sans-Serif" font-size="10.00">+ TextBoxCallback()</text>
<text text-anchor="start" x="379.5" y="-73.5" font-family="Helvetica,sans-Serif" font-size="10.00">+ operator=()</text>
<text text-anchor="start" x="379.5" y="-62.5" font-family="Helvetica,sans-Serif" font-size="10.00">+ Update()</text>
<text text-anchor="start" x="379.5" y="-51.5" font-family="Helvetica,sans-Serif" font-size="10.00">+ LateUpdate()</text>
<text text-anchor="start" x="379.5" y="-40.5" font-family="Helvetica,sans-Serif" font-size="10.00">+ FixedUpdate()</text>
<text text-anchor="start" x="379.5" y="-29.5" font-family="Helvetica,sans-Serif" font-size="10.00">+ operator&lt;&lt;()</text>
<text text-anchor="start" x="379.5" y="-18.5" font-family="Helvetica,sans-Serif" font-size="10.00">+ operator&lt;&lt;()</text>
<text text-anchor="start" x="379.5" y="-7.5" font-family="Helvetica,sans-Serif" font-size="10.00">&#45; IsMouseOver()</text>
</a>
</g>
</g>
<!-- Node2 -->
<g id="node2" class="node">
<title>Node2</title>
<g id="a_node2"><a xlink:href="classComponent_1_1IBehaviour.html" target="_top" xlink:title="IBehaviour base component (CF Monobehaviour class in Unity)">
<polygon fill="white" stroke="black" points="319,-522.5 319,-645.5 450,-645.5 450,-522.5 319,-522.5"/>
<text text-anchor="middle" x="384.5" y="-633.5" font-family="Helvetica,sans-Serif" font-size="10.00">Component::IBehaviour</text>
<polyline fill="none" stroke="black" points="319,-626.5 450,-626.5 "/>
<text text-anchor="middle" x="384.5" y="-614.5" font-family="Helvetica,sans-Serif" font-size="10.00"> </text>
<polyline fill="none" stroke="black" points="319,-607.5 450,-607.5 "/>
<text text-anchor="start" x="327" y="-595.5" font-family="Helvetica,sans-Serif" font-size="10.00">+ IBehaviour()</text>
<text text-anchor="start" x="327" y="-584.5" font-family="Helvetica,sans-Serif" font-size="10.00">+ ~IBehaviour()</text>
<text text-anchor="start" x="327" y="-573.5" font-family="Helvetica,sans-Serif" font-size="10.00">+ IBehaviour()</text>
<text text-anchor="start" x="327" y="-562.5" font-family="Helvetica,sans-Serif" font-size="10.00">+ operator=()</text>
<text text-anchor="start" x="327" y="-551.5" font-family="Helvetica,sans-Serif" font-size="10.00">+ Update()</text>
<text text-anchor="start" x="327" y="-540.5" font-family="Helvetica,sans-Serif" font-size="10.00">+ FixedUpdate()</text>
<text text-anchor="start" x="327" y="-529.5" font-family="Helvetica,sans-Serif" font-size="10.00">+ LateUpdate()</text>
</a>
</g>
</g>
<!-- Node2&#45;&gt;Node1 -->
<g id="edge1" class="edge">
<title>Node2&#45;&gt;Node1</title>
<path fill="none" stroke="midnightblue" d="M393.91,-512.3C406.39,-418.47 428.36,-253.41 441.25,-156.5"/>
<polygon fill="none" stroke="midnightblue" points="390.43,-511.89 392.58,-522.27 397.37,-512.82 390.43,-511.89"/>
</g>
<!-- Node3 -->
<g id="node3" class="node">
<title>Node3</title>
<g id="a_node3"><a xlink:href="classECS_1_1IComponent.html" target="_top" xlink:title="Base Interface class to create a new component.">
<polygon fill="white" stroke="black" points="333,-1011.5 333,-1101.5 436,-1101.5 436,-1011.5 333,-1011.5"/>
<text text-anchor="middle" x="384.5" y="-1089.5" font-family="Helvetica,sans-Serif" font-size="10.00">ECS::IComponent</text>
<polyline fill="none" stroke="black" points="333,-1082.5 436,-1082.5 "/>
<text text-anchor="middle" x="384.5" y="-1070.5" font-family="Helvetica,sans-Serif" font-size="10.00"> </text>
<polyline fill="none" stroke="black" points="333,-1063.5 436,-1063.5 "/>
<text text-anchor="start" x="341" y="-1051.5" font-family="Helvetica,sans-Serif" font-size="10.00">+ IComponent()</text>
<text text-anchor="start" x="341" y="-1040.5" font-family="Helvetica,sans-Serif" font-size="10.00">+ ~IComponent()</text>
<text text-anchor="start" x="341" y="-1029.5" font-family="Helvetica,sans-Serif" font-size="10.00">+ IComponent()</text>
<text text-anchor="start" x="341" y="-1018.5" font-family="Helvetica,sans-Serif" font-size="10.00">+ operator=()</text>
</a>
</g>
</g>
<!-- Node3&#45;&gt;Node2 -->
<g id="edge2" class="edge">
<title>Node3&#45;&gt;Node2</title>
<path fill="none" stroke="midnightblue" d="M386.8,-1001.04C387.85,-973.47 388.98,-939.46 389.5,-909 391.11,-814.79 391.6,-791.2 389.5,-697 389.13,-680.36 388.45,-662.35 387.71,-645.73"/>
<polygon fill="none" stroke="midnightblue" points="383.29,-1001.15 386.4,-1011.28 390.29,-1001.42 383.29,-1001.15"/>
</g>
<!-- Node6 -->
<g id="node6" class="node">
<title>Node6</title>
<g id="a_node6"><a xlink:href="classComponent_1_1IUIObject.html" target="_top" xlink:title="Base class for UI objects.">
<polygon fill="white" stroke="black" points="256.5,-752.5 256.5,-853.5 380.5,-853.5 380.5,-752.5 256.5,-752.5"/>
<text text-anchor="middle" x="318.5" y="-841.5" font-family="Helvetica,sans-Serif" font-size="10.00">Component::IUIObject</text>
<polyline fill="none" stroke="black" points="256.5,-834.5 380.5,-834.5 "/>
<text text-anchor="middle" x="318.5" y="-822.5" font-family="Helvetica,sans-Serif" font-size="10.00"> </text>
<polyline fill="none" stroke="black" points="256.5,-815.5 380.5,-815.5 "/>
<text text-anchor="start" x="264.5" y="-803.5" font-family="Helvetica,sans-Serif" font-size="10.00">+ IUIObject()</text>
<text text-anchor="start" x="264.5" y="-792.5" font-family="Helvetica,sans-Serif" font-size="10.00">+ ~IUIObject()</text>
<text text-anchor="start" x="264.5" y="-781.5" font-family="Helvetica,sans-Serif" font-size="10.00">+ IUIObject()</text>
<text text-anchor="start" x="264.5" y="-770.5" font-family="Helvetica,sans-Serif" font-size="10.00">+ operator=()</text>
<text text-anchor="start" x="264.5" y="-759.5" font-family="Helvetica,sans-Serif" font-size="10.00">+ Draw()</text>
</a>
</g>
</g>
<!-- Node3&#45;&gt;Node6 -->
<g id="edge6" class="edge">
<title>Node3&#45;&gt;Node6</title>
<path fill="none" stroke="midnightblue" d="M370.33,-1001.49C358.82,-957.64 342.72,-896.29 331.53,-853.66"/>
<polygon fill="none" stroke="midnightblue" points="367,-1002.62 372.93,-1011.4 373.78,-1000.84 367,-1002.62"/>
</g>
<!-- Node4 -->
<g id="node4" class="node">
<title>Node4</title>
<g id="a_node4"><a xlink:href="classIXMLSerializable.html" target="_top" xlink:title=" ">
<polygon fill="white" stroke="black" points="388,-1183.5 388,-1295.5 513,-1295.5 513,-1183.5 388,-1183.5"/>
<text text-anchor="middle" x="450.5" y="-1283.5" font-family="Helvetica,sans-Serif" font-size="10.00">IXMLSerializable</text>
<polyline fill="none" stroke="black" points="388,-1276.5 513,-1276.5 "/>
<text text-anchor="middle" x="450.5" y="-1264.5" font-family="Helvetica,sans-Serif" font-size="10.00"> </text>
<polyline fill="none" stroke="black" points="388,-1257.5 513,-1257.5 "/>
<text text-anchor="start" x="396" y="-1245.5" font-family="Helvetica,sans-Serif" font-size="10.00">+ IXMLSerializable()</text>
<text text-anchor="start" x="396" y="-1234.5" font-family="Helvetica,sans-Serif" font-size="10.00">+ ~IXMLSerializable()</text>
<text text-anchor="start" x="396" y="-1223.5" font-family="Helvetica,sans-Serif" font-size="10.00">+ IXMLSerializable()</text>
<text text-anchor="start" x="396" y="-1212.5" font-family="Helvetica,sans-Serif" font-size="10.00">+ operator=()</text>
<text text-anchor="start" x="396" y="-1201.5" font-family="Helvetica,sans-Serif" font-size="10.00">+ operator&lt;&lt;()</text>
<text text-anchor="start" x="396" y="-1190.5" font-family="Helvetica,sans-Serif" font-size="10.00">+ operator&lt;&lt;()</text>
</a>
</g>
</g>
<!-- Node4&#45;&gt;Node3 -->
<g id="edge3" class="edge">
<title>Node4&#45;&gt;Node3</title>
<path fill="none" stroke="midnightblue" d="M426.8,-1173.51C418.09,-1149.63 408.45,-1123.17 400.57,-1101.56"/>
<polygon fill="none" stroke="midnightblue" points="423.63,-1175.01 430.34,-1183.21 430.2,-1172.62 423.63,-1175.01"/>
</g>
<!-- Node12 -->
<g id="node12" class="node">
<title>Node12</title>
<g id="a_node12"><a xlink:href="classRayLib_1_1Vector2.html" target="_top" xlink:title=" ">
<polygon fill="white" stroke="black" points="454.5,-967.5 454.5,-1145.5 582.5,-1145.5 582.5,-967.5 454.5,-967.5"/>
<text text-anchor="middle" x="518.5" y="-1133.5" font-family="Helvetica,sans-Serif" font-size="10.00">RayLib::Vector2&lt; int &gt;</text>
<polyline fill="none" stroke="black" points="454.5,-1126.5 582.5,-1126.5 "/>
<text text-anchor="start" x="462.5" y="-1114.5" font-family="Helvetica,sans-Serif" font-size="10.00">+ x</text>
<text text-anchor="start" x="462.5" y="-1103.5" font-family="Helvetica,sans-Serif" font-size="10.00">+ y</text>
<polyline fill="none" stroke="black" points="454.5,-1096.5 582.5,-1096.5 "/>
<text text-anchor="start" x="462.5" y="-1084.5" font-family="Helvetica,sans-Serif" font-size="10.00">+ Vector2()</text>
<text text-anchor="start" x="462.5" y="-1073.5" font-family="Helvetica,sans-Serif" font-size="10.00">+ Vector2()</text>
<text text-anchor="start" x="462.5" y="-1062.5" font-family="Helvetica,sans-Serif" font-size="10.00">+ Vector2()</text>
<text text-anchor="start" x="462.5" y="-1051.5" font-family="Helvetica,sans-Serif" font-size="10.00">+ Vector2()</text>
<text text-anchor="start" x="462.5" y="-1040.5" font-family="Helvetica,sans-Serif" font-size="10.00">+ Vector2()</text>
<text text-anchor="start" x="462.5" y="-1029.5" font-family="Helvetica,sans-Serif" font-size="10.00">+ Vector2()</text>
<text text-anchor="start" x="462.5" y="-1018.5" font-family="Helvetica,sans-Serif" font-size="10.00">+ ~Vector2()</text>
<text text-anchor="start" x="462.5" y="-1007.5" font-family="Helvetica,sans-Serif" font-size="10.00">+ getVector2()</text>
<text text-anchor="start" x="462.5" y="-996.5" font-family="Helvetica,sans-Serif" font-size="10.00">+ operator=()</text>
<text text-anchor="start" x="462.5" y="-985.5" font-family="Helvetica,sans-Serif" font-size="10.00">+ operator+=()</text>
<text text-anchor="start" x="462.5" y="-974.5" font-family="Helvetica,sans-Serif" font-size="10.00">and 6 more...</text>
</a>
</g>
</g>
<!-- Node4&#45;&gt;Node12 -->
<g id="edge13" class="edge">
<title>Node4&#45;&gt;Node12</title>
<path fill="none" stroke="midnightblue" d="M474.89,-1173.58C478.28,-1164.56 481.81,-1155.17 485.32,-1145.8"/>
<polygon fill="none" stroke="midnightblue" points="471.51,-1172.62 471.27,-1183.21 478.07,-1175.08 471.51,-1172.62"/>
</g>
<!-- Node5 -->
<g id="node5" class="node">
<title>Node5</title>
<g id="a_node5"><a xlink:href="classComponent_1_1TextBox.html" target="_top" xlink:title="Component where it&#39;s possible to enter text and show it.">
<polygon fill="white" stroke="black" points="209.5,-204.5 209.5,-470.5 327.5,-470.5 327.5,-204.5 209.5,-204.5"/>
<text text-anchor="middle" x="268.5" y="-458.5" font-family="Helvetica,sans-Serif" font-size="10.00">Component::TextBox</text>
<polyline fill="none" stroke="black" points="209.5,-451.5 327.5,-451.5 "/>
<text text-anchor="start" x="217.5" y="-439.5" font-family="Helvetica,sans-Serif" font-size="10.00">&#45; _max</text>
<text text-anchor="start" x="217.5" y="-428.5" font-family="Helvetica,sans-Serif" font-size="10.00">&#45; _font</text>
<text text-anchor="start" x="217.5" y="-417.5" font-family="Helvetica,sans-Serif" font-size="10.00">&#45; _size</text>
<text text-anchor="start" x="217.5" y="-406.5" font-family="Helvetica,sans-Serif" font-size="10.00">&#45; _spacing</text>
<text text-anchor="start" x="217.5" y="-395.5" font-family="Helvetica,sans-Serif" font-size="10.00">&#45; _value</text>
<text text-anchor="start" x="217.5" y="-384.5" font-family="Helvetica,sans-Serif" font-size="10.00">&#45; _isAlpha</text>
<text text-anchor="start" x="217.5" y="-373.5" font-family="Helvetica,sans-Serif" font-size="10.00">&#45; _isNum</text>
<polyline fill="none" stroke="black" points="209.5,-366.5 327.5,-366.5 "/>
<text text-anchor="start" x="217.5" y="-354.5" font-family="Helvetica,sans-Serif" font-size="10.00">+ TextBox()</text>
<text text-anchor="start" x="217.5" y="-343.5" font-family="Helvetica,sans-Serif" font-size="10.00">+ ~TextBox()</text>
<text text-anchor="start" x="217.5" y="-332.5" font-family="Helvetica,sans-Serif" font-size="10.00">+ TextBox()</text>
<text text-anchor="start" x="217.5" y="-321.5" font-family="Helvetica,sans-Serif" font-size="10.00">+ operator=()</text>
<text text-anchor="start" x="217.5" y="-310.5" font-family="Helvetica,sans-Serif" font-size="10.00">+ Draw()</text>
<text text-anchor="start" x="217.5" y="-299.5" font-family="Helvetica,sans-Serif" font-size="10.00">+ GetIsAlpha()</text>
<text text-anchor="start" x="217.5" y="-288.5" font-family="Helvetica,sans-Serif" font-size="10.00">+ GetIsNum()</text>
<text text-anchor="start" x="217.5" y="-277.5" font-family="Helvetica,sans-Serif" font-size="10.00">+ GetValue()</text>
<text text-anchor="start" x="217.5" y="-266.5" font-family="Helvetica,sans-Serif" font-size="10.00">+ SetValue()</text>
<text text-anchor="start" x="217.5" y="-255.5" font-family="Helvetica,sans-Serif" font-size="10.00">+ GetRectangle()</text>
<text text-anchor="start" x="217.5" y="-244.5" font-family="Helvetica,sans-Serif" font-size="10.00">+ RemoveChar()</text>
<text text-anchor="start" x="217.5" y="-233.5" font-family="Helvetica,sans-Serif" font-size="10.00">+ AppendChar()</text>
<text text-anchor="start" x="217.5" y="-222.5" font-family="Helvetica,sans-Serif" font-size="10.00">&#45; operator&lt;&lt;()</text>
<text text-anchor="start" x="217.5" y="-211.5" font-family="Helvetica,sans-Serif" font-size="10.00">&#45; operator&lt;&lt;()</text>
</a>
</g>
</g>
<!-- Node5&#45;&gt;Node1 -->
<g id="edge4" class="edge">
<title>Node5&#45;&gt;Node1</title>
<path fill="none" stroke="#404040" d="M314.1,-204.27C319.66,-194 325.78,-184.1 332.5,-175 341.04,-163.43 351.31,-152.47 362.2,-142.38"/>
<polygon fill="none" stroke="#404040" points="362.5,-142.11 364.32,-135.13 371.46,-134.12 369.64,-141.1 362.5,-142.11"/>
<text text-anchor="middle" x="358" y="-178" font-family="Helvetica,sans-Serif" font-size="10.00"> &#45;_textBox</text>
</g>
<!-- Node6&#45;&gt;Node5 -->
<g id="edge5" class="edge">
<title>Node6&#45;&gt;Node5</title>
<path fill="none" stroke="midnightblue" d="M312.05,-742.25C304.69,-673.97 292.41,-560.12 282.76,-470.69"/>
<polygon fill="none" stroke="midnightblue" points="308.6,-742.83 313.15,-752.4 315.56,-742.08 308.6,-742.83"/>
</g>
<!-- Node7 -->
<g id="node7" class="node">
<title>Node7</title>
<g id="a_node7"><a xlink:href="classRayLib_1_1Rectangle.html" target="_top" xlink:title="Rectangle encapsulation.">
<polygon fill="white" stroke="black" points="0,-730.5 0,-875.5 135,-875.5 135,-730.5 0,-730.5"/>
<text text-anchor="middle" x="67.5" y="-863.5" font-family="Helvetica,sans-Serif" font-size="10.00">RayLib::Rectangle</text>
<polyline fill="none" stroke="black" points="0,-856.5 135,-856.5 "/>
<text text-anchor="middle" x="67.5" y="-844.5" font-family="Helvetica,sans-Serif" font-size="10.00"> </text>
<polyline fill="none" stroke="black" points="0,-837.5 135,-837.5 "/>
<text text-anchor="start" x="8" y="-825.5" font-family="Helvetica,sans-Serif" font-size="10.00">+ Rectangle()</text>
<text text-anchor="start" x="8" y="-814.5" font-family="Helvetica,sans-Serif" font-size="10.00">+ Rectangle()</text>
<text text-anchor="start" x="8" y="-803.5" font-family="Helvetica,sans-Serif" font-size="10.00">+ Rectangle()</text>
<text text-anchor="start" x="8" y="-792.5" font-family="Helvetica,sans-Serif" font-size="10.00">+ operator=()</text>
<text text-anchor="start" x="8" y="-781.5" font-family="Helvetica,sans-Serif" font-size="10.00">+ operator=()</text>
<text text-anchor="start" x="8" y="-770.5" font-family="Helvetica,sans-Serif" font-size="10.00">+ GetRectangle()</text>
<text text-anchor="start" x="8" y="-759.5" font-family="Helvetica,sans-Serif" font-size="10.00">+ ~Rectangle()</text>
<text text-anchor="start" x="8" y="-748.5" font-family="Helvetica,sans-Serif" font-size="10.00">+ DrawRectangle()</text>
<text text-anchor="start" x="8" y="-737.5" font-family="Helvetica,sans-Serif" font-size="10.00">+ DrawRectangleLines()</text>
</a>
</g>
</g>
<!-- Node7&#45;&gt;Node5 -->
<g id="edge7" class="edge">
<title>Node7&#45;&gt;Node5</title>
<path fill="none" stroke="#404040" d="M89.26,-730.28C109.77,-665.85 142.9,-569.32 180.5,-489 187.42,-474.22 195.32,-458.99 203.5,-444.16"/>
<polygon fill="none" stroke="#404040" points="203.63,-443.91 203.07,-436.72 209.49,-433.44 210.05,-440.63 203.63,-443.91"/>
<text text-anchor="middle" x="196" y="-581.5" font-family="Helvetica,sans-Serif" font-size="10.00"> &#45;_rect</text>
</g>
<!-- Node8 -->
<g id="node8" class="node">
<title>Node8</title>
<g id="a_node8"><a xlink:title=" ">
<polygon fill="white" stroke="#bfbfbf" points="35,-1028 35,-1085 100,-1085 100,-1028 35,-1028"/>
<text text-anchor="middle" x="67.5" y="-1073" font-family="Helvetica,sans-Serif" font-size="10.00">Rectangle</text>
<polyline fill="none" stroke="#bfbfbf" points="35,-1066 100,-1066 "/>
<text text-anchor="middle" x="67.5" y="-1054" font-family="Helvetica,sans-Serif" font-size="10.00"> </text>
<polyline fill="none" stroke="#bfbfbf" points="35,-1047 100,-1047 "/>
<text text-anchor="middle" x="67.5" y="-1035" font-family="Helvetica,sans-Serif" font-size="10.00"> </text>
</a>
</g>
</g>
<!-- Node8&#45;&gt;Node7 -->
<g id="edge8" class="edge">
<title>Node8&#45;&gt;Node7</title>
<path fill="none" stroke="midnightblue" d="M67.5,-1017.16C67.5,-979.68 67.5,-921.7 67.5,-875.67"/>
<polygon fill="none" stroke="midnightblue" points="64,-1017.62 67.5,-1027.62 71,-1017.62 64,-1017.62"/>
</g>
<!-- Node9 -->
<g id="node9" class="node">
<title>Node9</title>
<g id="a_node9"><a xlink:href="classRayLib_1_1Color.html" target="_top" xlink:title="RayLib Color encapsulation.">
<polygon fill="white" stroke="black" points="153,-730.5 153,-875.5 238,-875.5 238,-730.5 153,-730.5"/>
<text text-anchor="middle" x="195.5" y="-863.5" font-family="Helvetica,sans-Serif" font-size="10.00">RayLib::Color</text>
<polyline fill="none" stroke="black" points="153,-856.5 238,-856.5 "/>
<text text-anchor="middle" x="195.5" y="-844.5" font-family="Helvetica,sans-Serif" font-size="10.00"> </text>
<polyline fill="none" stroke="black" points="153,-837.5 238,-837.5 "/>
<text text-anchor="start" x="161" y="-825.5" font-family="Helvetica,sans-Serif" font-size="10.00">+ Color()</text>
<text text-anchor="start" x="161" y="-814.5" font-family="Helvetica,sans-Serif" font-size="10.00">+ Color()</text>
<text text-anchor="start" x="161" y="-803.5" font-family="Helvetica,sans-Serif" font-size="10.00">+ Color()</text>
<text text-anchor="start" x="161" y="-792.5" font-family="Helvetica,sans-Serif" font-size="10.00">+ Color()</text>
<text text-anchor="start" x="161" y="-781.5" font-family="Helvetica,sans-Serif" font-size="10.00">+ Color()</text>
<text text-anchor="start" x="161" y="-770.5" font-family="Helvetica,sans-Serif" font-size="10.00">+ ~Color()</text>
<text text-anchor="start" x="161" y="-759.5" font-family="Helvetica,sans-Serif" font-size="10.00">+ getColor()</text>
<text text-anchor="start" x="161" y="-748.5" font-family="Helvetica,sans-Serif" font-size="10.00">+ operator=()</text>
<text text-anchor="start" x="161" y="-737.5" font-family="Helvetica,sans-Serif" font-size="10.00">+ Lerp()</text>
</a>
</g>
</g>
<!-- Node9&#45;&gt;Node5 -->
<g id="edge9" class="edge">
<title>Node9&#45;&gt;Node5</title>
<path fill="none" stroke="#404040" d="M206.79,-730.34C217.16,-664.46 232.85,-564.84 245.82,-482.53"/>
<polygon fill="none" stroke="#404040" points="245.84,-482.37 242.82,-475.82 247.71,-470.52 250.73,-477.07 245.84,-482.37"/>
<text text-anchor="middle" x="262" y="-581.5" font-family="Helvetica,sans-Serif" font-size="10.00"> &#45;_color</text>
</g>
<!-- Node10 -->
<g id="node10" class="node">
<title>Node10</title>
<g id="a_node10"><a xlink:title=" ">
<polygon fill="white" stroke="#bfbfbf" points="174.5,-1028 174.5,-1085 216.5,-1085 216.5,-1028 174.5,-1028"/>
<text text-anchor="middle" x="195.5" y="-1073" font-family="Helvetica,sans-Serif" font-size="10.00">Color</text>
<polyline fill="none" stroke="#bfbfbf" points="174.5,-1066 216.5,-1066 "/>
<text text-anchor="middle" x="195.5" y="-1054" font-family="Helvetica,sans-Serif" font-size="10.00"> </text>
<polyline fill="none" stroke="#bfbfbf" points="174.5,-1047 216.5,-1047 "/>
<text text-anchor="middle" x="195.5" y="-1035" font-family="Helvetica,sans-Serif" font-size="10.00"> </text>
</a>
</g>
</g>
<!-- Node10&#45;&gt;Node9 -->
<g id="edge10" class="edge">
<title>Node10&#45;&gt;Node9</title>
<path fill="none" stroke="midnightblue" d="M195.5,-1017.16C195.5,-979.68 195.5,-921.7 195.5,-875.67"/>
<polygon fill="none" stroke="midnightblue" points="192,-1017.62 195.5,-1027.62 199,-1017.62 192,-1017.62"/>
</g>
<!-- Node11 -->
<g id="node11" class="node">
<title>Node11</title>
<g id="a_node11"><a xlink:href="classRayLib_1_1Input.html" target="_top" xlink:title="Input encapsulation.">
<polygon fill="white" stroke="black" points="455.5,-489.5 455.5,-678.5 581.5,-678.5 581.5,-489.5 455.5,-489.5"/>
<text text-anchor="middle" x="518.5" y="-666.5" font-family="Helvetica,sans-Serif" font-size="10.00">RayLib::Input</text>
<polyline fill="none" stroke="black" points="455.5,-659.5 581.5,-659.5 "/>
<text text-anchor="middle" x="518.5" y="-647.5" font-family="Helvetica,sans-Serif" font-size="10.00"> </text>
<polyline fill="none" stroke="black" points="455.5,-640.5 581.5,-640.5 "/>
<text text-anchor="start" x="463.5" y="-628.5" font-family="Helvetica,sans-Serif" font-size="10.00">+ Input()</text>
<text text-anchor="start" x="463.5" y="-617.5" font-family="Helvetica,sans-Serif" font-size="10.00">+ Input()</text>
<text text-anchor="start" x="463.5" y="-606.5" font-family="Helvetica,sans-Serif" font-size="10.00">+ ~Input()</text>
<text text-anchor="start" x="463.5" y="-595.5" font-family="Helvetica,sans-Serif" font-size="10.00">+ operator=()</text>
<text text-anchor="start" x="463.5" y="-584.5" font-family="Helvetica,sans-Serif" font-size="10.00">+ GetHorizontalAxis()</text>
<text text-anchor="start" x="463.5" y="-573.5" font-family="Helvetica,sans-Serif" font-size="10.00">+ GetVerticalAxis()</text>
<text text-anchor="start" x="463.5" y="-562.5" font-family="Helvetica,sans-Serif" font-size="10.00">+ GetKeyPressed()</text>
<text text-anchor="start" x="463.5" y="-551.5" font-family="Helvetica,sans-Serif" font-size="10.00">+ IsKeyDown()</text>
<text text-anchor="start" x="463.5" y="-540.5" font-family="Helvetica,sans-Serif" font-size="10.00">+ GetCharPressed()</text>
<text text-anchor="start" x="463.5" y="-529.5" font-family="Helvetica,sans-Serif" font-size="10.00">+ IsKeyPressed()</text>
<text text-anchor="start" x="463.5" y="-518.5" font-family="Helvetica,sans-Serif" font-size="10.00">+ IsKeyReleased()</text>
<text text-anchor="start" x="463.5" y="-507.5" font-family="Helvetica,sans-Serif" font-size="10.00">+ GetHorizontalKeys()</text>
<text text-anchor="start" x="463.5" y="-496.5" font-family="Helvetica,sans-Serif" font-size="10.00">+ GetVerticalKeys()</text>
</a>
</g>
</g>
<!-- Node11&#45;&gt;Node1 -->
<g id="edge11" class="edge">
<title>Node11&#45;&gt;Node1</title>
<path fill="none" stroke="#404040" d="M504.1,-489.22C503.2,-483.06 502.33,-476.94 501.5,-471 487.05,-367.61 472.09,-248.63 462.35,-169.22"/>
<polygon fill="none" stroke="#404040" points="462.29,-168.74 457.59,-163.27 460.83,-156.83 465.53,-162.3 462.29,-168.74"/>
<text text-anchor="middle" x="520" y="-335" font-family="Helvetica,sans-Serif" font-size="10.00"> &#45;_input</text>
</g>
<!-- Node12&#45;&gt;Node11 -->
<g id="edge12" class="edge">
<title>Node12&#45;&gt;Node11</title>
<path fill="none" stroke="#404040" d="M518.5,-967.28C518.5,-888.91 518.5,-774.21 518.5,-690.91"/>
<polygon fill="none" stroke="#404040" points="518.5,-690.85 514.5,-684.85 518.5,-678.85 522.5,-684.85 518.5,-690.85"/>
<text text-anchor="middle" x="558" y="-941" font-family="Helvetica,sans-Serif" font-size="10.00"> &#45;_verticalAxis</text>
<text text-anchor="middle" x="558" y="-930" font-family="Helvetica,sans-Serif" font-size="10.00">&#45;_horizontalAxis</text>
</g>
<!-- Node13 -->
<g id="node13" class="node">
<title>Node13</title>
<g id="a_node13"><a xlink:href="classECS_1_1Entity.html" target="_top" xlink:title="Scene object containing components and an ID.">
<polygon fill="white" stroke="black" points="547.5,-248.5 547.5,-426.5 661.5,-426.5 661.5,-248.5 547.5,-248.5"/>
<text text-anchor="middle" x="604.5" y="-414.5" font-family="Helvetica,sans-Serif" font-size="10.00">ECS::Entity</text>
<polyline fill="none" stroke="black" points="547.5,-407.5 661.5,-407.5 "/>
<text text-anchor="start" x="555.5" y="-395.5" font-family="Helvetica,sans-Serif" font-size="10.00">&#45; _id</text>
<text text-anchor="start" x="555.5" y="-384.5" font-family="Helvetica,sans-Serif" font-size="10.00">&#45; _tag</text>
<polyline fill="none" stroke="black" points="547.5,-377.5 661.5,-377.5 "/>
<text text-anchor="start" x="555.5" y="-365.5" font-family="Helvetica,sans-Serif" font-size="10.00">+ Entity()</text>
<text text-anchor="start" x="555.5" y="-354.5" font-family="Helvetica,sans-Serif" font-size="10.00">+ Entity()</text>
<text text-anchor="start" x="555.5" y="-343.5" font-family="Helvetica,sans-Serif" font-size="10.00">+ ~Entity()</text>
<text text-anchor="start" x="555.5" y="-332.5" font-family="Helvetica,sans-Serif" font-size="10.00">+ Entity()</text>
<text text-anchor="start" x="555.5" y="-321.5" font-family="Helvetica,sans-Serif" font-size="10.00">+ operator=()</text>
<text text-anchor="start" x="555.5" y="-310.5" font-family="Helvetica,sans-Serif" font-size="10.00">+ GetComponent()</text>
<text text-anchor="start" x="555.5" y="-299.5" font-family="Helvetica,sans-Serif" font-size="10.00">+ OfType()</text>
<text text-anchor="start" x="555.5" y="-288.5" font-family="Helvetica,sans-Serif" font-size="10.00">+ GetComponents()</text>
<text text-anchor="start" x="555.5" y="-277.5" font-family="Helvetica,sans-Serif" font-size="10.00">+ AddComponent()</text>
<text text-anchor="start" x="555.5" y="-266.5" font-family="Helvetica,sans-Serif" font-size="10.00">+ AddComponent()</text>
<text text-anchor="start" x="555.5" y="-255.5" font-family="Helvetica,sans-Serif" font-size="10.00">and 9 more...</text>
</a>
</g>
</g>
<!-- Node13&#45;&gt;Node1 -->
<g id="edge14" class="edge">
<title>Node13&#45;&gt;Node1</title>
<path fill="none" stroke="#404040" d="M552.06,-248.41C536.4,-222.12 519.25,-193.31 503.62,-167.04"/>
<polygon fill="none" stroke="#404040" points="503.62,-167.04 497.11,-163.93 497.48,-156.73 503.99,-159.84 503.62,-167.04"/>
<text text-anchor="middle" x="534" y="-178" font-family="Helvetica,sans-Serif" font-size="10.00"> &#45;_entity</text>
</g>
<!-- Node14 -->
<g id="node14" class="node">
<title>Node14</title>
<g id="a_node14"><a xlink:href="classECS_1_1EntityManager.html" target="_top" xlink:title="Class used to manipulate Entities (a.k.a A Scene)">
<polygon fill="white" stroke="black" points="547,-730.5 547,-875.5 662,-875.5 662,-730.5 547,-730.5"/>
<text text-anchor="middle" x="604.5" y="-863.5" font-family="Helvetica,sans-Serif" font-size="10.00">ECS::EntityManager</text>
<polyline fill="none" stroke="black" points="547,-856.5 662,-856.5 "/>
<text text-anchor="start" x="555" y="-844.5" font-family="Helvetica,sans-Serif" font-size="10.00">&#45; _available</text>
<text text-anchor="start" x="555" y="-833.5" font-family="Helvetica,sans-Serif" font-size="10.00">&#45; _max</text>
<text text-anchor="start" x="555" y="-822.5" font-family="Helvetica,sans-Serif" font-size="10.00">&#45; _entities</text>
<polyline fill="none" stroke="black" points="547,-815.5 662,-815.5 "/>
<text text-anchor="start" x="555" y="-803.5" font-family="Helvetica,sans-Serif" font-size="10.00">+ EntityManager()</text>
<text text-anchor="start" x="555" y="-792.5" font-family="Helvetica,sans-Serif" font-size="10.00">+ ~EntityManager()</text>
<text text-anchor="start" x="555" y="-781.5" font-family="Helvetica,sans-Serif" font-size="10.00">+ EntityManager()</text>
<text text-anchor="start" x="555" y="-770.5" font-family="Helvetica,sans-Serif" font-size="10.00">+ operator=()</text>
<text text-anchor="start" x="555" y="-759.5" font-family="Helvetica,sans-Serif" font-size="10.00">+ CreateEntity()</text>
<text text-anchor="start" x="555" y="-748.5" font-family="Helvetica,sans-Serif" font-size="10.00">+ DeleteEntity()</text>
<text text-anchor="start" x="555" y="-737.5" font-family="Helvetica,sans-Serif" font-size="10.00">+ GetEntities()</text>
</a>
</g>
</g>
<!-- Node14&#45;&gt;Node13 -->
<g id="edge15" class="edge">
<title>Node14&#45;&gt;Node13</title>
<path fill="none" stroke="#404040" d="M604.5,-730.34C604.5,-652.19 604.5,-526.56 604.5,-438.67"/>
<polygon fill="none" stroke="#404040" points="604.5,-438.53 600.5,-432.53 604.5,-426.53 608.5,-432.53 604.5,-438.53"/>
<text text-anchor="middle" x="646.5" y="-581.5" font-family="Helvetica,sans-Serif" font-size="10.00"> &#45;_entityManager</text>
</g>
<!-- Node15 -->
<g id="node15" class="node">
<title>Node15</title>
<g id="a_node15"><a xlink:href="classECS_1_1ComponentManager.html" target="_top" xlink:title="Class used to manipulate Components.">
<polygon fill="white" stroke="black" points="680,-697.5 680,-908.5 831,-908.5 831,-697.5 680,-697.5"/>
<text text-anchor="middle" x="755.5" y="-896.5" font-family="Helvetica,sans-Serif" font-size="10.00">ECS::ComponentManager</text>
<polyline fill="none" stroke="black" points="680,-889.5 831,-889.5 "/>
<text text-anchor="start" x="688" y="-877.5" font-family="Helvetica,sans-Serif" font-size="10.00">&#45; _bases</text>
<text text-anchor="start" x="688" y="-866.5" font-family="Helvetica,sans-Serif" font-size="10.00">&#45; _components</text>
<polyline fill="none" stroke="black" points="680,-859.5 831,-859.5 "/>
<text text-anchor="start" x="688" y="-847.5" font-family="Helvetica,sans-Serif" font-size="10.00">+ ComponentManager()</text>
<text text-anchor="start" x="688" y="-836.5" font-family="Helvetica,sans-Serif" font-size="10.00">+ ~ComponentManager()</text>
<text text-anchor="start" x="688" y="-825.5" font-family="Helvetica,sans-Serif" font-size="10.00">+ ComponentManager()</text>
<text text-anchor="start" x="688" y="-814.5" font-family="Helvetica,sans-Serif" font-size="10.00">+ operator=()</text>
<text text-anchor="start" x="688" y="-803.5" font-family="Helvetica,sans-Serif" font-size="10.00">+ GetComponent()</text>
<text text-anchor="start" x="688" y="-792.5" font-family="Helvetica,sans-Serif" font-size="10.00">+ OfType()</text>
<text text-anchor="start" x="688" y="-781.5" font-family="Helvetica,sans-Serif" font-size="10.00">+ GetComponents()</text>
<text text-anchor="start" x="688" y="-770.5" font-family="Helvetica,sans-Serif" font-size="10.00">+ AddComponent()</text>
<text text-anchor="start" x="688" y="-759.5" font-family="Helvetica,sans-Serif" font-size="10.00">+ AddComponent()</text>
<text text-anchor="start" x="688" y="-748.5" font-family="Helvetica,sans-Serif" font-size="10.00">+ RemoveComponent()</text>
<text text-anchor="start" x="688" y="-737.5" font-family="Helvetica,sans-Serif" font-size="10.00">+ HasComponent()</text>
<text text-anchor="start" x="688" y="-726.5" font-family="Helvetica,sans-Serif" font-size="10.00">+ HasComponent()</text>
<text text-anchor="start" x="688" y="-715.5" font-family="Helvetica,sans-Serif" font-size="10.00">+ HasComponents()</text>
<text text-anchor="start" x="688" y="-704.5" font-family="Helvetica,sans-Serif" font-size="10.00">+ GetComponentByName()</text>
</a>
</g>
</g>
<!-- Node15&#45;&gt;Node13 -->
<g id="edge16" class="edge">
<title>Node15&#45;&gt;Node13</title>
<path fill="none" stroke="#404040" d="M743.27,-697.39C733.87,-635.39 718.05,-556.08 692.5,-489 685.72,-471.2 676.96,-453.05 667.59,-435.81"/>
<polygon fill="none" stroke="#404040" points="667.52,-435.69 661.11,-432.39 661.7,-425.2 668.11,-428.5 667.52,-435.69"/>
<text text-anchor="middle" x="793.5" y="-581.5" font-family="Helvetica,sans-Serif" font-size="10.00"> &#45;_componentManager</text>
</g>
</g>
</svg>
