<?xml version="1.0" encoding="UTF-8" standalone="no"?>
<!DOCTYPE svg PUBLIC "-//W3C//DTD SVG 1.1//EN"
 "http://www.w3.org/Graphics/SVG/1.1/DTD/svg11.dtd">
<!-- Generated by graphviz version 2.43.0 (0)
 -->
<!-- Title: RayLib::IAsset Pages: 1 -->
<svg width="900pt" height="540pt"
 viewBox="0.00 0.00 899.50 540.00" xmlns="http://www.w3.org/2000/svg" xmlns:xlink="http://www.w3.org/1999/xlink">
<g id="graph0" class="graph" transform="scale(1 1) rotate(0) translate(4 536)">
<title>RayLib::IAsset</title>
<polygon fill="white" stroke="transparent" points="-4,4 -4,-536 895.5,-536 895.5,4 -4,4"/>
<!-- Node1 -->
<g id="node1" class="node">
<title>Node1</title>
<g id="a_node1"><a xlink:title=" ">
<polygon fill="#bfbfbf" stroke="black" points="391,-441.5 391,-531.5 477,-531.5 477,-441.5 391,-441.5"/>
<text text-anchor="middle" x="434" y="-519.5" font-family="Helvetica,sans-Serif" font-size="10.00">RayLib::IAsset</text>
<polyline fill="none" stroke="black" points="391,-512.5 477,-512.5 "/>
<text text-anchor="middle" x="434" y="-500.5" font-family="Helvetica,sans-Serif" font-size="10.00"> </text>
<polyline fill="none" stroke="black" points="391,-493.5 477,-493.5 "/>
<text text-anchor="start" x="399" y="-481.5" font-family="Helvetica,sans-Serif" font-size="10.00">+ IAsset()</text>
<text text-anchor="start" x="399" y="-470.5" font-family="Helvetica,sans-Serif" font-size="10.00">+ ~IAsset()</text>
<text text-anchor="start" x="399" y="-459.5" font-family="Helvetica,sans-Serif" font-size="10.00">+ IAsset()</text>
<text text-anchor="start" x="399" y="-448.5" font-family="Helvetica,sans-Serif" font-size="10.00">+ operator=()</text>
</a>
</g>
</g>
<!-- Node2 -->
<g id="node2" class="node">
<title>Node2</title>
<g id="a_node2"><a xlink:href="classRayLib_1_1Font.html" target="_top" xlink:title="Font encapsulation.">
<polygon fill="white" stroke="black" points="0,-248.5 0,-382.5 98,-382.5 98,-248.5 0,-248.5"/>
<text text-anchor="middle" x="49" y="-370.5" font-family="Helvetica,sans-Serif" font-size="10.00">RayLib::Font</text>
<polyline fill="none" stroke="black" points="0,-363.5 98,-363.5 "/>
<text text-anchor="start" x="8" y="-351.5" font-family="Helvetica,sans-Serif" font-size="10.00">+ font</text>
<polyline fill="none" stroke="black" points="0,-344.5 98,-344.5 "/>
<text text-anchor="start" x="8" y="-332.5" font-family="Helvetica,sans-Serif" font-size="10.00">+ Font()</text>
<text text-anchor="start" x="8" y="-321.5" font-family="Helvetica,sans-Serif" font-size="10.00">+ Font()</text>
<text text-anchor="start" x="8" y="-310.5" font-family="Helvetica,sans-Serif" font-size="10.00">+ Font()</text>
<text text-anchor="start" x="8" y="-299.5" font-family="Helvetica,sans-Serif" font-size="10.00">+ Font()</text>
<text text-anchor="start" x="8" y="-288.5" font-family="Helvetica,sans-Serif" font-size="10.00">+ operator=()</text>
<text text-anchor="start" x="8" y="-277.5" font-family="Helvetica,sans-Serif" font-size="10.00">+ DrawText()</text>
<text text-anchor="start" x="8" y="-266.5" font-family="Helvetica,sans-Serif" font-size="10.00">+ MeasureText()</text>
<text text-anchor="start" x="8" y="-255.5" font-family="Helvetica,sans-Serif" font-size="10.00">+ ~Font()</text>
</a>
</g>
</g>
<!-- Node1&#45;&gt;Node2 -->
<g id="edge1" class="edge">
<title>Node1&#45;&gt;Node2</title>
<path fill="none" stroke="midnightblue" d="M380.76,-484.13C311.68,-479.9 190.18,-463.88 107,-405 98.45,-398.95 90.84,-391.21 84.16,-382.82"/>
<polygon fill="none" stroke="midnightblue" points="380.79,-487.63 390.97,-484.69 381.18,-480.65 380.79,-487.63"/>
</g>
<!-- Node3 -->
<g id="node3" class="node">
<title>Node3</title>
<g id="a_node3"><a xlink:href="classRayLib_1_1Mesh.html" target="_top" xlink:title="Mesh encapsulation.">
<polygon fill="white" stroke="black" points="116,-237.5 116,-393.5 202,-393.5 202,-237.5 116,-237.5"/>
<text text-anchor="middle" x="159" y="-381.5" font-family="Helvetica,sans-Serif" font-size="10.00">RayLib::Mesh</text>
<polyline fill="none" stroke="black" points="116,-374.5 202,-374.5 "/>
<text text-anchor="start" x="124" y="-362.5" font-family="Helvetica,sans-Serif" font-size="10.00">&#45; _mesh</text>
<text text-anchor="start" x="124" y="-351.5" font-family="Helvetica,sans-Serif" font-size="10.00">&#45; _loaded</text>
<polyline fill="none" stroke="black" points="116,-344.5 202,-344.5 "/>
<text text-anchor="start" x="124" y="-332.5" font-family="Helvetica,sans-Serif" font-size="10.00">+ Mesh()</text>
<text text-anchor="start" x="124" y="-321.5" font-family="Helvetica,sans-Serif" font-size="10.00">+ Mesh()</text>
<text text-anchor="start" x="124" y="-310.5" font-family="Helvetica,sans-Serif" font-size="10.00">+ Mesh()</text>
<text text-anchor="start" x="124" y="-299.5" font-family="Helvetica,sans-Serif" font-size="10.00">+ Mesh()</text>
<text text-anchor="start" x="124" y="-288.5" font-family="Helvetica,sans-Serif" font-size="10.00">+ Mesh()</text>
<text text-anchor="start" x="124" y="-277.5" font-family="Helvetica,sans-Serif" font-size="10.00">+ Mesh()</text>
<text text-anchor="start" x="124" y="-266.5" font-family="Helvetica,sans-Serif" font-size="10.00">+ ~Mesh()</text>
<text text-anchor="start" x="124" y="-255.5" font-family="Helvetica,sans-Serif" font-size="10.00">+ GetMesh()</text>
<text text-anchor="start" x="124" y="-244.5" font-family="Helvetica,sans-Serif" font-size="10.00">+ SetLoaded()</text>
</a>
</g>
</g>
<!-- Node1&#45;&gt;Node3 -->
<g id="edge2" class="edge">
<title>Node1&#45;&gt;Node3</title>
<path fill="none" stroke="midnightblue" d="M380.59,-476.92C331.89,-466.79 260.22,-445.87 211,-405 206.89,-401.58 203.02,-397.75 199.41,-393.65"/>
<polygon fill="none" stroke="midnightblue" points="380.13,-480.39 390.62,-478.92 381.5,-473.53 380.13,-480.39"/>
</g>
<!-- Node4 -->
<g id="node4" class="node">
<title>Node4</title>
<g id="a_node4"><a xlink:href="classRayLib_1_1Model.html" target="_top" xlink:title="Model encapsulation.">
<polygon fill="white" stroke="black" points="220,-226.5 220,-404.5 348,-404.5 348,-226.5 220,-226.5"/>
<text text-anchor="middle" x="284" y="-392.5" font-family="Helvetica,sans-Serif" font-size="10.00">RayLib::Model</text>
<polyline fill="none" stroke="black" points="220,-385.5 348,-385.5 "/>
<text text-anchor="start" x="228" y="-373.5" font-family="Helvetica,sans-Serif" font-size="10.00">&#45; _model</text>
<text text-anchor="start" x="228" y="-362.5" font-family="Helvetica,sans-Serif" font-size="10.00">&#45; _fileName</text>
<polyline fill="none" stroke="black" points="220,-355.5 348,-355.5 "/>
<text text-anchor="start" x="228" y="-343.5" font-family="Helvetica,sans-Serif" font-size="10.00">+ Model()</text>
<text text-anchor="start" x="228" y="-332.5" font-family="Helvetica,sans-Serif" font-size="10.00">+ Model()</text>
<text text-anchor="start" x="228" y="-321.5" font-family="Helvetica,sans-Serif" font-size="10.00">+ Model()</text>
<text text-anchor="start" x="228" y="-310.5" font-family="Helvetica,sans-Serif" font-size="10.00">+ ~Model()</text>
<text text-anchor="start" x="228" y="-299.5" font-family="Helvetica,sans-Serif" font-size="10.00">+ Draw()</text>
<text text-anchor="start" x="228" y="-288.5" font-family="Helvetica,sans-Serif" font-size="10.00">+ DrawEx()</text>
<text text-anchor="start" x="228" y="-277.5" font-family="Helvetica,sans-Serif" font-size="10.00">+ SetMaterialTexture()</text>
<text text-anchor="start" x="228" y="-266.5" font-family="Helvetica,sans-Serif" font-size="10.00">+ SetMaterialShader()</text>
<text text-anchor="start" x="228" y="-255.5" font-family="Helvetica,sans-Serif" font-size="10.00">+ GetModel()</text>
<text text-anchor="start" x="228" y="-244.5" font-family="Helvetica,sans-Serif" font-size="10.00">+ GetFileName()</text>
<text text-anchor="start" x="228" y="-233.5" font-family="Helvetica,sans-Serif" font-size="10.00">+ RotateModel()</text>
</a>
</g>
</g>
<!-- Node1&#45;&gt;Node4 -->
<g id="edge3" class="edge">
<title>Node1&#45;&gt;Node4</title>
<path fill="none" stroke="midnightblue" d="M383.52,-433.84C374.56,-424.36 365.41,-414.47 357,-405 354.09,-401.72 351.14,-398.36 348.18,-394.94"/>
<polygon fill="none" stroke="midnightblue" points="381.22,-436.5 390.64,-441.34 386.29,-431.68 381.22,-436.5"/>
</g>
<!-- Node5 -->
<g id="node5" class="node">
<title>Node5</title>
<g id="a_node5"><a xlink:href="classRayLib_1_1ModelAnimation.html" target="_top" xlink:title="Encapsulation for ModelAnimation struct.">
<polygon fill="white" stroke="black" points="366,-254 366,-377 502,-377 502,-254 366,-254"/>
<text text-anchor="middle" x="434" y="-365" font-family="Helvetica,sans-Serif" font-size="10.00">RayLib::ModelAnimation</text>
<polyline fill="none" stroke="black" points="366,-358 502,-358 "/>
<text text-anchor="start" x="374" y="-346" font-family="Helvetica,sans-Serif" font-size="10.00">&#45; _modelAnimations</text>
<text text-anchor="start" x="374" y="-335" font-family="Helvetica,sans-Serif" font-size="10.00">&#45; _animsCount</text>
<text text-anchor="start" x="374" y="-324" font-family="Helvetica,sans-Serif" font-size="10.00">&#45; _frame</text>
<polyline fill="none" stroke="black" points="366,-317 502,-317 "/>
<text text-anchor="start" x="374" y="-305" font-family="Helvetica,sans-Serif" font-size="10.00">+ ModelAnimation()</text>
<text text-anchor="start" x="374" y="-294" font-family="Helvetica,sans-Serif" font-size="10.00">+ ~ModelAnimation()</text>
<text text-anchor="start" x="374" y="-283" font-family="Helvetica,sans-Serif" font-size="10.00">+ ModelAnimation()</text>
<text text-anchor="start" x="374" y="-272" font-family="Helvetica,sans-Serif" font-size="10.00">+ operator=()</text>
<text text-anchor="start" x="374" y="-261" font-family="Helvetica,sans-Serif" font-size="10.00">+ Play()</text>
</a>
</g>
</g>
<!-- Node1&#45;&gt;Node5 -->
<g id="edge4" class="edge">
<title>Node1&#45;&gt;Node5</title>
<path fill="none" stroke="midnightblue" d="M434,-430.71C434,-413.6 434,-394.62 434,-377.12"/>
<polygon fill="none" stroke="midnightblue" points="430.5,-431.1 434,-441.1 437.5,-431.1 430.5,-431.1"/>
</g>
<!-- Node6 -->
<g id="node6" class="node">
<title>Node6</title>
<g id="a_node6"><a xlink:href="classRayLib_1_1Shader.html" target="_top" xlink:title="Shader Encapsulation of the raylib structure Shader.">
<polygon fill="white" stroke="black" points="520,-226.5 520,-404.5 614,-404.5 614,-226.5 520,-226.5"/>
<text text-anchor="middle" x="567" y="-392.5" font-family="Helvetica,sans-Serif" font-size="10.00">RayLib::Shader</text>
<polyline fill="none" stroke="black" points="520,-385.5 614,-385.5 "/>
<text text-anchor="start" x="528" y="-373.5" font-family="Helvetica,sans-Serif" font-size="10.00"># _shader</text>
<polyline fill="none" stroke="black" points="520,-366.5 614,-366.5 "/>
<text text-anchor="start" x="528" y="-354.5" font-family="Helvetica,sans-Serif" font-size="10.00">+ Shader()</text>
<text text-anchor="start" x="528" y="-343.5" font-family="Helvetica,sans-Serif" font-size="10.00">+ Shader()</text>
<text text-anchor="start" x="528" y="-332.5" font-family="Helvetica,sans-Serif" font-size="10.00">+ Shader()</text>
<text text-anchor="start" x="528" y="-321.5" font-family="Helvetica,sans-Serif" font-size="10.00">+ Shader()</text>
<text text-anchor="start" x="528" y="-310.5" font-family="Helvetica,sans-Serif" font-size="10.00">+ ~Shader()</text>
<text text-anchor="start" x="528" y="-299.5" font-family="Helvetica,sans-Serif" font-size="10.00">+ GetShader()</text>
<text text-anchor="start" x="528" y="-288.5" font-family="Helvetica,sans-Serif" font-size="10.00">+ GetLocation()</text>
<text text-anchor="start" x="528" y="-277.5" font-family="Helvetica,sans-Serif" font-size="10.00">+ SetValue()</text>
<text text-anchor="start" x="528" y="-266.5" font-family="Helvetica,sans-Serif" font-size="10.00">+ SetLoc()</text>
<text text-anchor="start" x="528" y="-255.5" font-family="Helvetica,sans-Serif" font-size="10.00">+ Unload()</text>
<text text-anchor="start" x="528" y="-244.5" font-family="Helvetica,sans-Serif" font-size="10.00">+ BeginMode()</text>
<text text-anchor="start" x="528" y="-233.5" font-family="Helvetica,sans-Serif" font-size="10.00">+ EndMode()</text>
</a>
</g>
</g>
<!-- Node1&#45;&gt;Node6 -->
<g id="edge5" class="edge">
<title>Node1&#45;&gt;Node6</title>
<path fill="none" stroke="midnightblue" d="M484.27,-436.01C493.52,-426.06 502.84,-415.44 511,-405 514.02,-401.13 517.03,-397.1 520,-392.97"/>
<polygon fill="none" stroke="midnightblue" points="481.53,-433.81 477.21,-443.48 486.62,-438.61 481.53,-433.81"/>
</g>
<!-- Node9 -->
<g id="node9" class="node">
<title>Node9</title>
<g id="a_node9"><a xlink:href="classRayLib_1_1Sound.html" target="_top" xlink:title=" ">
<polygon fill="white" stroke="black" points="632,-232 632,-399 742,-399 742,-232 632,-232"/>
<text text-anchor="middle" x="687" y="-387" font-family="Helvetica,sans-Serif" font-size="10.00">RayLib::Sound</text>
<polyline fill="none" stroke="black" points="632,-380 742,-380 "/>
<text text-anchor="start" x="640" y="-368" font-family="Helvetica,sans-Serif" font-size="10.00">&#45; _sound</text>
<text text-anchor="start" x="640" y="-357" font-family="Helvetica,sans-Serif" font-size="10.00">&#45; _pitch</text>
<text text-anchor="start" x="640" y="-346" font-family="Helvetica,sans-Serif" font-size="10.00">&#45; _volume</text>
<polyline fill="none" stroke="black" points="632,-339 742,-339 "/>
<text text-anchor="start" x="640" y="-327" font-family="Helvetica,sans-Serif" font-size="10.00">+ Sound()</text>
<text text-anchor="start" x="640" y="-316" font-family="Helvetica,sans-Serif" font-size="10.00">+ Sound()</text>
<text text-anchor="start" x="640" y="-305" font-family="Helvetica,sans-Serif" font-size="10.00">+ operator=()</text>
<text text-anchor="start" x="640" y="-294" font-family="Helvetica,sans-Serif" font-size="10.00">+ ~Sound()</text>
<text text-anchor="start" x="640" y="-283" font-family="Helvetica,sans-Serif" font-size="10.00">+ Play()</text>
<text text-anchor="start" x="640" y="-272" font-family="Helvetica,sans-Serif" font-size="10.00">+ SetVolume()</text>
<text text-anchor="start" x="640" y="-261" font-family="Helvetica,sans-Serif" font-size="10.00">+ SetPitch()</text>
<text text-anchor="start" x="640" y="-250" font-family="Helvetica,sans-Serif" font-size="10.00">+ GetSound()</text>
<text text-anchor="start" x="640" y="-239" font-family="Helvetica,sans-Serif" font-size="10.00">+ ISSoundPlaying()</text>
</a>
</g>
</g>
<!-- Node1&#45;&gt;Node9 -->
<g id="edge8" class="edge">
<title>Node1&#45;&gt;Node9</title>
<path fill="none" stroke="midnightblue" d="M486.96,-471.43C527.29,-458.82 582.57,-437.27 623,-405 625.96,-402.63 628.86,-400.1 631.67,-397.43"/>
<polygon fill="none" stroke="midnightblue" points="485.85,-468.11 477.3,-474.37 487.89,-474.8 485.85,-468.11"/>
</g>
<!-- Node10 -->
<g id="node10" class="node">
<title>Node10</title>
<g id="a_node10"><a xlink:href="classRayLib_1_1Texture.html" target="_top" xlink:title="Texture encapsulation.">
<polygon fill="white" stroke="black" points="760.5,-232 760.5,-399 891.5,-399 891.5,-232 760.5,-232"/>
<text text-anchor="middle" x="826" y="-387" font-family="Helvetica,sans-Serif" font-size="10.00">RayLib::Texture</text>
<polyline fill="none" stroke="black" points="760.5,-380 891.5,-380 "/>
<text text-anchor="start" x="768.5" y="-368" font-family="Helvetica,sans-Serif" font-size="10.00">&#45; _texture</text>
<text text-anchor="start" x="768.5" y="-357" font-family="Helvetica,sans-Serif" font-size="10.00">&#45; _fileName</text>
<polyline fill="none" stroke="black" points="760.5,-350 891.5,-350 "/>
<text text-anchor="start" x="768.5" y="-338" font-family="Helvetica,sans-Serif" font-size="10.00">+ ~Texture()</text>
<text text-anchor="start" x="768.5" y="-327" font-family="Helvetica,sans-Serif" font-size="10.00">+ Texture()</text>
<text text-anchor="start" x="768.5" y="-316" font-family="Helvetica,sans-Serif" font-size="10.00">+ Texture()</text>
<text text-anchor="start" x="768.5" y="-305" font-family="Helvetica,sans-Serif" font-size="10.00">+ DrawTexture()</text>
<text text-anchor="start" x="768.5" y="-294" font-family="Helvetica,sans-Serif" font-size="10.00">+ DrawTextureEx()</text>
<text text-anchor="start" x="768.5" y="-283" font-family="Helvetica,sans-Serif" font-size="10.00">+ DrawTextureRec()</text>
<text text-anchor="start" x="768.5" y="-272" font-family="Helvetica,sans-Serif" font-size="10.00">+ DrawBillboard()</text>
<text text-anchor="start" x="768.5" y="-261" font-family="Helvetica,sans-Serif" font-size="10.00">+ DrawTextureNPatch()</text>
<text text-anchor="start" x="768.5" y="-250" font-family="Helvetica,sans-Serif" font-size="10.00">+ GetTexture()</text>
<text text-anchor="start" x="768.5" y="-239" font-family="Helvetica,sans-Serif" font-size="10.00">+ GetFileName()</text>
</a>
</g>
</g>
<!-- Node1&#45;&gt;Node10 -->
<g id="edge9" class="edge">
<title>Node1&#45;&gt;Node10</title>
<path fill="none" stroke="midnightblue" d="M487.46,-481.87C553.79,-475.25 668.25,-456.67 751,-405 754.07,-403.08 757.09,-400.99 760.03,-398.77"/>
<polygon fill="none" stroke="midnightblue" points="486.86,-478.41 477.24,-482.84 487.52,-485.38 486.86,-478.41"/>
</g>
<!-- Node7 -->
<g id="node7" class="node">
<title>Node7</title>
<g id="a_node7"><a xlink:href="classAmbientShader.html" target="_top" xlink:title=" ">
<polygon fill="white" stroke="black" points="442.5,-61 442.5,-129 561.5,-129 561.5,-61 442.5,-61"/>
<text text-anchor="middle" x="502" y="-117" font-family="Helvetica,sans-Serif" font-size="10.00">AmbientShader</text>
<polyline fill="none" stroke="black" points="442.5,-110 561.5,-110 "/>
<text text-anchor="middle" x="502" y="-98" font-family="Helvetica,sans-Serif" font-size="10.00"> </text>
<polyline fill="none" stroke="black" points="442.5,-91 561.5,-91 "/>
<text text-anchor="start" x="450.5" y="-79" font-family="Helvetica,sans-Serif" font-size="10.00">+ AmbientShader()</text>
<text text-anchor="start" x="450.5" y="-68" font-family="Helvetica,sans-Serif" font-size="10.00">+ ~AmbientShader()</text>
</a>
</g>
</g>
<!-- Node6&#45;&gt;Node7 -->
<g id="edge6" class="edge">
<title>Node6&#45;&gt;Node7</title>
<path fill="none" stroke="midnightblue" d="M537.87,-216.57C528.53,-185.17 518.81,-152.52 511.85,-129.13"/>
<polygon fill="none" stroke="midnightblue" points="534.54,-217.67 540.75,-226.26 541.25,-215.67 534.54,-217.67"/>
</g>
<!-- Node8 -->
<g id="node8" class="node">
<title>Node8</title>
<g id="a_node8"><a xlink:href="classBasicLight.html" target="_top" xlink:title=" ">
<polygon fill="white" stroke="black" points="579.5,-0.5 579.5,-189.5 682.5,-189.5 682.5,-0.5 579.5,-0.5"/>
<text text-anchor="middle" x="631" y="-177.5" font-family="Helvetica,sans-Serif" font-size="10.00">BasicLight</text>
<polyline fill="none" stroke="black" points="579.5,-170.5 682.5,-170.5 "/>
<text text-anchor="start" x="587.5" y="-158.5" font-family="Helvetica,sans-Serif" font-size="10.00">&#45; _type</text>
<text text-anchor="start" x="587.5" y="-147.5" font-family="Helvetica,sans-Serif" font-size="10.00">&#45; _position</text>
<text text-anchor="start" x="587.5" y="-136.5" font-family="Helvetica,sans-Serif" font-size="10.00">&#45; _target</text>
<text text-anchor="start" x="587.5" y="-125.5" font-family="Helvetica,sans-Serif" font-size="10.00">&#45; _color</text>
<text text-anchor="start" x="587.5" y="-114.5" font-family="Helvetica,sans-Serif" font-size="10.00">&#45; _typeLoc</text>
<text text-anchor="start" x="587.5" y="-103.5" font-family="Helvetica,sans-Serif" font-size="10.00">&#45; _posLoc</text>
<text text-anchor="start" x="587.5" y="-92.5" font-family="Helvetica,sans-Serif" font-size="10.00">&#45; _targetLoc</text>
<text text-anchor="start" x="587.5" y="-81.5" font-family="Helvetica,sans-Serif" font-size="10.00">&#45; _colorLoc</text>
<polyline fill="none" stroke="black" points="579.5,-74.5 682.5,-74.5 "/>
<text text-anchor="start" x="587.5" y="-62.5" font-family="Helvetica,sans-Serif" font-size="10.00">+ BasicLight()</text>
<text text-anchor="start" x="587.5" y="-51.5" font-family="Helvetica,sans-Serif" font-size="10.00">+ ~BasicLight()</text>
<text text-anchor="start" x="587.5" y="-40.5" font-family="Helvetica,sans-Serif" font-size="10.00">+ BasicLight()</text>
<text text-anchor="start" x="587.5" y="-29.5" font-family="Helvetica,sans-Serif" font-size="10.00">+ operator=()</text>
<text text-anchor="start" x="587.5" y="-18.5" font-family="Helvetica,sans-Serif" font-size="10.00">+ UpdateValues()</text>
<text text-anchor="start" x="587.5" y="-7.5" font-family="Helvetica,sans-Serif" font-size="10.00">+ GetPosition()</text>
</a>
</g>
</g>
<!-- Node6&#45;&gt;Node8 -->
<g id="edge7" class="edge">
<title>Node6&#45;&gt;Node8</title>
<path fill="none" stroke="midnightblue" d="M595.69,-216.57C598.32,-207.59 600.98,-198.51 603.59,-189.57"/>
<polygon fill="none" stroke="midnightblue" points="592.3,-215.68 592.85,-226.26 599.02,-217.64 592.3,-215.68"/>
</g>
</g>
</svg>
