<?xml version="1.0" encoding="UTF-8" standalone="no"?>
<!DOCTYPE svg PUBLIC "-//W3C//DTD SVG 1.1//EN"
 "http://www.w3.org/Graphics/SVG/1.1/DTD/svg11.dtd">
<!-- Generated by graphviz version 2.43.0 (0)
 -->
<!-- Title: RayLib::Camera3D Pages: 1 -->
<svg width="199pt" height="198pt"
 viewBox="0.00 0.00 199.00 198.00" xmlns="http://www.w3.org/2000/svg" xmlns:xlink="http://www.w3.org/1999/xlink">
<g id="graph0" class="graph" transform="scale(1 1) rotate(0) translate(4 194)">
<title>RayLib::Camera3D</title>
<polygon fill="white" stroke="transparent" points="-4,4 -4,-194 195,-194 195,4 -4,4"/>
<!-- Node1 -->
<g id="node1" class="node">
<title>Node1</title>
<g id="a_node1"><a xlink:title="Camera3D Encapsulation of the raylib structure Camera3D.">
<polygon fill="#bfbfbf" stroke="black" points="0,-0.5 0,-189.5 124,-189.5 124,-0.5 0,-0.5"/>
<text text-anchor="middle" x="62" y="-177.5" font-family="Helvetica,sans-Serif" font-size="10.00">RayLib::Camera3D</text>
<polyline fill="none" stroke="black" points="0,-170.5 124,-170.5 "/>
<text text-anchor="middle" x="62" y="-158.5" font-family="Helvetica,sans-Serif" font-size="10.00"> </text>
<polyline fill="none" stroke="black" points="0,-151.5 124,-151.5 "/>
<text text-anchor="start" x="8" y="-139.5" font-family="Helvetica,sans-Serif" font-size="10.00">+ Camera3D()</text>
<text text-anchor="start" x="8" y="-128.5" font-family="Helvetica,sans-Serif" font-size="10.00">+ ~Camera3D()</text>
<text text-anchor="start" x="8" y="-117.5" font-family="Helvetica,sans-Serif" font-size="10.00">+ SetCameraMode()</text>
<text text-anchor="start" x="8" y="-106.5" font-family="Helvetica,sans-Serif" font-size="10.00">+ BeginMode()</text>
<text text-anchor="start" x="8" y="-95.5" font-family="Helvetica,sans-Serif" font-size="10.00">+ EndMode()</text>
<text text-anchor="start" x="8" y="-84.5" font-family="Helvetica,sans-Serif" font-size="10.00">+ Update()</text>
<text text-anchor="start" x="8" y="-73.5" font-family="Helvetica,sans-Serif" font-size="10.00">+ GetMouseRay()</text>
<text text-anchor="start" x="8" y="-62.5" font-family="Helvetica,sans-Serif" font-size="10.00">+ GetCamera()</text>
<text text-anchor="start" x="8" y="-51.5" font-family="Helvetica,sans-Serif" font-size="10.00">+ SetPosition()</text>
<text text-anchor="start" x="8" y="-40.5" font-family="Helvetica,sans-Serif" font-size="10.00">+ GetPosition()</text>
<text text-anchor="start" x="8" y="-29.5" font-family="Helvetica,sans-Serif" font-size="10.00">+ GetTarget()</text>
<text text-anchor="start" x="8" y="-18.5" font-family="Helvetica,sans-Serif" font-size="10.00">+ SetTarget()</text>
<text text-anchor="start" x="8" y="-7.5" font-family="Helvetica,sans-Serif" font-size="10.00">+ GetWorldToScreen()</text>
</a>
</g>
</g>
<!-- Node1&#45;&gt;Node1 -->
<g id="edge1" class="edge">
<title>Node1&#45;&gt;Node1</title>
<path fill="none" stroke="#404040" d="M124.05,-128.26C134.66,-123.71 142,-112.63 142,-95 142,-83.71 138.99,-75.1 134.03,-69.18"/>
<polygon fill="none" stroke="#404040" points="133.68,-68.91 126.48,-68.54 124.05,-61.74 131.26,-62.12 133.68,-68.91"/>
<text text-anchor="middle" x="166.5" y="-92.5" font-family="Helvetica,sans-Serif" font-size="10.00"> &#45;_camera</text>
</g>
</g>
</svg>
