<?xml version="1.0" encoding="UTF-8" standalone="no"?>
<!DOCTYPE svg PUBLIC "-//W3C//DTD SVG 1.1//EN"
 "http://www.w3.org/Graphics/SVG/1.1/DTD/svg11.dtd">
<!-- Generated by graphviz version 2.43.0 (0)
 -->
<!-- Title: Component::PauseSystem Pages: 1 -->
<svg width="290pt" height="789pt"
 viewBox="0.00 0.00 290.00 789.00" xmlns="http://www.w3.org/2000/svg" xmlns:xlink="http://www.w3.org/1999/xlink">
<g id="graph0" class="graph" transform="scale(1 1) rotate(0) translate(4 785)">
<title>Component::PauseSystem</title>
<polygon fill="white" stroke="transparent" points="-4,4 -4,-785 286,-785 286,4 -4,4"/>
<!-- Node1 -->
<g id="node1" class="node">
<title>Node1</title>
<g id="a_node1"><a xlink:title=" ">
<polygon fill="#bfbfbf" stroke="black" points="32,-0.5 32,-123.5 176,-123.5 176,-0.5 32,-0.5"/>
<text text-anchor="middle" x="104" y="-111.5" font-family="Helvetica,sans-Serif" font-size="10.00">Component::PauseSystem</text>
<polyline fill="none" stroke="black" points="32,-104.5 176,-104.5 "/>
<text text-anchor="middle" x="104" y="-92.5" font-family="Helvetica,sans-Serif" font-size="10.00"> </text>
<polyline fill="none" stroke="black" points="32,-85.5 176,-85.5 "/>
<text text-anchor="start" x="40" y="-73.5" font-family="Helvetica,sans-Serif" font-size="10.00">+ PauseSystem()</text>
<text text-anchor="start" x="40" y="-62.5" font-family="Helvetica,sans-Serif" font-size="10.00">+ ~PauseSystem()</text>
<text text-anchor="start" x="40" y="-51.5" font-family="Helvetica,sans-Serif" font-size="10.00">+ PauseSystem()</text>
<text text-anchor="start" x="40" y="-40.5" font-family="Helvetica,sans-Serif" font-size="10.00">+ operator=()</text>
<text text-anchor="start" x="40" y="-29.5" font-family="Helvetica,sans-Serif" font-size="10.00">+ Update()</text>
<text text-anchor="start" x="40" y="-18.5" font-family="Helvetica,sans-Serif" font-size="10.00">+ FixedUpdate()</text>
<text text-anchor="start" x="40" y="-7.5" font-family="Helvetica,sans-Serif" font-size="10.00">+ LateUpdate()</text>
</a>
</g>
</g>
<!-- Node2 -->
<g id="node2" class="node">
<title>Node2</title>
<g id="a_node2"><a xlink:href="classECS_1_1ASystem.html" target="_top" xlink:title="Base Abstract class to create a new System.">
<polygon fill="white" stroke="black" points="0,-171.5 0,-393.5 122,-393.5 122,-171.5 0,-171.5"/>
<text text-anchor="middle" x="61" y="-381.5" font-family="Helvetica,sans-Serif" font-size="10.00">ECS::ASystem</text>
<polyline fill="none" stroke="black" points="0,-374.5 122,-374.5 "/>
<text text-anchor="start" x="8" y="-362.5" font-family="Helvetica,sans-Serif" font-size="10.00">&#45; _dependencies</text>
<text text-anchor="start" x="8" y="-351.5" font-family="Helvetica,sans-Serif" font-size="10.00">&#45; _enabled</text>
<polyline fill="none" stroke="black" points="0,-344.5 122,-344.5 "/>
<text text-anchor="start" x="8" y="-332.5" font-family="Helvetica,sans-Serif" font-size="10.00">+ ASystem()</text>
<text text-anchor="start" x="8" y="-321.5" font-family="Helvetica,sans-Serif" font-size="10.00">+ ASystem()</text>
<text text-anchor="start" x="8" y="-310.5" font-family="Helvetica,sans-Serif" font-size="10.00">+ ~ASystem()</text>
<text text-anchor="start" x="8" y="-299.5" font-family="Helvetica,sans-Serif" font-size="10.00">+ ASystem()</text>
<text text-anchor="start" x="8" y="-288.5" font-family="Helvetica,sans-Serif" font-size="10.00">+ operator=()</text>
<text text-anchor="start" x="8" y="-277.5" font-family="Helvetica,sans-Serif" font-size="10.00">+ Update()</text>
<text text-anchor="start" x="8" y="-266.5" font-family="Helvetica,sans-Serif" font-size="10.00">+ FixedUpdate()</text>
<text text-anchor="start" x="8" y="-255.5" font-family="Helvetica,sans-Serif" font-size="10.00">+ LateUpdate()</text>
<text text-anchor="start" x="8" y="-244.5" font-family="Helvetica,sans-Serif" font-size="10.00">+ OnDisable()</text>
<text text-anchor="start" x="8" y="-233.5" font-family="Helvetica,sans-Serif" font-size="10.00">+ OnEnable()</text>
<text text-anchor="start" x="8" y="-222.5" font-family="Helvetica,sans-Serif" font-size="10.00">+ GetDependencies()</text>
<text text-anchor="start" x="8" y="-211.5" font-family="Helvetica,sans-Serif" font-size="10.00">+ GetStatus()</text>
<text text-anchor="start" x="8" y="-200.5" font-family="Helvetica,sans-Serif" font-size="10.00">+ SetStatus()</text>
<text text-anchor="start" x="8" y="-189.5" font-family="Helvetica,sans-Serif" font-size="10.00">+ ToggleStatus()</text>
<text text-anchor="start" x="8" y="-178.5" font-family="Helvetica,sans-Serif" font-size="10.00"># AddDependency()</text>
</a>
</g>
</g>
<!-- Node2&#45;&gt;Node1 -->
<g id="edge1" class="edge">
<title>Node2&#45;&gt;Node1</title>
<path fill="none" stroke="midnightblue" d="M84.66,-161.29C87.22,-148.25 89.75,-135.41 92.08,-123.55"/>
<polygon fill="none" stroke="midnightblue" points="81.19,-160.8 82.69,-171.29 88.05,-162.15 81.19,-160.8"/>
</g>
<!-- Node3 -->
<g id="node3" class="node">
<title>Node3</title>
<g id="a_node3"><a xlink:href="classRayLib_1_1Input.html" target="_top" xlink:title="Input encapsulation.">
<polygon fill="white" stroke="black" points="140,-188 140,-377 266,-377 266,-188 140,-188"/>
<text text-anchor="middle" x="203" y="-365" font-family="Helvetica,sans-Serif" font-size="10.00">RayLib::Input</text>
<polyline fill="none" stroke="black" points="140,-358 266,-358 "/>
<text text-anchor="middle" x="203" y="-346" font-family="Helvetica,sans-Serif" font-size="10.00"> </text>
<polyline fill="none" stroke="black" points="140,-339 266,-339 "/>
<text text-anchor="start" x="148" y="-327" font-family="Helvetica,sans-Serif" font-size="10.00">+ Input()</text>
<text text-anchor="start" x="148" y="-316" font-family="Helvetica,sans-Serif" font-size="10.00">+ Input()</text>
<text text-anchor="start" x="148" y="-305" font-family="Helvetica,sans-Serif" font-size="10.00">+ ~Input()</text>
<text text-anchor="start" x="148" y="-294" font-family="Helvetica,sans-Serif" font-size="10.00">+ operator=()</text>
<text text-anchor="start" x="148" y="-283" font-family="Helvetica,sans-Serif" font-size="10.00">+ GetHorizontalAxis()</text>
<text text-anchor="start" x="148" y="-272" font-family="Helvetica,sans-Serif" font-size="10.00">+ GetVerticalAxis()</text>
<text text-anchor="start" x="148" y="-261" font-family="Helvetica,sans-Serif" font-size="10.00">+ GetKeyPressed()</text>
<text text-anchor="start" x="148" y="-250" font-family="Helvetica,sans-Serif" font-size="10.00">+ IsKeyDown()</text>
<text text-anchor="start" x="148" y="-239" font-family="Helvetica,sans-Serif" font-size="10.00">+ GetCharPressed()</text>
<text text-anchor="start" x="148" y="-228" font-family="Helvetica,sans-Serif" font-size="10.00">+ IsKeyPressed()</text>
<text text-anchor="start" x="148" y="-217" font-family="Helvetica,sans-Serif" font-size="10.00">+ IsKeyReleased()</text>
<text text-anchor="start" x="148" y="-206" font-family="Helvetica,sans-Serif" font-size="10.00">+ GetHorizontalKeys()</text>
<text text-anchor="start" x="148" y="-195" font-family="Helvetica,sans-Serif" font-size="10.00">+ GetVerticalKeys()</text>
</a>
</g>
</g>
<!-- Node3&#45;&gt;Node1 -->
<g id="edge2" class="edge">
<title>Node3&#45;&gt;Node1</title>
<path fill="none" stroke="#404040" d="M160.58,-187.89C152.49,-170.02 144.14,-151.59 136.42,-134.55"/>
<polygon fill="none" stroke="#404040" points="136.4,-134.51 130.28,-130.69 131.45,-123.58 137.57,-127.39 136.4,-134.51"/>
<text text-anchor="middle" x="162.5" y="-145" font-family="Helvetica,sans-Serif" font-size="10.00"> &#45;_input</text>
</g>
<!-- Node4 -->
<g id="node4" class="node">
<title>Node4</title>
<g id="a_node4"><a xlink:href="classRayLib_1_1Vector2.html" target="_top" xlink:title=" ">
<polygon fill="white" stroke="black" points="139,-452.5 139,-630.5 267,-630.5 267,-452.5 139,-452.5"/>
<text text-anchor="middle" x="203" y="-618.5" font-family="Helvetica,sans-Serif" font-size="10.00">RayLib::Vector2&lt; int &gt;</text>
<polyline fill="none" stroke="black" points="139,-611.5 267,-611.5 "/>
<text text-anchor="start" x="147" y="-599.5" font-family="Helvetica,sans-Serif" font-size="10.00">+ x</text>
<text text-anchor="start" x="147" y="-588.5" font-family="Helvetica,sans-Serif" font-size="10.00">+ y</text>
<polyline fill="none" stroke="black" points="139,-581.5 267,-581.5 "/>
<text text-anchor="start" x="147" y="-569.5" font-family="Helvetica,sans-Serif" font-size="10.00">+ Vector2()</text>
<text text-anchor="start" x="147" y="-558.5" font-family="Helvetica,sans-Serif" font-size="10.00">+ Vector2()</text>
<text text-anchor="start" x="147" y="-547.5" font-family="Helvetica,sans-Serif" font-size="10.00">+ Vector2()</text>
<text text-anchor="start" x="147" y="-536.5" font-family="Helvetica,sans-Serif" font-size="10.00">+ Vector2()</text>
<text text-anchor="start" x="147" y="-525.5" font-family="Helvetica,sans-Serif" font-size="10.00">+ Vector2()</text>
<text text-anchor="start" x="147" y="-514.5" font-family="Helvetica,sans-Serif" font-size="10.00">+ Vector2()</text>
<text text-anchor="start" x="147" y="-503.5" font-family="Helvetica,sans-Serif" font-size="10.00">+ ~Vector2()</text>
<text text-anchor="start" x="147" y="-492.5" font-family="Helvetica,sans-Serif" font-size="10.00">+ getVector2()</text>
<text text-anchor="start" x="147" y="-481.5" font-family="Helvetica,sans-Serif" font-size="10.00">+ operator=()</text>
<text text-anchor="start" x="147" y="-470.5" font-family="Helvetica,sans-Serif" font-size="10.00">+ operator+=()</text>
<text text-anchor="start" x="147" y="-459.5" font-family="Helvetica,sans-Serif" font-size="10.00">and 6 more...</text>
</a>
</g>
</g>
<!-- Node4&#45;&gt;Node3 -->
<g id="edge3" class="edge">
<title>Node4&#45;&gt;Node3</title>
<path fill="none" stroke="#404040" d="M203,-452.41C203,-432.13 203,-410.35 203,-389.4"/>
<polygon fill="none" stroke="#404040" points="203,-389.17 199,-383.17 203,-377.17 207,-383.17 203,-389.17"/>
<text text-anchor="middle" x="242.5" y="-426" font-family="Helvetica,sans-Serif" font-size="10.00"> &#45;_verticalAxis</text>
<text text-anchor="middle" x="242.5" y="-415" font-family="Helvetica,sans-Serif" font-size="10.00">&#45;_horizontalAxis</text>
</g>
<!-- Node5 -->
<g id="node5" class="node">
<title>Node5</title>
<g id="a_node5"><a xlink:href="classIXMLSerializable.html" target="_top" xlink:title=" ">
<polygon fill="white" stroke="black" points="140.5,-668.5 140.5,-780.5 265.5,-780.5 265.5,-668.5 140.5,-668.5"/>
<text text-anchor="middle" x="203" y="-768.5" font-family="Helvetica,sans-Serif" font-size="10.00">IXMLSerializable</text>
<polyline fill="none" stroke="black" points="140.5,-761.5 265.5,-761.5 "/>
<text text-anchor="middle" x="203" y="-749.5" font-family="Helvetica,sans-Serif" font-size="10.00"> </text>
<polyline fill="none" stroke="black" points="140.5,-742.5 265.5,-742.5 "/>
<text text-anchor="start" x="148.5" y="-730.5" font-family="Helvetica,sans-Serif" font-size="10.00">+ IXMLSerializable()</text>
<text text-anchor="start" x="148.5" y="-719.5" font-family="Helvetica,sans-Serif" font-size="10.00">+ ~IXMLSerializable()</text>
<text text-anchor="start" x="148.5" y="-708.5" font-family="Helvetica,sans-Serif" font-size="10.00">+ IXMLSerializable()</text>
<text text-anchor="start" x="148.5" y="-697.5" font-family="Helvetica,sans-Serif" font-size="10.00">+ operator=()</text>
<text text-anchor="start" x="148.5" y="-686.5" font-family="Helvetica,sans-Serif" font-size="10.00">+ operator&lt;&lt;()</text>
<text text-anchor="start" x="148.5" y="-675.5" font-family="Helvetica,sans-Serif" font-size="10.00">+ operator&lt;&lt;()</text>
</a>
</g>
</g>
<!-- Node5&#45;&gt;Node4 -->
<g id="edge4" class="edge">
<title>Node5&#45;&gt;Node4</title>
<path fill="none" stroke="midnightblue" d="M203,-658.01C203,-649.16 203,-639.97 203,-630.8"/>
<polygon fill="none" stroke="midnightblue" points="199.5,-658.21 203,-668.21 206.5,-658.21 199.5,-658.21"/>
</g>
</g>
</svg>
