<?xml version="1.0" encoding="UTF-8" standalone="no"?>
<!DOCTYPE svg PUBLIC "-//W3C//DTD SVG 1.1//EN"
 "http://www.w3.org/Graphics/SVG/1.1/DTD/svg11.dtd">
<!-- Generated by graphviz version 2.43.0 (0)
 -->
<!-- Title: Component::HUD Pages: 1 -->
<svg width="466pt" height="827pt"
 viewBox="0.00 0.00 466.00 827.00" xmlns="http://www.w3.org/2000/svg" xmlns:xlink="http://www.w3.org/1999/xlink">
<g id="graph0" class="graph" transform="scale(1 1) rotate(0) translate(4 823)">
<title>Component::HUD</title>
<polygon fill="white" stroke="transparent" points="-4,4 -4,-823 462,-823 462,4 -4,4"/>
<!-- Node1 -->
<g id="node1" class="node">
<title>Node1</title>
<g id="a_node1"><a xlink:title="HUD base component class.">
<polygon fill="#bfbfbf" stroke="black" points="164.5,-215.5 164.5,-382.5 319.5,-382.5 319.5,-215.5 164.5,-215.5"/>
<text text-anchor="middle" x="242" y="-370.5" font-family="Helvetica,sans-Serif" font-size="10.00">Component::HUD</text>
<polyline fill="none" stroke="black" points="164.5,-363.5 319.5,-363.5 "/>
<text text-anchor="start" x="172.5" y="-351.5" font-family="Helvetica,sans-Serif" font-size="10.00"># _myAController</text>
<text text-anchor="start" x="172.5" y="-340.5" font-family="Helvetica,sans-Serif" font-size="10.00"># _offset</text>
<polyline fill="none" stroke="black" points="164.5,-333.5 319.5,-333.5 "/>
<text text-anchor="start" x="172.5" y="-321.5" font-family="Helvetica,sans-Serif" font-size="10.00">+ HUD()</text>
<text text-anchor="start" x="172.5" y="-310.5" font-family="Helvetica,sans-Serif" font-size="10.00">+ ~HUD()</text>
<text text-anchor="start" x="172.5" y="-299.5" font-family="Helvetica,sans-Serif" font-size="10.00">+ HUD()</text>
<text text-anchor="start" x="172.5" y="-288.5" font-family="Helvetica,sans-Serif" font-size="10.00">+ operator=()</text>
<text text-anchor="start" x="172.5" y="-277.5" font-family="Helvetica,sans-Serif" font-size="10.00">+ getOffset()</text>
<text text-anchor="start" x="172.5" y="-266.5" font-family="Helvetica,sans-Serif" font-size="10.00">+ getAController()</text>
<text text-anchor="start" x="172.5" y="-255.5" font-family="Helvetica,sans-Serif" font-size="10.00">+ Update()</text>
<text text-anchor="start" x="172.5" y="-244.5" font-family="Helvetica,sans-Serif" font-size="10.00">+ FixedUpdate()</text>
<text text-anchor="start" x="172.5" y="-233.5" font-family="Helvetica,sans-Serif" font-size="10.00">+ LateUpdate()</text>
<text text-anchor="start" x="172.5" y="-222.5" font-family="Helvetica,sans-Serif" font-size="10.00">+ GetOffsetFromPlayerNbr()</text>
</a>
</g>
</g>
<!-- Node5 -->
<g id="node5" class="node">
<title>Node5</title>
<g id="a_node5"><a xlink:href="classComponent_1_1HUDBonusBar.html" target="_top" xlink:title=" ">
<polygon fill="white" stroke="black" points="0,-0.5 0,-178.5 148,-178.5 148,-0.5 0,-0.5"/>
<text text-anchor="middle" x="74" y="-166.5" font-family="Helvetica,sans-Serif" font-size="10.00">Component::HUDBonusBar</text>
<polyline fill="none" stroke="black" points="0,-159.5 148,-159.5 "/>
<text text-anchor="start" x="8" y="-147.5" font-family="Helvetica,sans-Serif" font-size="10.00">&#45; _timer</text>
<text text-anchor="start" x="8" y="-136.5" font-family="Helvetica,sans-Serif" font-size="10.00">&#45; _maxTimer</text>
<text text-anchor="start" x="8" y="-125.5" font-family="Helvetica,sans-Serif" font-size="10.00">&#45; _entityTag</text>
<text text-anchor="start" x="8" y="-114.5" font-family="Helvetica,sans-Serif" font-size="10.00">&#45; _isBg</text>
<polyline fill="none" stroke="black" points="0,-107.5 148,-107.5 "/>
<text text-anchor="start" x="8" y="-95.5" font-family="Helvetica,sans-Serif" font-size="10.00">+ HUDBonusBar()</text>
<text text-anchor="start" x="8" y="-84.5" font-family="Helvetica,sans-Serif" font-size="10.00">+ ~HUDBonusBar()</text>
<text text-anchor="start" x="8" y="-73.5" font-family="Helvetica,sans-Serif" font-size="10.00">+ HUDBonusBar()</text>
<text text-anchor="start" x="8" y="-62.5" font-family="Helvetica,sans-Serif" font-size="10.00">+ operator=()</text>
<text text-anchor="start" x="8" y="-51.5" font-family="Helvetica,sans-Serif" font-size="10.00">+ Update()</text>
<text text-anchor="start" x="8" y="-40.5" font-family="Helvetica,sans-Serif" font-size="10.00">+ FixedUpdate()</text>
<text text-anchor="start" x="8" y="-29.5" font-family="Helvetica,sans-Serif" font-size="10.00">+ LateUpdate()</text>
<text text-anchor="start" x="8" y="-18.5" font-family="Helvetica,sans-Serif" font-size="10.00">+ operator&lt;&lt;()</text>
<text text-anchor="start" x="8" y="-7.5" font-family="Helvetica,sans-Serif" font-size="10.00">+ operator&lt;&lt;()</text>
</a>
</g>
</g>
<!-- Node1&#45;&gt;Node5 -->
<g id="edge4" class="edge">
<title>Node1&#45;&gt;Node5</title>
<path fill="none" stroke="midnightblue" d="M168.65,-207.41C160.91,-197.85 153.05,-188.14 145.34,-178.61"/>
<polygon fill="none" stroke="midnightblue" points="166.11,-209.82 175.12,-215.39 171.55,-205.42 166.11,-209.82"/>
</g>
<!-- Node6 -->
<g id="node6" class="node">
<title>Node6</title>
<g id="a_node6"><a xlink:href="classComponent_1_1HUDBonusIcon.html" target="_top" xlink:title=" ">
<polygon fill="white" stroke="black" points="166,-11.5 166,-167.5 318,-167.5 318,-11.5 166,-11.5"/>
<text text-anchor="middle" x="242" y="-155.5" font-family="Helvetica,sans-Serif" font-size="10.00">Component::HUDBonusIcon</text>
<polyline fill="none" stroke="black" points="166,-148.5 318,-148.5 "/>
<text text-anchor="start" x="174" y="-136.5" font-family="Helvetica,sans-Serif" font-size="10.00">&#45; _timer</text>
<text text-anchor="start" x="174" y="-125.5" font-family="Helvetica,sans-Serif" font-size="10.00">&#45; _entityTag</text>
<polyline fill="none" stroke="black" points="166,-118.5 318,-118.5 "/>
<text text-anchor="start" x="174" y="-106.5" font-family="Helvetica,sans-Serif" font-size="10.00">+ HUDBonusIcon()</text>
<text text-anchor="start" x="174" y="-95.5" font-family="Helvetica,sans-Serif" font-size="10.00">+ ~HUDBonusIcon()</text>
<text text-anchor="start" x="174" y="-84.5" font-family="Helvetica,sans-Serif" font-size="10.00">+ HUDBonusIcon()</text>
<text text-anchor="start" x="174" y="-73.5" font-family="Helvetica,sans-Serif" font-size="10.00">+ operator=()</text>
<text text-anchor="start" x="174" y="-62.5" font-family="Helvetica,sans-Serif" font-size="10.00">+ Update()</text>
<text text-anchor="start" x="174" y="-51.5" font-family="Helvetica,sans-Serif" font-size="10.00">+ FixedUpdate()</text>
<text text-anchor="start" x="174" y="-40.5" font-family="Helvetica,sans-Serif" font-size="10.00">+ LateUpdate()</text>
<text text-anchor="start" x="174" y="-29.5" font-family="Helvetica,sans-Serif" font-size="10.00">+ operator&lt;&lt;()</text>
<text text-anchor="start" x="174" y="-18.5" font-family="Helvetica,sans-Serif" font-size="10.00">+ operator&lt;&lt;()</text>
</a>
</g>
</g>
<!-- Node1&#45;&gt;Node6 -->
<g id="edge5" class="edge">
<title>Node1&#45;&gt;Node6</title>
<path fill="none" stroke="midnightblue" d="M242,-205.38C242,-192.81 242,-180.02 242,-167.76"/>
<polygon fill="none" stroke="midnightblue" points="238.5,-205.39 242,-215.39 245.5,-205.39 238.5,-205.39"/>
</g>
<!-- Node7 -->
<g id="node7" class="node">
<title>Node7</title>
<g id="a_node7"><a xlink:href="classComponent_1_1HUDText.html" target="_top" xlink:title=" ">
<polygon fill="white" stroke="black" points="336,-17 336,-162 458,-162 458,-17 336,-17"/>
<text text-anchor="middle" x="397" y="-150" font-family="Helvetica,sans-Serif" font-size="10.00">Component::HUDText</text>
<polyline fill="none" stroke="black" points="336,-143 458,-143 "/>
<text text-anchor="middle" x="397" y="-131" font-family="Helvetica,sans-Serif" font-size="10.00"> </text>
<polyline fill="none" stroke="black" points="336,-124 458,-124 "/>
<text text-anchor="start" x="344" y="-112" font-family="Helvetica,sans-Serif" font-size="10.00">+ HUDText()</text>
<text text-anchor="start" x="344" y="-101" font-family="Helvetica,sans-Serif" font-size="10.00">+ ~HUDText()</text>
<text text-anchor="start" x="344" y="-90" font-family="Helvetica,sans-Serif" font-size="10.00">+ HUDText()</text>
<text text-anchor="start" x="344" y="-79" font-family="Helvetica,sans-Serif" font-size="10.00">+ operator=()</text>
<text text-anchor="start" x="344" y="-68" font-family="Helvetica,sans-Serif" font-size="10.00">+ Update()</text>
<text text-anchor="start" x="344" y="-57" font-family="Helvetica,sans-Serif" font-size="10.00">+ FixedUpdate()</text>
<text text-anchor="start" x="344" y="-46" font-family="Helvetica,sans-Serif" font-size="10.00">+ LateUpdate()</text>
<text text-anchor="start" x="344" y="-35" font-family="Helvetica,sans-Serif" font-size="10.00">+ operator&lt;&lt;()</text>
<text text-anchor="start" x="344" y="-24" font-family="Helvetica,sans-Serif" font-size="10.00">+ operator&lt;&lt;()</text>
</a>
</g>
</g>
<!-- Node1&#45;&gt;Node7 -->
<g id="edge6" class="edge">
<title>Node1&#45;&gt;Node7</title>
<path fill="none" stroke="midnightblue" d="M309.92,-207.08C321.17,-192.02 332.69,-176.6 343.51,-162.1"/>
<polygon fill="none" stroke="midnightblue" points="306.89,-205.29 303.71,-215.39 312.49,-209.48 306.89,-205.29"/>
</g>
<!-- Node2 -->
<g id="node2" class="node">
<title>Node2</title>
<g id="a_node2"><a xlink:href="classComponent_1_1IBehaviour.html" target="_top" xlink:title="IBehaviour base component (CF Monobehaviour class in Unity)">
<polygon fill="white" stroke="black" points="176.5,-419.5 176.5,-542.5 307.5,-542.5 307.5,-419.5 176.5,-419.5"/>
<text text-anchor="middle" x="242" y="-530.5" font-family="Helvetica,sans-Serif" font-size="10.00">Component::IBehaviour</text>
<polyline fill="none" stroke="black" points="176.5,-523.5 307.5,-523.5 "/>
<text text-anchor="middle" x="242" y="-511.5" font-family="Helvetica,sans-Serif" font-size="10.00"> </text>
<polyline fill="none" stroke="black" points="176.5,-504.5 307.5,-504.5 "/>
<text text-anchor="start" x="184.5" y="-492.5" font-family="Helvetica,sans-Serif" font-size="10.00">+ IBehaviour()</text>
<text text-anchor="start" x="184.5" y="-481.5" font-family="Helvetica,sans-Serif" font-size="10.00">+ ~IBehaviour()</text>
<text text-anchor="start" x="184.5" y="-470.5" font-family="Helvetica,sans-Serif" font-size="10.00">+ IBehaviour()</text>
<text text-anchor="start" x="184.5" y="-459.5" font-family="Helvetica,sans-Serif" font-size="10.00">+ operator=()</text>
<text text-anchor="start" x="184.5" y="-448.5" font-family="Helvetica,sans-Serif" font-size="10.00">+ Update()</text>
<text text-anchor="start" x="184.5" y="-437.5" font-family="Helvetica,sans-Serif" font-size="10.00">+ FixedUpdate()</text>
<text text-anchor="start" x="184.5" y="-426.5" font-family="Helvetica,sans-Serif" font-size="10.00">+ LateUpdate()</text>
</a>
</g>
</g>
<!-- Node2&#45;&gt;Node1 -->
<g id="edge1" class="edge">
<title>Node2&#45;&gt;Node1</title>
<path fill="none" stroke="midnightblue" d="M242,-409.25C242,-400.57 242,-391.63 242,-382.79"/>
<polygon fill="none" stroke="midnightblue" points="238.5,-409.31 242,-419.31 245.5,-409.31 238.5,-409.31"/>
</g>
<!-- Node3 -->
<g id="node3" class="node">
<title>Node3</title>
<g id="a_node3"><a xlink:href="classECS_1_1IComponent.html" target="_top" xlink:title="Base Interface class to create a new component.">
<polygon fill="white" stroke="black" points="190.5,-579.5 190.5,-669.5 293.5,-669.5 293.5,-579.5 190.5,-579.5"/>
<text text-anchor="middle" x="242" y="-657.5" font-family="Helvetica,sans-Serif" font-size="10.00">ECS::IComponent</text>
<polyline fill="none" stroke="black" points="190.5,-650.5 293.5,-650.5 "/>
<text text-anchor="middle" x="242" y="-638.5" font-family="Helvetica,sans-Serif" font-size="10.00"> </text>
<polyline fill="none" stroke="black" points="190.5,-631.5 293.5,-631.5 "/>
<text text-anchor="start" x="198.5" y="-619.5" font-family="Helvetica,sans-Serif" font-size="10.00">+ IComponent()</text>
<text text-anchor="start" x="198.5" y="-608.5" font-family="Helvetica,sans-Serif" font-size="10.00">+ ~IComponent()</text>
<text text-anchor="start" x="198.5" y="-597.5" font-family="Helvetica,sans-Serif" font-size="10.00">+ IComponent()</text>
<text text-anchor="start" x="198.5" y="-586.5" font-family="Helvetica,sans-Serif" font-size="10.00">+ operator=()</text>
</a>
</g>
</g>
<!-- Node3&#45;&gt;Node2 -->
<g id="edge2" class="edge">
<title>Node3&#45;&gt;Node2</title>
<path fill="none" stroke="midnightblue" d="M242,-569.11C242,-560.42 242,-551.38 242,-542.56"/>
<polygon fill="none" stroke="midnightblue" points="238.5,-569.12 242,-579.12 245.5,-569.12 238.5,-569.12"/>
</g>
<!-- Node4 -->
<g id="node4" class="node">
<title>Node4</title>
<g id="a_node4"><a xlink:href="classIXMLSerializable.html" target="_top" xlink:title=" ">
<polygon fill="white" stroke="black" points="179.5,-706.5 179.5,-818.5 304.5,-818.5 304.5,-706.5 179.5,-706.5"/>
<text text-anchor="middle" x="242" y="-806.5" font-family="Helvetica,sans-Serif" font-size="10.00">IXMLSerializable</text>
<polyline fill="none" stroke="black" points="179.5,-799.5 304.5,-799.5 "/>
<text text-anchor="middle" x="242" y="-787.5" font-family="Helvetica,sans-Serif" font-size="10.00"> </text>
<polyline fill="none" stroke="black" points="179.5,-780.5 304.5,-780.5 "/>
<text text-anchor="start" x="187.5" y="-768.5" font-family="Helvetica,sans-Serif" font-size="10.00">+ IXMLSerializable()</text>
<text text-anchor="start" x="187.5" y="-757.5" font-family="Helvetica,sans-Serif" font-size="10.00">+ ~IXMLSerializable()</text>
<text text-anchor="start" x="187.5" y="-746.5" font-family="Helvetica,sans-Serif" font-size="10.00">+ IXMLSerializable()</text>
<text text-anchor="start" x="187.5" y="-735.5" font-family="Helvetica,sans-Serif" font-size="10.00">+ operator=()</text>
<text text-anchor="start" x="187.5" y="-724.5" font-family="Helvetica,sans-Serif" font-size="10.00">+ operator&lt;&lt;()</text>
<text text-anchor="start" x="187.5" y="-713.5" font-family="Helvetica,sans-Serif" font-size="10.00">+ operator&lt;&lt;()</text>
</a>
</g>
</g>
<!-- Node4&#45;&gt;Node3 -->
<g id="edge3" class="edge">
<title>Node4&#45;&gt;Node3</title>
<path fill="none" stroke="midnightblue" d="M242,-696.08C242,-687.07 242,-678.01 242,-669.51"/>
<polygon fill="none" stroke="midnightblue" points="238.5,-696.18 242,-706.18 245.5,-696.18 238.5,-696.18"/>
</g>
</g>
</svg>
