<?xml version="1.0" encoding="UTF-8" standalone="no"?>
<!DOCTYPE svg PUBLIC "-//W3C//DTD SVG 1.1//EN"
 "http://www.w3.org/Graphics/SVG/1.1/DTD/svg11.dtd">
<!-- Generated by graphviz version 2.43.0 (0)
 -->
<!-- Title: Component::TextBox Pages: 1 -->
<svg width="389pt" height="746pt"
 viewBox="0.00 0.00 389.00 746.00" xmlns="http://www.w3.org/2000/svg" xmlns:xlink="http://www.w3.org/1999/xlink">
<g id="graph0" class="graph" transform="scale(1 1) rotate(0) translate(4 742)">
<title>Component::TextBox</title>
<polygon fill="white" stroke="transparent" points="-4,4 -4,-742 385,-742 385,4 -4,4"/>
<!-- Node1 -->
<g id="node1" class="node">
<title>Node1</title>
<g id="a_node1"><a xlink:title="Component where it&#39;s possible to enter text and show it.">
<polygon fill="#bfbfbf" stroke="black" points="151.5,-0.5 151.5,-266.5 269.5,-266.5 269.5,-0.5 151.5,-0.5"/>
<text text-anchor="middle" x="210.5" y="-254.5" font-family="Helvetica,sans-Serif" font-size="10.00">Component::TextBox</text>
<polyline fill="none" stroke="black" points="151.5,-247.5 269.5,-247.5 "/>
<text text-anchor="start" x="159.5" y="-235.5" font-family="Helvetica,sans-Serif" font-size="10.00">&#45; _max</text>
<text text-anchor="start" x="159.5" y="-224.5" font-family="Helvetica,sans-Serif" font-size="10.00">&#45; _font</text>
<text text-anchor="start" x="159.5" y="-213.5" font-family="Helvetica,sans-Serif" font-size="10.00">&#45; _size</text>
<text text-anchor="start" x="159.5" y="-202.5" font-family="Helvetica,sans-Serif" font-size="10.00">&#45; _spacing</text>
<text text-anchor="start" x="159.5" y="-191.5" font-family="Helvetica,sans-Serif" font-size="10.00">&#45; _value</text>
<text text-anchor="start" x="159.5" y="-180.5" font-family="Helvetica,sans-Serif" font-size="10.00">&#45; _isAlpha</text>
<text text-anchor="start" x="159.5" y="-169.5" font-family="Helvetica,sans-Serif" font-size="10.00">&#45; _isNum</text>
<polyline fill="none" stroke="black" points="151.5,-162.5 269.5,-162.5 "/>
<text text-anchor="start" x="159.5" y="-150.5" font-family="Helvetica,sans-Serif" font-size="10.00">+ TextBox()</text>
<text text-anchor="start" x="159.5" y="-139.5" font-family="Helvetica,sans-Serif" font-size="10.00">+ ~TextBox()</text>
<text text-anchor="start" x="159.5" y="-128.5" font-family="Helvetica,sans-Serif" font-size="10.00">+ TextBox()</text>
<text text-anchor="start" x="159.5" y="-117.5" font-family="Helvetica,sans-Serif" font-size="10.00">+ operator=()</text>
<text text-anchor="start" x="159.5" y="-106.5" font-family="Helvetica,sans-Serif" font-size="10.00">+ Draw()</text>
<text text-anchor="start" x="159.5" y="-95.5" font-family="Helvetica,sans-Serif" font-size="10.00">+ GetIsAlpha()</text>
<text text-anchor="start" x="159.5" y="-84.5" font-family="Helvetica,sans-Serif" font-size="10.00">+ GetIsNum()</text>
<text text-anchor="start" x="159.5" y="-73.5" font-family="Helvetica,sans-Serif" font-size="10.00">+ GetValue()</text>
<text text-anchor="start" x="159.5" y="-62.5" font-family="Helvetica,sans-Serif" font-size="10.00">+ SetValue()</text>
<text text-anchor="start" x="159.5" y="-51.5" font-family="Helvetica,sans-Serif" font-size="10.00">+ GetRectangle()</text>
<text text-anchor="start" x="159.5" y="-40.5" font-family="Helvetica,sans-Serif" font-size="10.00">+ RemoveChar()</text>
<text text-anchor="start" x="159.5" y="-29.5" font-family="Helvetica,sans-Serif" font-size="10.00">+ AppendChar()</text>
<text text-anchor="start" x="159.5" y="-18.5" font-family="Helvetica,sans-Serif" font-size="10.00">&#45; operator&lt;&lt;()</text>
<text text-anchor="start" x="159.5" y="-7.5" font-family="Helvetica,sans-Serif" font-size="10.00">&#45; operator&lt;&lt;()</text>
</a>
</g>
</g>
<!-- Node2 -->
<g id="node2" class="node">
<title>Node2</title>
<g id="a_node2"><a xlink:href="classComponent_1_1IUIObject.html" target="_top" xlink:title="Base class for UI objects.">
<polygon fill="white" stroke="black" points="0.5,-336.5 0.5,-437.5 124.5,-437.5 124.5,-336.5 0.5,-336.5"/>
<text text-anchor="middle" x="62.5" y="-425.5" font-family="Helvetica,sans-Serif" font-size="10.00">Component::IUIObject</text>
<polyline fill="none" stroke="black" points="0.5,-418.5 124.5,-418.5 "/>
<text text-anchor="middle" x="62.5" y="-406.5" font-family="Helvetica,sans-Serif" font-size="10.00"> </text>
<polyline fill="none" stroke="black" points="0.5,-399.5 124.5,-399.5 "/>
<text text-anchor="start" x="8.5" y="-387.5" font-family="Helvetica,sans-Serif" font-size="10.00">+ IUIObject()</text>
<text text-anchor="start" x="8.5" y="-376.5" font-family="Helvetica,sans-Serif" font-size="10.00">+ ~IUIObject()</text>
<text text-anchor="start" x="8.5" y="-365.5" font-family="Helvetica,sans-Serif" font-size="10.00">+ IUIObject()</text>
<text text-anchor="start" x="8.5" y="-354.5" font-family="Helvetica,sans-Serif" font-size="10.00">+ operator=()</text>
<text text-anchor="start" x="8.5" y="-343.5" font-family="Helvetica,sans-Serif" font-size="10.00">+ Draw()</text>
</a>
</g>
</g>
<!-- Node2&#45;&gt;Node1 -->
<g id="edge1" class="edge">
<title>Node2&#45;&gt;Node1</title>
<path fill="none" stroke="midnightblue" d="M96.88,-327.58C113.11,-300 132.95,-266.29 151.48,-234.8"/>
<polygon fill="none" stroke="midnightblue" points="93.8,-325.92 91.74,-336.31 99.83,-329.47 93.8,-325.92"/>
</g>
<!-- Node3 -->
<g id="node3" class="node">
<title>Node3</title>
<g id="a_node3"><a xlink:href="classECS_1_1IComponent.html" target="_top" xlink:title="Base Interface class to create a new component.">
<polygon fill="white" stroke="black" points="11,-497.5 11,-587.5 114,-587.5 114,-497.5 11,-497.5"/>
<text text-anchor="middle" x="62.5" y="-575.5" font-family="Helvetica,sans-Serif" font-size="10.00">ECS::IComponent</text>
<polyline fill="none" stroke="black" points="11,-568.5 114,-568.5 "/>
<text text-anchor="middle" x="62.5" y="-556.5" font-family="Helvetica,sans-Serif" font-size="10.00"> </text>
<polyline fill="none" stroke="black" points="11,-549.5 114,-549.5 "/>
<text text-anchor="start" x="19" y="-537.5" font-family="Helvetica,sans-Serif" font-size="10.00">+ IComponent()</text>
<text text-anchor="start" x="19" y="-526.5" font-family="Helvetica,sans-Serif" font-size="10.00">+ ~IComponent()</text>
<text text-anchor="start" x="19" y="-515.5" font-family="Helvetica,sans-Serif" font-size="10.00">+ IComponent()</text>
<text text-anchor="start" x="19" y="-504.5" font-family="Helvetica,sans-Serif" font-size="10.00">+ operator=()</text>
</a>
</g>
</g>
<!-- Node3&#45;&gt;Node2 -->
<g id="edge2" class="edge">
<title>Node3&#45;&gt;Node2</title>
<path fill="none" stroke="midnightblue" d="M62.5,-486.81C62.5,-470.79 62.5,-453.38 62.5,-437.69"/>
<polygon fill="none" stroke="midnightblue" points="59,-487.1 62.5,-497.1 66,-487.1 59,-487.1"/>
</g>
<!-- Node4 -->
<g id="node4" class="node">
<title>Node4</title>
<g id="a_node4"><a xlink:href="classIXMLSerializable.html" target="_top" xlink:title=" ">
<polygon fill="white" stroke="black" points="0,-625.5 0,-737.5 125,-737.5 125,-625.5 0,-625.5"/>
<text text-anchor="middle" x="62.5" y="-725.5" font-family="Helvetica,sans-Serif" font-size="10.00">IXMLSerializable</text>
<polyline fill="none" stroke="black" points="0,-718.5 125,-718.5 "/>
<text text-anchor="middle" x="62.5" y="-706.5" font-family="Helvetica,sans-Serif" font-size="10.00"> </text>
<polyline fill="none" stroke="black" points="0,-699.5 125,-699.5 "/>
<text text-anchor="start" x="8" y="-687.5" font-family="Helvetica,sans-Serif" font-size="10.00">+ IXMLSerializable()</text>
<text text-anchor="start" x="8" y="-676.5" font-family="Helvetica,sans-Serif" font-size="10.00">+ ~IXMLSerializable()</text>
<text text-anchor="start" x="8" y="-665.5" font-family="Helvetica,sans-Serif" font-size="10.00">+ IXMLSerializable()</text>
<text text-anchor="start" x="8" y="-654.5" font-family="Helvetica,sans-Serif" font-size="10.00">+ operator=()</text>
<text text-anchor="start" x="8" y="-643.5" font-family="Helvetica,sans-Serif" font-size="10.00">+ operator&lt;&lt;()</text>
<text text-anchor="start" x="8" y="-632.5" font-family="Helvetica,sans-Serif" font-size="10.00">+ operator&lt;&lt;()</text>
</a>
</g>
</g>
<!-- Node4&#45;&gt;Node3 -->
<g id="edge3" class="edge">
<title>Node4&#45;&gt;Node3</title>
<path fill="none" stroke="midnightblue" d="M62.5,-615.13C62.5,-605.83 62.5,-596.44 62.5,-587.67"/>
<polygon fill="none" stroke="midnightblue" points="59,-615.17 62.5,-625.17 66,-615.17 59,-615.17"/>
</g>
<!-- Node5 -->
<g id="node5" class="node">
<title>Node5</title>
<g id="a_node5"><a xlink:href="classRayLib_1_1Rectangle.html" target="_top" xlink:title="Rectangle encapsulation.">
<polygon fill="white" stroke="black" points="143,-314.5 143,-459.5 278,-459.5 278,-314.5 143,-314.5"/>
<text text-anchor="middle" x="210.5" y="-447.5" font-family="Helvetica,sans-Serif" font-size="10.00">RayLib::Rectangle</text>
<polyline fill="none" stroke="black" points="143,-440.5 278,-440.5 "/>
<text text-anchor="middle" x="210.5" y="-428.5" font-family="Helvetica,sans-Serif" font-size="10.00"> </text>
<polyline fill="none" stroke="black" points="143,-421.5 278,-421.5 "/>
<text text-anchor="start" x="151" y="-409.5" font-family="Helvetica,sans-Serif" font-size="10.00">+ Rectangle()</text>
<text text-anchor="start" x="151" y="-398.5" font-family="Helvetica,sans-Serif" font-size="10.00">+ Rectangle()</text>
<text text-anchor="start" x="151" y="-387.5" font-family="Helvetica,sans-Serif" font-size="10.00">+ Rectangle()</text>
<text text-anchor="start" x="151" y="-376.5" font-family="Helvetica,sans-Serif" font-size="10.00">+ operator=()</text>
<text text-anchor="start" x="151" y="-365.5" font-family="Helvetica,sans-Serif" font-size="10.00">+ operator=()</text>
<text text-anchor="start" x="151" y="-354.5" font-family="Helvetica,sans-Serif" font-size="10.00">+ GetRectangle()</text>
<text text-anchor="start" x="151" y="-343.5" font-family="Helvetica,sans-Serif" font-size="10.00">+ ~Rectangle()</text>
<text text-anchor="start" x="151" y="-332.5" font-family="Helvetica,sans-Serif" font-size="10.00">+ DrawRectangle()</text>
<text text-anchor="start" x="151" y="-321.5" font-family="Helvetica,sans-Serif" font-size="10.00">+ DrawRectangleLines()</text>
</a>
</g>
</g>
<!-- Node5&#45;&gt;Node1 -->
<g id="edge4" class="edge">
<title>Node5&#45;&gt;Node1</title>
<path fill="none" stroke="#404040" d="M210.5,-314.27C210.5,-303.05 210.5,-291.13 210.5,-278.96"/>
<polygon fill="none" stroke="#404040" points="210.5,-278.74 206.5,-272.74 210.5,-266.74 214.5,-272.74 210.5,-278.74"/>
<text text-anchor="middle" x="226" y="-288" font-family="Helvetica,sans-Serif" font-size="10.00"> &#45;_rect</text>
</g>
<!-- Node6 -->
<g id="node6" class="node">
<title>Node6</title>
<g id="a_node6"><a xlink:title=" ">
<polygon fill="white" stroke="#bfbfbf" points="178,-514 178,-571 243,-571 243,-514 178,-514"/>
<text text-anchor="middle" x="210.5" y="-559" font-family="Helvetica,sans-Serif" font-size="10.00">Rectangle</text>
<polyline fill="none" stroke="#bfbfbf" points="178,-552 243,-552 "/>
<text text-anchor="middle" x="210.5" y="-540" font-family="Helvetica,sans-Serif" font-size="10.00"> </text>
<polyline fill="none" stroke="#bfbfbf" points="178,-533 243,-533 "/>
<text text-anchor="middle" x="210.5" y="-521" font-family="Helvetica,sans-Serif" font-size="10.00"> </text>
</a>
</g>
</g>
<!-- Node6&#45;&gt;Node5 -->
<g id="edge5" class="edge">
<title>Node6&#45;&gt;Node5</title>
<path fill="none" stroke="midnightblue" d="M210.5,-503.54C210.5,-490.24 210.5,-474.84 210.5,-459.71"/>
<polygon fill="none" stroke="midnightblue" points="207,-503.7 210.5,-513.7 214,-503.7 207,-503.7"/>
</g>
<!-- Node7 -->
<g id="node7" class="node">
<title>Node7</title>
<g id="a_node7"><a xlink:href="classRayLib_1_1Color.html" target="_top" xlink:title="RayLib Color encapsulation.">
<polygon fill="white" stroke="black" points="296,-314.5 296,-459.5 381,-459.5 381,-314.5 296,-314.5"/>
<text text-anchor="middle" x="338.5" y="-447.5" font-family="Helvetica,sans-Serif" font-size="10.00">RayLib::Color</text>
<polyline fill="none" stroke="black" points="296,-440.5 381,-440.5 "/>
<text text-anchor="middle" x="338.5" y="-428.5" font-family="Helvetica,sans-Serif" font-size="10.00"> </text>
<polyline fill="none" stroke="black" points="296,-421.5 381,-421.5 "/>
<text text-anchor="start" x="304" y="-409.5" font-family="Helvetica,sans-Serif" font-size="10.00">+ Color()</text>
<text text-anchor="start" x="304" y="-398.5" font-family="Helvetica,sans-Serif" font-size="10.00">+ Color()</text>
<text text-anchor="start" x="304" y="-387.5" font-family="Helvetica,sans-Serif" font-size="10.00">+ Color()</text>
<text text-anchor="start" x="304" y="-376.5" font-family="Helvetica,sans-Serif" font-size="10.00">+ Color()</text>
<text text-anchor="start" x="304" y="-365.5" font-family="Helvetica,sans-Serif" font-size="10.00">+ Color()</text>
<text text-anchor="start" x="304" y="-354.5" font-family="Helvetica,sans-Serif" font-size="10.00">+ ~Color()</text>
<text text-anchor="start" x="304" y="-343.5" font-family="Helvetica,sans-Serif" font-size="10.00">+ getColor()</text>
<text text-anchor="start" x="304" y="-332.5" font-family="Helvetica,sans-Serif" font-size="10.00">+ operator=()</text>
<text text-anchor="start" x="304" y="-321.5" font-family="Helvetica,sans-Serif" font-size="10.00">+ Lerp()</text>
</a>
</g>
</g>
<!-- Node7&#45;&gt;Node1 -->
<g id="edge6" class="edge">
<title>Node7&#45;&gt;Node1</title>
<path fill="none" stroke="#404040" d="M301.99,-314.27C293.53,-297.64 284.27,-279.46 275.01,-261.25"/>
<polygon fill="none" stroke="#404040" points="275,-261.23 268.71,-257.69 269.55,-250.53 275.84,-254.06 275,-261.23"/>
<text text-anchor="middle" x="309" y="-288" font-family="Helvetica,sans-Serif" font-size="10.00"> &#45;_color</text>
</g>
<!-- Node8 -->
<g id="node8" class="node">
<title>Node8</title>
<g id="a_node8"><a xlink:title=" ">
<polygon fill="white" stroke="#bfbfbf" points="317.5,-514 317.5,-571 359.5,-571 359.5,-514 317.5,-514"/>
<text text-anchor="middle" x="338.5" y="-559" font-family="Helvetica,sans-Serif" font-size="10.00">Color</text>
<polyline fill="none" stroke="#bfbfbf" points="317.5,-552 359.5,-552 "/>
<text text-anchor="middle" x="338.5" y="-540" font-family="Helvetica,sans-Serif" font-size="10.00"> </text>
<polyline fill="none" stroke="#bfbfbf" points="317.5,-533 359.5,-533 "/>
<text text-anchor="middle" x="338.5" y="-521" font-family="Helvetica,sans-Serif" font-size="10.00"> </text>
</a>
</g>
</g>
<!-- Node8&#45;&gt;Node7 -->
<g id="edge7" class="edge">
<title>Node8&#45;&gt;Node7</title>
<path fill="none" stroke="midnightblue" d="M338.5,-503.54C338.5,-490.24 338.5,-474.84 338.5,-459.71"/>
<polygon fill="none" stroke="midnightblue" points="335,-503.7 338.5,-513.7 342,-503.7 335,-503.7"/>
</g>
</g>
</svg>
