<?xml version="1.0" encoding="UTF-8" standalone="no"?>
<!DOCTYPE svg PUBLIC "-//W3C//DTD SVG 1.1//EN"
 "http://www.w3.org/Graphics/SVG/1.1/DTD/svg11.dtd">
<!-- Generated by graphviz version 2.43.0 (0)
 -->
<!-- Title: Component::Draggable Pages: 1 -->
<svg width="720pt" height="833pt"
 viewBox="0.00 0.00 720.00 833.00" xmlns="http://www.w3.org/2000/svg" xmlns:xlink="http://www.w3.org/1999/xlink">
<g id="graph0" class="graph" transform="scale(1 1) rotate(0) translate(4 829)">
<title>Component::Draggable</title>
<polygon fill="white" stroke="transparent" points="-4,4 -4,-829 716,-829 716,4 -4,4"/>
<!-- Node1 -->
<g id="node1" class="node">
<title>Node1</title>
<g id="a_node1"><a xlink:title="Draggable component (allows for objects to be selected and dragged with the mouse)">
<polygon fill="#bfbfbf" stroke="black" points="221,-0.5 221,-156.5 350,-156.5 350,-0.5 221,-0.5"/>
<text text-anchor="middle" x="285.5" y="-144.5" font-family="Helvetica,sans-Serif" font-size="10.00">Component::Draggable</text>
<polyline fill="none" stroke="black" points="221,-137.5 350,-137.5 "/>
<text text-anchor="start" x="229" y="-125.5" font-family="Helvetica,sans-Serif" font-size="10.00">&#45; _colliders</text>
<text text-anchor="start" x="229" y="-114.5" font-family="Helvetica,sans-Serif" font-size="10.00">&#45; _selected</text>
<polyline fill="none" stroke="black" points="221,-107.5 350,-107.5 "/>
<text text-anchor="start" x="229" y="-95.5" font-family="Helvetica,sans-Serif" font-size="10.00">+ Draggable()</text>
<text text-anchor="start" x="229" y="-84.5" font-family="Helvetica,sans-Serif" font-size="10.00">+ ~Draggable()</text>
<text text-anchor="start" x="229" y="-73.5" font-family="Helvetica,sans-Serif" font-size="10.00">+ Draggable()</text>
<text text-anchor="start" x="229" y="-62.5" font-family="Helvetica,sans-Serif" font-size="10.00">+ operator=()</text>
<text text-anchor="start" x="229" y="-51.5" font-family="Helvetica,sans-Serif" font-size="10.00">+ Update()</text>
<text text-anchor="start" x="229" y="-40.5" font-family="Helvetica,sans-Serif" font-size="10.00">+ FixedUpdate()</text>
<text text-anchor="start" x="229" y="-29.5" font-family="Helvetica,sans-Serif" font-size="10.00">+ LateUpdate()</text>
<text text-anchor="start" x="229" y="-18.5" font-family="Helvetica,sans-Serif" font-size="10.00">+ operator&lt;&lt;()</text>
<text text-anchor="start" x="229" y="-7.5" font-family="Helvetica,sans-Serif" font-size="10.00">+ operator&lt;&lt;()</text>
</a>
</g>
</g>
<!-- Node2 -->
<g id="node2" class="node">
<title>Node2</title>
<g id="a_node2"><a xlink:href="classComponent_1_1IBehaviour.html" target="_top" xlink:title="IBehaviour base component (CF Monobehaviour class in Unity)">
<polygon fill="white" stroke="black" points="0,-237.5 0,-360.5 131,-360.5 131,-237.5 0,-237.5"/>
<text text-anchor="middle" x="65.5" y="-348.5" font-family="Helvetica,sans-Serif" font-size="10.00">Component::IBehaviour</text>
<polyline fill="none" stroke="black" points="0,-341.5 131,-341.5 "/>
<text text-anchor="middle" x="65.5" y="-329.5" font-family="Helvetica,sans-Serif" font-size="10.00"> </text>
<polyline fill="none" stroke="black" points="0,-322.5 131,-322.5 "/>
<text text-anchor="start" x="8" y="-310.5" font-family="Helvetica,sans-Serif" font-size="10.00">+ IBehaviour()</text>
<text text-anchor="start" x="8" y="-299.5" font-family="Helvetica,sans-Serif" font-size="10.00">+ ~IBehaviour()</text>
<text text-anchor="start" x="8" y="-288.5" font-family="Helvetica,sans-Serif" font-size="10.00">+ IBehaviour()</text>
<text text-anchor="start" x="8" y="-277.5" font-family="Helvetica,sans-Serif" font-size="10.00">+ operator=()</text>
<text text-anchor="start" x="8" y="-266.5" font-family="Helvetica,sans-Serif" font-size="10.00">+ Update()</text>
<text text-anchor="start" x="8" y="-255.5" font-family="Helvetica,sans-Serif" font-size="10.00">+ FixedUpdate()</text>
<text text-anchor="start" x="8" y="-244.5" font-family="Helvetica,sans-Serif" font-size="10.00">+ LateUpdate()</text>
</a>
</g>
</g>
<!-- Node2&#45;&gt;Node1 -->
<g id="edge1" class="edge">
<title>Node2&#45;&gt;Node1</title>
<path fill="none" stroke="midnightblue" d="M117.54,-229.62C125,-220.78 132.76,-212.02 140.5,-204 165.26,-178.33 194.8,-152.26 220.73,-130.66"/>
<polygon fill="none" stroke="midnightblue" points="114.78,-227.47 111.08,-237.4 120.16,-231.95 114.78,-227.47"/>
</g>
<!-- Node3 -->
<g id="node3" class="node">
<title>Node3</title>
<g id="a_node3"><a xlink:href="classECS_1_1IComponent.html" target="_top" xlink:title="Base Interface class to create a new component.">
<polygon fill="white" stroke="black" points="46,-524 46,-614 149,-614 149,-524 46,-524"/>
<text text-anchor="middle" x="97.5" y="-602" font-family="Helvetica,sans-Serif" font-size="10.00">ECS::IComponent</text>
<polyline fill="none" stroke="black" points="46,-595 149,-595 "/>
<text text-anchor="middle" x="97.5" y="-583" font-family="Helvetica,sans-Serif" font-size="10.00"> </text>
<polyline fill="none" stroke="black" points="46,-576 149,-576 "/>
<text text-anchor="start" x="54" y="-564" font-family="Helvetica,sans-Serif" font-size="10.00">+ IComponent()</text>
<text text-anchor="start" x="54" y="-553" font-family="Helvetica,sans-Serif" font-size="10.00">+ ~IComponent()</text>
<text text-anchor="start" x="54" y="-542" font-family="Helvetica,sans-Serif" font-size="10.00">+ IComponent()</text>
<text text-anchor="start" x="54" y="-531" font-family="Helvetica,sans-Serif" font-size="10.00">+ operator=()</text>
</a>
</g>
</g>
<!-- Node3&#45;&gt;Node2 -->
<g id="edge2" class="edge">
<title>Node3&#45;&gt;Node2</title>
<path fill="none" stroke="midnightblue" d="M91.02,-513.74C85.73,-469.44 78.26,-406.87 72.77,-360.87"/>
<polygon fill="none" stroke="midnightblue" points="87.55,-514.23 92.22,-523.75 94.51,-513.4 87.55,-514.23"/>
</g>
<!-- Node5 -->
<g id="node5" class="node">
<title>Node5</title>
<g id="a_node5"><a xlink:href="classComponent_1_1Transform.html" target="_top" xlink:title=" ">
<polygon fill="white" stroke="black" points="149.5,-243 149.5,-355 277.5,-355 277.5,-243 149.5,-243"/>
<text text-anchor="middle" x="213.5" y="-343" font-family="Helvetica,sans-Serif" font-size="10.00">Component::Transform</text>
<polyline fill="none" stroke="black" points="149.5,-336 277.5,-336 "/>
<text text-anchor="middle" x="213.5" y="-324" font-family="Helvetica,sans-Serif" font-size="10.00"> </text>
<polyline fill="none" stroke="black" points="149.5,-317 277.5,-317 "/>
<text text-anchor="start" x="157.5" y="-305" font-family="Helvetica,sans-Serif" font-size="10.00">+ Transform()</text>
<text text-anchor="start" x="157.5" y="-294" font-family="Helvetica,sans-Serif" font-size="10.00">+ ~Transform()</text>
<text text-anchor="start" x="157.5" y="-283" font-family="Helvetica,sans-Serif" font-size="10.00">+ Transform()</text>
<text text-anchor="start" x="157.5" y="-272" font-family="Helvetica,sans-Serif" font-size="10.00">+ operator=()</text>
<text text-anchor="start" x="157.5" y="-261" font-family="Helvetica,sans-Serif" font-size="10.00">+ operator&lt;&lt;()</text>
<text text-anchor="start" x="157.5" y="-250" font-family="Helvetica,sans-Serif" font-size="10.00">+ operator&lt;&lt;()</text>
</a>
</g>
</g>
<!-- Node3&#45;&gt;Node5 -->
<g id="edge5" class="edge">
<title>Node3&#45;&gt;Node5</title>
<path fill="none" stroke="midnightblue" d="M120.65,-514.52C140.6,-468.43 169.29,-402.14 189.49,-355.48"/>
<polygon fill="none" stroke="midnightblue" points="117.42,-513.18 116.66,-523.75 123.84,-515.96 117.42,-513.18"/>
</g>
<!-- Node4 -->
<g id="node4" class="node">
<title>Node4</title>
<g id="a_node4"><a xlink:href="classIXMLSerializable.html" target="_top" xlink:title=" ">
<polygon fill="white" stroke="black" points="42,-712.5 42,-824.5 167,-824.5 167,-712.5 42,-712.5"/>
<text text-anchor="middle" x="104.5" y="-812.5" font-family="Helvetica,sans-Serif" font-size="10.00">IXMLSerializable</text>
<polyline fill="none" stroke="black" points="42,-805.5 167,-805.5 "/>
<text text-anchor="middle" x="104.5" y="-793.5" font-family="Helvetica,sans-Serif" font-size="10.00"> </text>
<polyline fill="none" stroke="black" points="42,-786.5 167,-786.5 "/>
<text text-anchor="start" x="50" y="-774.5" font-family="Helvetica,sans-Serif" font-size="10.00">+ IXMLSerializable()</text>
<text text-anchor="start" x="50" y="-763.5" font-family="Helvetica,sans-Serif" font-size="10.00">+ ~IXMLSerializable()</text>
<text text-anchor="start" x="50" y="-752.5" font-family="Helvetica,sans-Serif" font-size="10.00">+ IXMLSerializable()</text>
<text text-anchor="start" x="50" y="-741.5" font-family="Helvetica,sans-Serif" font-size="10.00">+ operator=()</text>
<text text-anchor="start" x="50" y="-730.5" font-family="Helvetica,sans-Serif" font-size="10.00">+ operator&lt;&lt;()</text>
<text text-anchor="start" x="50" y="-719.5" font-family="Helvetica,sans-Serif" font-size="10.00">+ operator&lt;&lt;()</text>
</a>
</g>
</g>
<!-- Node4&#45;&gt;Node3 -->
<g id="edge3" class="edge">
<title>Node4&#45;&gt;Node3</title>
<path fill="none" stroke="midnightblue" d="M102.19,-702.44C101.17,-673.47 99.98,-640.1 99.06,-614.11"/>
<polygon fill="none" stroke="midnightblue" points="98.7,-702.62 102.55,-712.49 105.69,-702.37 98.7,-702.62"/>
</g>
<!-- Node6 -->
<g id="node6" class="node">
<title>Node6</title>
<g id="a_node6"><a xlink:href="classRayLib_1_1Vector3.html" target="_top" xlink:title="Vector3 encapsulation.">
<polygon fill="white" stroke="black" points="167.5,-485.5 167.5,-652.5 259.5,-652.5 259.5,-485.5 167.5,-485.5"/>
<text text-anchor="middle" x="213.5" y="-640.5" font-family="Helvetica,sans-Serif" font-size="10.00">RayLib::Vector3</text>
<polyline fill="none" stroke="black" points="167.5,-633.5 259.5,-633.5 "/>
<text text-anchor="middle" x="213.5" y="-621.5" font-family="Helvetica,sans-Serif" font-size="10.00"> </text>
<polyline fill="none" stroke="black" points="167.5,-614.5 259.5,-614.5 "/>
<text text-anchor="start" x="175.5" y="-602.5" font-family="Helvetica,sans-Serif" font-size="10.00">+ Vector3()</text>
<text text-anchor="start" x="175.5" y="-591.5" font-family="Helvetica,sans-Serif" font-size="10.00">+ Vector3()</text>
<text text-anchor="start" x="175.5" y="-580.5" font-family="Helvetica,sans-Serif" font-size="10.00">+ Vector3()</text>
<text text-anchor="start" x="175.5" y="-569.5" font-family="Helvetica,sans-Serif" font-size="10.00">+ Vector3()</text>
<text text-anchor="start" x="175.5" y="-558.5" font-family="Helvetica,sans-Serif" font-size="10.00">+ Vector3()</text>
<text text-anchor="start" x="175.5" y="-547.5" font-family="Helvetica,sans-Serif" font-size="10.00">+ Vector3()</text>
<text text-anchor="start" x="175.5" y="-536.5" font-family="Helvetica,sans-Serif" font-size="10.00">+ ~Vector3()</text>
<text text-anchor="start" x="175.5" y="-525.5" font-family="Helvetica,sans-Serif" font-size="10.00">+ getVector3()</text>
<text text-anchor="start" x="175.5" y="-514.5" font-family="Helvetica,sans-Serif" font-size="10.00">+ operator=()</text>
<text text-anchor="start" x="175.5" y="-503.5" font-family="Helvetica,sans-Serif" font-size="10.00">+ operator*=()</text>
<text text-anchor="start" x="175.5" y="-492.5" font-family="Helvetica,sans-Serif" font-size="10.00">and 13 more...</text>
</a>
</g>
</g>
<!-- Node4&#45;&gt;Node6 -->
<g id="edge8" class="edge">
<title>Node4&#45;&gt;Node6</title>
<path fill="none" stroke="midnightblue" d="M141.41,-703.66C146.85,-694.08 152.36,-684.3 157.5,-675 161.5,-667.77 165.62,-660.23 169.72,-652.67"/>
<polygon fill="none" stroke="midnightblue" points="138.35,-701.96 136.44,-712.38 144.44,-705.43 138.35,-701.96"/>
</g>
<!-- Node5&#45;&gt;Node1 -->
<g id="edge4" class="edge">
<title>Node5&#45;&gt;Node1</title>
<path fill="none" stroke="#404040" d="M231.67,-242.86C239.11,-220.28 247.91,-193.57 256.22,-168.36"/>
<polygon fill="none" stroke="#404040" points="256.24,-168.3 254.32,-161.35 260,-156.9 261.92,-163.85 256.24,-168.3"/>
<text text-anchor="middle" x="285" y="-178" font-family="Helvetica,sans-Serif" font-size="10.00"> &#45;_transform</text>
</g>
<!-- Node6&#45;&gt;Node5 -->
<g id="edge6" class="edge">
<title>Node6&#45;&gt;Node5</title>
<path fill="none" stroke="#404040" d="M213.5,-485.4C213.5,-447.57 213.5,-403.29 213.5,-367.5"/>
<polygon fill="none" stroke="#404040" points="213.5,-367.21 209.5,-361.21 213.5,-355.21 217.5,-361.21 213.5,-367.21"/>
<text text-anchor="middle" x="238.5" y="-437" font-family="Helvetica,sans-Serif" font-size="10.00"> +rotation</text>
<text text-anchor="middle" x="238.5" y="-426" font-family="Helvetica,sans-Serif" font-size="10.00">+scale</text>
<text text-anchor="middle" x="238.5" y="-415" font-family="Helvetica,sans-Serif" font-size="10.00">+position</text>
</g>
<!-- Node7 -->
<g id="node7" class="node">
<title>Node7</title>
<g id="a_node7"><a xlink:title=" ">
<polygon fill="white" stroke="#bfbfbf" points="187,-740 187,-797 240,-797 240,-740 187,-740"/>
<text text-anchor="middle" x="213.5" y="-785" font-family="Helvetica,sans-Serif" font-size="10.00">Vector3</text>
<polyline fill="none" stroke="#bfbfbf" points="187,-778 240,-778 "/>
<text text-anchor="middle" x="213.5" y="-766" font-family="Helvetica,sans-Serif" font-size="10.00"> </text>
<polyline fill="none" stroke="#bfbfbf" points="187,-759 240,-759 "/>
<text text-anchor="middle" x="213.5" y="-747" font-family="Helvetica,sans-Serif" font-size="10.00"> </text>
</a>
</g>
</g>
<!-- Node7&#45;&gt;Node6 -->
<g id="edge7" class="edge">
<title>Node7&#45;&gt;Node6</title>
<path fill="none" stroke="midnightblue" d="M213.5,-729.48C213.5,-707.69 213.5,-679.45 213.5,-652.81"/>
<polygon fill="none" stroke="midnightblue" points="210,-729.62 213.5,-739.62 217,-729.62 210,-729.62"/>
</g>
<!-- Node8 -->
<g id="node8" class="node">
<title>Node8</title>
<g id="a_node8"><a xlink:href="classRayLib_1_1Camera3D.html" target="_top" xlink:title="Camera3D Encapsulation of the raylib structure Camera3D.">
<polygon fill="white" stroke="black" points="295.5,-204.5 295.5,-393.5 419.5,-393.5 419.5,-204.5 295.5,-204.5"/>
<text text-anchor="middle" x="357.5" y="-381.5" font-family="Helvetica,sans-Serif" font-size="10.00">RayLib::Camera3D</text>
<polyline fill="none" stroke="black" points="295.5,-374.5 419.5,-374.5 "/>
<text text-anchor="middle" x="357.5" y="-362.5" font-family="Helvetica,sans-Serif" font-size="10.00"> </text>
<polyline fill="none" stroke="black" points="295.5,-355.5 419.5,-355.5 "/>
<text text-anchor="start" x="303.5" y="-343.5" font-family="Helvetica,sans-Serif" font-size="10.00">+ Camera3D()</text>
<text text-anchor="start" x="303.5" y="-332.5" font-family="Helvetica,sans-Serif" font-size="10.00">+ ~Camera3D()</text>
<text text-anchor="start" x="303.5" y="-321.5" font-family="Helvetica,sans-Serif" font-size="10.00">+ SetCameraMode()</text>
<text text-anchor="start" x="303.5" y="-310.5" font-family="Helvetica,sans-Serif" font-size="10.00">+ BeginMode()</text>
<text text-anchor="start" x="303.5" y="-299.5" font-family="Helvetica,sans-Serif" font-size="10.00">+ EndMode()</text>
<text text-anchor="start" x="303.5" y="-288.5" font-family="Helvetica,sans-Serif" font-size="10.00">+ Update()</text>
<text text-anchor="start" x="303.5" y="-277.5" font-family="Helvetica,sans-Serif" font-size="10.00">+ GetMouseRay()</text>
<text text-anchor="start" x="303.5" y="-266.5" font-family="Helvetica,sans-Serif" font-size="10.00">+ GetCamera()</text>
<text text-anchor="start" x="303.5" y="-255.5" font-family="Helvetica,sans-Serif" font-size="10.00">+ SetPosition()</text>
<text text-anchor="start" x="303.5" y="-244.5" font-family="Helvetica,sans-Serif" font-size="10.00">+ GetPosition()</text>
<text text-anchor="start" x="303.5" y="-233.5" font-family="Helvetica,sans-Serif" font-size="10.00">+ GetTarget()</text>
<text text-anchor="start" x="303.5" y="-222.5" font-family="Helvetica,sans-Serif" font-size="10.00">+ SetTarget()</text>
<text text-anchor="start" x="303.5" y="-211.5" font-family="Helvetica,sans-Serif" font-size="10.00">+ GetWorldToScreen()</text>
</a>
</g>
</g>
<!-- Node8&#45;&gt;Node1 -->
<g id="edge9" class="edge">
<title>Node8&#45;&gt;Node1</title>
<path fill="none" stroke="#404040" d="M328.97,-204.18C325.83,-194.31 322.64,-184.44 319.5,-175 318.75,-172.75 317.99,-170.46 317.21,-168.16"/>
<polygon fill="none" stroke="#404040" points="317.12,-167.9 311.4,-163.51 313.25,-156.54 318.97,-160.93 317.12,-167.9"/>
<text text-anchor="middle" x="348" y="-178" font-family="Helvetica,sans-Serif" font-size="10.00"> &#45;_camera</text>
</g>
<!-- Node8&#45;&gt;Node8 -->
<g id="edge10" class="edge">
<title>Node8&#45;&gt;Node8</title>
<path fill="none" stroke="#404040" d="M419.55,-319.65C430.16,-316.83 437.5,-309.95 437.5,-299 437.5,-292.5 434.91,-287.43 430.59,-283.8"/>
<polygon fill="none" stroke="#404040" points="430.31,-283.66 423.16,-284.59 419.55,-278.35 426.71,-277.42 430.31,-283.66"/>
<text text-anchor="middle" x="462" y="-296.5" font-family="Helvetica,sans-Serif" font-size="10.00"> &#45;_camera</text>
</g>
<!-- Node9 -->
<g id="node9" class="node">
<title>Node9</title>
<g id="a_node9"><a xlink:href="classECS_1_1Entity.html" target="_top" xlink:title="Scene object containing components and an ID.">
<polygon fill="white" stroke="black" points="504.5,-210 504.5,-388 618.5,-388 618.5,-210 504.5,-210"/>
<text text-anchor="middle" x="561.5" y="-376" font-family="Helvetica,sans-Serif" font-size="10.00">ECS::Entity</text>
<polyline fill="none" stroke="black" points="504.5,-369 618.5,-369 "/>
<text text-anchor="start" x="512.5" y="-357" font-family="Helvetica,sans-Serif" font-size="10.00">&#45; _id</text>
<text text-anchor="start" x="512.5" y="-346" font-family="Helvetica,sans-Serif" font-size="10.00">&#45; _tag</text>
<polyline fill="none" stroke="black" points="504.5,-339 618.5,-339 "/>
<text text-anchor="start" x="512.5" y="-327" font-family="Helvetica,sans-Serif" font-size="10.00">+ Entity()</text>
<text text-anchor="start" x="512.5" y="-316" font-family="Helvetica,sans-Serif" font-size="10.00">+ Entity()</text>
<text text-anchor="start" x="512.5" y="-305" font-family="Helvetica,sans-Serif" font-size="10.00">+ ~Entity()</text>
<text text-anchor="start" x="512.5" y="-294" font-family="Helvetica,sans-Serif" font-size="10.00">+ Entity()</text>
<text text-anchor="start" x="512.5" y="-283" font-family="Helvetica,sans-Serif" font-size="10.00">+ operator=()</text>
<text text-anchor="start" x="512.5" y="-272" font-family="Helvetica,sans-Serif" font-size="10.00">+ GetComponent()</text>
<text text-anchor="start" x="512.5" y="-261" font-family="Helvetica,sans-Serif" font-size="10.00">+ OfType()</text>
<text text-anchor="start" x="512.5" y="-250" font-family="Helvetica,sans-Serif" font-size="10.00">+ GetComponents()</text>
<text text-anchor="start" x="512.5" y="-239" font-family="Helvetica,sans-Serif" font-size="10.00">+ AddComponent()</text>
<text text-anchor="start" x="512.5" y="-228" font-family="Helvetica,sans-Serif" font-size="10.00">+ AddComponent()</text>
<text text-anchor="start" x="512.5" y="-217" font-family="Helvetica,sans-Serif" font-size="10.00">and 9 more...</text>
</a>
</g>
</g>
<!-- Node9&#45;&gt;Node1 -->
<g id="edge11" class="edge">
<title>Node9&#45;&gt;Node1</title>
<path fill="none" stroke="#404040" d="M504.11,-212.54C501.3,-209.57 498.43,-206.71 495.5,-204 455.87,-167.31 403.67,-136.31 361.23,-114.41"/>
<polygon fill="none" stroke="#404040" points="361.08,-114.34 353.92,-115.19 350.39,-108.9 357.55,-108.05 361.08,-114.34"/>
<text text-anchor="middle" x="491" y="-178" font-family="Helvetica,sans-Serif" font-size="10.00"> &#45;_entity</text>
</g>
<!-- Node10 -->
<g id="node10" class="node">
<title>Node10</title>
<g id="a_node10"><a xlink:href="classECS_1_1EntityManager.html" target="_top" xlink:title="Class used to manipulate Entities (a.k.a A Scene)">
<polygon fill="white" stroke="black" points="428,-496.5 428,-641.5 543,-641.5 543,-496.5 428,-496.5"/>
<text text-anchor="middle" x="485.5" y="-629.5" font-family="Helvetica,sans-Serif" font-size="10.00">ECS::EntityManager</text>
<polyline fill="none" stroke="black" points="428,-622.5 543,-622.5 "/>
<text text-anchor="start" x="436" y="-610.5" font-family="Helvetica,sans-Serif" font-size="10.00">&#45; _available</text>
<text text-anchor="start" x="436" y="-599.5" font-family="Helvetica,sans-Serif" font-size="10.00">&#45; _max</text>
<text text-anchor="start" x="436" y="-588.5" font-family="Helvetica,sans-Serif" font-size="10.00">&#45; _entities</text>
<polyline fill="none" stroke="black" points="428,-581.5 543,-581.5 "/>
<text text-anchor="start" x="436" y="-569.5" font-family="Helvetica,sans-Serif" font-size="10.00">+ EntityManager()</text>
<text text-anchor="start" x="436" y="-558.5" font-family="Helvetica,sans-Serif" font-size="10.00">+ ~EntityManager()</text>
<text text-anchor="start" x="436" y="-547.5" font-family="Helvetica,sans-Serif" font-size="10.00">+ EntityManager()</text>
<text text-anchor="start" x="436" y="-536.5" font-family="Helvetica,sans-Serif" font-size="10.00">+ operator=()</text>
<text text-anchor="start" x="436" y="-525.5" font-family="Helvetica,sans-Serif" font-size="10.00">+ CreateEntity()</text>
<text text-anchor="start" x="436" y="-514.5" font-family="Helvetica,sans-Serif" font-size="10.00">+ DeleteEntity()</text>
<text text-anchor="start" x="436" y="-503.5" font-family="Helvetica,sans-Serif" font-size="10.00">+ GetEntities()</text>
</a>
</g>
</g>
<!-- Node10&#45;&gt;Node9 -->
<g id="edge12" class="edge">
<title>Node10&#45;&gt;Node9</title>
<path fill="none" stroke="#404040" d="M490.91,-496.33C494.16,-469.48 499.32,-438.96 507.5,-412 508.73,-407.95 510.09,-403.87 511.54,-399.78"/>
<polygon fill="none" stroke="#404040" points="511.66,-399.48 510.04,-392.45 515.9,-388.25 517.52,-395.28 511.66,-399.48"/>
<text text-anchor="middle" x="549.5" y="-426" font-family="Helvetica,sans-Serif" font-size="10.00"> &#45;_entityManager</text>
</g>
<!-- Node11 -->
<g id="node11" class="node">
<title>Node11</title>
<g id="a_node11"><a xlink:href="classECS_1_1ComponentManager.html" target="_top" xlink:title="Class used to manipulate Components.">
<polygon fill="white" stroke="black" points="561,-463.5 561,-674.5 712,-674.5 712,-463.5 561,-463.5"/>
<text text-anchor="middle" x="636.5" y="-662.5" font-family="Helvetica,sans-Serif" font-size="10.00">ECS::ComponentManager</text>
<polyline fill="none" stroke="black" points="561,-655.5 712,-655.5 "/>
<text text-anchor="start" x="569" y="-643.5" font-family="Helvetica,sans-Serif" font-size="10.00">&#45; _bases</text>
<text text-anchor="start" x="569" y="-632.5" font-family="Helvetica,sans-Serif" font-size="10.00">&#45; _components</text>
<polyline fill="none" stroke="black" points="561,-625.5 712,-625.5 "/>
<text text-anchor="start" x="569" y="-613.5" font-family="Helvetica,sans-Serif" font-size="10.00">+ ComponentManager()</text>
<text text-anchor="start" x="569" y="-602.5" font-family="Helvetica,sans-Serif" font-size="10.00">+ ~ComponentManager()</text>
<text text-anchor="start" x="569" y="-591.5" font-family="Helvetica,sans-Serif" font-size="10.00">+ ComponentManager()</text>
<text text-anchor="start" x="569" y="-580.5" font-family="Helvetica,sans-Serif" font-size="10.00">+ operator=()</text>
<text text-anchor="start" x="569" y="-569.5" font-family="Helvetica,sans-Serif" font-size="10.00">+ GetComponent()</text>
<text text-anchor="start" x="569" y="-558.5" font-family="Helvetica,sans-Serif" font-size="10.00">+ OfType()</text>
<text text-anchor="start" x="569" y="-547.5" font-family="Helvetica,sans-Serif" font-size="10.00">+ GetComponents()</text>
<text text-anchor="start" x="569" y="-536.5" font-family="Helvetica,sans-Serif" font-size="10.00">+ AddComponent()</text>
<text text-anchor="start" x="569" y="-525.5" font-family="Helvetica,sans-Serif" font-size="10.00">+ AddComponent()</text>
<text text-anchor="start" x="569" y="-514.5" font-family="Helvetica,sans-Serif" font-size="10.00">+ RemoveComponent()</text>
<text text-anchor="start" x="569" y="-503.5" font-family="Helvetica,sans-Serif" font-size="10.00">+ HasComponent()</text>
<text text-anchor="start" x="569" y="-492.5" font-family="Helvetica,sans-Serif" font-size="10.00">+ HasComponent()</text>
<text text-anchor="start" x="569" y="-481.5" font-family="Helvetica,sans-Serif" font-size="10.00">+ HasComponents()</text>
<text text-anchor="start" x="569" y="-470.5" font-family="Helvetica,sans-Serif" font-size="10.00">+ GetComponentByName()</text>
</a>
</g>
</g>
<!-- Node11&#45;&gt;Node9 -->
<g id="edge13" class="edge">
<title>Node11&#45;&gt;Node9</title>
<path fill="none" stroke="#404040" d="M607.18,-463.23C601.35,-442.4 595.24,-420.57 589.46,-399.9"/>
<polygon fill="none" stroke="#404040" points="589.42,-399.77 583.95,-395.07 586.19,-388.22 591.66,-392.92 589.42,-399.77"/>
<text text-anchor="middle" x="656.5" y="-426" font-family="Helvetica,sans-Serif" font-size="10.00"> &#45;_componentManager</text>
</g>
</g>
</svg>
