<?xml version="1.0" encoding="UTF-8" standalone="no"?>
<!DOCTYPE svg PUBLIC "-//W3C//DTD SVG 1.1//EN"
 "http://www.w3.org/Graphics/SVG/1.1/DTD/svg11.dtd">
<!-- Generated by graphviz version 2.43.0 (0)
 -->
<!-- Title: ObjectComponent Pages: 1 -->
<svg width="139pt" height="408pt"
 viewBox="0.00 0.00 139.00 408.00" xmlns="http://www.w3.org/2000/svg" xmlns:xlink="http://www.w3.org/1999/xlink">
<g id="graph0" class="graph" transform="scale(1 1) rotate(0) translate(4 404)">
<title>ObjectComponent</title>
<polygon fill="white" stroke="transparent" points="-4,4 -4,-404 135,-404 135,4 -4,4"/>
<!-- Node1 -->
<g id="node1" class="node">
<title>Node1</title>
<g id="a_node1"><a xlink:title=" ">
<polygon fill="#bfbfbf" stroke="black" points="0,-0.5 0,-123.5 131,-123.5 131,-0.5 0,-0.5"/>
<text text-anchor="middle" x="65.5" y="-111.5" font-family="Helvetica,sans-Serif" font-size="10.00">ObjectComponent</text>
<polyline fill="none" stroke="black" points="0,-104.5 131,-104.5 "/>
<text text-anchor="start" x="8" y="-92.5" font-family="Helvetica,sans-Serif" font-size="10.00">+ model</text>
<text text-anchor="start" x="8" y="-81.5" font-family="Helvetica,sans-Serif" font-size="10.00">+ texture</text>
<text text-anchor="start" x="8" y="-70.5" font-family="Helvetica,sans-Serif" font-size="10.00">+ position</text>
<text text-anchor="start" x="8" y="-59.5" font-family="Helvetica,sans-Serif" font-size="10.00">+ size</text>
<polyline fill="none" stroke="black" points="0,-52.5 131,-52.5 "/>
<text text-anchor="start" x="8" y="-40.5" font-family="Helvetica,sans-Serif" font-size="10.00">+ ObjectComponent()</text>
<text text-anchor="start" x="8" y="-29.5" font-family="Helvetica,sans-Serif" font-size="10.00">+ ~ObjectComponent()</text>
<text text-anchor="start" x="8" y="-18.5" font-family="Helvetica,sans-Serif" font-size="10.00">+ operator&lt;&lt;()</text>
<text text-anchor="start" x="8" y="-7.5" font-family="Helvetica,sans-Serif" font-size="10.00">+ operator&lt;&lt;()</text>
</a>
</g>
</g>
<!-- Node2 -->
<g id="node2" class="node">
<title>Node2</title>
<g id="a_node2"><a xlink:href="classECS_1_1IComponent.html" target="_top" xlink:title="Base Interface class to create a new component.">
<polygon fill="white" stroke="black" points="14,-160.5 14,-250.5 117,-250.5 117,-160.5 14,-160.5"/>
<text text-anchor="middle" x="65.5" y="-238.5" font-family="Helvetica,sans-Serif" font-size="10.00">ECS::IComponent</text>
<polyline fill="none" stroke="black" points="14,-231.5 117,-231.5 "/>
<text text-anchor="middle" x="65.5" y="-219.5" font-family="Helvetica,sans-Serif" font-size="10.00"> </text>
<polyline fill="none" stroke="black" points="14,-212.5 117,-212.5 "/>
<text text-anchor="start" x="22" y="-200.5" font-family="Helvetica,sans-Serif" font-size="10.00">+ IComponent()</text>
<text text-anchor="start" x="22" y="-189.5" font-family="Helvetica,sans-Serif" font-size="10.00">+ ~IComponent()</text>
<text text-anchor="start" x="22" y="-178.5" font-family="Helvetica,sans-Serif" font-size="10.00">+ IComponent()</text>
<text text-anchor="start" x="22" y="-167.5" font-family="Helvetica,sans-Serif" font-size="10.00">+ operator=()</text>
</a>
</g>
</g>
<!-- Node2&#45;&gt;Node1 -->
<g id="edge1" class="edge">
<title>Node2&#45;&gt;Node1</title>
<path fill="none" stroke="midnightblue" d="M65.5,-150.11C65.5,-141.42 65.5,-132.38 65.5,-123.56"/>
<polygon fill="none" stroke="midnightblue" points="62,-150.12 65.5,-160.12 69,-150.12 62,-150.12"/>
</g>
<!-- Node3 -->
<g id="node3" class="node">
<title>Node3</title>
<g id="a_node3"><a xlink:href="classIXMLSerializable.html" target="_top" xlink:title=" ">
<polygon fill="white" stroke="black" points="3,-287.5 3,-399.5 128,-399.5 128,-287.5 3,-287.5"/>
<text text-anchor="middle" x="65.5" y="-387.5" font-family="Helvetica,sans-Serif" font-size="10.00">IXMLSerializable</text>
<polyline fill="none" stroke="black" points="3,-380.5 128,-380.5 "/>
<text text-anchor="middle" x="65.5" y="-368.5" font-family="Helvetica,sans-Serif" font-size="10.00"> </text>
<polyline fill="none" stroke="black" points="3,-361.5 128,-361.5 "/>
<text text-anchor="start" x="11" y="-349.5" font-family="Helvetica,sans-Serif" font-size="10.00">+ IXMLSerializable()</text>
<text text-anchor="start" x="11" y="-338.5" font-family="Helvetica,sans-Serif" font-size="10.00">+ ~IXMLSerializable()</text>
<text text-anchor="start" x="11" y="-327.5" font-family="Helvetica,sans-Serif" font-size="10.00">+ IXMLSerializable()</text>
<text text-anchor="start" x="11" y="-316.5" font-family="Helvetica,sans-Serif" font-size="10.00">+ operator=()</text>
<text text-anchor="start" x="11" y="-305.5" font-family="Helvetica,sans-Serif" font-size="10.00">+ operator&lt;&lt;()</text>
<text text-anchor="start" x="11" y="-294.5" font-family="Helvetica,sans-Serif" font-size="10.00">+ operator&lt;&lt;()</text>
</a>
</g>
</g>
<!-- Node3&#45;&gt;Node2 -->
<g id="edge2" class="edge">
<title>Node3&#45;&gt;Node2</title>
<path fill="none" stroke="midnightblue" d="M65.5,-277.08C65.5,-268.07 65.5,-259.01 65.5,-250.51"/>
<polygon fill="none" stroke="midnightblue" points="62,-277.18 65.5,-287.18 69,-277.18 62,-277.18"/>
</g>
</g>
</svg>
