<?xml version="1.0" encoding="UTF-8" standalone="no"?>
<!DOCTYPE svg PUBLIC "-//W3C//DTD SVG 1.1//EN"
 "http://www.w3.org/Graphics/SVG/1.1/DTD/svg11.dtd">
<!-- Generated by graphviz version 2.43.0 (0)
 -->
<!-- Title: RayLib::BoundingBox Pages: 1 -->
<svg width="204pt" height="508pt"
 viewBox="0.00 0.00 204.00 508.00" xmlns="http://www.w3.org/2000/svg" xmlns:xlink="http://www.w3.org/1999/xlink">
<g id="graph0" class="graph" transform="scale(1 1) rotate(0) translate(4 504)">
<title>RayLib::BoundingBox</title>
<polygon fill="white" stroke="transparent" points="-4,4 -4,-504 200,-504 200,4 -4,4"/>
<!-- Node1 -->
<g id="node1" class="node">
<title>Node1</title>
<g id="a_node1"><a xlink:title="Boundingbox encapsulation.">
<polygon fill="#bfbfbf" stroke="black" points="19.5,-0.5 19.5,-123.5 139.5,-123.5 139.5,-0.5 19.5,-0.5"/>
<text text-anchor="middle" x="79.5" y="-111.5" font-family="Helvetica,sans-Serif" font-size="10.00">RayLib::BoundingBox</text>
<polyline fill="none" stroke="black" points="19.5,-104.5 139.5,-104.5 "/>
<text text-anchor="middle" x="79.5" y="-92.5" font-family="Helvetica,sans-Serif" font-size="10.00"> </text>
<polyline fill="none" stroke="black" points="19.5,-85.5 139.5,-85.5 "/>
<text text-anchor="start" x="27.5" y="-73.5" font-family="Helvetica,sans-Serif" font-size="10.00">+ BoundingBox()</text>
<text text-anchor="start" x="27.5" y="-62.5" font-family="Helvetica,sans-Serif" font-size="10.00">+ BoundingBox()</text>
<text text-anchor="start" x="27.5" y="-51.5" font-family="Helvetica,sans-Serif" font-size="10.00">+ ~BoundingBox()</text>
<text text-anchor="start" x="27.5" y="-40.5" font-family="Helvetica,sans-Serif" font-size="10.00">+ InitFromCube()</text>
<text text-anchor="start" x="27.5" y="-29.5" font-family="Helvetica,sans-Serif" font-size="10.00">+ operator=()</text>
<text text-anchor="start" x="27.5" y="-18.5" font-family="Helvetica,sans-Serif" font-size="10.00">+ GetBounds()</text>
<text text-anchor="start" x="27.5" y="-7.5" font-family="Helvetica,sans-Serif" font-size="10.00">+ GetCenter()</text>
</a>
</g>
</g>
<!-- Node2 -->
<g id="node2" class="node">
<title>Node2</title>
<g id="a_node2"><a xlink:href="classRayLib_1_1Vector3.html" target="_top" xlink:title="Vector3 encapsulation.">
<polygon fill="white" stroke="black" points="33.5,-182.5 33.5,-349.5 125.5,-349.5 125.5,-182.5 33.5,-182.5"/>
<text text-anchor="middle" x="79.5" y="-337.5" font-family="Helvetica,sans-Serif" font-size="10.00">RayLib::Vector3</text>
<polyline fill="none" stroke="black" points="33.5,-330.5 125.5,-330.5 "/>
<text text-anchor="middle" x="79.5" y="-318.5" font-family="Helvetica,sans-Serif" font-size="10.00"> </text>
<polyline fill="none" stroke="black" points="33.5,-311.5 125.5,-311.5 "/>
<text text-anchor="start" x="41.5" y="-299.5" font-family="Helvetica,sans-Serif" font-size="10.00">+ Vector3()</text>
<text text-anchor="start" x="41.5" y="-288.5" font-family="Helvetica,sans-Serif" font-size="10.00">+ Vector3()</text>
<text text-anchor="start" x="41.5" y="-277.5" font-family="Helvetica,sans-Serif" font-size="10.00">+ Vector3()</text>
<text text-anchor="start" x="41.5" y="-266.5" font-family="Helvetica,sans-Serif" font-size="10.00">+ Vector3()</text>
<text text-anchor="start" x="41.5" y="-255.5" font-family="Helvetica,sans-Serif" font-size="10.00">+ Vector3()</text>
<text text-anchor="start" x="41.5" y="-244.5" font-family="Helvetica,sans-Serif" font-size="10.00">+ Vector3()</text>
<text text-anchor="start" x="41.5" y="-233.5" font-family="Helvetica,sans-Serif" font-size="10.00">+ ~Vector3()</text>
<text text-anchor="start" x="41.5" y="-222.5" font-family="Helvetica,sans-Serif" font-size="10.00">+ getVector3()</text>
<text text-anchor="start" x="41.5" y="-211.5" font-family="Helvetica,sans-Serif" font-size="10.00">+ operator=()</text>
<text text-anchor="start" x="41.5" y="-200.5" font-family="Helvetica,sans-Serif" font-size="10.00">+ operator*=()</text>
<text text-anchor="start" x="41.5" y="-189.5" font-family="Helvetica,sans-Serif" font-size="10.00">and 13 more...</text>
</a>
</g>
</g>
<!-- Node2&#45;&gt;Node1 -->
<g id="edge1" class="edge">
<title>Node2&#45;&gt;Node1</title>
<path fill="none" stroke="#404040" d="M79.5,-182.26C79.5,-166.93 79.5,-151.03 79.5,-136.03"/>
<polygon fill="none" stroke="#404040" points="79.5,-135.66 75.5,-129.66 79.5,-123.66 83.5,-129.66 79.5,-135.66"/>
<text text-anchor="middle" x="112.5" y="-156" font-family="Helvetica,sans-Serif" font-size="10.00"> &#45;_maxVertex</text>
<text text-anchor="middle" x="112.5" y="-145" font-family="Helvetica,sans-Serif" font-size="10.00">&#45;_minVertex</text>
</g>
<!-- Node3 -->
<g id="node3" class="node">
<title>Node3</title>
<g id="a_node3"><a xlink:title=" ">
<polygon fill="white" stroke="#bfbfbf" points="0,-415 0,-472 53,-472 53,-415 0,-415"/>
<text text-anchor="middle" x="26.5" y="-460" font-family="Helvetica,sans-Serif" font-size="10.00">Vector3</text>
<polyline fill="none" stroke="#bfbfbf" points="0,-453 53,-453 "/>
<text text-anchor="middle" x="26.5" y="-441" font-family="Helvetica,sans-Serif" font-size="10.00"> </text>
<polyline fill="none" stroke="#bfbfbf" points="0,-434 53,-434 "/>
<text text-anchor="middle" x="26.5" y="-422" font-family="Helvetica,sans-Serif" font-size="10.00"> </text>
</a>
</g>
</g>
<!-- Node3&#45;&gt;Node2 -->
<g id="edge2" class="edge">
<title>Node3&#45;&gt;Node2</title>
<path fill="none" stroke="midnightblue" d="M37.81,-405.05C42.72,-388.8 48.68,-369.07 54.54,-349.67"/>
<polygon fill="none" stroke="midnightblue" points="34.44,-404.11 34.9,-414.69 41.14,-406.13 34.44,-404.11"/>
</g>
<!-- Node4 -->
<g id="node4" class="node">
<title>Node4</title>
<g id="a_node4"><a xlink:href="classIXMLSerializable.html" target="_top" xlink:title=" ">
<polygon fill="white" stroke="black" points="71,-387.5 71,-499.5 196,-499.5 196,-387.5 71,-387.5"/>
<text text-anchor="middle" x="133.5" y="-487.5" font-family="Helvetica,sans-Serif" font-size="10.00">IXMLSerializable</text>
<polyline fill="none" stroke="black" points="71,-480.5 196,-480.5 "/>
<text text-anchor="middle" x="133.5" y="-468.5" font-family="Helvetica,sans-Serif" font-size="10.00"> </text>
<polyline fill="none" stroke="black" points="71,-461.5 196,-461.5 "/>
<text text-anchor="start" x="79" y="-449.5" font-family="Helvetica,sans-Serif" font-size="10.00">+ IXMLSerializable()</text>
<text text-anchor="start" x="79" y="-438.5" font-family="Helvetica,sans-Serif" font-size="10.00">+ ~IXMLSerializable()</text>
<text text-anchor="start" x="79" y="-427.5" font-family="Helvetica,sans-Serif" font-size="10.00">+ IXMLSerializable()</text>
<text text-anchor="start" x="79" y="-416.5" font-family="Helvetica,sans-Serif" font-size="10.00">+ operator=()</text>
<text text-anchor="start" x="79" y="-405.5" font-family="Helvetica,sans-Serif" font-size="10.00">+ operator&lt;&lt;()</text>
<text text-anchor="start" x="79" y="-394.5" font-family="Helvetica,sans-Serif" font-size="10.00">+ operator&lt;&lt;()</text>
</a>
</g>
</g>
<!-- Node4&#45;&gt;Node2 -->
<g id="edge3" class="edge">
<title>Node4&#45;&gt;Node2</title>
<path fill="none" stroke="midnightblue" d="M113.57,-377.74C110.77,-368.64 107.87,-359.19 104.98,-349.81"/>
<polygon fill="none" stroke="midnightblue" points="110.28,-378.92 116.56,-387.45 116.97,-376.87 110.28,-378.92"/>
</g>
</g>
</svg>
