<?xml version="1.0" encoding="UTF-8" standalone="no"?>
<!DOCTYPE svg PUBLIC "-//W3C//DTD SVG 1.1//EN"
 "http://www.w3.org/Graphics/SVG/1.1/DTD/svg11.dtd">
<!-- Generated by graphviz version 2.43.0 (0)
 -->
<!-- Title: Component::APickUp Pages: 1 -->
<svg width="475pt" height="794pt"
 viewBox="0.00 0.00 474.50 794.00" xmlns="http://www.w3.org/2000/svg" xmlns:xlink="http://www.w3.org/1999/xlink">
<g id="graph0" class="graph" transform="scale(1 1) rotate(0) translate(4 790)">
<title>Component::APickUp</title>
<polygon fill="white" stroke="transparent" points="-4,4 -4,-790 470.5,-790 470.5,4 -4,4"/>
<!-- Node1 -->
<g id="node1" class="node">
<title>Node1</title>
<g id="a_node1"><a xlink:title=" ">
<polygon fill="#bfbfbf" stroke="black" points="183.5,-182.5 183.5,-349.5 302.5,-349.5 302.5,-182.5 183.5,-182.5"/>
<text text-anchor="middle" x="243" y="-337.5" font-family="Helvetica,sans-Serif" font-size="10.00">Component::APickUp</text>
<polyline fill="none" stroke="black" points="183.5,-330.5 302.5,-330.5 "/>
<text text-anchor="start" x="191.5" y="-318.5" font-family="Helvetica,sans-Serif" font-size="10.00"># _entity</text>
<text text-anchor="start" x="191.5" y="-307.5" font-family="Helvetica,sans-Serif" font-size="10.00"># _pickupRadius</text>
<text text-anchor="start" x="191.5" y="-296.5" font-family="Helvetica,sans-Serif" font-size="10.00"># _coordinator</text>
<polyline fill="none" stroke="black" points="183.5,-289.5 302.5,-289.5 "/>
<text text-anchor="start" x="191.5" y="-277.5" font-family="Helvetica,sans-Serif" font-size="10.00">+ APickUp()</text>
<text text-anchor="start" x="191.5" y="-266.5" font-family="Helvetica,sans-Serif" font-size="10.00">+ ~APickUp()</text>
<text text-anchor="start" x="191.5" y="-255.5" font-family="Helvetica,sans-Serif" font-size="10.00">+ APickUp()</text>
<text text-anchor="start" x="191.5" y="-244.5" font-family="Helvetica,sans-Serif" font-size="10.00">+ operator=()</text>
<text text-anchor="start" x="191.5" y="-233.5" font-family="Helvetica,sans-Serif" font-size="10.00">+ OnPickup()</text>
<text text-anchor="start" x="191.5" y="-222.5" font-family="Helvetica,sans-Serif" font-size="10.00">+ Update()</text>
<text text-anchor="start" x="191.5" y="-211.5" font-family="Helvetica,sans-Serif" font-size="10.00">+ FixedUpdate()</text>
<text text-anchor="start" x="191.5" y="-200.5" font-family="Helvetica,sans-Serif" font-size="10.00">+ LateUpdate()</text>
<text text-anchor="start" x="191.5" y="-189.5" font-family="Helvetica,sans-Serif" font-size="10.00"># getPlayerNbr()</text>
</a>
</g>
</g>
<!-- Node5 -->
<g id="node5" class="node">
<title>Node5</title>
<g id="a_node5"><a xlink:href="classComponent_1_1CoolDownBoost.html" target="_top" xlink:title=" ">
<polygon fill="white" stroke="black" points="0,-0.5 0,-145.5 156,-145.5 156,-0.5 0,-0.5"/>
<text text-anchor="middle" x="78" y="-133.5" font-family="Helvetica,sans-Serif" font-size="10.00">Component::CoolDownBoost</text>
<polyline fill="none" stroke="black" points="0,-126.5 156,-126.5 "/>
<text text-anchor="middle" x="78" y="-114.5" font-family="Helvetica,sans-Serif" font-size="10.00"> </text>
<polyline fill="none" stroke="black" points="0,-107.5 156,-107.5 "/>
<text text-anchor="start" x="8" y="-95.5" font-family="Helvetica,sans-Serif" font-size="10.00">+ CoolDownBoost()</text>
<text text-anchor="start" x="8" y="-84.5" font-family="Helvetica,sans-Serif" font-size="10.00">+ ~CoolDownBoost()</text>
<text text-anchor="start" x="8" y="-73.5" font-family="Helvetica,sans-Serif" font-size="10.00">+ CoolDownBoost()</text>
<text text-anchor="start" x="8" y="-62.5" font-family="Helvetica,sans-Serif" font-size="10.00">+ operator=()</text>
<text text-anchor="start" x="8" y="-51.5" font-family="Helvetica,sans-Serif" font-size="10.00">+ OnPickup()</text>
<text text-anchor="start" x="8" y="-40.5" font-family="Helvetica,sans-Serif" font-size="10.00">+ DecrementCooldown()</text>
<text text-anchor="start" x="8" y="-29.5" font-family="Helvetica,sans-Serif" font-size="10.00">+ LateUpdate()</text>
<text text-anchor="start" x="8" y="-18.5" font-family="Helvetica,sans-Serif" font-size="10.00">+ operator&lt;&lt;()</text>
<text text-anchor="start" x="8" y="-7.5" font-family="Helvetica,sans-Serif" font-size="10.00">+ operator&lt;&lt;()</text>
</a>
</g>
</g>
<!-- Node1&#45;&gt;Node5 -->
<g id="edge4" class="edge">
<title>Node1&#45;&gt;Node5</title>
<path fill="none" stroke="midnightblue" d="M176.75,-188.31C164.61,-174.26 151.99,-159.65 139.98,-145.75"/>
<polygon fill="none" stroke="midnightblue" points="174.25,-190.77 183.43,-196.04 179.54,-186.19 174.25,-190.77"/>
</g>
<!-- Node6 -->
<g id="node6" class="node">
<title>Node6</title>
<g id="a_node6"><a xlink:href="classComponent_1_1RangeBoost.html" target="_top" xlink:title=" ">
<polygon fill="white" stroke="black" points="174.5,-0.5 174.5,-145.5 311.5,-145.5 311.5,-0.5 174.5,-0.5"/>
<text text-anchor="middle" x="243" y="-133.5" font-family="Helvetica,sans-Serif" font-size="10.00">Component::RangeBoost</text>
<polyline fill="none" stroke="black" points="174.5,-126.5 311.5,-126.5 "/>
<text text-anchor="middle" x="243" y="-114.5" font-family="Helvetica,sans-Serif" font-size="10.00"> </text>
<polyline fill="none" stroke="black" points="174.5,-107.5 311.5,-107.5 "/>
<text text-anchor="start" x="182.5" y="-95.5" font-family="Helvetica,sans-Serif" font-size="10.00">+ RangeBoost()</text>
<text text-anchor="start" x="182.5" y="-84.5" font-family="Helvetica,sans-Serif" font-size="10.00">+ ~RangeBoost()</text>
<text text-anchor="start" x="182.5" y="-73.5" font-family="Helvetica,sans-Serif" font-size="10.00">+ RangeBoost()</text>
<text text-anchor="start" x="182.5" y="-62.5" font-family="Helvetica,sans-Serif" font-size="10.00">+ operator=()</text>
<text text-anchor="start" x="182.5" y="-51.5" font-family="Helvetica,sans-Serif" font-size="10.00">+ OnPickup()</text>
<text text-anchor="start" x="182.5" y="-40.5" font-family="Helvetica,sans-Serif" font-size="10.00">+ IncrementRange()</text>
<text text-anchor="start" x="182.5" y="-29.5" font-family="Helvetica,sans-Serif" font-size="10.00">+ LateUpdate()</text>
<text text-anchor="start" x="182.5" y="-18.5" font-family="Helvetica,sans-Serif" font-size="10.00">+ operator&lt;&lt;()</text>
<text text-anchor="start" x="182.5" y="-7.5" font-family="Helvetica,sans-Serif" font-size="10.00">+ operator&lt;&lt;()</text>
</a>
</g>
</g>
<!-- Node1&#45;&gt;Node6 -->
<g id="edge5" class="edge">
<title>Node1&#45;&gt;Node6</title>
<path fill="none" stroke="midnightblue" d="M243,-172.28C243,-163.35 243,-154.38 243,-145.7"/>
<polygon fill="none" stroke="midnightblue" points="239.5,-172.34 243,-182.34 246.5,-172.34 239.5,-172.34"/>
</g>
<!-- Node7 -->
<g id="node7" class="node">
<title>Node7</title>
<g id="a_node7"><a xlink:href="classComponent_1_1SpeedBoost.html" target="_top" xlink:title=" ">
<polygon fill="white" stroke="black" points="329.5,-0.5 329.5,-145.5 466.5,-145.5 466.5,-0.5 329.5,-0.5"/>
<text text-anchor="middle" x="398" y="-133.5" font-family="Helvetica,sans-Serif" font-size="10.00">Component::SpeedBoost</text>
<polyline fill="none" stroke="black" points="329.5,-126.5 466.5,-126.5 "/>
<text text-anchor="middle" x="398" y="-114.5" font-family="Helvetica,sans-Serif" font-size="10.00"> </text>
<polyline fill="none" stroke="black" points="329.5,-107.5 466.5,-107.5 "/>
<text text-anchor="start" x="337.5" y="-95.5" font-family="Helvetica,sans-Serif" font-size="10.00">+ SpeedBoost()</text>
<text text-anchor="start" x="337.5" y="-84.5" font-family="Helvetica,sans-Serif" font-size="10.00">+ ~SpeedBoost()</text>
<text text-anchor="start" x="337.5" y="-73.5" font-family="Helvetica,sans-Serif" font-size="10.00">+ SpeedBoost()</text>
<text text-anchor="start" x="337.5" y="-62.5" font-family="Helvetica,sans-Serif" font-size="10.00">+ operator=()</text>
<text text-anchor="start" x="337.5" y="-51.5" font-family="Helvetica,sans-Serif" font-size="10.00">+ OnPickup()</text>
<text text-anchor="start" x="337.5" y="-40.5" font-family="Helvetica,sans-Serif" font-size="10.00">+ ApplyBoost()</text>
<text text-anchor="start" x="337.5" y="-29.5" font-family="Helvetica,sans-Serif" font-size="10.00">+ LateUpdate()</text>
<text text-anchor="start" x="337.5" y="-18.5" font-family="Helvetica,sans-Serif" font-size="10.00">+ operator&lt;&lt;()</text>
<text text-anchor="start" x="337.5" y="-7.5" font-family="Helvetica,sans-Serif" font-size="10.00">+ operator&lt;&lt;()</text>
</a>
</g>
</g>
<!-- Node1&#45;&gt;Node7 -->
<g id="edge6" class="edge">
<title>Node1&#45;&gt;Node7</title>
<path fill="none" stroke="midnightblue" d="M309.04,-183.62C319.29,-171 329.8,-158.04 339.86,-145.65"/>
<polygon fill="none" stroke="midnightblue" points="306.29,-181.46 302.71,-191.43 311.72,-185.87 306.29,-181.46"/>
</g>
<!-- Node2 -->
<g id="node2" class="node">
<title>Node2</title>
<g id="a_node2"><a xlink:href="classComponent_1_1IBehaviour.html" target="_top" xlink:title="IBehaviour base component (CF Monobehaviour class in Unity)">
<polygon fill="white" stroke="black" points="177.5,-386.5 177.5,-509.5 308.5,-509.5 308.5,-386.5 177.5,-386.5"/>
<text text-anchor="middle" x="243" y="-497.5" font-family="Helvetica,sans-Serif" font-size="10.00">Component::IBehaviour</text>
<polyline fill="none" stroke="black" points="177.5,-490.5 308.5,-490.5 "/>
<text text-anchor="middle" x="243" y="-478.5" font-family="Helvetica,sans-Serif" font-size="10.00"> </text>
<polyline fill="none" stroke="black" points="177.5,-471.5 308.5,-471.5 "/>
<text text-anchor="start" x="185.5" y="-459.5" font-family="Helvetica,sans-Serif" font-size="10.00">+ IBehaviour()</text>
<text text-anchor="start" x="185.5" y="-448.5" font-family="Helvetica,sans-Serif" font-size="10.00">+ ~IBehaviour()</text>
<text text-anchor="start" x="185.5" y="-437.5" font-family="Helvetica,sans-Serif" font-size="10.00">+ IBehaviour()</text>
<text text-anchor="start" x="185.5" y="-426.5" font-family="Helvetica,sans-Serif" font-size="10.00">+ operator=()</text>
<text text-anchor="start" x="185.5" y="-415.5" font-family="Helvetica,sans-Serif" font-size="10.00">+ Update()</text>
<text text-anchor="start" x="185.5" y="-404.5" font-family="Helvetica,sans-Serif" font-size="10.00">+ FixedUpdate()</text>
<text text-anchor="start" x="185.5" y="-393.5" font-family="Helvetica,sans-Serif" font-size="10.00">+ LateUpdate()</text>
</a>
</g>
</g>
<!-- Node2&#45;&gt;Node1 -->
<g id="edge1" class="edge">
<title>Node2&#45;&gt;Node1</title>
<path fill="none" stroke="midnightblue" d="M243,-376.25C243,-367.57 243,-358.63 243,-349.79"/>
<polygon fill="none" stroke="midnightblue" points="239.5,-376.31 243,-386.31 246.5,-376.31 239.5,-376.31"/>
</g>
<!-- Node3 -->
<g id="node3" class="node">
<title>Node3</title>
<g id="a_node3"><a xlink:href="classECS_1_1IComponent.html" target="_top" xlink:title="Base Interface class to create a new component.">
<polygon fill="white" stroke="black" points="191.5,-546.5 191.5,-636.5 294.5,-636.5 294.5,-546.5 191.5,-546.5"/>
<text text-anchor="middle" x="243" y="-624.5" font-family="Helvetica,sans-Serif" font-size="10.00">ECS::IComponent</text>
<polyline fill="none" stroke="black" points="191.5,-617.5 294.5,-617.5 "/>
<text text-anchor="middle" x="243" y="-605.5" font-family="Helvetica,sans-Serif" font-size="10.00"> </text>
<polyline fill="none" stroke="black" points="191.5,-598.5 294.5,-598.5 "/>
<text text-anchor="start" x="199.5" y="-586.5" font-family="Helvetica,sans-Serif" font-size="10.00">+ IComponent()</text>
<text text-anchor="start" x="199.5" y="-575.5" font-family="Helvetica,sans-Serif" font-size="10.00">+ ~IComponent()</text>
<text text-anchor="start" x="199.5" y="-564.5" font-family="Helvetica,sans-Serif" font-size="10.00">+ IComponent()</text>
<text text-anchor="start" x="199.5" y="-553.5" font-family="Helvetica,sans-Serif" font-size="10.00">+ operator=()</text>
</a>
</g>
</g>
<!-- Node3&#45;&gt;Node2 -->
<g id="edge2" class="edge">
<title>Node3&#45;&gt;Node2</title>
<path fill="none" stroke="midnightblue" d="M243,-536.11C243,-527.42 243,-518.38 243,-509.56"/>
<polygon fill="none" stroke="midnightblue" points="239.5,-536.12 243,-546.12 246.5,-536.12 239.5,-536.12"/>
</g>
<!-- Node4 -->
<g id="node4" class="node">
<title>Node4</title>
<g id="a_node4"><a xlink:href="classIXMLSerializable.html" target="_top" xlink:title=" ">
<polygon fill="white" stroke="black" points="180.5,-673.5 180.5,-785.5 305.5,-785.5 305.5,-673.5 180.5,-673.5"/>
<text text-anchor="middle" x="243" y="-773.5" font-family="Helvetica,sans-Serif" font-size="10.00">IXMLSerializable</text>
<polyline fill="none" stroke="black" points="180.5,-766.5 305.5,-766.5 "/>
<text text-anchor="middle" x="243" y="-754.5" font-family="Helvetica,sans-Serif" font-size="10.00"> </text>
<polyline fill="none" stroke="black" points="180.5,-747.5 305.5,-747.5 "/>
<text text-anchor="start" x="188.5" y="-735.5" font-family="Helvetica,sans-Serif" font-size="10.00">+ IXMLSerializable()</text>
<text text-anchor="start" x="188.5" y="-724.5" font-family="Helvetica,sans-Serif" font-size="10.00">+ ~IXMLSerializable()</text>
<text text-anchor="start" x="188.5" y="-713.5" font-family="Helvetica,sans-Serif" font-size="10.00">+ IXMLSerializable()</text>
<text text-anchor="start" x="188.5" y="-702.5" font-family="Helvetica,sans-Serif" font-size="10.00">+ operator=()</text>
<text text-anchor="start" x="188.5" y="-691.5" font-family="Helvetica,sans-Serif" font-size="10.00">+ operator&lt;&lt;()</text>
<text text-anchor="start" x="188.5" y="-680.5" font-family="Helvetica,sans-Serif" font-size="10.00">+ operator&lt;&lt;()</text>
</a>
</g>
</g>
<!-- Node4&#45;&gt;Node3 -->
<g id="edge3" class="edge">
<title>Node4&#45;&gt;Node3</title>
<path fill="none" stroke="midnightblue" d="M243,-663.08C243,-654.07 243,-645.01 243,-636.51"/>
<polygon fill="none" stroke="midnightblue" points="239.5,-663.18 243,-673.18 246.5,-663.18 239.5,-663.18"/>
</g>
</g>
</svg>
