<?xml version="1.0" encoding="UTF-8" standalone="no"?>
<!DOCTYPE svg PUBLIC "-//W3C//DTD SVG 1.1//EN"
 "http://www.w3.org/Graphics/SVG/1.1/DTD/svg11.dtd">
<!-- Generated by graphviz version 2.43.0 (0)
 -->
<!-- Title: Component::HUDText Pages: 1 -->
<svg width="537pt" height="1512pt"
 viewBox="0.00 0.00 537.00 1512.00" xmlns="http://www.w3.org/2000/svg" xmlns:xlink="http://www.w3.org/1999/xlink">
<g id="graph0" class="graph" transform="scale(1 1) rotate(0) translate(4 1508)">
<title>Component::HUDText</title>
<polygon fill="white" stroke="transparent" points="-4,4 -4,-1508 533,-1508 533,4 -4,4"/>
<!-- Node1 -->
<g id="node1" class="node">
<title>Node1</title>
<g id="a_node1"><a xlink:title=" ">
<polygon fill="#bfbfbf" stroke="black" points="114.5,-0.5 114.5,-145.5 236.5,-145.5 236.5,-0.5 114.5,-0.5"/>
<text text-anchor="middle" x="175.5" y="-133.5" font-family="Helvetica,sans-Serif" font-size="10.00">Component::HUDText</text>
<polyline fill="none" stroke="black" points="114.5,-126.5 236.5,-126.5 "/>
<text text-anchor="middle" x="175.5" y="-114.5" font-family="Helvetica,sans-Serif" font-size="10.00"> </text>
<polyline fill="none" stroke="black" points="114.5,-107.5 236.5,-107.5 "/>
<text text-anchor="start" x="122.5" y="-95.5" font-family="Helvetica,sans-Serif" font-size="10.00">+ HUDText()</text>
<text text-anchor="start" x="122.5" y="-84.5" font-family="Helvetica,sans-Serif" font-size="10.00">+ ~HUDText()</text>
<text text-anchor="start" x="122.5" y="-73.5" font-family="Helvetica,sans-Serif" font-size="10.00">+ HUDText()</text>
<text text-anchor="start" x="122.5" y="-62.5" font-family="Helvetica,sans-Serif" font-size="10.00">+ operator=()</text>
<text text-anchor="start" x="122.5" y="-51.5" font-family="Helvetica,sans-Serif" font-size="10.00">+ Update()</text>
<text text-anchor="start" x="122.5" y="-40.5" font-family="Helvetica,sans-Serif" font-size="10.00">+ FixedUpdate()</text>
<text text-anchor="start" x="122.5" y="-29.5" font-family="Helvetica,sans-Serif" font-size="10.00">+ LateUpdate()</text>
<text text-anchor="start" x="122.5" y="-18.5" font-family="Helvetica,sans-Serif" font-size="10.00">+ operator&lt;&lt;()</text>
<text text-anchor="start" x="122.5" y="-7.5" font-family="Helvetica,sans-Serif" font-size="10.00">+ operator&lt;&lt;()</text>
</a>
</g>
</g>
<!-- Node2 -->
<g id="node2" class="node">
<title>Node2</title>
<g id="a_node2"><a xlink:href="classComponent_1_1HUD.html" target="_top" xlink:title="HUD base component class.">
<polygon fill="white" stroke="black" points="98,-183.5 98,-339.5 253,-339.5 253,-183.5 98,-183.5"/>
<text text-anchor="middle" x="175.5" y="-327.5" font-family="Helvetica,sans-Serif" font-size="10.00">Component::HUD</text>
<polyline fill="none" stroke="black" points="98,-320.5 253,-320.5 "/>
<text text-anchor="middle" x="175.5" y="-308.5" font-family="Helvetica,sans-Serif" font-size="10.00"> </text>
<polyline fill="none" stroke="black" points="98,-301.5 253,-301.5 "/>
<text text-anchor="start" x="106" y="-289.5" font-family="Helvetica,sans-Serif" font-size="10.00">+ HUD()</text>
<text text-anchor="start" x="106" y="-278.5" font-family="Helvetica,sans-Serif" font-size="10.00">+ ~HUD()</text>
<text text-anchor="start" x="106" y="-267.5" font-family="Helvetica,sans-Serif" font-size="10.00">+ HUD()</text>
<text text-anchor="start" x="106" y="-256.5" font-family="Helvetica,sans-Serif" font-size="10.00">+ operator=()</text>
<text text-anchor="start" x="106" y="-245.5" font-family="Helvetica,sans-Serif" font-size="10.00">+ getOffset()</text>
<text text-anchor="start" x="106" y="-234.5" font-family="Helvetica,sans-Serif" font-size="10.00">+ getAController()</text>
<text text-anchor="start" x="106" y="-223.5" font-family="Helvetica,sans-Serif" font-size="10.00">+ Update()</text>
<text text-anchor="start" x="106" y="-212.5" font-family="Helvetica,sans-Serif" font-size="10.00">+ FixedUpdate()</text>
<text text-anchor="start" x="106" y="-201.5" font-family="Helvetica,sans-Serif" font-size="10.00">+ LateUpdate()</text>
<text text-anchor="start" x="106" y="-190.5" font-family="Helvetica,sans-Serif" font-size="10.00">+ GetOffsetFromPlayerNbr()</text>
</a>
</g>
</g>
<!-- Node2&#45;&gt;Node1 -->
<g id="edge1" class="edge">
<title>Node2&#45;&gt;Node1</title>
<path fill="none" stroke="midnightblue" d="M175.5,-173.03C175.5,-163.9 175.5,-154.69 175.5,-145.76"/>
<polygon fill="none" stroke="midnightblue" points="172,-173.3 175.5,-183.3 179,-173.3 172,-173.3"/>
</g>
<!-- Node3 -->
<g id="node3" class="node">
<title>Node3</title>
<g id="a_node3"><a xlink:href="classComponent_1_1IBehaviour.html" target="_top" xlink:title="IBehaviour base component (CF Monobehaviour class in Unity)">
<polygon fill="white" stroke="black" points="0,-944 0,-1067 131,-1067 131,-944 0,-944"/>
<text text-anchor="middle" x="65.5" y="-1055" font-family="Helvetica,sans-Serif" font-size="10.00">Component::IBehaviour</text>
<polyline fill="none" stroke="black" points="0,-1048 131,-1048 "/>
<text text-anchor="middle" x="65.5" y="-1036" font-family="Helvetica,sans-Serif" font-size="10.00"> </text>
<polyline fill="none" stroke="black" points="0,-1029 131,-1029 "/>
<text text-anchor="start" x="8" y="-1017" font-family="Helvetica,sans-Serif" font-size="10.00">+ IBehaviour()</text>
<text text-anchor="start" x="8" y="-1006" font-family="Helvetica,sans-Serif" font-size="10.00">+ ~IBehaviour()</text>
<text text-anchor="start" x="8" y="-995" font-family="Helvetica,sans-Serif" font-size="10.00">+ IBehaviour()</text>
<text text-anchor="start" x="8" y="-984" font-family="Helvetica,sans-Serif" font-size="10.00">+ operator=()</text>
<text text-anchor="start" x="8" y="-973" font-family="Helvetica,sans-Serif" font-size="10.00">+ Update()</text>
<text text-anchor="start" x="8" y="-962" font-family="Helvetica,sans-Serif" font-size="10.00">+ FixedUpdate()</text>
<text text-anchor="start" x="8" y="-951" font-family="Helvetica,sans-Serif" font-size="10.00">+ LateUpdate()</text>
</a>
</g>
</g>
<!-- Node3&#45;&gt;Node2 -->
<g id="edge2" class="edge">
<title>Node3&#45;&gt;Node2</title>
<path fill="none" stroke="midnightblue" d="M54.91,-933.91C52.4,-913.06 50.23,-890.16 49.5,-869 42.09,-653.76 16.78,-585.85 99.5,-387 106.11,-371.1 114.58,-354.86 123.44,-339.59"/>
<polygon fill="none" stroke="midnightblue" points="51.46,-934.47 56.17,-943.96 58.4,-933.6 51.46,-934.47"/>
</g>
<!-- Node6 -->
<g id="node6" class="node">
<title>Node6</title>
<g id="a_node6"><a xlink:href="classComponent_1_1AController.html" target="_top" xlink:title=" ">
<polygon fill="white" stroke="black" points="108.5,-387.5 108.5,-543.5 242.5,-543.5 242.5,-387.5 108.5,-387.5"/>
<text text-anchor="middle" x="175.5" y="-531.5" font-family="Helvetica,sans-Serif" font-size="10.00">Component::AController</text>
<polyline fill="none" stroke="black" points="108.5,-524.5 242.5,-524.5 "/>
<text text-anchor="middle" x="175.5" y="-512.5" font-family="Helvetica,sans-Serif" font-size="10.00"> </text>
<polyline fill="none" stroke="black" points="108.5,-505.5 242.5,-505.5 "/>
<text text-anchor="start" x="116.5" y="-493.5" font-family="Helvetica,sans-Serif" font-size="10.00">+ AController()</text>
<text text-anchor="start" x="116.5" y="-482.5" font-family="Helvetica,sans-Serif" font-size="10.00">+ ~AController()</text>
<text text-anchor="start" x="116.5" y="-471.5" font-family="Helvetica,sans-Serif" font-size="10.00">+ AController()</text>
<text text-anchor="start" x="116.5" y="-460.5" font-family="Helvetica,sans-Serif" font-size="10.00">+ operator=()</text>
<text text-anchor="start" x="116.5" y="-449.5" font-family="Helvetica,sans-Serif" font-size="10.00">+ GetMovement()</text>
<text text-anchor="start" x="116.5" y="-438.5" font-family="Helvetica,sans-Serif" font-size="10.00">+ GetDropBomb()</text>
<text text-anchor="start" x="116.5" y="-427.5" font-family="Helvetica,sans-Serif" font-size="10.00">+ GetAController()</text>
<text text-anchor="start" x="116.5" y="-416.5" font-family="Helvetica,sans-Serif" font-size="10.00">+ Update()</text>
<text text-anchor="start" x="116.5" y="-405.5" font-family="Helvetica,sans-Serif" font-size="10.00">+ FixedUpdate()</text>
<text text-anchor="start" x="116.5" y="-394.5" font-family="Helvetica,sans-Serif" font-size="10.00">+ LateUpdate()</text>
</a>
</g>
</g>
<!-- Node3&#45;&gt;Node6 -->
<g id="edge6" class="edge">
<title>Node3&#45;&gt;Node6</title>
<path fill="none" stroke="midnightblue" d="M57.61,-933.74C50.83,-849.54 47.6,-705.9 87.5,-591 93.19,-574.62 101.72,-558.48 111.28,-543.51"/>
<polygon fill="none" stroke="midnightblue" points="54.14,-934.29 58.47,-943.96 61.12,-933.7 54.14,-934.29"/>
</g>
<!-- Node11 -->
<g id="node11" class="node">
<title>Node11</title>
<g id="a_node11"><a xlink:href="classComponent_1_1Movement.html" target="_top" xlink:title="Behaviour script responsible for moving an entity.">
<polygon fill="white" stroke="black" points="272,-608 272,-852 403,-852 403,-608 272,-608"/>
<text text-anchor="middle" x="337.5" y="-840" font-family="Helvetica,sans-Serif" font-size="10.00">Component::Movement</text>
<polyline fill="none" stroke="black" points="272,-833 403,-833 "/>
<text text-anchor="start" x="280" y="-821" font-family="Helvetica,sans-Serif" font-size="10.00">&#45; _colliding</text>
<text text-anchor="start" x="280" y="-810" font-family="Helvetica,sans-Serif" font-size="10.00">&#45; _speed</text>
<text text-anchor="start" x="280" y="-799" font-family="Helvetica,sans-Serif" font-size="10.00">&#45; _startSpeed</text>
<text text-anchor="start" x="280" y="-788" font-family="Helvetica,sans-Serif" font-size="10.00">&#45; _bonusTime</text>
<text text-anchor="start" x="280" y="-777" font-family="Helvetica,sans-Serif" font-size="10.00">&#45; _maxSpeed</text>
<text text-anchor="start" x="280" y="-766" font-family="Helvetica,sans-Serif" font-size="10.00">&#45; _collisionMask</text>
<polyline fill="none" stroke="black" points="272,-759 403,-759 "/>
<text text-anchor="start" x="280" y="-747" font-family="Helvetica,sans-Serif" font-size="10.00">+ Movement()</text>
<text text-anchor="start" x="280" y="-736" font-family="Helvetica,sans-Serif" font-size="10.00">+ ~Movement()</text>
<text text-anchor="start" x="280" y="-725" font-family="Helvetica,sans-Serif" font-size="10.00">+ Movement()</text>
<text text-anchor="start" x="280" y="-714" font-family="Helvetica,sans-Serif" font-size="10.00">+ operator=()</text>
<text text-anchor="start" x="280" y="-703" font-family="Helvetica,sans-Serif" font-size="10.00">+ Update()</text>
<text text-anchor="start" x="280" y="-692" font-family="Helvetica,sans-Serif" font-size="10.00">+ FixedUpdate()</text>
<text text-anchor="start" x="280" y="-681" font-family="Helvetica,sans-Serif" font-size="10.00">+ LateUpdate()</text>
<text text-anchor="start" x="280" y="-670" font-family="Helvetica,sans-Serif" font-size="10.00">+ GetBonusTime()</text>
<text text-anchor="start" x="280" y="-659" font-family="Helvetica,sans-Serif" font-size="10.00">+ SlipperyCollisions()</text>
<text text-anchor="start" x="280" y="-648" font-family="Helvetica,sans-Serif" font-size="10.00">+ CheckCollidersPos()</text>
<text text-anchor="start" x="280" y="-637" font-family="Helvetica,sans-Serif" font-size="10.00">+ BoostSpeed()</text>
<text text-anchor="start" x="280" y="-626" font-family="Helvetica,sans-Serif" font-size="10.00">+ operator&lt;&lt;()</text>
<text text-anchor="start" x="280" y="-615" font-family="Helvetica,sans-Serif" font-size="10.00">+ operator&lt;&lt;()</text>
</a>
</g>
</g>
<!-- Node3&#45;&gt;Node11 -->
<g id="edge13" class="edge">
<title>Node3&#45;&gt;Node11</title>
<path fill="none" stroke="midnightblue" d="M132.74,-937.12C153.74,-918.86 177.89,-900.45 202.5,-887 226.93,-873.65 240.89,-886.55 262.5,-869 268.74,-863.93 274.54,-858.19 279.92,-852.01"/>
<polygon fill="none" stroke="midnightblue" points="130.32,-934.58 125.15,-943.83 134.96,-939.82 130.32,-934.58"/>
</g>
<!-- Node4 -->
<g id="node4" class="node">
<title>Node4</title>
<g id="a_node4"><a xlink:href="classECS_1_1IComponent.html" target="_top" xlink:title="Base Interface class to create a new component.">
<polygon fill="white" stroke="black" points="14,-1203 14,-1293 117,-1293 117,-1203 14,-1203"/>
<text text-anchor="middle" x="65.5" y="-1281" font-family="Helvetica,sans-Serif" font-size="10.00">ECS::IComponent</text>
<polyline fill="none" stroke="black" points="14,-1274 117,-1274 "/>
<text text-anchor="middle" x="65.5" y="-1262" font-family="Helvetica,sans-Serif" font-size="10.00"> </text>
<polyline fill="none" stroke="black" points="14,-1255 117,-1255 "/>
<text text-anchor="start" x="22" y="-1243" font-family="Helvetica,sans-Serif" font-size="10.00">+ IComponent()</text>
<text text-anchor="start" x="22" y="-1232" font-family="Helvetica,sans-Serif" font-size="10.00">+ ~IComponent()</text>
<text text-anchor="start" x="22" y="-1221" font-family="Helvetica,sans-Serif" font-size="10.00">+ IComponent()</text>
<text text-anchor="start" x="22" y="-1210" font-family="Helvetica,sans-Serif" font-size="10.00">+ operator=()</text>
</a>
</g>
</g>
<!-- Node4&#45;&gt;Node3 -->
<g id="edge3" class="edge">
<title>Node4&#45;&gt;Node3</title>
<path fill="none" stroke="midnightblue" d="M65.5,-1192.7C65.5,-1155.35 65.5,-1105.72 65.5,-1067.09"/>
<polygon fill="none" stroke="midnightblue" points="62,-1192.89 65.5,-1202.89 69,-1192.89 62,-1192.89"/>
</g>
<!-- Node7 -->
<g id="node7" class="node">
<title>Node7</title>
<g id="a_node7"><a xlink:href="classComponent_1_1DropBomb.html" target="_top" xlink:title="Behaviour for players or AI allowing to drop a bomb upon pressing a key.">
<polygon fill="white" stroke="black" points="97,-591.5 97,-868.5 254,-868.5 254,-591.5 97,-591.5"/>
<text text-anchor="middle" x="175.5" y="-856.5" font-family="Helvetica,sans-Serif" font-size="10.00">Component::DropBomb</text>
<polyline fill="none" stroke="black" points="97,-849.5 254,-849.5 "/>
<text text-anchor="start" x="105" y="-837.5" font-family="Helvetica,sans-Serif" font-size="10.00">+ timeToDrop</text>
<text text-anchor="start" x="105" y="-826.5" font-family="Helvetica,sans-Serif" font-size="10.00">&#45; _coordinator</text>
<text text-anchor="start" x="105" y="-815.5" font-family="Helvetica,sans-Serif" font-size="10.00">&#45; _window</text>
<text text-anchor="start" x="105" y="-804.5" font-family="Helvetica,sans-Serif" font-size="10.00">&#45; _bombNumber</text>
<text text-anchor="start" x="105" y="-793.5" font-family="Helvetica,sans-Serif" font-size="10.00">&#45; _defaultBombNumber</text>
<text text-anchor="start" x="105" y="-782.5" font-family="Helvetica,sans-Serif" font-size="10.00">&#45; _bonusTimeRange</text>
<text text-anchor="start" x="105" y="-771.5" font-family="Helvetica,sans-Serif" font-size="10.00">&#45; _bonusTimeCoolDown</text>
<text text-anchor="start" x="105" y="-760.5" font-family="Helvetica,sans-Serif" font-size="10.00">&#45; _defaultDropDelay</text>
<text text-anchor="start" x="105" y="-749.5" font-family="Helvetica,sans-Serif" font-size="10.00">&#45; _dropDelay</text>
<text text-anchor="start" x="105" y="-738.5" font-family="Helvetica,sans-Serif" font-size="10.00">&#45; _minDelay</text>
<text text-anchor="start" x="105" y="-727.5" font-family="Helvetica,sans-Serif" font-size="10.00">&#45; _maxBombs</text>
<polyline fill="none" stroke="black" points="97,-720.5 254,-720.5 "/>
<text text-anchor="start" x="105" y="-708.5" font-family="Helvetica,sans-Serif" font-size="10.00">+ DropBomb()</text>
<text text-anchor="start" x="105" y="-697.5" font-family="Helvetica,sans-Serif" font-size="10.00">+ ~DropBomb()</text>
<text text-anchor="start" x="105" y="-686.5" font-family="Helvetica,sans-Serif" font-size="10.00">+ DropBomb()</text>
<text text-anchor="start" x="105" y="-675.5" font-family="Helvetica,sans-Serif" font-size="10.00">+ operator=()</text>
<text text-anchor="start" x="105" y="-664.5" font-family="Helvetica,sans-Serif" font-size="10.00">+ InstantiateBomb()</text>
<text text-anchor="start" x="105" y="-653.5" font-family="Helvetica,sans-Serif" font-size="10.00">+ CreateBomb()</text>
<text text-anchor="start" x="105" y="-642.5" font-family="Helvetica,sans-Serif" font-size="10.00">+ GetBombNumber()</text>
<text text-anchor="start" x="105" y="-631.5" font-family="Helvetica,sans-Serif" font-size="10.00">+ GetBonusTimeRange()</text>
<text text-anchor="start" x="105" y="-620.5" font-family="Helvetica,sans-Serif" font-size="10.00">+ GetBonusTimeCoolDown()</text>
<text text-anchor="start" x="105" y="-609.5" font-family="Helvetica,sans-Serif" font-size="10.00">+ BoostBombNumber()</text>
<text text-anchor="start" x="105" y="-598.5" font-family="Helvetica,sans-Serif" font-size="10.00">and 6 more...</text>
</a>
</g>
</g>
<!-- Node4&#45;&gt;Node7 -->
<g id="edge8" class="edge">
<title>Node4&#45;&gt;Node7</title>
<path fill="none" stroke="midnightblue" d="M97.15,-1193.85C112.54,-1165.48 129.76,-1129.4 139.5,-1095 160.17,-1021.98 169.38,-937.82 173.34,-868.82"/>
<polygon fill="none" stroke="midnightblue" points="93.99,-1192.33 92.24,-1202.78 100.13,-1195.71 93.99,-1192.33"/>
</g>
<!-- Node5 -->
<g id="node5" class="node">
<title>Node5</title>
<g id="a_node5"><a xlink:href="classIXMLSerializable.html" target="_top" xlink:title=" ">
<polygon fill="white" stroke="black" points="194,-1391.5 194,-1503.5 319,-1503.5 319,-1391.5 194,-1391.5"/>
<text text-anchor="middle" x="256.5" y="-1491.5" font-family="Helvetica,sans-Serif" font-size="10.00">IXMLSerializable</text>
<polyline fill="none" stroke="black" points="194,-1484.5 319,-1484.5 "/>
<text text-anchor="middle" x="256.5" y="-1472.5" font-family="Helvetica,sans-Serif" font-size="10.00"> </text>
<polyline fill="none" stroke="black" points="194,-1465.5 319,-1465.5 "/>
<text text-anchor="start" x="202" y="-1453.5" font-family="Helvetica,sans-Serif" font-size="10.00">+ IXMLSerializable()</text>
<text text-anchor="start" x="202" y="-1442.5" font-family="Helvetica,sans-Serif" font-size="10.00">+ ~IXMLSerializable()</text>
<text text-anchor="start" x="202" y="-1431.5" font-family="Helvetica,sans-Serif" font-size="10.00">+ IXMLSerializable()</text>
<text text-anchor="start" x="202" y="-1420.5" font-family="Helvetica,sans-Serif" font-size="10.00">+ operator=()</text>
<text text-anchor="start" x="202" y="-1409.5" font-family="Helvetica,sans-Serif" font-size="10.00">+ operator&lt;&lt;()</text>
<text text-anchor="start" x="202" y="-1398.5" font-family="Helvetica,sans-Serif" font-size="10.00">+ operator&lt;&lt;()</text>
</a>
</g>
</g>
<!-- Node5&#45;&gt;Node4 -->
<g id="edge4" class="edge">
<title>Node5&#45;&gt;Node4</title>
<path fill="none" stroke="midnightblue" d="M185.2,-1404.52C164.42,-1390.18 142.7,-1372.93 125.5,-1354 109.26,-1336.13 95.51,-1313.13 85.28,-1293.21"/>
<polygon fill="none" stroke="midnightblue" points="183.48,-1407.58 193.72,-1410.28 187.4,-1401.78 183.48,-1407.58"/>
</g>
<!-- Node12 -->
<g id="node12" class="node">
<title>Node12</title>
<g id="a_node12"><a xlink:href="classRayLib_1_1Vector3.html" target="_top" xlink:title="Vector3 encapsulation.">
<polygon fill="white" stroke="black" points="399.5,-922 399.5,-1089 491.5,-1089 491.5,-922 399.5,-922"/>
<text text-anchor="middle" x="445.5" y="-1077" font-family="Helvetica,sans-Serif" font-size="10.00">RayLib::Vector3</text>
<polyline fill="none" stroke="black" points="399.5,-1070 491.5,-1070 "/>
<text text-anchor="middle" x="445.5" y="-1058" font-family="Helvetica,sans-Serif" font-size="10.00"> </text>
<polyline fill="none" stroke="black" points="399.5,-1051 491.5,-1051 "/>
<text text-anchor="start" x="407.5" y="-1039" font-family="Helvetica,sans-Serif" font-size="10.00">+ Vector3()</text>
<text text-anchor="start" x="407.5" y="-1028" font-family="Helvetica,sans-Serif" font-size="10.00">+ Vector3()</text>
<text text-anchor="start" x="407.5" y="-1017" font-family="Helvetica,sans-Serif" font-size="10.00">+ Vector3()</text>
<text text-anchor="start" x="407.5" y="-1006" font-family="Helvetica,sans-Serif" font-size="10.00">+ Vector3()</text>
<text text-anchor="start" x="407.5" y="-995" font-family="Helvetica,sans-Serif" font-size="10.00">+ Vector3()</text>
<text text-anchor="start" x="407.5" y="-984" font-family="Helvetica,sans-Serif" font-size="10.00">+ Vector3()</text>
<text text-anchor="start" x="407.5" y="-973" font-family="Helvetica,sans-Serif" font-size="10.00">+ ~Vector3()</text>
<text text-anchor="start" x="407.5" y="-962" font-family="Helvetica,sans-Serif" font-size="10.00">+ getVector3()</text>
<text text-anchor="start" x="407.5" y="-951" font-family="Helvetica,sans-Serif" font-size="10.00">+ operator=()</text>
<text text-anchor="start" x="407.5" y="-940" font-family="Helvetica,sans-Serif" font-size="10.00">+ operator*=()</text>
<text text-anchor="start" x="407.5" y="-929" font-family="Helvetica,sans-Serif" font-size="10.00">and 13 more...</text>
</a>
</g>
</g>
<!-- Node5&#45;&gt;Node12 -->
<g id="edge16" class="edge">
<title>Node5&#45;&gt;Node12</title>
<path fill="none" stroke="midnightblue" d="M328.65,-1426.12C364.68,-1412 405.25,-1389.23 427.5,-1354 454.32,-1311.54 453.89,-1177.68 450.3,-1089.03"/>
<polygon fill="none" stroke="midnightblue" points="327.24,-1422.91 319.11,-1429.71 329.7,-1429.47 327.24,-1422.91"/>
</g>
<!-- Node6&#45;&gt;Node2 -->
<g id="edge5" class="edge">
<title>Node6&#45;&gt;Node2</title>
<path fill="none" stroke="#404040" d="M175.5,-387.27C175.5,-375.69 175.5,-363.68 175.5,-351.88"/>
<polygon fill="none" stroke="#404040" points="175.5,-351.69 171.5,-345.69 175.5,-339.69 179.5,-345.69 175.5,-351.69"/>
<text text-anchor="middle" x="219.5" y="-361" font-family="Helvetica,sans-Serif" font-size="10.00"> #_myAController</text>
</g>
<!-- Node7&#45;&gt;Node6 -->
<g id="edge7" class="edge">
<title>Node7&#45;&gt;Node6</title>
<path fill="none" stroke="#404040" d="M175.5,-591.22C175.5,-579.22 175.5,-567.29 175.5,-555.84"/>
<polygon fill="none" stroke="#404040" points="175.5,-555.62 171.5,-549.62 175.5,-543.62 179.5,-549.62 175.5,-555.62"/>
<text text-anchor="middle" x="209" y="-565" font-family="Helvetica,sans-Serif" font-size="10.00"> #_dropBomb</text>
</g>
<!-- Node8 -->
<g id="node8" class="node">
<title>Node8</title>
<g id="a_node8"><a xlink:href="classECS_1_1Entity.html" target="_top" xlink:title="Scene object containing components and an ID.">
<polygon fill="white" stroke="black" points="196.5,-916.5 196.5,-1094.5 310.5,-1094.5 310.5,-916.5 196.5,-916.5"/>
<text text-anchor="middle" x="253.5" y="-1082.5" font-family="Helvetica,sans-Serif" font-size="10.00">ECS::Entity</text>
<polyline fill="none" stroke="black" points="196.5,-1075.5 310.5,-1075.5 "/>
<text text-anchor="start" x="204.5" y="-1063.5" font-family="Helvetica,sans-Serif" font-size="10.00">&#45; _id</text>
<text text-anchor="start" x="204.5" y="-1052.5" font-family="Helvetica,sans-Serif" font-size="10.00">&#45; _tag</text>
<polyline fill="none" stroke="black" points="196.5,-1045.5 310.5,-1045.5 "/>
<text text-anchor="start" x="204.5" y="-1033.5" font-family="Helvetica,sans-Serif" font-size="10.00">+ Entity()</text>
<text text-anchor="start" x="204.5" y="-1022.5" font-family="Helvetica,sans-Serif" font-size="10.00">+ Entity()</text>
<text text-anchor="start" x="204.5" y="-1011.5" font-family="Helvetica,sans-Serif" font-size="10.00">+ ~Entity()</text>
<text text-anchor="start" x="204.5" y="-1000.5" font-family="Helvetica,sans-Serif" font-size="10.00">+ Entity()</text>
<text text-anchor="start" x="204.5" y="-989.5" font-family="Helvetica,sans-Serif" font-size="10.00">+ operator=()</text>
<text text-anchor="start" x="204.5" y="-978.5" font-family="Helvetica,sans-Serif" font-size="10.00">+ GetComponent()</text>
<text text-anchor="start" x="204.5" y="-967.5" font-family="Helvetica,sans-Serif" font-size="10.00">+ OfType()</text>
<text text-anchor="start" x="204.5" y="-956.5" font-family="Helvetica,sans-Serif" font-size="10.00">+ GetComponents()</text>
<text text-anchor="start" x="204.5" y="-945.5" font-family="Helvetica,sans-Serif" font-size="10.00">+ AddComponent()</text>
<text text-anchor="start" x="204.5" y="-934.5" font-family="Helvetica,sans-Serif" font-size="10.00">+ AddComponent()</text>
<text text-anchor="start" x="204.5" y="-923.5" font-family="Helvetica,sans-Serif" font-size="10.00">and 9 more...</text>
</a>
</g>
</g>
<!-- Node8&#45;&gt;Node7 -->
<g id="edge9" class="edge">
<title>Node8&#45;&gt;Node7</title>
<path fill="none" stroke="#404040" d="M214.65,-916.39C212.43,-910.22 210.35,-904.05 208.5,-898 206.73,-892.23 205.04,-886.32 203.41,-880.33"/>
<polygon fill="none" stroke="#404040" points="203.41,-880.33 198.02,-875.53 200.38,-868.72 205.76,-873.51 203.41,-880.33"/>
<text text-anchor="middle" x="224" y="-890" font-family="Helvetica,sans-Serif" font-size="10.00"> &#45;_self</text>
</g>
<!-- Node8&#45;&gt;Node11 -->
<g id="edge17" class="edge">
<title>Node8&#45;&gt;Node11</title>
<path fill="none" stroke="#404040" d="M280.54,-916.46C285.69,-899.68 291.19,-881.77 296.67,-863.95"/>
<polygon fill="none" stroke="#404040" points="296.73,-863.74 294.67,-856.83 300.26,-852.26 302.32,-859.17 296.73,-863.74"/>
<text text-anchor="middle" x="309" y="-890" font-family="Helvetica,sans-Serif" font-size="10.00"> &#45;_entity</text>
</g>
<!-- Node9 -->
<g id="node9" class="node">
<title>Node9</title>
<g id="a_node9"><a xlink:href="classECS_1_1EntityManager.html" target="_top" xlink:title="Class used to manipulate Entities (a.k.a A Scene)">
<polygon fill="white" stroke="black" points="135,-1175.5 135,-1320.5 250,-1320.5 250,-1175.5 135,-1175.5"/>
<text text-anchor="middle" x="192.5" y="-1308.5" font-family="Helvetica,sans-Serif" font-size="10.00">ECS::EntityManager</text>
<polyline fill="none" stroke="black" points="135,-1301.5 250,-1301.5 "/>
<text text-anchor="start" x="143" y="-1289.5" font-family="Helvetica,sans-Serif" font-size="10.00">&#45; _available</text>
<text text-anchor="start" x="143" y="-1278.5" font-family="Helvetica,sans-Serif" font-size="10.00">&#45; _max</text>
<text text-anchor="start" x="143" y="-1267.5" font-family="Helvetica,sans-Serif" font-size="10.00">&#45; _entities</text>
<polyline fill="none" stroke="black" points="135,-1260.5 250,-1260.5 "/>
<text text-anchor="start" x="143" y="-1248.5" font-family="Helvetica,sans-Serif" font-size="10.00">+ EntityManager()</text>
<text text-anchor="start" x="143" y="-1237.5" font-family="Helvetica,sans-Serif" font-size="10.00">+ ~EntityManager()</text>
<text text-anchor="start" x="143" y="-1226.5" font-family="Helvetica,sans-Serif" font-size="10.00">+ EntityManager()</text>
<text text-anchor="start" x="143" y="-1215.5" font-family="Helvetica,sans-Serif" font-size="10.00">+ operator=()</text>
<text text-anchor="start" x="143" y="-1204.5" font-family="Helvetica,sans-Serif" font-size="10.00">+ CreateEntity()</text>
<text text-anchor="start" x="143" y="-1193.5" font-family="Helvetica,sans-Serif" font-size="10.00">+ DeleteEntity()</text>
<text text-anchor="start" x="143" y="-1182.5" font-family="Helvetica,sans-Serif" font-size="10.00">+ GetEntities()</text>
</a>
</g>
</g>
<!-- Node9&#45;&gt;Node8 -->
<g id="edge10" class="edge">
<title>Node9&#45;&gt;Node8</title>
<path fill="none" stroke="#404040" d="M203.2,-1175.27C206.81,-1154.99 211.27,-1133.01 216.5,-1113 217.09,-1110.73 217.71,-1108.43 218.36,-1106.13"/>
<polygon fill="none" stroke="#404040" points="218.38,-1106.03 216.22,-1099.15 221.73,-1094.51 223.9,-1101.38 218.38,-1106.03"/>
<text text-anchor="middle" x="258.5" y="-1116" font-family="Helvetica,sans-Serif" font-size="10.00"> &#45;_entityManager</text>
</g>
<!-- Node10 -->
<g id="node10" class="node">
<title>Node10</title>
<g id="a_node10"><a xlink:href="classECS_1_1ComponentManager.html" target="_top" xlink:title="Class used to manipulate Components.">
<polygon fill="white" stroke="black" points="268,-1142.5 268,-1353.5 419,-1353.5 419,-1142.5 268,-1142.5"/>
<text text-anchor="middle" x="343.5" y="-1341.5" font-family="Helvetica,sans-Serif" font-size="10.00">ECS::ComponentManager</text>
<polyline fill="none" stroke="black" points="268,-1334.5 419,-1334.5 "/>
<text text-anchor="start" x="276" y="-1322.5" font-family="Helvetica,sans-Serif" font-size="10.00">&#45; _bases</text>
<text text-anchor="start" x="276" y="-1311.5" font-family="Helvetica,sans-Serif" font-size="10.00">&#45; _components</text>
<polyline fill="none" stroke="black" points="268,-1304.5 419,-1304.5 "/>
<text text-anchor="start" x="276" y="-1292.5" font-family="Helvetica,sans-Serif" font-size="10.00">+ ComponentManager()</text>
<text text-anchor="start" x="276" y="-1281.5" font-family="Helvetica,sans-Serif" font-size="10.00">+ ~ComponentManager()</text>
<text text-anchor="start" x="276" y="-1270.5" font-family="Helvetica,sans-Serif" font-size="10.00">+ ComponentManager()</text>
<text text-anchor="start" x="276" y="-1259.5" font-family="Helvetica,sans-Serif" font-size="10.00">+ operator=()</text>
<text text-anchor="start" x="276" y="-1248.5" font-family="Helvetica,sans-Serif" font-size="10.00">+ GetComponent()</text>
<text text-anchor="start" x="276" y="-1237.5" font-family="Helvetica,sans-Serif" font-size="10.00">+ OfType()</text>
<text text-anchor="start" x="276" y="-1226.5" font-family="Helvetica,sans-Serif" font-size="10.00">+ GetComponents()</text>
<text text-anchor="start" x="276" y="-1215.5" font-family="Helvetica,sans-Serif" font-size="10.00">+ AddComponent()</text>
<text text-anchor="start" x="276" y="-1204.5" font-family="Helvetica,sans-Serif" font-size="10.00">+ AddComponent()</text>
<text text-anchor="start" x="276" y="-1193.5" font-family="Helvetica,sans-Serif" font-size="10.00">+ RemoveComponent()</text>
<text text-anchor="start" x="276" y="-1182.5" font-family="Helvetica,sans-Serif" font-size="10.00">+ HasComponent()</text>
<text text-anchor="start" x="276" y="-1171.5" font-family="Helvetica,sans-Serif" font-size="10.00">+ HasComponent()</text>
<text text-anchor="start" x="276" y="-1160.5" font-family="Helvetica,sans-Serif" font-size="10.00">+ HasComponents()</text>
<text text-anchor="start" x="276" y="-1149.5" font-family="Helvetica,sans-Serif" font-size="10.00">+ GetComponentByName()</text>
</a>
</g>
</g>
<!-- Node10&#45;&gt;Node8 -->
<g id="edge11" class="edge">
<title>Node10&#45;&gt;Node8</title>
<path fill="none" stroke="#404040" d="M311.11,-1142.39C307.66,-1132.41 304.1,-1122.48 300.5,-1113 299.6,-1110.64 298.68,-1108.25 297.74,-1105.85"/>
<polygon fill="none" stroke="#404040" points="297.67,-1105.68 291.72,-1101.6 293.21,-1094.54 299.15,-1098.62 297.67,-1105.68"/>
<text text-anchor="middle" x="359.5" y="-1116" font-family="Helvetica,sans-Serif" font-size="10.00"> &#45;_componentManager</text>
</g>
<!-- Node11&#45;&gt;Node6 -->
<g id="edge12" class="edge">
<title>Node11&#45;&gt;Node6</title>
<path fill="none" stroke="#404040" d="M274.19,-607.82C265.24,-592.2 255.88,-576.58 246.5,-562 244.73,-559.24 242.9,-556.46 241.04,-553.67"/>
<polygon fill="none" stroke="#404040" points="240.89,-553.46 234.21,-550.75 234.13,-543.54 240.82,-546.24 240.89,-553.46"/>
<text text-anchor="middle" x="287.5" y="-565" font-family="Helvetica,sans-Serif" font-size="10.00"> #_movement</text>
</g>
<!-- Node12&#45;&gt;Node2 -->
<g id="edge18" class="edge">
<title>Node12&#45;&gt;Node2</title>
<path fill="none" stroke="#404040" d="M449.89,-921.84C451.86,-836.73 447.79,-701.33 411.5,-591 381.24,-499 315.08,-410.78 260.49,-348.97"/>
<polygon fill="none" stroke="#404040" points="260.18,-348.62 253.2,-346.81 252.18,-339.67 259.16,-341.48 260.18,-348.62"/>
<text text-anchor="middle" x="427" y="-565" font-family="Helvetica,sans-Serif" font-size="10.00"> #_offset</text>
</g>
<!-- Node12&#45;&gt;Node11 -->
<g id="edge14" class="edge">
<title>Node12&#45;&gt;Node11</title>
<path fill="none" stroke="#404040" d="M399.49,-951.6C387.41,-935.33 375.54,-916.75 367.5,-898 362.89,-887.24 358.98,-875.79 355.68,-864.13"/>
<polygon fill="none" stroke="#404040" points="355.65,-864.02 350.24,-859.25 352.57,-852.42 357.98,-857.19 355.65,-864.02"/>
<text text-anchor="middle" x="395" y="-890" font-family="Helvetica,sans-Serif" font-size="10.00"> +direction</text>
</g>
<!-- Node13 -->
<g id="node13" class="node">
<title>Node13</title>
<g id="a_node13"><a xlink:title=" ">
<polygon fill="white" stroke="#bfbfbf" points="476,-1219.5 476,-1276.5 529,-1276.5 529,-1219.5 476,-1219.5"/>
<text text-anchor="middle" x="502.5" y="-1264.5" font-family="Helvetica,sans-Serif" font-size="10.00">Vector3</text>
<polyline fill="none" stroke="#bfbfbf" points="476,-1257.5 529,-1257.5 "/>
<text text-anchor="middle" x="502.5" y="-1245.5" font-family="Helvetica,sans-Serif" font-size="10.00"> </text>
<polyline fill="none" stroke="#bfbfbf" points="476,-1238.5 529,-1238.5 "/>
<text text-anchor="middle" x="502.5" y="-1226.5" font-family="Helvetica,sans-Serif" font-size="10.00"> </text>
</a>
</g>
</g>
<!-- Node13&#45;&gt;Node12 -->
<g id="edge15" class="edge">
<title>Node13&#45;&gt;Node12</title>
<path fill="none" stroke="midnightblue" d="M493.62,-1209.55C486.01,-1177.42 474.76,-1129.96 465.05,-1089"/>
<polygon fill="none" stroke="midnightblue" points="490.25,-1210.49 495.96,-1219.41 497.06,-1208.87 490.25,-1210.49"/>
</g>
</g>
</svg>
