<?xml version="1.0" encoding="UTF-8" standalone="no"?>
<!DOCTYPE svg PUBLIC "-//W3C//DTD SVG 1.1//EN"
 "http://www.w3.org/Graphics/SVG/1.1/DTD/svg11.dtd">
<!-- Generated by graphviz version 2.43.0 (0)
 -->
<!-- Title: Component::HUDBonusBar Pages: 1 -->
<svg width="163pt" height="827pt"
 viewBox="0.00 0.00 163.00 827.00" xmlns="http://www.w3.org/2000/svg" xmlns:xlink="http://www.w3.org/1999/xlink">
<g id="graph0" class="graph" transform="scale(1 1) rotate(0) translate(4 823)">
<title>Component::HUDBonusBar</title>
<polygon fill="white" stroke="transparent" points="-4,4 -4,-823 159,-823 159,4 -4,4"/>
<!-- Node1 -->
<g id="node1" class="node">
<title>Node1</title>
<g id="a_node1"><a xlink:title=" ">
<polygon fill="#bfbfbf" stroke="black" points="3.5,-0.5 3.5,-178.5 151.5,-178.5 151.5,-0.5 3.5,-0.5"/>
<text text-anchor="middle" x="77.5" y="-166.5" font-family="Helvetica,sans-Serif" font-size="10.00">Component::HUDBonusBar</text>
<polyline fill="none" stroke="black" points="3.5,-159.5 151.5,-159.5 "/>
<text text-anchor="start" x="11.5" y="-147.5" font-family="Helvetica,sans-Serif" font-size="10.00">&#45; _timer</text>
<text text-anchor="start" x="11.5" y="-136.5" font-family="Helvetica,sans-Serif" font-size="10.00">&#45; _maxTimer</text>
<text text-anchor="start" x="11.5" y="-125.5" font-family="Helvetica,sans-Serif" font-size="10.00">&#45; _entityTag</text>
<text text-anchor="start" x="11.5" y="-114.5" font-family="Helvetica,sans-Serif" font-size="10.00">&#45; _isBg</text>
<polyline fill="none" stroke="black" points="3.5,-107.5 151.5,-107.5 "/>
<text text-anchor="start" x="11.5" y="-95.5" font-family="Helvetica,sans-Serif" font-size="10.00">+ HUDBonusBar()</text>
<text text-anchor="start" x="11.5" y="-84.5" font-family="Helvetica,sans-Serif" font-size="10.00">+ ~HUDBonusBar()</text>
<text text-anchor="start" x="11.5" y="-73.5" font-family="Helvetica,sans-Serif" font-size="10.00">+ HUDBonusBar()</text>
<text text-anchor="start" x="11.5" y="-62.5" font-family="Helvetica,sans-Serif" font-size="10.00">+ operator=()</text>
<text text-anchor="start" x="11.5" y="-51.5" font-family="Helvetica,sans-Serif" font-size="10.00">+ Update()</text>
<text text-anchor="start" x="11.5" y="-40.5" font-family="Helvetica,sans-Serif" font-size="10.00">+ FixedUpdate()</text>
<text text-anchor="start" x="11.5" y="-29.5" font-family="Helvetica,sans-Serif" font-size="10.00">+ LateUpdate()</text>
<text text-anchor="start" x="11.5" y="-18.5" font-family="Helvetica,sans-Serif" font-size="10.00">+ operator&lt;&lt;()</text>
<text text-anchor="start" x="11.5" y="-7.5" font-family="Helvetica,sans-Serif" font-size="10.00">+ operator&lt;&lt;()</text>
</a>
</g>
</g>
<!-- Node2 -->
<g id="node2" class="node">
<title>Node2</title>
<g id="a_node2"><a xlink:href="classComponent_1_1HUD.html" target="_top" xlink:title="HUD base component class.">
<polygon fill="white" stroke="black" points="0,-215.5 0,-382.5 155,-382.5 155,-215.5 0,-215.5"/>
<text text-anchor="middle" x="77.5" y="-370.5" font-family="Helvetica,sans-Serif" font-size="10.00">Component::HUD</text>
<polyline fill="none" stroke="black" points="0,-363.5 155,-363.5 "/>
<text text-anchor="start" x="8" y="-351.5" font-family="Helvetica,sans-Serif" font-size="10.00"># _myAController</text>
<text text-anchor="start" x="8" y="-340.5" font-family="Helvetica,sans-Serif" font-size="10.00"># _offset</text>
<polyline fill="none" stroke="black" points="0,-333.5 155,-333.5 "/>
<text text-anchor="start" x="8" y="-321.5" font-family="Helvetica,sans-Serif" font-size="10.00">+ HUD()</text>
<text text-anchor="start" x="8" y="-310.5" font-family="Helvetica,sans-Serif" font-size="10.00">+ ~HUD()</text>
<text text-anchor="start" x="8" y="-299.5" font-family="Helvetica,sans-Serif" font-size="10.00">+ HUD()</text>
<text text-anchor="start" x="8" y="-288.5" font-family="Helvetica,sans-Serif" font-size="10.00">+ operator=()</text>
<text text-anchor="start" x="8" y="-277.5" font-family="Helvetica,sans-Serif" font-size="10.00">+ getOffset()</text>
<text text-anchor="start" x="8" y="-266.5" font-family="Helvetica,sans-Serif" font-size="10.00">+ getAController()</text>
<text text-anchor="start" x="8" y="-255.5" font-family="Helvetica,sans-Serif" font-size="10.00">+ Update()</text>
<text text-anchor="start" x="8" y="-244.5" font-family="Helvetica,sans-Serif" font-size="10.00">+ FixedUpdate()</text>
<text text-anchor="start" x="8" y="-233.5" font-family="Helvetica,sans-Serif" font-size="10.00">+ LateUpdate()</text>
<text text-anchor="start" x="8" y="-222.5" font-family="Helvetica,sans-Serif" font-size="10.00">+ GetOffsetFromPlayerNbr()</text>
</a>
</g>
</g>
<!-- Node2&#45;&gt;Node1 -->
<g id="edge1" class="edge">
<title>Node2&#45;&gt;Node1</title>
<path fill="none" stroke="midnightblue" d="M77.5,-205.11C77.5,-196.3 77.5,-187.38 77.5,-178.61"/>
<polygon fill="none" stroke="midnightblue" points="74,-205.39 77.5,-215.39 81,-205.39 74,-205.39"/>
</g>
<!-- Node3 -->
<g id="node3" class="node">
<title>Node3</title>
<g id="a_node3"><a xlink:href="classComponent_1_1IBehaviour.html" target="_top" xlink:title="IBehaviour base component (CF Monobehaviour class in Unity)">
<polygon fill="white" stroke="black" points="12,-419.5 12,-542.5 143,-542.5 143,-419.5 12,-419.5"/>
<text text-anchor="middle" x="77.5" y="-530.5" font-family="Helvetica,sans-Serif" font-size="10.00">Component::IBehaviour</text>
<polyline fill="none" stroke="black" points="12,-523.5 143,-523.5 "/>
<text text-anchor="middle" x="77.5" y="-511.5" font-family="Helvetica,sans-Serif" font-size="10.00"> </text>
<polyline fill="none" stroke="black" points="12,-504.5 143,-504.5 "/>
<text text-anchor="start" x="20" y="-492.5" font-family="Helvetica,sans-Serif" font-size="10.00">+ IBehaviour()</text>
<text text-anchor="start" x="20" y="-481.5" font-family="Helvetica,sans-Serif" font-size="10.00">+ ~IBehaviour()</text>
<text text-anchor="start" x="20" y="-470.5" font-family="Helvetica,sans-Serif" font-size="10.00">+ IBehaviour()</text>
<text text-anchor="start" x="20" y="-459.5" font-family="Helvetica,sans-Serif" font-size="10.00">+ operator=()</text>
<text text-anchor="start" x="20" y="-448.5" font-family="Helvetica,sans-Serif" font-size="10.00">+ Update()</text>
<text text-anchor="start" x="20" y="-437.5" font-family="Helvetica,sans-Serif" font-size="10.00">+ FixedUpdate()</text>
<text text-anchor="start" x="20" y="-426.5" font-family="Helvetica,sans-Serif" font-size="10.00">+ LateUpdate()</text>
</a>
</g>
</g>
<!-- Node3&#45;&gt;Node2 -->
<g id="edge2" class="edge">
<title>Node3&#45;&gt;Node2</title>
<path fill="none" stroke="midnightblue" d="M77.5,-409.25C77.5,-400.57 77.5,-391.63 77.5,-382.79"/>
<polygon fill="none" stroke="midnightblue" points="74,-409.31 77.5,-419.31 81,-409.31 74,-409.31"/>
</g>
<!-- Node4 -->
<g id="node4" class="node">
<title>Node4</title>
<g id="a_node4"><a xlink:href="classECS_1_1IComponent.html" target="_top" xlink:title="Base Interface class to create a new component.">
<polygon fill="white" stroke="black" points="26,-579.5 26,-669.5 129,-669.5 129,-579.5 26,-579.5"/>
<text text-anchor="middle" x="77.5" y="-657.5" font-family="Helvetica,sans-Serif" font-size="10.00">ECS::IComponent</text>
<polyline fill="none" stroke="black" points="26,-650.5 129,-650.5 "/>
<text text-anchor="middle" x="77.5" y="-638.5" font-family="Helvetica,sans-Serif" font-size="10.00"> </text>
<polyline fill="none" stroke="black" points="26,-631.5 129,-631.5 "/>
<text text-anchor="start" x="34" y="-619.5" font-family="Helvetica,sans-Serif" font-size="10.00">+ IComponent()</text>
<text text-anchor="start" x="34" y="-608.5" font-family="Helvetica,sans-Serif" font-size="10.00">+ ~IComponent()</text>
<text text-anchor="start" x="34" y="-597.5" font-family="Helvetica,sans-Serif" font-size="10.00">+ IComponent()</text>
<text text-anchor="start" x="34" y="-586.5" font-family="Helvetica,sans-Serif" font-size="10.00">+ operator=()</text>
</a>
</g>
</g>
<!-- Node4&#45;&gt;Node3 -->
<g id="edge3" class="edge">
<title>Node4&#45;&gt;Node3</title>
<path fill="none" stroke="midnightblue" d="M77.5,-569.11C77.5,-560.42 77.5,-551.38 77.5,-542.56"/>
<polygon fill="none" stroke="midnightblue" points="74,-569.12 77.5,-579.12 81,-569.12 74,-569.12"/>
</g>
<!-- Node5 -->
<g id="node5" class="node">
<title>Node5</title>
<g id="a_node5"><a xlink:href="classIXMLSerializable.html" target="_top" xlink:title=" ">
<polygon fill="white" stroke="black" points="15,-706.5 15,-818.5 140,-818.5 140,-706.5 15,-706.5"/>
<text text-anchor="middle" x="77.5" y="-806.5" font-family="Helvetica,sans-Serif" font-size="10.00">IXMLSerializable</text>
<polyline fill="none" stroke="black" points="15,-799.5 140,-799.5 "/>
<text text-anchor="middle" x="77.5" y="-787.5" font-family="Helvetica,sans-Serif" font-size="10.00"> </text>
<polyline fill="none" stroke="black" points="15,-780.5 140,-780.5 "/>
<text text-anchor="start" x="23" y="-768.5" font-family="Helvetica,sans-Serif" font-size="10.00">+ IXMLSerializable()</text>
<text text-anchor="start" x="23" y="-757.5" font-family="Helvetica,sans-Serif" font-size="10.00">+ ~IXMLSerializable()</text>
<text text-anchor="start" x="23" y="-746.5" font-family="Helvetica,sans-Serif" font-size="10.00">+ IXMLSerializable()</text>
<text text-anchor="start" x="23" y="-735.5" font-family="Helvetica,sans-Serif" font-size="10.00">+ operator=()</text>
<text text-anchor="start" x="23" y="-724.5" font-family="Helvetica,sans-Serif" font-size="10.00">+ operator&lt;&lt;()</text>
<text text-anchor="start" x="23" y="-713.5" font-family="Helvetica,sans-Serif" font-size="10.00">+ operator&lt;&lt;()</text>
</a>
</g>
</g>
<!-- Node5&#45;&gt;Node4 -->
<g id="edge4" class="edge">
<title>Node5&#45;&gt;Node4</title>
<path fill="none" stroke="midnightblue" d="M77.5,-696.08C77.5,-687.07 77.5,-678.01 77.5,-669.51"/>
<polygon fill="none" stroke="midnightblue" points="74,-696.18 77.5,-706.18 81,-696.18 74,-696.18"/>
</g>
</g>
</svg>
