<?xml version="1.0" encoding="UTF-8" standalone="no"?>
<!DOCTYPE svg PUBLIC "-//W3C//DTD SVG 1.1//EN"
 "http://www.w3.org/Graphics/SVG/1.1/DTD/svg11.dtd">
<!-- Generated by graphviz version 2.43.0 (0)
 -->
<!-- Title: AmbientShader Pages: 1 -->
<svg width="183pt" height="421pt"
 viewBox="0.00 0.00 182.50 421.00" xmlns="http://www.w3.org/2000/svg" xmlns:xlink="http://www.w3.org/1999/xlink">
<g id="graph0" class="graph" transform="scale(1 1) rotate(0) translate(4 417)">
<title>AmbientShader</title>
<polygon fill="white" stroke="transparent" points="-4,4 -4,-417 178.5,-417 178.5,4 -4,4"/>
<!-- Node1 -->
<g id="node1" class="node">
<title>Node1</title>
<g id="a_node1"><a xlink:title=" ">
<polygon fill="#bfbfbf" stroke="black" points="0,-0.5 0,-68.5 119,-68.5 119,-0.5 0,-0.5"/>
<text text-anchor="middle" x="59.5" y="-56.5" font-family="Helvetica,sans-Serif" font-size="10.00">AmbientShader</text>
<polyline fill="none" stroke="black" points="0,-49.5 119,-49.5 "/>
<text text-anchor="middle" x="59.5" y="-37.5" font-family="Helvetica,sans-Serif" font-size="10.00"> </text>
<polyline fill="none" stroke="black" points="0,-30.5 119,-30.5 "/>
<text text-anchor="start" x="8" y="-18.5" font-family="Helvetica,sans-Serif" font-size="10.00">+ AmbientShader()</text>
<text text-anchor="start" x="8" y="-7.5" font-family="Helvetica,sans-Serif" font-size="10.00">+ ~AmbientShader()</text>
</a>
</g>
</g>
<!-- Node2 -->
<g id="node2" class="node">
<title>Node2</title>
<g id="a_node2"><a xlink:href="classRayLib_1_1Shader.html" target="_top" xlink:title="Shader Encapsulation of the raylib structure Shader.">
<polygon fill="white" stroke="black" points="12.5,-106.5 12.5,-284.5 106.5,-284.5 106.5,-106.5 12.5,-106.5"/>
<text text-anchor="middle" x="59.5" y="-272.5" font-family="Helvetica,sans-Serif" font-size="10.00">RayLib::Shader</text>
<polyline fill="none" stroke="black" points="12.5,-265.5 106.5,-265.5 "/>
<text text-anchor="middle" x="59.5" y="-253.5" font-family="Helvetica,sans-Serif" font-size="10.00"> </text>
<polyline fill="none" stroke="black" points="12.5,-246.5 106.5,-246.5 "/>
<text text-anchor="start" x="20.5" y="-234.5" font-family="Helvetica,sans-Serif" font-size="10.00">+ Shader()</text>
<text text-anchor="start" x="20.5" y="-223.5" font-family="Helvetica,sans-Serif" font-size="10.00">+ Shader()</text>
<text text-anchor="start" x="20.5" y="-212.5" font-family="Helvetica,sans-Serif" font-size="10.00">+ Shader()</text>
<text text-anchor="start" x="20.5" y="-201.5" font-family="Helvetica,sans-Serif" font-size="10.00">+ Shader()</text>
<text text-anchor="start" x="20.5" y="-190.5" font-family="Helvetica,sans-Serif" font-size="10.00">+ ~Shader()</text>
<text text-anchor="start" x="20.5" y="-179.5" font-family="Helvetica,sans-Serif" font-size="10.00">+ GetShader()</text>
<text text-anchor="start" x="20.5" y="-168.5" font-family="Helvetica,sans-Serif" font-size="10.00">+ GetLocation()</text>
<text text-anchor="start" x="20.5" y="-157.5" font-family="Helvetica,sans-Serif" font-size="10.00">+ SetValue()</text>
<text text-anchor="start" x="20.5" y="-146.5" font-family="Helvetica,sans-Serif" font-size="10.00">+ SetLoc()</text>
<text text-anchor="start" x="20.5" y="-135.5" font-family="Helvetica,sans-Serif" font-size="10.00">+ Unload()</text>
<text text-anchor="start" x="20.5" y="-124.5" font-family="Helvetica,sans-Serif" font-size="10.00">+ BeginMode()</text>
<text text-anchor="start" x="20.5" y="-113.5" font-family="Helvetica,sans-Serif" font-size="10.00">+ EndMode()</text>
</a>
</g>
</g>
<!-- Node2&#45;&gt;Node1 -->
<g id="edge1" class="edge">
<title>Node2&#45;&gt;Node1</title>
<path fill="none" stroke="midnightblue" d="M59.5,-95.98C59.5,-86.31 59.5,-77.04 59.5,-68.79"/>
<polygon fill="none" stroke="midnightblue" points="56,-96.17 59.5,-106.17 63,-96.17 56,-96.17"/>
</g>
<!-- Node2&#45;&gt;Node2 -->
<g id="edge3" class="edge">
<title>Node2&#45;&gt;Node2</title>
<path fill="none" stroke="#404040" d="M106.54,-215.2C116.93,-213.35 124.5,-206.79 124.5,-195.5 124.5,-188.98 121.97,-184.03 117.83,-180.66"/>
<polygon fill="none" stroke="#404040" points="117.56,-180.54 110.46,-181.84 106.54,-175.8 113.63,-174.49 117.56,-180.54"/>
<text text-anchor="middle" x="149.5" y="-193" font-family="Helvetica,sans-Serif" font-size="10.00"> #_shader</text>
</g>
<!-- Node3 -->
<g id="node3" class="node">
<title>Node3</title>
<g id="a_node3"><a xlink:href="classRayLib_1_1IAsset.html" target="_top" xlink:title=" ">
<polygon fill="white" stroke="black" points="16.5,-322.5 16.5,-412.5 102.5,-412.5 102.5,-322.5 16.5,-322.5"/>
<text text-anchor="middle" x="59.5" y="-400.5" font-family="Helvetica,sans-Serif" font-size="10.00">RayLib::IAsset</text>
<polyline fill="none" stroke="black" points="16.5,-393.5 102.5,-393.5 "/>
<text text-anchor="middle" x="59.5" y="-381.5" font-family="Helvetica,sans-Serif" font-size="10.00"> </text>
<polyline fill="none" stroke="black" points="16.5,-374.5 102.5,-374.5 "/>
<text text-anchor="start" x="24.5" y="-362.5" font-family="Helvetica,sans-Serif" font-size="10.00">+ IAsset()</text>
<text text-anchor="start" x="24.5" y="-351.5" font-family="Helvetica,sans-Serif" font-size="10.00">+ ~IAsset()</text>
<text text-anchor="start" x="24.5" y="-340.5" font-family="Helvetica,sans-Serif" font-size="10.00">+ IAsset()</text>
<text text-anchor="start" x="24.5" y="-329.5" font-family="Helvetica,sans-Serif" font-size="10.00">+ operator=()</text>
</a>
</g>
</g>
<!-- Node3&#45;&gt;Node2 -->
<g id="edge2" class="edge">
<title>Node3&#45;&gt;Node2</title>
<path fill="none" stroke="midnightblue" d="M59.5,-312.2C59.5,-303.38 59.5,-294.06 59.5,-284.69"/>
<polygon fill="none" stroke="midnightblue" points="56,-312.28 59.5,-322.28 63,-312.28 56,-312.28"/>
</g>
</g>
</svg>
