<?xml version="1.0" encoding="UTF-8" standalone="no"?>
<!DOCTYPE svg PUBLIC "-//W3C//DTD SVG 1.1//EN"
 "http://www.w3.org/Graphics/SVG/1.1/DTD/svg11.dtd">
<!-- Generated by graphviz version 2.43.0 (0)
 -->
<!-- Title: Component::AController Pages: 1 -->
<svg width="310pt" height="926pt"
 viewBox="0.00 0.00 309.50 926.00" xmlns="http://www.w3.org/2000/svg" xmlns:xlink="http://www.w3.org/1999/xlink">
<g id="graph0" class="graph" transform="scale(1 1) rotate(0) translate(4 922)">
<title>Component::AController</title>
<polygon fill="white" stroke="transparent" points="-4,4 -4,-922 305.5,-922 305.5,4 -4,4"/>
<!-- Node1 -->
<g id="node1" class="node">
<title>Node1</title>
<g id="a_node1"><a xlink:title=" ">
<polygon fill="#bfbfbf" stroke="black" points="84.5,-314.5 84.5,-481.5 218.5,-481.5 218.5,-314.5 84.5,-314.5"/>
<text text-anchor="middle" x="151.5" y="-469.5" font-family="Helvetica,sans-Serif" font-size="10.00">Component::AController</text>
<polyline fill="none" stroke="black" points="84.5,-462.5 218.5,-462.5 "/>
<text text-anchor="start" x="92.5" y="-450.5" font-family="Helvetica,sans-Serif" font-size="10.00"># _movement</text>
<text text-anchor="start" x="92.5" y="-439.5" font-family="Helvetica,sans-Serif" font-size="10.00"># _dropBomb</text>
<polyline fill="none" stroke="black" points="84.5,-432.5 218.5,-432.5 "/>
<text text-anchor="start" x="92.5" y="-420.5" font-family="Helvetica,sans-Serif" font-size="10.00">+ AController()</text>
<text text-anchor="start" x="92.5" y="-409.5" font-family="Helvetica,sans-Serif" font-size="10.00">+ ~AController()</text>
<text text-anchor="start" x="92.5" y="-398.5" font-family="Helvetica,sans-Serif" font-size="10.00">+ AController()</text>
<text text-anchor="start" x="92.5" y="-387.5" font-family="Helvetica,sans-Serif" font-size="10.00">+ operator=()</text>
<text text-anchor="start" x="92.5" y="-376.5" font-family="Helvetica,sans-Serif" font-size="10.00">+ GetMovement()</text>
<text text-anchor="start" x="92.5" y="-365.5" font-family="Helvetica,sans-Serif" font-size="10.00">+ GetDropBomb()</text>
<text text-anchor="start" x="92.5" y="-354.5" font-family="Helvetica,sans-Serif" font-size="10.00">+ GetAController()</text>
<text text-anchor="start" x="92.5" y="-343.5" font-family="Helvetica,sans-Serif" font-size="10.00">+ Update()</text>
<text text-anchor="start" x="92.5" y="-332.5" font-family="Helvetica,sans-Serif" font-size="10.00">+ FixedUpdate()</text>
<text text-anchor="start" x="92.5" y="-321.5" font-family="Helvetica,sans-Serif" font-size="10.00">+ LateUpdate()</text>
</a>
</g>
</g>
<!-- Node5 -->
<g id="node5" class="node">
<title>Node5</title>
<g id="a_node5"><a xlink:href="classComponent_1_1AIAlgo.html" target="_top" xlink:title=" ">
<polygon fill="white" stroke="black" points="0,-0.5 0,-277.5 143,-277.5 143,-0.5 0,-0.5"/>
<text text-anchor="middle" x="71.5" y="-265.5" font-family="Helvetica,sans-Serif" font-size="10.00">Component::AIAlgo</text>
<polyline fill="none" stroke="black" points="0,-258.5 143,-258.5 "/>
<text text-anchor="start" x="8" y="-246.5" font-family="Helvetica,sans-Serif" font-size="10.00">&#45; _ai_player</text>
<text text-anchor="start" x="8" y="-235.5" font-family="Helvetica,sans-Serif" font-size="10.00">&#45; _state</text>
<text text-anchor="start" x="8" y="-224.5" font-family="Helvetica,sans-Serif" font-size="10.00">&#45; _entities</text>
<text text-anchor="start" x="8" y="-213.5" font-family="Helvetica,sans-Serif" font-size="10.00">&#45; _speed</text>
<text text-anchor="start" x="8" y="-202.5" font-family="Helvetica,sans-Serif" font-size="10.00">&#45; _direction</text>
<text text-anchor="start" x="8" y="-191.5" font-family="Helvetica,sans-Serif" font-size="10.00">&#45; _window</text>
<text text-anchor="start" x="8" y="-180.5" font-family="Helvetica,sans-Serif" font-size="10.00">&#45; _directionPath</text>
<text text-anchor="start" x="8" y="-169.5" font-family="Helvetica,sans-Serif" font-size="10.00">&#45; _currentState</text>
<text text-anchor="start" x="8" y="-158.5" font-family="Helvetica,sans-Serif" font-size="10.00">&#45; _enabled</text>
<text text-anchor="start" x="8" y="-147.5" font-family="Helvetica,sans-Serif" font-size="10.00">&#45; _stateDuration</text>
<text text-anchor="start" x="8" y="-136.5" font-family="Helvetica,sans-Serif" font-size="10.00">&#45; _timeToStateChange</text>
<polyline fill="none" stroke="black" points="0,-129.5 143,-129.5 "/>
<text text-anchor="start" x="8" y="-117.5" font-family="Helvetica,sans-Serif" font-size="10.00">+ AIAlgo()</text>
<text text-anchor="start" x="8" y="-106.5" font-family="Helvetica,sans-Serif" font-size="10.00">+ ~AIAlgo()</text>
<text text-anchor="start" x="8" y="-95.5" font-family="Helvetica,sans-Serif" font-size="10.00">+ AIAlgo()</text>
<text text-anchor="start" x="8" y="-84.5" font-family="Helvetica,sans-Serif" font-size="10.00">+ operator=()</text>
<text text-anchor="start" x="8" y="-73.5" font-family="Helvetica,sans-Serif" font-size="10.00">+ Update()</text>
<text text-anchor="start" x="8" y="-62.5" font-family="Helvetica,sans-Serif" font-size="10.00">+ FixedUpdate()</text>
<text text-anchor="start" x="8" y="-51.5" font-family="Helvetica,sans-Serif" font-size="10.00">+ LateUpdate()</text>
<text text-anchor="start" x="8" y="-40.5" font-family="Helvetica,sans-Serif" font-size="10.00">+ operator&lt;&lt;()</text>
<text text-anchor="start" x="8" y="-29.5" font-family="Helvetica,sans-Serif" font-size="10.00">+ operator&lt;&lt;()</text>
<text text-anchor="start" x="8" y="-18.5" font-family="Helvetica,sans-Serif" font-size="10.00">+ GetClosestSymbolPos()</text>
<text text-anchor="start" x="8" y="-7.5" font-family="Helvetica,sans-Serif" font-size="10.00">and 8 more...</text>
</a>
</g>
</g>
<!-- Node1&#45;&gt;Node5 -->
<g id="edge4" class="edge">
<title>Node1&#45;&gt;Node5</title>
<path fill="none" stroke="midnightblue" d="M122.71,-304.52C119.99,-295.78 117.2,-286.8 114.38,-277.76"/>
<polygon fill="none" stroke="midnightblue" points="119.43,-305.76 125.75,-314.27 126.12,-303.68 119.43,-305.76"/>
</g>
<!-- Node6 -->
<g id="node6" class="node">
<title>Node6</title>
<g id="a_node6"><a xlink:href="classComponent_1_1PlayerInputs.html" target="_top" xlink:title=" ">
<polygon fill="white" stroke="black" points="161.5,-50 161.5,-228 301.5,-228 301.5,-50 161.5,-50"/>
<text text-anchor="middle" x="231.5" y="-216" font-family="Helvetica,sans-Serif" font-size="10.00">Component::PlayerInputs</text>
<polyline fill="none" stroke="black" points="161.5,-209 301.5,-209 "/>
<text text-anchor="start" x="169.5" y="-197" font-family="Helvetica,sans-Serif" font-size="10.00">&#45; _input</text>
<text text-anchor="start" x="169.5" y="-186" font-family="Helvetica,sans-Serif" font-size="10.00">&#45; _window</text>
<text text-anchor="start" x="169.5" y="-175" font-family="Helvetica,sans-Serif" font-size="10.00">&#45; _bombKey</text>
<text text-anchor="start" x="169.5" y="-164" font-family="Helvetica,sans-Serif" font-size="10.00">&#45; _entity</text>
<polyline fill="none" stroke="black" points="161.5,-157 301.5,-157 "/>
<text text-anchor="start" x="169.5" y="-145" font-family="Helvetica,sans-Serif" font-size="10.00">+ PlayerInputs()</text>
<text text-anchor="start" x="169.5" y="-134" font-family="Helvetica,sans-Serif" font-size="10.00">+ ~PlayerInputs()</text>
<text text-anchor="start" x="169.5" y="-123" font-family="Helvetica,sans-Serif" font-size="10.00">+ PlayerInputs()</text>
<text text-anchor="start" x="169.5" y="-112" font-family="Helvetica,sans-Serif" font-size="10.00">+ operator=()</text>
<text text-anchor="start" x="169.5" y="-101" font-family="Helvetica,sans-Serif" font-size="10.00">+ Update()</text>
<text text-anchor="start" x="169.5" y="-90" font-family="Helvetica,sans-Serif" font-size="10.00">+ FixedUpdate()</text>
<text text-anchor="start" x="169.5" y="-79" font-family="Helvetica,sans-Serif" font-size="10.00">+ LateUpdate()</text>
<text text-anchor="start" x="169.5" y="-68" font-family="Helvetica,sans-Serif" font-size="10.00">+ operator&lt;&lt;()</text>
<text text-anchor="start" x="169.5" y="-57" font-family="Helvetica,sans-Serif" font-size="10.00">+ operator&lt;&lt;()</text>
</a>
</g>
</g>
<!-- Node1&#45;&gt;Node6 -->
<g id="edge5" class="edge">
<title>Node1&#45;&gt;Node6</title>
<path fill="none" stroke="midnightblue" d="M180.29,-304.5C188.02,-279.69 196.35,-252.92 204,-228.34"/>
<polygon fill="none" stroke="midnightblue" points="176.88,-303.68 177.25,-314.27 183.57,-305.76 176.88,-303.68"/>
</g>
<!-- Node2 -->
<g id="node2" class="node">
<title>Node2</title>
<g id="a_node2"><a xlink:href="classComponent_1_1IBehaviour.html" target="_top" xlink:title="IBehaviour base component (CF Monobehaviour class in Unity)">
<polygon fill="white" stroke="black" points="86,-518.5 86,-641.5 217,-641.5 217,-518.5 86,-518.5"/>
<text text-anchor="middle" x="151.5" y="-629.5" font-family="Helvetica,sans-Serif" font-size="10.00">Component::IBehaviour</text>
<polyline fill="none" stroke="black" points="86,-622.5 217,-622.5 "/>
<text text-anchor="middle" x="151.5" y="-610.5" font-family="Helvetica,sans-Serif" font-size="10.00"> </text>
<polyline fill="none" stroke="black" points="86,-603.5 217,-603.5 "/>
<text text-anchor="start" x="94" y="-591.5" font-family="Helvetica,sans-Serif" font-size="10.00">+ IBehaviour()</text>
<text text-anchor="start" x="94" y="-580.5" font-family="Helvetica,sans-Serif" font-size="10.00">+ ~IBehaviour()</text>
<text text-anchor="start" x="94" y="-569.5" font-family="Helvetica,sans-Serif" font-size="10.00">+ IBehaviour()</text>
<text text-anchor="start" x="94" y="-558.5" font-family="Helvetica,sans-Serif" font-size="10.00">+ operator=()</text>
<text text-anchor="start" x="94" y="-547.5" font-family="Helvetica,sans-Serif" font-size="10.00">+ Update()</text>
<text text-anchor="start" x="94" y="-536.5" font-family="Helvetica,sans-Serif" font-size="10.00">+ FixedUpdate()</text>
<text text-anchor="start" x="94" y="-525.5" font-family="Helvetica,sans-Serif" font-size="10.00">+ LateUpdate()</text>
</a>
</g>
</g>
<!-- Node2&#45;&gt;Node1 -->
<g id="edge1" class="edge">
<title>Node2&#45;&gt;Node1</title>
<path fill="none" stroke="midnightblue" d="M151.5,-508.25C151.5,-499.57 151.5,-490.63 151.5,-481.79"/>
<polygon fill="none" stroke="midnightblue" points="148,-508.31 151.5,-518.31 155,-508.31 148,-508.31"/>
</g>
<!-- Node3 -->
<g id="node3" class="node">
<title>Node3</title>
<g id="a_node3"><a xlink:href="classECS_1_1IComponent.html" target="_top" xlink:title="Base Interface class to create a new component.">
<polygon fill="white" stroke="black" points="100,-678.5 100,-768.5 203,-768.5 203,-678.5 100,-678.5"/>
<text text-anchor="middle" x="151.5" y="-756.5" font-family="Helvetica,sans-Serif" font-size="10.00">ECS::IComponent</text>
<polyline fill="none" stroke="black" points="100,-749.5 203,-749.5 "/>
<text text-anchor="middle" x="151.5" y="-737.5" font-family="Helvetica,sans-Serif" font-size="10.00"> </text>
<polyline fill="none" stroke="black" points="100,-730.5 203,-730.5 "/>
<text text-anchor="start" x="108" y="-718.5" font-family="Helvetica,sans-Serif" font-size="10.00">+ IComponent()</text>
<text text-anchor="start" x="108" y="-707.5" font-family="Helvetica,sans-Serif" font-size="10.00">+ ~IComponent()</text>
<text text-anchor="start" x="108" y="-696.5" font-family="Helvetica,sans-Serif" font-size="10.00">+ IComponent()</text>
<text text-anchor="start" x="108" y="-685.5" font-family="Helvetica,sans-Serif" font-size="10.00">+ operator=()</text>
</a>
</g>
</g>
<!-- Node3&#45;&gt;Node2 -->
<g id="edge2" class="edge">
<title>Node3&#45;&gt;Node2</title>
<path fill="none" stroke="midnightblue" d="M151.5,-668.11C151.5,-659.42 151.5,-650.38 151.5,-641.56"/>
<polygon fill="none" stroke="midnightblue" points="148,-668.12 151.5,-678.12 155,-668.12 148,-668.12"/>
</g>
<!-- Node4 -->
<g id="node4" class="node">
<title>Node4</title>
<g id="a_node4"><a xlink:href="classIXMLSerializable.html" target="_top" xlink:title=" ">
<polygon fill="white" stroke="black" points="89,-805.5 89,-917.5 214,-917.5 214,-805.5 89,-805.5"/>
<text text-anchor="middle" x="151.5" y="-905.5" font-family="Helvetica,sans-Serif" font-size="10.00">IXMLSerializable</text>
<polyline fill="none" stroke="black" points="89,-898.5 214,-898.5 "/>
<text text-anchor="middle" x="151.5" y="-886.5" font-family="Helvetica,sans-Serif" font-size="10.00"> </text>
<polyline fill="none" stroke="black" points="89,-879.5 214,-879.5 "/>
<text text-anchor="start" x="97" y="-867.5" font-family="Helvetica,sans-Serif" font-size="10.00">+ IXMLSerializable()</text>
<text text-anchor="start" x="97" y="-856.5" font-family="Helvetica,sans-Serif" font-size="10.00">+ ~IXMLSerializable()</text>
<text text-anchor="start" x="97" y="-845.5" font-family="Helvetica,sans-Serif" font-size="10.00">+ IXMLSerializable()</text>
<text text-anchor="start" x="97" y="-834.5" font-family="Helvetica,sans-Serif" font-size="10.00">+ operator=()</text>
<text text-anchor="start" x="97" y="-823.5" font-family="Helvetica,sans-Serif" font-size="10.00">+ operator&lt;&lt;()</text>
<text text-anchor="start" x="97" y="-812.5" font-family="Helvetica,sans-Serif" font-size="10.00">+ operator&lt;&lt;()</text>
</a>
</g>
</g>
<!-- Node4&#45;&gt;Node3 -->
<g id="edge3" class="edge">
<title>Node4&#45;&gt;Node3</title>
<path fill="none" stroke="midnightblue" d="M151.5,-795.08C151.5,-786.07 151.5,-777.01 151.5,-768.51"/>
<polygon fill="none" stroke="midnightblue" points="148,-795.18 151.5,-805.18 155,-795.18 148,-795.18"/>
</g>
</g>
</svg>
