<?xml version="1.0" encoding="UTF-8" standalone="no"?>
<!DOCTYPE svg PUBLIC "-//W3C//DTD SVG 1.1//EN"
 "http://www.w3.org/Graphics/SVG/1.1/DTD/svg11.dtd">
<!-- Generated by graphviz version 2.43.0 (0)
 -->
<!-- Title: ECS::IComponent Pages: 1 -->
<svg width="133pt" height="248pt"
 viewBox="0.00 0.00 133.00 248.00" xmlns="http://www.w3.org/2000/svg" xmlns:xlink="http://www.w3.org/1999/xlink">
<g id="graph0" class="graph" transform="scale(1 1) rotate(0) translate(4 244)">
<title>ECS::IComponent</title>
<polygon fill="white" stroke="transparent" points="-4,4 -4,-244 129,-244 129,4 -4,4"/>
<!-- Node1 -->
<g id="node1" class="node">
<title>Node1</title>
<g id="a_node1"><a xlink:title="Base Interface class to create a new component.">
<polygon fill="#bfbfbf" stroke="black" points="11,-0.5 11,-90.5 114,-90.5 114,-0.5 11,-0.5"/>
<text text-anchor="middle" x="62.5" y="-78.5" font-family="Helvetica,sans-Serif" font-size="10.00">ECS::IComponent</text>
<polyline fill="none" stroke="black" points="11,-71.5 114,-71.5 "/>
<text text-anchor="middle" x="62.5" y="-59.5" font-family="Helvetica,sans-Serif" font-size="10.00"> </text>
<polyline fill="none" stroke="black" points="11,-52.5 114,-52.5 "/>
<text text-anchor="start" x="19" y="-40.5" font-family="Helvetica,sans-Serif" font-size="10.00">+ IComponent()</text>
<text text-anchor="start" x="19" y="-29.5" font-family="Helvetica,sans-Serif" font-size="10.00">+ ~IComponent()</text>
<text text-anchor="start" x="19" y="-18.5" font-family="Helvetica,sans-Serif" font-size="10.00">+ IComponent()</text>
<text text-anchor="start" x="19" y="-7.5" font-family="Helvetica,sans-Serif" font-size="10.00">+ operator=()</text>
</a>
</g>
</g>
<!-- Node2 -->
<g id="node2" class="node">
<title>Node2</title>
<g id="a_node2"><a xlink:href="classIXMLSerializable.html" target="_top" xlink:title=" ">
<polygon fill="white" stroke="black" points="0,-127.5 0,-239.5 125,-239.5 125,-127.5 0,-127.5"/>
<text text-anchor="middle" x="62.5" y="-227.5" font-family="Helvetica,sans-Serif" font-size="10.00">IXMLSerializable</text>
<polyline fill="none" stroke="black" points="0,-220.5 125,-220.5 "/>
<text text-anchor="middle" x="62.5" y="-208.5" font-family="Helvetica,sans-Serif" font-size="10.00"> </text>
<polyline fill="none" stroke="black" points="0,-201.5 125,-201.5 "/>
<text text-anchor="start" x="8" y="-189.5" font-family="Helvetica,sans-Serif" font-size="10.00">+ IXMLSerializable()</text>
<text text-anchor="start" x="8" y="-178.5" font-family="Helvetica,sans-Serif" font-size="10.00">+ ~IXMLSerializable()</text>
<text text-anchor="start" x="8" y="-167.5" font-family="Helvetica,sans-Serif" font-size="10.00">+ IXMLSerializable()</text>
<text text-anchor="start" x="8" y="-156.5" font-family="Helvetica,sans-Serif" font-size="10.00">+ operator=()</text>
<text text-anchor="start" x="8" y="-145.5" font-family="Helvetica,sans-Serif" font-size="10.00">+ operator&lt;&lt;()</text>
<text text-anchor="start" x="8" y="-134.5" font-family="Helvetica,sans-Serif" font-size="10.00">+ operator&lt;&lt;()</text>
</a>
</g>
</g>
<!-- Node2&#45;&gt;Node1 -->
<g id="edge1" class="edge">
<title>Node2&#45;&gt;Node1</title>
<path fill="none" stroke="midnightblue" d="M62.5,-117.08C62.5,-108.07 62.5,-99.01 62.5,-90.51"/>
<polygon fill="none" stroke="midnightblue" points="59,-117.18 62.5,-127.18 66,-117.18 59,-117.18"/>
</g>
</g>
</svg>
