<?xml version="1.0" encoding="UTF-8" standalone="no"?>
<!DOCTYPE svg PUBLIC "-//W3C//DTD SVG 1.1//EN"
 "http://www.w3.org/Graphics/SVG/1.1/DTD/svg11.dtd">
<!-- Generated by graphviz version 2.43.0 (0)
 -->
<!-- Title: Component::Explosion Pages: 1 -->
<svg width="578pt" height="965pt"
 viewBox="0.00 0.00 578.00 965.00" xmlns="http://www.w3.org/2000/svg" xmlns:xlink="http://www.w3.org/1999/xlink">
<g id="graph0" class="graph" transform="scale(1 1) rotate(0) translate(4 961)">
<title>Component::Explosion</title>
<polygon fill="white" stroke="transparent" points="-4,4 -4,-961 574,-961 574,4 -4,4"/>
<!-- Node1 -->
<g id="node1" class="node">
<title>Node1</title>
<g id="a_node1"><a xlink:title="Explosion/Bomb component.">
<polygon fill="#bfbfbf" stroke="black" points="140,-0.5 140,-288.5 287,-288.5 287,-0.5 140,-0.5"/>
<text text-anchor="middle" x="213.5" y="-276.5" font-family="Helvetica,sans-Serif" font-size="10.00">Component::Explosion</text>
<polyline fill="none" stroke="black" points="140,-269.5 287,-269.5 "/>
<text text-anchor="start" x="148" y="-257.5" font-family="Helvetica,sans-Serif" font-size="10.00">+ type</text>
<text text-anchor="start" x="148" y="-246.5" font-family="Helvetica,sans-Serif" font-size="10.00">+ power</text>
<text text-anchor="start" x="148" y="-235.5" font-family="Helvetica,sans-Serif" font-size="10.00">&#45; _radius</text>
<text text-anchor="start" x="148" y="-224.5" font-family="Helvetica,sans-Serif" font-size="10.00">&#45; _explosionTimer</text>
<text text-anchor="start" x="148" y="-213.5" font-family="Helvetica,sans-Serif" font-size="10.00">&#45; _window</text>
<text text-anchor="start" x="148" y="-202.5" font-family="Helvetica,sans-Serif" font-size="10.00">&#45; _coordinator</text>
<text text-anchor="start" x="148" y="-191.5" font-family="Helvetica,sans-Serif" font-size="10.00">&#45; _explosionSound</text>
<text text-anchor="start" x="148" y="-180.5" font-family="Helvetica,sans-Serif" font-size="10.00">&#45; _childExplosions</text>
<text text-anchor="start" x="148" y="-169.5" font-family="Helvetica,sans-Serif" font-size="10.00">&#45; _exploding</text>
<polyline fill="none" stroke="black" points="140,-162.5 287,-162.5 "/>
<text text-anchor="start" x="148" y="-150.5" font-family="Helvetica,sans-Serif" font-size="10.00">+ Explosion()</text>
<text text-anchor="start" x="148" y="-139.5" font-family="Helvetica,sans-Serif" font-size="10.00">+ ~Explosion()</text>
<text text-anchor="start" x="148" y="-128.5" font-family="Helvetica,sans-Serif" font-size="10.00">+ Explosion()</text>
<text text-anchor="start" x="148" y="-117.5" font-family="Helvetica,sans-Serif" font-size="10.00">+ operator=()</text>
<text text-anchor="start" x="148" y="-106.5" font-family="Helvetica,sans-Serif" font-size="10.00">+ Update()</text>
<text text-anchor="start" x="148" y="-95.5" font-family="Helvetica,sans-Serif" font-size="10.00">+ FixedUpdate()</text>
<text text-anchor="start" x="148" y="-84.5" font-family="Helvetica,sans-Serif" font-size="10.00">+ LateUpdate()</text>
<text text-anchor="start" x="148" y="-73.5" font-family="Helvetica,sans-Serif" font-size="10.00">+ GetExplosionTimer()</text>
<text text-anchor="start" x="148" y="-62.5" font-family="Helvetica,sans-Serif" font-size="10.00">+ CheckParentLeftRadius()</text>
<text text-anchor="start" x="148" y="-51.5" font-family="Helvetica,sans-Serif" font-size="10.00">+ Explode()</text>
<text text-anchor="start" x="148" y="-40.5" font-family="Helvetica,sans-Serif" font-size="10.00">+ operator&lt;&lt;()</text>
<text text-anchor="start" x="148" y="-29.5" font-family="Helvetica,sans-Serif" font-size="10.00">+ operator&lt;&lt;()</text>
<text text-anchor="start" x="148" y="-18.5" font-family="Helvetica,sans-Serif" font-size="10.00">+ AddChildExplosion()</text>
<text text-anchor="start" x="148" y="-7.5" font-family="Helvetica,sans-Serif" font-size="10.00">+ SpawnParticles()</text>
</a>
</g>
</g>
<!-- Node2 -->
<g id="node2" class="node">
<title>Node2</title>
<g id="a_node2"><a xlink:href="classComponent_1_1IBehaviour.html" target="_top" xlink:title="IBehaviour base component (CF Monobehaviour class in Unity)">
<polygon fill="white" stroke="black" points="0,-375 0,-498 131,-498 131,-375 0,-375"/>
<text text-anchor="middle" x="65.5" y="-486" font-family="Helvetica,sans-Serif" font-size="10.00">Component::IBehaviour</text>
<polyline fill="none" stroke="black" points="0,-479 131,-479 "/>
<text text-anchor="middle" x="65.5" y="-467" font-family="Helvetica,sans-Serif" font-size="10.00"> </text>
<polyline fill="none" stroke="black" points="0,-460 131,-460 "/>
<text text-anchor="start" x="8" y="-448" font-family="Helvetica,sans-Serif" font-size="10.00">+ IBehaviour()</text>
<text text-anchor="start" x="8" y="-437" font-family="Helvetica,sans-Serif" font-size="10.00">+ ~IBehaviour()</text>
<text text-anchor="start" x="8" y="-426" font-family="Helvetica,sans-Serif" font-size="10.00">+ IBehaviour()</text>
<text text-anchor="start" x="8" y="-415" font-family="Helvetica,sans-Serif" font-size="10.00">+ operator=()</text>
<text text-anchor="start" x="8" y="-404" font-family="Helvetica,sans-Serif" font-size="10.00">+ Update()</text>
<text text-anchor="start" x="8" y="-393" font-family="Helvetica,sans-Serif" font-size="10.00">+ FixedUpdate()</text>
<text text-anchor="start" x="8" y="-382" font-family="Helvetica,sans-Serif" font-size="10.00">+ LateUpdate()</text>
</a>
</g>
</g>
<!-- Node2&#45;&gt;Node1 -->
<g id="edge1" class="edge">
<title>Node2&#45;&gt;Node1</title>
<path fill="none" stroke="midnightblue" d="M101.16,-365.62C113.05,-342.32 126.77,-315.45 140.44,-288.65"/>
<polygon fill="none" stroke="midnightblue" points="97.95,-364.21 96.53,-374.71 104.19,-367.39 97.95,-364.21"/>
</g>
<!-- Node3 -->
<g id="node3" class="node">
<title>Node3</title>
<g id="a_node3"><a xlink:href="classECS_1_1IComponent.html" target="_top" xlink:title="Base Interface class to create a new component.">
<polygon fill="white" stroke="black" points="46,-656 46,-746 149,-746 149,-656 46,-656"/>
<text text-anchor="middle" x="97.5" y="-734" font-family="Helvetica,sans-Serif" font-size="10.00">ECS::IComponent</text>
<polyline fill="none" stroke="black" points="46,-727 149,-727 "/>
<text text-anchor="middle" x="97.5" y="-715" font-family="Helvetica,sans-Serif" font-size="10.00"> </text>
<polyline fill="none" stroke="black" points="46,-708 149,-708 "/>
<text text-anchor="start" x="54" y="-696" font-family="Helvetica,sans-Serif" font-size="10.00">+ IComponent()</text>
<text text-anchor="start" x="54" y="-685" font-family="Helvetica,sans-Serif" font-size="10.00">+ ~IComponent()</text>
<text text-anchor="start" x="54" y="-674" font-family="Helvetica,sans-Serif" font-size="10.00">+ IComponent()</text>
<text text-anchor="start" x="54" y="-663" font-family="Helvetica,sans-Serif" font-size="10.00">+ operator=()</text>
</a>
</g>
</g>
<!-- Node3&#45;&gt;Node2 -->
<g id="edge2" class="edge">
<title>Node3&#45;&gt;Node2</title>
<path fill="none" stroke="midnightblue" d="M90.89,-645.78C85.65,-602.79 78.33,-542.75 72.9,-498.17"/>
<polygon fill="none" stroke="midnightblue" points="87.42,-646.26 92.11,-655.77 94.37,-645.42 87.42,-646.26"/>
</g>
<!-- Node5 -->
<g id="node5" class="node">
<title>Node5</title>
<g id="a_node5"><a xlink:href="classComponent_1_1Transform.html" target="_top" xlink:title=" ">
<polygon fill="white" stroke="black" points="149.5,-380.5 149.5,-492.5 277.5,-492.5 277.5,-380.5 149.5,-380.5"/>
<text text-anchor="middle" x="213.5" y="-480.5" font-family="Helvetica,sans-Serif" font-size="10.00">Component::Transform</text>
<polyline fill="none" stroke="black" points="149.5,-473.5 277.5,-473.5 "/>
<text text-anchor="middle" x="213.5" y="-461.5" font-family="Helvetica,sans-Serif" font-size="10.00"> </text>
<polyline fill="none" stroke="black" points="149.5,-454.5 277.5,-454.5 "/>
<text text-anchor="start" x="157.5" y="-442.5" font-family="Helvetica,sans-Serif" font-size="10.00">+ Transform()</text>
<text text-anchor="start" x="157.5" y="-431.5" font-family="Helvetica,sans-Serif" font-size="10.00">+ ~Transform()</text>
<text text-anchor="start" x="157.5" y="-420.5" font-family="Helvetica,sans-Serif" font-size="10.00">+ Transform()</text>
<text text-anchor="start" x="157.5" y="-409.5" font-family="Helvetica,sans-Serif" font-size="10.00">+ operator=()</text>
<text text-anchor="start" x="157.5" y="-398.5" font-family="Helvetica,sans-Serif" font-size="10.00">+ operator&lt;&lt;()</text>
<text text-anchor="start" x="157.5" y="-387.5" font-family="Helvetica,sans-Serif" font-size="10.00">+ operator&lt;&lt;()</text>
</a>
</g>
</g>
<!-- Node3&#45;&gt;Node5 -->
<g id="edge5" class="edge">
<title>Node3&#45;&gt;Node5</title>
<path fill="none" stroke="midnightblue" d="M121.13,-646.52C140.91,-601.77 169.02,-538.15 189.03,-492.88"/>
<polygon fill="none" stroke="midnightblue" points="117.89,-645.21 117.05,-655.77 124.29,-648.04 117.89,-645.21"/>
</g>
<!-- Node4 -->
<g id="node4" class="node">
<title>Node4</title>
<g id="a_node4"><a xlink:href="classIXMLSerializable.html" target="_top" xlink:title=" ">
<polygon fill="white" stroke="black" points="42,-844.5 42,-956.5 167,-956.5 167,-844.5 42,-844.5"/>
<text text-anchor="middle" x="104.5" y="-944.5" font-family="Helvetica,sans-Serif" font-size="10.00">IXMLSerializable</text>
<polyline fill="none" stroke="black" points="42,-937.5 167,-937.5 "/>
<text text-anchor="middle" x="104.5" y="-925.5" font-family="Helvetica,sans-Serif" font-size="10.00"> </text>
<polyline fill="none" stroke="black" points="42,-918.5 167,-918.5 "/>
<text text-anchor="start" x="50" y="-906.5" font-family="Helvetica,sans-Serif" font-size="10.00">+ IXMLSerializable()</text>
<text text-anchor="start" x="50" y="-895.5" font-family="Helvetica,sans-Serif" font-size="10.00">+ ~IXMLSerializable()</text>
<text text-anchor="start" x="50" y="-884.5" font-family="Helvetica,sans-Serif" font-size="10.00">+ IXMLSerializable()</text>
<text text-anchor="start" x="50" y="-873.5" font-family="Helvetica,sans-Serif" font-size="10.00">+ operator=()</text>
<text text-anchor="start" x="50" y="-862.5" font-family="Helvetica,sans-Serif" font-size="10.00">+ operator&lt;&lt;()</text>
<text text-anchor="start" x="50" y="-851.5" font-family="Helvetica,sans-Serif" font-size="10.00">+ operator&lt;&lt;()</text>
</a>
</g>
</g>
<!-- Node4&#45;&gt;Node3 -->
<g id="edge3" class="edge">
<title>Node4&#45;&gt;Node3</title>
<path fill="none" stroke="midnightblue" d="M102.19,-834.44C101.17,-805.47 99.98,-772.1 99.06,-746.11"/>
<polygon fill="none" stroke="midnightblue" points="98.7,-834.62 102.55,-844.49 105.69,-834.37 98.7,-834.62"/>
</g>
<!-- Node6 -->
<g id="node6" class="node">
<title>Node6</title>
<g id="a_node6"><a xlink:href="classRayLib_1_1Vector3.html" target="_top" xlink:title="Vector3 encapsulation.">
<polygon fill="white" stroke="black" points="167.5,-617.5 167.5,-784.5 259.5,-784.5 259.5,-617.5 167.5,-617.5"/>
<text text-anchor="middle" x="213.5" y="-772.5" font-family="Helvetica,sans-Serif" font-size="10.00">RayLib::Vector3</text>
<polyline fill="none" stroke="black" points="167.5,-765.5 259.5,-765.5 "/>
<text text-anchor="middle" x="213.5" y="-753.5" font-family="Helvetica,sans-Serif" font-size="10.00"> </text>
<polyline fill="none" stroke="black" points="167.5,-746.5 259.5,-746.5 "/>
<text text-anchor="start" x="175.5" y="-734.5" font-family="Helvetica,sans-Serif" font-size="10.00">+ Vector3()</text>
<text text-anchor="start" x="175.5" y="-723.5" font-family="Helvetica,sans-Serif" font-size="10.00">+ Vector3()</text>
<text text-anchor="start" x="175.5" y="-712.5" font-family="Helvetica,sans-Serif" font-size="10.00">+ Vector3()</text>
<text text-anchor="start" x="175.5" y="-701.5" font-family="Helvetica,sans-Serif" font-size="10.00">+ Vector3()</text>
<text text-anchor="start" x="175.5" y="-690.5" font-family="Helvetica,sans-Serif" font-size="10.00">+ Vector3()</text>
<text text-anchor="start" x="175.5" y="-679.5" font-family="Helvetica,sans-Serif" font-size="10.00">+ Vector3()</text>
<text text-anchor="start" x="175.5" y="-668.5" font-family="Helvetica,sans-Serif" font-size="10.00">+ ~Vector3()</text>
<text text-anchor="start" x="175.5" y="-657.5" font-family="Helvetica,sans-Serif" font-size="10.00">+ getVector3()</text>
<text text-anchor="start" x="175.5" y="-646.5" font-family="Helvetica,sans-Serif" font-size="10.00">+ operator=()</text>
<text text-anchor="start" x="175.5" y="-635.5" font-family="Helvetica,sans-Serif" font-size="10.00">+ operator*=()</text>
<text text-anchor="start" x="175.5" y="-624.5" font-family="Helvetica,sans-Serif" font-size="10.00">and 13 more...</text>
</a>
</g>
</g>
<!-- Node4&#45;&gt;Node6 -->
<g id="edge8" class="edge">
<title>Node4&#45;&gt;Node6</title>
<path fill="none" stroke="midnightblue" d="M141.41,-835.66C146.85,-826.08 152.36,-816.3 157.5,-807 161.5,-799.77 165.62,-792.23 169.72,-784.67"/>
<polygon fill="none" stroke="midnightblue" points="138.35,-833.96 136.44,-844.38 144.44,-837.43 138.35,-833.96"/>
</g>
<!-- Node5&#45;&gt;Node1 -->
<g id="edge4" class="edge">
<title>Node5&#45;&gt;Node1</title>
<path fill="none" stroke="#404040" d="M213.5,-380.27C213.5,-357.26 213.5,-329.28 213.5,-300.77"/>
<polygon fill="none" stroke="#404040" points="213.5,-300.54 209.5,-294.54 213.5,-288.54 217.5,-294.54 213.5,-300.54"/>
<text text-anchor="middle" x="244" y="-315.5" font-family="Helvetica,sans-Serif" font-size="10.00"> &#45;_transform</text>
</g>
<!-- Node6&#45;&gt;Node5 -->
<g id="edge6" class="edge">
<title>Node6&#45;&gt;Node5</title>
<path fill="none" stroke="#404040" d="M213.5,-617.3C213.5,-581.17 213.5,-539.31 213.5,-505.08"/>
<polygon fill="none" stroke="#404040" points="213.5,-504.84 209.5,-498.84 213.5,-492.84 217.5,-498.84 213.5,-504.84"/>
<text text-anchor="middle" x="238.5" y="-569" font-family="Helvetica,sans-Serif" font-size="10.00"> +rotation</text>
<text text-anchor="middle" x="238.5" y="-558" font-family="Helvetica,sans-Serif" font-size="10.00">+scale</text>
<text text-anchor="middle" x="238.5" y="-547" font-family="Helvetica,sans-Serif" font-size="10.00">+position</text>
</g>
<!-- Node7 -->
<g id="node7" class="node">
<title>Node7</title>
<g id="a_node7"><a xlink:title=" ">
<polygon fill="white" stroke="#bfbfbf" points="187,-872 187,-929 240,-929 240,-872 187,-872"/>
<text text-anchor="middle" x="213.5" y="-917" font-family="Helvetica,sans-Serif" font-size="10.00">Vector3</text>
<polyline fill="none" stroke="#bfbfbf" points="187,-910 240,-910 "/>
<text text-anchor="middle" x="213.5" y="-898" font-family="Helvetica,sans-Serif" font-size="10.00"> </text>
<polyline fill="none" stroke="#bfbfbf" points="187,-891 240,-891 "/>
<text text-anchor="middle" x="213.5" y="-879" font-family="Helvetica,sans-Serif" font-size="10.00"> </text>
</a>
</g>
</g>
<!-- Node7&#45;&gt;Node6 -->
<g id="edge7" class="edge">
<title>Node7&#45;&gt;Node6</title>
<path fill="none" stroke="midnightblue" d="M213.5,-861.48C213.5,-839.69 213.5,-811.45 213.5,-784.81"/>
<polygon fill="none" stroke="midnightblue" points="210,-861.62 213.5,-871.62 217,-861.62 210,-861.62"/>
</g>
<!-- Node8 -->
<g id="node8" class="node">
<title>Node8</title>
<g id="a_node8"><a xlink:href="classECS_1_1Entity.html" target="_top" xlink:title="Scene object containing components and an ID.">
<polygon fill="white" stroke="black" points="295.5,-347.5 295.5,-525.5 409.5,-525.5 409.5,-347.5 295.5,-347.5"/>
<text text-anchor="middle" x="352.5" y="-513.5" font-family="Helvetica,sans-Serif" font-size="10.00">ECS::Entity</text>
<polyline fill="none" stroke="black" points="295.5,-506.5 409.5,-506.5 "/>
<text text-anchor="start" x="303.5" y="-494.5" font-family="Helvetica,sans-Serif" font-size="10.00">&#45; _id</text>
<text text-anchor="start" x="303.5" y="-483.5" font-family="Helvetica,sans-Serif" font-size="10.00">&#45; _tag</text>
<polyline fill="none" stroke="black" points="295.5,-476.5 409.5,-476.5 "/>
<text text-anchor="start" x="303.5" y="-464.5" font-family="Helvetica,sans-Serif" font-size="10.00">+ Entity()</text>
<text text-anchor="start" x="303.5" y="-453.5" font-family="Helvetica,sans-Serif" font-size="10.00">+ Entity()</text>
<text text-anchor="start" x="303.5" y="-442.5" font-family="Helvetica,sans-Serif" font-size="10.00">+ ~Entity()</text>
<text text-anchor="start" x="303.5" y="-431.5" font-family="Helvetica,sans-Serif" font-size="10.00">+ Entity()</text>
<text text-anchor="start" x="303.5" y="-420.5" font-family="Helvetica,sans-Serif" font-size="10.00">+ operator=()</text>
<text text-anchor="start" x="303.5" y="-409.5" font-family="Helvetica,sans-Serif" font-size="10.00">+ GetComponent()</text>
<text text-anchor="start" x="303.5" y="-398.5" font-family="Helvetica,sans-Serif" font-size="10.00">+ OfType()</text>
<text text-anchor="start" x="303.5" y="-387.5" font-family="Helvetica,sans-Serif" font-size="10.00">+ GetComponents()</text>
<text text-anchor="start" x="303.5" y="-376.5" font-family="Helvetica,sans-Serif" font-size="10.00">+ AddComponent()</text>
<text text-anchor="start" x="303.5" y="-365.5" font-family="Helvetica,sans-Serif" font-size="10.00">+ AddComponent()</text>
<text text-anchor="start" x="303.5" y="-354.5" font-family="Helvetica,sans-Serif" font-size="10.00">and 9 more...</text>
</a>
</g>
</g>
<!-- Node8&#45;&gt;Node1 -->
<g id="edge9" class="edge">
<title>Node8&#45;&gt;Node1</title>
<path fill="none" stroke="#404040" d="M310.23,-347.31C302.99,-332.21 295.29,-316.14 287.51,-299.91"/>
<polygon fill="none" stroke="#404040" points="287.3,-299.48 281.1,-295.8 282.12,-288.66 288.32,-292.34 287.3,-299.48"/>
<text text-anchor="middle" x="327.5" y="-321" font-family="Helvetica,sans-Serif" font-size="10.00"> &#45;_parent</text>
<text text-anchor="middle" x="327.5" y="-310" font-family="Helvetica,sans-Serif" font-size="10.00">&#45;_myEntity</text>
</g>
<!-- Node9 -->
<g id="node9" class="node">
<title>Node9</title>
<g id="a_node9"><a xlink:href="classECS_1_1EntityManager.html" target="_top" xlink:title="Class used to manipulate Entities (a.k.a A Scene)">
<polygon fill="white" stroke="black" points="286,-628.5 286,-773.5 401,-773.5 401,-628.5 286,-628.5"/>
<text text-anchor="middle" x="343.5" y="-761.5" font-family="Helvetica,sans-Serif" font-size="10.00">ECS::EntityManager</text>
<polyline fill="none" stroke="black" points="286,-754.5 401,-754.5 "/>
<text text-anchor="start" x="294" y="-742.5" font-family="Helvetica,sans-Serif" font-size="10.00">&#45; _available</text>
<text text-anchor="start" x="294" y="-731.5" font-family="Helvetica,sans-Serif" font-size="10.00">&#45; _max</text>
<text text-anchor="start" x="294" y="-720.5" font-family="Helvetica,sans-Serif" font-size="10.00">&#45; _entities</text>
<polyline fill="none" stroke="black" points="286,-713.5 401,-713.5 "/>
<text text-anchor="start" x="294" y="-701.5" font-family="Helvetica,sans-Serif" font-size="10.00">+ EntityManager()</text>
<text text-anchor="start" x="294" y="-690.5" font-family="Helvetica,sans-Serif" font-size="10.00">+ ~EntityManager()</text>
<text text-anchor="start" x="294" y="-679.5" font-family="Helvetica,sans-Serif" font-size="10.00">+ EntityManager()</text>
<text text-anchor="start" x="294" y="-668.5" font-family="Helvetica,sans-Serif" font-size="10.00">+ operator=()</text>
<text text-anchor="start" x="294" y="-657.5" font-family="Helvetica,sans-Serif" font-size="10.00">+ CreateEntity()</text>
<text text-anchor="start" x="294" y="-646.5" font-family="Helvetica,sans-Serif" font-size="10.00">+ DeleteEntity()</text>
<text text-anchor="start" x="294" y="-635.5" font-family="Helvetica,sans-Serif" font-size="10.00">+ GetEntities()</text>
</a>
</g>
</g>
<!-- Node9&#45;&gt;Node8 -->
<g id="edge10" class="edge">
<title>Node9&#45;&gt;Node8</title>
<path fill="none" stroke="#404040" d="M345.96,-628.27C346.92,-600.39 348.03,-567.95 349.06,-537.83"/>
<polygon fill="none" stroke="#404040" points="349.07,-537.52 345.28,-531.38 349.48,-525.52 353.27,-531.66 349.07,-537.52"/>
<text text-anchor="middle" x="391.5" y="-558" font-family="Helvetica,sans-Serif" font-size="10.00"> &#45;_entityManager</text>
</g>
<!-- Node10 -->
<g id="node10" class="node">
<title>Node10</title>
<g id="a_node10"><a xlink:href="classECS_1_1ComponentManager.html" target="_top" xlink:title="Class used to manipulate Components.">
<polygon fill="white" stroke="black" points="419,-595.5 419,-806.5 570,-806.5 570,-595.5 419,-595.5"/>
<text text-anchor="middle" x="494.5" y="-794.5" font-family="Helvetica,sans-Serif" font-size="10.00">ECS::ComponentManager</text>
<polyline fill="none" stroke="black" points="419,-787.5 570,-787.5 "/>
<text text-anchor="start" x="427" y="-775.5" font-family="Helvetica,sans-Serif" font-size="10.00">&#45; _bases</text>
<text text-anchor="start" x="427" y="-764.5" font-family="Helvetica,sans-Serif" font-size="10.00">&#45; _components</text>
<polyline fill="none" stroke="black" points="419,-757.5 570,-757.5 "/>
<text text-anchor="start" x="427" y="-745.5" font-family="Helvetica,sans-Serif" font-size="10.00">+ ComponentManager()</text>
<text text-anchor="start" x="427" y="-734.5" font-family="Helvetica,sans-Serif" font-size="10.00">+ ~ComponentManager()</text>
<text text-anchor="start" x="427" y="-723.5" font-family="Helvetica,sans-Serif" font-size="10.00">+ ComponentManager()</text>
<text text-anchor="start" x="427" y="-712.5" font-family="Helvetica,sans-Serif" font-size="10.00">+ operator=()</text>
<text text-anchor="start" x="427" y="-701.5" font-family="Helvetica,sans-Serif" font-size="10.00">+ GetComponent()</text>
<text text-anchor="start" x="427" y="-690.5" font-family="Helvetica,sans-Serif" font-size="10.00">+ OfType()</text>
<text text-anchor="start" x="427" y="-679.5" font-family="Helvetica,sans-Serif" font-size="10.00">+ GetComponents()</text>
<text text-anchor="start" x="427" y="-668.5" font-family="Helvetica,sans-Serif" font-size="10.00">+ AddComponent()</text>
<text text-anchor="start" x="427" y="-657.5" font-family="Helvetica,sans-Serif" font-size="10.00">+ AddComponent()</text>
<text text-anchor="start" x="427" y="-646.5" font-family="Helvetica,sans-Serif" font-size="10.00">+ RemoveComponent()</text>
<text text-anchor="start" x="427" y="-635.5" font-family="Helvetica,sans-Serif" font-size="10.00">+ HasComponent()</text>
<text text-anchor="start" x="427" y="-624.5" font-family="Helvetica,sans-Serif" font-size="10.00">+ HasComponent()</text>
<text text-anchor="start" x="427" y="-613.5" font-family="Helvetica,sans-Serif" font-size="10.00">+ HasComponents()</text>
<text text-anchor="start" x="427" y="-602.5" font-family="Helvetica,sans-Serif" font-size="10.00">+ GetComponentByName()</text>
</a>
</g>
</g>
<!-- Node10&#45;&gt;Node8 -->
<g id="edge11" class="edge">
<title>Node10&#45;&gt;Node8</title>
<path fill="none" stroke="#404040" d="M461.5,-595.11C454.5,-577.6 446.47,-559.96 437.5,-544 431.44,-533.22 424.31,-522.39 416.8,-512"/>
<polygon fill="none" stroke="#404040" points="416.66,-511.81 409.87,-509.38 409.5,-502.18 416.29,-504.61 416.66,-511.81"/>
<text text-anchor="middle" x="509.5" y="-558" font-family="Helvetica,sans-Serif" font-size="10.00"> &#45;_componentManager</text>
</g>
</g>
</svg>
