<?xml version="1.0" encoding="UTF-8" standalone="no"?>
<!DOCTYPE svg PUBLIC "-//W3C//DTD SVG 1.1//EN"
 "http://www.w3.org/Graphics/SVG/1.1/DTD/svg11.dtd">
<!-- Generated by graphviz version 2.43.0 (0)
 -->
<!-- Title: Component::Destructible Pages: 1 -->
<svg width="146pt" height="612pt"
 viewBox="0.00 0.00 146.00 612.00" xmlns="http://www.w3.org/2000/svg" xmlns:xlink="http://www.w3.org/1999/xlink">
<g id="graph0" class="graph" transform="scale(1 1) rotate(0) translate(4 608)">
<title>Component::Destructible</title>
<polygon fill="white" stroke="transparent" points="-4,4 -4,-608 142,-608 142,4 -4,4"/>
<!-- Node1 -->
<g id="node1" class="node">
<title>Node1</title>
<g id="a_node1"><a xlink:title="Component allowing for entities to be destructible.">
<polygon fill="#bfbfbf" stroke="black" points="0,-182.5 0,-327.5 138,-327.5 138,-182.5 0,-182.5"/>
<text text-anchor="middle" x="69" y="-315.5" font-family="Helvetica,sans-Serif" font-size="10.00">Component::Destructible</text>
<polyline fill="none" stroke="black" points="0,-308.5 138,-308.5 "/>
<text text-anchor="start" x="8" y="-296.5" font-family="Helvetica,sans-Serif" font-size="10.00"># _myEntity</text>
<text text-anchor="start" x="8" y="-285.5" font-family="Helvetica,sans-Serif" font-size="10.00"># _resistance</text>
<polyline fill="none" stroke="black" points="0,-278.5 138,-278.5 "/>
<text text-anchor="start" x="8" y="-266.5" font-family="Helvetica,sans-Serif" font-size="10.00">+ Destructible()</text>
<text text-anchor="start" x="8" y="-255.5" font-family="Helvetica,sans-Serif" font-size="10.00">+ ~Destructible()</text>
<text text-anchor="start" x="8" y="-244.5" font-family="Helvetica,sans-Serif" font-size="10.00">+ Destructible()</text>
<text text-anchor="start" x="8" y="-233.5" font-family="Helvetica,sans-Serif" font-size="10.00">+ operator=()</text>
<text text-anchor="start" x="8" y="-222.5" font-family="Helvetica,sans-Serif" font-size="10.00">+ GetResistance()</text>
<text text-anchor="start" x="8" y="-211.5" font-family="Helvetica,sans-Serif" font-size="10.00">+ TakeDamage()</text>
<text text-anchor="start" x="8" y="-200.5" font-family="Helvetica,sans-Serif" font-size="10.00">+ operator&lt;&lt;()</text>
<text text-anchor="start" x="8" y="-189.5" font-family="Helvetica,sans-Serif" font-size="10.00">+ operator&lt;&lt;()</text>
</a>
</g>
</g>
<!-- Node4 -->
<g id="node4" class="node">
<title>Node4</title>
<g id="a_node4"><a xlink:href="classComponent_1_1Box.html" target="_top" xlink:title=" ">
<polygon fill="white" stroke="black" points="14.5,-0.5 14.5,-145.5 123.5,-145.5 123.5,-0.5 14.5,-0.5"/>
<text text-anchor="middle" x="69" y="-133.5" font-family="Helvetica,sans-Serif" font-size="10.00">Component::Box</text>
<polyline fill="none" stroke="black" points="14.5,-126.5 123.5,-126.5 "/>
<text text-anchor="start" x="22.5" y="-114.5" font-family="Helvetica,sans-Serif" font-size="10.00">&#45; _lootChance</text>
<polyline fill="none" stroke="black" points="14.5,-107.5 123.5,-107.5 "/>
<text text-anchor="start" x="22.5" y="-95.5" font-family="Helvetica,sans-Serif" font-size="10.00">+ Box()</text>
<text text-anchor="start" x="22.5" y="-84.5" font-family="Helvetica,sans-Serif" font-size="10.00">+ ~Box()</text>
<text text-anchor="start" x="22.5" y="-73.5" font-family="Helvetica,sans-Serif" font-size="10.00">+ Box()</text>
<text text-anchor="start" x="22.5" y="-62.5" font-family="Helvetica,sans-Serif" font-size="10.00">+ operator=()</text>
<text text-anchor="start" x="22.5" y="-51.5" font-family="Helvetica,sans-Serif" font-size="10.00">+ TakeDamage()</text>
<text text-anchor="start" x="22.5" y="-40.5" font-family="Helvetica,sans-Serif" font-size="10.00">+ SpawnLoot()</text>
<text text-anchor="start" x="22.5" y="-29.5" font-family="Helvetica,sans-Serif" font-size="10.00">+ SpawnParticles()</text>
<text text-anchor="start" x="22.5" y="-18.5" font-family="Helvetica,sans-Serif" font-size="10.00">+ operator&lt;&lt;()</text>
<text text-anchor="start" x="22.5" y="-7.5" font-family="Helvetica,sans-Serif" font-size="10.00">+ operator&lt;&lt;()</text>
</a>
</g>
</g>
<!-- Node1&#45;&gt;Node4 -->
<g id="edge3" class="edge">
<title>Node1&#45;&gt;Node4</title>
<path fill="none" stroke="midnightblue" d="M69,-172.08C69,-163.28 69,-154.37 69,-145.71"/>
<polygon fill="none" stroke="midnightblue" points="65.5,-172.34 69,-182.34 72.5,-172.34 65.5,-172.34"/>
</g>
<!-- Node2 -->
<g id="node2" class="node">
<title>Node2</title>
<g id="a_node2"><a xlink:href="classECS_1_1IComponent.html" target="_top" xlink:title="Base Interface class to create a new component.">
<polygon fill="white" stroke="black" points="17.5,-364.5 17.5,-454.5 120.5,-454.5 120.5,-364.5 17.5,-364.5"/>
<text text-anchor="middle" x="69" y="-442.5" font-family="Helvetica,sans-Serif" font-size="10.00">ECS::IComponent</text>
<polyline fill="none" stroke="black" points="17.5,-435.5 120.5,-435.5 "/>
<text text-anchor="middle" x="69" y="-423.5" font-family="Helvetica,sans-Serif" font-size="10.00"> </text>
<polyline fill="none" stroke="black" points="17.5,-416.5 120.5,-416.5 "/>
<text text-anchor="start" x="25.5" y="-404.5" font-family="Helvetica,sans-Serif" font-size="10.00">+ IComponent()</text>
<text text-anchor="start" x="25.5" y="-393.5" font-family="Helvetica,sans-Serif" font-size="10.00">+ ~IComponent()</text>
<text text-anchor="start" x="25.5" y="-382.5" font-family="Helvetica,sans-Serif" font-size="10.00">+ IComponent()</text>
<text text-anchor="start" x="25.5" y="-371.5" font-family="Helvetica,sans-Serif" font-size="10.00">+ operator=()</text>
</a>
</g>
</g>
<!-- Node2&#45;&gt;Node1 -->
<g id="edge1" class="edge">
<title>Node2&#45;&gt;Node1</title>
<path fill="none" stroke="midnightblue" d="M69,-354.13C69,-345.53 69,-336.52 69,-327.59"/>
<polygon fill="none" stroke="midnightblue" points="65.5,-354.39 69,-364.39 72.5,-354.39 65.5,-354.39"/>
</g>
<!-- Node3 -->
<g id="node3" class="node">
<title>Node3</title>
<g id="a_node3"><a xlink:href="classIXMLSerializable.html" target="_top" xlink:title=" ">
<polygon fill="white" stroke="black" points="6.5,-491.5 6.5,-603.5 131.5,-603.5 131.5,-491.5 6.5,-491.5"/>
<text text-anchor="middle" x="69" y="-591.5" font-family="Helvetica,sans-Serif" font-size="10.00">IXMLSerializable</text>
<polyline fill="none" stroke="black" points="6.5,-584.5 131.5,-584.5 "/>
<text text-anchor="middle" x="69" y="-572.5" font-family="Helvetica,sans-Serif" font-size="10.00"> </text>
<polyline fill="none" stroke="black" points="6.5,-565.5 131.5,-565.5 "/>
<text text-anchor="start" x="14.5" y="-553.5" font-family="Helvetica,sans-Serif" font-size="10.00">+ IXMLSerializable()</text>
<text text-anchor="start" x="14.5" y="-542.5" font-family="Helvetica,sans-Serif" font-size="10.00">+ ~IXMLSerializable()</text>
<text text-anchor="start" x="14.5" y="-531.5" font-family="Helvetica,sans-Serif" font-size="10.00">+ IXMLSerializable()</text>
<text text-anchor="start" x="14.5" y="-520.5" font-family="Helvetica,sans-Serif" font-size="10.00">+ operator=()</text>
<text text-anchor="start" x="14.5" y="-509.5" font-family="Helvetica,sans-Serif" font-size="10.00">+ operator&lt;&lt;()</text>
<text text-anchor="start" x="14.5" y="-498.5" font-family="Helvetica,sans-Serif" font-size="10.00">+ operator&lt;&lt;()</text>
</a>
</g>
</g>
<!-- Node3&#45;&gt;Node2 -->
<g id="edge2" class="edge">
<title>Node3&#45;&gt;Node2</title>
<path fill="none" stroke="midnightblue" d="M69,-481.08C69,-472.07 69,-463.01 69,-454.51"/>
<polygon fill="none" stroke="midnightblue" points="65.5,-481.18 69,-491.18 72.5,-481.18 65.5,-481.18"/>
</g>
</g>
</svg>
