<?xml version="1.0" encoding="UTF-8" standalone="no"?>
<!DOCTYPE svg PUBLIC "-//W3C//DTD SVG 1.1//EN"
 "http://www.w3.org/Graphics/SVG/1.1/DTD/svg11.dtd">
<!-- Generated by graphviz version 2.43.0 (0)
 -->
<!-- Title: Component::Explosion Pages: 1 -->
<svg width="155pt" height="766pt"
 viewBox="0.00 0.00 155.00 766.00" xmlns="http://www.w3.org/2000/svg" xmlns:xlink="http://www.w3.org/1999/xlink">
<g id="graph0" class="graph" transform="scale(1 1) rotate(0) translate(4 762)">
<title>Component::Explosion</title>
<polygon fill="white" stroke="transparent" points="-4,4 -4,-762 151,-762 151,4 -4,4"/>
<!-- Node1 -->
<g id="node1" class="node">
<title>Node1</title>
<g id="a_node1"><a xlink:title="Explosion/Bomb component.">
<polygon fill="#bfbfbf" stroke="black" points="0,-0.5 0,-321.5 147,-321.5 147,-0.5 0,-0.5"/>
<text text-anchor="middle" x="73.5" y="-309.5" font-family="Helvetica,sans-Serif" font-size="10.00">Component::Explosion</text>
<polyline fill="none" stroke="black" points="0,-302.5 147,-302.5 "/>
<text text-anchor="start" x="8" y="-290.5" font-family="Helvetica,sans-Serif" font-size="10.00">+ type</text>
<text text-anchor="start" x="8" y="-279.5" font-family="Helvetica,sans-Serif" font-size="10.00">+ power</text>
<text text-anchor="start" x="8" y="-268.5" font-family="Helvetica,sans-Serif" font-size="10.00">&#45; _radius</text>
<text text-anchor="start" x="8" y="-257.5" font-family="Helvetica,sans-Serif" font-size="10.00">&#45; _explosionTimer</text>
<text text-anchor="start" x="8" y="-246.5" font-family="Helvetica,sans-Serif" font-size="10.00">&#45; _window</text>
<text text-anchor="start" x="8" y="-235.5" font-family="Helvetica,sans-Serif" font-size="10.00">&#45; _myEntity</text>
<text text-anchor="start" x="8" y="-224.5" font-family="Helvetica,sans-Serif" font-size="10.00">&#45; _transform</text>
<text text-anchor="start" x="8" y="-213.5" font-family="Helvetica,sans-Serif" font-size="10.00">&#45; _coordinator</text>
<text text-anchor="start" x="8" y="-202.5" font-family="Helvetica,sans-Serif" font-size="10.00">&#45; _parent</text>
<text text-anchor="start" x="8" y="-191.5" font-family="Helvetica,sans-Serif" font-size="10.00">&#45; _explosionSound</text>
<text text-anchor="start" x="8" y="-180.5" font-family="Helvetica,sans-Serif" font-size="10.00">&#45; _childExplosions</text>
<text text-anchor="start" x="8" y="-169.5" font-family="Helvetica,sans-Serif" font-size="10.00">&#45; _exploding</text>
<polyline fill="none" stroke="black" points="0,-162.5 147,-162.5 "/>
<text text-anchor="start" x="8" y="-150.5" font-family="Helvetica,sans-Serif" font-size="10.00">+ Explosion()</text>
<text text-anchor="start" x="8" y="-139.5" font-family="Helvetica,sans-Serif" font-size="10.00">+ ~Explosion()</text>
<text text-anchor="start" x="8" y="-128.5" font-family="Helvetica,sans-Serif" font-size="10.00">+ Explosion()</text>
<text text-anchor="start" x="8" y="-117.5" font-family="Helvetica,sans-Serif" font-size="10.00">+ operator=()</text>
<text text-anchor="start" x="8" y="-106.5" font-family="Helvetica,sans-Serif" font-size="10.00">+ Update()</text>
<text text-anchor="start" x="8" y="-95.5" font-family="Helvetica,sans-Serif" font-size="10.00">+ FixedUpdate()</text>
<text text-anchor="start" x="8" y="-84.5" font-family="Helvetica,sans-Serif" font-size="10.00">+ LateUpdate()</text>
<text text-anchor="start" x="8" y="-73.5" font-family="Helvetica,sans-Serif" font-size="10.00">+ GetExplosionTimer()</text>
<text text-anchor="start" x="8" y="-62.5" font-family="Helvetica,sans-Serif" font-size="10.00">+ CheckParentLeftRadius()</text>
<text text-anchor="start" x="8" y="-51.5" font-family="Helvetica,sans-Serif" font-size="10.00">+ Explode()</text>
<text text-anchor="start" x="8" y="-40.5" font-family="Helvetica,sans-Serif" font-size="10.00">+ operator&lt;&lt;()</text>
<text text-anchor="start" x="8" y="-29.5" font-family="Helvetica,sans-Serif" font-size="10.00">+ operator&lt;&lt;()</text>
<text text-anchor="start" x="8" y="-18.5" font-family="Helvetica,sans-Serif" font-size="10.00">+ AddChildExplosion()</text>
<text text-anchor="start" x="8" y="-7.5" font-family="Helvetica,sans-Serif" font-size="10.00">+ SpawnParticles()</text>
</a>
</g>
</g>
<!-- Node2 -->
<g id="node2" class="node">
<title>Node2</title>
<g id="a_node2"><a xlink:href="classComponent_1_1IBehaviour.html" target="_top" xlink:title="IBehaviour base component (CF Monobehaviour class in Unity)">
<polygon fill="white" stroke="black" points="8,-358.5 8,-481.5 139,-481.5 139,-358.5 8,-358.5"/>
<text text-anchor="middle" x="73.5" y="-469.5" font-family="Helvetica,sans-Serif" font-size="10.00">Component::IBehaviour</text>
<polyline fill="none" stroke="black" points="8,-462.5 139,-462.5 "/>
<text text-anchor="middle" x="73.5" y="-450.5" font-family="Helvetica,sans-Serif" font-size="10.00"> </text>
<polyline fill="none" stroke="black" points="8,-443.5 139,-443.5 "/>
<text text-anchor="start" x="16" y="-431.5" font-family="Helvetica,sans-Serif" font-size="10.00">+ IBehaviour()</text>
<text text-anchor="start" x="16" y="-420.5" font-family="Helvetica,sans-Serif" font-size="10.00">+ ~IBehaviour()</text>
<text text-anchor="start" x="16" y="-409.5" font-family="Helvetica,sans-Serif" font-size="10.00">+ IBehaviour()</text>
<text text-anchor="start" x="16" y="-398.5" font-family="Helvetica,sans-Serif" font-size="10.00">+ operator=()</text>
<text text-anchor="start" x="16" y="-387.5" font-family="Helvetica,sans-Serif" font-size="10.00">+ Update()</text>
<text text-anchor="start" x="16" y="-376.5" font-family="Helvetica,sans-Serif" font-size="10.00">+ FixedUpdate()</text>
<text text-anchor="start" x="16" y="-365.5" font-family="Helvetica,sans-Serif" font-size="10.00">+ LateUpdate()</text>
</a>
</g>
</g>
<!-- Node2&#45;&gt;Node1 -->
<g id="edge1" class="edge">
<title>Node2&#45;&gt;Node1</title>
<path fill="none" stroke="midnightblue" d="M73.5,-348.27C73.5,-339.77 73.5,-330.84 73.5,-321.68"/>
<polygon fill="none" stroke="midnightblue" points="70,-348.42 73.5,-358.42 77,-348.42 70,-348.42"/>
</g>
<!-- Node3 -->
<g id="node3" class="node">
<title>Node3</title>
<g id="a_node3"><a xlink:href="classECS_1_1IComponent.html" target="_top" xlink:title="Base Interface class to create a new component.">
<polygon fill="white" stroke="black" points="22,-518.5 22,-608.5 125,-608.5 125,-518.5 22,-518.5"/>
<text text-anchor="middle" x="73.5" y="-596.5" font-family="Helvetica,sans-Serif" font-size="10.00">ECS::IComponent</text>
<polyline fill="none" stroke="black" points="22,-589.5 125,-589.5 "/>
<text text-anchor="middle" x="73.5" y="-577.5" font-family="Helvetica,sans-Serif" font-size="10.00"> </text>
<polyline fill="none" stroke="black" points="22,-570.5 125,-570.5 "/>
<text text-anchor="start" x="30" y="-558.5" font-family="Helvetica,sans-Serif" font-size="10.00">+ IComponent()</text>
<text text-anchor="start" x="30" y="-547.5" font-family="Helvetica,sans-Serif" font-size="10.00">+ ~IComponent()</text>
<text text-anchor="start" x="30" y="-536.5" font-family="Helvetica,sans-Serif" font-size="10.00">+ IComponent()</text>
<text text-anchor="start" x="30" y="-525.5" font-family="Helvetica,sans-Serif" font-size="10.00">+ operator=()</text>
</a>
</g>
</g>
<!-- Node3&#45;&gt;Node2 -->
<g id="edge2" class="edge">
<title>Node3&#45;&gt;Node2</title>
<path fill="none" stroke="midnightblue" d="M73.5,-508.11C73.5,-499.42 73.5,-490.38 73.5,-481.56"/>
<polygon fill="none" stroke="midnightblue" points="70,-508.12 73.5,-518.12 77,-508.12 70,-508.12"/>
</g>
<!-- Node4 -->
<g id="node4" class="node">
<title>Node4</title>
<g id="a_node4"><a xlink:href="classIXMLSerializable.html" target="_top" xlink:title=" ">
<polygon fill="white" stroke="black" points="11,-645.5 11,-757.5 136,-757.5 136,-645.5 11,-645.5"/>
<text text-anchor="middle" x="73.5" y="-745.5" font-family="Helvetica,sans-Serif" font-size="10.00">IXMLSerializable</text>
<polyline fill="none" stroke="black" points="11,-738.5 136,-738.5 "/>
<text text-anchor="middle" x="73.5" y="-726.5" font-family="Helvetica,sans-Serif" font-size="10.00"> </text>
<polyline fill="none" stroke="black" points="11,-719.5 136,-719.5 "/>
<text text-anchor="start" x="19" y="-707.5" font-family="Helvetica,sans-Serif" font-size="10.00">+ IXMLSerializable()</text>
<text text-anchor="start" x="19" y="-696.5" font-family="Helvetica,sans-Serif" font-size="10.00">+ ~IXMLSerializable()</text>
<text text-anchor="start" x="19" y="-685.5" font-family="Helvetica,sans-Serif" font-size="10.00">+ IXMLSerializable()</text>
<text text-anchor="start" x="19" y="-674.5" font-family="Helvetica,sans-Serif" font-size="10.00">+ operator=()</text>
<text text-anchor="start" x="19" y="-663.5" font-family="Helvetica,sans-Serif" font-size="10.00">+ operator&lt;&lt;()</text>
<text text-anchor="start" x="19" y="-652.5" font-family="Helvetica,sans-Serif" font-size="10.00">+ operator&lt;&lt;()</text>
</a>
</g>
</g>
<!-- Node4&#45;&gt;Node3 -->
<g id="edge3" class="edge">
<title>Node4&#45;&gt;Node3</title>
<path fill="none" stroke="midnightblue" d="M73.5,-635.08C73.5,-626.07 73.5,-617.01 73.5,-608.51"/>
<polygon fill="none" stroke="midnightblue" points="70,-635.18 73.5,-645.18 77,-635.18 70,-635.18"/>
</g>
</g>
</svg>
