<?xml version="1.0" encoding="UTF-8" standalone="no"?>
<!DOCTYPE svg PUBLIC "-//W3C//DTD SVG 1.1//EN"
 "http://www.w3.org/Graphics/SVG/1.1/DTD/svg11.dtd">
<!-- Generated by graphviz version 2.43.0 (0)
 -->
<!-- Title: Component::TextUI Pages: 1 -->
<svg width="236pt" height="713pt"
 viewBox="0.00 0.00 236.00 713.00" xmlns="http://www.w3.org/2000/svg" xmlns:xlink="http://www.w3.org/1999/xlink">
<g id="graph0" class="graph" transform="scale(1 1) rotate(0) translate(4 709)">
<title>Component::TextUI</title>
<polygon fill="white" stroke="transparent" points="-4,4 -4,-709 232,-709 232,4 -4,4"/>
<!-- Node1 -->
<g id="node1" class="node">
<title>Node1</title>
<g id="a_node1"><a xlink:title=" ">
<polygon fill="#bfbfbf" stroke="black" points="68.5,-0.5 68.5,-233.5 178.5,-233.5 178.5,-0.5 68.5,-0.5"/>
<text text-anchor="middle" x="123.5" y="-221.5" font-family="Helvetica,sans-Serif" font-size="10.00">Component::TextUI</text>
<polyline fill="none" stroke="black" points="68.5,-214.5 178.5,-214.5 "/>
<text text-anchor="start" x="76.5" y="-202.5" font-family="Helvetica,sans-Serif" font-size="10.00">&#45; _string</text>
<text text-anchor="start" x="76.5" y="-191.5" font-family="Helvetica,sans-Serif" font-size="10.00">&#45; _font</text>
<text text-anchor="start" x="76.5" y="-180.5" font-family="Helvetica,sans-Serif" font-size="10.00">&#45; _size</text>
<text text-anchor="start" x="76.5" y="-169.5" font-family="Helvetica,sans-Serif" font-size="10.00">&#45; _spacing</text>
<polyline fill="none" stroke="black" points="68.5,-162.5 178.5,-162.5 "/>
<text text-anchor="start" x="76.5" y="-150.5" font-family="Helvetica,sans-Serif" font-size="10.00">+ TextUI()</text>
<text text-anchor="start" x="76.5" y="-139.5" font-family="Helvetica,sans-Serif" font-size="10.00">+ ~TextUI()</text>
<text text-anchor="start" x="76.5" y="-128.5" font-family="Helvetica,sans-Serif" font-size="10.00">+ TextUI()</text>
<text text-anchor="start" x="76.5" y="-117.5" font-family="Helvetica,sans-Serif" font-size="10.00">+ operator=()</text>
<text text-anchor="start" x="76.5" y="-106.5" font-family="Helvetica,sans-Serif" font-size="10.00">+ operator&lt;&lt;()</text>
<text text-anchor="start" x="76.5" y="-95.5" font-family="Helvetica,sans-Serif" font-size="10.00">+ operator&lt;&lt;()</text>
<text text-anchor="start" x="76.5" y="-84.5" font-family="Helvetica,sans-Serif" font-size="10.00">+ Draw()</text>
<text text-anchor="start" x="76.5" y="-73.5" font-family="Helvetica,sans-Serif" font-size="10.00">+ GetContent()</text>
<text text-anchor="start" x="76.5" y="-62.5" font-family="Helvetica,sans-Serif" font-size="10.00">+ SetString()</text>
<text text-anchor="start" x="76.5" y="-51.5" font-family="Helvetica,sans-Serif" font-size="10.00">+ GetSpacing()</text>
<text text-anchor="start" x="76.5" y="-40.5" font-family="Helvetica,sans-Serif" font-size="10.00">+ SetSpacing()</text>
<text text-anchor="start" x="76.5" y="-29.5" font-family="Helvetica,sans-Serif" font-size="10.00">+ GetSize()</text>
<text text-anchor="start" x="76.5" y="-18.5" font-family="Helvetica,sans-Serif" font-size="10.00">+ SetSize()</text>
<text text-anchor="start" x="76.5" y="-7.5" font-family="Helvetica,sans-Serif" font-size="10.00">+ MeasureText()</text>
</a>
</g>
</g>
<!-- Node2 -->
<g id="node2" class="node">
<title>Node2</title>
<g id="a_node2"><a xlink:href="classComponent_1_1IUIObject.html" target="_top" xlink:title="Base class for UI objects.">
<polygon fill="white" stroke="black" points="0.5,-303.5 0.5,-404.5 124.5,-404.5 124.5,-303.5 0.5,-303.5"/>
<text text-anchor="middle" x="62.5" y="-392.5" font-family="Helvetica,sans-Serif" font-size="10.00">Component::IUIObject</text>
<polyline fill="none" stroke="black" points="0.5,-385.5 124.5,-385.5 "/>
<text text-anchor="middle" x="62.5" y="-373.5" font-family="Helvetica,sans-Serif" font-size="10.00"> </text>
<polyline fill="none" stroke="black" points="0.5,-366.5 124.5,-366.5 "/>
<text text-anchor="start" x="8.5" y="-354.5" font-family="Helvetica,sans-Serif" font-size="10.00">+ IUIObject()</text>
<text text-anchor="start" x="8.5" y="-343.5" font-family="Helvetica,sans-Serif" font-size="10.00">+ ~IUIObject()</text>
<text text-anchor="start" x="8.5" y="-332.5" font-family="Helvetica,sans-Serif" font-size="10.00">+ IUIObject()</text>
<text text-anchor="start" x="8.5" y="-321.5" font-family="Helvetica,sans-Serif" font-size="10.00">+ operator=()</text>
<text text-anchor="start" x="8.5" y="-310.5" font-family="Helvetica,sans-Serif" font-size="10.00">+ Draw()</text>
</a>
</g>
</g>
<!-- Node2&#45;&gt;Node1 -->
<g id="edge1" class="edge">
<title>Node2&#45;&gt;Node1</title>
<path fill="none" stroke="midnightblue" d="M77.93,-293.56C82.67,-275.28 88.07,-254.48 93.45,-233.76"/>
<polygon fill="none" stroke="midnightblue" points="74.49,-292.89 75.36,-303.45 81.26,-294.65 74.49,-292.89"/>
</g>
<!-- Node3 -->
<g id="node3" class="node">
<title>Node3</title>
<g id="a_node3"><a xlink:href="classECS_1_1IComponent.html" target="_top" xlink:title="Base Interface class to create a new component.">
<polygon fill="white" stroke="black" points="11,-464.5 11,-554.5 114,-554.5 114,-464.5 11,-464.5"/>
<text text-anchor="middle" x="62.5" y="-542.5" font-family="Helvetica,sans-Serif" font-size="10.00">ECS::IComponent</text>
<polyline fill="none" stroke="black" points="11,-535.5 114,-535.5 "/>
<text text-anchor="middle" x="62.5" y="-523.5" font-family="Helvetica,sans-Serif" font-size="10.00"> </text>
<polyline fill="none" stroke="black" points="11,-516.5 114,-516.5 "/>
<text text-anchor="start" x="19" y="-504.5" font-family="Helvetica,sans-Serif" font-size="10.00">+ IComponent()</text>
<text text-anchor="start" x="19" y="-493.5" font-family="Helvetica,sans-Serif" font-size="10.00">+ ~IComponent()</text>
<text text-anchor="start" x="19" y="-482.5" font-family="Helvetica,sans-Serif" font-size="10.00">+ IComponent()</text>
<text text-anchor="start" x="19" y="-471.5" font-family="Helvetica,sans-Serif" font-size="10.00">+ operator=()</text>
</a>
</g>
</g>
<!-- Node3&#45;&gt;Node2 -->
<g id="edge2" class="edge">
<title>Node3&#45;&gt;Node2</title>
<path fill="none" stroke="midnightblue" d="M62.5,-453.81C62.5,-437.79 62.5,-420.38 62.5,-404.69"/>
<polygon fill="none" stroke="midnightblue" points="59,-454.1 62.5,-464.1 66,-454.1 59,-454.1"/>
</g>
<!-- Node4 -->
<g id="node4" class="node">
<title>Node4</title>
<g id="a_node4"><a xlink:href="classIXMLSerializable.html" target="_top" xlink:title=" ">
<polygon fill="white" stroke="black" points="0,-592.5 0,-704.5 125,-704.5 125,-592.5 0,-592.5"/>
<text text-anchor="middle" x="62.5" y="-692.5" font-family="Helvetica,sans-Serif" font-size="10.00">IXMLSerializable</text>
<polyline fill="none" stroke="black" points="0,-685.5 125,-685.5 "/>
<text text-anchor="middle" x="62.5" y="-673.5" font-family="Helvetica,sans-Serif" font-size="10.00"> </text>
<polyline fill="none" stroke="black" points="0,-666.5 125,-666.5 "/>
<text text-anchor="start" x="8" y="-654.5" font-family="Helvetica,sans-Serif" font-size="10.00">+ IXMLSerializable()</text>
<text text-anchor="start" x="8" y="-643.5" font-family="Helvetica,sans-Serif" font-size="10.00">+ ~IXMLSerializable()</text>
<text text-anchor="start" x="8" y="-632.5" font-family="Helvetica,sans-Serif" font-size="10.00">+ IXMLSerializable()</text>
<text text-anchor="start" x="8" y="-621.5" font-family="Helvetica,sans-Serif" font-size="10.00">+ operator=()</text>
<text text-anchor="start" x="8" y="-610.5" font-family="Helvetica,sans-Serif" font-size="10.00">+ operator&lt;&lt;()</text>
<text text-anchor="start" x="8" y="-599.5" font-family="Helvetica,sans-Serif" font-size="10.00">+ operator&lt;&lt;()</text>
</a>
</g>
</g>
<!-- Node4&#45;&gt;Node3 -->
<g id="edge3" class="edge">
<title>Node4&#45;&gt;Node3</title>
<path fill="none" stroke="midnightblue" d="M62.5,-582.13C62.5,-572.83 62.5,-563.44 62.5,-554.67"/>
<polygon fill="none" stroke="midnightblue" points="59,-582.17 62.5,-592.17 66,-582.17 59,-582.17"/>
</g>
<!-- Node5 -->
<g id="node5" class="node">
<title>Node5</title>
<g id="a_node5"><a xlink:href="classRayLib_1_1Color.html" target="_top" xlink:title="RayLib Color encapsulation.">
<polygon fill="white" stroke="black" points="143,-281.5 143,-426.5 228,-426.5 228,-281.5 143,-281.5"/>
<text text-anchor="middle" x="185.5" y="-414.5" font-family="Helvetica,sans-Serif" font-size="10.00">RayLib::Color</text>
<polyline fill="none" stroke="black" points="143,-407.5 228,-407.5 "/>
<text text-anchor="middle" x="185.5" y="-395.5" font-family="Helvetica,sans-Serif" font-size="10.00"> </text>
<polyline fill="none" stroke="black" points="143,-388.5 228,-388.5 "/>
<text text-anchor="start" x="151" y="-376.5" font-family="Helvetica,sans-Serif" font-size="10.00">+ Color()</text>
<text text-anchor="start" x="151" y="-365.5" font-family="Helvetica,sans-Serif" font-size="10.00">+ Color()</text>
<text text-anchor="start" x="151" y="-354.5" font-family="Helvetica,sans-Serif" font-size="10.00">+ Color()</text>
<text text-anchor="start" x="151" y="-343.5" font-family="Helvetica,sans-Serif" font-size="10.00">+ Color()</text>
<text text-anchor="start" x="151" y="-332.5" font-family="Helvetica,sans-Serif" font-size="10.00">+ Color()</text>
<text text-anchor="start" x="151" y="-321.5" font-family="Helvetica,sans-Serif" font-size="10.00">+ ~Color()</text>
<text text-anchor="start" x="151" y="-310.5" font-family="Helvetica,sans-Serif" font-size="10.00">+ getColor()</text>
<text text-anchor="start" x="151" y="-299.5" font-family="Helvetica,sans-Serif" font-size="10.00">+ operator=()</text>
<text text-anchor="start" x="151" y="-288.5" font-family="Helvetica,sans-Serif" font-size="10.00">+ Lerp()</text>
</a>
</g>
</g>
<!-- Node5&#45;&gt;Node1 -->
<g id="edge4" class="edge">
<title>Node5&#45;&gt;Node1</title>
<path fill="none" stroke="#404040" d="M166.56,-281.22C163.54,-269.76 160.33,-257.62 157.09,-245.33"/>
<polygon fill="none" stroke="#404040" points="157.04,-245.12 151.64,-240.34 153.98,-233.52 159.38,-238.3 157.04,-245.12"/>
<text text-anchor="middle" x="179" y="-255" font-family="Helvetica,sans-Serif" font-size="10.00"> &#45;_color</text>
</g>
<!-- Node6 -->
<g id="node6" class="node">
<title>Node6</title>
<g id="a_node6"><a xlink:title=" ">
<polygon fill="white" stroke="#bfbfbf" points="164.5,-481 164.5,-538 206.5,-538 206.5,-481 164.5,-481"/>
<text text-anchor="middle" x="185.5" y="-526" font-family="Helvetica,sans-Serif" font-size="10.00">Color</text>
<polyline fill="none" stroke="#bfbfbf" points="164.5,-519 206.5,-519 "/>
<text text-anchor="middle" x="185.5" y="-507" font-family="Helvetica,sans-Serif" font-size="10.00"> </text>
<polyline fill="none" stroke="#bfbfbf" points="164.5,-500 206.5,-500 "/>
<text text-anchor="middle" x="185.5" y="-488" font-family="Helvetica,sans-Serif" font-size="10.00"> </text>
</a>
</g>
</g>
<!-- Node6&#45;&gt;Node5 -->
<g id="edge5" class="edge">
<title>Node6&#45;&gt;Node5</title>
<path fill="none" stroke="midnightblue" d="M185.5,-470.54C185.5,-457.24 185.5,-441.84 185.5,-426.71"/>
<polygon fill="none" stroke="midnightblue" points="182,-470.7 185.5,-480.7 189,-470.7 182,-470.7"/>
</g>
</g>
</svg>
