<?xml version="1.0" encoding="UTF-8" standalone="no"?>
<!DOCTYPE svg PUBLIC "-//W3C//DTD SVG 1.1//EN"
 "http://www.w3.org/Graphics/SVG/1.1/DTD/svg11.dtd">
<!-- Generated by graphviz version 2.43.0 (0)
 -->
<!-- Title: Component::Renderer Pages: 1 -->
<svg width="133pt" height="408pt"
 viewBox="0.00 0.00 133.00 408.00" xmlns="http://www.w3.org/2000/svg" xmlns:xlink="http://www.w3.org/1999/xlink">
<g id="graph0" class="graph" transform="scale(1 1) rotate(0) translate(4 404)">
<title>Component::Renderer</title>
<polygon fill="white" stroke="transparent" points="-4,4 -4,-404 129,-404 129,4 -4,4"/>
<!-- Node1 -->
<g id="node1" class="node">
<title>Node1</title>
<g id="a_node1"><a xlink:title="Renderer component.">
<polygon fill="#bfbfbf" stroke="black" points="1,-0.5 1,-123.5 124,-123.5 124,-0.5 1,-0.5"/>
<text text-anchor="middle" x="62.5" y="-111.5" font-family="Helvetica,sans-Serif" font-size="10.00">Component::Renderer</text>
<polyline fill="none" stroke="black" points="1,-104.5 124,-104.5 "/>
<text text-anchor="start" x="9" y="-92.5" font-family="Helvetica,sans-Serif" font-size="10.00">&#45; _name</text>
<polyline fill="none" stroke="black" points="1,-85.5 124,-85.5 "/>
<text text-anchor="start" x="9" y="-73.5" font-family="Helvetica,sans-Serif" font-size="10.00">+ Renderer()</text>
<text text-anchor="start" x="9" y="-62.5" font-family="Helvetica,sans-Serif" font-size="10.00">+ ~Renderer()</text>
<text text-anchor="start" x="9" y="-51.5" font-family="Helvetica,sans-Serif" font-size="10.00">+ Renderer()</text>
<text text-anchor="start" x="9" y="-40.5" font-family="Helvetica,sans-Serif" font-size="10.00">+ operator=()</text>
<text text-anchor="start" x="9" y="-29.5" font-family="Helvetica,sans-Serif" font-size="10.00">+ GetName()</text>
<text text-anchor="start" x="9" y="-18.5" font-family="Helvetica,sans-Serif" font-size="10.00">+ operator&lt;&lt;()</text>
<text text-anchor="start" x="9" y="-7.5" font-family="Helvetica,sans-Serif" font-size="10.00">+ operator&lt;&lt;()</text>
</a>
</g>
</g>
<!-- Node2 -->
<g id="node2" class="node">
<title>Node2</title>
<g id="a_node2"><a xlink:href="classECS_1_1IComponent.html" target="_top" xlink:title="Base Interface class to create a new component.">
<polygon fill="white" stroke="black" points="11,-160.5 11,-250.5 114,-250.5 114,-160.5 11,-160.5"/>
<text text-anchor="middle" x="62.5" y="-238.5" font-family="Helvetica,sans-Serif" font-size="10.00">ECS::IComponent</text>
<polyline fill="none" stroke="black" points="11,-231.5 114,-231.5 "/>
<text text-anchor="middle" x="62.5" y="-219.5" font-family="Helvetica,sans-Serif" font-size="10.00"> </text>
<polyline fill="none" stroke="black" points="11,-212.5 114,-212.5 "/>
<text text-anchor="start" x="19" y="-200.5" font-family="Helvetica,sans-Serif" font-size="10.00">+ IComponent()</text>
<text text-anchor="start" x="19" y="-189.5" font-family="Helvetica,sans-Serif" font-size="10.00">+ ~IComponent()</text>
<text text-anchor="start" x="19" y="-178.5" font-family="Helvetica,sans-Serif" font-size="10.00">+ IComponent()</text>
<text text-anchor="start" x="19" y="-167.5" font-family="Helvetica,sans-Serif" font-size="10.00">+ operator=()</text>
</a>
</g>
</g>
<!-- Node2&#45;&gt;Node1 -->
<g id="edge1" class="edge">
<title>Node2&#45;&gt;Node1</title>
<path fill="none" stroke="midnightblue" d="M62.5,-150.11C62.5,-141.42 62.5,-132.38 62.5,-123.56"/>
<polygon fill="none" stroke="midnightblue" points="59,-150.12 62.5,-160.12 66,-150.12 59,-150.12"/>
</g>
<!-- Node3 -->
<g id="node3" class="node">
<title>Node3</title>
<g id="a_node3"><a xlink:href="classIXMLSerializable.html" target="_top" xlink:title=" ">
<polygon fill="white" stroke="black" points="0,-287.5 0,-399.5 125,-399.5 125,-287.5 0,-287.5"/>
<text text-anchor="middle" x="62.5" y="-387.5" font-family="Helvetica,sans-Serif" font-size="10.00">IXMLSerializable</text>
<polyline fill="none" stroke="black" points="0,-380.5 125,-380.5 "/>
<text text-anchor="middle" x="62.5" y="-368.5" font-family="Helvetica,sans-Serif" font-size="10.00"> </text>
<polyline fill="none" stroke="black" points="0,-361.5 125,-361.5 "/>
<text text-anchor="start" x="8" y="-349.5" font-family="Helvetica,sans-Serif" font-size="10.00">+ IXMLSerializable()</text>
<text text-anchor="start" x="8" y="-338.5" font-family="Helvetica,sans-Serif" font-size="10.00">+ ~IXMLSerializable()</text>
<text text-anchor="start" x="8" y="-327.5" font-family="Helvetica,sans-Serif" font-size="10.00">+ IXMLSerializable()</text>
<text text-anchor="start" x="8" y="-316.5" font-family="Helvetica,sans-Serif" font-size="10.00">+ operator=()</text>
<text text-anchor="start" x="8" y="-305.5" font-family="Helvetica,sans-Serif" font-size="10.00">+ operator&lt;&lt;()</text>
<text text-anchor="start" x="8" y="-294.5" font-family="Helvetica,sans-Serif" font-size="10.00">+ operator&lt;&lt;()</text>
</a>
</g>
</g>
<!-- Node3&#45;&gt;Node2 -->
<g id="edge2" class="edge">
<title>Node3&#45;&gt;Node2</title>
<path fill="none" stroke="midnightblue" d="M62.5,-277.08C62.5,-268.07 62.5,-259.01 62.5,-250.51"/>
<polygon fill="none" stroke="midnightblue" points="59,-277.18 62.5,-287.18 66,-277.18 59,-277.18"/>
</g>
</g>
</svg>
