<?xml version="1.0" encoding="UTF-8" standalone="no"?>
<!DOCTYPE svg PUBLIC "-//W3C//DTD SVG 1.1//EN"
 "http://www.w3.org/Graphics/SVG/1.1/DTD/svg11.dtd">
<!-- Generated by graphviz version 2.43.0 (0)
 -->
<!-- Title: Component::CoolDownBoost Pages: 1 -->
<svg width="164pt" height="794pt"
 viewBox="0.00 0.00 164.00 794.00" xmlns="http://www.w3.org/2000/svg" xmlns:xlink="http://www.w3.org/1999/xlink">
<g id="graph0" class="graph" transform="scale(1 1) rotate(0) translate(4 790)">
<title>Component::CoolDownBoost</title>
<polygon fill="white" stroke="transparent" points="-4,4 -4,-790 160,-790 160,4 -4,4"/>
<!-- Node1 -->
<g id="node1" class="node">
<title>Node1</title>
<g id="a_node1"><a xlink:title=" ">
<polygon fill="#bfbfbf" stroke="black" points="0,-0.5 0,-145.5 156,-145.5 156,-0.5 0,-0.5"/>
<text text-anchor="middle" x="78" y="-133.5" font-family="Helvetica,sans-Serif" font-size="10.00">Component::CoolDownBoost</text>
<polyline fill="none" stroke="black" points="0,-126.5 156,-126.5 "/>
<text text-anchor="middle" x="78" y="-114.5" font-family="Helvetica,sans-Serif" font-size="10.00"> </text>
<polyline fill="none" stroke="black" points="0,-107.5 156,-107.5 "/>
<text text-anchor="start" x="8" y="-95.5" font-family="Helvetica,sans-Serif" font-size="10.00">+ CoolDownBoost()</text>
<text text-anchor="start" x="8" y="-84.5" font-family="Helvetica,sans-Serif" font-size="10.00">+ ~CoolDownBoost()</text>
<text text-anchor="start" x="8" y="-73.5" font-family="Helvetica,sans-Serif" font-size="10.00">+ CoolDownBoost()</text>
<text text-anchor="start" x="8" y="-62.5" font-family="Helvetica,sans-Serif" font-size="10.00">+ operator=()</text>
<text text-anchor="start" x="8" y="-51.5" font-family="Helvetica,sans-Serif" font-size="10.00">+ OnPickup()</text>
<text text-anchor="start" x="8" y="-40.5" font-family="Helvetica,sans-Serif" font-size="10.00">+ DecrementCooldown()</text>
<text text-anchor="start" x="8" y="-29.5" font-family="Helvetica,sans-Serif" font-size="10.00">+ LateUpdate()</text>
<text text-anchor="start" x="8" y="-18.5" font-family="Helvetica,sans-Serif" font-size="10.00">+ operator&lt;&lt;()</text>
<text text-anchor="start" x="8" y="-7.5" font-family="Helvetica,sans-Serif" font-size="10.00">+ operator&lt;&lt;()</text>
</a>
</g>
</g>
<!-- Node2 -->
<g id="node2" class="node">
<title>Node2</title>
<g id="a_node2"><a xlink:href="classComponent_1_1APickUp.html" target="_top" xlink:title=" ">
<polygon fill="white" stroke="black" points="18.5,-182.5 18.5,-349.5 137.5,-349.5 137.5,-182.5 18.5,-182.5"/>
<text text-anchor="middle" x="78" y="-337.5" font-family="Helvetica,sans-Serif" font-size="10.00">Component::APickUp</text>
<polyline fill="none" stroke="black" points="18.5,-330.5 137.5,-330.5 "/>
<text text-anchor="start" x="26.5" y="-318.5" font-family="Helvetica,sans-Serif" font-size="10.00"># _entity</text>
<text text-anchor="start" x="26.5" y="-307.5" font-family="Helvetica,sans-Serif" font-size="10.00"># _pickupRadius</text>
<text text-anchor="start" x="26.5" y="-296.5" font-family="Helvetica,sans-Serif" font-size="10.00"># _coordinator</text>
<polyline fill="none" stroke="black" points="18.5,-289.5 137.5,-289.5 "/>
<text text-anchor="start" x="26.5" y="-277.5" font-family="Helvetica,sans-Serif" font-size="10.00">+ APickUp()</text>
<text text-anchor="start" x="26.5" y="-266.5" font-family="Helvetica,sans-Serif" font-size="10.00">+ ~APickUp()</text>
<text text-anchor="start" x="26.5" y="-255.5" font-family="Helvetica,sans-Serif" font-size="10.00">+ APickUp()</text>
<text text-anchor="start" x="26.5" y="-244.5" font-family="Helvetica,sans-Serif" font-size="10.00">+ operator=()</text>
<text text-anchor="start" x="26.5" y="-233.5" font-family="Helvetica,sans-Serif" font-size="10.00">+ OnPickup()</text>
<text text-anchor="start" x="26.5" y="-222.5" font-family="Helvetica,sans-Serif" font-size="10.00">+ Update()</text>
<text text-anchor="start" x="26.5" y="-211.5" font-family="Helvetica,sans-Serif" font-size="10.00">+ FixedUpdate()</text>
<text text-anchor="start" x="26.5" y="-200.5" font-family="Helvetica,sans-Serif" font-size="10.00">+ LateUpdate()</text>
<text text-anchor="start" x="26.5" y="-189.5" font-family="Helvetica,sans-Serif" font-size="10.00"># getPlayerNbr()</text>
</a>
</g>
</g>
<!-- Node2&#45;&gt;Node1 -->
<g id="edge1" class="edge">
<title>Node2&#45;&gt;Node1</title>
<path fill="none" stroke="midnightblue" d="M78,-172.28C78,-163.35 78,-154.38 78,-145.7"/>
<polygon fill="none" stroke="midnightblue" points="74.5,-172.34 78,-182.34 81.5,-172.34 74.5,-172.34"/>
</g>
<!-- Node3 -->
<g id="node3" class="node">
<title>Node3</title>
<g id="a_node3"><a xlink:href="classComponent_1_1IBehaviour.html" target="_top" xlink:title="IBehaviour base component (CF Monobehaviour class in Unity)">
<polygon fill="white" stroke="black" points="12.5,-386.5 12.5,-509.5 143.5,-509.5 143.5,-386.5 12.5,-386.5"/>
<text text-anchor="middle" x="78" y="-497.5" font-family="Helvetica,sans-Serif" font-size="10.00">Component::IBehaviour</text>
<polyline fill="none" stroke="black" points="12.5,-490.5 143.5,-490.5 "/>
<text text-anchor="middle" x="78" y="-478.5" font-family="Helvetica,sans-Serif" font-size="10.00"> </text>
<polyline fill="none" stroke="black" points="12.5,-471.5 143.5,-471.5 "/>
<text text-anchor="start" x="20.5" y="-459.5" font-family="Helvetica,sans-Serif" font-size="10.00">+ IBehaviour()</text>
<text text-anchor="start" x="20.5" y="-448.5" font-family="Helvetica,sans-Serif" font-size="10.00">+ ~IBehaviour()</text>
<text text-anchor="start" x="20.5" y="-437.5" font-family="Helvetica,sans-Serif" font-size="10.00">+ IBehaviour()</text>
<text text-anchor="start" x="20.5" y="-426.5" font-family="Helvetica,sans-Serif" font-size="10.00">+ operator=()</text>
<text text-anchor="start" x="20.5" y="-415.5" font-family="Helvetica,sans-Serif" font-size="10.00">+ Update()</text>
<text text-anchor="start" x="20.5" y="-404.5" font-family="Helvetica,sans-Serif" font-size="10.00">+ FixedUpdate()</text>
<text text-anchor="start" x="20.5" y="-393.5" font-family="Helvetica,sans-Serif" font-size="10.00">+ LateUpdate()</text>
</a>
</g>
</g>
<!-- Node3&#45;&gt;Node2 -->
<g id="edge2" class="edge">
<title>Node3&#45;&gt;Node2</title>
<path fill="none" stroke="midnightblue" d="M78,-376.25C78,-367.57 78,-358.63 78,-349.79"/>
<polygon fill="none" stroke="midnightblue" points="74.5,-376.31 78,-386.31 81.5,-376.31 74.5,-376.31"/>
</g>
<!-- Node4 -->
<g id="node4" class="node">
<title>Node4</title>
<g id="a_node4"><a xlink:href="classECS_1_1IComponent.html" target="_top" xlink:title="Base Interface class to create a new component.">
<polygon fill="white" stroke="black" points="26.5,-546.5 26.5,-636.5 129.5,-636.5 129.5,-546.5 26.5,-546.5"/>
<text text-anchor="middle" x="78" y="-624.5" font-family="Helvetica,sans-Serif" font-size="10.00">ECS::IComponent</text>
<polyline fill="none" stroke="black" points="26.5,-617.5 129.5,-617.5 "/>
<text text-anchor="middle" x="78" y="-605.5" font-family="Helvetica,sans-Serif" font-size="10.00"> </text>
<polyline fill="none" stroke="black" points="26.5,-598.5 129.5,-598.5 "/>
<text text-anchor="start" x="34.5" y="-586.5" font-family="Helvetica,sans-Serif" font-size="10.00">+ IComponent()</text>
<text text-anchor="start" x="34.5" y="-575.5" font-family="Helvetica,sans-Serif" font-size="10.00">+ ~IComponent()</text>
<text text-anchor="start" x="34.5" y="-564.5" font-family="Helvetica,sans-Serif" font-size="10.00">+ IComponent()</text>
<text text-anchor="start" x="34.5" y="-553.5" font-family="Helvetica,sans-Serif" font-size="10.00">+ operator=()</text>
</a>
</g>
</g>
<!-- Node4&#45;&gt;Node3 -->
<g id="edge3" class="edge">
<title>Node4&#45;&gt;Node3</title>
<path fill="none" stroke="midnightblue" d="M78,-536.11C78,-527.42 78,-518.38 78,-509.56"/>
<polygon fill="none" stroke="midnightblue" points="74.5,-536.12 78,-546.12 81.5,-536.12 74.5,-536.12"/>
</g>
<!-- Node5 -->
<g id="node5" class="node">
<title>Node5</title>
<g id="a_node5"><a xlink:href="classIXMLSerializable.html" target="_top" xlink:title=" ">
<polygon fill="white" stroke="black" points="15.5,-673.5 15.5,-785.5 140.5,-785.5 140.5,-673.5 15.5,-673.5"/>
<text text-anchor="middle" x="78" y="-773.5" font-family="Helvetica,sans-Serif" font-size="10.00">IXMLSerializable</text>
<polyline fill="none" stroke="black" points="15.5,-766.5 140.5,-766.5 "/>
<text text-anchor="middle" x="78" y="-754.5" font-family="Helvetica,sans-Serif" font-size="10.00"> </text>
<polyline fill="none" stroke="black" points="15.5,-747.5 140.5,-747.5 "/>
<text text-anchor="start" x="23.5" y="-735.5" font-family="Helvetica,sans-Serif" font-size="10.00">+ IXMLSerializable()</text>
<text text-anchor="start" x="23.5" y="-724.5" font-family="Helvetica,sans-Serif" font-size="10.00">+ ~IXMLSerializable()</text>
<text text-anchor="start" x="23.5" y="-713.5" font-family="Helvetica,sans-Serif" font-size="10.00">+ IXMLSerializable()</text>
<text text-anchor="start" x="23.5" y="-702.5" font-family="Helvetica,sans-Serif" font-size="10.00">+ operator=()</text>
<text text-anchor="start" x="23.5" y="-691.5" font-family="Helvetica,sans-Serif" font-size="10.00">+ operator&lt;&lt;()</text>
<text text-anchor="start" x="23.5" y="-680.5" font-family="Helvetica,sans-Serif" font-size="10.00">+ operator&lt;&lt;()</text>
</a>
</g>
</g>
<!-- Node5&#45;&gt;Node4 -->
<g id="edge4" class="edge">
<title>Node5&#45;&gt;Node4</title>
<path fill="none" stroke="midnightblue" d="M78,-663.08C78,-654.07 78,-645.01 78,-636.51"/>
<polygon fill="none" stroke="midnightblue" points="74.5,-663.18 78,-673.18 81.5,-663.18 74.5,-663.18"/>
</g>
</g>
</svg>
