<?xml version="1.0" encoding="UTF-8" standalone="no"?>
<!DOCTYPE svg PUBLIC "-//W3C//DTD SVG 1.1//EN"
 "http://www.w3.org/Graphics/SVG/1.1/DTD/svg11.dtd">
<!-- Generated by graphviz version 2.43.0 (0)
 -->
<!-- Title: RayLib::Font Pages: 1 -->
<svg width="106pt" height="270pt"
 viewBox="0.00 0.00 106.00 270.00" xmlns="http://www.w3.org/2000/svg" xmlns:xlink="http://www.w3.org/1999/xlink">
<g id="graph0" class="graph" transform="scale(1 1) rotate(0) translate(4 266)">
<title>RayLib::Font</title>
<polygon fill="white" stroke="transparent" points="-4,4 -4,-266 102,-266 102,4 -4,4"/>
<!-- Node1 -->
<g id="node1" class="node">
<title>Node1</title>
<g id="a_node1"><a xlink:title="Font encapsulation.">
<polygon fill="#bfbfbf" stroke="black" points="0,-0.5 0,-134.5 98,-134.5 98,-0.5 0,-0.5"/>
<text text-anchor="middle" x="49" y="-122.5" font-family="Helvetica,sans-Serif" font-size="10.00">RayLib::Font</text>
<polyline fill="none" stroke="black" points="0,-115.5 98,-115.5 "/>
<text text-anchor="start" x="8" y="-103.5" font-family="Helvetica,sans-Serif" font-size="10.00">+ font</text>
<polyline fill="none" stroke="black" points="0,-96.5 98,-96.5 "/>
<text text-anchor="start" x="8" y="-84.5" font-family="Helvetica,sans-Serif" font-size="10.00">+ Font()</text>
<text text-anchor="start" x="8" y="-73.5" font-family="Helvetica,sans-Serif" font-size="10.00">+ Font()</text>
<text text-anchor="start" x="8" y="-62.5" font-family="Helvetica,sans-Serif" font-size="10.00">+ Font()</text>
<text text-anchor="start" x="8" y="-51.5" font-family="Helvetica,sans-Serif" font-size="10.00">+ Font()</text>
<text text-anchor="start" x="8" y="-40.5" font-family="Helvetica,sans-Serif" font-size="10.00">+ operator=()</text>
<text text-anchor="start" x="8" y="-29.5" font-family="Helvetica,sans-Serif" font-size="10.00">+ DrawText()</text>
<text text-anchor="start" x="8" y="-18.5" font-family="Helvetica,sans-Serif" font-size="10.00">+ MeasureText()</text>
<text text-anchor="start" x="8" y="-7.5" font-family="Helvetica,sans-Serif" font-size="10.00">+ ~Font()</text>
</a>
</g>
</g>
<!-- Node2 -->
<g id="node2" class="node">
<title>Node2</title>
<g id="a_node2"><a xlink:href="classRayLib_1_1IAsset.html" target="_top" xlink:title=" ">
<polygon fill="white" stroke="black" points="6,-171.5 6,-261.5 92,-261.5 92,-171.5 6,-171.5"/>
<text text-anchor="middle" x="49" y="-249.5" font-family="Helvetica,sans-Serif" font-size="10.00">RayLib::IAsset</text>
<polyline fill="none" stroke="black" points="6,-242.5 92,-242.5 "/>
<text text-anchor="middle" x="49" y="-230.5" font-family="Helvetica,sans-Serif" font-size="10.00"> </text>
<polyline fill="none" stroke="black" points="6,-223.5 92,-223.5 "/>
<text text-anchor="start" x="14" y="-211.5" font-family="Helvetica,sans-Serif" font-size="10.00">+ IAsset()</text>
<text text-anchor="start" x="14" y="-200.5" font-family="Helvetica,sans-Serif" font-size="10.00">+ ~IAsset()</text>
<text text-anchor="start" x="14" y="-189.5" font-family="Helvetica,sans-Serif" font-size="10.00">+ IAsset()</text>
<text text-anchor="start" x="14" y="-178.5" font-family="Helvetica,sans-Serif" font-size="10.00">+ operator=()</text>
</a>
</g>
</g>
<!-- Node2&#45;&gt;Node1 -->
<g id="edge1" class="edge">
<title>Node2&#45;&gt;Node1</title>
<path fill="none" stroke="midnightblue" d="M49,-161.37C49,-152.66 49,-143.55 49,-134.59"/>
<polygon fill="none" stroke="midnightblue" points="45.5,-161.4 49,-171.4 52.5,-161.4 45.5,-161.4"/>
</g>
</g>
</svg>
