<?xml version="1.0" encoding="UTF-8" standalone="no"?>
<!DOCTYPE svg PUBLIC "-//W3C//DTD SVG 1.1//EN"
 "http://www.w3.org/Graphics/SVG/1.1/DTD/svg11.dtd">
<!-- Generated by graphviz version 2.43.0 (0)
 -->
<!-- Title: Component::AIAlgo Pages: 1 -->
<svg width="549pt" height="1461pt"
 viewBox="0.00 0.00 549.00 1461.00" xmlns="http://www.w3.org/2000/svg" xmlns:xlink="http://www.w3.org/1999/xlink">
<g id="graph0" class="graph" transform="scale(1 1) rotate(0) translate(4 1457)">
<title>Component::AIAlgo</title>
<polygon fill="white" stroke="transparent" points="-4,4 -4,-1457 545,-1457 545,4 -4,4"/>
<!-- Node1 -->
<g id="node1" class="node">
<title>Node1</title>
<g id="a_node1"><a xlink:title=" ">
<polygon fill="#bfbfbf" stroke="black" points="324.5,-0.5 324.5,-244.5 467.5,-244.5 467.5,-0.5 324.5,-0.5"/>
<text text-anchor="middle" x="396" y="-232.5" font-family="Helvetica,sans-Serif" font-size="10.00">Component::AIAlgo</text>
<polyline fill="none" stroke="black" points="324.5,-225.5 467.5,-225.5 "/>
<text text-anchor="start" x="332.5" y="-213.5" font-family="Helvetica,sans-Serif" font-size="10.00">&#45; _entities</text>
<text text-anchor="start" x="332.5" y="-202.5" font-family="Helvetica,sans-Serif" font-size="10.00">&#45; _speed</text>
<text text-anchor="start" x="332.5" y="-191.5" font-family="Helvetica,sans-Serif" font-size="10.00">&#45; _window</text>
<text text-anchor="start" x="332.5" y="-180.5" font-family="Helvetica,sans-Serif" font-size="10.00">&#45; _directionPath</text>
<text text-anchor="start" x="332.5" y="-169.5" font-family="Helvetica,sans-Serif" font-size="10.00">&#45; _currentState</text>
<text text-anchor="start" x="332.5" y="-158.5" font-family="Helvetica,sans-Serif" font-size="10.00">&#45; _enabled</text>
<text text-anchor="start" x="332.5" y="-147.5" font-family="Helvetica,sans-Serif" font-size="10.00">&#45; _stateDuration</text>
<text text-anchor="start" x="332.5" y="-136.5" font-family="Helvetica,sans-Serif" font-size="10.00">&#45; _timeToStateChange</text>
<polyline fill="none" stroke="black" points="324.5,-129.5 467.5,-129.5 "/>
<text text-anchor="start" x="332.5" y="-117.5" font-family="Helvetica,sans-Serif" font-size="10.00">+ AIAlgo()</text>
<text text-anchor="start" x="332.5" y="-106.5" font-family="Helvetica,sans-Serif" font-size="10.00">+ ~AIAlgo()</text>
<text text-anchor="start" x="332.5" y="-95.5" font-family="Helvetica,sans-Serif" font-size="10.00">+ AIAlgo()</text>
<text text-anchor="start" x="332.5" y="-84.5" font-family="Helvetica,sans-Serif" font-size="10.00">+ operator=()</text>
<text text-anchor="start" x="332.5" y="-73.5" font-family="Helvetica,sans-Serif" font-size="10.00">+ Update()</text>
<text text-anchor="start" x="332.5" y="-62.5" font-family="Helvetica,sans-Serif" font-size="10.00">+ FixedUpdate()</text>
<text text-anchor="start" x="332.5" y="-51.5" font-family="Helvetica,sans-Serif" font-size="10.00">+ LateUpdate()</text>
<text text-anchor="start" x="332.5" y="-40.5" font-family="Helvetica,sans-Serif" font-size="10.00">+ operator&lt;&lt;()</text>
<text text-anchor="start" x="332.5" y="-29.5" font-family="Helvetica,sans-Serif" font-size="10.00">+ operator&lt;&lt;()</text>
<text text-anchor="start" x="332.5" y="-18.5" font-family="Helvetica,sans-Serif" font-size="10.00">+ GetClosestSymbolPos()</text>
<text text-anchor="start" x="332.5" y="-7.5" font-family="Helvetica,sans-Serif" font-size="10.00">and 8 more...</text>
</a>
</g>
</g>
<!-- Node2 -->
<g id="node2" class="node">
<title>Node2</title>
<g id="a_node2"><a xlink:href="classComponent_1_1AController.html" target="_top" xlink:title=" ">
<polygon fill="white" stroke="black" points="169,-314.5 169,-470.5 303,-470.5 303,-314.5 169,-314.5"/>
<text text-anchor="middle" x="236" y="-458.5" font-family="Helvetica,sans-Serif" font-size="10.00">Component::AController</text>
<polyline fill="none" stroke="black" points="169,-451.5 303,-451.5 "/>
<text text-anchor="middle" x="236" y="-439.5" font-family="Helvetica,sans-Serif" font-size="10.00"> </text>
<polyline fill="none" stroke="black" points="169,-432.5 303,-432.5 "/>
<text text-anchor="start" x="177" y="-420.5" font-family="Helvetica,sans-Serif" font-size="10.00">+ AController()</text>
<text text-anchor="start" x="177" y="-409.5" font-family="Helvetica,sans-Serif" font-size="10.00">+ ~AController()</text>
<text text-anchor="start" x="177" y="-398.5" font-family="Helvetica,sans-Serif" font-size="10.00">+ AController()</text>
<text text-anchor="start" x="177" y="-387.5" font-family="Helvetica,sans-Serif" font-size="10.00">+ operator=()</text>
<text text-anchor="start" x="177" y="-376.5" font-family="Helvetica,sans-Serif" font-size="10.00">+ GetMovement()</text>
<text text-anchor="start" x="177" y="-365.5" font-family="Helvetica,sans-Serif" font-size="10.00">+ GetDropBomb()</text>
<text text-anchor="start" x="177" y="-354.5" font-family="Helvetica,sans-Serif" font-size="10.00">+ GetAController()</text>
<text text-anchor="start" x="177" y="-343.5" font-family="Helvetica,sans-Serif" font-size="10.00">+ Update()</text>
<text text-anchor="start" x="177" y="-332.5" font-family="Helvetica,sans-Serif" font-size="10.00">+ FixedUpdate()</text>
<text text-anchor="start" x="177" y="-321.5" font-family="Helvetica,sans-Serif" font-size="10.00">+ LateUpdate()</text>
</a>
</g>
</g>
<!-- Node2&#45;&gt;Node1 -->
<g id="edge1" class="edge">
<title>Node2&#45;&gt;Node1</title>
<path fill="none" stroke="midnightblue" d="M287.26,-305.64C299.11,-285.78 311.94,-264.3 324.48,-243.29"/>
<polygon fill="none" stroke="midnightblue" points="284.18,-303.96 282.06,-314.34 290.2,-307.55 284.18,-303.96"/>
</g>
<!-- Node3 -->
<g id="node3" class="node">
<title>Node3</title>
<g id="a_node3"><a xlink:href="classComponent_1_1IBehaviour.html" target="_top" xlink:title="IBehaviour base component (CF Monobehaviour class in Unity)">
<polygon fill="white" stroke="black" points="112.5,-893 112.5,-1016 243.5,-1016 243.5,-893 112.5,-893"/>
<text text-anchor="middle" x="178" y="-1004" font-family="Helvetica,sans-Serif" font-size="10.00">Component::IBehaviour</text>
<polyline fill="none" stroke="black" points="112.5,-997 243.5,-997 "/>
<text text-anchor="middle" x="178" y="-985" font-family="Helvetica,sans-Serif" font-size="10.00"> </text>
<polyline fill="none" stroke="black" points="112.5,-978 243.5,-978 "/>
<text text-anchor="start" x="120.5" y="-966" font-family="Helvetica,sans-Serif" font-size="10.00">+ IBehaviour()</text>
<text text-anchor="start" x="120.5" y="-955" font-family="Helvetica,sans-Serif" font-size="10.00">+ ~IBehaviour()</text>
<text text-anchor="start" x="120.5" y="-944" font-family="Helvetica,sans-Serif" font-size="10.00">+ IBehaviour()</text>
<text text-anchor="start" x="120.5" y="-933" font-family="Helvetica,sans-Serif" font-size="10.00">+ operator=()</text>
<text text-anchor="start" x="120.5" y="-922" font-family="Helvetica,sans-Serif" font-size="10.00">+ Update()</text>
<text text-anchor="start" x="120.5" y="-911" font-family="Helvetica,sans-Serif" font-size="10.00">+ FixedUpdate()</text>
<text text-anchor="start" x="120.5" y="-900" font-family="Helvetica,sans-Serif" font-size="10.00">+ LateUpdate()</text>
</a>
</g>
</g>
<!-- Node3&#45;&gt;Node2 -->
<g id="edge2" class="edge">
<title>Node3&#45;&gt;Node2</title>
<path fill="none" stroke="midnightblue" d="M185.35,-882.54C196.28,-777.02 216.74,-579.5 228.02,-470.56"/>
<polygon fill="none" stroke="midnightblue" points="181.84,-882.46 184.29,-892.77 188.8,-883.19 181.84,-882.46"/>
</g>
<!-- Node10 -->
<g id="node10" class="node">
<title>Node10</title>
<g id="a_node10"><a xlink:href="classComponent_1_1Movement.html" target="_top" xlink:title="Behaviour script responsible for moving an entity.">
<polygon fill="white" stroke="black" points="49.5,-557 49.5,-801 180.5,-801 180.5,-557 49.5,-557"/>
<text text-anchor="middle" x="115" y="-789" font-family="Helvetica,sans-Serif" font-size="10.00">Component::Movement</text>
<polyline fill="none" stroke="black" points="49.5,-782 180.5,-782 "/>
<text text-anchor="start" x="57.5" y="-770" font-family="Helvetica,sans-Serif" font-size="10.00">&#45; _colliding</text>
<text text-anchor="start" x="57.5" y="-759" font-family="Helvetica,sans-Serif" font-size="10.00">&#45; _speed</text>
<text text-anchor="start" x="57.5" y="-748" font-family="Helvetica,sans-Serif" font-size="10.00">&#45; _startSpeed</text>
<text text-anchor="start" x="57.5" y="-737" font-family="Helvetica,sans-Serif" font-size="10.00">&#45; _bonusTime</text>
<text text-anchor="start" x="57.5" y="-726" font-family="Helvetica,sans-Serif" font-size="10.00">&#45; _maxSpeed</text>
<text text-anchor="start" x="57.5" y="-715" font-family="Helvetica,sans-Serif" font-size="10.00">&#45; _collisionMask</text>
<polyline fill="none" stroke="black" points="49.5,-708 180.5,-708 "/>
<text text-anchor="start" x="57.5" y="-696" font-family="Helvetica,sans-Serif" font-size="10.00">+ Movement()</text>
<text text-anchor="start" x="57.5" y="-685" font-family="Helvetica,sans-Serif" font-size="10.00">+ ~Movement()</text>
<text text-anchor="start" x="57.5" y="-674" font-family="Helvetica,sans-Serif" font-size="10.00">+ Movement()</text>
<text text-anchor="start" x="57.5" y="-663" font-family="Helvetica,sans-Serif" font-size="10.00">+ operator=()</text>
<text text-anchor="start" x="57.5" y="-652" font-family="Helvetica,sans-Serif" font-size="10.00">+ Update()</text>
<text text-anchor="start" x="57.5" y="-641" font-family="Helvetica,sans-Serif" font-size="10.00">+ FixedUpdate()</text>
<text text-anchor="start" x="57.5" y="-630" font-family="Helvetica,sans-Serif" font-size="10.00">+ LateUpdate()</text>
<text text-anchor="start" x="57.5" y="-619" font-family="Helvetica,sans-Serif" font-size="10.00">+ GetBonusTime()</text>
<text text-anchor="start" x="57.5" y="-608" font-family="Helvetica,sans-Serif" font-size="10.00">+ SlipperyCollisions()</text>
<text text-anchor="start" x="57.5" y="-597" font-family="Helvetica,sans-Serif" font-size="10.00">+ CheckCollidersPos()</text>
<text text-anchor="start" x="57.5" y="-586" font-family="Helvetica,sans-Serif" font-size="10.00">+ BoostSpeed()</text>
<text text-anchor="start" x="57.5" y="-575" font-family="Helvetica,sans-Serif" font-size="10.00">+ operator&lt;&lt;()</text>
<text text-anchor="start" x="57.5" y="-564" font-family="Helvetica,sans-Serif" font-size="10.00">+ operator&lt;&lt;()</text>
</a>
</g>
</g>
<!-- Node3&#45;&gt;Node10 -->
<g id="edge11" class="edge">
<title>Node3&#45;&gt;Node10</title>
<path fill="none" stroke="midnightblue" d="M161.77,-883.06C156.01,-858.04 149.35,-829.11 142.89,-801.08"/>
<polygon fill="none" stroke="midnightblue" points="158.36,-883.84 164.02,-892.8 165.18,-882.27 158.36,-883.84"/>
</g>
<!-- Node4 -->
<g id="node4" class="node">
<title>Node4</title>
<g id="a_node4"><a xlink:href="classECS_1_1IComponent.html" target="_top" xlink:title="Base Interface class to create a new component.">
<polygon fill="white" stroke="black" points="127.5,-1152 127.5,-1242 230.5,-1242 230.5,-1152 127.5,-1152"/>
<text text-anchor="middle" x="179" y="-1230" font-family="Helvetica,sans-Serif" font-size="10.00">ECS::IComponent</text>
<polyline fill="none" stroke="black" points="127.5,-1223 230.5,-1223 "/>
<text text-anchor="middle" x="179" y="-1211" font-family="Helvetica,sans-Serif" font-size="10.00"> </text>
<polyline fill="none" stroke="black" points="127.5,-1204 230.5,-1204 "/>
<text text-anchor="start" x="135.5" y="-1192" font-family="Helvetica,sans-Serif" font-size="10.00">+ IComponent()</text>
<text text-anchor="start" x="135.5" y="-1181" font-family="Helvetica,sans-Serif" font-size="10.00">+ ~IComponent()</text>
<text text-anchor="start" x="135.5" y="-1170" font-family="Helvetica,sans-Serif" font-size="10.00">+ IComponent()</text>
<text text-anchor="start" x="135.5" y="-1159" font-family="Helvetica,sans-Serif" font-size="10.00">+ operator=()</text>
</a>
</g>
</g>
<!-- Node4&#45;&gt;Node3 -->
<g id="edge3" class="edge">
<title>Node4&#45;&gt;Node3</title>
<path fill="none" stroke="midnightblue" d="M178.77,-1141.7C178.62,-1104.35 178.41,-1054.72 178.25,-1016.09"/>
<polygon fill="none" stroke="midnightblue" points="175.27,-1141.9 178.82,-1151.89 182.27,-1141.87 175.27,-1141.9"/>
</g>
<!-- Node6 -->
<g id="node6" class="node">
<title>Node6</title>
<g id="a_node6"><a xlink:href="classComponent_1_1DropBomb.html" target="_top" xlink:title="Behaviour for players or AI allowing to drop a bomb upon pressing a key.">
<polygon fill="white" stroke="black" points="237.5,-540.5 237.5,-817.5 394.5,-817.5 394.5,-540.5 237.5,-540.5"/>
<text text-anchor="middle" x="316" y="-805.5" font-family="Helvetica,sans-Serif" font-size="10.00">Component::DropBomb</text>
<polyline fill="none" stroke="black" points="237.5,-798.5 394.5,-798.5 "/>
<text text-anchor="start" x="245.5" y="-786.5" font-family="Helvetica,sans-Serif" font-size="10.00">+ timeToDrop</text>
<text text-anchor="start" x="245.5" y="-775.5" font-family="Helvetica,sans-Serif" font-size="10.00">&#45; _coordinator</text>
<text text-anchor="start" x="245.5" y="-764.5" font-family="Helvetica,sans-Serif" font-size="10.00">&#45; _window</text>
<text text-anchor="start" x="245.5" y="-753.5" font-family="Helvetica,sans-Serif" font-size="10.00">&#45; _bombNumber</text>
<text text-anchor="start" x="245.5" y="-742.5" font-family="Helvetica,sans-Serif" font-size="10.00">&#45; _defaultBombNumber</text>
<text text-anchor="start" x="245.5" y="-731.5" font-family="Helvetica,sans-Serif" font-size="10.00">&#45; _bonusTimeRange</text>
<text text-anchor="start" x="245.5" y="-720.5" font-family="Helvetica,sans-Serif" font-size="10.00">&#45; _bonusTimeCoolDown</text>
<text text-anchor="start" x="245.5" y="-709.5" font-family="Helvetica,sans-Serif" font-size="10.00">&#45; _defaultDropDelay</text>
<text text-anchor="start" x="245.5" y="-698.5" font-family="Helvetica,sans-Serif" font-size="10.00">&#45; _dropDelay</text>
<text text-anchor="start" x="245.5" y="-687.5" font-family="Helvetica,sans-Serif" font-size="10.00">&#45; _minDelay</text>
<text text-anchor="start" x="245.5" y="-676.5" font-family="Helvetica,sans-Serif" font-size="10.00">&#45; _maxBombs</text>
<polyline fill="none" stroke="black" points="237.5,-669.5 394.5,-669.5 "/>
<text text-anchor="start" x="245.5" y="-657.5" font-family="Helvetica,sans-Serif" font-size="10.00">+ DropBomb()</text>
<text text-anchor="start" x="245.5" y="-646.5" font-family="Helvetica,sans-Serif" font-size="10.00">+ ~DropBomb()</text>
<text text-anchor="start" x="245.5" y="-635.5" font-family="Helvetica,sans-Serif" font-size="10.00">+ DropBomb()</text>
<text text-anchor="start" x="245.5" y="-624.5" font-family="Helvetica,sans-Serif" font-size="10.00">+ operator=()</text>
<text text-anchor="start" x="245.5" y="-613.5" font-family="Helvetica,sans-Serif" font-size="10.00">+ InstantiateBomb()</text>
<text text-anchor="start" x="245.5" y="-602.5" font-family="Helvetica,sans-Serif" font-size="10.00">+ CreateBomb()</text>
<text text-anchor="start" x="245.5" y="-591.5" font-family="Helvetica,sans-Serif" font-size="10.00">+ GetBombNumber()</text>
<text text-anchor="start" x="245.5" y="-580.5" font-family="Helvetica,sans-Serif" font-size="10.00">+ GetBonusTimeRange()</text>
<text text-anchor="start" x="245.5" y="-569.5" font-family="Helvetica,sans-Serif" font-size="10.00">+ GetBonusTimeCoolDown()</text>
<text text-anchor="start" x="245.5" y="-558.5" font-family="Helvetica,sans-Serif" font-size="10.00">+ BoostBombNumber()</text>
<text text-anchor="start" x="245.5" y="-547.5" font-family="Helvetica,sans-Serif" font-size="10.00">and 6 more...</text>
</a>
</g>
</g>
<!-- Node4&#45;&gt;Node6 -->
<g id="edge6" class="edge">
<title>Node4&#45;&gt;Node6</title>
<path fill="none" stroke="midnightblue" d="M209.15,-1142.85C224.12,-1114.34 241.26,-1078.14 252,-1044 280.12,-954.65 269.6,-928.22 286,-836 287.06,-830.03 288.16,-823.93 289.29,-817.77"/>
<polygon fill="none" stroke="midnightblue" points="205.99,-1141.35 204.38,-1151.82 212.17,-1144.64 205.99,-1141.35"/>
</g>
<!-- Node5 -->
<g id="node5" class="node">
<title>Node5</title>
<g id="a_node5"><a xlink:href="classIXMLSerializable.html" target="_top" xlink:title=" ">
<polygon fill="white" stroke="black" points="48.5,-1340.5 48.5,-1452.5 173.5,-1452.5 173.5,-1340.5 48.5,-1340.5"/>
<text text-anchor="middle" x="111" y="-1440.5" font-family="Helvetica,sans-Serif" font-size="10.00">IXMLSerializable</text>
<polyline fill="none" stroke="black" points="48.5,-1433.5 173.5,-1433.5 "/>
<text text-anchor="middle" x="111" y="-1421.5" font-family="Helvetica,sans-Serif" font-size="10.00"> </text>
<polyline fill="none" stroke="black" points="48.5,-1414.5 173.5,-1414.5 "/>
<text text-anchor="start" x="56.5" y="-1402.5" font-family="Helvetica,sans-Serif" font-size="10.00">+ IXMLSerializable()</text>
<text text-anchor="start" x="56.5" y="-1391.5" font-family="Helvetica,sans-Serif" font-size="10.00">+ ~IXMLSerializable()</text>
<text text-anchor="start" x="56.5" y="-1380.5" font-family="Helvetica,sans-Serif" font-size="10.00">+ IXMLSerializable()</text>
<text text-anchor="start" x="56.5" y="-1369.5" font-family="Helvetica,sans-Serif" font-size="10.00">+ operator=()</text>
<text text-anchor="start" x="56.5" y="-1358.5" font-family="Helvetica,sans-Serif" font-size="10.00">+ operator&lt;&lt;()</text>
<text text-anchor="start" x="56.5" y="-1347.5" font-family="Helvetica,sans-Serif" font-size="10.00">+ operator&lt;&lt;()</text>
</a>
</g>
</g>
<!-- Node5&#45;&gt;Node4 -->
<g id="edge4" class="edge">
<title>Node5&#45;&gt;Node4</title>
<path fill="none" stroke="midnightblue" d="M133.27,-1330.82C143.27,-1301.76 154.82,-1268.22 163.81,-1242.11"/>
<polygon fill="none" stroke="midnightblue" points="129.89,-1329.89 129.94,-1340.49 136.51,-1332.17 129.89,-1329.89"/>
</g>
<!-- Node11 -->
<g id="node11" class="node">
<title>Node11</title>
<g id="a_node11"><a xlink:href="classRayLib_1_1Vector3.html" target="_top" xlink:title="Vector3 encapsulation.">
<polygon fill="white" stroke="black" points="0,-871 0,-1038 92,-1038 92,-871 0,-871"/>
<text text-anchor="middle" x="46" y="-1026" font-family="Helvetica,sans-Serif" font-size="10.00">RayLib::Vector3</text>
<polyline fill="none" stroke="black" points="0,-1019 92,-1019 "/>
<text text-anchor="middle" x="46" y="-1007" font-family="Helvetica,sans-Serif" font-size="10.00"> </text>
<polyline fill="none" stroke="black" points="0,-1000 92,-1000 "/>
<text text-anchor="start" x="8" y="-988" font-family="Helvetica,sans-Serif" font-size="10.00">+ Vector3()</text>
<text text-anchor="start" x="8" y="-977" font-family="Helvetica,sans-Serif" font-size="10.00">+ Vector3()</text>
<text text-anchor="start" x="8" y="-966" font-family="Helvetica,sans-Serif" font-size="10.00">+ Vector3()</text>
<text text-anchor="start" x="8" y="-955" font-family="Helvetica,sans-Serif" font-size="10.00">+ Vector3()</text>
<text text-anchor="start" x="8" y="-944" font-family="Helvetica,sans-Serif" font-size="10.00">+ Vector3()</text>
<text text-anchor="start" x="8" y="-933" font-family="Helvetica,sans-Serif" font-size="10.00">+ Vector3()</text>
<text text-anchor="start" x="8" y="-922" font-family="Helvetica,sans-Serif" font-size="10.00">+ ~Vector3()</text>
<text text-anchor="start" x="8" y="-911" font-family="Helvetica,sans-Serif" font-size="10.00">+ getVector3()</text>
<text text-anchor="start" x="8" y="-900" font-family="Helvetica,sans-Serif" font-size="10.00">+ operator=()</text>
<text text-anchor="start" x="8" y="-889" font-family="Helvetica,sans-Serif" font-size="10.00">+ operator*=()</text>
<text text-anchor="start" x="8" y="-878" font-family="Helvetica,sans-Serif" font-size="10.00">and 13 more...</text>
</a>
</g>
</g>
<!-- Node5&#45;&gt;Node11 -->
<g id="edge14" class="edge">
<title>Node5&#45;&gt;Node11</title>
<path fill="none" stroke="midnightblue" d="M106.7,-1330.45C102.02,-1268.56 93.22,-1172.98 79,-1091 76.02,-1073.82 72.11,-1055.59 68.02,-1038.25"/>
<polygon fill="none" stroke="midnightblue" points="103.22,-1330.75 107.45,-1340.46 110.2,-1330.23 103.22,-1330.75"/>
</g>
<!-- Node6&#45;&gt;Node2 -->
<g id="edge5" class="edge">
<title>Node6&#45;&gt;Node2</title>
<path fill="none" stroke="#404040" d="M277.29,-540.33C271.73,-520.58 266.14,-500.7 260.95,-482.24"/>
<polygon fill="none" stroke="#404040" points="260.94,-482.18 255.46,-477.49 257.69,-470.63 263.16,-475.32 260.94,-482.18"/>
<text text-anchor="middle" x="305.5" y="-514" font-family="Helvetica,sans-Serif" font-size="10.00"> #_dropBomb</text>
</g>
<!-- Node7 -->
<g id="node7" class="node">
<title>Node7</title>
<g id="a_node7"><a xlink:href="classECS_1_1Entity.html" target="_top" xlink:title="Scene object containing components and an ID.">
<polygon fill="white" stroke="black" points="312,-865.5 312,-1043.5 426,-1043.5 426,-865.5 312,-865.5"/>
<text text-anchor="middle" x="369" y="-1031.5" font-family="Helvetica,sans-Serif" font-size="10.00">ECS::Entity</text>
<polyline fill="none" stroke="black" points="312,-1024.5 426,-1024.5 "/>
<text text-anchor="start" x="320" y="-1012.5" font-family="Helvetica,sans-Serif" font-size="10.00">&#45; _id</text>
<text text-anchor="start" x="320" y="-1001.5" font-family="Helvetica,sans-Serif" font-size="10.00">&#45; _tag</text>
<polyline fill="none" stroke="black" points="312,-994.5 426,-994.5 "/>
<text text-anchor="start" x="320" y="-982.5" font-family="Helvetica,sans-Serif" font-size="10.00">+ Entity()</text>
<text text-anchor="start" x="320" y="-971.5" font-family="Helvetica,sans-Serif" font-size="10.00">+ Entity()</text>
<text text-anchor="start" x="320" y="-960.5" font-family="Helvetica,sans-Serif" font-size="10.00">+ ~Entity()</text>
<text text-anchor="start" x="320" y="-949.5" font-family="Helvetica,sans-Serif" font-size="10.00">+ Entity()</text>
<text text-anchor="start" x="320" y="-938.5" font-family="Helvetica,sans-Serif" font-size="10.00">+ operator=()</text>
<text text-anchor="start" x="320" y="-927.5" font-family="Helvetica,sans-Serif" font-size="10.00">+ GetComponent()</text>
<text text-anchor="start" x="320" y="-916.5" font-family="Helvetica,sans-Serif" font-size="10.00">+ OfType()</text>
<text text-anchor="start" x="320" y="-905.5" font-family="Helvetica,sans-Serif" font-size="10.00">+ GetComponents()</text>
<text text-anchor="start" x="320" y="-894.5" font-family="Helvetica,sans-Serif" font-size="10.00">+ AddComponent()</text>
<text text-anchor="start" x="320" y="-883.5" font-family="Helvetica,sans-Serif" font-size="10.00">+ AddComponent()</text>
<text text-anchor="start" x="320" y="-872.5" font-family="Helvetica,sans-Serif" font-size="10.00">and 9 more...</text>
</a>
</g>
</g>
<!-- Node7&#45;&gt;Node1 -->
<g id="edge18" class="edge">
<title>Node7&#45;&gt;Node1</title>
<path fill="none" stroke="#404040" d="M394.48,-865.17C398.02,-849.58 401.1,-833.41 403,-818 426.97,-623.96 417.77,-397.1 407.8,-256.85"/>
<polygon fill="none" stroke="#404040" points="407.79,-256.77 403.37,-251.08 406.93,-244.81 411.35,-250.5 407.79,-256.77"/>
<text text-anchor="middle" x="447" y="-514" font-family="Helvetica,sans-Serif" font-size="10.00"> &#45;_ai_player</text>
</g>
<!-- Node7&#45;&gt;Node6 -->
<g id="edge7" class="edge">
<title>Node7&#45;&gt;Node6</title>
<path fill="none" stroke="#404040" d="M352.59,-865.26C350.72,-855.39 348.83,-845.48 347,-836 346.6,-833.95 346.2,-831.88 345.8,-829.81"/>
<polygon fill="none" stroke="#404040" points="345.76,-829.57 340.69,-824.44 343.47,-817.79 348.54,-822.92 345.76,-829.57"/>
<text text-anchor="middle" x="364.5" y="-839" font-family="Helvetica,sans-Serif" font-size="10.00"> &#45;_self</text>
</g>
<!-- Node7&#45;&gt;Node10 -->
<g id="edge15" class="edge">
<title>Node7&#45;&gt;Node10</title>
<path fill="none" stroke="#404040" d="M311.9,-901.57C285.63,-876.94 254.49,-846.68 228,-818 214.86,-803.78 201.4,-788.27 188.56,-772.95"/>
<polygon fill="none" stroke="#404040" points="188.33,-772.68 181.42,-770.63 180.65,-763.46 187.57,-765.51 188.33,-772.68"/>
<text text-anchor="middle" x="274.5" y="-839" font-family="Helvetica,sans-Serif" font-size="10.00"> &#45;_entity</text>
</g>
<!-- Node8 -->
<g id="node8" class="node">
<title>Node8</title>
<g id="a_node8"><a xlink:href="classECS_1_1EntityManager.html" target="_top" xlink:title="Class used to manipulate Entities (a.k.a A Scene)">
<polygon fill="white" stroke="black" points="248.5,-1124.5 248.5,-1269.5 363.5,-1269.5 363.5,-1124.5 248.5,-1124.5"/>
<text text-anchor="middle" x="306" y="-1257.5" font-family="Helvetica,sans-Serif" font-size="10.00">ECS::EntityManager</text>
<polyline fill="none" stroke="black" points="248.5,-1250.5 363.5,-1250.5 "/>
<text text-anchor="start" x="256.5" y="-1238.5" font-family="Helvetica,sans-Serif" font-size="10.00">&#45; _available</text>
<text text-anchor="start" x="256.5" y="-1227.5" font-family="Helvetica,sans-Serif" font-size="10.00">&#45; _max</text>
<text text-anchor="start" x="256.5" y="-1216.5" font-family="Helvetica,sans-Serif" font-size="10.00">&#45; _entities</text>
<polyline fill="none" stroke="black" points="248.5,-1209.5 363.5,-1209.5 "/>
<text text-anchor="start" x="256.5" y="-1197.5" font-family="Helvetica,sans-Serif" font-size="10.00">+ EntityManager()</text>
<text text-anchor="start" x="256.5" y="-1186.5" font-family="Helvetica,sans-Serif" font-size="10.00">+ ~EntityManager()</text>
<text text-anchor="start" x="256.5" y="-1175.5" font-family="Helvetica,sans-Serif" font-size="10.00">+ EntityManager()</text>
<text text-anchor="start" x="256.5" y="-1164.5" font-family="Helvetica,sans-Serif" font-size="10.00">+ operator=()</text>
<text text-anchor="start" x="256.5" y="-1153.5" font-family="Helvetica,sans-Serif" font-size="10.00">+ CreateEntity()</text>
<text text-anchor="start" x="256.5" y="-1142.5" font-family="Helvetica,sans-Serif" font-size="10.00">+ DeleteEntity()</text>
<text text-anchor="start" x="256.5" y="-1131.5" font-family="Helvetica,sans-Serif" font-size="10.00">+ GetEntities()</text>
</a>
</g>
</g>
<!-- Node8&#45;&gt;Node7 -->
<g id="edge8" class="edge">
<title>Node8&#45;&gt;Node7</title>
<path fill="none" stroke="#404040" d="M324.73,-1124.49C330.41,-1102.82 336.75,-1078.6 342.83,-1055.42"/>
<polygon fill="none" stroke="#404040" points="342.84,-1055.38 340.49,-1048.56 345.88,-1043.77 348.23,-1050.59 342.84,-1055.38"/>
<text text-anchor="middle" x="382" y="-1065" font-family="Helvetica,sans-Serif" font-size="10.00"> &#45;_entityManager</text>
</g>
<!-- Node9 -->
<g id="node9" class="node">
<title>Node9</title>
<g id="a_node9"><a xlink:href="classECS_1_1ComponentManager.html" target="_top" xlink:title="Class used to manipulate Components.">
<polygon fill="white" stroke="black" points="381.5,-1091.5 381.5,-1302.5 532.5,-1302.5 532.5,-1091.5 381.5,-1091.5"/>
<text text-anchor="middle" x="457" y="-1290.5" font-family="Helvetica,sans-Serif" font-size="10.00">ECS::ComponentManager</text>
<polyline fill="none" stroke="black" points="381.5,-1283.5 532.5,-1283.5 "/>
<text text-anchor="start" x="389.5" y="-1271.5" font-family="Helvetica,sans-Serif" font-size="10.00">&#45; _bases</text>
<text text-anchor="start" x="389.5" y="-1260.5" font-family="Helvetica,sans-Serif" font-size="10.00">&#45; _components</text>
<polyline fill="none" stroke="black" points="381.5,-1253.5 532.5,-1253.5 "/>
<text text-anchor="start" x="389.5" y="-1241.5" font-family="Helvetica,sans-Serif" font-size="10.00">+ ComponentManager()</text>
<text text-anchor="start" x="389.5" y="-1230.5" font-family="Helvetica,sans-Serif" font-size="10.00">+ ~ComponentManager()</text>
<text text-anchor="start" x="389.5" y="-1219.5" font-family="Helvetica,sans-Serif" font-size="10.00">+ ComponentManager()</text>
<text text-anchor="start" x="389.5" y="-1208.5" font-family="Helvetica,sans-Serif" font-size="10.00">+ operator=()</text>
<text text-anchor="start" x="389.5" y="-1197.5" font-family="Helvetica,sans-Serif" font-size="10.00">+ GetComponent()</text>
<text text-anchor="start" x="389.5" y="-1186.5" font-family="Helvetica,sans-Serif" font-size="10.00">+ OfType()</text>
<text text-anchor="start" x="389.5" y="-1175.5" font-family="Helvetica,sans-Serif" font-size="10.00">+ GetComponents()</text>
<text text-anchor="start" x="389.5" y="-1164.5" font-family="Helvetica,sans-Serif" font-size="10.00">+ AddComponent()</text>
<text text-anchor="start" x="389.5" y="-1153.5" font-family="Helvetica,sans-Serif" font-size="10.00">+ AddComponent()</text>
<text text-anchor="start" x="389.5" y="-1142.5" font-family="Helvetica,sans-Serif" font-size="10.00">+ RemoveComponent()</text>
<text text-anchor="start" x="389.5" y="-1131.5" font-family="Helvetica,sans-Serif" font-size="10.00">+ HasComponent()</text>
<text text-anchor="start" x="389.5" y="-1120.5" font-family="Helvetica,sans-Serif" font-size="10.00">+ HasComponent()</text>
<text text-anchor="start" x="389.5" y="-1109.5" font-family="Helvetica,sans-Serif" font-size="10.00">+ HasComponents()</text>
<text text-anchor="start" x="389.5" y="-1098.5" font-family="Helvetica,sans-Serif" font-size="10.00">+ GetComponentByName()</text>
</a>
</g>
</g>
<!-- Node9&#45;&gt;Node7 -->
<g id="edge9" class="edge">
<title>Node9&#45;&gt;Node7</title>
<path fill="none" stroke="#404040" d="M437.46,-1091.25C434.66,-1081.25 431.52,-1071.36 428,-1062 427.11,-1059.64 426.18,-1057.27 425.21,-1054.9"/>
<polygon fill="none" stroke="#404040" points="425.17,-1054.79 419.11,-1050.87 420.41,-1043.78 426.46,-1047.7 425.17,-1054.79"/>
<text text-anchor="middle" x="486" y="-1065" font-family="Helvetica,sans-Serif" font-size="10.00"> &#45;_componentManager</text>
</g>
<!-- Node10&#45;&gt;Node2 -->
<g id="edge10" class="edge">
<title>Node10&#45;&gt;Node2</title>
<path fill="none" stroke="#404040" d="M112.29,-556.6C114.8,-540.86 118.83,-525.26 125,-511 133.34,-491.73 146.28,-473.69 160.43,-457.8"/>
<polygon fill="none" stroke="#404040" points="160.71,-457.5 161.86,-450.38 168.87,-448.71 167.72,-455.82 160.71,-457.5"/>
<text text-anchor="middle" x="160" y="-514" font-family="Helvetica,sans-Serif" font-size="10.00"> #_movement</text>
</g>
<!-- Node11&#45;&gt;Node1 -->
<g id="edge16" class="edge">
<title>Node11&#45;&gt;Node1</title>
<path fill="none" stroke="#404040" d="M33.37,-870.69C23.15,-786.34 14.25,-652.32 40,-540 67.36,-420.65 81.05,-385.6 160,-292 202.96,-241.07 264.57,-197.77 314.07,-167.82"/>
<polygon fill="none" stroke="#404040" points="314.13,-167.78 317.23,-161.27 324.43,-161.63 321.33,-168.14 314.13,-167.78"/>
<text text-anchor="middle" x="74.5" y="-514" font-family="Helvetica,sans-Serif" font-size="10.00"> &#45;_direction</text>
</g>
<!-- Node11&#45;&gt;Node10 -->
<g id="edge12" class="edge">
<title>Node11&#45;&gt;Node10</title>
<path fill="none" stroke="#404040" d="M66.89,-870.7C71.49,-852.45 76.48,-832.68 81.45,-813"/>
<polygon fill="none" stroke="#404040" points="81.51,-812.75 79.1,-805.95 84.44,-801.12 86.85,-807.91 81.51,-812.75"/>
<text text-anchor="middle" x="102.5" y="-839" font-family="Helvetica,sans-Serif" font-size="10.00"> +direction</text>
</g>
<!-- Node12 -->
<g id="node12" class="node">
<title>Node12</title>
<g id="a_node12"><a xlink:title=" ">
<polygon fill="white" stroke="#bfbfbf" points="17.5,-1168.5 17.5,-1225.5 70.5,-1225.5 70.5,-1168.5 17.5,-1168.5"/>
<text text-anchor="middle" x="44" y="-1213.5" font-family="Helvetica,sans-Serif" font-size="10.00">Vector3</text>
<polyline fill="none" stroke="#bfbfbf" points="17.5,-1206.5 70.5,-1206.5 "/>
<text text-anchor="middle" x="44" y="-1194.5" font-family="Helvetica,sans-Serif" font-size="10.00"> </text>
<polyline fill="none" stroke="#bfbfbf" points="17.5,-1187.5 70.5,-1187.5 "/>
<text text-anchor="middle" x="44" y="-1175.5" font-family="Helvetica,sans-Serif" font-size="10.00"> </text>
</a>
</g>
</g>
<!-- Node12&#45;&gt;Node11 -->
<g id="edge13" class="edge">
<title>Node12&#45;&gt;Node11</title>
<path fill="none" stroke="midnightblue" d="M44.31,-1158.13C44.58,-1126 44.97,-1078.78 45.31,-1038"/>
<polygon fill="none" stroke="midnightblue" points="40.81,-1158.38 44.23,-1168.41 47.81,-1158.44 40.81,-1158.38"/>
</g>
<!-- Node13 -->
<g id="node13" class="node">
<title>Node13</title>
<g id="a_node13"><a xlink:href="classLua_1_1State.html" target="_top" xlink:title="Lua Stack State.">
<polygon fill="white" stroke="black" points="451.5,-292.5 451.5,-492.5 540.5,-492.5 540.5,-292.5 451.5,-292.5"/>
<text text-anchor="middle" x="496" y="-480.5" font-family="Helvetica,sans-Serif" font-size="10.00">Lua::State</text>
<polyline fill="none" stroke="black" points="451.5,-473.5 540.5,-473.5 "/>
<text text-anchor="start" x="459.5" y="-461.5" font-family="Helvetica,sans-Serif" font-size="10.00">&#45; _ls</text>
<polyline fill="none" stroke="black" points="451.5,-454.5 540.5,-454.5 "/>
<text text-anchor="start" x="459.5" y="-442.5" font-family="Helvetica,sans-Serif" font-size="10.00">+ State()</text>
<text text-anchor="start" x="459.5" y="-431.5" font-family="Helvetica,sans-Serif" font-size="10.00">+ ~State()</text>
<text text-anchor="start" x="459.5" y="-420.5" font-family="Helvetica,sans-Serif" font-size="10.00">+ State()</text>
<text text-anchor="start" x="459.5" y="-409.5" font-family="Helvetica,sans-Serif" font-size="10.00">+ operator=()</text>
<text text-anchor="start" x="459.5" y="-398.5" font-family="Helvetica,sans-Serif" font-size="10.00">+ RunScript()</text>
<text text-anchor="start" x="459.5" y="-387.5" font-family="Helvetica,sans-Serif" font-size="10.00">+ GetGlobal()</text>
<text text-anchor="start" x="459.5" y="-376.5" font-family="Helvetica,sans-Serif" font-size="10.00">+ SetGlobal()</text>
<text text-anchor="start" x="459.5" y="-365.5" font-family="Helvetica,sans-Serif" font-size="10.00">+ Call()</text>
<text text-anchor="start" x="459.5" y="-354.5" font-family="Helvetica,sans-Serif" font-size="10.00">+ Push()</text>
<text text-anchor="start" x="459.5" y="-343.5" font-family="Helvetica,sans-Serif" font-size="10.00">+ Push()</text>
<text text-anchor="start" x="459.5" y="-332.5" font-family="Helvetica,sans-Serif" font-size="10.00">and 15 more...</text>
<text text-anchor="start" x="459.5" y="-321.5" font-family="Helvetica,sans-Serif" font-size="10.00">&#45; PushMany()</text>
<text text-anchor="start" x="459.5" y="-310.5" font-family="Helvetica,sans-Serif" font-size="10.00">&#45; PushMany()</text>
<text text-anchor="start" x="459.5" y="-299.5" font-family="Helvetica,sans-Serif" font-size="10.00">&#45; CreateTable()</text>
</a>
</g>
</g>
<!-- Node13&#45;&gt;Node1 -->
<g id="edge17" class="edge">
<title>Node13&#45;&gt;Node1</title>
<path fill="none" stroke="#404040" d="M459.05,-292.47C454.66,-280.72 450.13,-268.58 445.61,-256.45"/>
<polygon fill="none" stroke="#404040" points="445.47,-256.09 439.63,-251.86 441.28,-244.84 447.12,-249.07 445.47,-256.09"/>
<text text-anchor="middle" x="469.5" y="-266" font-family="Helvetica,sans-Serif" font-size="10.00"> &#45;_state</text>
</g>
</g>
</svg>
