<?xml version="1.0" encoding="UTF-8" standalone="no"?>
<!DOCTYPE svg PUBLIC "-//W3C//DTD SVG 1.1//EN"
 "http://www.w3.org/Graphics/SVG/1.1/DTD/svg11.dtd">
<!-- Generated by graphviz version 2.43.0 (0)
 -->
<!-- Title: Component::Collider Pages: 1 -->
<svg width="158pt" height="678pt"
 viewBox="0.00 0.00 158.00 678.00" xmlns="http://www.w3.org/2000/svg" xmlns:xlink="http://www.w3.org/1999/xlink">
<g id="graph0" class="graph" transform="scale(1 1) rotate(0) translate(4 674)">
<title>Component::Collider</title>
<polygon fill="white" stroke="transparent" points="-4,4 -4,-674 154,-674 154,4 -4,4"/>
<!-- Node1 -->
<g id="node1" class="node">
<title>Node1</title>
<g id="a_node1"><a xlink:title="Collider base component class.">
<polygon fill="#bfbfbf" stroke="black" points="7,-204.5 7,-393.5 143,-393.5 143,-204.5 7,-204.5"/>
<text text-anchor="middle" x="75" y="-381.5" font-family="Helvetica,sans-Serif" font-size="10.00">Component::Collider</text>
<polyline fill="none" stroke="black" points="7,-374.5 143,-374.5 "/>
<text text-anchor="start" x="15" y="-362.5" font-family="Helvetica,sans-Serif" font-size="10.00"># _otherEntities</text>
<text text-anchor="start" x="15" y="-351.5" font-family="Helvetica,sans-Serif" font-size="10.00"># _myEntity</text>
<text text-anchor="start" x="15" y="-340.5" font-family="Helvetica,sans-Serif" font-size="10.00"># _collisionMask</text>
<polyline fill="none" stroke="black" points="7,-333.5 143,-333.5 "/>
<text text-anchor="start" x="15" y="-321.5" font-family="Helvetica,sans-Serif" font-size="10.00">+ Collider()</text>
<text text-anchor="start" x="15" y="-310.5" font-family="Helvetica,sans-Serif" font-size="10.00">+ ~Collider()</text>
<text text-anchor="start" x="15" y="-299.5" font-family="Helvetica,sans-Serif" font-size="10.00">+ Collider()</text>
<text text-anchor="start" x="15" y="-288.5" font-family="Helvetica,sans-Serif" font-size="10.00">+ operator=()</text>
<text text-anchor="start" x="15" y="-277.5" font-family="Helvetica,sans-Serif" font-size="10.00">+ IsColliding()</text>
<text text-anchor="start" x="15" y="-266.5" font-family="Helvetica,sans-Serif" font-size="10.00">+ IsCollidingAtPosition()</text>
<text text-anchor="start" x="15" y="-255.5" font-family="Helvetica,sans-Serif" font-size="10.00">+ CheckCollision()</text>
<text text-anchor="start" x="15" y="-244.5" font-family="Helvetica,sans-Serif" font-size="10.00">+ CheckCollision()</text>
<text text-anchor="start" x="15" y="-233.5" font-family="Helvetica,sans-Serif" font-size="10.00">+ DrawLines()</text>
<text text-anchor="start" x="15" y="-222.5" font-family="Helvetica,sans-Serif" font-size="10.00">+ GetCollision()</text>
<text text-anchor="start" x="15" y="-211.5" font-family="Helvetica,sans-Serif" font-size="10.00">+ GetCollisionPosition()</text>
</a>
</g>
</g>
<!-- Node4 -->
<g id="node4" class="node">
<title>Node4</title>
<g id="a_node4"><a xlink:href="classComponent_1_1SquareCollider.html" target="_top" xlink:title=" ">
<polygon fill="white" stroke="black" points="0,-0.5 0,-167.5 150,-167.5 150,-0.5 0,-0.5"/>
<text text-anchor="middle" x="75" y="-155.5" font-family="Helvetica,sans-Serif" font-size="10.00">Component::SquareCollider</text>
<polyline fill="none" stroke="black" points="0,-148.5 150,-148.5 "/>
<text text-anchor="start" x="8" y="-136.5" font-family="Helvetica,sans-Serif" font-size="10.00">&#45; _rect</text>
<polyline fill="none" stroke="black" points="0,-129.5 150,-129.5 "/>
<text text-anchor="start" x="8" y="-117.5" font-family="Helvetica,sans-Serif" font-size="10.00">+ SquareCollider()</text>
<text text-anchor="start" x="8" y="-106.5" font-family="Helvetica,sans-Serif" font-size="10.00">+ ~SquareCollider()</text>
<text text-anchor="start" x="8" y="-95.5" font-family="Helvetica,sans-Serif" font-size="10.00">+ SquareCollider()</text>
<text text-anchor="start" x="8" y="-84.5" font-family="Helvetica,sans-Serif" font-size="10.00">+ operator=()</text>
<text text-anchor="start" x="8" y="-73.5" font-family="Helvetica,sans-Serif" font-size="10.00">+ IsColliding()</text>
<text text-anchor="start" x="8" y="-62.5" font-family="Helvetica,sans-Serif" font-size="10.00">+ IsCollidingAtPosition()</text>
<text text-anchor="start" x="8" y="-51.5" font-family="Helvetica,sans-Serif" font-size="10.00">+ CheckCollision()</text>
<text text-anchor="start" x="8" y="-40.5" font-family="Helvetica,sans-Serif" font-size="10.00">+ CheckCollision()</text>
<text text-anchor="start" x="8" y="-29.5" font-family="Helvetica,sans-Serif" font-size="10.00">+ DrawLines()</text>
<text text-anchor="start" x="8" y="-18.5" font-family="Helvetica,sans-Serif" font-size="10.00">+ GetCollision()</text>
<text text-anchor="start" x="8" y="-7.5" font-family="Helvetica,sans-Serif" font-size="10.00">and 6 more...</text>
</a>
</g>
</g>
<!-- Node1&#45;&gt;Node4 -->
<g id="edge3" class="edge">
<title>Node1&#45;&gt;Node4</title>
<path fill="none" stroke="midnightblue" d="M75,-194.25C75,-185.35 75,-176.44 75,-167.74"/>
<polygon fill="none" stroke="midnightblue" points="71.5,-194.27 75,-204.27 78.5,-194.27 71.5,-194.27"/>
</g>
<!-- Node2 -->
<g id="node2" class="node">
<title>Node2</title>
<g id="a_node2"><a xlink:href="classECS_1_1IComponent.html" target="_top" xlink:title="Base Interface class to create a new component.">
<polygon fill="white" stroke="black" points="23.5,-430.5 23.5,-520.5 126.5,-520.5 126.5,-430.5 23.5,-430.5"/>
<text text-anchor="middle" x="75" y="-508.5" font-family="Helvetica,sans-Serif" font-size="10.00">ECS::IComponent</text>
<polyline fill="none" stroke="black" points="23.5,-501.5 126.5,-501.5 "/>
<text text-anchor="middle" x="75" y="-489.5" font-family="Helvetica,sans-Serif" font-size="10.00"> </text>
<polyline fill="none" stroke="black" points="23.5,-482.5 126.5,-482.5 "/>
<text text-anchor="start" x="31.5" y="-470.5" font-family="Helvetica,sans-Serif" font-size="10.00">+ IComponent()</text>
<text text-anchor="start" x="31.5" y="-459.5" font-family="Helvetica,sans-Serif" font-size="10.00">+ ~IComponent()</text>
<text text-anchor="start" x="31.5" y="-448.5" font-family="Helvetica,sans-Serif" font-size="10.00">+ IComponent()</text>
<text text-anchor="start" x="31.5" y="-437.5" font-family="Helvetica,sans-Serif" font-size="10.00">+ operator=()</text>
</a>
</g>
</g>
<!-- Node2&#45;&gt;Node1 -->
<g id="edge1" class="edge">
<title>Node2&#45;&gt;Node1</title>
<path fill="none" stroke="midnightblue" d="M75,-420.36C75,-411.86 75,-402.86 75,-393.76"/>
<polygon fill="none" stroke="midnightblue" points="71.5,-420.47 75,-430.47 78.5,-420.47 71.5,-420.47"/>
</g>
<!-- Node3 -->
<g id="node3" class="node">
<title>Node3</title>
<g id="a_node3"><a xlink:href="classIXMLSerializable.html" target="_top" xlink:title=" ">
<polygon fill="white" stroke="black" points="12.5,-557.5 12.5,-669.5 137.5,-669.5 137.5,-557.5 12.5,-557.5"/>
<text text-anchor="middle" x="75" y="-657.5" font-family="Helvetica,sans-Serif" font-size="10.00">IXMLSerializable</text>
<polyline fill="none" stroke="black" points="12.5,-650.5 137.5,-650.5 "/>
<text text-anchor="middle" x="75" y="-638.5" font-family="Helvetica,sans-Serif" font-size="10.00"> </text>
<polyline fill="none" stroke="black" points="12.5,-631.5 137.5,-631.5 "/>
<text text-anchor="start" x="20.5" y="-619.5" font-family="Helvetica,sans-Serif" font-size="10.00">+ IXMLSerializable()</text>
<text text-anchor="start" x="20.5" y="-608.5" font-family="Helvetica,sans-Serif" font-size="10.00">+ ~IXMLSerializable()</text>
<text text-anchor="start" x="20.5" y="-597.5" font-family="Helvetica,sans-Serif" font-size="10.00">+ IXMLSerializable()</text>
<text text-anchor="start" x="20.5" y="-586.5" font-family="Helvetica,sans-Serif" font-size="10.00">+ operator=()</text>
<text text-anchor="start" x="20.5" y="-575.5" font-family="Helvetica,sans-Serif" font-size="10.00">+ operator&lt;&lt;()</text>
<text text-anchor="start" x="20.5" y="-564.5" font-family="Helvetica,sans-Serif" font-size="10.00">+ operator&lt;&lt;()</text>
</a>
</g>
</g>
<!-- Node3&#45;&gt;Node2 -->
<g id="edge2" class="edge">
<title>Node3&#45;&gt;Node2</title>
<path fill="none" stroke="midnightblue" d="M75,-547.08C75,-538.07 75,-529.01 75,-520.51"/>
<polygon fill="none" stroke="midnightblue" points="71.5,-547.18 75,-557.18 78.5,-547.18 71.5,-547.18"/>
</g>
</g>
</svg>
