<?xml version="1.0" encoding="UTF-8" standalone="no"?>
<!DOCTYPE svg PUBLIC "-//W3C//DTD SVG 1.1//EN"
 "http://www.w3.org/Graphics/SVG/1.1/DTD/svg11.dtd">
<!-- Generated by graphviz version 2.43.0 (0)
 -->
<!-- Title: Component::DropBomb Pages: 1 -->
<svg width="435pt" height="771pt"
 viewBox="0.00 0.00 435.00 771.00" xmlns="http://www.w3.org/2000/svg" xmlns:xlink="http://www.w3.org/1999/xlink">
<g id="graph0" class="graph" transform="scale(1 1) rotate(0) translate(4 767)">
<title>Component::DropBomb</title>
<polygon fill="white" stroke="transparent" points="-4,4 -4,-767 431,-767 431,4 -4,4"/>
<!-- Node1 -->
<g id="node1" class="node">
<title>Node1</title>
<g id="a_node1"><a xlink:title="Behaviour for players or AI allowing to drop a bomb upon pressing a key.">
<polygon fill="#bfbfbf" stroke="black" points="53,-0.5 53,-277.5 210,-277.5 210,-0.5 53,-0.5"/>
<text text-anchor="middle" x="131.5" y="-265.5" font-family="Helvetica,sans-Serif" font-size="10.00">Component::DropBomb</text>
<polyline fill="none" stroke="black" points="53,-258.5 210,-258.5 "/>
<text text-anchor="start" x="61" y="-246.5" font-family="Helvetica,sans-Serif" font-size="10.00">+ timeToDrop</text>
<text text-anchor="start" x="61" y="-235.5" font-family="Helvetica,sans-Serif" font-size="10.00">&#45; _coordinator</text>
<text text-anchor="start" x="61" y="-224.5" font-family="Helvetica,sans-Serif" font-size="10.00">&#45; _window</text>
<text text-anchor="start" x="61" y="-213.5" font-family="Helvetica,sans-Serif" font-size="10.00">&#45; _bombNumber</text>
<text text-anchor="start" x="61" y="-202.5" font-family="Helvetica,sans-Serif" font-size="10.00">&#45; _defaultBombNumber</text>
<text text-anchor="start" x="61" y="-191.5" font-family="Helvetica,sans-Serif" font-size="10.00">&#45; _bonusTimeRange</text>
<text text-anchor="start" x="61" y="-180.5" font-family="Helvetica,sans-Serif" font-size="10.00">&#45; _bonusTimeCoolDown</text>
<text text-anchor="start" x="61" y="-169.5" font-family="Helvetica,sans-Serif" font-size="10.00">&#45; _defaultDropDelay</text>
<text text-anchor="start" x="61" y="-158.5" font-family="Helvetica,sans-Serif" font-size="10.00">&#45; _dropDelay</text>
<text text-anchor="start" x="61" y="-147.5" font-family="Helvetica,sans-Serif" font-size="10.00">&#45; _minDelay</text>
<text text-anchor="start" x="61" y="-136.5" font-family="Helvetica,sans-Serif" font-size="10.00">&#45; _maxBombs</text>
<polyline fill="none" stroke="black" points="53,-129.5 210,-129.5 "/>
<text text-anchor="start" x="61" y="-117.5" font-family="Helvetica,sans-Serif" font-size="10.00">+ DropBomb()</text>
<text text-anchor="start" x="61" y="-106.5" font-family="Helvetica,sans-Serif" font-size="10.00">+ ~DropBomb()</text>
<text text-anchor="start" x="61" y="-95.5" font-family="Helvetica,sans-Serif" font-size="10.00">+ DropBomb()</text>
<text text-anchor="start" x="61" y="-84.5" font-family="Helvetica,sans-Serif" font-size="10.00">+ operator=()</text>
<text text-anchor="start" x="61" y="-73.5" font-family="Helvetica,sans-Serif" font-size="10.00">+ InstantiateBomb()</text>
<text text-anchor="start" x="61" y="-62.5" font-family="Helvetica,sans-Serif" font-size="10.00">+ CreateBomb()</text>
<text text-anchor="start" x="61" y="-51.5" font-family="Helvetica,sans-Serif" font-size="10.00">+ GetBombNumber()</text>
<text text-anchor="start" x="61" y="-40.5" font-family="Helvetica,sans-Serif" font-size="10.00">+ GetBonusTimeRange()</text>
<text text-anchor="start" x="61" y="-29.5" font-family="Helvetica,sans-Serif" font-size="10.00">+ GetBonusTimeCoolDown()</text>
<text text-anchor="start" x="61" y="-18.5" font-family="Helvetica,sans-Serif" font-size="10.00">+ BoostBombNumber()</text>
<text text-anchor="start" x="61" y="-7.5" font-family="Helvetica,sans-Serif" font-size="10.00">and 6 more...</text>
</a>
</g>
</g>
<!-- Node2 -->
<g id="node2" class="node">
<title>Node2</title>
<g id="a_node2"><a xlink:href="classECS_1_1IComponent.html" target="_top" xlink:title="Base Interface class to create a new component.">
<polygon fill="white" stroke="black" points="17,-369.5 17,-459.5 120,-459.5 120,-369.5 17,-369.5"/>
<text text-anchor="middle" x="68.5" y="-447.5" font-family="Helvetica,sans-Serif" font-size="10.00">ECS::IComponent</text>
<polyline fill="none" stroke="black" points="17,-440.5 120,-440.5 "/>
<text text-anchor="middle" x="68.5" y="-428.5" font-family="Helvetica,sans-Serif" font-size="10.00"> </text>
<polyline fill="none" stroke="black" points="17,-421.5 120,-421.5 "/>
<text text-anchor="start" x="25" y="-409.5" font-family="Helvetica,sans-Serif" font-size="10.00">+ IComponent()</text>
<text text-anchor="start" x="25" y="-398.5" font-family="Helvetica,sans-Serif" font-size="10.00">+ ~IComponent()</text>
<text text-anchor="start" x="25" y="-387.5" font-family="Helvetica,sans-Serif" font-size="10.00">+ IComponent()</text>
<text text-anchor="start" x="25" y="-376.5" font-family="Helvetica,sans-Serif" font-size="10.00">+ operator=()</text>
</a>
</g>
</g>
<!-- Node2&#45;&gt;Node1 -->
<g id="edge1" class="edge">
<title>Node2&#45;&gt;Node1</title>
<path fill="none" stroke="midnightblue" d="M80.95,-359.43C86.42,-335.71 93.1,-306.68 99.8,-277.6"/>
<polygon fill="none" stroke="midnightblue" points="77.53,-358.72 78.69,-369.25 84.35,-360.29 77.53,-358.72"/>
</g>
<!-- Node3 -->
<g id="node3" class="node">
<title>Node3</title>
<g id="a_node3"><a xlink:href="classIXMLSerializable.html" target="_top" xlink:title=" ">
<polygon fill="white" stroke="black" points="0,-601 0,-713 125,-713 125,-601 0,-601"/>
<text text-anchor="middle" x="62.5" y="-701" font-family="Helvetica,sans-Serif" font-size="10.00">IXMLSerializable</text>
<polyline fill="none" stroke="black" points="0,-694 125,-694 "/>
<text text-anchor="middle" x="62.5" y="-682" font-family="Helvetica,sans-Serif" font-size="10.00"> </text>
<polyline fill="none" stroke="black" points="0,-675 125,-675 "/>
<text text-anchor="start" x="8" y="-663" font-family="Helvetica,sans-Serif" font-size="10.00">+ IXMLSerializable()</text>
<text text-anchor="start" x="8" y="-652" font-family="Helvetica,sans-Serif" font-size="10.00">+ ~IXMLSerializable()</text>
<text text-anchor="start" x="8" y="-641" font-family="Helvetica,sans-Serif" font-size="10.00">+ IXMLSerializable()</text>
<text text-anchor="start" x="8" y="-630" font-family="Helvetica,sans-Serif" font-size="10.00">+ operator=()</text>
<text text-anchor="start" x="8" y="-619" font-family="Helvetica,sans-Serif" font-size="10.00">+ operator&lt;&lt;()</text>
<text text-anchor="start" x="8" y="-608" font-family="Helvetica,sans-Serif" font-size="10.00">+ operator&lt;&lt;()</text>
</a>
</g>
</g>
<!-- Node3&#45;&gt;Node2 -->
<g id="edge2" class="edge">
<title>Node3&#45;&gt;Node2</title>
<path fill="none" stroke="midnightblue" d="M64.13,-590.77C65.17,-549.15 66.48,-496.32 67.4,-459.59"/>
<polygon fill="none" stroke="midnightblue" points="60.63,-590.74 63.88,-600.82 67.62,-590.91 60.63,-590.74"/>
</g>
<!-- Node4 -->
<g id="node4" class="node">
<title>Node4</title>
<g id="a_node4"><a xlink:href="classECS_1_1Entity.html" target="_top" xlink:title="Scene object containing components and an ID.">
<polygon fill="white" stroke="black" points="143.5,-325.5 143.5,-503.5 257.5,-503.5 257.5,-325.5 143.5,-325.5"/>
<text text-anchor="middle" x="200.5" y="-491.5" font-family="Helvetica,sans-Serif" font-size="10.00">ECS::Entity</text>
<polyline fill="none" stroke="black" points="143.5,-484.5 257.5,-484.5 "/>
<text text-anchor="start" x="151.5" y="-472.5" font-family="Helvetica,sans-Serif" font-size="10.00">&#45; _id</text>
<text text-anchor="start" x="151.5" y="-461.5" font-family="Helvetica,sans-Serif" font-size="10.00">&#45; _tag</text>
<polyline fill="none" stroke="black" points="143.5,-454.5 257.5,-454.5 "/>
<text text-anchor="start" x="151.5" y="-442.5" font-family="Helvetica,sans-Serif" font-size="10.00">+ Entity()</text>
<text text-anchor="start" x="151.5" y="-431.5" font-family="Helvetica,sans-Serif" font-size="10.00">+ Entity()</text>
<text text-anchor="start" x="151.5" y="-420.5" font-family="Helvetica,sans-Serif" font-size="10.00">+ ~Entity()</text>
<text text-anchor="start" x="151.5" y="-409.5" font-family="Helvetica,sans-Serif" font-size="10.00">+ Entity()</text>
<text text-anchor="start" x="151.5" y="-398.5" font-family="Helvetica,sans-Serif" font-size="10.00">+ operator=()</text>
<text text-anchor="start" x="151.5" y="-387.5" font-family="Helvetica,sans-Serif" font-size="10.00">+ GetComponent()</text>
<text text-anchor="start" x="151.5" y="-376.5" font-family="Helvetica,sans-Serif" font-size="10.00">+ OfType()</text>
<text text-anchor="start" x="151.5" y="-365.5" font-family="Helvetica,sans-Serif" font-size="10.00">+ GetComponents()</text>
<text text-anchor="start" x="151.5" y="-354.5" font-family="Helvetica,sans-Serif" font-size="10.00">+ AddComponent()</text>
<text text-anchor="start" x="151.5" y="-343.5" font-family="Helvetica,sans-Serif" font-size="10.00">+ AddComponent()</text>
<text text-anchor="start" x="151.5" y="-332.5" font-family="Helvetica,sans-Serif" font-size="10.00">and 9 more...</text>
</a>
</g>
</g>
<!-- Node4&#45;&gt;Node1 -->
<g id="edge3" class="edge">
<title>Node4&#45;&gt;Node1</title>
<path fill="none" stroke="#404040" d="M178.29,-325.46C175.36,-313.86 172.3,-301.73 169.2,-289.45"/>
<polygon fill="none" stroke="#404040" points="169.16,-289.29 163.82,-284.45 166.23,-277.66 171.58,-282.5 169.16,-289.29"/>
<text text-anchor="middle" x="188" y="-299" font-family="Helvetica,sans-Serif" font-size="10.00"> &#45;_self</text>
</g>
<!-- Node5 -->
<g id="node5" class="node">
<title>Node5</title>
<g id="a_node5"><a xlink:href="classECS_1_1EntityManager.html" target="_top" xlink:title="Class used to manipulate Entities (a.k.a A Scene)">
<polygon fill="white" stroke="black" points="143,-584.5 143,-729.5 258,-729.5 258,-584.5 143,-584.5"/>
<text text-anchor="middle" x="200.5" y="-717.5" font-family="Helvetica,sans-Serif" font-size="10.00">ECS::EntityManager</text>
<polyline fill="none" stroke="black" points="143,-710.5 258,-710.5 "/>
<text text-anchor="start" x="151" y="-698.5" font-family="Helvetica,sans-Serif" font-size="10.00">&#45; _available</text>
<text text-anchor="start" x="151" y="-687.5" font-family="Helvetica,sans-Serif" font-size="10.00">&#45; _max</text>
<text text-anchor="start" x="151" y="-676.5" font-family="Helvetica,sans-Serif" font-size="10.00">&#45; _entities</text>
<polyline fill="none" stroke="black" points="143,-669.5 258,-669.5 "/>
<text text-anchor="start" x="151" y="-657.5" font-family="Helvetica,sans-Serif" font-size="10.00">+ EntityManager()</text>
<text text-anchor="start" x="151" y="-646.5" font-family="Helvetica,sans-Serif" font-size="10.00">+ ~EntityManager()</text>
<text text-anchor="start" x="151" y="-635.5" font-family="Helvetica,sans-Serif" font-size="10.00">+ EntityManager()</text>
<text text-anchor="start" x="151" y="-624.5" font-family="Helvetica,sans-Serif" font-size="10.00">+ operator=()</text>
<text text-anchor="start" x="151" y="-613.5" font-family="Helvetica,sans-Serif" font-size="10.00">+ CreateEntity()</text>
<text text-anchor="start" x="151" y="-602.5" font-family="Helvetica,sans-Serif" font-size="10.00">+ DeleteEntity()</text>
<text text-anchor="start" x="151" y="-591.5" font-family="Helvetica,sans-Serif" font-size="10.00">+ GetEntities()</text>
</a>
</g>
</g>
<!-- Node5&#45;&gt;Node4 -->
<g id="edge4" class="edge">
<title>Node5&#45;&gt;Node4</title>
<path fill="none" stroke="#404040" d="M200.5,-584.49C200.5,-563.01 200.5,-539.04 200.5,-516.05"/>
<polygon fill="none" stroke="#404040" points="200.5,-515.77 196.5,-509.77 200.5,-503.77 204.5,-509.77 200.5,-515.77"/>
<text text-anchor="middle" x="242.5" y="-525" font-family="Helvetica,sans-Serif" font-size="10.00"> &#45;_entityManager</text>
</g>
<!-- Node6 -->
<g id="node6" class="node">
<title>Node6</title>
<g id="a_node6"><a xlink:href="classECS_1_1ComponentManager.html" target="_top" xlink:title="Class used to manipulate Components.">
<polygon fill="white" stroke="black" points="276,-551.5 276,-762.5 427,-762.5 427,-551.5 276,-551.5"/>
<text text-anchor="middle" x="351.5" y="-750.5" font-family="Helvetica,sans-Serif" font-size="10.00">ECS::ComponentManager</text>
<polyline fill="none" stroke="black" points="276,-743.5 427,-743.5 "/>
<text text-anchor="start" x="284" y="-731.5" font-family="Helvetica,sans-Serif" font-size="10.00">&#45; _bases</text>
<text text-anchor="start" x="284" y="-720.5" font-family="Helvetica,sans-Serif" font-size="10.00">&#45; _components</text>
<polyline fill="none" stroke="black" points="276,-713.5 427,-713.5 "/>
<text text-anchor="start" x="284" y="-701.5" font-family="Helvetica,sans-Serif" font-size="10.00">+ ComponentManager()</text>
<text text-anchor="start" x="284" y="-690.5" font-family="Helvetica,sans-Serif" font-size="10.00">+ ~ComponentManager()</text>
<text text-anchor="start" x="284" y="-679.5" font-family="Helvetica,sans-Serif" font-size="10.00">+ ComponentManager()</text>
<text text-anchor="start" x="284" y="-668.5" font-family="Helvetica,sans-Serif" font-size="10.00">+ operator=()</text>
<text text-anchor="start" x="284" y="-657.5" font-family="Helvetica,sans-Serif" font-size="10.00">+ GetComponent()</text>
<text text-anchor="start" x="284" y="-646.5" font-family="Helvetica,sans-Serif" font-size="10.00">+ OfType()</text>
<text text-anchor="start" x="284" y="-635.5" font-family="Helvetica,sans-Serif" font-size="10.00">+ GetComponents()</text>
<text text-anchor="start" x="284" y="-624.5" font-family="Helvetica,sans-Serif" font-size="10.00">+ AddComponent()</text>
<text text-anchor="start" x="284" y="-613.5" font-family="Helvetica,sans-Serif" font-size="10.00">+ AddComponent()</text>
<text text-anchor="start" x="284" y="-602.5" font-family="Helvetica,sans-Serif" font-size="10.00">+ RemoveComponent()</text>
<text text-anchor="start" x="284" y="-591.5" font-family="Helvetica,sans-Serif" font-size="10.00">+ HasComponent()</text>
<text text-anchor="start" x="284" y="-580.5" font-family="Helvetica,sans-Serif" font-size="10.00">+ HasComponent()</text>
<text text-anchor="start" x="284" y="-569.5" font-family="Helvetica,sans-Serif" font-size="10.00">+ HasComponents()</text>
<text text-anchor="start" x="284" y="-558.5" font-family="Helvetica,sans-Serif" font-size="10.00">+ GetComponentByName()</text>
</a>
</g>
</g>
<!-- Node6&#45;&gt;Node4 -->
<g id="edge5" class="edge">
<title>Node6&#45;&gt;Node4</title>
<path fill="none" stroke="#404040" d="M305.53,-551.46C300.13,-541.32 294.42,-531.34 288.5,-522 281.52,-510.99 273.53,-499.85 265.29,-489.14"/>
<polygon fill="none" stroke="#404040" points="265.08,-488.87 258.23,-486.62 257.66,-479.44 264.52,-481.68 265.08,-488.87"/>
<text text-anchor="middle" x="350.5" y="-525" font-family="Helvetica,sans-Serif" font-size="10.00"> &#45;_componentManager</text>
</g>
</g>
</svg>
