<?xml version="1.0" encoding="UTF-8" standalone="no"?>
<!DOCTYPE svg PUBLIC "-//W3C//DTD SVG 1.1//EN"
 "http://www.w3.org/Graphics/SVG/1.1/DTD/svg11.dtd">
<!-- Generated by graphviz version 2.43.0 (0)
 -->
<!-- Title: Lua::TableValue&lt; T &gt; Pages: 1 -->
<svg width="129pt" height="413pt"
 viewBox="0.00 0.00 129.00 413.00" xmlns="http://www.w3.org/2000/svg" xmlns:xlink="http://www.w3.org/1999/xlink">
<g id="graph0" class="graph" transform="scale(1 1) rotate(0) translate(4 409)">
<title>Lua::TableValue&lt; T &gt;</title>
<polygon fill="white" stroke="transparent" points="-4,4 -4,-409 125,-409 125,4 -4,4"/>
<!-- Node1 -->
<g id="node1" class="node">
<title>Node1</title>
<g id="a_node1"><a xlink:title="Value from Lua Table.">
<polygon fill="#bfbfbf" stroke="black" points="0,-0.5 0,-156.5 121,-156.5 121,-0.5 0,-0.5"/>
<text text-anchor="middle" x="60.5" y="-144.5" font-family="Helvetica,sans-Serif" font-size="10.00">Lua::TableValue&lt; T &gt;</text>
<polyline fill="none" stroke="black" points="0,-137.5 121,-137.5 "/>
<text text-anchor="start" x="8" y="-125.5" font-family="Helvetica,sans-Serif" font-size="10.00">&#45; _pos</text>
<text text-anchor="start" x="8" y="-114.5" font-family="Helvetica,sans-Serif" font-size="10.00">&#45; _key</text>
<polyline fill="none" stroke="black" points="0,-107.5 121,-107.5 "/>
<text text-anchor="start" x="8" y="-95.5" font-family="Helvetica,sans-Serif" font-size="10.00">+ TableValue()</text>
<text text-anchor="start" x="8" y="-84.5" font-family="Helvetica,sans-Serif" font-size="10.00">+ ~TableValue()</text>
<text text-anchor="start" x="8" y="-73.5" font-family="Helvetica,sans-Serif" font-size="10.00">+ TableValue()</text>
<text text-anchor="start" x="8" y="-62.5" font-family="Helvetica,sans-Serif" font-size="10.00">+ operator=()</text>
<text text-anchor="start" x="8" y="-51.5" font-family="Helvetica,sans-Serif" font-size="10.00">+ operator=()</text>
<text text-anchor="start" x="8" y="-40.5" font-family="Helvetica,sans-Serif" font-size="10.00">+ Set()</text>
<text text-anchor="start" x="8" y="-29.5" font-family="Helvetica,sans-Serif" font-size="10.00">+ Cast()</text>
<text text-anchor="start" x="8" y="-18.5" font-family="Helvetica,sans-Serif" font-size="10.00">+ Get()</text>
<text text-anchor="start" x="8" y="-7.5" font-family="Helvetica,sans-Serif" font-size="10.00">+ Exists()</text>
</a>
</g>
</g>
<!-- Node2 -->
<g id="node2" class="node">
<title>Node2</title>
<g id="a_node2"><a xlink:href="classLua_1_1State.html" target="_top" xlink:title="Lua Stack State.">
<polygon fill="white" stroke="black" points="16,-204.5 16,-404.5 105,-404.5 105,-204.5 16,-204.5"/>
<text text-anchor="middle" x="60.5" y="-392.5" font-family="Helvetica,sans-Serif" font-size="10.00">Lua::State</text>
<polyline fill="none" stroke="black" points="16,-385.5 105,-385.5 "/>
<text text-anchor="start" x="24" y="-373.5" font-family="Helvetica,sans-Serif" font-size="10.00">&#45; _ls</text>
<polyline fill="none" stroke="black" points="16,-366.5 105,-366.5 "/>
<text text-anchor="start" x="24" y="-354.5" font-family="Helvetica,sans-Serif" font-size="10.00">+ State()</text>
<text text-anchor="start" x="24" y="-343.5" font-family="Helvetica,sans-Serif" font-size="10.00">+ ~State()</text>
<text text-anchor="start" x="24" y="-332.5" font-family="Helvetica,sans-Serif" font-size="10.00">+ State()</text>
<text text-anchor="start" x="24" y="-321.5" font-family="Helvetica,sans-Serif" font-size="10.00">+ operator=()</text>
<text text-anchor="start" x="24" y="-310.5" font-family="Helvetica,sans-Serif" font-size="10.00">+ RunScript()</text>
<text text-anchor="start" x="24" y="-299.5" font-family="Helvetica,sans-Serif" font-size="10.00">+ GetGlobal()</text>
<text text-anchor="start" x="24" y="-288.5" font-family="Helvetica,sans-Serif" font-size="10.00">+ SetGlobal()</text>
<text text-anchor="start" x="24" y="-277.5" font-family="Helvetica,sans-Serif" font-size="10.00">+ Call()</text>
<text text-anchor="start" x="24" y="-266.5" font-family="Helvetica,sans-Serif" font-size="10.00">+ Push()</text>
<text text-anchor="start" x="24" y="-255.5" font-family="Helvetica,sans-Serif" font-size="10.00">+ Push()</text>
<text text-anchor="start" x="24" y="-244.5" font-family="Helvetica,sans-Serif" font-size="10.00">and 15 more...</text>
<text text-anchor="start" x="24" y="-233.5" font-family="Helvetica,sans-Serif" font-size="10.00">&#45; PushMany()</text>
<text text-anchor="start" x="24" y="-222.5" font-family="Helvetica,sans-Serif" font-size="10.00">&#45; PushMany()</text>
<text text-anchor="start" x="24" y="-211.5" font-family="Helvetica,sans-Serif" font-size="10.00">&#45; CreateTable()</text>
</a>
</g>
</g>
<!-- Node2&#45;&gt;Node1 -->
<g id="edge1" class="edge">
<title>Node2&#45;&gt;Node1</title>
<path fill="none" stroke="#404040" d="M60.5,-204.27C60.5,-192.46 60.5,-180.46 60.5,-168.79"/>
<polygon fill="none" stroke="#404040" points="60.5,-168.79 56.5,-162.79 60.5,-156.79 64.5,-162.79 60.5,-168.79"/>
<text text-anchor="middle" x="79" y="-178" font-family="Helvetica,sans-Serif" font-size="10.00"> &#45;_state</text>
</g>
</g>
</svg>
