<?xml version="1.0" encoding="UTF-8" standalone="no"?>
<!DOCTYPE svg PUBLIC "-//W3C//DTD SVG 1.1//EN"
 "http://www.w3.org/Graphics/SVG/1.1/DTD/svg11.dtd">
<!-- Generated by graphviz version 2.43.0 (0)
 -->
<!-- Title: Component::HUD Pages: 1 -->
<svg width="537pt" height="1329pt"
 viewBox="0.00 0.00 537.00 1329.00" xmlns="http://www.w3.org/2000/svg" xmlns:xlink="http://www.w3.org/1999/xlink">
<g id="graph0" class="graph" transform="scale(1 1) rotate(0) translate(4 1325)">
<title>Component::HUD</title>
<polygon fill="white" stroke="transparent" points="-4,4 -4,-1325 533,-1325 533,4 -4,4"/>
<!-- Node1 -->
<g id="node1" class="node">
<title>Node1</title>
<g id="a_node1"><a xlink:title="HUD base component class.">
<polygon fill="#bfbfbf" stroke="black" points="98,-0.5 98,-156.5 253,-156.5 253,-0.5 98,-0.5"/>
<text text-anchor="middle" x="175.5" y="-144.5" font-family="Helvetica,sans-Serif" font-size="10.00">Component::HUD</text>
<polyline fill="none" stroke="black" points="98,-137.5 253,-137.5 "/>
<text text-anchor="middle" x="175.5" y="-125.5" font-family="Helvetica,sans-Serif" font-size="10.00"> </text>
<polyline fill="none" stroke="black" points="98,-118.5 253,-118.5 "/>
<text text-anchor="start" x="106" y="-106.5" font-family="Helvetica,sans-Serif" font-size="10.00">+ HUD()</text>
<text text-anchor="start" x="106" y="-95.5" font-family="Helvetica,sans-Serif" font-size="10.00">+ ~HUD()</text>
<text text-anchor="start" x="106" y="-84.5" font-family="Helvetica,sans-Serif" font-size="10.00">+ HUD()</text>
<text text-anchor="start" x="106" y="-73.5" font-family="Helvetica,sans-Serif" font-size="10.00">+ operator=()</text>
<text text-anchor="start" x="106" y="-62.5" font-family="Helvetica,sans-Serif" font-size="10.00">+ getOffset()</text>
<text text-anchor="start" x="106" y="-51.5" font-family="Helvetica,sans-Serif" font-size="10.00">+ getAController()</text>
<text text-anchor="start" x="106" y="-40.5" font-family="Helvetica,sans-Serif" font-size="10.00">+ Update()</text>
<text text-anchor="start" x="106" y="-29.5" font-family="Helvetica,sans-Serif" font-size="10.00">+ FixedUpdate()</text>
<text text-anchor="start" x="106" y="-18.5" font-family="Helvetica,sans-Serif" font-size="10.00">+ LateUpdate()</text>
<text text-anchor="start" x="106" y="-7.5" font-family="Helvetica,sans-Serif" font-size="10.00">+ GetOffsetFromPlayerNbr()</text>
</a>
</g>
</g>
<!-- Node2 -->
<g id="node2" class="node">
<title>Node2</title>
<g id="a_node2"><a xlink:href="classComponent_1_1IBehaviour.html" target="_top" xlink:title="IBehaviour base component (CF Monobehaviour class in Unity)">
<polygon fill="white" stroke="black" points="0,-761 0,-884 131,-884 131,-761 0,-761"/>
<text text-anchor="middle" x="65.5" y="-872" font-family="Helvetica,sans-Serif" font-size="10.00">Component::IBehaviour</text>
<polyline fill="none" stroke="black" points="0,-865 131,-865 "/>
<text text-anchor="middle" x="65.5" y="-853" font-family="Helvetica,sans-Serif" font-size="10.00"> </text>
<polyline fill="none" stroke="black" points="0,-846 131,-846 "/>
<text text-anchor="start" x="8" y="-834" font-family="Helvetica,sans-Serif" font-size="10.00">+ IBehaviour()</text>
<text text-anchor="start" x="8" y="-823" font-family="Helvetica,sans-Serif" font-size="10.00">+ ~IBehaviour()</text>
<text text-anchor="start" x="8" y="-812" font-family="Helvetica,sans-Serif" font-size="10.00">+ IBehaviour()</text>
<text text-anchor="start" x="8" y="-801" font-family="Helvetica,sans-Serif" font-size="10.00">+ operator=()</text>
<text text-anchor="start" x="8" y="-790" font-family="Helvetica,sans-Serif" font-size="10.00">+ Update()</text>
<text text-anchor="start" x="8" y="-779" font-family="Helvetica,sans-Serif" font-size="10.00">+ FixedUpdate()</text>
<text text-anchor="start" x="8" y="-768" font-family="Helvetica,sans-Serif" font-size="10.00">+ LateUpdate()</text>
</a>
</g>
</g>
<!-- Node2&#45;&gt;Node1 -->
<g id="edge1" class="edge">
<title>Node2&#45;&gt;Node1</title>
<path fill="none" stroke="midnightblue" d="M54.91,-750.91C52.4,-730.06 50.23,-707.16 49.5,-686 42.09,-470.76 16.78,-402.85 99.5,-204 106.11,-188.1 114.58,-171.86 123.44,-156.59"/>
<polygon fill="none" stroke="midnightblue" points="51.46,-751.47 56.17,-760.96 58.4,-750.6 51.46,-751.47"/>
</g>
<!-- Node5 -->
<g id="node5" class="node">
<title>Node5</title>
<g id="a_node5"><a xlink:href="classComponent_1_1AController.html" target="_top" xlink:title=" ">
<polygon fill="white" stroke="black" points="108.5,-204.5 108.5,-360.5 242.5,-360.5 242.5,-204.5 108.5,-204.5"/>
<text text-anchor="middle" x="175.5" y="-348.5" font-family="Helvetica,sans-Serif" font-size="10.00">Component::AController</text>
<polyline fill="none" stroke="black" points="108.5,-341.5 242.5,-341.5 "/>
<text text-anchor="middle" x="175.5" y="-329.5" font-family="Helvetica,sans-Serif" font-size="10.00"> </text>
<polyline fill="none" stroke="black" points="108.5,-322.5 242.5,-322.5 "/>
<text text-anchor="start" x="116.5" y="-310.5" font-family="Helvetica,sans-Serif" font-size="10.00">+ AController()</text>
<text text-anchor="start" x="116.5" y="-299.5" font-family="Helvetica,sans-Serif" font-size="10.00">+ ~AController()</text>
<text text-anchor="start" x="116.5" y="-288.5" font-family="Helvetica,sans-Serif" font-size="10.00">+ AController()</text>
<text text-anchor="start" x="116.5" y="-277.5" font-family="Helvetica,sans-Serif" font-size="10.00">+ operator=()</text>
<text text-anchor="start" x="116.5" y="-266.5" font-family="Helvetica,sans-Serif" font-size="10.00">+ GetMovement()</text>
<text text-anchor="start" x="116.5" y="-255.5" font-family="Helvetica,sans-Serif" font-size="10.00">+ GetDropBomb()</text>
<text text-anchor="start" x="116.5" y="-244.5" font-family="Helvetica,sans-Serif" font-size="10.00">+ GetAController()</text>
<text text-anchor="start" x="116.5" y="-233.5" font-family="Helvetica,sans-Serif" font-size="10.00">+ Update()</text>
<text text-anchor="start" x="116.5" y="-222.5" font-family="Helvetica,sans-Serif" font-size="10.00">+ FixedUpdate()</text>
<text text-anchor="start" x="116.5" y="-211.5" font-family="Helvetica,sans-Serif" font-size="10.00">+ LateUpdate()</text>
</a>
</g>
</g>
<!-- Node2&#45;&gt;Node5 -->
<g id="edge5" class="edge">
<title>Node2&#45;&gt;Node5</title>
<path fill="none" stroke="midnightblue" d="M57.61,-750.74C50.83,-666.54 47.6,-522.9 87.5,-408 93.19,-391.62 101.72,-375.48 111.28,-360.51"/>
<polygon fill="none" stroke="midnightblue" points="54.14,-751.29 58.47,-760.96 61.12,-750.7 54.14,-751.29"/>
</g>
<!-- Node10 -->
<g id="node10" class="node">
<title>Node10</title>
<g id="a_node10"><a xlink:href="classComponent_1_1Movement.html" target="_top" xlink:title="Behaviour script responsible for moving an entity.">
<polygon fill="white" stroke="black" points="272,-425 272,-669 403,-669 403,-425 272,-425"/>
<text text-anchor="middle" x="337.5" y="-657" font-family="Helvetica,sans-Serif" font-size="10.00">Component::Movement</text>
<polyline fill="none" stroke="black" points="272,-650 403,-650 "/>
<text text-anchor="start" x="280" y="-638" font-family="Helvetica,sans-Serif" font-size="10.00">&#45; _colliding</text>
<text text-anchor="start" x="280" y="-627" font-family="Helvetica,sans-Serif" font-size="10.00">&#45; _speed</text>
<text text-anchor="start" x="280" y="-616" font-family="Helvetica,sans-Serif" font-size="10.00">&#45; _startSpeed</text>
<text text-anchor="start" x="280" y="-605" font-family="Helvetica,sans-Serif" font-size="10.00">&#45; _bonusTime</text>
<text text-anchor="start" x="280" y="-594" font-family="Helvetica,sans-Serif" font-size="10.00">&#45; _maxSpeed</text>
<text text-anchor="start" x="280" y="-583" font-family="Helvetica,sans-Serif" font-size="10.00">&#45; _collisionMask</text>
<polyline fill="none" stroke="black" points="272,-576 403,-576 "/>
<text text-anchor="start" x="280" y="-564" font-family="Helvetica,sans-Serif" font-size="10.00">+ Movement()</text>
<text text-anchor="start" x="280" y="-553" font-family="Helvetica,sans-Serif" font-size="10.00">+ ~Movement()</text>
<text text-anchor="start" x="280" y="-542" font-family="Helvetica,sans-Serif" font-size="10.00">+ Movement()</text>
<text text-anchor="start" x="280" y="-531" font-family="Helvetica,sans-Serif" font-size="10.00">+ operator=()</text>
<text text-anchor="start" x="280" y="-520" font-family="Helvetica,sans-Serif" font-size="10.00">+ Update()</text>
<text text-anchor="start" x="280" y="-509" font-family="Helvetica,sans-Serif" font-size="10.00">+ FixedUpdate()</text>
<text text-anchor="start" x="280" y="-498" font-family="Helvetica,sans-Serif" font-size="10.00">+ LateUpdate()</text>
<text text-anchor="start" x="280" y="-487" font-family="Helvetica,sans-Serif" font-size="10.00">+ GetBonusTime()</text>
<text text-anchor="start" x="280" y="-476" font-family="Helvetica,sans-Serif" font-size="10.00">+ SlipperyCollisions()</text>
<text text-anchor="start" x="280" y="-465" font-family="Helvetica,sans-Serif" font-size="10.00">+ CheckCollidersPos()</text>
<text text-anchor="start" x="280" y="-454" font-family="Helvetica,sans-Serif" font-size="10.00">+ BoostSpeed()</text>
<text text-anchor="start" x="280" y="-443" font-family="Helvetica,sans-Serif" font-size="10.00">+ operator&lt;&lt;()</text>
<text text-anchor="start" x="280" y="-432" font-family="Helvetica,sans-Serif" font-size="10.00">+ operator&lt;&lt;()</text>
</a>
</g>
</g>
<!-- Node2&#45;&gt;Node10 -->
<g id="edge12" class="edge">
<title>Node2&#45;&gt;Node10</title>
<path fill="none" stroke="midnightblue" d="M132.74,-754.12C153.74,-735.86 177.89,-717.45 202.5,-704 226.93,-690.65 240.89,-703.55 262.5,-686 268.74,-680.93 274.54,-675.19 279.92,-669.01"/>
<polygon fill="none" stroke="midnightblue" points="130.32,-751.58 125.15,-760.83 134.96,-756.82 130.32,-751.58"/>
</g>
<!-- Node3 -->
<g id="node3" class="node">
<title>Node3</title>
<g id="a_node3"><a xlink:href="classECS_1_1IComponent.html" target="_top" xlink:title="Base Interface class to create a new component.">
<polygon fill="white" stroke="black" points="14,-1020 14,-1110 117,-1110 117,-1020 14,-1020"/>
<text text-anchor="middle" x="65.5" y="-1098" font-family="Helvetica,sans-Serif" font-size="10.00">ECS::IComponent</text>
<polyline fill="none" stroke="black" points="14,-1091 117,-1091 "/>
<text text-anchor="middle" x="65.5" y="-1079" font-family="Helvetica,sans-Serif" font-size="10.00"> </text>
<polyline fill="none" stroke="black" points="14,-1072 117,-1072 "/>
<text text-anchor="start" x="22" y="-1060" font-family="Helvetica,sans-Serif" font-size="10.00">+ IComponent()</text>
<text text-anchor="start" x="22" y="-1049" font-family="Helvetica,sans-Serif" font-size="10.00">+ ~IComponent()</text>
<text text-anchor="start" x="22" y="-1038" font-family="Helvetica,sans-Serif" font-size="10.00">+ IComponent()</text>
<text text-anchor="start" x="22" y="-1027" font-family="Helvetica,sans-Serif" font-size="10.00">+ operator=()</text>
</a>
</g>
</g>
<!-- Node3&#45;&gt;Node2 -->
<g id="edge2" class="edge">
<title>Node3&#45;&gt;Node2</title>
<path fill="none" stroke="midnightblue" d="M65.5,-1009.7C65.5,-972.35 65.5,-922.72 65.5,-884.09"/>
<polygon fill="none" stroke="midnightblue" points="62,-1009.89 65.5,-1019.89 69,-1009.89 62,-1009.89"/>
</g>
<!-- Node6 -->
<g id="node6" class="node">
<title>Node6</title>
<g id="a_node6"><a xlink:href="classComponent_1_1DropBomb.html" target="_top" xlink:title="Behaviour for players or AI allowing to drop a bomb upon pressing a key.">
<polygon fill="white" stroke="black" points="97,-408.5 97,-685.5 254,-685.5 254,-408.5 97,-408.5"/>
<text text-anchor="middle" x="175.5" y="-673.5" font-family="Helvetica,sans-Serif" font-size="10.00">Component::DropBomb</text>
<polyline fill="none" stroke="black" points="97,-666.5 254,-666.5 "/>
<text text-anchor="start" x="105" y="-654.5" font-family="Helvetica,sans-Serif" font-size="10.00">+ timeToDrop</text>
<text text-anchor="start" x="105" y="-643.5" font-family="Helvetica,sans-Serif" font-size="10.00">&#45; _coordinator</text>
<text text-anchor="start" x="105" y="-632.5" font-family="Helvetica,sans-Serif" font-size="10.00">&#45; _window</text>
<text text-anchor="start" x="105" y="-621.5" font-family="Helvetica,sans-Serif" font-size="10.00">&#45; _bombNumber</text>
<text text-anchor="start" x="105" y="-610.5" font-family="Helvetica,sans-Serif" font-size="10.00">&#45; _defaultBombNumber</text>
<text text-anchor="start" x="105" y="-599.5" font-family="Helvetica,sans-Serif" font-size="10.00">&#45; _bonusTimeRange</text>
<text text-anchor="start" x="105" y="-588.5" font-family="Helvetica,sans-Serif" font-size="10.00">&#45; _bonusTimeCoolDown</text>
<text text-anchor="start" x="105" y="-577.5" font-family="Helvetica,sans-Serif" font-size="10.00">&#45; _defaultDropDelay</text>
<text text-anchor="start" x="105" y="-566.5" font-family="Helvetica,sans-Serif" font-size="10.00">&#45; _dropDelay</text>
<text text-anchor="start" x="105" y="-555.5" font-family="Helvetica,sans-Serif" font-size="10.00">&#45; _minDelay</text>
<text text-anchor="start" x="105" y="-544.5" font-family="Helvetica,sans-Serif" font-size="10.00">&#45; _maxBombs</text>
<polyline fill="none" stroke="black" points="97,-537.5 254,-537.5 "/>
<text text-anchor="start" x="105" y="-525.5" font-family="Helvetica,sans-Serif" font-size="10.00">+ DropBomb()</text>
<text text-anchor="start" x="105" y="-514.5" font-family="Helvetica,sans-Serif" font-size="10.00">+ ~DropBomb()</text>
<text text-anchor="start" x="105" y="-503.5" font-family="Helvetica,sans-Serif" font-size="10.00">+ DropBomb()</text>
<text text-anchor="start" x="105" y="-492.5" font-family="Helvetica,sans-Serif" font-size="10.00">+ operator=()</text>
<text text-anchor="start" x="105" y="-481.5" font-family="Helvetica,sans-Serif" font-size="10.00">+ InstantiateBomb()</text>
<text text-anchor="start" x="105" y="-470.5" font-family="Helvetica,sans-Serif" font-size="10.00">+ CreateBomb()</text>
<text text-anchor="start" x="105" y="-459.5" font-family="Helvetica,sans-Serif" font-size="10.00">+ GetBombNumber()</text>
<text text-anchor="start" x="105" y="-448.5" font-family="Helvetica,sans-Serif" font-size="10.00">+ GetBonusTimeRange()</text>
<text text-anchor="start" x="105" y="-437.5" font-family="Helvetica,sans-Serif" font-size="10.00">+ GetBonusTimeCoolDown()</text>
<text text-anchor="start" x="105" y="-426.5" font-family="Helvetica,sans-Serif" font-size="10.00">+ BoostBombNumber()</text>
<text text-anchor="start" x="105" y="-415.5" font-family="Helvetica,sans-Serif" font-size="10.00">and 6 more...</text>
</a>
</g>
</g>
<!-- Node3&#45;&gt;Node6 -->
<g id="edge7" class="edge">
<title>Node3&#45;&gt;Node6</title>
<path fill="none" stroke="midnightblue" d="M97.15,-1010.85C112.54,-982.48 129.76,-946.4 139.5,-912 160.17,-838.98 169.38,-754.82 173.34,-685.82"/>
<polygon fill="none" stroke="midnightblue" points="93.99,-1009.33 92.24,-1019.78 100.13,-1012.71 93.99,-1009.33"/>
</g>
<!-- Node4 -->
<g id="node4" class="node">
<title>Node4</title>
<g id="a_node4"><a xlink:href="classIXMLSerializable.html" target="_top" xlink:title=" ">
<polygon fill="white" stroke="black" points="194,-1208.5 194,-1320.5 319,-1320.5 319,-1208.5 194,-1208.5"/>
<text text-anchor="middle" x="256.5" y="-1308.5" font-family="Helvetica,sans-Serif" font-size="10.00">IXMLSerializable</text>
<polyline fill="none" stroke="black" points="194,-1301.5 319,-1301.5 "/>
<text text-anchor="middle" x="256.5" y="-1289.5" font-family="Helvetica,sans-Serif" font-size="10.00"> </text>
<polyline fill="none" stroke="black" points="194,-1282.5 319,-1282.5 "/>
<text text-anchor="start" x="202" y="-1270.5" font-family="Helvetica,sans-Serif" font-size="10.00">+ IXMLSerializable()</text>
<text text-anchor="start" x="202" y="-1259.5" font-family="Helvetica,sans-Serif" font-size="10.00">+ ~IXMLSerializable()</text>
<text text-anchor="start" x="202" y="-1248.5" font-family="Helvetica,sans-Serif" font-size="10.00">+ IXMLSerializable()</text>
<text text-anchor="start" x="202" y="-1237.5" font-family="Helvetica,sans-Serif" font-size="10.00">+ operator=()</text>
<text text-anchor="start" x="202" y="-1226.5" font-family="Helvetica,sans-Serif" font-size="10.00">+ operator&lt;&lt;()</text>
<text text-anchor="start" x="202" y="-1215.5" font-family="Helvetica,sans-Serif" font-size="10.00">+ operator&lt;&lt;()</text>
</a>
</g>
</g>
<!-- Node4&#45;&gt;Node3 -->
<g id="edge3" class="edge">
<title>Node4&#45;&gt;Node3</title>
<path fill="none" stroke="midnightblue" d="M185.2,-1221.52C164.42,-1207.18 142.7,-1189.93 125.5,-1171 109.26,-1153.13 95.51,-1130.13 85.28,-1110.21"/>
<polygon fill="none" stroke="midnightblue" points="183.48,-1224.58 193.72,-1227.28 187.4,-1218.78 183.48,-1224.58"/>
</g>
<!-- Node11 -->
<g id="node11" class="node">
<title>Node11</title>
<g id="a_node11"><a xlink:href="classRayLib_1_1Vector3.html" target="_top" xlink:title="Vector3 encapsulation.">
<polygon fill="white" stroke="black" points="399.5,-739 399.5,-906 491.5,-906 491.5,-739 399.5,-739"/>
<text text-anchor="middle" x="445.5" y="-894" font-family="Helvetica,sans-Serif" font-size="10.00">RayLib::Vector3</text>
<polyline fill="none" stroke="black" points="399.5,-887 491.5,-887 "/>
<text text-anchor="middle" x="445.5" y="-875" font-family="Helvetica,sans-Serif" font-size="10.00"> </text>
<polyline fill="none" stroke="black" points="399.5,-868 491.5,-868 "/>
<text text-anchor="start" x="407.5" y="-856" font-family="Helvetica,sans-Serif" font-size="10.00">+ Vector3()</text>
<text text-anchor="start" x="407.5" y="-845" font-family="Helvetica,sans-Serif" font-size="10.00">+ Vector3()</text>
<text text-anchor="start" x="407.5" y="-834" font-family="Helvetica,sans-Serif" font-size="10.00">+ Vector3()</text>
<text text-anchor="start" x="407.5" y="-823" font-family="Helvetica,sans-Serif" font-size="10.00">+ Vector3()</text>
<text text-anchor="start" x="407.5" y="-812" font-family="Helvetica,sans-Serif" font-size="10.00">+ Vector3()</text>
<text text-anchor="start" x="407.5" y="-801" font-family="Helvetica,sans-Serif" font-size="10.00">+ Vector3()</text>
<text text-anchor="start" x="407.5" y="-790" font-family="Helvetica,sans-Serif" font-size="10.00">+ ~Vector3()</text>
<text text-anchor="start" x="407.5" y="-779" font-family="Helvetica,sans-Serif" font-size="10.00">+ getVector3()</text>
<text text-anchor="start" x="407.5" y="-768" font-family="Helvetica,sans-Serif" font-size="10.00">+ operator=()</text>
<text text-anchor="start" x="407.5" y="-757" font-family="Helvetica,sans-Serif" font-size="10.00">+ operator*=()</text>
<text text-anchor="start" x="407.5" y="-746" font-family="Helvetica,sans-Serif" font-size="10.00">and 13 more...</text>
</a>
</g>
</g>
<!-- Node4&#45;&gt;Node11 -->
<g id="edge15" class="edge">
<title>Node4&#45;&gt;Node11</title>
<path fill="none" stroke="midnightblue" d="M328.65,-1243.12C364.68,-1229 405.25,-1206.23 427.5,-1171 454.32,-1128.54 453.89,-994.68 450.3,-906.03"/>
<polygon fill="none" stroke="midnightblue" points="327.24,-1239.91 319.11,-1246.71 329.7,-1246.47 327.24,-1239.91"/>
</g>
<!-- Node5&#45;&gt;Node1 -->
<g id="edge4" class="edge">
<title>Node5&#45;&gt;Node1</title>
<path fill="none" stroke="#404040" d="M175.5,-204.27C175.5,-192.69 175.5,-180.68 175.5,-168.88"/>
<polygon fill="none" stroke="#404040" points="175.5,-168.69 171.5,-162.69 175.5,-156.69 179.5,-162.69 175.5,-168.69"/>
<text text-anchor="middle" x="219.5" y="-178" font-family="Helvetica,sans-Serif" font-size="10.00"> #_myAController</text>
</g>
<!-- Node6&#45;&gt;Node5 -->
<g id="edge6" class="edge">
<title>Node6&#45;&gt;Node5</title>
<path fill="none" stroke="#404040" d="M175.5,-408.22C175.5,-396.22 175.5,-384.29 175.5,-372.84"/>
<polygon fill="none" stroke="#404040" points="175.5,-372.62 171.5,-366.62 175.5,-360.62 179.5,-366.62 175.5,-372.62"/>
<text text-anchor="middle" x="209" y="-382" font-family="Helvetica,sans-Serif" font-size="10.00"> #_dropBomb</text>
</g>
<!-- Node7 -->
<g id="node7" class="node">
<title>Node7</title>
<g id="a_node7"><a xlink:href="classECS_1_1Entity.html" target="_top" xlink:title="Scene object containing components and an ID.">
<polygon fill="white" stroke="black" points="196.5,-733.5 196.5,-911.5 310.5,-911.5 310.5,-733.5 196.5,-733.5"/>
<text text-anchor="middle" x="253.5" y="-899.5" font-family="Helvetica,sans-Serif" font-size="10.00">ECS::Entity</text>
<polyline fill="none" stroke="black" points="196.5,-892.5 310.5,-892.5 "/>
<text text-anchor="start" x="204.5" y="-880.5" font-family="Helvetica,sans-Serif" font-size="10.00">&#45; _id</text>
<text text-anchor="start" x="204.5" y="-869.5" font-family="Helvetica,sans-Serif" font-size="10.00">&#45; _tag</text>
<polyline fill="none" stroke="black" points="196.5,-862.5 310.5,-862.5 "/>
<text text-anchor="start" x="204.5" y="-850.5" font-family="Helvetica,sans-Serif" font-size="10.00">+ Entity()</text>
<text text-anchor="start" x="204.5" y="-839.5" font-family="Helvetica,sans-Serif" font-size="10.00">+ Entity()</text>
<text text-anchor="start" x="204.5" y="-828.5" font-family="Helvetica,sans-Serif" font-size="10.00">+ ~Entity()</text>
<text text-anchor="start" x="204.5" y="-817.5" font-family="Helvetica,sans-Serif" font-size="10.00">+ Entity()</text>
<text text-anchor="start" x="204.5" y="-806.5" font-family="Helvetica,sans-Serif" font-size="10.00">+ operator=()</text>
<text text-anchor="start" x="204.5" y="-795.5" font-family="Helvetica,sans-Serif" font-size="10.00">+ GetComponent()</text>
<text text-anchor="start" x="204.5" y="-784.5" font-family="Helvetica,sans-Serif" font-size="10.00">+ OfType()</text>
<text text-anchor="start" x="204.5" y="-773.5" font-family="Helvetica,sans-Serif" font-size="10.00">+ GetComponents()</text>
<text text-anchor="start" x="204.5" y="-762.5" font-family="Helvetica,sans-Serif" font-size="10.00">+ AddComponent()</text>
<text text-anchor="start" x="204.5" y="-751.5" font-family="Helvetica,sans-Serif" font-size="10.00">+ AddComponent()</text>
<text text-anchor="start" x="204.5" y="-740.5" font-family="Helvetica,sans-Serif" font-size="10.00">and 9 more...</text>
</a>
</g>
</g>
<!-- Node7&#45;&gt;Node6 -->
<g id="edge8" class="edge">
<title>Node7&#45;&gt;Node6</title>
<path fill="none" stroke="#404040" d="M214.65,-733.39C212.43,-727.22 210.35,-721.05 208.5,-715 206.73,-709.23 205.04,-703.32 203.41,-697.33"/>
<polygon fill="none" stroke="#404040" points="203.41,-697.33 198.02,-692.53 200.38,-685.72 205.76,-690.51 203.41,-697.33"/>
<text text-anchor="middle" x="224" y="-707" font-family="Helvetica,sans-Serif" font-size="10.00"> &#45;_self</text>
</g>
<!-- Node7&#45;&gt;Node10 -->
<g id="edge16" class="edge">
<title>Node7&#45;&gt;Node10</title>
<path fill="none" stroke="#404040" d="M280.54,-733.46C285.69,-716.68 291.19,-698.77 296.67,-680.95"/>
<polygon fill="none" stroke="#404040" points="296.73,-680.74 294.67,-673.83 300.26,-669.26 302.32,-676.17 296.73,-680.74"/>
<text text-anchor="middle" x="309" y="-707" font-family="Helvetica,sans-Serif" font-size="10.00"> &#45;_entity</text>
</g>
<!-- Node8 -->
<g id="node8" class="node">
<title>Node8</title>
<g id="a_node8"><a xlink:href="classECS_1_1EntityManager.html" target="_top" xlink:title="Class used to manipulate Entities (a.k.a A Scene)">
<polygon fill="white" stroke="black" points="135,-992.5 135,-1137.5 250,-1137.5 250,-992.5 135,-992.5"/>
<text text-anchor="middle" x="192.5" y="-1125.5" font-family="Helvetica,sans-Serif" font-size="10.00">ECS::EntityManager</text>
<polyline fill="none" stroke="black" points="135,-1118.5 250,-1118.5 "/>
<text text-anchor="start" x="143" y="-1106.5" font-family="Helvetica,sans-Serif" font-size="10.00">&#45; _available</text>
<text text-anchor="start" x="143" y="-1095.5" font-family="Helvetica,sans-Serif" font-size="10.00">&#45; _max</text>
<text text-anchor="start" x="143" y="-1084.5" font-family="Helvetica,sans-Serif" font-size="10.00">&#45; _entities</text>
<polyline fill="none" stroke="black" points="135,-1077.5 250,-1077.5 "/>
<text text-anchor="start" x="143" y="-1065.5" font-family="Helvetica,sans-Serif" font-size="10.00">+ EntityManager()</text>
<text text-anchor="start" x="143" y="-1054.5" font-family="Helvetica,sans-Serif" font-size="10.00">+ ~EntityManager()</text>
<text text-anchor="start" x="143" y="-1043.5" font-family="Helvetica,sans-Serif" font-size="10.00">+ EntityManager()</text>
<text text-anchor="start" x="143" y="-1032.5" font-family="Helvetica,sans-Serif" font-size="10.00">+ operator=()</text>
<text text-anchor="start" x="143" y="-1021.5" font-family="Helvetica,sans-Serif" font-size="10.00">+ CreateEntity()</text>
<text text-anchor="start" x="143" y="-1010.5" font-family="Helvetica,sans-Serif" font-size="10.00">+ DeleteEntity()</text>
<text text-anchor="start" x="143" y="-999.5" font-family="Helvetica,sans-Serif" font-size="10.00">+ GetEntities()</text>
</a>
</g>
</g>
<!-- Node8&#45;&gt;Node7 -->
<g id="edge9" class="edge">
<title>Node8&#45;&gt;Node7</title>
<path fill="none" stroke="#404040" d="M203.2,-992.27C206.81,-971.99 211.27,-950.01 216.5,-930 217.09,-927.73 217.71,-925.43 218.36,-923.13"/>
<polygon fill="none" stroke="#404040" points="218.38,-923.03 216.22,-916.15 221.73,-911.51 223.9,-918.38 218.38,-923.03"/>
<text text-anchor="middle" x="258.5" y="-933" font-family="Helvetica,sans-Serif" font-size="10.00"> &#45;_entityManager</text>
</g>
<!-- Node9 -->
<g id="node9" class="node">
<title>Node9</title>
<g id="a_node9"><a xlink:href="classECS_1_1ComponentManager.html" target="_top" xlink:title="Class used to manipulate Components.">
<polygon fill="white" stroke="black" points="268,-959.5 268,-1170.5 419,-1170.5 419,-959.5 268,-959.5"/>
<text text-anchor="middle" x="343.5" y="-1158.5" font-family="Helvetica,sans-Serif" font-size="10.00">ECS::ComponentManager</text>
<polyline fill="none" stroke="black" points="268,-1151.5 419,-1151.5 "/>
<text text-anchor="start" x="276" y="-1139.5" font-family="Helvetica,sans-Serif" font-size="10.00">&#45; _bases</text>
<text text-anchor="start" x="276" y="-1128.5" font-family="Helvetica,sans-Serif" font-size="10.00">&#45; _components</text>
<polyline fill="none" stroke="black" points="268,-1121.5 419,-1121.5 "/>
<text text-anchor="start" x="276" y="-1109.5" font-family="Helvetica,sans-Serif" font-size="10.00">+ ComponentManager()</text>
<text text-anchor="start" x="276" y="-1098.5" font-family="Helvetica,sans-Serif" font-size="10.00">+ ~ComponentManager()</text>
<text text-anchor="start" x="276" y="-1087.5" font-family="Helvetica,sans-Serif" font-size="10.00">+ ComponentManager()</text>
<text text-anchor="start" x="276" y="-1076.5" font-family="Helvetica,sans-Serif" font-size="10.00">+ operator=()</text>
<text text-anchor="start" x="276" y="-1065.5" font-family="Helvetica,sans-Serif" font-size="10.00">+ GetComponent()</text>
<text text-anchor="start" x="276" y="-1054.5" font-family="Helvetica,sans-Serif" font-size="10.00">+ OfType()</text>
<text text-anchor="start" x="276" y="-1043.5" font-family="Helvetica,sans-Serif" font-size="10.00">+ GetComponents()</text>
<text text-anchor="start" x="276" y="-1032.5" font-family="Helvetica,sans-Serif" font-size="10.00">+ AddComponent()</text>
<text text-anchor="start" x="276" y="-1021.5" font-family="Helvetica,sans-Serif" font-size="10.00">+ AddComponent()</text>
<text text-anchor="start" x="276" y="-1010.5" font-family="Helvetica,sans-Serif" font-size="10.00">+ RemoveComponent()</text>
<text text-anchor="start" x="276" y="-999.5" font-family="Helvetica,sans-Serif" font-size="10.00">+ HasComponent()</text>
<text text-anchor="start" x="276" y="-988.5" font-family="Helvetica,sans-Serif" font-size="10.00">+ HasComponent()</text>
<text text-anchor="start" x="276" y="-977.5" font-family="Helvetica,sans-Serif" font-size="10.00">+ HasComponents()</text>
<text text-anchor="start" x="276" y="-966.5" font-family="Helvetica,sans-Serif" font-size="10.00">+ GetComponentByName()</text>
</a>
</g>
</g>
<!-- Node9&#45;&gt;Node7 -->
<g id="edge10" class="edge">
<title>Node9&#45;&gt;Node7</title>
<path fill="none" stroke="#404040" d="M311.11,-959.39C307.66,-949.41 304.1,-939.48 300.5,-930 299.6,-927.64 298.68,-925.25 297.74,-922.85"/>
<polygon fill="none" stroke="#404040" points="297.67,-922.68 291.72,-918.6 293.21,-911.54 299.15,-915.62 297.67,-922.68"/>
<text text-anchor="middle" x="359.5" y="-933" font-family="Helvetica,sans-Serif" font-size="10.00"> &#45;_componentManager</text>
</g>
<!-- Node10&#45;&gt;Node5 -->
<g id="edge11" class="edge">
<title>Node10&#45;&gt;Node5</title>
<path fill="none" stroke="#404040" d="M274.19,-424.82C265.24,-409.2 255.88,-393.58 246.5,-379 244.73,-376.24 242.9,-373.46 241.04,-370.67"/>
<polygon fill="none" stroke="#404040" points="240.89,-370.46 234.21,-367.75 234.13,-360.54 240.82,-363.24 240.89,-370.46"/>
<text text-anchor="middle" x="287.5" y="-382" font-family="Helvetica,sans-Serif" font-size="10.00"> #_movement</text>
</g>
<!-- Node11&#45;&gt;Node1 -->
<g id="edge17" class="edge">
<title>Node11&#45;&gt;Node1</title>
<path fill="none" stroke="#404040" d="M449.89,-738.84C451.86,-653.73 447.79,-518.33 411.5,-408 381.24,-316 315.08,-227.78 260.49,-165.97"/>
<polygon fill="none" stroke="#404040" points="260.18,-165.62 253.2,-163.81 252.18,-156.67 259.16,-158.48 260.18,-165.62"/>
<text text-anchor="middle" x="427" y="-382" font-family="Helvetica,sans-Serif" font-size="10.00"> #_offset</text>
</g>
<!-- Node11&#45;&gt;Node10 -->
<g id="edge13" class="edge">
<title>Node11&#45;&gt;Node10</title>
<path fill="none" stroke="#404040" d="M399.49,-768.6C387.41,-752.33 375.54,-733.75 367.5,-715 362.89,-704.24 358.98,-692.79 355.68,-681.13"/>
<polygon fill="none" stroke="#404040" points="355.65,-681.02 350.24,-676.25 352.57,-669.42 357.98,-674.19 355.65,-681.02"/>
<text text-anchor="middle" x="395" y="-707" font-family="Helvetica,sans-Serif" font-size="10.00"> +direction</text>
</g>
<!-- Node12 -->
<g id="node12" class="node">
<title>Node12</title>
<g id="a_node12"><a xlink:title=" ">
<polygon fill="white" stroke="#bfbfbf" points="476,-1036.5 476,-1093.5 529,-1093.5 529,-1036.5 476,-1036.5"/>
<text text-anchor="middle" x="502.5" y="-1081.5" font-family="Helvetica,sans-Serif" font-size="10.00">Vector3</text>
<polyline fill="none" stroke="#bfbfbf" points="476,-1074.5 529,-1074.5 "/>
<text text-anchor="middle" x="502.5" y="-1062.5" font-family="Helvetica,sans-Serif" font-size="10.00"> </text>
<polyline fill="none" stroke="#bfbfbf" points="476,-1055.5 529,-1055.5 "/>
<text text-anchor="middle" x="502.5" y="-1043.5" font-family="Helvetica,sans-Serif" font-size="10.00"> </text>
</a>
</g>
</g>
<!-- Node12&#45;&gt;Node11 -->
<g id="edge14" class="edge">
<title>Node12&#45;&gt;Node11</title>
<path fill="none" stroke="midnightblue" d="M493.62,-1026.55C486.01,-994.42 474.76,-946.96 465.05,-906"/>
<polygon fill="none" stroke="midnightblue" points="490.25,-1027.49 495.96,-1036.41 497.06,-1025.87 490.25,-1027.49"/>
</g>
</g>
</svg>
