<?xml version="1.0" encoding="UTF-8" standalone="no"?>
<!DOCTYPE svg PUBLIC "-//W3C//DTD SVG 1.1//EN"
 "http://www.w3.org/Graphics/SVG/1.1/DTD/svg11.dtd">
<!-- Generated by graphviz version 2.43.0 (0)
 -->
<!-- Title: Component::TextBox Pages: 1 -->
<svg width="133pt" height="711pt"
 viewBox="0.00 0.00 133.00 711.00" xmlns="http://www.w3.org/2000/svg" xmlns:xlink="http://www.w3.org/1999/xlink">
<g id="graph0" class="graph" transform="scale(1 1) rotate(0) translate(4 707)">
<title>Component::TextBox</title>
<polygon fill="white" stroke="transparent" points="-4,4 -4,-707 129,-707 129,4 -4,4"/>
<!-- Node1 -->
<g id="node1" class="node">
<title>Node1</title>
<g id="a_node1"><a xlink:title="Component where it&#39;s possible to enter text and show it.">
<polygon fill="#bfbfbf" stroke="black" points="3.5,-0.5 3.5,-288.5 121.5,-288.5 121.5,-0.5 3.5,-0.5"/>
<text text-anchor="middle" x="62.5" y="-276.5" font-family="Helvetica,sans-Serif" font-size="10.00">Component::TextBox</text>
<polyline fill="none" stroke="black" points="3.5,-269.5 121.5,-269.5 "/>
<text text-anchor="start" x="11.5" y="-257.5" font-family="Helvetica,sans-Serif" font-size="10.00">&#45; _max</text>
<text text-anchor="start" x="11.5" y="-246.5" font-family="Helvetica,sans-Serif" font-size="10.00">&#45; _font</text>
<text text-anchor="start" x="11.5" y="-235.5" font-family="Helvetica,sans-Serif" font-size="10.00">&#45; _color</text>
<text text-anchor="start" x="11.5" y="-224.5" font-family="Helvetica,sans-Serif" font-size="10.00">&#45; _size</text>
<text text-anchor="start" x="11.5" y="-213.5" font-family="Helvetica,sans-Serif" font-size="10.00">&#45; _spacing</text>
<text text-anchor="start" x="11.5" y="-202.5" font-family="Helvetica,sans-Serif" font-size="10.00">&#45; _value</text>
<text text-anchor="start" x="11.5" y="-191.5" font-family="Helvetica,sans-Serif" font-size="10.00">&#45; _isAlpha</text>
<text text-anchor="start" x="11.5" y="-180.5" font-family="Helvetica,sans-Serif" font-size="10.00">&#45; _isNum</text>
<text text-anchor="start" x="11.5" y="-169.5" font-family="Helvetica,sans-Serif" font-size="10.00">&#45; _rect</text>
<polyline fill="none" stroke="black" points="3.5,-162.5 121.5,-162.5 "/>
<text text-anchor="start" x="11.5" y="-150.5" font-family="Helvetica,sans-Serif" font-size="10.00">+ TextBox()</text>
<text text-anchor="start" x="11.5" y="-139.5" font-family="Helvetica,sans-Serif" font-size="10.00">+ ~TextBox()</text>
<text text-anchor="start" x="11.5" y="-128.5" font-family="Helvetica,sans-Serif" font-size="10.00">+ TextBox()</text>
<text text-anchor="start" x="11.5" y="-117.5" font-family="Helvetica,sans-Serif" font-size="10.00">+ operator=()</text>
<text text-anchor="start" x="11.5" y="-106.5" font-family="Helvetica,sans-Serif" font-size="10.00">+ Draw()</text>
<text text-anchor="start" x="11.5" y="-95.5" font-family="Helvetica,sans-Serif" font-size="10.00">+ GetIsAlpha()</text>
<text text-anchor="start" x="11.5" y="-84.5" font-family="Helvetica,sans-Serif" font-size="10.00">+ GetIsNum()</text>
<text text-anchor="start" x="11.5" y="-73.5" font-family="Helvetica,sans-Serif" font-size="10.00">+ GetValue()</text>
<text text-anchor="start" x="11.5" y="-62.5" font-family="Helvetica,sans-Serif" font-size="10.00">+ SetValue()</text>
<text text-anchor="start" x="11.5" y="-51.5" font-family="Helvetica,sans-Serif" font-size="10.00">+ GetRectangle()</text>
<text text-anchor="start" x="11.5" y="-40.5" font-family="Helvetica,sans-Serif" font-size="10.00">+ RemoveChar()</text>
<text text-anchor="start" x="11.5" y="-29.5" font-family="Helvetica,sans-Serif" font-size="10.00">+ AppendChar()</text>
<text text-anchor="start" x="11.5" y="-18.5" font-family="Helvetica,sans-Serif" font-size="10.00">&#45; operator&lt;&lt;()</text>
<text text-anchor="start" x="11.5" y="-7.5" font-family="Helvetica,sans-Serif" font-size="10.00">&#45; operator&lt;&lt;()</text>
</a>
</g>
</g>
<!-- Node2 -->
<g id="node2" class="node">
<title>Node2</title>
<g id="a_node2"><a xlink:href="classComponent_1_1IUIObject.html" target="_top" xlink:title="Base class for UI objects.">
<polygon fill="white" stroke="black" points="0.5,-325.5 0.5,-426.5 124.5,-426.5 124.5,-325.5 0.5,-325.5"/>
<text text-anchor="middle" x="62.5" y="-414.5" font-family="Helvetica,sans-Serif" font-size="10.00">Component::IUIObject</text>
<polyline fill="none" stroke="black" points="0.5,-407.5 124.5,-407.5 "/>
<text text-anchor="middle" x="62.5" y="-395.5" font-family="Helvetica,sans-Serif" font-size="10.00"> </text>
<polyline fill="none" stroke="black" points="0.5,-388.5 124.5,-388.5 "/>
<text text-anchor="start" x="8.5" y="-376.5" font-family="Helvetica,sans-Serif" font-size="10.00">+ IUIObject()</text>
<text text-anchor="start" x="8.5" y="-365.5" font-family="Helvetica,sans-Serif" font-size="10.00">+ ~IUIObject()</text>
<text text-anchor="start" x="8.5" y="-354.5" font-family="Helvetica,sans-Serif" font-size="10.00">+ IUIObject()</text>
<text text-anchor="start" x="8.5" y="-343.5" font-family="Helvetica,sans-Serif" font-size="10.00">+ operator=()</text>
<text text-anchor="start" x="8.5" y="-332.5" font-family="Helvetica,sans-Serif" font-size="10.00">+ Draw()</text>
</a>
</g>
</g>
<!-- Node2&#45;&gt;Node1 -->
<g id="edge1" class="edge">
<title>Node2&#45;&gt;Node1</title>
<path fill="none" stroke="midnightblue" d="M62.5,-315.48C62.5,-307.05 62.5,-298.09 62.5,-288.88"/>
<polygon fill="none" stroke="midnightblue" points="59,-315.48 62.5,-325.48 66,-315.48 59,-315.48"/>
</g>
<!-- Node3 -->
<g id="node3" class="node">
<title>Node3</title>
<g id="a_node3"><a xlink:href="classECS_1_1IComponent.html" target="_top" xlink:title="Base Interface class to create a new component.">
<polygon fill="white" stroke="black" points="11,-463.5 11,-553.5 114,-553.5 114,-463.5 11,-463.5"/>
<text text-anchor="middle" x="62.5" y="-541.5" font-family="Helvetica,sans-Serif" font-size="10.00">ECS::IComponent</text>
<polyline fill="none" stroke="black" points="11,-534.5 114,-534.5 "/>
<text text-anchor="middle" x="62.5" y="-522.5" font-family="Helvetica,sans-Serif" font-size="10.00"> </text>
<polyline fill="none" stroke="black" points="11,-515.5 114,-515.5 "/>
<text text-anchor="start" x="19" y="-503.5" font-family="Helvetica,sans-Serif" font-size="10.00">+ IComponent()</text>
<text text-anchor="start" x="19" y="-492.5" font-family="Helvetica,sans-Serif" font-size="10.00">+ ~IComponent()</text>
<text text-anchor="start" x="19" y="-481.5" font-family="Helvetica,sans-Serif" font-size="10.00">+ IComponent()</text>
<text text-anchor="start" x="19" y="-470.5" font-family="Helvetica,sans-Serif" font-size="10.00">+ operator=()</text>
</a>
</g>
</g>
<!-- Node3&#45;&gt;Node2 -->
<g id="edge2" class="edge">
<title>Node3&#45;&gt;Node2</title>
<path fill="none" stroke="midnightblue" d="M62.5,-453.13C62.5,-444.31 62.5,-435.22 62.5,-426.52"/>
<polygon fill="none" stroke="midnightblue" points="59,-453.32 62.5,-463.32 66,-453.32 59,-453.32"/>
</g>
<!-- Node4 -->
<g id="node4" class="node">
<title>Node4</title>
<g id="a_node4"><a xlink:href="classIXMLSerializable.html" target="_top" xlink:title=" ">
<polygon fill="white" stroke="black" points="0,-590.5 0,-702.5 125,-702.5 125,-590.5 0,-590.5"/>
<text text-anchor="middle" x="62.5" y="-690.5" font-family="Helvetica,sans-Serif" font-size="10.00">IXMLSerializable</text>
<polyline fill="none" stroke="black" points="0,-683.5 125,-683.5 "/>
<text text-anchor="middle" x="62.5" y="-671.5" font-family="Helvetica,sans-Serif" font-size="10.00"> </text>
<polyline fill="none" stroke="black" points="0,-664.5 125,-664.5 "/>
<text text-anchor="start" x="8" y="-652.5" font-family="Helvetica,sans-Serif" font-size="10.00">+ IXMLSerializable()</text>
<text text-anchor="start" x="8" y="-641.5" font-family="Helvetica,sans-Serif" font-size="10.00">+ ~IXMLSerializable()</text>
<text text-anchor="start" x="8" y="-630.5" font-family="Helvetica,sans-Serif" font-size="10.00">+ IXMLSerializable()</text>
<text text-anchor="start" x="8" y="-619.5" font-family="Helvetica,sans-Serif" font-size="10.00">+ operator=()</text>
<text text-anchor="start" x="8" y="-608.5" font-family="Helvetica,sans-Serif" font-size="10.00">+ operator&lt;&lt;()</text>
<text text-anchor="start" x="8" y="-597.5" font-family="Helvetica,sans-Serif" font-size="10.00">+ operator&lt;&lt;()</text>
</a>
</g>
</g>
<!-- Node4&#45;&gt;Node3 -->
<g id="edge3" class="edge">
<title>Node4&#45;&gt;Node3</title>
<path fill="none" stroke="midnightblue" d="M62.5,-580.08C62.5,-571.07 62.5,-562.01 62.5,-553.51"/>
<polygon fill="none" stroke="midnightblue" points="59,-580.18 62.5,-590.18 66,-580.18 59,-580.18"/>
</g>
</g>
</svg>
