<?xml version="1.0" encoding="UTF-8" standalone="no"?>
<!DOCTYPE svg PUBLIC "-//W3C//DTD SVG 1.1//EN"
 "http://www.w3.org/Graphics/SVG/1.1/DTD/svg11.dtd">
<!-- Generated by graphviz version 2.43.0 (0)
 -->
<!-- Title: Lua::DelayedPop Pages: 1 -->
<svg width="110pt" height="369pt"
 viewBox="0.00 0.00 110.00 369.00" xmlns="http://www.w3.org/2000/svg" xmlns:xlink="http://www.w3.org/1999/xlink">
<g id="graph0" class="graph" transform="scale(1 1) rotate(0) translate(4 365)">
<title>Lua::DelayedPop</title>
<polygon fill="white" stroke="transparent" points="-4,4 -4,-365 106,-365 106,4 -4,4"/>
<!-- Node1 -->
<g id="node1" class="node">
<title>Node1</title>
<g id="a_node1"><a xlink:title="Popping variable from Lua Stack at destruction.">
<polygon fill="#bfbfbf" stroke="black" points="0,-0.5 0,-112.5 102,-112.5 102,-0.5 0,-0.5"/>
<text text-anchor="middle" x="51" y="-100.5" font-family="Helvetica,sans-Serif" font-size="10.00">Lua::DelayedPop</text>
<polyline fill="none" stroke="black" points="0,-93.5 102,-93.5 "/>
<text text-anchor="start" x="8" y="-81.5" font-family="Helvetica,sans-Serif" font-size="10.00">&#45; _nbr</text>
<polyline fill="none" stroke="black" points="0,-74.5 102,-74.5 "/>
<text text-anchor="start" x="8" y="-62.5" font-family="Helvetica,sans-Serif" font-size="10.00">+ DelayedPop()</text>
<text text-anchor="start" x="8" y="-51.5" font-family="Helvetica,sans-Serif" font-size="10.00">+ ~DelayedPop()</text>
<text text-anchor="start" x="8" y="-40.5" font-family="Helvetica,sans-Serif" font-size="10.00">+ DelayedPop()</text>
<text text-anchor="start" x="8" y="-29.5" font-family="Helvetica,sans-Serif" font-size="10.00">+ operator=()</text>
<text text-anchor="start" x="8" y="-18.5" font-family="Helvetica,sans-Serif" font-size="10.00">+ SetNbr()</text>
<text text-anchor="start" x="8" y="-7.5" font-family="Helvetica,sans-Serif" font-size="10.00">+ GetNbr()</text>
</a>
</g>
</g>
<!-- Node2 -->
<g id="node2" class="node">
<title>Node2</title>
<g id="a_node2"><a xlink:href="classLua_1_1State.html" target="_top" xlink:title="Lua Stack State.">
<polygon fill="white" stroke="black" points="6.5,-160.5 6.5,-360.5 95.5,-360.5 95.5,-160.5 6.5,-160.5"/>
<text text-anchor="middle" x="51" y="-348.5" font-family="Helvetica,sans-Serif" font-size="10.00">Lua::State</text>
<polyline fill="none" stroke="black" points="6.5,-341.5 95.5,-341.5 "/>
<text text-anchor="start" x="14.5" y="-329.5" font-family="Helvetica,sans-Serif" font-size="10.00">&#45; _ls</text>
<polyline fill="none" stroke="black" points="6.5,-322.5 95.5,-322.5 "/>
<text text-anchor="start" x="14.5" y="-310.5" font-family="Helvetica,sans-Serif" font-size="10.00">+ State()</text>
<text text-anchor="start" x="14.5" y="-299.5" font-family="Helvetica,sans-Serif" font-size="10.00">+ ~State()</text>
<text text-anchor="start" x="14.5" y="-288.5" font-family="Helvetica,sans-Serif" font-size="10.00">+ State()</text>
<text text-anchor="start" x="14.5" y="-277.5" font-family="Helvetica,sans-Serif" font-size="10.00">+ operator=()</text>
<text text-anchor="start" x="14.5" y="-266.5" font-family="Helvetica,sans-Serif" font-size="10.00">+ RunScript()</text>
<text text-anchor="start" x="14.5" y="-255.5" font-family="Helvetica,sans-Serif" font-size="10.00">+ GetGlobal()</text>
<text text-anchor="start" x="14.5" y="-244.5" font-family="Helvetica,sans-Serif" font-size="10.00">+ SetGlobal()</text>
<text text-anchor="start" x="14.5" y="-233.5" font-family="Helvetica,sans-Serif" font-size="10.00">+ Call()</text>
<text text-anchor="start" x="14.5" y="-222.5" font-family="Helvetica,sans-Serif" font-size="10.00">+ Push()</text>
<text text-anchor="start" x="14.5" y="-211.5" font-family="Helvetica,sans-Serif" font-size="10.00">+ Push()</text>
<text text-anchor="start" x="14.5" y="-200.5" font-family="Helvetica,sans-Serif" font-size="10.00">and 15 more...</text>
<text text-anchor="start" x="14.5" y="-189.5" font-family="Helvetica,sans-Serif" font-size="10.00">&#45; PushMany()</text>
<text text-anchor="start" x="14.5" y="-178.5" font-family="Helvetica,sans-Serif" font-size="10.00">&#45; PushMany()</text>
<text text-anchor="start" x="14.5" y="-167.5" font-family="Helvetica,sans-Serif" font-size="10.00">&#45; CreateTable()</text>
</a>
</g>
</g>
<!-- Node2&#45;&gt;Node1 -->
<g id="edge1" class="edge">
<title>Node2&#45;&gt;Node1</title>
<path fill="none" stroke="#404040" d="M51,-160.28C51,-148.26 51,-136.21 51,-124.81"/>
<polygon fill="none" stroke="#404040" points="51,-124.72 47,-118.72 51,-112.72 55,-118.72 51,-124.72"/>
<text text-anchor="middle" x="69.5" y="-134" font-family="Helvetica,sans-Serif" font-size="10.00"> &#45;_state</text>
</g>
</g>
</svg>
