<?xml version="1.0" encoding="UTF-8" standalone="no"?>
<!DOCTYPE svg PUBLIC "-//W3C//DTD SVG 1.1//EN"
 "http://www.w3.org/Graphics/SVG/1.1/DTD/svg11.dtd">
<!-- Generated by graphviz version 2.43.0 (0)
 -->
<!-- Title: Component::SpeedBoost Pages: 1 -->
<svg width="145pt" height="794pt"
 viewBox="0.00 0.00 145.00 794.00" xmlns="http://www.w3.org/2000/svg" xmlns:xlink="http://www.w3.org/1999/xlink">
<g id="graph0" class="graph" transform="scale(1 1) rotate(0) translate(4 790)">
<title>Component::SpeedBoost</title>
<polygon fill="white" stroke="transparent" points="-4,4 -4,-790 141,-790 141,4 -4,4"/>
<!-- Node1 -->
<g id="node1" class="node">
<title>Node1</title>
<g id="a_node1"><a xlink:title=" ">
<polygon fill="#bfbfbf" stroke="black" points="0,-0.5 0,-145.5 137,-145.5 137,-0.5 0,-0.5"/>
<text text-anchor="middle" x="68.5" y="-133.5" font-family="Helvetica,sans-Serif" font-size="10.00">Component::SpeedBoost</text>
<polyline fill="none" stroke="black" points="0,-126.5 137,-126.5 "/>
<text text-anchor="middle" x="68.5" y="-114.5" font-family="Helvetica,sans-Serif" font-size="10.00"> </text>
<polyline fill="none" stroke="black" points="0,-107.5 137,-107.5 "/>
<text text-anchor="start" x="8" y="-95.5" font-family="Helvetica,sans-Serif" font-size="10.00">+ SpeedBoost()</text>
<text text-anchor="start" x="8" y="-84.5" font-family="Helvetica,sans-Serif" font-size="10.00">+ ~SpeedBoost()</text>
<text text-anchor="start" x="8" y="-73.5" font-family="Helvetica,sans-Serif" font-size="10.00">+ SpeedBoost()</text>
<text text-anchor="start" x="8" y="-62.5" font-family="Helvetica,sans-Serif" font-size="10.00">+ operator=()</text>
<text text-anchor="start" x="8" y="-51.5" font-family="Helvetica,sans-Serif" font-size="10.00">+ OnPickup()</text>
<text text-anchor="start" x="8" y="-40.5" font-family="Helvetica,sans-Serif" font-size="10.00">+ ApplyBoost()</text>
<text text-anchor="start" x="8" y="-29.5" font-family="Helvetica,sans-Serif" font-size="10.00">+ LateUpdate()</text>
<text text-anchor="start" x="8" y="-18.5" font-family="Helvetica,sans-Serif" font-size="10.00">+ operator&lt;&lt;()</text>
<text text-anchor="start" x="8" y="-7.5" font-family="Helvetica,sans-Serif" font-size="10.00">+ operator&lt;&lt;()</text>
</a>
</g>
</g>
<!-- Node2 -->
<g id="node2" class="node">
<title>Node2</title>
<g id="a_node2"><a xlink:href="classComponent_1_1APickUp.html" target="_top" xlink:title=" ">
<polygon fill="white" stroke="black" points="9,-182.5 9,-349.5 128,-349.5 128,-182.5 9,-182.5"/>
<text text-anchor="middle" x="68.5" y="-337.5" font-family="Helvetica,sans-Serif" font-size="10.00">Component::APickUp</text>
<polyline fill="none" stroke="black" points="9,-330.5 128,-330.5 "/>
<text text-anchor="start" x="17" y="-318.5" font-family="Helvetica,sans-Serif" font-size="10.00"># _entity</text>
<text text-anchor="start" x="17" y="-307.5" font-family="Helvetica,sans-Serif" font-size="10.00"># _pickupRadius</text>
<text text-anchor="start" x="17" y="-296.5" font-family="Helvetica,sans-Serif" font-size="10.00"># _coordinator</text>
<polyline fill="none" stroke="black" points="9,-289.5 128,-289.5 "/>
<text text-anchor="start" x="17" y="-277.5" font-family="Helvetica,sans-Serif" font-size="10.00">+ APickUp()</text>
<text text-anchor="start" x="17" y="-266.5" font-family="Helvetica,sans-Serif" font-size="10.00">+ ~APickUp()</text>
<text text-anchor="start" x="17" y="-255.5" font-family="Helvetica,sans-Serif" font-size="10.00">+ APickUp()</text>
<text text-anchor="start" x="17" y="-244.5" font-family="Helvetica,sans-Serif" font-size="10.00">+ operator=()</text>
<text text-anchor="start" x="17" y="-233.5" font-family="Helvetica,sans-Serif" font-size="10.00">+ OnPickup()</text>
<text text-anchor="start" x="17" y="-222.5" font-family="Helvetica,sans-Serif" font-size="10.00">+ Update()</text>
<text text-anchor="start" x="17" y="-211.5" font-family="Helvetica,sans-Serif" font-size="10.00">+ FixedUpdate()</text>
<text text-anchor="start" x="17" y="-200.5" font-family="Helvetica,sans-Serif" font-size="10.00">+ LateUpdate()</text>
<text text-anchor="start" x="17" y="-189.5" font-family="Helvetica,sans-Serif" font-size="10.00"># getPlayerNbr()</text>
</a>
</g>
</g>
<!-- Node2&#45;&gt;Node1 -->
<g id="edge1" class="edge">
<title>Node2&#45;&gt;Node1</title>
<path fill="none" stroke="midnightblue" d="M68.5,-172.28C68.5,-163.35 68.5,-154.38 68.5,-145.7"/>
<polygon fill="none" stroke="midnightblue" points="65,-172.34 68.5,-182.34 72,-172.34 65,-172.34"/>
</g>
<!-- Node3 -->
<g id="node3" class="node">
<title>Node3</title>
<g id="a_node3"><a xlink:href="classComponent_1_1IBehaviour.html" target="_top" xlink:title="IBehaviour base component (CF Monobehaviour class in Unity)">
<polygon fill="white" stroke="black" points="3,-386.5 3,-509.5 134,-509.5 134,-386.5 3,-386.5"/>
<text text-anchor="middle" x="68.5" y="-497.5" font-family="Helvetica,sans-Serif" font-size="10.00">Component::IBehaviour</text>
<polyline fill="none" stroke="black" points="3,-490.5 134,-490.5 "/>
<text text-anchor="middle" x="68.5" y="-478.5" font-family="Helvetica,sans-Serif" font-size="10.00"> </text>
<polyline fill="none" stroke="black" points="3,-471.5 134,-471.5 "/>
<text text-anchor="start" x="11" y="-459.5" font-family="Helvetica,sans-Serif" font-size="10.00">+ IBehaviour()</text>
<text text-anchor="start" x="11" y="-448.5" font-family="Helvetica,sans-Serif" font-size="10.00">+ ~IBehaviour()</text>
<text text-anchor="start" x="11" y="-437.5" font-family="Helvetica,sans-Serif" font-size="10.00">+ IBehaviour()</text>
<text text-anchor="start" x="11" y="-426.5" font-family="Helvetica,sans-Serif" font-size="10.00">+ operator=()</text>
<text text-anchor="start" x="11" y="-415.5" font-family="Helvetica,sans-Serif" font-size="10.00">+ Update()</text>
<text text-anchor="start" x="11" y="-404.5" font-family="Helvetica,sans-Serif" font-size="10.00">+ FixedUpdate()</text>
<text text-anchor="start" x="11" y="-393.5" font-family="Helvetica,sans-Serif" font-size="10.00">+ LateUpdate()</text>
</a>
</g>
</g>
<!-- Node3&#45;&gt;Node2 -->
<g id="edge2" class="edge">
<title>Node3&#45;&gt;Node2</title>
<path fill="none" stroke="midnightblue" d="M68.5,-376.25C68.5,-367.57 68.5,-358.63 68.5,-349.79"/>
<polygon fill="none" stroke="midnightblue" points="65,-376.31 68.5,-386.31 72,-376.31 65,-376.31"/>
</g>
<!-- Node4 -->
<g id="node4" class="node">
<title>Node4</title>
<g id="a_node4"><a xlink:href="classECS_1_1IComponent.html" target="_top" xlink:title="Base Interface class to create a new component.">
<polygon fill="white" stroke="black" points="17,-546.5 17,-636.5 120,-636.5 120,-546.5 17,-546.5"/>
<text text-anchor="middle" x="68.5" y="-624.5" font-family="Helvetica,sans-Serif" font-size="10.00">ECS::IComponent</text>
<polyline fill="none" stroke="black" points="17,-617.5 120,-617.5 "/>
<text text-anchor="middle" x="68.5" y="-605.5" font-family="Helvetica,sans-Serif" font-size="10.00"> </text>
<polyline fill="none" stroke="black" points="17,-598.5 120,-598.5 "/>
<text text-anchor="start" x="25" y="-586.5" font-family="Helvetica,sans-Serif" font-size="10.00">+ IComponent()</text>
<text text-anchor="start" x="25" y="-575.5" font-family="Helvetica,sans-Serif" font-size="10.00">+ ~IComponent()</text>
<text text-anchor="start" x="25" y="-564.5" font-family="Helvetica,sans-Serif" font-size="10.00">+ IComponent()</text>
<text text-anchor="start" x="25" y="-553.5" font-family="Helvetica,sans-Serif" font-size="10.00">+ operator=()</text>
</a>
</g>
</g>
<!-- Node4&#45;&gt;Node3 -->
<g id="edge3" class="edge">
<title>Node4&#45;&gt;Node3</title>
<path fill="none" stroke="midnightblue" d="M68.5,-536.11C68.5,-527.42 68.5,-518.38 68.5,-509.56"/>
<polygon fill="none" stroke="midnightblue" points="65,-536.12 68.5,-546.12 72,-536.12 65,-536.12"/>
</g>
<!-- Node5 -->
<g id="node5" class="node">
<title>Node5</title>
<g id="a_node5"><a xlink:href="classIXMLSerializable.html" target="_top" xlink:title=" ">
<polygon fill="white" stroke="black" points="6,-673.5 6,-785.5 131,-785.5 131,-673.5 6,-673.5"/>
<text text-anchor="middle" x="68.5" y="-773.5" font-family="Helvetica,sans-Serif" font-size="10.00">IXMLSerializable</text>
<polyline fill="none" stroke="black" points="6,-766.5 131,-766.5 "/>
<text text-anchor="middle" x="68.5" y="-754.5" font-family="Helvetica,sans-Serif" font-size="10.00"> </text>
<polyline fill="none" stroke="black" points="6,-747.5 131,-747.5 "/>
<text text-anchor="start" x="14" y="-735.5" font-family="Helvetica,sans-Serif" font-size="10.00">+ IXMLSerializable()</text>
<text text-anchor="start" x="14" y="-724.5" font-family="Helvetica,sans-Serif" font-size="10.00">+ ~IXMLSerializable()</text>
<text text-anchor="start" x="14" y="-713.5" font-family="Helvetica,sans-Serif" font-size="10.00">+ IXMLSerializable()</text>
<text text-anchor="start" x="14" y="-702.5" font-family="Helvetica,sans-Serif" font-size="10.00">+ operator=()</text>
<text text-anchor="start" x="14" y="-691.5" font-family="Helvetica,sans-Serif" font-size="10.00">+ operator&lt;&lt;()</text>
<text text-anchor="start" x="14" y="-680.5" font-family="Helvetica,sans-Serif" font-size="10.00">+ operator&lt;&lt;()</text>
</a>
</g>
</g>
<!-- Node5&#45;&gt;Node4 -->
<g id="edge4" class="edge">
<title>Node5&#45;&gt;Node4</title>
<path fill="none" stroke="midnightblue" d="M68.5,-663.08C68.5,-654.07 68.5,-645.01 68.5,-636.51"/>
<polygon fill="none" stroke="midnightblue" points="65,-663.18 68.5,-673.18 72,-663.18 65,-663.18"/>
</g>
</g>
</svg>
