<?xml version="1.0" encoding="UTF-8" standalone="no"?>
<!DOCTYPE svg PUBLIC "-//W3C//DTD SVG 1.1//EN"
 "http://www.w3.org/Graphics/SVG/1.1/DTD/svg11.dtd">
<!-- Generated by graphviz version 2.43.0 (0)
 -->
<!-- Title: Libs/Engine/sources/Components/Collider/Collider.cpp Pages: 1 -->
<svg width="1335pt" height="565pt"
 viewBox="0.00 0.00 1335.00 565.00" xmlns="http://www.w3.org/2000/svg" xmlns:xlink="http://www.w3.org/1999/xlink">
<g id="graph0" class="graph" transform="scale(1 1) rotate(0) translate(4 561)">
<title>Libs/Engine/sources/Components/Collider/Collider.cpp</title>
<polygon fill="white" stroke="transparent" points="-4,4 -4,-561 1331,-561 1331,4 -4,4"/>
<!-- Node1 -->
<g id="node1" class="node">
<title>Node1</title>
<g id="a_node1"><a xlink:title=" ">
<polygon fill="#bfbfbf" stroke="black" points="817,-515.5 817,-556.5 939,-556.5 939,-515.5 817,-515.5"/>
<text text-anchor="start" x="825" y="-544.5" font-family="Helvetica,sans-Serif" font-size="10.00">Libs/Engine/sources</text>
<text text-anchor="start" x="825" y="-533.5" font-family="Helvetica,sans-Serif" font-size="10.00">/Components/Collider</text>
<text text-anchor="middle" x="878" y="-522.5" font-family="Helvetica,sans-Serif" font-size="10.00">/Collider.cpp</text>
</a>
</g>
</g>
<!-- Node2 -->
<g id="node2" class="node">
<title>Node2</title>
<g id="a_node2"><a xlink:href="Collider_8hpp.html" target="_top" xlink:title=" ">
<polygon fill="white" stroke="black" points="413,-459.5 413,-478.5 487,-478.5 487,-459.5 413,-459.5"/>
<text text-anchor="middle" x="450" y="-466.5" font-family="Helvetica,sans-Serif" font-size="10.00">Collider.hpp</text>
</a>
</g>
</g>
<!-- Node1&#45;&gt;Node2 -->
<g id="edge1" class="edge">
<title>Node1&#45;&gt;Node2</title>
<path fill="none" stroke="midnightblue" d="M816.68,-525.69C730.41,-512.58 575.05,-488.99 497.19,-477.17"/>
<polygon fill="midnightblue" stroke="midnightblue" points="497.59,-473.69 487.18,-475.65 496.54,-480.61 497.59,-473.69"/>
</g>
<!-- Node7 -->
<g id="node7" class="node">
<title>Node7</title>
<g id="a_node7"><a xlink:title=" ">
<polygon fill="white" stroke="#bfbfbf" points="834,-6 834,-25 894,-25 894,-6 834,-6"/>
<text text-anchor="middle" x="864" y="-13" font-family="Helvetica,sans-Serif" font-size="10.00">iostream</text>
</a>
</g>
</g>
<!-- Node1&#45;&gt;Node7 -->
<g id="edge71" class="edge">
<title>Node1&#45;&gt;Node7</title>
<path fill="none" stroke="midnightblue" d="M939.02,-531.32C1061.79,-522.23 1327,-493.42 1327,-414 1327,-414 1327,-414 1327,-132 1327,-45.22 1016.95,-23.12 904.29,-17.96"/>
<polygon fill="midnightblue" stroke="midnightblue" points="904.17,-14.45 894.02,-17.51 903.86,-21.44 904.17,-14.45"/>
</g>
<!-- Node3 -->
<g id="node3" class="node">
<title>Node3</title>
<g id="a_node3"><a xlink:title=" ">
<polygon fill="white" stroke="#bfbfbf" points="196,-123.5 196,-142.5 258,-142.5 258,-123.5 196,-123.5"/>
<text text-anchor="middle" x="227" y="-130.5" font-family="Helvetica,sans-Serif" font-size="10.00">cinttypes</text>
</a>
</g>
</g>
<!-- Node2&#45;&gt;Node3 -->
<g id="edge2" class="edge">
<title>Node2&#45;&gt;Node3</title>
<path fill="none" stroke="midnightblue" d="M412.79,-466.85C304.98,-462.51 0,-442.75 0,-358 0,-358 0,-358 0,-300 0,-208.93 120.5,-162.45 185.91,-143.92"/>
<polygon fill="midnightblue" stroke="midnightblue" points="187.19,-147.2 195.91,-141.19 185.34,-140.45 187.19,-147.2"/>
</g>
<!-- Node4 -->
<g id="node4" class="node">
<title>Node4</title>
<g id="a_node4"><a xlink:href="IComponent_8hpp.html" target="_top" xlink:title=" ">
<polygon fill="white" stroke="black" points="276.5,-123.5 276.5,-142.5 373.5,-142.5 373.5,-123.5 276.5,-123.5"/>
<text text-anchor="middle" x="325" y="-130.5" font-family="Helvetica,sans-Serif" font-size="10.00">IComponent.hpp</text>
</a>
</g>
</g>
<!-- Node2&#45;&gt;Node4 -->
<g id="edge3" class="edge">
<title>Node2&#45;&gt;Node4</title>
<path fill="none" stroke="midnightblue" d="M447.43,-459.16C443.79,-446.66 436.92,-423.07 431,-403 408.96,-328.28 411.18,-306.82 381,-235 368.11,-204.32 348.4,-170.97 336.13,-151.31"/>
<polygon fill="midnightblue" stroke="midnightblue" points="338.92,-149.17 330.61,-142.59 333,-152.91 338.92,-149.17"/>
</g>
<!-- Node10 -->
<g id="node10" class="node">
<title>Node10</title>
<g id="a_node10"><a xlink:href="Vector3_8hpp.html" target="_top" xlink:title=" ">
<polygon fill="white" stroke="black" points="142,-291.5 142,-310.5 216,-310.5 216,-291.5 142,-291.5"/>
<text text-anchor="middle" x="179" y="-298.5" font-family="Helvetica,sans-Serif" font-size="10.00">Vector3.hpp</text>
</a>
</g>
</g>
<!-- Node2&#45;&gt;Node10 -->
<g id="edge10" class="edge">
<title>Node2&#45;&gt;Node10</title>
<path fill="none" stroke="midnightblue" d="M412.84,-465.87C369.78,-462.09 297.73,-451.67 243,-423 210.69,-406.08 198.56,-399.99 183,-367 176.22,-352.62 175.68,-334.42 176.57,-320.94"/>
<polygon fill="midnightblue" stroke="midnightblue" points="180.06,-321.21 177.55,-310.92 173.1,-320.53 180.06,-321.21"/>
</g>
<!-- Node14 -->
<g id="node14" class="node">
<title>Node14</title>
<g id="a_node14"><a xlink:title=" ">
<polygon fill="white" stroke="#bfbfbf" points="797.5,-123.5 797.5,-142.5 844.5,-142.5 844.5,-123.5 797.5,-123.5"/>
<text text-anchor="middle" x="821" y="-130.5" font-family="Helvetica,sans-Serif" font-size="10.00">vector</text>
</a>
</g>
</g>
<!-- Node2&#45;&gt;Node14 -->
<g id="edge15" class="edge">
<title>Node2&#45;&gt;Node14</title>
<path fill="none" stroke="midnightblue" d="M460.31,-459.44C499.7,-426.65 644.12,-305.5 757,-199 774.17,-182.8 793.04,-163.43 805.82,-150.07"/>
<polygon fill="midnightblue" stroke="midnightblue" points="808.55,-152.27 812.91,-142.61 803.48,-147.45 808.55,-152.27"/>
</g>
<!-- Node15 -->
<g id="node15" class="node">
<title>Node15</title>
<g id="a_node15"><a xlink:title=" ">
<polygon fill="white" stroke="#bfbfbf" points="1176,-123.5 1176,-142.5 1234,-142.5 1234,-123.5 1176,-123.5"/>
<text text-anchor="middle" x="1205" y="-130.5" font-family="Helvetica,sans-Serif" font-size="10.00">memory</text>
</a>
</g>
</g>
<!-- Node2&#45;&gt;Node15 -->
<g id="edge16" class="edge">
<title>Node2&#45;&gt;Node15</title>
<path fill="none" stroke="midnightblue" d="M487.13,-467.1C649.51,-462.68 1289,-440.08 1289,-358 1289,-358 1289,-358 1289,-244 1289,-202.73 1251.19,-167.32 1226.31,-148.49"/>
<polygon fill="midnightblue" stroke="midnightblue" points="1228.27,-145.59 1218.12,-142.54 1224.15,-151.25 1228.27,-145.59"/>
</g>
<!-- Node16 -->
<g id="node16" class="node">
<title>Node16</title>
<g id="a_node16"><a xlink:href="Entity_8hpp.html" target="_top" xlink:title=" ">
<polygon fill="white" stroke="black" points="520.5,-235.5 520.5,-254.5 585.5,-254.5 585.5,-235.5 520.5,-235.5"/>
<text text-anchor="middle" x="553" y="-242.5" font-family="Helvetica,sans-Serif" font-size="10.00">Entity.hpp</text>
</a>
</g>
</g>
<!-- Node2&#45;&gt;Node16 -->
<g id="edge17" class="edge">
<title>Node2&#45;&gt;Node16</title>
<path fill="none" stroke="midnightblue" d="M454.04,-459.3C469.29,-426.42 523.59,-309.39 544.61,-264.09"/>
<polygon fill="midnightblue" stroke="midnightblue" points="547.84,-265.43 548.88,-254.88 541.49,-262.48 547.84,-265.43"/>
</g>
<!-- Node25 -->
<g id="node25" class="node">
<title>Node25</title>
<g id="a_node25"><a xlink:href="Coordinator_8hpp.html" target="_top" xlink:title=" ">
<polygon fill="white" stroke="black" points="994,-403.5 994,-422.5 1088,-422.5 1088,-403.5 994,-403.5"/>
<text text-anchor="middle" x="1041" y="-410.5" font-family="Helvetica,sans-Serif" font-size="10.00">Coordinator.hpp</text>
</a>
</g>
</g>
<!-- Node2&#45;&gt;Node25 -->
<g id="edge39" class="edge">
<title>Node2&#45;&gt;Node25</title>
<path fill="none" stroke="midnightblue" d="M487.42,-464.58C587.76,-455.41 863.37,-430.23 983.62,-419.24"/>
<polygon fill="midnightblue" stroke="midnightblue" points="984.09,-422.71 993.73,-418.32 983.46,-415.74 984.09,-422.71"/>
</g>
<!-- Node29 -->
<g id="node29" class="node">
<title>Node29</title>
<g id="a_node29"><a xlink:href="Transform_8hpp.html" target="_top" xlink:title=" ">
<polygon fill="white" stroke="black" points="39,-347.5 39,-366.5 125,-366.5 125,-347.5 39,-347.5"/>
<text text-anchor="middle" x="82" y="-354.5" font-family="Helvetica,sans-Serif" font-size="10.00">Transform.hpp</text>
</a>
</g>
</g>
<!-- Node2&#45;&gt;Node29 -->
<g id="edge55" class="edge">
<title>Node2&#45;&gt;Node29</title>
<path fill="none" stroke="midnightblue" d="M413,-465.25C343.35,-459.63 195.69,-445.4 150,-423 127.2,-411.82 107.01,-390.24 94.67,-375.02"/>
<polygon fill="midnightblue" stroke="midnightblue" points="97.26,-372.65 88.35,-366.92 91.74,-376.96 97.26,-372.65"/>
</g>
<!-- Node30 -->
<g id="node30" class="node">
<title>Node30</title>
<g id="a_node30"><a xlink:href="Circle_8hpp.html" target="_top" xlink:title=" ">
<polygon fill="white" stroke="black" points="252.5,-403.5 252.5,-422.5 317.5,-422.5 317.5,-403.5 252.5,-403.5"/>
<text text-anchor="middle" x="285" y="-410.5" font-family="Helvetica,sans-Serif" font-size="10.00">Circle.hpp</text>
</a>
</g>
</g>
<!-- Node2&#45;&gt;Node30 -->
<g id="edge59" class="edge">
<title>Node2&#45;&gt;Node30</title>
<path fill="none" stroke="midnightblue" d="M423.86,-459.44C395.98,-450.32 351.65,-435.81 320.6,-425.65"/>
<polygon fill="midnightblue" stroke="midnightblue" points="321.62,-422.3 311.02,-422.52 319.44,-428.95 321.62,-422.3"/>
</g>
<!-- Node32 -->
<g id="node32" class="node">
<title>Node32</title>
<g id="a_node32"><a xlink:href="Rectangle_8hpp.html" target="_top" xlink:title=" ">
<polygon fill="white" stroke="black" points="336,-403.5 336,-422.5 422,-422.5 422,-403.5 336,-403.5"/>
<text text-anchor="middle" x="379" y="-410.5" font-family="Helvetica,sans-Serif" font-size="10.00">Rectangle.hpp</text>
</a>
</g>
</g>
<!-- Node2&#45;&gt;Node32 -->
<g id="edge66" class="edge">
<title>Node2&#45;&gt;Node32</title>
<path fill="none" stroke="midnightblue" d="M438.59,-459.32C427.89,-451.18 411.66,-438.84 398.84,-429.09"/>
<polygon fill="midnightblue" stroke="midnightblue" points="400.69,-426.1 390.61,-422.83 396.46,-431.67 400.69,-426.1"/>
</g>
<!-- Node5 -->
<g id="node5" class="node">
<title>Node5</title>
<g id="a_node5"><a xlink:title=" ">
<polygon fill="white" stroke="#bfbfbf" points="296.5,-6 296.5,-25 353.5,-25 353.5,-6 296.5,-6"/>
<text text-anchor="middle" x="325" y="-13" font-family="Helvetica,sans-Serif" font-size="10.00">ostream</text>
</a>
</g>
</g>
<!-- Node4&#45;&gt;Node5 -->
<g id="edge4" class="edge">
<title>Node4&#45;&gt;Node5</title>
<path fill="none" stroke="midnightblue" d="M325,-123.32C325,-104.76 325,-60.84 325,-35.47"/>
<polygon fill="midnightblue" stroke="midnightblue" points="328.5,-35.28 325,-25.28 321.5,-35.28 328.5,-35.28"/>
</g>
<!-- Node6 -->
<g id="node6" class="node">
<title>Node6</title>
<g id="a_node6"><a xlink:href="IXMLSerializable_8hpp.html" target="_top" xlink:title=" ">
<polygon fill="white" stroke="black" points="162.5,-67.5 162.5,-86.5 281.5,-86.5 281.5,-67.5 162.5,-67.5"/>
<text text-anchor="middle" x="222" y="-74.5" font-family="Helvetica,sans-Serif" font-size="10.00">IXMLSerializable.hpp</text>
</a>
</g>
</g>
<!-- Node4&#45;&gt;Node6 -->
<g id="edge5" class="edge">
<title>Node4&#45;&gt;Node6</title>
<path fill="none" stroke="midnightblue" d="M308.45,-123.32C292.01,-114.7 266.57,-101.36 247.53,-91.39"/>
<polygon fill="midnightblue" stroke="midnightblue" points="248.99,-88.2 238.51,-86.65 245.74,-94.4 248.99,-88.2"/>
</g>
<!-- Node6&#45;&gt;Node5 -->
<g id="edge6" class="edge">
<title>Node6&#45;&gt;Node5</title>
<path fill="none" stroke="midnightblue" d="M236.76,-67.48C253.66,-57.71 281.58,-41.58 301.49,-30.08"/>
<polygon fill="midnightblue" stroke="midnightblue" points="303.36,-33.04 310.27,-25.01 299.86,-26.98 303.36,-33.04"/>
</g>
<!-- Node6&#45;&gt;Node7 -->
<g id="edge7" class="edge">
<title>Node6&#45;&gt;Node7</title>
<path fill="none" stroke="midnightblue" d="M281.53,-70.48C410.74,-58.51 714.05,-30.4 823.62,-20.24"/>
<polygon fill="midnightblue" stroke="midnightblue" points="824.27,-23.7 833.9,-19.29 823.62,-16.73 824.27,-23.7"/>
</g>
<!-- Node8 -->
<g id="node8" class="node">
<title>Node8</title>
<g id="a_node8"><a xlink:title=" ">
<polygon fill="white" stroke="#bfbfbf" points="165.5,-0.5 165.5,-30.5 278.5,-30.5 278.5,-0.5 165.5,-0.5"/>
<text text-anchor="start" x="173.5" y="-18.5" font-family="Helvetica,sans-Serif" font-size="10.00">boost/property_tree</text>
<text text-anchor="middle" x="222" y="-7.5" font-family="Helvetica,sans-Serif" font-size="10.00">/ptree.hpp</text>
</a>
</g>
</g>
<!-- Node6&#45;&gt;Node8 -->
<g id="edge8" class="edge">
<title>Node6&#45;&gt;Node8</title>
<path fill="none" stroke="midnightblue" d="M222,-67.48C222,-60.47 222,-50.19 222,-40.7"/>
<polygon fill="midnightblue" stroke="midnightblue" points="225.5,-40.52 222,-30.52 218.5,-40.52 225.5,-40.52"/>
</g>
<!-- Node9 -->
<g id="node9" class="node">
<title>Node9</title>
<g id="a_node9"><a xlink:title=" ">
<polygon fill="white" stroke="#bfbfbf" points="34.5,-0.5 34.5,-30.5 147.5,-30.5 147.5,-0.5 34.5,-0.5"/>
<text text-anchor="start" x="42.5" y="-18.5" font-family="Helvetica,sans-Serif" font-size="10.00">boost/property_tree</text>
<text text-anchor="middle" x="91" y="-7.5" font-family="Helvetica,sans-Serif" font-size="10.00">/xml_parser.hpp</text>
</a>
</g>
</g>
<!-- Node6&#45;&gt;Node9 -->
<g id="edge9" class="edge">
<title>Node6&#45;&gt;Node9</title>
<path fill="none" stroke="midnightblue" d="M203.23,-67.48C184.49,-58.96 155.11,-45.62 131.11,-34.72"/>
<polygon fill="midnightblue" stroke="midnightblue" points="132.43,-31.47 121.87,-30.52 129.53,-37.85 132.43,-31.47"/>
</g>
<!-- Node10&#45;&gt;Node6 -->
<g id="edge12" class="edge">
<title>Node10&#45;&gt;Node6</title>
<path fill="none" stroke="midnightblue" d="M177.01,-291.43C175.03,-282.42 172.13,-267.8 171,-255 166.74,-206.64 185.46,-126.62 187,-123 191.48,-112.45 199.06,-102.24 206.03,-94.22"/>
<polygon fill="midnightblue" stroke="midnightblue" points="208.72,-96.46 212.91,-86.73 203.57,-91.73 208.72,-96.46"/>
</g>
<!-- Node11 -->
<g id="node11" class="node">
<title>Node11</title>
<g id="a_node11"><a xlink:title=" ">
<polygon fill="white" stroke="#bfbfbf" points="319.5,-235.5 319.5,-254.5 372.5,-254.5 372.5,-235.5 319.5,-235.5"/>
<text text-anchor="middle" x="346" y="-242.5" font-family="Helvetica,sans-Serif" font-size="10.00">raylib.h</text>
</a>
</g>
</g>
<!-- Node10&#45;&gt;Node11 -->
<g id="edge11" class="edge">
<title>Node10&#45;&gt;Node11</title>
<path fill="none" stroke="midnightblue" d="M205.46,-291.44C233.68,-282.32 278.54,-267.81 309.97,-257.65"/>
<polygon fill="midnightblue" stroke="midnightblue" points="311.22,-260.92 319.66,-254.52 309.07,-254.26 311.22,-260.92"/>
</g>
<!-- Node12 -->
<g id="node12" class="node">
<title>Node12</title>
<g id="a_node12"><a xlink:title=" ">
<polygon fill="white" stroke="#bfbfbf" points="254.5,-235.5 254.5,-254.5 301.5,-254.5 301.5,-235.5 254.5,-235.5"/>
<text text-anchor="middle" x="278" y="-242.5" font-family="Helvetica,sans-Serif" font-size="10.00">cmath</text>
</a>
</g>
</g>
<!-- Node10&#45;&gt;Node12 -->
<g id="edge13" class="edge">
<title>Node10&#45;&gt;Node12</title>
<path fill="none" stroke="midnightblue" d="M194.91,-291.32C210.64,-282.74 234.94,-269.49 253.21,-259.52"/>
<polygon fill="midnightblue" stroke="midnightblue" points="255.03,-262.52 262.13,-254.65 251.68,-256.37 255.03,-262.52"/>
</g>
<!-- Node13 -->
<g id="node13" class="node">
<title>Node13</title>
<g id="a_node13"><a xlink:title=" ">
<polygon fill="white" stroke="#bfbfbf" points="180,-235.5 180,-254.5 236,-254.5 236,-235.5 180,-235.5"/>
<text text-anchor="middle" x="208" y="-242.5" font-family="Helvetica,sans-Serif" font-size="10.00">sstream</text>
</a>
</g>
</g>
<!-- Node10&#45;&gt;Node13 -->
<g id="edge14" class="edge">
<title>Node10&#45;&gt;Node13</title>
<path fill="none" stroke="midnightblue" d="M183.79,-291.08C187.76,-283.69 193.53,-272.95 198.43,-263.81"/>
<polygon fill="midnightblue" stroke="midnightblue" points="201.65,-265.22 203.3,-254.75 195.49,-261.91 201.65,-265.22"/>
</g>
<!-- Node16&#45;&gt;Node3 -->
<g id="edge18" class="edge">
<title>Node16&#45;&gt;Node3</title>
<path fill="none" stroke="midnightblue" d="M526.24,-235.43C498.4,-226.48 453.58,-211.96 415,-199 360.91,-180.83 298.32,-159.04 260.74,-145.87"/>
<polygon fill="midnightblue" stroke="midnightblue" points="261.88,-142.56 251.29,-142.55 259.57,-149.16 261.88,-142.56"/>
</g>
<!-- Node16&#45;&gt;Node4 -->
<g id="edge38" class="edge">
<title>Node16&#45;&gt;Node4</title>
<path fill="none" stroke="midnightblue" d="M535.11,-235.37C495.32,-216.17 399.29,-169.84 352.1,-147.07"/>
<polygon fill="midnightblue" stroke="midnightblue" points="353.34,-143.78 342.81,-142.59 350.29,-150.09 353.34,-143.78"/>
</g>
<!-- Node16&#45;&gt;Node14 -->
<g id="edge22" class="edge">
<title>Node16&#45;&gt;Node14</title>
<path fill="none" stroke="midnightblue" d="M585.7,-238.97C621.35,-232.7 679.54,-220.15 726,-199 754.92,-185.83 784.56,-163.95 802.87,-149.26"/>
<polygon fill="midnightblue" stroke="midnightblue" points="805.37,-151.73 810.9,-142.69 800.94,-146.31 805.37,-151.73"/>
</g>
<!-- Node16&#45;&gt;Node15 -->
<g id="edge20" class="edge">
<title>Node16&#45;&gt;Node15</title>
<path fill="none" stroke="midnightblue" d="M585.63,-243.12C660.39,-240.6 849.57,-231.29 1004,-199 1065.62,-186.12 1134.98,-161.28 1173.99,-146.32"/>
<polygon fill="midnightblue" stroke="midnightblue" points="1175.64,-149.44 1183.7,-142.56 1173.11,-142.91 1175.64,-149.44"/>
</g>
<!-- Node17 -->
<g id="node17" class="node">
<title>Node17</title>
<g id="a_node17"><a xlink:title=" ">
<polygon fill="white" stroke="#bfbfbf" points="400.5,-123.5 400.5,-142.5 493.5,-142.5 493.5,-123.5 400.5,-123.5"/>
<text text-anchor="middle" x="447" y="-130.5" font-family="Helvetica,sans-Serif" font-size="10.00">unordered_map</text>
</a>
</g>
</g>
<!-- Node16&#45;&gt;Node17 -->
<g id="edge19" class="edge">
<title>Node16&#45;&gt;Node17</title>
<path fill="none" stroke="midnightblue" d="M544.68,-235.37C526.96,-216.97 485.23,-173.67 462.47,-150.05"/>
<polygon fill="midnightblue" stroke="midnightblue" points="464.74,-147.36 455.28,-142.59 459.7,-152.22 464.74,-147.36"/>
</g>
<!-- Node18 -->
<g id="node18" class="node">
<title>Node18</title>
<g id="a_node18"><a xlink:title=" ">
<polygon fill="white" stroke="#bfbfbf" points="512,-123.5 512,-142.5 576,-142.5 576,-123.5 512,-123.5"/>
<text text-anchor="middle" x="544" y="-130.5" font-family="Helvetica,sans-Serif" font-size="10.00">algorithm</text>
</a>
</g>
</g>
<!-- Node16&#45;&gt;Node18 -->
<g id="edge21" class="edge">
<title>Node16&#45;&gt;Node18</title>
<path fill="none" stroke="midnightblue" d="M549.4,-235.22C545.94,-226.28 540.97,-211.94 539,-199 536.66,-183.6 538.28,-165.96 540.28,-152.95"/>
<polygon fill="midnightblue" stroke="midnightblue" points="543.77,-153.33 542.05,-142.88 536.87,-152.12 543.77,-153.33"/>
</g>
<!-- Node19 -->
<g id="node19" class="node">
<title>Node19</title>
<g id="a_node19"><a xlink:title=" ">
<polygon fill="white" stroke="#bfbfbf" points="603.5,-123.5 603.5,-142.5 694.5,-142.5 694.5,-123.5 603.5,-123.5"/>
<text text-anchor="middle" x="649" y="-130.5" font-family="Helvetica,sans-Serif" font-size="10.00">Exceptions.hpp</text>
</a>
</g>
</g>
<!-- Node16&#45;&gt;Node19 -->
<g id="edge23" class="edge">
<title>Node16&#45;&gt;Node19</title>
<path fill="none" stroke="midnightblue" d="M553.54,-235.07C554.78,-221.6 558.83,-195.86 572,-179 583.21,-164.65 600.37,-153.99 615.64,-146.66"/>
<polygon fill="midnightblue" stroke="midnightblue" points="617.16,-149.81 624.84,-142.52 614.29,-143.43 617.16,-149.81"/>
</g>
<!-- Node20 -->
<g id="node20" class="node">
<title>Node20</title>
<g id="a_node20"><a xlink:href="ComponentManager_8hpp.html" target="_top" xlink:title=" ">
<polygon fill="white" stroke="black" points="581,-179.5 581,-198.5 717,-198.5 717,-179.5 581,-179.5"/>
<text text-anchor="middle" x="649" y="-186.5" font-family="Helvetica,sans-Serif" font-size="10.00">ComponentManager.hpp</text>
</a>
</g>
</g>
<!-- Node16&#45;&gt;Node20 -->
<g id="edge24" class="edge">
<title>Node16&#45;&gt;Node20</title>
<path fill="none" stroke="midnightblue" d="M568.42,-235.32C583.54,-226.82 606.82,-213.73 624.47,-203.8"/>
<polygon fill="midnightblue" stroke="midnightblue" points="626.61,-206.61 633.61,-198.65 623.18,-200.51 626.61,-206.61"/>
</g>
<!-- Node23 -->
<g id="node23" class="node">
<title>Node23</title>
<g id="a_node23"><a xlink:href="EntityManager_8hpp.html" target="_top" xlink:title=" ">
<polygon fill="white" stroke="black" points="887,-179.5 887,-198.5 995,-198.5 995,-179.5 887,-179.5"/>
<text text-anchor="middle" x="941" y="-186.5" font-family="Helvetica,sans-Serif" font-size="10.00">EntityManager.hpp</text>
</a>
</g>
</g>
<!-- Node16&#45;&gt;Node23 -->
<g id="edge33" class="edge">
<title>Node16&#45;&gt;Node23</title>
<path fill="none" stroke="midnightblue" d="M585.75,-239.44C649.85,-230.52 792.93,-210.61 876.64,-198.96"/>
<polygon fill="midnightblue" stroke="midnightblue" points="877.37,-202.39 886.79,-197.54 876.4,-195.46 877.37,-202.39"/>
</g>
<!-- Node20&#45;&gt;Node4 -->
<g id="edge31" class="edge">
<title>Node20&#45;&gt;Node4</title>
<path fill="none" stroke="midnightblue" d="M597.66,-179.44C539.43,-169.74 444.66,-153.94 383.59,-143.76"/>
<polygon fill="midnightblue" stroke="midnightblue" points="384.15,-140.31 373.71,-142.12 383,-147.22 384.15,-140.31"/>
</g>
<!-- Node20&#45;&gt;Node14 -->
<g id="edge27" class="edge">
<title>Node20&#45;&gt;Node14</title>
<path fill="none" stroke="midnightblue" d="M676.25,-179.44C706.43,-169.97 755.08,-154.7 787.54,-144.5"/>
<polygon fill="midnightblue" stroke="midnightblue" points="788.97,-147.72 797.47,-141.39 786.88,-141.04 788.97,-147.72"/>
</g>
<!-- Node20&#45;&gt;Node15 -->
<g id="edge28" class="edge">
<title>Node20&#45;&gt;Node15</title>
<path fill="none" stroke="midnightblue" d="M717.38,-183.52C814.16,-176.8 996.51,-162.77 1151,-143 1155.81,-142.38 1160.86,-141.66 1165.84,-140.88"/>
<polygon fill="midnightblue" stroke="midnightblue" points="1166.6,-144.31 1175.91,-139.26 1165.48,-137.4 1166.6,-144.31"/>
</g>
<!-- Node20&#45;&gt;Node17 -->
<g id="edge25" class="edge">
<title>Node20&#45;&gt;Node17</title>
<path fill="none" stroke="midnightblue" d="M616.99,-179.44C582.27,-170.16 526.71,-155.31 488.62,-145.13"/>
<polygon fill="midnightblue" stroke="midnightblue" points="489.42,-141.72 478.86,-142.52 487.61,-148.48 489.42,-141.72"/>
</g>
<!-- Node20&#45;&gt;Node18 -->
<g id="edge29" class="edge">
<title>Node20&#45;&gt;Node18</title>
<path fill="none" stroke="midnightblue" d="M632.13,-179.32C615.29,-170.66 589.19,-157.24 569.76,-147.25"/>
<polygon fill="midnightblue" stroke="midnightblue" points="571.32,-144.12 560.83,-142.65 568.12,-150.34 571.32,-144.12"/>
</g>
<!-- Node20&#45;&gt;Node19 -->
<g id="edge30" class="edge">
<title>Node20&#45;&gt;Node19</title>
<path fill="none" stroke="midnightblue" d="M649,-179.08C649,-172.01 649,-161.86 649,-152.99"/>
<polygon fill="midnightblue" stroke="midnightblue" points="652.5,-152.75 649,-142.75 645.5,-152.75 652.5,-152.75"/>
</g>
<!-- Node21 -->
<g id="node21" class="node">
<title>Node21</title>
<g id="a_node21"><a xlink:title=" ">
<polygon fill="white" stroke="#bfbfbf" points="1010,-123.5 1010,-142.5 1054,-142.5 1054,-123.5 1010,-123.5"/>
<text text-anchor="middle" x="1032" y="-130.5" font-family="Helvetica,sans-Serif" font-size="10.00">string</text>
</a>
</g>
</g>
<!-- Node20&#45;&gt;Node21 -->
<g id="edge26" class="edge">
<title>Node20&#45;&gt;Node21</title>
<path fill="none" stroke="midnightblue" d="M709.69,-179.44C791.84,-167.86 935.51,-147.6 999.57,-138.57"/>
<polygon fill="midnightblue" stroke="midnightblue" points="1000.45,-141.98 1009.86,-137.12 999.47,-135.05 1000.45,-141.98"/>
</g>
<!-- Node22 -->
<g id="node22" class="node">
<title>Node22</title>
<g id="a_node22"><a xlink:title=" ">
<polygon fill="white" stroke="#bfbfbf" points="1104,-123.5 1104,-142.5 1142,-142.5 1142,-123.5 1104,-123.5"/>
<text text-anchor="middle" x="1123" y="-130.5" font-family="Helvetica,sans-Serif" font-size="10.00">map</text>
</a>
</g>
</g>
<!-- Node20&#45;&gt;Node22 -->
<g id="edge32" class="edge">
<title>Node20&#45;&gt;Node22</title>
<path fill="none" stroke="midnightblue" d="M717.23,-181.44C799.38,-173.35 941.47,-158.71 1063,-143 1073.05,-141.7 1084.02,-140.11 1093.8,-138.62"/>
<polygon fill="midnightblue" stroke="midnightblue" points="1094.49,-142.06 1103.84,-137.08 1093.43,-135.14 1094.49,-142.06"/>
</g>
<!-- Node23&#45;&gt;Node3 -->
<g id="edge35" class="edge">
<title>Node23&#45;&gt;Node3</title>
<path fill="none" stroke="midnightblue" d="M886.84,-185.47C752.31,-179.01 404.59,-161.24 268.55,-142.97"/>
<polygon fill="midnightblue" stroke="midnightblue" points="268.75,-139.46 258.36,-141.54 267.77,-146.39 268.75,-139.46"/>
</g>
<!-- Node23&#45;&gt;Node14 -->
<g id="edge34" class="edge">
<title>Node23&#45;&gt;Node14</title>
<path fill="none" stroke="midnightblue" d="M921.99,-179.44C902.41,-170.64 871.69,-156.81 849.27,-146.72"/>
<polygon fill="midnightblue" stroke="midnightblue" points="850.48,-143.43 839.93,-142.52 847.61,-149.81 850.48,-143.43"/>
</g>
<!-- Node23&#45;&gt;Node15 -->
<g id="edge36" class="edge">
<title>Node23&#45;&gt;Node15</title>
<path fill="none" stroke="midnightblue" d="M982.83,-179.44C1033.05,-169.17 1116.64,-152.07 1165.7,-142.04"/>
<polygon fill="midnightblue" stroke="midnightblue" points="1166.53,-145.44 1175.63,-140.01 1165.13,-138.58 1166.53,-145.44"/>
</g>
<!-- Node24 -->
<g id="node24" class="node">
<title>Node24</title>
<g id="a_node24"><a xlink:title=" ">
<polygon fill="white" stroke="#bfbfbf" points="925,-123.5 925,-142.5 957,-142.5 957,-123.5 925,-123.5"/>
<text text-anchor="middle" x="941" y="-130.5" font-family="Helvetica,sans-Serif" font-size="10.00">list</text>
</a>
</g>
</g>
<!-- Node23&#45;&gt;Node24 -->
<g id="edge37" class="edge">
<title>Node23&#45;&gt;Node24</title>
<path fill="none" stroke="midnightblue" d="M941,-179.08C941,-172.01 941,-161.86 941,-152.99"/>
<polygon fill="midnightblue" stroke="midnightblue" points="944.5,-152.75 941,-142.75 937.5,-152.75 944.5,-152.75"/>
</g>
<!-- Node25&#45;&gt;Node15 -->
<g id="edge41" class="edge">
<title>Node25&#45;&gt;Node15</title>
<path fill="none" stroke="midnightblue" d="M1088.13,-407.92C1150.04,-399.68 1251,-375.05 1251,-302 1251,-302 1251,-302 1251,-244 1251,-208.82 1230.72,-171.86 1217.09,-151"/>
<polygon fill="midnightblue" stroke="midnightblue" points="1219.91,-148.92 1211.4,-142.61 1214.12,-152.85 1219.91,-148.92"/>
</g>
<!-- Node25&#45;&gt;Node21 -->
<g id="edge42" class="edge">
<title>Node25&#45;&gt;Node21</title>
<path fill="none" stroke="midnightblue" d="M1056.85,-403.44C1084.12,-387.43 1137,-350.16 1137,-302 1137,-302 1137,-302 1137,-244 1137,-199.02 1090.49,-165.19 1059.38,-147.59"/>
<polygon fill="midnightblue" stroke="midnightblue" points="1060.75,-144.35 1050.29,-142.65 1057.41,-150.5 1060.75,-144.35"/>
</g>
<!-- Node25&#45;&gt;Node22 -->
<g id="edge43" class="edge">
<title>Node25&#45;&gt;Node22</title>
<path fill="none" stroke="midnightblue" d="M1068.12,-403.47C1107.27,-389.27 1175,-356.78 1175,-302 1175,-302 1175,-302 1175,-244 1175,-208.12 1152.11,-171.42 1136.7,-150.79"/>
<polygon fill="midnightblue" stroke="midnightblue" points="1139.35,-148.5 1130.45,-142.74 1133.82,-152.79 1139.35,-148.5"/>
</g>
<!-- Node25&#45;&gt;Node23 -->
<g id="edge54" class="edge">
<title>Node25&#45;&gt;Node23</title>
<path fill="none" stroke="midnightblue" d="M1033.14,-403.23C1025.65,-394.53 1014.44,-380.56 1007,-367 977.09,-312.5 955.28,-241.66 945.98,-208.56"/>
<polygon fill="midnightblue" stroke="midnightblue" points="949.34,-207.57 943.31,-198.86 942.59,-209.43 949.34,-207.57"/>
</g>
<!-- Node26 -->
<g id="node26" class="node">
<title>Node26</title>
<g id="a_node26"><a xlink:title=" ">
<polygon fill="white" stroke="#bfbfbf" points="1016,-347.5 1016,-366.5 1066,-366.5 1066,-347.5 1016,-347.5"/>
<text text-anchor="middle" x="1041" y="-354.5" font-family="Helvetica,sans-Serif" font-size="10.00">chrono</text>
</a>
</g>
</g>
<!-- Node25&#45;&gt;Node26 -->
<g id="edge40" class="edge">
<title>Node25&#45;&gt;Node26</title>
<path fill="none" stroke="midnightblue" d="M1041,-403.08C1041,-396.01 1041,-385.86 1041,-376.99"/>
<polygon fill="midnightblue" stroke="midnightblue" points="1044.5,-376.75 1041,-366.75 1037.5,-376.75 1044.5,-376.75"/>
</g>
<!-- Node27 -->
<g id="node27" class="node">
<title>Node27</title>
<g id="a_node27"><a xlink:href="SystemManager_8hpp.html" target="_top" xlink:title=" ">
<polygon fill="white" stroke="black" points="801,-347.5 801,-366.5 917,-366.5 917,-347.5 801,-347.5"/>
<text text-anchor="middle" x="859" y="-354.5" font-family="Helvetica,sans-Serif" font-size="10.00">SystemManager.hpp</text>
</a>
</g>
</g>
<!-- Node25&#45;&gt;Node27 -->
<g id="edge44" class="edge">
<title>Node25&#45;&gt;Node27</title>
<path fill="none" stroke="midnightblue" d="M1012.16,-403.44C981.14,-394.24 931.67,-379.56 897.38,-369.39"/>
<polygon fill="midnightblue" stroke="midnightblue" points="898.29,-366.01 887.7,-366.52 896.29,-372.72 898.29,-366.01"/>
</g>
<!-- Node27&#45;&gt;Node15 -->
<g id="edge45" class="edge">
<title>Node27&#45;&gt;Node15</title>
<path fill="none" stroke="midnightblue" d="M879.07,-347.41C898.24,-338.95 927.71,-325.25 952,-311 1043.32,-257.43 1144.33,-181.16 1185.71,-149.11"/>
<polygon fill="midnightblue" stroke="midnightblue" points="1188.09,-151.69 1193.83,-142.79 1183.79,-146.17 1188.09,-151.69"/>
</g>
<!-- Node27&#45;&gt;Node17 -->
<g id="edge48" class="edge">
<title>Node27&#45;&gt;Node17</title>
<path fill="none" stroke="midnightblue" d="M800.76,-356C739.93,-353.98 642.96,-345 567,-311 531.27,-295 522.5,-286.31 499,-255 474.73,-222.66 459.18,-177.27 451.88,-152.28"/>
<polygon fill="midnightblue" stroke="midnightblue" points="455.25,-151.32 449.18,-142.64 448.51,-153.21 455.25,-151.32"/>
</g>
<!-- Node27&#45;&gt;Node18 -->
<g id="edge46" class="edge">
<title>Node27&#45;&gt;Node18</title>
<path fill="none" stroke="midnightblue" d="M800.88,-347.62C711.22,-333.38 545.85,-301.4 511,-255 487.24,-223.37 513.83,-175.69 531.27,-150.67"/>
<polygon fill="midnightblue" stroke="midnightblue" points="534.12,-152.7 537.17,-142.55 528.46,-148.58 534.12,-152.7"/>
</g>
<!-- Node27&#45;&gt;Node19 -->
<g id="edge53" class="edge">
<title>Node27&#45;&gt;Node19</title>
<path fill="none" stroke="midnightblue" d="M848.11,-347.42C837.64,-338.85 821.72,-324.99 810,-311 765.34,-257.69 776.09,-227.23 726,-179 712.24,-165.75 693.85,-154.82 678.5,-147.05"/>
<polygon fill="midnightblue" stroke="midnightblue" points="679.92,-143.85 669.4,-142.63 676.87,-150.14 679.92,-143.85"/>
</g>
<!-- Node27&#45;&gt;Node21 -->
<g id="edge47" class="edge">
<title>Node27&#45;&gt;Node21</title>
<path fill="none" stroke="midnightblue" d="M873.75,-347.26C907.31,-326.48 989.15,-270.43 1024,-199 1031.01,-184.63 1032.73,-166.43 1032.86,-152.95"/>
<polygon fill="midnightblue" stroke="midnightblue" points="1036.36,-152.85 1032.68,-142.92 1029.36,-152.98 1036.36,-152.85"/>
</g>
<!-- Node28 -->
<g id="node28" class="node">
<title>Node28</title>
<g id="a_node28"><a xlink:href="ASystem_8hpp.html" target="_top" xlink:title=" ">
<polygon fill="white" stroke="black" points="818.5,-291.5 818.5,-310.5 899.5,-310.5 899.5,-291.5 818.5,-291.5"/>
<text text-anchor="middle" x="859" y="-298.5" font-family="Helvetica,sans-Serif" font-size="10.00">ASystem.hpp</text>
</a>
</g>
</g>
<!-- Node27&#45;&gt;Node28 -->
<g id="edge49" class="edge">
<title>Node27&#45;&gt;Node28</title>
<path fill="none" stroke="midnightblue" d="M859,-347.08C859,-340.01 859,-329.86 859,-320.99"/>
<polygon fill="midnightblue" stroke="midnightblue" points="862.5,-320.75 859,-310.75 855.5,-320.75 862.5,-320.75"/>
</g>
<!-- Node28&#45;&gt;Node14 -->
<g id="edge51" class="edge">
<title>Node28&#45;&gt;Node14</title>
<path fill="none" stroke="midnightblue" d="M857.62,-291.42C854.35,-271.52 845.6,-220.72 835,-179 832.73,-170.07 829.75,-160.28 827.12,-152.13"/>
<polygon fill="midnightblue" stroke="midnightblue" points="830.42,-150.95 823.96,-142.55 823.77,-153.14 830.42,-150.95"/>
</g>
<!-- Node28&#45;&gt;Node16 -->
<g id="edge52" class="edge">
<title>Node28&#45;&gt;Node16</title>
<path fill="none" stroke="midnightblue" d="M818.37,-292.83C760.55,-282.63 655.01,-264 595.95,-253.58"/>
<polygon fill="midnightblue" stroke="midnightblue" points="596.29,-250.09 585.83,-251.79 595.07,-256.98 596.29,-250.09"/>
</g>
<!-- Node28&#45;&gt;Node21 -->
<g id="edge50" class="edge">
<title>Node28&#45;&gt;Node21</title>
<path fill="none" stroke="midnightblue" d="M877.5,-291.39C907.72,-276.49 967.92,-243.21 1004,-199 1015.16,-185.33 1022.61,-166.54 1027,-152.68"/>
<polygon fill="midnightblue" stroke="midnightblue" points="1030.44,-153.39 1029.88,-142.81 1023.72,-151.43 1030.44,-153.39"/>
</g>
<!-- Node29&#45;&gt;Node3 -->
<g id="edge56" class="edge">
<title>Node29&#45;&gt;Node3</title>
<path fill="none" stroke="midnightblue" d="M75.84,-347.17C67.91,-334.67 55.83,-311.09 62,-291 70.83,-262.25 79.55,-257.06 100,-235 132.72,-199.7 178.34,-166.53 205.06,-148.37"/>
<polygon fill="midnightblue" stroke="midnightblue" points="207.31,-151.07 213.67,-142.6 203.42,-145.26 207.31,-151.07"/>
</g>
<!-- Node29&#45;&gt;Node4 -->
<g id="edge57" class="edge">
<title>Node29&#45;&gt;Node4</title>
<path fill="none" stroke="midnightblue" d="M86.92,-347.27C99.13,-326.16 132.58,-271.41 171,-235 210.92,-197.17 266.73,-164.57 299.04,-147.26"/>
<polygon fill="midnightblue" stroke="midnightblue" points="300.68,-150.36 307.89,-142.59 297.41,-144.17 300.68,-150.36"/>
</g>
<!-- Node29&#45;&gt;Node10 -->
<g id="edge58" class="edge">
<title>Node29&#45;&gt;Node10</title>
<path fill="none" stroke="midnightblue" d="M97.58,-347.32C113,-338.74 136.81,-325.49 154.71,-315.52"/>
<polygon fill="midnightblue" stroke="midnightblue" points="156.42,-318.58 163.45,-310.65 153.01,-312.46 156.42,-318.58"/>
</g>
<!-- Node30&#45;&gt;Node11 -->
<g id="edge60" class="edge">
<title>Node30&#45;&gt;Node11</title>
<path fill="none" stroke="midnightblue" d="M288.28,-403.08C297.92,-376.83 326.32,-299.55 339.34,-264.12"/>
<polygon fill="midnightblue" stroke="midnightblue" points="342.69,-265.16 342.85,-254.57 336.12,-262.75 342.69,-265.16"/>
</g>
<!-- Node31 -->
<g id="node31" class="node">
<title>Node31</title>
<g id="a_node31"><a xlink:href="Vector2_8hpp.html" target="_top" xlink:title=" ">
<polygon fill="white" stroke="black" points="192,-347.5 192,-366.5 266,-366.5 266,-347.5 192,-347.5"/>
<text text-anchor="middle" x="229" y="-354.5" font-family="Helvetica,sans-Serif" font-size="10.00">Vector2.hpp</text>
</a>
</g>
</g>
<!-- Node30&#45;&gt;Node31 -->
<g id="edge61" class="edge">
<title>Node30&#45;&gt;Node31</title>
<path fill="none" stroke="midnightblue" d="M276,-403.32C267.81,-395.42 255.49,-383.55 245.53,-373.94"/>
<polygon fill="midnightblue" stroke="midnightblue" points="247.79,-371.26 238.16,-366.83 242.93,-376.29 247.79,-371.26"/>
</g>
<!-- Node31&#45;&gt;Node6 -->
<g id="edge65" class="edge">
<title>Node31&#45;&gt;Node6</title>
<path fill="none" stroke="midnightblue" d="M191.94,-348.85C170.77,-342.66 145.94,-331.35 133,-311 105.97,-268.47 7.24,-426.51 179,-123 185.29,-111.88 194.94,-101.44 203.51,-93.41"/>
<polygon fill="midnightblue" stroke="midnightblue" points="206.11,-95.79 211.24,-86.52 201.45,-90.56 206.11,-95.79"/>
</g>
<!-- Node31&#45;&gt;Node10 -->
<g id="edge64" class="edge">
<title>Node31&#45;&gt;Node10</title>
<path fill="none" stroke="midnightblue" d="M220.74,-347.08C213.54,-339.3 202.89,-327.8 194.15,-318.37"/>
<polygon fill="midnightblue" stroke="midnightblue" points="196.47,-315.71 187.1,-310.75 191.33,-320.47 196.47,-315.71"/>
</g>
<!-- Node31&#45;&gt;Node11 -->
<g id="edge62" class="edge">
<title>Node31&#45;&gt;Node11</title>
<path fill="none" stroke="midnightblue" d="M238.18,-347.37C257.83,-328.89 304.21,-285.29 329.25,-261.74"/>
<polygon fill="midnightblue" stroke="midnightblue" points="331.97,-263.99 336.86,-254.59 327.18,-258.89 331.97,-263.99"/>
</g>
<!-- Node31&#45;&gt;Node12 -->
<g id="edge63" class="edge">
<title>Node31&#45;&gt;Node12</title>
<path fill="none" stroke="midnightblue" d="M232.84,-347.37C240.82,-329.46 259.33,-287.92 270,-263.95"/>
<polygon fill="midnightblue" stroke="midnightblue" points="273.3,-265.15 274.17,-254.59 266.91,-262.3 273.3,-265.15"/>
</g>
<!-- Node32&#45;&gt;Node11 -->
<g id="edge67" class="edge">
<title>Node32&#45;&gt;Node11</title>
<path fill="none" stroke="midnightblue" d="M383.34,-403.16C388.94,-390.65 397.44,-367.06 393,-347 386.1,-315.82 368.55,-282.85 356.96,-263.36"/>
<polygon fill="midnightblue" stroke="midnightblue" points="359.87,-261.42 351.67,-254.72 353.9,-265.08 359.87,-261.42"/>
</g>
<!-- Node33 -->
<g id="node33" class="node">
<title>Node33</title>
<g id="a_node33"><a xlink:href="Color_8hpp.html" target="_top" xlink:title=" ">
<polygon fill="white" stroke="black" points="322,-347.5 322,-366.5 384,-366.5 384,-347.5 322,-347.5"/>
<text text-anchor="middle" x="353" y="-354.5" font-family="Helvetica,sans-Serif" font-size="10.00">Color.hpp</text>
</a>
</g>
</g>
<!-- Node32&#45;&gt;Node33 -->
<g id="edge68" class="edge">
<title>Node32&#45;&gt;Node33</title>
<path fill="none" stroke="midnightblue" d="M374.71,-403.08C371.15,-395.69 365.98,-384.95 361.58,-375.81"/>
<polygon fill="midnightblue" stroke="midnightblue" points="364.71,-374.24 357.21,-366.75 358.4,-377.28 364.71,-374.24"/>
</g>
<!-- Node33&#45;&gt;Node10 -->
<g id="edge70" class="edge">
<title>Node33&#45;&gt;Node10</title>
<path fill="none" stroke="midnightblue" d="M325.43,-347.44C295.9,-338.28 248.88,-323.69 216.12,-313.52"/>
<polygon fill="midnightblue" stroke="midnightblue" points="217.03,-310.14 206.44,-310.52 214.96,-316.82 217.03,-310.14"/>
</g>
<!-- Node33&#45;&gt;Node11 -->
<g id="edge69" class="edge">
<title>Node33&#45;&gt;Node11</title>
<path fill="none" stroke="midnightblue" d="M352.45,-347.37C351.32,-329.62 348.72,-288.67 347.18,-264.6"/>
<polygon fill="midnightblue" stroke="midnightblue" points="350.67,-264.35 346.55,-254.59 343.69,-264.79 350.67,-264.35"/>
</g>
</g>
</svg>
