<?xml version="1.0" encoding="UTF-8" standalone="no"?>
<!DOCTYPE svg PUBLIC "-//W3C//DTD SVG 1.1//EN"
 "http://www.w3.org/Graphics/SVG/1.1/DTD/svg11.dtd">
<!-- Generated by graphviz version 2.43.0 (0)
 -->
<!-- Title: Libs/Engine/sources/Systems/CollisionSystem/CollisionSystem.hpp Pages: 1 -->
<svg width="1511pt" height="565pt"
 viewBox="0.00 0.00 1511.00 565.00" xmlns="http://www.w3.org/2000/svg" xmlns:xlink="http://www.w3.org/1999/xlink">
<g id="graph0" class="graph" transform="scale(1 1) rotate(0) translate(4 561)">
<title>Libs/Engine/sources/Systems/CollisionSystem/CollisionSystem.hpp</title>
<polygon fill="white" stroke="transparent" points="-4,4 -4,-561 1507,-561 1507,4 -4,4"/>
<!-- Node1 -->
<g id="node1" class="node">
<title>Node1</title>
<g id="a_node1"><a xlink:title=" ">
<polygon fill="#bfbfbf" stroke="black" points="679.5,-515.5 679.5,-556.5 822.5,-556.5 822.5,-515.5 679.5,-515.5"/>
<text text-anchor="start" x="687.5" y="-544.5" font-family="Helvetica,sans-Serif" font-size="10.00">Libs/Engine/sources</text>
<text text-anchor="start" x="687.5" y="-533.5" font-family="Helvetica,sans-Serif" font-size="10.00">/Systems/CollisionSystem</text>
<text text-anchor="middle" x="751" y="-522.5" font-family="Helvetica,sans-Serif" font-size="10.00">/CollisionSystem.hpp</text>
</a>
</g>
</g>
<!-- Node2 -->
<g id="node2" class="node">
<title>Node2</title>
<g id="a_node2"><a xlink:href="ASystem_8hpp.html" target="_top" xlink:title=" ">
<polygon fill="white" stroke="black" points="779.5,-291.5 779.5,-310.5 860.5,-310.5 860.5,-291.5 779.5,-291.5"/>
<text text-anchor="middle" x="820" y="-298.5" font-family="Helvetica,sans-Serif" font-size="10.00">ASystem.hpp</text>
</a>
</g>
</g>
<!-- Node1&#45;&gt;Node2 -->
<g id="edge1" class="edge">
<title>Node1&#45;&gt;Node2</title>
<path fill="none" stroke="midnightblue" d="M756.88,-515.13C770.07,-470.59 801.86,-363.27 814.59,-320.27"/>
<polygon fill="midnightblue" stroke="midnightblue" points="817.97,-321.17 817.46,-310.59 811.26,-319.18 817.97,-321.17"/>
</g>
<!-- Node4 -->
<g id="node4" class="node">
<title>Node4</title>
<g id="a_node4"><a xlink:title=" ">
<polygon fill="white" stroke="#bfbfbf" points="648.5,-123.5 648.5,-142.5 695.5,-142.5 695.5,-123.5 648.5,-123.5"/>
<text text-anchor="middle" x="672" y="-130.5" font-family="Helvetica,sans-Serif" font-size="10.00">vector</text>
</a>
</g>
</g>
<!-- Node1&#45;&gt;Node4 -->
<g id="edge74" class="edge">
<title>Node1&#45;&gt;Node4</title>
<path fill="none" stroke="midnightblue" d="M745.88,-515.46C732.59,-464.04 696.74,-320.53 678,-199 675.62,-183.58 674.07,-165.95 673.14,-152.94"/>
<polygon fill="midnightblue" stroke="midnightblue" points="676.62,-152.62 672.48,-142.87 669.64,-153.08 676.62,-152.62"/>
</g>
<!-- Node5 -->
<g id="node5" class="node">
<title>Node5</title>
<g id="a_node5"><a xlink:href="Entity_8hpp.html" target="_top" xlink:title=" ">
<polygon fill="white" stroke="black" points="764.5,-235.5 764.5,-254.5 829.5,-254.5 829.5,-235.5 764.5,-235.5"/>
<text text-anchor="middle" x="797" y="-242.5" font-family="Helvetica,sans-Serif" font-size="10.00">Entity.hpp</text>
</a>
</g>
</g>
<!-- Node1&#45;&gt;Node5 -->
<g id="edge32" class="edge">
<title>Node1&#45;&gt;Node5</title>
<path fill="none" stroke="midnightblue" d="M751,-515.3C751,-491.35 751,-449.71 751,-414 751,-414 751,-414 751,-356 751,-320.82 771.28,-283.86 784.91,-263"/>
<polygon fill="midnightblue" stroke="midnightblue" points="787.88,-264.85 790.6,-254.61 782.09,-260.92 787.88,-264.85"/>
</g>
<!-- Node21 -->
<g id="node21" class="node">
<title>Node21</title>
<g id="a_node21"><a xlink:href="Collider_8hpp.html" target="_top" xlink:title=" ">
<polygon fill="white" stroke="black" points="464,-459.5 464,-478.5 538,-478.5 538,-459.5 464,-459.5"/>
<text text-anchor="middle" x="501" y="-466.5" font-family="Helvetica,sans-Serif" font-size="10.00">Collider.hpp</text>
</a>
</g>
</g>
<!-- Node1&#45;&gt;Node21 -->
<g id="edge33" class="edge">
<title>Node1&#45;&gt;Node21</title>
<path fill="none" stroke="midnightblue" d="M679.36,-516.37C635.57,-504.99 581.03,-490.81 543.87,-481.15"/>
<polygon fill="midnightblue" stroke="midnightblue" points="544.43,-477.68 533.87,-478.55 542.67,-484.45 544.43,-477.68"/>
</g>
<!-- Node26 -->
<g id="node26" class="node">
<title>Node26</title>
<g id="a_node26"><a xlink:href="Coordinator_8hpp.html" target="_top" xlink:title=" ">
<polygon fill="white" stroke="black" points="1172,-403.5 1172,-422.5 1266,-422.5 1266,-403.5 1172,-403.5"/>
<text text-anchor="middle" x="1219" y="-410.5" font-family="Helvetica,sans-Serif" font-size="10.00">Coordinator.hpp</text>
</a>
</g>
</g>
<!-- Node1&#45;&gt;Node26 -->
<g id="edge73" class="edge">
<title>Node1&#45;&gt;Node26</title>
<path fill="none" stroke="midnightblue" d="M822.59,-516.49C921.18,-491 1095.67,-445.89 1176.15,-425.08"/>
<polygon fill="midnightblue" stroke="midnightblue" points="1177.14,-428.44 1185.94,-422.55 1175.39,-421.66 1177.14,-428.44"/>
</g>
<!-- Node3 -->
<g id="node3" class="node">
<title>Node3</title>
<g id="a_node3"><a xlink:title=" ">
<polygon fill="white" stroke="#bfbfbf" points="1424,-123.5 1424,-142.5 1468,-142.5 1468,-123.5 1424,-123.5"/>
<text text-anchor="middle" x="1446" y="-130.5" font-family="Helvetica,sans-Serif" font-size="10.00">string</text>
</a>
</g>
</g>
<!-- Node2&#45;&gt;Node3 -->
<g id="edge2" class="edge">
<title>Node2&#45;&gt;Node3</title>
<path fill="none" stroke="midnightblue" d="M852.34,-291.42C960.16,-262.83 1306.61,-170.96 1413.97,-142.49"/>
<polygon fill="midnightblue" stroke="midnightblue" points="1415.12,-145.81 1423.89,-139.86 1413.32,-139.04 1415.12,-145.81"/>
</g>
<!-- Node2&#45;&gt;Node4 -->
<g id="edge3" class="edge">
<title>Node2&#45;&gt;Node4</title>
<path fill="none" stroke="midnightblue" d="M802.72,-291.48C774.67,-276.7 719.47,-243.59 691,-199 682,-184.91 677.14,-166.42 674.59,-152.76"/>
<polygon fill="midnightblue" stroke="midnightblue" points="678.01,-151.95 672.96,-142.63 671.1,-153.06 678.01,-151.95"/>
</g>
<!-- Node2&#45;&gt;Node5 -->
<g id="edge4" class="edge">
<title>Node2&#45;&gt;Node5</title>
<path fill="none" stroke="midnightblue" d="M816.2,-291.08C813.09,-283.77 808.58,-273.18 804.71,-264.1"/>
<polygon fill="midnightblue" stroke="midnightblue" points="807.87,-262.58 800.73,-254.75 801.43,-265.32 807.87,-262.58"/>
</g>
<!-- Node5&#45;&gt;Node4 -->
<g id="edge9" class="edge">
<title>Node5&#45;&gt;Node4</title>
<path fill="none" stroke="midnightblue" d="M771.81,-235.38C753.06,-227.99 727.76,-215.86 710,-199 695.97,-185.67 685.45,-166.02 679.08,-151.81"/>
<polygon fill="midnightblue" stroke="midnightblue" points="682.31,-150.45 675.19,-142.6 675.86,-153.18 682.31,-150.45"/>
</g>
<!-- Node6 -->
<g id="node6" class="node">
<title>Node6</title>
<g id="a_node6"><a xlink:title=" ">
<polygon fill="white" stroke="#bfbfbf" points="527,-123.5 527,-142.5 589,-142.5 589,-123.5 527,-123.5"/>
<text text-anchor="middle" x="558" y="-130.5" font-family="Helvetica,sans-Serif" font-size="10.00">cinttypes</text>
</a>
</g>
</g>
<!-- Node5&#45;&gt;Node6 -->
<g id="edge5" class="edge">
<title>Node5&#45;&gt;Node6</title>
<path fill="none" stroke="midnightblue" d="M775.74,-235.36C754.23,-226.54 720.1,-212.28 691,-199 653.52,-181.9 610.82,-160.73 584.14,-147.29"/>
<polygon fill="midnightblue" stroke="midnightblue" points="585.58,-144.09 575.08,-142.71 582.43,-150.34 585.58,-144.09"/>
</g>
<!-- Node7 -->
<g id="node7" class="node">
<title>Node7</title>
<g id="a_node7"><a xlink:title=" ">
<polygon fill="white" stroke="#bfbfbf" points="980.5,-123.5 980.5,-142.5 1073.5,-142.5 1073.5,-123.5 980.5,-123.5"/>
<text text-anchor="middle" x="1027" y="-130.5" font-family="Helvetica,sans-Serif" font-size="10.00">unordered_map</text>
</a>
</g>
</g>
<!-- Node5&#45;&gt;Node7 -->
<g id="edge6" class="edge">
<title>Node5&#45;&gt;Node7</title>
<path fill="none" stroke="midnightblue" d="M815.05,-235.37C855.27,-216.13 952.46,-169.65 999.96,-146.93"/>
<polygon fill="midnightblue" stroke="midnightblue" points="1001.52,-150.06 1009.04,-142.59 998.5,-143.75 1001.52,-150.06"/>
</g>
<!-- Node8 -->
<g id="node8" class="node">
<title>Node8</title>
<g id="a_node8"><a xlink:title=" ">
<polygon fill="white" stroke="#bfbfbf" points="1227,-123.5 1227,-142.5 1285,-142.5 1285,-123.5 1227,-123.5"/>
<text text-anchor="middle" x="1256" y="-130.5" font-family="Helvetica,sans-Serif" font-size="10.00">memory</text>
</a>
</g>
</g>
<!-- Node5&#45;&gt;Node8 -->
<g id="edge7" class="edge">
<title>Node5&#45;&gt;Node8</title>
<path fill="none" stroke="midnightblue" d="M829.88,-242.99C889.82,-240.39 1020.35,-231.2 1125,-199 1165.24,-186.62 1208.31,-163.01 1233.66,-147.91"/>
<polygon fill="midnightblue" stroke="midnightblue" points="1235.73,-150.75 1242.47,-142.58 1232.1,-144.76 1235.73,-150.75"/>
</g>
<!-- Node9 -->
<g id="node9" class="node">
<title>Node9</title>
<g id="a_node9"><a xlink:title=" ">
<polygon fill="white" stroke="#bfbfbf" points="1092,-123.5 1092,-142.5 1156,-142.5 1156,-123.5 1092,-123.5"/>
<text text-anchor="middle" x="1124" y="-130.5" font-family="Helvetica,sans-Serif" font-size="10.00">algorithm</text>
</a>
</g>
</g>
<!-- Node5&#45;&gt;Node9 -->
<g id="edge8" class="edge">
<title>Node5&#45;&gt;Node9</title>
<path fill="none" stroke="midnightblue" d="M829.57,-243.5C899.96,-241.75 1063.26,-233.94 1104,-199 1117.28,-187.61 1121.89,-167.62 1123.41,-152.81"/>
<polygon fill="midnightblue" stroke="midnightblue" points="1126.91,-152.92 1124.07,-142.72 1119.93,-152.47 1126.91,-152.92"/>
</g>
<!-- Node10 -->
<g id="node10" class="node">
<title>Node10</title>
<g id="a_node10"><a xlink:title=" ">
<polygon fill="white" stroke="#bfbfbf" points="847.5,-123.5 847.5,-142.5 938.5,-142.5 938.5,-123.5 847.5,-123.5"/>
<text text-anchor="middle" x="893" y="-130.5" font-family="Helvetica,sans-Serif" font-size="10.00">Exceptions.hpp</text>
</a>
</g>
</g>
<!-- Node5&#45;&gt;Node10 -->
<g id="edge10" class="edge">
<title>Node5&#45;&gt;Node10</title>
<path fill="none" stroke="midnightblue" d="M804.53,-235.37C820.52,-217.05 858.05,-174.05 878.72,-150.36"/>
<polygon fill="midnightblue" stroke="midnightblue" points="881.56,-152.43 885.5,-142.59 876.29,-147.82 881.56,-152.43"/>
</g>
<!-- Node11 -->
<g id="node11" class="node">
<title>Node11</title>
<g id="a_node11"><a xlink:href="ComponentManager_8hpp.html" target="_top" xlink:title=" ">
<polygon fill="white" stroke="black" points="959,-179.5 959,-198.5 1095,-198.5 1095,-179.5 959,-179.5"/>
<text text-anchor="middle" x="1027" y="-186.5" font-family="Helvetica,sans-Serif" font-size="10.00">ComponentManager.hpp</text>
</a>
</g>
</g>
<!-- Node5&#45;&gt;Node11 -->
<g id="edge11" class="edge">
<title>Node5&#45;&gt;Node11</title>
<path fill="none" stroke="midnightblue" d="M829.95,-236.26C869.56,-226.96 936.27,-211.3 980.95,-200.81"/>
<polygon fill="midnightblue" stroke="midnightblue" points="981.76,-204.22 990.69,-198.52 980.16,-197.4 981.76,-204.22"/>
</g>
<!-- Node12 -->
<g id="node12" class="node">
<title>Node12</title>
<g id="a_node12"><a xlink:href="IComponent_8hpp.html" target="_top" xlink:title=" ">
<polygon fill="white" stroke="black" points="336.5,-123.5 336.5,-142.5 433.5,-142.5 433.5,-123.5 336.5,-123.5"/>
<text text-anchor="middle" x="385" y="-130.5" font-family="Helvetica,sans-Serif" font-size="10.00">IComponent.hpp</text>
</a>
</g>
</g>
<!-- Node5&#45;&gt;Node12 -->
<g id="edge31" class="edge">
<title>Node5&#45;&gt;Node12</title>
<path fill="none" stroke="midnightblue" d="M765.01,-235.46C691.24,-215.76 509.18,-167.15 426.74,-145.15"/>
<polygon fill="midnightblue" stroke="midnightblue" points="427.53,-141.73 416.97,-142.53 425.72,-148.5 427.53,-141.73"/>
</g>
<!-- Node19 -->
<g id="node19" class="node">
<title>Node19</title>
<g id="a_node19"><a xlink:href="EntityManager_8hpp.html" target="_top" xlink:title=" ">
<polygon fill="white" stroke="black" points="719,-179.5 719,-198.5 827,-198.5 827,-179.5 719,-179.5"/>
<text text-anchor="middle" x="773" y="-186.5" font-family="Helvetica,sans-Serif" font-size="10.00">EntityManager.hpp</text>
</a>
</g>
</g>
<!-- Node5&#45;&gt;Node19 -->
<g id="edge26" class="edge">
<title>Node5&#45;&gt;Node19</title>
<path fill="none" stroke="midnightblue" d="M793.04,-235.08C789.79,-227.77 785.08,-217.18 781.05,-208.1"/>
<polygon fill="midnightblue" stroke="midnightblue" points="784.15,-206.47 776.89,-198.75 777.75,-209.31 784.15,-206.47"/>
</g>
<!-- Node11&#45;&gt;Node3 -->
<g id="edge13" class="edge">
<title>Node11&#45;&gt;Node3</title>
<path fill="none" stroke="midnightblue" d="M1095.29,-179.7C1166.99,-170.91 1282.98,-156.46 1383,-143 1392.97,-141.66 1403.82,-140.13 1413.66,-138.72"/>
<polygon fill="midnightblue" stroke="midnightblue" points="1414.46,-142.14 1423.85,-137.25 1413.46,-135.22 1414.46,-142.14"/>
</g>
<!-- Node11&#45;&gt;Node4 -->
<g id="edge14" class="edge">
<title>Node11&#45;&gt;Node4</title>
<path fill="none" stroke="midnightblue" d="M970.75,-179.44C896.24,-168.11 767.12,-148.47 705.98,-139.17"/>
<polygon fill="midnightblue" stroke="midnightblue" points="706.14,-135.65 695.73,-137.61 705.09,-142.57 706.14,-135.65"/>
</g>
<!-- Node11&#45;&gt;Node7 -->
<g id="edge12" class="edge">
<title>Node11&#45;&gt;Node7</title>
<path fill="none" stroke="midnightblue" d="M1027,-179.08C1027,-172.01 1027,-161.86 1027,-152.99"/>
<polygon fill="midnightblue" stroke="midnightblue" points="1030.5,-152.75 1027,-142.75 1023.5,-152.75 1030.5,-152.75"/>
</g>
<!-- Node11&#45;&gt;Node8 -->
<g id="edge15" class="edge">
<title>Node11&#45;&gt;Node8</title>
<path fill="none" stroke="midnightblue" d="M1063.29,-179.44C1105.2,-169.56 1173.9,-153.36 1216.95,-143.21"/>
<polygon fill="midnightblue" stroke="midnightblue" points="1217.86,-146.59 1226.79,-140.89 1216.25,-139.78 1217.86,-146.59"/>
</g>
<!-- Node11&#45;&gt;Node9 -->
<g id="edge16" class="edge">
<title>Node11&#45;&gt;Node9</title>
<path fill="none" stroke="midnightblue" d="M1042.58,-179.32C1058,-170.74 1081.81,-157.49 1099.71,-147.52"/>
<polygon fill="midnightblue" stroke="midnightblue" points="1101.42,-150.58 1108.45,-142.65 1098.01,-144.46 1101.42,-150.58"/>
</g>
<!-- Node11&#45;&gt;Node10 -->
<g id="edge17" class="edge">
<title>Node11&#45;&gt;Node10</title>
<path fill="none" stroke="midnightblue" d="M1005.77,-179.44C983.62,-170.52 948.68,-156.44 923.56,-146.32"/>
<polygon fill="midnightblue" stroke="midnightblue" points="924.72,-143.01 914.13,-142.52 922.1,-149.5 924.72,-143.01"/>
</g>
<!-- Node11&#45;&gt;Node12 -->
<g id="edge18" class="edge">
<title>Node11&#45;&gt;Node12</title>
<path fill="none" stroke="midnightblue" d="M958.9,-182.27C832.38,-171.63 563.09,-148.98 443.89,-138.95"/>
<polygon fill="midnightblue" stroke="midnightblue" points="444.11,-135.46 433.85,-138.11 443.52,-142.43 444.11,-135.46"/>
</g>
<!-- Node18 -->
<g id="node18" class="node">
<title>Node18</title>
<g id="a_node18"><a xlink:title=" ">
<polygon fill="white" stroke="#bfbfbf" points="1336,-123.5 1336,-142.5 1374,-142.5 1374,-123.5 1336,-123.5"/>
<text text-anchor="middle" x="1355" y="-130.5" font-family="Helvetica,sans-Serif" font-size="10.00">map</text>
</a>
</g>
</g>
<!-- Node11&#45;&gt;Node18 -->
<g id="edge25" class="edge">
<title>Node11&#45;&gt;Node18</title>
<path fill="none" stroke="midnightblue" d="M1078.97,-179.44C1148.72,-167.96 1270.25,-147.95 1325.8,-138.81"/>
<polygon fill="midnightblue" stroke="midnightblue" points="1326.38,-142.26 1335.68,-137.18 1325.25,-135.35 1326.38,-142.26"/>
</g>
<!-- Node13 -->
<g id="node13" class="node">
<title>Node13</title>
<g id="a_node13"><a xlink:title=" ">
<polygon fill="white" stroke="#bfbfbf" points="352.5,-6 352.5,-25 409.5,-25 409.5,-6 352.5,-6"/>
<text text-anchor="middle" x="381" y="-13" font-family="Helvetica,sans-Serif" font-size="10.00">ostream</text>
</a>
</g>
</g>
<!-- Node12&#45;&gt;Node13 -->
<g id="edge19" class="edge">
<title>Node12&#45;&gt;Node13</title>
<path fill="none" stroke="midnightblue" d="M384.7,-123.32C384.06,-104.76 382.54,-60.84 381.66,-35.47"/>
<polygon fill="midnightblue" stroke="midnightblue" points="385.15,-35.15 381.3,-25.28 378.15,-35.4 385.15,-35.15"/>
</g>
<!-- Node14 -->
<g id="node14" class="node">
<title>Node14</title>
<g id="a_node14"><a xlink:href="IXMLSerializable_8hpp.html" target="_top" xlink:title=" ">
<polygon fill="white" stroke="black" points="75.5,-67.5 75.5,-86.5 194.5,-86.5 194.5,-67.5 75.5,-67.5"/>
<text text-anchor="middle" x="135" y="-74.5" font-family="Helvetica,sans-Serif" font-size="10.00">IXMLSerializable.hpp</text>
</a>
</g>
</g>
<!-- Node12&#45;&gt;Node14 -->
<g id="edge20" class="edge">
<title>Node12&#45;&gt;Node14</title>
<path fill="none" stroke="midnightblue" d="M345.39,-123.44C301.77,-114.02 231.6,-98.87 184.42,-88.68"/>
<polygon fill="midnightblue" stroke="midnightblue" points="184.94,-85.21 174.43,-86.52 183.46,-92.05 184.94,-85.21"/>
</g>
<!-- Node14&#45;&gt;Node13 -->
<g id="edge21" class="edge">
<title>Node14&#45;&gt;Node13</title>
<path fill="none" stroke="midnightblue" d="M175.33,-67.44C215.07,-58.84 277.44,-44.9 331,-31 334.83,-30.01 338.81,-28.93 342.77,-27.83"/>
<polygon fill="midnightblue" stroke="midnightblue" points="343.86,-31.16 352.52,-25.06 341.94,-24.42 343.86,-31.16"/>
</g>
<!-- Node15 -->
<g id="node15" class="node">
<title>Node15</title>
<g id="a_node15"><a xlink:title=" ">
<polygon fill="white" stroke="#bfbfbf" points="0,-6 0,-25 60,-25 60,-6 0,-6"/>
<text text-anchor="middle" x="30" y="-13" font-family="Helvetica,sans-Serif" font-size="10.00">iostream</text>
</a>
</g>
</g>
<!-- Node14&#45;&gt;Node15 -->
<g id="edge22" class="edge">
<title>Node14&#45;&gt;Node15</title>
<path fill="none" stroke="midnightblue" d="M119.96,-67.48C102.72,-57.71 74.26,-41.58 53.97,-30.08"/>
<polygon fill="midnightblue" stroke="midnightblue" points="55.44,-26.89 45.02,-25.01 51.99,-32.98 55.44,-26.89"/>
</g>
<!-- Node16 -->
<g id="node16" class="node">
<title>Node16</title>
<g id="a_node16"><a xlink:title=" ">
<polygon fill="white" stroke="#bfbfbf" points="78.5,-0.5 78.5,-30.5 191.5,-30.5 191.5,-0.5 78.5,-0.5"/>
<text text-anchor="start" x="86.5" y="-18.5" font-family="Helvetica,sans-Serif" font-size="10.00">boost/property_tree</text>
<text text-anchor="middle" x="135" y="-7.5" font-family="Helvetica,sans-Serif" font-size="10.00">/ptree.hpp</text>
</a>
</g>
</g>
<!-- Node14&#45;&gt;Node16 -->
<g id="edge23" class="edge">
<title>Node14&#45;&gt;Node16</title>
<path fill="none" stroke="midnightblue" d="M135,-67.48C135,-60.47 135,-50.19 135,-40.7"/>
<polygon fill="midnightblue" stroke="midnightblue" points="138.5,-40.52 135,-30.52 131.5,-40.52 138.5,-40.52"/>
</g>
<!-- Node17 -->
<g id="node17" class="node">
<title>Node17</title>
<g id="a_node17"><a xlink:title=" ">
<polygon fill="white" stroke="#bfbfbf" points="209.5,-0.5 209.5,-30.5 322.5,-30.5 322.5,-0.5 209.5,-0.5"/>
<text text-anchor="start" x="217.5" y="-18.5" font-family="Helvetica,sans-Serif" font-size="10.00">boost/property_tree</text>
<text text-anchor="middle" x="266" y="-7.5" font-family="Helvetica,sans-Serif" font-size="10.00">/xml_parser.hpp</text>
</a>
</g>
</g>
<!-- Node14&#45;&gt;Node17 -->
<g id="edge24" class="edge">
<title>Node14&#45;&gt;Node17</title>
<path fill="none" stroke="midnightblue" d="M153.77,-67.48C172.51,-58.96 201.89,-45.62 225.89,-34.72"/>
<polygon fill="midnightblue" stroke="midnightblue" points="227.47,-37.85 235.13,-30.52 224.57,-31.47 227.47,-37.85"/>
</g>
<!-- Node19&#45;&gt;Node4 -->
<g id="edge27" class="edge">
<title>Node19&#45;&gt;Node4</title>
<path fill="none" stroke="midnightblue" d="M756.77,-179.32C740.65,-170.7 715.7,-157.36 697.04,-147.39"/>
<polygon fill="midnightblue" stroke="midnightblue" points="698.66,-144.28 688.19,-142.65 695.36,-150.46 698.66,-144.28"/>
</g>
<!-- Node19&#45;&gt;Node6 -->
<g id="edge28" class="edge">
<title>Node19&#45;&gt;Node6</title>
<path fill="none" stroke="midnightblue" d="M738.93,-179.44C700.95,-169.9 639.53,-154.48 598.95,-144.29"/>
<polygon fill="midnightblue" stroke="midnightblue" points="599.67,-140.86 589.12,-141.82 597.96,-147.65 599.67,-140.86"/>
</g>
<!-- Node19&#45;&gt;Node8 -->
<g id="edge29" class="edge">
<title>Node19&#45;&gt;Node8</title>
<path fill="none" stroke="midnightblue" d="M827,-181.96C925.19,-170.99 1130.75,-148 1216.8,-138.38"/>
<polygon fill="midnightblue" stroke="midnightblue" points="1217.38,-141.84 1226.93,-137.25 1216.6,-134.88 1217.38,-141.84"/>
</g>
<!-- Node20 -->
<g id="node20" class="node">
<title>Node20</title>
<g id="a_node20"><a xlink:title=" ">
<polygon fill="white" stroke="#bfbfbf" points="757,-123.5 757,-142.5 789,-142.5 789,-123.5 757,-123.5"/>
<text text-anchor="middle" x="773" y="-130.5" font-family="Helvetica,sans-Serif" font-size="10.00">list</text>
</a>
</g>
</g>
<!-- Node19&#45;&gt;Node20 -->
<g id="edge30" class="edge">
<title>Node19&#45;&gt;Node20</title>
<path fill="none" stroke="midnightblue" d="M773,-179.08C773,-172.01 773,-161.86 773,-152.99"/>
<polygon fill="midnightblue" stroke="midnightblue" points="776.5,-152.75 773,-142.75 769.5,-152.75 776.5,-152.75"/>
</g>
<!-- Node21&#45;&gt;Node4 -->
<g id="edge41" class="edge">
<title>Node21&#45;&gt;Node4</title>
<path fill="none" stroke="midnightblue" d="M506.28,-459.23C516.73,-441.04 539,-397.6 539,-358 539,-358 539,-358 539,-244 539,-213.2 541.64,-201.18 563,-179 583.25,-157.97 614.77,-146.4 638.72,-140.28"/>
<polygon fill="midnightblue" stroke="midnightblue" points="639.53,-143.69 648.46,-137.98 637.92,-136.88 639.53,-143.69"/>
</g>
<!-- Node21&#45;&gt;Node5 -->
<g id="edge43" class="edge">
<title>Node21&#45;&gt;Node5</title>
<path fill="none" stroke="midnightblue" d="M512.6,-459.3C557.55,-425.59 720.5,-303.37 777.31,-260.77"/>
<polygon fill="midnightblue" stroke="midnightblue" points="779.58,-263.44 785.48,-254.64 775.38,-257.84 779.58,-263.44"/>
</g>
<!-- Node21&#45;&gt;Node6 -->
<g id="edge34" class="edge">
<title>Node21&#45;&gt;Node6</title>
<path fill="none" stroke="midnightblue" d="M501,-459.44C501,-440.94 501,-395.81 501,-358 501,-358 501,-358 501,-244 501,-207.3 526.32,-170.66 543.21,-150.3"/>
<polygon fill="midnightblue" stroke="midnightblue" points="545.95,-152.48 549.83,-142.62 540.65,-147.9 545.95,-152.48"/>
</g>
<!-- Node21&#45;&gt;Node8 -->
<g id="edge42" class="edge">
<title>Node21&#45;&gt;Node8</title>
<path fill="none" stroke="midnightblue" d="M538.39,-468.15C671.14,-467.87 1117.22,-459.94 1217,-367 1277.74,-310.43 1266.82,-197.68 1259.58,-152.94"/>
<polygon fill="midnightblue" stroke="midnightblue" points="1262.99,-152.13 1257.82,-142.88 1256.09,-153.33 1262.99,-152.13"/>
</g>
<!-- Node21&#45;&gt;Node12 -->
<g id="edge35" class="edge">
<title>Node21&#45;&gt;Node12</title>
<path fill="none" stroke="midnightblue" d="M480.68,-459.39C450.23,-445.23 393.93,-413.85 371,-367 335.35,-294.16 363.99,-192.82 378.19,-152.05"/>
<polygon fill="midnightblue" stroke="midnightblue" points="381.49,-153.23 381.6,-142.63 374.91,-150.85 381.49,-153.23"/>
</g>
<!-- Node22 -->
<g id="node22" class="node">
<title>Node22</title>
<g id="a_node22"><a xlink:href="Vector3_8hpp.html" target="_top" xlink:title=" ">
<polygon fill="white" stroke="black" points="92,-291.5 92,-310.5 166,-310.5 166,-291.5 92,-291.5"/>
<text text-anchor="middle" x="129" y="-298.5" font-family="Helvetica,sans-Serif" font-size="10.00">Vector3.hpp</text>
</a>
</g>
</g>
<!-- Node21&#45;&gt;Node22 -->
<g id="edge36" class="edge">
<title>Node21&#45;&gt;Node22</title>
<path fill="none" stroke="midnightblue" d="M463.75,-466.22C384,-461.93 199.37,-449.4 143,-423 109.97,-407.53 97.54,-400.45 83,-367 74.82,-348.17 91.61,-329.31 107.15,-316.8"/>
<polygon fill="midnightblue" stroke="midnightblue" points="109.59,-319.34 115.49,-310.54 105.39,-313.74 109.59,-319.34"/>
</g>
<!-- Node21&#45;&gt;Node26 -->
<g id="edge44" class="edge">
<title>Node21&#45;&gt;Node26</title>
<path fill="none" stroke="midnightblue" d="M538.09,-465.21C655.47,-456.38 1019.44,-429.01 1161.44,-418.33"/>
<polygon fill="midnightblue" stroke="midnightblue" points="1161.96,-421.8 1171.67,-417.56 1161.44,-414.82 1161.96,-421.8"/>
</g>
<!-- Node29 -->
<g id="node29" class="node">
<title>Node29</title>
<g id="a_node29"><a xlink:href="Transform_8hpp.html" target="_top" xlink:title=" ">
<polygon fill="white" stroke="black" points="380,-347.5 380,-366.5 466,-366.5 466,-347.5 380,-347.5"/>
<text text-anchor="middle" x="423" y="-354.5" font-family="Helvetica,sans-Serif" font-size="10.00">Transform.hpp</text>
</a>
</g>
</g>
<!-- Node21&#45;&gt;Node29 -->
<g id="edge57" class="edge">
<title>Node21&#45;&gt;Node29</title>
<path fill="none" stroke="midnightblue" d="M494.88,-459.37C482.01,-441.22 451.93,-398.8 435.05,-374.99"/>
<polygon fill="midnightblue" stroke="midnightblue" points="437.73,-372.72 429.09,-366.59 432.02,-376.77 437.73,-372.72"/>
</g>
<!-- Node30 -->
<g id="node30" class="node">
<title>Node30</title>
<g id="a_node30"><a xlink:href="Circle_8hpp.html" target="_top" xlink:title=" ">
<polygon fill="white" stroke="black" points="152.5,-403.5 152.5,-422.5 217.5,-422.5 217.5,-403.5 152.5,-403.5"/>
<text text-anchor="middle" x="185" y="-410.5" font-family="Helvetica,sans-Serif" font-size="10.00">Circle.hpp</text>
</a>
</g>
</g>
<!-- Node21&#45;&gt;Node30 -->
<g id="edge61" class="edge">
<title>Node21&#45;&gt;Node30</title>
<path fill="none" stroke="midnightblue" d="M463.67,-462.45C412.7,-454.75 318.25,-440.03 227.44,-423"/>
<polygon fill="midnightblue" stroke="midnightblue" points="228,-419.55 217.53,-421.13 226.71,-426.43 228,-419.55"/>
</g>
<!-- Node32 -->
<g id="node32" class="node">
<title>Node32</title>
<g id="a_node32"><a xlink:href="Rectangle_8hpp.html" target="_top" xlink:title=" ">
<polygon fill="white" stroke="black" points="236,-403.5 236,-422.5 322,-422.5 322,-403.5 236,-403.5"/>
<text text-anchor="middle" x="279" y="-410.5" font-family="Helvetica,sans-Serif" font-size="10.00">Rectangle.hpp</text>
</a>
</g>
</g>
<!-- Node21&#45;&gt;Node32 -->
<g id="edge68" class="edge">
<title>Node21&#45;&gt;Node32</title>
<path fill="none" stroke="midnightblue" d="M465.82,-459.44C427.42,-450.1 365.82,-435.12 323.94,-424.93"/>
<polygon fill="midnightblue" stroke="midnightblue" points="324.56,-421.48 314.01,-422.52 322.9,-428.28 324.56,-421.48"/>
</g>
<!-- Node22&#45;&gt;Node14 -->
<g id="edge38" class="edge">
<title>Node22&#45;&gt;Node14</title>
<path fill="none" stroke="midnightblue" d="M129.24,-291.3C130.12,-258.63 133.25,-142.87 134.49,-96.96"/>
<polygon fill="midnightblue" stroke="midnightblue" points="137.99,-96.97 134.76,-86.88 130.99,-96.79 137.99,-96.97"/>
</g>
<!-- Node23 -->
<g id="node23" class="node">
<title>Node23</title>
<g id="a_node23"><a xlink:title=" ">
<polygon fill="white" stroke="#bfbfbf" points="231.5,-235.5 231.5,-254.5 284.5,-254.5 284.5,-235.5 231.5,-235.5"/>
<text text-anchor="middle" x="258" y="-242.5" font-family="Helvetica,sans-Serif" font-size="10.00">raylib.h</text>
</a>
</g>
</g>
<!-- Node22&#45;&gt;Node23 -->
<g id="edge37" class="edge">
<title>Node22&#45;&gt;Node23</title>
<path fill="none" stroke="midnightblue" d="M149.44,-291.44C170.67,-282.56 204.1,-268.56 228.25,-258.45"/>
<polygon fill="midnightblue" stroke="midnightblue" points="229.78,-261.61 237.66,-254.52 227.08,-255.15 229.78,-261.61"/>
</g>
<!-- Node24 -->
<g id="node24" class="node">
<title>Node24</title>
<g id="a_node24"><a xlink:title=" ">
<polygon fill="white" stroke="#bfbfbf" points="53.5,-235.5 53.5,-254.5 100.5,-254.5 100.5,-235.5 53.5,-235.5"/>
<text text-anchor="middle" x="77" y="-242.5" font-family="Helvetica,sans-Serif" font-size="10.00">cmath</text>
</a>
</g>
</g>
<!-- Node22&#45;&gt;Node24 -->
<g id="edge39" class="edge">
<title>Node22&#45;&gt;Node24</title>
<path fill="none" stroke="midnightblue" d="M120.41,-291.08C112.84,-283.22 101.62,-271.57 92.49,-262.08"/>
<polygon fill="midnightblue" stroke="midnightblue" points="94.88,-259.53 85.43,-254.75 89.84,-264.38 94.88,-259.53"/>
</g>
<!-- Node25 -->
<g id="node25" class="node">
<title>Node25</title>
<g id="a_node25"><a xlink:title=" ">
<polygon fill="white" stroke="#bfbfbf" points="157,-235.5 157,-254.5 213,-254.5 213,-235.5 157,-235.5"/>
<text text-anchor="middle" x="185" y="-242.5" font-family="Helvetica,sans-Serif" font-size="10.00">sstream</text>
</a>
</g>
</g>
<!-- Node22&#45;&gt;Node25 -->
<g id="edge40" class="edge">
<title>Node22&#45;&gt;Node25</title>
<path fill="none" stroke="midnightblue" d="M138,-291.32C146.19,-283.42 158.51,-271.55 168.47,-261.94"/>
<polygon fill="midnightblue" stroke="midnightblue" points="171.07,-264.29 175.84,-254.83 166.21,-259.26 171.07,-264.29"/>
</g>
<!-- Node26&#45;&gt;Node3 -->
<g id="edge47" class="edge">
<title>Node26&#45;&gt;Node3</title>
<path fill="none" stroke="midnightblue" d="M1266.22,-403.79C1346.97,-388.4 1503,-352.16 1503,-302 1503,-302 1503,-302 1503,-244 1503,-207.3 1477.68,-170.66 1460.79,-150.3"/>
<polygon fill="midnightblue" stroke="midnightblue" points="1463.35,-147.9 1454.17,-142.62 1458.05,-152.48 1463.35,-147.9"/>
</g>
<!-- Node26&#45;&gt;Node8 -->
<g id="edge46" class="edge">
<title>Node26&#45;&gt;Node8</title>
<path fill="none" stroke="midnightblue" d="M1255.65,-403.49C1277.58,-396.77 1304.65,-385.38 1323,-367 1345.22,-344.74 1351,-333.46 1351,-302 1351,-302 1351,-302 1351,-244 1351,-213.2 1346.36,-202.95 1327,-179 1316.01,-165.41 1299.77,-154.68 1285.59,-147.12"/>
<polygon fill="midnightblue" stroke="midnightblue" points="1287.15,-143.99 1276.64,-142.61 1283.99,-150.24 1287.15,-143.99"/>
</g>
<!-- Node26&#45;&gt;Node18 -->
<g id="edge48" class="edge">
<title>Node26&#45;&gt;Node18</title>
<path fill="none" stroke="midnightblue" d="M1263.22,-403.44C1313.59,-390.83 1389,-361.94 1389,-302 1389,-302 1389,-302 1389,-244 1389,-210.16 1374.13,-172.97 1364.06,-151.66"/>
<polygon fill="midnightblue" stroke="midnightblue" points="1367.14,-149.99 1359.59,-142.56 1360.86,-153.08 1367.14,-149.99"/>
</g>
<!-- Node26&#45;&gt;Node19 -->
<g id="edge56" class="edge">
<title>Node26&#45;&gt;Node19</title>
<path fill="none" stroke="midnightblue" d="M1187.27,-403.45C1159.27,-395.45 1117.64,-382.44 1083,-367 969.46,-316.41 843.54,-236.44 794.34,-204.18"/>
<polygon fill="midnightblue" stroke="midnightblue" points="796.08,-201.14 785.8,-198.56 792.23,-206.99 796.08,-201.14"/>
</g>
<!-- Node27 -->
<g id="node27" class="node">
<title>Node27</title>
<g id="a_node27"><a xlink:title=" ">
<polygon fill="white" stroke="#bfbfbf" points="1264,-347.5 1264,-366.5 1314,-366.5 1314,-347.5 1264,-347.5"/>
<text text-anchor="middle" x="1289" y="-354.5" font-family="Helvetica,sans-Serif" font-size="10.00">chrono</text>
</a>
</g>
</g>
<!-- Node26&#45;&gt;Node27 -->
<g id="edge45" class="edge">
<title>Node26&#45;&gt;Node27</title>
<path fill="none" stroke="midnightblue" d="M1230.25,-403.32C1240.8,-395.18 1256.8,-382.84 1269.44,-373.09"/>
<polygon fill="midnightblue" stroke="midnightblue" points="1271.77,-375.71 1277.55,-366.83 1267.49,-370.17 1271.77,-375.71"/>
</g>
<!-- Node28 -->
<g id="node28" class="node">
<title>Node28</title>
<g id="a_node28"><a xlink:href="SystemManager_8hpp.html" target="_top" xlink:title=" ">
<polygon fill="white" stroke="black" points="1092,-347.5 1092,-366.5 1208,-366.5 1208,-347.5 1092,-347.5"/>
<text text-anchor="middle" x="1150" y="-354.5" font-family="Helvetica,sans-Serif" font-size="10.00">SystemManager.hpp</text>
</a>
</g>
</g>
<!-- Node26&#45;&gt;Node28 -->
<g id="edge49" class="edge">
<title>Node26&#45;&gt;Node28</title>
<path fill="none" stroke="midnightblue" d="M1207.91,-403.32C1197.51,-395.18 1181.74,-382.84 1169.28,-373.09"/>
<polygon fill="midnightblue" stroke="midnightblue" points="1171.32,-370.24 1161.29,-366.83 1167.01,-375.75 1171.32,-370.24"/>
</g>
<!-- Node28&#45;&gt;Node2 -->
<g id="edge54" class="edge">
<title>Node28&#45;&gt;Node2</title>
<path fill="none" stroke="midnightblue" d="M1097.71,-347.44C1035.52,-337.27 932.4,-320.39 870.85,-310.32"/>
<polygon fill="midnightblue" stroke="midnightblue" points="871.04,-306.8 860.6,-308.64 869.9,-313.71 871.04,-306.8"/>
</g>
<!-- Node28&#45;&gt;Node3 -->
<g id="edge52" class="edge">
<title>Node28&#45;&gt;Node3</title>
<path fill="none" stroke="midnightblue" d="M1161.6,-347.3C1206.55,-313.59 1369.5,-191.37 1426.31,-148.77"/>
<polygon fill="midnightblue" stroke="midnightblue" points="1428.58,-151.44 1434.48,-142.64 1424.38,-145.84 1428.58,-151.44"/>
</g>
<!-- Node28&#45;&gt;Node7 -->
<g id="edge53" class="edge">
<title>Node28&#45;&gt;Node7</title>
<path fill="none" stroke="midnightblue" d="M1150,-347.26C1149.56,-319.64 1144.82,-232.92 1104,-179 1093.09,-164.59 1076.11,-153.96 1060.87,-146.66"/>
<polygon fill="midnightblue" stroke="midnightblue" points="1062.23,-143.44 1051.68,-142.55 1059.37,-149.83 1062.23,-143.44"/>
</g>
<!-- Node28&#45;&gt;Node8 -->
<g id="edge50" class="edge">
<title>Node28&#45;&gt;Node8</title>
<path fill="none" stroke="midnightblue" d="M1158.3,-347.28C1166.21,-338.61 1178.07,-324.67 1186,-311 1217.58,-256.56 1240.92,-185.15 1250.8,-152.15"/>
<polygon fill="midnightblue" stroke="midnightblue" points="1254.17,-153.1 1253.62,-142.52 1247.45,-151.13 1254.17,-153.1"/>
</g>
<!-- Node28&#45;&gt;Node9 -->
<g id="edge51" class="edge">
<title>Node28&#45;&gt;Node9</title>
<path fill="none" stroke="midnightblue" d="M1154.36,-347.43C1167.16,-321 1202.06,-238.97 1175,-179 1169.38,-166.56 1158.44,-156.17 1148.12,-148.53"/>
<polygon fill="midnightblue" stroke="midnightblue" points="1149.96,-145.54 1139.73,-142.76 1145.99,-151.31 1149.96,-145.54"/>
</g>
<!-- Node28&#45;&gt;Node10 -->
<g id="edge55" class="edge">
<title>Node28&#45;&gt;Node10</title>
<path fill="none" stroke="midnightblue" d="M1137.17,-347.2C1104.43,-324.47 1015.7,-261.22 950,-199 933.91,-183.76 917.42,-164.48 906.34,-150.88"/>
<polygon fill="midnightblue" stroke="midnightblue" points="908.89,-148.47 899.9,-142.87 903.44,-152.86 908.89,-148.47"/>
</g>
<!-- Node29&#45;&gt;Node6 -->
<g id="edge58" class="edge">
<title>Node29&#45;&gt;Node6</title>
<path fill="none" stroke="midnightblue" d="M424.12,-347.29C428.06,-319.77 443.43,-233.28 487,-179 497.94,-165.37 514.19,-154.64 528.37,-147.09"/>
<polygon fill="midnightblue" stroke="midnightblue" points="529.97,-150.2 537.33,-142.58 526.82,-143.95 529.97,-150.2"/>
</g>
<!-- Node29&#45;&gt;Node12 -->
<g id="edge59" class="edge">
<title>Node29&#45;&gt;Node12</title>
<path fill="none" stroke="midnightblue" d="M420.4,-347.44C417.75,-338.44 413.64,-323.83 411,-311 399.22,-253.83 390.72,-185.22 387.04,-152.77"/>
<polygon fill="midnightblue" stroke="midnightblue" points="390.49,-152.09 385.9,-142.53 383.53,-152.86 390.49,-152.09"/>
</g>
<!-- Node29&#45;&gt;Node22 -->
<g id="edge60" class="edge">
<title>Node29&#45;&gt;Node22</title>
<path fill="none" stroke="midnightblue" d="M379.94,-348.09C325.58,-338.11 232.41,-320.99 176.18,-310.67"/>
<polygon fill="midnightblue" stroke="midnightblue" points="176.59,-307.18 166.13,-308.82 175.33,-314.07 176.59,-307.18"/>
</g>
<!-- Node30&#45;&gt;Node23 -->
<g id="edge62" class="edge">
<title>Node30&#45;&gt;Node23</title>
<path fill="none" stroke="midnightblue" d="M188.77,-403.15C194.11,-390.63 204.22,-367.03 213,-347 225.79,-317.8 240.92,-283.99 249.98,-263.83"/>
<polygon fill="midnightblue" stroke="midnightblue" points="253.2,-265.19 254.11,-254.63 246.82,-262.32 253.2,-265.19"/>
</g>
<!-- Node31 -->
<g id="node31" class="node">
<title>Node31</title>
<g id="a_node31"><a xlink:href="Vector2_8hpp.html" target="_top" xlink:title=" ">
<polygon fill="white" stroke="black" points="92,-347.5 92,-366.5 166,-366.5 166,-347.5 92,-347.5"/>
<text text-anchor="middle" x="129" y="-354.5" font-family="Helvetica,sans-Serif" font-size="10.00">Vector2.hpp</text>
</a>
</g>
</g>
<!-- Node30&#45;&gt;Node31 -->
<g id="edge63" class="edge">
<title>Node30&#45;&gt;Node31</title>
<path fill="none" stroke="midnightblue" d="M176,-403.32C167.81,-395.42 155.49,-383.55 145.53,-373.94"/>
<polygon fill="midnightblue" stroke="midnightblue" points="147.79,-371.26 138.16,-366.83 142.93,-376.29 147.79,-371.26"/>
</g>
<!-- Node31&#45;&gt;Node14 -->
<g id="edge67" class="edge">
<title>Node31&#45;&gt;Node14</title>
<path fill="none" stroke="midnightblue" d="M110.88,-347.3C81.09,-331.57 25,-295.41 25,-246 25,-246 25,-246 25,-188 25,-141.91 73.88,-108.39 106.47,-91.16"/>
<polygon fill="midnightblue" stroke="midnightblue" points="108.25,-94.18 115.59,-86.54 105.09,-87.94 108.25,-94.18"/>
</g>
<!-- Node31&#45;&gt;Node22 -->
<g id="edge66" class="edge">
<title>Node31&#45;&gt;Node22</title>
<path fill="none" stroke="midnightblue" d="M129,-347.08C129,-340.01 129,-329.86 129,-320.99"/>
<polygon fill="midnightblue" stroke="midnightblue" points="132.5,-320.75 129,-310.75 125.5,-320.75 132.5,-320.75"/>
</g>
<!-- Node31&#45;&gt;Node23 -->
<g id="edge64" class="edge">
<title>Node31&#45;&gt;Node23</title>
<path fill="none" stroke="midnightblue" d="M139.12,-347.37C160.98,-328.73 212.81,-284.53 240.25,-261.13"/>
<polygon fill="midnightblue" stroke="midnightblue" points="242.59,-263.74 247.92,-254.59 238.04,-258.42 242.59,-263.74"/>
</g>
<!-- Node31&#45;&gt;Node24 -->
<g id="edge65" class="edge">
<title>Node31&#45;&gt;Node24</title>
<path fill="none" stroke="midnightblue" d="M116.01,-347.35C105.15,-339.32 90.3,-326.33 83,-311 76.15,-296.61 75.02,-278.42 75.38,-264.94"/>
<polygon fill="midnightblue" stroke="midnightblue" points="78.88,-265.1 75.95,-254.91 71.89,-264.7 78.88,-265.1"/>
</g>
<!-- Node32&#45;&gt;Node23 -->
<g id="edge69" class="edge">
<title>Node32&#45;&gt;Node23</title>
<path fill="none" stroke="midnightblue" d="M282.6,-403.22C286.06,-394.28 291.03,-379.94 293,-367 298.72,-329.33 280.45,-286.9 268.19,-263.62"/>
<polygon fill="midnightblue" stroke="midnightblue" points="271.12,-261.7 263.23,-254.63 264.99,-265.08 271.12,-261.7"/>
</g>
<!-- Node33 -->
<g id="node33" class="node">
<title>Node33</title>
<g id="a_node33"><a xlink:href="Color_8hpp.html" target="_top" xlink:title=" ">
<polygon fill="white" stroke="black" points="222,-347.5 222,-366.5 284,-366.5 284,-347.5 222,-347.5"/>
<text text-anchor="middle" x="253" y="-354.5" font-family="Helvetica,sans-Serif" font-size="10.00">Color.hpp</text>
</a>
</g>
</g>
<!-- Node32&#45;&gt;Node33 -->
<g id="edge70" class="edge">
<title>Node32&#45;&gt;Node33</title>
<path fill="none" stroke="midnightblue" d="M274.71,-403.08C271.15,-395.69 265.98,-384.95 261.58,-375.81"/>
<polygon fill="midnightblue" stroke="midnightblue" points="264.71,-374.24 257.21,-366.75 258.4,-377.28 264.71,-374.24"/>
</g>
<!-- Node33&#45;&gt;Node22 -->
<g id="edge72" class="edge">
<title>Node33&#45;&gt;Node22</title>
<path fill="none" stroke="midnightblue" d="M233.35,-347.44C213.04,-338.6 181.1,-324.69 157.9,-314.59"/>
<polygon fill="midnightblue" stroke="midnightblue" points="159.12,-311.3 148.56,-310.52 156.33,-317.72 159.12,-311.3"/>
</g>
<!-- Node33&#45;&gt;Node23 -->
<g id="edge71" class="edge">
<title>Node33&#45;&gt;Node23</title>
<path fill="none" stroke="midnightblue" d="M253.39,-347.37C254.2,-329.62 256.06,-288.67 257.15,-264.6"/>
<polygon fill="midnightblue" stroke="midnightblue" points="260.65,-264.74 257.61,-254.59 253.66,-264.42 260.65,-264.74"/>
</g>
</g>
</svg>
