<?xml version="1.0" encoding="UTF-8" standalone="no"?>
<!DOCTYPE svg PUBLIC "-//W3C//DTD SVG 1.1//EN"
 "http://www.w3.org/Graphics/SVG/1.1/DTD/svg11.dtd">
<!-- Generated by graphviz version 2.43.0 (0)
 -->
<!-- Title: Libs/Engine/sources/Systems/CollisionSystem/CollisionSystem.cpp Pages: 1 -->
<svg width="1539pt" height="621pt"
 viewBox="0.00 0.00 1539.00 621.00" xmlns="http://www.w3.org/2000/svg" xmlns:xlink="http://www.w3.org/1999/xlink">
<g id="graph0" class="graph" transform="scale(1 1) rotate(0) translate(4 617)">
<title>Libs/Engine/sources/Systems/CollisionSystem/CollisionSystem.cpp</title>
<polygon fill="white" stroke="transparent" points="-4,4 -4,-617 1535,-617 1535,4 -4,4"/>
<!-- Node1 -->
<g id="node1" class="node">
<title>Node1</title>
<g id="a_node1"><a xlink:title=" ">
<polygon fill="#bfbfbf" stroke="black" points="1066.5,-571.5 1066.5,-612.5 1209.5,-612.5 1209.5,-571.5 1066.5,-571.5"/>
<text text-anchor="start" x="1074.5" y="-600.5" font-family="Helvetica,sans-Serif" font-size="10.00">Libs/Engine/sources</text>
<text text-anchor="start" x="1074.5" y="-589.5" font-family="Helvetica,sans-Serif" font-size="10.00">/Systems/CollisionSystem</text>
<text text-anchor="middle" x="1138" y="-578.5" font-family="Helvetica,sans-Serif" font-size="10.00">/CollisionSystem.cpp</text>
</a>
</g>
</g>
<!-- Node2 -->
<g id="node2" class="node">
<title>Node2</title>
<g id="a_node2"><a xlink:href="CollisionSystem_8hpp.html" target="_top" xlink:title=" ">
<polygon fill="white" stroke="black" points="741,-515.5 741,-534.5 857,-534.5 857,-515.5 741,-515.5"/>
<text text-anchor="middle" x="799" y="-522.5" font-family="Helvetica,sans-Serif" font-size="10.00">CollisionSystem.hpp</text>
</a>
</g>
</g>
<!-- Node1&#45;&gt;Node2 -->
<g id="edge1" class="edge">
<title>Node1&#45;&gt;Node2</title>
<path fill="none" stroke="midnightblue" d="M1066.11,-577.22C1002.67,-565.05 911.56,-547.58 853.84,-536.52"/>
<polygon fill="midnightblue" stroke="midnightblue" points="854.3,-533.04 843.82,-534.59 852.98,-539.91 854.3,-533.04"/>
</g>
<!-- Node16 -->
<g id="node16" class="node">
<title>Node16</title>
<g id="a_node16"><a xlink:title=" ">
<polygon fill="white" stroke="#bfbfbf" points="1471,-6 1471,-25 1531,-25 1531,-6 1471,-6"/>
<text text-anchor="middle" x="1501" y="-13" font-family="Helvetica,sans-Serif" font-size="10.00">iostream</text>
</a>
</g>
</g>
<!-- Node1&#45;&gt;Node16 -->
<g id="edge76" class="edge">
<title>Node1&#45;&gt;Node16</title>
<path fill="none" stroke="midnightblue" d="M1209.73,-582.93C1319.61,-568.54 1517,-533.8 1517,-470 1517,-470 1517,-470 1517,-132 1517,-97.54 1509.92,-57.83 1505.18,-35.1"/>
<polygon fill="midnightblue" stroke="midnightblue" points="1508.56,-34.17 1503.03,-25.14 1501.72,-35.65 1508.56,-34.17"/>
</g>
<!-- Node3 -->
<g id="node3" class="node">
<title>Node3</title>
<g id="a_node3"><a xlink:href="ASystem_8hpp.html" target="_top" xlink:title=" ">
<polygon fill="white" stroke="black" points="469.5,-291.5 469.5,-310.5 550.5,-310.5 550.5,-291.5 469.5,-291.5"/>
<text text-anchor="middle" x="510" y="-298.5" font-family="Helvetica,sans-Serif" font-size="10.00">ASystem.hpp</text>
</a>
</g>
</g>
<!-- Node2&#45;&gt;Node3 -->
<g id="edge2" class="edge">
<title>Node2&#45;&gt;Node3</title>
<path fill="none" stroke="midnightblue" d="M787.67,-515.3C743.79,-481.59 584.69,-359.37 529.23,-316.77"/>
<polygon fill="midnightblue" stroke="midnightblue" points="531.31,-313.96 521.25,-310.64 527.05,-319.51 531.31,-313.96"/>
</g>
<!-- Node5 -->
<g id="node5" class="node">
<title>Node5</title>
<g id="a_node5"><a xlink:title=" ">
<polygon fill="white" stroke="#bfbfbf" points="586.5,-123.5 586.5,-142.5 633.5,-142.5 633.5,-123.5 586.5,-123.5"/>
<text text-anchor="middle" x="610" y="-130.5" font-family="Helvetica,sans-Serif" font-size="10.00">vector</text>
</a>
</g>
</g>
<!-- Node2&#45;&gt;Node5 -->
<g id="edge75" class="edge">
<title>Node2&#45;&gt;Node5</title>
<path fill="none" stroke="midnightblue" d="M799.78,-515.24C801.29,-494.97 803.48,-443.44 791,-403 773.5,-346.29 662.02,-200.48 623.26,-150.84"/>
<polygon fill="midnightblue" stroke="midnightblue" points="625.83,-148.45 616.91,-142.73 620.32,-152.76 625.83,-148.45"/>
</g>
<!-- Node6 -->
<g id="node6" class="node">
<title>Node6</title>
<g id="a_node6"><a xlink:href="Entity_8hpp.html" target="_top" xlink:title=" ">
<polygon fill="white" stroke="black" points="561.5,-235.5 561.5,-254.5 626.5,-254.5 626.5,-235.5 561.5,-235.5"/>
<text text-anchor="middle" x="594" y="-242.5" font-family="Helvetica,sans-Serif" font-size="10.00">Entity.hpp</text>
</a>
</g>
</g>
<!-- Node2&#45;&gt;Node6 -->
<g id="edge33" class="edge">
<title>Node2&#45;&gt;Node6</title>
<path fill="none" stroke="midnightblue" d="M740.91,-519.64C675.73,-511.21 579,-486.49 579,-414 579,-414 579,-414 579,-356 579,-323.5 585.51,-286.1 589.95,-264.34"/>
<polygon fill="midnightblue" stroke="midnightblue" points="593.39,-265.01 592.04,-254.5 586.54,-263.56 593.39,-265.01"/>
</g>
<!-- Node22 -->
<g id="node22" class="node">
<title>Node22</title>
<g id="a_node22"><a xlink:href="Collider_8hpp.html" target="_top" xlink:title=" ">
<polygon fill="white" stroke="black" points="1003,-459.5 1003,-478.5 1077,-478.5 1077,-459.5 1003,-459.5"/>
<text text-anchor="middle" x="1040" y="-466.5" font-family="Helvetica,sans-Serif" font-size="10.00">Collider.hpp</text>
</a>
</g>
</g>
<!-- Node2&#45;&gt;Node22 -->
<g id="edge34" class="edge">
<title>Node2&#45;&gt;Node22</title>
<path fill="none" stroke="midnightblue" d="M837.19,-515.44C879.39,-505.99 947.39,-490.75 992.87,-480.56"/>
<polygon fill="midnightblue" stroke="midnightblue" points="993.79,-483.94 1002.78,-478.34 992.26,-477.11 993.79,-483.94"/>
</g>
<!-- Node27 -->
<g id="node27" class="node">
<title>Node27</title>
<g id="a_node27"><a xlink:href="Coordinator_8hpp.html" target="_top" xlink:title=" ">
<polygon fill="white" stroke="black" points="688,-403.5 688,-422.5 782,-422.5 782,-403.5 688,-403.5"/>
<text text-anchor="middle" x="735" y="-410.5" font-family="Helvetica,sans-Serif" font-size="10.00">Coordinator.hpp</text>
</a>
</g>
</g>
<!-- Node2&#45;&gt;Node27 -->
<g id="edge74" class="edge">
<title>Node2&#45;&gt;Node27</title>
<path fill="none" stroke="midnightblue" d="M793.98,-515.37C783.46,-497.3 758.96,-455.18 745.07,-431.31"/>
<polygon fill="midnightblue" stroke="midnightblue" points="748.05,-429.47 740,-422.59 742,-433 748.05,-429.47"/>
</g>
<!-- Node4 -->
<g id="node4" class="node">
<title>Node4</title>
<g id="a_node4"><a xlink:title=" ">
<polygon fill="white" stroke="#bfbfbf" points="46,-123.5 46,-142.5 90,-142.5 90,-123.5 46,-123.5"/>
<text text-anchor="middle" x="68" y="-130.5" font-family="Helvetica,sans-Serif" font-size="10.00">string</text>
</a>
</g>
</g>
<!-- Node3&#45;&gt;Node4 -->
<g id="edge3" class="edge">
<title>Node3&#45;&gt;Node4</title>
<path fill="none" stroke="midnightblue" d="M487.17,-291.42C413.87,-263.9 184.38,-177.71 99.75,-145.92"/>
<polygon fill="midnightblue" stroke="midnightblue" points="100.76,-142.57 90.17,-142.33 98.3,-149.12 100.76,-142.57"/>
</g>
<!-- Node3&#45;&gt;Node5 -->
<g id="edge4" class="edge">
<title>Node3&#45;&gt;Node5</title>
<path fill="none" stroke="midnightblue" d="M515.38,-291.08C531.32,-264.61 578.55,-186.21 599.63,-151.21"/>
<polygon fill="midnightblue" stroke="midnightblue" points="602.68,-152.94 604.84,-142.57 596.68,-149.33 602.68,-152.94"/>
</g>
<!-- Node3&#45;&gt;Node6 -->
<g id="edge5" class="edge">
<title>Node3&#45;&gt;Node6</title>
<path fill="none" stroke="midnightblue" d="M523.5,-291.32C536.6,-282.9 556.71,-269.97 572.11,-260.07"/>
<polygon fill="midnightblue" stroke="midnightblue" points="574.02,-263.01 580.54,-254.65 570.23,-257.12 574.02,-263.01"/>
</g>
<!-- Node6&#45;&gt;Node5 -->
<g id="edge10" class="edge">
<title>Node6&#45;&gt;Node5</title>
<path fill="none" stroke="midnightblue" d="M593.52,-235.09C593.01,-222.5 592.68,-198.82 596,-179 597.51,-170.02 600.35,-160.35 603.08,-152.28"/>
<polygon fill="midnightblue" stroke="midnightblue" points="606.4,-153.39 606.48,-142.79 599.81,-151.02 606.4,-153.39"/>
</g>
<!-- Node7 -->
<g id="node7" class="node">
<title>Node7</title>
<g id="a_node7"><a xlink:title=" ">
<polygon fill="white" stroke="#bfbfbf" points="1103,-123.5 1103,-142.5 1165,-142.5 1165,-123.5 1103,-123.5"/>
<text text-anchor="middle" x="1134" y="-130.5" font-family="Helvetica,sans-Serif" font-size="10.00">cinttypes</text>
</a>
</g>
</g>
<!-- Node6&#45;&gt;Node7 -->
<g id="edge6" class="edge">
<title>Node6&#45;&gt;Node7</title>
<path fill="none" stroke="midnightblue" d="M626.78,-239.87C680.12,-232.91 788.93,-217.77 880,-199 956.74,-183.18 1045.12,-159.25 1094.79,-145.26"/>
<polygon fill="midnightblue" stroke="midnightblue" points="1095.82,-148.61 1104.49,-142.52 1093.92,-141.87 1095.82,-148.61"/>
</g>
<!-- Node8 -->
<g id="node8" class="node">
<title>Node8</title>
<g id="a_node8"><a xlink:title=" ">
<polygon fill="white" stroke="#bfbfbf" points="329.5,-123.5 329.5,-142.5 422.5,-142.5 422.5,-123.5 329.5,-123.5"/>
<text text-anchor="middle" x="376" y="-130.5" font-family="Helvetica,sans-Serif" font-size="10.00">unordered_map</text>
</a>
</g>
</g>
<!-- Node6&#45;&gt;Node8 -->
<g id="edge7" class="edge">
<title>Node6&#45;&gt;Node8</title>
<path fill="none" stroke="midnightblue" d="M561.3,-243.62C496.02,-242.09 353.22,-234.65 323,-199 308.32,-181.68 331.18,-161.35 351.3,-148.09"/>
<polygon fill="midnightblue" stroke="midnightblue" points="353.3,-150.97 359.93,-142.71 349.59,-145.04 353.3,-150.97"/>
</g>
<!-- Node9 -->
<g id="node9" class="node">
<title>Node9</title>
<g id="a_node9"><a xlink:title=" ">
<polygon fill="white" stroke="#bfbfbf" points="831,-123.5 831,-142.5 889,-142.5 889,-123.5 831,-123.5"/>
<text text-anchor="middle" x="860" y="-130.5" font-family="Helvetica,sans-Serif" font-size="10.00">memory</text>
</a>
</g>
</g>
<!-- Node6&#45;&gt;Node9 -->
<g id="edge8" class="edge">
<title>Node6&#45;&gt;Node9</title>
<path fill="none" stroke="midnightblue" d="M606.44,-235.32C626.42,-221.71 667.25,-195.23 705,-179 743.21,-162.57 789.22,-150.06 821.14,-142.45"/>
<polygon fill="midnightblue" stroke="midnightblue" points="822.04,-145.84 830.98,-140.16 820.45,-139.02 822.04,-145.84"/>
</g>
<!-- Node10 -->
<g id="node10" class="node">
<title>Node10</title>
<g id="a_node10"><a xlink:title=" ">
<polygon fill="white" stroke="#bfbfbf" points="138,-123.5 138,-142.5 202,-142.5 202,-123.5 138,-123.5"/>
<text text-anchor="middle" x="170" y="-130.5" font-family="Helvetica,sans-Serif" font-size="10.00">algorithm</text>
</a>
</g>
</g>
<!-- Node6&#45;&gt;Node10 -->
<g id="edge9" class="edge">
<title>Node6&#45;&gt;Node10</title>
<path fill="none" stroke="midnightblue" d="M561.19,-242.87C504.5,-240.12 385.16,-230.71 290,-199 253.06,-186.69 214.09,-163.39 190.92,-148.29"/>
<polygon fill="midnightblue" stroke="midnightblue" points="192.56,-145.18 182.29,-142.57 188.69,-151.01 192.56,-145.18"/>
</g>
<!-- Node11 -->
<g id="node11" class="node">
<title>Node11</title>
<g id="a_node11"><a xlink:title=" ">
<polygon fill="white" stroke="#bfbfbf" points="220.5,-123.5 220.5,-142.5 311.5,-142.5 311.5,-123.5 220.5,-123.5"/>
<text text-anchor="middle" x="266" y="-130.5" font-family="Helvetica,sans-Serif" font-size="10.00">Exceptions.hpp</text>
</a>
</g>
</g>
<!-- Node6&#45;&gt;Node11 -->
<g id="edge11" class="edge">
<title>Node6&#45;&gt;Node11</title>
<path fill="none" stroke="midnightblue" d="M561,-241.76C496.41,-236.88 355.97,-223.69 315,-199 296.53,-187.87 282.67,-166.92 274.49,-151.8"/>
<polygon fill="midnightblue" stroke="midnightblue" points="277.6,-150.2 269.94,-142.88 271.36,-153.38 277.6,-150.2"/>
</g>
<!-- Node12 -->
<g id="node12" class="node">
<title>Node12</title>
<g id="a_node12"><a xlink:href="ComponentManager_8hpp.html" target="_top" xlink:title=" ">
<polygon fill="white" stroke="black" points="332,-179.5 332,-198.5 468,-198.5 468,-179.5 332,-179.5"/>
<text text-anchor="middle" x="400" y="-186.5" font-family="Helvetica,sans-Serif" font-size="10.00">ComponentManager.hpp</text>
</a>
</g>
</g>
<!-- Node6&#45;&gt;Node12 -->
<g id="edge12" class="edge">
<title>Node6&#45;&gt;Node12</title>
<path fill="none" stroke="midnightblue" d="M563.26,-235.44C530.06,-226.2 477.01,-211.44 440.44,-201.26"/>
<polygon fill="midnightblue" stroke="midnightblue" points="441.17,-197.83 430.6,-198.52 439.29,-204.57 441.17,-197.83"/>
</g>
<!-- Node13 -->
<g id="node13" class="node">
<title>Node13</title>
<g id="a_node13"><a xlink:href="IComponent_8hpp.html" target="_top" xlink:title=" ">
<polygon fill="white" stroke="black" points="987.5,-123.5 987.5,-142.5 1084.5,-142.5 1084.5,-123.5 987.5,-123.5"/>
<text text-anchor="middle" x="1036" y="-130.5" font-family="Helvetica,sans-Serif" font-size="10.00">IComponent.hpp</text>
</a>
</g>
</g>
<!-- Node6&#45;&gt;Node13 -->
<g id="edge32" class="edge">
<title>Node6&#45;&gt;Node13</title>
<path fill="none" stroke="midnightblue" d="M626.86,-239.04C672.86,-231.8 758.92,-217.2 831,-199 892.4,-183.49 962.44,-160 1002.71,-145.91"/>
<polygon fill="midnightblue" stroke="midnightblue" points="1004.01,-149.16 1012.28,-142.54 1001.69,-142.56 1004.01,-149.16"/>
</g>
<!-- Node20 -->
<g id="node20" class="node">
<title>Node20</title>
<g id="a_node20"><a xlink:href="EntityManager_8hpp.html" target="_top" xlink:title=" ">
<polygon fill="white" stroke="black" points="714,-179.5 714,-198.5 822,-198.5 822,-179.5 714,-179.5"/>
<text text-anchor="middle" x="768" y="-186.5" font-family="Helvetica,sans-Serif" font-size="10.00">EntityManager.hpp</text>
</a>
</g>
</g>
<!-- Node6&#45;&gt;Node20 -->
<g id="edge27" class="edge">
<title>Node6&#45;&gt;Node20</title>
<path fill="none" stroke="midnightblue" d="M621.57,-235.44C651.1,-226.28 698.12,-211.69 730.88,-201.52"/>
<polygon fill="midnightblue" stroke="midnightblue" points="732.04,-204.82 740.56,-198.52 729.97,-198.14 732.04,-204.82"/>
</g>
<!-- Node12&#45;&gt;Node4 -->
<g id="edge14" class="edge">
<title>Node12&#45;&gt;Node4</title>
<path fill="none" stroke="midnightblue" d="M347.39,-179.44C277.85,-168.13 157.46,-148.55 100.13,-139.23"/>
<polygon fill="midnightblue" stroke="midnightblue" points="100.62,-135.76 90.19,-137.61 99.5,-142.67 100.62,-135.76"/>
</g>
<!-- Node12&#45;&gt;Node5 -->
<g id="edge15" class="edge">
<title>Node12&#45;&gt;Node5</title>
<path fill="none" stroke="midnightblue" d="M433.28,-179.44C472.45,-169.37 537.14,-152.74 576.44,-142.63"/>
<polygon fill="midnightblue" stroke="midnightblue" points="577.52,-145.97 586.33,-140.09 575.77,-139.19 577.52,-145.97"/>
</g>
<!-- Node12&#45;&gt;Node8 -->
<g id="edge13" class="edge">
<title>Node12&#45;&gt;Node8</title>
<path fill="none" stroke="midnightblue" d="M396.04,-179.08C392.79,-171.77 388.08,-161.18 384.05,-152.1"/>
<polygon fill="midnightblue" stroke="midnightblue" points="387.15,-150.47 379.89,-142.75 380.75,-153.31 387.15,-150.47"/>
</g>
<!-- Node12&#45;&gt;Node9 -->
<g id="edge16" class="edge">
<title>Node12&#45;&gt;Node9</title>
<path fill="none" stroke="midnightblue" d="M468.21,-180.6C546.62,-171.99 679.19,-157.16 793,-143 802.05,-141.87 811.79,-140.6 820.95,-139.38"/>
<polygon fill="midnightblue" stroke="midnightblue" points="821.55,-142.83 830.99,-138.02 820.62,-135.89 821.55,-142.83"/>
</g>
<!-- Node12&#45;&gt;Node10 -->
<g id="edge17" class="edge">
<title>Node12&#45;&gt;Node10</title>
<path fill="none" stroke="midnightblue" d="M363.56,-179.44C322.4,-169.78 255.52,-154.08 212.14,-143.89"/>
<polygon fill="midnightblue" stroke="midnightblue" points="212.73,-140.44 202.19,-141.56 211.13,-147.25 212.73,-140.44"/>
</g>
<!-- Node12&#45;&gt;Node11 -->
<g id="edge18" class="edge">
<title>Node12&#45;&gt;Node11</title>
<path fill="none" stroke="midnightblue" d="M378.77,-179.44C356.62,-170.52 321.68,-156.44 296.56,-146.32"/>
<polygon fill="midnightblue" stroke="midnightblue" points="297.72,-143.01 287.13,-142.52 295.1,-149.5 297.72,-143.01"/>
</g>
<!-- Node12&#45;&gt;Node13 -->
<g id="edge19" class="edge">
<title>Node12&#45;&gt;Node13</title>
<path fill="none" stroke="midnightblue" d="M468.06,-182.22C593.42,-171.58 858.77,-149.05 977,-139.01"/>
<polygon fill="midnightblue" stroke="midnightblue" points="977.63,-142.47 987.3,-138.14 977.04,-135.49 977.63,-142.47"/>
</g>
<!-- Node19 -->
<g id="node19" class="node">
<title>Node19</title>
<g id="a_node19"><a xlink:title=" ">
<polygon fill="white" stroke="#bfbfbf" points="459,-123.5 459,-142.5 497,-142.5 497,-123.5 459,-123.5"/>
<text text-anchor="middle" x="478" y="-130.5" font-family="Helvetica,sans-Serif" font-size="10.00">map</text>
</a>
</g>
</g>
<!-- Node12&#45;&gt;Node19 -->
<g id="edge26" class="edge">
<title>Node12&#45;&gt;Node19</title>
<path fill="none" stroke="midnightblue" d="M412.53,-179.32C424.59,-170.98 443.03,-158.21 457.27,-148.35"/>
<polygon fill="midnightblue" stroke="midnightblue" points="459.27,-151.22 465.5,-142.65 455.28,-145.47 459.27,-151.22"/>
</g>
<!-- Node14 -->
<g id="node14" class="node">
<title>Node14</title>
<g id="a_node14"><a xlink:title=" ">
<polygon fill="white" stroke="#bfbfbf" points="1102.5,-6 1102.5,-25 1159.5,-25 1159.5,-6 1102.5,-6"/>
<text text-anchor="middle" x="1131" y="-13" font-family="Helvetica,sans-Serif" font-size="10.00">ostream</text>
</a>
</g>
</g>
<!-- Node13&#45;&gt;Node14 -->
<g id="edge20" class="edge">
<title>Node13&#45;&gt;Node14</title>
<path fill="none" stroke="midnightblue" d="M1043.14,-123.32C1058.89,-104.17 1096.83,-58.04 1117.32,-33.13"/>
<polygon fill="midnightblue" stroke="midnightblue" points="1120.13,-35.23 1123.78,-25.28 1114.72,-30.78 1120.13,-35.23"/>
</g>
<!-- Node15 -->
<g id="node15" class="node">
<title>Node15</title>
<g id="a_node15"><a xlink:href="IXMLSerializable_8hpp.html" target="_top" xlink:title=" ">
<polygon fill="white" stroke="black" points="1206.5,-67.5 1206.5,-86.5 1325.5,-86.5 1325.5,-67.5 1206.5,-67.5"/>
<text text-anchor="middle" x="1266" y="-74.5" font-family="Helvetica,sans-Serif" font-size="10.00">IXMLSerializable.hpp</text>
</a>
</g>
</g>
<!-- Node13&#45;&gt;Node15 -->
<g id="edge21" class="edge">
<title>Node13&#45;&gt;Node15</title>
<path fill="none" stroke="midnightblue" d="M1072.44,-123.44C1112.4,-114.06 1176.59,-98.99 1219.98,-88.8"/>
<polygon fill="midnightblue" stroke="midnightblue" points="1220.79,-92.21 1229.73,-86.52 1219.19,-85.39 1220.79,-92.21"/>
</g>
<!-- Node15&#45;&gt;Node14 -->
<g id="edge22" class="edge">
<title>Node15&#45;&gt;Node14</title>
<path fill="none" stroke="midnightblue" d="M1246.66,-67.48C1223.9,-57.45 1185.91,-40.7 1159.71,-29.15"/>
<polygon fill="midnightblue" stroke="midnightblue" points="1160.87,-25.84 1150.31,-25.01 1158.05,-32.24 1160.87,-25.84"/>
</g>
<!-- Node15&#45;&gt;Node16 -->
<g id="edge23" class="edge">
<title>Node15&#45;&gt;Node16</title>
<path fill="none" stroke="midnightblue" d="M1301.09,-67.48C1337.59,-58.57 1396.37,-44.09 1447,-31 1451.46,-29.85 1456.11,-28.63 1460.74,-27.4"/>
<polygon fill="midnightblue" stroke="midnightblue" points="1461.99,-30.69 1470.75,-24.73 1460.19,-23.92 1461.99,-30.69"/>
</g>
<!-- Node17 -->
<g id="node17" class="node">
<title>Node17</title>
<g id="a_node17"><a xlink:title=" ">
<polygon fill="white" stroke="#bfbfbf" points="1193.5,-0.5 1193.5,-30.5 1306.5,-30.5 1306.5,-0.5 1193.5,-0.5"/>
<text text-anchor="start" x="1201.5" y="-18.5" font-family="Helvetica,sans-Serif" font-size="10.00">boost/property_tree</text>
<text text-anchor="middle" x="1250" y="-7.5" font-family="Helvetica,sans-Serif" font-size="10.00">/ptree.hpp</text>
</a>
</g>
</g>
<!-- Node15&#45;&gt;Node17 -->
<g id="edge24" class="edge">
<title>Node15&#45;&gt;Node17</title>
<path fill="none" stroke="midnightblue" d="M1263.71,-67.48C1261.8,-60.4 1259,-49.97 1256.42,-40.39"/>
<polygon fill="midnightblue" stroke="midnightblue" points="1259.75,-39.27 1253.77,-30.52 1252.99,-41.09 1259.75,-39.27"/>
</g>
<!-- Node18 -->
<g id="node18" class="node">
<title>Node18</title>
<g id="a_node18"><a xlink:title=" ">
<polygon fill="white" stroke="#bfbfbf" points="1324.5,-0.5 1324.5,-30.5 1437.5,-30.5 1437.5,-0.5 1324.5,-0.5"/>
<text text-anchor="start" x="1332.5" y="-18.5" font-family="Helvetica,sans-Serif" font-size="10.00">boost/property_tree</text>
<text text-anchor="middle" x="1381" y="-7.5" font-family="Helvetica,sans-Serif" font-size="10.00">/xml_parser.hpp</text>
</a>
</g>
</g>
<!-- Node15&#45;&gt;Node18 -->
<g id="edge25" class="edge">
<title>Node15&#45;&gt;Node18</title>
<path fill="none" stroke="midnightblue" d="M1282.48,-67.48C1298.71,-59.08 1324.04,-45.97 1344.95,-35.15"/>
<polygon fill="midnightblue" stroke="midnightblue" points="1346.62,-38.23 1353.9,-30.52 1343.41,-32.01 1346.62,-38.23"/>
</g>
<!-- Node20&#45;&gt;Node5 -->
<g id="edge28" class="edge">
<title>Node20&#45;&gt;Node5</title>
<path fill="none" stroke="midnightblue" d="M742.96,-179.44C715.99,-170.23 672.95,-155.51 643.17,-145.34"/>
<polygon fill="midnightblue" stroke="midnightblue" points="644.22,-142 633.63,-142.08 641.96,-148.62 644.22,-142"/>
</g>
<!-- Node20&#45;&gt;Node7 -->
<g id="edge29" class="edge">
<title>Node20&#45;&gt;Node7</title>
<path fill="none" stroke="midnightblue" d="M822.16,-181.94C884.93,-174.6 991.69,-161.14 1092.55,-143.14"/>
<polygon fill="midnightblue" stroke="midnightblue" points="1093.39,-146.54 1102.61,-141.33 1092.15,-139.66 1093.39,-146.54"/>
</g>
<!-- Node20&#45;&gt;Node9 -->
<g id="edge30" class="edge">
<title>Node20&#45;&gt;Node9</title>
<path fill="none" stroke="midnightblue" d="M782.78,-179.32C797.27,-170.82 819.57,-157.73 836.49,-147.8"/>
<polygon fill="midnightblue" stroke="midnightblue" points="838.4,-150.74 845.26,-142.65 834.86,-144.7 838.4,-150.74"/>
</g>
<!-- Node21 -->
<g id="node21" class="node">
<title>Node21</title>
<g id="a_node21"><a xlink:title=" ">
<polygon fill="white" stroke="#bfbfbf" points="752,-123.5 752,-142.5 784,-142.5 784,-123.5 752,-123.5"/>
<text text-anchor="middle" x="768" y="-130.5" font-family="Helvetica,sans-Serif" font-size="10.00">list</text>
</a>
</g>
</g>
<!-- Node20&#45;&gt;Node21 -->
<g id="edge31" class="edge">
<title>Node20&#45;&gt;Node21</title>
<path fill="none" stroke="midnightblue" d="M768,-179.08C768,-172.01 768,-161.86 768,-152.99"/>
<polygon fill="midnightblue" stroke="midnightblue" points="771.5,-152.75 768,-142.75 764.5,-152.75 771.5,-152.75"/>
</g>
<!-- Node22&#45;&gt;Node5 -->
<g id="edge42" class="edge">
<title>Node22&#45;&gt;Node5</title>
<path fill="none" stroke="midnightblue" d="M1032.83,-459.24C1001.19,-420.77 873.18,-267.2 820,-235 774.19,-207.26 753.19,-222.38 705,-199 676.42,-185.13 646.69,-163.42 628.27,-148.95"/>
<polygon fill="midnightblue" stroke="midnightblue" points="630.19,-146.01 620.19,-142.5 625.82,-151.48 630.19,-146.01"/>
</g>
<!-- Node22&#45;&gt;Node6 -->
<g id="edge44" class="edge">
<title>Node22&#45;&gt;Node6</title>
<path fill="none" stroke="midnightblue" d="M1006.2,-459.44C977.15,-451.56 934.47,-438.73 899,-423 786.75,-373.22 663.17,-292.79 614.91,-260.3"/>
<polygon fill="midnightblue" stroke="midnightblue" points="616.79,-257.34 606.55,-254.63 612.87,-263.14 616.79,-257.34"/>
</g>
<!-- Node22&#45;&gt;Node7 -->
<g id="edge35" class="edge">
<title>Node22&#45;&gt;Node7</title>
<path fill="none" stroke="midnightblue" d="M1058.56,-459.43C1087.23,-445.03 1141.27,-412.96 1163,-367 1180.99,-328.96 1151.1,-200.74 1138.86,-152.53"/>
<polygon fill="midnightblue" stroke="midnightblue" points="1142.18,-151.38 1136.29,-142.57 1135.4,-153.13 1142.18,-151.38"/>
</g>
<!-- Node22&#45;&gt;Node9 -->
<g id="edge43" class="edge">
<title>Node22&#45;&gt;Node9</title>
<path fill="none" stroke="midnightblue" d="M1034.72,-459.23C1024.27,-441.04 1002,-397.6 1002,-358 1002,-358 1002,-358 1002,-244 1002,-191.6 940.82,-160.6 898.78,-145.48"/>
<polygon fill="midnightblue" stroke="midnightblue" points="899.67,-142.08 889.08,-142.15 897.4,-148.7 899.67,-142.08"/>
</g>
<!-- Node22&#45;&gt;Node13 -->
<g id="edge36" class="edge">
<title>Node22&#45;&gt;Node13</title>
<path fill="none" stroke="midnightblue" d="M1040,-459.44C1040,-440.94 1040,-395.81 1040,-358 1040,-358 1040,-358 1040,-244 1040,-211.93 1038.28,-174.63 1037.1,-152.74"/>
<polygon fill="midnightblue" stroke="midnightblue" points="1040.58,-152.34 1036.52,-142.55 1033.59,-152.73 1040.58,-152.34"/>
</g>
<!-- Node23 -->
<g id="node23" class="node">
<title>Node23</title>
<g id="a_node23"><a xlink:href="Vector3_8hpp.html" target="_top" xlink:title=" ">
<polygon fill="white" stroke="black" points="1187,-291.5 1187,-310.5 1261,-310.5 1261,-291.5 1187,-291.5"/>
<text text-anchor="middle" x="1224" y="-298.5" font-family="Helvetica,sans-Serif" font-size="10.00">Vector3.hpp</text>
</a>
</g>
</g>
<!-- Node22&#45;&gt;Node23 -->
<g id="edge37" class="edge">
<title>Node22&#45;&gt;Node23</title>
<path fill="none" stroke="midnightblue" d="M1077.27,-467.5C1112.79,-464.95 1165.26,-455.42 1196,-423 1222.49,-395.06 1225.65,-347.22 1225.13,-320.84"/>
<polygon fill="midnightblue" stroke="midnightblue" points="1228.63,-320.53 1224.73,-310.67 1221.63,-320.81 1228.63,-320.53"/>
</g>
<!-- Node22&#45;&gt;Node27 -->
<g id="edge45" class="edge">
<title>Node22&#45;&gt;Node27</title>
<path fill="none" stroke="midnightblue" d="M1002.91,-461.43C950.35,-452.13 853.74,-435.02 792.03,-424.1"/>
<polygon fill="midnightblue" stroke="midnightblue" points="792.52,-420.63 782.06,-422.33 791.3,-427.52 792.52,-420.63"/>
</g>
<!-- Node30 -->
<g id="node30" class="node">
<title>Node30</title>
<g id="a_node30"><a xlink:href="Transform_8hpp.html" target="_top" xlink:title=" ">
<polygon fill="white" stroke="black" points="1068,-347.5 1068,-366.5 1154,-366.5 1154,-347.5 1068,-347.5"/>
<text text-anchor="middle" x="1111" y="-354.5" font-family="Helvetica,sans-Serif" font-size="10.00">Transform.hpp</text>
</a>
</g>
</g>
<!-- Node22&#45;&gt;Node30 -->
<g id="edge58" class="edge">
<title>Node22&#45;&gt;Node30</title>
<path fill="none" stroke="midnightblue" d="M1045.57,-459.37C1057.24,-441.3 1084.42,-399.18 1099.83,-375.31"/>
<polygon fill="midnightblue" stroke="midnightblue" points="1102.97,-376.89 1105.45,-366.59 1097.09,-373.1 1102.97,-376.89"/>
</g>
<!-- Node31 -->
<g id="node31" class="node">
<title>Node31</title>
<g id="a_node31"><a xlink:href="Circle_8hpp.html" target="_top" xlink:title=" ">
<polygon fill="white" stroke="black" points="1381.5,-403.5 1381.5,-422.5 1446.5,-422.5 1446.5,-403.5 1381.5,-403.5"/>
<text text-anchor="middle" x="1414" y="-410.5" font-family="Helvetica,sans-Serif" font-size="10.00">Circle.hpp</text>
</a>
</g>
</g>
<!-- Node22&#45;&gt;Node31 -->
<g id="edge62" class="edge">
<title>Node22&#45;&gt;Node31</title>
<path fill="none" stroke="midnightblue" d="M1077.23,-462.62C1146.96,-452.56 1296.9,-430.91 1370.89,-420.22"/>
<polygon fill="midnightblue" stroke="midnightblue" points="1371.84,-423.62 1381.24,-418.73 1370.84,-416.7 1371.84,-423.62"/>
</g>
<!-- Node33 -->
<g id="node33" class="node">
<title>Node33</title>
<g id="a_node33"><a xlink:href="Rectangle_8hpp.html" target="_top" xlink:title=" ">
<polygon fill="white" stroke="black" points="1248,-403.5 1248,-422.5 1334,-422.5 1334,-403.5 1248,-403.5"/>
<text text-anchor="middle" x="1291" y="-410.5" font-family="Helvetica,sans-Serif" font-size="10.00">Rectangle.hpp</text>
</a>
</g>
</g>
<!-- Node22&#45;&gt;Node33 -->
<g id="edge69" class="edge">
<title>Node22&#45;&gt;Node33</title>
<path fill="none" stroke="midnightblue" d="M1077.04,-460.03C1120.58,-450.66 1193.02,-435.08 1241.39,-424.67"/>
<polygon fill="midnightblue" stroke="midnightblue" points="1242.28,-428.06 1251.32,-422.54 1240.81,-421.22 1242.28,-428.06"/>
</g>
<!-- Node23&#45;&gt;Node15 -->
<g id="edge39" class="edge">
<title>Node23&#45;&gt;Node15</title>
<path fill="none" stroke="midnightblue" d="M1229.59,-291.44C1235.01,-282.67 1242.99,-268.45 1247,-255 1263.59,-199.34 1266.06,-130.02 1266.2,-97.09"/>
<polygon fill="midnightblue" stroke="midnightblue" points="1269.7,-96.68 1266.17,-86.69 1262.7,-96.7 1269.7,-96.68"/>
</g>
<!-- Node24 -->
<g id="node24" class="node">
<title>Node24</title>
<g id="a_node24"><a xlink:title=" ">
<polygon fill="white" stroke="#bfbfbf" points="1359.5,-235.5 1359.5,-254.5 1412.5,-254.5 1412.5,-235.5 1359.5,-235.5"/>
<text text-anchor="middle" x="1386" y="-242.5" font-family="Helvetica,sans-Serif" font-size="10.00">raylib.h</text>
</a>
</g>
</g>
<!-- Node23&#45;&gt;Node24 -->
<g id="edge38" class="edge">
<title>Node23&#45;&gt;Node24</title>
<path fill="none" stroke="midnightblue" d="M1249.67,-291.44C1276.92,-282.36 1320.18,-267.94 1350.65,-257.78"/>
<polygon fill="midnightblue" stroke="midnightblue" points="1352.07,-261 1360.45,-254.52 1349.86,-254.36 1352.07,-261"/>
</g>
<!-- Node25 -->
<g id="node25" class="node">
<title>Node25</title>
<g id="a_node25"><a xlink:title=" ">
<polygon fill="white" stroke="#bfbfbf" points="1294.5,-235.5 1294.5,-254.5 1341.5,-254.5 1341.5,-235.5 1294.5,-235.5"/>
<text text-anchor="middle" x="1318" y="-242.5" font-family="Helvetica,sans-Serif" font-size="10.00">cmath</text>
</a>
</g>
</g>
<!-- Node23&#45;&gt;Node25 -->
<g id="edge40" class="edge">
<title>Node23&#45;&gt;Node25</title>
<path fill="none" stroke="midnightblue" d="M1239.1,-291.32C1253.9,-282.82 1276.69,-269.73 1293.98,-259.8"/>
<polygon fill="midnightblue" stroke="midnightblue" points="1296.01,-262.67 1302.93,-254.65 1292.52,-256.6 1296.01,-262.67"/>
</g>
<!-- Node26 -->
<g id="node26" class="node">
<title>Node26</title>
<g id="a_node26"><a xlink:title=" ">
<polygon fill="white" stroke="#bfbfbf" points="1182,-235.5 1182,-254.5 1238,-254.5 1238,-235.5 1182,-235.5"/>
<text text-anchor="middle" x="1210" y="-242.5" font-family="Helvetica,sans-Serif" font-size="10.00">sstream</text>
</a>
</g>
</g>
<!-- Node23&#45;&gt;Node26 -->
<g id="edge41" class="edge">
<title>Node23&#45;&gt;Node26</title>
<path fill="none" stroke="midnightblue" d="M1221.69,-291.08C1219.83,-283.93 1217.16,-273.64 1214.85,-264.69"/>
<polygon fill="midnightblue" stroke="midnightblue" points="1218.17,-263.55 1212.27,-254.75 1211.39,-265.31 1218.17,-263.55"/>
</g>
<!-- Node27&#45;&gt;Node4 -->
<g id="edge48" class="edge">
<title>Node27&#45;&gt;Node4</title>
<path fill="none" stroke="midnightblue" d="M687.61,-410.15C568.82,-405.2 260.74,-390.46 161,-367 85.88,-349.33 0,-379.17 0,-302 0,-302 0,-302 0,-244 0,-205.55 30.43,-169.31 50.58,-149.54"/>
<polygon fill="midnightblue" stroke="midnightblue" points="53.1,-151.98 57.97,-142.57 48.29,-146.89 53.1,-151.98"/>
</g>
<!-- Node27&#45;&gt;Node9 -->
<g id="edge47" class="edge">
<title>Node27&#45;&gt;Node9</title>
<path fill="none" stroke="midnightblue" d="M741.57,-403.26C762.18,-375.29 825.82,-284.85 853,-199 857.77,-183.94 859.42,-166.03 859.94,-152.83"/>
<polygon fill="midnightblue" stroke="midnightblue" points="863.44,-152.7 860.15,-142.63 856.44,-152.56 863.44,-152.7"/>
</g>
<!-- Node27&#45;&gt;Node19 -->
<g id="edge49" class="edge">
<title>Node27&#45;&gt;Node19</title>
<path fill="none" stroke="midnightblue" d="M717.84,-403.4C704.07,-395.67 685.25,-383.06 674,-367 638.89,-316.9 671.69,-283.95 635,-235 601.42,-190.2 541.66,-159.87 506.35,-144.88"/>
<polygon fill="midnightblue" stroke="midnightblue" points="507.66,-141.64 497.08,-141.06 505,-148.11 507.66,-141.64"/>
</g>
<!-- Node27&#45;&gt;Node20 -->
<g id="edge57" class="edge">
<title>Node27&#45;&gt;Node20</title>
<path fill="none" stroke="midnightblue" d="M736.36,-403.38C737.79,-394.32 740.08,-379.66 742,-367 750.69,-309.56 760.56,-241.58 765.25,-209.11"/>
<polygon fill="midnightblue" stroke="midnightblue" points="768.76,-209.24 766.73,-198.84 761.84,-208.24 768.76,-209.24"/>
</g>
<!-- Node28 -->
<g id="node28" class="node">
<title>Node28</title>
<g id="a_node28"><a xlink:title=" ">
<polygon fill="white" stroke="#bfbfbf" points="683,-347.5 683,-366.5 733,-366.5 733,-347.5 683,-347.5"/>
<text text-anchor="middle" x="708" y="-354.5" font-family="Helvetica,sans-Serif" font-size="10.00">chrono</text>
</a>
</g>
</g>
<!-- Node27&#45;&gt;Node28 -->
<g id="edge46" class="edge">
<title>Node27&#45;&gt;Node28</title>
<path fill="none" stroke="midnightblue" d="M730.54,-403.08C726.85,-395.69 721.48,-384.95 716.91,-375.81"/>
<polygon fill="midnightblue" stroke="midnightblue" points="719.98,-374.13 712.38,-366.75 713.72,-377.26 719.98,-374.13"/>
</g>
<!-- Node29 -->
<g id="node29" class="node">
<title>Node29</title>
<g id="a_node29"><a xlink:href="SystemManager_8hpp.html" target="_top" xlink:title=" ">
<polygon fill="white" stroke="black" points="170,-347.5 170,-366.5 286,-366.5 286,-347.5 170,-347.5"/>
<text text-anchor="middle" x="228" y="-354.5" font-family="Helvetica,sans-Serif" font-size="10.00">SystemManager.hpp</text>
</a>
</g>
</g>
<!-- Node27&#45;&gt;Node29 -->
<g id="edge50" class="edge">
<title>Node27&#45;&gt;Node29</title>
<path fill="none" stroke="midnightblue" d="M687.76,-406.97C597.59,-397.36 400.66,-376.39 296.21,-365.27"/>
<polygon fill="midnightblue" stroke="midnightblue" points="296.41,-361.77 286.09,-364.19 295.67,-368.73 296.41,-361.77"/>
</g>
<!-- Node29&#45;&gt;Node3 -->
<g id="edge55" class="edge">
<title>Node29&#45;&gt;Node3</title>
<path fill="none" stroke="midnightblue" d="M272.68,-347.44C323.46,-337.72 406.15,-321.89 459.3,-311.71"/>
<polygon fill="midnightblue" stroke="midnightblue" points="460.02,-315.13 469.19,-309.82 458.71,-308.26 460.02,-315.13"/>
</g>
<!-- Node29&#45;&gt;Node4 -->
<g id="edge53" class="edge">
<title>Node29&#45;&gt;Node4</title>
<path fill="none" stroke="midnightblue" d="M221.73,-347.3C197.89,-314.22 112.62,-195.91 80.43,-151.24"/>
<polygon fill="midnightblue" stroke="midnightblue" points="83.09,-148.95 74.4,-142.88 77.41,-153.04 83.09,-148.95"/>
</g>
<!-- Node29&#45;&gt;Node8 -->
<g id="edge54" class="edge">
<title>Node29&#45;&gt;Node8</title>
<path fill="none" stroke="midnightblue" d="M230.58,-347.43C239.06,-320.33 268.24,-234.97 315,-179 325.22,-166.77 339.43,-156.04 351.56,-148.12"/>
<polygon fill="midnightblue" stroke="midnightblue" points="353.7,-150.91 360.33,-142.65 349.99,-144.97 353.7,-150.91"/>
</g>
<!-- Node29&#45;&gt;Node9 -->
<g id="edge51" class="edge">
<title>Node29&#45;&gt;Node9</title>
<path fill="none" stroke="midnightblue" d="M286.29,-352.59C353.11,-347.65 465.48,-336.17 559,-311 685.25,-277.03 737.22,-290.09 831,-199 844,-186.38 851.62,-166.89 855.76,-152.54"/>
<polygon fill="midnightblue" stroke="midnightblue" points="859.17,-153.33 858.28,-142.77 852.39,-151.58 859.17,-153.33"/>
</g>
<!-- Node29&#45;&gt;Node10 -->
<g id="edge52" class="edge">
<title>Node29&#45;&gt;Node10</title>
<path fill="none" stroke="midnightblue" d="M222.66,-347.36C217.43,-338.53 209.6,-324.26 205,-311 185.63,-255.14 175.79,-185.43 171.97,-152.66"/>
<polygon fill="midnightblue" stroke="midnightblue" points="175.44,-152.25 170.86,-142.7 168.48,-153.02 175.44,-152.25"/>
</g>
<!-- Node29&#45;&gt;Node11 -->
<g id="edge56" class="edge">
<title>Node29&#45;&gt;Node11</title>
<path fill="none" stroke="midnightblue" d="M224.49,-347.38C214.26,-320.82 186.83,-238.44 214,-179 219.78,-166.36 231.05,-155.91 241.63,-148.27"/>
<polygon fill="midnightblue" stroke="midnightblue" points="243.85,-151 250.22,-142.53 239.96,-145.18 243.85,-151"/>
</g>
<!-- Node30&#45;&gt;Node7 -->
<g id="edge59" class="edge">
<title>Node30&#45;&gt;Node7</title>
<path fill="none" stroke="midnightblue" d="M1111.9,-347.3C1115.29,-314.63 1127.28,-198.87 1132.04,-152.96"/>
<polygon fill="midnightblue" stroke="midnightblue" points="1135.53,-153.19 1133.08,-142.88 1128.57,-152.47 1135.53,-153.19"/>
</g>
<!-- Node30&#45;&gt;Node13 -->
<g id="edge60" class="edge">
<title>Node30&#45;&gt;Node13</title>
<path fill="none" stroke="midnightblue" d="M1108.48,-347.46C1100.84,-321.77 1077.1,-243.08 1054,-179 1050.75,-169.98 1046.83,-160.08 1043.48,-151.87"/>
<polygon fill="midnightblue" stroke="midnightblue" points="1046.68,-150.46 1039.63,-142.56 1040.21,-153.14 1046.68,-150.46"/>
</g>
<!-- Node30&#45;&gt;Node23 -->
<g id="edge61" class="edge">
<title>Node30&#45;&gt;Node23</title>
<path fill="none" stroke="midnightblue" d="M1128.91,-347.44C1147.25,-338.68 1176.01,-324.94 1197.09,-314.86"/>
<polygon fill="midnightblue" stroke="midnightblue" points="1198.67,-317.99 1206.18,-310.52 1195.65,-311.67 1198.67,-317.99"/>
</g>
<!-- Node31&#45;&gt;Node24 -->
<g id="edge63" class="edge">
<title>Node31&#45;&gt;Node24</title>
<path fill="none" stroke="midnightblue" d="M1427.79,-403.19C1438.83,-395.24 1453.5,-382.45 1460,-367 1463.45,-358.81 1462.76,-355.45 1460,-347 1448.76,-312.63 1420.87,-280.27 1402.72,-261.83"/>
<polygon fill="midnightblue" stroke="midnightblue" points="1404.97,-259.13 1395.39,-254.6 1400.05,-264.11 1404.97,-259.13"/>
</g>
<!-- Node32 -->
<g id="node32" class="node">
<title>Node32</title>
<g id="a_node32"><a xlink:href="Vector2_8hpp.html" target="_top" xlink:title=" ">
<polygon fill="white" stroke="black" points="1377,-347.5 1377,-366.5 1451,-366.5 1451,-347.5 1377,-347.5"/>
<text text-anchor="middle" x="1414" y="-354.5" font-family="Helvetica,sans-Serif" font-size="10.00">Vector2.hpp</text>
</a>
</g>
</g>
<!-- Node31&#45;&gt;Node32 -->
<g id="edge64" class="edge">
<title>Node31&#45;&gt;Node32</title>
<path fill="none" stroke="midnightblue" d="M1414,-403.08C1414,-396.01 1414,-385.86 1414,-376.99"/>
<polygon fill="midnightblue" stroke="midnightblue" points="1417.5,-376.75 1414,-366.75 1410.5,-376.75 1417.5,-376.75"/>
</g>
<!-- Node32&#45;&gt;Node15 -->
<g id="edge68" class="edge">
<title>Node32&#45;&gt;Node15</title>
<path fill="none" stroke="midnightblue" d="M1417.64,-347.34C1425.01,-329 1441,-284.74 1441,-246 1441,-246 1441,-246 1441,-188 1441,-131.31 1374.37,-102.7 1323.33,-89.1"/>
<polygon fill="midnightblue" stroke="midnightblue" points="1323.91,-85.64 1313.36,-86.58 1322.19,-92.42 1323.91,-85.64"/>
</g>
<!-- Node32&#45;&gt;Node23 -->
<g id="edge67" class="edge">
<title>Node32&#45;&gt;Node23</title>
<path fill="none" stroke="midnightblue" d="M1383.89,-347.44C1351.37,-338.2 1299.42,-323.44 1263.61,-313.26"/>
<polygon fill="midnightblue" stroke="midnightblue" points="1264.54,-309.88 1253.97,-310.52 1262.63,-316.62 1264.54,-309.88"/>
</g>
<!-- Node32&#45;&gt;Node24 -->
<g id="edge65" class="edge">
<title>Node32&#45;&gt;Node24</title>
<path fill="none" stroke="midnightblue" d="M1411.8,-347.37C1407.28,-329.62 1396.86,-288.67 1390.73,-264.6"/>
<polygon fill="midnightblue" stroke="midnightblue" points="1394.05,-263.42 1388.19,-254.59 1387.26,-265.15 1394.05,-263.42"/>
</g>
<!-- Node32&#45;&gt;Node25 -->
<g id="edge66" class="edge">
<title>Node32&#45;&gt;Node25</title>
<path fill="none" stroke="midnightblue" d="M1406.47,-347.37C1390.48,-329.05 1352.95,-286.05 1332.28,-262.36"/>
<polygon fill="midnightblue" stroke="midnightblue" points="1334.71,-259.82 1325.5,-254.59 1329.44,-264.43 1334.71,-259.82"/>
</g>
<!-- Node33&#45;&gt;Node24 -->
<g id="edge70" class="edge">
<title>Node33&#45;&gt;Node24</title>
<path fill="none" stroke="midnightblue" d="M1299.87,-403.3C1308.36,-394.64 1321.13,-380.72 1330,-367 1352.11,-332.79 1370.28,-288.44 1379.48,-264.06"/>
<polygon fill="midnightblue" stroke="midnightblue" points="1382.78,-265.23 1382.96,-254.64 1376.21,-262.81 1382.78,-265.23"/>
</g>
<!-- Node34 -->
<g id="node34" class="node">
<title>Node34</title>
<g id="a_node34"><a xlink:href="Color_8hpp.html" target="_top" xlink:title=" ">
<polygon fill="white" stroke="black" points="1259,-347.5 1259,-366.5 1321,-366.5 1321,-347.5 1259,-347.5"/>
<text text-anchor="middle" x="1290" y="-354.5" font-family="Helvetica,sans-Serif" font-size="10.00">Color.hpp</text>
</a>
</g>
</g>
<!-- Node33&#45;&gt;Node34 -->
<g id="edge71" class="edge">
<title>Node33&#45;&gt;Node34</title>
<path fill="none" stroke="midnightblue" d="M1290.83,-403.08C1290.7,-396.01 1290.52,-385.86 1290.35,-376.99"/>
<polygon fill="midnightblue" stroke="midnightblue" points="1293.85,-376.68 1290.16,-366.75 1286.85,-376.81 1293.85,-376.68"/>
</g>
<!-- Node34&#45;&gt;Node23 -->
<g id="edge73" class="edge">
<title>Node34&#45;&gt;Node23</title>
<path fill="none" stroke="midnightblue" d="M1279.4,-347.32C1269.54,-339.26 1254.65,-327.08 1242.78,-317.37"/>
<polygon fill="midnightblue" stroke="midnightblue" points="1244.75,-314.46 1234.8,-310.83 1240.32,-319.88 1244.75,-314.46"/>
</g>
<!-- Node34&#45;&gt;Node24 -->
<g id="edge72" class="edge">
<title>Node34&#45;&gt;Node24</title>
<path fill="none" stroke="midnightblue" d="M1297.53,-347.37C1313.52,-329.05 1351.05,-286.05 1371.72,-262.36"/>
<polygon fill="midnightblue" stroke="midnightblue" points="1374.56,-264.43 1378.5,-254.59 1369.29,-259.82 1374.56,-264.43"/>
</g>
</g>
</svg>
