<?xml version="1.0" encoding="UTF-8" standalone="no"?>
<!DOCTYPE svg PUBLIC "-//W3C//DTD SVG 1.1//EN"
 "http://www.w3.org/Graphics/SVG/1.1/DTD/svg11.dtd">
<!-- Generated by graphviz version 2.43.0 (0)
 -->
<!-- Title: Libs/Engine/sources/Components/Collider/Collider.hpp Pages: 1 -->
<svg width="1445pt" height="509pt"
 viewBox="0.00 0.00 1445.38 509.00" xmlns="http://www.w3.org/2000/svg" xmlns:xlink="http://www.w3.org/1999/xlink">
<g id="graph0" class="graph" transform="scale(1 1) rotate(0) translate(4 505)">
<title>Libs/Engine/sources/Components/Collider/Collider.hpp</title>
<polygon fill="white" stroke="transparent" points="-4,4 -4,-505 1441.38,-505 1441.38,4 -4,4"/>
<!-- Node1 -->
<g id="node1" class="node">
<title>Node1</title>
<g id="a_node1"><a xlink:title=" ">
<polygon fill="#bfbfbf" stroke="black" points="423.5,-459.5 423.5,-500.5 545.5,-500.5 545.5,-459.5 423.5,-459.5"/>
<text text-anchor="start" x="431.5" y="-488.5" font-family="Helvetica,sans-Serif" font-size="10.00">Libs/Engine/sources</text>
<text text-anchor="start" x="431.5" y="-477.5" font-family="Helvetica,sans-Serif" font-size="10.00">/Components/Collider</text>
<text text-anchor="middle" x="484.5" y="-466.5" font-family="Helvetica,sans-Serif" font-size="10.00">/Collider.hpp</text>
</a>
</g>
</g>
<!-- Node2 -->
<g id="node2" class="node">
<title>Node2</title>
<g id="a_node2"><a xlink:title=" ">
<polygon fill="white" stroke="#bfbfbf" points="199.5,-123.5 199.5,-142.5 261.5,-142.5 261.5,-123.5 199.5,-123.5"/>
<text text-anchor="middle" x="230.5" y="-130.5" font-family="Helvetica,sans-Serif" font-size="10.00">cinttypes</text>
</a>
</g>
</g>
<!-- Node1&#45;&gt;Node2 -->
<g id="edge1" class="edge">
<title>Node1&#45;&gt;Node2</title>
<path fill="none" stroke="midnightblue" d="M423.18,-473.19C311.54,-460.9 86.5,-427.51 86.5,-358 86.5,-358 86.5,-358 86.5,-244 86.5,-191.76 147.09,-161.01 189.67,-145.85"/>
<polygon fill="midnightblue" stroke="midnightblue" points="190.91,-149.12 199.25,-142.58 188.66,-142.49 190.91,-149.12"/>
</g>
<!-- Node3 -->
<g id="node3" class="node">
<title>Node3</title>
<g id="a_node3"><a xlink:href="IComponent_8hpp.html" target="_top" xlink:title=" ">
<polygon fill="white" stroke="black" points="364,-123.5 364,-142.5 461,-142.5 461,-123.5 364,-123.5"/>
<text text-anchor="middle" x="412.5" y="-130.5" font-family="Helvetica,sans-Serif" font-size="10.00">IComponent.hpp</text>
</a>
</g>
</g>
<!-- Node1&#45;&gt;Node3 -->
<g id="edge2" class="edge">
<title>Node1&#45;&gt;Node3</title>
<path fill="none" stroke="midnightblue" d="M492.01,-459.37C495.67,-448.77 499.67,-435.36 501.5,-423 502.81,-414.21 502.39,-411.84 501.5,-403 493.91,-327.2 493.56,-306.58 467.5,-235 456.17,-203.88 436.43,-170.69 423.94,-151.17"/>
<polygon fill="midnightblue" stroke="midnightblue" points="426.85,-149.23 418.46,-142.76 420.99,-153.05 426.85,-149.23"/>
</g>
<!-- Node9 -->
<g id="node9" class="node">
<title>Node9</title>
<g id="a_node9"><a xlink:href="Vector3_8hpp.html" target="_top" xlink:title=" ">
<polygon fill="white" stroke="black" points="228.5,-291.5 228.5,-310.5 302.5,-310.5 302.5,-291.5 228.5,-291.5"/>
<text text-anchor="middle" x="265.5" y="-298.5" font-family="Helvetica,sans-Serif" font-size="10.00">Vector3.hpp</text>
</a>
</g>
</g>
<!-- Node1&#45;&gt;Node9 -->
<g id="edge9" class="edge">
<title>Node1&#45;&gt;Node9</title>
<path fill="none" stroke="midnightblue" d="M423.21,-465.83C389.34,-456.9 347.39,-443.02 313.5,-423 282.1,-404.44 268.04,-400.45 253.5,-367 247,-352.05 251.41,-333.68 256.62,-320.29"/>
<polygon fill="midnightblue" stroke="midnightblue" points="259.98,-321.34 260.78,-310.78 253.57,-318.54 259.98,-321.34"/>
</g>
<!-- Node13 -->
<g id="node13" class="node">
<title>Node13</title>
<g id="a_node13"><a xlink:title=" ">
<polygon fill="white" stroke="#bfbfbf" points="807,-123.5 807,-142.5 854,-142.5 854,-123.5 807,-123.5"/>
<text text-anchor="middle" x="830.5" y="-130.5" font-family="Helvetica,sans-Serif" font-size="10.00">vector</text>
</a>
</g>
</g>
<!-- Node1&#45;&gt;Node13 -->
<g id="edge14" class="edge">
<title>Node1&#45;&gt;Node13</title>
<path fill="none" stroke="midnightblue" d="M544.81,-459.46C588.71,-441.02 640.5,-408.56 640.5,-358 640.5,-358 640.5,-358 640.5,-300 640.5,-217.73 742.76,-166.83 797.24,-145.55"/>
<polygon fill="midnightblue" stroke="midnightblue" points="798.71,-148.73 806.82,-141.92 796.23,-142.19 798.71,-148.73"/>
</g>
<!-- Node14 -->
<g id="node14" class="node">
<title>Node14</title>
<g id="a_node14"><a xlink:title=" ">
<polygon fill="white" stroke="#bfbfbf" points="706.5,-123.5 706.5,-142.5 764.5,-142.5 764.5,-123.5 706.5,-123.5"/>
<text text-anchor="middle" x="735.5" y="-130.5" font-family="Helvetica,sans-Serif" font-size="10.00">memory</text>
</a>
</g>
</g>
<!-- Node1&#45;&gt;Node14 -->
<g id="edge15" class="edge">
<title>Node1&#45;&gt;Node14</title>
<path fill="none" stroke="midnightblue" d="M505.9,-459.4C527.76,-437.15 558.5,-398.63 558.5,-358 558.5,-358 558.5,-358 558.5,-300 558.5,-245.09 499.15,-221.84 533.5,-179 553.52,-154.03 643.47,-142.02 696.35,-137.03"/>
<polygon fill="midnightblue" stroke="midnightblue" points="696.76,-140.51 706.4,-136.12 696.13,-133.53 696.76,-140.51"/>
</g>
<!-- Node15 -->
<g id="node15" class="node">
<title>Node15</title>
<g id="a_node15"><a xlink:href="Entity_8hpp.html" target="_top" xlink:title=" ">
<polygon fill="white" stroke="black" points="798,-235.5 798,-254.5 863,-254.5 863,-235.5 798,-235.5"/>
<text text-anchor="middle" x="830.5" y="-242.5" font-family="Helvetica,sans-Serif" font-size="10.00">Entity.hpp</text>
</a>
</g>
</g>
<!-- Node1&#45;&gt;Node15 -->
<g id="edge16" class="edge">
<title>Node1&#45;&gt;Node15</title>
<path fill="none" stroke="midnightblue" d="M545.72,-466.26C579.48,-457.46 621.19,-443.57 654.5,-423 726.93,-378.27 791.84,-297.96 818.12,-263.02"/>
<polygon fill="midnightblue" stroke="midnightblue" points="821.07,-264.91 824.21,-254.79 815.45,-260.74 821.07,-264.91"/>
</g>
<!-- Node24 -->
<g id="node24" class="node">
<title>Node24</title>
<g id="a_node24"><a xlink:href="Coordinator_8hpp.html" target="_top" xlink:title=" ">
<polygon fill="white" stroke="black" points="1098.5,-403.5 1098.5,-422.5 1192.5,-422.5 1192.5,-403.5 1098.5,-403.5"/>
<text text-anchor="middle" x="1145.5" y="-410.5" font-family="Helvetica,sans-Serif" font-size="10.00">Coordinator.hpp</text>
</a>
</g>
</g>
<!-- Node1&#45;&gt;Node24 -->
<g id="edge38" class="edge">
<title>Node1&#45;&gt;Node24</title>
<path fill="none" stroke="midnightblue" d="M545.5,-473C672.64,-460.5 964.43,-431.81 1088.26,-419.63"/>
<polygon fill="midnightblue" stroke="midnightblue" points="1088.68,-423.1 1098.29,-418.64 1088,-416.14 1088.68,-423.1"/>
</g>
<!-- Node28 -->
<g id="node28" class="node">
<title>Node28</title>
<g id="a_node28"><a xlink:href="Transform_8hpp.html" target="_top" xlink:title=" ">
<polygon fill="white" stroke="black" points="120.5,-347.5 120.5,-366.5 206.5,-366.5 206.5,-347.5 120.5,-347.5"/>
<text text-anchor="middle" x="163.5" y="-354.5" font-family="Helvetica,sans-Serif" font-size="10.00">Transform.hpp</text>
</a>
</g>
</g>
<!-- Node1&#45;&gt;Node28 -->
<g id="edge54" class="edge">
<title>Node1&#45;&gt;Node28</title>
<path fill="none" stroke="midnightblue" d="M423.45,-476.91C367.26,-472.58 283.36,-459.83 220.5,-423 200.74,-411.42 184.29,-390.56 174.22,-375.59"/>
<polygon fill="midnightblue" stroke="midnightblue" points="176.9,-373.28 168.55,-366.76 171.01,-377.06 176.9,-373.28"/>
</g>
<!-- Node29 -->
<g id="node29" class="node">
<title>Node29</title>
<g id="a_node29"><a xlink:href="Circle_8hpp.html" target="_top" xlink:title=" ">
<polygon fill="white" stroke="black" points="323,-403.5 323,-422.5 388,-422.5 388,-403.5 323,-403.5"/>
<text text-anchor="middle" x="355.5" y="-410.5" font-family="Helvetica,sans-Serif" font-size="10.00">Circle.hpp</text>
</a>
</g>
</g>
<!-- Node1&#45;&gt;Node29 -->
<g id="edge58" class="edge">
<title>Node1&#45;&gt;Node29</title>
<path fill="none" stroke="midnightblue" d="M445.8,-459.5C425.07,-449.05 400.08,-436.46 381.65,-427.18"/>
<polygon fill="midnightblue" stroke="midnightblue" points="383.18,-424.03 372.67,-422.65 380.03,-430.28 383.18,-424.03"/>
</g>
<!-- Node31 -->
<g id="node31" class="node">
<title>Node31</title>
<g id="a_node31"><a xlink:href="Rectangle_8hpp.html" target="_top" xlink:title=" ">
<polygon fill="white" stroke="black" points="406.5,-403.5 406.5,-422.5 492.5,-422.5 492.5,-403.5 406.5,-403.5"/>
<text text-anchor="middle" x="449.5" y="-410.5" font-family="Helvetica,sans-Serif" font-size="10.00">Rectangle.hpp</text>
</a>
</g>
</g>
<!-- Node1&#45;&gt;Node31 -->
<g id="edge65" class="edge">
<title>Node1&#45;&gt;Node31</title>
<path fill="none" stroke="midnightblue" d="M474,-459.5C469.2,-450.59 463.56,-440.11 458.9,-431.46"/>
<polygon fill="midnightblue" stroke="midnightblue" points="461.98,-429.8 454.16,-422.65 455.82,-433.12 461.98,-429.8"/>
</g>
<!-- Node4 -->
<g id="node4" class="node">
<title>Node4</title>
<g id="a_node4"><a xlink:title=" ">
<polygon fill="white" stroke="#bfbfbf" points="353,-6 353,-25 410,-25 410,-6 353,-6"/>
<text text-anchor="middle" x="381.5" y="-13" font-family="Helvetica,sans-Serif" font-size="10.00">ostream</text>
</a>
</g>
</g>
<!-- Node3&#45;&gt;Node4 -->
<g id="edge3" class="edge">
<title>Node3&#45;&gt;Node4</title>
<path fill="none" stroke="midnightblue" d="M410.17,-123.32C405.17,-104.67 393.29,-60.44 386.5,-35.13"/>
<polygon fill="midnightblue" stroke="midnightblue" points="389.83,-34.03 383.86,-25.28 383.07,-35.85 389.83,-34.03"/>
</g>
<!-- Node5 -->
<g id="node5" class="node">
<title>Node5</title>
<g id="a_node5"><a xlink:href="IXMLSerializable_8hpp.html" target="_top" xlink:title=" ">
<polygon fill="white" stroke="black" points="128,-67.5 128,-86.5 247,-86.5 247,-67.5 128,-67.5"/>
<text text-anchor="middle" x="187.5" y="-74.5" font-family="Helvetica,sans-Serif" font-size="10.00">IXMLSerializable.hpp</text>
</a>
</g>
</g>
<!-- Node3&#45;&gt;Node5 -->
<g id="edge4" class="edge">
<title>Node3&#45;&gt;Node5</title>
<path fill="none" stroke="midnightblue" d="M376.85,-123.44C337.84,-114.08 275.23,-99.06 232.78,-88.87"/>
<polygon fill="midnightblue" stroke="midnightblue" points="233.53,-85.45 222.99,-86.52 231.89,-92.25 233.53,-85.45"/>
</g>
<!-- Node5&#45;&gt;Node4 -->
<g id="edge5" class="edge">
<title>Node5&#45;&gt;Node4</title>
<path fill="none" stroke="midnightblue" d="M215.3,-67.48C249.15,-57.09 306.47,-39.51 344.15,-27.95"/>
<polygon fill="midnightblue" stroke="midnightblue" points="345.22,-31.29 353.76,-25.01 343.17,-24.6 345.22,-31.29"/>
</g>
<!-- Node6 -->
<g id="node6" class="node">
<title>Node6</title>
<g id="a_node6"><a xlink:title=" ">
<polygon fill="white" stroke="#bfbfbf" points="262.5,-6 262.5,-25 322.5,-25 322.5,-6 262.5,-6"/>
<text text-anchor="middle" x="292.5" y="-13" font-family="Helvetica,sans-Serif" font-size="10.00">iostream</text>
</a>
</g>
</g>
<!-- Node5&#45;&gt;Node6 -->
<g id="edge6" class="edge">
<title>Node5&#45;&gt;Node6</title>
<path fill="none" stroke="midnightblue" d="M202.54,-67.48C219.78,-57.71 248.24,-41.58 268.53,-30.08"/>
<polygon fill="midnightblue" stroke="midnightblue" points="270.51,-32.98 277.48,-25.01 267.06,-26.89 270.51,-32.98"/>
</g>
<!-- Node7 -->
<g id="node7" class="node">
<title>Node7</title>
<g id="a_node7"><a xlink:title=" ">
<polygon fill="white" stroke="#bfbfbf" points="0,-0.5 0,-30.5 113,-30.5 113,-0.5 0,-0.5"/>
<text text-anchor="start" x="8" y="-18.5" font-family="Helvetica,sans-Serif" font-size="10.00">boost/property_tree</text>
<text text-anchor="middle" x="56.5" y="-7.5" font-family="Helvetica,sans-Serif" font-size="10.00">/ptree.hpp</text>
</a>
</g>
</g>
<!-- Node5&#45;&gt;Node7 -->
<g id="edge7" class="edge">
<title>Node5&#45;&gt;Node7</title>
<path fill="none" stroke="midnightblue" d="M168.73,-67.48C149.99,-58.96 120.61,-45.62 96.61,-34.72"/>
<polygon fill="midnightblue" stroke="midnightblue" points="97.93,-31.47 87.37,-30.52 95.03,-37.85 97.93,-31.47"/>
</g>
<!-- Node8 -->
<g id="node8" class="node">
<title>Node8</title>
<g id="a_node8"><a xlink:title=" ">
<polygon fill="white" stroke="#bfbfbf" points="131,-0.5 131,-30.5 244,-30.5 244,-0.5 131,-0.5"/>
<text text-anchor="start" x="139" y="-18.5" font-family="Helvetica,sans-Serif" font-size="10.00">boost/property_tree</text>
<text text-anchor="middle" x="187.5" y="-7.5" font-family="Helvetica,sans-Serif" font-size="10.00">/xml_parser.hpp</text>
</a>
</g>
</g>
<!-- Node5&#45;&gt;Node8 -->
<g id="edge8" class="edge">
<title>Node5&#45;&gt;Node8</title>
<path fill="none" stroke="midnightblue" d="M187.5,-67.48C187.5,-60.47 187.5,-50.19 187.5,-40.7"/>
<polygon fill="midnightblue" stroke="midnightblue" points="191,-40.52 187.5,-30.52 184,-40.52 191,-40.52"/>
</g>
<!-- Node9&#45;&gt;Node5 -->
<g id="edge11" class="edge">
<title>Node9&#45;&gt;Node5</title>
<path fill="none" stroke="midnightblue" d="M259.77,-291.28C244.98,-268.24 205.65,-203.36 190.5,-143 186.67,-127.75 186.12,-109.86 186.41,-96.72"/>
<polygon fill="midnightblue" stroke="midnightblue" points="189.92,-96.7 186.83,-86.57 182.92,-96.42 189.92,-96.7"/>
</g>
<!-- Node10 -->
<g id="node10" class="node">
<title>Node10</title>
<g id="a_node10"><a xlink:title=" ">
<polygon fill="white" stroke="#bfbfbf" points="406,-235.5 406,-254.5 459,-254.5 459,-235.5 406,-235.5"/>
<text text-anchor="middle" x="432.5" y="-242.5" font-family="Helvetica,sans-Serif" font-size="10.00">raylib.h</text>
</a>
</g>
</g>
<!-- Node9&#45;&gt;Node10 -->
<g id="edge10" class="edge">
<title>Node9&#45;&gt;Node10</title>
<path fill="none" stroke="midnightblue" d="M291.96,-291.44C320.18,-282.32 365.04,-267.81 396.47,-257.65"/>
<polygon fill="midnightblue" stroke="midnightblue" points="397.72,-260.92 406.16,-254.52 395.57,-254.26 397.72,-260.92"/>
</g>
<!-- Node11 -->
<g id="node11" class="node">
<title>Node11</title>
<g id="a_node11"><a xlink:title=" ">
<polygon fill="white" stroke="#bfbfbf" points="341,-235.5 341,-254.5 388,-254.5 388,-235.5 341,-235.5"/>
<text text-anchor="middle" x="364.5" y="-242.5" font-family="Helvetica,sans-Serif" font-size="10.00">cmath</text>
</a>
</g>
</g>
<!-- Node9&#45;&gt;Node11 -->
<g id="edge12" class="edge">
<title>Node9&#45;&gt;Node11</title>
<path fill="none" stroke="midnightblue" d="M281.41,-291.32C297.14,-282.74 321.44,-269.49 339.71,-259.52"/>
<polygon fill="midnightblue" stroke="midnightblue" points="341.53,-262.52 348.63,-254.65 338.18,-256.37 341.53,-262.52"/>
</g>
<!-- Node12 -->
<g id="node12" class="node">
<title>Node12</title>
<g id="a_node12"><a xlink:title=" ">
<polygon fill="white" stroke="#bfbfbf" points="266.5,-235.5 266.5,-254.5 322.5,-254.5 322.5,-235.5 266.5,-235.5"/>
<text text-anchor="middle" x="294.5" y="-242.5" font-family="Helvetica,sans-Serif" font-size="10.00">sstream</text>
</a>
</g>
</g>
<!-- Node9&#45;&gt;Node12 -->
<g id="edge13" class="edge">
<title>Node9&#45;&gt;Node12</title>
<path fill="none" stroke="midnightblue" d="M270.29,-291.08C274.26,-283.69 280.03,-272.95 284.93,-263.81"/>
<polygon fill="midnightblue" stroke="midnightblue" points="288.15,-265.22 289.8,-254.75 281.99,-261.91 288.15,-265.22"/>
</g>
<!-- Node15&#45;&gt;Node2 -->
<g id="edge17" class="edge">
<title>Node15&#45;&gt;Node2</title>
<path fill="none" stroke="midnightblue" d="M797.85,-241.09C736.23,-235.29 598.71,-220.96 484.5,-199 407.14,-184.13 318.28,-159.65 268.83,-145.36"/>
<polygon fill="midnightblue" stroke="midnightblue" points="269.77,-141.99 259.19,-142.56 267.82,-148.71 269.77,-141.99"/>
</g>
<!-- Node15&#45;&gt;Node3 -->
<g id="edge37" class="edge">
<title>Node15&#45;&gt;Node3</title>
<path fill="none" stroke="midnightblue" d="M797.57,-242.67C741.85,-239.63 626.02,-229.83 533.5,-199 496.15,-186.55 456.66,-163.13 433.31,-148.06"/>
<polygon fill="midnightblue" stroke="midnightblue" points="435.19,-145.11 424.91,-142.55 431.35,-150.96 435.19,-145.11"/>
</g>
<!-- Node15&#45;&gt;Node13 -->
<g id="edge21" class="edge">
<title>Node15&#45;&gt;Node13</title>
<path fill="none" stroke="midnightblue" d="M830.5,-235.37C830.5,-217.62 830.5,-176.67 830.5,-152.6"/>
<polygon fill="midnightblue" stroke="midnightblue" points="834,-152.59 830.5,-142.59 827,-152.59 834,-152.59"/>
</g>
<!-- Node15&#45;&gt;Node14 -->
<g id="edge19" class="edge">
<title>Node15&#45;&gt;Node14</title>
<path fill="none" stroke="midnightblue" d="M823.05,-235.37C807.23,-217.05 770.09,-174.05 749.63,-150.36"/>
<polygon fill="midnightblue" stroke="midnightblue" points="752.1,-147.87 742.92,-142.59 746.81,-152.45 752.1,-147.87"/>
</g>
<!-- Node16 -->
<g id="node16" class="node">
<title>Node16</title>
<g id="a_node16"><a xlink:title=" ">
<polygon fill="white" stroke="#bfbfbf" points="1061,-123.5 1061,-142.5 1154,-142.5 1154,-123.5 1061,-123.5"/>
<text text-anchor="middle" x="1107.5" y="-130.5" font-family="Helvetica,sans-Serif" font-size="10.00">unordered_map</text>
</a>
</g>
</g>
<!-- Node15&#45;&gt;Node16 -->
<g id="edge18" class="edge">
<title>Node15&#45;&gt;Node16</title>
<path fill="none" stroke="midnightblue" d="M863.02,-243.96C931.11,-243.11 1085.04,-236.94 1117.5,-199 1128.49,-186.15 1123.42,-166.42 1117.19,-152.07"/>
<polygon fill="midnightblue" stroke="midnightblue" points="1120.18,-150.21 1112.67,-142.74 1113.89,-153.27 1120.18,-150.21"/>
</g>
<!-- Node17 -->
<g id="node17" class="node">
<title>Node17</title>
<g id="a_node17"><a xlink:title=" ">
<polygon fill="white" stroke="#bfbfbf" points="1172.5,-123.5 1172.5,-142.5 1236.5,-142.5 1236.5,-123.5 1172.5,-123.5"/>
<text text-anchor="middle" x="1204.5" y="-130.5" font-family="Helvetica,sans-Serif" font-size="10.00">algorithm</text>
</a>
</g>
</g>
<!-- Node15&#45;&gt;Node17 -->
<g id="edge20" class="edge">
<title>Node15&#45;&gt;Node17</title>
<path fill="none" stroke="midnightblue" d="M863.17,-241.62C931.46,-236.24 1086.95,-221.83 1134.5,-199 1157.74,-187.84 1178.58,-166.26 1191.35,-151.03"/>
<polygon fill="midnightblue" stroke="midnightblue" points="1194.34,-152.9 1197.9,-142.93 1188.89,-148.51 1194.34,-152.9"/>
</g>
<!-- Node18 -->
<g id="node18" class="node">
<title>Node18</title>
<g id="a_node18"><a xlink:title=" ">
<polygon fill="white" stroke="#bfbfbf" points="899,-123.5 899,-142.5 990,-142.5 990,-123.5 899,-123.5"/>
<text text-anchor="middle" x="944.5" y="-130.5" font-family="Helvetica,sans-Serif" font-size="10.00">Exceptions.hpp</text>
</a>
</g>
</g>
<!-- Node15&#45;&gt;Node18 -->
<g id="edge22" class="edge">
<title>Node15&#45;&gt;Node18</title>
<path fill="none" stroke="midnightblue" d="M839.45,-235.37C858.59,-216.89 903.78,-173.29 928.18,-149.74"/>
<polygon fill="midnightblue" stroke="midnightblue" points="930.83,-152.05 935.6,-142.59 925.97,-147.02 930.83,-152.05"/>
</g>
<!-- Node19 -->
<g id="node19" class="node">
<title>Node19</title>
<g id="a_node19"><a xlink:href="ComponentManager_8hpp.html" target="_top" xlink:title=" ">
<polygon fill="white" stroke="black" points="972.5,-179.5 972.5,-198.5 1108.5,-198.5 1108.5,-179.5 972.5,-179.5"/>
<text text-anchor="middle" x="1040.5" y="-186.5" font-family="Helvetica,sans-Serif" font-size="10.00">ComponentManager.hpp</text>
</a>
</g>
</g>
<!-- Node15&#45;&gt;Node19 -->
<g id="edge23" class="edge">
<title>Node15&#45;&gt;Node19</title>
<path fill="none" stroke="midnightblue" d="M863.31,-235.56C899.47,-226.26 957.76,-211.28 997.54,-201.05"/>
<polygon fill="midnightblue" stroke="midnightblue" points="998.41,-204.44 1007.22,-198.56 996.67,-197.66 998.41,-204.44"/>
</g>
<!-- Node22 -->
<g id="node22" class="node">
<title>Node22</title>
<g id="a_node22"><a xlink:href="EntityManager_8hpp.html" target="_top" xlink:title=" ">
<polygon fill="white" stroke="black" points="542.5,-179.5 542.5,-198.5 650.5,-198.5 650.5,-179.5 542.5,-179.5"/>
<text text-anchor="middle" x="596.5" y="-186.5" font-family="Helvetica,sans-Serif" font-size="10.00">EntityManager.hpp</text>
</a>
</g>
</g>
<!-- Node15&#45;&gt;Node22 -->
<g id="edge32" class="edge">
<title>Node15&#45;&gt;Node22</title>
<path fill="none" stroke="midnightblue" d="M797.96,-236.49C757.8,-227.22 689.21,-211.39 643.37,-200.82"/>
<polygon fill="midnightblue" stroke="midnightblue" points="643.92,-197.35 633.38,-198.51 642.34,-204.17 643.92,-197.35"/>
</g>
<!-- Node19&#45;&gt;Node3 -->
<g id="edge30" class="edge">
<title>Node19&#45;&gt;Node3</title>
<path fill="none" stroke="midnightblue" d="M972.4,-182.14C848.49,-171.49 588.22,-149.11 471.43,-139.07"/>
<polygon fill="midnightblue" stroke="midnightblue" points="471.51,-135.56 461.25,-138.19 470.91,-142.54 471.51,-135.56"/>
</g>
<!-- Node19&#45;&gt;Node13 -->
<g id="edge26" class="edge">
<title>Node19&#45;&gt;Node13</title>
<path fill="none" stroke="midnightblue" d="M1007.22,-179.44C968.05,-169.37 903.36,-152.74 864.06,-142.63"/>
<polygon fill="midnightblue" stroke="midnightblue" points="864.73,-139.19 854.17,-140.09 862.98,-145.97 864.73,-139.19"/>
</g>
<!-- Node19&#45;&gt;Node14 -->
<g id="edge27" class="edge">
<title>Node19&#45;&gt;Node14</title>
<path fill="none" stroke="midnightblue" d="M992.17,-179.44C932.05,-168.8 830.55,-150.83 774.9,-140.98"/>
<polygon fill="midnightblue" stroke="midnightblue" points="775.2,-137.47 764.74,-139.18 773.98,-144.37 775.2,-137.47"/>
</g>
<!-- Node19&#45;&gt;Node16 -->
<g id="edge24" class="edge">
<title>Node19&#45;&gt;Node16</title>
<path fill="none" stroke="midnightblue" d="M1051.26,-179.32C1061.27,-171.26 1076.39,-159.08 1088.43,-149.37"/>
<polygon fill="midnightblue" stroke="midnightblue" points="1090.95,-151.83 1096.54,-142.83 1086.56,-146.38 1090.95,-151.83"/>
</g>
<!-- Node19&#45;&gt;Node17 -->
<g id="edge28" class="edge">
<title>Node19&#45;&gt;Node17</title>
<path fill="none" stroke="midnightblue" d="M1066.49,-179.44C1094.2,-170.32 1138.25,-155.81 1169.12,-145.65"/>
<polygon fill="midnightblue" stroke="midnightblue" points="1170.23,-148.97 1178.64,-142.52 1168.04,-142.32 1170.23,-148.97"/>
</g>
<!-- Node19&#45;&gt;Node18 -->
<g id="edge29" class="edge">
<title>Node19&#45;&gt;Node18</title>
<path fill="none" stroke="midnightblue" d="M1025.08,-179.32C1009.96,-170.82 986.68,-157.73 969.03,-147.8"/>
<polygon fill="midnightblue" stroke="midnightblue" points="970.32,-144.51 959.89,-142.65 966.89,-150.61 970.32,-144.51"/>
</g>
<!-- Node20 -->
<g id="node20" class="node">
<title>Node20</title>
<g id="a_node20"><a xlink:title=" ">
<polygon fill="white" stroke="#bfbfbf" points="1256.5,-123.5 1256.5,-142.5 1300.5,-142.5 1300.5,-123.5 1256.5,-123.5"/>
<text text-anchor="middle" x="1278.5" y="-130.5" font-family="Helvetica,sans-Serif" font-size="10.00">string</text>
</a>
</g>
</g>
<!-- Node19&#45;&gt;Node20 -->
<g id="edge25" class="edge">
<title>Node19&#45;&gt;Node20</title>
<path fill="none" stroke="midnightblue" d="M1082.26,-179.47C1123.79,-170.85 1189.24,-156.84 1245.5,-143 1245.82,-142.92 1246.15,-142.84 1246.48,-142.76"/>
<polygon fill="midnightblue" stroke="midnightblue" points="1247.37,-146.14 1256.17,-140.25 1245.62,-139.37 1247.37,-146.14"/>
</g>
<!-- Node21 -->
<g id="node21" class="node">
<title>Node21</title>
<g id="a_node21"><a xlink:title=" ">
<polygon fill="white" stroke="#bfbfbf" points="1364.5,-123.5 1364.5,-142.5 1402.5,-142.5 1402.5,-123.5 1364.5,-123.5"/>
<text text-anchor="middle" x="1383.5" y="-130.5" font-family="Helvetica,sans-Serif" font-size="10.00">map</text>
</a>
</g>
</g>
<!-- Node19&#45;&gt;Node21 -->
<g id="edge31" class="edge">
<title>Node19&#45;&gt;Node21</title>
<path fill="none" stroke="midnightblue" d="M1094.85,-179.44C1168.32,-167.88 1296.73,-147.66 1354.22,-138.61"/>
<polygon fill="midnightblue" stroke="midnightblue" points="1355.08,-142.02 1364.42,-137 1354,-135.1 1355.08,-142.02"/>
</g>
<!-- Node22&#45;&gt;Node2 -->
<g id="edge34" class="edge">
<title>Node22&#45;&gt;Node2</title>
<path fill="none" stroke="midnightblue" d="M542.5,-180.03C468.69,-169.14 337.95,-149.85 271.59,-140.06"/>
<polygon fill="midnightblue" stroke="midnightblue" points="271.92,-136.57 261.51,-138.58 270.89,-143.5 271.92,-136.57"/>
</g>
<!-- Node22&#45;&gt;Node13 -->
<g id="edge33" class="edge">
<title>Node22&#45;&gt;Node13</title>
<path fill="none" stroke="midnightblue" d="M633.58,-179.44C678.56,-169.06 753.72,-151.72 797.01,-141.73"/>
<polygon fill="midnightblue" stroke="midnightblue" points="797.82,-145.13 806.78,-139.47 796.25,-138.31 797.82,-145.13"/>
</g>
<!-- Node22&#45;&gt;Node14 -->
<g id="edge35" class="edge">
<title>Node22&#45;&gt;Node14</title>
<path fill="none" stroke="midnightblue" d="M618.52,-179.44C641.6,-170.48 678.06,-156.31 704.14,-146.18"/>
<polygon fill="midnightblue" stroke="midnightblue" points="705.52,-149.4 713.58,-142.52 702.99,-142.88 705.52,-149.4"/>
</g>
<!-- Node23 -->
<g id="node23" class="node">
<title>Node23</title>
<g id="a_node23"><a xlink:title=" ">
<polygon fill="white" stroke="#bfbfbf" points="580.5,-123.5 580.5,-142.5 612.5,-142.5 612.5,-123.5 580.5,-123.5"/>
<text text-anchor="middle" x="596.5" y="-130.5" font-family="Helvetica,sans-Serif" font-size="10.00">list</text>
</a>
</g>
</g>
<!-- Node22&#45;&gt;Node23 -->
<g id="edge36" class="edge">
<title>Node22&#45;&gt;Node23</title>
<path fill="none" stroke="midnightblue" d="M596.5,-179.08C596.5,-172.01 596.5,-161.86 596.5,-152.99"/>
<polygon fill="midnightblue" stroke="midnightblue" points="600,-152.75 596.5,-142.75 593,-152.75 600,-152.75"/>
</g>
<!-- Node24&#45;&gt;Node14 -->
<g id="edge40" class="edge">
<title>Node24&#45;&gt;Node14</title>
<path fill="none" stroke="midnightblue" d="M1104.63,-403.47C1043.97,-389.74 927.68,-359.29 838.5,-311 780.85,-279.78 760.05,-262.17 742.5,-199 738.27,-183.78 736.57,-165.89 735.9,-152.73"/>
<polygon fill="midnightblue" stroke="midnightblue" points="739.39,-152.45 735.54,-142.58 732.4,-152.7 739.39,-152.45"/>
</g>
<!-- Node24&#45;&gt;Node20 -->
<g id="edge41" class="edge">
<title>Node24&#45;&gt;Node20</title>
<path fill="none" stroke="midnightblue" d="M1164.96,-403.5C1180.01,-395.97 1200.29,-383.59 1212.5,-367 1262.38,-299.21 1274.61,-194.97 1277.57,-152.73"/>
<polygon fill="midnightblue" stroke="midnightblue" points="1281.07,-152.74 1278.18,-142.55 1274.09,-152.32 1281.07,-152.74"/>
</g>
<!-- Node24&#45;&gt;Node21 -->
<g id="edge42" class="edge">
<title>Node24&#45;&gt;Node21</title>
<path fill="none" stroke="midnightblue" d="M1192.66,-410.12C1261.52,-406.42 1384.95,-395.85 1417.5,-367 1440.02,-347.04 1436.5,-332.1 1436.5,-302 1436.5,-302 1436.5,-302 1436.5,-244 1436.5,-207.99 1413.17,-171.34 1397.46,-150.75"/>
<polygon fill="midnightblue" stroke="midnightblue" points="1400.05,-148.38 1391.09,-142.72 1394.57,-152.73 1400.05,-148.38"/>
</g>
<!-- Node24&#45;&gt;Node22 -->
<g id="edge53" class="edge">
<title>Node24&#45;&gt;Node22</title>
<path fill="none" stroke="midnightblue" d="M1098.22,-409.2C1012.64,-403.63 835.61,-389.71 778.5,-367 696.92,-334.55 632.1,-245.43 607.35,-207.48"/>
<polygon fill="midnightblue" stroke="midnightblue" points="610.03,-205.16 601.7,-198.61 604.12,-208.92 610.03,-205.16"/>
</g>
<!-- Node25 -->
<g id="node25" class="node">
<title>Node25</title>
<g id="a_node25"><a xlink:title=" ">
<polygon fill="white" stroke="#bfbfbf" points="1358.5,-347.5 1358.5,-366.5 1408.5,-366.5 1408.5,-347.5 1358.5,-347.5"/>
<text text-anchor="middle" x="1383.5" y="-354.5" font-family="Helvetica,sans-Serif" font-size="10.00">chrono</text>
</a>
</g>
</g>
<!-- Node24&#45;&gt;Node25 -->
<g id="edge39" class="edge">
<title>Node24&#45;&gt;Node25</title>
<path fill="none" stroke="midnightblue" d="M1183.66,-403.42C1223.73,-394.41 1288.56,-379.78 1344.5,-367 1345.76,-366.71 1347.04,-366.42 1348.33,-366.12"/>
<polygon fill="midnightblue" stroke="midnightblue" points="1349.37,-369.48 1358.33,-363.83 1347.8,-362.65 1349.37,-369.48"/>
</g>
<!-- Node26 -->
<g id="node26" class="node">
<title>Node26</title>
<g id="a_node26"><a xlink:href="SystemManager_8hpp.html" target="_top" xlink:title=" ">
<polygon fill="white" stroke="black" points="1087.5,-347.5 1087.5,-366.5 1203.5,-366.5 1203.5,-347.5 1087.5,-347.5"/>
<text text-anchor="middle" x="1145.5" y="-354.5" font-family="Helvetica,sans-Serif" font-size="10.00">SystemManager.hpp</text>
</a>
</g>
</g>
<!-- Node24&#45;&gt;Node26 -->
<g id="edge43" class="edge">
<title>Node24&#45;&gt;Node26</title>
<path fill="none" stroke="midnightblue" d="M1145.5,-403.08C1145.5,-396.01 1145.5,-385.86 1145.5,-376.99"/>
<polygon fill="midnightblue" stroke="midnightblue" points="1149,-376.75 1145.5,-366.75 1142,-376.75 1149,-376.75"/>
</g>
<!-- Node26&#45;&gt;Node14 -->
<g id="edge44" class="edge">
<title>Node26&#45;&gt;Node14</title>
<path fill="none" stroke="midnightblue" d="M1087.25,-354.94C1009.61,-350.46 872.3,-331.35 788.5,-255 758.09,-227.29 744.28,-179.01 738.73,-152.59"/>
<polygon fill="midnightblue" stroke="midnightblue" points="742.16,-151.88 736.83,-142.72 735.28,-153.2 742.16,-151.88"/>
</g>
<!-- Node26&#45;&gt;Node16 -->
<g id="edge47" class="edge">
<title>Node26&#45;&gt;Node16</title>
<path fill="none" stroke="midnightblue" d="M1146.39,-347.27C1148.75,-321.05 1153.78,-241.04 1134.5,-179 1131.4,-169.01 1125.65,-158.93 1120.25,-150.85"/>
<polygon fill="midnightblue" stroke="midnightblue" points="1123.1,-148.82 1114.46,-142.69 1117.39,-152.87 1123.1,-148.82"/>
</g>
<!-- Node26&#45;&gt;Node17 -->
<g id="edge45" class="edge">
<title>Node26&#45;&gt;Node17</title>
<path fill="none" stroke="midnightblue" d="M1149.09,-347.49C1152.78,-338.52 1158.54,-323.94 1162.5,-311 1179.95,-254 1194.5,-184.83 1200.94,-152.43"/>
<polygon fill="midnightblue" stroke="midnightblue" points="1204.38,-153.06 1202.87,-142.58 1197.51,-151.72 1204.38,-153.06"/>
</g>
<!-- Node26&#45;&gt;Node18 -->
<g id="edge52" class="edge">
<title>Node26&#45;&gt;Node18</title>
<path fill="none" stroke="midnightblue" d="M1133.86,-347.36C1097.57,-320.24 987.55,-236.37 963.5,-199 954.46,-184.94 949.6,-166.45 947.06,-152.78"/>
<polygon fill="midnightblue" stroke="midnightblue" points="950.48,-151.96 945.44,-142.64 943.57,-153.07 950.48,-151.96"/>
</g>
<!-- Node26&#45;&gt;Node20 -->
<g id="edge46" class="edge">
<title>Node26&#45;&gt;Node20</title>
<path fill="none" stroke="midnightblue" d="M1152.39,-347.25C1159.3,-338.34 1170.09,-324.02 1178.5,-311 1214.96,-254.55 1252.5,-184.16 1269.35,-151.79"/>
<polygon fill="midnightblue" stroke="midnightblue" points="1272.57,-153.18 1274.06,-142.69 1266.36,-149.96 1272.57,-153.18"/>
</g>
<!-- Node27 -->
<g id="node27" class="node">
<title>Node27</title>
<g id="a_node27"><a xlink:href="ASystem_8hpp.html" target="_top" xlink:title=" ">
<polygon fill="white" stroke="black" points="966,-291.5 966,-310.5 1047,-310.5 1047,-291.5 966,-291.5"/>
<text text-anchor="middle" x="1006.5" y="-298.5" font-family="Helvetica,sans-Serif" font-size="10.00">ASystem.hpp</text>
</a>
</g>
</g>
<!-- Node26&#45;&gt;Node27 -->
<g id="edge48" class="edge">
<title>Node26&#45;&gt;Node27</title>
<path fill="none" stroke="midnightblue" d="M1123.48,-347.44C1100.4,-338.48 1063.94,-324.31 1037.86,-314.18"/>
<polygon fill="midnightblue" stroke="midnightblue" points="1039.01,-310.88 1028.42,-310.52 1036.48,-317.4 1039.01,-310.88"/>
</g>
<!-- Node27&#45;&gt;Node13 -->
<g id="edge50" class="edge">
<title>Node27&#45;&gt;Node13</title>
<path fill="none" stroke="midnightblue" d="M997.04,-291.08C968.49,-264.15 883,-183.51 846.88,-149.45"/>
<polygon fill="midnightblue" stroke="midnightblue" points="849.26,-146.88 839.58,-142.57 844.46,-151.98 849.26,-146.88"/>
</g>
<!-- Node27&#45;&gt;Node15 -->
<g id="edge51" class="edge">
<title>Node27&#45;&gt;Node15</title>
<path fill="none" stroke="midnightblue" d="M978.61,-291.44C948.75,-282.28 901.19,-267.69 868.04,-257.52"/>
<polygon fill="midnightblue" stroke="midnightblue" points="868.84,-254.1 858.26,-254.52 866.79,-260.8 868.84,-254.1"/>
</g>
<!-- Node27&#45;&gt;Node20 -->
<g id="edge49" class="edge">
<title>Node27&#45;&gt;Node20</title>
<path fill="none" stroke="midnightblue" d="M1020.74,-291.31C1065.17,-264.19 1201.52,-180.98 1255.83,-147.83"/>
<polygon fill="midnightblue" stroke="midnightblue" points="1257.69,-150.8 1264.4,-142.61 1254.04,-144.83 1257.69,-150.8"/>
</g>
<!-- Node28&#45;&gt;Node2 -->
<g id="edge55" class="edge">
<title>Node28&#45;&gt;Node2</title>
<path fill="none" stroke="midnightblue" d="M158.8,-347.15C152.76,-334.62 143.59,-311.02 148.5,-291 162.06,-235.73 198.88,-178.31 218.23,-150.75"/>
<polygon fill="midnightblue" stroke="midnightblue" points="221.09,-152.76 224.07,-142.59 215.4,-148.68 221.09,-152.76"/>
</g>
<!-- Node28&#45;&gt;Node3 -->
<g id="edge56" class="edge">
<title>Node28&#45;&gt;Node3</title>
<path fill="none" stroke="midnightblue" d="M168.81,-347.29C181.94,-326.23 217.77,-271.57 257.5,-235 298.15,-197.59 354.16,-164.85 386.53,-147.4"/>
<polygon fill="midnightblue" stroke="midnightblue" points="388.2,-150.47 395.39,-142.69 384.91,-144.29 388.2,-150.47"/>
</g>
<!-- Node28&#45;&gt;Node9 -->
<g id="edge57" class="edge">
<title>Node28&#45;&gt;Node9</title>
<path fill="none" stroke="midnightblue" d="M179.89,-347.32C196.17,-338.7 221.37,-325.36 240.22,-315.39"/>
<polygon fill="midnightblue" stroke="midnightblue" points="241.95,-318.43 249.15,-310.65 238.68,-312.24 241.95,-318.43"/>
</g>
<!-- Node29&#45;&gt;Node10 -->
<g id="edge59" class="edge">
<title>Node29&#45;&gt;Node10</title>
<path fill="none" stroke="midnightblue" d="M359.18,-403.11C364.42,-390.54 374.4,-366.89 383.5,-347 396.97,-317.57 413.58,-283.83 423.59,-263.74"/>
<polygon fill="midnightblue" stroke="midnightblue" points="426.83,-265.09 428.17,-254.58 420.57,-261.96 426.83,-265.09"/>
</g>
<!-- Node30 -->
<g id="node30" class="node">
<title>Node30</title>
<g id="a_node30"><a xlink:href="Vector2_8hpp.html" target="_top" xlink:title=" ">
<polygon fill="white" stroke="black" points="262.5,-347.5 262.5,-366.5 336.5,-366.5 336.5,-347.5 262.5,-347.5"/>
<text text-anchor="middle" x="299.5" y="-354.5" font-family="Helvetica,sans-Serif" font-size="10.00">Vector2.hpp</text>
</a>
</g>
</g>
<!-- Node29&#45;&gt;Node30 -->
<g id="edge60" class="edge">
<title>Node29&#45;&gt;Node30</title>
<path fill="none" stroke="midnightblue" d="M346.5,-403.32C338.31,-395.42 325.99,-383.55 316.03,-373.94"/>
<polygon fill="midnightblue" stroke="midnightblue" points="318.29,-371.26 308.66,-366.83 313.43,-376.29 318.29,-371.26"/>
</g>
<!-- Node30&#45;&gt;Node5 -->
<g id="edge64" class="edge">
<title>Node30&#45;&gt;Node5</title>
<path fill="none" stroke="midnightblue" d="M271.87,-347.43C254.12,-340.47 232.09,-328.84 219.5,-311 172.26,-244.08 179.41,-138.96 184.71,-96.61"/>
<polygon fill="midnightblue" stroke="midnightblue" points="188.19,-97 186.08,-86.62 181.26,-96.05 188.19,-97"/>
</g>
<!-- Node30&#45;&gt;Node9 -->
<g id="edge63" class="edge">
<title>Node30&#45;&gt;Node9</title>
<path fill="none" stroke="midnightblue" d="M293.89,-347.08C289.13,-339.53 282.18,-328.49 276.35,-319.23"/>
<polygon fill="midnightblue" stroke="midnightblue" points="279.3,-317.35 271.01,-310.75 273.38,-321.08 279.3,-317.35"/>
</g>
<!-- Node30&#45;&gt;Node10 -->
<g id="edge61" class="edge">
<title>Node30&#45;&gt;Node10</title>
<path fill="none" stroke="midnightblue" d="M309.94,-347.37C332.47,-328.73 385.91,-284.53 414.2,-261.13"/>
<polygon fill="midnightblue" stroke="midnightblue" points="416.64,-263.66 422.11,-254.59 412.18,-258.27 416.64,-263.66"/>
</g>
<!-- Node30&#45;&gt;Node11 -->
<g id="edge62" class="edge">
<title>Node30&#45;&gt;Node11</title>
<path fill="none" stroke="midnightblue" d="M304.6,-347.37C315.28,-329.3 340.17,-287.18 354.27,-263.31"/>
<polygon fill="midnightblue" stroke="midnightblue" points="357.35,-264.98 359.42,-254.59 351.32,-261.42 357.35,-264.98"/>
</g>
<!-- Node31&#45;&gt;Node10 -->
<g id="edge66" class="edge">
<title>Node31&#45;&gt;Node10</title>
<path fill="none" stroke="midnightblue" d="M453.1,-403.22C456.56,-394.28 461.53,-379.94 463.5,-367 469.18,-329.65 452.77,-287.1 441.71,-263.72"/>
<polygon fill="midnightblue" stroke="midnightblue" points="444.81,-262.09 437.24,-254.68 438.53,-265.2 444.81,-262.09"/>
</g>
<!-- Node32 -->
<g id="node32" class="node">
<title>Node32</title>
<g id="a_node32"><a xlink:href="Color_8hpp.html" target="_top" xlink:title=" ">
<polygon fill="white" stroke="black" points="392.5,-347.5 392.5,-366.5 454.5,-366.5 454.5,-347.5 392.5,-347.5"/>
<text text-anchor="middle" x="423.5" y="-354.5" font-family="Helvetica,sans-Serif" font-size="10.00">Color.hpp</text>
</a>
</g>
</g>
<!-- Node31&#45;&gt;Node32 -->
<g id="edge67" class="edge">
<title>Node31&#45;&gt;Node32</title>
<path fill="none" stroke="midnightblue" d="M445.21,-403.08C441.65,-395.69 436.48,-384.95 432.08,-375.81"/>
<polygon fill="midnightblue" stroke="midnightblue" points="435.21,-374.24 427.71,-366.75 428.9,-377.28 435.21,-374.24"/>
</g>
<!-- Node32&#45;&gt;Node9 -->
<g id="edge69" class="edge">
<title>Node32&#45;&gt;Node9</title>
<path fill="none" stroke="midnightblue" d="M398.46,-347.44C371.88,-338.36 329.69,-323.94 299.98,-313.78"/>
<polygon fill="midnightblue" stroke="midnightblue" points="301.01,-310.44 290.42,-310.52 298.75,-317.06 301.01,-310.44"/>
</g>
<!-- Node32&#45;&gt;Node10 -->
<g id="edge68" class="edge">
<title>Node32&#45;&gt;Node10</title>
<path fill="none" stroke="midnightblue" d="M424.21,-347.37C425.66,-329.62 429.01,-288.67 430.98,-264.6"/>
<polygon fill="midnightblue" stroke="midnightblue" points="434.47,-264.84 431.8,-254.59 427.49,-264.27 434.47,-264.84"/>
</g>
</g>
</svg>
