<?xml version="1.0" encoding="UTF-8" standalone="no"?>
<!DOCTYPE svg PUBLIC "-//W3C//DTD SVG 1.1//EN"
 "http://www.w3.org/Graphics/SVG/1.1/DTD/svg11.dtd">
<!-- Generated by graphviz version 2.43.0 (0)
 -->
<!-- Title: Libs/ECS/sources/Managers/ComponentManager/ComponentManager.hpp Pages: 1 -->
<svg width="889pt" height="218pt"
 viewBox="0.00 0.00 889.00 218.00" xmlns="http://www.w3.org/2000/svg" xmlns:xlink="http://www.w3.org/1999/xlink">
<g id="graph0" class="graph" transform="scale(1 1) rotate(0) translate(4 214)">
<title>Libs/ECS/sources/Managers/ComponentManager/ComponentManager.hpp</title>
<polygon fill="white" stroke="transparent" points="-4,4 -4,-214 885,-214 885,4 -4,4"/>
<!-- Node1 -->
<g id="node1" class="node">
<title>Node1</title>
<g id="a_node1"><a xlink:title=" ">
<polygon fill="#bfbfbf" stroke="black" points="187,-179.5 187,-209.5 428,-209.5 428,-179.5 187,-179.5"/>
<text text-anchor="start" x="195" y="-197.5" font-family="Helvetica,sans-Serif" font-size="10.00">Libs/ECS/sources/Managers</text>
<text text-anchor="middle" x="307.5" y="-186.5" font-family="Helvetica,sans-Serif" font-size="10.00">/ComponentManager/ComponentManager.hpp</text>
</a>
</g>
</g>
<!-- Node2 -->
<g id="node2" class="node">
<title>Node2</title>
<g id="a_node2"><a xlink:title=" ">
<polygon fill="white" stroke="#bfbfbf" points="0,-123.5 0,-142.5 93,-142.5 93,-123.5 0,-123.5"/>
<text text-anchor="middle" x="46.5" y="-130.5" font-family="Helvetica,sans-Serif" font-size="10.00">unordered_map</text>
</a>
</g>
</g>
<!-- Node1&#45;&gt;Node2 -->
<g id="edge1" class="edge">
<title>Node1&#45;&gt;Node2</title>
<path fill="none" stroke="midnightblue" d="M245.98,-179.47C199.38,-168.85 136.31,-154.47 93.66,-144.75"/>
<polygon fill="midnightblue" stroke="midnightblue" points="94.34,-141.32 83.81,-142.51 92.79,-148.14 94.34,-141.32"/>
</g>
<!-- Node3 -->
<g id="node3" class="node">
<title>Node3</title>
<g id="a_node3"><a xlink:title=" ">
<polygon fill="white" stroke="#bfbfbf" points="111.5,-123.5 111.5,-142.5 155.5,-142.5 155.5,-123.5 111.5,-123.5"/>
<text text-anchor="middle" x="133.5" y="-130.5" font-family="Helvetica,sans-Serif" font-size="10.00">string</text>
</a>
</g>
</g>
<!-- Node1&#45;&gt;Node3 -->
<g id="edge2" class="edge">
<title>Node1&#45;&gt;Node3</title>
<path fill="none" stroke="midnightblue" d="M266.26,-179.4C235.47,-168.87 193.99,-154.69 165.64,-144.99"/>
<polygon fill="midnightblue" stroke="midnightblue" points="166.43,-141.56 155.84,-141.64 164.17,-148.19 166.43,-141.56"/>
</g>
<!-- Node4 -->
<g id="node4" class="node">
<title>Node4</title>
<g id="a_node4"><a xlink:title=" ">
<polygon fill="white" stroke="#bfbfbf" points="174,-123.5 174,-142.5 221,-142.5 221,-123.5 174,-123.5"/>
<text text-anchor="middle" x="197.5" y="-130.5" font-family="Helvetica,sans-Serif" font-size="10.00">vector</text>
</a>
</g>
</g>
<!-- Node1&#45;&gt;Node4 -->
<g id="edge3" class="edge">
<title>Node1&#45;&gt;Node4</title>
<path fill="none" stroke="midnightblue" d="M281.43,-179.4C263.63,-169.77 240.19,-157.09 222.6,-147.58"/>
<polygon fill="midnightblue" stroke="midnightblue" points="223.97,-144.34 213.51,-142.66 220.64,-150.49 223.97,-144.34"/>
</g>
<!-- Node5 -->
<g id="node5" class="node">
<title>Node5</title>
<g id="a_node5"><a xlink:title=" ">
<polygon fill="white" stroke="#bfbfbf" points="239.5,-123.5 239.5,-142.5 297.5,-142.5 297.5,-123.5 239.5,-123.5"/>
<text text-anchor="middle" x="268.5" y="-130.5" font-family="Helvetica,sans-Serif" font-size="10.00">memory</text>
</a>
</g>
</g>
<!-- Node1&#45;&gt;Node5 -->
<g id="edge4" class="edge">
<title>Node1&#45;&gt;Node5</title>
<path fill="none" stroke="midnightblue" d="M298.26,-179.4C292.71,-170.93 285.61,-160.1 279.73,-151.14"/>
<polygon fill="midnightblue" stroke="midnightblue" points="282.58,-149.1 274.17,-142.66 276.73,-152.94 282.58,-149.1"/>
</g>
<!-- Node6 -->
<g id="node6" class="node">
<title>Node6</title>
<g id="a_node6"><a xlink:title=" ">
<polygon fill="white" stroke="#bfbfbf" points="315.5,-123.5 315.5,-142.5 379.5,-142.5 379.5,-123.5 315.5,-123.5"/>
<text text-anchor="middle" x="347.5" y="-130.5" font-family="Helvetica,sans-Serif" font-size="10.00">algorithm</text>
</a>
</g>
</g>
<!-- Node1&#45;&gt;Node6 -->
<g id="edge5" class="edge">
<title>Node1&#45;&gt;Node6</title>
<path fill="none" stroke="midnightblue" d="M316.98,-179.4C322.67,-170.93 329.95,-160.1 335.98,-151.14"/>
<polygon fill="midnightblue" stroke="midnightblue" points="339.01,-152.91 341.68,-142.66 333.2,-149 339.01,-152.91"/>
</g>
<!-- Node7 -->
<g id="node7" class="node">
<title>Node7</title>
<g id="a_node7"><a xlink:title=" ">
<polygon fill="white" stroke="#bfbfbf" points="398,-123.5 398,-142.5 489,-142.5 489,-123.5 398,-123.5"/>
<text text-anchor="middle" x="443.5" y="-130.5" font-family="Helvetica,sans-Serif" font-size="10.00">Exceptions.hpp</text>
</a>
</g>
</g>
<!-- Node1&#45;&gt;Node7 -->
<g id="edge6" class="edge">
<title>Node1&#45;&gt;Node7</title>
<path fill="none" stroke="midnightblue" d="M339.73,-179.4C362.34,-169.51 392.34,-156.38 414.26,-146.79"/>
<polygon fill="midnightblue" stroke="midnightblue" points="415.95,-149.87 423.71,-142.66 413.15,-143.46 415.95,-149.87"/>
</g>
<!-- Node8 -->
<g id="node8" class="node">
<title>Node8</title>
<g id="a_node8"><a xlink:href="IComponent_8hpp.html" target="_top" xlink:title=" ">
<polygon fill="white" stroke="black" points="507,-123.5 507,-142.5 604,-142.5 604,-123.5 507,-123.5"/>
<text text-anchor="middle" x="555.5" y="-130.5" font-family="Helvetica,sans-Serif" font-size="10.00">IComponent.hpp</text>
</a>
</g>
</g>
<!-- Node1&#45;&gt;Node8 -->
<g id="edge7" class="edge">
<title>Node1&#45;&gt;Node8</title>
<path fill="none" stroke="midnightblue" d="M365.96,-179.47C410.05,-168.9 469.66,-154.59 510.18,-144.87"/>
<polygon fill="midnightblue" stroke="midnightblue" points="511.14,-148.24 520.04,-142.51 509.5,-141.44 511.14,-148.24"/>
</g>
<!-- Node14 -->
<g id="node14" class="node">
<title>Node14</title>
<g id="a_node14"><a xlink:title=" ">
<polygon fill="white" stroke="#bfbfbf" points="622.5,-123.5 622.5,-142.5 660.5,-142.5 660.5,-123.5 622.5,-123.5"/>
<text text-anchor="middle" x="641.5" y="-130.5" font-family="Helvetica,sans-Serif" font-size="10.00">map</text>
</a>
</g>
</g>
<!-- Node1&#45;&gt;Node14 -->
<g id="edge14" class="edge">
<title>Node1&#45;&gt;Node14</title>
<path fill="none" stroke="midnightblue" d="M414.43,-179.45C473.26,-170.81 547.35,-158.43 612.5,-143 612.6,-142.98 612.7,-142.95 612.8,-142.93"/>
<polygon fill="midnightblue" stroke="midnightblue" points="613.52,-146.36 622.26,-140.37 611.69,-139.6 613.52,-146.36"/>
</g>
<!-- Node9 -->
<g id="node9" class="node">
<title>Node9</title>
<g id="a_node9"><a xlink:title=" ">
<polygon fill="white" stroke="#bfbfbf" points="483,-6 483,-25 540,-25 540,-6 483,-6"/>
<text text-anchor="middle" x="511.5" y="-13" font-family="Helvetica,sans-Serif" font-size="10.00">ostream</text>
</a>
</g>
</g>
<!-- Node8&#45;&gt;Node9 -->
<g id="edge8" class="edge">
<title>Node8&#45;&gt;Node9</title>
<path fill="none" stroke="midnightblue" d="M549.86,-123.35C544.3,-114.52 535.87,-100.25 530.5,-87 523.66,-70.13 518.52,-50 515.32,-35.58"/>
<polygon fill="midnightblue" stroke="midnightblue" points="518.66,-34.47 513.17,-25.41 511.81,-35.91 518.66,-34.47"/>
</g>
<!-- Node10 -->
<g id="node10" class="node">
<title>Node10</title>
<g id="a_node10"><a xlink:href="IXMLSerializable_8hpp.html" target="_top" xlink:title=" ">
<polygon fill="white" stroke="black" points="540,-67.5 540,-86.5 659,-86.5 659,-67.5 540,-67.5"/>
<text text-anchor="middle" x="599.5" y="-74.5" font-family="Helvetica,sans-Serif" font-size="10.00">IXMLSerializable.hpp</text>
</a>
</g>
</g>
<!-- Node8&#45;&gt;Node10 -->
<g id="edge9" class="edge">
<title>Node8&#45;&gt;Node10</title>
<path fill="none" stroke="midnightblue" d="M562.77,-123.08C569.04,-115.38 578.29,-104.03 585.93,-94.65"/>
<polygon fill="midnightblue" stroke="midnightblue" points="588.77,-96.71 592.37,-86.75 583.34,-92.29 588.77,-96.71"/>
</g>
<!-- Node10&#45;&gt;Node9 -->
<g id="edge10" class="edge">
<title>Node10&#45;&gt;Node9</title>
<path fill="none" stroke="midnightblue" d="M586.89,-67.48C572.78,-57.93 549.67,-42.31 532.75,-30.87"/>
<polygon fill="midnightblue" stroke="midnightblue" points="534.33,-27.71 524.08,-25.01 530.41,-33.51 534.33,-27.71"/>
</g>
<!-- Node11 -->
<g id="node11" class="node">
<title>Node11</title>
<g id="a_node11"><a xlink:title=" ">
<polygon fill="white" stroke="#bfbfbf" points="558.5,-6 558.5,-25 618.5,-25 618.5,-6 558.5,-6"/>
<text text-anchor="middle" x="588.5" y="-13" font-family="Helvetica,sans-Serif" font-size="10.00">iostream</text>
</a>
</g>
</g>
<!-- Node10&#45;&gt;Node11 -->
<g id="edge11" class="edge">
<title>Node10&#45;&gt;Node11</title>
<path fill="none" stroke="midnightblue" d="M597.92,-67.48C596.37,-59.08 593.95,-45.98 591.95,-35.16"/>
<polygon fill="midnightblue" stroke="midnightblue" points="595.33,-34.21 590.07,-25.01 588.45,-35.48 595.33,-34.21"/>
</g>
<!-- Node12 -->
<g id="node12" class="node">
<title>Node12</title>
<g id="a_node12"><a xlink:title=" ">
<polygon fill="white" stroke="#bfbfbf" points="637,-0.5 637,-30.5 750,-30.5 750,-0.5 637,-0.5"/>
<text text-anchor="start" x="645" y="-18.5" font-family="Helvetica,sans-Serif" font-size="10.00">boost/property_tree</text>
<text text-anchor="middle" x="693.5" y="-7.5" font-family="Helvetica,sans-Serif" font-size="10.00">/ptree.hpp</text>
</a>
</g>
</g>
<!-- Node10&#45;&gt;Node12 -->
<g id="edge12" class="edge">
<title>Node10&#45;&gt;Node12</title>
<path fill="none" stroke="midnightblue" d="M612.97,-67.48C625.94,-59.27 646.01,-46.56 662.88,-35.88"/>
<polygon fill="midnightblue" stroke="midnightblue" points="664.77,-38.83 671.35,-30.52 661.02,-32.91 664.77,-38.83"/>
</g>
<!-- Node13 -->
<g id="node13" class="node">
<title>Node13</title>
<g id="a_node13"><a xlink:title=" ">
<polygon fill="white" stroke="#bfbfbf" points="768,-0.5 768,-30.5 881,-30.5 881,-0.5 768,-0.5"/>
<text text-anchor="start" x="776" y="-18.5" font-family="Helvetica,sans-Serif" font-size="10.00">boost/property_tree</text>
<text text-anchor="middle" x="824.5" y="-7.5" font-family="Helvetica,sans-Serif" font-size="10.00">/xml_parser.hpp</text>
</a>
</g>
</g>
<!-- Node10&#45;&gt;Node13 -->
<g id="edge13" class="edge">
<title>Node10&#45;&gt;Node13</title>
<path fill="none" stroke="midnightblue" d="M631.74,-67.48C665.49,-58.55 719.34,-44.31 761.56,-33.14"/>
<polygon fill="midnightblue" stroke="midnightblue" points="762.7,-36.46 771.47,-30.52 760.91,-29.7 762.7,-36.46"/>
</g>
</g>
</svg>
