<?xml version="1.0" encoding="UTF-8" standalone="no"?>
<!DOCTYPE svg PUBLIC "-//W3C//DTD SVG 1.1//EN"
 "http://www.w3.org/Graphics/SVG/1.1/DTD/svg11.dtd">
<!-- Generated by graphviz version 2.43.0 (0)
 -->
<!-- Title: Libs/ECS/sources/Managers/ComponentManager/ComponentManager.cpp Pages: 1 -->
<svg width="889pt" height="274pt"
 viewBox="0.00 0.00 889.00 274.00" xmlns="http://www.w3.org/2000/svg" xmlns:xlink="http://www.w3.org/1999/xlink">
<g id="graph0" class="graph" transform="scale(1 1) rotate(0) translate(4 270)">
<title>Libs/ECS/sources/Managers/ComponentManager/ComponentManager.cpp</title>
<polygon fill="white" stroke="transparent" points="-4,4 -4,-270 885,-270 885,4 -4,4"/>
<!-- Node1 -->
<g id="node1" class="node">
<title>Node1</title>
<g id="a_node1"><a xlink:title=" ">
<polygon fill="#bfbfbf" stroke="black" points="187.5,-235.5 187.5,-265.5 427.5,-265.5 427.5,-235.5 187.5,-235.5"/>
<text text-anchor="start" x="195.5" y="-253.5" font-family="Helvetica,sans-Serif" font-size="10.00">Libs/ECS/sources/Managers</text>
<text text-anchor="middle" x="307.5" y="-242.5" font-family="Helvetica,sans-Serif" font-size="10.00">/ComponentManager/ComponentManager.cpp</text>
</a>
</g>
</g>
<!-- Node2 -->
<g id="node2" class="node">
<title>Node2</title>
<g id="a_node2"><a xlink:href="ComponentManager_8hpp.html" target="_top" xlink:title=" ">
<polygon fill="white" stroke="black" points="239.5,-179.5 239.5,-198.5 375.5,-198.5 375.5,-179.5 239.5,-179.5"/>
<text text-anchor="middle" x="307.5" y="-186.5" font-family="Helvetica,sans-Serif" font-size="10.00">ComponentManager.hpp</text>
</a>
</g>
</g>
<!-- Node1&#45;&gt;Node2 -->
<g id="edge1" class="edge">
<title>Node1&#45;&gt;Node2</title>
<path fill="none" stroke="midnightblue" d="M307.5,-235.4C307.5,-227.47 307.5,-217.46 307.5,-208.86"/>
<polygon fill="midnightblue" stroke="midnightblue" points="311,-208.66 307.5,-198.66 304,-208.66 311,-208.66"/>
</g>
<!-- Node3 -->
<g id="node3" class="node">
<title>Node3</title>
<g id="a_node3"><a xlink:title=" ">
<polygon fill="white" stroke="#bfbfbf" points="0,-123.5 0,-142.5 93,-142.5 93,-123.5 0,-123.5"/>
<text text-anchor="middle" x="46.5" y="-130.5" font-family="Helvetica,sans-Serif" font-size="10.00">unordered_map</text>
</a>
</g>
</g>
<!-- Node2&#45;&gt;Node3 -->
<g id="edge2" class="edge">
<title>Node2&#45;&gt;Node3</title>
<path fill="none" stroke="midnightblue" d="M266.14,-179.44C220.42,-169.98 146.74,-154.74 97.48,-144.55"/>
<polygon fill="midnightblue" stroke="midnightblue" points="98.16,-141.12 87.66,-142.52 96.75,-147.97 98.16,-141.12"/>
</g>
<!-- Node4 -->
<g id="node4" class="node">
<title>Node4</title>
<g id="a_node4"><a xlink:title=" ">
<polygon fill="white" stroke="#bfbfbf" points="111.5,-123.5 111.5,-142.5 155.5,-142.5 155.5,-123.5 111.5,-123.5"/>
<text text-anchor="middle" x="133.5" y="-130.5" font-family="Helvetica,sans-Serif" font-size="10.00">string</text>
</a>
</g>
</g>
<!-- Node2&#45;&gt;Node4 -->
<g id="edge3" class="edge">
<title>Node2&#45;&gt;Node4</title>
<path fill="none" stroke="midnightblue" d="M279.93,-179.44C248.75,-169.77 198.07,-154.04 165.26,-143.86"/>
<polygon fill="midnightblue" stroke="midnightblue" points="166.28,-140.51 155.7,-140.89 164.21,-147.2 166.28,-140.51"/>
</g>
<!-- Node5 -->
<g id="node5" class="node">
<title>Node5</title>
<g id="a_node5"><a xlink:title=" ">
<polygon fill="white" stroke="#bfbfbf" points="174,-123.5 174,-142.5 221,-142.5 221,-123.5 174,-123.5"/>
<text text-anchor="middle" x="197.5" y="-130.5" font-family="Helvetica,sans-Serif" font-size="10.00">vector</text>
</a>
</g>
</g>
<!-- Node2&#45;&gt;Node5 -->
<g id="edge4" class="edge">
<title>Node2&#45;&gt;Node5</title>
<path fill="none" stroke="midnightblue" d="M289.83,-179.32C272.11,-170.62 244.6,-157.12 224.21,-147.11"/>
<polygon fill="midnightblue" stroke="midnightblue" points="225.65,-143.92 215.13,-142.65 222.56,-150.2 225.65,-143.92"/>
</g>
<!-- Node6 -->
<g id="node6" class="node">
<title>Node6</title>
<g id="a_node6"><a xlink:title=" ">
<polygon fill="white" stroke="#bfbfbf" points="239.5,-123.5 239.5,-142.5 297.5,-142.5 297.5,-123.5 239.5,-123.5"/>
<text text-anchor="middle" x="268.5" y="-130.5" font-family="Helvetica,sans-Serif" font-size="10.00">memory</text>
</a>
</g>
</g>
<!-- Node2&#45;&gt;Node6 -->
<g id="edge5" class="edge">
<title>Node2&#45;&gt;Node6</title>
<path fill="none" stroke="midnightblue" d="M301.06,-179.08C295.55,-171.46 287.47,-160.26 280.74,-150.94"/>
<polygon fill="midnightblue" stroke="midnightblue" points="283.51,-148.81 274.82,-142.75 277.84,-152.91 283.51,-148.81"/>
</g>
<!-- Node7 -->
<g id="node7" class="node">
<title>Node7</title>
<g id="a_node7"><a xlink:title=" ">
<polygon fill="white" stroke="#bfbfbf" points="315.5,-123.5 315.5,-142.5 379.5,-142.5 379.5,-123.5 315.5,-123.5"/>
<text text-anchor="middle" x="347.5" y="-130.5" font-family="Helvetica,sans-Serif" font-size="10.00">algorithm</text>
</a>
</g>
</g>
<!-- Node2&#45;&gt;Node7 -->
<g id="edge6" class="edge">
<title>Node2&#45;&gt;Node7</title>
<path fill="none" stroke="midnightblue" d="M314.11,-179.08C319.76,-171.46 328.04,-160.26 334.95,-150.94"/>
<polygon fill="midnightblue" stroke="midnightblue" points="337.88,-152.87 341.02,-142.75 332.25,-148.7 337.88,-152.87"/>
</g>
<!-- Node8 -->
<g id="node8" class="node">
<title>Node8</title>
<g id="a_node8"><a xlink:title=" ">
<polygon fill="white" stroke="#bfbfbf" points="398,-123.5 398,-142.5 489,-142.5 489,-123.5 398,-123.5"/>
<text text-anchor="middle" x="443.5" y="-130.5" font-family="Helvetica,sans-Serif" font-size="10.00">Exceptions.hpp</text>
</a>
</g>
</g>
<!-- Node2&#45;&gt;Node8 -->
<g id="edge7" class="edge">
<title>Node2&#45;&gt;Node8</title>
<path fill="none" stroke="midnightblue" d="M329.05,-179.44C351.53,-170.52 386.99,-156.44 412.48,-146.32"/>
<polygon fill="midnightblue" stroke="midnightblue" points="414.05,-149.46 422.05,-142.52 411.47,-142.95 414.05,-149.46"/>
</g>
<!-- Node9 -->
<g id="node9" class="node">
<title>Node9</title>
<g id="a_node9"><a xlink:href="IComponent_8hpp.html" target="_top" xlink:title=" ">
<polygon fill="white" stroke="black" points="507,-123.5 507,-142.5 604,-142.5 604,-123.5 507,-123.5"/>
<text text-anchor="middle" x="555.5" y="-130.5" font-family="Helvetica,sans-Serif" font-size="10.00">IComponent.hpp</text>
</a>
</g>
</g>
<!-- Node2&#45;&gt;Node9 -->
<g id="edge8" class="edge">
<title>Node2&#45;&gt;Node9</title>
<path fill="none" stroke="midnightblue" d="M346.8,-179.44C390.06,-170.02 459.67,-154.87 506.47,-144.68"/>
<polygon fill="midnightblue" stroke="midnightblue" points="507.36,-148.06 516.39,-142.52 505.87,-141.22 507.36,-148.06"/>
</g>
<!-- Node15 -->
<g id="node15" class="node">
<title>Node15</title>
<g id="a_node15"><a xlink:title=" ">
<polygon fill="white" stroke="#bfbfbf" points="622.5,-123.5 622.5,-142.5 660.5,-142.5 660.5,-123.5 622.5,-123.5"/>
<text text-anchor="middle" x="641.5" y="-130.5" font-family="Helvetica,sans-Serif" font-size="10.00">map</text>
</a>
</g>
</g>
<!-- Node2&#45;&gt;Node15 -->
<g id="edge15" class="edge">
<title>Node2&#45;&gt;Node15</title>
<path fill="none" stroke="midnightblue" d="M375.59,-181C437.77,-173.9 532,-161.32 612.5,-143 612.6,-142.98 612.7,-142.95 612.8,-142.93"/>
<polygon fill="midnightblue" stroke="midnightblue" points="613.5,-146.37 622.27,-140.42 611.71,-139.6 613.5,-146.37"/>
</g>
<!-- Node10 -->
<g id="node10" class="node">
<title>Node10</title>
<g id="a_node10"><a xlink:title=" ">
<polygon fill="white" stroke="#bfbfbf" points="483,-6 483,-25 540,-25 540,-6 483,-6"/>
<text text-anchor="middle" x="511.5" y="-13" font-family="Helvetica,sans-Serif" font-size="10.00">ostream</text>
</a>
</g>
</g>
<!-- Node9&#45;&gt;Node10 -->
<g id="edge9" class="edge">
<title>Node9&#45;&gt;Node10</title>
<path fill="none" stroke="midnightblue" d="M549.86,-123.35C544.3,-114.52 535.87,-100.25 530.5,-87 523.66,-70.13 518.52,-50 515.32,-35.58"/>
<polygon fill="midnightblue" stroke="midnightblue" points="518.66,-34.47 513.17,-25.41 511.81,-35.91 518.66,-34.47"/>
</g>
<!-- Node11 -->
<g id="node11" class="node">
<title>Node11</title>
<g id="a_node11"><a xlink:href="IXMLSerializable_8hpp.html" target="_top" xlink:title=" ">
<polygon fill="white" stroke="black" points="540,-67.5 540,-86.5 659,-86.5 659,-67.5 540,-67.5"/>
<text text-anchor="middle" x="599.5" y="-74.5" font-family="Helvetica,sans-Serif" font-size="10.00">IXMLSerializable.hpp</text>
</a>
</g>
</g>
<!-- Node9&#45;&gt;Node11 -->
<g id="edge10" class="edge">
<title>Node9&#45;&gt;Node11</title>
<path fill="none" stroke="midnightblue" d="M562.77,-123.08C569.04,-115.38 578.29,-104.03 585.93,-94.65"/>
<polygon fill="midnightblue" stroke="midnightblue" points="588.77,-96.71 592.37,-86.75 583.34,-92.29 588.77,-96.71"/>
</g>
<!-- Node11&#45;&gt;Node10 -->
<g id="edge11" class="edge">
<title>Node11&#45;&gt;Node10</title>
<path fill="none" stroke="midnightblue" d="M586.89,-67.48C572.78,-57.93 549.67,-42.31 532.75,-30.87"/>
<polygon fill="midnightblue" stroke="midnightblue" points="534.33,-27.71 524.08,-25.01 530.41,-33.51 534.33,-27.71"/>
</g>
<!-- Node12 -->
<g id="node12" class="node">
<title>Node12</title>
<g id="a_node12"><a xlink:title=" ">
<polygon fill="white" stroke="#bfbfbf" points="558.5,-6 558.5,-25 618.5,-25 618.5,-6 558.5,-6"/>
<text text-anchor="middle" x="588.5" y="-13" font-family="Helvetica,sans-Serif" font-size="10.00">iostream</text>
</a>
</g>
</g>
<!-- Node11&#45;&gt;Node12 -->
<g id="edge12" class="edge">
<title>Node11&#45;&gt;Node12</title>
<path fill="none" stroke="midnightblue" d="M597.92,-67.48C596.37,-59.08 593.95,-45.98 591.95,-35.16"/>
<polygon fill="midnightblue" stroke="midnightblue" points="595.33,-34.21 590.07,-25.01 588.45,-35.48 595.33,-34.21"/>
</g>
<!-- Node13 -->
<g id="node13" class="node">
<title>Node13</title>
<g id="a_node13"><a xlink:title=" ">
<polygon fill="white" stroke="#bfbfbf" points="637,-0.5 637,-30.5 750,-30.5 750,-0.5 637,-0.5"/>
<text text-anchor="start" x="645" y="-18.5" font-family="Helvetica,sans-Serif" font-size="10.00">boost/property_tree</text>
<text text-anchor="middle" x="693.5" y="-7.5" font-family="Helvetica,sans-Serif" font-size="10.00">/ptree.hpp</text>
</a>
</g>
</g>
<!-- Node11&#45;&gt;Node13 -->
<g id="edge13" class="edge">
<title>Node11&#45;&gt;Node13</title>
<path fill="none" stroke="midnightblue" d="M612.97,-67.48C625.94,-59.27 646.01,-46.56 662.88,-35.88"/>
<polygon fill="midnightblue" stroke="midnightblue" points="664.77,-38.83 671.35,-30.52 661.02,-32.91 664.77,-38.83"/>
</g>
<!-- Node14 -->
<g id="node14" class="node">
<title>Node14</title>
<g id="a_node14"><a xlink:title=" ">
<polygon fill="white" stroke="#bfbfbf" points="768,-0.5 768,-30.5 881,-30.5 881,-0.5 768,-0.5"/>
<text text-anchor="start" x="776" y="-18.5" font-family="Helvetica,sans-Serif" font-size="10.00">boost/property_tree</text>
<text text-anchor="middle" x="824.5" y="-7.5" font-family="Helvetica,sans-Serif" font-size="10.00">/xml_parser.hpp</text>
</a>
</g>
</g>
<!-- Node11&#45;&gt;Node14 -->
<g id="edge14" class="edge">
<title>Node11&#45;&gt;Node14</title>
<path fill="none" stroke="midnightblue" d="M631.74,-67.48C665.49,-58.55 719.34,-44.31 761.56,-33.14"/>
<polygon fill="midnightblue" stroke="midnightblue" points="762.7,-36.46 771.47,-30.52 760.91,-29.7 762.7,-36.46"/>
</g>
</g>
</svg>
