<?xml version="1.0" encoding="UTF-8" standalone="no"?>
<!DOCTYPE svg PUBLIC "-//W3C//DTD SVG 1.1//EN"
 "http://www.w3.org/Graphics/SVG/1.1/DTD/svg11.dtd">
<!-- Generated by graphviz version 2.43.0 (0)
 -->
<!-- Title: Libs/Engine/sources/Components/CoolDownBoost/CoolDownBoost.cpp Pages: 1 -->
<svg width="3024pt" height="778pt"
 viewBox="0.00 0.00 3024.01 778.00" xmlns="http://www.w3.org/2000/svg" xmlns:xlink="http://www.w3.org/1999/xlink">
<g id="graph0" class="graph" transform="scale(1 1) rotate(0) translate(4 774)">
<title>Libs/Engine/sources/Components/CoolDownBoost/CoolDownBoost.cpp</title>
<polygon fill="white" stroke="transparent" points="-4,4 -4,-774 3020.01,-774 3020.01,4 -4,4"/>
<!-- Node1 -->
<g id="node1" class="node">
<title>Node1</title>
<g id="a_node1"><a xlink:title=" ">
<polygon fill="#bfbfbf" stroke="black" points="929.51,-728.5 929.51,-769.5 1090.51,-769.5 1090.51,-728.5 929.51,-728.5"/>
<text text-anchor="start" x="937.51" y="-757.5" font-family="Helvetica,sans-Serif" font-size="10.00">Libs/Engine/sources</text>
<text text-anchor="start" x="937.51" y="-746.5" font-family="Helvetica,sans-Serif" font-size="10.00">/Components/CoolDownBoost</text>
<text text-anchor="middle" x="1010.01" y="-735.5" font-family="Helvetica,sans-Serif" font-size="10.00">/CoolDownBoost.cpp</text>
</a>
</g>
</g>
<!-- Node2 -->
<g id="node2" class="node">
<title>Node2</title>
<g id="a_node2"><a xlink:href="CoolDownBoost_8hpp.html" target="_top" xlink:title=" ">
<polygon fill="white" stroke="black" points="952.51,-616.5 952.51,-635.5 1067.51,-635.5 1067.51,-616.5 952.51,-616.5"/>
<text text-anchor="middle" x="1010.01" y="-623.5" font-family="Helvetica,sans-Serif" font-size="10.00">CoolDownBoost.hpp</text>
</a>
</g>
</g>
<!-- Node1&#45;&gt;Node2 -->
<g id="edge1" class="edge">
<title>Node1&#45;&gt;Node2</title>
<path fill="none" stroke="midnightblue" d="M1010.01,-728.29C1010.01,-705.48 1010.01,-668.19 1010.01,-645.78"/>
<polygon fill="midnightblue" stroke="midnightblue" points="1013.51,-645.57 1010.01,-635.57 1006.51,-645.57 1013.51,-645.57"/>
</g>
<!-- Node71 -->
<g id="node46" class="node">
<title>Node71</title>
<g id="a_node46"><a xlink:href="AIAlgo_8hpp.html" target="_top" xlink:title=" ">
<polygon fill="white" stroke="black" points="1828.51,-560.5 1828.51,-579.5 1897.51,-579.5 1897.51,-560.5 1828.51,-560.5"/>
<text text-anchor="middle" x="1863.01" y="-567.5" font-family="Helvetica,sans-Serif" font-size="10.00">AIAlgo.hpp</text>
</a>
</g>
</g>
<!-- Node1&#45;&gt;Node71 -->
<g id="edge151" class="edge">
<title>Node1&#45;&gt;Node71</title>
<path fill="none" stroke="midnightblue" d="M1090.64,-731.27C1266.71,-694.73 1680.77,-608.82 1817.96,-580.35"/>
<polygon fill="midnightblue" stroke="midnightblue" points="1819.03,-583.7 1828.11,-578.24 1817.61,-576.85 1819.03,-583.7"/>
</g>
<!-- Node79 -->
<g id="node49" class="node">
<title>Node79</title>
<g id="a_node49"><a xlink:href="EntityFactory_8hpp.html" target="_top" xlink:title=" ">
<polygon fill="white" stroke="black" points="836.01,-672.5 836.01,-691.5 936.01,-691.5 936.01,-672.5 836.01,-672.5"/>
<text text-anchor="middle" x="886.01" y="-679.5" font-family="Helvetica,sans-Serif" font-size="10.00">EntityFactory.hpp</text>
</a>
</g>
</g>
<!-- Node1&#45;&gt;Node79 -->
<g id="edge193" class="edge">
<title>Node1&#45;&gt;Node79</title>
<path fill="none" stroke="midnightblue" d="M972.81,-728.5C953.06,-718.15 929.3,-705.69 911.64,-696.43"/>
<polygon fill="midnightblue" stroke="midnightblue" points="913,-693.2 902.52,-691.65 909.75,-699.4 913,-693.2"/>
</g>
<!-- Node3 -->
<g id="node3" class="node">
<title>Node3</title>
<g id="a_node3"><a xlink:href="APickUp_8hpp.html" target="_top" xlink:title=" ">
<polygon fill="white" stroke="black" points="960.01,-392.5 960.01,-411.5 1038.01,-411.5 1038.01,-392.5 960.01,-392.5"/>
<text text-anchor="middle" x="999.01" y="-399.5" font-family="Helvetica,sans-Serif" font-size="10.00">APickUp.hpp</text>
</a>
</g>
</g>
<!-- Node2&#45;&gt;Node3 -->
<g id="edge2" class="edge">
<title>Node2&#45;&gt;Node3</title>
<path fill="none" stroke="midnightblue" d="M994.68,-616.45C981.32,-608.4 962.08,-595.32 949.01,-580 930.81,-558.68 926.64,-551.23 920.01,-524 909.46,-480.67 951.65,-439.17 978.43,-417.86"/>
<polygon fill="midnightblue" stroke="midnightblue" points="980.69,-420.53 986.49,-411.67 976.43,-414.98 980.69,-420.53"/>
</g>
<!-- Node41 -->
<g id="node30" class="node">
<title>Node41</title>
<g id="a_node30"><a xlink:href="GameConfiguration_8hpp.html" target="_top" xlink:title=" ">
<polygon fill="white" stroke="black" points="544.01,-336.5 544.01,-355.5 676.01,-355.5 676.01,-336.5 544.01,-336.5"/>
<text text-anchor="middle" x="610.01" y="-343.5" font-family="Helvetica,sans-Serif" font-size="10.00">GameConfiguration.hpp</text>
</a>
</g>
</g>
<!-- Node2&#45;&gt;Node41 -->
<g id="edge144" class="edge">
<title>Node2&#45;&gt;Node41</title>
<path fill="none" stroke="midnightblue" d="M993.44,-616.41C977.03,-607.73 951.33,-593.69 930.01,-580 811.34,-503.79 677.28,-400.03 628.77,-361.87"/>
<polygon fill="midnightblue" stroke="midnightblue" points="630.76,-358.97 620.74,-355.53 626.42,-364.47 630.76,-358.97"/>
</g>
<!-- Node46 -->
<g id="node34" class="node">
<title>Node46</title>
<g id="a_node34"><a xlink:href="AController_8hpp.html" target="_top" xlink:title=" ">
<polygon fill="white" stroke="black" points="1076.01,-504.5 1076.01,-523.5 1168.01,-523.5 1168.01,-504.5 1076.01,-504.5"/>
<text text-anchor="middle" x="1122.01" y="-511.5" font-family="Helvetica,sans-Serif" font-size="10.00">AController.hpp</text>
</a>
</g>
</g>
<!-- Node2&#45;&gt;Node46 -->
<g id="edge77" class="edge">
<title>Node2&#45;&gt;Node46</title>
<path fill="none" stroke="midnightblue" d="M1038.84,-616.42C1057.95,-609.4 1082.29,-597.71 1098.01,-580 1109.6,-566.94 1115.77,-547.78 1118.93,-533.65"/>
<polygon fill="midnightblue" stroke="midnightblue" points="1122.41,-534.09 1120.87,-523.6 1115.54,-532.76 1122.41,-534.09"/>
</g>
<!-- Node62 -->
<g id="node37" class="node">
<title>Node62</title>
<g id="a_node37"><a xlink:href="DropBomb_8hpp.html" target="_top" xlink:title=" ">
<polygon fill="white" stroke="black" points="1621.51,-448.5 1621.51,-467.5 1710.51,-467.5 1710.51,-448.5 1621.51,-448.5"/>
<text text-anchor="middle" x="1666.01" y="-455.5" font-family="Helvetica,sans-Serif" font-size="10.00">DropBomb.hpp</text>
</a>
</g>
</g>
<!-- Node2&#45;&gt;Node62 -->
<g id="edge143" class="edge">
<title>Node2&#45;&gt;Node62</title>
<path fill="none" stroke="midnightblue" d="M1043.9,-616.42C1153.76,-588.62 1500.02,-501 1622.53,-470"/>
<polygon fill="midnightblue" stroke="midnightblue" points="1623.49,-473.37 1632.32,-467.52 1621.77,-466.58 1623.49,-473.37"/>
</g>
<!-- Node70 -->
<g id="node45" class="node">
<title>Node70</title>
<g id="a_node45"><a xlink:href="PlayerInputs_8hpp.html" target="_top" xlink:title=" ">
<polygon fill="white" stroke="black" points="958.01,-560.5 958.01,-579.5 1056.01,-579.5 1056.01,-560.5 958.01,-560.5"/>
<text text-anchor="middle" x="1007.01" y="-567.5" font-family="Helvetica,sans-Serif" font-size="10.00">PlayerInputs.hpp</text>
</a>
</g>
</g>
<!-- Node2&#45;&gt;Node70 -->
<g id="edge145" class="edge">
<title>Node2&#45;&gt;Node70</title>
<path fill="none" stroke="midnightblue" d="M1009.51,-616.08C1009.12,-609.01 1008.56,-598.86 1008.06,-589.99"/>
<polygon fill="midnightblue" stroke="midnightblue" points="1011.55,-589.54 1007.5,-579.75 1004.56,-589.93 1011.55,-589.54"/>
</g>
<!-- Node4 -->
<g id="node4" class="node">
<title>Node4</title>
<g id="a_node4"><a xlink:href="IBehaviour_8hpp.html" target="_top" xlink:title=" ">
<polygon fill="white" stroke="black" points="2037.51,-224.5 2037.51,-243.5 2126.51,-243.5 2126.51,-224.5 2037.51,-224.5"/>
<text text-anchor="middle" x="2082.01" y="-231.5" font-family="Helvetica,sans-Serif" font-size="10.00">IBehaviour.hpp</text>
</a>
</g>
</g>
<!-- Node3&#45;&gt;Node4 -->
<g id="edge3" class="edge">
<title>Node3&#45;&gt;Node4</title>
<path fill="none" stroke="midnightblue" d="M1038.16,-398.69C1123.8,-393.4 1334.08,-379.02 1509.01,-356 1560.01,-349.29 1572.05,-343 1623.01,-336 1782.75,-314.05 1832.14,-354.15 1984.01,-300 2015.22,-288.87 2046.25,-265.73 2064.78,-250.28"/>
<polygon fill="midnightblue" stroke="midnightblue" points="2067.27,-252.75 2072.59,-243.59 2062.72,-247.43 2067.27,-252.75"/>
</g>
<!-- Node23 -->
<g id="node14" class="node">
<title>Node23</title>
<g id="a_node14"><a xlink:href="Collider_8hpp.html" target="_top" xlink:title=" ">
<polygon fill="white" stroke="red" points="1316.01,-280.5 1316.01,-299.5 1390.01,-299.5 1390.01,-280.5 1316.01,-280.5"/>
<text text-anchor="middle" x="1353.01" y="-287.5" font-family="Helvetica,sans-Serif" font-size="10.00">Collider.hpp</text>
</a>
</g>
</g>
<!-- Node3&#45;&gt;Node23 -->
<g id="edge15" class="edge">
<title>Node3&#45;&gt;Node23</title>
<path fill="none" stroke="midnightblue" d="M1038.27,-397.86C1106.59,-391.9 1244.12,-377.59 1287.01,-356 1309.34,-344.76 1328.9,-323.19 1340.8,-307.99"/>
<polygon fill="midnightblue" stroke="midnightblue" points="1343.68,-310 1346.9,-299.9 1338.08,-305.79 1343.68,-310"/>
</g>
<!-- Node32 -->
<g id="node22" class="node">
<title>Node32</title>
<g id="a_node22"><a xlink:href="Transform_8hpp.html" target="_top" xlink:title=" ">
<polygon fill="white" stroke="black" points="1628.01,-224.5 1628.01,-243.5 1714.01,-243.5 1714.01,-224.5 1628.01,-224.5"/>
<text text-anchor="middle" x="1671.01" y="-231.5" font-family="Helvetica,sans-Serif" font-size="10.00">Transform.hpp</text>
</a>
</g>
</g>
<!-- Node3&#45;&gt;Node32 -->
<g id="edge43" class="edge">
<title>Node3&#45;&gt;Node32</title>
<path fill="none" stroke="midnightblue" d="M1038.37,-397.77C1098.58,-392.29 1216.92,-379.44 1315.01,-356 1323.19,-354.05 1548.85,-276.84 1636.58,-246.8"/>
<polygon fill="midnightblue" stroke="midnightblue" points="1637.77,-250.09 1646.09,-243.54 1635.5,-243.47 1637.77,-250.09"/>
</g>
<!-- Node37 -->
<g id="node23" class="node">
<title>Node37</title>
<g id="a_node23"><a xlink:href="CollisionSystem_8hpp.html" target="_top" xlink:title=" ">
<polygon fill="white" stroke="black" points="998.01,-336.5 998.01,-355.5 1114.01,-355.5 1114.01,-336.5 998.01,-336.5"/>
<text text-anchor="middle" x="1056.01" y="-343.5" font-family="Helvetica,sans-Serif" font-size="10.00">CollisionSystem.hpp</text>
</a>
</g>
</g>
<!-- Node3&#45;&gt;Node37 -->
<g id="edge34" class="edge">
<title>Node3&#45;&gt;Node37</title>
<path fill="none" stroke="midnightblue" d="M1008.17,-392.32C1016.51,-384.42 1029.04,-372.55 1039.19,-362.94"/>
<polygon fill="midnightblue" stroke="midnightblue" points="1041.83,-365.25 1046.68,-355.83 1037.02,-360.17 1041.83,-365.25"/>
</g>
<!-- Node38 -->
<g id="node25" class="node">
<title>Node38</title>
<g id="a_node25"><a xlink:href="Window_8hpp.html" target="_top" xlink:title=" ">
<polygon fill="white" stroke="black" points="440.01,-280.5 440.01,-299.5 516.01,-299.5 516.01,-280.5 440.01,-280.5"/>
<text text-anchor="middle" x="478.01" y="-287.5" font-family="Helvetica,sans-Serif" font-size="10.00">Window.hpp</text>
</a>
</g>
</g>
<!-- Node3&#45;&gt;Node38 -->
<g id="edge44" class="edge">
<title>Node3&#45;&gt;Node38</title>
<path fill="none" stroke="midnightblue" d="M970.8,-392.46C925.74,-379.04 834.58,-352.82 756.01,-336 713.09,-326.81 593.64,-308.38 526.11,-298.19"/>
<polygon fill="midnightblue" stroke="midnightblue" points="526.55,-294.71 516.14,-296.68 525.51,-301.64 526.55,-294.71"/>
</g>
<!-- Node3&#45;&gt;Node41 -->
<g id="edge64" class="edge">
<title>Node3&#45;&gt;Node41</title>
<path fill="none" stroke="midnightblue" d="M959.93,-395.58C894.83,-386.54 763.24,-368.27 681.29,-356.89"/>
<polygon fill="midnightblue" stroke="midnightblue" points="681.69,-353.42 671.3,-355.51 680.72,-360.35 681.69,-353.42"/>
</g>
<!-- Node5 -->
<g id="node5" class="node">
<title>Node5</title>
<g id="a_node5"><a xlink:href="IComponent_8hpp.html" target="_top" xlink:title=" ">
<polygon fill="white" stroke="black" points="1762.51,-112.5 1762.51,-131.5 1859.51,-131.5 1859.51,-112.5 1762.51,-112.5"/>
<text text-anchor="middle" x="1811.01" y="-119.5" font-family="Helvetica,sans-Serif" font-size="10.00">IComponent.hpp</text>
</a>
</g>
</g>
<!-- Node4&#45;&gt;Node5 -->
<g id="edge4" class="edge">
<title>Node4&#45;&gt;Node5</title>
<path fill="none" stroke="midnightblue" d="M2060.74,-224.37C2012.95,-204.97 1896.92,-157.87 1841.48,-135.37"/>
<polygon fill="midnightblue" stroke="midnightblue" points="1842.76,-132.11 1832.18,-131.59 1840.12,-138.6 1842.76,-132.11"/>
</g>
<!-- Node11 -->
<g id="node9" class="node">
<title>Node11</title>
<g id="a_node9"><a xlink:href="Entity_8hpp.html" target="_top" xlink:title=" ">
<polygon fill="white" stroke="red" points="1808.51,-168.5 1808.51,-187.5 1873.51,-187.5 1873.51,-168.5 1808.51,-168.5"/>
<text text-anchor="middle" x="1841.01" y="-175.5" font-family="Helvetica,sans-Serif" font-size="10.00">Entity.hpp</text>
</a>
</g>
</g>
<!-- Node4&#45;&gt;Node11 -->
<g id="edge9" class="edge">
<title>Node4&#45;&gt;Node11</title>
<path fill="none" stroke="midnightblue" d="M2043.82,-224.44C2000.14,-214.66 1928.82,-198.67 1883.44,-188.51"/>
<polygon fill="midnightblue" stroke="midnightblue" points="1884.13,-185.08 1873.61,-186.3 1882.6,-191.91 1884.13,-185.08"/>
</g>
<!-- Node6 -->
<g id="node6" class="node">
<title>Node6</title>
<g id="a_node6"><a xlink:title=" ">
<polygon fill="white" stroke="#bfbfbf" points="1258.51,-0.5 1258.51,-19.5 1315.51,-19.5 1315.51,-0.5 1258.51,-0.5"/>
<text text-anchor="middle" x="1287.01" y="-7.5" font-family="Helvetica,sans-Serif" font-size="10.00">ostream</text>
</a>
</g>
</g>
<!-- Node5&#45;&gt;Node6 -->
<g id="edge5" class="edge">
<title>Node5&#45;&gt;Node6</title>
<path fill="none" stroke="midnightblue" d="M1770.33,-112.46C1671.84,-91.79 1421.64,-39.26 1325.47,-19.07"/>
<polygon fill="midnightblue" stroke="midnightblue" points="1326.09,-15.63 1315.59,-17 1324.66,-22.48 1326.09,-15.63"/>
</g>
<!-- Node7 -->
<g id="node7" class="node">
<title>Node7</title>
<g id="a_node7"><a xlink:href="IXMLSerializable_8hpp.html" target="_top" xlink:title=" ">
<polygon fill="white" stroke="red" points="1057.51,-56.5 1057.51,-75.5 1176.51,-75.5 1176.51,-56.5 1057.51,-56.5"/>
<text text-anchor="middle" x="1117.01" y="-63.5" font-family="Helvetica,sans-Serif" font-size="10.00">IXMLSerializable.hpp</text>
</a>
</g>
</g>
<!-- Node5&#45;&gt;Node7 -->
<g id="edge6" class="edge">
<title>Node5&#45;&gt;Node7</title>
<path fill="none" stroke="midnightblue" d="M1762.3,-118.45C1658.59,-112.83 1408.05,-98.13 1187,-76.04"/>
<polygon fill="midnightblue" stroke="midnightblue" points="1187.12,-72.54 1176.82,-75.02 1186.42,-79.5 1187.12,-72.54"/>
</g>
<!-- Node7&#45;&gt;Node6 -->
<g id="edge7" class="edge">
<title>Node7&#45;&gt;Node6</title>
<path fill="none" stroke="midnightblue" d="M1143.95,-56.44C1172.67,-47.32 1218.34,-32.81 1250.33,-22.65"/>
<polygon fill="midnightblue" stroke="midnightblue" points="1251.73,-25.88 1260.2,-19.52 1249.61,-19.21 1251.73,-25.88"/>
</g>
<!-- Node8 -->
<g id="node8" class="node">
<title>Node8</title>
<g id="a_node8"><a xlink:title=" ">
<polygon fill="white" stroke="#bfbfbf" points="2948.01,-0.5 2948.01,-19.5 3008.01,-19.5 3008.01,-0.5 2948.01,-0.5"/>
<text text-anchor="middle" x="2978.01" y="-7.5" font-family="Helvetica,sans-Serif" font-size="10.00">iostream</text>
</a>
</g>
</g>
<!-- Node7&#45;&gt;Node8 -->
<g id="edge8" class="edge">
<title>Node7&#45;&gt;Node8</title>
<path fill="none" stroke="midnightblue" d="M1176.81,-56.81C1179.92,-56.51 1183,-56.23 1186.01,-56 1542.98,-28.31 2705.96,-14.04 2937.65,-11.44"/>
<polygon fill="midnightblue" stroke="midnightblue" points="2938.01,-14.93 2947.97,-11.32 2937.93,-7.94 2938.01,-14.93"/>
</g>
<!-- Node11&#45;&gt;Node5 -->
<g id="edge14" class="edge">
<title>Node11&#45;&gt;Node5</title>
<path fill="none" stroke="midnightblue" d="M1836.06,-168.08C1831.91,-160.61 1825.86,-149.72 1820.74,-140.52"/>
<polygon fill="midnightblue" stroke="midnightblue" points="1823.79,-138.79 1815.87,-131.75 1817.67,-142.19 1823.79,-138.79"/>
</g>
<!-- Node12 -->
<g id="node10" class="node">
<title>Node12</title>
<g id="a_node10"><a xlink:title=" ">
<polygon fill="white" stroke="#bfbfbf" points="2358.01,-112.5 2358.01,-131.5 2420.01,-131.5 2420.01,-112.5 2358.01,-112.5"/>
<text text-anchor="middle" x="2389.01" y="-119.5" font-family="Helvetica,sans-Serif" font-size="10.00">cinttypes</text>
</a>
</g>
</g>
<!-- Node11&#45;&gt;Node12 -->
<g id="edge10" class="edge">
<title>Node11&#45;&gt;Node12</title>
<path fill="none" stroke="midnightblue" d="M1873.7,-173.47C1889.5,-171.78 1908.74,-169.75 1926.01,-168 2081.53,-152.21 2266.56,-134.57 2347.57,-126.91"/>
<polygon fill="midnightblue" stroke="midnightblue" points="2348.21,-130.36 2357.84,-125.94 2347.55,-123.39 2348.21,-130.36"/>
</g>
<!-- Node14 -->
<g id="node11" class="node">
<title>Node14</title>
<g id="a_node11"><a xlink:title=" ">
<polygon fill="white" stroke="#bfbfbf" points="1267.01,-112.5 1267.01,-131.5 1325.01,-131.5 1325.01,-112.5 1267.01,-112.5"/>
<text text-anchor="middle" x="1296.01" y="-119.5" font-family="Helvetica,sans-Serif" font-size="10.00">memory</text>
</a>
</g>
</g>
<!-- Node11&#45;&gt;Node14 -->
<g id="edge11" class="edge">
<title>Node11&#45;&gt;Node14</title>
<path fill="none" stroke="midnightblue" d="M1808.14,-173.74C1713.12,-164.33 1438.31,-137.1 1335.47,-126.91"/>
<polygon fill="midnightblue" stroke="midnightblue" points="1335.51,-123.4 1325.21,-125.89 1334.82,-130.36 1335.51,-123.4"/>
</g>
<!-- Node16 -->
<g id="node12" class="node">
<title>Node16</title>
<g id="a_node12"><a xlink:title=" ">
<polygon fill="white" stroke="#bfbfbf" points="1139.51,-112.5 1139.51,-131.5 1186.51,-131.5 1186.51,-112.5 1139.51,-112.5"/>
<text text-anchor="middle" x="1163.01" y="-119.5" font-family="Helvetica,sans-Serif" font-size="10.00">vector</text>
</a>
</g>
</g>
<!-- Node11&#45;&gt;Node16 -->
<g id="edge12" class="edge">
<title>Node11&#45;&gt;Node16</title>
<path fill="none" stroke="midnightblue" d="M1808.44,-174.69C1719.95,-168.36 1467.63,-150.02 1258.01,-132 1237.73,-130.26 1215.03,-128.11 1196.9,-126.36"/>
<polygon fill="midnightblue" stroke="midnightblue" points="1197.11,-122.86 1186.81,-125.37 1196.43,-129.83 1197.11,-122.86"/>
</g>
<!-- Node17 -->
<g id="node13" class="node">
<title>Node17</title>
<g id="a_node13"><a xlink:title=" ">
<polygon fill="white" stroke="#bfbfbf" points="2685.51,-112.5 2685.51,-131.5 2776.51,-131.5 2776.51,-112.5 2685.51,-112.5"/>
<text text-anchor="middle" x="2731.01" y="-119.5" font-family="Helvetica,sans-Serif" font-size="10.00">Exceptions.hpp</text>
</a>
</g>
</g>
<!-- Node11&#45;&gt;Node17 -->
<g id="edge13" class="edge">
<title>Node11&#45;&gt;Node17</title>
<path fill="none" stroke="midnightblue" d="M1873.63,-174.48C1898.42,-172.6 1933.35,-170.02 1964.01,-168 2230.05,-150.46 2548.23,-132.88 2674.95,-126.01"/>
<polygon fill="midnightblue" stroke="midnightblue" points="2675.38,-129.49 2685.18,-125.46 2675,-122.5 2675.38,-129.49"/>
</g>
<!-- Node23&#45;&gt;Node5 -->
<g id="edge17" class="edge">
<title>Node23&#45;&gt;Node5</title>
<path fill="none" stroke="midnightblue" d="M1374.61,-280.36C1393,-272.44 1419.6,-259.58 1440.01,-244 1476.51,-216.14 1469.44,-189.51 1510.01,-168 1550.86,-146.34 1676.54,-133.27 1751.97,-127.16"/>
<polygon fill="midnightblue" stroke="midnightblue" points="1752.57,-130.62 1762.26,-126.34 1752.02,-123.64 1752.57,-130.62"/>
</g>
<!-- Node23&#45;&gt;Node11 -->
<g id="edge25" class="edge">
<title>Node23&#45;&gt;Node11</title>
<path fill="none" stroke="midnightblue" d="M1380.41,-280.42C1423.73,-267.07 1510.86,-241.07 1586.01,-224 1660.04,-207.18 1747.36,-192.97 1798.22,-185.25"/>
<polygon fill="midnightblue" stroke="midnightblue" points="1798.83,-188.69 1808.2,-183.74 1797.79,-181.77 1798.83,-188.69"/>
</g>
<!-- Node23&#45;&gt;Node12 -->
<g id="edge16" class="edge">
<title>Node23&#45;&gt;Node12</title>
<path fill="none" stroke="midnightblue" d="M1390.05,-286.28C1456.99,-280.98 1602.36,-267.64 1723.01,-244 1849.13,-219.29 1875.82,-192.38 2002.01,-168 2126.61,-143.93 2276.44,-130.97 2347.59,-125.76"/>
<polygon fill="midnightblue" stroke="midnightblue" points="2348.19,-129.23 2357.92,-125.02 2347.69,-122.25 2348.19,-129.23"/>
</g>
<!-- Node23&#45;&gt;Node14 -->
<g id="edge24" class="edge">
<title>Node23&#45;&gt;Node14</title>
<path fill="none" stroke="midnightblue" d="M1376.3,-280.39C1401.44,-269.6 1436.33,-249.41 1424.01,-224 1403.53,-181.76 1355.87,-151.86 1324.83,-136.04"/>
<polygon fill="midnightblue" stroke="midnightblue" points="1326.3,-132.86 1315.79,-131.58 1323.21,-139.14 1326.3,-132.86"/>
</g>
<!-- Node23&#45;&gt;Node16 -->
<g id="edge23" class="edge">
<title>Node23&#45;&gt;Node16</title>
<path fill="none" stroke="midnightblue" d="M1348.56,-280.32C1341.55,-267.17 1326.98,-241.85 1310.01,-224 1273.66,-185.77 1220.58,-153.69 1189.14,-136.51"/>
<polygon fill="midnightblue" stroke="midnightblue" points="1190.59,-133.31 1180.13,-131.66 1187.28,-139.48 1190.59,-133.31"/>
</g>
<!-- Node24 -->
<g id="node15" class="node">
<title>Node24</title>
<g id="a_node15"><a xlink:href="Vector3_8hpp.html" target="_top" xlink:title=" ">
<polygon fill="white" stroke="black" points="746.01,-112.5 746.01,-131.5 820.01,-131.5 820.01,-112.5 746.01,-112.5"/>
<text text-anchor="middle" x="783.01" y="-119.5" font-family="Helvetica,sans-Serif" font-size="10.00">Vector3.hpp</text>
</a>
</g>
</g>
<!-- Node23&#45;&gt;Node24 -->
<g id="edge18" class="edge">
<title>Node23&#45;&gt;Node24</title>
<path fill="none" stroke="midnightblue" d="M1341.03,-280.34C1320.96,-266.27 1278.81,-238.55 1239.01,-224 1156.23,-193.75 1130.14,-206.66 1044.01,-188 965.93,-171.09 875.63,-147.75 824.33,-134.13"/>
<polygon fill="midnightblue" stroke="midnightblue" points="825.17,-130.73 814.6,-131.54 823.36,-137.49 825.17,-130.73"/>
</g>
<!-- Node28 -->
<g id="node19" class="node">
<title>Node28</title>
<g id="a_node19"><a xlink:href="Coordinator_8hpp.html" target="_top" xlink:title=" ">
<polygon fill="white" stroke="red" points="1136.01,-224.5 1136.01,-243.5 1230.01,-243.5 1230.01,-224.5 1136.01,-224.5"/>
<text text-anchor="middle" x="1183.01" y="-231.5" font-family="Helvetica,sans-Serif" font-size="10.00">Coordinator.hpp</text>
</a>
</g>
</g>
<!-- Node23&#45;&gt;Node28 -->
<g id="edge26" class="edge">
<title>Node23&#45;&gt;Node28</title>
<path fill="none" stroke="midnightblue" d="M1326.07,-280.44C1297.35,-271.32 1251.68,-256.81 1219.69,-246.65"/>
<polygon fill="midnightblue" stroke="midnightblue" points="1220.41,-243.21 1209.82,-243.52 1218.29,-249.88 1220.41,-243.21"/>
</g>
<!-- Node23&#45;&gt;Node32 -->
<g id="edge30" class="edge">
<title>Node23&#45;&gt;Node32</title>
<path fill="none" stroke="midnightblue" d="M1390.11,-282.7C1446.33,-273.15 1553.36,-254.98 1617.85,-244.03"/>
<polygon fill="midnightblue" stroke="midnightblue" points="1618.55,-247.46 1627.82,-242.33 1617.37,-240.56 1618.55,-247.46"/>
</g>
<!-- Node24&#45;&gt;Node7 -->
<g id="edge20" class="edge">
<title>Node24&#45;&gt;Node7</title>
<path fill="none" stroke="midnightblue" d="M820.03,-115.01C876.61,-105.87 985.28,-88.3 1054.31,-77.14"/>
<polygon fill="midnightblue" stroke="midnightblue" points="1054.88,-80.59 1064.19,-75.54 1053.76,-73.68 1054.88,-80.59"/>
</g>
<!-- Node25 -->
<g id="node16" class="node">
<title>Node25</title>
<g id="a_node16"><a xlink:title=" ">
<polygon fill="white" stroke="#bfbfbf" points="117.51,-56.5 117.51,-75.5 170.51,-75.5 170.51,-56.5 117.51,-56.5"/>
<text text-anchor="middle" x="144.01" y="-63.5" font-family="Helvetica,sans-Serif" font-size="10.00">raylib.h</text>
</a>
</g>
</g>
<!-- Node24&#45;&gt;Node25 -->
<g id="edge19" class="edge">
<title>Node24&#45;&gt;Node25</title>
<path fill="none" stroke="midnightblue" d="M745.89,-117.86C632.87,-108.31 293.8,-79.66 180.98,-70.12"/>
<polygon fill="midnightblue" stroke="midnightblue" points="181.04,-66.62 170.78,-69.26 180.45,-73.59 181.04,-66.62"/>
</g>
<!-- Node26 -->
<g id="node17" class="node">
<title>Node26</title>
<g id="a_node17"><a xlink:title=" ">
<polygon fill="white" stroke="#bfbfbf" points="540.51,-56.5 540.51,-75.5 587.51,-75.5 587.51,-56.5 540.51,-56.5"/>
<text text-anchor="middle" x="564.01" y="-63.5" font-family="Helvetica,sans-Serif" font-size="10.00">cmath</text>
</a>
</g>
</g>
<!-- Node24&#45;&gt;Node26 -->
<g id="edge21" class="edge">
<title>Node24&#45;&gt;Node26</title>
<path fill="none" stroke="midnightblue" d="M748.31,-112.44C706.95,-102.24 638.31,-85.32 597.49,-75.26"/>
<polygon fill="midnightblue" stroke="midnightblue" points="598.3,-71.85 587.75,-72.85 596.62,-78.65 598.3,-71.85"/>
</g>
<!-- Node27 -->
<g id="node18" class="node">
<title>Node27</title>
<g id="a_node18"><a xlink:title=" ">
<polygon fill="white" stroke="#bfbfbf" points="1195.01,-56.5 1195.01,-75.5 1251.01,-75.5 1251.01,-56.5 1195.01,-56.5"/>
<text text-anchor="middle" x="1223.01" y="-63.5" font-family="Helvetica,sans-Serif" font-size="10.00">sstream</text>
</a>
</g>
</g>
<!-- Node24&#45;&gt;Node27 -->
<g id="edge22" class="edge">
<title>Node24&#45;&gt;Node27</title>
<path fill="none" stroke="midnightblue" d="M820.08,-118.36C891.21,-112.96 1051.64,-99.17 1185.01,-76 1185.11,-75.98 1185.21,-75.97 1185.31,-75.95"/>
<polygon fill="midnightblue" stroke="midnightblue" points="1185.73,-79.43 1194.87,-74.07 1184.38,-72.56 1185.73,-79.43"/>
</g>
<!-- Node28&#45;&gt;Node14 -->
<g id="edge27" class="edge">
<title>Node28&#45;&gt;Node14</title>
<path fill="none" stroke="midnightblue" d="M1191.88,-224.37C1210.85,-205.89 1255.65,-162.29 1279.84,-138.74"/>
<polygon fill="midnightblue" stroke="midnightblue" points="1282.46,-141.07 1287.18,-131.59 1277.58,-136.06 1282.46,-141.07"/>
</g>
<!-- Node19 -->
<g id="node20" class="node">
<title>Node19</title>
<g id="a_node20"><a xlink:title=" ">
<polygon fill="white" stroke="#bfbfbf" points="626.01,-168.5 626.01,-187.5 670.01,-187.5 670.01,-168.5 626.01,-168.5"/>
<text text-anchor="middle" x="648.01" y="-175.5" font-family="Helvetica,sans-Serif" font-size="10.00">string</text>
</a>
</g>
</g>
<!-- Node28&#45;&gt;Node19 -->
<g id="edge28" class="edge">
<title>Node28&#45;&gt;Node19</title>
<path fill="none" stroke="midnightblue" d="M1135.76,-225.31C1132.47,-224.84 1129.19,-224.4 1126.01,-224 958.96,-202.97 757.92,-187.11 680.54,-181.35"/>
<polygon fill="midnightblue" stroke="midnightblue" points="680.69,-177.86 670.46,-180.61 680.18,-184.84 680.69,-177.86"/>
</g>
<!-- Node20 -->
<g id="node21" class="node">
<title>Node20</title>
<g id="a_node21"><a xlink:title=" ">
<polygon fill="white" stroke="#bfbfbf" points="802.01,-168.5 802.01,-187.5 840.01,-187.5 840.01,-168.5 802.01,-168.5"/>
<text text-anchor="middle" x="821.01" y="-175.5" font-family="Helvetica,sans-Serif" font-size="10.00">map</text>
</a>
</g>
</g>
<!-- Node28&#45;&gt;Node20 -->
<g id="edge29" class="edge">
<title>Node28&#45;&gt;Node20</title>
<path fill="none" stroke="midnightblue" d="M1135.74,-225.5C1132.45,-224.99 1129.18,-224.48 1126.01,-224 1024.82,-208.55 904.6,-191.07 850.25,-183.21"/>
<polygon fill="midnightblue" stroke="midnightblue" points="850.69,-179.74 840.29,-181.78 849.69,-186.67 850.69,-179.74"/>
</g>
<!-- Node32&#45;&gt;Node5 -->
<g id="edge32" class="edge">
<title>Node32&#45;&gt;Node5</title>
<path fill="none" stroke="midnightblue" d="M1675.56,-224.39C1683.06,-210.87 1699.18,-184.53 1719.01,-168 1735.91,-153.91 1757.97,-142.93 1776.26,-135.34"/>
<polygon fill="midnightblue" stroke="midnightblue" points="1777.7,-138.53 1785.69,-131.58 1775.11,-132.03 1777.7,-138.53"/>
</g>
<!-- Node32&#45;&gt;Node12 -->
<g id="edge31" class="edge">
<title>Node32&#45;&gt;Node12</title>
<path fill="none" stroke="midnightblue" d="M1683.75,-224.35C1706.01,-209.77 1753.89,-180.63 1799.01,-168 1902.49,-139.03 2230.9,-127.35 2347.47,-124.06"/>
<polygon fill="midnightblue" stroke="midnightblue" points="2347.86,-127.55 2357.75,-123.77 2347.66,-120.55 2347.86,-127.55"/>
</g>
<!-- Node32&#45;&gt;Node24 -->
<g id="edge33" class="edge">
<title>Node32&#45;&gt;Node24</title>
<path fill="none" stroke="midnightblue" d="M1627.91,-231.42C1511.7,-226.87 1193.83,-212.51 1092.01,-188 1069.54,-182.59 1066.2,-174.45 1044.01,-168 970.95,-146.77 883.29,-134.19 830.43,-127.94"/>
<polygon fill="midnightblue" stroke="midnightblue" points="830.68,-124.44 820.34,-126.77 829.87,-131.4 830.68,-124.44"/>
</g>
<!-- Node37&#45;&gt;Node11 -->
<g id="edge39" class="edge">
<title>Node37&#45;&gt;Node11</title>
<path fill="none" stroke="midnightblue" d="M1114.02,-339.69C1129.3,-338.39 1145.77,-337.06 1161.01,-336 1198.42,-333.4 1808.55,-326.57 1835.01,-300 1861.77,-273.14 1853.82,-224.12 1846.77,-197.46"/>
<polygon fill="midnightblue" stroke="midnightblue" points="1850.04,-196.17 1843.91,-187.53 1843.32,-198.11 1850.04,-196.17"/>
</g>
<!-- Node37&#45;&gt;Node16 -->
<g id="edge42" class="edge">
<title>Node37&#45;&gt;Node16</title>
<path fill="none" stroke="midnightblue" d="M1050.07,-336.32C1036.79,-315.78 1007.4,-262.98 1027.01,-224 1048.84,-180.6 1099.13,-151.15 1132.05,-135.73"/>
<polygon fill="midnightblue" stroke="midnightblue" points="1133.58,-138.88 1141.25,-131.57 1130.7,-132.5 1133.58,-138.88"/>
</g>
<!-- Node37&#45;&gt;Node23 -->
<g id="edge40" class="edge">
<title>Node37&#45;&gt;Node23</title>
<path fill="none" stroke="midnightblue" d="M1103.07,-336.44C1158.5,-326.36 1250.06,-309.72 1305.63,-299.61"/>
<polygon fill="midnightblue" stroke="midnightblue" points="1306.36,-303.04 1315.57,-297.81 1305.11,-296.15 1306.36,-303.04"/>
</g>
<!-- Node37&#45;&gt;Node28 -->
<g id="edge41" class="edge">
<title>Node37&#45;&gt;Node28</title>
<path fill="none" stroke="midnightblue" d="M1065.97,-336.37C1087.4,-317.81 1138.08,-273.91 1165.19,-250.44"/>
<polygon fill="midnightblue" stroke="midnightblue" points="1167.82,-252.78 1173.09,-243.59 1163.24,-247.49 1167.82,-252.78"/>
</g>
<!-- Node31 -->
<g id="node24" class="node">
<title>Node31</title>
<g id="a_node24"><a xlink:href="ASystem_8hpp.html" target="_top" xlink:title=" ">
<polygon fill="white" stroke="black" points="1036.51,-224.5 1036.51,-243.5 1117.51,-243.5 1117.51,-224.5 1036.51,-224.5"/>
<text text-anchor="middle" x="1077.01" y="-231.5" font-family="Helvetica,sans-Serif" font-size="10.00">ASystem.hpp</text>
</a>
</g>
</g>
<!-- Node37&#45;&gt;Node31 -->
<g id="edge35" class="edge">
<title>Node37&#45;&gt;Node31</title>
<path fill="none" stroke="midnightblue" d="M1057.66,-336.37C1061.05,-318.62 1068.86,-277.67 1073.46,-253.6"/>
<polygon fill="midnightblue" stroke="midnightblue" points="1076.93,-254.07 1075.37,-243.59 1070.06,-252.76 1076.93,-254.07"/>
</g>
<!-- Node31&#45;&gt;Node11 -->
<g id="edge38" class="edge">
<title>Node31&#45;&gt;Node11</title>
<path fill="none" stroke="midnightblue" d="M1117.61,-225.29C1120.78,-224.81 1123.94,-224.37 1127.01,-224 1380.54,-193.3 1687.42,-182.88 1798.39,-179.98"/>
<polygon fill="midnightblue" stroke="midnightblue" points="1798.6,-183.47 1808.51,-179.72 1798.42,-176.47 1798.6,-183.47"/>
</g>
<!-- Node31&#45;&gt;Node16 -->
<g id="edge37" class="edge">
<title>Node31&#45;&gt;Node16</title>
<path fill="none" stroke="midnightblue" d="M1106.74,-224.44C1124.73,-217.62 1146.37,-206.15 1158.01,-188 1166.7,-174.45 1167.28,-155.9 1166.07,-142.09"/>
<polygon fill="midnightblue" stroke="midnightblue" points="1169.5,-141.29 1164.79,-131.81 1162.56,-142.17 1169.5,-141.29"/>
</g>
<!-- Node31&#45;&gt;Node19 -->
<g id="edge36" class="edge">
<title>Node31&#45;&gt;Node19</title>
<path fill="none" stroke="midnightblue" d="M1036.26,-227.87C951.37,-217.18 757.06,-192.73 680.18,-183.05"/>
<polygon fill="midnightblue" stroke="midnightblue" points="680.49,-179.56 670.13,-181.78 679.62,-186.51 680.49,-179.56"/>
</g>
<!-- Node38&#45;&gt;Node14 -->
<g id="edge55" class="edge">
<title>Node38&#45;&gt;Node14</title>
<path fill="none" stroke="midnightblue" d="M516.26,-283.67C599.68,-272.04 791.12,-245.32 798.01,-244 970.61,-210.98 1173.32,-156.88 1256.93,-133.89"/>
<polygon fill="midnightblue" stroke="midnightblue" points="1258.05,-137.21 1266.76,-131.18 1256.19,-130.46 1258.05,-137.21"/>
</g>
<!-- Node38&#45;&gt;Node24 -->
<g id="edge50" class="edge">
<title>Node38&#45;&gt;Node24</title>
<path fill="none" stroke="midnightblue" d="M462.28,-280.24C450.12,-272.48 434.2,-259.93 427.01,-244 411.93,-210.59 428.65,-188.54 459.01,-168 481.5,-152.78 651.25,-135.18 735.66,-127.26"/>
<polygon fill="midnightblue" stroke="midnightblue" points="736.12,-130.73 745.76,-126.32 735.48,-123.76 736.12,-130.73"/>
</g>
<!-- Node38&#45;&gt;Node19 -->
<g id="edge54" class="edge">
<title>Node38&#45;&gt;Node19</title>
<path fill="none" stroke="midnightblue" d="M504.01,-280.39C525.41,-272.64 556.03,-260.03 580.01,-244 600.89,-230.04 621.23,-209.39 634.14,-195.13"/>
<polygon fill="midnightblue" stroke="midnightblue" points="636.82,-197.38 640.83,-187.57 631.58,-192.74 636.82,-197.38"/>
</g>
<!-- Node38&#45;&gt;Node38 -->
<g id="edge56" class="edge">
<title>Node38&#45;&gt;Node38</title>
<path fill="none" stroke="midnightblue" d="M501.89,-299.53C518.12,-302.31 534.01,-299.13 534.01,-290 534.01,-282.79 524.12,-279.3 511.97,-279.51"/>
<polygon fill="midnightblue" stroke="midnightblue" points="511.51,-276.04 501.89,-280.47 512.18,-283 511.51,-276.04"/>
</g>
<!-- Node34 -->
<g id="node26" class="node">
<title>Node34</title>
<g id="a_node26"><a xlink:href="Vector2_8hpp.html" target="_top" xlink:title=" ">
<polygon fill="white" stroke="black" points="268.01,-168.5 268.01,-187.5 342.01,-187.5 342.01,-168.5 268.01,-168.5"/>
<text text-anchor="middle" x="305.01" y="-175.5" font-family="Helvetica,sans-Serif" font-size="10.00">Vector2.hpp</text>
</a>
</g>
</g>
<!-- Node38&#45;&gt;Node34 -->
<g id="edge45" class="edge">
<title>Node38&#45;&gt;Node34</title>
<path fill="none" stroke="midnightblue" d="M439.92,-280.75C414.43,-273.9 381.1,-262.27 356.01,-244 338.68,-231.38 324.19,-211.33 315.14,-196.83"/>
<polygon fill="midnightblue" stroke="midnightblue" points="317.91,-194.64 309.78,-187.85 311.9,-198.23 317.91,-194.64"/>
</g>
<!-- Node36 -->
<g id="node27" class="node">
<title>Node36</title>
<g id="a_node27"><a xlink:href="Color_8hpp.html" target="_top" xlink:title=" ">
<polygon fill="white" stroke="black" points="16.01,-168.5 16.01,-187.5 78.01,-187.5 78.01,-168.5 16.01,-168.5"/>
<text text-anchor="middle" x="47.01" y="-175.5" font-family="Helvetica,sans-Serif" font-size="10.00">Color.hpp</text>
</a>
</g>
</g>
<!-- Node38&#45;&gt;Node36 -->
<g id="edge51" class="edge">
<title>Node38&#45;&gt;Node36</title>
<path fill="none" stroke="midnightblue" d="M439.98,-286.06C328.91,-277.4 12.33,-252.05 5.01,-244 -9.13,-228.45 9.69,-207.64 26.47,-193.8"/>
<polygon fill="midnightblue" stroke="midnightblue" points="28.66,-196.53 34.39,-187.62 24.35,-191.01 28.66,-196.53"/>
</g>
<!-- Node39 -->
<g id="node28" class="node">
<title>Node39</title>
<g id="a_node28"><a xlink:href="Image_8hpp.html" target="_top" xlink:title=" ">
<polygon fill="white" stroke="black" points="14.01,-224.5 14.01,-243.5 82.01,-243.5 82.01,-224.5 14.01,-224.5"/>
<text text-anchor="middle" x="48.01" y="-231.5" font-family="Helvetica,sans-Serif" font-size="10.00">Image.hpp</text>
</a>
</g>
</g>
<!-- Node38&#45;&gt;Node39 -->
<g id="edge57" class="edge">
<title>Node38&#45;&gt;Node39</title>
<path fill="none" stroke="midnightblue" d="M439.95,-285.73C372.09,-279.64 225.58,-265.38 92.21,-244.07"/>
<polygon fill="midnightblue" stroke="midnightblue" points="92.66,-240.59 82.22,-242.45 91.54,-247.5 92.66,-240.59"/>
</g>
<!-- Node40 -->
<g id="node29" class="node">
<title>Node40</title>
<g id="a_node29"><a xlink:href="BoundingBox_8hpp.html" target="_top" xlink:title=" ">
<polygon fill="white" stroke="black" points="468.01,-168.5 468.01,-187.5 570.01,-187.5 570.01,-168.5 468.01,-168.5"/>
<text text-anchor="middle" x="519.01" y="-175.5" font-family="Helvetica,sans-Serif" font-size="10.00">BoundingBox.hpp</text>
</a>
</g>
</g>
<!-- Node38&#45;&gt;Node40 -->
<g id="edge62" class="edge">
<title>Node38&#45;&gt;Node40</title>
<path fill="none" stroke="midnightblue" d="M512.19,-280.49C531,-273.88 552.75,-262.6 564.01,-244 574.78,-226.2 557.02,-206.69 540.74,-193.74"/>
<polygon fill="midnightblue" stroke="midnightblue" points="542.63,-190.78 532.52,-187.61 538.44,-196.39 542.63,-190.78"/>
</g>
<!-- Node34&#45;&gt;Node7 -->
<g id="edge49" class="edge">
<title>Node34&#45;&gt;Node7</title>
<path fill="none" stroke="midnightblue" d="M342.04,-170.34C346.74,-169.53 351.48,-168.73 356.01,-168 524.97,-140.68 567.34,-134.51 737.01,-112 845.26,-97.64 971.16,-83.17 1047.41,-74.65"/>
<polygon fill="midnightblue" stroke="midnightblue" points="1047.83,-78.12 1057.38,-73.54 1047.05,-71.17 1047.83,-78.12"/>
</g>
<!-- Node34&#45;&gt;Node24 -->
<g id="edge48" class="edge">
<title>Node34&#45;&gt;Node24</title>
<path fill="none" stroke="midnightblue" d="M342.29,-170.11C346.9,-169.35 351.56,-168.63 356.01,-168 493.41,-148.66 656.75,-133.65 735.67,-126.9"/>
<polygon fill="midnightblue" stroke="midnightblue" points="736.11,-130.38 745.78,-126.04 735.52,-123.4 736.11,-130.38"/>
</g>
<!-- Node34&#45;&gt;Node25 -->
<g id="edge46" class="edge">
<title>Node34&#45;&gt;Node25</title>
<path fill="none" stroke="midnightblue" d="M292.38,-168.37C264.75,-149.49 198.73,-104.38 164.85,-81.24"/>
<polygon fill="midnightblue" stroke="midnightblue" points="166.82,-78.34 156.58,-75.59 162.87,-84.12 166.82,-78.34"/>
</g>
<!-- Node34&#45;&gt;Node26 -->
<g id="edge47" class="edge">
<title>Node34&#45;&gt;Node26</title>
<path fill="none" stroke="midnightblue" d="M325.33,-168.37C370.91,-149.01 481.45,-102.06 534.56,-79.51"/>
<polygon fill="midnightblue" stroke="midnightblue" points="535.94,-82.72 543.78,-75.59 533.21,-76.28 535.94,-82.72"/>
</g>
<!-- Node36&#45;&gt;Node24 -->
<g id="edge53" class="edge">
<title>Node36&#45;&gt;Node24</title>
<path fill="none" stroke="midnightblue" d="M78.09,-174.68C102.54,-172.85 137.44,-170.26 168.01,-168 379.87,-152.37 632.8,-133.93 735.84,-126.43"/>
<polygon fill="midnightblue" stroke="midnightblue" points="736.2,-129.92 745.92,-125.7 735.69,-122.93 736.2,-129.92"/>
</g>
<!-- Node36&#45;&gt;Node25 -->
<g id="edge52" class="edge">
<title>Node36&#45;&gt;Node25</title>
<path fill="none" stroke="midnightblue" d="M52.19,-168.08C59.96,-155.05 75.51,-130.39 92.01,-112 101.85,-101.03 114.29,-90.18 124.54,-81.88"/>
<polygon fill="midnightblue" stroke="midnightblue" points="126.85,-84.51 132.52,-75.56 122.51,-79.02 126.85,-84.51"/>
</g>
<!-- Node39&#45;&gt;Node25 -->
<g id="edge59" class="edge">
<title>Node39&#45;&gt;Node25</title>
<path fill="none" stroke="midnightblue" d="M56.86,-224.28C65.33,-215.62 78.1,-201.69 87.01,-188 109.3,-153.76 127.88,-109.42 137.32,-85.05"/>
<polygon fill="midnightblue" stroke="midnightblue" points="140.61,-86.22 140.89,-75.63 134.07,-83.74 140.61,-86.22"/>
</g>
<!-- Node39&#45;&gt;Node19 -->
<g id="edge58" class="edge">
<title>Node39&#45;&gt;Node19</title>
<path fill="none" stroke="midnightblue" d="M82.2,-225.42C85.17,-224.89 88.14,-224.4 91.01,-224 306.36,-193.66 362.65,-210.07 579.01,-188 591.06,-186.77 604.26,-185.12 615.86,-183.57"/>
<polygon fill="midnightblue" stroke="midnightblue" points="616.55,-187.01 625.98,-182.19 615.6,-180.08 616.55,-187.01"/>
</g>
<!-- Node39&#45;&gt;Node34 -->
<g id="edge61" class="edge">
<title>Node39&#45;&gt;Node34</title>
<path fill="none" stroke="midnightblue" d="M82.14,-225.83C127.23,-216.35 206.88,-199.62 257.74,-188.93"/>
<polygon fill="midnightblue" stroke="midnightblue" points="258.76,-192.3 267.82,-186.81 257.32,-185.44 258.76,-192.3"/>
</g>
<!-- Node39&#45;&gt;Node36 -->
<g id="edge60" class="edge">
<title>Node39&#45;&gt;Node36</title>
<path fill="none" stroke="midnightblue" d="M47.84,-224.08C47.71,-217.01 47.53,-206.86 47.36,-197.99"/>
<polygon fill="midnightblue" stroke="midnightblue" points="50.86,-197.68 47.17,-187.75 43.86,-197.81 50.86,-197.68"/>
</g>
<!-- Node40&#45;&gt;Node24 -->
<g id="edge63" class="edge">
<title>Node40&#45;&gt;Node24</title>
<path fill="none" stroke="midnightblue" d="M560.84,-168.44C608.45,-158.71 686.03,-142.84 735.78,-132.66"/>
<polygon fill="midnightblue" stroke="midnightblue" points="736.55,-136.08 745.64,-130.64 735.14,-129.22 736.55,-136.08"/>
</g>
<!-- Node41&#45;&gt;Node16 -->
<g id="edge75" class="edge">
<title>Node41&#45;&gt;Node16</title>
<path fill="none" stroke="midnightblue" d="M641.2,-336.48C670.81,-328.12 716.41,-314.54 755.01,-300 889.81,-249.23 918.38,-224.19 1051.01,-168 1078.07,-156.53 1109.09,-144.13 1131.62,-135.25"/>
<polygon fill="midnightblue" stroke="midnightblue" points="1132.99,-138.47 1141.02,-131.55 1130.43,-131.95 1132.99,-138.47"/>
</g>
<!-- Node41&#45;&gt;Node17 -->
<g id="edge67" class="edge">
<title>Node41&#45;&gt;Node17</title>
<path fill="none" stroke="midnightblue" d="M676.17,-343.14C914.32,-336.38 1719.87,-312.79 1835.01,-300 1969.82,-285.03 2001.88,-269.94 2135.01,-244 2337.35,-204.58 2577.74,-154.9 2680.43,-133.55"/>
<polygon fill="midnightblue" stroke="midnightblue" points="2681.15,-136.97 2690.23,-131.51 2679.72,-130.12 2681.15,-136.97"/>
</g>
<!-- Node41&#45;&gt;Node20 -->
<g id="edge76" class="edge">
<title>Node41&#45;&gt;Node20</title>
<path fill="none" stroke="midnightblue" d="M640.12,-336.41C681.37,-323.17 755.19,-293.92 798.01,-244 809.32,-230.81 815.2,-211.67 818.17,-197.58"/>
<polygon fill="midnightblue" stroke="midnightblue" points="821.65,-198.03 819.98,-187.57 814.76,-196.79 821.65,-198.03"/>
</g>
<!-- Node41&#45;&gt;Node34 -->
<g id="edge70" class="edge">
<title>Node41&#45;&gt;Node34</title>
<path fill="none" stroke="midnightblue" d="M554.54,-336.47C516.54,-329.48 465.52,-317.79 423.01,-300 379.55,-281.81 363.73,-279.71 333.01,-244 321.5,-230.62 314.09,-211.8 309.81,-197.85"/>
<polygon fill="midnightblue" stroke="midnightblue" points="313.09,-196.59 307.02,-187.9 306.35,-198.48 313.09,-196.59"/>
</g>
<!-- Node42 -->
<g id="node31" class="node">
<title>Node42</title>
<g id="a_node31"><a xlink:href="Input_8hpp.html" target="_top" xlink:title=" ">
<polygon fill="white" stroke="black" points="266.01,-280.5 266.01,-299.5 328.01,-299.5 328.01,-280.5 266.01,-280.5"/>
<text text-anchor="middle" x="297.01" y="-287.5" font-family="Helvetica,sans-Serif" font-size="10.00">Input.hpp</text>
</a>
</g>
</g>
<!-- Node41&#45;&gt;Node42 -->
<g id="edge65" class="edge">
<title>Node41&#45;&gt;Node42</title>
<path fill="none" stroke="midnightblue" d="M556.28,-336.48C502.11,-327.77 416.13,-313.63 342.01,-300 340.91,-299.8 339.8,-299.59 338.68,-299.38"/>
<polygon fill="midnightblue" stroke="midnightblue" points="338.94,-295.87 328.46,-297.42 337.62,-302.74 338.94,-295.87"/>
</g>
<!-- Node43 -->
<g id="node32" class="node">
<title>Node43</title>
<g id="a_node32"><a xlink:href="EngineExceptions_8hpp.html" target="_top" xlink:title=" ">
<polygon fill="white" stroke="red" points="552.01,-280.5 552.01,-299.5 676.01,-299.5 676.01,-280.5 552.01,-280.5"/>
<text text-anchor="middle" x="614.01" y="-287.5" font-family="Helvetica,sans-Serif" font-size="10.00">EngineExceptions.hpp</text>
</a>
</g>
</g>
<!-- Node41&#45;&gt;Node43 -->
<g id="edge68" class="edge">
<title>Node41&#45;&gt;Node43</title>
<path fill="none" stroke="midnightblue" d="M610.67,-336.08C611.19,-329.01 611.95,-318.86 612.6,-309.99"/>
<polygon fill="midnightblue" stroke="midnightblue" points="616.11,-309.98 613.36,-299.75 609.13,-309.47 616.11,-309.98"/>
</g>
<!-- Node45 -->
<g id="node33" class="node">
<title>Node45</title>
<g id="a_node33"><a xlink:href="TerrainGenerator_8hpp.html" target="_top" xlink:title=" ">
<polygon fill="white" stroke="black" points="436.51,-224.5 436.51,-243.5 555.51,-243.5 555.51,-224.5 436.51,-224.5"/>
<text text-anchor="middle" x="496.01" y="-231.5" font-family="Helvetica,sans-Serif" font-size="10.00">TerrainGenerator.hpp</text>
</a>
</g>
</g>
<!-- Node41&#45;&gt;Node45 -->
<g id="edge71" class="edge">
<title>Node41&#45;&gt;Node45</title>
<path fill="none" stroke="midnightblue" d="M543.93,-336.92C498.92,-329.91 445.05,-318 431.01,-300 415.76,-280.45 442.97,-260.68 466.71,-248.17"/>
<polygon fill="midnightblue" stroke="midnightblue" points="468.5,-251.19 475.87,-243.59 465.36,-244.93 468.5,-251.19"/>
</g>
<!-- Node42&#45;&gt;Node34 -->
<g id="edge66" class="edge">
<title>Node42&#45;&gt;Node34</title>
<path fill="none" stroke="midnightblue" d="M291.79,-280.17C285.05,-267.67 274.8,-244.1 280.01,-224 282.56,-214.18 287.76,-204.21 292.77,-196.17"/>
<polygon fill="midnightblue" stroke="midnightblue" points="295.76,-197.99 298.38,-187.73 289.93,-194.11 295.76,-197.99"/>
</g>
<!-- Node43&#45;&gt;Node19 -->
<g id="edge69" class="edge">
<title>Node43&#45;&gt;Node19</title>
<path fill="none" stroke="midnightblue" d="M619.13,-280.34C624.15,-271.49 631.65,-257.21 636.01,-244 641.01,-228.83 644.12,-210.93 645.92,-197.77"/>
<polygon fill="midnightblue" stroke="midnightblue" points="649.42,-197.95 647.18,-187.6 642.48,-197.09 649.42,-197.95"/>
</g>
<!-- Node45&#45;&gt;Node16 -->
<g id="edge73" class="edge">
<title>Node45&#45;&gt;Node16</title>
<path fill="none" stroke="midnightblue" d="M511.88,-224.37C544.06,-206.88 614.19,-168.83 617.01,-168 713.8,-139.37 1025.39,-127.28 1129.08,-123.99"/>
<polygon fill="midnightblue" stroke="midnightblue" points="1129.41,-127.48 1139.29,-123.67 1129.19,-120.48 1129.41,-127.48"/>
</g>
<!-- Node45&#45;&gt;Node19 -->
<g id="edge72" class="edge">
<title>Node45&#45;&gt;Node19</title>
<path fill="none" stroke="midnightblue" d="M520.09,-224.44C546,-215.24 587.33,-200.56 615.97,-190.38"/>
<polygon fill="midnightblue" stroke="midnightblue" points="617.27,-193.63 625.52,-186.99 614.93,-187.04 617.27,-193.63"/>
</g>
<!-- Node45&#45;&gt;Node34 -->
<g id="edge74" class="edge">
<title>Node45&#45;&gt;Node34</title>
<path fill="none" stroke="midnightblue" d="M465.74,-224.44C433.05,-215.2 380.83,-200.44 344.83,-190.26"/>
<polygon fill="midnightblue" stroke="midnightblue" points="345.71,-186.87 335.13,-187.52 343.8,-193.61 345.71,-186.87"/>
</g>
<!-- Node46&#45;&gt;Node4 -->
<g id="edge78" class="edge">
<title>Node46&#45;&gt;Node4</title>
<path fill="none" stroke="midnightblue" d="M1168.31,-511.66C1268.96,-508.26 1515.06,-497.43 1719.01,-468 1836.43,-451.06 1870.24,-457 1980.01,-412 2051.51,-382.69 2087.35,-372.89 2113.01,-300 2119.07,-282.78 2108.13,-264.06 2097.62,-251.15"/>
<polygon fill="midnightblue" stroke="midnightblue" points="2100.18,-248.77 2090.95,-243.58 2094.93,-253.4 2100.18,-248.77"/>
</g>
<!-- Node47 -->
<g id="node35" class="node">
<title>Node47</title>
<g id="a_node35"><a xlink:href="Movement_8hpp.html" target="_top" xlink:title=" ">
<polygon fill="white" stroke="red" points="1410.01,-336.5 1410.01,-355.5 1500.01,-355.5 1500.01,-336.5 1410.01,-336.5"/>
<text text-anchor="middle" x="1455.01" y="-343.5" font-family="Helvetica,sans-Serif" font-size="10.00">Movement.hpp</text>
</a>
</g>
</g>
<!-- Node46&#45;&gt;Node47 -->
<g id="edge79" class="edge">
<title>Node46&#45;&gt;Node47</title>
<path fill="none" stroke="midnightblue" d="M1139.44,-504.31C1194.18,-477.02 1362.84,-392.95 1428.48,-360.22"/>
<polygon fill="midnightblue" stroke="midnightblue" points="1430.36,-363.2 1437.75,-355.61 1427.24,-356.93 1430.36,-363.2"/>
</g>
<!-- Node46&#45;&gt;Node62 -->
<g id="edge91" class="edge">
<title>Node46&#45;&gt;Node62</title>
<path fill="none" stroke="midnightblue" d="M1168.39,-508.4C1268.45,-498.46 1504.19,-475.06 1611.32,-464.43"/>
<polygon fill="midnightblue" stroke="midnightblue" points="1611.67,-467.91 1621.27,-463.44 1610.98,-460.95 1611.67,-467.91"/>
</g>
<!-- Node47&#45;&gt;Node4 -->
<g id="edge80" class="edge">
<title>Node47&#45;&gt;Node4</title>
<path fill="none" stroke="midnightblue" d="M1500.06,-337.81C1504.77,-337.15 1509.48,-336.53 1514.01,-336 1704.47,-313.53 1758.77,-349.65 1944.01,-300 1986.84,-288.52 2032.68,-264.25 2059.27,-248.83"/>
<polygon fill="midnightblue" stroke="midnightblue" points="2061.32,-251.69 2068.15,-243.59 2057.76,-245.66 2061.32,-251.69"/>
</g>
<!-- Node47&#45;&gt;Node11 -->
<g id="edge87" class="edge">
<title>Node47&#45;&gt;Node11</title>
<path fill="none" stroke="midnightblue" d="M1465.92,-336.46C1482,-323.91 1513.08,-299.83 1540.01,-280 1574.66,-254.48 1579.51,-241.09 1619.01,-224 1678.11,-198.43 1752.43,-187.16 1798.32,-182.36"/>
<polygon fill="midnightblue" stroke="midnightblue" points="1798.9,-185.82 1808.51,-181.35 1798.21,-178.85 1798.9,-185.82"/>
</g>
<!-- Node47&#45;&gt;Node23 -->
<g id="edge88" class="edge">
<title>Node47&#45;&gt;Node23</title>
<path fill="none" stroke="midnightblue" d="M1438.62,-336.32C1422.34,-327.7 1397.14,-314.36 1378.29,-304.39"/>
<polygon fill="midnightblue" stroke="midnightblue" points="1379.83,-301.24 1369.36,-299.65 1376.56,-307.43 1379.83,-301.24"/>
</g>
<!-- Node47&#45;&gt;Node32 -->
<g id="edge89" class="edge">
<title>Node47&#45;&gt;Node32</title>
<path fill="none" stroke="midnightblue" d="M1471.96,-336.37C1509.58,-317.21 1600.25,-271.04 1645.06,-248.22"/>
<polygon fill="midnightblue" stroke="midnightblue" points="1646.82,-251.25 1654.14,-243.59 1643.64,-245.01 1646.82,-251.25"/>
</g>
<!-- Node47&#45;&gt;Node38 -->
<g id="edge90" class="edge">
<title>Node47&#45;&gt;Node38</title>
<path fill="none" stroke="midnightblue" d="M1409.73,-342.51C1375.92,-340.67 1328.58,-338.12 1287.01,-336 956.39,-319.15 872.63,-330.73 543.01,-300 537.55,-299.49 531.85,-298.86 526.18,-298.16"/>
<polygon fill="midnightblue" stroke="midnightblue" points="526.46,-294.67 516.09,-296.85 525.56,-301.61 526.46,-294.67"/>
</g>
<!-- Node47&#45;&gt;Node42 -->
<g id="edge81" class="edge">
<title>Node47&#45;&gt;Node42</title>
<path fill="none" stroke="midnightblue" d="M1409.74,-342.43C1375.93,-340.55 1328.58,-337.99 1287.01,-336 906.66,-317.81 811.22,-320.76 431.01,-300 399.87,-298.3 364.69,-295.92 338.2,-294.03"/>
<polygon fill="midnightblue" stroke="midnightblue" points="338.36,-290.54 328.13,-293.31 337.86,-297.52 338.36,-290.54"/>
</g>
<!-- Node48 -->
<g id="node36" class="node">
<title>Node48</title>
<g id="a_node36"><a xlink:href="PhysicsBody_8hpp.html" target="_top" xlink:title=" ">
<polygon fill="white" stroke="black" points="2530.01,-280.5 2530.01,-299.5 2628.01,-299.5 2628.01,-280.5 2530.01,-280.5"/>
<text text-anchor="middle" x="2579.01" y="-287.5" font-family="Helvetica,sans-Serif" font-size="10.00">PhysicsBody.hpp</text>
</a>
</g>
</g>
<!-- Node47&#45;&gt;Node48 -->
<g id="edge82" class="edge">
<title>Node47&#45;&gt;Node48</title>
<path fill="none" stroke="midnightblue" d="M1500.28,-342.45C1534.09,-340.58 1581.44,-338.02 1623.01,-336 1988.26,-318.22 2079.89,-320.25 2445.01,-300 2469.45,-298.64 2496.37,-296.89 2519.64,-295.29"/>
<polygon fill="midnightblue" stroke="midnightblue" points="2519.97,-298.77 2529.71,-294.59 2519.49,-291.79 2519.97,-298.77"/>
</g>
<!-- Node48&#45;&gt;Node5 -->
<g id="edge84" class="edge">
<title>Node48&#45;&gt;Node5</title>
<path fill="none" stroke="midnightblue" d="M2570.15,-280.5C2555.89,-267.13 2526.51,-240.98 2498.01,-224 2442.91,-191.17 2427.31,-183.23 2365.01,-168 2272.45,-145.37 1992.99,-130.87 1870.09,-125.43"/>
<polygon fill="midnightblue" stroke="midnightblue" points="1869.89,-121.92 1859.75,-124.98 1869.59,-128.91 1869.89,-121.92"/>
</g>
<!-- Node48&#45;&gt;Node12 -->
<g id="edge83" class="edge">
<title>Node48&#45;&gt;Node12</title>
<path fill="none" stroke="midnightblue" d="M2578.5,-280.27C2576.74,-258.18 2569.04,-199.59 2536.01,-168 2507.47,-140.7 2462.8,-129.92 2430.19,-125.69"/>
<polygon fill="midnightblue" stroke="midnightblue" points="2430.4,-122.19 2420.06,-124.54 2429.6,-129.15 2430.4,-122.19"/>
</g>
<!-- Node48&#45;&gt;Node24 -->
<g id="edge85" class="edge">
<title>Node48&#45;&gt;Node24</title>
<path fill="none" stroke="midnightblue" d="M2546.14,-280.42C2456.17,-257.36 2197.97,-194.02 1979.01,-168 1863.73,-154.3 1038.21,-130.22 830.4,-124.33"/>
<polygon fill="midnightblue" stroke="midnightblue" points="830.22,-120.82 820.13,-124.04 830.02,-127.82 830.22,-120.82"/>
</g>
<!-- Node48&#45;&gt;Node48 -->
<g id="edge86" class="edge">
<title>Node48&#45;&gt;Node48</title>
<path fill="none" stroke="midnightblue" d="M2607.59,-299.53C2627,-302.31 2646.01,-299.13 2646.01,-290 2646.01,-282.51 2633.22,-279.03 2617.9,-279.55"/>
<polygon fill="midnightblue" stroke="midnightblue" points="2617.23,-276.1 2607.59,-280.47 2617.86,-283.07 2617.23,-276.1"/>
</g>
<!-- Node62&#45;&gt;Node4 -->
<g id="edge92" class="edge">
<title>Node62&#45;&gt;Node4</title>
<path fill="none" stroke="midnightblue" d="M1696.54,-448.44C1722.99,-440.52 1761.93,-427.63 1794.01,-412 1850.43,-384.52 1856.48,-363.26 1913.01,-336 1957.45,-314.57 1976.26,-326.28 2018.01,-300 2038.43,-287.15 2057.22,-266.57 2069.08,-252.01"/>
<polygon fill="midnightblue" stroke="midnightblue" points="2072.07,-253.87 2075.52,-243.85 2066.58,-249.53 2072.07,-253.87"/>
</g>
<!-- Node62&#45;&gt;Node11 -->
<g id="edge95" class="edge">
<title>Node62&#45;&gt;Node11</title>
<path fill="none" stroke="midnightblue" d="M1684.37,-448.45C1726.54,-428.04 1831.58,-372.75 1896.01,-300 1919.98,-272.94 1943.58,-255.02 1925.01,-224 1915.7,-208.46 1898.99,-197.98 1882.91,-191.07"/>
<polygon fill="midnightblue" stroke="midnightblue" points="1884.16,-187.8 1873.57,-187.41 1881.6,-194.32 1884.16,-187.8"/>
</g>
<!-- Node62&#45;&gt;Node23 -->
<g id="edge96" class="edge">
<title>Node62&#45;&gt;Node23</title>
<path fill="none" stroke="midnightblue" d="M1657.29,-448.3C1634.76,-426.29 1571.95,-367.87 1509.01,-336 1474.4,-318.48 1431.93,-306.79 1400.04,-299.73"/>
<polygon fill="midnightblue" stroke="midnightblue" points="1400.59,-296.27 1390.08,-297.6 1399.13,-303.11 1400.59,-296.27"/>
</g>
<!-- Node62&#45;&gt;Node32 -->
<g id="edge139" class="edge">
<title>Node62&#45;&gt;Node32</title>
<path fill="none" stroke="midnightblue" d="M1672.75,-448.47C1685.41,-431.84 1712.32,-393.46 1722.01,-356 1724.24,-347.39 1726.99,-343.36 1722.01,-336 1697.86,-300.33 1656.16,-335.67 1632.01,-300 1620.8,-283.45 1636.62,-263.66 1651.34,-250.3"/>
<polygon fill="midnightblue" stroke="midnightblue" points="1653.87,-252.74 1659.23,-243.6 1649.34,-247.41 1653.87,-252.74"/>
</g>
<!-- Node62&#45;&gt;Node38 -->
<g id="edge141" class="edge">
<title>Node62&#45;&gt;Node38</title>
<path fill="none" stroke="midnightblue" d="M1621.27,-457.53C1508.11,-458.16 1201.64,-455.35 951.01,-412 862.16,-396.63 839.68,-389.62 756.01,-356 738.3,-348.88 736.03,-342.27 718.01,-336 683.28,-323.91 585.43,-307.55 525.93,-298.25"/>
<polygon fill="midnightblue" stroke="midnightblue" points="526.43,-294.78 516.01,-296.71 525.36,-301.7 526.43,-294.78"/>
</g>
<!-- Node62&#45;&gt;Node42 -->
<g id="edge93" class="edge">
<title>Node62&#45;&gt;Node42</title>
<path fill="none" stroke="midnightblue" d="M1621.35,-456.39C1498.4,-454.32 1144.76,-445.64 853.01,-412 710.45,-395.56 675.04,-387.38 535.01,-356 497.26,-347.54 394.27,-318.65 336.91,-302.38"/>
<polygon fill="midnightblue" stroke="midnightblue" points="337.68,-298.96 327.1,-299.59 335.76,-305.69 337.68,-298.96"/>
</g>
<!-- Node62&#45;&gt;Node48 -->
<g id="edge94" class="edge">
<title>Node62&#45;&gt;Node48</title>
<path fill="none" stroke="midnightblue" d="M1710.52,-452.99C1780.07,-446.4 1918.61,-431.99 2035.01,-412 2223.2,-379.68 2444.53,-325.28 2536.07,-302.05"/>
<polygon fill="midnightblue" stroke="midnightblue" points="2536.98,-305.43 2545.81,-299.57 2535.25,-298.65 2536.98,-305.43"/>
</g>
<!-- Node63 -->
<g id="node38" class="node">
<title>Node63</title>
<g id="a_node38"><a xlink:href="Explosion_8hpp.html" target="_top" xlink:title=" ">
<polygon fill="white" stroke="red" points="1886.51,-392.5 1886.51,-411.5 1971.51,-411.5 1971.51,-392.5 1886.51,-392.5"/>
<text text-anchor="middle" x="1929.01" y="-399.5" font-family="Helvetica,sans-Serif" font-size="10.00">Explosion.hpp</text>
</a>
</g>
</g>
<!-- Node62&#45;&gt;Node63 -->
<g id="edge97" class="edge">
<title>Node62&#45;&gt;Node63</title>
<path fill="none" stroke="midnightblue" d="M1707.68,-448.44C1753.75,-438.98 1828.01,-423.74 1877.64,-413.55"/>
<polygon fill="midnightblue" stroke="midnightblue" points="1878.44,-416.96 1887.53,-411.52 1877.03,-410.1 1878.44,-416.96"/>
</g>
<!-- Node64 -->
<g id="node39" class="node">
<title>Node64</title>
<g id="a_node39"><a xlink:href="Destructible_8hpp.html" target="_top" xlink:title=" ">
<polygon fill="white" stroke="black" points="2338.51,-280.5 2338.51,-299.5 2435.51,-299.5 2435.51,-280.5 2338.51,-280.5"/>
<text text-anchor="middle" x="2387.01" y="-287.5" font-family="Helvetica,sans-Serif" font-size="10.00">Destructible.hpp</text>
</a>
</g>
</g>
<!-- Node62&#45;&gt;Node64 -->
<g id="edge142" class="edge">
<title>Node62&#45;&gt;Node64</title>
<path fill="none" stroke="midnightblue" d="M1710.58,-452.69C1771.78,-446.31 1885.06,-432.8 1980.01,-412 2120.71,-381.18 2283.73,-326.92 2353.03,-302.95"/>
<polygon fill="midnightblue" stroke="midnightblue" points="2354.26,-306.23 2362.56,-299.64 2351.97,-299.62 2354.26,-306.23"/>
</g>
<!-- Node68 -->
<g id="node43" class="node">
<title>Node68</title>
<g id="a_node43"><a xlink:href="SquareCollider_8hpp.html" target="_top" xlink:title=" ">
<polygon fill="white" stroke="red" points="1170.01,-336.5 1170.01,-355.5 1278.01,-355.5 1278.01,-336.5 1170.01,-336.5"/>
<text text-anchor="middle" x="1224.01" y="-343.5" font-family="Helvetica,sans-Serif" font-size="10.00">SquareCollider.hpp</text>
</a>
</g>
</g>
<!-- Node62&#45;&gt;Node68 -->
<g id="edge138" class="edge">
<title>Node62&#45;&gt;Node68</title>
<path fill="none" stroke="midnightblue" d="M1637.59,-448.42C1594,-435.41 1507.92,-410.25 1434.01,-392 1381.06,-378.92 1320.06,-366.1 1277.5,-357.51"/>
<polygon fill="midnightblue" stroke="midnightblue" points="1278.12,-354.06 1267.63,-355.52 1276.74,-360.93 1278.12,-354.06"/>
</g>
<!-- Node69 -->
<g id="node44" class="node">
<title>Node69</title>
<g id="a_node44"><a xlink:href="Renderer_8hpp.html" target="_top" xlink:title=" ">
<polygon fill="white" stroke="red" points="1632.51,-336.5 1632.51,-355.5 1713.51,-355.5 1713.51,-336.5 1632.51,-336.5"/>
<text text-anchor="middle" x="1673.01" y="-343.5" font-family="Helvetica,sans-Serif" font-size="10.00">Renderer.hpp</text>
</a>
</g>
</g>
<!-- Node62&#45;&gt;Node69 -->
<g id="edge140" class="edge">
<title>Node62&#45;&gt;Node69</title>
<path fill="none" stroke="midnightblue" d="M1666.56,-448.37C1667.69,-430.62 1670.29,-389.67 1671.83,-365.6"/>
<polygon fill="midnightblue" stroke="midnightblue" points="1675.32,-365.79 1672.46,-355.59 1668.33,-365.35 1675.32,-365.79"/>
</g>
<!-- Node63&#45;&gt;Node4 -->
<g id="edge101" class="edge">
<title>Node63&#45;&gt;Node4</title>
<path fill="none" stroke="midnightblue" d="M1960.18,-392.47C1999.92,-379.72 2066.97,-351.5 2096.01,-300 2104.31,-285.27 2098.53,-266.12 2092.07,-252.43"/>
<polygon fill="midnightblue" stroke="midnightblue" points="2095.17,-250.8 2087.43,-243.57 2088.96,-254.05 2095.17,-250.8"/>
</g>
<!-- Node63&#45;&gt;Node5 -->
<g id="edge99" class="edge">
<title>Node63&#45;&gt;Node5</title>
<path fill="none" stroke="midnightblue" d="M1971.58,-392.52C2034.28,-380.05 2155.15,-356.06 2258.01,-336 2343.16,-319.39 2497.18,-349.32 2445.01,-280 2375.4,-187.53 2013.65,-142.7 1869.95,-128.33"/>
<polygon fill="midnightblue" stroke="midnightblue" points="1869.87,-124.81 1859.58,-127.31 1869.19,-131.78 1869.87,-124.81"/>
</g>
<!-- Node63&#45;&gt;Node12 -->
<g id="edge98" class="edge">
<title>Node63&#45;&gt;Node12</title>
<path fill="none" stroke="midnightblue" d="M1971.52,-398.29C2120.12,-388.39 2609.71,-352.04 2655.01,-300 2702.02,-246 2770.27,-300.77 2557.01,-168 2518.05,-143.74 2466.13,-132.43 2430.37,-127.24"/>
<polygon fill="midnightblue" stroke="midnightblue" points="2430.66,-123.74 2420.28,-125.87 2429.73,-130.68 2430.66,-123.74"/>
</g>
<!-- Node63&#45;&gt;Node17 -->
<g id="edge110" class="edge">
<title>Node63&#45;&gt;Node17</title>
<path fill="none" stroke="midnightblue" d="M1971.86,-400.91C2067.75,-399.99 2306.55,-393.75 2502.01,-356 2583.85,-340.19 2622.89,-359.76 2681.01,-300 2724,-255.8 2730.58,-177.57 2731.22,-141.8"/>
<polygon fill="midnightblue" stroke="midnightblue" points="2734.72,-141.79 2731.26,-131.77 2727.72,-141.76 2734.72,-141.79"/>
</g>
<!-- Node63&#45;&gt;Node24 -->
<g id="edge100" class="edge">
<title>Node63&#45;&gt;Node24</title>
<path fill="none" stroke="midnightblue" d="M1886.3,-401.35C1712.77,-402.45 1066.07,-403.31 989.01,-356 907.08,-305.7 953.01,-232.83 882.01,-168 865.43,-152.86 842.89,-142.08 823.51,-134.87"/>
<polygon fill="midnightblue" stroke="midnightblue" points="824.6,-131.54 814,-131.52 822.27,-138.14 824.6,-131.54"/>
</g>
<!-- Node63&#45;&gt;Node32 -->
<g id="edge104" class="edge">
<title>Node63&#45;&gt;Node32</title>
<path fill="none" stroke="midnightblue" d="M1917.86,-392.37C1900.31,-379.05 1864.85,-353.25 1832.01,-336 1793.5,-315.78 1777.8,-323.2 1741.01,-300 1719.43,-286.4 1698.51,-265.67 1685.25,-251.3"/>
<polygon fill="midnightblue" stroke="midnightblue" points="1687.67,-248.76 1678.38,-243.67 1682.47,-253.44 1687.67,-248.76"/>
</g>
<!-- Node63&#45;&gt;Node37 -->
<g id="edge103" class="edge">
<title>Node63&#45;&gt;Node37</title>
<path fill="none" stroke="midnightblue" d="M1886.1,-398.89C1769.51,-393.08 1437.1,-375.92 1161.01,-356 1149.11,-355.14 1136.45,-354.14 1124.2,-353.11"/>
<polygon fill="midnightblue" stroke="midnightblue" points="1124.29,-349.61 1114.03,-352.25 1123.7,-356.58 1124.29,-349.61"/>
</g>
<!-- Node63&#45;&gt;Node38 -->
<g id="edge102" class="edge">
<title>Node63&#45;&gt;Node38</title>
<path fill="none" stroke="midnightblue" d="M1886.46,-401.24C1747.05,-401.56 1291.53,-399.01 918.01,-356 869.95,-350.47 858.78,-343.67 811.01,-336 692.35,-316.95 662.09,-316.24 543.01,-300 537.58,-299.26 531.89,-298.48 526.24,-297.7"/>
<polygon fill="midnightblue" stroke="midnightblue" points="526.54,-294.21 516.16,-296.31 525.58,-301.14 526.54,-294.21"/>
</g>
<!-- Node63&#45;&gt;Node64 -->
<g id="edge105" class="edge">
<title>Node63&#45;&gt;Node64</title>
<path fill="none" stroke="midnightblue" d="M1953.92,-392.49C1993.72,-379.11 2074.29,-352.94 2144.01,-336 2206.42,-320.84 2278.92,-308.02 2328.38,-299.99"/>
<polygon fill="midnightblue" stroke="midnightblue" points="2328.95,-303.45 2338.26,-298.4 2327.84,-296.53 2328.95,-303.45"/>
</g>
<!-- Node65 -->
<g id="node40" class="node">
<title>Node65</title>
<g id="a_node40"><a xlink:href="Box_8hpp.html" target="_top" xlink:title=" ">
<polygon fill="white" stroke="black" points="1922.01,-336.5 1922.01,-355.5 1978.01,-355.5 1978.01,-336.5 1922.01,-336.5"/>
<text text-anchor="middle" x="1950.01" y="-343.5" font-family="Helvetica,sans-Serif" font-size="10.00">Box.hpp</text>
</a>
</g>
</g>
<!-- Node63&#45;&gt;Node65 -->
<g id="edge111" class="edge">
<title>Node63&#45;&gt;Node65</title>
<path fill="none" stroke="midnightblue" d="M1932.48,-392.08C1935.32,-384.77 1939.44,-374.18 1942.97,-365.1"/>
<polygon fill="midnightblue" stroke="midnightblue" points="1946.24,-366.34 1946.61,-355.75 1939.72,-363.8 1946.24,-366.34"/>
</g>
<!-- Node63&#45;&gt;Node68 -->
<g id="edge125" class="edge">
<title>Node63&#45;&gt;Node68</title>
<path fill="none" stroke="midnightblue" d="M1886.5,-397.74C1767.56,-388.63 1430.89,-362.85 1288.68,-351.95"/>
<polygon fill="midnightblue" stroke="midnightblue" points="1288.61,-348.44 1278.37,-351.16 1288.08,-355.42 1288.61,-348.44"/>
</g>
<!-- Node63&#45;&gt;Node69 -->
<g id="edge136" class="edge">
<title>Node63&#45;&gt;Node69</title>
<path fill="none" stroke="midnightblue" d="M1888.45,-392.44C1843.69,-383 1771.63,-367.8 1723.31,-357.61"/>
<polygon fill="midnightblue" stroke="midnightblue" points="1723.89,-354.16 1713.38,-355.52 1722.45,-361.01 1723.89,-354.16"/>
</g>
<!-- Node64&#45;&gt;Node5 -->
<g id="edge107" class="edge">
<title>Node64&#45;&gt;Node5</title>
<path fill="none" stroke="midnightblue" d="M2365.35,-280.41C2331.77,-267.26 2264.97,-241.81 2207.01,-224 2083.29,-185.98 1934.81,-150.86 1859.68,-133.81"/>
<polygon fill="midnightblue" stroke="midnightblue" points="1860.11,-130.32 1849.58,-131.53 1858.56,-137.15 1860.11,-130.32"/>
</g>
<!-- Node64&#45;&gt;Node11 -->
<g id="edge109" class="edge">
<title>Node64&#45;&gt;Node11</title>
<path fill="none" stroke="midnightblue" d="M2338.31,-281.5C2295.65,-274.21 2232.32,-261.66 2179.01,-244 2158.62,-237.25 2155.62,-230.05 2135.01,-224 2028.57,-192.74 1997.4,-206.44 1888.01,-188 1886.55,-187.75 1885.07,-187.5 1883.57,-187.24"/>
<polygon fill="midnightblue" stroke="midnightblue" points="1884.05,-183.77 1873.59,-185.43 1882.81,-190.66 1884.05,-183.77"/>
</g>
<!-- Node64&#45;&gt;Node12 -->
<g id="edge106" class="edge">
<title>Node64&#45;&gt;Node12</title>
<path fill="none" stroke="midnightblue" d="M2387.12,-280.08C2387.43,-253.95 2388.36,-177.21 2388.79,-141.58"/>
<polygon fill="midnightblue" stroke="midnightblue" points="2392.29,-141.61 2388.91,-131.57 2385.29,-141.53 2392.29,-141.61"/>
</g>
<!-- Node64&#45;&gt;Node24 -->
<g id="edge108" class="edge">
<title>Node64&#45;&gt;Node24</title>
<path fill="none" stroke="midnightblue" d="M2338.57,-280.48C2301.71,-273.14 2250.15,-261.03 2207.01,-244 2189.99,-237.28 2188.21,-230.26 2171.01,-224 2048.07,-179.23 2011.96,-183.16 1882.01,-168 1776.67,-155.71 1026.57,-130.86 830.05,-124.51"/>
<polygon fill="midnightblue" stroke="midnightblue" points="830.14,-121.01 820.04,-124.18 829.92,-128.01 830.14,-121.01"/>
</g>
<!-- Node65&#45;&gt;Node28 -->
<g id="edge113" class="edge">
<title>Node65&#45;&gt;Node28</title>
<path fill="none" stroke="midnightblue" d="M1921.8,-340.95C1809.58,-324.86 1393.51,-265.19 1240.2,-243.2"/>
<polygon fill="midnightblue" stroke="midnightblue" points="1240.45,-239.7 1230.06,-241.75 1239.46,-246.63 1240.45,-239.7"/>
</g>
<!-- Node65&#45;&gt;Node64 -->
<g id="edge112" class="edge">
<title>Node65&#45;&gt;Node64</title>
<path fill="none" stroke="midnightblue" d="M1978.01,-341.54C2048.26,-332.86 2233.15,-310.01 2328.41,-298.24"/>
<polygon fill="midnightblue" stroke="midnightblue" points="2328.96,-301.7 2338.46,-297 2328.11,-294.75 2328.96,-301.7"/>
</g>
<!-- Node66 -->
<g id="node41" class="node">
<title>Node66</title>
<g id="a_node41"><a xlink:href="Camera_8hpp.html" target="_top" xlink:title=" ">
<polygon fill="white" stroke="red" points="1750.01,-280.5 1750.01,-299.5 1826.01,-299.5 1826.01,-280.5 1750.01,-280.5"/>
<text text-anchor="middle" x="1788.01" y="-287.5" font-family="Helvetica,sans-Serif" font-size="10.00">Camera.hpp</text>
</a>
</g>
</g>
<!-- Node65&#45;&gt;Node66 -->
<g id="edge114" class="edge">
<title>Node65&#45;&gt;Node66</title>
<path fill="none" stroke="midnightblue" d="M1924.34,-336.44C1897.09,-327.36 1853.83,-312.94 1823.36,-302.78"/>
<polygon fill="midnightblue" stroke="midnightblue" points="1824.15,-299.36 1813.56,-299.52 1821.94,-306 1824.15,-299.36"/>
</g>
<!-- Node66&#45;&gt;Node4 -->
<g id="edge123" class="edge">
<title>Node66&#45;&gt;Node4</title>
<path fill="none" stroke="midnightblue" d="M1826.14,-282C1877.3,-272.6 1968.46,-255.86 2027.03,-245.1"/>
<polygon fill="midnightblue" stroke="midnightblue" points="2028.01,-248.48 2037.21,-243.23 2026.74,-241.59 2028.01,-248.48"/>
</g>
<!-- Node66&#45;&gt;Node5 -->
<g id="edge115" class="edge">
<title>Node66&#45;&gt;Node5</title>
<path fill="none" stroke="midnightblue" d="M1788.29,-280.43C1789.05,-260.53 1791.6,-209.75 1799.01,-168 1800.58,-159.13 1803.06,-149.46 1805.35,-141.37"/>
<polygon fill="midnightblue" stroke="midnightblue" points="1808.78,-142.11 1808.27,-131.53 1802.07,-140.12 1808.78,-142.11"/>
</g>
<!-- Node66&#45;&gt;Node11 -->
<g id="edge121" class="edge">
<title>Node66&#45;&gt;Node11</title>
<path fill="none" stroke="midnightblue" d="M1792.17,-280.37C1800.84,-262.38 1820.99,-220.55 1832.52,-196.63"/>
<polygon fill="midnightblue" stroke="midnightblue" points="1835.68,-198.12 1836.87,-187.59 1829.38,-195.08 1835.68,-198.12"/>
</g>
<!-- Node66&#45;&gt;Node24 -->
<g id="edge116" class="edge">
<title>Node66&#45;&gt;Node24</title>
<path fill="none" stroke="midnightblue" d="M1782.42,-280.42C1772.44,-265.93 1750.07,-236.95 1723.01,-224 1562.29,-147.11 998.16,-128 830.41,-123.96"/>
<polygon fill="midnightblue" stroke="midnightblue" points="830.25,-120.46 820.17,-123.72 830.08,-127.46 830.25,-120.46"/>
</g>
<!-- Node66&#45;&gt;Node28 -->
<g id="edge124" class="edge">
<title>Node66&#45;&gt;Node28</title>
<path fill="none" stroke="midnightblue" d="M1749.92,-285.08C1733.9,-283.47 1715.05,-281.6 1698.01,-280 1531.83,-264.43 1335.31,-247.73 1240.23,-239.76"/>
<polygon fill="midnightblue" stroke="midnightblue" points="1240.5,-236.28 1230.24,-238.93 1239.92,-243.25 1240.5,-236.28"/>
</g>
<!-- Node66&#45;&gt;Node32 -->
<g id="edge122" class="edge">
<title>Node66&#45;&gt;Node32</title>
<path fill="none" stroke="midnightblue" d="M1769.47,-280.44C1750.39,-271.64 1720.43,-257.81 1698.57,-247.72"/>
<polygon fill="midnightblue" stroke="midnightblue" points="1700.01,-244.53 1689.46,-243.52 1697.07,-250.88 1700.01,-244.53"/>
</g>
<!-- Node53 -->
<g id="node42" class="node">
<title>Node53</title>
<g id="a_node42"><a xlink:href="Camera3D_8hpp.html" target="_top" xlink:title=" ">
<polygon fill="white" stroke="red" points="100.51,-224.5 100.51,-243.5 189.51,-243.5 189.51,-224.5 100.51,-224.5"/>
<text text-anchor="middle" x="145.01" y="-231.5" font-family="Helvetica,sans-Serif" font-size="10.00">Camera3D.hpp</text>
</a>
</g>
</g>
<!-- Node66&#45;&gt;Node53 -->
<g id="edge117" class="edge">
<title>Node66&#45;&gt;Node53</title>
<path fill="none" stroke="midnightblue" d="M1749.82,-287.74C1532.87,-280.61 456.39,-245.23 199.93,-236.8"/>
<polygon fill="midnightblue" stroke="midnightblue" points="199.85,-233.3 189.74,-236.47 199.62,-240.3 199.85,-233.3"/>
</g>
<!-- Node53&#45;&gt;Node24 -->
<g id="edge120" class="edge">
<title>Node53&#45;&gt;Node24</title>
<path fill="none" stroke="midnightblue" d="M150.08,-224.34C159.18,-209.74 179.78,-180.59 206.01,-168 299.2,-123.27 615.32,-121.37 735.82,-122.35"/>
<polygon fill="midnightblue" stroke="midnightblue" points="735.82,-125.85 745.85,-122.44 735.88,-118.85 735.82,-125.85"/>
</g>
<!-- Node53&#45;&gt;Node25 -->
<g id="edge118" class="edge">
<title>Node53&#45;&gt;Node25</title>
<path fill="none" stroke="midnightblue" d="M144.96,-224.08C144.8,-197.95 144.34,-121.21 144.12,-85.58"/>
<polygon fill="midnightblue" stroke="midnightblue" points="147.62,-85.55 144.06,-75.57 140.62,-85.59 147.62,-85.55"/>
</g>
<!-- Node53&#45;&gt;Node34 -->
<g id="edge119" class="edge">
<title>Node53&#45;&gt;Node34</title>
<path fill="none" stroke="midnightblue" d="M170.36,-224.44C197.28,-215.36 240.01,-200.94 270.1,-190.78"/>
<polygon fill="midnightblue" stroke="midnightblue" points="271.42,-194.03 279.78,-187.52 269.18,-187.4 271.42,-194.03"/>
</g>
<!-- Node68&#45;&gt;Node5 -->
<g id="edge127" class="edge">
<title>Node68&#45;&gt;Node5</title>
<path fill="none" stroke="midnightblue" d="M1232.83,-336.36C1263.74,-306.68 1371.23,-208.54 1481.01,-168 1571.81,-134.47 1684.98,-125.55 1752.42,-123.39"/>
<polygon fill="midnightblue" stroke="midnightblue" points="1752.54,-126.89 1762.44,-123.11 1752.35,-119.89 1752.54,-126.89"/>
</g>
<!-- Node68&#45;&gt;Node11 -->
<g id="edge132" class="edge">
<title>Node68&#45;&gt;Node11</title>
<path fill="none" stroke="midnightblue" d="M1278.22,-341.83C1431.05,-332.8 1855.19,-307.17 1868.01,-300 1901.32,-281.36 1925.96,-257.68 1908.01,-224 1900.46,-209.83 1886.25,-199.33 1872.85,-192.06"/>
<polygon fill="midnightblue" stroke="midnightblue" points="1874.31,-188.87 1863.8,-187.53 1871.18,-195.13 1874.31,-188.87"/>
</g>
<!-- Node68&#45;&gt;Node12 -->
<g id="edge126" class="edge">
<title>Node68&#45;&gt;Node12</title>
<path fill="none" stroke="midnightblue" d="M1278.18,-342.04C1432.74,-333.51 1866.62,-308.92 1896.01,-300 1960.79,-280.34 1965.59,-250.21 2028.01,-224 2139.59,-177.14 2279.54,-145.07 2347.78,-131.02"/>
<polygon fill="midnightblue" stroke="midnightblue" points="2348.61,-134.43 2357.71,-129 2347.21,-127.57 2348.61,-134.43"/>
</g>
<!-- Node68&#45;&gt;Node14 -->
<g id="edge131" class="edge">
<title>Node68&#45;&gt;Node14</title>
<path fill="none" stroke="midnightblue" d="M1226.83,-336.3C1237.45,-303.56 1275.13,-187.38 1289.96,-141.67"/>
<polygon fill="midnightblue" stroke="midnightblue" points="1293.37,-142.48 1293.13,-131.88 1286.71,-140.32 1293.37,-142.48"/>
</g>
<!-- Node68&#45;&gt;Node16 -->
<g id="edge130" class="edge">
<title>Node68&#45;&gt;Node16</title>
<path fill="none" stroke="midnightblue" d="M1225.72,-336.4C1229.09,-319.03 1236.46,-278.47 1239.01,-244 1239.66,-235.14 1241.83,-232.43 1239.01,-224 1227.38,-189.22 1198.55,-156.8 1179.93,-138.49"/>
<polygon fill="midnightblue" stroke="midnightblue" points="1182.3,-135.92 1172.65,-131.54 1177.46,-140.98 1182.3,-135.92"/>
</g>
<!-- Node68&#45;&gt;Node23 -->
<g id="edge135" class="edge">
<title>Node68&#45;&gt;Node23</title>
<path fill="none" stroke="midnightblue" d="M1244.45,-336.44C1265.68,-327.56 1299.11,-313.56 1323.26,-303.45"/>
<polygon fill="midnightblue" stroke="midnightblue" points="1324.79,-306.61 1332.66,-299.52 1322.09,-300.15 1324.79,-306.61"/>
</g>
<!-- Node68&#45;&gt;Node24 -->
<g id="edge128" class="edge">
<title>Node68&#45;&gt;Node24</title>
<path fill="none" stroke="midnightblue" d="M1169.69,-338.09C1044.81,-321.67 745.76,-279.04 717.01,-244 688.97,-209.82 735.78,-161.95 764.01,-137.95"/>
<polygon fill="midnightblue" stroke="midnightblue" points="766.24,-140.65 771.73,-131.58 761.79,-135.25 766.24,-140.65"/>
</g>
<!-- Node68&#45;&gt;Node28 -->
<g id="edge133" class="edge">
<title>Node68&#45;&gt;Node28</title>
<path fill="none" stroke="midnightblue" d="M1218.02,-336.43C1212.14,-327.65 1203.3,-313.43 1198.01,-300 1192.1,-285 1188.18,-267.09 1185.84,-253.87"/>
<polygon fill="midnightblue" stroke="midnightblue" points="1189.23,-252.96 1184.17,-243.66 1182.32,-254.09 1189.23,-252.96"/>
</g>
<!-- Node68&#45;&gt;Node32 -->
<g id="edge134" class="edge">
<title>Node68&#45;&gt;Node32</title>
<path fill="none" stroke="midnightblue" d="M1257.1,-336.4C1305.84,-323.78 1399.84,-299.62 1480.01,-280 1529.07,-267.99 1585.36,-254.8 1624.06,-245.82"/>
<polygon fill="midnightblue" stroke="midnightblue" points="1625.04,-249.19 1633.99,-243.52 1623.46,-242.37 1625.04,-249.19"/>
</g>
<!-- Node68&#45;&gt;Node34 -->
<g id="edge129" class="edge">
<title>Node68&#45;&gt;Node34</title>
<path fill="none" stroke="midnightblue" d="M1169.71,-340.11C1057.01,-329.89 804.94,-306.68 766.01,-300 729.46,-293.73 721.42,-287.02 685.01,-280 571.32,-258.09 537.12,-279.77 427.01,-244 389.33,-231.76 349.51,-208.28 325.98,-193.14"/>
<polygon fill="midnightblue" stroke="midnightblue" points="327.8,-190.15 317.52,-187.6 323.97,-196 327.8,-190.15"/>
</g>
<!-- Node69&#45;&gt;Node5 -->
<g id="edge137" class="edge">
<title>Node69&#45;&gt;Node5</title>
<path fill="none" stroke="midnightblue" d="M1659.51,-336.45C1648.22,-328.49 1632.75,-315.54 1625.01,-300 1609.9,-269.67 1603.54,-254.15 1619.01,-224 1645.25,-172.85 1708.46,-146.79 1755.22,-134.08"/>
<polygon fill="midnightblue" stroke="midnightblue" points="1756.13,-137.46 1764.93,-131.57 1754.38,-130.69 1756.13,-137.46"/>
</g>
<!-- Node70&#45;&gt;Node4 -->
<g id="edge146" class="edge">
<title>Node70&#45;&gt;Node4</title>
<path fill="none" stroke="midnightblue" d="M1056.08,-568.67C1261.78,-567.08 2048.87,-558.75 2154.01,-524 2251.68,-491.72 2306.57,-437.36 2289.01,-336 2284.5,-309.96 2288.67,-297.66 2269.01,-280 2259.05,-271.06 2188.23,-255.67 2136.68,-245.41"/>
<polygon fill="midnightblue" stroke="midnightblue" points="2137.14,-241.94 2126.65,-243.43 2135.79,-248.8 2137.14,-241.94"/>
</g>
<!-- Node70&#45;&gt;Node42 -->
<g id="edge147" class="edge">
<title>Node70&#45;&gt;Node42</title>
<path fill="none" stroke="midnightblue" d="M970.65,-560.44C937.33,-552.25 886.83,-538.96 844.01,-524 639.35,-452.52 402.34,-341.51 323.8,-303.93"/>
<polygon fill="midnightblue" stroke="midnightblue" points="325.14,-300.69 314.61,-299.52 322.11,-307 325.14,-300.69"/>
</g>
<!-- Node70&#45;&gt;Node46 -->
<g id="edge150" class="edge">
<title>Node70&#45;&gt;Node46</title>
<path fill="none" stroke="midnightblue" d="M1025.23,-560.44C1043.91,-551.68 1073.17,-537.94 1094.63,-527.86"/>
<polygon fill="midnightblue" stroke="midnightblue" points="1096.31,-530.93 1103.87,-523.52 1093.33,-524.6 1096.31,-530.93"/>
</g>
<!-- Node70&#45;&gt;Node47 -->
<g id="edge148" class="edge">
<title>Node70&#45;&gt;Node47</title>
<path fill="none" stroke="midnightblue" d="M1008.84,-560.18C1012.13,-546.38 1020.33,-519.65 1037.01,-504 1141.29,-406.17 1312.29,-367.81 1399.74,-354.01"/>
<polygon fill="midnightblue" stroke="midnightblue" points="1400.37,-357.46 1409.72,-352.49 1399.31,-350.54 1400.37,-357.46"/>
</g>
<!-- Node70&#45;&gt;Node62 -->
<g id="edge149" class="edge">
<title>Node70&#45;&gt;Node62</title>
<path fill="none" stroke="midnightblue" d="M1011.96,-560.34C1020.84,-545.73 1041.01,-516.56 1067.01,-504 1115.27,-480.68 1472.39,-465.79 1611.12,-460.83"/>
<polygon fill="midnightblue" stroke="midnightblue" points="1611.25,-464.33 1621.12,-460.48 1611,-457.34 1611.25,-464.33"/>
</g>
<!-- Node71&#45;&gt;Node4 -->
<g id="edge156" class="edge">
<title>Node71&#45;&gt;Node4</title>
<path fill="none" stroke="midnightblue" d="M1897.54,-568.1C2018.8,-564.73 2420.63,-551.56 2471.01,-524 2498.3,-509.07 2502.91,-497.43 2513.01,-468 2541.86,-383.96 2522.38,-323.69 2445.01,-280 2393.55,-250.94 2225.03,-240.35 2136.87,-236.73"/>
<polygon fill="midnightblue" stroke="midnightblue" points="2136.92,-233.23 2126.79,-236.33 2136.64,-240.23 2136.92,-233.23"/>
</g>
<!-- Node71&#45;&gt;Node5 -->
<g id="edge152" class="edge">
<title>Node71&#45;&gt;Node5</title>
<path fill="none" stroke="midnightblue" d="M1897.97,-569.25C2038.85,-569.94 2564.95,-569.37 2724.01,-524 2781.59,-507.58 2842.01,-518.87 2842.01,-459 2842.01,-459 2842.01,-459 2842.01,-401 2842.01,-278.26 2736.46,-285.12 2630.01,-224 2566.49,-187.53 2546.69,-183.07 2475.01,-168 2360.29,-143.89 2010.24,-129.73 1870.01,-124.89"/>
<polygon fill="midnightblue" stroke="midnightblue" points="1870,-121.39 1859.88,-124.55 1869.76,-128.38 1870,-121.39"/>
</g>
<!-- Node71&#45;&gt;Node8 -->
<g id="edge154" class="edge">
<title>Node71&#45;&gt;Node8</title>
<path fill="none" stroke="midnightblue" d="M1897.6,-569.38C2053.47,-570.78 2691.4,-573.35 2884.01,-524 2947.36,-507.77 3016.01,-524.39 3016.01,-459 3016.01,-459 3016.01,-459 3016.01,-121 3016.01,-86.81 2999.41,-49.76 2988.15,-28.57"/>
<polygon fill="midnightblue" stroke="midnightblue" points="2991.19,-26.83 2983.29,-19.77 2985.06,-30.22 2991.19,-26.83"/>
</g>
<!-- Node71&#45;&gt;Node12 -->
<g id="edge153" class="edge">
<title>Node71&#45;&gt;Node12</title>
<path fill="none" stroke="midnightblue" d="M1897.76,-568.4C2055.23,-565.53 2697.85,-552.19 2783.01,-524 2832.28,-507.69 2880.01,-510.9 2880.01,-459 2880.01,-459 2880.01,-459 2880.01,-401 2880.01,-194.9 2548.35,-139.79 2430.2,-126.7"/>
<polygon fill="midnightblue" stroke="midnightblue" points="2430.41,-123.2 2420.1,-125.63 2429.67,-130.17 2430.41,-123.2"/>
</g>
<!-- Node71&#45;&gt;Node17 -->
<g id="edge161" class="edge">
<title>Node71&#45;&gt;Node17</title>
<path fill="none" stroke="midnightblue" d="M1897.6,-569.3C2085.8,-570.51 2978.01,-570.36 2978.01,-459 2978.01,-459 2978.01,-459 2978.01,-289 2978.01,-223.28 2946.7,-205.9 2893.01,-168 2861.78,-145.96 2820.11,-134.69 2786.85,-128.94"/>
<polygon fill="midnightblue" stroke="midnightblue" points="2787.25,-125.46 2776.82,-127.33 2786.14,-132.37 2787.25,-125.46"/>
</g>
<!-- Node71&#45;&gt;Node23 -->
<g id="edge164" class="edge">
<title>Node71&#45;&gt;Node23</title>
<path fill="none" stroke="midnightblue" d="M1828.42,-568.49C1718.13,-565.94 1382.01,-550.66 1382.01,-459 1382.01,-459 1382.01,-459 1382.01,-401 1382.01,-367.72 1369.44,-330.58 1360.85,-309.09"/>
<polygon fill="midnightblue" stroke="midnightblue" points="1363.99,-307.53 1356.92,-299.64 1357.53,-310.21 1363.99,-307.53"/>
</g>
<!-- Node71&#45;&gt;Node24 -->
<g id="edge155" class="edge">
<title>Node71&#45;&gt;Node24</title>
<path fill="none" stroke="midnightblue" d="M1828.22,-569.51C1716.73,-570.62 1358.56,-570.09 1067.01,-524 848.68,-489.49 302.39,-359.92 257.01,-300 236.62,-273.08 147.63,-287.2 259.01,-168 291.19,-133.56 612.35,-125.4 735.39,-123.53"/>
<polygon fill="midnightblue" stroke="midnightblue" points="735.68,-127.03 745.63,-123.39 735.58,-120.03 735.68,-127.03"/>
</g>
<!-- Node71&#45;&gt;Node32 -->
<g id="edge159" class="edge">
<title>Node71&#45;&gt;Node32</title>
<path fill="none" stroke="midnightblue" d="M1858.87,-560.3C1843.92,-529.15 1790.83,-420.45 1738.01,-336 1727.54,-319.27 1723.06,-316.35 1712.01,-300 1701.19,-283.99 1689.49,-265.29 1681.37,-252.06"/>
<polygon fill="midnightblue" stroke="midnightblue" points="1684.35,-250.23 1676.15,-243.52 1678.38,-253.88 1684.35,-250.23"/>
</g>
<!-- Node71&#45;&gt;Node37 -->
<g id="edge158" class="edge">
<title>Node71&#45;&gt;Node37</title>
<path fill="none" stroke="midnightblue" d="M1828.49,-567.76C1730.85,-563.95 1454.27,-551 1368.01,-524 1247.41,-486.25 1121.96,-397.13 1075.13,-361.8"/>
<polygon fill="midnightblue" stroke="midnightblue" points="1077.15,-358.94 1067.08,-355.67 1072.91,-364.51 1077.15,-358.94"/>
</g>
<!-- Node71&#45;&gt;Node38 -->
<g id="edge157" class="edge">
<title>Node71&#45;&gt;Node38</title>
<path fill="none" stroke="midnightblue" d="M1828.22,-569.51C1716.73,-570.62 1358.56,-570.09 1067.01,-524 970.33,-508.72 947.6,-496.68 854.01,-468 710.34,-423.97 659.51,-440.13 535.01,-356 516.24,-343.32 499.79,-322.99 489.45,-308.45"/>
<polygon fill="midnightblue" stroke="midnightblue" points="492.11,-306.14 483.57,-299.86 486.33,-310.09 492.11,-306.14"/>
</g>
<!-- Node71&#45;&gt;Node41 -->
<g id="edge192" class="edge">
<title>Node71&#45;&gt;Node41</title>
<path fill="none" stroke="midnightblue" d="M1828.18,-568.23C1711.72,-565.4 1336.62,-554.1 1220.01,-524 1199.6,-518.73 1197.22,-509.97 1177.01,-504 1066.4,-471.32 1031.6,-497.17 920.01,-468 811.61,-439.67 689.55,-384.82 636.73,-359.89"/>
<polygon fill="midnightblue" stroke="midnightblue" points="638.22,-356.73 627.69,-355.6 635.22,-363.05 638.22,-356.73"/>
</g>
<!-- Node71&#45;&gt;Node46 -->
<g id="edge191" class="edge">
<title>Node71&#45;&gt;Node46</title>
<path fill="none" stroke="midnightblue" d="M1828.19,-567.72C1727.74,-563.81 1428.81,-550.62 1182.01,-524 1180.74,-523.86 1179.46,-523.72 1178.17,-523.57"/>
<polygon fill="midnightblue" stroke="midnightblue" points="1178.5,-520.08 1168.15,-522.31 1177.64,-527.03 1178.5,-520.08"/>
</g>
<!-- Node71&#45;&gt;Node47 -->
<g id="edge190" class="edge">
<title>Node71&#45;&gt;Node47</title>
<path fill="none" stroke="midnightblue" d="M1838.98,-560.35C1814.67,-551.52 1776.05,-537.25 1743.01,-524 1684.24,-500.43 1666.63,-500.03 1612.01,-468 1557.13,-435.82 1499.63,-387.01 1471.92,-362.38"/>
<polygon fill="midnightblue" stroke="midnightblue" points="1474.1,-359.63 1464.32,-355.55 1469.42,-364.84 1474.1,-359.63"/>
</g>
<!-- Node71&#45;&gt;Node48 -->
<g id="edge163" class="edge">
<title>Node71&#45;&gt;Node48</title>
<path fill="none" stroke="midnightblue" d="M1897.57,-568.46C2052.38,-565.89 2675.83,-553.73 2704.01,-524 2769.25,-455.17 2647.78,-345.69 2598.47,-305.99"/>
<polygon fill="midnightblue" stroke="midnightblue" points="2600.43,-303.09 2590.42,-299.62 2596.09,-308.57 2600.43,-303.09"/>
</g>
<!-- Node71&#45;&gt;Node62 -->
<g id="edge165" class="edge">
<title>Node71&#45;&gt;Node62</title>
<path fill="none" stroke="midnightblue" d="M1847.55,-560.37C1813.39,-541.29 1731.24,-495.42 1690.2,-472.51"/>
<polygon fill="midnightblue" stroke="midnightblue" points="1691.83,-469.41 1681.4,-467.59 1688.42,-475.52 1691.83,-469.41"/>
</g>
<!-- Node71&#45;&gt;Node63 -->
<g id="edge162" class="edge">
<title>Node71&#45;&gt;Node63</title>
<path fill="none" stroke="midnightblue" d="M1866.56,-560.08C1876.99,-533.83 1907.72,-456.55 1921.81,-421.12"/>
<polygon fill="midnightblue" stroke="midnightblue" points="1925.16,-422.15 1925.6,-411.57 1918.66,-419.57 1925.16,-422.15"/>
</g>
<!-- Node71&#45;&gt;Node64 -->
<g id="edge160" class="edge">
<title>Node71&#45;&gt;Node64</title>
<path fill="none" stroke="midnightblue" d="M1897.69,-569.49C2006.81,-570.53 2341.58,-569.82 2438.01,-524 2474.07,-506.87 2500.01,-498.92 2500.01,-459 2500.01,-459 2500.01,-459 2500.01,-401 2500.01,-354.4 2450.06,-321.14 2416.58,-304.08"/>
<polygon fill="midnightblue" stroke="midnightblue" points="2417.73,-300.75 2407.21,-299.51 2414.66,-307.04 2417.73,-300.75"/>
</g>
<!-- Node72 -->
<g id="node47" class="node">
<title>Node72</title>
<g id="a_node47"><a xlink:href="State_8hpp.html" target="_top" xlink:title=" ">
<polygon fill="white" stroke="red" points="726.51,-224.5 726.51,-243.5 789.51,-243.5 789.51,-224.5 726.51,-224.5"/>
<text text-anchor="middle" x="758.01" y="-231.5" font-family="Helvetica,sans-Serif" font-size="10.00">State.hpp</text>
</a>
</g>
</g>
<!-- Node71&#45;&gt;Node72 -->
<g id="edge166" class="edge">
<title>Node71&#45;&gt;Node72</title>
<path fill="none" stroke="midnightblue" d="M1828.39,-568.21C1741.35,-565.79 1506.62,-556.5 1314.01,-524 1264.9,-515.71 920.83,-440.53 880.01,-412 820.15,-370.17 780.52,-288.87 765.17,-252.88"/>
<polygon fill="midnightblue" stroke="midnightblue" points="768.39,-251.53 761.33,-243.63 761.93,-254.21 768.39,-251.53"/>
</g>
<!-- Node76 -->
<g id="node48" class="node">
<title>Node76</title>
<g id="a_node48"><a xlink:href="AIMapsGenerator_8hpp.html" target="_top" xlink:title=" ">
<polygon fill="white" stroke="red" points="2023.01,-504.5 2023.01,-523.5 2145.01,-523.5 2145.01,-504.5 2023.01,-504.5"/>
<text text-anchor="middle" x="2084.01" y="-511.5" font-family="Helvetica,sans-Serif" font-size="10.00">AIMapsGenerator.hpp</text>
</a>
</g>
</g>
<!-- Node71&#45;&gt;Node76 -->
<g id="edge173" class="edge">
<title>Node71&#45;&gt;Node76</title>
<path fill="none" stroke="midnightblue" d="M1897.54,-560.56C1935.67,-551.25 1997.2,-536.21 2039.06,-525.98"/>
<polygon fill="midnightblue" stroke="midnightblue" points="2040.11,-529.33 2048.99,-523.56 2038.45,-522.53 2040.11,-529.33"/>
</g>
<!-- Node72&#45;&gt;Node14 -->
<g id="edge167" class="edge">
<title>Node72&#45;&gt;Node14</title>
<path fill="none" stroke="midnightblue" d="M759.85,-224.49C763.45,-210.1 772.89,-181.27 793.01,-168 793.31,-167.8 1138.39,-137.04 1256.73,-126.5"/>
<polygon fill="midnightblue" stroke="midnightblue" points="1257.16,-129.97 1266.81,-125.6 1256.54,-123 1257.16,-129.97"/>
</g>
<!-- Node72&#45;&gt;Node16 -->
<g id="edge169" class="edge">
<title>Node72&#45;&gt;Node16</title>
<path fill="none" stroke="midnightblue" d="M755.05,-224.09C751.05,-210.17 745.92,-183.27 760.01,-168 784.89,-141.03 1036.55,-128.14 1129.1,-124.29"/>
<polygon fill="midnightblue" stroke="midnightblue" points="1129.47,-127.78 1139.32,-123.87 1129.18,-120.78 1129.47,-127.78"/>
</g>
<!-- Node72&#45;&gt;Node17 -->
<g id="edge172" class="edge">
<title>Node72&#45;&gt;Node17</title>
<path fill="none" stroke="midnightblue" d="M789.76,-231.89C948.89,-226.28 1660.85,-200.89 1882.01,-188 2181.53,-170.54 2539.77,-139.91 2675.35,-127.97"/>
<polygon fill="midnightblue" stroke="midnightblue" points="2675.84,-131.44 2685.49,-127.07 2675.22,-124.46 2675.84,-131.44"/>
</g>
<!-- Node72&#45;&gt;Node19 -->
<g id="edge170" class="edge">
<title>Node72&#45;&gt;Node19</title>
<path fill="none" stroke="midnightblue" d="M740.34,-224.32C722.62,-215.62 695.11,-202.12 674.72,-192.11"/>
<polygon fill="midnightblue" stroke="midnightblue" points="676.16,-188.92 665.64,-187.65 673.07,-195.2 676.16,-188.92"/>
</g>
<!-- Node72&#45;&gt;Node20 -->
<g id="edge168" class="edge">
<title>Node72&#45;&gt;Node20</title>
<path fill="none" stroke="midnightblue" d="M768.13,-224.32C777.54,-216.26 791.75,-204.08 803.08,-194.37"/>
<polygon fill="midnightblue" stroke="midnightblue" points="805.39,-197 810.7,-187.83 800.83,-191.68 805.39,-197"/>
</g>
<!-- Node72&#45;&gt;Node34 -->
<g id="edge171" class="edge">
<title>Node72&#45;&gt;Node34</title>
<path fill="none" stroke="midnightblue" d="M726.16,-229.2C647.72,-219.85 444.9,-195.68 352.33,-184.64"/>
<polygon fill="midnightblue" stroke="midnightblue" points="352.48,-181.13 342.14,-183.43 351.65,-188.08 352.48,-181.13"/>
</g>
<!-- Node76&#45;&gt;Node4 -->
<g id="edge179" class="edge">
<title>Node76&#45;&gt;Node4</title>
<path fill="none" stroke="midnightblue" d="M2141.83,-504.42C2166.33,-498.08 2193.44,-487.07 2212.01,-468 2271.35,-407.04 2299.7,-347.57 2248.01,-280 2240.87,-270.67 2179.72,-255.79 2133.7,-245.72"/>
<polygon fill="midnightblue" stroke="midnightblue" points="2134.35,-242.28 2123.84,-243.59 2132.87,-249.12 2134.35,-242.28"/>
</g>
<!-- Node76&#45;&gt;Node5 -->
<g id="edge174" class="edge">
<title>Node76&#45;&gt;Node5</title>
<path fill="none" stroke="midnightblue" d="M2145.15,-513.15C2213.06,-511.41 2324.86,-502.8 2414.01,-468 2477.28,-443.3 2691.68,-337.18 2655.01,-280 2590.6,-179.56 2526.55,-197.82 2411.01,-168 2309.82,-141.88 2000.3,-129.1 1869.9,-124.76"/>
<polygon fill="midnightblue" stroke="midnightblue" points="1869.82,-121.26 1859.71,-124.43 1869.59,-128.26 1869.82,-121.26"/>
</g>
<!-- Node76&#45;&gt;Node8 -->
<g id="edge177" class="edge">
<title>Node76&#45;&gt;Node8</title>
<path fill="none" stroke="midnightblue" d="M2145.21,-513.97C2234.15,-513.83 2403.51,-507.67 2541.01,-468 2642.26,-438.78 2662,-413.97 2750.01,-356 2784.75,-333.12 2795.4,-329.22 2825.01,-300 2908.79,-217.34 2957.22,-79.02 2972.61,-29.41"/>
<polygon fill="midnightblue" stroke="midnightblue" points="2975.99,-30.32 2975.53,-19.74 2969.29,-28.29 2975.99,-30.32"/>
</g>
<!-- Node76&#45;&gt;Node12 -->
<g id="edge176" class="edge">
<title>Node76&#45;&gt;Node12</title>
<path fill="none" stroke="midnightblue" d="M2145.26,-511.93C2219.06,-509.19 2346.08,-499.76 2450.01,-468 2568,-431.94 2639.34,-419.25 2671.01,-300 2689.04,-232.09 2643.73,-205.02 2584.01,-168 2536.51,-138.55 2471.7,-128.34 2430.1,-124.82"/>
<polygon fill="midnightblue" stroke="midnightblue" points="2430.28,-121.33 2420.05,-124.07 2429.76,-128.31 2430.28,-121.33"/>
</g>
<!-- Node76&#45;&gt;Node17 -->
<g id="edge184" class="edge">
<title>Node76&#45;&gt;Node17</title>
<path fill="none" stroke="midnightblue" d="M2145.11,-512.08C2226.49,-509.56 2374.34,-500.44 2496.01,-468 2556.01,-452 2571.65,-445.38 2624.01,-412 2750.93,-331.09 2816.08,-325.19 2878.01,-188 2896.18,-147.75 2835.72,-132.43 2786.89,-126.59"/>
<polygon fill="midnightblue" stroke="midnightblue" points="2787,-123.08 2776.68,-125.48 2786.25,-130.04 2787,-123.08"/>
</g>
<!-- Node76&#45;&gt;Node23 -->
<g id="edge187" class="edge">
<title>Node76&#45;&gt;Node23</title>
<path fill="none" stroke="midnightblue" d="M2060.09,-504.47C1984.43,-477.66 1743.35,-393.45 1540.01,-336 1492.66,-322.62 1437.88,-309.74 1399.89,-301.21"/>
<polygon fill="midnightblue" stroke="midnightblue" points="1400.65,-297.79 1390.13,-299.03 1399.13,-304.63 1400.65,-297.79"/>
</g>
<!-- Node76&#45;&gt;Node24 -->
<g id="edge178" class="edge">
<title>Node76&#45;&gt;Node24</title>
<path fill="none" stroke="midnightblue" d="M2022.66,-510.37C1900.9,-504.87 1620.13,-490.71 1385.01,-468 1336.61,-463.32 989.67,-441.49 951.01,-412 857.55,-340.72 923.3,-259.09 849.01,-168 838.5,-155.11 823.36,-144.43 810.23,-136.71"/>
<polygon fill="midnightblue" stroke="midnightblue" points="811.55,-133.44 801.12,-131.62 808.14,-139.55 811.55,-133.44"/>
</g>
<!-- Node76&#45;&gt;Node32 -->
<g id="edge182" class="edge">
<title>Node76&#45;&gt;Node32</title>
<path fill="none" stroke="midnightblue" d="M2086.74,-504.17C2090.27,-491.68 2095.66,-468.11 2093.01,-448 2085.9,-393.95 2086.78,-368.5 2043.01,-336 1946.21,-264.13 1801.41,-243.39 1724.12,-237.42"/>
<polygon fill="midnightblue" stroke="midnightblue" points="1724.35,-233.93 1714.13,-236.7 1723.85,-240.91 1724.35,-233.93"/>
</g>
<!-- Node76&#45;&gt;Node37 -->
<g id="edge181" class="edge">
<title>Node76&#45;&gt;Node37</title>
<path fill="none" stroke="midnightblue" d="M2022.83,-512.49C1913.47,-510.69 1677.56,-502.71 1482.01,-468 1332.65,-441.49 1160.48,-383.97 1089.38,-358.99"/>
<polygon fill="midnightblue" stroke="midnightblue" points="1090.23,-355.58 1079.63,-355.54 1087.9,-362.18 1090.23,-355.58"/>
</g>
<!-- Node76&#45;&gt;Node31 -->
<g id="edge175" class="edge">
<title>Node76&#45;&gt;Node31</title>
<path fill="none" stroke="midnightblue" d="M2022.86,-509.26C1840.21,-497.09 1302.52,-453.58 1161.01,-356 1122.72,-329.6 1096.44,-279.65 1084.43,-252.93"/>
<polygon fill="midnightblue" stroke="midnightblue" points="1087.59,-251.41 1080.41,-243.62 1081.16,-254.19 1087.59,-251.41"/>
</g>
<!-- Node76&#45;&gt;Node38 -->
<g id="edge180" class="edge">
<title>Node76&#45;&gt;Node38</title>
<path fill="none" stroke="midnightblue" d="M2022.85,-511.52C1840.43,-506.89 1302.03,-491.56 1128.01,-468 1016.03,-452.84 988.69,-442.95 880.01,-412 806.74,-391.13 786.97,-388.37 718.01,-356 702.48,-348.71 700.94,-342.35 685.01,-336 656.67,-324.7 578.1,-309.14 526.32,-299.59"/>
<polygon fill="midnightblue" stroke="midnightblue" points="526.81,-296.13 516.34,-297.77 525.55,-303.01 526.81,-296.13"/>
</g>
<!-- Node76&#45;&gt;Node48 -->
<g id="edge186" class="edge">
<title>Node76&#45;&gt;Node48</title>
<path fill="none" stroke="midnightblue" d="M2145.3,-507.97C2220.2,-501.1 2342.02,-487.39 2383.01,-468 2465.54,-428.95 2538.26,-343.56 2566.51,-307.55"/>
<polygon fill="midnightblue" stroke="midnightblue" points="2569.37,-309.57 2572.71,-299.51 2563.83,-305.29 2569.37,-309.57"/>
</g>
<!-- Node76&#45;&gt;Node62 -->
<g id="edge188" class="edge">
<title>Node76&#45;&gt;Node62</title>
<path fill="none" stroke="midnightblue" d="M2022.78,-505.09C1941.4,-494.58 1798.81,-476.16 1720.81,-466.08"/>
<polygon fill="midnightblue" stroke="midnightblue" points="1721.07,-462.58 1710.71,-464.77 1720.18,-469.53 1721.07,-462.58"/>
</g>
<!-- Node76&#45;&gt;Node63 -->
<g id="edge185" class="edge">
<title>Node76&#45;&gt;Node63</title>
<path fill="none" stroke="midnightblue" d="M2077.56,-504.48C2067.08,-491.09 2045.2,-464.9 2022.01,-448 2003.49,-434.5 1980.3,-423.27 1961.71,-415.41"/>
<polygon fill="midnightblue" stroke="midnightblue" points="1963.04,-412.17 1952.46,-411.61 1960.38,-418.64 1963.04,-412.17"/>
</g>
<!-- Node76&#45;&gt;Node64 -->
<g id="edge183" class="edge">
<title>Node76&#45;&gt;Node64</title>
<path fill="none" stroke="midnightblue" d="M2145.29,-511.32C2217.87,-507.96 2332.66,-497.94 2362.01,-468 2403.96,-425.2 2396.85,-346.26 2390.82,-310.05"/>
<polygon fill="midnightblue" stroke="midnightblue" points="2394.21,-309.11 2388.97,-299.9 2387.32,-310.37 2394.21,-309.11"/>
</g>
<!-- Node76&#45;&gt;Node66 -->
<g id="edge189" class="edge">
<title>Node76&#45;&gt;Node66</title>
<path fill="none" stroke="midnightblue" d="M2083.72,-504.35C2082.25,-475.47 2073.39,-381.67 2020.01,-336 1992.97,-312.87 1896.05,-300.42 1836.37,-294.8"/>
<polygon fill="midnightblue" stroke="midnightblue" points="1836.69,-291.32 1826.41,-293.9 1836.05,-298.29 1836.69,-291.32"/>
</g>
<!-- Node79&#45;&gt;Node28 -->
<g id="edge194" class="edge">
<title>Node79&#45;&gt;Node28</title>
<path fill="none" stroke="midnightblue" d="M835.87,-672.54C782.61,-660.34 706.01,-632.16 706.01,-571 706.01,-571 706.01,-571 706.01,-513 706.01,-410.64 1038.03,-285.57 1148.06,-246.94"/>
<polygon fill="midnightblue" stroke="midnightblue" points="1149.41,-250.17 1157.7,-243.57 1147.11,-243.56 1149.41,-250.17"/>
</g>
<!-- Node79&#45;&gt;Node41 -->
<g id="edge198" class="edge">
<title>Node79&#45;&gt;Node41</title>
<path fill="none" stroke="midnightblue" d="M835.95,-674.99C743.2,-662.45 554.01,-629.67 554.01,-571 554.01,-571 554.01,-571 554.01,-457 554.01,-420.44 578.89,-383.75 595.48,-363.34"/>
<polygon fill="midnightblue" stroke="midnightblue" points="598.2,-365.54 601.99,-355.64 592.86,-361.02 598.2,-365.54"/>
</g>
<!-- Node79&#45;&gt;Node63 -->
<g id="edge196" class="edge">
<title>Node79&#45;&gt;Node63</title>
<path fill="none" stroke="midnightblue" d="M936.11,-681.06C1144.52,-680.65 1932.01,-672.4 1932.01,-571 1932.01,-571 1932.01,-571 1932.01,-513 1932.01,-480.94 1930.72,-443.63 1929.83,-421.74"/>
<polygon fill="midnightblue" stroke="midnightblue" points="1933.32,-421.4 1929.4,-411.56 1926.33,-421.69 1933.32,-421.4"/>
</g>
<!-- Node79&#45;&gt;Node66 -->
<g id="edge197" class="edge">
<title>Node79&#45;&gt;Node66</title>
<path fill="none" stroke="midnightblue" d="M936.22,-681.25C1106.73,-681.7 1662.52,-679.69 1835.01,-636 1899.56,-619.65 1970.01,-637.59 1970.01,-571 1970.01,-571 1970.01,-571 1970.01,-513 1970.01,-433.97 2036.35,-397.74 1987.01,-336 1968.51,-312.85 1889.16,-300.73 1836.42,-295.12"/>
<polygon fill="midnightblue" stroke="midnightblue" points="1836.56,-291.62 1826.25,-294.09 1835.85,-298.58 1836.56,-291.62"/>
</g>
<!-- Node79&#45;&gt;Node53 -->
<g id="edge195" class="edge">
<title>Node79&#45;&gt;Node53</title>
<path fill="none" stroke="midnightblue" d="M835.76,-678.75C670.61,-670.68 155.01,-639.98 155.01,-571 155.01,-571 155.01,-571 155.01,-345 155.01,-312.82 150.71,-275.55 147.75,-253.7"/>
<polygon fill="midnightblue" stroke="midnightblue" points="151.18,-252.95 146.32,-243.53 144.25,-253.92 151.18,-252.95"/>
</g>
<!-- Node80 -->
<g id="node50" class="node">
<title>Node80</title>
<g id="a_node50"><a xlink:href="RangeBoost_8hpp.html" target="_top" xlink:title=" ">
<polygon fill="white" stroke="black" points="838.01,-616.5 838.01,-635.5 934.01,-635.5 934.01,-616.5 838.01,-616.5"/>
<text text-anchor="middle" x="886.01" y="-623.5" font-family="Helvetica,sans-Serif" font-size="10.00">RangeBoost.hpp</text>
</a>
</g>
</g>
<!-- Node79&#45;&gt;Node80 -->
<g id="edge199" class="edge">
<title>Node79&#45;&gt;Node80</title>
<path fill="none" stroke="midnightblue" d="M886.01,-672.08C886.01,-665.01 886.01,-654.86 886.01,-645.99"/>
<polygon fill="midnightblue" stroke="midnightblue" points="889.51,-645.75 886.01,-635.75 882.51,-645.75 889.51,-645.75"/>
</g>
<!-- Node80&#45;&gt;Node3 -->
<g id="edge200" class="edge">
<title>Node80&#45;&gt;Node3</title>
<path fill="none" stroke="midnightblue" d="M885.92,-616.33C886.05,-588.92 889.75,-502.73 929.01,-448 938.86,-434.26 954.33,-423.68 968.22,-416.24"/>
<polygon fill="midnightblue" stroke="midnightblue" points="970.13,-419.2 977.5,-411.6 966.99,-412.95 970.13,-419.2"/>
</g>
<!-- Node80&#45;&gt;Node41 -->
<g id="edge203" class="edge">
<title>Node80&#45;&gt;Node41</title>
<path fill="none" stroke="midnightblue" d="M837.79,-617.22C754.38,-602.38 592.01,-566.84 592.01,-515 592.01,-515 592.01,-515 592.01,-457 592.01,-424.54 599.74,-387.38 605.07,-365.63"/>
<polygon fill="midnightblue" stroke="midnightblue" points="608.5,-366.32 607.58,-355.76 601.72,-364.59 608.5,-366.32"/>
</g>
<!-- Node80&#45;&gt;Node46 -->
<g id="edge201" class="edge">
<title>Node80&#45;&gt;Node46</title>
<path fill="none" stroke="midnightblue" d="M932.99,-616.48C978.28,-607.69 1043.07,-593.41 1065.01,-580 1084.55,-568.06 1101.05,-547.26 1111.18,-532.41"/>
<polygon fill="midnightblue" stroke="midnightblue" points="1114.36,-533.94 1116.9,-523.66 1108.5,-530.12 1114.36,-533.94"/>
</g>
<!-- Node80&#45;&gt;Node62 -->
<g id="edge202" class="edge">
<title>Node80&#45;&gt;Node62</title>
<path fill="none" stroke="midnightblue" d="M892.67,-616.49C911.89,-592.74 970.34,-526.02 1037.01,-504 1142.78,-469.06 1477.82,-461.23 1610.82,-459.49"/>
<polygon fill="midnightblue" stroke="midnightblue" points="1611.22,-462.99 1621.17,-459.36 1611.13,-455.99 1611.22,-462.99"/>
</g>
<!-- Node80&#45;&gt;Node70 -->
<g id="edge204" class="edge">
<title>Node80&#45;&gt;Node70</title>
<path fill="none" stroke="midnightblue" d="M905.18,-616.44C924.92,-607.64 955.89,-593.81 978.5,-583.72"/>
<polygon fill="midnightblue" stroke="midnightblue" points="980.22,-586.79 987.93,-579.52 977.37,-580.4 980.22,-586.79"/>
</g>
</g>
</svg>
