<?xml version="1.0" encoding="UTF-8" standalone="no"?>
<!DOCTYPE svg PUBLIC "-//W3C//DTD SVG 1.1//EN"
 "http://www.w3.org/Graphics/SVG/1.1/DTD/svg11.dtd">
<!-- Generated by graphviz version 2.43.0 (0)
 -->
<!-- Title: Libs/Engine/sources/Components/CoolDownBoost/CoolDownBoost.hpp Pages: 1 -->
<svg width="356pt" height="128pt"
 viewBox="0.00 0.00 356.00 128.00" xmlns="http://www.w3.org/2000/svg" xmlns:xlink="http://www.w3.org/1999/xlink">
<g id="graph0" class="graph" transform="scale(1 1) rotate(0) translate(4 124)">
<title>Libs/Engine/sources/Components/CoolDownBoost/CoolDownBoost.hpp</title>
<polygon fill="white" stroke="transparent" points="-4,4 -4,-124 352,-124 352,4 -4,4"/>
<!-- Node1 -->
<g id="node1" class="node">
<title>Node1</title>
<g id="a_node1"><a xlink:title=" ">
<polygon fill="#bfbfbf" stroke="black" points="91,-78.5 91,-119.5 252,-119.5 252,-78.5 91,-78.5"/>
<text text-anchor="start" x="99" y="-107.5" font-family="Helvetica,sans-Serif" font-size="10.00">Libs/Engine/sources</text>
<text text-anchor="start" x="99" y="-96.5" font-family="Helvetica,sans-Serif" font-size="10.00">/Components/CoolDownBoost</text>
<text text-anchor="middle" x="171.5" y="-85.5" font-family="Helvetica,sans-Serif" font-size="10.00">/CoolDownBoost.hpp</text>
</a>
</g>
</g>
<!-- Node2 -->
<g id="node2" class="node">
<title>Node2</title>
<g id="a_node2"><a xlink:href="CoolDownBoost_8cpp.html" target="_top" xlink:title=" ">
<polygon fill="white" stroke="black" points="0,-0.5 0,-41.5 161,-41.5 161,-0.5 0,-0.5"/>
<text text-anchor="start" x="8" y="-29.5" font-family="Helvetica,sans-Serif" font-size="10.00">Libs/Engine/sources</text>
<text text-anchor="start" x="8" y="-18.5" font-family="Helvetica,sans-Serif" font-size="10.00">/Components/CoolDownBoost</text>
<text text-anchor="middle" x="80.5" y="-7.5" font-family="Helvetica,sans-Serif" font-size="10.00">/CoolDownBoost.cpp</text>
</a>
</g>
</g>
<!-- Node1&#45;&gt;Node2 -->
<g id="edge1" class="edge">
<title>Node1&#45;&gt;Node2</title>
<path fill="none" stroke="midnightblue" d="M140.1,-71.78C128.21,-61.84 114.88,-50.72 103.86,-41.51"/>
<polygon fill="midnightblue" stroke="midnightblue" points="138.15,-74.7 148.07,-78.43 142.63,-69.33 138.15,-74.7"/>
</g>
<!-- Node3 -->
<g id="node3" class="node">
<title>Node3</title>
<g id="a_node3"><a xlink:href="EntityFactory_8cpp.html" target="_top" xlink:title=" ">
<polygon fill="white" stroke="black" points="179,-6 179,-36 348,-36 348,-6 179,-6"/>
<text text-anchor="start" x="187" y="-24" font-family="Helvetica,sans-Serif" font-size="10.00">Libs/Engine/sources</text>
<text text-anchor="middle" x="263.5" y="-13" font-family="Helvetica,sans-Serif" font-size="10.00">/EntityFactory/EntityFactory.cpp</text>
</a>
</g>
</g>
<!-- Node1&#45;&gt;Node3 -->
<g id="edge2" class="edge">
<title>Node1&#45;&gt;Node3</title>
<path fill="none" stroke="midnightblue" d="M202.98,-71.99C217.48,-60.02 234.12,-46.27 246.28,-36.23"/>
<polygon fill="midnightblue" stroke="midnightblue" points="200.67,-69.36 195.19,-78.43 205.13,-74.76 200.67,-69.36"/>
</g>
</g>
</svg>
