<?xml version="1.0" encoding="UTF-8" standalone="no"?>
<!DOCTYPE svg PUBLIC "-//W3C//DTD SVG 1.1//EN"
 "http://www.w3.org/Graphics/SVG/1.1/DTD/svg11.dtd">
<!-- Generated by graphviz version 2.43.0 (0)
 -->
<!-- Title: Libs/ECS/sources/Coordinator/Coordinator.hpp Pages: 1 -->
<svg width="991pt" height="442pt"
 viewBox="0.00 0.00 991.00 442.00" xmlns="http://www.w3.org/2000/svg" xmlns:xlink="http://www.w3.org/1999/xlink">
<g id="graph0" class="graph" transform="scale(1 1) rotate(0) translate(4 438)">
<title>Libs/ECS/sources/Coordinator/Coordinator.hpp</title>
<polygon fill="white" stroke="transparent" points="-4,4 -4,-438 987,-438 987,4 -4,4"/>
<!-- Node1 -->
<g id="node1" class="node">
<title>Node1</title>
<g id="a_node1"><a xlink:title=" ">
<polygon fill="#bfbfbf" stroke="black" points="84,-403.5 84,-433.5 242,-433.5 242,-403.5 84,-403.5"/>
<text text-anchor="start" x="92" y="-421.5" font-family="Helvetica,sans-Serif" font-size="10.00">Libs/ECS/sources/Coordinator</text>
<text text-anchor="middle" x="163" y="-410.5" font-family="Helvetica,sans-Serif" font-size="10.00">/Coordinator.hpp</text>
</a>
</g>
</g>
<!-- Node2 -->
<g id="node2" class="node">
<title>Node2</title>
<g id="a_node2"><a xlink:title=" ">
<polygon fill="white" stroke="#bfbfbf" points="0,-347.5 0,-366.5 50,-366.5 50,-347.5 0,-347.5"/>
<text text-anchor="middle" x="25" y="-354.5" font-family="Helvetica,sans-Serif" font-size="10.00">chrono</text>
</a>
</g>
</g>
<!-- Node1&#45;&gt;Node2 -->
<g id="edge1" class="edge">
<title>Node1&#45;&gt;Node2</title>
<path fill="none" stroke="midnightblue" d="M130.3,-403.4C107.25,-393.46 76.64,-380.26 54.37,-370.66"/>
<polygon fill="midnightblue" stroke="midnightblue" points="55.65,-367.4 45.08,-366.66 52.88,-373.83 55.65,-367.4"/>
</g>
<!-- Node3 -->
<g id="node3" class="node">
<title>Node3</title>
<g id="a_node3"><a xlink:title=" ">
<polygon fill="white" stroke="#bfbfbf" points="132,-123.5 132,-142.5 190,-142.5 190,-123.5 132,-123.5"/>
<text text-anchor="middle" x="161" y="-130.5" font-family="Helvetica,sans-Serif" font-size="10.00">memory</text>
</a>
</g>
</g>
<!-- Node1&#45;&gt;Node3 -->
<g id="edge2" class="edge">
<title>Node1&#45;&gt;Node3</title>
<path fill="none" stroke="midnightblue" d="M140.72,-403.44C127.9,-394.38 112.33,-381.58 102,-367 84.19,-341.87 78,-332.8 78,-302 78,-302 78,-302 78,-244 78,-202.91 115.36,-167.44 139.95,-148.55"/>
<polygon fill="midnightblue" stroke="midnightblue" points="142.07,-151.33 148.03,-142.57 137.91,-145.7 142.07,-151.33"/>
</g>
<!-- Node4 -->
<g id="node4" class="node">
<title>Node4</title>
<g id="a_node4"><a xlink:title=" ">
<polygon fill="white" stroke="#bfbfbf" points="208,-123.5 208,-142.5 252,-142.5 252,-123.5 208,-123.5"/>
<text text-anchor="middle" x="230" y="-130.5" font-family="Helvetica,sans-Serif" font-size="10.00">string</text>
</a>
</g>
</g>
<!-- Node1&#45;&gt;Node4 -->
<g id="edge3" class="edge">
<title>Node1&#45;&gt;Node4</title>
<path fill="none" stroke="midnightblue" d="M166.32,-403.44C177.39,-356.6 213.03,-205.82 225.58,-152.72"/>
<polygon fill="midnightblue" stroke="midnightblue" points="229.05,-153.22 227.95,-142.68 222.24,-151.61 229.05,-153.22"/>
</g>
<!-- Node5 -->
<g id="node5" class="node">
<title>Node5</title>
<g id="a_node5"><a xlink:title=" ">
<polygon fill="white" stroke="#bfbfbf" points="940,-123.5 940,-142.5 978,-142.5 978,-123.5 940,-123.5"/>
<text text-anchor="middle" x="959" y="-130.5" font-family="Helvetica,sans-Serif" font-size="10.00">map</text>
</a>
</g>
</g>
<!-- Node1&#45;&gt;Node5 -->
<g id="edge4" class="edge">
<title>Node1&#45;&gt;Node5</title>
<path fill="none" stroke="midnightblue" d="M242.19,-414.34C444.78,-405.2 966,-374.62 966,-302 966,-302 966,-302 966,-244 966,-211.88 962.99,-174.6 960.92,-152.73"/>
<polygon fill="midnightblue" stroke="midnightblue" points="964.38,-152.15 959.92,-142.55 957.41,-152.84 964.38,-152.15"/>
</g>
<!-- Node6 -->
<g id="node6" class="node">
<title>Node6</title>
<g id="a_node6"><a xlink:href="SystemManager_8hpp.html" target="_top" xlink:title=" ">
<polygon fill="white" stroke="black" points="374,-347.5 374,-366.5 490,-366.5 490,-347.5 374,-347.5"/>
<text text-anchor="middle" x="432" y="-354.5" font-family="Helvetica,sans-Serif" font-size="10.00">SystemManager.hpp</text>
</a>
</g>
</g>
<!-- Node1&#45;&gt;Node6 -->
<g id="edge5" class="edge">
<title>Node1&#45;&gt;Node6</title>
<path fill="none" stroke="midnightblue" d="M226.41,-403.47C274.54,-392.83 339.71,-378.41 383.67,-368.69"/>
<polygon fill="midnightblue" stroke="midnightblue" points="384.53,-372.08 393.54,-366.51 383.02,-365.25 384.53,-372.08"/>
</g>
<!-- Node21 -->
<g id="node21" class="node">
<title>Node21</title>
<g id="a_node21"><a xlink:href="EntityManager_8hpp.html" target="_top" xlink:title=" ">
<polygon fill="white" stroke="black" points="296,-179.5 296,-198.5 404,-198.5 404,-179.5 296,-179.5"/>
<text text-anchor="middle" x="350" y="-186.5" font-family="Helvetica,sans-Serif" font-size="10.00">EntityManager.hpp</text>
</a>
</g>
</g>
<!-- Node1&#45;&gt;Node21 -->
<g id="edge42" class="edge">
<title>Node1&#45;&gt;Node21</title>
<path fill="none" stroke="midnightblue" d="M174.7,-403.27C207.61,-363.23 300.92,-249.72 336.23,-206.75"/>
<polygon fill="midnightblue" stroke="midnightblue" points="339.02,-208.87 342.66,-198.93 333.61,-204.43 339.02,-208.87"/>
</g>
<!-- Node6&#45;&gt;Node3 -->
<g id="edge6" class="edge">
<title>Node6&#45;&gt;Node3</title>
<path fill="none" stroke="midnightblue" d="M412.21,-347.41C394.39,-339.25 367.87,-326.02 347,-311 276.25,-260.09 205.07,-183.69 175.39,-150.44"/>
<polygon fill="midnightblue" stroke="midnightblue" points="177.71,-147.78 168.46,-142.61 172.46,-152.42 177.71,-147.78"/>
</g>
<!-- Node6&#45;&gt;Node4 -->
<g id="edge8" class="edge">
<title>Node6&#45;&gt;Node4</title>
<path fill="none" stroke="midnightblue" d="M419.99,-347.28C390.27,-325.22 312.1,-264.29 263,-199 252.08,-184.47 243.02,-165.79 237.18,-152.19"/>
<polygon fill="midnightblue" stroke="midnightblue" points="240.25,-150.45 233.21,-142.54 233.78,-153.12 240.25,-150.45"/>
</g>
<!-- Node7 -->
<g id="node7" class="node">
<title>Node7</title>
<g id="a_node7"><a xlink:title=" ">
<polygon fill="white" stroke="#bfbfbf" points="846,-123.5 846,-142.5 910,-142.5 910,-123.5 846,-123.5"/>
<text text-anchor="middle" x="878" y="-130.5" font-family="Helvetica,sans-Serif" font-size="10.00">algorithm</text>
</a>
</g>
</g>
<!-- Node6&#45;&gt;Node7 -->
<g id="edge7" class="edge">
<title>Node6&#45;&gt;Node7</title>
<path fill="none" stroke="midnightblue" d="M490.21,-350.69C534.3,-345.04 595.5,-333.64 645,-311 736.95,-268.95 826.77,-185.29 862.19,-150.14"/>
<polygon fill="midnightblue" stroke="midnightblue" points="865.05,-152.23 869.63,-142.67 860.09,-147.29 865.05,-152.23"/>
</g>
<!-- Node8 -->
<g id="node8" class="node">
<title>Node8</title>
<g id="a_node8"><a xlink:title=" ">
<polygon fill="white" stroke="#bfbfbf" points="510.5,-123.5 510.5,-142.5 603.5,-142.5 603.5,-123.5 510.5,-123.5"/>
<text text-anchor="middle" x="557" y="-130.5" font-family="Helvetica,sans-Serif" font-size="10.00">unordered_map</text>
</a>
</g>
</g>
<!-- Node6&#45;&gt;Node8 -->
<g id="edge9" class="edge">
<title>Node6&#45;&gt;Node8</title>
<path fill="none" stroke="midnightblue" d="M473.09,-347.46C538.72,-331.35 665.28,-289.63 719,-199 723.53,-191.35 724.38,-186.08 719,-179 712.04,-169.84 652.27,-154.91 607.33,-144.78"/>
<polygon fill="midnightblue" stroke="midnightblue" points="607.95,-141.33 597.42,-142.57 606.42,-148.16 607.95,-141.33"/>
</g>
<!-- Node9 -->
<g id="node9" class="node">
<title>Node9</title>
<g id="a_node9"><a xlink:href="ASystem_8hpp.html" target="_top" xlink:title=" ">
<polygon fill="white" stroke="black" points="391.5,-291.5 391.5,-310.5 472.5,-310.5 472.5,-291.5 391.5,-291.5"/>
<text text-anchor="middle" x="432" y="-298.5" font-family="Helvetica,sans-Serif" font-size="10.00">ASystem.hpp</text>
</a>
</g>
</g>
<!-- Node6&#45;&gt;Node9 -->
<g id="edge10" class="edge">
<title>Node6&#45;&gt;Node9</title>
<path fill="none" stroke="midnightblue" d="M432,-347.08C432,-340.01 432,-329.86 432,-320.99"/>
<polygon fill="midnightblue" stroke="midnightblue" points="435.5,-320.75 432,-310.75 428.5,-320.75 435.5,-320.75"/>
</g>
<!-- Node13 -->
<g id="node13" class="node">
<title>Node13</title>
<g id="a_node13"><a xlink:title=" ">
<polygon fill="white" stroke="#bfbfbf" points="736.5,-123.5 736.5,-142.5 827.5,-142.5 827.5,-123.5 736.5,-123.5"/>
<text text-anchor="middle" x="782" y="-130.5" font-family="Helvetica,sans-Serif" font-size="10.00">Exceptions.hpp</text>
</a>
</g>
</g>
<!-- Node6&#45;&gt;Node13 -->
<g id="edge41" class="edge">
<title>Node6&#45;&gt;Node13</title>
<path fill="none" stroke="midnightblue" d="M487.23,-347.44C523.73,-340.52 572.04,-328.95 612,-311 652.26,-292.92 662.34,-285.74 694,-255 727.4,-222.58 757.16,-176.25 772.01,-151.38"/>
<polygon fill="midnightblue" stroke="midnightblue" points="775.07,-153.08 777.11,-142.69 769.03,-149.54 775.07,-153.08"/>
</g>
<!-- Node9&#45;&gt;Node4 -->
<g id="edge11" class="edge">
<title>Node9&#45;&gt;Node4</title>
<path fill="none" stroke="midnightblue" d="M417.15,-291.33C389.9,-275.06 330.68,-238.06 287,-199 270.3,-184.06 253.69,-164.44 242.75,-150.68"/>
<polygon fill="midnightblue" stroke="midnightblue" points="245.34,-148.32 236.43,-142.59 239.83,-152.63 245.34,-148.32"/>
</g>
<!-- Node10 -->
<g id="node10" class="node">
<title>Node10</title>
<g id="a_node10"><a xlink:title=" ">
<polygon fill="white" stroke="#bfbfbf" points="445.5,-123.5 445.5,-142.5 492.5,-142.5 492.5,-123.5 445.5,-123.5"/>
<text text-anchor="middle" x="469" y="-130.5" font-family="Helvetica,sans-Serif" font-size="10.00">vector</text>
</a>
</g>
</g>
<!-- Node9&#45;&gt;Node10 -->
<g id="edge12" class="edge">
<title>Node9&#45;&gt;Node10</title>
<path fill="none" stroke="midnightblue" d="M433.99,-291.08C439.81,-264.95 456.92,-188.21 464.86,-152.58"/>
<polygon fill="midnightblue" stroke="midnightblue" points="468.33,-153.09 467.09,-142.57 461.5,-151.57 468.33,-153.09"/>
</g>
<!-- Node11 -->
<g id="node11" class="node">
<title>Node11</title>
<g id="a_node11"><a xlink:href="Entity_8hpp.html" target="_top" xlink:title=" ">
<polygon fill="white" stroke="black" points="494.5,-235.5 494.5,-254.5 559.5,-254.5 559.5,-235.5 494.5,-235.5"/>
<text text-anchor="middle" x="527" y="-242.5" font-family="Helvetica,sans-Serif" font-size="10.00">Entity.hpp</text>
</a>
</g>
</g>
<!-- Node9&#45;&gt;Node11 -->
<g id="edge13" class="edge">
<title>Node9&#45;&gt;Node11</title>
<path fill="none" stroke="midnightblue" d="M447.26,-291.32C462.22,-282.82 485.25,-269.73 502.73,-259.8"/>
<polygon fill="midnightblue" stroke="midnightblue" points="504.81,-262.64 511.77,-254.65 501.35,-256.55 504.81,-262.64"/>
</g>
<!-- Node11&#45;&gt;Node3 -->
<g id="edge16" class="edge">
<title>Node11&#45;&gt;Node3</title>
<path fill="none" stroke="midnightblue" d="M494.4,-240.93C447.51,-235.83 358.77,-223.65 287,-199 248.77,-185.87 207.75,-162.84 183.24,-148.02"/>
<polygon fill="midnightblue" stroke="midnightblue" points="184.75,-144.84 174.4,-142.59 181.09,-150.8 184.75,-144.84"/>
</g>
<!-- Node11&#45;&gt;Node7 -->
<g id="edge17" class="edge">
<title>Node11&#45;&gt;Node7</title>
<path fill="none" stroke="midnightblue" d="M559.74,-240.86C605.45,-235.77 690.48,-223.68 759,-199 795.21,-185.96 833.7,-163.07 856.79,-148.22"/>
<polygon fill="midnightblue" stroke="midnightblue" points="858.95,-150.99 865.41,-142.59 855.13,-145.13 858.95,-150.99"/>
</g>
<!-- Node11&#45;&gt;Node8 -->
<g id="edge15" class="edge">
<title>Node11&#45;&gt;Node8</title>
<path fill="none" stroke="midnightblue" d="M529.35,-235.37C534.22,-217.54 545.46,-176.3 552.02,-152.27"/>
<polygon fill="midnightblue" stroke="midnightblue" points="555.4,-153.16 554.66,-142.59 548.65,-151.32 555.4,-153.16"/>
</g>
<!-- Node11&#45;&gt;Node10 -->
<g id="edge18" class="edge">
<title>Node11&#45;&gt;Node10</title>
<path fill="none" stroke="midnightblue" d="M522.45,-235.37C512.96,-217.38 490.91,-175.55 478.29,-151.63"/>
<polygon fill="midnightblue" stroke="midnightblue" points="481.29,-149.8 473.53,-142.59 475.1,-153.07 481.29,-149.8"/>
</g>
<!-- Node12 -->
<g id="node12" class="node">
<title>Node12</title>
<g id="a_node12"><a xlink:title=" ">
<polygon fill="white" stroke="#bfbfbf" points="365,-123.5 365,-142.5 427,-142.5 427,-123.5 365,-123.5"/>
<text text-anchor="middle" x="396" y="-130.5" font-family="Helvetica,sans-Serif" font-size="10.00">cinttypes</text>
</a>
</g>
</g>
<!-- Node11&#45;&gt;Node12 -->
<g id="edge14" class="edge">
<title>Node11&#45;&gt;Node12</title>
<path fill="none" stroke="midnightblue" d="M516.72,-235.37C494.53,-216.73 441.89,-172.53 414.02,-149.13"/>
<polygon fill="midnightblue" stroke="midnightblue" points="416.14,-146.34 406.23,-142.59 411.64,-151.7 416.14,-146.34"/>
</g>
<!-- Node11&#45;&gt;Node13 -->
<g id="edge19" class="edge">
<title>Node11&#45;&gt;Node13</title>
<path fill="none" stroke="midnightblue" d="M559.67,-243.97C603.11,-242.46 680.72,-234.48 735,-199 752.62,-187.49 765.81,-166.91 773.67,-151.99"/>
<polygon fill="midnightblue" stroke="midnightblue" points="776.95,-153.26 778.24,-142.74 770.67,-150.16 776.95,-153.26"/>
</g>
<!-- Node14 -->
<g id="node14" class="node">
<title>Node14</title>
<g id="a_node14"><a xlink:href="ComponentManager_8hpp.html" target="_top" xlink:title=" ">
<polygon fill="white" stroke="black" points="574,-179.5 574,-198.5 710,-198.5 710,-179.5 574,-179.5"/>
<text text-anchor="middle" x="642" y="-186.5" font-family="Helvetica,sans-Serif" font-size="10.00">ComponentManager.hpp</text>
</a>
</g>
</g>
<!-- Node11&#45;&gt;Node14 -->
<g id="edge20" class="edge">
<title>Node11&#45;&gt;Node14</title>
<path fill="none" stroke="midnightblue" d="M545.22,-235.44C563.9,-226.68 593.16,-212.94 614.62,-202.86"/>
<polygon fill="midnightblue" stroke="midnightblue" points="616.3,-205.93 623.86,-198.52 613.32,-199.6 616.3,-205.93"/>
</g>
<!-- Node15 -->
<g id="node15" class="node">
<title>Node15</title>
<g id="a_node15"><a xlink:href="IComponent_8hpp.html" target="_top" xlink:title=" ">
<polygon fill="white" stroke="black" points="621.5,-123.5 621.5,-142.5 718.5,-142.5 718.5,-123.5 621.5,-123.5"/>
<text text-anchor="middle" x="670" y="-130.5" font-family="Helvetica,sans-Serif" font-size="10.00">IComponent.hpp</text>
</a>
</g>
</g>
<!-- Node11&#45;&gt;Node15 -->
<g id="edge40" class="edge">
<title>Node11&#45;&gt;Node15</title>
<path fill="none" stroke="midnightblue" d="M559.78,-241.14C609.3,-236.06 699.49,-223.62 719,-199 732.64,-181.79 711.67,-161.53 693.08,-148.25"/>
<polygon fill="midnightblue" stroke="midnightblue" points="694.82,-145.21 684.57,-142.51 690.9,-151.01 694.82,-145.21"/>
</g>
<!-- Node11&#45;&gt;Node21 -->
<g id="edge35" class="edge">
<title>Node11&#45;&gt;Node21</title>
<path fill="none" stroke="midnightblue" d="M498.95,-235.44C468.92,-226.28 421.09,-211.69 387.76,-201.52"/>
<polygon fill="midnightblue" stroke="midnightblue" points="388.5,-198.09 377.91,-198.52 386.46,-204.78 388.5,-198.09"/>
</g>
<!-- Node14&#45;&gt;Node3 -->
<g id="edge24" class="edge">
<title>Node14&#45;&gt;Node3</title>
<path fill="none" stroke="midnightblue" d="M573.7,-183.86C488.42,-178.06 337.95,-165.78 200.27,-143.02"/>
<polygon fill="midnightblue" stroke="midnightblue" points="200.82,-139.56 190.38,-141.36 199.66,-146.47 200.82,-139.56"/>
</g>
<!-- Node14&#45;&gt;Node4 -->
<g id="edge22" class="edge">
<title>Node14&#45;&gt;Node4</title>
<path fill="none" stroke="midnightblue" d="M576.72,-179.44C487.12,-167.7 329.49,-147.04 262.06,-138.2"/>
<polygon fill="midnightblue" stroke="midnightblue" points="262.41,-134.72 252.04,-136.89 261.5,-141.66 262.41,-134.72"/>
</g>
<!-- Node14&#45;&gt;Node5 -->
<g id="edge34" class="edge">
<title>Node14&#45;&gt;Node5</title>
<path fill="none" stroke="midnightblue" d="M700.81,-179.5C757.01,-171.12 844.02,-157.51 919,-143 922.53,-142.32 926.23,-141.55 929.88,-140.77"/>
<polygon fill="midnightblue" stroke="midnightblue" points="930.92,-144.12 939.92,-138.54 929.4,-137.29 930.92,-144.12"/>
</g>
<!-- Node14&#45;&gt;Node7 -->
<g id="edge25" class="edge">
<title>Node14&#45;&gt;Node7</title>
<path fill="none" stroke="midnightblue" d="M679.39,-179.44C721.96,-169.7 791.33,-153.83 835.8,-143.66"/>
<polygon fill="midnightblue" stroke="midnightblue" points="836.74,-147.03 845.71,-141.39 835.18,-140.21 836.74,-147.03"/>
</g>
<!-- Node14&#45;&gt;Node8 -->
<g id="edge21" class="edge">
<title>Node14&#45;&gt;Node8</title>
<path fill="none" stroke="midnightblue" d="M628.34,-179.32C615.08,-170.9 594.73,-157.97 579.15,-148.07"/>
<polygon fill="midnightblue" stroke="midnightblue" points="580.94,-145.06 570.62,-142.65 577.19,-150.97 580.94,-145.06"/>
</g>
<!-- Node14&#45;&gt;Node10 -->
<g id="edge23" class="edge">
<title>Node14&#45;&gt;Node10</title>
<path fill="none" stroke="midnightblue" d="M614.59,-179.44C584.11,-169.93 534.88,-154.56 502.23,-144.37"/>
<polygon fill="midnightblue" stroke="midnightblue" points="503.26,-141.03 492.67,-141.39 501.17,-147.71 503.26,-141.03"/>
</g>
<!-- Node14&#45;&gt;Node13 -->
<g id="edge26" class="edge">
<title>Node14&#45;&gt;Node13</title>
<path fill="none" stroke="midnightblue" d="M664.18,-179.44C687.43,-170.48 724.15,-156.31 750.42,-146.18"/>
<polygon fill="midnightblue" stroke="midnightblue" points="751.85,-149.38 759.92,-142.52 749.33,-142.85 751.85,-149.38"/>
</g>
<!-- Node14&#45;&gt;Node15 -->
<g id="edge27" class="edge">
<title>Node14&#45;&gt;Node15</title>
<path fill="none" stroke="midnightblue" d="M646.62,-179.08C650.46,-171.69 656.02,-160.95 660.76,-151.81"/>
<polygon fill="midnightblue" stroke="midnightblue" points="663.97,-153.24 665.46,-142.75 657.75,-150.02 663.97,-153.24"/>
</g>
<!-- Node16 -->
<g id="node16" class="node">
<title>Node16</title>
<g id="a_node16"><a xlink:title=" ">
<polygon fill="white" stroke="#bfbfbf" points="585.5,-6 585.5,-25 642.5,-25 642.5,-6 585.5,-6"/>
<text text-anchor="middle" x="614" y="-13" font-family="Helvetica,sans-Serif" font-size="10.00">ostream</text>
</a>
</g>
</g>
<!-- Node15&#45;&gt;Node16 -->
<g id="edge28" class="edge">
<title>Node15&#45;&gt;Node16</title>
<path fill="none" stroke="midnightblue" d="M665.79,-123.32C656.67,-104.51 634.92,-59.65 622.71,-34.46"/>
<polygon fill="midnightblue" stroke="midnightblue" points="625.77,-32.75 618.26,-25.28 619.47,-35.81 625.77,-32.75"/>
</g>
<!-- Node17 -->
<g id="node17" class="node">
<title>Node17</title>
<g id="a_node17"><a xlink:href="IXMLSerializable_8hpp.html" target="_top" xlink:title=" ">
<polygon fill="white" stroke="black" points="657.5,-67.5 657.5,-86.5 776.5,-86.5 776.5,-67.5 657.5,-67.5"/>
<text text-anchor="middle" x="717" y="-74.5" font-family="Helvetica,sans-Serif" font-size="10.00">IXMLSerializable.hpp</text>
</a>
</g>
</g>
<!-- Node15&#45;&gt;Node17 -->
<g id="edge29" class="edge">
<title>Node15&#45;&gt;Node17</title>
<path fill="none" stroke="midnightblue" d="M677.76,-123.08C684.54,-115.3 694.54,-103.8 702.76,-94.37"/>
<polygon fill="midnightblue" stroke="midnightblue" points="705.46,-96.59 709.38,-86.75 700.18,-92 705.46,-96.59"/>
</g>
<!-- Node17&#45;&gt;Node16 -->
<g id="edge30" class="edge">
<title>Node17&#45;&gt;Node16</title>
<path fill="none" stroke="midnightblue" d="M702.24,-67.48C685.34,-57.71 657.42,-41.58 637.51,-30.08"/>
<polygon fill="midnightblue" stroke="midnightblue" points="639.14,-26.98 628.73,-25.01 635.64,-33.04 639.14,-26.98"/>
</g>
<!-- Node18 -->
<g id="node18" class="node">
<title>Node18</title>
<g id="a_node18"><a xlink:title=" ">
<polygon fill="white" stroke="#bfbfbf" points="923,-6 923,-25 983,-25 983,-6 923,-6"/>
<text text-anchor="middle" x="953" y="-13" font-family="Helvetica,sans-Serif" font-size="10.00">iostream</text>
</a>
</g>
</g>
<!-- Node17&#45;&gt;Node18 -->
<g id="edge31" class="edge">
<title>Node17&#45;&gt;Node18</title>
<path fill="none" stroke="midnightblue" d="M762.03,-67.47C802.25,-59.44 862.57,-46.36 914,-31 916.57,-30.23 919.22,-29.38 921.86,-28.49"/>
<polygon fill="midnightblue" stroke="midnightblue" points="923.05,-31.78 931.31,-25.14 920.71,-25.18 923.05,-31.78"/>
</g>
<!-- Node19 -->
<g id="node19" class="node">
<title>Node19</title>
<g id="a_node19"><a xlink:title=" ">
<polygon fill="white" stroke="#bfbfbf" points="660.5,-0.5 660.5,-30.5 773.5,-30.5 773.5,-0.5 660.5,-0.5"/>
<text text-anchor="start" x="668.5" y="-18.5" font-family="Helvetica,sans-Serif" font-size="10.00">boost/property_tree</text>
<text text-anchor="middle" x="717" y="-7.5" font-family="Helvetica,sans-Serif" font-size="10.00">/ptree.hpp</text>
</a>
</g>
</g>
<!-- Node17&#45;&gt;Node19 -->
<g id="edge32" class="edge">
<title>Node17&#45;&gt;Node19</title>
<path fill="none" stroke="midnightblue" d="M717,-67.48C717,-60.47 717,-50.19 717,-40.7"/>
<polygon fill="midnightblue" stroke="midnightblue" points="720.5,-40.52 717,-30.52 713.5,-40.52 720.5,-40.52"/>
</g>
<!-- Node20 -->
<g id="node20" class="node">
<title>Node20</title>
<g id="a_node20"><a xlink:title=" ">
<polygon fill="white" stroke="#bfbfbf" points="791.5,-0.5 791.5,-30.5 904.5,-30.5 904.5,-0.5 791.5,-0.5"/>
<text text-anchor="start" x="799.5" y="-18.5" font-family="Helvetica,sans-Serif" font-size="10.00">boost/property_tree</text>
<text text-anchor="middle" x="848" y="-7.5" font-family="Helvetica,sans-Serif" font-size="10.00">/xml_parser.hpp</text>
</a>
</g>
</g>
<!-- Node17&#45;&gt;Node20 -->
<g id="edge33" class="edge">
<title>Node17&#45;&gt;Node20</title>
<path fill="none" stroke="midnightblue" d="M735.77,-67.48C754.51,-58.96 783.89,-45.62 807.89,-34.72"/>
<polygon fill="midnightblue" stroke="midnightblue" points="809.47,-37.85 817.13,-30.52 806.57,-31.47 809.47,-37.85"/>
</g>
<!-- Node21&#45;&gt;Node3 -->
<g id="edge38" class="edge">
<title>Node21&#45;&gt;Node3</title>
<path fill="none" stroke="midnightblue" d="M320.05,-179.44C287.65,-170.19 235.86,-155.39 200.23,-145.21"/>
<polygon fill="midnightblue" stroke="midnightblue" points="200.76,-141.72 190.19,-142.34 198.84,-148.45 200.76,-141.72"/>
</g>
<!-- Node21&#45;&gt;Node10 -->
<g id="edge36" class="edge">
<title>Node21&#45;&gt;Node10</title>
<path fill="none" stroke="midnightblue" d="M368.86,-179.44C388.27,-170.64 418.73,-156.81 440.96,-146.72"/>
<polygon fill="midnightblue" stroke="midnightblue" points="442.57,-149.84 450.23,-142.52 439.68,-143.46 442.57,-149.84"/>
</g>
<!-- Node21&#45;&gt;Node12 -->
<g id="edge37" class="edge">
<title>Node21&#45;&gt;Node12</title>
<path fill="none" stroke="midnightblue" d="M357.6,-179.08C364.23,-171.3 374.02,-159.8 382.06,-150.37"/>
<polygon fill="midnightblue" stroke="midnightblue" points="384.73,-152.63 388.55,-142.75 379.4,-148.09 384.73,-152.63"/>
</g>
<!-- Node22 -->
<g id="node22" class="node">
<title>Node22</title>
<g id="a_node22"><a xlink:title=" ">
<polygon fill="white" stroke="#bfbfbf" points="315,-123.5 315,-142.5 347,-142.5 347,-123.5 315,-123.5"/>
<text text-anchor="middle" x="331" y="-130.5" font-family="Helvetica,sans-Serif" font-size="10.00">list</text>
</a>
</g>
</g>
<!-- Node21&#45;&gt;Node22 -->
<g id="edge39" class="edge">
<title>Node21&#45;&gt;Node22</title>
<path fill="none" stroke="midnightblue" d="M346.86,-179.08C344.32,-171.85 340.64,-161.41 337.47,-152.4"/>
<polygon fill="midnightblue" stroke="midnightblue" points="340.7,-151.02 334.08,-142.75 334.1,-153.35 340.7,-151.02"/>
</g>
</g>
</svg>
