<?xml version="1.0" encoding="UTF-8" standalone="no"?>
<!DOCTYPE svg PUBLIC "-//W3C//DTD SVG 1.1//EN"
 "http://www.w3.org/Graphics/SVG/1.1/DTD/svg11.dtd">
<!-- Generated by graphviz version 2.43.0 (0)
 -->
<!-- Title: Libs/ECS/sources/Coordinator/Coordinator.cpp Pages: 1 -->
<svg width="934pt" height="498pt"
 viewBox="0.00 0.00 934.00 498.00" xmlns="http://www.w3.org/2000/svg" xmlns:xlink="http://www.w3.org/1999/xlink">
<g id="graph0" class="graph" transform="scale(1 1) rotate(0) translate(4 494)">
<title>Libs/ECS/sources/Coordinator/Coordinator.cpp</title>
<polygon fill="white" stroke="transparent" points="-4,4 -4,-494 930,-494 930,4 -4,4"/>
<!-- Node1 -->
<g id="node1" class="node">
<title>Node1</title>
<g id="a_node1"><a xlink:title=" ">
<polygon fill="#bfbfbf" stroke="black" points="714,-459.5 714,-489.5 872,-489.5 872,-459.5 714,-459.5"/>
<text text-anchor="start" x="722" y="-477.5" font-family="Helvetica,sans-Serif" font-size="10.00">Libs/ECS/sources/Coordinator</text>
<text text-anchor="middle" x="793" y="-466.5" font-family="Helvetica,sans-Serif" font-size="10.00">/Coordinator.cpp</text>
</a>
</g>
</g>
<!-- Node2 -->
<g id="node2" class="node">
<title>Node2</title>
<g id="a_node2"><a xlink:href="Coordinator_8hpp.html" target="_top" xlink:title=" ">
<polygon fill="white" stroke="black" points="613,-403.5 613,-422.5 707,-422.5 707,-403.5 613,-403.5"/>
<text text-anchor="middle" x="660" y="-410.5" font-family="Helvetica,sans-Serif" font-size="10.00">Coordinator.hpp</text>
</a>
</g>
</g>
<!-- Node1&#45;&gt;Node2 -->
<g id="edge1" class="edge">
<title>Node1&#45;&gt;Node2</title>
<path fill="none" stroke="midnightblue" d="M761.48,-459.4C739.36,-449.51 710.03,-436.38 688.59,-426.79"/>
<polygon fill="midnightblue" stroke="midnightblue" points="689.91,-423.55 679.35,-422.66 687.05,-429.94 689.91,-423.55"/>
</g>
<!-- Node14 -->
<g id="node14" class="node">
<title>Node14</title>
<g id="a_node14"><a xlink:title=" ">
<polygon fill="white" stroke="#bfbfbf" points="711.5,-123.5 711.5,-142.5 802.5,-142.5 802.5,-123.5 711.5,-123.5"/>
<text text-anchor="middle" x="757" y="-130.5" font-family="Helvetica,sans-Serif" font-size="10.00">Exceptions.hpp</text>
</a>
</g>
</g>
<!-- Node1&#45;&gt;Node14 -->
<g id="edge44" class="edge">
<title>Node1&#45;&gt;Node14</title>
<path fill="none" stroke="midnightblue" d="M831.11,-459.38C870.41,-442.06 926,-408.61 926,-358 926,-358 926,-358 926,-244 926,-187.99 860,-159.03 810.49,-145.18"/>
<polygon fill="midnightblue" stroke="midnightblue" points="811.09,-141.72 800.52,-142.53 809.29,-148.48 811.09,-141.72"/>
</g>
<!-- Node3 -->
<g id="node3" class="node">
<title>Node3</title>
<g id="a_node3"><a xlink:title=" ">
<polygon fill="white" stroke="#bfbfbf" points="534,-347.5 534,-366.5 584,-366.5 584,-347.5 534,-347.5"/>
<text text-anchor="middle" x="559" y="-354.5" font-family="Helvetica,sans-Serif" font-size="10.00">chrono</text>
</a>
</g>
</g>
<!-- Node2&#45;&gt;Node3 -->
<g id="edge2" class="edge">
<title>Node2&#45;&gt;Node3</title>
<path fill="none" stroke="midnightblue" d="M643.77,-403.32C627.65,-394.7 602.7,-381.36 584.04,-371.39"/>
<polygon fill="midnightblue" stroke="midnightblue" points="585.66,-368.28 575.19,-366.65 582.36,-374.46 585.66,-368.28"/>
</g>
<!-- Node4 -->
<g id="node4" class="node">
<title>Node4</title>
<g id="a_node4"><a xlink:title=" ">
<polygon fill="white" stroke="#bfbfbf" points="47,-123.5 47,-142.5 105,-142.5 105,-123.5 47,-123.5"/>
<text text-anchor="middle" x="76" y="-130.5" font-family="Helvetica,sans-Serif" font-size="10.00">memory</text>
</a>
</g>
</g>
<!-- Node2&#45;&gt;Node4 -->
<g id="edge3" class="edge">
<title>Node2&#45;&gt;Node4</title>
<path fill="none" stroke="midnightblue" d="M612.8,-409.12C461.74,-399.3 0,-364.18 0,-302 0,-302 0,-302 0,-244 0,-204.28 33.96,-168.5 56.48,-149.15"/>
<polygon fill="midnightblue" stroke="midnightblue" points="58.98,-151.63 64.46,-142.57 54.52,-146.24 58.98,-151.63"/>
</g>
<!-- Node5 -->
<g id="node5" class="node">
<title>Node5</title>
<g id="a_node5"><a xlink:title=" ">
<polygon fill="white" stroke="#bfbfbf" points="824,-123.5 824,-142.5 868,-142.5 868,-123.5 824,-123.5"/>
<text text-anchor="middle" x="846" y="-130.5" font-family="Helvetica,sans-Serif" font-size="10.00">string</text>
</a>
</g>
</g>
<!-- Node2&#45;&gt;Node5 -->
<g id="edge4" class="edge">
<title>Node2&#45;&gt;Node5</title>
<path fill="none" stroke="midnightblue" d="M707.24,-409.69C774.02,-403.6 888,-381.55 888,-302 888,-302 888,-302 888,-244 888,-209.41 869.65,-172.49 857.21,-151.43"/>
<polygon fill="midnightblue" stroke="midnightblue" points="860.06,-149.38 851.84,-142.69 854.09,-153.04 860.06,-149.38"/>
</g>
<!-- Node6 -->
<g id="node6" class="node">
<title>Node6</title>
<g id="a_node6"><a xlink:title=" ">
<polygon fill="white" stroke="#bfbfbf" points="655,-123.5 655,-142.5 693,-142.5 693,-123.5 655,-123.5"/>
<text text-anchor="middle" x="674" y="-130.5" font-family="Helvetica,sans-Serif" font-size="10.00">map</text>
</a>
</g>
</g>
<!-- Node2&#45;&gt;Node6 -->
<g id="edge5" class="edge">
<title>Node2&#45;&gt;Node6</title>
<path fill="none" stroke="midnightblue" d="M680.64,-403.42C713.5,-388.23 774,-353.29 774,-302 774,-302 774,-302 774,-244 774,-199.98 729.62,-165.8 699.99,-147.87"/>
<polygon fill="midnightblue" stroke="midnightblue" points="701.37,-144.63 690.96,-142.64 697.86,-150.68 701.37,-144.63"/>
</g>
<!-- Node7 -->
<g id="node7" class="node">
<title>Node7</title>
<g id="a_node7"><a xlink:href="SystemManager_8hpp.html" target="_top" xlink:title=" ">
<polygon fill="white" stroke="black" points="602,-347.5 602,-366.5 718,-366.5 718,-347.5 602,-347.5"/>
<text text-anchor="middle" x="660" y="-354.5" font-family="Helvetica,sans-Serif" font-size="10.00">SystemManager.hpp</text>
</a>
</g>
</g>
<!-- Node2&#45;&gt;Node7 -->
<g id="edge6" class="edge">
<title>Node2&#45;&gt;Node7</title>
<path fill="none" stroke="midnightblue" d="M660,-403.08C660,-396.01 660,-385.86 660,-376.99"/>
<polygon fill="midnightblue" stroke="midnightblue" points="663.5,-376.75 660,-366.75 656.5,-376.75 663.5,-376.75"/>
</g>
<!-- Node22 -->
<g id="node22" class="node">
<title>Node22</title>
<g id="a_node22"><a xlink:href="EntityManager_8hpp.html" target="_top" xlink:title=" ">
<polygon fill="white" stroke="black" points="104,-179.5 104,-198.5 212,-198.5 212,-179.5 104,-179.5"/>
<text text-anchor="middle" x="158" y="-186.5" font-family="Helvetica,sans-Serif" font-size="10.00">EntityManager.hpp</text>
</a>
</g>
</g>
<!-- Node2&#45;&gt;Node22 -->
<g id="edge43" class="edge">
<title>Node2&#45;&gt;Node22</title>
<path fill="none" stroke="midnightblue" d="M633.53,-403.46C606.24,-394.6 562.52,-380.21 525,-367 457.48,-343.23 438.98,-341.03 374,-311 300.8,-277.17 218.89,-227.94 180.34,-204.05"/>
<polygon fill="midnightblue" stroke="midnightblue" points="181.85,-200.87 171.51,-198.55 178.15,-206.81 181.85,-200.87"/>
</g>
<!-- Node7&#45;&gt;Node4 -->
<g id="edge7" class="edge">
<title>Node7&#45;&gt;Node4</title>
<path fill="none" stroke="midnightblue" d="M601.9,-347.51C524.72,-336.14 395.56,-316.71 374,-311 238.03,-274.99 159.72,-313.49 78,-199 68.48,-185.66 69.11,-166.54 71.45,-152.49"/>
<polygon fill="midnightblue" stroke="midnightblue" points="74.91,-153.02 73.52,-142.52 68.06,-151.6 74.91,-153.02"/>
</g>
<!-- Node7&#45;&gt;Node5 -->
<g id="edge9" class="edge">
<title>Node7&#45;&gt;Node5</title>
<path fill="none" stroke="midnightblue" d="M667.3,-347.38C674.96,-338.33 687.34,-323.68 698,-311 747.46,-252.13 805.96,-182.03 832.13,-150.64"/>
<polygon fill="midnightblue" stroke="midnightblue" points="834.91,-152.78 838.62,-142.85 829.53,-148.29 834.91,-152.78"/>
</g>
<!-- Node8 -->
<g id="node8" class="node">
<title>Node8</title>
<g id="a_node8"><a xlink:title=" ">
<polygon fill="white" stroke="#bfbfbf" points="281,-123.5 281,-142.5 345,-142.5 345,-123.5 281,-123.5"/>
<text text-anchor="middle" x="313" y="-130.5" font-family="Helvetica,sans-Serif" font-size="10.00">algorithm</text>
</a>
</g>
</g>
<!-- Node7&#45;&gt;Node8 -->
<g id="edge8" class="edge">
<title>Node7&#45;&gt;Node8</title>
<path fill="none" stroke="midnightblue" d="M603.24,-347.48C515.71,-333.04 354.35,-300.8 321,-255 298.98,-224.76 303.67,-178.2 308.61,-152.55"/>
<polygon fill="midnightblue" stroke="midnightblue" points="312.05,-153.16 310.73,-142.65 305.21,-151.7 312.05,-153.16"/>
</g>
<!-- Node9 -->
<g id="node9" class="node">
<title>Node9</title>
<g id="a_node9"><a xlink:title=" ">
<polygon fill="white" stroke="#bfbfbf" points="543.5,-123.5 543.5,-142.5 636.5,-142.5 636.5,-123.5 543.5,-123.5"/>
<text text-anchor="middle" x="590" y="-130.5" font-family="Helvetica,sans-Serif" font-size="10.00">unordered_map</text>
</a>
</g>
</g>
<!-- Node7&#45;&gt;Node9 -->
<g id="edge10" class="edge">
<title>Node7&#45;&gt;Node9</title>
<path fill="none" stroke="midnightblue" d="M659.05,-347.2C655.97,-320.79 644.92,-240.3 619,-179 614.84,-169.17 608.58,-159.11 602.94,-151"/>
<polygon fill="midnightblue" stroke="midnightblue" points="605.69,-148.82 596.98,-142.79 600.02,-152.94 605.69,-148.82"/>
</g>
<!-- Node10 -->
<g id="node10" class="node">
<title>Node10</title>
<g id="a_node10"><a xlink:href="ASystem_8hpp.html" target="_top" xlink:title=" ">
<polygon fill="white" stroke="black" points="470.5,-291.5 470.5,-310.5 551.5,-310.5 551.5,-291.5 470.5,-291.5"/>
<text text-anchor="middle" x="511" y="-298.5" font-family="Helvetica,sans-Serif" font-size="10.00">ASystem.hpp</text>
</a>
</g>
</g>
<!-- Node7&#45;&gt;Node10 -->
<g id="edge11" class="edge">
<title>Node7&#45;&gt;Node10</title>
<path fill="none" stroke="midnightblue" d="M636.39,-347.44C611.54,-338.44 572.23,-324.19 544.25,-314.05"/>
<polygon fill="midnightblue" stroke="midnightblue" points="545.09,-310.63 534.5,-310.52 542.71,-317.21 545.09,-310.63"/>
</g>
<!-- Node7&#45;&gt;Node14 -->
<g id="edge42" class="edge">
<title>Node7&#45;&gt;Node14</title>
<path fill="none" stroke="midnightblue" d="M663.8,-347.3C678.17,-314.42 729.3,-197.39 749.1,-152.09"/>
<polygon fill="midnightblue" stroke="midnightblue" points="752.32,-153.45 753.12,-142.88 745.91,-150.65 752.32,-153.45"/>
</g>
<!-- Node10&#45;&gt;Node5 -->
<g id="edge12" class="edge">
<title>Node10&#45;&gt;Node5</title>
<path fill="none" stroke="midnightblue" d="M528.54,-291.31C583.6,-264.02 753.28,-179.95 819.31,-147.22"/>
<polygon fill="midnightblue" stroke="midnightblue" points="821.23,-150.18 828.63,-142.61 818.12,-143.91 821.23,-150.18"/>
</g>
<!-- Node11 -->
<g id="node11" class="node">
<title>Node11</title>
<g id="a_node11"><a xlink:title=" ">
<polygon fill="white" stroke="#bfbfbf" points="363.5,-123.5 363.5,-142.5 410.5,-142.5 410.5,-123.5 363.5,-123.5"/>
<text text-anchor="middle" x="387" y="-130.5" font-family="Helvetica,sans-Serif" font-size="10.00">vector</text>
</a>
</g>
</g>
<!-- Node10&#45;&gt;Node11 -->
<g id="edge13" class="edge">
<title>Node10&#45;&gt;Node11</title>
<path fill="none" stroke="midnightblue" d="M504.33,-291.08C484.48,-264.49 425.5,-185.54 399.52,-150.76"/>
<polygon fill="midnightblue" stroke="midnightblue" points="402.19,-148.49 393.4,-142.57 396.58,-152.67 402.19,-148.49"/>
</g>
<!-- Node12 -->
<g id="node12" class="node">
<title>Node12</title>
<g id="a_node12"><a xlink:href="Entity_8hpp.html" target="_top" xlink:title=" ">
<polygon fill="white" stroke="black" points="329.5,-235.5 329.5,-254.5 394.5,-254.5 394.5,-235.5 329.5,-235.5"/>
<text text-anchor="middle" x="362" y="-242.5" font-family="Helvetica,sans-Serif" font-size="10.00">Entity.hpp</text>
</a>
</g>
</g>
<!-- Node10&#45;&gt;Node12 -->
<g id="edge14" class="edge">
<title>Node10&#45;&gt;Node12</title>
<path fill="none" stroke="midnightblue" d="M487.39,-291.44C462.54,-282.44 423.23,-268.19 395.25,-258.05"/>
<polygon fill="midnightblue" stroke="midnightblue" points="396.09,-254.63 385.5,-254.52 393.71,-261.21 396.09,-254.63"/>
</g>
<!-- Node12&#45;&gt;Node4 -->
<g id="edge17" class="edge">
<title>Node12&#45;&gt;Node4</title>
<path fill="none" stroke="midnightblue" d="M329.09,-242.72C265.54,-239.57 129.17,-229.37 95,-199 81.98,-187.42 77.66,-167.46 76.34,-152.71"/>
<polygon fill="midnightblue" stroke="midnightblue" points="79.83,-152.47 75.82,-142.66 72.84,-152.83 79.83,-152.47"/>
</g>
<!-- Node12&#45;&gt;Node8 -->
<g id="edge18" class="edge">
<title>Node12&#45;&gt;Node8</title>
<path fill="none" stroke="midnightblue" d="M358.16,-235.37C350.18,-217.46 331.67,-175.92 321,-151.95"/>
<polygon fill="midnightblue" stroke="midnightblue" points="324.09,-150.3 316.83,-142.59 317.7,-153.15 324.09,-150.3"/>
</g>
<!-- Node12&#45;&gt;Node9 -->
<g id="edge16" class="edge">
<title>Node12&#45;&gt;Node9</title>
<path fill="none" stroke="midnightblue" d="M394.76,-242.86C454.38,-240.03 576.89,-230.43 603,-199 613.99,-185.76 607.71,-165.82 600.59,-151.52"/>
<polygon fill="midnightblue" stroke="midnightblue" points="603.6,-149.74 595.72,-142.67 597.47,-153.12 603.6,-149.74"/>
</g>
<!-- Node12&#45;&gt;Node11 -->
<g id="edge19" class="edge">
<title>Node12&#45;&gt;Node11</title>
<path fill="none" stroke="midnightblue" d="M363.96,-235.37C368,-217.62 377.3,-176.67 382.77,-152.6"/>
<polygon fill="midnightblue" stroke="midnightblue" points="386.24,-153.12 385.05,-142.59 379.42,-151.57 386.24,-153.12"/>
</g>
<!-- Node13 -->
<g id="node13" class="node">
<title>Node13</title>
<g id="a_node13"><a xlink:title=" ">
<polygon fill="white" stroke="#bfbfbf" points="198,-123.5 198,-142.5 260,-142.5 260,-123.5 198,-123.5"/>
<text text-anchor="middle" x="229" y="-130.5" font-family="Helvetica,sans-Serif" font-size="10.00">cinttypes</text>
</a>
</g>
</g>
<!-- Node12&#45;&gt;Node13 -->
<g id="edge15" class="edge">
<title>Node12&#45;&gt;Node13</title>
<path fill="none" stroke="midnightblue" d="M351.56,-235.37C329.03,-216.73 275.59,-172.53 247.3,-149.13"/>
<polygon fill="midnightblue" stroke="midnightblue" points="249.32,-146.27 239.39,-142.59 244.86,-151.66 249.32,-146.27"/>
</g>
<!-- Node12&#45;&gt;Node14 -->
<g id="edge20" class="edge">
<title>Node12&#45;&gt;Node14</title>
<path fill="none" stroke="midnightblue" d="M394.72,-241.09C444.2,-236.07 540.62,-223.83 619,-199 660.82,-185.75 706.3,-162.43 733.2,-147.62"/>
<polygon fill="midnightblue" stroke="midnightblue" points="735.2,-150.51 742.22,-142.59 731.78,-144.4 735.2,-150.51"/>
</g>
<!-- Node15 -->
<g id="node15" class="node">
<title>Node15</title>
<g id="a_node15"><a xlink:href="ComponentManager_8hpp.html" target="_top" xlink:title=" ">
<polygon fill="white" stroke="black" points="458,-179.5 458,-198.5 594,-198.5 594,-179.5 458,-179.5"/>
<text text-anchor="middle" x="526" y="-186.5" font-family="Helvetica,sans-Serif" font-size="10.00">ComponentManager.hpp</text>
</a>
</g>
</g>
<!-- Node12&#45;&gt;Node15 -->
<g id="edge21" class="edge">
<title>Node12&#45;&gt;Node15</title>
<path fill="none" stroke="midnightblue" d="M387.99,-235.44C415.7,-226.32 459.75,-211.81 490.62,-201.65"/>
<polygon fill="midnightblue" stroke="midnightblue" points="491.73,-204.97 500.14,-198.52 489.54,-198.32 491.73,-204.97"/>
</g>
<!-- Node16 -->
<g id="node16" class="node">
<title>Node16</title>
<g id="a_node16"><a xlink:href="IComponent_8hpp.html" target="_top" xlink:title=" ">
<polygon fill="white" stroke="black" points="428.5,-123.5 428.5,-142.5 525.5,-142.5 525.5,-123.5 428.5,-123.5"/>
<text text-anchor="middle" x="477" y="-130.5" font-family="Helvetica,sans-Serif" font-size="10.00">IComponent.hpp</text>
</a>
</g>
</g>
<!-- Node12&#45;&gt;Node16 -->
<g id="edge41" class="edge">
<title>Node12&#45;&gt;Node16</title>
<path fill="none" stroke="midnightblue" d="M371.02,-235.37C390.34,-216.89 435.92,-173.29 460.54,-149.74"/>
<polygon fill="midnightblue" stroke="midnightblue" points="463.21,-152.03 468.02,-142.59 458.37,-146.97 463.21,-152.03"/>
</g>
<!-- Node12&#45;&gt;Node22 -->
<g id="edge36" class="edge">
<title>Node12&#45;&gt;Node22</title>
<path fill="none" stroke="midnightblue" d="M329.68,-235.44C294.61,-226.16 238.5,-211.31 200.04,-201.13"/>
<polygon fill="midnightblue" stroke="midnightblue" points="200.74,-197.69 190.17,-198.52 198.94,-204.46 200.74,-197.69"/>
</g>
<!-- Node15&#45;&gt;Node4 -->
<g id="edge25" class="edge">
<title>Node15&#45;&gt;Node4</title>
<path fill="none" stroke="midnightblue" d="M457.73,-181.07C379.26,-172.91 246.64,-158.47 133,-143 127.35,-142.23 121.4,-141.36 115.56,-140.47"/>
<polygon fill="midnightblue" stroke="midnightblue" points="115.67,-136.95 105.26,-138.86 114.6,-143.86 115.67,-136.95"/>
</g>
<!-- Node15&#45;&gt;Node5 -->
<g id="edge23" class="edge">
<title>Node15&#45;&gt;Node5</title>
<path fill="none" stroke="midnightblue" d="M592.81,-179.47C651,-171.56 737.48,-158.68 812,-143 812.6,-142.87 813.2,-142.74 813.81,-142.61"/>
<polygon fill="midnightblue" stroke="midnightblue" points="814.85,-145.96 823.77,-140.24 813.23,-139.15 814.85,-145.96"/>
</g>
<!-- Node15&#45;&gt;Node6 -->
<g id="edge35" class="edge">
<title>Node15&#45;&gt;Node6</title>
<path fill="none" stroke="midnightblue" d="M549.45,-179.44C575.44,-169.96 617.36,-154.67 645.29,-144.47"/>
<polygon fill="midnightblue" stroke="midnightblue" points="646.7,-147.69 654.89,-140.97 644.3,-141.11 646.7,-147.69"/>
</g>
<!-- Node15&#45;&gt;Node8 -->
<g id="edge26" class="edge">
<title>Node15&#45;&gt;Node8</title>
<path fill="none" stroke="midnightblue" d="M492.25,-179.44C455.05,-170.01 395.16,-154.83 354.97,-144.64"/>
<polygon fill="midnightblue" stroke="midnightblue" points="355.75,-141.23 345.2,-142.16 354.03,-148.01 355.75,-141.23"/>
</g>
<!-- Node15&#45;&gt;Node9 -->
<g id="edge22" class="edge">
<title>Node15&#45;&gt;Node9</title>
<path fill="none" stroke="midnightblue" d="M536.28,-179.32C545.84,-171.26 560.28,-159.08 571.78,-149.37"/>
<polygon fill="midnightblue" stroke="midnightblue" points="574.14,-151.96 579.53,-142.83 569.63,-146.61 574.14,-151.96"/>
</g>
<!-- Node15&#45;&gt;Node11 -->
<g id="edge24" class="edge">
<title>Node15&#45;&gt;Node11</title>
<path fill="none" stroke="midnightblue" d="M503.98,-179.44C480.9,-170.48 444.44,-156.31 418.36,-146.18"/>
<polygon fill="midnightblue" stroke="midnightblue" points="419.51,-142.88 408.92,-142.52 416.98,-149.4 419.51,-142.88"/>
</g>
<!-- Node15&#45;&gt;Node14 -->
<g id="edge27" class="edge">
<title>Node15&#45;&gt;Node14</title>
<path fill="none" stroke="midnightblue" d="M562.6,-179.44C602.73,-170.06 667.2,-154.99 710.78,-144.8"/>
<polygon fill="midnightblue" stroke="midnightblue" points="711.63,-148.2 720.57,-142.52 710.03,-141.38 711.63,-148.2"/>
</g>
<!-- Node15&#45;&gt;Node16 -->
<g id="edge28" class="edge">
<title>Node15&#45;&gt;Node16</title>
<path fill="none" stroke="midnightblue" d="M517.91,-179.08C510.84,-171.3 500.41,-159.8 491.85,-150.37"/>
<polygon fill="midnightblue" stroke="midnightblue" points="494.25,-147.8 484.94,-142.75 489.07,-152.51 494.25,-147.8"/>
</g>
<!-- Node17 -->
<g id="node17" class="node">
<title>Node17</title>
<g id="a_node17"><a xlink:title=" ">
<polygon fill="white" stroke="#bfbfbf" points="404.5,-6 404.5,-25 461.5,-25 461.5,-6 404.5,-6"/>
<text text-anchor="middle" x="433" y="-13" font-family="Helvetica,sans-Serif" font-size="10.00">ostream</text>
</a>
</g>
</g>
<!-- Node16&#45;&gt;Node17 -->
<g id="edge29" class="edge">
<title>Node16&#45;&gt;Node17</title>
<path fill="none" stroke="midnightblue" d="M471.64,-123.3C466.35,-114.43 458.3,-100.14 453,-87 446.17,-70.05 440.71,-49.93 437.23,-35.54"/>
<polygon fill="midnightblue" stroke="midnightblue" points="440.54,-34.33 434.88,-25.38 433.73,-35.92 440.54,-34.33"/>
</g>
<!-- Node18 -->
<g id="node18" class="node">
<title>Node18</title>
<g id="a_node18"><a xlink:href="IXMLSerializable_8hpp.html" target="_top" xlink:title=" ">
<polygon fill="white" stroke="black" points="461.5,-67.5 461.5,-86.5 580.5,-86.5 580.5,-67.5 461.5,-67.5"/>
<text text-anchor="middle" x="521" y="-74.5" font-family="Helvetica,sans-Serif" font-size="10.00">IXMLSerializable.hpp</text>
</a>
</g>
</g>
<!-- Node16&#45;&gt;Node18 -->
<g id="edge30" class="edge">
<title>Node16&#45;&gt;Node18</title>
<path fill="none" stroke="midnightblue" d="M484.27,-123.08C490.54,-115.38 499.79,-104.03 507.43,-94.65"/>
<polygon fill="midnightblue" stroke="midnightblue" points="510.27,-96.71 513.87,-86.75 504.84,-92.29 510.27,-96.71"/>
</g>
<!-- Node18&#45;&gt;Node17 -->
<g id="edge31" class="edge">
<title>Node18&#45;&gt;Node17</title>
<path fill="none" stroke="midnightblue" d="M508.39,-67.48C494.28,-57.93 471.17,-42.31 454.25,-30.87"/>
<polygon fill="midnightblue" stroke="midnightblue" points="455.83,-27.71 445.58,-25.01 451.91,-33.51 455.83,-27.71"/>
</g>
<!-- Node19 -->
<g id="node19" class="node">
<title>Node19</title>
<g id="a_node19"><a xlink:title=" ">
<polygon fill="white" stroke="#bfbfbf" points="480,-6 480,-25 540,-25 540,-6 480,-6"/>
<text text-anchor="middle" x="510" y="-13" font-family="Helvetica,sans-Serif" font-size="10.00">iostream</text>
</a>
</g>
</g>
<!-- Node18&#45;&gt;Node19 -->
<g id="edge32" class="edge">
<title>Node18&#45;&gt;Node19</title>
<path fill="none" stroke="midnightblue" d="M519.42,-67.48C517.87,-59.08 515.45,-45.98 513.45,-35.16"/>
<polygon fill="midnightblue" stroke="midnightblue" points="516.83,-34.21 511.57,-25.01 509.95,-35.48 516.83,-34.21"/>
</g>
<!-- Node20 -->
<g id="node20" class="node">
<title>Node20</title>
<g id="a_node20"><a xlink:title=" ">
<polygon fill="white" stroke="#bfbfbf" points="558.5,-0.5 558.5,-30.5 671.5,-30.5 671.5,-0.5 558.5,-0.5"/>
<text text-anchor="start" x="566.5" y="-18.5" font-family="Helvetica,sans-Serif" font-size="10.00">boost/property_tree</text>
<text text-anchor="middle" x="615" y="-7.5" font-family="Helvetica,sans-Serif" font-size="10.00">/ptree.hpp</text>
</a>
</g>
</g>
<!-- Node18&#45;&gt;Node20 -->
<g id="edge33" class="edge">
<title>Node18&#45;&gt;Node20</title>
<path fill="none" stroke="midnightblue" d="M534.47,-67.48C547.44,-59.27 567.51,-46.56 584.38,-35.88"/>
<polygon fill="midnightblue" stroke="midnightblue" points="586.27,-38.83 592.85,-30.52 582.52,-32.91 586.27,-38.83"/>
</g>
<!-- Node21 -->
<g id="node21" class="node">
<title>Node21</title>
<g id="a_node21"><a xlink:title=" ">
<polygon fill="white" stroke="#bfbfbf" points="689.5,-0.5 689.5,-30.5 802.5,-30.5 802.5,-0.5 689.5,-0.5"/>
<text text-anchor="start" x="697.5" y="-18.5" font-family="Helvetica,sans-Serif" font-size="10.00">boost/property_tree</text>
<text text-anchor="middle" x="746" y="-7.5" font-family="Helvetica,sans-Serif" font-size="10.00">/xml_parser.hpp</text>
</a>
</g>
</g>
<!-- Node18&#45;&gt;Node21 -->
<g id="edge34" class="edge">
<title>Node18&#45;&gt;Node21</title>
<path fill="none" stroke="midnightblue" d="M553.24,-67.48C586.99,-58.55 640.84,-44.31 683.06,-33.14"/>
<polygon fill="midnightblue" stroke="midnightblue" points="684.2,-36.46 692.97,-30.52 682.41,-29.7 684.2,-36.46"/>
</g>
<!-- Node22&#45;&gt;Node4 -->
<g id="edge39" class="edge">
<title>Node22&#45;&gt;Node4</title>
<path fill="none" stroke="midnightblue" d="M144.83,-179.32C132.15,-170.98 112.77,-158.21 97.79,-148.35"/>
<polygon fill="midnightblue" stroke="midnightblue" points="99.42,-145.23 89.14,-142.65 95.57,-151.08 99.42,-145.23"/>
</g>
<!-- Node22&#45;&gt;Node11 -->
<g id="edge37" class="edge">
<title>Node22&#45;&gt;Node11</title>
<path fill="none" stroke="midnightblue" d="M197.16,-179.5C234.71,-171.24 293.24,-158.08 353.21,-143.12"/>
<polygon fill="midnightblue" stroke="midnightblue" points="354.39,-146.43 363.24,-140.6 352.69,-139.64 354.39,-146.43"/>
</g>
<!-- Node22&#45;&gt;Node13 -->
<g id="edge38" class="edge">
<title>Node22&#45;&gt;Node13</title>
<path fill="none" stroke="midnightblue" d="M169.41,-179.32C180.11,-171.18 196.34,-158.84 209.16,-149.09"/>
<polygon fill="midnightblue" stroke="midnightblue" points="211.54,-151.67 217.39,-142.83 207.31,-146.1 211.54,-151.67"/>
</g>
<!-- Node23 -->
<g id="node23" class="node">
<title>Node23</title>
<g id="a_node23"><a xlink:title=" ">
<polygon fill="white" stroke="#bfbfbf" points="142,-123.5 142,-142.5 174,-142.5 174,-123.5 142,-123.5"/>
<text text-anchor="middle" x="158" y="-130.5" font-family="Helvetica,sans-Serif" font-size="10.00">list</text>
</a>
</g>
</g>
<!-- Node22&#45;&gt;Node23 -->
<g id="edge40" class="edge">
<title>Node22&#45;&gt;Node23</title>
<path fill="none" stroke="midnightblue" d="M158,-179.08C158,-172.01 158,-161.86 158,-152.99"/>
<polygon fill="midnightblue" stroke="midnightblue" points="161.5,-152.75 158,-142.75 154.5,-152.75 161.5,-152.75"/>
</g>
</g>
</svg>
