<?xml version="1.0" encoding="UTF-8" standalone="no"?>
<!DOCTYPE svg PUBLIC "-//W3C//DTD SVG 1.1//EN"
 "http://www.w3.org/Graphics/SVG/1.1/DTD/svg11.dtd">
<!-- Generated by graphviz version 2.43.0 (0)
 -->
<!-- Title: Libs/Lua/sources/DelayedPop/DelayedPop.cpp Pages: 1 -->
<svg width="707pt" height="330pt"
 viewBox="0.00 0.00 707.00 330.00" xmlns="http://www.w3.org/2000/svg" xmlns:xlink="http://www.w3.org/1999/xlink">
<g id="graph0" class="graph" transform="scale(1 1) rotate(0) translate(4 326)">
<title>Libs/Lua/sources/DelayedPop/DelayedPop.cpp</title>
<polygon fill="white" stroke="transparent" points="-4,4 -4,-326 703,-326 703,4 -4,4"/>
<!-- Node1 -->
<g id="node1" class="node">
<title>Node1</title>
<g id="a_node1"><a xlink:title=" ">
<polygon fill="#bfbfbf" stroke="black" points="347,-291.5 347,-321.5 487,-321.5 487,-291.5 347,-291.5"/>
<text text-anchor="start" x="355" y="-309.5" font-family="Helvetica,sans-Serif" font-size="10.00">Libs/Lua/sources/Delayed</text>
<text text-anchor="middle" x="417" y="-298.5" font-family="Helvetica,sans-Serif" font-size="10.00">Pop/DelayedPop.cpp</text>
</a>
</g>
</g>
<!-- Node2 -->
<g id="node2" class="node">
<title>Node2</title>
<g id="a_node2"><a xlink:href="State_8hpp.html" target="_top" xlink:title=" ">
<polygon fill="white" stroke="black" points="355.5,-235.5 355.5,-254.5 418.5,-254.5 418.5,-235.5 355.5,-235.5"/>
<text text-anchor="middle" x="387" y="-242.5" font-family="Helvetica,sans-Serif" font-size="10.00">State.hpp</text>
</a>
</g>
</g>
<!-- Node1&#45;&gt;Node2 -->
<g id="edge1" class="edge">
<title>Node1&#45;&gt;Node2</title>
<path fill="none" stroke="midnightblue" d="M409.89,-291.4C405.71,-283.11 400.39,-272.55 395.93,-263.71"/>
<polygon fill="midnightblue" stroke="midnightblue" points="398.99,-262.01 391.37,-254.66 392.74,-265.16 398.99,-262.01"/>
</g>
<!-- Node7 -->
<g id="node7" class="node">
<title>Node7</title>
<g id="a_node7"><a xlink:href="DelayedPop_8hpp.html" target="_top" xlink:title=" ">
<polygon fill="white" stroke="black" points="603,-179.5 603,-198.5 699,-198.5 699,-179.5 603,-179.5"/>
<text text-anchor="middle" x="651" y="-186.5" font-family="Helvetica,sans-Serif" font-size="10.00">DelayedPop.hpp</text>
</a>
</g>
</g>
<!-- Node1&#45;&gt;Node7 -->
<g id="edge23" class="edge">
<title>Node1&#45;&gt;Node7</title>
<path fill="none" stroke="midnightblue" d="M445.69,-291.34C491.51,-268.72 580.53,-224.78 624.76,-202.95"/>
<polygon fill="midnightblue" stroke="midnightblue" points="626.32,-206.09 633.73,-198.52 623.22,-199.81 626.32,-206.09"/>
</g>
<!-- Node3 -->
<g id="node3" class="node">
<title>Node3</title>
<g id="a_node3"><a xlink:title=" ">
<polygon fill="white" stroke="#bfbfbf" points="405,-179.5 405,-198.5 463,-198.5 463,-179.5 405,-179.5"/>
<text text-anchor="middle" x="434" y="-186.5" font-family="Helvetica,sans-Serif" font-size="10.00">memory</text>
</a>
</g>
</g>
<!-- Node2&#45;&gt;Node3 -->
<g id="edge2" class="edge">
<title>Node2&#45;&gt;Node3</title>
<path fill="none" stroke="midnightblue" d="M394.76,-235.08C401.54,-227.3 411.54,-215.8 419.76,-206.37"/>
<polygon fill="midnightblue" stroke="midnightblue" points="422.46,-208.59 426.38,-198.75 417.18,-204 422.46,-208.59"/>
</g>
<!-- Node4 -->
<g id="node4" class="node">
<title>Node4</title>
<g id="a_node4"><a xlink:title=" ">
<polygon fill="white" stroke="#bfbfbf" points="481,-179.5 481,-198.5 519,-198.5 519,-179.5 481,-179.5"/>
<text text-anchor="middle" x="500" y="-186.5" font-family="Helvetica,sans-Serif" font-size="10.00">map</text>
</a>
</g>
</g>
<!-- Node2&#45;&gt;Node4 -->
<g id="edge3" class="edge">
<title>Node2&#45;&gt;Node4</title>
<path fill="none" stroke="midnightblue" d="M404.91,-235.44C423.25,-226.68 452.01,-212.94 473.09,-202.86"/>
<polygon fill="midnightblue" stroke="midnightblue" points="474.67,-205.99 482.18,-198.52 471.65,-199.67 474.67,-205.99"/>
</g>
<!-- Node5 -->
<g id="node5" class="node">
<title>Node5</title>
<g id="a_node5"><a xlink:title=" ">
<polygon fill="white" stroke="#bfbfbf" points="537.5,-179.5 537.5,-198.5 584.5,-198.5 584.5,-179.5 537.5,-179.5"/>
<text text-anchor="middle" x="561" y="-186.5" font-family="Helvetica,sans-Serif" font-size="10.00">vector</text>
</a>
</g>
</g>
<!-- Node2&#45;&gt;Node5 -->
<g id="edge4" class="edge">
<title>Node2&#45;&gt;Node5</title>
<path fill="none" stroke="midnightblue" d="M414.57,-235.44C445.31,-225.9 495.02,-210.48 527.86,-200.29"/>
<polygon fill="midnightblue" stroke="midnightblue" points="528.95,-203.61 537.46,-197.3 526.88,-196.93 528.95,-203.61"/>
</g>
<!-- Node6 -->
<g id="node6" class="node">
<title>Node6</title>
<g id="a_node6"><a xlink:title=" ">
<polygon fill="white" stroke="#bfbfbf" points="0,-179.5 0,-198.5 44,-198.5 44,-179.5 0,-179.5"/>
<text text-anchor="middle" x="22" y="-186.5" font-family="Helvetica,sans-Serif" font-size="10.00">string</text>
</a>
</g>
</g>
<!-- Node2&#45;&gt;Node6 -->
<g id="edge5" class="edge">
<title>Node2&#45;&gt;Node6</title>
<path fill="none" stroke="midnightblue" d="M355.42,-241.32C297.52,-236.08 170.38,-222.99 54.36,-199.01"/>
<polygon fill="midnightblue" stroke="midnightblue" points="54.76,-195.52 44.25,-196.89 53.32,-202.37 54.76,-195.52"/>
</g>
<!-- Node2&#45;&gt;Node7 -->
<g id="edge6" class="edge">
<title>Node2&#45;&gt;Node7</title>
<path fill="none" stroke="midnightblue" d="M418.58,-237.54C463.33,-228.39 545.69,-211.54 599.39,-200.56"/>
<polygon fill="midnightblue" stroke="midnightblue" points="600.3,-203.94 609.4,-198.51 598.9,-197.08 600.3,-203.94"/>
</g>
<!-- Node8 -->
<g id="node8" class="node">
<title>Node8</title>
<g id="a_node8"><a xlink:href="Nil_8hpp.html" target="_top" xlink:title=" ">
<polygon fill="white" stroke="black" points="62.5,-179.5 62.5,-198.5 113.5,-198.5 113.5,-179.5 62.5,-179.5"/>
<text text-anchor="middle" x="88" y="-186.5" font-family="Helvetica,sans-Serif" font-size="10.00">Nil.hpp</text>
</a>
</g>
</g>
<!-- Node2&#45;&gt;Node8 -->
<g id="edge7" class="edge">
<title>Node2&#45;&gt;Node8</title>
<path fill="none" stroke="midnightblue" d="M355.41,-239.58C307.36,-232.66 212.84,-218.23 123.57,-199.19"/>
<polygon fill="midnightblue" stroke="midnightblue" points="124.07,-195.72 113.56,-197.03 122.6,-202.56 124.07,-195.72"/>
</g>
<!-- Node9 -->
<g id="node9" class="node">
<title>Node9</title>
<g id="a_node9"><a xlink:title=" ">
<polygon fill="white" stroke="#bfbfbf" points="131.5,-179.5 131.5,-198.5 184.5,-198.5 184.5,-179.5 131.5,-179.5"/>
<text text-anchor="middle" x="158" y="-186.5" font-family="Helvetica,sans-Serif" font-size="10.00">lua.hpp</text>
</a>
</g>
</g>
<!-- Node2&#45;&gt;Node9 -->
<g id="edge8" class="edge">
<title>Node2&#45;&gt;Node9</title>
<path fill="none" stroke="midnightblue" d="M355.2,-236.75C318.86,-228.43 257.34,-214.23 194.77,-199.16"/>
<polygon fill="midnightblue" stroke="midnightblue" points="195.27,-195.68 184.72,-196.73 193.62,-202.48 195.27,-195.68"/>
</g>
<!-- Node10 -->
<g id="node10" class="node">
<title>Node10</title>
<g id="a_node10"><a xlink:href="Vector2_8hpp.html" target="_top" xlink:title=" ">
<polygon fill="white" stroke="black" points="203,-179.5 203,-198.5 277,-198.5 277,-179.5 203,-179.5"/>
<text text-anchor="middle" x="240" y="-186.5" font-family="Helvetica,sans-Serif" font-size="10.00">Vector2.hpp</text>
</a>
</g>
</g>
<!-- Node2&#45;&gt;Node10 -->
<g id="edge9" class="edge">
<title>Node2&#45;&gt;Node10</title>
<path fill="none" stroke="midnightblue" d="M363.71,-235.44C339.19,-226.44 300.4,-212.19 272.8,-202.05"/>
<polygon fill="midnightblue" stroke="midnightblue" points="273.78,-198.68 263.18,-198.52 271.36,-205.25 273.78,-198.68"/>
</g>
<!-- Node20 -->
<g id="node20" class="node">
<title>Node20</title>
<g id="a_node20"><a xlink:title=" ">
<polygon fill="white" stroke="#bfbfbf" points="295.5,-179.5 295.5,-198.5 386.5,-198.5 386.5,-179.5 295.5,-179.5"/>
<text text-anchor="middle" x="341" y="-186.5" font-family="Helvetica,sans-Serif" font-size="10.00">Exceptions.hpp</text>
</a>
</g>
</g>
<!-- Node2&#45;&gt;Node20 -->
<g id="edge22" class="edge">
<title>Node2&#45;&gt;Node20</title>
<path fill="none" stroke="midnightblue" d="M379.4,-235.08C372.77,-227.3 362.98,-215.8 354.94,-206.37"/>
<polygon fill="midnightblue" stroke="midnightblue" points="357.6,-204.09 348.45,-198.75 352.27,-208.63 357.6,-204.09"/>
</g>
<!-- Node11 -->
<g id="node11" class="node">
<title>Node11</title>
<g id="a_node11"><a xlink:title=" ">
<polygon fill="white" stroke="#bfbfbf" points="113.5,-67.5 113.5,-86.5 166.5,-86.5 166.5,-67.5 113.5,-67.5"/>
<text text-anchor="middle" x="140" y="-74.5" font-family="Helvetica,sans-Serif" font-size="10.00">raylib.h</text>
</a>
</g>
</g>
<!-- Node10&#45;&gt;Node11 -->
<g id="edge10" class="edge">
<title>Node10&#45;&gt;Node11</title>
<path fill="none" stroke="midnightblue" d="M232.15,-179.37C215.43,-160.97 176.06,-117.67 154.59,-94.05"/>
<polygon fill="midnightblue" stroke="midnightblue" points="157.13,-91.64 147.81,-86.59 151.95,-96.35 157.13,-91.64"/>
</g>
<!-- Node12 -->
<g id="node12" class="node">
<title>Node12</title>
<g id="a_node12"><a xlink:title=" ">
<polygon fill="white" stroke="#bfbfbf" points="184.5,-67.5 184.5,-86.5 231.5,-86.5 231.5,-67.5 184.5,-67.5"/>
<text text-anchor="middle" x="208" y="-74.5" font-family="Helvetica,sans-Serif" font-size="10.00">cmath</text>
</a>
</g>
</g>
<!-- Node10&#45;&gt;Node12 -->
<g id="edge11" class="edge">
<title>Node10&#45;&gt;Node12</title>
<path fill="none" stroke="midnightblue" d="M237.49,-179.37C232.3,-161.54 220.3,-120.3 213.32,-96.27"/>
<polygon fill="midnightblue" stroke="midnightblue" points="216.65,-95.22 210.5,-86.59 209.93,-97.17 216.65,-95.22"/>
</g>
<!-- Node13 -->
<g id="node13" class="node">
<title>Node13</title>
<g id="a_node13"><a xlink:href="Vector3_8hpp.html" target="_top" xlink:title=" ">
<polygon fill="white" stroke="black" points="236,-123.5 236,-142.5 310,-142.5 310,-123.5 236,-123.5"/>
<text text-anchor="middle" x="273" y="-130.5" font-family="Helvetica,sans-Serif" font-size="10.00">Vector3.hpp</text>
</a>
</g>
</g>
<!-- Node10&#45;&gt;Node13 -->
<g id="edge12" class="edge">
<title>Node10&#45;&gt;Node13</title>
<path fill="none" stroke="midnightblue" d="M245.45,-179.08C250.01,-171.61 256.67,-160.72 262.29,-151.52"/>
<polygon fill="midnightblue" stroke="midnightblue" points="265.42,-153.11 267.65,-142.75 259.45,-149.46 265.42,-153.11"/>
</g>
<!-- Node14 -->
<g id="node14" class="node">
<title>Node14</title>
<g id="a_node14"><a xlink:href="IXMLSerializable_8hpp.html" target="_top" xlink:title=" ">
<polygon fill="white" stroke="black" points="324.5,-67.5 324.5,-86.5 443.5,-86.5 443.5,-67.5 324.5,-67.5"/>
<text text-anchor="middle" x="384" y="-74.5" font-family="Helvetica,sans-Serif" font-size="10.00">IXMLSerializable.hpp</text>
</a>
</g>
</g>
<!-- Node10&#45;&gt;Node14 -->
<g id="edge21" class="edge">
<title>Node10&#45;&gt;Node14</title>
<path fill="none" stroke="midnightblue" d="M258.1,-179.44C274.69,-171.2 299.55,-157.84 319,-143 338.13,-128.41 357.26,-108.47 369.77,-94.54"/>
<polygon fill="midnightblue" stroke="midnightblue" points="372.65,-96.56 376.64,-86.74 367.4,-91.93 372.65,-96.56"/>
</g>
<!-- Node13&#45;&gt;Node11 -->
<g id="edge13" class="edge">
<title>Node13&#45;&gt;Node11</title>
<path fill="none" stroke="midnightblue" d="M251.93,-123.44C229.94,-114.52 195.27,-100.44 170.34,-90.32"/>
<polygon fill="midnightblue" stroke="midnightblue" points="171.56,-87.04 160.98,-86.52 168.92,-93.52 171.56,-87.04"/>
</g>
<!-- Node13&#45;&gt;Node12 -->
<g id="edge19" class="edge">
<title>Node13&#45;&gt;Node12</title>
<path fill="none" stroke="midnightblue" d="M262.56,-123.32C252.85,-115.26 238.18,-103.08 226.5,-93.37"/>
<polygon fill="midnightblue" stroke="midnightblue" points="228.56,-90.53 218.63,-86.83 224.09,-95.92 228.56,-90.53"/>
</g>
<!-- Node13&#45;&gt;Node14 -->
<g id="edge14" class="edge">
<title>Node13&#45;&gt;Node14</title>
<path fill="none" stroke="midnightblue" d="M290.83,-123.32C308.72,-114.62 336.48,-101.12 357.05,-91.11"/>
<polygon fill="midnightblue" stroke="midnightblue" points="358.75,-94.18 366.21,-86.65 355.69,-87.88 358.75,-94.18"/>
</g>
<!-- Node19 -->
<g id="node19" class="node">
<title>Node19</title>
<g id="a_node19"><a xlink:title=" ">
<polygon fill="white" stroke="#bfbfbf" points="250,-67.5 250,-86.5 306,-86.5 306,-67.5 250,-67.5"/>
<text text-anchor="middle" x="278" y="-74.5" font-family="Helvetica,sans-Serif" font-size="10.00">sstream</text>
</a>
</g>
</g>
<!-- Node13&#45;&gt;Node19 -->
<g id="edge20" class="edge">
<title>Node13&#45;&gt;Node19</title>
<path fill="none" stroke="midnightblue" d="M273.83,-123.08C274.48,-116.01 275.42,-105.86 276.24,-96.99"/>
<polygon fill="midnightblue" stroke="midnightblue" points="279.75,-97.03 277.19,-86.75 272.78,-96.39 279.75,-97.03"/>
</g>
<!-- Node15 -->
<g id="node15" class="node">
<title>Node15</title>
<g id="a_node15"><a xlink:title=" ">
<polygon fill="white" stroke="#bfbfbf" points="226.5,-6 226.5,-25 283.5,-25 283.5,-6 226.5,-6"/>
<text text-anchor="middle" x="255" y="-13" font-family="Helvetica,sans-Serif" font-size="10.00">ostream</text>
</a>
</g>
</g>
<!-- Node14&#45;&gt;Node15 -->
<g id="edge15" class="edge">
<title>Node14&#45;&gt;Node15</title>
<path fill="none" stroke="midnightblue" d="M365.52,-67.48C343.87,-57.49 307.79,-40.85 282.77,-29.31"/>
<polygon fill="midnightblue" stroke="midnightblue" points="283.99,-26.02 273.45,-25.01 281.06,-32.38 283.99,-26.02"/>
</g>
<!-- Node16 -->
<g id="node16" class="node">
<title>Node16</title>
<g id="a_node16"><a xlink:title=" ">
<polygon fill="white" stroke="#bfbfbf" points="302,-6 302,-25 362,-25 362,-6 302,-6"/>
<text text-anchor="middle" x="332" y="-13" font-family="Helvetica,sans-Serif" font-size="10.00">iostream</text>
</a>
</g>
</g>
<!-- Node14&#45;&gt;Node16 -->
<g id="edge16" class="edge">
<title>Node14&#45;&gt;Node16</title>
<path fill="none" stroke="midnightblue" d="M376.55,-67.48C368.67,-58.46 356.06,-44.02 346.26,-32.81"/>
<polygon fill="midnightblue" stroke="midnightblue" points="348.65,-30.24 339.44,-25.01 343.38,-34.84 348.65,-30.24"/>
</g>
<!-- Node17 -->
<g id="node17" class="node">
<title>Node17</title>
<g id="a_node17"><a xlink:title=" ">
<polygon fill="white" stroke="#bfbfbf" points="380.5,-0.5 380.5,-30.5 493.5,-30.5 493.5,-0.5 380.5,-0.5"/>
<text text-anchor="start" x="388.5" y="-18.5" font-family="Helvetica,sans-Serif" font-size="10.00">boost/property_tree</text>
<text text-anchor="middle" x="437" y="-7.5" font-family="Helvetica,sans-Serif" font-size="10.00">/ptree.hpp</text>
</a>
</g>
</g>
<!-- Node14&#45;&gt;Node17 -->
<g id="edge17" class="edge">
<title>Node14&#45;&gt;Node17</title>
<path fill="none" stroke="midnightblue" d="M391.59,-67.48C398.37,-59.87 408.59,-48.4 417.61,-38.26"/>
<polygon fill="midnightblue" stroke="midnightblue" points="420.47,-40.32 424.51,-30.52 415.24,-35.66 420.47,-40.32"/>
</g>
<!-- Node18 -->
<g id="node18" class="node">
<title>Node18</title>
<g id="a_node18"><a xlink:title=" ">
<polygon fill="white" stroke="#bfbfbf" points="511.5,-0.5 511.5,-30.5 624.5,-30.5 624.5,-0.5 511.5,-0.5"/>
<text text-anchor="start" x="519.5" y="-18.5" font-family="Helvetica,sans-Serif" font-size="10.00">boost/property_tree</text>
<text text-anchor="middle" x="568" y="-7.5" font-family="Helvetica,sans-Serif" font-size="10.00">/xml_parser.hpp</text>
</a>
</g>
</g>
<!-- Node14&#45;&gt;Node18 -->
<g id="edge18" class="edge">
<title>Node14&#45;&gt;Node18</title>
<path fill="none" stroke="midnightblue" d="M410.36,-67.48C437.5,-58.7 480.52,-44.79 514.77,-33.71"/>
<polygon fill="midnightblue" stroke="midnightblue" points="516.2,-36.93 524.63,-30.52 514.04,-30.27 516.2,-36.93"/>
</g>
</g>
</svg>
