<?xml version="1.0" encoding="UTF-8" standalone="no"?>
<!DOCTYPE svg PUBLIC "-//W3C//DTD SVG 1.1//EN"
 "http://www.w3.org/Graphics/SVG/1.1/DTD/svg11.dtd">
<!-- Generated by graphviz version 2.43.0 (0)
 -->
<!-- Title: Libs/Engine/sources/Components/Destructible/Destructible.hpp Pages: 1 -->
<svg width="1109pt" height="341pt"
 viewBox="0.00 0.00 1108.50 341.00" xmlns="http://www.w3.org/2000/svg" xmlns:xlink="http://www.w3.org/1999/xlink">
<g id="graph0" class="graph" transform="scale(1 1) rotate(0) translate(4 337)">
<title>Libs/Engine/sources/Components/Destructible/Destructible.hpp</title>
<polygon fill="white" stroke="transparent" points="-4,4 -4,-337 1104.5,-337 1104.5,4 -4,4"/>
<!-- Node1 -->
<g id="node1" class="node">
<title>Node1</title>
<g id="a_node1"><a xlink:title=" ">
<polygon fill="#bfbfbf" stroke="black" points="539,-291.5 539,-332.5 682,-332.5 682,-291.5 539,-291.5"/>
<text text-anchor="start" x="547" y="-320.5" font-family="Helvetica,sans-Serif" font-size="10.00">Libs/Engine/sources</text>
<text text-anchor="start" x="547" y="-309.5" font-family="Helvetica,sans-Serif" font-size="10.00">/Components/Destructible</text>
<text text-anchor="middle" x="610.5" y="-298.5" font-family="Helvetica,sans-Serif" font-size="10.00">/Destructible.hpp</text>
</a>
</g>
</g>
<!-- Node2 -->
<g id="node2" class="node">
<title>Node2</title>
<g id="a_node2"><a xlink:title=" ">
<polygon fill="white" stroke="#bfbfbf" points="1038.5,-123.5 1038.5,-142.5 1100.5,-142.5 1100.5,-123.5 1038.5,-123.5"/>
<text text-anchor="middle" x="1069.5" y="-130.5" font-family="Helvetica,sans-Serif" font-size="10.00">cinttypes</text>
</a>
</g>
</g>
<!-- Node1&#45;&gt;Node2 -->
<g id="edge1" class="edge">
<title>Node1&#45;&gt;Node2</title>
<path fill="none" stroke="midnightblue" d="M682.22,-309.32C773.58,-303.65 932,-281.55 1035.5,-199 1050.4,-187.11 1059.5,-166.91 1064.49,-152.17"/>
<polygon fill="midnightblue" stroke="midnightblue" points="1067.84,-153.2 1067.42,-142.61 1061.14,-151.15 1067.84,-153.2"/>
</g>
<!-- Node3 -->
<g id="node3" class="node">
<title>Node3</title>
<g id="a_node3"><a xlink:href="IComponent_8hpp.html" target="_top" xlink:title=" ">
<polygon fill="white" stroke="black" points="310,-123.5 310,-142.5 407,-142.5 407,-123.5 310,-123.5"/>
<text text-anchor="middle" x="358.5" y="-130.5" font-family="Helvetica,sans-Serif" font-size="10.00">IComponent.hpp</text>
</a>
</g>
</g>
<!-- Node1&#45;&gt;Node3 -->
<g id="edge2" class="edge">
<title>Node1&#45;&gt;Node3</title>
<path fill="none" stroke="midnightblue" d="M582.57,-291.38C531.5,-255.51 424.17,-180.12 379.11,-148.48"/>
<polygon fill="midnightblue" stroke="midnightblue" points="380.92,-145.47 370.72,-142.58 376.89,-151.2 380.92,-145.47"/>
</g>
<!-- Node9 -->
<g id="node9" class="node">
<title>Node9</title>
<g id="a_node9"><a xlink:href="Vector3_8hpp.html" target="_top" xlink:title=" ">
<polygon fill="white" stroke="black" points="192.5,-235.5 192.5,-254.5 266.5,-254.5 266.5,-235.5 192.5,-235.5"/>
<text text-anchor="middle" x="229.5" y="-242.5" font-family="Helvetica,sans-Serif" font-size="10.00">Vector3.hpp</text>
</a>
</g>
</g>
<!-- Node1&#45;&gt;Node9 -->
<g id="edge9" class="edge">
<title>Node1&#45;&gt;Node9</title>
<path fill="none" stroke="midnightblue" d="M538.84,-298.77C462.11,-285.68 342.55,-265.29 276.8,-254.07"/>
<polygon fill="midnightblue" stroke="midnightblue" points="277.17,-250.58 266.73,-252.35 276,-257.48 277.17,-250.58"/>
</g>
<!-- Node13 -->
<g id="node13" class="node">
<title>Node13</title>
<g id="a_node13"><a xlink:href="Entity_8hpp.html" target="_top" xlink:title=" ">
<polygon fill="white" stroke="black" points="731,-235.5 731,-254.5 796,-254.5 796,-235.5 731,-235.5"/>
<text text-anchor="middle" x="763.5" y="-242.5" font-family="Helvetica,sans-Serif" font-size="10.00">Entity.hpp</text>
</a>
</g>
</g>
<!-- Node1&#45;&gt;Node13 -->
<g id="edge14" class="edge">
<title>Node1&#45;&gt;Node13</title>
<path fill="none" stroke="midnightblue" d="M656.41,-291.5C681.44,-280.86 711.71,-268 733.68,-258.67"/>
<polygon fill="midnightblue" stroke="midnightblue" points="735.3,-261.78 743.13,-254.65 732.56,-255.34 735.3,-261.78"/>
</g>
<!-- Node4 -->
<g id="node4" class="node">
<title>Node4</title>
<g id="a_node4"><a xlink:title=" ">
<polygon fill="white" stroke="#bfbfbf" points="341,-6 341,-25 398,-25 398,-6 341,-6"/>
<text text-anchor="middle" x="369.5" y="-13" font-family="Helvetica,sans-Serif" font-size="10.00">ostream</text>
</a>
</g>
</g>
<!-- Node3&#45;&gt;Node4 -->
<g id="edge3" class="edge">
<title>Node3&#45;&gt;Node4</title>
<path fill="none" stroke="midnightblue" d="M359.33,-123.32C361.09,-104.76 365.28,-60.84 367.69,-35.47"/>
<polygon fill="midnightblue" stroke="midnightblue" points="371.2,-35.57 368.66,-25.28 364.23,-34.91 371.2,-35.57"/>
</g>
<!-- Node5 -->
<g id="node5" class="node">
<title>Node5</title>
<g id="a_node5"><a xlink:href="IXMLSerializable_8hpp.html" target="_top" xlink:title=" ">
<polygon fill="white" stroke="black" points="222,-67.5 222,-86.5 341,-86.5 341,-67.5 222,-67.5"/>
<text text-anchor="middle" x="281.5" y="-74.5" font-family="Helvetica,sans-Serif" font-size="10.00">IXMLSerializable.hpp</text>
</a>
</g>
</g>
<!-- Node3&#45;&gt;Node5 -->
<g id="edge4" class="edge">
<title>Node3&#45;&gt;Node5</title>
<path fill="none" stroke="midnightblue" d="M346.13,-123.32C334.34,-115.06 316.37,-102.45 302.36,-92.63"/>
<polygon fill="midnightblue" stroke="midnightblue" points="304.04,-89.53 293.84,-86.65 300.02,-95.26 304.04,-89.53"/>
</g>
<!-- Node5&#45;&gt;Node4 -->
<g id="edge5" class="edge">
<title>Node5&#45;&gt;Node4</title>
<path fill="none" stroke="midnightblue" d="M294.11,-67.48C308.22,-57.93 331.33,-42.31 348.25,-30.87"/>
<polygon fill="midnightblue" stroke="midnightblue" points="350.59,-33.51 356.92,-25.01 346.67,-27.71 350.59,-33.51"/>
</g>
<!-- Node6 -->
<g id="node6" class="node">
<title>Node6</title>
<g id="a_node6"><a xlink:title=" ">
<polygon fill="white" stroke="#bfbfbf" points="262.5,-6 262.5,-25 322.5,-25 322.5,-6 262.5,-6"/>
<text text-anchor="middle" x="292.5" y="-13" font-family="Helvetica,sans-Serif" font-size="10.00">iostream</text>
</a>
</g>
</g>
<!-- Node5&#45;&gt;Node6 -->
<g id="edge6" class="edge">
<title>Node5&#45;&gt;Node6</title>
<path fill="none" stroke="midnightblue" d="M283.08,-67.48C284.63,-59.08 287.05,-45.98 289.05,-35.16"/>
<polygon fill="midnightblue" stroke="midnightblue" points="292.55,-35.48 290.93,-25.01 285.67,-34.21 292.55,-35.48"/>
</g>
<!-- Node7 -->
<g id="node7" class="node">
<title>Node7</title>
<g id="a_node7"><a xlink:title=" ">
<polygon fill="white" stroke="#bfbfbf" points="0,-0.5 0,-30.5 113,-30.5 113,-0.5 0,-0.5"/>
<text text-anchor="start" x="8" y="-18.5" font-family="Helvetica,sans-Serif" font-size="10.00">boost/property_tree</text>
<text text-anchor="middle" x="56.5" y="-7.5" font-family="Helvetica,sans-Serif" font-size="10.00">/ptree.hpp</text>
</a>
</g>
</g>
<!-- Node5&#45;&gt;Node7 -->
<g id="edge7" class="edge">
<title>Node5&#45;&gt;Node7</title>
<path fill="none" stroke="midnightblue" d="M249.26,-67.48C215.51,-58.55 161.66,-44.31 119.44,-33.14"/>
<polygon fill="midnightblue" stroke="midnightblue" points="120.09,-29.7 109.53,-30.52 118.3,-36.46 120.09,-29.7"/>
</g>
<!-- Node8 -->
<g id="node8" class="node">
<title>Node8</title>
<g id="a_node8"><a xlink:title=" ">
<polygon fill="white" stroke="#bfbfbf" points="131,-0.5 131,-30.5 244,-30.5 244,-0.5 131,-0.5"/>
<text text-anchor="start" x="139" y="-18.5" font-family="Helvetica,sans-Serif" font-size="10.00">boost/property_tree</text>
<text text-anchor="middle" x="187.5" y="-7.5" font-family="Helvetica,sans-Serif" font-size="10.00">/xml_parser.hpp</text>
</a>
</g>
</g>
<!-- Node5&#45;&gt;Node8 -->
<g id="edge8" class="edge">
<title>Node5&#45;&gt;Node8</title>
<path fill="none" stroke="midnightblue" d="M268.03,-67.48C255.06,-59.27 234.99,-46.56 218.12,-35.88"/>
<polygon fill="midnightblue" stroke="midnightblue" points="219.98,-32.91 209.65,-30.52 216.23,-38.83 219.98,-32.91"/>
</g>
<!-- Node9&#45;&gt;Node5 -->
<g id="edge11" class="edge">
<title>Node9&#45;&gt;Node5</title>
<path fill="none" stroke="midnightblue" d="M237.44,-235.42C244.89,-226.86 255.73,-213 261.5,-199 275.65,-164.67 279.8,-120.97 281.01,-96.59"/>
<polygon fill="midnightblue" stroke="midnightblue" points="284.51,-96.7 281.39,-86.57 277.52,-96.43 284.51,-96.7"/>
</g>
<!-- Node10 -->
<g id="node10" class="node">
<title>Node10</title>
<g id="a_node10"><a xlink:title=" ">
<polygon fill="white" stroke="#bfbfbf" points="135,-179.5 135,-198.5 188,-198.5 188,-179.5 135,-179.5"/>
<text text-anchor="middle" x="161.5" y="-186.5" font-family="Helvetica,sans-Serif" font-size="10.00">raylib.h</text>
</a>
</g>
</g>
<!-- Node9&#45;&gt;Node10 -->
<g id="edge10" class="edge">
<title>Node9&#45;&gt;Node10</title>
<path fill="none" stroke="midnightblue" d="M218.57,-235.32C208.33,-227.18 192.78,-214.84 180.5,-205.09"/>
<polygon fill="midnightblue" stroke="midnightblue" points="182.63,-202.31 172.62,-198.83 178.28,-207.79 182.63,-202.31"/>
</g>
<!-- Node11 -->
<g id="node11" class="node">
<title>Node11</title>
<g id="a_node11"><a xlink:title=" ">
<polygon fill="white" stroke="#bfbfbf" points="206,-179.5 206,-198.5 253,-198.5 253,-179.5 206,-179.5"/>
<text text-anchor="middle" x="229.5" y="-186.5" font-family="Helvetica,sans-Serif" font-size="10.00">cmath</text>
</a>
</g>
</g>
<!-- Node9&#45;&gt;Node11 -->
<g id="edge12" class="edge">
<title>Node9&#45;&gt;Node11</title>
<path fill="none" stroke="midnightblue" d="M229.5,-235.08C229.5,-228.01 229.5,-217.86 229.5,-208.99"/>
<polygon fill="midnightblue" stroke="midnightblue" points="233,-208.75 229.5,-198.75 226,-208.75 233,-208.75"/>
</g>
<!-- Node12 -->
<g id="node12" class="node">
<title>Node12</title>
<g id="a_node12"><a xlink:title=" ">
<polygon fill="white" stroke="#bfbfbf" points="60.5,-179.5 60.5,-198.5 116.5,-198.5 116.5,-179.5 60.5,-179.5"/>
<text text-anchor="middle" x="88.5" y="-186.5" font-family="Helvetica,sans-Serif" font-size="10.00">sstream</text>
</a>
</g>
</g>
<!-- Node9&#45;&gt;Node12 -->
<g id="edge13" class="edge">
<title>Node9&#45;&gt;Node12</title>
<path fill="none" stroke="midnightblue" d="M207.16,-235.44C183.75,-226.48 146.76,-212.31 120.31,-202.18"/>
<polygon fill="midnightblue" stroke="midnightblue" points="121.33,-198.82 110.74,-198.52 118.82,-205.36 121.33,-198.82"/>
</g>
<!-- Node13&#45;&gt;Node2 -->
<g id="edge15" class="edge">
<title>Node13&#45;&gt;Node2</title>
<path fill="none" stroke="midnightblue" d="M796.34,-244.44C845.66,-243.74 940.46,-237 1009.5,-199 1030.22,-187.59 1047.73,-166.38 1058.39,-151.29"/>
<polygon fill="midnightblue" stroke="midnightblue" points="1061.41,-153.08 1064.11,-142.83 1055.61,-149.16 1061.41,-153.08"/>
</g>
<!-- Node13&#45;&gt;Node3 -->
<g id="edge35" class="edge">
<title>Node13&#45;&gt;Node3</title>
<path fill="none" stroke="midnightblue" d="M730.67,-239.47C685.19,-232.78 600.66,-218.88 530.5,-199 478.78,-184.35 420.69,-160.85 386.98,-146.48"/>
<polygon fill="midnightblue" stroke="midnightblue" points="388.31,-143.24 377.74,-142.51 385.55,-149.68 388.31,-143.24"/>
</g>
<!-- Node14 -->
<g id="node14" class="node">
<title>Node14</title>
<g id="a_node14"><a xlink:title=" ">
<polygon fill="white" stroke="#bfbfbf" points="425,-123.5 425,-142.5 518,-142.5 518,-123.5 425,-123.5"/>
<text text-anchor="middle" x="471.5" y="-130.5" font-family="Helvetica,sans-Serif" font-size="10.00">unordered_map</text>
</a>
</g>
</g>
<!-- Node13&#45;&gt;Node14 -->
<g id="edge16" class="edge">
<title>Node13&#45;&gt;Node14</title>
<path fill="none" stroke="midnightblue" d="M730.83,-239.86C691.74,-234.12 624.88,-221.77 571.5,-199 540.78,-185.89 509.07,-163.5 489.82,-148.72"/>
<polygon fill="midnightblue" stroke="midnightblue" points="491.93,-145.93 481.9,-142.53 487.62,-151.45 491.93,-145.93"/>
</g>
<!-- Node15 -->
<g id="node15" class="node">
<title>Node15</title>
<g id="a_node15"><a xlink:title=" ">
<polygon fill="white" stroke="#bfbfbf" points="846.5,-123.5 846.5,-142.5 904.5,-142.5 904.5,-123.5 846.5,-123.5"/>
<text text-anchor="middle" x="875.5" y="-130.5" font-family="Helvetica,sans-Serif" font-size="10.00">memory</text>
</a>
</g>
</g>
<!-- Node13&#45;&gt;Node15 -->
<g id="edge17" class="edge">
<title>Node13&#45;&gt;Node15</title>
<path fill="none" stroke="midnightblue" d="M772.29,-235.37C791.1,-216.89 835.49,-173.29 859.47,-149.74"/>
<polygon fill="midnightblue" stroke="midnightblue" points="862.07,-152.1 866.75,-142.59 857.17,-147.1 862.07,-152.1"/>
</g>
<!-- Node16 -->
<g id="node16" class="node">
<title>Node16</title>
<g id="a_node16"><a xlink:title=" ">
<polygon fill="white" stroke="#bfbfbf" points="654.5,-123.5 654.5,-142.5 718.5,-142.5 718.5,-123.5 654.5,-123.5"/>
<text text-anchor="middle" x="686.5" y="-130.5" font-family="Helvetica,sans-Serif" font-size="10.00">algorithm</text>
</a>
</g>
</g>
<!-- Node13&#45;&gt;Node16 -->
<g id="edge18" class="edge">
<title>Node13&#45;&gt;Node16</title>
<path fill="none" stroke="midnightblue" d="M759.06,-235.27C752.42,-222.49 739.2,-198.13 725.5,-179 718.28,-168.91 709.26,-158.4 701.71,-150.07"/>
<polygon fill="midnightblue" stroke="midnightblue" points="704.13,-147.53 694.78,-142.57 698.99,-152.28 704.13,-147.53"/>
</g>
<!-- Node17 -->
<g id="node17" class="node">
<title>Node17</title>
<g id="a_node17"><a xlink:title=" ">
<polygon fill="white" stroke="#bfbfbf" points="923,-123.5 923,-142.5 970,-142.5 970,-123.5 923,-123.5"/>
<text text-anchor="middle" x="946.5" y="-130.5" font-family="Helvetica,sans-Serif" font-size="10.00">vector</text>
</a>
</g>
</g>
<!-- Node13&#45;&gt;Node17 -->
<g id="edge19" class="edge">
<title>Node13&#45;&gt;Node17</title>
<path fill="none" stroke="midnightblue" d="M777.86,-235.37C809.4,-216.41 884.94,-171 923.3,-147.94"/>
<polygon fill="midnightblue" stroke="midnightblue" points="925.44,-150.74 932.21,-142.59 921.83,-144.74 925.44,-150.74"/>
</g>
<!-- Node18 -->
<g id="node18" class="node">
<title>Node18</title>
<g id="a_node18"><a xlink:title=" ">
<polygon fill="white" stroke="#bfbfbf" points="737,-123.5 737,-142.5 828,-142.5 828,-123.5 737,-123.5"/>
<text text-anchor="middle" x="782.5" y="-130.5" font-family="Helvetica,sans-Serif" font-size="10.00">Exceptions.hpp</text>
</a>
</g>
</g>
<!-- Node13&#45;&gt;Node18 -->
<g id="edge20" class="edge">
<title>Node13&#45;&gt;Node18</title>
<path fill="none" stroke="midnightblue" d="M764.99,-235.37C768.06,-217.62 775.13,-176.67 779.29,-152.6"/>
<polygon fill="midnightblue" stroke="midnightblue" points="782.76,-153.04 781.02,-142.59 775.86,-151.85 782.76,-153.04"/>
</g>
<!-- Node19 -->
<g id="node19" class="node">
<title>Node19</title>
<g id="a_node19"><a xlink:href="ComponentManager_8hpp.html" target="_top" xlink:title=" ">
<polygon fill="white" stroke="black" points="580.5,-179.5 580.5,-198.5 716.5,-198.5 716.5,-179.5 580.5,-179.5"/>
<text text-anchor="middle" x="648.5" y="-186.5" font-family="Helvetica,sans-Serif" font-size="10.00">ComponentManager.hpp</text>
</a>
</g>
</g>
<!-- Node13&#45;&gt;Node19 -->
<g id="edge21" class="edge">
<title>Node13&#45;&gt;Node19</title>
<path fill="none" stroke="midnightblue" d="M745.28,-235.44C726.6,-226.68 697.34,-212.94 675.88,-202.86"/>
<polygon fill="midnightblue" stroke="midnightblue" points="677.18,-199.6 666.64,-198.52 674.2,-205.93 677.18,-199.6"/>
</g>
<!-- Node22 -->
<g id="node22" class="node">
<title>Node22</title>
<g id="a_node22"><a xlink:href="EntityManager_8hpp.html" target="_top" xlink:title=" ">
<polygon fill="white" stroke="black" points="892.5,-179.5 892.5,-198.5 1000.5,-198.5 1000.5,-179.5 892.5,-179.5"/>
<text text-anchor="middle" x="946.5" y="-186.5" font-family="Helvetica,sans-Serif" font-size="10.00">EntityManager.hpp</text>
</a>
</g>
</g>
<!-- Node13&#45;&gt;Node22 -->
<g id="edge30" class="edge">
<title>Node13&#45;&gt;Node22</title>
<path fill="none" stroke="midnightblue" d="M792.5,-235.44C823.68,-226.24 873.43,-211.56 907.91,-201.39"/>
<polygon fill="midnightblue" stroke="midnightblue" points="909.04,-204.7 917.64,-198.52 907.06,-197.99 909.04,-204.7"/>
</g>
<!-- Node19&#45;&gt;Node3 -->
<g id="edge28" class="edge">
<title>Node19&#45;&gt;Node3</title>
<path fill="none" stroke="midnightblue" d="M602.55,-179.44C551.43,-169.92 468.85,-154.55 414.12,-144.36"/>
<polygon fill="midnightblue" stroke="midnightblue" points="414.71,-140.91 404.24,-142.52 413.43,-147.79 414.71,-140.91"/>
</g>
<!-- Node19&#45;&gt;Node14 -->
<g id="edge22" class="edge">
<title>Node19&#45;&gt;Node14</title>
<path fill="none" stroke="midnightblue" d="M620.45,-179.44C590.42,-170.28 542.59,-155.69 509.26,-145.52"/>
<polygon fill="midnightblue" stroke="midnightblue" points="510,-142.09 499.41,-142.52 507.96,-148.78 510,-142.09"/>
</g>
<!-- Node19&#45;&gt;Node15 -->
<g id="edge25" class="edge">
<title>Node19&#45;&gt;Node15</title>
<path fill="none" stroke="midnightblue" d="M684.47,-179.44C725.9,-169.59 793.74,-153.45 836.44,-143.29"/>
<polygon fill="midnightblue" stroke="midnightblue" points="837.28,-146.69 846.2,-140.97 835.66,-139.88 837.28,-146.69"/>
</g>
<!-- Node19&#45;&gt;Node16 -->
<g id="edge26" class="edge">
<title>Node19&#45;&gt;Node16</title>
<path fill="none" stroke="midnightblue" d="M654.77,-179.08C660.14,-171.46 668.02,-160.26 674.58,-150.94"/>
<polygon fill="midnightblue" stroke="midnightblue" points="677.45,-152.94 680.34,-142.75 671.72,-148.91 677.45,-152.94"/>
</g>
<!-- Node19&#45;&gt;Node17 -->
<g id="edge24" class="edge">
<title>Node19&#45;&gt;Node17</title>
<path fill="none" stroke="midnightblue" d="M708.82,-179.48C760.42,-171.8 836.87,-159.5 912.58,-143.01"/>
<polygon fill="midnightblue" stroke="midnightblue" points="913.76,-146.34 922.78,-140.77 912.26,-139.5 913.76,-146.34"/>
</g>
<!-- Node19&#45;&gt;Node18 -->
<g id="edge27" class="edge">
<title>Node19&#45;&gt;Node18</title>
<path fill="none" stroke="midnightblue" d="M669.73,-179.44C691.88,-170.52 726.82,-156.44 751.94,-146.32"/>
<polygon fill="midnightblue" stroke="midnightblue" points="753.4,-149.5 761.37,-142.52 750.78,-143.01 753.4,-149.5"/>
</g>
<!-- Node20 -->
<g id="node20" class="node">
<title>Node20</title>
<g id="a_node20"><a xlink:title=" ">
<polygon fill="white" stroke="#bfbfbf" points="536.5,-123.5 536.5,-142.5 580.5,-142.5 580.5,-123.5 536.5,-123.5"/>
<text text-anchor="middle" x="558.5" y="-130.5" font-family="Helvetica,sans-Serif" font-size="10.00">string</text>
</a>
</g>
</g>
<!-- Node19&#45;&gt;Node20 -->
<g id="edge23" class="edge">
<title>Node19&#45;&gt;Node20</title>
<path fill="none" stroke="midnightblue" d="M634.04,-179.32C620,-170.9 598.45,-157.97 581.96,-148.07"/>
<polygon fill="midnightblue" stroke="midnightblue" points="583.3,-144.8 572.92,-142.65 579.7,-150.8 583.3,-144.8"/>
</g>
<!-- Node21 -->
<g id="node21" class="node">
<title>Node21</title>
<g id="a_node21"><a xlink:title=" ">
<polygon fill="white" stroke="#bfbfbf" points="598.5,-123.5 598.5,-142.5 636.5,-142.5 636.5,-123.5 598.5,-123.5"/>
<text text-anchor="middle" x="617.5" y="-130.5" font-family="Helvetica,sans-Serif" font-size="10.00">map</text>
</a>
</g>
</g>
<!-- Node19&#45;&gt;Node21 -->
<g id="edge29" class="edge">
<title>Node19&#45;&gt;Node21</title>
<path fill="none" stroke="midnightblue" d="M643.38,-179.08C639.09,-171.61 632.84,-160.72 627.56,-151.52"/>
<polygon fill="midnightblue" stroke="midnightblue" points="630.54,-149.68 622.52,-142.75 624.47,-153.17 630.54,-149.68"/>
</g>
<!-- Node22&#45;&gt;Node2 -->
<g id="edge32" class="edge">
<title>Node22&#45;&gt;Node2</title>
<path fill="none" stroke="midnightblue" d="M965.99,-179.44C986.14,-170.6 1017.82,-156.69 1040.83,-146.59"/>
<polygon fill="midnightblue" stroke="midnightblue" points="1042.35,-149.74 1050.1,-142.52 1039.54,-143.33 1042.35,-149.74"/>
</g>
<!-- Node22&#45;&gt;Node15 -->
<g id="edge33" class="edge">
<title>Node22&#45;&gt;Node15</title>
<path fill="none" stroke="midnightblue" d="M935.09,-179.32C924.39,-171.18 908.16,-158.84 895.34,-149.09"/>
<polygon fill="midnightblue" stroke="midnightblue" points="897.19,-146.1 887.11,-142.83 892.96,-151.67 897.19,-146.1"/>
</g>
<!-- Node22&#45;&gt;Node17 -->
<g id="edge31" class="edge">
<title>Node22&#45;&gt;Node17</title>
<path fill="none" stroke="midnightblue" d="M946.5,-179.08C946.5,-172.01 946.5,-161.86 946.5,-152.99"/>
<polygon fill="midnightblue" stroke="midnightblue" points="950,-152.75 946.5,-142.75 943,-152.75 950,-152.75"/>
</g>
<!-- Node23 -->
<g id="node23" class="node">
<title>Node23</title>
<g id="a_node23"><a xlink:title=" ">
<polygon fill="white" stroke="#bfbfbf" points="988.5,-123.5 988.5,-142.5 1020.5,-142.5 1020.5,-123.5 988.5,-123.5"/>
<text text-anchor="middle" x="1004.5" y="-130.5" font-family="Helvetica,sans-Serif" font-size="10.00">list</text>
</a>
</g>
</g>
<!-- Node22&#45;&gt;Node23 -->
<g id="edge34" class="edge">
<title>Node22&#45;&gt;Node23</title>
<path fill="none" stroke="midnightblue" d="M955.82,-179.32C964.39,-171.34 977.31,-159.31 987.69,-149.65"/>
<polygon fill="midnightblue" stroke="midnightblue" points="990.08,-152.21 995.01,-142.83 985.31,-147.09 990.08,-152.21"/>
</g>
</g>
</svg>
