<?xml version="1.0" encoding="UTF-8" standalone="no"?>
<!DOCTYPE svg PUBLIC "-//W3C//DTD SVG 1.1//EN"
 "http://www.w3.org/Graphics/SVG/1.1/DTD/svg11.dtd">
<!-- Generated by graphviz version 2.43.0 (0)
 -->
<!-- Title: Libs/Engine/sources/Systems/PauseSystem Pages: 1 -->
<svg width="423pt" height="295pt"
 viewBox="0.00 0.00 423.38 295.00" xmlns="http://www.w3.org/2000/svg" xmlns:xlink="http://www.w3.org/1999/xlink">
<g id="graph0" class="graph" transform="scale(1 1) rotate(0) translate(4 291)">
<title>Libs/Engine/sources/Systems/PauseSystem</title>
<polygon fill="white" stroke="transparent" points="-4,4 -4,-291 419.38,-291 419.38,4 -4,4"/>
<g id="clust1" class="cluster">
<title>clusterdir_9a9e2b7a8f13e92341bd3030ad46e690</title>
<g id="a_clust1"><a xlink:href="dir_9a9e2b7a8f13e92341bd3030ad46e690.html" target="_top" xlink:title="Systems">
<polygon fill="#ddddee" stroke="black" points="156.82,-208 156.82,-279 254.82,-279 254.82,-208 156.82,-208"/>
<text text-anchor="middle" x="205.82" y="-267" font-family="Helvetica,sans-Serif" font-size="10.00">Systems</text>
</a>
</g>
</g>
<!-- dir_1cb0e1822ee5f7dd9295b5665d09aa9c -->
<g id="node1" class="node">
<title>dir_1cb0e1822ee5f7dd9295b5665d09aa9c</title>
<g id="a_node1"><a xlink:href="dir_1cb0e1822ee5f7dd9295b5665d09aa9c.html" target="_top" xlink:title="PauseSystem">
<polygon fill="#eeeeff" stroke="black" points="246.82,-252 164.82,-252 164.82,-216 246.82,-216 246.82,-252"/>
<text text-anchor="middle" x="205.82" y="-231.5" font-family="Helvetica,sans-Serif" font-size="10.00">PauseSystem</text>
</a>
</g>
</g>
<!-- dir_2e574b6382041dc2a136b1675bed65ad -->
<g id="node2" class="node">
<title>dir_2e574b6382041dc2a136b1675bed65ad</title>
<g id="a_node2"><a xlink:href="dir_2e574b6382041dc2a136b1675bed65ad.html" target="_top" xlink:title="RayLib">
<polygon fill="white" stroke="red" points="80.82,-36 26.82,-36 26.82,0 80.82,0 80.82,-36"/>
<text text-anchor="middle" x="53.82" y="-15.5" font-family="Helvetica,sans-Serif" font-size="10.00">RayLib</text>
</a>
</g>
</g>
<!-- dir_1cb0e1822ee5f7dd9295b5665d09aa9c&#45;&gt;dir_2e574b6382041dc2a136b1675bed65ad -->
<g id="edge13" class="edge">
<title>dir_1cb0e1822ee5f7dd9295b5665d09aa9c&#45;&gt;dir_2e574b6382041dc2a136b1675bed65ad</title>
<path fill="none" stroke="black" d="M164.7,-222.17C115.06,-206.51 34.54,-172.13 4.82,-108 -1.91,-93.48 -1.01,-86.9 4.82,-72 9.02,-61.28 16.51,-51.43 24.4,-43.2"/>
<polygon fill="black" stroke="black" points="26.94,-45.61 31.67,-36.13 22.06,-40.59 26.94,-45.61"/>
<g id="a_edge13&#45;headlabel"><a xlink:href="dir_000083_000005.html" target="_top" xlink:title="1">
<text text-anchor="middle" x="26.35" y="-47.65" font-family="Helvetica,sans-Serif" font-size="10.00">1</text>
</a>
</g>
</g>
<!-- dir_e1b125331ccfd7597fbda9d04ae41b2d -->
<g id="node3" class="node">
<title>dir_e1b125331ccfd7597fbda9d04ae41b2d</title>
<g id="a_node3"><a xlink:href="dir_e1b125331ccfd7597fbda9d04ae41b2d.html" target="_top" xlink:title="Components">
<polygon fill="white" stroke="red" points="211.82,-180 133.82,-180 133.82,-144 211.82,-144 211.82,-180"/>
<text text-anchor="middle" x="172.82" y="-159.5" font-family="Helvetica,sans-Serif" font-size="10.00">Components</text>
</a>
</g>
</g>
<!-- dir_1cb0e1822ee5f7dd9295b5665d09aa9c&#45;&gt;dir_e1b125331ccfd7597fbda9d04ae41b2d -->
<g id="edge14" class="edge">
<title>dir_1cb0e1822ee5f7dd9295b5665d09aa9c&#45;&gt;dir_e1b125331ccfd7597fbda9d04ae41b2d</title>
<path fill="none" stroke="black" d="M197.66,-215.7C193.91,-207.73 189.37,-198.1 185.2,-189.26"/>
<polygon fill="black" stroke="black" points="188.32,-187.66 180.89,-180.1 181.98,-190.64 188.32,-187.66"/>
<g id="a_edge14&#45;headlabel"><a xlink:href="dir_000083_000037.html" target="_top" xlink:title="4">
<text text-anchor="middle" x="192.42" y="-187.2" font-family="Helvetica,sans-Serif" font-size="10.00">4</text>
</a>
</g>
</g>
<!-- dir_d80696405e6eb7d9d74c2c972a15607d -->
<g id="node4" class="node">
<title>dir_d80696405e6eb7d9d74c2c972a15607d</title>
<g id="a_node4"><a xlink:href="dir_d80696405e6eb7d9d74c2c972a15607d.html" target="_top" xlink:title="PhysicsSystem">
<polygon fill="none" stroke="black" points="399.82,-108 309.82,-108 309.82,-72 399.82,-72 399.82,-108"/>
<text text-anchor="middle" x="354.82" y="-87.5" font-family="Helvetica,sans-Serif" font-size="10.00">PhysicsSystem</text>
</a>
</g>
</g>
<!-- dir_1cb0e1822ee5f7dd9295b5665d09aa9c&#45;&gt;dir_d80696405e6eb7d9d74c2c972a15607d -->
<g id="edge15" class="edge">
<title>dir_1cb0e1822ee5f7dd9295b5665d09aa9c&#45;&gt;dir_d80696405e6eb7d9d74c2c972a15607d</title>
<path fill="none" stroke="black" d="M223.79,-215.87C250.08,-190.82 299.15,-144.05 329.21,-115.41"/>
<polygon fill="black" stroke="black" points="331.96,-117.62 336.79,-108.19 327.13,-112.55 331.96,-117.62"/>
<g id="a_edge15&#45;headlabel"><a xlink:href="dir_000083_000084.html" target="_top" xlink:title="1">
<text text-anchor="middle" x="331.32" y="-119.66" font-family="Helvetica,sans-Serif" font-size="10.00">1</text>
</a>
</g>
</g>
<!-- dir_2b3d8a86ab3d6541412068b29afa9f03 -->
<g id="node5" class="node">
<title>dir_2b3d8a86ab3d6541412068b29afa9f03</title>
<g id="a_node5"><a xlink:href="dir_2b3d8a86ab3d6541412068b29afa9f03.html" target="_top" xlink:title="BehaviourSystem">
<polygon fill="none" stroke="black" points="291.32,-108 188.32,-108 188.32,-72 291.32,-72 291.32,-108"/>
<text text-anchor="middle" x="239.82" y="-87.5" font-family="Helvetica,sans-Serif" font-size="10.00">BehaviourSystem</text>
</a>
</g>
</g>
<!-- dir_1cb0e1822ee5f7dd9295b5665d09aa9c&#45;&gt;dir_2b3d8a86ab3d6541412068b29afa9f03 -->
<g id="edge16" class="edge">
<title>dir_1cb0e1822ee5f7dd9295b5665d09aa9c&#45;&gt;dir_2b3d8a86ab3d6541412068b29afa9f03</title>
<path fill="none" stroke="black" d="M210.97,-215.89C214.01,-205.54 217.83,-192.07 220.82,-180 225.92,-159.43 230.9,-135.97 234.47,-118.31"/>
<polygon fill="black" stroke="black" points="237.98,-118.63 236.51,-108.14 231.12,-117.26 237.98,-118.63"/>
<g id="a_edge16&#45;headlabel"><a xlink:href="dir_000083_000081.html" target="_top" xlink:title="1">
<text text-anchor="middle" x="240.06" y="-120.21" font-family="Helvetica,sans-Serif" font-size="10.00">1</text>
</a>
</g>
</g>
<!-- dir_fcd037b3c61b82b39da2ca73b895b43c -->
<g id="node6" class="node">
<title>dir_fcd037b3c61b82b39da2ca73b895b43c</title>
<g id="a_node6"><a xlink:href="dir_fcd037b3c61b82b39da2ca73b895b43c.html" target="_top" xlink:title="EntityFactory">
<polygon fill="none" stroke="black" points="93.82,-108 13.82,-108 13.82,-72 93.82,-72 93.82,-108"/>
<text text-anchor="middle" x="53.82" y="-87.5" font-family="Helvetica,sans-Serif" font-size="10.00">EntityFactory</text>
</a>
</g>
</g>
<!-- dir_1cb0e1822ee5f7dd9295b5665d09aa9c&#45;&gt;dir_fcd037b3c61b82b39da2ca73b895b43c -->
<g id="edge17" class="edge">
<title>dir_1cb0e1822ee5f7dd9295b5665d09aa9c&#45;&gt;dir_fcd037b3c61b82b39da2ca73b895b43c</title>
<path fill="none" stroke="black" d="M174.94,-215.98C159.09,-206.48 139.98,-193.8 124.82,-180 103.87,-160.93 84.13,-135.32 70.81,-116.47"/>
<polygon fill="black" stroke="black" points="73.56,-114.3 64.98,-108.08 67.81,-118.29 73.56,-114.3"/>
<g id="a_edge17&#45;headlabel"><a xlink:href="dir_000083_000072.html" target="_top" xlink:title="1">
<text text-anchor="middle" x="77.94" y="-113.13" font-family="Helvetica,sans-Serif" font-size="10.00">1</text>
</a>
</g>
</g>
<!-- dir_4a120dbb11348b2823d2a12dcab2f1e3 -->
<g id="node7" class="node">
<title>dir_4a120dbb11348b2823d2a12dcab2f1e3</title>
<g id="a_node7"><a xlink:href="dir_4a120dbb11348b2823d2a12dcab2f1e3.html" target="_top" xlink:title="ECS">
<polygon fill="white" stroke="red" points="266.82,-36 212.82,-36 212.82,0 266.82,0 266.82,-36"/>
<text text-anchor="middle" x="239.82" y="-15.5" font-family="Helvetica,sans-Serif" font-size="10.00">ECS</text>
</a>
</g>
</g>
<!-- dir_1cb0e1822ee5f7dd9295b5665d09aa9c&#45;&gt;dir_4a120dbb11348b2823d2a12dcab2f1e3 -->
<g id="edge18" class="edge">
<title>dir_1cb0e1822ee5f7dd9295b5665d09aa9c&#45;&gt;dir_4a120dbb11348b2823d2a12dcab2f1e3</title>
<path fill="none" stroke="black" d="M247.23,-221.17C296.02,-204.73 374.76,-169.8 408.82,-108 416.55,-93.99 418.29,-84.9 408.82,-72 378.75,-31.05 317.09,-20.88 277.15,-18.82"/>
<polygon fill="black" stroke="black" points="277.12,-15.32 267,-18.44 276.86,-22.31 277.12,-15.32"/>
<g id="a_edge18&#45;headlabel"><a xlink:href="dir_000083_000002.html" target="_top" xlink:title="3">
<text text-anchor="middle" x="280.82" y="-10.11" font-family="Helvetica,sans-Serif" font-size="10.00">3</text>
</a>
</g>
</g>
<!-- dir_e1b125331ccfd7597fbda9d04ae41b2d&#45;&gt;dir_2e574b6382041dc2a136b1675bed65ad -->
<g id="edge1" class="edge">
<title>dir_e1b125331ccfd7597fbda9d04ae41b2d&#45;&gt;dir_2e574b6382041dc2a136b1675bed65ad</title>
<path fill="none" stroke="black" d="M160.05,-143.95C146.31,-125.79 123.62,-96.38 102.82,-72 94.77,-62.56 85.62,-52.5 77.42,-43.7"/>
<polygon fill="black" stroke="black" points="79.91,-41.24 70.51,-36.35 74.81,-46.03 79.91,-41.24"/>
<g id="a_edge1&#45;headlabel"><a xlink:href="dir_000037_000005.html" target="_top" xlink:title="56">
<text text-anchor="middle" x="84.44" y="-39.42" font-family="Helvetica,sans-Serif" font-size="10.00">56</text>
</a>
</g>
</g>
<!-- dir_e1b125331ccfd7597fbda9d04ae41b2d&#45;&gt;dir_d80696405e6eb7d9d74c2c972a15607d -->
<g id="edge2" class="edge">
<title>dir_e1b125331ccfd7597fbda9d04ae41b2d&#45;&gt;dir_d80696405e6eb7d9d74c2c972a15607d</title>
<path fill="none" stroke="black" d="M211.45,-143.88C237.31,-133.51 271.64,-120.29 300.26,-109.66"/>
<polygon fill="black" stroke="black" points="301.56,-112.91 309.72,-106.16 299.13,-106.34 301.56,-112.91"/>
<g id="a_edge2&#45;headlabel"><a xlink:href="dir_000037_000084.html" target="_top" xlink:title="2">
<text text-anchor="middle" x="299.17" y="-114.32" font-family="Helvetica,sans-Serif" font-size="10.00">2</text>
</a>
</g>
</g>
<!-- dir_e1b125331ccfd7597fbda9d04ae41b2d&#45;&gt;dir_2b3d8a86ab3d6541412068b29afa9f03 -->
<g id="edge3" class="edge">
<title>dir_e1b125331ccfd7597fbda9d04ae41b2d&#45;&gt;dir_2b3d8a86ab3d6541412068b29afa9f03</title>
<path fill="none" stroke="black" d="M183.47,-143.7C190.78,-135.14 200.63,-124.66 210.1,-115.3"/>
<polygon fill="black" stroke="black" points="212.79,-117.57 217.56,-108.1 207.93,-112.53 212.79,-117.57"/>
<g id="a_edge3&#45;headlabel"><a xlink:href="dir_000037_000081.html" target="_top" xlink:title="1">
<text text-anchor="middle" x="212.18" y="-119.61" font-family="Helvetica,sans-Serif" font-size="10.00">1</text>
</a>
</g>
</g>
<!-- dir_e1b125331ccfd7597fbda9d04ae41b2d&#45;&gt;dir_fcd037b3c61b82b39da2ca73b895b43c -->
<g id="edge4" class="edge">
<title>dir_e1b125331ccfd7597fbda9d04ae41b2d&#45;&gt;dir_fcd037b3c61b82b39da2ca73b895b43c</title>
<path fill="none" stroke="black" d="M137.81,-143.88C121.3,-134.72 101.8,-123.34 85.7,-113.48"/>
<polygon fill="black" stroke="black" points="87.49,-110.48 77.14,-108.19 83.8,-116.43 87.49,-110.48"/>
<g id="a_edge4&#45;headlabel"><a xlink:href="dir_000037_000072.html" target="_top" xlink:title="5">
<text text-anchor="middle" x="92.04" y="-107.45" font-family="Helvetica,sans-Serif" font-size="10.00">5</text>
</a>
</g>
</g>
<!-- dir_e1b125331ccfd7597fbda9d04ae41b2d&#45;&gt;dir_4a120dbb11348b2823d2a12dcab2f1e3 -->
<g id="edge5" class="edge">
<title>dir_e1b125331ccfd7597fbda9d04ae41b2d&#45;&gt;dir_4a120dbb11348b2823d2a12dcab2f1e3</title>
<path fill="none" stroke="black" d="M170.25,-143.93C168.24,-125.24 167.45,-94.88 178.82,-72 184.74,-60.11 194.62,-49.76 204.73,-41.44"/>
<polygon fill="black" stroke="black" points="207.02,-44.09 212.81,-35.22 202.75,-38.55 207.02,-44.09"/>
<g id="a_edge5&#45;headlabel"><a xlink:href="dir_000037_000002.html" target="_top" xlink:title="33">
<text text-anchor="middle" x="205.91" y="-46.03" font-family="Helvetica,sans-Serif" font-size="10.00">33</text>
</a>
</g>
</g>
<!-- dir_d80696405e6eb7d9d74c2c972a15607d&#45;&gt;dir_e1b125331ccfd7597fbda9d04ae41b2d -->
<g id="edge6" class="edge">
<title>dir_d80696405e6eb7d9d74c2c972a15607d&#45;&gt;dir_e1b125331ccfd7597fbda9d04ae41b2d</title>
<path fill="none" stroke="black" d="M316.43,-108.03C288.83,-119.09 251.51,-133.44 221.78,-144.42"/>
<polygon fill="black" stroke="black" points="220.2,-141.27 212.02,-148 222.61,-147.84 220.2,-141.27"/>
<g id="a_edge6&#45;headlabel"><a xlink:href="dir_000084_000037.html" target="_top" xlink:title="3">
<text text-anchor="middle" x="222.6" y="-134.86" font-family="Helvetica,sans-Serif" font-size="10.00">3</text>
</a>
</g>
</g>
<!-- dir_d80696405e6eb7d9d74c2c972a15607d&#45;&gt;dir_4a120dbb11348b2823d2a12dcab2f1e3 -->
<g id="edge7" class="edge">
<title>dir_d80696405e6eb7d9d74c2c972a15607d&#45;&gt;dir_4a120dbb11348b2823d2a12dcab2f1e3</title>
<path fill="none" stroke="black" d="M326.69,-71.88C311.32,-62.52 292.12,-50.83 275.68,-40.83"/>
<polygon fill="black" stroke="black" points="277.23,-37.67 266.87,-35.47 273.59,-43.65 277.23,-37.67"/>
<g id="a_edge7&#45;headlabel"><a xlink:href="dir_000084_000002.html" target="_top" xlink:title="2">
<text text-anchor="middle" x="281.78" y="-34.62" font-family="Helvetica,sans-Serif" font-size="10.00">2</text>
</a>
</g>
</g>
<!-- dir_2b3d8a86ab3d6541412068b29afa9f03&#45;&gt;dir_e1b125331ccfd7597fbda9d04ae41b2d -->
<g id="edge8" class="edge">
<title>dir_2b3d8a86ab3d6541412068b29afa9f03&#45;&gt;dir_e1b125331ccfd7597fbda9d04ae41b2d</title>
<path fill="none" stroke="black" d="M229.35,-108.1C222.07,-116.64 212.24,-127.11 202.77,-136.48"/>
<polygon fill="black" stroke="black" points="200.06,-134.23 195.3,-143.7 204.92,-139.26 200.06,-134.23"/>
<g id="a_edge8&#45;headlabel"><a xlink:href="dir_000081_000037.html" target="_top" xlink:title="2">
<text text-anchor="middle" x="200.67" y="-127.19" font-family="Helvetica,sans-Serif" font-size="10.00">2</text>
</a>
</g>
</g>
<!-- dir_2b3d8a86ab3d6541412068b29afa9f03&#45;&gt;dir_4a120dbb11348b2823d2a12dcab2f1e3 -->
<g id="edge9" class="edge">
<title>dir_2b3d8a86ab3d6541412068b29afa9f03&#45;&gt;dir_4a120dbb11348b2823d2a12dcab2f1e3</title>
<path fill="none" stroke="black" d="M239.82,-71.7C239.82,-63.98 239.82,-54.71 239.82,-46.11"/>
<polygon fill="black" stroke="black" points="243.32,-46.1 239.82,-36.1 236.32,-46.1 243.32,-46.1"/>
<g id="a_edge9&#45;headlabel"><a xlink:href="dir_000081_000002.html" target="_top" xlink:title="2">
<text text-anchor="middle" x="246.16" y="-47.2" font-family="Helvetica,sans-Serif" font-size="10.00">2</text>
</a>
</g>
</g>
<!-- dir_fcd037b3c61b82b39da2ca73b895b43c&#45;&gt;dir_2e574b6382041dc2a136b1675bed65ad -->
<g id="edge10" class="edge">
<title>dir_fcd037b3c61b82b39da2ca73b895b43c&#45;&gt;dir_2e574b6382041dc2a136b1675bed65ad</title>
<path fill="none" stroke="black" d="M53.82,-71.7C53.82,-63.98 53.82,-54.71 53.82,-46.11"/>
<polygon fill="black" stroke="black" points="57.32,-46.1 53.82,-36.1 50.32,-46.1 57.32,-46.1"/>
<g id="a_edge10&#45;headlabel"><a xlink:href="dir_000072_000005.html" target="_top" xlink:title="4">
<text text-anchor="middle" x="60.16" y="-47.2" font-family="Helvetica,sans-Serif" font-size="10.00">4</text>
</a>
</g>
</g>
<!-- dir_fcd037b3c61b82b39da2ca73b895b43c&#45;&gt;dir_e1b125331ccfd7597fbda9d04ae41b2d -->
<g id="edge11" class="edge">
<title>dir_fcd037b3c61b82b39da2ca73b895b43c&#45;&gt;dir_e1b125331ccfd7597fbda9d04ae41b2d</title>
<path fill="none" stroke="black" d="M88.95,-108.19C105.48,-117.35 124.98,-128.74 141.06,-138.59"/>
<polygon fill="black" stroke="black" points="139.26,-141.59 149.61,-143.88 142.95,-135.64 139.26,-141.59"/>
<g id="a_edge11&#45;headlabel"><a xlink:href="dir_000072_000037.html" target="_top" xlink:title="26">
<text text-anchor="middle" x="134.71" y="-139.61" font-family="Helvetica,sans-Serif" font-size="10.00">26</text>
</a>
</g>
</g>
<!-- dir_fcd037b3c61b82b39da2ca73b895b43c&#45;&gt;dir_4a120dbb11348b2823d2a12dcab2f1e3 -->
<g id="edge12" class="edge">
<title>dir_fcd037b3c61b82b39da2ca73b895b43c&#45;&gt;dir_4a120dbb11348b2823d2a12dcab2f1e3</title>
<path fill="none" stroke="black" d="M94.18,-73.81C126.58,-61.62 171.67,-44.65 203.07,-32.83"/>
<polygon fill="black" stroke="black" points="204.62,-35.99 212.75,-29.19 202.16,-29.43 204.62,-35.99"/>
<g id="a_edge12&#45;headlabel"><a xlink:href="dir_000072_000002.html" target="_top" xlink:title="1">
<text text-anchor="middle" x="202.26" y="-37.41" font-family="Helvetica,sans-Serif" font-size="10.00">1</text>
</a>
</g>
</g>
</g>
</svg>
