<?xml version="1.0" encoding="UTF-8" standalone="no"?>
<!DOCTYPE svg PUBLIC "-//W3C//DTD SVG 1.1//EN"
 "http://www.w3.org/Graphics/SVG/1.1/DTD/svg11.dtd">
<!-- Generated by graphviz version 2.43.0 (0)
 -->
<!-- Title: Libs/Engine/sources/Components/GameConfigurator Pages: 1 -->
<svg width="367pt" height="295pt"
 viewBox="0.00 0.00 367.13 295.00" xmlns="http://www.w3.org/2000/svg" xmlns:xlink="http://www.w3.org/1999/xlink">
<g id="graph0" class="graph" transform="scale(1 1) rotate(0) translate(4 291)">
<title>Libs/Engine/sources/Components/GameConfigurator</title>
<polygon fill="white" stroke="transparent" points="-4,4 -4,-291 363.13,-291 363.13,4 -4,4"/>
<g id="clust1" class="cluster">
<title>clusterdir_e1b125331ccfd7597fbda9d04ae41b2d</title>
<g id="a_clust1"><a xlink:href="dir_e1b125331ccfd7597fbda9d04ae41b2d.html" target="_top" xlink:title="Components">
<polygon fill="#ddddee" stroke="black" points="75.03,-208 75.03,-279 197.03,-279 197.03,-208 75.03,-208"/>
<text text-anchor="middle" x="136.03" y="-267" font-family="Helvetica,sans-Serif" font-size="10.00">Components</text>
</a>
</g>
</g>
<!-- dir_255a1c7ac9885a37cc02c34b185e13dc -->
<g id="node1" class="node">
<title>dir_255a1c7ac9885a37cc02c34b185e13dc</title>
<g id="a_node1"><a xlink:href="dir_255a1c7ac9885a37cc02c34b185e13dc.html" target="_top" xlink:title="GameConfigurator">
<polygon fill="#eeeeff" stroke="black" points="189.03,-252 83.03,-252 83.03,-216 189.03,-216 189.03,-252"/>
<text text-anchor="middle" x="136.03" y="-231.5" font-family="Helvetica,sans-Serif" font-size="10.00">GameConfigurator</text>
</a>
</g>
</g>
<!-- dir_236e02cd02223a2412f137d7ad85069e -->
<g id="node2" class="node">
<title>dir_236e02cd02223a2412f137d7ad85069e</title>
<g id="a_node2"><a xlink:href="dir_236e02cd02223a2412f137d7ad85069e.html" target="_top" xlink:title="GameConfiguration">
<polygon fill="none" stroke="black" points="338.53,-108 227.53,-108 227.53,-72 338.53,-72 338.53,-108"/>
<text text-anchor="middle" x="283.03" y="-87.5" font-family="Helvetica,sans-Serif" font-size="10.00">GameConfiguration</text>
</a>
</g>
</g>
<!-- dir_255a1c7ac9885a37cc02c34b185e13dc&#45;&gt;dir_236e02cd02223a2412f137d7ad85069e -->
<g id="edge2" class="edge">
<title>dir_255a1c7ac9885a37cc02c34b185e13dc&#45;&gt;dir_236e02cd02223a2412f137d7ad85069e</title>
<path fill="none" stroke="black" d="M179.06,-215.9C197.26,-207.14 217.74,-195.11 233.03,-180 250.95,-162.28 264.39,-136.79 272.8,-117.62"/>
<polygon fill="black" stroke="black" points="276.09,-118.82 276.73,-108.25 269.63,-116.11 276.09,-118.82"/>
<g id="a_edge2&#45;headlabel"><a xlink:href="dir_000053_000074.html" target="_top" xlink:title="1">
<text text-anchor="middle" x="277.32" y="-120.74" font-family="Helvetica,sans-Serif" font-size="10.00">1</text>
</a>
</g>
</g>
<!-- dir_2e574b6382041dc2a136b1675bed65ad -->
<g id="node3" class="node">
<title>dir_2e574b6382041dc2a136b1675bed65ad</title>
<g id="a_node3"><a xlink:href="dir_2e574b6382041dc2a136b1675bed65ad.html" target="_top" xlink:title="RayLib">
<polygon fill="white" stroke="red" points="226.03,-36 172.03,-36 172.03,0 226.03,0 226.03,-36"/>
<text text-anchor="middle" x="199.03" y="-15.5" font-family="Helvetica,sans-Serif" font-size="10.00">RayLib</text>
</a>
</g>
</g>
<!-- dir_255a1c7ac9885a37cc02c34b185e13dc&#45;&gt;dir_2e574b6382041dc2a136b1675bed65ad -->
<g id="edge3" class="edge">
<title>dir_255a1c7ac9885a37cc02c34b185e13dc&#45;&gt;dir_2e574b6382041dc2a136b1675bed65ad</title>
<path fill="none" stroke="black" d="M82.83,-225.4C55.28,-218.47 23.95,-205.24 7.03,-180 -3.62,-164.11 -1.55,-88.72 12.03,-72 30.84,-48.83 112.96,-32.37 161.9,-24.41"/>
<polygon fill="black" stroke="black" points="162.48,-27.87 171.81,-22.85 161.38,-20.95 162.48,-27.87"/>
<g id="a_edge3&#45;headlabel"><a xlink:href="dir_000053_000005.html" target="_top" xlink:title="1">
<text text-anchor="middle" x="159.37" y="-28.73" font-family="Helvetica,sans-Serif" font-size="10.00">1</text>
</a>
</g>
</g>
<!-- dir_a596cbb2d469ff7139a5bd1a3c9de76d -->
<g id="node4" class="node">
<title>dir_a596cbb2d469ff7139a5bd1a3c9de76d</title>
<g id="a_node4"><a xlink:href="dir_a596cbb2d469ff7139a5bd1a3c9de76d.html" target="_top" xlink:title="Animator">
<polygon fill="none" stroke="black" points="83.03,-108 21.03,-108 21.03,-72 83.03,-72 83.03,-108"/>
<text text-anchor="middle" x="52.03" y="-87.5" font-family="Helvetica,sans-Serif" font-size="10.00">Animator</text>
</a>
</g>
</g>
<!-- dir_255a1c7ac9885a37cc02c34b185e13dc&#45;&gt;dir_a596cbb2d469ff7139a5bd1a3c9de76d -->
<g id="edge4" class="edge">
<title>dir_255a1c7ac9885a37cc02c34b185e13dc&#45;&gt;dir_a596cbb2d469ff7139a5bd1a3c9de76d</title>
<path fill="none" stroke="black" d="M125.89,-215.87C111.33,-191.24 84.35,-145.64 67.34,-116.88"/>
<polygon fill="black" stroke="black" points="70.3,-115.01 62.2,-108.19 64.27,-118.58 70.3,-115.01"/>
<g id="a_edge4&#45;headlabel"><a xlink:href="dir_000053_000040.html" target="_top" xlink:title="1">
<text text-anchor="middle" x="74.57" y="-114.16" font-family="Helvetica,sans-Serif" font-size="10.00">1</text>
</a>
</g>
</g>
<!-- dir_9a9e2b7a8f13e92341bd3030ad46e690 -->
<g id="node5" class="node">
<title>dir_9a9e2b7a8f13e92341bd3030ad46e690</title>
<g id="a_node5"><a xlink:href="dir_9a9e2b7a8f13e92341bd3030ad46e690.html" target="_top" xlink:title="Systems">
<polygon fill="white" stroke="red" points="223.53,-180 164.53,-180 164.53,-144 223.53,-144 223.53,-180"/>
<text text-anchor="middle" x="194.03" y="-159.5" font-family="Helvetica,sans-Serif" font-size="10.00">Systems</text>
</a>
</g>
</g>
<!-- dir_255a1c7ac9885a37cc02c34b185e13dc&#45;&gt;dir_9a9e2b7a8f13e92341bd3030ad46e690 -->
<g id="edge5" class="edge">
<title>dir_255a1c7ac9885a37cc02c34b185e13dc&#45;&gt;dir_9a9e2b7a8f13e92341bd3030ad46e690</title>
<path fill="none" stroke="black" d="M150.36,-215.7C157.32,-207.3 165.8,-197.07 173.43,-187.86"/>
<polygon fill="black" stroke="black" points="176.17,-190.04 179.86,-180.1 170.78,-185.57 176.17,-190.04"/>
<g id="a_edge5&#45;headlabel"><a xlink:href="dir_000053_000079.html" target="_top" xlink:title="2">
<text text-anchor="middle" x="176.06" y="-192.12" font-family="Helvetica,sans-Serif" font-size="10.00">2</text>
</a>
</g>
</g>
<!-- dir_d415c0d599231354676ceb56dc96abfc -->
<g id="node6" class="node">
<title>dir_d415c0d599231354676ceb56dc96abfc</title>
<g id="a_node6"><a xlink:href="dir_d415c0d599231354676ceb56dc96abfc.html" target="_top" xlink:title="IBehaviour">
<polygon fill="none" stroke="black" points="170.53,-108 101.53,-108 101.53,-72 170.53,-72 170.53,-108"/>
<text text-anchor="middle" x="136.03" y="-87.5" font-family="Helvetica,sans-Serif" font-size="10.00">IBehaviour</text>
</a>
</g>
</g>
<!-- dir_255a1c7ac9885a37cc02c34b185e13dc&#45;&gt;dir_d415c0d599231354676ceb56dc96abfc -->
<g id="edge6" class="edge">
<title>dir_255a1c7ac9885a37cc02c34b185e13dc&#45;&gt;dir_d415c0d599231354676ceb56dc96abfc</title>
<path fill="none" stroke="black" d="M136.03,-215.87C136.03,-191.67 136.03,-147.21 136.03,-118.39"/>
<polygon fill="black" stroke="black" points="139.53,-118.19 136.03,-108.19 132.53,-118.19 139.53,-118.19"/>
<g id="a_edge6&#45;headlabel"><a xlink:href="dir_000053_000058.html" target="_top" xlink:title="1">
<text text-anchor="middle" x="142.37" y="-119.28" font-family="Helvetica,sans-Serif" font-size="10.00">1</text>
</a>
</g>
</g>
<!-- dir_4d6c489bfc51616ec0a9cc5adedf0045 -->
<g id="node7" class="node">
<title>dir_4d6c489bfc51616ec0a9cc5adedf0045</title>
<g id="a_node7"><a xlink:href="dir_4d6c489bfc51616ec0a9cc5adedf0045.html" target="_top" xlink:title="Scenes">
<polygon fill="none" stroke="black" points="317.03,-252 263.03,-252 263.03,-216 317.03,-216 317.03,-252"/>
<text text-anchor="middle" x="290.03" y="-231.5" font-family="Helvetica,sans-Serif" font-size="10.00">Scenes</text>
</a>
</g>
</g>
<!-- dir_255a1c7ac9885a37cc02c34b185e13dc&#45;&gt;dir_4d6c489bfc51616ec0a9cc5adedf0045 -->
<g id="edge7" class="edge">
<title>dir_255a1c7ac9885a37cc02c34b185e13dc&#45;&gt;dir_4d6c489bfc51616ec0a9cc5adedf0045</title>
<path fill="none" stroke="black" d="M189.27,-234C210.45,-234 231.63,-234 252.81,-234"/>
<polygon fill="black" stroke="black" points="252.87,-237.5 262.87,-234 252.87,-230.5 252.87,-237.5"/>
<g id="a_edge7&#45;headlabel"><a xlink:href="dir_000053_000078.html" target="_top" xlink:title="1">
<text text-anchor="middle" x="249.27" y="-237.84" font-family="Helvetica,sans-Serif" font-size="10.00">1</text>
</a>
</g>
</g>
<!-- dir_436eae144b4bfe579e7df150ba9f667a -->
<g id="node8" class="node">
<title>dir_436eae144b4bfe579e7df150ba9f667a</title>
<g id="a_node8"><a xlink:href="dir_436eae144b4bfe579e7df150ba9f667a.html" target="_top" xlink:title="XML">
<polygon fill="white" stroke="red" points="70.03,-180 16.03,-180 16.03,-144 70.03,-144 70.03,-180"/>
<text text-anchor="middle" x="43.03" y="-159.5" font-family="Helvetica,sans-Serif" font-size="10.00">XML</text>
</a>
</g>
</g>
<!-- dir_255a1c7ac9885a37cc02c34b185e13dc&#45;&gt;dir_436eae144b4bfe579e7df150ba9f667a -->
<g id="edge8" class="edge">
<title>dir_255a1c7ac9885a37cc02c34b185e13dc&#45;&gt;dir_436eae144b4bfe579e7df150ba9f667a</title>
<path fill="none" stroke="black" d="M113.04,-215.7C101.21,-206.8 86.64,-195.82 73.85,-186.2"/>
<polygon fill="black" stroke="black" points="75.85,-183.32 65.75,-180.1 71.64,-188.91 75.85,-183.32"/>
<g id="a_edge8&#45;headlabel"><a xlink:href="dir_000053_000087.html" target="_top" xlink:title="1">
<text text-anchor="middle" x="80.43" y="-180.71" font-family="Helvetica,sans-Serif" font-size="10.00">1</text>
</a>
</g>
</g>
<!-- dir_236e02cd02223a2412f137d7ad85069e&#45;&gt;dir_2e574b6382041dc2a136b1675bed65ad -->
<g id="edge1" class="edge">
<title>dir_236e02cd02223a2412f137d7ad85069e&#45;&gt;dir_2e574b6382041dc2a136b1675bed65ad</title>
<path fill="none" stroke="black" d="M262.26,-71.7C251.79,-62.97 238.92,-52.24 227.53,-42.75"/>
<polygon fill="black" stroke="black" points="229.48,-39.82 219.55,-36.1 224.99,-45.19 229.48,-39.82"/>
<g id="a_edge1&#45;headlabel"><a xlink:href="dir_000074_000005.html" target="_top" xlink:title="2">
<text text-anchor="middle" x="234.05" y="-37.44" font-family="Helvetica,sans-Serif" font-size="10.00">2</text>
</a>
</g>
</g>
<!-- dir_a596cbb2d469ff7139a5bd1a3c9de76d&#45;&gt;dir_2e574b6382041dc2a136b1675bed65ad -->
<g id="edge9" class="edge">
<title>dir_a596cbb2d469ff7139a5bd1a3c9de76d&#45;&gt;dir_2e574b6382041dc2a136b1675bed65ad</title>
<path fill="none" stroke="black" d="M83.2,-74.15C106.42,-63.1 138.17,-47.98 162.56,-36.36"/>
<polygon fill="black" stroke="black" points="164.33,-39.4 171.85,-31.94 161.32,-33.08 164.33,-39.4"/>
<g id="a_edge9&#45;headlabel"><a xlink:href="dir_000040_000005.html" target="_top" xlink:title="1">
<text text-anchor="middle" x="162.3" y="-41.01" font-family="Helvetica,sans-Serif" font-size="10.00">1</text>
</a>
</g>
</g>
<!-- dir_9a9e2b7a8f13e92341bd3030ad46e690&#45;&gt;dir_236e02cd02223a2412f137d7ad85069e -->
<g id="edge10" class="edge">
<title>dir_9a9e2b7a8f13e92341bd3030ad46e690&#45;&gt;dir_236e02cd02223a2412f137d7ad85069e</title>
<path fill="none" stroke="black" d="M216.03,-143.7C227.24,-134.88 241.03,-124.03 253.18,-114.47"/>
<polygon fill="black" stroke="black" points="255.58,-117.04 261.28,-108.1 251.26,-111.54 255.58,-117.04"/>
<g id="a_edge10&#45;headlabel"><a xlink:href="dir_000079_000074.html" target="_top" xlink:title="3">
<text text-anchor="middle" x="254.51" y="-118.99" font-family="Helvetica,sans-Serif" font-size="10.00">3</text>
</a>
</g>
</g>
<!-- dir_9a9e2b7a8f13e92341bd3030ad46e690&#45;&gt;dir_2e574b6382041dc2a136b1675bed65ad -->
<g id="edge11" class="edge">
<title>dir_9a9e2b7a8f13e92341bd3030ad46e690&#45;&gt;dir_2e574b6382041dc2a136b1675bed65ad</title>
<path fill="none" stroke="black" d="M194.63,-143.87C195.48,-119.67 197.05,-75.21 198.06,-46.39"/>
<polygon fill="black" stroke="black" points="201.57,-46.31 198.42,-36.19 194.57,-46.06 201.57,-46.31"/>
<g id="a_edge11&#45;headlabel"><a xlink:href="dir_000079_000005.html" target="_top" xlink:title="5">
<text text-anchor="middle" x="204.28" y="-47.5" font-family="Helvetica,sans-Serif" font-size="10.00">5</text>
</a>
</g>
</g>
<!-- dir_9a9e2b7a8f13e92341bd3030ad46e690&#45;&gt;dir_a596cbb2d469ff7139a5bd1a3c9de76d -->
<g id="edge12" class="edge">
<title>dir_9a9e2b7a8f13e92341bd3030ad46e690&#45;&gt;dir_a596cbb2d469ff7139a5bd1a3c9de76d</title>
<path fill="none" stroke="black" d="M164.26,-146.33C143.39,-136.04 115.24,-122.16 92.36,-110.88"/>
<polygon fill="black" stroke="black" points="93.75,-107.66 83.23,-106.38 90.65,-113.94 93.75,-107.66"/>
<g id="a_edge12&#45;headlabel"><a xlink:href="dir_000079_000040.html" target="_top" xlink:title="2">
<text text-anchor="middle" x="98.23" y="-104.21" font-family="Helvetica,sans-Serif" font-size="10.00">2</text>
</a>
</g>
</g>
<!-- dir_9a9e2b7a8f13e92341bd3030ad46e690&#45;&gt;dir_d415c0d599231354676ceb56dc96abfc -->
<g id="edge13" class="edge">
<title>dir_9a9e2b7a8f13e92341bd3030ad46e690&#45;&gt;dir_d415c0d599231354676ceb56dc96abfc</title>
<path fill="none" stroke="black" d="M179.69,-143.7C172.74,-135.3 164.26,-125.07 156.63,-115.86"/>
<polygon fill="black" stroke="black" points="159.27,-113.57 150.2,-108.1 153.88,-118.04 159.27,-113.57"/>
<g id="a_edge13&#45;headlabel"><a xlink:href="dir_000079_000058.html" target="_top" xlink:title="2">
<text text-anchor="middle" x="163.75" y="-112.03" font-family="Helvetica,sans-Serif" font-size="10.00">2</text>
</a>
</g>
</g>
<!-- dir_4d6c489bfc51616ec0a9cc5adedf0045&#45;&gt;dir_255a1c7ac9885a37cc02c34b185e13dc -->
<g id="edge16" class="edge">
<title>dir_4d6c489bfc51616ec0a9cc5adedf0045&#45;&gt;dir_255a1c7ac9885a37cc02c34b185e13dc</title>
<path fill="none" stroke="black" d="M262.87,-234C241.69,-234 220.51,-234 199.33,-234"/>
<polygon fill="black" stroke="black" points="199.27,-230.5 189.27,-234 199.27,-237.5 199.27,-230.5"/>
<g id="a_edge16&#45;headlabel"><a xlink:href="dir_000078_000053.html" target="_top" xlink:title="1">
<text text-anchor="middle" x="202.86" y="-225.16" font-family="Helvetica,sans-Serif" font-size="10.00">1</text>
</a>
</g>
</g>
<!-- dir_4d6c489bfc51616ec0a9cc5adedf0045&#45;&gt;dir_236e02cd02223a2412f137d7ad85069e -->
<g id="edge14" class="edge">
<title>dir_4d6c489bfc51616ec0a9cc5adedf0045&#45;&gt;dir_236e02cd02223a2412f137d7ad85069e</title>
<path fill="none" stroke="black" d="M296.23,-215.88C301.91,-197.92 308.78,-168.89 304.03,-144 302.32,-135.06 299.13,-125.7 295.74,-117.37"/>
<polygon fill="black" stroke="black" points="298.94,-115.95 291.75,-108.17 292.51,-118.73 298.94,-115.95"/>
<g id="a_edge14&#45;headlabel"><a xlink:href="dir_000078_000074.html" target="_top" xlink:title="1">
<text text-anchor="middle" x="302.97" y="-115.62" font-family="Helvetica,sans-Serif" font-size="10.00">1</text>
</a>
</g>
</g>
<!-- dir_4d6c489bfc51616ec0a9cc5adedf0045&#45;&gt;dir_2e574b6382041dc2a136b1675bed65ad -->
<g id="edge15" class="edge">
<title>dir_4d6c489bfc51616ec0a9cc5adedf0045&#45;&gt;dir_2e574b6382041dc2a136b1675bed65ad</title>
<path fill="none" stroke="black" d="M306.09,-215.61C332.86,-184.47 380.57,-118.12 348.03,-72 322.99,-36.52 272.03,-24.65 236.73,-20.76"/>
<polygon fill="black" stroke="black" points="236.6,-17.23 226.32,-19.79 235.95,-24.2 236.6,-17.23"/>
<g id="a_edge15&#45;headlabel"><a xlink:href="dir_000078_000005.html" target="_top" xlink:title="8">
<text text-anchor="middle" x="240.44" y="-12.24" font-family="Helvetica,sans-Serif" font-size="10.00">8</text>
</a>
</g>
</g>
<!-- dir_4d6c489bfc51616ec0a9cc5adedf0045&#45;&gt;dir_9a9e2b7a8f13e92341bd3030ad46e690 -->
<g id="edge17" class="edge">
<title>dir_4d6c489bfc51616ec0a9cc5adedf0045&#45;&gt;dir_9a9e2b7a8f13e92341bd3030ad46e690</title>
<path fill="none" stroke="black" d="M266.3,-215.7C254.09,-206.8 239.04,-195.82 225.84,-186.2"/>
<polygon fill="black" stroke="black" points="227.63,-183.17 217.48,-180.1 223.5,-188.82 227.63,-183.17"/>
<g id="a_edge17&#45;headlabel"><a xlink:href="dir_000078_000079.html" target="_top" xlink:title="3">
<text text-anchor="middle" x="232.2" y="-180.49" font-family="Helvetica,sans-Serif" font-size="10.00">3</text>
</a>
</g>
</g>
<!-- dir_4d6c489bfc51616ec0a9cc5adedf0045&#45;&gt;dir_d415c0d599231354676ceb56dc96abfc -->
<g id="edge18" class="edge">
<title>dir_4d6c489bfc51616ec0a9cc5adedf0045&#45;&gt;dir_d415c0d599231354676ceb56dc96abfc</title>
<path fill="none" stroke="black" d="M282.27,-215.79C272.86,-196.41 255.44,-164.9 233.03,-144 217.61,-129.62 197.57,-117.82 179.7,-109.04"/>
<polygon fill="black" stroke="black" points="181.13,-105.84 170.59,-104.72 178.13,-112.17 181.13,-105.84"/>
<g id="a_edge18&#45;headlabel"><a xlink:href="dir_000078_000058.html" target="_top" xlink:title="2">
<text text-anchor="middle" x="185.59" y="-102.32" font-family="Helvetica,sans-Serif" font-size="10.00">2</text>
</a>
</g>
</g>
</g>
</svg>
