<?xml version="1.0" encoding="UTF-8" standalone="no"?>
<!DOCTYPE svg PUBLIC "-//W3C//DTD SVG 1.1//EN"
 "http://www.w3.org/Graphics/SVG/1.1/DTD/svg11.dtd">
<!-- Generated by graphviz version 2.43.0 (0)
 -->
<!-- Title: Libs/Engine/tests Pages: 1 -->
<svg width="185pt" height="295pt"
 viewBox="0.00 0.00 185.30 295.00" xmlns="http://www.w3.org/2000/svg" xmlns:xlink="http://www.w3.org/1999/xlink">
<g id="graph0" class="graph" transform="scale(1 1) rotate(0) translate(4 291)">
<title>Libs/Engine/tests</title>
<polygon fill="white" stroke="transparent" points="-4,4 -4,-291 181.3,-291 181.3,4 -4,4"/>
<g id="clust1" class="cluster">
<title>clusterdir_2bfc07ec199f106d892954a69be8200a</title>
<g id="a_clust1"><a xlink:href="dir_2bfc07ec199f106d892954a69be8200a.html" target="_top" xlink:title="Engine">
<polygon fill="#ddddee" stroke="black" points="32.3,-208 32.3,-279 102.3,-279 102.3,-208 32.3,-208"/>
<text text-anchor="middle" x="67.3" y="-267" font-family="Helvetica,sans-Serif" font-size="10.00">Engine</text>
</a>
</g>
</g>
<!-- dir_7a2d12546a5d2d9d9aea2001147ef0f9 -->
<g id="node1" class="node">
<title>dir_7a2d12546a5d2d9d9aea2001147ef0f9</title>
<g id="a_node1"><a xlink:href="dir_7a2d12546a5d2d9d9aea2001147ef0f9.html" target="_top" xlink:title="tests">
<polygon fill="#eeeeff" stroke="black" points="94.3,-252 40.3,-252 40.3,-216 94.3,-216 94.3,-252"/>
<text text-anchor="middle" x="67.3" y="-231.5" font-family="Helvetica,sans-Serif" font-size="10.00">tests</text>
</a>
</g>
</g>
<!-- dir_39e02a65a8e8da5bae3d3dbe68a49458 -->
<g id="node2" class="node">
<title>dir_39e02a65a8e8da5bae3d3dbe68a49458</title>
<g id="a_node2"><a xlink:href="dir_39e02a65a8e8da5bae3d3dbe68a49458.html" target="_top" xlink:title="XMLGenerator">
<polygon fill="white" stroke="red" points="110.3,-36 24.3,-36 24.3,0 110.3,0 110.3,-36"/>
<text text-anchor="middle" x="67.3" y="-15.5" font-family="Helvetica,sans-Serif" font-size="10.00">XMLGenerator</text>
</a>
</g>
</g>
<!-- dir_7a2d12546a5d2d9d9aea2001147ef0f9&#45;&gt;dir_39e02a65a8e8da5bae3d3dbe68a49458 -->
<g id="edge1" class="edge">
<title>dir_7a2d12546a5d2d9d9aea2001147ef0f9&#45;&gt;dir_39e02a65a8e8da5bae3d3dbe68a49458</title>
<path fill="none" stroke="black" d="M55.33,-215.8C39.97,-192.6 14.14,-149.37 4.3,-108 0.6,-92.43 -2.45,-86.51 4.3,-72 9.73,-60.34 19.12,-50.34 29.02,-42.26"/>
<polygon fill="black" stroke="black" points="31.15,-45.03 37,-36.2 26.92,-39.45 31.15,-45.03"/>
<g id="a_edge1&#45;headlabel"><a xlink:href="dir_000089_000007.html" target="_top" xlink:title="1">
<text text-anchor="middle" x="30.01" y="-46.96" font-family="Helvetica,sans-Serif" font-size="10.00">1</text>
</a>
</g>
</g>
<!-- dir_2e574b6382041dc2a136b1675bed65ad -->
<g id="node3" class="node">
<title>dir_2e574b6382041dc2a136b1675bed65ad</title>
<g id="a_node3"><a xlink:href="dir_2e574b6382041dc2a136b1675bed65ad.html" target="_top" xlink:title="RayLib">
<polygon fill="white" stroke="red" points="67.3,-108 13.3,-108 13.3,-72 67.3,-72 67.3,-108"/>
<text text-anchor="middle" x="40.3" y="-87.5" font-family="Helvetica,sans-Serif" font-size="10.00">RayLib</text>
</a>
</g>
</g>
<!-- dir_7a2d12546a5d2d9d9aea2001147ef0f9&#45;&gt;dir_2e574b6382041dc2a136b1675bed65ad -->
<g id="edge2" class="edge">
<title>dir_7a2d12546a5d2d9d9aea2001147ef0f9&#45;&gt;dir_2e574b6382041dc2a136b1675bed65ad</title>
<path fill="none" stroke="black" d="M64.04,-215.87C59.44,-191.67 50.99,-147.21 45.51,-118.39"/>
<polygon fill="black" stroke="black" points="48.88,-117.36 43.57,-108.19 42,-118.67 48.88,-117.36"/>
<g id="a_edge2&#45;headlabel"><a xlink:href="dir_000089_000005.html" target="_top" xlink:title="3">
<text text-anchor="middle" x="52.34" y="-117.86" font-family="Helvetica,sans-Serif" font-size="10.00">3</text>
</a>
</g>
</g>
<!-- dir_4a120dbb11348b2823d2a12dcab2f1e3 -->
<g id="node4" class="node">
<title>dir_4a120dbb11348b2823d2a12dcab2f1e3</title>
<g id="a_node4"><a xlink:href="dir_4a120dbb11348b2823d2a12dcab2f1e3.html" target="_top" xlink:title="ECS">
<polygon fill="white" stroke="red" points="177.3,-108 123.3,-108 123.3,-72 177.3,-72 177.3,-108"/>
<text text-anchor="middle" x="150.3" y="-87.5" font-family="Helvetica,sans-Serif" font-size="10.00">ECS</text>
</a>
</g>
</g>
<!-- dir_7a2d12546a5d2d9d9aea2001147ef0f9&#45;&gt;dir_4a120dbb11348b2823d2a12dcab2f1e3 -->
<g id="edge3" class="edge">
<title>dir_7a2d12546a5d2d9d9aea2001147ef0f9&#45;&gt;dir_4a120dbb11348b2823d2a12dcab2f1e3</title>
<path fill="none" stroke="black" d="M94.38,-216.78C107.46,-207.59 122.26,-194.93 131.3,-180 142.59,-161.36 147.23,-136.97 149.11,-118.44"/>
<polygon fill="black" stroke="black" points="152.61,-118.54 149.93,-108.29 145.64,-117.98 152.61,-118.54"/>
<g id="a_edge3&#45;headlabel"><a xlink:href="dir_000089_000002.html" target="_top" xlink:title="1">
<text text-anchor="middle" x="155.16" y="-119.85" font-family="Helvetica,sans-Serif" font-size="10.00">1</text>
</a>
</g>
</g>
<!-- dir_12f21af94f7aa2f818b030247191ed7e -->
<g id="node5" class="node">
<title>dir_12f21af94f7aa2f818b030247191ed7e</title>
<g id="a_node5"><a xlink:href="dir_12f21af94f7aa2f818b030247191ed7e.html" target="_top" xlink:title="sources">
<polygon fill="white" stroke="red" points="122.3,-180 68.3,-180 68.3,-144 122.3,-144 122.3,-180"/>
<text text-anchor="middle" x="95.3" y="-159.5" font-family="Helvetica,sans-Serif" font-size="10.00">sources</text>
</a>
</g>
</g>
<!-- dir_7a2d12546a5d2d9d9aea2001147ef0f9&#45;&gt;dir_12f21af94f7aa2f818b030247191ed7e -->
<g id="edge4" class="edge">
<title>dir_7a2d12546a5d2d9d9aea2001147ef0f9&#45;&gt;dir_12f21af94f7aa2f818b030247191ed7e</title>
<path fill="none" stroke="black" d="M74.22,-215.7C77.38,-207.81 81.18,-198.3 84.68,-189.55"/>
<polygon fill="black" stroke="black" points="88,-190.69 88.46,-180.1 81.5,-188.09 88,-190.69"/>
<g id="a_edge4&#45;headlabel"><a xlink:href="dir_000089_000034.html" target="_top" xlink:title="4">
<text text-anchor="middle" x="89.3" y="-192.58" font-family="Helvetica,sans-Serif" font-size="10.00">4</text>
</a>
</g>
</g>
<!-- dir_2e574b6382041dc2a136b1675bed65ad&#45;&gt;dir_39e02a65a8e8da5bae3d3dbe68a49458 -->
<g id="edge5" class="edge">
<title>dir_2e574b6382041dc2a136b1675bed65ad&#45;&gt;dir_39e02a65a8e8da5bae3d3dbe68a49458</title>
<path fill="none" stroke="black" d="M46.98,-71.7C50.02,-63.81 53.68,-54.3 57.06,-45.55"/>
<polygon fill="black" stroke="black" points="60.37,-46.69 60.7,-36.1 53.84,-44.17 60.37,-46.69"/>
<g id="a_edge5&#45;headlabel"><a xlink:href="dir_000005_000007.html" target="_top" xlink:title="2">
<text text-anchor="middle" x="61.73" y="-48.57" font-family="Helvetica,sans-Serif" font-size="10.00">2</text>
</a>
</g>
</g>
<!-- dir_4a120dbb11348b2823d2a12dcab2f1e3&#45;&gt;dir_39e02a65a8e8da5bae3d3dbe68a49458 -->
<g id="edge6" class="edge">
<title>dir_4a120dbb11348b2823d2a12dcab2f1e3&#45;&gt;dir_39e02a65a8e8da5bae3d3dbe68a49458</title>
<path fill="none" stroke="black" d="M129.78,-71.7C119.43,-62.97 106.72,-52.24 95.46,-42.75"/>
<polygon fill="black" stroke="black" points="97.48,-39.88 87.58,-36.1 92.97,-45.23 97.48,-39.88"/>
<g id="a_edge6&#45;headlabel"><a xlink:href="dir_000002_000007.html" target="_top" xlink:title="1">
<text text-anchor="middle" x="102.06" y="-37.52" font-family="Helvetica,sans-Serif" font-size="10.00">1</text>
</a>
</g>
</g>
<!-- dir_12f21af94f7aa2f818b030247191ed7e&#45;&gt;dir_39e02a65a8e8da5bae3d3dbe68a49458 -->
<g id="edge7" class="edge">
<title>dir_12f21af94f7aa2f818b030247191ed7e&#45;&gt;dir_39e02a65a8e8da5bae3d3dbe68a49458</title>
<path fill="none" stroke="black" d="M91.92,-143.87C87.13,-119.56 78.31,-74.82 72.63,-46.01"/>
<polygon fill="black" stroke="black" points="76.06,-45.32 70.69,-36.19 69.19,-46.68 76.06,-45.32"/>
<g id="a_edge7&#45;headlabel"><a xlink:href="dir_000034_000007.html" target="_top" xlink:title="1">
<text text-anchor="middle" x="79.54" y="-45.8" font-family="Helvetica,sans-Serif" font-size="10.00">1</text>
</a>
</g>
</g>
<!-- dir_12f21af94f7aa2f818b030247191ed7e&#45;&gt;dir_2e574b6382041dc2a136b1675bed65ad -->
<g id="edge8" class="edge">
<title>dir_12f21af94f7aa2f818b030247191ed7e&#45;&gt;dir_2e574b6382041dc2a136b1675bed65ad</title>
<path fill="none" stroke="black" d="M81.71,-143.7C75.18,-135.39 67.23,-125.28 60.05,-116.14"/>
<polygon fill="black" stroke="black" points="62.67,-113.81 53.74,-108.1 57.17,-118.13 62.67,-113.81"/>
<g id="a_edge8&#45;headlabel"><a xlink:href="dir_000034_000005.html" target="_top" xlink:title="83">
<text text-anchor="middle" x="67.12" y="-112.38" font-family="Helvetica,sans-Serif" font-size="10.00">83</text>
</a>
</g>
</g>
<!-- dir_12f21af94f7aa2f818b030247191ed7e&#45;&gt;dir_4a120dbb11348b2823d2a12dcab2f1e3 -->
<g id="edge9" class="edge">
<title>dir_12f21af94f7aa2f818b030247191ed7e&#45;&gt;dir_4a120dbb11348b2823d2a12dcab2f1e3</title>
<path fill="none" stroke="black" d="M108.9,-143.7C115.42,-135.39 123.37,-125.28 130.55,-116.14"/>
<polygon fill="black" stroke="black" points="133.44,-118.13 136.86,-108.1 127.93,-113.81 133.44,-118.13"/>
<g id="a_edge9&#45;headlabel"><a xlink:href="dir_000034_000002.html" target="_top" xlink:title="59">
<text text-anchor="middle" x="133.45" y="-120.21" font-family="Helvetica,sans-Serif" font-size="10.00">59</text>
</a>
</g>
</g>
</g>
</svg>
