<?xml version="1.0" encoding="UTF-8" standalone="no"?>
<!DOCTYPE svg PUBLIC "-//W3C//DTD SVG 1.1//EN"
 "http://www.w3.org/Graphics/SVG/1.1/DTD/svg11.dtd">
<!-- Generated by graphviz version 2.43.0 (0)
 -->
<!-- Title: Libs/Engine/sources/AssetManager/AssetCache Pages: 1 -->
<svg width="150pt" height="151pt"
 viewBox="0.00 0.00 150.00 151.00" xmlns="http://www.w3.org/2000/svg" xmlns:xlink="http://www.w3.org/1999/xlink">
<g id="graph0" class="graph" transform="scale(1 1) rotate(0) translate(4 147)">
<title>Libs/Engine/sources/AssetManager/AssetCache</title>
<polygon fill="white" stroke="transparent" points="-4,4 -4,-147 146,-147 146,4 -4,4"/>
<g id="clust1" class="cluster">
<title>clusterdir_ba9f96492b222561776079c293f18c0c</title>
<g id="a_clust1"><a xlink:href="dir_ba9f96492b222561776079c293f18c0c.html" target="_top" xlink:title="AssetManager">
<polygon fill="#ddddee" stroke="black" points="22,-64 22,-135 112,-135 112,-64 22,-64"/>
<text text-anchor="middle" x="67" y="-123" font-family="Helvetica,sans-Serif" font-size="10.00">AssetManager</text>
</a>
</g>
</g>
<!-- dir_3ab1e85ac631d28661d2364efae7be9f -->
<g id="node1" class="node">
<title>dir_3ab1e85ac631d28661d2364efae7be9f</title>
<g id="a_node1"><a xlink:href="dir_3ab1e85ac631d28661d2364efae7be9f.html" target="_top" xlink:title="AssetCache">
<polygon fill="#eeeeff" stroke="black" points="104,-108 30,-108 30,-72 104,-72 104,-108"/>
<text text-anchor="middle" x="67" y="-87.5" font-family="Helvetica,sans-Serif" font-size="10.00">AssetCache</text>
</a>
</g>
</g>
<!-- dir_2e574b6382041dc2a136b1675bed65ad -->
<g id="node2" class="node">
<title>dir_2e574b6382041dc2a136b1675bed65ad</title>
<g id="a_node2"><a xlink:href="dir_2e574b6382041dc2a136b1675bed65ad.html" target="_top" xlink:title="RayLib">
<polygon fill="white" stroke="red" points="54,-36 0,-36 0,0 54,0 54,-36"/>
<text text-anchor="middle" x="27" y="-15.5" font-family="Helvetica,sans-Serif" font-size="10.00">RayLib</text>
</a>
</g>
</g>
<!-- dir_3ab1e85ac631d28661d2364efae7be9f&#45;&gt;dir_2e574b6382041dc2a136b1675bed65ad -->
<g id="edge1" class="edge">
<title>dir_3ab1e85ac631d28661d2364efae7be9f&#45;&gt;dir_2e574b6382041dc2a136b1675bed65ad</title>
<path fill="none" stroke="black" d="M57.11,-71.7C52.51,-63.64 46.94,-53.89 41.85,-44.98"/>
<polygon fill="black" stroke="black" points="44.77,-43.05 36.77,-36.1 38.7,-46.52 44.77,-43.05"/>
<g id="a_edge1&#45;headlabel"><a xlink:href="dir_000036_000005.html" target="_top" xlink:title="1">
<text text-anchor="middle" x="49.02" y="-42.26" font-family="Helvetica,sans-Serif" font-size="10.00">1</text>
</a>
</g>
</g>
<!-- dir_c5543cdc84e26c6148bf8505a526aef1 -->
<g id="node3" class="node">
<title>dir_c5543cdc84e26c6148bf8505a526aef1</title>
<g id="a_node3"><a xlink:href="dir_c5543cdc84e26c6148bf8505a526aef1.html" target="_top" xlink:title="Exceptions">
<polygon fill="none" stroke="black" points="142,-36 72,-36 72,0 142,0 142,-36"/>
<text text-anchor="middle" x="107" y="-15.5" font-family="Helvetica,sans-Serif" font-size="10.00">Exceptions</text>
</a>
</g>
</g>
<!-- dir_3ab1e85ac631d28661d2364efae7be9f&#45;&gt;dir_c5543cdc84e26c6148bf8505a526aef1 -->
<g id="edge2" class="edge">
<title>dir_3ab1e85ac631d28661d2364efae7be9f&#45;&gt;dir_c5543cdc84e26c6148bf8505a526aef1</title>
<path fill="none" stroke="black" d="M76.89,-71.7C81.49,-63.64 87.06,-53.89 92.15,-44.98"/>
<polygon fill="black" stroke="black" points="95.3,-46.52 97.23,-36.1 89.23,-43.05 95.3,-46.52"/>
<g id="a_edge2&#45;headlabel"><a xlink:href="dir_000036_000073.html" target="_top" xlink:title="1">
<text text-anchor="middle" x="95.99" y="-48.55" font-family="Helvetica,sans-Serif" font-size="10.00">1</text>
</a>
</g>
</g>
</g>
</svg>
