<?xml version="1.0" encoding="UTF-8" standalone="no"?>
<!DOCTYPE svg PUBLIC "-//W3C//DTD SVG 1.1//EN"
 "http://www.w3.org/Graphics/SVG/1.1/DTD/svg11.dtd">
<!-- Generated by graphviz version 2.43.0 (0)
 -->
<!-- Title: Libs/RayLib/sources/Physics2D Pages: 1 -->
<svg width="222pt" height="295pt"
 viewBox="0.00 0.00 221.50 295.00" xmlns="http://www.w3.org/2000/svg" xmlns:xlink="http://www.w3.org/1999/xlink">
<g id="graph0" class="graph" transform="scale(1 1) rotate(0) translate(4 291)">
<title>Libs/RayLib/sources/Physics2D</title>
<polygon fill="white" stroke="transparent" points="-4,4 -4,-291 217.5,-291 217.5,4 -4,4"/>
<g id="clust1" class="cluster">
<title>clusterdir_b58f5cbef52144281201f92199ca772f</title>
<g id="a_clust1"><a xlink:href="dir_b58f5cbef52144281201f92199ca772f.html" target="_top" xlink:title="sources">
<polygon fill="#ddddee" stroke="black" points="59,-208 59,-279 143,-279 143,-208 59,-208"/>
<text text-anchor="middle" x="101" y="-267" font-family="Helvetica,sans-Serif" font-size="10.00">sources</text>
</a>
</g>
</g>
<!-- dir_b36e48d4bf962b6f3a193b8a6cb59c69 -->
<g id="node1" class="node">
<title>dir_b36e48d4bf962b6f3a193b8a6cb59c69</title>
<g id="a_node1"><a xlink:href="dir_b36e48d4bf962b6f3a193b8a6cb59c69.html" target="_top" xlink:title="Physics2D">
<polygon fill="#eeeeff" stroke="black" points="134.5,-252 67.5,-252 67.5,-216 134.5,-216 134.5,-252"/>
<text text-anchor="middle" x="101" y="-231.5" font-family="Helvetica,sans-Serif" font-size="10.00">Physics2D</text>
</a>
</g>
</g>
<!-- dir_9ea12aeec975b84c873d1f68b760c2ca -->
<g id="node2" class="node">
<title>dir_9ea12aeec975b84c873d1f68b760c2ca</title>
<g id="a_node2"><a xlink:href="dir_9ea12aeec975b84c873d1f68b760c2ca.html" target="_top" xlink:title="Circle">
<polygon fill="none" stroke="black" points="54,-180 0,-180 0,-144 54,-144 54,-180"/>
<text text-anchor="middle" x="27" y="-159.5" font-family="Helvetica,sans-Serif" font-size="10.00">Circle</text>
</a>
</g>
</g>
<!-- dir_b36e48d4bf962b6f3a193b8a6cb59c69&#45;&gt;dir_9ea12aeec975b84c873d1f68b760c2ca -->
<g id="edge3" class="edge">
<title>dir_b36e48d4bf962b6f3a193b8a6cb59c69&#45;&gt;dir_9ea12aeec975b84c873d1f68b760c2ca</title>
<path fill="none" stroke="black" d="M82.71,-215.7C73.57,-207.05 62.36,-196.45 52.4,-187.03"/>
<polygon fill="black" stroke="black" points="54.75,-184.43 45.08,-180.1 49.94,-189.52 54.75,-184.43"/>
<g id="a_edge3&#45;headlabel"><a xlink:href="dir_000109_000098.html" target="_top" xlink:title="1">
<text text-anchor="middle" x="59.31" y="-182.34" font-family="Helvetica,sans-Serif" font-size="10.00">1</text>
</a>
</g>
</g>
<!-- dir_42ef1f57a2f22e94d8ccc109a0fc3cde -->
<g id="node3" class="node">
<title>dir_42ef1f57a2f22e94d8ccc109a0fc3cde</title>
<g id="a_node3"><a xlink:href="dir_42ef1f57a2f22e94d8ccc109a0fc3cde.html" target="_top" xlink:title="Vector3">
<polygon fill="none" stroke="black" points="119,-36 65,-36 65,0 119,0 119,-36"/>
<text text-anchor="middle" x="92" y="-15.5" font-family="Helvetica,sans-Serif" font-size="10.00">Vector3</text>
</a>
</g>
</g>
<!-- dir_b36e48d4bf962b6f3a193b8a6cb59c69&#45;&gt;dir_42ef1f57a2f22e94d8ccc109a0fc3cde -->
<g id="edge4" class="edge">
<title>dir_b36e48d4bf962b6f3a193b8a6cb59c69&#45;&gt;dir_42ef1f57a2f22e94d8ccc109a0fc3cde</title>
<path fill="none" stroke="black" d="M101.96,-215.57C103.37,-185.98 105.39,-124.08 101,-72 100.28,-63.5 98.93,-54.31 97.49,-46.01"/>
<polygon fill="black" stroke="black" points="100.91,-45.29 95.65,-36.09 94.03,-46.56 100.91,-45.29"/>
<g id="a_edge4&#45;headlabel"><a xlink:href="dir_000109_000119.html" target="_top" xlink:title="1">
<text text-anchor="middle" x="104.36" y="-45.81" font-family="Helvetica,sans-Serif" font-size="10.00">1</text>
</a>
</g>
</g>
<!-- dir_e5ddc3b8247be52796b2c5c9f83f8e6d -->
<g id="node4" class="node">
<title>dir_e5ddc3b8247be52796b2c5c9f83f8e6d</title>
<g id="a_node4"><a xlink:href="dir_e5ddc3b8247be52796b2c5c9f83f8e6d.html" target="_top" xlink:title="Vector2">
<polygon fill="none" stroke="black" points="92,-108 38,-108 38,-72 92,-72 92,-108"/>
<text text-anchor="middle" x="65" y="-87.5" font-family="Helvetica,sans-Serif" font-size="10.00">Vector2</text>
</a>
</g>
</g>
<!-- dir_b36e48d4bf962b6f3a193b8a6cb59c69&#45;&gt;dir_e5ddc3b8247be52796b2c5c9f83f8e6d -->
<g id="edge5" class="edge">
<title>dir_b36e48d4bf962b6f3a193b8a6cb59c69&#45;&gt;dir_e5ddc3b8247be52796b2c5c9f83f8e6d</title>
<path fill="none" stroke="black" d="M96.66,-215.87C90.5,-191.56 79.15,-146.82 71.85,-118.01"/>
<polygon fill="black" stroke="black" points="75.21,-117.02 69.36,-108.19 68.42,-118.74 75.21,-117.02"/>
<g id="a_edge5&#45;headlabel"><a xlink:href="dir_000109_000118.html" target="_top" xlink:title="1">
<text text-anchor="middle" x="78.84" y="-117.31" font-family="Helvetica,sans-Serif" font-size="10.00">1</text>
</a>
</g>
</g>
<!-- dir_7cbdec24ebb6028a5824c2da4cbe28fb -->
<g id="node5" class="node">
<title>dir_7cbdec24ebb6028a5824c2da4cbe28fb</title>
<g id="a_node5"><a xlink:href="dir_7cbdec24ebb6028a5824c2da4cbe28fb.html" target="_top" xlink:title="Rectangle">
<polygon fill="none" stroke="black" points="213.5,-180 148.5,-180 148.5,-144 213.5,-144 213.5,-180"/>
<text text-anchor="middle" x="181" y="-159.5" font-family="Helvetica,sans-Serif" font-size="10.00">Rectangle</text>
</a>
</g>
</g>
<!-- dir_b36e48d4bf962b6f3a193b8a6cb59c69&#45;&gt;dir_7cbdec24ebb6028a5824c2da4cbe28fb -->
<g id="edge6" class="edge">
<title>dir_b36e48d4bf962b6f3a193b8a6cb59c69&#45;&gt;dir_7cbdec24ebb6028a5824c2da4cbe28fb</title>
<path fill="none" stroke="black" d="M120.78,-215.7C130.75,-206.97 143.01,-196.24 153.86,-186.75"/>
<polygon fill="black" stroke="black" points="156.23,-189.32 161.45,-180.1 151.62,-184.06 156.23,-189.32"/>
<g id="a_edge6&#45;headlabel"><a xlink:href="dir_000109_000112.html" target="_top" xlink:title="1">
<text text-anchor="middle" x="155.4" y="-191.33" font-family="Helvetica,sans-Serif" font-size="10.00">1</text>
</a>
</g>
</g>
<!-- dir_9ea12aeec975b84c873d1f68b760c2ca&#45;&gt;dir_e5ddc3b8247be52796b2c5c9f83f8e6d -->
<g id="edge1" class="edge">
<title>dir_9ea12aeec975b84c873d1f68b760c2ca&#45;&gt;dir_e5ddc3b8247be52796b2c5c9f83f8e6d</title>
<path fill="none" stroke="black" d="M36.39,-143.7C40.76,-135.64 46.06,-125.89 50.9,-116.98"/>
<polygon fill="black" stroke="black" points="54.02,-118.56 55.71,-108.1 47.87,-115.22 54.02,-118.56"/>
<g id="a_edge1&#45;headlabel"><a xlink:href="dir_000098_000118.html" target="_top" xlink:title="1">
<text text-anchor="middle" x="54.8" y="-120.58" font-family="Helvetica,sans-Serif" font-size="10.00">1</text>
</a>
</g>
</g>
<!-- dir_e5ddc3b8247be52796b2c5c9f83f8e6d&#45;&gt;dir_42ef1f57a2f22e94d8ccc109a0fc3cde -->
<g id="edge2" class="edge">
<title>dir_e5ddc3b8247be52796b2c5c9f83f8e6d&#45;&gt;dir_42ef1f57a2f22e94d8ccc109a0fc3cde</title>
<path fill="none" stroke="black" d="M71.67,-71.7C74.71,-63.81 78.38,-54.3 81.76,-45.55"/>
<polygon fill="black" stroke="black" points="85.07,-46.69 85.4,-36.1 78.54,-44.17 85.07,-46.69"/>
<g id="a_edge2&#45;headlabel"><a xlink:href="dir_000118_000119.html" target="_top" xlink:title="1">
<text text-anchor="middle" x="86.42" y="-48.57" font-family="Helvetica,sans-Serif" font-size="10.00">1</text>
</a>
</g>
</g>
</g>
</svg>
