<?xml version="1.0" encoding="UTF-8" standalone="no"?>
<!DOCTYPE svg PUBLIC "-//W3C//DTD SVG 1.1//EN"
 "http://www.w3.org/Graphics/SVG/1.1/DTD/svg11.dtd">
<!-- Generated by graphviz version 2.43.0 (0)
 -->
<!-- Title: Libs/Engine/sources/Components/TextBoxCallback Pages: 1 -->
<svg width="158pt" height="223pt"
 viewBox="0.00 0.00 157.50 223.00" xmlns="http://www.w3.org/2000/svg" xmlns:xlink="http://www.w3.org/1999/xlink">
<g id="graph0" class="graph" transform="scale(1 1) rotate(0) translate(4 219)">
<title>Libs/Engine/sources/Components/TextBoxCallback</title>
<polygon fill="white" stroke="transparent" points="-4,4 -4,-219 153.5,-219 153.5,4 -4,4"/>
<g id="clust1" class="cluster">
<title>clusterdir_e1b125331ccfd7597fbda9d04ae41b2d</title>
<g id="a_clust1"><a xlink:href="dir_e1b125331ccfd7597fbda9d04ae41b2d.html" target="_top" xlink:title="Components">
<polygon fill="#ddddee" stroke="black" points="10,-136 10,-207 124,-207 124,-136 10,-136"/>
<text text-anchor="middle" x="67" y="-195" font-family="Helvetica,sans-Serif" font-size="10.00">Components</text>
</a>
</g>
</g>
<!-- dir_e26a506b42ddf4b18a9955498ca1fa1e -->
<g id="node1" class="node">
<title>dir_e26a506b42ddf4b18a9955498ca1fa1e</title>
<g id="a_node1"><a xlink:href="dir_e26a506b42ddf4b18a9955498ca1fa1e.html" target="_top" xlink:title="TextBoxCallback">
<polygon fill="#eeeeff" stroke="black" points="116,-180 18,-180 18,-144 116,-144 116,-180"/>
<text text-anchor="middle" x="67" y="-159.5" font-family="Helvetica,sans-Serif" font-size="10.00">TextBoxCallback</text>
</a>
</g>
</g>
<!-- dir_2e574b6382041dc2a136b1675bed65ad -->
<g id="node2" class="node">
<title>dir_2e574b6382041dc2a136b1675bed65ad</title>
<g id="a_node2"><a xlink:href="dir_2e574b6382041dc2a136b1675bed65ad.html" target="_top" xlink:title="RayLib">
<polygon fill="white" stroke="red" points="54,-36 0,-36 0,0 54,0 54,-36"/>
<text text-anchor="middle" x="27" y="-15.5" font-family="Helvetica,sans-Serif" font-size="10.00">RayLib</text>
</a>
</g>
</g>
<!-- dir_e26a506b42ddf4b18a9955498ca1fa1e&#45;&gt;dir_2e574b6382041dc2a136b1675bed65ad -->
<g id="edge1" class="edge">
<title>dir_e26a506b42ddf4b18a9955498ca1fa1e&#45;&gt;dir_2e574b6382041dc2a136b1675bed65ad</title>
<path fill="none" stroke="black" d="M51.14,-143.79C43.22,-134.05 34.4,-121.2 30,-108 23.37,-88.11 22.93,-64.31 23.97,-46.33"/>
<polygon fill="black" stroke="black" points="27.47,-46.48 24.75,-36.24 20.49,-45.94 27.47,-46.48"/>
<g id="a_edge1&#45;headlabel"><a xlink:href="dir_000069_000005.html" target="_top" xlink:title="4">
<text text-anchor="middle" x="30.02" y="-47.78" font-family="Helvetica,sans-Serif" font-size="10.00">4</text>
</a>
</g>
</g>
<!-- dir_1e86b01c0afa4a5857f4b6245b9c39f7 -->
<g id="node3" class="node">
<title>dir_1e86b01c0afa4a5857f4b6245b9c39f7</title>
<g id="a_node3"><a xlink:href="dir_1e86b01c0afa4a5857f4b6245b9c39f7.html" target="_top" xlink:title="TextBox">
<polygon fill="none" stroke="black" points="95,-108 39,-108 39,-72 95,-72 95,-108"/>
<text text-anchor="middle" x="67" y="-87.5" font-family="Helvetica,sans-Serif" font-size="10.00">TextBox</text>
</a>
</g>
</g>
<!-- dir_e26a506b42ddf4b18a9955498ca1fa1e&#45;&gt;dir_1e86b01c0afa4a5857f4b6245b9c39f7 -->
<g id="edge2" class="edge">
<title>dir_e26a506b42ddf4b18a9955498ca1fa1e&#45;&gt;dir_1e86b01c0afa4a5857f4b6245b9c39f7</title>
<path fill="none" stroke="black" d="M67,-143.7C67,-135.98 67,-126.71 67,-118.11"/>
<polygon fill="black" stroke="black" points="70.5,-118.1 67,-108.1 63.5,-118.1 70.5,-118.1"/>
<g id="a_edge2&#45;headlabel"><a xlink:href="dir_000069_000068.html" target="_top" xlink:title="1">
<text text-anchor="middle" x="73.34" y="-119.2" font-family="Helvetica,sans-Serif" font-size="10.00">1</text>
</a>
</g>
</g>
<!-- dir_d415c0d599231354676ceb56dc96abfc -->
<g id="node4" class="node">
<title>dir_d415c0d599231354676ceb56dc96abfc</title>
<g id="a_node4"><a xlink:href="dir_d415c0d599231354676ceb56dc96abfc.html" target="_top" xlink:title="IBehaviour">
<polygon fill="none" stroke="black" points="149.5,-36 80.5,-36 80.5,0 149.5,0 149.5,-36"/>
<text text-anchor="middle" x="115" y="-15.5" font-family="Helvetica,sans-Serif" font-size="10.00">IBehaviour</text>
</a>
</g>
</g>
<!-- dir_e26a506b42ddf4b18a9955498ca1fa1e&#45;&gt;dir_d415c0d599231354676ceb56dc96abfc -->
<g id="edge3" class="edge">
<title>dir_e26a506b42ddf4b18a9955498ca1fa1e&#45;&gt;dir_d415c0d599231354676ceb56dc96abfc</title>
<path fill="none" stroke="black" d="M82.39,-143.62C90.18,-133.83 99.02,-120.99 104,-108 111.56,-88.29 114.2,-64.48 115.01,-46.45"/>
<polygon fill="black" stroke="black" points="118.51,-46.42 115.3,-36.32 111.51,-46.22 118.51,-46.42"/>
<g id="a_edge3&#45;headlabel"><a xlink:href="dir_000069_000058.html" target="_top" xlink:title="1">
<text text-anchor="middle" x="121.24" y="-47.59" font-family="Helvetica,sans-Serif" font-size="10.00">1</text>
</a>
</g>
</g>
<!-- dir_1e86b01c0afa4a5857f4b6245b9c39f7&#45;&gt;dir_2e574b6382041dc2a136b1675bed65ad -->
<g id="edge4" class="edge">
<title>dir_1e86b01c0afa4a5857f4b6245b9c39f7&#45;&gt;dir_2e574b6382041dc2a136b1675bed65ad</title>
<path fill="none" stroke="black" d="M57.11,-71.7C52.51,-63.64 46.94,-53.89 41.85,-44.98"/>
<polygon fill="black" stroke="black" points="44.77,-43.05 36.77,-36.1 38.7,-46.52 44.77,-43.05"/>
<g id="a_edge4&#45;headlabel"><a xlink:href="dir_000068_000005.html" target="_top" xlink:title="2">
<text text-anchor="middle" x="49.02" y="-42.26" font-family="Helvetica,sans-Serif" font-size="10.00">2</text>
</a>
</g>
</g>
<!-- dir_1e86b01c0afa4a5857f4b6245b9c39f7&#45;&gt;dir_d415c0d599231354676ceb56dc96abfc -->
<g id="edge5" class="edge">
<title>dir_1e86b01c0afa4a5857f4b6245b9c39f7&#45;&gt;dir_d415c0d599231354676ceb56dc96abfc</title>
<path fill="none" stroke="black" d="M78.87,-71.7C84.5,-63.47 91.35,-53.48 97.57,-44.42"/>
<polygon fill="black" stroke="black" points="100.5,-46.33 103.27,-36.1 94.73,-42.37 100.5,-46.33"/>
<g id="a_edge5&#45;headlabel"><a xlink:href="dir_000068_000058.html" target="_top" xlink:title="1">
<text text-anchor="middle" x="100.81" y="-48.4" font-family="Helvetica,sans-Serif" font-size="10.00">1</text>
</a>
</g>
</g>
</g>
</svg>
