<?xml version="1.0" encoding="UTF-8" standalone="no"?>
<!DOCTYPE svg PUBLIC "-//W3C//DTD SVG 1.1//EN"
 "http://www.w3.org/Graphics/SVG/1.1/DTD/svg11.dtd">
<!-- Generated by graphviz version 2.43.0 (0)
 -->
<!-- Title: Libs/RayLib/sources Pages: 1 -->
<svg width="1004pt" height="519pt"
 viewBox="0.00 0.00 1004.00 519.00" xmlns="http://www.w3.org/2000/svg" xmlns:xlink="http://www.w3.org/1999/xlink">
<g id="graph0" class="graph" transform="scale(1 1) rotate(0) translate(4 515)">
<title>Libs/RayLib/sources</title>
<polygon fill="white" stroke="transparent" points="-4,4 -4,-515 1000,-515 1000,4 -4,4"/>
<g id="clust1" class="cluster">
<title>clusterdir_2e574b6382041dc2a136b1675bed65ad</title>
<g id="a_clust1"><a xlink:href="dir_2e574b6382041dc2a136b1675bed65ad.html" target="_top" xlink:title="RayLib">
<polygon fill="#ddddee" stroke="black" points="8,-56 8,-503 988,-503 988,-56 8,-56"/>
<text text-anchor="middle" x="498" y="-491" font-family="Helvetica,sans-Serif" font-size="10.00">RayLib</text>
</a>
</g>
</g>
<g id="clust2" class="cluster">
<title>clusterdir_b58f5cbef52144281201f92199ca772f</title>
<g id="a_clust2"><a xlink:href="dir_b58f5cbef52144281201f92199ca772f.html" target="_top">
<polygon fill="#eeeeff" stroke="black" points="16,-64 16,-476 980,-476 980,-64 16,-64"/>
</a>
</g>
</g>
<!-- dir_b58f5cbef52144281201f92199ca772f -->
<g id="node1" class="node">
<title>dir_b58f5cbef52144281201f92199ca772f</title>
<text text-anchor="middle" x="805" y="-447.5" font-family="Helvetica,sans-Serif" font-size="10.00">sources</text>
</g>
<!-- dir_5849c73614b1bdfc190269056b4c8fda -->
<g id="node2" class="node">
<title>dir_5849c73614b1bdfc190269056b4c8fda</title>
<g id="a_node2"><a xlink:href="dir_5849c73614b1bdfc190269056b4c8fda.html" target="_top" xlink:title="AudioDevice">
<polygon fill="white" stroke="black" points="713,-468 635,-468 635,-432 713,-432 713,-468"/>
<text text-anchor="middle" x="674" y="-447.5" font-family="Helvetica,sans-Serif" font-size="10.00">AudioDevice</text>
</a>
</g>
</g>
<!-- dir_d24ad10a75a0a4351bb3081f1b154241 -->
<g id="node3" class="node">
<title>dir_d24ad10a75a0a4351bb3081f1b154241</title>
<g id="a_node3"><a xlink:href="dir_d24ad10a75a0a4351bb3081f1b154241.html" target="_top" xlink:title="BoundingBox">
<polygon fill="white" stroke="black" points="105.5,-180 24.5,-180 24.5,-144 105.5,-144 105.5,-180"/>
<text text-anchor="middle" x="65" y="-159.5" font-family="Helvetica,sans-Serif" font-size="10.00">BoundingBox</text>
</a>
</g>
</g>
<!-- dir_42ef1f57a2f22e94d8ccc109a0fc3cde -->
<g id="node25" class="node">
<title>dir_42ef1f57a2f22e94d8ccc109a0fc3cde</title>
<g id="a_node25"><a xlink:href="dir_42ef1f57a2f22e94d8ccc109a0fc3cde.html" target="_top" xlink:title="Vector3">
<polygon fill="white" stroke="black" points="330,-108 276,-108 276,-72 330,-72 330,-108"/>
<text text-anchor="middle" x="303" y="-87.5" font-family="Helvetica,sans-Serif" font-size="10.00">Vector3</text>
</a>
</g>
</g>
<!-- dir_d24ad10a75a0a4351bb3081f1b154241&#45;&gt;dir_42ef1f57a2f22e94d8ccc109a0fc3cde -->
<g id="edge44" class="edge">
<title>dir_d24ad10a75a0a4351bb3081f1b154241&#45;&gt;dir_42ef1f57a2f22e94d8ccc109a0fc3cde</title>
<path fill="none" stroke="black" d="M105.6,-147C108.77,-145.96 111.94,-144.95 115,-144 166.95,-127.86 227.61,-111.14 265.67,-100.9"/>
<polygon fill="black" stroke="black" points="267.03,-104.16 275.78,-98.19 265.22,-97.4 267.03,-104.16"/>
<g id="a_edge44&#45;headlabel"><a xlink:href="dir_000096_000119.html" target="_top" xlink:title="1">
<text text-anchor="middle" x="264.29" y="-105.33" font-family="Helvetica,sans-Serif" font-size="10.00">1</text>
</a>
</g>
</g>
<!-- dir_43e46fc5bd88e477fe6a3fa9305049fc -->
<g id="node4" class="node">
<title>dir_43e46fc5bd88e477fe6a3fa9305049fc</title>
<g id="a_node4"><a xlink:href="dir_43e46fc5bd88e477fe6a3fa9305049fc.html" target="_top" xlink:title="Camera3D">
<polygon fill="white" stroke="black" points="500,-252 432,-252 432,-216 500,-216 500,-252"/>
<text text-anchor="middle" x="466" y="-231.5" font-family="Helvetica,sans-Serif" font-size="10.00">Camera3D</text>
</a>
</g>
</g>
<!-- dir_7287b806c7df8c58a2ced2061b9de0c2 -->
<g id="node17" class="node">
<title>dir_7287b806c7df8c58a2ced2061b9de0c2</title>
<g id="a_node17"><a xlink:href="dir_7287b806c7df8c58a2ced2061b9de0c2.html" target="_top" xlink:title="Ray">
<polygon fill="white" stroke="black" points="483,-180 429,-180 429,-144 483,-144 483,-180"/>
<text text-anchor="middle" x="456" y="-159.5" font-family="Helvetica,sans-Serif" font-size="10.00">Ray</text>
</a>
</g>
</g>
<!-- dir_43e46fc5bd88e477fe6a3fa9305049fc&#45;&gt;dir_7287b806c7df8c58a2ced2061b9de0c2 -->
<g id="edge47" class="edge">
<title>dir_43e46fc5bd88e477fe6a3fa9305049fc&#45;&gt;dir_7287b806c7df8c58a2ced2061b9de0c2</title>
<path fill="none" stroke="black" d="M463.53,-215.7C462.43,-207.98 461.1,-198.71 459.87,-190.11"/>
<polygon fill="black" stroke="black" points="463.32,-189.51 458.44,-180.1 456.39,-190.5 463.32,-189.51"/>
<g id="a_edge47&#45;headlabel"><a xlink:href="dir_000097_000110.html" target="_top" xlink:title="1">
<text text-anchor="middle" x="466.64" y="-190.17" font-family="Helvetica,sans-Serif" font-size="10.00">1</text>
</a>
</g>
</g>
<!-- dir_e5ddc3b8247be52796b2c5c9f83f8e6d -->
<g id="node24" class="node">
<title>dir_e5ddc3b8247be52796b2c5c9f83f8e6d</title>
<g id="a_node24"><a xlink:href="dir_e5ddc3b8247be52796b2c5c9f83f8e6d.html" target="_top" xlink:title="Vector2">
<polygon fill="white" stroke="black" points="555,-180 501,-180 501,-144 555,-144 555,-180"/>
<text text-anchor="middle" x="528" y="-159.5" font-family="Helvetica,sans-Serif" font-size="10.00">Vector2</text>
</a>
</g>
</g>
<!-- dir_43e46fc5bd88e477fe6a3fa9305049fc&#45;&gt;dir_e5ddc3b8247be52796b2c5c9f83f8e6d -->
<g id="edge46" class="edge">
<title>dir_43e46fc5bd88e477fe6a3fa9305049fc&#45;&gt;dir_e5ddc3b8247be52796b2c5c9f83f8e6d</title>
<path fill="none" stroke="black" d="M481.33,-215.7C488.76,-207.3 497.82,-197.07 505.98,-187.86"/>
<polygon fill="black" stroke="black" points="508.84,-189.91 512.85,-180.1 503.6,-185.27 508.84,-189.91"/>
<g id="a_edge46&#45;headlabel"><a xlink:href="dir_000097_000118.html" target="_top" xlink:title="1">
<text text-anchor="middle" x="508.58" y="-191.98" font-family="Helvetica,sans-Serif" font-size="10.00">1</text>
</a>
</g>
</g>
<!-- dir_43e46fc5bd88e477fe6a3fa9305049fc&#45;&gt;dir_42ef1f57a2f22e94d8ccc109a0fc3cde -->
<g id="edge45" class="edge">
<title>dir_43e46fc5bd88e477fe6a3fa9305049fc&#45;&gt;dir_42ef1f57a2f22e94d8ccc109a0fc3cde</title>
<path fill="none" stroke="black" d="M446.34,-215.87C417.46,-190.71 363.44,-143.65 330.6,-115.04"/>
<polygon fill="black" stroke="black" points="332.57,-112.12 322.73,-108.19 327.97,-117.4 332.57,-112.12"/>
<g id="a_edge45&#45;headlabel"><a xlink:href="dir_000097_000119.html" target="_top" xlink:title="1">
<text text-anchor="middle" x="337.15" y="-109.84" font-family="Helvetica,sans-Serif" font-size="10.00">1</text>
</a>
</g>
</g>
<!-- dir_9ea12aeec975b84c873d1f68b760c2ca -->
<g id="node5" class="node">
<title>dir_9ea12aeec975b84c873d1f68b760c2ca</title>
<g id="a_node5"><a xlink:href="dir_9ea12aeec975b84c873d1f68b760c2ca.html" target="_top" xlink:title="Circle">
<polygon fill="white" stroke="black" points="860,-252 806,-252 806,-216 860,-216 860,-252"/>
<text text-anchor="middle" x="833" y="-231.5" font-family="Helvetica,sans-Serif" font-size="10.00">Circle</text>
</a>
</g>
</g>
<!-- dir_9ea12aeec975b84c873d1f68b760c2ca&#45;&gt;dir_e5ddc3b8247be52796b2c5c9f83f8e6d -->
<g id="edge10" class="edge">
<title>dir_9ea12aeec975b84c873d1f68b760c2ca&#45;&gt;dir_e5ddc3b8247be52796b2c5c9f83f8e6d</title>
<path fill="none" stroke="black" d="M805.92,-220.91C801.33,-219.11 796.57,-217.39 792,-216 712.72,-191.86 616.63,-175.74 565.04,-168.1"/>
<polygon fill="black" stroke="black" points="565.43,-164.62 555.03,-166.65 564.42,-171.55 565.43,-164.62"/>
<g id="a_edge10&#45;headlabel"><a xlink:href="dir_000098_000118.html" target="_top" xlink:title="1">
<text text-anchor="middle" x="569.4" y="-159.83" font-family="Helvetica,sans-Serif" font-size="10.00">1</text>
</a>
</g>
</g>
<!-- dir_3008fb1da06f44ca71e3c91ff5fedb38 -->
<g id="node6" class="node">
<title>dir_3008fb1da06f44ca71e3c91ff5fedb38</title>
<g id="a_node6"><a xlink:href="dir_3008fb1da06f44ca71e3c91ff5fedb38.html" target="_top" xlink:title="Color">
<polygon fill="white" stroke="black" points="353,-180 299,-180 299,-144 353,-144 353,-180"/>
<text text-anchor="middle" x="326" y="-159.5" font-family="Helvetica,sans-Serif" font-size="10.00">Color</text>
</a>
</g>
</g>
<!-- dir_3008fb1da06f44ca71e3c91ff5fedb38&#45;&gt;dir_42ef1f57a2f22e94d8ccc109a0fc3cde -->
<g id="edge1" class="edge">
<title>dir_3008fb1da06f44ca71e3c91ff5fedb38&#45;&gt;dir_42ef1f57a2f22e94d8ccc109a0fc3cde</title>
<path fill="none" stroke="black" d="M320.31,-143.7C317.75,-135.9 314.67,-126.51 311.82,-117.83"/>
<polygon fill="black" stroke="black" points="315.07,-116.51 308.62,-108.1 308.42,-118.7 315.07,-116.51"/>
<g id="a_edge1&#45;headlabel"><a xlink:href="dir_000099_000119.html" target="_top" xlink:title="1">
<text text-anchor="middle" x="318.89" y="-116.54" font-family="Helvetica,sans-Serif" font-size="10.00">1</text>
</a>
</g>
</g>
<!-- dir_84d273344dff44ed94b18dd737477b68 -->
<g id="node7" class="node">
<title>dir_84d273344dff44ed94b18dd737477b68</title>
<g id="a_node7"><a xlink:href="dir_84d273344dff44ed94b18dd737477b68.html" target="_top" xlink:title="Font">
<polygon fill="white" stroke="black" points="722,-324 668,-324 668,-288 722,-288 722,-324"/>
<text text-anchor="middle" x="695" y="-303.5" font-family="Helvetica,sans-Serif" font-size="10.00">Font</text>
</a>
</g>
</g>
<!-- dir_84d273344dff44ed94b18dd737477b68&#45;&gt;dir_3008fb1da06f44ca71e3c91ff5fedb38 -->
<g id="edge31" class="edge">
<title>dir_84d273344dff44ed94b18dd737477b68&#45;&gt;dir_3008fb1da06f44ca71e3c91ff5fedb38</title>
<path fill="none" stroke="black" d="M698.68,-287.66C701.84,-267.56 703.36,-234.79 685,-216 643.47,-173.49 478.7,-189.29 420,-180 401.28,-177.04 380.54,-173.33 363.32,-170.14"/>
<polygon fill="black" stroke="black" points="363.57,-166.62 353.1,-168.23 362.28,-173.5 363.57,-166.62"/>
<g id="a_edge31&#45;headlabel"><a xlink:href="dir_000100_000099.html" target="_top" xlink:title="1">
<text text-anchor="middle" x="367.62" y="-161.99" font-family="Helvetica,sans-Serif" font-size="10.00">1</text>
</a>
</g>
</g>
<!-- dir_a20e3d58a77f7aec7eaa75bb031705ad -->
<g id="node8" class="node">
<title>dir_a20e3d58a77f7aec7eaa75bb031705ad</title>
<g id="a_node8"><a xlink:href="dir_a20e3d58a77f7aec7eaa75bb031705ad.html" target="_top" xlink:title="IAsset">
<polygon fill="white" stroke="black" points="592,-252 538,-252 538,-216 592,-216 592,-252"/>
<text text-anchor="middle" x="565" y="-231.5" font-family="Helvetica,sans-Serif" font-size="10.00">IAsset</text>
</a>
</g>
</g>
<!-- dir_84d273344dff44ed94b18dd737477b68&#45;&gt;dir_a20e3d58a77f7aec7eaa75bb031705ad -->
<g id="edge32" class="edge">
<title>dir_84d273344dff44ed94b18dd737477b68&#45;&gt;dir_a20e3d58a77f7aec7eaa75bb031705ad</title>
<path fill="none" stroke="black" d="M667.75,-290.33C648.42,-279.92 622.28,-265.84 601.2,-254.49"/>
<polygon fill="black" stroke="black" points="602.68,-251.31 592.22,-249.65 599.36,-257.48 602.68,-251.31"/>
<g id="a_edge32&#45;headlabel"><a xlink:href="dir_000100_000101.html" target="_top" xlink:title="1">
<text text-anchor="middle" x="607.19" y="-248.02" font-family="Helvetica,sans-Serif" font-size="10.00">1</text>
</a>
</g>
</g>
<!-- dir_84d273344dff44ed94b18dd737477b68&#45;&gt;dir_e5ddc3b8247be52796b2c5c9f83f8e6d -->
<g id="edge33" class="edge">
<title>dir_84d273344dff44ed94b18dd737477b68&#45;&gt;dir_e5ddc3b8247be52796b2c5c9f83f8e6d</title>
<path fill="none" stroke="black" d="M722.05,-295.58C741.18,-287.33 765.41,-273.29 777,-252 784.65,-237.95 787.07,-228.44 777,-216 750.84,-183.69 628.67,-170.25 565.72,-165.39"/>
<polygon fill="black" stroke="black" points="565.65,-161.87 555.42,-164.63 565.14,-168.85 565.65,-161.87"/>
<g id="a_edge33&#45;headlabel"><a xlink:href="dir_000100_000118.html" target="_top" xlink:title="1">
<text text-anchor="middle" x="569.44" y="-156.81" font-family="Helvetica,sans-Serif" font-size="10.00">1</text>
</a>
</g>
</g>
<!-- dir_39df4d791d11ed6d48a6fbf3f4a34302 -->
<g id="node9" class="node">
<title>dir_39df4d791d11ed6d48a6fbf3f4a34302</title>
<g id="a_node9"><a xlink:href="dir_39df4d791d11ed6d48a6fbf3f4a34302.html" target="_top" xlink:title="IDrawable">
<polygon fill="white" stroke="black" points="150,-252 84,-252 84,-216 150,-216 150,-252"/>
<text text-anchor="middle" x="117" y="-231.5" font-family="Helvetica,sans-Serif" font-size="10.00">IDrawable</text>
</a>
</g>
</g>
<!-- dir_39df4d791d11ed6d48a6fbf3f4a34302&#45;&gt;dir_3008fb1da06f44ca71e3c91ff5fedb38 -->
<g id="edge34" class="edge">
<title>dir_39df4d791d11ed6d48a6fbf3f4a34302&#45;&gt;dir_3008fb1da06f44ca71e3c91ff5fedb38</title>
<path fill="none" stroke="black" d="M150.12,-221.91C188,-209.22 249.85,-188.5 289.21,-175.32"/>
<polygon fill="black" stroke="black" points="290.33,-178.64 298.7,-172.14 288.11,-172 290.33,-178.64"/>
<g id="a_edge34&#45;headlabel"><a xlink:href="dir_000102_000099.html" target="_top" xlink:title="1">
<text text-anchor="middle" x="287.82" y="-179.97" font-family="Helvetica,sans-Serif" font-size="10.00">1</text>
</a>
</g>
</g>
<!-- dir_39df4d791d11ed6d48a6fbf3f4a34302&#45;&gt;dir_42ef1f57a2f22e94d8ccc109a0fc3cde -->
<g id="edge35" class="edge">
<title>dir_39df4d791d11ed6d48a6fbf3f4a34302&#45;&gt;dir_42ef1f57a2f22e94d8ccc109a0fc3cde</title>
<path fill="none" stroke="black" d="M150.17,-220.44C185.47,-206.89 237.3,-186.4 245,-180 256.04,-170.84 275.08,-139.94 288.32,-117.12"/>
<polygon fill="black" stroke="black" points="291.48,-118.63 293.43,-108.22 285.41,-115.15 291.48,-118.63"/>
<g id="a_edge35&#45;headlabel"><a xlink:href="dir_000102_000119.html" target="_top" xlink:title="1">
<text text-anchor="middle" x="292.16" y="-120.66" font-family="Helvetica,sans-Serif" font-size="10.00">1</text>
</a>
</g>
</g>
<!-- dir_2d1eb0aa0b8866aa6ce4d53e36ce0d15 -->
<g id="node10" class="node">
<title>dir_2d1eb0aa0b8866aa6ce4d53e36ce0d15</title>
<g id="a_node10"><a xlink:href="dir_2d1eb0aa0b8866aa6ce4d53e36ce0d15.html" target="_top" xlink:title="Image">
<polygon fill="white" stroke="black" points="302,-252 248,-252 248,-216 302,-216 302,-252"/>
<text text-anchor="middle" x="275" y="-231.5" font-family="Helvetica,sans-Serif" font-size="10.00">Image</text>
</a>
</g>
</g>
<!-- dir_2d1eb0aa0b8866aa6ce4d53e36ce0d15&#45;&gt;dir_3008fb1da06f44ca71e3c91ff5fedb38 -->
<g id="edge19" class="edge">
<title>dir_2d1eb0aa0b8866aa6ce4d53e36ce0d15&#45;&gt;dir_3008fb1da06f44ca71e3c91ff5fedb38</title>
<path fill="none" stroke="black" d="M287.61,-215.7C293.6,-207.47 300.88,-197.48 307.48,-188.42"/>
<polygon fill="black" stroke="black" points="310.48,-190.25 313.54,-180.1 304.82,-186.13 310.48,-190.25"/>
<g id="a_edge19&#45;headlabel"><a xlink:href="dir_000103_000099.html" target="_top" xlink:title="1">
<text text-anchor="middle" x="310.66" y="-192.32" font-family="Helvetica,sans-Serif" font-size="10.00">1</text>
</a>
</g>
</g>
<!-- dir_2d1eb0aa0b8866aa6ce4d53e36ce0d15&#45;&gt;dir_e5ddc3b8247be52796b2c5c9f83f8e6d -->
<g id="edge20" class="edge">
<title>dir_2d1eb0aa0b8866aa6ce4d53e36ce0d15&#45;&gt;dir_e5ddc3b8247be52796b2c5c9f83f8e6d</title>
<path fill="none" stroke="black" d="M302.23,-224.29C311.33,-221.49 321.57,-218.48 331,-216 398.86,-198.14 420.77,-203.29 490.99,-179.96"/>
<polygon fill="black" stroke="black" points="492.4,-183.17 500.74,-176.64 490.15,-176.54 492.4,-183.17"/>
<g id="a_edge20&#45;headlabel"><a xlink:href="dir_000103_000118.html" target="_top" xlink:title="1">
<text text-anchor="middle" x="489.91" y="-184.52" font-family="Helvetica,sans-Serif" font-size="10.00">1</text>
</a>
</g>
</g>
<!-- dir_39104eff3124140d653bdc664dfd659c -->
<g id="node11" class="node">
<title>dir_39104eff3124140d653bdc664dfd659c</title>
<g id="a_node11"><a xlink:href="dir_39104eff3124140d653bdc664dfd659c.html" target="_top" xlink:title="Input">
<polygon fill="white" stroke="black" points="952,-252 898,-252 898,-216 952,-216 952,-252"/>
<text text-anchor="middle" x="925" y="-231.5" font-family="Helvetica,sans-Serif" font-size="10.00">Input</text>
</a>
</g>
</g>
<!-- dir_39104eff3124140d653bdc664dfd659c&#45;&gt;dir_e5ddc3b8247be52796b2c5c9f83f8e6d -->
<g id="edge37" class="edge">
<title>dir_39104eff3124140d653bdc664dfd659c&#45;&gt;dir_e5ddc3b8247be52796b2c5c9f83f8e6d</title>
<path fill="none" stroke="black" d="M897.98,-220.71C893.38,-218.93 888.6,-217.28 884,-216 770.49,-184.53 631.12,-170.67 565.52,-165.55"/>
<polygon fill="black" stroke="black" points="565.5,-162.04 555.27,-164.77 564.97,-169.02 565.5,-162.04"/>
<g id="a_edge37&#45;headlabel"><a xlink:href="dir_000104_000118.html" target="_top" xlink:title="1">
<text text-anchor="middle" x="569.3" y="-156.98" font-family="Helvetica,sans-Serif" font-size="10.00">1</text>
</a>
</g>
</g>
<!-- dir_440fe1e7d50a3264735b827df84ecc71 -->
<g id="node12" class="node">
<title>dir_440fe1e7d50a3264735b827df84ecc71</title>
<g id="a_node12"><a xlink:href="dir_440fe1e7d50a3264735b827df84ecc71.html" target="_top" xlink:title="Mesh">
<polygon fill="white" stroke="black" points="302,-324 248,-324 248,-288 302,-288 302,-324"/>
<text text-anchor="middle" x="275" y="-303.5" font-family="Helvetica,sans-Serif" font-size="10.00">Mesh</text>
</a>
</g>
</g>
<!-- dir_440fe1e7d50a3264735b827df84ecc71&#45;&gt;dir_a20e3d58a77f7aec7eaa75bb031705ad -->
<g id="edge28" class="edge">
<title>dir_440fe1e7d50a3264735b827df84ecc71&#45;&gt;dir_a20e3d58a77f7aec7eaa75bb031705ad</title>
<path fill="none" stroke="black" d="M302.49,-294C308.53,-291.82 314.93,-289.69 321,-288 402.96,-265.18 426.4,-272.38 509,-252 515.21,-250.47 521.76,-248.66 528.1,-246.8"/>
<polygon fill="black" stroke="black" points="529.25,-250.11 537.82,-243.88 527.23,-243.41 529.25,-250.11"/>
<g id="a_edge28&#45;headlabel"><a xlink:href="dir_000105_000101.html" target="_top" xlink:title="1">
<text text-anchor="middle" x="526.62" y="-251.37" font-family="Helvetica,sans-Serif" font-size="10.00">1</text>
</a>
</g>
</g>
<!-- dir_440fe1e7d50a3264735b827df84ecc71&#45;&gt;dir_2d1eb0aa0b8866aa6ce4d53e36ce0d15 -->
<g id="edge30" class="edge">
<title>dir_440fe1e7d50a3264735b827df84ecc71&#45;&gt;dir_2d1eb0aa0b8866aa6ce4d53e36ce0d15</title>
<path fill="none" stroke="black" d="M275,-287.7C275,-279.98 275,-270.71 275,-262.11"/>
<polygon fill="black" stroke="black" points="278.5,-262.1 275,-252.1 271.5,-262.1 278.5,-262.1"/>
<g id="a_edge30&#45;headlabel"><a xlink:href="dir_000105_000103.html" target="_top" xlink:title="1">
<text text-anchor="middle" x="281.34" y="-263.2" font-family="Helvetica,sans-Serif" font-size="10.00">1</text>
</a>
</g>
</g>
<!-- dir_440fe1e7d50a3264735b827df84ecc71&#45;&gt;dir_42ef1f57a2f22e94d8ccc109a0fc3cde -->
<g id="edge29" class="edge">
<title>dir_440fe1e7d50a3264735b827df84ecc71&#45;&gt;dir_42ef1f57a2f22e94d8ccc109a0fc3cde</title>
<path fill="none" stroke="black" d="M259.39,-287.77C251.63,-278.03 243.05,-265.18 239,-252 234.3,-236.71 234.36,-231.31 239,-216 244.57,-197.6 253.69,-196.83 263,-180 274.28,-159.61 284.98,-135.44 292.47,-117.44"/>
<polygon fill="black" stroke="black" points="295.73,-118.72 296.29,-108.14 289.26,-116.06 295.73,-118.72"/>
<g id="a_edge29&#45;headlabel"><a xlink:href="dir_000105_000119.html" target="_top" xlink:title="1">
<text text-anchor="middle" x="297" y="-120.62" font-family="Helvetica,sans-Serif" font-size="10.00">1</text>
</a>
</g>
</g>
<!-- dir_2eb4533580b445659543b6ebb346df32 -->
<g id="node13" class="node">
<title>dir_2eb4533580b445659543b6ebb346df32</title>
<g id="a_node13"><a xlink:href="dir_2eb4533580b445659543b6ebb346df32.html" target="_top" xlink:title="Model">
<polygon fill="white" stroke="black" points="302,-396 248,-396 248,-360 302,-360 302,-396"/>
<text text-anchor="middle" x="275" y="-375.5" font-family="Helvetica,sans-Serif" font-size="10.00">Model</text>
</a>
</g>
</g>
<!-- dir_2eb4533580b445659543b6ebb346df32&#45;&gt;dir_3008fb1da06f44ca71e3c91ff5fedb38 -->
<g id="edge4" class="edge">
<title>dir_2eb4533580b445659543b6ebb346df32&#45;&gt;dir_3008fb1da06f44ca71e3c91ff5fedb38</title>
<path fill="none" stroke="black" d="M259.39,-359.77C251.63,-350.03 243.05,-337.18 239,-324 224.89,-278.12 215.49,-257.85 239,-216 249.77,-196.83 270.6,-183.78 289.18,-175.42"/>
<polygon fill="black" stroke="black" points="290.74,-178.56 298.62,-171.48 288.04,-172.1 290.74,-178.56"/>
<g id="a_edge4&#45;headlabel"><a xlink:href="dir_000106_000099.html" target="_top" xlink:title="1">
<text text-anchor="middle" x="288.52" y="-180.07" font-family="Helvetica,sans-Serif" font-size="10.00">1</text>
</a>
</g>
</g>
<!-- dir_2eb4533580b445659543b6ebb346df32&#45;&gt;dir_39df4d791d11ed6d48a6fbf3f4a34302 -->
<g id="edge8" class="edge">
<title>dir_2eb4533580b445659543b6ebb346df32&#45;&gt;dir_39df4d791d11ed6d48a6fbf3f4a34302</title>
<path fill="none" stroke="black" d="M247.99,-372.94C218.65,-367.13 172.33,-353.67 145,-324 129.45,-307.11 122.53,-281.64 119.46,-262.27"/>
<polygon fill="black" stroke="black" points="122.91,-261.67 118.12,-252.22 115.97,-262.6 122.91,-261.67"/>
<g id="a_edge8&#45;headlabel"><a xlink:href="dir_000106_000102.html" target="_top" xlink:title="1">
<text text-anchor="middle" x="126.2" y="-262.36" font-family="Helvetica,sans-Serif" font-size="10.00">1</text>
</a>
</g>
</g>
<!-- dir_2eb4533580b445659543b6ebb346df32&#45;&gt;dir_440fe1e7d50a3264735b827df84ecc71 -->
<g id="edge7" class="edge">
<title>dir_2eb4533580b445659543b6ebb346df32&#45;&gt;dir_440fe1e7d50a3264735b827df84ecc71</title>
<path fill="none" stroke="black" d="M275,-359.7C275,-351.98 275,-342.71 275,-334.11"/>
<polygon fill="black" stroke="black" points="278.5,-334.1 275,-324.1 271.5,-334.1 278.5,-334.1"/>
<g id="a_edge7&#45;headlabel"><a xlink:href="dir_000106_000105.html" target="_top" xlink:title="1">
<text text-anchor="middle" x="281.34" y="-335.2" font-family="Helvetica,sans-Serif" font-size="10.00">1</text>
</a>
</g>
</g>
<!-- dir_9051183bb55ab46ec0c1900a32da5be2 -->
<g id="node21" class="node">
<title>dir_9051183bb55ab46ec0c1900a32da5be2</title>
<g id="a_node21"><a xlink:href="dir_9051183bb55ab46ec0c1900a32da5be2.html" target="_top" xlink:title="Shader">
<polygon fill="white" stroke="red" points="384,-324 330,-324 330,-288 384,-288 384,-324"/>
<text text-anchor="middle" x="357" y="-303.5" font-family="Helvetica,sans-Serif" font-size="10.00">Shader</text>
</a>
</g>
</g>
<!-- dir_2eb4533580b445659543b6ebb346df32&#45;&gt;dir_9051183bb55ab46ec0c1900a32da5be2 -->
<g id="edge6" class="edge">
<title>dir_2eb4533580b445659543b6ebb346df32&#45;&gt;dir_9051183bb55ab46ec0c1900a32da5be2</title>
<path fill="none" stroke="black" d="M295.27,-359.7C305.5,-350.97 318.06,-340.24 329.18,-330.75"/>
<polygon fill="black" stroke="black" points="331.63,-333.26 336.96,-324.1 327.09,-327.94 331.63,-333.26"/>
<g id="a_edge6&#45;headlabel"><a xlink:href="dir_000106_000114.html" target="_top" xlink:title="1">
<text text-anchor="middle" x="330.74" y="-335.25" font-family="Helvetica,sans-Serif" font-size="10.00">1</text>
</a>
</g>
</g>
<!-- dir_c305caf0c493ca3746aa83094793d74d -->
<g id="node23" class="node">
<title>dir_c305caf0c493ca3746aa83094793d74d</title>
<g id="a_node23"><a xlink:href="dir_c305caf0c493ca3746aa83094793d74d.html" target="_top" xlink:title="Texture">
<polygon fill="white" stroke="black" points="483,-324 429,-324 429,-288 483,-288 483,-324"/>
<text text-anchor="middle" x="456" y="-303.5" font-family="Helvetica,sans-Serif" font-size="10.00">Texture</text>
</a>
</g>
</g>
<!-- dir_2eb4533580b445659543b6ebb346df32&#45;&gt;dir_c305caf0c493ca3746aa83094793d74d -->
<g id="edge9" class="edge">
<title>dir_2eb4533580b445659543b6ebb346df32&#45;&gt;dir_c305caf0c493ca3746aa83094793d74d</title>
<path fill="none" stroke="black" d="M302.1,-366.52C333.15,-354.51 384.23,-334.76 418.95,-321.33"/>
<polygon fill="black" stroke="black" points="420.65,-324.42 428.72,-317.55 418.13,-317.89 420.65,-324.42"/>
<g id="a_edge9&#45;headlabel"><a xlink:href="dir_000106_000117.html" target="_top" xlink:title="1">
<text text-anchor="middle" x="418.32" y="-325.87" font-family="Helvetica,sans-Serif" font-size="10.00">1</text>
</a>
</g>
</g>
<!-- dir_2eb4533580b445659543b6ebb346df32&#45;&gt;dir_42ef1f57a2f22e94d8ccc109a0fc3cde -->
<g id="edge5" class="edge">
<title>dir_2eb4533580b445659543b6ebb346df32&#45;&gt;dir_42ef1f57a2f22e94d8ccc109a0fc3cde</title>
<path fill="none" stroke="black" d="M247.82,-372.48C215.26,-366.04 160.22,-351.78 121,-324 76.71,-292.63 30.53,-258.73 64,-216 105.21,-163.39 159.27,-223.51 210,-180 223.16,-168.72 214.04,-157.43 225,-144 236.4,-130.03 252.43,-118.27 266.99,-109.4"/>
<polygon fill="black" stroke="black" points="268.94,-112.32 275.82,-104.26 265.41,-106.27 268.94,-112.32"/>
<g id="a_edge5&#45;headlabel"><a xlink:href="dir_000106_000119.html" target="_top" xlink:title="1">
<text text-anchor="middle" x="267.26" y="-114.08" font-family="Helvetica,sans-Serif" font-size="10.00">1</text>
</a>
</g>
</g>
<!-- dir_2dfd4220f99387d445870a1607415587 -->
<g id="node14" class="node">
<title>dir_2dfd4220f99387d445870a1607415587</title>
<g id="a_node14"><a xlink:href="dir_2dfd4220f99387d445870a1607415587.html" target="_top" xlink:title="ModelAnimation">
<polygon fill="white" stroke="black" points="521.5,-468 424.5,-468 424.5,-432 521.5,-432 521.5,-468"/>
<text text-anchor="middle" x="473" y="-447.5" font-family="Helvetica,sans-Serif" font-size="10.00">ModelAnimation</text>
</a>
</g>
</g>
<!-- dir_2dfd4220f99387d445870a1607415587&#45;&gt;dir_a20e3d58a77f7aec7eaa75bb031705ad -->
<g id="edge12" class="edge">
<title>dir_2dfd4220f99387d445870a1607415587&#45;&gt;dir_a20e3d58a77f7aec7eaa75bb031705ad</title>
<path fill="none" stroke="black" d="M491.27,-431.61C513.38,-409.19 549.47,-367.82 564,-324 570.6,-304.11 570.49,-280.31 568.92,-262.34"/>
<polygon fill="black" stroke="black" points="572.38,-261.81 567.84,-252.24 565.42,-262.55 572.38,-261.81"/>
<g id="a_edge12&#45;headlabel"><a xlink:href="dir_000107_000101.html" target="_top" xlink:title="1">
<text text-anchor="middle" x="575.59" y="-262.58" font-family="Helvetica,sans-Serif" font-size="10.00">1</text>
</a>
</g>
</g>
<!-- dir_2dfd4220f99387d445870a1607415587&#45;&gt;dir_2eb4533580b445659543b6ebb346df32 -->
<g id="edge11" class="edge">
<title>dir_2dfd4220f99387d445870a1607415587&#45;&gt;dir_2eb4533580b445659543b6ebb346df32</title>
<path fill="none" stroke="black" d="M424.82,-431.97C390.01,-419.66 343.7,-403.29 311.83,-392.02"/>
<polygon fill="black" stroke="black" points="312.62,-388.59 302.02,-388.55 310.28,-395.19 312.62,-388.59"/>
<g id="a_edge11&#45;headlabel"><a xlink:href="dir_000107_000106.html" target="_top" xlink:title="1">
<text text-anchor="middle" x="316.95" y="-384.61" font-family="Helvetica,sans-Serif" font-size="10.00">1</text>
</a>
</g>
</g>
<!-- dir_948e22e66dbfa25294ef08cb571b331d -->
<g id="node15" class="node">
<title>dir_948e22e66dbfa25294ef08cb571b331d</title>
<g id="a_node15"><a xlink:href="dir_948e22e66dbfa25294ef08cb571b331d.html" target="_top" xlink:title="Mouse">
<polygon fill="white" stroke="black" points="768,-252 714,-252 714,-216 768,-216 768,-252"/>
<text text-anchor="middle" x="741" y="-231.5" font-family="Helvetica,sans-Serif" font-size="10.00">Mouse</text>
</a>
</g>
</g>
<!-- dir_948e22e66dbfa25294ef08cb571b331d&#45;&gt;dir_7287b806c7df8c58a2ced2061b9de0c2 -->
<g id="edge3" class="edge">
<title>dir_948e22e66dbfa25294ef08cb571b331d&#45;&gt;dir_7287b806c7df8c58a2ced2061b9de0c2</title>
<path fill="none" stroke="black" d="M713.95,-220.8C709.36,-219.01 704.59,-217.33 700,-216 612.88,-190.74 583.41,-207.11 492.77,-179.76"/>
<polygon fill="black" stroke="black" points="493.8,-176.41 483.21,-176.78 491.72,-183.09 493.8,-176.41"/>
<g id="a_edge3&#45;headlabel"><a xlink:href="dir_000108_000110.html" target="_top" xlink:title="1">
<text text-anchor="middle" x="498.07" y="-172.27" font-family="Helvetica,sans-Serif" font-size="10.00">1</text>
</a>
</g>
</g>
<!-- dir_948e22e66dbfa25294ef08cb571b331d&#45;&gt;dir_e5ddc3b8247be52796b2c5c9f83f8e6d -->
<g id="edge2" class="edge">
<title>dir_948e22e66dbfa25294ef08cb571b331d&#45;&gt;dir_e5ddc3b8247be52796b2c5c9f83f8e6d</title>
<path fill="none" stroke="black" d="M713.79,-221.3C709.22,-219.45 704.49,-217.62 700,-216 653.98,-199.41 599.93,-183.29 564.87,-173.27"/>
<polygon fill="black" stroke="black" points="565.65,-169.85 555.07,-170.49 563.74,-176.59 565.65,-169.85"/>
<g id="a_edge2&#45;headlabel"><a xlink:href="dir_000108_000118.html" target="_top" xlink:title="1">
<text text-anchor="middle" x="569.88" y="-165.6" font-family="Helvetica,sans-Serif" font-size="10.00">1</text>
</a>
</g>
</g>
<!-- dir_b36e48d4bf962b6f3a193b8a6cb59c69 -->
<g id="node16" class="node">
<title>dir_b36e48d4bf962b6f3a193b8a6cb59c69</title>
<g id="a_node16"><a xlink:href="dir_b36e48d4bf962b6f3a193b8a6cb59c69.html" target="_top" xlink:title="Physics2D">
<polygon fill="white" stroke="black" points="889.5,-324 822.5,-324 822.5,-288 889.5,-288 889.5,-324"/>
<text text-anchor="middle" x="856" y="-303.5" font-family="Helvetica,sans-Serif" font-size="10.00">Physics2D</text>
</a>
</g>
</g>
<!-- dir_b36e48d4bf962b6f3a193b8a6cb59c69&#45;&gt;dir_9ea12aeec975b84c873d1f68b760c2ca -->
<g id="edge49" class="edge">
<title>dir_b36e48d4bf962b6f3a193b8a6cb59c69&#45;&gt;dir_9ea12aeec975b84c873d1f68b760c2ca</title>
<path fill="none" stroke="black" d="M850.31,-287.7C847.75,-279.9 844.67,-270.51 841.82,-261.83"/>
<polygon fill="black" stroke="black" points="845.07,-260.51 838.62,-252.1 838.42,-262.7 845.07,-260.51"/>
<g id="a_edge49&#45;headlabel"><a xlink:href="dir_000109_000098.html" target="_top" xlink:title="1">
<text text-anchor="middle" x="848.89" y="-260.54" font-family="Helvetica,sans-Serif" font-size="10.00">1</text>
</a>
</g>
</g>
<!-- dir_7cbdec24ebb6028a5824c2da4cbe28fb -->
<g id="node19" class="node">
<title>dir_7cbdec24ebb6028a5824c2da4cbe28fb</title>
<g id="a_node19"><a xlink:href="dir_7cbdec24ebb6028a5824c2da4cbe28fb.html" target="_top" xlink:title="Rectangle">
<polygon fill="white" stroke="black" points="675.5,-252 610.5,-252 610.5,-216 675.5,-216 675.5,-252"/>
<text text-anchor="middle" x="643" y="-231.5" font-family="Helvetica,sans-Serif" font-size="10.00">Rectangle</text>
</a>
</g>
</g>
<!-- dir_b36e48d4bf962b6f3a193b8a6cb59c69&#45;&gt;dir_7cbdec24ebb6028a5824c2da4cbe28fb -->
<g id="edge52" class="edge">
<title>dir_b36e48d4bf962b6f3a193b8a6cb59c69&#45;&gt;dir_7cbdec24ebb6028a5824c2da4cbe28fb</title>
<path fill="none" stroke="black" d="M822.25,-293.91C785.08,-281.69 725.26,-262.03 685.06,-248.82"/>
<polygon fill="black" stroke="black" points="686.14,-245.49 675.54,-245.7 683.95,-252.14 686.14,-245.49"/>
<g id="a_edge52&#45;headlabel"><a xlink:href="dir_000109_000112.html" target="_top" xlink:title="1">
<text text-anchor="middle" x="690.44" y="-241.42" font-family="Helvetica,sans-Serif" font-size="10.00">1</text>
</a>
</g>
</g>
<!-- dir_b36e48d4bf962b6f3a193b8a6cb59c69&#45;&gt;dir_e5ddc3b8247be52796b2c5c9f83f8e6d -->
<g id="edge51" class="edge">
<title>dir_b36e48d4bf962b6f3a193b8a6cb59c69&#45;&gt;dir_e5ddc3b8247be52796b2c5c9f83f8e6d</title>
<path fill="none" stroke="black" d="M865.6,-287.74C875.13,-268.03 886.07,-235.92 869,-216 830.21,-170.71 645.56,-163.81 565.34,-162.98"/>
<polygon fill="black" stroke="black" points="565.22,-159.48 555.19,-162.9 565.17,-166.48 565.22,-159.48"/>
<g id="a_edge51&#45;headlabel"><a xlink:href="dir_000109_000118.html" target="_top" xlink:title="1">
<text text-anchor="middle" x="568.84" y="-154.17" font-family="Helvetica,sans-Serif" font-size="10.00">1</text>
</a>
</g>
</g>
<!-- dir_b36e48d4bf962b6f3a193b8a6cb59c69&#45;&gt;dir_42ef1f57a2f22e94d8ccc109a0fc3cde -->
<g id="edge50" class="edge">
<title>dir_b36e48d4bf962b6f3a193b8a6cb59c69&#45;&gt;dir_42ef1f57a2f22e94d8ccc109a0fc3cde</title>
<path fill="none" stroke="black" d="M889.6,-297.9C914.07,-290.78 945.54,-277.13 961,-252 969.39,-238.37 971.2,-228.32 961,-216 880.94,-119.3 467.8,-96.8 340.43,-92.12"/>
<polygon fill="black" stroke="black" points="340.5,-88.62 330.38,-91.77 340.25,-95.62 340.5,-88.62"/>
<g id="a_edge50&#45;headlabel"><a xlink:href="dir_000109_000119.html" target="_top" xlink:title="1">
<text text-anchor="middle" x="344.19" y="-83.41" font-family="Helvetica,sans-Serif" font-size="10.00">1</text>
</a>
</g>
</g>
<!-- dir_7287b806c7df8c58a2ced2061b9de0c2&#45;&gt;dir_42ef1f57a2f22e94d8ccc109a0fc3cde -->
<g id="edge36" class="edge">
<title>dir_7287b806c7df8c58a2ced2061b9de0c2&#45;&gt;dir_42ef1f57a2f22e94d8ccc109a0fc3cde</title>
<path fill="none" stroke="black" d="M429,-148.65C404.14,-137.27 367.05,-120.3 339.54,-107.72"/>
<polygon fill="black" stroke="black" points="340.8,-104.44 330.25,-103.47 337.88,-110.81 340.8,-104.44"/>
<g id="a_edge36&#45;headlabel"><a xlink:href="dir_000110_000119.html" target="_top" xlink:title="1">
<text text-anchor="middle" x="345.25" y="-100.86" font-family="Helvetica,sans-Serif" font-size="10.00">1</text>
</a>
</g>
</g>
<!-- dir_37156f83987698ef7665b11981c77af6 -->
<g id="node18" class="node">
<title>dir_37156f83987698ef7665b11981c77af6</title>
<g id="a_node18"><a xlink:href="dir_37156f83987698ef7665b11981c77af6.html" target="_top" xlink:title="RayCollision">
<polygon fill="white" stroke="black" points="200.5,-180 123.5,-180 123.5,-144 200.5,-144 200.5,-180"/>
<text text-anchor="middle" x="162" y="-159.5" font-family="Helvetica,sans-Serif" font-size="10.00">RayCollision</text>
</a>
</g>
</g>
<!-- dir_37156f83987698ef7665b11981c77af6&#45;&gt;dir_42ef1f57a2f22e94d8ccc109a0fc3cde -->
<g id="edge18" class="edge">
<title>dir_37156f83987698ef7665b11981c77af6&#45;&gt;dir_42ef1f57a2f22e94d8ccc109a0fc3cde</title>
<path fill="none" stroke="black" d="M196.49,-143.88C217.8,-133.3 245.1,-119.74 266.73,-109.01"/>
<polygon fill="black" stroke="black" points="268.52,-112.03 275.92,-104.44 265.41,-105.76 268.52,-112.03"/>
<g id="a_edge18&#45;headlabel"><a xlink:href="dir_000111_000119.html" target="_top" xlink:title="1">
<text text-anchor="middle" x="266.56" y="-113.67" font-family="Helvetica,sans-Serif" font-size="10.00">1</text>
</a>
</g>
</g>
<!-- dir_7cbdec24ebb6028a5824c2da4cbe28fb&#45;&gt;dir_3008fb1da06f44ca71e3c91ff5fedb38 -->
<g id="edge48" class="edge">
<title>dir_7cbdec24ebb6028a5824c2da4cbe28fb&#45;&gt;dir_3008fb1da06f44ca71e3c91ff5fedb38</title>
<path fill="none" stroke="black" d="M610.2,-219.02C607.12,-217.92 604.02,-216.89 601,-216 578.49,-209.34 433.49,-182.58 363.58,-169.82"/>
<polygon fill="black" stroke="black" points="363.9,-166.32 353.44,-167.97 362.65,-173.21 363.9,-166.32"/>
<g id="a_edge48&#45;headlabel"><a xlink:href="dir_000112_000099.html" target="_top" xlink:title="1">
<text text-anchor="middle" x="367.95" y="-161.68" font-family="Helvetica,sans-Serif" font-size="10.00">1</text>
</a>
</g>
</g>
<!-- dir_7d525351847fdbf26c204d9c5ec146c1 -->
<g id="node20" class="node">
<title>dir_7d525351847fdbf26c204d9c5ec146c1</title>
<g id="a_node20"><a xlink:href="dir_7d525351847fdbf26c204d9c5ec146c1.html" target="_top" xlink:title="RenderTexture">
<polygon fill="white" stroke="black" points="213.5,-468 126.5,-468 126.5,-432 213.5,-432 213.5,-468"/>
<text text-anchor="middle" x="170" y="-447.5" font-family="Helvetica,sans-Serif" font-size="10.00">RenderTexture</text>
</a>
</g>
</g>
<!-- dir_9051183bb55ab46ec0c1900a32da5be2&#45;&gt;dir_3008fb1da06f44ca71e3c91ff5fedb38 -->
<g id="edge15" class="edge">
<title>dir_9051183bb55ab46ec0c1900a32da5be2&#45;&gt;dir_3008fb1da06f44ca71e3c91ff5fedb38</title>
<path fill="none" stroke="black" d="M346.23,-287.54C340.62,-277.53 334.27,-264.49 331,-252 325.68,-231.7 324.6,-207.93 324.75,-190.06"/>
<polygon fill="black" stroke="black" points="328.25,-190.12 324.97,-180.04 321.25,-189.96 328.25,-190.12"/>
<g id="a_edge15&#45;headlabel"><a xlink:href="dir_000114_000099.html" target="_top" xlink:title="1">
<text text-anchor="middle" x="331.01" y="-191.27" font-family="Helvetica,sans-Serif" font-size="10.00">1</text>
</a>
</g>
</g>
<!-- dir_9051183bb55ab46ec0c1900a32da5be2&#45;&gt;dir_a20e3d58a77f7aec7eaa75bb031705ad -->
<g id="edge16" class="edge">
<title>dir_9051183bb55ab46ec0c1900a32da5be2&#45;&gt;dir_a20e3d58a77f7aec7eaa75bb031705ad</title>
<path fill="none" stroke="black" d="M384.19,-295.85C421.02,-283.46 486.88,-261.29 528.13,-247.41"/>
<polygon fill="black" stroke="black" points="529.44,-250.66 537.8,-244.15 527.21,-244.03 529.44,-250.66"/>
<g id="a_edge16&#45;headlabel"><a xlink:href="dir_000114_000101.html" target="_top" xlink:title="1">
<text text-anchor="middle" x="526.94" y="-252" font-family="Helvetica,sans-Serif" font-size="10.00">1</text>
</a>
</g>
</g>
<!-- dir_cf35fc6c26660d1f9e23e25cf7f90496 -->
<g id="node26" class="node">
<title>dir_cf35fc6c26660d1f9e23e25cf7f90496</title>
<g id="a_node26"><a xlink:href="dir_cf35fc6c26660d1f9e23e25cf7f90496.html" target="_top" xlink:title="Vector4">
<polygon fill="white" stroke="black" points="394,-252 340,-252 340,-216 394,-216 394,-252"/>
<text text-anchor="middle" x="367" y="-231.5" font-family="Helvetica,sans-Serif" font-size="10.00">Vector4</text>
</a>
</g>
</g>
<!-- dir_9051183bb55ab46ec0c1900a32da5be2&#45;&gt;dir_cf35fc6c26660d1f9e23e25cf7f90496 -->
<g id="edge17" class="edge">
<title>dir_9051183bb55ab46ec0c1900a32da5be2&#45;&gt;dir_cf35fc6c26660d1f9e23e25cf7f90496</title>
<path fill="none" stroke="black" d="M359.47,-287.7C360.57,-279.98 361.9,-270.71 363.13,-262.11"/>
<polygon fill="black" stroke="black" points="366.61,-262.5 364.56,-252.1 359.68,-261.51 366.61,-262.5"/>
<g id="a_edge17&#45;headlabel"><a xlink:href="dir_000114_000120.html" target="_top" xlink:title="1">
<text text-anchor="middle" x="368.91" y="-263.96" font-family="Helvetica,sans-Serif" font-size="10.00">1</text>
</a>
</g>
</g>
<!-- dir_381bfae45a785c91acc6402f45ed08b8 -->
<g id="node22" class="node">
<title>dir_381bfae45a785c91acc6402f45ed08b8</title>
<g id="a_node22"><a xlink:href="dir_381bfae45a785c91acc6402f45ed08b8.html" target="_top" xlink:title="Sound">
<polygon fill="white" stroke="black" points="555,-324 501,-324 501,-288 555,-288 555,-324"/>
<text text-anchor="middle" x="528" y="-303.5" font-family="Helvetica,sans-Serif" font-size="10.00">Sound</text>
</a>
</g>
</g>
<!-- dir_381bfae45a785c91acc6402f45ed08b8&#45;&gt;dir_a20e3d58a77f7aec7eaa75bb031705ad -->
<g id="edge13" class="edge">
<title>dir_381bfae45a785c91acc6402f45ed08b8&#45;&gt;dir_a20e3d58a77f7aec7eaa75bb031705ad</title>
<path fill="none" stroke="black" d="M537.15,-287.7C541.4,-279.64 546.56,-269.89 551.27,-260.98"/>
<polygon fill="black" stroke="black" points="554.38,-262.58 555.96,-252.1 548.19,-259.31 554.38,-262.58"/>
<g id="a_edge13&#45;headlabel"><a xlink:href="dir_000116_000101.html" target="_top" xlink:title="1">
<text text-anchor="middle" x="555.21" y="-264.59" font-family="Helvetica,sans-Serif" font-size="10.00">1</text>
</a>
</g>
</g>
<!-- dir_c305caf0c493ca3746aa83094793d74d&#45;&gt;dir_43e46fc5bd88e477fe6a3fa9305049fc -->
<g id="edge42" class="edge">
<title>dir_c305caf0c493ca3746aa83094793d74d&#45;&gt;dir_43e46fc5bd88e477fe6a3fa9305049fc</title>
<path fill="none" stroke="black" d="M458.47,-287.7C459.57,-279.98 460.9,-270.71 462.13,-262.11"/>
<polygon fill="black" stroke="black" points="465.61,-262.5 463.56,-252.1 458.68,-261.51 465.61,-262.5"/>
<g id="a_edge42&#45;headlabel"><a xlink:href="dir_000117_000097.html" target="_top" xlink:title="1">
<text text-anchor="middle" x="467.91" y="-263.96" font-family="Helvetica,sans-Serif" font-size="10.00">1</text>
</a>
</g>
</g>
<!-- dir_c305caf0c493ca3746aa83094793d74d&#45;&gt;dir_3008fb1da06f44ca71e3c91ff5fedb38 -->
<g id="edge38" class="edge">
<title>dir_c305caf0c493ca3746aa83094793d74d&#45;&gt;dir_3008fb1da06f44ca71e3c91ff5fedb38</title>
<path fill="none" stroke="black" d="M445.08,-287.95C438.55,-277.62 430.15,-264.14 423,-252 413.72,-236.23 415.31,-229.55 403,-216 391.36,-203.19 376.06,-191.86 362.16,-182.99"/>
<polygon fill="black" stroke="black" points="363.64,-179.79 353.29,-177.53 359.97,-185.75 363.64,-179.79"/>
<g id="a_edge38&#45;headlabel"><a xlink:href="dir_000117_000099.html" target="_top" xlink:title="1">
<text text-anchor="middle" x="368.19" y="-176.75" font-family="Helvetica,sans-Serif" font-size="10.00">1</text>
</a>
</g>
</g>
<!-- dir_c305caf0c493ca3746aa83094793d74d&#45;&gt;dir_a20e3d58a77f7aec7eaa75bb031705ad -->
<g id="edge39" class="edge">
<title>dir_c305caf0c493ca3746aa83094793d74d&#45;&gt;dir_a20e3d58a77f7aec7eaa75bb031705ad</title>
<path fill="none" stroke="black" d="M482.66,-287.88C496.78,-278.81 514.31,-267.55 529.56,-257.76"/>
<polygon fill="black" stroke="black" points="531.71,-260.54 538.23,-252.19 527.93,-254.65 531.71,-260.54"/>
<g id="a_edge39&#45;headlabel"><a xlink:href="dir_000117_000101.html" target="_top" xlink:title="1">
<text text-anchor="middle" x="530.22" y="-262.37" font-family="Helvetica,sans-Serif" font-size="10.00">1</text>
</a>
</g>
</g>
<!-- dir_c305caf0c493ca3746aa83094793d74d&#45;&gt;dir_2d1eb0aa0b8866aa6ce4d53e36ce0d15 -->
<g id="edge40" class="edge">
<title>dir_c305caf0c493ca3746aa83094793d74d&#45;&gt;dir_2d1eb0aa0b8866aa6ce4d53e36ce0d15</title>
<path fill="none" stroke="black" d="M428.9,-294.52C397.85,-282.51 346.77,-262.76 312.05,-249.33"/>
<polygon fill="black" stroke="black" points="312.87,-245.89 302.28,-245.55 310.35,-252.42 312.87,-245.89"/>
<g id="a_edge40&#45;headlabel"><a xlink:href="dir_000117_000103.html" target="_top" xlink:title="1">
<text text-anchor="middle" x="317.25" y="-242.04" font-family="Helvetica,sans-Serif" font-size="10.00">1</text>
</a>
</g>
</g>
<!-- dir_c305caf0c493ca3746aa83094793d74d&#45;&gt;dir_7cbdec24ebb6028a5824c2da4cbe28fb -->
<g id="edge43" class="edge">
<title>dir_c305caf0c493ca3746aa83094793d74d&#45;&gt;dir_7cbdec24ebb6028a5824c2da4cbe28fb</title>
<path fill="none" stroke="black" d="M483.36,-291.66C486.26,-290.37 489.18,-289.13 492,-288 536.6,-270.18 551.38,-269.59 600.48,-252.05"/>
<polygon fill="black" stroke="black" points="601.86,-255.27 610.06,-248.57 599.47,-248.69 601.86,-255.27"/>
<g id="a_edge43&#45;headlabel"><a xlink:href="dir_000117_000112.html" target="_top" xlink:title="1">
<text text-anchor="middle" x="599.45" y="-256.67" font-family="Helvetica,sans-Serif" font-size="10.00">1</text>
</a>
</g>
</g>
<!-- dir_c305caf0c493ca3746aa83094793d74d&#45;&gt;dir_e5ddc3b8247be52796b2c5c9f83f8e6d -->
<g id="edge41" class="edge">
<title>dir_c305caf0c493ca3746aa83094793d74d&#45;&gt;dir_e5ddc3b8247be52796b2c5c9f83f8e6d</title>
<path fill="none" stroke="black" d="M478.4,-287.87C489.23,-278.43 501.48,-265.83 509,-252 519.41,-232.85 524.12,-208.5 526.24,-190.11"/>
<polygon fill="black" stroke="black" points="529.74,-190.35 527.22,-180.06 522.77,-189.67 529.74,-190.35"/>
<g id="a_edge41&#45;headlabel"><a xlink:href="dir_000117_000118.html" target="_top" xlink:title="1">
<text text-anchor="middle" x="532.22" y="-191.71" font-family="Helvetica,sans-Serif" font-size="10.00">1</text>
</a>
</g>
</g>
<!-- dir_e5ddc3b8247be52796b2c5c9f83f8e6d&#45;&gt;dir_42ef1f57a2f22e94d8ccc109a0fc3cde -->
<g id="edge27" class="edge">
<title>dir_e5ddc3b8247be52796b2c5c9f83f8e6d&#45;&gt;dir_42ef1f57a2f22e94d8ccc109a0fc3cde</title>
<path fill="none" stroke="black" d="M500.69,-147.52C497.78,-146.26 494.85,-145.06 492,-144 440.27,-124.69 378.32,-108.59 339.8,-99.38"/>
<polygon fill="black" stroke="black" points="340.59,-95.97 330.06,-97.07 338.98,-102.78 340.59,-95.97"/>
<g id="a_edge27&#45;headlabel"><a xlink:href="dir_000118_000119.html" target="_top" xlink:title="1">
<text text-anchor="middle" x="344.75" y="-91.53" font-family="Helvetica,sans-Serif" font-size="10.00">1</text>
</a>
</g>
</g>
<!-- dir_39e02a65a8e8da5bae3d3dbe68a49458 -->
<g id="node28" class="node">
<title>dir_39e02a65a8e8da5bae3d3dbe68a49458</title>
<g id="a_node28"><a xlink:href="dir_39e02a65a8e8da5bae3d3dbe68a49458.html" target="_top" xlink:title="XMLGenerator">
<polygon fill="white" stroke="red" points="419,-36 333,-36 333,0 419,0 419,-36"/>
<text text-anchor="middle" x="376" y="-15.5" font-family="Helvetica,sans-Serif" font-size="10.00">XMLGenerator</text>
</a>
</g>
</g>
<!-- dir_e5ddc3b8247be52796b2c5c9f83f8e6d&#45;&gt;dir_39e02a65a8e8da5bae3d3dbe68a49458 -->
<g id="edge26" class="edge">
<title>dir_e5ddc3b8247be52796b2c5c9f83f8e6d&#45;&gt;dir_39e02a65a8e8da5bae3d3dbe68a49458</title>
<path fill="none" stroke="black" d="M509.67,-143.87C482.73,-118.71 432.36,-71.65 401.73,-43.04"/>
<polygon fill="black" stroke="black" points="404.1,-40.46 394.4,-36.19 399.32,-45.57 404.1,-40.46"/>
<g id="a_edge26&#45;headlabel"><a xlink:href="dir_000118_000007.html" target="_top" xlink:title="1">
<text text-anchor="middle" x="408.66" y="-38.34" font-family="Helvetica,sans-Serif" font-size="10.00">1</text>
</a>
</g>
</g>
<!-- dir_42ef1f57a2f22e94d8ccc109a0fc3cde&#45;&gt;dir_39e02a65a8e8da5bae3d3dbe68a49458 -->
<g id="edge14" class="edge">
<title>dir_42ef1f57a2f22e94d8ccc109a0fc3cde&#45;&gt;dir_39e02a65a8e8da5bae3d3dbe68a49458</title>
<path fill="none" stroke="black" d="M321.04,-71.7C330.06,-63.05 341.12,-52.45 350.94,-43.03"/>
<polygon fill="black" stroke="black" points="353.37,-45.55 358.16,-36.1 348.52,-40.5 353.37,-45.55"/>
<g id="a_edge14&#45;headlabel"><a xlink:href="dir_000119_000007.html" target="_top" xlink:title="1">
<text text-anchor="middle" x="352.74" y="-47.59" font-family="Helvetica,sans-Serif" font-size="10.00">1</text>
</a>
</g>
</g>
<!-- dir_f41cae2d5a2f758547166d37d9d6bc58 -->
<g id="node27" class="node">
<title>dir_f41cae2d5a2f758547166d37d9d6bc58</title>
<g id="a_node27"><a xlink:href="dir_f41cae2d5a2f758547166d37d9d6bc58.html" target="_top" xlink:title="Window">
<polygon fill="white" stroke="black" points="210,-324 154,-324 154,-288 210,-288 210,-324"/>
<text text-anchor="middle" x="182" y="-303.5" font-family="Helvetica,sans-Serif" font-size="10.00">Window</text>
</a>
</g>
</g>
<!-- dir_f41cae2d5a2f758547166d37d9d6bc58&#45;&gt;dir_d24ad10a75a0a4351bb3081f1b154241 -->
<g id="edge25" class="edge">
<title>dir_f41cae2d5a2f758547166d37d9d6bc58&#45;&gt;dir_d24ad10a75a0a4351bb3081f1b154241</title>
<path fill="none" stroke="black" d="M153.84,-301.61C124.73,-296.43 80.71,-283.57 60,-252 48.11,-233.87 50.73,-208.94 55.54,-190.08"/>
<polygon fill="black" stroke="black" points="58.95,-190.88 58.36,-180.3 52.22,-188.94 58.95,-190.88"/>
<g id="a_edge25&#45;headlabel"><a xlink:href="dir_000121_000096.html" target="_top" xlink:title="1">
<text text-anchor="middle" x="60.68" y="-192.62" font-family="Helvetica,sans-Serif" font-size="10.00">1</text>
</a>
</g>
</g>
<!-- dir_f41cae2d5a2f758547166d37d9d6bc58&#45;&gt;dir_3008fb1da06f44ca71e3c91ff5fedb38 -->
<g id="edge21" class="edge">
<title>dir_f41cae2d5a2f758547166d37d9d6bc58&#45;&gt;dir_3008fb1da06f44ca71e3c91ff5fedb38</title>
<path fill="none" stroke="black" d="M181.89,-287.92C182.66,-268.37 186.74,-236.42 204,-216 215.5,-202.39 257.46,-185.93 288.98,-175"/>
<polygon fill="black" stroke="black" points="290.46,-178.2 298.8,-171.66 288.2,-171.57 290.46,-178.2"/>
<g id="a_edge21&#45;headlabel"><a xlink:href="dir_000121_000099.html" target="_top" xlink:title="1">
<text text-anchor="middle" x="287.97" y="-179.55" font-family="Helvetica,sans-Serif" font-size="10.00">1</text>
</a>
</g>
</g>
<!-- dir_f41cae2d5a2f758547166d37d9d6bc58&#45;&gt;dir_2d1eb0aa0b8866aa6ce4d53e36ce0d15 -->
<g id="edge23" class="edge">
<title>dir_f41cae2d5a2f758547166d37d9d6bc58&#45;&gt;dir_2d1eb0aa0b8866aa6ce4d53e36ce0d15</title>
<path fill="none" stroke="black" d="M204.99,-287.7C216.81,-278.8 231.39,-267.82 244.18,-258.2"/>
<polygon fill="black" stroke="black" points="246.39,-260.91 252.28,-252.1 242.18,-255.32 246.39,-260.91"/>
<g id="a_edge23&#45;headlabel"><a xlink:href="dir_000121_000103.html" target="_top" xlink:title="1">
<text text-anchor="middle" x="245.23" y="-262.84" font-family="Helvetica,sans-Serif" font-size="10.00">1</text>
</a>
</g>
</g>
<!-- dir_f41cae2d5a2f758547166d37d9d6bc58&#45;&gt;dir_e5ddc3b8247be52796b2c5c9f83f8e6d -->
<g id="edge24" class="edge">
<title>dir_f41cae2d5a2f758547166d37d9d6bc58&#45;&gt;dir_e5ddc3b8247be52796b2c5c9f83f8e6d</title>
<path fill="none" stroke="black" d="M187.95,-287.69C196.04,-266.98 212.61,-232.96 239,-216 331.84,-156.33 380.41,-209.42 490.99,-179.69"/>
<polygon fill="black" stroke="black" points="492.17,-182.99 500.82,-176.87 490.24,-176.26 492.17,-182.99"/>
<g id="a_edge24&#45;headlabel"><a xlink:href="dir_000121_000118.html" target="_top" xlink:title="1">
<text text-anchor="middle" x="489.5" y="-184.21" font-family="Helvetica,sans-Serif" font-size="10.00">1</text>
</a>
</g>
</g>
<!-- dir_f41cae2d5a2f758547166d37d9d6bc58&#45;&gt;dir_42ef1f57a2f22e94d8ccc109a0fc3cde -->
<g id="edge22" class="edge">
<title>dir_f41cae2d5a2f758547166d37d9d6bc58&#45;&gt;dir_42ef1f57a2f22e94d8ccc109a0fc3cde</title>
<path fill="none" stroke="black" d="M153.58,-299.63C128.06,-293.15 92.05,-279.48 75,-252 66.56,-238.41 65.09,-228.56 75,-216 117.45,-162.16 170.4,-221.47 225,-180 239.58,-168.93 233.65,-158.36 245,-144 253.27,-133.53 263.7,-123.32 273.42,-114.7"/>
<polygon fill="black" stroke="black" points="275.72,-117.34 281.01,-108.16 271.15,-112.04 275.72,-117.34"/>
<g id="a_edge22&#45;headlabel"><a xlink:href="dir_000121_000119.html" target="_top" xlink:title="1">
<text text-anchor="middle" x="274.85" y="-119.34" font-family="Helvetica,sans-Serif" font-size="10.00">1</text>
</a>
</g>
</g>
</g>
</svg>
