<?xml version="1.0" encoding="UTF-8" standalone="no"?>
<!DOCTYPE svg PUBLIC "-//W3C//DTD SVG 1.1//EN"
 "http://www.w3.org/Graphics/SVG/1.1/DTD/svg11.dtd">
<!-- Generated by graphviz version 2.43.0 (0)
 -->
<!-- Title: Libs/Engine/sources/Components/Camera Pages: 1 -->
<svg width="449pt" height="223pt"
 viewBox="0.00 0.00 448.50 223.00" xmlns="http://www.w3.org/2000/svg" xmlns:xlink="http://www.w3.org/1999/xlink">
<g id="graph0" class="graph" transform="scale(1 1) rotate(0) translate(4 219)">
<title>Libs/Engine/sources/Components/Camera</title>
<polygon fill="white" stroke="transparent" points="-4,4 -4,-219 444.5,-219 444.5,4 -4,4"/>
<g id="clust1" class="cluster">
<title>clusterdir_e1b125331ccfd7597fbda9d04ae41b2d</title>
<g id="a_clust1"><a xlink:href="dir_e1b125331ccfd7597fbda9d04ae41b2d.html" target="_top" xlink:title="Components">
<polygon fill="#ddddee" stroke="black" points="190,-136 190,-207 268,-207 268,-136 190,-136"/>
<text text-anchor="middle" x="229" y="-195" font-family="Helvetica,sans-Serif" font-size="10.00">Components</text>
</a>
</g>
</g>
<!-- dir_1f7fd5c054f752becab847a993818f59 -->
<g id="node1" class="node">
<title>dir_1f7fd5c054f752becab847a993818f59</title>
<g id="a_node1"><a xlink:href="dir_1f7fd5c054f752becab847a993818f59.html" target="_top" xlink:title="Camera">
<polygon fill="#eeeeff" stroke="black" points="256.5,-180 201.5,-180 201.5,-144 256.5,-144 256.5,-180"/>
<text text-anchor="middle" x="229" y="-159.5" font-family="Helvetica,sans-Serif" font-size="10.00">Camera</text>
</a>
</g>
</g>
<!-- dir_236e02cd02223a2412f137d7ad85069e -->
<g id="node2" class="node">
<title>dir_236e02cd02223a2412f137d7ad85069e</title>
<g id="a_node2"><a xlink:href="dir_236e02cd02223a2412f137d7ad85069e.html" target="_top" xlink:title="GameConfiguration">
<polygon fill="none" stroke="black" points="231.5,-108 120.5,-108 120.5,-72 231.5,-72 231.5,-108"/>
<text text-anchor="middle" x="176" y="-87.5" font-family="Helvetica,sans-Serif" font-size="10.00">GameConfiguration</text>
</a>
</g>
</g>
<!-- dir_1f7fd5c054f752becab847a993818f59&#45;&gt;dir_236e02cd02223a2412f137d7ad85069e -->
<g id="edge5" class="edge">
<title>dir_1f7fd5c054f752becab847a993818f59&#45;&gt;dir_236e02cd02223a2412f137d7ad85069e</title>
<path fill="none" stroke="black" d="M215.9,-143.7C209.61,-135.39 201.96,-125.28 195.04,-116.14"/>
<polygon fill="black" stroke="black" points="197.78,-113.96 188.95,-108.1 192.2,-118.19 197.78,-113.96"/>
<g id="a_edge5&#45;headlabel"><a xlink:href="dir_000045_000074.html" target="_top" xlink:title="1">
<text text-anchor="middle" x="202.22" y="-112.62" font-family="Helvetica,sans-Serif" font-size="10.00">1</text>
</a>
</g>
</g>
<!-- dir_2e574b6382041dc2a136b1675bed65ad -->
<g id="node3" class="node">
<title>dir_2e574b6382041dc2a136b1675bed65ad</title>
<g id="a_node3"><a xlink:href="dir_2e574b6382041dc2a136b1675bed65ad.html" target="_top" xlink:title="RayLib">
<polygon fill="white" stroke="red" points="145,-36 91,-36 91,0 145,0 145,-36"/>
<text text-anchor="middle" x="118" y="-15.5" font-family="Helvetica,sans-Serif" font-size="10.00">RayLib</text>
</a>
</g>
</g>
<!-- dir_1f7fd5c054f752becab847a993818f59&#45;&gt;dir_2e574b6382041dc2a136b1675bed65ad -->
<g id="edge6" class="edge">
<title>dir_1f7fd5c054f752becab847a993818f59&#45;&gt;dir_2e574b6382041dc2a136b1675bed65ad</title>
<path fill="none" stroke="black" d="M201.27,-158.57C147.22,-153.2 30.94,-138.32 7,-108 -2.91,-95.44 -1.53,-85.53 7,-72 23.09,-46.49 55.22,-32.99 80.79,-26.02"/>
<polygon fill="black" stroke="black" points="81.72,-29.4 90.57,-23.58 80.02,-22.61 81.72,-29.4"/>
<g id="a_edge6&#45;headlabel"><a xlink:href="dir_000045_000005.html" target="_top" xlink:title="4">
<text text-anchor="middle" x="78.92" y="-30.52" font-family="Helvetica,sans-Serif" font-size="10.00">4</text>
</a>
</g>
</g>
<!-- dir_ba9f96492b222561776079c293f18c0c -->
<g id="node4" class="node">
<title>dir_ba9f96492b222561776079c293f18c0c</title>
<g id="a_node4"><a xlink:href="dir_ba9f96492b222561776079c293f18c0c.html" target="_top" xlink:title="AssetManager">
<polygon fill="white" stroke="red" points="102,-108 16,-108 16,-72 102,-72 102,-108"/>
<text text-anchor="middle" x="59" y="-87.5" font-family="Helvetica,sans-Serif" font-size="10.00">AssetManager</text>
</a>
</g>
</g>
<!-- dir_1f7fd5c054f752becab847a993818f59&#45;&gt;dir_ba9f96492b222561776079c293f18c0c -->
<g id="edge7" class="edge">
<title>dir_1f7fd5c054f752becab847a993818f59&#45;&gt;dir_ba9f96492b222561776079c293f18c0c</title>
<path fill="none" stroke="black" d="M201.31,-149.6C176.61,-139.42 139.81,-124.27 109.83,-111.93"/>
<polygon fill="black" stroke="black" points="110.93,-108.6 100.35,-108.03 108.27,-115.07 110.93,-108.6"/>
<g id="a_edge7&#45;headlabel"><a xlink:href="dir_000045_000035.html" target="_top" xlink:title="1">
<text text-anchor="middle" x="115.34" y="-104.84" font-family="Helvetica,sans-Serif" font-size="10.00">1</text>
</a>
</g>
</g>
<!-- dir_4a120dbb11348b2823d2a12dcab2f1e3 -->
<g id="node5" class="node">
<title>dir_4a120dbb11348b2823d2a12dcab2f1e3</title>
<g id="a_node5"><a xlink:href="dir_4a120dbb11348b2823d2a12dcab2f1e3.html" target="_top" xlink:title="ECS">
<polygon fill="white" stroke="red" points="339,-36 285,-36 285,0 339,0 339,-36"/>
<text text-anchor="middle" x="312" y="-15.5" font-family="Helvetica,sans-Serif" font-size="10.00">ECS</text>
</a>
</g>
</g>
<!-- dir_1f7fd5c054f752becab847a993818f59&#45;&gt;dir_4a120dbb11348b2823d2a12dcab2f1e3 -->
<g id="edge8" class="edge">
<title>dir_1f7fd5c054f752becab847a993818f59&#45;&gt;dir_4a120dbb11348b2823d2a12dcab2f1e3</title>
<path fill="none" stroke="black" d="M256.55,-153.98C279.11,-146.61 309.56,-132.59 324,-108 335.05,-89.2 330.44,-64.37 323.99,-45.72"/>
<polygon fill="black" stroke="black" points="327.24,-44.43 320.41,-36.33 320.7,-46.92 327.24,-44.43"/>
<g id="a_edge8&#45;headlabel"><a xlink:href="dir_000045_000002.html" target="_top" xlink:title="3">
<text text-anchor="middle" x="331.18" y="-44.28" font-family="Helvetica,sans-Serif" font-size="10.00">3</text>
</a>
</g>
</g>
<!-- dir_d415c0d599231354676ceb56dc96abfc -->
<g id="node6" class="node">
<title>dir_d415c0d599231354676ceb56dc96abfc</title>
<g id="a_node6"><a xlink:href="dir_d415c0d599231354676ceb56dc96abfc.html" target="_top" xlink:title="IBehaviour">
<polygon fill="none" stroke="black" points="440.5,-108 371.5,-108 371.5,-72 440.5,-72 440.5,-108"/>
<text text-anchor="middle" x="406" y="-87.5" font-family="Helvetica,sans-Serif" font-size="10.00">IBehaviour</text>
</a>
</g>
</g>
<!-- dir_1f7fd5c054f752becab847a993818f59&#45;&gt;dir_d415c0d599231354676ceb56dc96abfc -->
<g id="edge9" class="edge">
<title>dir_1f7fd5c054f752becab847a993818f59&#45;&gt;dir_d415c0d599231354676ceb56dc96abfc</title>
<path fill="none" stroke="black" d="M256.66,-150.06C284.8,-138.93 328.85,-121.51 361.83,-108.47"/>
<polygon fill="black" stroke="black" points="363.23,-111.68 371.25,-104.75 360.66,-105.17 363.23,-111.68"/>
<g id="a_edge9&#45;headlabel"><a xlink:href="dir_000045_000058.html" target="_top" xlink:title="1">
<text text-anchor="middle" x="360.94" y="-113.14" font-family="Helvetica,sans-Serif" font-size="10.00">1</text>
</a>
</g>
</g>
<!-- dir_9c1a1c874c5316598fbf40a566ddc437 -->
<g id="node7" class="node">
<title>dir_9c1a1c874c5316598fbf40a566ddc437</title>
<g id="a_node7"><a xlink:href="dir_9c1a1c874c5316598fbf40a566ddc437.html" target="_top" xlink:title="Transform">
<polygon fill="none" stroke="black" points="314.5,-108 249.5,-108 249.5,-72 314.5,-72 314.5,-108"/>
<text text-anchor="middle" x="282" y="-87.5" font-family="Helvetica,sans-Serif" font-size="10.00">Transform</text>
</a>
</g>
</g>
<!-- dir_1f7fd5c054f752becab847a993818f59&#45;&gt;dir_9c1a1c874c5316598fbf40a566ddc437 -->
<g id="edge10" class="edge">
<title>dir_1f7fd5c054f752becab847a993818f59&#45;&gt;dir_9c1a1c874c5316598fbf40a566ddc437</title>
<path fill="none" stroke="black" d="M242.11,-143.7C248.4,-135.39 256.05,-125.28 262.97,-116.14"/>
<polygon fill="black" stroke="black" points="265.81,-118.19 269.05,-108.1 260.23,-113.96 265.81,-118.19"/>
<g id="a_edge10&#45;headlabel"><a xlink:href="dir_000045_000071.html" target="_top" xlink:title="1">
<text text-anchor="middle" x="265.9" y="-120.27" font-family="Helvetica,sans-Serif" font-size="10.00">1</text>
</a>
</g>
</g>
<!-- dir_236e02cd02223a2412f137d7ad85069e&#45;&gt;dir_2e574b6382041dc2a136b1675bed65ad -->
<g id="edge1" class="edge">
<title>dir_236e02cd02223a2412f137d7ad85069e&#45;&gt;dir_2e574b6382041dc2a136b1675bed65ad</title>
<path fill="none" stroke="black" d="M161.67,-71.7C154.71,-63.3 146.23,-53.07 138.6,-43.86"/>
<polygon fill="black" stroke="black" points="141.25,-41.57 132.18,-36.1 135.86,-46.04 141.25,-41.57"/>
<g id="a_edge1&#45;headlabel"><a xlink:href="dir_000074_000005.html" target="_top" xlink:title="2">
<text text-anchor="middle" x="145.73" y="-40.03" font-family="Helvetica,sans-Serif" font-size="10.00">2</text>
</a>
</g>
</g>
<!-- dir_236e02cd02223a2412f137d7ad85069e&#45;&gt;dir_4a120dbb11348b2823d2a12dcab2f1e3 -->
<g id="edge2" class="edge">
<title>dir_236e02cd02223a2412f137d7ad85069e&#45;&gt;dir_4a120dbb11348b2823d2a12dcab2f1e3</title>
<path fill="none" stroke="black" d="M209.27,-71.88C229.32,-61.56 254.88,-48.4 275.48,-37.8"/>
<polygon fill="black" stroke="black" points="277.28,-40.81 284.57,-33.12 274.07,-34.59 277.28,-40.81"/>
<g id="a_edge2&#45;headlabel"><a xlink:href="dir_000074_000002.html" target="_top" xlink:title="2">
<text text-anchor="middle" x="275.38" y="-42.48" font-family="Helvetica,sans-Serif" font-size="10.00">2</text>
</a>
</g>
</g>
<!-- dir_ba9f96492b222561776079c293f18c0c&#45;&gt;dir_2e574b6382041dc2a136b1675bed65ad -->
<g id="edge3" class="edge">
<title>dir_ba9f96492b222561776079c293f18c0c&#45;&gt;dir_2e574b6382041dc2a136b1675bed65ad</title>
<path fill="none" stroke="black" d="M73.59,-71.7C80.66,-63.3 89.29,-53.07 97.05,-43.86"/>
<polygon fill="black" stroke="black" points="99.82,-46.01 103.59,-36.1 94.47,-41.49 99.82,-46.01"/>
<g id="a_edge3&#45;headlabel"><a xlink:href="dir_000035_000005.html" target="_top" xlink:title="1">
<text text-anchor="middle" x="99.67" y="-48.08" font-family="Helvetica,sans-Serif" font-size="10.00">1</text>
</a>
</g>
</g>
<!-- dir_d415c0d599231354676ceb56dc96abfc&#45;&gt;dir_4a120dbb11348b2823d2a12dcab2f1e3 -->
<g id="edge4" class="edge">
<title>dir_d415c0d599231354676ceb56dc96abfc&#45;&gt;dir_4a120dbb11348b2823d2a12dcab2f1e3</title>
<path fill="none" stroke="black" d="M382.77,-71.7C370.82,-62.8 356.08,-51.82 343.16,-42.2"/>
<polygon fill="black" stroke="black" points="345.08,-39.27 334.97,-36.1 340.9,-44.88 345.08,-39.27"/>
<g id="a_edge4&#45;headlabel"><a xlink:href="dir_000058_000002.html" target="_top" xlink:title="2">
<text text-anchor="middle" x="349.66" y="-36.64" font-family="Helvetica,sans-Serif" font-size="10.00">2</text>
</a>
</g>
</g>
<!-- dir_9c1a1c874c5316598fbf40a566ddc437&#45;&gt;dir_2e574b6382041dc2a136b1675bed65ad -->
<g id="edge11" class="edge">
<title>dir_9c1a1c874c5316598fbf40a566ddc437&#45;&gt;dir_2e574b6382041dc2a136b1675bed65ad</title>
<path fill="none" stroke="black" d="M249.21,-75C221.87,-63.33 182.94,-46.72 154.59,-34.62"/>
<polygon fill="black" stroke="black" points="155.61,-31.25 145.04,-30.54 152.87,-37.69 155.61,-31.25"/>
<g id="a_edge11&#45;headlabel"><a xlink:href="dir_000071_000005.html" target="_top" xlink:title="1">
<text text-anchor="middle" x="160.04" y="-27.55" font-family="Helvetica,sans-Serif" font-size="10.00">1</text>
</a>
</g>
</g>
<!-- dir_9c1a1c874c5316598fbf40a566ddc437&#45;&gt;dir_4a120dbb11348b2823d2a12dcab2f1e3 -->
<g id="edge12" class="edge">
<title>dir_9c1a1c874c5316598fbf40a566ddc437&#45;&gt;dir_4a120dbb11348b2823d2a12dcab2f1e3</title>
<path fill="none" stroke="black" d="M289.42,-71.7C292.8,-63.81 296.87,-54.3 300.63,-45.55"/>
<polygon fill="black" stroke="black" points="303.95,-46.67 304.67,-36.1 297.52,-43.92 303.95,-46.67"/>
<g id="a_edge12&#45;headlabel"><a xlink:href="dir_000071_000002.html" target="_top" xlink:title="1">
<text text-anchor="middle" x="305.15" y="-48.6" font-family="Helvetica,sans-Serif" font-size="10.00">1</text>
</a>
</g>
</g>
</g>
</svg>
