<?xml version="1.0" encoding="UTF-8" standalone="no"?>
<!DOCTYPE svg PUBLIC "-//W3C//DTD SVG 1.1//EN"
 "http://www.w3.org/Graphics/SVG/1.1/DTD/svg11.dtd">
<!-- Generated by graphviz version 2.43.0 (0)
 -->
<!-- Title: Libs/Engine/sources/Systems/RenderSystem Pages: 1 -->
<svg width="205pt" height="223pt"
 viewBox="0.00 0.00 205.00 223.00" xmlns="http://www.w3.org/2000/svg" xmlns:xlink="http://www.w3.org/1999/xlink">
<g id="graph0" class="graph" transform="scale(1 1) rotate(0) translate(4 219)">
<title>Libs/Engine/sources/Systems/RenderSystem</title>
<polygon fill="white" stroke="transparent" points="-4,4 -4,-219 201,-219 201,4 -4,4"/>
<g id="clust1" class="cluster">
<title>clusterdir_9a9e2b7a8f13e92341bd3030ad46e690</title>
<g id="a_clust1"><a xlink:href="dir_9a9e2b7a8f13e92341bd3030ad46e690.html" target="_top" xlink:title="Systems">
<polygon fill="#ddddee" stroke="black" points="85,-136 85,-207 189,-207 189,-136 85,-136"/>
<text text-anchor="middle" x="137" y="-195" font-family="Helvetica,sans-Serif" font-size="10.00">Systems</text>
</a>
</g>
</g>
<!-- dir_52d49bc2a3a39357bb95d7a9513c7405 -->
<g id="node1" class="node">
<title>dir_52d49bc2a3a39357bb95d7a9513c7405</title>
<g id="a_node1"><a xlink:href="dir_52d49bc2a3a39357bb95d7a9513c7405.html" target="_top" xlink:title="RenderSystem">
<polygon fill="#eeeeff" stroke="black" points="181,-180 93,-180 93,-144 181,-144 181,-180"/>
<text text-anchor="middle" x="137" y="-159.5" font-family="Helvetica,sans-Serif" font-size="10.00">RenderSystem</text>
</a>
</g>
</g>
<!-- dir_410b9e5e5923f3d338ad2cc3fc994ccd -->
<g id="node2" class="node">
<title>dir_410b9e5e5923f3d338ad2cc3fc994ccd</title>
<g id="a_node2"><a xlink:href="dir_410b9e5e5923f3d338ad2cc3fc994ccd.html" target="_top" xlink:title="ModelShader">
<polygon fill="white" stroke="red" points="80,-108 0,-108 0,-72 80,-72 80,-108"/>
<text text-anchor="middle" x="40" y="-87.5" font-family="Helvetica,sans-Serif" font-size="10.00">ModelShader</text>
</a>
</g>
</g>
<!-- dir_52d49bc2a3a39357bb95d7a9513c7405&#45;&gt;dir_410b9e5e5923f3d338ad2cc3fc994ccd -->
<g id="edge3" class="edge">
<title>dir_52d49bc2a3a39357bb95d7a9513c7405&#45;&gt;dir_410b9e5e5923f3d338ad2cc3fc994ccd</title>
<path fill="none" stroke="black" d="M113.02,-143.7C100.69,-134.8 85.48,-123.82 72.15,-114.2"/>
<polygon fill="black" stroke="black" points="73.86,-111.12 63.7,-108.1 69.76,-116.79 73.86,-111.12"/>
<g id="a_edge3&#45;headlabel"><a xlink:href="dir_000085_000075.html" target="_top" xlink:title="1">
<text text-anchor="middle" x="78.44" y="-108.42" font-family="Helvetica,sans-Serif" font-size="10.00">1</text>
</a>
</g>
</g>
<!-- dir_e1b125331ccfd7597fbda9d04ae41b2d -->
<g id="node3" class="node">
<title>dir_e1b125331ccfd7597fbda9d04ae41b2d</title>
<g id="a_node3"><a xlink:href="dir_e1b125331ccfd7597fbda9d04ae41b2d.html" target="_top" xlink:title="Components">
<polygon fill="white" stroke="red" points="176,-108 98,-108 98,-72 176,-72 176,-108"/>
<text text-anchor="middle" x="137" y="-87.5" font-family="Helvetica,sans-Serif" font-size="10.00">Components</text>
</a>
</g>
</g>
<!-- dir_52d49bc2a3a39357bb95d7a9513c7405&#45;&gt;dir_e1b125331ccfd7597fbda9d04ae41b2d -->
<g id="edge4" class="edge">
<title>dir_52d49bc2a3a39357bb95d7a9513c7405&#45;&gt;dir_e1b125331ccfd7597fbda9d04ae41b2d</title>
<path fill="none" stroke="black" d="M137,-143.7C137,-135.98 137,-126.71 137,-118.11"/>
<polygon fill="black" stroke="black" points="140.5,-118.1 137,-108.1 133.5,-118.1 140.5,-118.1"/>
<g id="a_edge4&#45;headlabel"><a xlink:href="dir_000085_000037.html" target="_top" xlink:title="5">
<text text-anchor="middle" x="143.34" y="-119.2" font-family="Helvetica,sans-Serif" font-size="10.00">5</text>
</a>
</g>
</g>
<!-- dir_4a120dbb11348b2823d2a12dcab2f1e3 -->
<g id="node4" class="node">
<title>dir_4a120dbb11348b2823d2a12dcab2f1e3</title>
<g id="a_node4"><a xlink:href="dir_4a120dbb11348b2823d2a12dcab2f1e3.html" target="_top" xlink:title="ECS">
<polygon fill="white" stroke="red" points="164,-36 110,-36 110,0 164,0 164,-36"/>
<text text-anchor="middle" x="137" y="-15.5" font-family="Helvetica,sans-Serif" font-size="10.00">ECS</text>
</a>
</g>
</g>
<!-- dir_52d49bc2a3a39357bb95d7a9513c7405&#45;&gt;dir_4a120dbb11348b2823d2a12dcab2f1e3 -->
<g id="edge5" class="edge">
<title>dir_52d49bc2a3a39357bb95d7a9513c7405&#45;&gt;dir_4a120dbb11348b2823d2a12dcab2f1e3</title>
<path fill="none" stroke="black" d="M158.71,-143.79C168.76,-134.41 179.64,-121.9 185,-108 190.76,-93.07 190.76,-86.93 185,-72 180.9,-61.36 173.56,-51.53 165.83,-43.3"/>
<polygon fill="black" stroke="black" points="168.27,-40.78 158.71,-36.21 163.33,-45.75 168.27,-40.78"/>
<g id="a_edge5&#45;headlabel"><a xlink:href="dir_000085_000002.html" target="_top" xlink:title="2">
<text text-anchor="middle" x="172.82" y="-38.81" font-family="Helvetica,sans-Serif" font-size="10.00">2</text>
</a>
</g>
</g>
<!-- dir_410b9e5e5923f3d338ad2cc3fc994ccd&#45;&gt;dir_4a120dbb11348b2823d2a12dcab2f1e3 -->
<g id="edge1" class="edge">
<title>dir_410b9e5e5923f3d338ad2cc3fc994ccd&#45;&gt;dir_4a120dbb11348b2823d2a12dcab2f1e3</title>
<path fill="none" stroke="black" d="M63.98,-71.7C76.31,-62.8 91.52,-51.82 104.85,-42.2"/>
<polygon fill="black" stroke="black" points="107.24,-44.79 113.3,-36.1 103.14,-39.12 107.24,-44.79"/>
<g id="a_edge1&#45;headlabel"><a xlink:href="dir_000075_000002.html" target="_top" xlink:title="1">
<text text-anchor="middle" x="105.98" y="-46.7" font-family="Helvetica,sans-Serif" font-size="10.00">1</text>
</a>
</g>
</g>
<!-- dir_e1b125331ccfd7597fbda9d04ae41b2d&#45;&gt;dir_4a120dbb11348b2823d2a12dcab2f1e3 -->
<g id="edge2" class="edge">
<title>dir_e1b125331ccfd7597fbda9d04ae41b2d&#45;&gt;dir_4a120dbb11348b2823d2a12dcab2f1e3</title>
<path fill="none" stroke="black" d="M137,-71.7C137,-63.98 137,-54.71 137,-46.11"/>
<polygon fill="black" stroke="black" points="140.5,-46.1 137,-36.1 133.5,-46.1 140.5,-46.1"/>
<g id="a_edge2&#45;headlabel"><a xlink:href="dir_000037_000002.html" target="_top" xlink:title="33">
<text text-anchor="middle" x="143.34" y="-47.2" font-family="Helvetica,sans-Serif" font-size="10.00">33</text>
</a>
</g>
</g>
</g>
</svg>
