<?xml version="1.0" encoding="UTF-8" standalone="no"?>
<!DOCTYPE svg PUBLIC "-//W3C//DTD SVG 1.1//EN"
 "http://www.w3.org/Graphics/SVG/1.1/DTD/svg11.dtd">
<!-- Generated by graphviz version 2.43.0 (0)
 -->
<!-- Title: Prototype/sources/Coordinator Pages: 1 -->
<svg width="114pt" height="151pt"
 viewBox="0.00 0.00 114.00 151.00" xmlns="http://www.w3.org/2000/svg" xmlns:xlink="http://www.w3.org/1999/xlink">
<g id="graph0" class="graph" transform="scale(1 1) rotate(0) translate(4 147)">
<title>Prototype/sources/Coordinator</title>
<polygon fill="white" stroke="transparent" points="-4,4 -4,-147 110,-147 110,4 -4,4"/>
<g id="clust1" class="cluster">
<title>clusterdir_133e6c552ddd196868d89f65ecca19a3</title>
<g id="a_clust1"><a xlink:href="dir_133e6c552ddd196868d89f65ecca19a3.html" target="_top" xlink:title="sources">
<polygon fill="#ddddee" stroke="black" points="8,-64 8,-135 98,-135 98,-64 8,-64"/>
<text text-anchor="middle" x="53" y="-123" font-family="Helvetica,sans-Serif" font-size="10.00">sources</text>
</a>
</g>
</g>
<!-- dir_e8764ab21035678e47deb17d33edafb1 -->
<g id="node1" class="node">
<title>dir_e8764ab21035678e47deb17d33edafb1</title>
<g id="a_node1"><a xlink:href="dir_e8764ab21035678e47deb17d33edafb1.html" target="_top" xlink:title="Coordinator">
<polygon fill="#eeeeff" stroke="black" points="90,-108 16,-108 16,-72 90,-72 90,-108"/>
<text text-anchor="middle" x="53" y="-87.5" font-family="Helvetica,sans-Serif" font-size="10.00">Coordinator</text>
</a>
</g>
</g>
<!-- dir_6e6cb9563333489fde7459b1f95e59a5 -->
<g id="node2" class="node">
<title>dir_6e6cb9563333489fde7459b1f95e59a5</title>
<g id="a_node2"><a xlink:href="dir_6e6cb9563333489fde7459b1f95e59a5.html" target="_top" xlink:title="Libs">
<polygon fill="white" stroke="red" points="80,-36 26,-36 26,0 80,0 80,-36"/>
<text text-anchor="middle" x="53" y="-15.5" font-family="Helvetica,sans-Serif" font-size="10.00">Libs</text>
</a>
</g>
</g>
<!-- dir_e8764ab21035678e47deb17d33edafb1&#45;&gt;dir_6e6cb9563333489fde7459b1f95e59a5 -->
<g id="edge1" class="edge">
<title>dir_e8764ab21035678e47deb17d33edafb1&#45;&gt;dir_6e6cb9563333489fde7459b1f95e59a5</title>
<path fill="none" stroke="black" d="M53,-71.7C53,-63.98 53,-54.71 53,-46.11"/>
<polygon fill="black" stroke="black" points="56.5,-46.1 53,-36.1 49.5,-46.1 56.5,-46.1"/>
<g id="a_edge1&#45;headlabel"><a xlink:href="dir_000012_000001.html" target="_top" xlink:title="19">
<text text-anchor="middle" x="59.34" y="-47.2" font-family="Helvetica,sans-Serif" font-size="10.00">19</text>
</a>
</g>
</g>
</g>
</svg>
