<?xml version="1.0" encoding="UTF-8" standalone="no"?>
<!DOCTYPE svg PUBLIC "-//W3C//DTD SVG 1.1//EN"
 "http://www.w3.org/Graphics/SVG/1.1/DTD/svg11.dtd">
<!-- Generated by graphviz version 2.43.0 (0)
 -->
<!-- Title: Libs/Lua/sources Pages: 1 -->
<svg width="346pt" height="255pt"
 viewBox="0.00 0.00 346.00 255.00" xmlns="http://www.w3.org/2000/svg" xmlns:xlink="http://www.w3.org/1999/xlink">
<g id="graph0" class="graph" transform="scale(1 1) rotate(0) translate(4 251)">
<title>Libs/Lua/sources</title>
<polygon fill="white" stroke="transparent" points="-4,4 -4,-251 342,-251 342,4 -4,4"/>
<g id="clust1" class="cluster">
<title>clusterdir_402206ef4f5d43d9b8083ea2790770a1</title>
<g id="a_clust1"><a xlink:href="dir_402206ef4f5d43d9b8083ea2790770a1.html" target="_top" xlink:title="Lua">
<polygon fill="#ddddee" stroke="black" points="8,-8 8,-239 276,-239 276,-8 8,-8"/>
<text text-anchor="middle" x="142" y="-227" font-family="Helvetica,sans-Serif" font-size="10.00">Lua</text>
</a>
</g>
</g>
<g id="clust2" class="cluster">
<title>clusterdir_2afc1427824640c7cb01573f168f181b</title>
<g id="a_clust2"><a xlink:href="dir_2afc1427824640c7cb01573f168f181b.html" target="_top">
<polygon fill="#eeeeff" stroke="black" points="16,-16 16,-212 268,-212 268,-16 16,-16"/>
</a>
</g>
</g>
<!-- dir_2afc1427824640c7cb01573f168f181b -->
<g id="node1" class="node">
<title>dir_2afc1427824640c7cb01573f168f181b</title>
<text text-anchor="middle" x="233" y="-183.5" font-family="Helvetica,sans-Serif" font-size="10.00">sources</text>
</g>
<!-- dir_25d4a9ff9e330c240136dd15a7de5aaf -->
<g id="node2" class="node">
<title>dir_25d4a9ff9e330c240136dd15a7de5aaf</title>
<g id="a_node2"><a xlink:href="dir_25d4a9ff9e330c240136dd15a7de5aaf.html" target="_top" xlink:title="DelayedPop">
<polygon fill="white" stroke="black" points="187.5,-204 112.5,-204 112.5,-168 187.5,-168 187.5,-204"/>
<text text-anchor="middle" x="150" y="-183.5" font-family="Helvetica,sans-Serif" font-size="10.00">DelayedPop</text>
</a>
</g>
</g>
<!-- dir_7766dd1b85b05768bdf3be38c3fdd86f -->
<g id="node5" class="node">
<title>dir_7766dd1b85b05768bdf3be38c3fdd86f</title>
<g id="a_node5"><a xlink:href="dir_7766dd1b85b05768bdf3be38c3fdd86f.html" target="_top" xlink:title="State">
<polygon fill="white" stroke="black" points="177,-132 123,-132 123,-96 177,-96 177,-132"/>
<text text-anchor="middle" x="150" y="-111.5" font-family="Helvetica,sans-Serif" font-size="10.00">State</text>
</a>
</g>
</g>
<!-- dir_25d4a9ff9e330c240136dd15a7de5aaf&#45;&gt;dir_7766dd1b85b05768bdf3be38c3fdd86f -->
<g id="edge1" class="edge">
<title>dir_25d4a9ff9e330c240136dd15a7de5aaf&#45;&gt;dir_7766dd1b85b05768bdf3be38c3fdd86f</title>
<path fill="none" stroke="black" d="M144.08,-167.7C143.29,-159.98 143.06,-150.71 143.4,-142.11"/>
<polygon fill="black" stroke="black" points="146.9,-142.32 144.1,-132.1 139.92,-141.84 146.9,-142.32"/>
<g id="a_edge1&#45;headlabel"><a xlink:href="dir_000090_000092.html" target="_top" xlink:title="1">
<text text-anchor="middle" x="149.48" y="-143.61" font-family="Helvetica,sans-Serif" font-size="10.00">1</text>
</a>
</g>
</g>
<!-- dir_f09fd38ddaaab315210c913c58aefdcf -->
<g id="node3" class="node">
<title>dir_f09fd38ddaaab315210c913c58aefdcf</title>
<g id="a_node3"><a xlink:href="dir_f09fd38ddaaab315210c913c58aefdcf.html" target="_top" xlink:title="Exceptions">
<polygon fill="white" stroke="black" points="94,-204 24,-204 24,-168 94,-168 94,-204"/>
<text text-anchor="middle" x="59" y="-183.5" font-family="Helvetica,sans-Serif" font-size="10.00">Exceptions</text>
</a>
</g>
</g>
<!-- dir_dabc127b2da0ac40ac894508b9e05698 -->
<g id="node4" class="node">
<title>dir_dabc127b2da0ac40ac894508b9e05698</title>
<g id="a_node4"><a xlink:href="dir_dabc127b2da0ac40ac894508b9e05698.html" target="_top" xlink:title="Nil">
<polygon fill="white" stroke="black" points="177,-60 123,-60 123,-24 177,-24 177,-60"/>
<text text-anchor="middle" x="150" y="-39.5" font-family="Helvetica,sans-Serif" font-size="10.00">Nil</text>
</a>
</g>
</g>
<!-- dir_7766dd1b85b05768bdf3be38c3fdd86f&#45;&gt;dir_25d4a9ff9e330c240136dd15a7de5aaf -->
<g id="edge4" class="edge">
<title>dir_7766dd1b85b05768bdf3be38c3fdd86f&#45;&gt;dir_25d4a9ff9e330c240136dd15a7de5aaf</title>
<path fill="none" stroke="black" d="M155.9,-132.1C156.7,-139.79 156.94,-149.05 156.6,-157.67"/>
<polygon fill="black" stroke="black" points="153.11,-157.48 155.92,-167.7 160.09,-157.96 153.11,-157.48"/>
<g id="a_edge4&#45;headlabel"><a xlink:href="dir_000092_000090.html" target="_top" xlink:title="1">
<text text-anchor="middle" x="150.52" y="-151.2" font-family="Helvetica,sans-Serif" font-size="10.00">1</text>
</a>
</g>
</g>
<!-- dir_7766dd1b85b05768bdf3be38c3fdd86f&#45;&gt;dir_dabc127b2da0ac40ac894508b9e05698 -->
<g id="edge2" class="edge">
<title>dir_7766dd1b85b05768bdf3be38c3fdd86f&#45;&gt;dir_dabc127b2da0ac40ac894508b9e05698</title>
<path fill="none" stroke="black" d="M150,-95.7C150,-87.98 150,-78.71 150,-70.11"/>
<polygon fill="black" stroke="black" points="153.5,-70.1 150,-60.1 146.5,-70.1 153.5,-70.1"/>
<g id="a_edge2&#45;headlabel"><a xlink:href="dir_000092_000091.html" target="_top" xlink:title="1">
<text text-anchor="middle" x="156.34" y="-71.2" font-family="Helvetica,sans-Serif" font-size="10.00">1</text>
</a>
</g>
</g>
<!-- dir_2e574b6382041dc2a136b1675bed65ad -->
<g id="node6" class="node">
<title>dir_2e574b6382041dc2a136b1675bed65ad</title>
<g id="a_node6"><a xlink:href="dir_2e574b6382041dc2a136b1675bed65ad.html" target="_top" xlink:title="RayLib">
<polygon fill="white" stroke="red" points="338,-60 284,-60 284,-24 338,-24 338,-60"/>
<text text-anchor="middle" x="311" y="-39.5" font-family="Helvetica,sans-Serif" font-size="10.00">RayLib</text>
</a>
</g>
</g>
<!-- dir_7766dd1b85b05768bdf3be38c3fdd86f&#45;&gt;dir_2e574b6382041dc2a136b1675bed65ad -->
<g id="edge3" class="edge">
<title>dir_7766dd1b85b05768bdf3be38c3fdd86f&#45;&gt;dir_2e574b6382041dc2a136b1675bed65ad</title>
<path fill="none" stroke="black" d="M177.14,-101.22C201.87,-90.49 239.39,-74.19 272,-60 272.83,-59.64 273.67,-59.27 274.52,-58.91"/>
<polygon fill="black" stroke="black" points="275.96,-62.1 283.73,-54.89 273.16,-55.68 275.96,-62.1"/>
<g id="a_edge3&#45;headlabel"><a xlink:href="dir_000092_000005.html" target="_top" xlink:title="1">
<text text-anchor="middle" x="273.79" y="-63.63" font-family="Helvetica,sans-Serif" font-size="10.00">1</text>
</a>
</g>
</g>
</g>
</svg>
