<?xml version="1.0" encoding="UTF-8" standalone="no"?>
<!DOCTYPE svg PUBLIC "-//W3C//DTD SVG 1.1//EN"
 "http://www.w3.org/Graphics/SVG/1.1/DTD/svg11.dtd">
<!-- Generated by graphviz version 2.43.0 (0)
 -->
<!-- Title: Libs/Engine/sources/XML/EntityLoader Pages: 1 -->
<svg width="165pt" height="295pt"
 viewBox="0.00 0.00 165.30 295.00" xmlns="http://www.w3.org/2000/svg" xmlns:xlink="http://www.w3.org/1999/xlink">
<g id="graph0" class="graph" transform="scale(1 1) rotate(0) translate(4 291)">
<title>Libs/Engine/sources/XML/EntityLoader</title>
<polygon fill="white" stroke="transparent" points="-4,4 -4,-291 161.3,-291 161.3,4 -4,4"/>
<g id="clust1" class="cluster">
<title>clusterdir_436eae144b4bfe579e7df150ba9f667a</title>
<g id="a_clust1"><a xlink:href="dir_436eae144b4bfe579e7df150ba9f667a.html" target="_top" xlink:title="XML">
<polygon fill="#ddddee" stroke="black" points="11.3,-208 11.3,-279 105.3,-279 105.3,-208 11.3,-208"/>
<text text-anchor="middle" x="58.3" y="-267" font-family="Helvetica,sans-Serif" font-size="10.00">XML</text>
</a>
</g>
</g>
<!-- dir_c6265dd06d6b11d774262e684c606115 -->
<g id="node1" class="node">
<title>dir_c6265dd06d6b11d774262e684c606115</title>
<g id="a_node1"><a xlink:href="dir_c6265dd06d6b11d774262e684c606115.html" target="_top" xlink:title="EntityLoader">
<polygon fill="#eeeeff" stroke="black" points="97.3,-252 19.3,-252 19.3,-216 97.3,-216 97.3,-252"/>
<text text-anchor="middle" x="58.3" y="-231.5" font-family="Helvetica,sans-Serif" font-size="10.00">EntityLoader</text>
</a>
</g>
</g>
<!-- dir_39e02a65a8e8da5bae3d3dbe68a49458 -->
<g id="node2" class="node">
<title>dir_39e02a65a8e8da5bae3d3dbe68a49458</title>
<g id="a_node2"><a xlink:href="dir_39e02a65a8e8da5bae3d3dbe68a49458.html" target="_top" xlink:title="XMLGenerator">
<polygon fill="white" stroke="red" points="101.3,-36 15.3,-36 15.3,0 101.3,0 101.3,-36"/>
<text text-anchor="middle" x="58.3" y="-15.5" font-family="Helvetica,sans-Serif" font-size="10.00">XMLGenerator</text>
</a>
</g>
</g>
<!-- dir_c6265dd06d6b11d774262e684c606115&#45;&gt;dir_39e02a65a8e8da5bae3d3dbe68a49458 -->
<g id="edge4" class="edge">
<title>dir_c6265dd06d6b11d774262e684c606115&#45;&gt;dir_39e02a65a8e8da5bae3d3dbe68a49458</title>
<path fill="none" stroke="black" d="M44.82,-215.78C23.25,-185.98 -14.59,-123.12 6.3,-72 10.79,-61.02 18.77,-51.08 27.16,-42.86"/>
<polygon fill="black" stroke="black" points="29.54,-45.42 34.55,-36.09 24.81,-40.26 29.54,-45.42"/>
<g id="a_edge4&#45;headlabel"><a xlink:href="dir_000088_000007.html" target="_top" xlink:title="1">
<text text-anchor="middle" x="28.8" y="-47.45" font-family="Helvetica,sans-Serif" font-size="10.00">1</text>
</a>
</g>
</g>
<!-- dir_e1b125331ccfd7597fbda9d04ae41b2d -->
<g id="node3" class="node">
<title>dir_e1b125331ccfd7597fbda9d04ae41b2d</title>
<g id="a_node3"><a xlink:href="dir_e1b125331ccfd7597fbda9d04ae41b2d.html" target="_top" xlink:title="Components">
<polygon fill="white" stroke="red" points="131.3,-180 53.3,-180 53.3,-144 131.3,-144 131.3,-180"/>
<text text-anchor="middle" x="92.3" y="-159.5" font-family="Helvetica,sans-Serif" font-size="10.00">Components</text>
</a>
</g>
</g>
<!-- dir_c6265dd06d6b11d774262e684c606115&#45;&gt;dir_e1b125331ccfd7597fbda9d04ae41b2d -->
<g id="edge5" class="edge">
<title>dir_c6265dd06d6b11d774262e684c606115&#45;&gt;dir_e1b125331ccfd7597fbda9d04ae41b2d</title>
<path fill="none" stroke="black" d="M66.71,-215.7C70.58,-207.73 75.25,-198.1 79.54,-189.26"/>
<polygon fill="black" stroke="black" points="82.77,-190.63 83.99,-180.1 76.48,-187.57 82.77,-190.63"/>
<g id="a_edge5&#45;headlabel"><a xlink:href="dir_000088_000037.html" target="_top" xlink:title="4">
<text text-anchor="middle" x="83.76" y="-192.6" font-family="Helvetica,sans-Serif" font-size="10.00">4</text>
</a>
</g>
</g>
<!-- dir_c5543cdc84e26c6148bf8505a526aef1 -->
<g id="node4" class="node">
<title>dir_c5543cdc84e26c6148bf8505a526aef1</title>
<g id="a_node4"><a xlink:href="dir_c5543cdc84e26c6148bf8505a526aef1.html" target="_top" xlink:title="Exceptions">
<polygon fill="none" stroke="black" points="85.3,-108 15.3,-108 15.3,-72 85.3,-72 85.3,-108"/>
<text text-anchor="middle" x="50.3" y="-87.5" font-family="Helvetica,sans-Serif" font-size="10.00">Exceptions</text>
</a>
</g>
</g>
<!-- dir_c6265dd06d6b11d774262e684c606115&#45;&gt;dir_c5543cdc84e26c6148bf8505a526aef1 -->
<g id="edge6" class="edge">
<title>dir_c6265dd06d6b11d774262e684c606115&#45;&gt;dir_c5543cdc84e26c6148bf8505a526aef1</title>
<path fill="none" stroke="black" d="M52.48,-215.56C49.37,-205.33 45.87,-192.08 44.3,-180 41.63,-159.4 43.4,-135.95 45.7,-118.29"/>
<polygon fill="black" stroke="black" points="49.2,-118.52 47.16,-108.12 42.27,-117.52 49.2,-118.52"/>
<g id="a_edge6&#45;headlabel"><a xlink:href="dir_000088_000073.html" target="_top" xlink:title="1">
<text text-anchor="middle" x="51.5" y="-119.98" font-family="Helvetica,sans-Serif" font-size="10.00">1</text>
</a>
</g>
</g>
<!-- dir_4a120dbb11348b2823d2a12dcab2f1e3 -->
<g id="node5" class="node">
<title>dir_4a120dbb11348b2823d2a12dcab2f1e3</title>
<g id="a_node5"><a xlink:href="dir_4a120dbb11348b2823d2a12dcab2f1e3.html" target="_top" xlink:title="ECS">
<polygon fill="white" stroke="red" points="157.3,-108 103.3,-108 103.3,-72 157.3,-72 157.3,-108"/>
<text text-anchor="middle" x="130.3" y="-87.5" font-family="Helvetica,sans-Serif" font-size="10.00">ECS</text>
</a>
</g>
</g>
<!-- dir_c6265dd06d6b11d774262e684c606115&#45;&gt;dir_4a120dbb11348b2823d2a12dcab2f1e3 -->
<g id="edge7" class="edge">
<title>dir_c6265dd06d6b11d774262e684c606115&#45;&gt;dir_4a120dbb11348b2823d2a12dcab2f1e3</title>
<path fill="none" stroke="black" d="M97.47,-217.84C113.79,-209.34 131.06,-196.97 140.3,-180 150.65,-160.99 146.79,-136.33 141.11,-117.8"/>
<polygon fill="black" stroke="black" points="144.38,-116.54 137.84,-108.2 137.75,-118.8 144.38,-116.54"/>
<g id="a_edge7&#45;headlabel"><a xlink:href="dir_000088_000002.html" target="_top" xlink:title="2">
<text text-anchor="middle" x="148.22" y="-116.53" font-family="Helvetica,sans-Serif" font-size="10.00">2</text>
</a>
</g>
</g>
<!-- dir_e1b125331ccfd7597fbda9d04ae41b2d&#45;&gt;dir_c5543cdc84e26c6148bf8505a526aef1 -->
<g id="edge1" class="edge">
<title>dir_e1b125331ccfd7597fbda9d04ae41b2d&#45;&gt;dir_c5543cdc84e26c6148bf8505a526aef1</title>
<path fill="none" stroke="black" d="M81.92,-143.7C77.04,-135.56 71.11,-125.69 65.72,-116.7"/>
<polygon fill="black" stroke="black" points="68.71,-114.88 60.56,-108.1 62.71,-118.48 68.71,-114.88"/>
<g id="a_edge1&#45;headlabel"><a xlink:href="dir_000037_000073.html" target="_top" xlink:title="2">
<text text-anchor="middle" x="72.99" y="-114" font-family="Helvetica,sans-Serif" font-size="10.00">2</text>
</a>
</g>
</g>
<!-- dir_e1b125331ccfd7597fbda9d04ae41b2d&#45;&gt;dir_4a120dbb11348b2823d2a12dcab2f1e3 -->
<g id="edge2" class="edge">
<title>dir_e1b125331ccfd7597fbda9d04ae41b2d&#45;&gt;dir_4a120dbb11348b2823d2a12dcab2f1e3</title>
<path fill="none" stroke="black" d="M101.69,-143.7C106.07,-135.64 111.36,-125.89 116.2,-116.98"/>
<polygon fill="black" stroke="black" points="119.32,-118.56 121.02,-108.1 113.17,-115.22 119.32,-118.56"/>
<g id="a_edge2&#45;headlabel"><a xlink:href="dir_000037_000002.html" target="_top" xlink:title="33">
<text text-anchor="middle" x="120.1" y="-120.58" font-family="Helvetica,sans-Serif" font-size="10.00">33</text>
</a>
</g>
</g>
<!-- dir_4a120dbb11348b2823d2a12dcab2f1e3&#45;&gt;dir_39e02a65a8e8da5bae3d3dbe68a49458 -->
<g id="edge3" class="edge">
<title>dir_4a120dbb11348b2823d2a12dcab2f1e3&#45;&gt;dir_39e02a65a8e8da5bae3d3dbe68a49458</title>
<path fill="none" stroke="black" d="M112.5,-71.7C103.7,-63.14 92.92,-52.66 83.3,-43.3"/>
<polygon fill="black" stroke="black" points="85.5,-40.57 75.89,-36.1 80.62,-45.58 85.5,-40.57"/>
<g id="a_edge3&#45;headlabel"><a xlink:href="dir_000002_000007.html" target="_top" xlink:title="1">
<text text-anchor="middle" x="90.06" y="-38.54" font-family="Helvetica,sans-Serif" font-size="10.00">1</text>
</a>
</g>
</g>
</g>
</svg>
