<?xml version="1.0" encoding="UTF-8" standalone="no"?>
<!DOCTYPE svg PUBLIC "-//W3C//DTD SVG 1.1//EN"
 "http://www.w3.org/Graphics/SVG/1.1/DTD/svg11.dtd">
<!-- Generated by graphviz version 2.43.0 (0)
 -->
<!-- Title: Libs/RayLib/sources/Model Pages: 1 -->
<svg width="344pt" height="295pt"
 viewBox="0.00 0.00 343.67 295.00" xmlns="http://www.w3.org/2000/svg" xmlns:xlink="http://www.w3.org/1999/xlink">
<g id="graph0" class="graph" transform="scale(1 1) rotate(0) translate(4 291)">
<title>Libs/RayLib/sources/Model</title>
<polygon fill="white" stroke="transparent" points="-4,4 -4,-291 339.67,-291 339.67,4 -4,4"/>
<g id="clust1" class="cluster">
<title>clusterdir_b58f5cbef52144281201f92199ca772f</title>
<g id="a_clust1"><a xlink:href="dir_b58f5cbef52144281201f92199ca772f.html" target="_top" xlink:title="sources">
<polygon fill="#ddddee" stroke="black" points="118.67,-208 118.67,-279 188.67,-279 188.67,-208 118.67,-208"/>
<text text-anchor="middle" x="153.67" y="-267" font-family="Helvetica,sans-Serif" font-size="10.00">sources</text>
</a>
</g>
</g>
<!-- dir_2eb4533580b445659543b6ebb346df32 -->
<g id="node1" class="node">
<title>dir_2eb4533580b445659543b6ebb346df32</title>
<g id="a_node1"><a xlink:href="dir_2eb4533580b445659543b6ebb346df32.html" target="_top" xlink:title="Model">
<polygon fill="#eeeeff" stroke="black" points="180.67,-252 126.67,-252 126.67,-216 180.67,-216 180.67,-252"/>
<text text-anchor="middle" x="153.67" y="-231.5" font-family="Helvetica,sans-Serif" font-size="10.00">Model</text>
</a>
</g>
</g>
<!-- dir_3008fb1da06f44ca71e3c91ff5fedb38 -->
<g id="node2" class="node">
<title>dir_3008fb1da06f44ca71e3c91ff5fedb38</title>
<g id="a_node2"><a xlink:href="dir_3008fb1da06f44ca71e3c91ff5fedb38.html" target="_top" xlink:title="Color">
<polygon fill="none" stroke="black" points="141.67,-108 87.67,-108 87.67,-72 141.67,-72 141.67,-108"/>
<text text-anchor="middle" x="114.67" y="-87.5" font-family="Helvetica,sans-Serif" font-size="10.00">Color</text>
</a>
</g>
</g>
<!-- dir_2eb4533580b445659543b6ebb346df32&#45;&gt;dir_3008fb1da06f44ca71e3c91ff5fedb38 -->
<g id="edge2" class="edge">
<title>dir_2eb4533580b445659543b6ebb346df32&#45;&gt;dir_3008fb1da06f44ca71e3c91ff5fedb38</title>
<path fill="none" stroke="black" d="M126.44,-232.06C91.96,-229.23 33.8,-218.63 6.67,-180 -2.53,-166.91 -1.79,-157.58 6.67,-144 22.11,-119.23 52.87,-105.71 77.63,-98.54"/>
<polygon fill="black" stroke="black" points="78.7,-101.87 87.47,-95.92 76.9,-95.11 78.7,-101.87"/>
<g id="a_edge2&#45;headlabel"><a xlink:href="dir_000106_000099.html" target="_top" xlink:title="1">
<text text-anchor="middle" x="75.96" y="-103.04" font-family="Helvetica,sans-Serif" font-size="10.00">1</text>
</a>
</g>
</g>
<!-- dir_42ef1f57a2f22e94d8ccc109a0fc3cde -->
<g id="node3" class="node">
<title>dir_42ef1f57a2f22e94d8ccc109a0fc3cde</title>
<g id="a_node3"><a xlink:href="dir_42ef1f57a2f22e94d8ccc109a0fc3cde.html" target="_top" xlink:title="Vector3">
<polygon fill="none" stroke="black" points="260.67,-36 206.67,-36 206.67,0 260.67,0 260.67,-36"/>
<text text-anchor="middle" x="233.67" y="-15.5" font-family="Helvetica,sans-Serif" font-size="10.00">Vector3</text>
</a>
</g>
</g>
<!-- dir_2eb4533580b445659543b6ebb346df32&#45;&gt;dir_42ef1f57a2f22e94d8ccc109a0fc3cde -->
<g id="edge3" class="edge">
<title>dir_2eb4533580b445659543b6ebb346df32&#45;&gt;dir_42ef1f57a2f22e94d8ccc109a0fc3cde</title>
<path fill="none" stroke="black" d="M180.8,-223.32C199.64,-215 223.32,-200.99 234.67,-180 257.46,-137.85 249.28,-79.94 241.38,-46.29"/>
<polygon fill="black" stroke="black" points="244.7,-45.12 238.87,-36.27 237.91,-46.82 244.7,-45.12"/>
<g id="a_edge3&#45;headlabel"><a xlink:href="dir_000106_000119.html" target="_top" xlink:title="1">
<text text-anchor="middle" x="248.33" y="-45.42" font-family="Helvetica,sans-Serif" font-size="10.00">1</text>
</a>
</g>
</g>
<!-- dir_9051183bb55ab46ec0c1900a32da5be2 -->
<g id="node4" class="node">
<title>dir_9051183bb55ab46ec0c1900a32da5be2</title>
<g id="a_node4"><a xlink:href="dir_9051183bb55ab46ec0c1900a32da5be2.html" target="_top" xlink:title="Shader">
<polygon fill="white" stroke="red" points="69.67,-180 15.67,-180 15.67,-144 69.67,-144 69.67,-180"/>
<text text-anchor="middle" x="42.67" y="-159.5" font-family="Helvetica,sans-Serif" font-size="10.00">Shader</text>
</a>
</g>
</g>
<!-- dir_2eb4533580b445659543b6ebb346df32&#45;&gt;dir_9051183bb55ab46ec0c1900a32da5be2 -->
<g id="edge4" class="edge">
<title>dir_2eb4533580b445659543b6ebb346df32&#45;&gt;dir_9051183bb55ab46ec0c1900a32da5be2</title>
<path fill="none" stroke="black" d="M126.51,-215.88C112.14,-206.81 94.29,-195.55 78.76,-185.76"/>
<polygon fill="black" stroke="black" points="80.25,-182.56 69.93,-180.19 76.52,-188.48 80.25,-182.56"/>
<g id="a_edge4&#45;headlabel"><a xlink:href="dir_000106_000114.html" target="_top" xlink:title="1">
<text text-anchor="middle" x="84.81" y="-179.58" font-family="Helvetica,sans-Serif" font-size="10.00">1</text>
</a>
</g>
</g>
<!-- dir_440fe1e7d50a3264735b827df84ecc71 -->
<g id="node5" class="node">
<title>dir_440fe1e7d50a3264735b827df84ecc71</title>
<g id="a_node5"><a xlink:href="dir_440fe1e7d50a3264735b827df84ecc71.html" target="_top" xlink:title="Mesh">
<polygon fill="none" stroke="black" points="335.67,-180 281.67,-180 281.67,-144 335.67,-144 335.67,-180"/>
<text text-anchor="middle" x="308.67" y="-159.5" font-family="Helvetica,sans-Serif" font-size="10.00">Mesh</text>
</a>
</g>
</g>
<!-- dir_2eb4533580b445659543b6ebb346df32&#45;&gt;dir_440fe1e7d50a3264735b827df84ecc71 -->
<g id="edge5" class="edge">
<title>dir_2eb4533580b445659543b6ebb346df32&#45;&gt;dir_440fe1e7d50a3264735b827df84ecc71</title>
<path fill="none" stroke="black" d="M181.02,-220.65C206.37,-209.2 244.25,-192.09 272.17,-179.49"/>
<polygon fill="black" stroke="black" points="273.91,-182.54 281.59,-175.23 271.03,-176.16 273.91,-182.54"/>
<g id="a_edge5&#45;headlabel"><a xlink:href="dir_000106_000105.html" target="_top" xlink:title="1">
<text text-anchor="middle" x="271.81" y="-184.1" font-family="Helvetica,sans-Serif" font-size="10.00">1</text>
</a>
</g>
</g>
<!-- dir_39df4d791d11ed6d48a6fbf3f4a34302 -->
<g id="node6" class="node">
<title>dir_39df4d791d11ed6d48a6fbf3f4a34302</title>
<g id="a_node6"><a xlink:href="dir_39df4d791d11ed6d48a6fbf3f4a34302.html" target="_top" xlink:title="IDrawable">
<polygon fill="none" stroke="black" points="225.67,-180 159.67,-180 159.67,-144 225.67,-144 225.67,-180"/>
<text text-anchor="middle" x="192.67" y="-159.5" font-family="Helvetica,sans-Serif" font-size="10.00">IDrawable</text>
</a>
</g>
</g>
<!-- dir_2eb4533580b445659543b6ebb346df32&#45;&gt;dir_39df4d791d11ed6d48a6fbf3f4a34302 -->
<g id="edge6" class="edge">
<title>dir_2eb4533580b445659543b6ebb346df32&#45;&gt;dir_39df4d791d11ed6d48a6fbf3f4a34302</title>
<path fill="none" stroke="black" d="M163.31,-215.7C167.8,-207.64 173.23,-197.89 178.19,-188.98"/>
<polygon fill="black" stroke="black" points="181.33,-190.54 183.14,-180.1 175.21,-187.14 181.33,-190.54"/>
<g id="a_edge6&#45;headlabel"><a xlink:href="dir_000106_000102.html" target="_top" xlink:title="1">
<text text-anchor="middle" x="182.06" y="-192.57" font-family="Helvetica,sans-Serif" font-size="10.00">1</text>
</a>
</g>
</g>
<!-- dir_c305caf0c493ca3746aa83094793d74d -->
<g id="node7" class="node">
<title>dir_c305caf0c493ca3746aa83094793d74d</title>
<g id="a_node7"><a xlink:href="dir_c305caf0c493ca3746aa83094793d74d.html" target="_top" xlink:title="Texture">
<polygon fill="none" stroke="black" points="141.67,-180 87.67,-180 87.67,-144 141.67,-144 141.67,-180"/>
<text text-anchor="middle" x="114.67" y="-159.5" font-family="Helvetica,sans-Serif" font-size="10.00">Texture</text>
</a>
</g>
</g>
<!-- dir_2eb4533580b445659543b6ebb346df32&#45;&gt;dir_c305caf0c493ca3746aa83094793d74d -->
<g id="edge7" class="edge">
<title>dir_2eb4533580b445659543b6ebb346df32&#45;&gt;dir_c305caf0c493ca3746aa83094793d74d</title>
<path fill="none" stroke="black" d="M144.03,-215.7C139.54,-207.64 134.11,-197.89 129.14,-188.98"/>
<polygon fill="black" stroke="black" points="132.12,-187.14 124.2,-180.1 126.01,-190.54 132.12,-187.14"/>
<g id="a_edge7&#45;headlabel"><a xlink:href="dir_000106_000117.html" target="_top" xlink:title="1">
<text text-anchor="middle" x="136.35" y="-186.39" font-family="Helvetica,sans-Serif" font-size="10.00">1</text>
</a>
</g>
</g>
<!-- dir_3008fb1da06f44ca71e3c91ff5fedb38&#45;&gt;dir_42ef1f57a2f22e94d8ccc109a0fc3cde -->
<g id="edge1" class="edge">
<title>dir_3008fb1da06f44ca71e3c91ff5fedb38&#45;&gt;dir_42ef1f57a2f22e94d8ccc109a0fc3cde</title>
<path fill="none" stroke="black" d="M141.67,-73.12C158.14,-63.43 179.4,-50.92 197.33,-40.38"/>
<polygon fill="black" stroke="black" points="199.52,-43.15 206.36,-35.06 195.97,-37.12 199.52,-43.15"/>
<g id="a_edge1&#45;headlabel"><a xlink:href="dir_000099_000119.html" target="_top" xlink:title="1">
<text text-anchor="middle" x="197.86" y="-44.92" font-family="Helvetica,sans-Serif" font-size="10.00">1</text>
</a>
</g>
</g>
<!-- dir_9051183bb55ab46ec0c1900a32da5be2&#45;&gt;dir_3008fb1da06f44ca71e3c91ff5fedb38 -->
<g id="edge8" class="edge">
<title>dir_9051183bb55ab46ec0c1900a32da5be2&#45;&gt;dir_3008fb1da06f44ca71e3c91ff5fedb38</title>
<path fill="none" stroke="black" d="M60.47,-143.7C69.27,-135.14 80.05,-124.66 89.67,-115.3"/>
<polygon fill="black" stroke="black" points="92.34,-117.58 97.08,-108.1 87.47,-112.57 92.34,-117.58"/>
<g id="a_edge8&#45;headlabel"><a xlink:href="dir_000114_000099.html" target="_top" xlink:title="1">
<text text-anchor="middle" x="91.75" y="-119.63" font-family="Helvetica,sans-Serif" font-size="10.00">1</text>
</a>
</g>
</g>
<!-- dir_440fe1e7d50a3264735b827df84ecc71&#45;&gt;dir_42ef1f57a2f22e94d8ccc109a0fc3cde -->
<g id="edge9" class="edge">
<title>dir_440fe1e7d50a3264735b827df84ecc71&#45;&gt;dir_42ef1f57a2f22e94d8ccc109a0fc3cde</title>
<path fill="none" stroke="black" d="M301.64,-143.93C293.97,-125.75 280.99,-96.32 267.67,-72 262.68,-62.89 256.71,-53.24 251.18,-44.71"/>
<polygon fill="black" stroke="black" points="254.05,-42.72 245.63,-36.3 248.21,-46.57 254.05,-42.72"/>
<g id="a_edge9&#45;headlabel"><a xlink:href="dir_000105_000119.html" target="_top" xlink:title="1">
<text text-anchor="middle" x="258.4" y="-41.65" font-family="Helvetica,sans-Serif" font-size="10.00">1</text>
</a>
</g>
</g>
<!-- dir_39df4d791d11ed6d48a6fbf3f4a34302&#45;&gt;dir_3008fb1da06f44ca71e3c91ff5fedb38 -->
<g id="edge10" class="edge">
<title>dir_39df4d791d11ed6d48a6fbf3f4a34302&#45;&gt;dir_3008fb1da06f44ca71e3c91ff5fedb38</title>
<path fill="none" stroke="black" d="M173.39,-143.7C163.75,-135.05 151.94,-124.45 141.44,-115.03"/>
<polygon fill="black" stroke="black" points="143.51,-112.18 133.73,-108.1 138.83,-117.39 143.51,-112.18"/>
<g id="a_edge10&#45;headlabel"><a xlink:href="dir_000102_000099.html" target="_top" xlink:title="1">
<text text-anchor="middle" x="148.08" y="-109.97" font-family="Helvetica,sans-Serif" font-size="10.00">1</text>
</a>
</g>
</g>
<!-- dir_39df4d791d11ed6d48a6fbf3f4a34302&#45;&gt;dir_42ef1f57a2f22e94d8ccc109a0fc3cde -->
<g id="edge11" class="edge">
<title>dir_39df4d791d11ed6d48a6fbf3f4a34302&#45;&gt;dir_42ef1f57a2f22e94d8ccc109a0fc3cde</title>
<path fill="none" stroke="black" d="M197.61,-143.87C204.63,-119.56 217.55,-74.82 225.87,-46.01"/>
<polygon fill="black" stroke="black" points="229.29,-46.77 228.71,-36.19 222.57,-44.83 229.29,-46.77"/>
<g id="a_edge11&#45;headlabel"><a xlink:href="dir_000102_000119.html" target="_top" xlink:title="1">
<text text-anchor="middle" x="231.02" y="-48.51" font-family="Helvetica,sans-Serif" font-size="10.00">1</text>
</a>
</g>
</g>
<!-- dir_c305caf0c493ca3746aa83094793d74d&#45;&gt;dir_3008fb1da06f44ca71e3c91ff5fedb38 -->
<g id="edge12" class="edge">
<title>dir_c305caf0c493ca3746aa83094793d74d&#45;&gt;dir_3008fb1da06f44ca71e3c91ff5fedb38</title>
<path fill="none" stroke="black" d="M114.67,-143.7C114.67,-135.98 114.67,-126.71 114.67,-118.11"/>
<polygon fill="black" stroke="black" points="118.17,-118.1 114.67,-108.1 111.17,-118.1 118.17,-118.1"/>
<g id="a_edge12&#45;headlabel"><a xlink:href="dir_000117_000099.html" target="_top" xlink:title="1">
<text text-anchor="middle" x="121.01" y="-119.2" font-family="Helvetica,sans-Serif" font-size="10.00">1</text>
</a>
</g>
</g>
</g>
</svg>
