<?xml version="1.0" encoding="UTF-8" standalone="no"?>
<!DOCTYPE svg PUBLIC "-//W3C//DTD SVG 1.1//EN"
 "http://www.w3.org/Graphics/SVG/1.1/DTD/svg11.dtd">
<!-- Generated by graphviz version 2.43.0 (0)
 -->
<!-- Title: Libs/ECS/tests Pages: 1 -->
<svg width="166pt" height="303pt"
 viewBox="0.00 0.00 166.00 303.00" xmlns="http://www.w3.org/2000/svg" xmlns:xlink="http://www.w3.org/1999/xlink">
<g id="graph0" class="graph" transform="scale(1 1) rotate(0) translate(4 299)">
<title>Libs/ECS/tests</title>
<polygon fill="white" stroke="transparent" points="-4,4 -4,-299 162,-299 162,4 -4,4"/>
<g id="clust1" class="cluster">
<title>clusterdir_4a120dbb11348b2823d2a12dcab2f1e3</title>
<g id="a_clust1"><a xlink:href="dir_4a120dbb11348b2823d2a12dcab2f1e3.html" target="_top" xlink:title="ECS">
<polygon fill="#ddddee" stroke="black" points="8,-56 8,-287 150,-287 150,-56 8,-56"/>
<text text-anchor="middle" x="79" y="-275" font-family="Helvetica,sans-Serif" font-size="10.00">ECS</text>
</a>
</g>
</g>
<g id="clust2" class="cluster">
<title>clusterdir_4af903cecc07d9ccb647b97b7ac72f87</title>
<g id="a_clust2"><a xlink:href="dir_4af903cecc07d9ccb647b97b7ac72f87.html" target="_top">
<polygon fill="#eeeeff" stroke="black" points="16,-64 16,-260 142,-260 142,-64 16,-64"/>
</a>
</g>
</g>
<!-- dir_4af903cecc07d9ccb647b97b7ac72f87 -->
<g id="node1" class="node">
<title>dir_4af903cecc07d9ccb647b97b7ac72f87</title>
<text text-anchor="middle" x="88" y="-231.5" font-family="Helvetica,sans-Serif" font-size="10.00">tests</text>
</g>
<!-- dir_dd3189f77a8cb675509ebab07a2207ba -->
<g id="node2" class="node">
<title>dir_dd3189f77a8cb675509ebab07a2207ba</title>
<g id="a_node2"><a xlink:href="dir_dd3189f77a8cb675509ebab07a2207ba.html" target="_top" xlink:title="AddSystem">
<polygon fill="white" stroke="black" points="124,-180 52,-180 52,-144 124,-144 124,-180"/>
<text text-anchor="middle" x="88" y="-159.5" font-family="Helvetica,sans-Serif" font-size="10.00">AddSystem</text>
</a>
</g>
</g>
<!-- dir_4af903cecc07d9ccb647b97b7ac72f87&#45;&gt;dir_dd3189f77a8cb675509ebab07a2207ba -->
<g id="edge2" class="edge">
<title>dir_4af903cecc07d9ccb647b97b7ac72f87&#45;&gt;dir_dd3189f77a8cb675509ebab07a2207ba</title>
<path fill="none" stroke="black" d="M88,-215.7C88,-207.98 88,-198.71 88,-190.11"/>
<polygon fill="black" stroke="black" points="91.5,-190.1 88,-180.1 84.5,-190.1 91.5,-190.1"/>
<g id="a_edge2&#45;headlabel"><a xlink:href="dir_000031_000032.html" target="_top" xlink:title="2">
<text text-anchor="middle" x="94.34" y="-191.2" font-family="Helvetica,sans-Serif" font-size="10.00">2</text>
</a>
</g>
</g>
<!-- dir_a97e75f625941a617dd06ce722e99309 -->
<g id="node3" class="node">
<title>dir_a97e75f625941a617dd06ce722e99309</title>
<g id="a_node3"><a xlink:href="dir_a97e75f625941a617dd06ce722e99309.html" target="_top" xlink:title="StorageComponent">
<polygon fill="white" stroke="black" points="134,-108 24,-108 24,-72 134,-72 134,-108"/>
<text text-anchor="middle" x="79" y="-87.5" font-family="Helvetica,sans-Serif" font-size="10.00">StorageComponent</text>
</a>
</g>
</g>
<!-- dir_dd3189f77a8cb675509ebab07a2207ba&#45;&gt;dir_a97e75f625941a617dd06ce722e99309 -->
<g id="edge3" class="edge">
<title>dir_dd3189f77a8cb675509ebab07a2207ba&#45;&gt;dir_a97e75f625941a617dd06ce722e99309</title>
<path fill="none" stroke="black" d="M85.78,-143.7C84.78,-135.98 83.59,-126.71 82.49,-118.11"/>
<polygon fill="black" stroke="black" points="85.95,-117.58 81.2,-108.1 79,-118.47 85.95,-117.58"/>
<g id="a_edge3&#45;headlabel"><a xlink:href="dir_000032_000033.html" target="_top" xlink:title="1">
<text text-anchor="middle" x="89.22" y="-118.28" font-family="Helvetica,sans-Serif" font-size="10.00">1</text>
</a>
</g>
</g>
<!-- dir_01f7e9a8ddc73edbc1248d272f2c3911 -->
<g id="node4" class="node">
<title>dir_01f7e9a8ddc73edbc1248d272f2c3911</title>
<g id="a_node4"><a xlink:href="dir_01f7e9a8ddc73edbc1248d272f2c3911.html" target="_top" xlink:title="sources">
<polygon fill="white" stroke="red" points="147,-36 93,-36 93,0 147,0 147,-36"/>
<text text-anchor="middle" x="120" y="-15.5" font-family="Helvetica,sans-Serif" font-size="10.00">sources</text>
</a>
</g>
</g>
<!-- dir_dd3189f77a8cb675509ebab07a2207ba&#45;&gt;dir_01f7e9a8ddc73edbc1248d272f2c3911 -->
<g id="edge4" class="edge">
<title>dir_dd3189f77a8cb675509ebab07a2207ba&#45;&gt;dir_01f7e9a8ddc73edbc1248d272f2c3911</title>
<path fill="none" stroke="black" d="M113.38,-143.95C124.71,-134.79 136.88,-122.4 143,-108 152.04,-86.73 149.34,-78.22 143,-56 141.94,-52.29 140.39,-48.59 138.59,-45.04"/>
<polygon fill="black" stroke="black" points="141.44,-42.99 133.39,-36.11 135.39,-46.51 141.44,-42.99"/>
<g id="a_edge4&#45;headlabel"><a xlink:href="dir_000032_000019.html" target="_top" xlink:title="2">
<text text-anchor="middle" x="145.71" y="-42.17" font-family="Helvetica,sans-Serif" font-size="10.00">2</text>
</a>
</g>
</g>
<!-- dir_a97e75f625941a617dd06ce722e99309&#45;&gt;dir_01f7e9a8ddc73edbc1248d272f2c3911 -->
<g id="edge1" class="edge">
<title>dir_a97e75f625941a617dd06ce722e99309&#45;&gt;dir_01f7e9a8ddc73edbc1248d272f2c3911</title>
<path fill="none" stroke="black" d="M89.13,-71.7C93.85,-63.64 99.56,-53.89 104.78,-44.98"/>
<polygon fill="black" stroke="black" points="107.95,-46.5 109.98,-36.1 101.91,-42.96 107.95,-46.5"/>
<g id="a_edge1&#45;headlabel"><a xlink:href="dir_000033_000019.html" target="_top" xlink:title="1">
<text text-anchor="middle" x="108.58" y="-48.54" font-family="Helvetica,sans-Serif" font-size="10.00">1</text>
</a>
</g>
</g>
</g>
</svg>
