<?xml version="1.0" encoding="UTF-8" standalone="no"?>
<!DOCTYPE svg PUBLIC "-//W3C//DTD SVG 1.1//EN"
 "http://www.w3.org/Graphics/SVG/1.1/DTD/svg11.dtd">
<!-- Generated by graphviz version 2.43.0 (0)
 -->
<!-- Title: Libs/Engine/sources/Components/PlayerInputs Pages: 1 -->
<svg width="207pt" height="295pt"
 viewBox="0.00 0.00 207.31 295.00" xmlns="http://www.w3.org/2000/svg" xmlns:xlink="http://www.w3.org/1999/xlink">
<g id="graph0" class="graph" transform="scale(1 1) rotate(0) translate(4 291)">
<title>Libs/Engine/sources/Components/PlayerInputs</title>
<polygon fill="white" stroke="transparent" points="-4,4 -4,-291 203.31,-291 203.31,4 -4,4"/>
<g id="clust1" class="cluster">
<title>clusterdir_e1b125331ccfd7597fbda9d04ae41b2d</title>
<g id="a_clust1"><a xlink:href="dir_e1b125331ccfd7597fbda9d04ae41b2d.html" target="_top" xlink:title="Components">
<polygon fill="#ddddee" stroke="black" points="37.81,-208 37.81,-279 131.81,-279 131.81,-208 37.81,-208"/>
<text text-anchor="middle" x="84.81" y="-267" font-family="Helvetica,sans-Serif" font-size="10.00">Components</text>
</a>
</g>
</g>
<!-- dir_7a66e7c408b3aaf201ae5404d9a52624 -->
<g id="node1" class="node">
<title>dir_7a66e7c408b3aaf201ae5404d9a52624</title>
<g id="a_node1"><a xlink:href="dir_7a66e7c408b3aaf201ae5404d9a52624.html" target="_top" xlink:title="PlayerInputs">
<polygon fill="#eeeeff" stroke="black" points="123.31,-252 46.31,-252 46.31,-216 123.31,-216 123.31,-252"/>
<text text-anchor="middle" x="84.81" y="-231.5" font-family="Helvetica,sans-Serif" font-size="10.00">PlayerInputs</text>
</a>
</g>
</g>
<!-- dir_f28ed0c37fde1a14995b91196454109f -->
<g id="node2" class="node">
<title>dir_f28ed0c37fde1a14995b91196454109f</title>
<g id="a_node2"><a xlink:href="dir_f28ed0c37fde1a14995b91196454109f.html" target="_top" xlink:title="DropBomb">
<polygon fill="none" stroke="black" points="80.81,-108 12.81,-108 12.81,-72 80.81,-72 80.81,-108"/>
<text text-anchor="middle" x="46.81" y="-87.5" font-family="Helvetica,sans-Serif" font-size="10.00">DropBomb</text>
</a>
</g>
</g>
<!-- dir_7a66e7c408b3aaf201ae5404d9a52624&#45;&gt;dir_f28ed0c37fde1a14995b91196454109f -->
<g id="edge8" class="edge">
<title>dir_7a66e7c408b3aaf201ae5404d9a52624&#45;&gt;dir_f28ed0c37fde1a14995b91196454109f</title>
<path fill="none" stroke="black" d="M80.22,-215.87C73.72,-191.56 61.75,-146.82 54.04,-118.01"/>
<polygon fill="black" stroke="black" points="57.37,-116.94 51.41,-108.19 50.61,-118.75 57.37,-116.94"/>
<g id="a_edge8&#45;headlabel"><a xlink:href="dir_000063_000051.html" target="_top" xlink:title="1">
<text text-anchor="middle" x="61.05" y="-117.18" font-family="Helvetica,sans-Serif" font-size="10.00">1</text>
</a>
</g>
</g>
<!-- dir_2e574b6382041dc2a136b1675bed65ad -->
<g id="node3" class="node">
<title>dir_2e574b6382041dc2a136b1675bed65ad</title>
<g id="a_node3"><a xlink:href="dir_2e574b6382041dc2a136b1675bed65ad.html" target="_top" xlink:title="RayLib">
<polygon fill="white" stroke="red" points="73.81,-36 19.81,-36 19.81,0 73.81,0 73.81,-36"/>
<text text-anchor="middle" x="46.81" y="-15.5" font-family="Helvetica,sans-Serif" font-size="10.00">RayLib</text>
</a>
</g>
</g>
<!-- dir_7a66e7c408b3aaf201ae5404d9a52624&#45;&gt;dir_2e574b6382041dc2a136b1675bed65ad -->
<g id="edge9" class="edge">
<title>dir_7a66e7c408b3aaf201ae5404d9a52624&#45;&gt;dir_2e574b6382041dc2a136b1675bed65ad</title>
<path fill="none" stroke="black" d="M68.79,-215.63C49.02,-192.9 16.49,-150.9 3.81,-108 -0.73,-92.66 -1.54,-87.08 3.81,-72 7.47,-61.68 14.09,-51.9 21.07,-43.61"/>
<polygon fill="black" stroke="black" points="23.68,-45.94 27.77,-36.16 18.48,-41.26 23.68,-45.94"/>
<g id="a_edge9&#45;headlabel"><a xlink:href="dir_000063_000005.html" target="_top" xlink:title="1">
<text text-anchor="middle" x="23.39" y="-48.01" font-family="Helvetica,sans-Serif" font-size="10.00">1</text>
</a>
</g>
</g>
<!-- dir_6651b4ac6e617e944283cd6ed9b4c080 -->
<g id="node4" class="node">
<title>dir_6651b4ac6e617e944283cd6ed9b4c080</title>
<g id="a_node4"><a xlink:href="dir_6651b4ac6e617e944283cd6ed9b4c080.html" target="_top" xlink:title="AController">
<polygon fill="none" stroke="black" points="184.31,-180 113.31,-180 113.31,-144 184.31,-144 184.31,-180"/>
<text text-anchor="middle" x="148.81" y="-159.5" font-family="Helvetica,sans-Serif" font-size="10.00">AController</text>
</a>
</g>
</g>
<!-- dir_7a66e7c408b3aaf201ae5404d9a52624&#45;&gt;dir_6651b4ac6e617e944283cd6ed9b4c080 -->
<g id="edge10" class="edge">
<title>dir_7a66e7c408b3aaf201ae5404d9a52624&#45;&gt;dir_6651b4ac6e617e944283cd6ed9b4c080</title>
<path fill="none" stroke="black" d="M100.63,-215.7C108.38,-207.22 117.85,-196.86 126.33,-187.58"/>
<polygon fill="black" stroke="black" points="129.01,-189.85 133.17,-180.1 123.84,-185.12 129.01,-189.85"/>
<g id="a_edge10&#45;headlabel"><a xlink:href="dir_000063_000038.html" target="_top" xlink:title="1">
<text text-anchor="middle" x="128.68" y="-191.92" font-family="Helvetica,sans-Serif" font-size="10.00">1</text>
</a>
</g>
</g>
<!-- dir_6c4ca536b0ff958154ebda695b1eb8bd -->
<g id="node5" class="node">
<title>dir_6c4ca536b0ff958154ebda695b1eb8bd</title>
<g id="a_node5"><a xlink:href="dir_6c4ca536b0ff958154ebda695b1eb8bd.html" target="_top" xlink:title="Movement">
<polygon fill="none" stroke="black" points="168.31,-108 99.31,-108 99.31,-72 168.31,-72 168.31,-108"/>
<text text-anchor="middle" x="133.81" y="-87.5" font-family="Helvetica,sans-Serif" font-size="10.00">Movement</text>
</a>
</g>
</g>
<!-- dir_7a66e7c408b3aaf201ae5404d9a52624&#45;&gt;dir_6c4ca536b0ff958154ebda695b1eb8bd -->
<g id="edge11" class="edge">
<title>dir_7a66e7c408b3aaf201ae5404d9a52624&#45;&gt;dir_6c4ca536b0ff958154ebda695b1eb8bd</title>
<path fill="none" stroke="black" d="M86.89,-215.83C89.47,-197.58 94.67,-168.08 103.81,-144 107.33,-134.71 112.32,-125.09 117.21,-116.65"/>
<polygon fill="black" stroke="black" points="120.25,-118.38 122.41,-108.01 114.25,-114.77 120.25,-118.38"/>
<g id="a_edge11&#45;headlabel"><a xlink:href="dir_000063_000060.html" target="_top" xlink:title="1">
<text text-anchor="middle" x="120.83" y="-120.43" font-family="Helvetica,sans-Serif" font-size="10.00">1</text>
</a>
</g>
</g>
<!-- dir_d415c0d599231354676ceb56dc96abfc -->
<g id="node6" class="node">
<title>dir_d415c0d599231354676ceb56dc96abfc</title>
<g id="a_node6"><a xlink:href="dir_d415c0d599231354676ceb56dc96abfc.html" target="_top" xlink:title="IBehaviour">
<polygon fill="none" stroke="black" points="199.31,-36 130.31,-36 130.31,0 199.31,0 199.31,-36"/>
<text text-anchor="middle" x="164.81" y="-15.5" font-family="Helvetica,sans-Serif" font-size="10.00">IBehaviour</text>
</a>
</g>
</g>
<!-- dir_7a66e7c408b3aaf201ae5404d9a52624&#45;&gt;dir_d415c0d599231354676ceb56dc96abfc -->
<g id="edge12" class="edge">
<title>dir_7a66e7c408b3aaf201ae5404d9a52624&#45;&gt;dir_d415c0d599231354676ceb56dc96abfc</title>
<path fill="none" stroke="black" d="M123.39,-225.21C148.16,-218 178.46,-204.53 193.81,-180 198.71,-172.16 201.06,-104.34 192.81,-72 190.45,-62.77 186.2,-53.36 181.71,-45.09"/>
<polygon fill="black" stroke="black" points="184.66,-43.2 176.63,-36.29 178.6,-46.7 184.66,-43.2"/>
<g id="a_edge12&#45;headlabel"><a xlink:href="dir_000063_000058.html" target="_top" xlink:title="1">
<text text-anchor="middle" x="188.92" y="-42.39" font-family="Helvetica,sans-Serif" font-size="10.00">1</text>
</a>
</g>
</g>
<!-- dir_f28ed0c37fde1a14995b91196454109f&#45;&gt;dir_2e574b6382041dc2a136b1675bed65ad -->
<g id="edge1" class="edge">
<title>dir_f28ed0c37fde1a14995b91196454109f&#45;&gt;dir_2e574b6382041dc2a136b1675bed65ad</title>
<path fill="none" stroke="black" d="M46.81,-71.7C46.81,-63.98 46.81,-54.71 46.81,-46.11"/>
<polygon fill="black" stroke="black" points="50.31,-46.1 46.81,-36.1 43.31,-46.1 50.31,-46.1"/>
<g id="a_edge1&#45;headlabel"><a xlink:href="dir_000051_000005.html" target="_top" xlink:title="2">
<text text-anchor="middle" x="53.15" y="-47.2" font-family="Helvetica,sans-Serif" font-size="10.00">2</text>
</a>
</g>
</g>
<!-- dir_f28ed0c37fde1a14995b91196454109f&#45;&gt;dir_d415c0d599231354676ceb56dc96abfc -->
<g id="edge2" class="edge">
<title>dir_f28ed0c37fde1a14995b91196454109f&#45;&gt;dir_d415c0d599231354676ceb56dc96abfc</title>
<path fill="none" stroke="black" d="M75.67,-71.88C91.1,-62.72 110.29,-51.34 126.9,-41.48"/>
<polygon fill="black" stroke="black" points="129.02,-44.3 135.83,-36.19 125.44,-38.28 129.02,-44.3"/>
<g id="a_edge2&#45;headlabel"><a xlink:href="dir_000051_000058.html" target="_top" xlink:title="1">
<text text-anchor="middle" x="127.37" y="-46.08" font-family="Helvetica,sans-Serif" font-size="10.00">1</text>
</a>
</g>
</g>
<!-- dir_6651b4ac6e617e944283cd6ed9b4c080&#45;&gt;dir_f28ed0c37fde1a14995b91196454109f -->
<g id="edge3" class="edge">
<title>dir_6651b4ac6e617e944283cd6ed9b4c080&#45;&gt;dir_f28ed0c37fde1a14995b91196454109f</title>
<path fill="none" stroke="black" d="M123.86,-143.88C110.77,-134.89 94.55,-123.76 80.37,-114.03"/>
<polygon fill="black" stroke="black" points="82.08,-110.96 71.86,-108.19 78.12,-116.73 82.08,-110.96"/>
<g id="a_edge3&#45;headlabel"><a xlink:href="dir_000038_000051.html" target="_top" xlink:title="1">
<text text-anchor="middle" x="86.65" y="-108.16" font-family="Helvetica,sans-Serif" font-size="10.00">1</text>
</a>
</g>
</g>
<!-- dir_6651b4ac6e617e944283cd6ed9b4c080&#45;&gt;dir_6c4ca536b0ff958154ebda695b1eb8bd -->
<g id="edge4" class="edge">
<title>dir_6651b4ac6e617e944283cd6ed9b4c080&#45;&gt;dir_6c4ca536b0ff958154ebda695b1eb8bd</title>
<path fill="none" stroke="black" d="M145.1,-143.7C143.45,-135.98 141.46,-126.71 139.62,-118.11"/>
<polygon fill="black" stroke="black" points="142.99,-117.15 137.47,-108.1 136.15,-118.62 142.99,-117.15"/>
<g id="a_edge4&#45;headlabel"><a xlink:href="dir_000038_000060.html" target="_top" xlink:title="1">
<text text-anchor="middle" x="146.52" y="-117.57" font-family="Helvetica,sans-Serif" font-size="10.00">1</text>
</a>
</g>
</g>
<!-- dir_6651b4ac6e617e944283cd6ed9b4c080&#45;&gt;dir_d415c0d599231354676ceb56dc96abfc -->
<g id="edge5" class="edge">
<title>dir_6651b4ac6e617e944283cd6ed9b4c080&#45;&gt;dir_d415c0d599231354676ceb56dc96abfc</title>
<path fill="none" stroke="black" d="M161.12,-143.78C167.46,-133.84 174.53,-120.8 177.81,-108 183.05,-87.51 179.11,-63.8 174.23,-46"/>
<polygon fill="black" stroke="black" points="177.54,-44.85 171.31,-36.27 170.83,-46.86 177.54,-44.85"/>
<g id="a_edge5&#45;headlabel"><a xlink:href="dir_000038_000058.html" target="_top" xlink:title="1">
<text text-anchor="middle" x="181.29" y="-44.97" font-family="Helvetica,sans-Serif" font-size="10.00">1</text>
</a>
</g>
</g>
<!-- dir_6c4ca536b0ff958154ebda695b1eb8bd&#45;&gt;dir_2e574b6382041dc2a136b1675bed65ad -->
<g id="edge6" class="edge">
<title>dir_6c4ca536b0ff958154ebda695b1eb8bd&#45;&gt;dir_2e574b6382041dc2a136b1675bed65ad</title>
<path fill="none" stroke="black" d="M112.3,-71.7C101.35,-62.88 87.86,-52.03 75.98,-42.47"/>
<polygon fill="black" stroke="black" points="78.05,-39.65 68.07,-36.1 73.66,-45.1 78.05,-39.65"/>
<g id="a_edge6&#45;headlabel"><a xlink:href="dir_000060_000005.html" target="_top" xlink:title="3">
<text text-anchor="middle" x="82.63" y="-37.19" font-family="Helvetica,sans-Serif" font-size="10.00">3</text>
</a>
</g>
</g>
<!-- dir_6c4ca536b0ff958154ebda695b1eb8bd&#45;&gt;dir_d415c0d599231354676ceb56dc96abfc -->
<g id="edge7" class="edge">
<title>dir_6c4ca536b0ff958154ebda695b1eb8bd&#45;&gt;dir_d415c0d599231354676ceb56dc96abfc</title>
<path fill="none" stroke="black" d="M141.47,-71.7C145,-63.73 149.26,-54.1 153.18,-45.26"/>
<polygon fill="black" stroke="black" points="156.38,-46.67 157.23,-36.1 149.98,-43.83 156.38,-46.67"/>
<g id="a_edge7&#45;headlabel"><a xlink:href="dir_000060_000058.html" target="_top" xlink:title="1">
<text text-anchor="middle" x="157.52" y="-48.6" font-family="Helvetica,sans-Serif" font-size="10.00">1</text>
</a>
</g>
</g>
</g>
</svg>
