<?xml version="1.0" encoding="UTF-8" standalone="no"?>
<!DOCTYPE svg PUBLIC "-//W3C//DTD SVG 1.1//EN"
 "http://www.w3.org/Graphics/SVG/1.1/DTD/svg11.dtd">
<!-- Generated by graphviz version 2.43.0 (0)
 -->
<!-- Title: Libs/Engine/sources/Systems/AIMapsGenerator Pages: 1 -->
<svg width="182pt" height="295pt"
 viewBox="0.00 0.00 181.96 295.00" xmlns="http://www.w3.org/2000/svg" xmlns:xlink="http://www.w3.org/1999/xlink">
<g id="graph0" class="graph" transform="scale(1 1) rotate(0) translate(4 291)">
<title>Libs/Engine/sources/Systems/AIMapsGenerator</title>
<polygon fill="white" stroke="transparent" points="-4,4 -4,-291 177.96,-291 177.96,4 -4,4"/>
<g id="clust1" class="cluster">
<title>clusterdir_9a9e2b7a8f13e92341bd3030ad46e690</title>
<g id="a_clust1"><a xlink:href="dir_9a9e2b7a8f13e92341bd3030ad46e690.html" target="_top" xlink:title="Systems">
<polygon fill="#ddddee" stroke="black" points="8,-208 8,-279 126,-279 126,-208 8,-208"/>
<text text-anchor="middle" x="67" y="-267" font-family="Helvetica,sans-Serif" font-size="10.00">Systems</text>
</a>
</g>
</g>
<!-- dir_9396dbfa2644d042a9359e9dc9a3d44a -->
<g id="node1" class="node">
<title>dir_9396dbfa2644d042a9359e9dc9a3d44a</title>
<g id="a_node1"><a xlink:href="dir_9396dbfa2644d042a9359e9dc9a3d44a.html" target="_top" xlink:title="AIMapsGenerator">
<polygon fill="#eeeeff" stroke="black" points="117.5,-252 16.5,-252 16.5,-216 117.5,-216 117.5,-252"/>
<text text-anchor="middle" x="67" y="-231.5" font-family="Helvetica,sans-Serif" font-size="10.00">AIMapsGenerator</text>
</a>
</g>
</g>
<!-- dir_56cebcdc6b908985625358cdd80b89cc -->
<g id="node2" class="node">
<title>dir_56cebcdc6b908985625358cdd80b89cc</title>
<g id="a_node2"><a xlink:href="dir_56cebcdc6b908985625358cdd80b89cc.html" target="_top" xlink:title="CollisionSystem">
<polygon fill="none" stroke="black" points="152.5,-180 57.5,-180 57.5,-144 152.5,-144 152.5,-180"/>
<text text-anchor="middle" x="105" y="-159.5" font-family="Helvetica,sans-Serif" font-size="10.00">CollisionSystem</text>
</a>
</g>
</g>
<!-- dir_9396dbfa2644d042a9359e9dc9a3d44a&#45;&gt;dir_56cebcdc6b908985625358cdd80b89cc -->
<g id="edge3" class="edge">
<title>dir_9396dbfa2644d042a9359e9dc9a3d44a&#45;&gt;dir_56cebcdc6b908985625358cdd80b89cc</title>
<path fill="none" stroke="black" d="M76.39,-215.7C80.76,-207.64 86.06,-197.89 90.9,-188.98"/>
<polygon fill="black" stroke="black" points="94.02,-190.56 95.71,-180.1 87.87,-187.22 94.02,-190.56"/>
<g id="a_edge3&#45;headlabel"><a xlink:href="dir_000080_000082.html" target="_top" xlink:title="1">
<text text-anchor="middle" x="94.8" y="-192.58" font-family="Helvetica,sans-Serif" font-size="10.00">1</text>
</a>
</g>
</g>
<!-- dir_2e574b6382041dc2a136b1675bed65ad -->
<g id="node3" class="node">
<title>dir_2e574b6382041dc2a136b1675bed65ad</title>
<g id="a_node3"><a xlink:href="dir_2e574b6382041dc2a136b1675bed65ad.html" target="_top" xlink:title="RayLib">
<polygon fill="white" stroke="red" points="58,-36 4,-36 4,0 58,0 58,-36"/>
<text text-anchor="middle" x="31" y="-15.5" font-family="Helvetica,sans-Serif" font-size="10.00">RayLib</text>
</a>
</g>
</g>
<!-- dir_9396dbfa2644d042a9359e9dc9a3d44a&#45;&gt;dir_2e574b6382041dc2a136b1675bed65ad -->
<g id="edge4" class="edge">
<title>dir_9396dbfa2644d042a9359e9dc9a3d44a&#45;&gt;dir_2e574b6382041dc2a136b1675bed65ad</title>
<path fill="none" stroke="black" d="M57.71,-215.85C45.63,-192.35 25.3,-148.43 19,-108 15.78,-87.33 19.23,-63.89 23.24,-46.25"/>
<polygon fill="black" stroke="black" points="26.75,-46.64 25.76,-36.09 19.96,-44.96 26.75,-46.64"/>
<g id="a_edge4&#45;headlabel"><a xlink:href="dir_000080_000005.html" target="_top" xlink:title="2">
<text text-anchor="middle" x="28.64" y="-48.31" font-family="Helvetica,sans-Serif" font-size="10.00">2</text>
</a>
</g>
</g>
<!-- dir_e1b125331ccfd7597fbda9d04ae41b2d -->
<g id="node4" class="node">
<title>dir_e1b125331ccfd7597fbda9d04ae41b2d</title>
<g id="a_node4"><a xlink:href="dir_e1b125331ccfd7597fbda9d04ae41b2d.html" target="_top" xlink:title="Components">
<polygon fill="white" stroke="red" points="106,-108 28,-108 28,-72 106,-72 106,-108"/>
<text text-anchor="middle" x="67" y="-87.5" font-family="Helvetica,sans-Serif" font-size="10.00">Components</text>
</a>
</g>
</g>
<!-- dir_9396dbfa2644d042a9359e9dc9a3d44a&#45;&gt;dir_e1b125331ccfd7597fbda9d04ae41b2d -->
<g id="edge5" class="edge">
<title>dir_9396dbfa2644d042a9359e9dc9a3d44a&#45;&gt;dir_e1b125331ccfd7597fbda9d04ae41b2d</title>
<path fill="none" stroke="black" d="M59.11,-215.75C54.89,-205.58 50.14,-192.33 48,-180 45.26,-164.24 45.26,-159.76 48,-144 49.52,-135.24 52.36,-126.01 55.39,-117.75"/>
<polygon fill="black" stroke="black" points="58.72,-118.84 59.11,-108.25 52.21,-116.29 58.72,-118.84"/>
<g id="a_edge5&#45;headlabel"><a xlink:href="dir_000080_000037.html" target="_top" xlink:title="9">
<text text-anchor="middle" x="60.06" y="-120.72" font-family="Helvetica,sans-Serif" font-size="10.00">9</text>
</a>
</g>
</g>
<!-- dir_4a120dbb11348b2823d2a12dcab2f1e3 -->
<g id="node5" class="node">
<title>dir_4a120dbb11348b2823d2a12dcab2f1e3</title>
<g id="a_node5"><a xlink:href="dir_4a120dbb11348b2823d2a12dcab2f1e3.html" target="_top" xlink:title="ECS">
<polygon fill="white" stroke="red" points="161,-36 107,-36 107,0 161,0 161,-36"/>
<text text-anchor="middle" x="134" y="-15.5" font-family="Helvetica,sans-Serif" font-size="10.00">ECS</text>
</a>
</g>
</g>
<!-- dir_9396dbfa2644d042a9359e9dc9a3d44a&#45;&gt;dir_4a120dbb11348b2823d2a12dcab2f1e3 -->
<g id="edge6" class="edge">
<title>dir_9396dbfa2644d042a9359e9dc9a3d44a&#45;&gt;dir_4a120dbb11348b2823d2a12dcab2f1e3</title>
<path fill="none" stroke="black" d="M117.68,-216.81C134.85,-208.63 152.15,-196.77 162,-180 186.84,-137.69 165.35,-79.08 148.78,-45.49"/>
<polygon fill="black" stroke="black" points="151.75,-43.61 144.07,-36.32 145.52,-46.81 151.75,-43.61"/>
<g id="a_edge6&#45;headlabel"><a xlink:href="dir_000080_000002.html" target="_top" xlink:title="2">
<text text-anchor="middle" x="155.92" y="-43.01" font-family="Helvetica,sans-Serif" font-size="10.00">2</text>
</a>
</g>
</g>
<!-- dir_56cebcdc6b908985625358cdd80b89cc&#45;&gt;dir_e1b125331ccfd7597fbda9d04ae41b2d -->
<g id="edge1" class="edge">
<title>dir_56cebcdc6b908985625358cdd80b89cc&#45;&gt;dir_e1b125331ccfd7597fbda9d04ae41b2d</title>
<path fill="none" stroke="black" d="M89.69,-143.7C84.54,-135.73 79.1,-126.1 74.7,-117.26"/>
<polygon fill="black" stroke="black" points="77.81,-115.66 70.39,-108.1 71.48,-118.64 77.81,-115.66"/>
<g id="a_edge1&#45;headlabel"><a xlink:href="dir_000082_000037.html" target="_top" xlink:title="1">
<text text-anchor="middle" x="81.91" y="-115.21" font-family="Helvetica,sans-Serif" font-size="10.00">1</text>
</a>
</g>
</g>
<!-- dir_56cebcdc6b908985625358cdd80b89cc&#45;&gt;dir_4a120dbb11348b2823d2a12dcab2f1e3 -->
<g id="edge2" class="edge">
<title>dir_56cebcdc6b908985625358cdd80b89cc&#45;&gt;dir_4a120dbb11348b2823d2a12dcab2f1e3</title>
<path fill="none" stroke="black" d="M108.5,-143.87C113.46,-119.56 122.6,-74.82 128.48,-46.01"/>
<polygon fill="black" stroke="black" points="131.92,-46.69 130.49,-36.19 125.06,-45.29 131.92,-46.69"/>
<g id="a_edge2&#45;headlabel"><a xlink:href="dir_000082_000002.html" target="_top" xlink:title="3">
<text text-anchor="middle" x="133.98" y="-48.28" font-family="Helvetica,sans-Serif" font-size="10.00">3</text>
</a>
</g>
</g>
<!-- dir_e1b125331ccfd7597fbda9d04ae41b2d&#45;&gt;dir_56cebcdc6b908985625358cdd80b89cc -->
<g id="edge7" class="edge">
<title>dir_e1b125331ccfd7597fbda9d04ae41b2d&#45;&gt;dir_56cebcdc6b908985625358cdd80b89cc</title>
<path fill="none" stroke="black" d="M82.18,-108.1C87.32,-116.04 92.77,-125.67 97.19,-134.51"/>
<polygon fill="black" stroke="black" points="94.09,-136.15 101.52,-143.7 100.42,-133.16 94.09,-136.15"/>
<g id="a_edge7&#45;headlabel"><a xlink:href="dir_000037_000082.html" target="_top" xlink:title="4">
<text text-anchor="middle" x="89.99" y="-131.61" font-family="Helvetica,sans-Serif" font-size="10.00">4</text>
</a>
</g>
</g>
<!-- dir_e1b125331ccfd7597fbda9d04ae41b2d&#45;&gt;dir_2e574b6382041dc2a136b1675bed65ad -->
<g id="edge8" class="edge">
<title>dir_e1b125331ccfd7597fbda9d04ae41b2d&#45;&gt;dir_2e574b6382041dc2a136b1675bed65ad</title>
<path fill="none" stroke="black" d="M58.1,-71.7C54,-63.73 49.05,-54.1 44.51,-45.26"/>
<polygon fill="black" stroke="black" points="47.48,-43.4 39.8,-36.1 41.26,-46.6 47.48,-43.4"/>
<g id="a_edge8&#45;headlabel"><a xlink:href="dir_000037_000005.html" target="_top" xlink:title="56">
<text text-anchor="middle" x="51.65" y="-42.79" font-family="Helvetica,sans-Serif" font-size="10.00">56</text>
</a>
</g>
</g>
<!-- dir_e1b125331ccfd7597fbda9d04ae41b2d&#45;&gt;dir_4a120dbb11348b2823d2a12dcab2f1e3 -->
<g id="edge9" class="edge">
<title>dir_e1b125331ccfd7597fbda9d04ae41b2d&#45;&gt;dir_4a120dbb11348b2823d2a12dcab2f1e3</title>
<path fill="none" stroke="black" d="M83.56,-71.7C91.68,-63.22 101.59,-52.86 110.47,-43.58"/>
<polygon fill="black" stroke="black" points="113.24,-45.75 117.63,-36.1 108.19,-40.91 113.24,-45.75"/>
<g id="a_edge9&#45;headlabel"><a xlink:href="dir_000037_000002.html" target="_top" xlink:title="33">
<text text-anchor="middle" x="112.81" y="-47.81" font-family="Helvetica,sans-Serif" font-size="10.00">33</text>
</a>
</g>
</g>
</g>
</svg>
