<?xml version="1.0" encoding="UTF-8" standalone="no"?>
<!DOCTYPE svg PUBLIC "-//W3C//DTD SVG 1.1//EN"
 "http://www.w3.org/Graphics/SVG/1.1/DTD/svg11.dtd">
<!-- Generated by graphviz version 2.43.0 (0)
 -->
<!-- Title: Libs/Engine/sources/Systems/PhysicsSystem Pages: 1 -->
<svg width="186pt" height="295pt"
 viewBox="0.00 0.00 185.50 295.00" xmlns="http://www.w3.org/2000/svg" xmlns:xlink="http://www.w3.org/1999/xlink">
<g id="graph0" class="graph" transform="scale(1 1) rotate(0) translate(4 291)">
<title>Libs/Engine/sources/Systems/PhysicsSystem</title>
<polygon fill="white" stroke="transparent" points="-4,4 -4,-291 181.5,-291 181.5,4 -4,4"/>
<g id="clust1" class="cluster">
<title>clusterdir_9a9e2b7a8f13e92341bd3030ad46e690</title>
<g id="a_clust1"><a xlink:href="dir_9a9e2b7a8f13e92341bd3030ad46e690.html" target="_top" xlink:title="Systems">
<polygon fill="#ddddee" stroke="black" points="63.5,-208 63.5,-279 169.5,-279 169.5,-208 63.5,-208"/>
<text text-anchor="middle" x="116.5" y="-267" font-family="Helvetica,sans-Serif" font-size="10.00">Systems</text>
</a>
</g>
</g>
<!-- dir_d80696405e6eb7d9d74c2c972a15607d -->
<g id="node1" class="node">
<title>dir_d80696405e6eb7d9d74c2c972a15607d</title>
<g id="a_node1"><a xlink:href="dir_d80696405e6eb7d9d74c2c972a15607d.html" target="_top" xlink:title="PhysicsSystem">
<polygon fill="#eeeeff" stroke="black" points="161.5,-252 71.5,-252 71.5,-216 161.5,-216 161.5,-252"/>
<text text-anchor="middle" x="116.5" y="-231.5" font-family="Helvetica,sans-Serif" font-size="10.00">PhysicsSystem</text>
</a>
</g>
</g>
<!-- dir_236e02cd02223a2412f137d7ad85069e -->
<g id="node2" class="node">
<title>dir_236e02cd02223a2412f137d7ad85069e</title>
<g id="a_node2"><a xlink:href="dir_236e02cd02223a2412f137d7ad85069e.html" target="_top" xlink:title="GameConfiguration">
<polygon fill="none" stroke="black" points="111,-108 0,-108 0,-72 111,-72 111,-108"/>
<text text-anchor="middle" x="55.5" y="-87.5" font-family="Helvetica,sans-Serif" font-size="10.00">GameConfiguration</text>
</a>
</g>
</g>
<!-- dir_d80696405e6eb7d9d74c2c972a15607d&#45;&gt;dir_236e02cd02223a2412f137d7ad85069e -->
<g id="edge4" class="edge">
<title>dir_d80696405e6eb7d9d74c2c972a15607d&#45;&gt;dir_236e02cd02223a2412f137d7ad85069e</title>
<path fill="none" stroke="black" d="M96.12,-215.9C86.16,-206.38 74.96,-193.7 68.5,-180 59.41,-160.73 56.32,-136.71 55.41,-118.49"/>
<polygon fill="black" stroke="black" points="58.9,-118.13 55.1,-108.25 51.91,-118.35 58.9,-118.13"/>
<g id="a_edge4&#45;headlabel"><a xlink:href="dir_000084_000074.html" target="_top" xlink:title="1">
<text text-anchor="middle" x="61.85" y="-119.14" font-family="Helvetica,sans-Serif" font-size="10.00">1</text>
</a>
</g>
</g>
<!-- dir_e1b125331ccfd7597fbda9d04ae41b2d -->
<g id="node3" class="node">
<title>dir_e1b125331ccfd7597fbda9d04ae41b2d</title>
<g id="a_node3"><a xlink:href="dir_e1b125331ccfd7597fbda9d04ae41b2d.html" target="_top" xlink:title="Components">
<polygon fill="white" stroke="red" points="155.5,-180 77.5,-180 77.5,-144 155.5,-144 155.5,-180"/>
<text text-anchor="middle" x="116.5" y="-159.5" font-family="Helvetica,sans-Serif" font-size="10.00">Components</text>
</a>
</g>
</g>
<!-- dir_d80696405e6eb7d9d74c2c972a15607d&#45;&gt;dir_e1b125331ccfd7597fbda9d04ae41b2d -->
<g id="edge5" class="edge">
<title>dir_d80696405e6eb7d9d74c2c972a15607d&#45;&gt;dir_e1b125331ccfd7597fbda9d04ae41b2d</title>
<path fill="none" stroke="black" d="M116.5,-215.7C116.5,-207.98 116.5,-198.71 116.5,-190.11"/>
<polygon fill="black" stroke="black" points="120,-190.1 116.5,-180.1 113,-190.1 120,-190.1"/>
<g id="a_edge5&#45;headlabel"><a xlink:href="dir_000084_000037.html" target="_top" xlink:title="3">
<text text-anchor="middle" x="122.84" y="-191.2" font-family="Helvetica,sans-Serif" font-size="10.00">3</text>
</a>
</g>
</g>
<!-- dir_4a120dbb11348b2823d2a12dcab2f1e3 -->
<g id="node4" class="node">
<title>dir_4a120dbb11348b2823d2a12dcab2f1e3</title>
<g id="a_node4"><a xlink:href="dir_4a120dbb11348b2823d2a12dcab2f1e3.html" target="_top" xlink:title="ECS">
<polygon fill="white" stroke="red" points="166.5,-36 112.5,-36 112.5,0 166.5,0 166.5,-36"/>
<text text-anchor="middle" x="139.5" y="-15.5" font-family="Helvetica,sans-Serif" font-size="10.00">ECS</text>
</a>
</g>
</g>
<!-- dir_d80696405e6eb7d9d74c2c972a15607d&#45;&gt;dir_4a120dbb11348b2823d2a12dcab2f1e3 -->
<g id="edge6" class="edge">
<title>dir_d80696405e6eb7d9d74c2c972a15607d&#45;&gt;dir_4a120dbb11348b2823d2a12dcab2f1e3</title>
<path fill="none" stroke="black" d="M138.21,-215.79C148.26,-206.41 159.14,-193.9 164.5,-180 181.93,-134.79 164.84,-78.01 151.63,-45.37"/>
<polygon fill="black" stroke="black" points="154.81,-43.91 147.69,-36.06 148.36,-46.63 154.81,-43.91"/>
<g id="a_edge6&#45;headlabel"><a xlink:href="dir_000084_000002.html" target="_top" xlink:title="2">
<text text-anchor="middle" x="158.82" y="-43.62" font-family="Helvetica,sans-Serif" font-size="10.00">2</text>
</a>
</g>
</g>
<!-- dir_236e02cd02223a2412f137d7ad85069e&#45;&gt;dir_4a120dbb11348b2823d2a12dcab2f1e3 -->
<g id="edge1" class="edge">
<title>dir_236e02cd02223a2412f137d7ad85069e&#45;&gt;dir_4a120dbb11348b2823d2a12dcab2f1e3</title>
<path fill="none" stroke="black" d="M76.26,-71.7C86.74,-62.97 99.61,-52.24 111,-42.75"/>
<polygon fill="black" stroke="black" points="113.53,-45.19 118.97,-36.1 109.05,-39.82 113.53,-45.19"/>
<g id="a_edge1&#45;headlabel"><a xlink:href="dir_000074_000002.html" target="_top" xlink:title="2">
<text text-anchor="middle" x="112.59" y="-47.18" font-family="Helvetica,sans-Serif" font-size="10.00">2</text>
</a>
</g>
</g>
<!-- dir_e1b125331ccfd7597fbda9d04ae41b2d&#45;&gt;dir_236e02cd02223a2412f137d7ad85069e -->
<g id="edge2" class="edge">
<title>dir_e1b125331ccfd7597fbda9d04ae41b2d&#45;&gt;dir_236e02cd02223a2412f137d7ad85069e</title>
<path fill="none" stroke="black" d="M101.42,-143.7C94.11,-135.3 85.19,-125.07 77.16,-115.86"/>
<polygon fill="black" stroke="black" points="79.61,-113.34 70.41,-108.1 74.34,-117.94 79.61,-113.34"/>
<g id="a_edge2&#45;headlabel"><a xlink:href="dir_000037_000074.html" target="_top" xlink:title="9">
<text text-anchor="middle" x="84.12" y="-111.69" font-family="Helvetica,sans-Serif" font-size="10.00">9</text>
</a>
</g>
</g>
<!-- dir_e1b125331ccfd7597fbda9d04ae41b2d&#45;&gt;dir_4a120dbb11348b2823d2a12dcab2f1e3 -->
<g id="edge3" class="edge">
<title>dir_e1b125331ccfd7597fbda9d04ae41b2d&#45;&gt;dir_4a120dbb11348b2823d2a12dcab2f1e3</title>
<path fill="none" stroke="black" d="M119.27,-143.87C123.19,-119.67 130.4,-75.21 135.06,-46.39"/>
<polygon fill="black" stroke="black" points="138.57,-46.62 136.72,-36.19 131.66,-45.5 138.57,-46.62"/>
<g id="a_edge3&#45;headlabel"><a xlink:href="dir_000037_000002.html" target="_top" xlink:title="33">
<text text-anchor="middle" x="140.8" y="-48.12" font-family="Helvetica,sans-Serif" font-size="10.00">33</text>
</a>
</g>
</g>
</g>
</svg>
