<?xml version="1.0" encoding="UTF-8" standalone="no"?>
<!DOCTYPE svg PUBLIC "-//W3C//DTD SVG 1.1//EN"
 "http://www.w3.org/Graphics/SVG/1.1/DTD/svg11.dtd">
<!-- Generated by graphviz version 2.43.0 (0)
 -->
<!-- Title: Libs/ECS Pages: 1 -->
<svg width="182pt" height="231pt"
 viewBox="0.00 0.00 182.00 231.00" xmlns="http://www.w3.org/2000/svg" xmlns:xlink="http://www.w3.org/1999/xlink">
<g id="graph0" class="graph" transform="scale(1 1) rotate(0) translate(4 227)">
<title>Libs/ECS</title>
<polygon fill="white" stroke="transparent" points="-4,4 -4,-227 178,-227 178,4 -4,4"/>
<g id="clust1" class="cluster">
<title>clusterdir_6e6cb9563333489fde7459b1f95e59a5</title>
<g id="a_clust1"><a xlink:href="dir_6e6cb9563333489fde7459b1f95e59a5.html" target="_top" xlink:title="Libs">
<polygon fill="#ddddee" stroke="black" points="8,-56 8,-215 166,-215 166,-56 8,-56"/>
<text text-anchor="middle" x="87" y="-203" font-family="Helvetica,sans-Serif" font-size="10.00">Libs</text>
</a>
</g>
</g>
<g id="clust2" class="cluster">
<title>clusterdir_4a120dbb11348b2823d2a12dcab2f1e3</title>
<g id="a_clust2"><a xlink:href="dir_4a120dbb11348b2823d2a12dcab2f1e3.html" target="_top">
<polygon fill="#eeeeff" stroke="black" points="16,-64 16,-188 158,-188 158,-64 16,-64"/>
</a>
</g>
</g>
<!-- dir_4a120dbb11348b2823d2a12dcab2f1e3 -->
<g id="node1" class="node">
<title>dir_4a120dbb11348b2823d2a12dcab2f1e3</title>
<text text-anchor="middle" x="123" y="-159.5" font-family="Helvetica,sans-Serif" font-size="10.00">ECS</text>
</g>
<!-- dir_01f7e9a8ddc73edbc1248d272f2c3911 -->
<g id="node2" class="node">
<title>dir_01f7e9a8ddc73edbc1248d272f2c3911</title>
<g id="a_node2"><a xlink:href="dir_01f7e9a8ddc73edbc1248d272f2c3911.html" target="_top" xlink:title="sources">
<polygon fill="white" stroke="red" points="78,-108 24,-108 24,-72 78,-72 78,-108"/>
<text text-anchor="middle" x="51" y="-87.5" font-family="Helvetica,sans-Serif" font-size="10.00">sources</text>
</a>
</g>
</g>
<!-- dir_39e02a65a8e8da5bae3d3dbe68a49458 -->
<g id="node4" class="node">
<title>dir_39e02a65a8e8da5bae3d3dbe68a49458</title>
<g id="a_node4"><a xlink:href="dir_39e02a65a8e8da5bae3d3dbe68a49458.html" target="_top" xlink:title="XMLGenerator">
<polygon fill="white" stroke="red" points="94,-36 8,-36 8,0 94,0 94,-36"/>
<text text-anchor="middle" x="51" y="-15.5" font-family="Helvetica,sans-Serif" font-size="10.00">XMLGenerator</text>
</a>
</g>
</g>
<!-- dir_01f7e9a8ddc73edbc1248d272f2c3911&#45;&gt;dir_39e02a65a8e8da5bae3d3dbe68a49458 -->
<g id="edge1" class="edge">
<title>dir_01f7e9a8ddc73edbc1248d272f2c3911&#45;&gt;dir_39e02a65a8e8da5bae3d3dbe68a49458</title>
<path fill="none" stroke="black" d="M51,-71.7C51,-63.98 51,-54.71 51,-46.11"/>
<polygon fill="black" stroke="black" points="54.5,-46.1 51,-36.1 47.5,-46.1 54.5,-46.1"/>
<g id="a_edge1&#45;headlabel"><a xlink:href="dir_000019_000007.html" target="_top" xlink:title="1">
<text text-anchor="middle" x="57.34" y="-47.2" font-family="Helvetica,sans-Serif" font-size="10.00">1</text>
</a>
</g>
</g>
<!-- dir_4af903cecc07d9ccb647b97b7ac72f87 -->
<g id="node3" class="node">
<title>dir_4af903cecc07d9ccb647b97b7ac72f87</title>
<g id="a_node3"><a xlink:href="dir_4af903cecc07d9ccb647b97b7ac72f87.html" target="_top" xlink:title="tests">
<polygon fill="white" stroke="red" points="78,-180 24,-180 24,-144 78,-144 78,-180"/>
<text text-anchor="middle" x="51" y="-159.5" font-family="Helvetica,sans-Serif" font-size="10.00">tests</text>
</a>
</g>
</g>
<!-- dir_4af903cecc07d9ccb647b97b7ac72f87&#45;&gt;dir_01f7e9a8ddc73edbc1248d272f2c3911 -->
<g id="edge2" class="edge">
<title>dir_4af903cecc07d9ccb647b97b7ac72f87&#45;&gt;dir_01f7e9a8ddc73edbc1248d272f2c3911</title>
<path fill="none" stroke="black" d="M51,-143.7C51,-135.98 51,-126.71 51,-118.11"/>
<polygon fill="black" stroke="black" points="54.5,-118.1 51,-108.1 47.5,-118.1 54.5,-118.1"/>
<g id="a_edge2&#45;headlabel"><a xlink:href="dir_000031_000019.html" target="_top" xlink:title="8">
<text text-anchor="middle" x="57.34" y="-119.2" font-family="Helvetica,sans-Serif" font-size="10.00">8</text>
</a>
</g>
</g>
</g>
</svg>
