<?xml version="1.0" encoding="UTF-8" standalone="no"?>
<!DOCTYPE svg PUBLIC "-//W3C//DTD SVG 1.1//EN"
 "http://www.w3.org/Graphics/SVG/1.1/DTD/svg11.dtd">
<!-- Generated by graphviz version 2.43.0 (0)
 -->
<!-- Title: Libs/ECS/sources Pages: 1 -->
<svg width="362pt" height="303pt"
 viewBox="0.00 0.00 362.00 303.00" xmlns="http://www.w3.org/2000/svg" xmlns:xlink="http://www.w3.org/1999/xlink">
<g id="graph0" class="graph" transform="scale(1 1) rotate(0) translate(4 299)">
<title>Libs/ECS/sources</title>
<polygon fill="white" stroke="transparent" points="-4,4 -4,-299 358,-299 358,4 -4,4"/>
<g id="clust1" class="cluster">
<title>clusterdir_4a120dbb11348b2823d2a12dcab2f1e3</title>
<g id="a_clust1"><a xlink:href="dir_4a120dbb11348b2823d2a12dcab2f1e3.html" target="_top" xlink:title="ECS">
<polygon fill="#ddddee" stroke="black" points="8,-56 8,-287 346,-287 346,-56 8,-56"/>
<text text-anchor="middle" x="177" y="-275" font-family="Helvetica,sans-Serif" font-size="10.00">ECS</text>
</a>
</g>
</g>
<g id="clust2" class="cluster">
<title>clusterdir_01f7e9a8ddc73edbc1248d272f2c3911</title>
<g id="a_clust2"><a xlink:href="dir_01f7e9a8ddc73edbc1248d272f2c3911.html" target="_top">
<polygon fill="#eeeeff" stroke="black" points="16,-64 16,-260 338,-260 338,-64 16,-64"/>
</a>
</g>
</g>
<!-- dir_01f7e9a8ddc73edbc1248d272f2c3911 -->
<g id="node1" class="node">
<title>dir_01f7e9a8ddc73edbc1248d272f2c3911</title>
<text text-anchor="middle" x="303" y="-231.5" font-family="Helvetica,sans-Serif" font-size="10.00">sources</text>
</g>
<!-- dir_a5273e4af1888c46cbc238269a07fb92 -->
<g id="node2" class="node">
<title>dir_a5273e4af1888c46cbc238269a07fb92</title>
<g id="a_node2"><a xlink:href="dir_a5273e4af1888c46cbc238269a07fb92.html" target="_top" xlink:title="Components">
<polygon fill="white" stroke="black" points="234,-108 156,-108 156,-72 234,-72 234,-108"/>
<text text-anchor="middle" x="195" y="-87.5" font-family="Helvetica,sans-Serif" font-size="10.00">Components</text>
</a>
</g>
</g>
<!-- dir_39e02a65a8e8da5bae3d3dbe68a49458 -->
<g id="node8" class="node">
<title>dir_39e02a65a8e8da5bae3d3dbe68a49458</title>
<g id="a_node8"><a xlink:href="dir_39e02a65a8e8da5bae3d3dbe68a49458.html" target="_top" xlink:title="XMLGenerator">
<polygon fill="white" stroke="red" points="238,-36 152,-36 152,0 238,0 238,-36"/>
<text text-anchor="middle" x="195" y="-15.5" font-family="Helvetica,sans-Serif" font-size="10.00">XMLGenerator</text>
</a>
</g>
</g>
<!-- dir_a5273e4af1888c46cbc238269a07fb92&#45;&gt;dir_39e02a65a8e8da5bae3d3dbe68a49458 -->
<g id="edge8" class="edge">
<title>dir_a5273e4af1888c46cbc238269a07fb92&#45;&gt;dir_39e02a65a8e8da5bae3d3dbe68a49458</title>
<path fill="none" stroke="black" d="M195,-71.7C195,-63.98 195,-54.71 195,-46.11"/>
<polygon fill="black" stroke="black" points="198.5,-46.1 195,-36.1 191.5,-46.1 198.5,-46.1"/>
<g id="a_edge8&#45;headlabel"><a xlink:href="dir_000020_000007.html" target="_top" xlink:title="1">
<text text-anchor="middle" x="201.34" y="-47.2" font-family="Helvetica,sans-Serif" font-size="10.00">1</text>
</a>
</g>
</g>
<!-- dir_b2d87e50e2769190575ca72568f801de -->
<g id="node3" class="node">
<title>dir_b2d87e50e2769190575ca72568f801de</title>
<g id="a_node3"><a xlink:href="dir_b2d87e50e2769190575ca72568f801de.html" target="_top" xlink:title="Coordinator">
<polygon fill="white" stroke="black" points="258,-252 184,-252 184,-216 258,-216 258,-252"/>
<text text-anchor="middle" x="221" y="-231.5" font-family="Helvetica,sans-Serif" font-size="10.00">Coordinator</text>
</a>
</g>
</g>
<!-- dir_aed85c5ce4b6a9c7e4c648d53dc0ffb7 -->
<g id="node6" class="node">
<title>dir_aed85c5ce4b6a9c7e4c648d53dc0ffb7</title>
<g id="a_node6"><a xlink:href="dir_aed85c5ce4b6a9c7e4c648d53dc0ffb7.html" target="_top" xlink:title="Managers">
<polygon fill="white" stroke="red" points="223.5,-180 158.5,-180 158.5,-144 223.5,-144 223.5,-180"/>
<text text-anchor="middle" x="191" y="-159.5" font-family="Helvetica,sans-Serif" font-size="10.00">Managers</text>
</a>
</g>
</g>
<!-- dir_b2d87e50e2769190575ca72568f801de&#45;&gt;dir_aed85c5ce4b6a9c7e4c648d53dc0ffb7 -->
<g id="edge6" class="edge">
<title>dir_b2d87e50e2769190575ca72568f801de&#45;&gt;dir_aed85c5ce4b6a9c7e4c648d53dc0ffb7</title>
<path fill="none" stroke="black" d="M213.58,-215.7C210.21,-207.81 206.13,-198.3 202.38,-189.55"/>
<polygon fill="black" stroke="black" points="205.49,-187.92 198.33,-180.1 199.05,-190.67 205.49,-187.92"/>
<g id="a_edge6&#45;headlabel"><a xlink:href="dir_000021_000026.html" target="_top" xlink:title="2">
<text text-anchor="middle" x="209.51" y="-187.6" font-family="Helvetica,sans-Serif" font-size="10.00">2</text>
</a>
</g>
</g>
<!-- dir_b7c09b517d5f4640241c257c460ab0cc -->
<g id="node4" class="node">
<title>dir_b7c09b517d5f4640241c257c460ab0cc</title>
<g id="a_node4"><a xlink:href="dir_b7c09b517d5f4640241c257c460ab0cc.html" target="_top" xlink:title="Entity">
<polygon fill="white" stroke="black" points="166,-252 112,-252 112,-216 166,-216 166,-252"/>
<text text-anchor="middle" x="139" y="-231.5" font-family="Helvetica,sans-Serif" font-size="10.00">Entity</text>
</a>
</g>
</g>
<!-- dir_b7c09b517d5f4640241c257c460ab0cc&#45;&gt;dir_a5273e4af1888c46cbc238269a07fb92 -->
<g id="edge5" class="edge">
<title>dir_b7c09b517d5f4640241c257c460ab0cc&#45;&gt;dir_a5273e4af1888c46cbc238269a07fb92</title>
<path fill="none" stroke="black" d="M138.27,-215.84C138.11,-197.33 139.74,-167.38 150,-144 154.48,-133.78 161.6,-124.03 168.86,-115.74"/>
<polygon fill="black" stroke="black" points="171.55,-117.99 175.78,-108.28 166.42,-113.23 171.55,-117.99"/>
<g id="a_edge5&#45;headlabel"><a xlink:href="dir_000022_000020.html" target="_top" xlink:title="1">
<text text-anchor="middle" x="171.19" y="-120.06" font-family="Helvetica,sans-Serif" font-size="10.00">1</text>
</a>
</g>
</g>
<!-- dir_b7c09b517d5f4640241c257c460ab0cc&#45;&gt;dir_aed85c5ce4b6a9c7e4c648d53dc0ffb7 -->
<g id="edge4" class="edge">
<title>dir_b7c09b517d5f4640241c257c460ab0cc&#45;&gt;dir_aed85c5ce4b6a9c7e4c648d53dc0ffb7</title>
<path fill="none" stroke="black" d="M145.94,-215.7C151.31,-207.3 158.72,-197.07 166.04,-187.86"/>
<polygon fill="black" stroke="black" points="168.77,-190.06 172.4,-180.1 163.35,-185.62 168.77,-190.06"/>
<g id="a_edge4&#45;headlabel"><a xlink:href="dir_000022_000026.html" target="_top" xlink:title="2">
<text text-anchor="middle" x="168.68" y="-192.14" font-family="Helvetica,sans-Serif" font-size="10.00">2</text>
</a>
</g>
</g>
<!-- dir_7864a3cea99767c39ab979496ade3fcd -->
<g id="node5" class="node">
<title>dir_7864a3cea99767c39ab979496ade3fcd</title>
<g id="a_node5"><a xlink:href="dir_7864a3cea99767c39ab979496ade3fcd.html" target="_top" xlink:title="Exceptions">
<polygon fill="white" stroke="black" points="94,-252 24,-252 24,-216 94,-216 94,-252"/>
<text text-anchor="middle" x="59" y="-231.5" font-family="Helvetica,sans-Serif" font-size="10.00">Exceptions</text>
</a>
</g>
</g>
<!-- dir_aed85c5ce4b6a9c7e4c648d53dc0ffb7&#45;&gt;dir_a5273e4af1888c46cbc238269a07fb92 -->
<g id="edge3" class="edge">
<title>dir_aed85c5ce4b6a9c7e4c648d53dc0ffb7&#45;&gt;dir_a5273e4af1888c46cbc238269a07fb92</title>
<path fill="none" stroke="black" d="M191.99,-143.7C192.43,-135.98 192.96,-126.71 193.45,-118.11"/>
<polygon fill="black" stroke="black" points="196.95,-118.29 194.02,-108.1 189.96,-117.89 196.95,-118.29"/>
<g id="a_edge3&#45;headlabel"><a xlink:href="dir_000026_000020.html" target="_top" xlink:title="1">
<text text-anchor="middle" x="199.58" y="-119.54" font-family="Helvetica,sans-Serif" font-size="10.00">1</text>
</a>
</g>
</g>
<!-- dir_aed85c5ce4b6a9c7e4c648d53dc0ffb7&#45;&gt;dir_b7c09b517d5f4640241c257c460ab0cc -->
<g id="edge1" class="edge">
<title>dir_aed85c5ce4b6a9c7e4c648d53dc0ffb7&#45;&gt;dir_b7c09b517d5f4640241c257c460ab0cc</title>
<path fill="none" stroke="black" d="M184.19,-180.1C178.85,-188.47 171.46,-198.69 164.13,-207.92"/>
<polygon fill="black" stroke="black" points="161.39,-205.74 157.77,-215.7 166.81,-210.17 161.39,-205.74"/>
<g id="a_edge1&#45;headlabel"><a xlink:href="dir_000026_000022.html" target="_top" xlink:title="1">
<text text-anchor="middle" x="161.47" y="-198.66" font-family="Helvetica,sans-Serif" font-size="10.00">1</text>
</a>
</g>
</g>
<!-- dir_07568c1f449be419f67eaaf111015151 -->
<g id="node7" class="node">
<title>dir_07568c1f449be419f67eaaf111015151</title>
<g id="a_node7"><a xlink:href="dir_07568c1f449be419f67eaaf111015151.html" target="_top" xlink:title="Systems">
<polygon fill="white" stroke="black" points="137.5,-108 78.5,-108 78.5,-72 137.5,-72 137.5,-108"/>
<text text-anchor="middle" x="108" y="-87.5" font-family="Helvetica,sans-Serif" font-size="10.00">Systems</text>
</a>
</g>
</g>
<!-- dir_aed85c5ce4b6a9c7e4c648d53dc0ffb7&#45;&gt;dir_07568c1f449be419f67eaaf111015151 -->
<g id="edge2" class="edge">
<title>dir_aed85c5ce4b6a9c7e4c648d53dc0ffb7&#45;&gt;dir_07568c1f449be419f67eaaf111015151</title>
<path fill="none" stroke="black" d="M170.48,-143.7C160.13,-134.97 147.41,-124.24 136.16,-114.75"/>
<polygon fill="black" stroke="black" points="138.18,-111.88 128.28,-108.1 133.67,-117.23 138.18,-111.88"/>
<g id="a_edge2&#45;headlabel"><a xlink:href="dir_000026_000030.html" target="_top" xlink:title="1">
<text text-anchor="middle" x="142.76" y="-109.52" font-family="Helvetica,sans-Serif" font-size="10.00">1</text>
</a>
</g>
</g>
<!-- dir_07568c1f449be419f67eaaf111015151&#45;&gt;dir_b7c09b517d5f4640241c257c460ab0cc -->
<g id="edge7" class="edge">
<title>dir_07568c1f449be419f67eaaf111015151&#45;&gt;dir_b7c09b517d5f4640241c257c460ab0cc</title>
<path fill="none" stroke="black" d="M111.75,-108.19C117.07,-132.53 126.84,-177.28 133.12,-206.06"/>
<polygon fill="black" stroke="black" points="129.71,-206.85 135.26,-215.87 136.55,-205.36 129.71,-206.85"/>
<g id="a_edge7&#45;headlabel"><a xlink:href="dir_000030_000022.html" target="_top" xlink:title="1">
<text text-anchor="middle" x="126.17" y="-201.44" font-family="Helvetica,sans-Serif" font-size="10.00">1</text>
</a>
</g>
</g>
</g>
</svg>
