<?xml version="1.0" encoding="UTF-8" standalone="no"?>
<!DOCTYPE svg PUBLIC "-//W3C//DTD SVG 1.1//EN"
 "http://www.w3.org/Graphics/SVG/1.1/DTD/svg11.dtd">
<!-- Generated by graphviz version 2.43.0 (0)
 -->
<!-- Title: Libs/RayLib/sources/Sound Pages: 1 -->
<svg width="94pt" height="151pt"
 viewBox="0.00 0.00 94.00 151.00" xmlns="http://www.w3.org/2000/svg" xmlns:xlink="http://www.w3.org/1999/xlink">
<g id="graph0" class="graph" transform="scale(1 1) rotate(0) translate(4 147)">
<title>Libs/RayLib/sources/Sound</title>
<polygon fill="white" stroke="transparent" points="-4,4 -4,-147 90,-147 90,4 -4,4"/>
<g id="clust1" class="cluster">
<title>clusterdir_b58f5cbef52144281201f92199ca772f</title>
<g id="a_clust1"><a xlink:href="dir_b58f5cbef52144281201f92199ca772f.html" target="_top" xlink:title="sources">
<polygon fill="#ddddee" stroke="black" points="8,-64 8,-135 78,-135 78,-64 8,-64"/>
<text text-anchor="middle" x="43" y="-123" font-family="Helvetica,sans-Serif" font-size="10.00">sources</text>
</a>
</g>
</g>
<!-- dir_381bfae45a785c91acc6402f45ed08b8 -->
<g id="node1" class="node">
<title>dir_381bfae45a785c91acc6402f45ed08b8</title>
<g id="a_node1"><a xlink:href="dir_381bfae45a785c91acc6402f45ed08b8.html" target="_top" xlink:title="Sound">
<polygon fill="#eeeeff" stroke="black" points="70,-108 16,-108 16,-72 70,-72 70,-108"/>
<text text-anchor="middle" x="43" y="-87.5" font-family="Helvetica,sans-Serif" font-size="10.00">Sound</text>
</a>
</g>
</g>
<!-- dir_a20e3d58a77f7aec7eaa75bb031705ad -->
<g id="node2" class="node">
<title>dir_a20e3d58a77f7aec7eaa75bb031705ad</title>
<g id="a_node2"><a xlink:href="dir_a20e3d58a77f7aec7eaa75bb031705ad.html" target="_top" xlink:title="IAsset">
<polygon fill="none" stroke="black" points="70,-36 16,-36 16,0 70,0 70,-36"/>
<text text-anchor="middle" x="43" y="-15.5" font-family="Helvetica,sans-Serif" font-size="10.00">IAsset</text>
</a>
</g>
</g>
<!-- dir_381bfae45a785c91acc6402f45ed08b8&#45;&gt;dir_a20e3d58a77f7aec7eaa75bb031705ad -->
<g id="edge1" class="edge">
<title>dir_381bfae45a785c91acc6402f45ed08b8&#45;&gt;dir_a20e3d58a77f7aec7eaa75bb031705ad</title>
<path fill="none" stroke="black" d="M43,-71.7C43,-63.98 43,-54.71 43,-46.11"/>
<polygon fill="black" stroke="black" points="46.5,-46.1 43,-36.1 39.5,-46.1 46.5,-46.1"/>
<g id="a_edge1&#45;headlabel"><a xlink:href="dir_000116_000101.html" target="_top" xlink:title="1">
<text text-anchor="middle" x="49.34" y="-47.2" font-family="Helvetica,sans-Serif" font-size="10.00">1</text>
</a>
</g>
</g>
</g>
</svg>
