<?xml version="1.0" encoding="UTF-8" standalone="no"?>
<!DOCTYPE svg PUBLIC "-//W3C//DTD SVG 1.1//EN"
 "http://www.w3.org/Graphics/SVG/1.1/DTD/svg11.dtd">
<!-- Generated by graphviz version 2.43.0 (0)
 -->
<!-- Title: Libs/ECS/tests/AddSystem Pages: 1 -->
<svg width="157pt" height="223pt"
 viewBox="0.00 0.00 157.00 223.00" xmlns="http://www.w3.org/2000/svg" xmlns:xlink="http://www.w3.org/1999/xlink">
<g id="graph0" class="graph" transform="scale(1 1) rotate(0) translate(4 219)">
<title>Libs/ECS/tests/AddSystem</title>
<polygon fill="white" stroke="transparent" points="-4,4 -4,-219 153,-219 153,4 -4,4"/>
<g id="clust1" class="cluster">
<title>clusterdir_4af903cecc07d9ccb647b97b7ac72f87</title>
<g id="a_clust1"><a xlink:href="dir_4af903cecc07d9ccb647b97b7ac72f87.html" target="_top" xlink:title="tests">
<polygon fill="#ddddee" stroke="black" points="53,-136 53,-207 141,-207 141,-136 53,-136"/>
<text text-anchor="middle" x="97" y="-195" font-family="Helvetica,sans-Serif" font-size="10.00">tests</text>
</a>
</g>
</g>
<!-- dir_dd3189f77a8cb675509ebab07a2207ba -->
<g id="node1" class="node">
<title>dir_dd3189f77a8cb675509ebab07a2207ba</title>
<g id="a_node1"><a xlink:href="dir_dd3189f77a8cb675509ebab07a2207ba.html" target="_top" xlink:title="AddSystem">
<polygon fill="#eeeeff" stroke="black" points="133,-180 61,-180 61,-144 133,-144 133,-180"/>
<text text-anchor="middle" x="97" y="-159.5" font-family="Helvetica,sans-Serif" font-size="10.00">AddSystem</text>
</a>
</g>
</g>
<!-- dir_a97e75f625941a617dd06ce722e99309 -->
<g id="node2" class="node">
<title>dir_a97e75f625941a617dd06ce722e99309</title>
<g id="a_node2"><a xlink:href="dir_a97e75f625941a617dd06ce722e99309.html" target="_top" xlink:title="StorageComponent">
<polygon fill="none" stroke="black" points="110,-108 0,-108 0,-72 110,-72 110,-108"/>
<text text-anchor="middle" x="55" y="-87.5" font-family="Helvetica,sans-Serif" font-size="10.00">StorageComponent</text>
</a>
</g>
</g>
<!-- dir_dd3189f77a8cb675509ebab07a2207ba&#45;&gt;dir_a97e75f625941a617dd06ce722e99309 -->
<g id="edge2" class="edge">
<title>dir_dd3189f77a8cb675509ebab07a2207ba&#45;&gt;dir_a97e75f625941a617dd06ce722e99309</title>
<path fill="none" stroke="black" d="M86.62,-143.7C81.74,-135.56 75.81,-125.69 70.42,-116.7"/>
<polygon fill="black" stroke="black" points="73.41,-114.88 65.26,-108.1 67.41,-118.48 73.41,-114.88"/>
<g id="a_edge2&#45;headlabel"><a xlink:href="dir_000032_000033.html" target="_top" xlink:title="1">
<text text-anchor="middle" x="77.69" y="-114" font-family="Helvetica,sans-Serif" font-size="10.00">1</text>
</a>
</g>
</g>
<!-- dir_01f7e9a8ddc73edbc1248d272f2c3911 -->
<g id="node3" class="node">
<title>dir_01f7e9a8ddc73edbc1248d272f2c3911</title>
<g id="a_node3"><a xlink:href="dir_01f7e9a8ddc73edbc1248d272f2c3911.html" target="_top" xlink:title="sources">
<polygon fill="white" stroke="red" points="123,-36 69,-36 69,0 123,0 123,-36"/>
<text text-anchor="middle" x="96" y="-15.5" font-family="Helvetica,sans-Serif" font-size="10.00">sources</text>
</a>
</g>
</g>
<!-- dir_dd3189f77a8cb675509ebab07a2207ba&#45;&gt;dir_01f7e9a8ddc73edbc1248d272f2c3911 -->
<g id="edge3" class="edge">
<title>dir_dd3189f77a8cb675509ebab07a2207ba&#45;&gt;dir_01f7e9a8ddc73edbc1248d272f2c3911</title>
<path fill="none" stroke="black" d="M106.13,-143.88C111.01,-133.76 116.51,-120.51 119,-108 122.13,-92.31 122.25,-87.67 119,-72 117.12,-62.96 113.63,-53.58 109.91,-45.26"/>
<polygon fill="black" stroke="black" points="113,-43.6 105.54,-36.07 106.68,-46.61 113,-43.6"/>
<g id="a_edge3&#45;headlabel"><a xlink:href="dir_000032_000019.html" target="_top" xlink:title="2">
<text text-anchor="middle" x="117.11" y="-43.12" font-family="Helvetica,sans-Serif" font-size="10.00">2</text>
</a>
</g>
</g>
<!-- dir_a97e75f625941a617dd06ce722e99309&#45;&gt;dir_01f7e9a8ddc73edbc1248d272f2c3911 -->
<g id="edge1" class="edge">
<title>dir_a97e75f625941a617dd06ce722e99309&#45;&gt;dir_01f7e9a8ddc73edbc1248d272f2c3911</title>
<path fill="none" stroke="black" d="M65.13,-71.7C69.85,-63.64 75.56,-53.89 80.78,-44.98"/>
<polygon fill="black" stroke="black" points="83.95,-46.5 85.98,-36.1 77.91,-42.96 83.95,-46.5"/>
<g id="a_edge1&#45;headlabel"><a xlink:href="dir_000033_000019.html" target="_top" xlink:title="1">
<text text-anchor="middle" x="84.58" y="-48.54" font-family="Helvetica,sans-Serif" font-size="10.00">1</text>
</a>
</g>
</g>
</g>
</svg>
