<?xml version="1.0" encoding="UTF-8" standalone="no"?>
<!DOCTYPE svg PUBLIC "-//W3C//DTD SVG 1.1//EN"
 "http://www.w3.org/Graphics/SVG/1.1/DTD/svg11.dtd">
<!-- Generated by graphviz version 2.43.0 (0)
 -->
<!-- Title: Libs/Engine/sources/Systems/CollisionSystem Pages: 1 -->
<svg width="145pt" height="223pt"
 viewBox="0.00 0.00 145.00 223.00" xmlns="http://www.w3.org/2000/svg" xmlns:xlink="http://www.w3.org/1999/xlink">
<g id="graph0" class="graph" transform="scale(1 1) rotate(0) translate(4 219)">
<title>Libs/Engine/sources/Systems/CollisionSystem</title>
<polygon fill="white" stroke="transparent" points="-4,4 -4,-219 141,-219 141,4 -4,4"/>
<g id="clust1" class="cluster">
<title>clusterdir_9a9e2b7a8f13e92341bd3030ad46e690</title>
<g id="a_clust1"><a xlink:href="dir_9a9e2b7a8f13e92341bd3030ad46e690.html" target="_top" xlink:title="Systems">
<polygon fill="#ddddee" stroke="black" points="17,-136 17,-207 129,-207 129,-136 17,-136"/>
<text text-anchor="middle" x="73" y="-195" font-family="Helvetica,sans-Serif" font-size="10.00">Systems</text>
</a>
</g>
</g>
<!-- dir_56cebcdc6b908985625358cdd80b89cc -->
<g id="node1" class="node">
<title>dir_56cebcdc6b908985625358cdd80b89cc</title>
<g id="a_node1"><a xlink:href="dir_56cebcdc6b908985625358cdd80b89cc.html" target="_top" xlink:title="CollisionSystem">
<polygon fill="#eeeeff" stroke="black" points="120.5,-180 25.5,-180 25.5,-144 120.5,-144 120.5,-180"/>
<text text-anchor="middle" x="73" y="-159.5" font-family="Helvetica,sans-Serif" font-size="10.00">CollisionSystem</text>
</a>
</g>
</g>
<!-- dir_e1b125331ccfd7597fbda9d04ae41b2d -->
<g id="node2" class="node">
<title>dir_e1b125331ccfd7597fbda9d04ae41b2d</title>
<g id="a_node2"><a xlink:href="dir_e1b125331ccfd7597fbda9d04ae41b2d.html" target="_top" xlink:title="Components">
<polygon fill="white" stroke="red" points="78,-108 0,-108 0,-72 78,-72 78,-108"/>
<text text-anchor="middle" x="39" y="-87.5" font-family="Helvetica,sans-Serif" font-size="10.00">Components</text>
</a>
</g>
</g>
<!-- dir_56cebcdc6b908985625358cdd80b89cc&#45;&gt;dir_e1b125331ccfd7597fbda9d04ae41b2d -->
<g id="edge1" class="edge">
<title>dir_56cebcdc6b908985625358cdd80b89cc&#45;&gt;dir_e1b125331ccfd7597fbda9d04ae41b2d</title>
<path fill="none" stroke="black" d="M64.6,-143.7C60.73,-135.73 56.05,-126.1 51.76,-117.26"/>
<polygon fill="black" stroke="black" points="54.83,-115.57 47.31,-108.1 48.53,-118.63 54.83,-115.57"/>
<g id="a_edge1&#45;headlabel"><a xlink:href="dir_000082_000037.html" target="_top" xlink:title="1">
<text text-anchor="middle" x="58.95" y="-115.06" font-family="Helvetica,sans-Serif" font-size="10.00">1</text>
</a>
</g>
</g>
<!-- dir_4a120dbb11348b2823d2a12dcab2f1e3 -->
<g id="node3" class="node">
<title>dir_4a120dbb11348b2823d2a12dcab2f1e3</title>
<g id="a_node3"><a xlink:href="dir_4a120dbb11348b2823d2a12dcab2f1e3.html" target="_top" xlink:title="ECS">
<polygon fill="white" stroke="red" points="99,-36 45,-36 45,0 99,0 99,-36"/>
<text text-anchor="middle" x="72" y="-15.5" font-family="Helvetica,sans-Serif" font-size="10.00">ECS</text>
</a>
</g>
</g>
<!-- dir_56cebcdc6b908985625358cdd80b89cc&#45;&gt;dir_4a120dbb11348b2823d2a12dcab2f1e3 -->
<g id="edge2" class="edge">
<title>dir_56cebcdc6b908985625358cdd80b89cc&#45;&gt;dir_4a120dbb11348b2823d2a12dcab2f1e3</title>
<path fill="none" stroke="black" d="M78.82,-143.56C81.93,-133.33 85.43,-120.08 87,-108 89.06,-92.13 89.2,-87.85 87,-72 85.82,-63.48 83.61,-54.39 81.25,-46.2"/>
<polygon fill="black" stroke="black" points="84.52,-44.94 78.24,-36.41 77.83,-46.99 84.52,-44.94"/>
<g id="a_edge2&#45;headlabel"><a xlink:href="dir_000082_000002.html" target="_top" xlink:title="3">
<text text-anchor="middle" x="88.29" y="-45.04" font-family="Helvetica,sans-Serif" font-size="10.00">3</text>
</a>
</g>
</g>
<!-- dir_e1b125331ccfd7597fbda9d04ae41b2d&#45;&gt;dir_4a120dbb11348b2823d2a12dcab2f1e3 -->
<g id="edge3" class="edge">
<title>dir_e1b125331ccfd7597fbda9d04ae41b2d&#45;&gt;dir_4a120dbb11348b2823d2a12dcab2f1e3</title>
<path fill="none" stroke="black" d="M47.16,-71.7C50.91,-63.73 55.45,-54.1 59.62,-45.26"/>
<polygon fill="black" stroke="black" points="62.84,-46.64 63.94,-36.1 56.51,-43.66 62.84,-46.64"/>
<g id="a_edge3&#45;headlabel"><a xlink:href="dir_000037_000002.html" target="_top" xlink:title="33">
<text text-anchor="middle" x="63.87" y="-48.6" font-family="Helvetica,sans-Serif" font-size="10.00">33</text>
</a>
</g>
</g>
</g>
</svg>
