<?xml version="1.0" encoding="UTF-8" standalone="no"?>
<!DOCTYPE svg PUBLIC "-//W3C//DTD SVG 1.1//EN"
 "http://www.w3.org/Graphics/SVG/1.1/DTD/svg11.dtd">
<!-- Generated by graphviz version 2.43.0 (0)
 -->
<!-- Title: Libs/Engine/sources/ModelShader Pages: 1 -->
<svg width="323pt" height="231pt"
 viewBox="0.00 0.00 323.00 231.00" xmlns="http://www.w3.org/2000/svg" xmlns:xlink="http://www.w3.org/1999/xlink">
<g id="graph0" class="graph" transform="scale(1 1) rotate(0) translate(4 227)">
<title>Libs/Engine/sources/ModelShader</title>
<polygon fill="white" stroke="transparent" points="-4,4 -4,-227 319,-227 319,4 -4,4"/>
<g id="clust1" class="cluster">
<title>clusterdir_12f21af94f7aa2f818b030247191ed7e</title>
<g id="a_clust1"><a xlink:href="dir_12f21af94f7aa2f818b030247191ed7e.html" target="_top" xlink:title="sources">
<polygon fill="#ddddee" stroke="black" points="8,-128 8,-215 307,-215 307,-128 8,-128"/>
<text text-anchor="middle" x="157.5" y="-203" font-family="Helvetica,sans-Serif" font-size="10.00">sources</text>
</a>
</g>
</g>
<g id="clust2" class="cluster">
<title>clusterdir_410b9e5e5923f3d338ad2cc3fc994ccd</title>
<g id="a_clust2"><a xlink:href="dir_410b9e5e5923f3d338ad2cc3fc994ccd.html" target="_top">
<polygon fill="#eeeeff" stroke="black" points="16,-136 16,-188 299,-188 299,-136 16,-136"/>
</a>
</g>
</g>
<!-- dir_410b9e5e5923f3d338ad2cc3fc994ccd -->
<g id="node1" class="node">
<title>dir_410b9e5e5923f3d338ad2cc3fc994ccd</title>
<text text-anchor="middle" x="64" y="-159.5" font-family="Helvetica,sans-Serif" font-size="10.00">ModelShader</text>
</g>
<!-- dir_ba9f96492b222561776079c293f18c0c -->
<g id="node5" class="node">
<title>dir_ba9f96492b222561776079c293f18c0c</title>
<g id="a_node5"><a xlink:href="dir_ba9f96492b222561776079c293f18c0c.html" target="_top" xlink:title="AssetManager">
<polygon fill="white" stroke="red" points="191,-108 105,-108 105,-72 191,-72 191,-108"/>
<text text-anchor="middle" x="148" y="-87.5" font-family="Helvetica,sans-Serif" font-size="10.00">AssetManager</text>
</a>
</g>
</g>
<!-- dir_410b9e5e5923f3d338ad2cc3fc994ccd&#45;&gt;dir_ba9f96492b222561776079c293f18c0c -->
<g id="edge1" class="edge">
<title>dir_410b9e5e5923f3d338ad2cc3fc994ccd&#45;&gt;dir_ba9f96492b222561776079c293f18c0c</title>
<path fill="none" stroke="black" d="M84.76,-143.7C95.24,-134.97 108.11,-124.24 119.5,-114.75"/>
<polygon fill="black" stroke="black" points="122.03,-117.19 127.47,-108.1 117.55,-111.82 122.03,-117.19"/>
<g id="a_edge1&#45;headlabel"><a xlink:href="dir_000075_000035.html" target="_top" xlink:title="2">
<text text-anchor="middle" x="121.09" y="-119.18" font-family="Helvetica,sans-Serif" font-size="10.00">2</text>
</a>
</g>
</g>
<!-- dir_4a120dbb11348b2823d2a12dcab2f1e3 -->
<g id="node6" class="node">
<title>dir_4a120dbb11348b2823d2a12dcab2f1e3</title>
<g id="a_node6"><a xlink:href="dir_4a120dbb11348b2823d2a12dcab2f1e3.html" target="_top" xlink:title="ECS">
<polygon fill="white" stroke="red" points="87,-108 33,-108 33,-72 87,-72 87,-108"/>
<text text-anchor="middle" x="60" y="-87.5" font-family="Helvetica,sans-Serif" font-size="10.00">ECS</text>
</a>
</g>
</g>
<!-- dir_410b9e5e5923f3d338ad2cc3fc994ccd&#45;&gt;dir_4a120dbb11348b2823d2a12dcab2f1e3 -->
<g id="edge2" class="edge">
<title>dir_410b9e5e5923f3d338ad2cc3fc994ccd&#45;&gt;dir_4a120dbb11348b2823d2a12dcab2f1e3</title>
<path fill="none" stroke="black" d="M63.01,-143.7C62.57,-135.98 62.04,-126.71 61.55,-118.11"/>
<polygon fill="black" stroke="black" points="65.04,-117.89 60.98,-108.1 58.05,-118.29 65.04,-117.89"/>
<g id="a_edge2&#45;headlabel"><a xlink:href="dir_000075_000002.html" target="_top" xlink:title="1">
<text text-anchor="middle" x="68.08" y="-118.82" font-family="Helvetica,sans-Serif" font-size="10.00">1</text>
</a>
</g>
</g>
<!-- dir_b7b9367eb2b1fa996207797259077e67 -->
<g id="node2" class="node">
<title>dir_b7b9367eb2b1fa996207797259077e67</title>
<g id="a_node2"><a xlink:href="dir_b7b9367eb2b1fa996207797259077e67.html" target="_top" xlink:title="BasicLight">
<polygon fill="white" stroke="black" points="290.5,-180 223.5,-180 223.5,-144 290.5,-144 290.5,-180"/>
<text text-anchor="middle" x="257" y="-159.5" font-family="Helvetica,sans-Serif" font-size="10.00">BasicLight</text>
</a>
</g>
</g>
<!-- dir_2e574b6382041dc2a136b1675bed65ad -->
<g id="node4" class="node">
<title>dir_2e574b6382041dc2a136b1675bed65ad</title>
<g id="a_node4"><a xlink:href="dir_2e574b6382041dc2a136b1675bed65ad.html" target="_top" xlink:title="RayLib">
<polygon fill="white" stroke="red" points="246,-36 192,-36 192,0 246,0 246,-36"/>
<text text-anchor="middle" x="219" y="-15.5" font-family="Helvetica,sans-Serif" font-size="10.00">RayLib</text>
</a>
</g>
</g>
<!-- dir_b7b9367eb2b1fa996207797259077e67&#45;&gt;dir_2e574b6382041dc2a136b1675bed65ad -->
<g id="edge6" class="edge">
<title>dir_b7b9367eb2b1fa996207797259077e67&#45;&gt;dir_2e574b6382041dc2a136b1675bed65ad</title>
<path fill="none" stroke="black" d="M252.42,-143.87C245.91,-119.56 233.94,-74.82 226.23,-46.01"/>
<polygon fill="black" stroke="black" points="229.57,-44.94 223.6,-36.19 222.8,-46.75 229.57,-44.94"/>
<g id="a_edge6&#45;headlabel"><a xlink:href="dir_000076_000005.html" target="_top" xlink:title="4">
<text text-anchor="middle" x="233.24" y="-45.18" font-family="Helvetica,sans-Serif" font-size="10.00">4</text>
</a>
</g>
</g>
<!-- dir_831c0b5d9bc7aa9da0fa880f33b4af3d -->
<g id="node3" class="node">
<title>dir_831c0b5d9bc7aa9da0fa880f33b4af3d</title>
<g id="a_node3"><a xlink:href="dir_831c0b5d9bc7aa9da0fa880f33b4af3d.html" target="_top" xlink:title="TerrainShader">
<polygon fill="white" stroke="black" points="205.5,-180 122.5,-180 122.5,-144 205.5,-144 205.5,-180"/>
<text text-anchor="middle" x="164" y="-159.5" font-family="Helvetica,sans-Serif" font-size="10.00">TerrainShader</text>
</a>
</g>
</g>
<!-- dir_831c0b5d9bc7aa9da0fa880f33b4af3d&#45;&gt;dir_2e574b6382041dc2a136b1675bed65ad -->
<g id="edge3" class="edge">
<title>dir_831c0b5d9bc7aa9da0fa880f33b4af3d&#45;&gt;dir_2e574b6382041dc2a136b1675bed65ad</title>
<path fill="none" stroke="black" d="M178.16,-143.85C185.69,-133.93 194.5,-120.89 200,-108 208.41,-88.29 213.24,-64.49 215.93,-46.46"/>
<polygon fill="black" stroke="black" points="219.43,-46.71 217.3,-36.33 212.49,-45.76 219.43,-46.71"/>
<g id="a_edge3&#45;headlabel"><a xlink:href="dir_000077_000005.html" target="_top" xlink:title="2">
<text text-anchor="middle" x="221.76" y="-48.15" font-family="Helvetica,sans-Serif" font-size="10.00">2</text>
</a>
</g>
</g>
<!-- dir_831c0b5d9bc7aa9da0fa880f33b4af3d&#45;&gt;dir_ba9f96492b222561776079c293f18c0c -->
<g id="edge4" class="edge">
<title>dir_831c0b5d9bc7aa9da0fa880f33b4af3d&#45;&gt;dir_ba9f96492b222561776079c293f18c0c</title>
<path fill="none" stroke="black" d="M160.04,-143.7C158.28,-135.98 156.16,-126.71 154.2,-118.11"/>
<polygon fill="black" stroke="black" points="157.55,-117.07 151.91,-108.1 150.73,-118.63 157.55,-117.07"/>
<g id="a_edge4&#45;headlabel"><a xlink:href="dir_000077_000035.html" target="_top" xlink:title="1">
<text text-anchor="middle" x="161.12" y="-117.44" font-family="Helvetica,sans-Serif" font-size="10.00">1</text>
</a>
</g>
</g>
<!-- dir_ba9f96492b222561776079c293f18c0c&#45;&gt;dir_2e574b6382041dc2a136b1675bed65ad -->
<g id="edge5" class="edge">
<title>dir_ba9f96492b222561776079c293f18c0c&#45;&gt;dir_2e574b6382041dc2a136b1675bed65ad</title>
<path fill="none" stroke="black" d="M165.55,-71.7C174.23,-63.14 184.86,-52.66 194.35,-43.3"/>
<polygon fill="black" stroke="black" points="196.99,-45.62 201.65,-36.1 192.07,-40.63 196.99,-45.62"/>
<g id="a_edge5&#45;headlabel"><a xlink:href="dir_000035_000005.html" target="_top" xlink:title="1">
<text text-anchor="middle" x="196.42" y="-47.66" font-family="Helvetica,sans-Serif" font-size="10.00">1</text>
</a>
</g>
</g>
</g>
</svg>
