<?xml version="1.0" encoding="UTF-8" standalone="no"?>
<!DOCTYPE svg PUBLIC "-//W3C//DTD SVG 1.1//EN"
 "http://www.w3.org/Graphics/SVG/1.1/DTD/svg11.dtd">
<!-- Generated by graphviz version 2.43.0 (0)
 -->
<!-- Title: Libs/Engine/sources/Components/Drawable3D Pages: 1 -->
<svg width="228pt" height="223pt"
 viewBox="0.00 0.00 228.00 223.00" xmlns="http://www.w3.org/2000/svg" xmlns:xlink="http://www.w3.org/1999/xlink">
<g id="graph0" class="graph" transform="scale(1 1) rotate(0) translate(4 219)">
<title>Libs/Engine/sources/Components/Drawable3D</title>
<polygon fill="white" stroke="transparent" points="-4,4 -4,-219 224,-219 224,4 -4,4"/>
<g id="clust1" class="cluster">
<title>clusterdir_e1b125331ccfd7597fbda9d04ae41b2d</title>
<g id="a_clust1"><a xlink:href="dir_e1b125331ccfd7597fbda9d04ae41b2d.html" target="_top" xlink:title="Components">
<polygon fill="#ddddee" stroke="black" points="55,-136 55,-207 149,-207 149,-136 55,-136"/>
<text text-anchor="middle" x="102" y="-195" font-family="Helvetica,sans-Serif" font-size="10.00">Components</text>
</a>
</g>
</g>
<!-- dir_ead2403153bcb9f28373d1149c7d4c27 -->
<g id="node1" class="node">
<title>dir_ead2403153bcb9f28373d1149c7d4c27</title>
<g id="a_node1"><a xlink:href="dir_ead2403153bcb9f28373d1149c7d4c27.html" target="_top" xlink:title="Drawable3D">
<polygon fill="#eeeeff" stroke="black" points="140.5,-180 63.5,-180 63.5,-144 140.5,-144 140.5,-180"/>
<text text-anchor="middle" x="102" y="-159.5" font-family="Helvetica,sans-Serif" font-size="10.00">Drawable3D</text>
</a>
</g>
</g>
<!-- dir_2e574b6382041dc2a136b1675bed65ad -->
<g id="node2" class="node">
<title>dir_2e574b6382041dc2a136b1675bed65ad</title>
<g id="a_node2"><a xlink:href="dir_2e574b6382041dc2a136b1675bed65ad.html" target="_top" xlink:title="RayLib">
<polygon fill="white" stroke="red" points="54,-36 0,-36 0,0 54,0 54,-36"/>
<text text-anchor="middle" x="27" y="-15.5" font-family="Helvetica,sans-Serif" font-size="10.00">RayLib</text>
</a>
</g>
</g>
<!-- dir_ead2403153bcb9f28373d1149c7d4c27&#45;&gt;dir_2e574b6382041dc2a136b1675bed65ad -->
<g id="edge3" class="edge">
<title>dir_ead2403153bcb9f28373d1149c7d4c27&#45;&gt;dir_2e574b6382041dc2a136b1675bed65ad</title>
<path fill="none" stroke="black" d="M63.23,-147.69C45.16,-139.31 25.39,-126.5 15,-108 4.37,-89.08 8.85,-64.41 15.15,-45.85"/>
<polygon fill="black" stroke="black" points="18.52,-46.83 18.75,-36.24 11.97,-44.38 18.52,-46.83"/>
<g id="a_edge3&#45;headlabel"><a xlink:href="dir_000050_000005.html" target="_top" xlink:title="3">
<text text-anchor="middle" x="19.92" y="-48.7" font-family="Helvetica,sans-Serif" font-size="10.00">3</text>
</a>
</g>
</g>
<!-- dir_c5543cdc84e26c6148bf8505a526aef1 -->
<g id="node3" class="node">
<title>dir_c5543cdc84e26c6148bf8505a526aef1</title>
<g id="a_node3"><a xlink:href="dir_c5543cdc84e26c6148bf8505a526aef1.html" target="_top" xlink:title="Exceptions">
<polygon fill="none" stroke="black" points="157,-36 87,-36 87,0 157,0 157,-36"/>
<text text-anchor="middle" x="122" y="-15.5" font-family="Helvetica,sans-Serif" font-size="10.00">Exceptions</text>
</a>
</g>
</g>
<!-- dir_ead2403153bcb9f28373d1149c7d4c27&#45;&gt;dir_c5543cdc84e26c6148bf8505a526aef1 -->
<g id="edge4" class="edge">
<title>dir_ead2403153bcb9f28373d1149c7d4c27&#45;&gt;dir_c5543cdc84e26c6148bf8505a526aef1</title>
<path fill="none" stroke="black" d="M108.91,-143.64C112.63,-133.44 116.88,-120.19 119,-108 122.55,-87.57 123.2,-64.11 123.02,-46.4"/>
<polygon fill="black" stroke="black" points="126.52,-46.13 122.82,-36.21 119.52,-46.27 126.52,-46.13"/>
<g id="a_edge4&#45;headlabel"><a xlink:href="dir_000050_000073.html" target="_top" xlink:title="1">
<text text-anchor="middle" x="129.43" y="-47.17" font-family="Helvetica,sans-Serif" font-size="10.00">1</text>
</a>
</g>
</g>
<!-- dir_ba9f96492b222561776079c293f18c0c -->
<g id="node4" class="node">
<title>dir_ba9f96492b222561776079c293f18c0c</title>
<g id="a_node4"><a xlink:href="dir_ba9f96492b222561776079c293f18c0c.html" target="_top" xlink:title="AssetManager">
<polygon fill="white" stroke="red" points="110,-108 24,-108 24,-72 110,-72 110,-108"/>
<text text-anchor="middle" x="67" y="-87.5" font-family="Helvetica,sans-Serif" font-size="10.00">AssetManager</text>
</a>
</g>
</g>
<!-- dir_ead2403153bcb9f28373d1149c7d4c27&#45;&gt;dir_ba9f96492b222561776079c293f18c0c -->
<g id="edge5" class="edge">
<title>dir_ead2403153bcb9f28373d1149c7d4c27&#45;&gt;dir_ba9f96492b222561776079c293f18c0c</title>
<path fill="none" stroke="black" d="M93.35,-143.7C89.36,-135.73 84.55,-126.1 80.13,-117.26"/>
<polygon fill="black" stroke="black" points="83.15,-115.48 75.55,-108.1 76.89,-118.61 83.15,-115.48"/>
<g id="a_edge5&#45;headlabel"><a xlink:href="dir_000050_000035.html" target="_top" xlink:title="1">
<text text-anchor="middle" x="87.3" y="-114.93" font-family="Helvetica,sans-Serif" font-size="10.00">1</text>
</a>
</g>
</g>
<!-- dir_4a120dbb11348b2823d2a12dcab2f1e3 -->
<g id="node5" class="node">
<title>dir_4a120dbb11348b2823d2a12dcab2f1e3</title>
<g id="a_node5"><a xlink:href="dir_4a120dbb11348b2823d2a12dcab2f1e3.html" target="_top" xlink:title="ECS">
<polygon fill="white" stroke="red" points="220,-108 166,-108 166,-72 220,-72 220,-108"/>
<text text-anchor="middle" x="193" y="-87.5" font-family="Helvetica,sans-Serif" font-size="10.00">ECS</text>
</a>
</g>
</g>
<!-- dir_ead2403153bcb9f28373d1149c7d4c27&#45;&gt;dir_4a120dbb11348b2823d2a12dcab2f1e3 -->
<g id="edge6" class="edge">
<title>dir_ead2403153bcb9f28373d1149c7d4c27&#45;&gt;dir_4a120dbb11348b2823d2a12dcab2f1e3</title>
<path fill="none" stroke="black" d="M124.49,-143.7C135.96,-134.88 150.06,-124.03 162.48,-114.47"/>
<polygon fill="black" stroke="black" points="164.97,-116.98 170.76,-108.1 160.7,-111.43 164.97,-116.98"/>
<g id="a_edge6&#45;headlabel"><a xlink:href="dir_000050_000002.html" target="_top" xlink:title="1">
<text text-anchor="middle" x="163.85" y="-118.92" font-family="Helvetica,sans-Serif" font-size="10.00">1</text>
</a>
</g>
</g>
<!-- dir_ba9f96492b222561776079c293f18c0c&#45;&gt;dir_2e574b6382041dc2a136b1675bed65ad -->
<g id="edge1" class="edge">
<title>dir_ba9f96492b222561776079c293f18c0c&#45;&gt;dir_2e574b6382041dc2a136b1675bed65ad</title>
<path fill="none" stroke="black" d="M57.11,-71.7C52.51,-63.64 46.94,-53.89 41.85,-44.98"/>
<polygon fill="black" stroke="black" points="44.77,-43.05 36.77,-36.1 38.7,-46.52 44.77,-43.05"/>
<g id="a_edge1&#45;headlabel"><a xlink:href="dir_000035_000005.html" target="_top" xlink:title="1">
<text text-anchor="middle" x="49.02" y="-42.26" font-family="Helvetica,sans-Serif" font-size="10.00">1</text>
</a>
</g>
</g>
<!-- dir_ba9f96492b222561776079c293f18c0c&#45;&gt;dir_c5543cdc84e26c6148bf8505a526aef1 -->
<g id="edge2" class="edge">
<title>dir_ba9f96492b222561776079c293f18c0c&#45;&gt;dir_c5543cdc84e26c6148bf8505a526aef1</title>
<path fill="none" stroke="black" d="M80.6,-71.7C87.12,-63.39 95.07,-53.28 102.25,-44.14"/>
<polygon fill="black" stroke="black" points="105.13,-46.13 108.56,-36.1 99.63,-41.81 105.13,-46.13"/>
<g id="a_edge2&#45;headlabel"><a xlink:href="dir_000035_000073.html" target="_top" xlink:title="1">
<text text-anchor="middle" x="105.15" y="-48.21" font-family="Helvetica,sans-Serif" font-size="10.00">1</text>
</a>
</g>
</g>
</g>
</svg>
