<?xml version="1.0" encoding="UTF-8" standalone="no"?>
<!DOCTYPE svg PUBLIC "-//W3C//DTD SVG 1.1//EN"
 "http://www.w3.org/Graphics/SVG/1.1/DTD/svg11.dtd">
<!-- Generated by graphviz version 2.43.0 (0)
 -->
<!-- Title: Libs/TerrainGenerator/tests Pages: 1 -->
<svg width="122pt" height="151pt"
 viewBox="0.00 0.00 122.00 151.00" xmlns="http://www.w3.org/2000/svg" xmlns:xlink="http://www.w3.org/1999/xlink">
<g id="graph0" class="graph" transform="scale(1 1) rotate(0) translate(4 147)">
<title>Libs/TerrainGenerator/tests</title>
<polygon fill="white" stroke="transparent" points="-4,4 -4,-147 118,-147 118,4 -4,4"/>
<g id="clust1" class="cluster">
<title>clusterdir_ea67397643a523edf1ca7cd26133a30b</title>
<g id="a_clust1"><a xlink:href="dir_ea67397643a523edf1ca7cd26133a30b.html" target="_top" xlink:title="TerrainGenerator">
<polygon fill="#ddddee" stroke="black" points="8,-64 8,-135 106,-135 106,-64 8,-64"/>
<text text-anchor="middle" x="57" y="-123" font-family="Helvetica,sans-Serif" font-size="10.00">TerrainGenerator</text>
</a>
</g>
</g>
<!-- dir_973cd13e98bf6648b4885cdb112ddbc3 -->
<g id="node1" class="node">
<title>dir_973cd13e98bf6648b4885cdb112ddbc3</title>
<g id="a_node1"><a xlink:href="dir_973cd13e98bf6648b4885cdb112ddbc3.html" target="_top" xlink:title="tests">
<polygon fill="#eeeeff" stroke="black" points="84,-108 30,-108 30,-72 84,-72 84,-108"/>
<text text-anchor="middle" x="57" y="-87.5" font-family="Helvetica,sans-Serif" font-size="10.00">tests</text>
</a>
</g>
</g>
<!-- dir_86078c763dd51f3f2fc0f65601950815 -->
<g id="node2" class="node">
<title>dir_86078c763dd51f3f2fc0f65601950815</title>
<g id="a_node2"><a xlink:href="dir_86078c763dd51f3f2fc0f65601950815.html" target="_top" xlink:title="sources">
<polygon fill="none" stroke="black" points="84,-36 30,-36 30,0 84,0 84,-36"/>
<text text-anchor="middle" x="57" y="-15.5" font-family="Helvetica,sans-Serif" font-size="10.00">sources</text>
</a>
</g>
</g>
<!-- dir_973cd13e98bf6648b4885cdb112ddbc3&#45;&gt;dir_86078c763dd51f3f2fc0f65601950815 -->
<g id="edge1" class="edge">
<title>dir_973cd13e98bf6648b4885cdb112ddbc3&#45;&gt;dir_86078c763dd51f3f2fc0f65601950815</title>
<path fill="none" stroke="black" d="M57,-71.7C57,-63.98 57,-54.71 57,-46.11"/>
<polygon fill="black" stroke="black" points="60.5,-46.1 57,-36.1 53.5,-46.1 60.5,-46.1"/>
<g id="a_edge1&#45;headlabel"><a xlink:href="dir_000123_000122.html" target="_top" xlink:title="1">
<text text-anchor="middle" x="63.34" y="-47.2" font-family="Helvetica,sans-Serif" font-size="10.00">1</text>
</a>
</g>
</g>
</g>
</svg>
