<?xml version="1.0" encoding="UTF-8" standalone="no"?>
<!DOCTYPE svg PUBLIC "-//W3C//DTD SVG 1.1//EN"
 "http://www.w3.org/Graphics/SVG/1.1/DTD/svg11.dtd">
<!-- Generated by graphviz version 2.43.0 (0)
 -->
<!-- Title: Libs/Engine/sources/Components/DropBomb Pages: 1 -->
<svg width="1007pt" height="367pt"
 viewBox="0.00 0.00 1007.13 367.00" xmlns="http://www.w3.org/2000/svg" xmlns:xlink="http://www.w3.org/1999/xlink">
<g id="graph0" class="graph" transform="scale(1 1) rotate(0) translate(4 363)">
<title>Libs/Engine/sources/Components/DropBomb</title>
<polygon fill="white" stroke="transparent" points="-4,4 -4,-363 1003.13,-363 1003.13,4 -4,4"/>
<g id="clust1" class="cluster">
<title>clusterdir_e1b125331ccfd7597fbda9d04ae41b2d</title>
<g id="a_clust1"><a xlink:href="dir_e1b125331ccfd7597fbda9d04ae41b2d.html" target="_top" xlink:title="Components">
<polygon fill="#ddddee" stroke="black" points="488.14,-280 488.14,-351 572.14,-351 572.14,-280 488.14,-280"/>
<text text-anchor="middle" x="530.14" y="-339" font-family="Helvetica,sans-Serif" font-size="10.00">Components</text>
</a>
</g>
</g>
<!-- dir_f28ed0c37fde1a14995b91196454109f -->
<g id="node1" class="node">
<title>dir_f28ed0c37fde1a14995b91196454109f</title>
<g id="a_node1"><a xlink:href="dir_f28ed0c37fde1a14995b91196454109f.html" target="_top" xlink:title="DropBomb">
<polygon fill="#eeeeff" stroke="black" points="564.14,-324 496.14,-324 496.14,-288 564.14,-288 564.14,-324"/>
<text text-anchor="middle" x="530.14" y="-303.5" font-family="Helvetica,sans-Serif" font-size="10.00">DropBomb</text>
</a>
</g>
</g>
<!-- dir_260d2cbf2ed6a6826d7b84c90a66ff13 -->
<g id="node2" class="node">
<title>dir_260d2cbf2ed6a6826d7b84c90a66ff13</title>
<g id="a_node2"><a xlink:href="dir_260d2cbf2ed6a6826d7b84c90a66ff13.html" target="_top" xlink:title="SquareCollider">
<polygon fill="none" stroke="black" points="684.14,-252 596.14,-252 596.14,-216 684.14,-216 684.14,-252"/>
<text text-anchor="middle" x="640.14" y="-231.5" font-family="Helvetica,sans-Serif" font-size="10.00">SquareCollider</text>
</a>
</g>
</g>
<!-- dir_f28ed0c37fde1a14995b91196454109f&#45;&gt;dir_260d2cbf2ed6a6826d7b84c90a66ff13 -->
<g id="edge7" class="edge">
<title>dir_f28ed0c37fde1a14995b91196454109f&#45;&gt;dir_260d2cbf2ed6a6826d7b84c90a66ff13</title>
<path fill="none" stroke="black" d="M557.05,-287.88C571.3,-278.81 588.99,-267.55 604.38,-257.76"/>
<polygon fill="black" stroke="black" points="606.57,-260.51 613.13,-252.19 602.82,-254.61 606.57,-260.51"/>
<g id="a_edge7&#45;headlabel"><a xlink:href="dir_000051_000067.html" target="_top" xlink:title="1">
<text text-anchor="middle" x="605.07" y="-262.34" font-family="Helvetica,sans-Serif" font-size="10.00">1</text>
</a>
</g>
</g>
<!-- dir_aff1144816ce620757629f51c7ba72f0 -->
<g id="node3" class="node">
<title>dir_aff1144816ce620757629f51c7ba72f0</title>
<g id="a_node3"><a xlink:href="dir_aff1144816ce620757629f51c7ba72f0.html" target="_top" xlink:title="Renderer">
<polygon fill="none" stroke="black" points="390.64,-180 329.64,-180 329.64,-144 390.64,-144 390.64,-180"/>
<text text-anchor="middle" x="360.14" y="-159.5" font-family="Helvetica,sans-Serif" font-size="10.00">Renderer</text>
</a>
</g>
</g>
<!-- dir_f28ed0c37fde1a14995b91196454109f&#45;&gt;dir_aff1144816ce620757629f51c7ba72f0 -->
<g id="edge8" class="edge">
<title>dir_f28ed0c37fde1a14995b91196454109f&#45;&gt;dir_aff1144816ce620757629f51c7ba72f0</title>
<path fill="none" stroke="black" d="M513.05,-287.91C494.3,-269.47 463.02,-239.57 434.14,-216 421.51,-205.69 407.04,-195.08 394.26,-186.09"/>
<polygon fill="black" stroke="black" points="395.94,-182.99 385.73,-180.14 391.94,-188.73 395.94,-182.99"/>
<g id="a_edge8&#45;headlabel"><a xlink:href="dir_000051_000065.html" target="_top" xlink:title="1">
<text text-anchor="middle" x="400.51" y="-180.21" font-family="Helvetica,sans-Serif" font-size="10.00">1</text>
</a>
</g>
</g>
<!-- dir_e3fcb5edb61a9e9076684f95f68c26ba -->
<g id="node4" class="node">
<title>dir_e3fcb5edb61a9e9076684f95f68c26ba</title>
<g id="a_node4"><a xlink:href="dir_e3fcb5edb61a9e9076684f95f68c26ba.html" target="_top" xlink:title="Explosion">
<polygon fill="none" stroke="black" points="428.14,-324 364.14,-324 364.14,-288 428.14,-288 428.14,-324"/>
<text text-anchor="middle" x="396.14" y="-303.5" font-family="Helvetica,sans-Serif" font-size="10.00">Explosion</text>
</a>
</g>
</g>
<!-- dir_f28ed0c37fde1a14995b91196454109f&#45;&gt;dir_e3fcb5edb61a9e9076684f95f68c26ba -->
<g id="edge9" class="edge">
<title>dir_f28ed0c37fde1a14995b91196454109f&#45;&gt;dir_e3fcb5edb61a9e9076684f95f68c26ba</title>
<path fill="none" stroke="black" d="M495.94,-306C476.75,-306 457.56,-306 438.37,-306"/>
<polygon fill="black" stroke="black" points="438.34,-302.5 428.34,-306 438.34,-309.5 438.34,-302.5"/>
<g id="a_edge9&#45;headlabel"><a xlink:href="dir_000051_000052.html" target="_top" xlink:title="1">
<text text-anchor="middle" x="441.93" y="-297.16" font-family="Helvetica,sans-Serif" font-size="10.00">1</text>
</a>
</g>
</g>
<!-- dir_551d1ed5bb1af47eeab160358667c755 -->
<g id="node5" class="node">
<title>dir_551d1ed5bb1af47eeab160358667c755</title>
<g id="a_node5"><a xlink:href="dir_551d1ed5bb1af47eeab160358667c755.html" target="_top" xlink:title="Collider">
<polygon fill="none" stroke="black" points="726.14,-180 672.14,-180 672.14,-144 726.14,-144 726.14,-180"/>
<text text-anchor="middle" x="699.14" y="-159.5" font-family="Helvetica,sans-Serif" font-size="10.00">Collider</text>
</a>
</g>
</g>
<!-- dir_f28ed0c37fde1a14995b91196454109f&#45;&gt;dir_551d1ed5bb1af47eeab160358667c755 -->
<g id="edge10" class="edge">
<title>dir_f28ed0c37fde1a14995b91196454109f&#45;&gt;dir_551d1ed5bb1af47eeab160358667c755</title>
<path fill="none" stroke="black" d="M564.47,-304.45C602.54,-301.81 662.6,-291.2 693.14,-252 706.64,-234.68 707.03,-209.26 704.69,-190.01"/>
<polygon fill="black" stroke="black" points="708.14,-189.4 703.17,-180.04 701.22,-190.46 708.14,-189.4"/>
<g id="a_edge10&#45;headlabel"><a xlink:href="dir_000051_000046.html" target="_top" xlink:title="1">
<text text-anchor="middle" x="711.48" y="-190.03" font-family="Helvetica,sans-Serif" font-size="10.00">1</text>
</a>
</g>
</g>
<!-- dir_189353a96b8434d24dafb7e206a5344c -->
<g id="node6" class="node">
<title>dir_189353a96b8434d24dafb7e206a5344c</title>
<g id="a_node6"><a xlink:href="dir_189353a96b8434d24dafb7e206a5344c.html" target="_top" xlink:title="Destructible">
<polygon fill="none" stroke="black" points="139.14,-180 63.14,-180 63.14,-144 139.14,-144 139.14,-180"/>
<text text-anchor="middle" x="101.14" y="-159.5" font-family="Helvetica,sans-Serif" font-size="10.00">Destructible</text>
</a>
</g>
</g>
<!-- dir_f28ed0c37fde1a14995b91196454109f&#45;&gt;dir_189353a96b8434d24dafb7e206a5344c -->
<g id="edge11" class="edge">
<title>dir_f28ed0c37fde1a14995b91196454109f&#45;&gt;dir_189353a96b8434d24dafb7e206a5344c</title>
<path fill="none" stroke="black" d="M495.87,-295.04C478.38,-290.15 456.72,-284.38 437.14,-280 368.4,-264.62 348.05,-274.05 281.14,-252 229.48,-234.97 173.91,-205.63 138.4,-185.32"/>
<polygon fill="black" stroke="black" points="139.79,-182.08 129.38,-180.1 136.29,-188.14 139.79,-182.08"/>
<g id="a_edge11&#45;headlabel"><a xlink:href="dir_000051_000048.html" target="_top" xlink:title="1">
<text text-anchor="middle" x="144.32" y="-178.92" font-family="Helvetica,sans-Serif" font-size="10.00">1</text>
</a>
</g>
</g>
<!-- dir_2e574b6382041dc2a136b1675bed65ad -->
<g id="node7" class="node">
<title>dir_2e574b6382041dc2a136b1675bed65ad</title>
<g id="a_node7"><a xlink:href="dir_2e574b6382041dc2a136b1675bed65ad.html" target="_top" xlink:title="RayLib">
<polygon fill="white" stroke="red" points="792.14,-36 738.14,-36 738.14,0 792.14,0 792.14,-36"/>
<text text-anchor="middle" x="765.14" y="-15.5" font-family="Helvetica,sans-Serif" font-size="10.00">RayLib</text>
</a>
</g>
</g>
<!-- dir_f28ed0c37fde1a14995b91196454109f&#45;&gt;dir_2e574b6382041dc2a136b1675bed65ad -->
<g id="edge12" class="edge">
<title>dir_f28ed0c37fde1a14995b91196454109f&#45;&gt;dir_2e574b6382041dc2a136b1675bed65ad</title>
<path fill="none" stroke="black" d="M564.28,-301.23C660.97,-289.73 932.68,-251.45 978.14,-180 1003.91,-139.5 1007.71,-109.82 978.14,-72 956.7,-44.57 857.36,-29.3 802.24,-22.8"/>
<polygon fill="black" stroke="black" points="802.5,-19.31 792.16,-21.65 801.7,-26.26 802.5,-19.31"/>
<g id="a_edge12&#45;headlabel"><a xlink:href="dir_000051_000005.html" target="_top" xlink:title="2">
<text text-anchor="middle" x="806.39" y="-14.39" font-family="Helvetica,sans-Serif" font-size="10.00">2</text>
</a>
</g>
</g>
<!-- dir_9a9e2b7a8f13e92341bd3030ad46e690 -->
<g id="node8" class="node">
<title>dir_9a9e2b7a8f13e92341bd3030ad46e690</title>
<g id="a_node8"><a xlink:href="dir_9a9e2b7a8f13e92341bd3030ad46e690.html" target="_top" xlink:title="Systems">
<polygon fill="white" stroke="red" points="425.64,-252 366.64,-252 366.64,-216 425.64,-216 425.64,-252"/>
<text text-anchor="middle" x="396.14" y="-231.5" font-family="Helvetica,sans-Serif" font-size="10.00">Systems</text>
</a>
</g>
</g>
<!-- dir_f28ed0c37fde1a14995b91196454109f&#45;&gt;dir_9a9e2b7a8f13e92341bd3030ad46e690 -->
<g id="edge13" class="edge">
<title>dir_f28ed0c37fde1a14995b91196454109f&#45;&gt;dir_9a9e2b7a8f13e92341bd3030ad46e690</title>
<path fill="none" stroke="black" d="M497.36,-287.88C478.5,-278.02 454.69,-265.59 434.91,-255.25"/>
<polygon fill="black" stroke="black" points="436.33,-252.04 425.84,-250.51 433.09,-258.25 436.33,-252.04"/>
<g id="a_edge13&#45;headlabel"><a xlink:href="dir_000051_000079.html" target="_top" xlink:title="1">
<text text-anchor="middle" x="440.83" y="-248.69" font-family="Helvetica,sans-Serif" font-size="10.00">1</text>
</a>
</g>
</g>
<!-- dir_4a120dbb11348b2823d2a12dcab2f1e3 -->
<g id="node9" class="node">
<title>dir_4a120dbb11348b2823d2a12dcab2f1e3</title>
<g id="a_node9"><a xlink:href="dir_4a120dbb11348b2823d2a12dcab2f1e3.html" target="_top" xlink:title="ECS">
<polygon fill="white" stroke="red" points="442.14,-36 388.14,-36 388.14,0 442.14,0 442.14,-36"/>
<text text-anchor="middle" x="415.14" y="-15.5" font-family="Helvetica,sans-Serif" font-size="10.00">ECS</text>
</a>
</g>
</g>
<!-- dir_f28ed0c37fde1a14995b91196454109f&#45;&gt;dir_4a120dbb11348b2823d2a12dcab2f1e3 -->
<g id="edge14" class="edge">
<title>dir_f28ed0c37fde1a14995b91196454109f&#45;&gt;dir_4a120dbb11348b2823d2a12dcab2f1e3</title>
<path fill="none" stroke="black" d="M531.96,-287.9C533.34,-269.7 534,-240.25 527.14,-216 508.21,-148.99 461.92,-80.47 435.15,-44.56"/>
<polygon fill="black" stroke="black" points="437.62,-42.02 428.79,-36.15 432.03,-46.24 437.62,-42.02"/>
<g id="a_edge14&#45;headlabel"><a xlink:href="dir_000051_000002.html" target="_top" xlink:title="1">
<text text-anchor="middle" x="442.05" y="-40.67" font-family="Helvetica,sans-Serif" font-size="10.00">1</text>
</a>
</g>
</g>
<!-- dir_750ba15ba58b6b3310460b01ffa6b161 -->
<g id="node10" class="node">
<title>dir_750ba15ba58b6b3310460b01ffa6b161</title>
<g id="a_node10"><a xlink:href="dir_750ba15ba58b6b3310460b01ffa6b161.html" target="_top" xlink:title="PhysicsBody">
<polygon fill="none" stroke="black" points="860.14,-180 782.14,-180 782.14,-144 860.14,-144 860.14,-180"/>
<text text-anchor="middle" x="821.14" y="-159.5" font-family="Helvetica,sans-Serif" font-size="10.00">PhysicsBody</text>
</a>
</g>
</g>
<!-- dir_f28ed0c37fde1a14995b91196454109f&#45;&gt;dir_750ba15ba58b6b3310460b01ffa6b161 -->
<g id="edge15" class="edge">
<title>dir_f28ed0c37fde1a14995b91196454109f&#45;&gt;dir_750ba15ba58b6b3310460b01ffa6b161</title>
<path fill="none" stroke="black" d="M564.17,-302.95C629.46,-298.31 768.81,-284.74 802.14,-252 818.31,-236.12 822.33,-210.09 822.73,-190.28"/>
<polygon fill="black" stroke="black" points="826.23,-189.98 822.64,-180.01 819.23,-190.04 826.23,-189.98"/>
<g id="a_edge15&#45;headlabel"><a xlink:href="dir_000051_000062.html" target="_top" xlink:title="1">
<text text-anchor="middle" x="829.1" y="-191.05" font-family="Helvetica,sans-Serif" font-size="10.00">1</text>
</a>
</g>
</g>
<!-- dir_d415c0d599231354676ceb56dc96abfc -->
<g id="node11" class="node">
<title>dir_d415c0d599231354676ceb56dc96abfc</title>
<g id="a_node11"><a xlink:href="dir_d415c0d599231354676ceb56dc96abfc.html" target="_top" xlink:title="IBehaviour">
<polygon fill="none" stroke="black" points="196.64,-108 127.64,-108 127.64,-72 196.64,-72 196.64,-108"/>
<text text-anchor="middle" x="162.14" y="-87.5" font-family="Helvetica,sans-Serif" font-size="10.00">IBehaviour</text>
</a>
</g>
</g>
<!-- dir_f28ed0c37fde1a14995b91196454109f&#45;&gt;dir_d415c0d599231354676ceb56dc96abfc -->
<g id="edge16" class="edge">
<title>dir_f28ed0c37fde1a14995b91196454109f&#45;&gt;dir_d415c0d599231354676ceb56dc96abfc</title>
<path fill="none" stroke="black" d="M495.97,-294.52C478.52,-289.5 456.85,-283.77 437.14,-280 264.35,-246.92 146.21,-329.91 54.14,-180 45.77,-166.37 45.68,-157.58 54.14,-144 68.11,-121.59 94.63,-108.39 117.89,-100.76"/>
<polygon fill="black" stroke="black" points="119.05,-104.07 127.61,-97.83 117.03,-97.37 119.05,-104.07"/>
<g id="a_edge16&#45;headlabel"><a xlink:href="dir_000051_000058.html" target="_top" xlink:title="1">
<text text-anchor="middle" x="116.43" y="-105.33" font-family="Helvetica,sans-Serif" font-size="10.00">1</text>
</a>
</g>
</g>
<!-- dir_1f7fd5c054f752becab847a993818f59 -->
<g id="node12" class="node">
<title>dir_1f7fd5c054f752becab847a993818f59</title>
<g id="a_node12"><a xlink:href="dir_1f7fd5c054f752becab847a993818f59.html" target="_top" xlink:title="Camera">
<polygon fill="none" stroke="black" points="463.64,-180 408.64,-180 408.64,-144 463.64,-144 463.64,-180"/>
<text text-anchor="middle" x="436.14" y="-159.5" font-family="Helvetica,sans-Serif" font-size="10.00">Camera</text>
</a>
</g>
</g>
<!-- dir_f28ed0c37fde1a14995b91196454109f&#45;&gt;dir_1f7fd5c054f752becab847a993818f59 -->
<g id="edge17" class="edge">
<title>dir_f28ed0c37fde1a14995b91196454109f&#45;&gt;dir_1f7fd5c054f752becab847a993818f59</title>
<path fill="none" stroke="black" d="M528.84,-287.9C526.68,-268.91 520.99,-238.03 506.14,-216 497.42,-203.06 484.48,-191.99 472.09,-183.37"/>
<polygon fill="black" stroke="black" points="473.93,-180.39 463.66,-177.8 470.07,-186.23 473.93,-180.39"/>
<g id="a_edge17&#45;headlabel"><a xlink:href="dir_000051_000045.html" target="_top" xlink:title="1">
<text text-anchor="middle" x="478.5" y="-177.51" font-family="Helvetica,sans-Serif" font-size="10.00">1</text>
</a>
</g>
</g>
<!-- dir_ead2403153bcb9f28373d1149c7d4c27 -->
<g id="node13" class="node">
<title>dir_ead2403153bcb9f28373d1149c7d4c27</title>
<g id="a_node13"><a xlink:href="dir_ead2403153bcb9f28373d1149c7d4c27.html" target="_top" xlink:title="Drawable3D">
<polygon fill="none" stroke="black" points="234.64,-180 157.64,-180 157.64,-144 234.64,-144 234.64,-180"/>
<text text-anchor="middle" x="196.14" y="-159.5" font-family="Helvetica,sans-Serif" font-size="10.00">Drawable3D</text>
</a>
</g>
</g>
<!-- dir_f28ed0c37fde1a14995b91196454109f&#45;&gt;dir_ead2403153bcb9f28373d1149c7d4c27 -->
<g id="edge18" class="edge">
<title>dir_f28ed0c37fde1a14995b91196454109f&#45;&gt;dir_ead2403153bcb9f28373d1149c7d4c27</title>
<path fill="none" stroke="black" d="M496.01,-295.45C453.18,-283.32 382.3,-262.67 357.14,-252 312.13,-232.91 263.37,-204.82 231.45,-185.32"/>
<polygon fill="black" stroke="black" points="233.26,-182.33 222.91,-180.07 229.59,-188.29 233.26,-182.33"/>
<g id="a_edge18&#45;headlabel"><a xlink:href="dir_000051_000050.html" target="_top" xlink:title="1">
<text text-anchor="middle" x="237.81" y="-179.29" font-family="Helvetica,sans-Serif" font-size="10.00">1</text>
</a>
</g>
</g>
<!-- dir_9c1a1c874c5316598fbf40a566ddc437 -->
<g id="node14" class="node">
<title>dir_9c1a1c874c5316598fbf40a566ddc437</title>
<g id="a_node14"><a xlink:href="dir_9c1a1c874c5316598fbf40a566ddc437.html" target="_top" xlink:title="Transform">
<polygon fill="none" stroke="black" points="698.64,-108 633.64,-108 633.64,-72 698.64,-72 698.64,-108"/>
<text text-anchor="middle" x="666.14" y="-87.5" font-family="Helvetica,sans-Serif" font-size="10.00">Transform</text>
</a>
</g>
</g>
<!-- dir_f28ed0c37fde1a14995b91196454109f&#45;&gt;dir_9c1a1c874c5316598fbf40a566ddc437 -->
<g id="edge19" class="edge">
<title>dir_f28ed0c37fde1a14995b91196454109f&#45;&gt;dir_9c1a1c874c5316598fbf40a566ddc437</title>
<path fill="none" stroke="black" d="M564.31,-304.46C605.14,-301.95 672.98,-291.58 713.14,-252 748.04,-217.62 756.8,-187.94 735.14,-144 729.03,-131.58 718.44,-121.26 707.38,-113.13"/>
<polygon fill="black" stroke="black" points="709.13,-110.09 698.89,-107.34 705.18,-115.87 709.13,-110.09"/>
<g id="a_edge19&#45;headlabel"><a xlink:href="dir_000051_000071.html" target="_top" xlink:title="1">
<text text-anchor="middle" x="713.7" y="-107.27" font-family="Helvetica,sans-Serif" font-size="10.00">1</text>
</a>
</g>
</g>
<!-- dir_260d2cbf2ed6a6826d7b84c90a66ff13&#45;&gt;dir_551d1ed5bb1af47eeab160358667c755 -->
<g id="edge1" class="edge">
<title>dir_260d2cbf2ed6a6826d7b84c90a66ff13&#45;&gt;dir_551d1ed5bb1af47eeab160358667c755</title>
<path fill="none" stroke="black" d="M654.73,-215.7C661.8,-207.3 670.43,-197.07 678.19,-187.86"/>
<polygon fill="black" stroke="black" points="680.96,-190.01 684.73,-180.1 675.61,-185.49 680.96,-190.01"/>
<g id="a_edge1&#45;headlabel"><a xlink:href="dir_000067_000046.html" target="_top" xlink:title="1">
<text text-anchor="middle" x="680.81" y="-192.08" font-family="Helvetica,sans-Serif" font-size="10.00">1</text>
</a>
</g>
</g>
<!-- dir_260d2cbf2ed6a6826d7b84c90a66ff13&#45;&gt;dir_2e574b6382041dc2a136b1675bed65ad -->
<g id="edge2" class="edge">
<title>dir_260d2cbf2ed6a6826d7b84c90a66ff13&#45;&gt;dir_2e574b6382041dc2a136b1675bed65ad</title>
<path fill="none" stroke="black" d="M684.17,-224.83C757.9,-211.04 898.68,-184.24 902.14,-180 932.53,-142.85 929.28,-111.59 902.14,-72 879.9,-39.54 834.7,-26.96 802.3,-22.08"/>
<polygon fill="black" stroke="black" points="802.64,-18.6 792.27,-20.75 801.73,-25.53 802.64,-18.6"/>
<g id="a_edge2&#45;headlabel"><a xlink:href="dir_000067_000005.html" target="_top" xlink:title="4">
<text text-anchor="middle" x="806.58" y="-13.75" font-family="Helvetica,sans-Serif" font-size="10.00">4</text>
</a>
</g>
</g>
<!-- dir_260d2cbf2ed6a6826d7b84c90a66ff13&#45;&gt;dir_4a120dbb11348b2823d2a12dcab2f1e3 -->
<g id="edge3" class="edge">
<title>dir_260d2cbf2ed6a6826d7b84c90a66ff13&#45;&gt;dir_4a120dbb11348b2823d2a12dcab2f1e3</title>
<path fill="none" stroke="black" d="M633.89,-215.51C621.45,-183 590.64,-112.87 543.14,-72 516.84,-49.37 479.53,-35.41 451.97,-27.54"/>
<polygon fill="black" stroke="black" points="452.87,-24.16 442.3,-24.91 451.03,-30.91 452.87,-24.16"/>
<g id="a_edge3&#45;headlabel"><a xlink:href="dir_000067_000002.html" target="_top" xlink:title="3">
<text text-anchor="middle" x="457.08" y="-19.86" font-family="Helvetica,sans-Serif" font-size="10.00">3</text>
</a>
</g>
</g>
<!-- dir_260d2cbf2ed6a6826d7b84c90a66ff13&#45;&gt;dir_9c1a1c874c5316598fbf40a566ddc437 -->
<g id="edge4" class="edge">
<title>dir_260d2cbf2ed6a6826d7b84c90a66ff13&#45;&gt;dir_9c1a1c874c5316598fbf40a566ddc437</title>
<path fill="none" stroke="black" d="M643.28,-215.87C647.71,-191.67 655.85,-147.21 661.13,-118.39"/>
<polygon fill="black" stroke="black" points="664.64,-118.66 663,-108.19 657.75,-117.4 664.64,-118.66"/>
<g id="a_edge4&#45;headlabel"><a xlink:href="dir_000067_000071.html" target="_top" xlink:title="1">
<text text-anchor="middle" x="666.78" y="-120.2" font-family="Helvetica,sans-Serif" font-size="10.00">1</text>
</a>
</g>
</g>
<!-- dir_aff1144816ce620757629f51c7ba72f0&#45;&gt;dir_2e574b6382041dc2a136b1675bed65ad -->
<g id="edge5" class="edge">
<title>dir_aff1144816ce620757629f51c7ba72f0&#45;&gt;dir_2e574b6382041dc2a136b1675bed65ad</title>
<path fill="none" stroke="black" d="M389.3,-143.86C423.99,-124.11 484.13,-91.83 539.14,-72 603.86,-48.68 682.76,-32.89 728.15,-24.96"/>
<polygon fill="black" stroke="black" points="728.86,-28.39 738.12,-23.25 727.68,-21.49 728.86,-28.39"/>
<g id="a_edge5&#45;headlabel"><a xlink:href="dir_000065_000005.html" target="_top" xlink:title="2">
<text text-anchor="middle" x="725.8" y="-29.3" font-family="Helvetica,sans-Serif" font-size="10.00">2</text>
</a>
</g>
</g>
<!-- dir_aff1144816ce620757629f51c7ba72f0&#45;&gt;dir_4a120dbb11348b2823d2a12dcab2f1e3 -->
<g id="edge6" class="edge">
<title>dir_aff1144816ce620757629f51c7ba72f0&#45;&gt;dir_4a120dbb11348b2823d2a12dcab2f1e3</title>
<path fill="none" stroke="black" d="M366.78,-143.87C376.23,-119.46 393.68,-74.43 404.83,-45.64"/>
<polygon fill="black" stroke="black" points="408.14,-46.78 408.49,-36.19 401.61,-44.25 408.14,-46.78"/>
<g id="a_edge6&#45;headlabel"><a xlink:href="dir_000065_000002.html" target="_top" xlink:title="1">
<text text-anchor="middle" x="409.49" y="-48.66" font-family="Helvetica,sans-Serif" font-size="10.00">1</text>
</a>
</g>
</g>
<!-- dir_e3fcb5edb61a9e9076684f95f68c26ba&#45;&gt;dir_260d2cbf2ed6a6826d7b84c90a66ff13 -->
<g id="edge20" class="edge">
<title>dir_e3fcb5edb61a9e9076684f95f68c26ba&#45;&gt;dir_260d2cbf2ed6a6826d7b84c90a66ff13</title>
<path fill="none" stroke="black" d="M428.29,-295.78C468.49,-284.25 537.88,-264.34 586.25,-250.46"/>
<polygon fill="black" stroke="black" points="587.29,-253.81 595.93,-247.68 585.36,-247.08 587.29,-253.81"/>
<g id="a_edge20&#45;headlabel"><a xlink:href="dir_000052_000067.html" target="_top" xlink:title="1">
<text text-anchor="middle" x="584.61" y="-255.03" font-family="Helvetica,sans-Serif" font-size="10.00">1</text>
</a>
</g>
</g>
<!-- dir_e3fcb5edb61a9e9076684f95f68c26ba&#45;&gt;dir_aff1144816ce620757629f51c7ba72f0 -->
<g id="edge21" class="edge">
<title>dir_e3fcb5edb61a9e9076684f95f68c26ba&#45;&gt;dir_aff1144816ce620757629f51c7ba72f0</title>
<path fill="none" stroke="black" d="M379.25,-287.99C370.85,-278.31 361.56,-265.46 357.14,-252 350.6,-232.08 351.84,-208.29 354.44,-190.32"/>
<polygon fill="black" stroke="black" points="357.93,-190.66 356.13,-180.22 351.03,-189.51 357.93,-190.66"/>
<g id="a_edge21&#45;headlabel"><a xlink:href="dir_000052_000065.html" target="_top" xlink:title="1">
<text text-anchor="middle" x="360.14" y="-192.18" font-family="Helvetica,sans-Serif" font-size="10.00">1</text>
</a>
</g>
</g>
<!-- dir_e3fcb5edb61a9e9076684f95f68c26ba&#45;&gt;dir_189353a96b8434d24dafb7e206a5344c -->
<g id="edge22" class="edge">
<title>dir_e3fcb5edb61a9e9076684f95f68c26ba&#45;&gt;dir_189353a96b8434d24dafb7e206a5344c</title>
<path fill="none" stroke="black" d="M363.95,-292.51C338.06,-282.25 300.9,-267 269.14,-252 224.27,-230.8 174.15,-203.8 140.43,-185.13"/>
<polygon fill="black" stroke="black" points="141.81,-181.89 131.37,-180.09 138.41,-188.01 141.81,-181.89"/>
<g id="a_edge22&#45;headlabel"><a xlink:href="dir_000052_000048.html" target="_top" xlink:title="1">
<text text-anchor="middle" x="146.33" y="-178.66" font-family="Helvetica,sans-Serif" font-size="10.00">1</text>
</a>
</g>
</g>
<!-- dir_e3fcb5edb61a9e9076684f95f68c26ba&#45;&gt;dir_2e574b6382041dc2a136b1675bed65ad -->
<g id="edge23" class="edge">
<title>dir_e3fcb5edb61a9e9076684f95f68c26ba&#45;&gt;dir_2e574b6382041dc2a136b1675bed65ad</title>
<path fill="none" stroke="black" d="M428.47,-294.61C444.98,-289.62 465.48,-283.88 484.14,-280 575.9,-260.92 601.62,-272.18 693.14,-252 706.32,-249.09 917.14,-190.87 925.14,-180 953.61,-141.35 953.25,-110.91 925.14,-72 897.27,-33.4 840.2,-22.46 802.3,-19.61"/>
<polygon fill="black" stroke="black" points="802.35,-16.1 792.16,-19 801.93,-23.09 802.35,-16.1"/>
<g id="a_edge23&#45;headlabel"><a xlink:href="dir_000052_000005.html" target="_top" xlink:title="3">
<text text-anchor="middle" x="806.11" y="-10.98" font-family="Helvetica,sans-Serif" font-size="10.00">3</text>
</a>
</g>
</g>
<!-- dir_e3fcb5edb61a9e9076684f95f68c26ba&#45;&gt;dir_9a9e2b7a8f13e92341bd3030ad46e690 -->
<g id="edge24" class="edge">
<title>dir_e3fcb5edb61a9e9076684f95f68c26ba&#45;&gt;dir_9a9e2b7a8f13e92341bd3030ad46e690</title>
<path fill="none" stroke="black" d="M390.23,-287.7C389.43,-279.98 389.21,-270.71 389.55,-262.11"/>
<polygon fill="black" stroke="black" points="393.04,-262.32 390.25,-252.1 386.06,-261.84 393.04,-262.32"/>
<g id="a_edge24&#45;headlabel"><a xlink:href="dir_000052_000079.html" target="_top" xlink:title="1">
<text text-anchor="middle" x="395.62" y="-263.61" font-family="Helvetica,sans-Serif" font-size="10.00">1</text>
</a>
</g>
</g>
<!-- dir_e3fcb5edb61a9e9076684f95f68c26ba&#45;&gt;dir_4a120dbb11348b2823d2a12dcab2f1e3 -->
<g id="edge25" class="edge">
<title>dir_e3fcb5edb61a9e9076684f95f68c26ba&#45;&gt;dir_4a120dbb11348b2823d2a12dcab2f1e3</title>
<path fill="none" stroke="black" d="M364.05,-304.51C259.25,-301.6 -62.06,-281.49 11.14,-144 38.08,-93.4 65.01,-93.5 118.14,-72 206.82,-36.12 320.13,-24.46 377.79,-20.72"/>
<polygon fill="black" stroke="black" points="378.12,-24.21 387.9,-20.11 377.7,-17.22 378.12,-24.21"/>
<g id="a_edge25&#45;headlabel"><a xlink:href="dir_000052_000002.html" target="_top" xlink:title="1">
<text text-anchor="middle" x="374.71" y="-24.76" font-family="Helvetica,sans-Serif" font-size="10.00">1</text>
</a>
</g>
</g>
<!-- dir_e3fcb5edb61a9e9076684f95f68c26ba&#45;&gt;dir_d415c0d599231354676ceb56dc96abfc -->
<g id="edge26" class="edge">
<title>dir_e3fcb5edb61a9e9076684f95f68c26ba&#45;&gt;dir_d415c0d599231354676ceb56dc96abfc</title>
<path fill="none" stroke="black" d="M363.93,-299.39C280.4,-284.1 60.58,-238.87 21.14,-180 12.24,-166.71 12.04,-157.15 21.14,-144 42.64,-112.96 84.73,-100.07 117.36,-94.74"/>
<polygon fill="black" stroke="black" points="118.19,-98.15 127.58,-93.26 117.18,-91.23 118.19,-98.15"/>
<g id="a_edge26&#45;headlabel"><a xlink:href="dir_000052_000058.html" target="_top" xlink:title="1">
<text text-anchor="middle" x="115.03" y="-98.98" font-family="Helvetica,sans-Serif" font-size="10.00">1</text>
</a>
</g>
</g>
<!-- dir_e3fcb5edb61a9e9076684f95f68c26ba&#45;&gt;dir_ead2403153bcb9f28373d1149c7d4c27 -->
<g id="edge27" class="edge">
<title>dir_e3fcb5edb61a9e9076684f95f68c26ba&#45;&gt;dir_ead2403153bcb9f28373d1149c7d4c27</title>
<path fill="none" stroke="black" d="M372.02,-287.87C336.21,-262.44 268.9,-214.65 228.73,-186.14"/>
<polygon fill="black" stroke="black" points="230.53,-183.12 220.35,-180.19 226.48,-188.83 230.53,-183.12"/>
<g id="a_edge27&#45;headlabel"><a xlink:href="dir_000052_000050.html" target="_top" xlink:title="1">
<text text-anchor="middle" x="235.11" y="-180.39" font-family="Helvetica,sans-Serif" font-size="10.00">1</text>
</a>
</g>
</g>
<!-- dir_e3fcb5edb61a9e9076684f95f68c26ba&#45;&gt;dir_9c1a1c874c5316598fbf40a566ddc437 -->
<g id="edge28" class="edge">
<title>dir_e3fcb5edb61a9e9076684f95f68c26ba&#45;&gt;dir_9c1a1c874c5316598fbf40a566ddc437</title>
<path fill="none" stroke="black" d="M417.78,-287.85C465.87,-249.74 581.68,-157.95 636.46,-114.52"/>
<polygon fill="black" stroke="black" points="638.74,-117.19 644.4,-108.23 634.39,-111.7 638.74,-117.19"/>
<g id="a_edge28&#45;headlabel"><a xlink:href="dir_000052_000071.html" target="_top" xlink:title="1">
<text text-anchor="middle" x="637.69" y="-119.14" font-family="Helvetica,sans-Serif" font-size="10.00">1</text>
</a>
</g>
</g>
<!-- dir_551d1ed5bb1af47eeab160358667c755&#45;&gt;dir_2e574b6382041dc2a136b1675bed65ad -->
<g id="edge29" class="edge">
<title>dir_551d1ed5bb1af47eeab160358667c755&#45;&gt;dir_2e574b6382041dc2a136b1675bed65ad</title>
<path fill="none" stroke="black" d="M715.9,-143.63C724.53,-133.84 734.59,-121 741.14,-108 751.02,-88.41 757.2,-64.28 760.81,-46.08"/>
<polygon fill="black" stroke="black" points="764.27,-46.61 762.65,-36.14 757.39,-45.34 764.27,-46.61"/>
<g id="a_edge29&#45;headlabel"><a xlink:href="dir_000046_000005.html" target="_top" xlink:title="3">
<text text-anchor="middle" x="766.41" y="-48.16" font-family="Helvetica,sans-Serif" font-size="10.00">3</text>
</a>
</g>
</g>
<!-- dir_551d1ed5bb1af47eeab160358667c755&#45;&gt;dir_4a120dbb11348b2823d2a12dcab2f1e3 -->
<g id="edge30" class="edge">
<title>dir_551d1ed5bb1af47eeab160358667c755&#45;&gt;dir_4a120dbb11348b2823d2a12dcab2f1e3</title>
<path fill="none" stroke="black" d="M707.53,-143.78C715.77,-124.1 724.87,-92.02 708.14,-72 675.99,-33.51 524.25,-22.92 452.68,-20.05"/>
<polygon fill="black" stroke="black" points="452.44,-16.54 442.32,-19.66 452.18,-23.53 452.44,-16.54"/>
<g id="a_edge30&#45;headlabel"><a xlink:href="dir_000046_000002.html" target="_top" xlink:title="3">
<text text-anchor="middle" x="456.14" y="-11.33" font-family="Helvetica,sans-Serif" font-size="10.00">3</text>
</a>
</g>
</g>
<!-- dir_551d1ed5bb1af47eeab160358667c755&#45;&gt;dir_9c1a1c874c5316598fbf40a566ddc437 -->
<g id="edge31" class="edge">
<title>dir_551d1ed5bb1af47eeab160358667c755&#45;&gt;dir_9c1a1c874c5316598fbf40a566ddc437</title>
<path fill="none" stroke="black" d="M690.99,-143.7C687.23,-135.73 682.69,-126.1 678.53,-117.26"/>
<polygon fill="black" stroke="black" points="681.64,-115.66 674.21,-108.1 675.31,-118.64 681.64,-115.66"/>
<g id="a_edge31&#45;headlabel"><a xlink:href="dir_000046_000071.html" target="_top" xlink:title="1">
<text text-anchor="middle" x="685.74" y="-115.2" font-family="Helvetica,sans-Serif" font-size="10.00">1</text>
</a>
</g>
</g>
<!-- dir_189353a96b8434d24dafb7e206a5344c&#45;&gt;dir_2e574b6382041dc2a136b1675bed65ad -->
<g id="edge32" class="edge">
<title>dir_189353a96b8434d24dafb7e206a5344c&#45;&gt;dir_2e574b6382041dc2a136b1675bed65ad</title>
<path fill="none" stroke="black" d="M139.3,-146.99C142.28,-145.96 145.26,-144.95 148.14,-144 255.15,-108.83 281.08,-95.97 391.14,-72 512.79,-45.51 659.69,-29.16 727.5,-22.48"/>
<polygon fill="black" stroke="black" points="728.07,-25.94 737.68,-21.49 727.39,-18.98 728.07,-25.94"/>
<g id="a_edge32&#45;headlabel"><a xlink:href="dir_000048_000005.html" target="_top" xlink:title="1">
<text text-anchor="middle" x="724.76" y="-26.62" font-family="Helvetica,sans-Serif" font-size="10.00">1</text>
</a>
</g>
</g>
<!-- dir_189353a96b8434d24dafb7e206a5344c&#45;&gt;dir_4a120dbb11348b2823d2a12dcab2f1e3 -->
<g id="edge33" class="edge">
<title>dir_189353a96b8434d24dafb7e206a5344c&#45;&gt;dir_4a120dbb11348b2823d2a12dcab2f1e3</title>
<path fill="none" stroke="black" d="M139.37,-145.04C159.78,-135.67 184.82,-122.77 205.14,-108 223.45,-94.7 221.74,-83.64 241.14,-72 284.27,-46.12 341.09,-31.93 377.87,-24.9"/>
<polygon fill="black" stroke="black" points="378.93,-28.26 388.14,-23.02 377.67,-21.37 378.93,-28.26"/>
<g id="a_edge33&#45;headlabel"><a xlink:href="dir_000048_000002.html" target="_top" xlink:title="2">
<text text-anchor="middle" x="375.91" y="-29.2" font-family="Helvetica,sans-Serif" font-size="10.00">2</text>
</a>
</g>
</g>
<!-- dir_9a9e2b7a8f13e92341bd3030ad46e690&#45;&gt;dir_aff1144816ce620757629f51c7ba72f0 -->
<g id="edge34" class="edge">
<title>dir_9a9e2b7a8f13e92341bd3030ad46e690&#45;&gt;dir_aff1144816ce620757629f51c7ba72f0</title>
<path fill="none" stroke="black" d="M387.25,-215.7C383.15,-207.73 378.2,-198.1 373.65,-189.26"/>
<polygon fill="black" stroke="black" points="376.63,-187.4 368.94,-180.1 370.4,-190.6 376.63,-187.4"/>
<g id="a_edge34&#45;headlabel"><a xlink:href="dir_000079_000065.html" target="_top" xlink:title="3">
<text text-anchor="middle" x="380.8" y="-186.79" font-family="Helvetica,sans-Serif" font-size="10.00">3</text>
</a>
</g>
</g>
<!-- dir_9a9e2b7a8f13e92341bd3030ad46e690&#45;&gt;dir_e3fcb5edb61a9e9076684f95f68c26ba -->
<g id="edge35" class="edge">
<title>dir_9a9e2b7a8f13e92341bd3030ad46e690&#45;&gt;dir_e3fcb5edb61a9e9076684f95f68c26ba</title>
<path fill="none" stroke="black" d="M402.04,-252.1C402.84,-259.79 403.08,-269.05 402.75,-277.67"/>
<polygon fill="black" stroke="black" points="399.25,-277.48 402.06,-287.7 406.24,-277.96 399.25,-277.48"/>
<g id="a_edge35&#45;headlabel"><a xlink:href="dir_000079_000052.html" target="_top" xlink:title="1">
<text text-anchor="middle" x="396.67" y="-271.2" font-family="Helvetica,sans-Serif" font-size="10.00">1</text>
</a>
</g>
</g>
<!-- dir_9a9e2b7a8f13e92341bd3030ad46e690&#45;&gt;dir_551d1ed5bb1af47eeab160358667c755 -->
<g id="edge36" class="edge">
<title>dir_9a9e2b7a8f13e92341bd3030ad46e690&#45;&gt;dir_551d1ed5bb1af47eeab160358667c755</title>
<path fill="none" stroke="black" d="M425.75,-226.16C481.35,-213.32 601.26,-185.61 662.11,-171.56"/>
<polygon fill="black" stroke="black" points="663.1,-174.92 672.05,-169.26 661.52,-168.1 663.1,-174.92"/>
<g id="a_edge36&#45;headlabel"><a xlink:href="dir_000079_000046.html" target="_top" xlink:title="3">
<text text-anchor="middle" x="660.24" y="-176" font-family="Helvetica,sans-Serif" font-size="10.00">3</text>
</a>
</g>
</g>
<!-- dir_9a9e2b7a8f13e92341bd3030ad46e690&#45;&gt;dir_189353a96b8434d24dafb7e206a5344c -->
<g id="edge37" class="edge">
<title>dir_9a9e2b7a8f13e92341bd3030ad46e690&#45;&gt;dir_189353a96b8434d24dafb7e206a5344c</title>
<path fill="none" stroke="black" d="M366.43,-228.01C321.3,-220.13 232.71,-203.53 148.89,-180.01"/>
<polygon fill="black" stroke="black" points="149.8,-176.63 139.22,-177.26 147.88,-183.37 149.8,-176.63"/>
<g id="a_edge37&#45;headlabel"><a xlink:href="dir_000079_000048.html" target="_top" xlink:title="1">
<text text-anchor="middle" x="154.03" y="-172.39" font-family="Helvetica,sans-Serif" font-size="10.00">1</text>
</a>
</g>
</g>
<!-- dir_9a9e2b7a8f13e92341bd3030ad46e690&#45;&gt;dir_2e574b6382041dc2a136b1675bed65ad -->
<g id="edge38" class="edge">
<title>dir_9a9e2b7a8f13e92341bd3030ad46e690&#45;&gt;dir_2e574b6382041dc2a136b1675bed65ad</title>
<path fill="none" stroke="black" d="M425.92,-230.2C528.55,-220.48 861.69,-188.33 869.14,-180 908.74,-135.72 842.56,-74.92 798.86,-42.16"/>
<polygon fill="black" stroke="black" points="800.85,-39.28 790.72,-36.19 796.71,-44.93 800.85,-39.28"/>
<g id="a_edge38&#45;headlabel"><a xlink:href="dir_000079_000005.html" target="_top" xlink:title="5">
<text text-anchor="middle" x="805.43" y="-36.62" font-family="Helvetica,sans-Serif" font-size="10.00">5</text>
</a>
</g>
</g>
<!-- dir_9a9e2b7a8f13e92341bd3030ad46e690&#45;&gt;dir_4a120dbb11348b2823d2a12dcab2f1e3 -->
<g id="edge39" class="edge">
<title>dir_9a9e2b7a8f13e92341bd3030ad46e690&#45;&gt;dir_4a120dbb11348b2823d2a12dcab2f1e3</title>
<path fill="none" stroke="black" d="M366.45,-220.79C349.57,-212.12 329.89,-198.68 320.14,-180 312.74,-165.81 315.04,-159.16 320.14,-144 333.65,-103.91 365.7,-66.49 388.84,-43.23"/>
<polygon fill="black" stroke="black" points="391.32,-45.7 396.01,-36.19 386.42,-40.7 391.32,-45.7"/>
<g id="a_edge39&#45;headlabel"><a xlink:href="dir_000079_000002.html" target="_top" xlink:title="16">
<text text-anchor="middle" x="390.75" y="-47.74" font-family="Helvetica,sans-Serif" font-size="10.00">16</text>
</a>
</g>
</g>
<!-- dir_9a9e2b7a8f13e92341bd3030ad46e690&#45;&gt;dir_750ba15ba58b6b3310460b01ffa6b161 -->
<g id="edge40" class="edge">
<title>dir_9a9e2b7a8f13e92341bd3030ad46e690&#45;&gt;dir_750ba15ba58b6b3310460b01ffa6b161</title>
<path fill="none" stroke="black" d="M425.68,-228.79C484.64,-220.29 621.05,-200.19 735.14,-180 747.09,-177.89 759.93,-175.44 771.95,-173.08"/>
<polygon fill="black" stroke="black" points="772.69,-176.5 781.82,-171.12 771.33,-169.63 772.69,-176.5"/>
<g id="a_edge40&#45;headlabel"><a xlink:href="dir_000079_000062.html" target="_top" xlink:title="2">
<text text-anchor="middle" x="769.72" y="-177.48" font-family="Helvetica,sans-Serif" font-size="10.00">2</text>
</a>
</g>
</g>
<!-- dir_9a9e2b7a8f13e92341bd3030ad46e690&#45;&gt;dir_d415c0d599231354676ceb56dc96abfc -->
<g id="edge41" class="edge">
<title>dir_9a9e2b7a8f13e92341bd3030ad46e690&#45;&gt;dir_d415c0d599231354676ceb56dc96abfc</title>
<path fill="none" stroke="black" d="M366.47,-220.82C343.97,-211.06 312.67,-196.33 287.14,-180 265.86,-166.38 263.52,-158.94 243.14,-144 228.89,-133.55 212.68,-122.74 198.52,-113.63"/>
<polygon fill="black" stroke="black" points="200.32,-110.63 190.01,-108.2 196.55,-116.53 200.32,-110.63"/>
<g id="a_edge41&#45;headlabel"><a xlink:href="dir_000079_000058.html" target="_top" xlink:title="2">
<text text-anchor="middle" x="204.88" y="-107.67" font-family="Helvetica,sans-Serif" font-size="10.00">2</text>
</a>
</g>
</g>
<!-- dir_9a9e2b7a8f13e92341bd3030ad46e690&#45;&gt;dir_1f7fd5c054f752becab847a993818f59 -->
<g id="edge42" class="edge">
<title>dir_9a9e2b7a8f13e92341bd3030ad46e690&#45;&gt;dir_1f7fd5c054f752becab847a993818f59</title>
<path fill="none" stroke="black" d="M406.03,-215.7C410.63,-207.64 416.2,-197.89 421.3,-188.98"/>
<polygon fill="black" stroke="black" points="424.45,-190.52 426.37,-180.1 418.37,-187.05 424.45,-190.52"/>
<g id="a_edge42&#45;headlabel"><a xlink:href="dir_000079_000045.html" target="_top" xlink:title="2">
<text text-anchor="middle" x="425.13" y="-192.55" font-family="Helvetica,sans-Serif" font-size="10.00">2</text>
</a>
</g>
</g>
<!-- dir_9a9e2b7a8f13e92341bd3030ad46e690&#45;&gt;dir_ead2403153bcb9f28373d1149c7d4c27 -->
<g id="edge43" class="edge">
<title>dir_9a9e2b7a8f13e92341bd3030ad46e690&#45;&gt;dir_ead2403153bcb9f28373d1149c7d4c27</title>
<path fill="none" stroke="black" d="M366.38,-221.31C361.63,-219.5 356.76,-217.68 352.14,-216 316.24,-202.97 275.34,-189.11 244.43,-178.83"/>
<polygon fill="black" stroke="black" points="245.36,-175.45 234.76,-175.63 243.15,-182.1 245.36,-175.45"/>
<g id="a_edge43&#45;headlabel"><a xlink:href="dir_000079_000050.html" target="_top" xlink:title="1">
<text text-anchor="middle" x="249.66" y="-171.39" font-family="Helvetica,sans-Serif" font-size="10.00">1</text>
</a>
</g>
</g>
<!-- dir_9a9e2b7a8f13e92341bd3030ad46e690&#45;&gt;dir_9c1a1c874c5316598fbf40a566ddc437 -->
<g id="edge44" class="edge">
<title>dir_9a9e2b7a8f13e92341bd3030ad46e690&#45;&gt;dir_9c1a1c874c5316598fbf40a566ddc437</title>
<path fill="none" stroke="black" d="M421.83,-215.81C436.72,-205.67 455.72,-192.42 472.14,-180 492.3,-164.76 494.13,-156.39 516.14,-144 550.35,-124.75 592.81,-110.54 623.81,-101.7"/>
<polygon fill="black" stroke="black" points="624.75,-105.07 633.45,-99.02 622.88,-98.33 624.75,-105.07"/>
<g id="a_edge44&#45;headlabel"><a xlink:href="dir_000079_000071.html" target="_top" xlink:title="4">
<text text-anchor="middle" x="622.05" y="-106.27" font-family="Helvetica,sans-Serif" font-size="10.00">4</text>
</a>
</g>
</g>
<!-- dir_750ba15ba58b6b3310460b01ffa6b161&#45;&gt;dir_2e574b6382041dc2a136b1675bed65ad -->
<g id="edge45" class="edge">
<title>dir_750ba15ba58b6b3310460b01ffa6b161&#45;&gt;dir_2e574b6382041dc2a136b1675bed65ad</title>
<path fill="none" stroke="black" d="M823.89,-143.79C826.06,-125.24 827.26,-95.26 817.14,-72 812.41,-61.12 804.36,-51.21 795.99,-42.99"/>
<polygon fill="black" stroke="black" points="798.35,-40.4 788.62,-36.21 793.61,-45.55 798.35,-40.4"/>
<g id="a_edge45&#45;headlabel"><a xlink:href="dir_000062_000005.html" target="_top" xlink:title="1">
<text text-anchor="middle" x="802.92" y="-38.25" font-family="Helvetica,sans-Serif" font-size="10.00">1</text>
</a>
</g>
</g>
<!-- dir_750ba15ba58b6b3310460b01ffa6b161&#45;&gt;dir_4a120dbb11348b2823d2a12dcab2f1e3 -->
<g id="edge46" class="edge">
<title>dir_750ba15ba58b6b3310460b01ffa6b161&#45;&gt;dir_4a120dbb11348b2823d2a12dcab2f1e3</title>
<path fill="none" stroke="black" d="M808.13,-143.76C791.52,-123.12 760.76,-89.18 726.14,-72 635.44,-26.97 513.52,-19.34 452.8,-18.57"/>
<polygon fill="black" stroke="black" points="452.57,-15.07 442.54,-18.5 452.52,-22.07 452.57,-15.07"/>
<g id="a_edge46&#45;headlabel"><a xlink:href="dir_000062_000002.html" target="_top" xlink:title="1">
<text text-anchor="middle" x="456.18" y="-9.76" font-family="Helvetica,sans-Serif" font-size="10.00">1</text>
</a>
</g>
</g>
<!-- dir_d415c0d599231354676ceb56dc96abfc&#45;&gt;dir_4a120dbb11348b2823d2a12dcab2f1e3 -->
<g id="edge47" class="edge">
<title>dir_d415c0d599231354676ceb56dc96abfc&#45;&gt;dir_4a120dbb11348b2823d2a12dcab2f1e3</title>
<path fill="none" stroke="black" d="M196.83,-76.58C201.62,-74.98 206.49,-73.41 211.14,-72 268.94,-54.5 336.99,-37.54 378.06,-27.69"/>
<polygon fill="black" stroke="black" points="378.98,-31.07 387.89,-25.35 377.35,-24.26 378.98,-31.07"/>
<g id="a_edge47&#45;headlabel"><a xlink:href="dir_000058_000002.html" target="_top" xlink:title="2">
<text text-anchor="middle" x="376.14" y="-32.17" font-family="Helvetica,sans-Serif" font-size="10.00">2</text>
</a>
</g>
</g>
<!-- dir_1f7fd5c054f752becab847a993818f59&#45;&gt;dir_2e574b6382041dc2a136b1675bed65ad -->
<g id="edge48" class="edge">
<title>dir_1f7fd5c054f752becab847a993818f59&#45;&gt;dir_2e574b6382041dc2a136b1675bed65ad</title>
<path fill="none" stroke="black" d="M463.67,-146.25C465.18,-145.48 466.68,-144.72 468.14,-144 536.96,-109.98 554.32,-101.61 625.14,-72 659.89,-57.47 700.16,-42.41 728.57,-32.07"/>
<polygon fill="black" stroke="black" points="729.88,-35.32 738.09,-28.62 727.5,-28.74 729.88,-35.32"/>
<g id="a_edge48&#45;headlabel"><a xlink:href="dir_000045_000005.html" target="_top" xlink:title="4">
<text text-anchor="middle" x="727.47" y="-36.71" font-family="Helvetica,sans-Serif" font-size="10.00">4</text>
</a>
</g>
</g>
<!-- dir_1f7fd5c054f752becab847a993818f59&#45;&gt;dir_4a120dbb11348b2823d2a12dcab2f1e3 -->
<g id="edge49" class="edge">
<title>dir_1f7fd5c054f752becab847a993818f59&#45;&gt;dir_4a120dbb11348b2823d2a12dcab2f1e3</title>
<path fill="none" stroke="black" d="M433.61,-143.87C430.03,-119.67 423.46,-75.21 419.2,-46.39"/>
<polygon fill="black" stroke="black" points="422.61,-45.57 417.69,-36.19 415.69,-46.59 422.61,-45.57"/>
<g id="a_edge49&#45;headlabel"><a xlink:href="dir_000045_000002.html" target="_top" xlink:title="3">
<text text-anchor="middle" x="425.95" y="-46.21" font-family="Helvetica,sans-Serif" font-size="10.00">3</text>
</a>
</g>
</g>
<!-- dir_1f7fd5c054f752becab847a993818f59&#45;&gt;dir_d415c0d599231354676ceb56dc96abfc -->
<g id="edge50" class="edge">
<title>dir_1f7fd5c054f752becab847a993818f59&#45;&gt;dir_d415c0d599231354676ceb56dc96abfc</title>
<path fill="none" stroke="black" d="M408.52,-147.55C405.39,-146.25 402.23,-145.04 399.14,-144 333.82,-121.97 255.27,-106.46 207.02,-98.13"/>
<polygon fill="black" stroke="black" points="207.36,-94.63 196.91,-96.41 206.18,-101.54 207.36,-94.63"/>
<g id="a_edge50&#45;headlabel"><a xlink:href="dir_000045_000058.html" target="_top" xlink:title="1">
<text text-anchor="middle" x="211.38" y="-89.94" font-family="Helvetica,sans-Serif" font-size="10.00">1</text>
</a>
</g>
</g>
<!-- dir_1f7fd5c054f752becab847a993818f59&#45;&gt;dir_9c1a1c874c5316598fbf40a566ddc437 -->
<g id="edge51" class="edge">
<title>dir_1f7fd5c054f752becab847a993818f59&#45;&gt;dir_9c1a1c874c5316598fbf40a566ddc437</title>
<path fill="none" stroke="black" d="M464,-149.23C468.69,-147.39 473.53,-145.58 478.14,-144 527.48,-127.12 585.37,-111.4 623.74,-101.53"/>
<polygon fill="black" stroke="black" points="624.72,-104.89 633.54,-99.03 622.99,-98.11 624.72,-104.89"/>
<g id="a_edge51&#45;headlabel"><a xlink:href="dir_000045_000071.html" target="_top" xlink:title="1">
<text text-anchor="middle" x="621.94" y="-106.03" font-family="Helvetica,sans-Serif" font-size="10.00">1</text>
</a>
</g>
</g>
<!-- dir_ead2403153bcb9f28373d1149c7d4c27&#45;&gt;dir_2e574b6382041dc2a136b1675bed65ad -->
<g id="edge52" class="edge">
<title>dir_ead2403153bcb9f28373d1149c7d4c27&#45;&gt;dir_2e574b6382041dc2a136b1675bed65ad</title>
<path fill="none" stroke="black" d="M234.81,-153.45C274.83,-144.95 338.72,-129.48 391.14,-108 421.34,-95.63 424.39,-82.91 455.14,-72 549.81,-38.42 668.49,-25.73 727.8,-21.25"/>
<polygon fill="black" stroke="black" points="728.1,-24.74 737.82,-20.53 727.6,-17.76 728.1,-24.74"/>
<g id="a_edge52&#45;headlabel"><a xlink:href="dir_000050_000005.html" target="_top" xlink:title="3">
<text text-anchor="middle" x="724.72" y="-25.33" font-family="Helvetica,sans-Serif" font-size="10.00">3</text>
</a>
</g>
</g>
<!-- dir_ead2403153bcb9f28373d1149c7d4c27&#45;&gt;dir_4a120dbb11348b2823d2a12dcab2f1e3 -->
<g id="edge53" class="edge">
<title>dir_ead2403153bcb9f28373d1149c7d4c27&#45;&gt;dir_4a120dbb11348b2823d2a12dcab2f1e3</title>
<path fill="none" stroke="black" d="M210.03,-143.93C226.65,-124.39 256.16,-92.45 287.14,-72 315.53,-53.26 351.62,-39.05 378.24,-30.08"/>
<polygon fill="black" stroke="black" points="379.53,-33.35 387.94,-26.91 377.35,-26.69 379.53,-33.35"/>
<g id="a_edge53&#45;headlabel"><a xlink:href="dir_000050_000002.html" target="_top" xlink:title="1">
<text text-anchor="middle" x="376.99" y="-34.66" font-family="Helvetica,sans-Serif" font-size="10.00">1</text>
</a>
</g>
</g>
<!-- dir_9c1a1c874c5316598fbf40a566ddc437&#45;&gt;dir_2e574b6382041dc2a136b1675bed65ad -->
<g id="edge54" class="edge">
<title>dir_9c1a1c874c5316598fbf40a566ddc437&#45;&gt;dir_2e574b6382041dc2a136b1675bed65ad</title>
<path fill="none" stroke="black" d="M690.36,-71.88C703.07,-62.89 718.81,-51.76 732.57,-42.03"/>
<polygon fill="black" stroke="black" points="734.69,-44.82 740.83,-36.19 730.65,-39.11 734.69,-44.82"/>
<g id="a_edge54&#45;headlabel"><a xlink:href="dir_000071_000005.html" target="_top" xlink:title="1">
<text text-anchor="middle" x="733.39" y="-46.71" font-family="Helvetica,sans-Serif" font-size="10.00">1</text>
</a>
</g>
</g>
<!-- dir_9c1a1c874c5316598fbf40a566ddc437&#45;&gt;dir_4a120dbb11348b2823d2a12dcab2f1e3 -->
<g id="edge55" class="edge">
<title>dir_9c1a1c874c5316598fbf40a566ddc437&#45;&gt;dir_4a120dbb11348b2823d2a12dcab2f1e3</title>
<path fill="none" stroke="black" d="M633.41,-76.72C628.65,-75.06 623.79,-73.44 619.14,-72 561.47,-54.12 493.39,-37.27 452.28,-27.55"/>
<polygon fill="black" stroke="black" points="452.96,-24.12 442.43,-25.24 451.36,-30.93 452.96,-24.12"/>
<g id="a_edge55&#45;headlabel"><a xlink:href="dir_000071_000002.html" target="_top" xlink:title="1">
<text text-anchor="middle" x="457.11" y="-19.67" font-family="Helvetica,sans-Serif" font-size="10.00">1</text>
</a>
</g>
</g>
</g>
</svg>
