<?xml version="1.0" encoding="UTF-8" standalone="no"?>
<!DOCTYPE svg PUBLIC "-//W3C//DTD SVG 1.1//EN"
 "http://www.w3.org/Graphics/SVG/1.1/DTD/svg11.dtd">
<!-- Generated by graphviz version 2.43.0 (0)
 -->
<!-- Title: Libs/RayLib/sources/Vector2 Pages: 1 -->
<svg width="106pt" height="223pt"
 viewBox="0.00 0.00 106.00 223.00" xmlns="http://www.w3.org/2000/svg" xmlns:xlink="http://www.w3.org/1999/xlink">
<g id="graph0" class="graph" transform="scale(1 1) rotate(0) translate(4 219)">
<title>Libs/RayLib/sources/Vector2</title>
<polygon fill="white" stroke="transparent" points="-4,4 -4,-219 102,-219 102,4 -4,4"/>
<g id="clust1" class="cluster">
<title>clusterdir_b58f5cbef52144281201f92199ca772f</title>
<g id="a_clust1"><a xlink:href="dir_b58f5cbef52144281201f92199ca772f.html" target="_top" xlink:title="sources">
<polygon fill="#ddddee" stroke="black" points="9,-136 9,-207 79,-207 79,-136 9,-136"/>
<text text-anchor="middle" x="44" y="-195" font-family="Helvetica,sans-Serif" font-size="10.00">sources</text>
</a>
</g>
</g>
<!-- dir_e5ddc3b8247be52796b2c5c9f83f8e6d -->
<g id="node1" class="node">
<title>dir_e5ddc3b8247be52796b2c5c9f83f8e6d</title>
<g id="a_node1"><a xlink:href="dir_e5ddc3b8247be52796b2c5c9f83f8e6d.html" target="_top" xlink:title="Vector2">
<polygon fill="#eeeeff" stroke="black" points="71,-180 17,-180 17,-144 71,-144 71,-180"/>
<text text-anchor="middle" x="44" y="-159.5" font-family="Helvetica,sans-Serif" font-size="10.00">Vector2</text>
</a>
</g>
</g>
<!-- dir_39e02a65a8e8da5bae3d3dbe68a49458 -->
<g id="node2" class="node">
<title>dir_39e02a65a8e8da5bae3d3dbe68a49458</title>
<g id="a_node2"><a xlink:href="dir_39e02a65a8e8da5bae3d3dbe68a49458.html" target="_top" xlink:title="XMLGenerator">
<polygon fill="white" stroke="red" points="86,-36 0,-36 0,0 86,0 86,-36"/>
<text text-anchor="middle" x="43" y="-15.5" font-family="Helvetica,sans-Serif" font-size="10.00">XMLGenerator</text>
</a>
</g>
</g>
<!-- dir_e5ddc3b8247be52796b2c5c9f83f8e6d&#45;&gt;dir_39e02a65a8e8da5bae3d3dbe68a49458 -->
<g id="edge2" class="edge">
<title>dir_e5ddc3b8247be52796b2c5c9f83f8e6d&#45;&gt;dir_39e02a65a8e8da5bae3d3dbe68a49458</title>
<path fill="none" stroke="black" d="M40.35,-143.91C38.32,-133.57 36.02,-120.09 35,-108 33.66,-92.06 33.8,-87.96 35,-72 35.64,-63.52 36.84,-54.34 38.12,-46.04"/>
<polygon fill="black" stroke="black" points="41.58,-46.55 39.75,-36.11 34.68,-45.41 41.58,-46.55"/>
<g id="a_edge2&#45;headlabel"><a xlink:href="dir_000118_000007.html" target="_top" xlink:title="1">
<text text-anchor="middle" x="43.8" y="-48.05" font-family="Helvetica,sans-Serif" font-size="10.00">1</text>
</a>
</g>
</g>
<!-- dir_42ef1f57a2f22e94d8ccc109a0fc3cde -->
<g id="node3" class="node">
<title>dir_42ef1f57a2f22e94d8ccc109a0fc3cde</title>
<g id="a_node3"><a xlink:href="dir_42ef1f57a2f22e94d8ccc109a0fc3cde.html" target="_top" xlink:title="Vector3">
<polygon fill="none" stroke="black" points="98,-108 44,-108 44,-72 98,-72 98,-108"/>
<text text-anchor="middle" x="71" y="-87.5" font-family="Helvetica,sans-Serif" font-size="10.00">Vector3</text>
</a>
</g>
</g>
<!-- dir_e5ddc3b8247be52796b2c5c9f83f8e6d&#45;&gt;dir_42ef1f57a2f22e94d8ccc109a0fc3cde -->
<g id="edge3" class="edge">
<title>dir_e5ddc3b8247be52796b2c5c9f83f8e6d&#45;&gt;dir_42ef1f57a2f22e94d8ccc109a0fc3cde</title>
<path fill="none" stroke="black" d="M50.67,-143.7C53.71,-135.81 57.38,-126.3 60.76,-117.55"/>
<polygon fill="black" stroke="black" points="64.07,-118.69 64.4,-108.1 57.54,-116.17 64.07,-118.69"/>
<g id="a_edge3&#45;headlabel"><a xlink:href="dir_000118_000119.html" target="_top" xlink:title="1">
<text text-anchor="middle" x="65.42" y="-120.57" font-family="Helvetica,sans-Serif" font-size="10.00">1</text>
</a>
</g>
</g>
<!-- dir_42ef1f57a2f22e94d8ccc109a0fc3cde&#45;&gt;dir_39e02a65a8e8da5bae3d3dbe68a49458 -->
<g id="edge1" class="edge">
<title>dir_42ef1f57a2f22e94d8ccc109a0fc3cde&#45;&gt;dir_39e02a65a8e8da5bae3d3dbe68a49458</title>
<path fill="none" stroke="black" d="M64.08,-71.7C60.93,-63.81 57.12,-54.3 53.62,-45.55"/>
<polygon fill="black" stroke="black" points="56.81,-44.09 49.84,-36.1 50.31,-46.69 56.81,-44.09"/>
<g id="a_edge1&#45;headlabel"><a xlink:href="dir_000119_000007.html" target="_top" xlink:title="1">
<text text-anchor="middle" x="60.78" y="-43.87" font-family="Helvetica,sans-Serif" font-size="10.00">1</text>
</a>
</g>
</g>
</g>
</svg>
