<?xml version="1.0" encoding="UTF-8" standalone="no"?>
<!DOCTYPE svg PUBLIC "-//W3C//DTD SVG 1.1//EN"
 "http://www.w3.org/Graphics/SVG/1.1/DTD/svg11.dtd">
<!-- Generated by graphviz version 2.43.0 (0)
 -->
<!-- Title: Libs/ECS/sources/Managers/ComponentManager Pages: 1 -->
<svg width="156pt" height="151pt"
 viewBox="0.00 0.00 156.00 151.00" xmlns="http://www.w3.org/2000/svg" xmlns:xlink="http://www.w3.org/1999/xlink">
<g id="graph0" class="graph" transform="scale(1 1) rotate(0) translate(4 147)">
<title>Libs/ECS/sources/Managers/ComponentManager</title>
<polygon fill="white" stroke="transparent" points="-4,4 -4,-147 152,-147 152,4 -4,4"/>
<g id="clust1" class="cluster">
<title>clusterdir_aed85c5ce4b6a9c7e4c648d53dc0ffb7</title>
<g id="a_clust1"><a xlink:href="dir_aed85c5ce4b6a9c7e4c648d53dc0ffb7.html" target="_top" xlink:title="Managers">
<polygon fill="#ddddee" stroke="black" points="8,-64 8,-135 140,-135 140,-64 8,-64"/>
<text text-anchor="middle" x="74" y="-123" font-family="Helvetica,sans-Serif" font-size="10.00">Managers</text>
</a>
</g>
</g>
<!-- dir_e5442a488d06819299a27d9ce9fd8252 -->
<g id="node1" class="node">
<title>dir_e5442a488d06819299a27d9ce9fd8252</title>
<g id="a_node1"><a xlink:href="dir_e5442a488d06819299a27d9ce9fd8252.html" target="_top" xlink:title="ComponentManager">
<polygon fill="#eeeeff" stroke="black" points="132,-108 16,-108 16,-72 132,-72 132,-108"/>
<text text-anchor="middle" x="74" y="-87.5" font-family="Helvetica,sans-Serif" font-size="10.00">ComponentManager</text>
</a>
</g>
</g>
<!-- dir_a5273e4af1888c46cbc238269a07fb92 -->
<g id="node2" class="node">
<title>dir_a5273e4af1888c46cbc238269a07fb92</title>
<g id="a_node2"><a xlink:href="dir_a5273e4af1888c46cbc238269a07fb92.html" target="_top" xlink:title="Components">
<polygon fill="none" stroke="black" points="113,-36 35,-36 35,0 113,0 113,-36"/>
<text text-anchor="middle" x="74" y="-15.5" font-family="Helvetica,sans-Serif" font-size="10.00">Components</text>
</a>
</g>
</g>
<!-- dir_e5442a488d06819299a27d9ce9fd8252&#45;&gt;dir_a5273e4af1888c46cbc238269a07fb92 -->
<g id="edge1" class="edge">
<title>dir_e5442a488d06819299a27d9ce9fd8252&#45;&gt;dir_a5273e4af1888c46cbc238269a07fb92</title>
<path fill="none" stroke="black" d="M74,-71.7C74,-63.98 74,-54.71 74,-46.11"/>
<polygon fill="black" stroke="black" points="77.5,-46.1 74,-36.1 70.5,-46.1 77.5,-46.1"/>
<g id="a_edge1&#45;headlabel"><a xlink:href="dir_000027_000020.html" target="_top" xlink:title="1">
<text text-anchor="middle" x="80.34" y="-47.2" font-family="Helvetica,sans-Serif" font-size="10.00">1</text>
</a>
</g>
</g>
</g>
</svg>
