<?xml version="1.0" encoding="UTF-8" standalone="no"?>
<!DOCTYPE svg PUBLIC "-//W3C//DTD SVG 1.1//EN"
 "http://www.w3.org/Graphics/SVG/1.1/DTD/svg11.dtd">
<!-- Generated by graphviz version 2.43.0 (0)
 -->
<!-- Title: Libs/Engine/sources/Components/APickUp Pages: 1 -->
<svg width="392pt" height="367pt"
 viewBox="0.00 0.00 392.15 367.00" xmlns="http://www.w3.org/2000/svg" xmlns:xlink="http://www.w3.org/1999/xlink">
<g id="graph0" class="graph" transform="scale(1 1) rotate(0) translate(4 363)">
<title>Libs/Engine/sources/Components/APickUp</title>
<polygon fill="white" stroke="transparent" points="-4,4 -4,-363 388.15,-363 388.15,4 -4,4"/>
<g id="clust1" class="cluster">
<title>clusterdir_e1b125331ccfd7597fbda9d04ae41b2d</title>
<g id="a_clust1"><a xlink:href="dir_e1b125331ccfd7597fbda9d04ae41b2d.html" target="_top" xlink:title="Components">
<polygon fill="#ddddee" stroke="black" points="161.52,-280 161.52,-351 239.52,-351 239.52,-280 161.52,-280"/>
<text text-anchor="middle" x="200.52" y="-339" font-family="Helvetica,sans-Serif" font-size="10.00">Components</text>
</a>
</g>
</g>
<!-- dir_738912799028094ce36fed405e8b3a50 -->
<g id="node1" class="node">
<title>dir_738912799028094ce36fed405e8b3a50</title>
<g id="a_node1"><a xlink:href="dir_738912799028094ce36fed405e8b3a50.html" target="_top" xlink:title="APickUp">
<polygon fill="#eeeeff" stroke="black" points="229.02,-324 172.02,-324 172.02,-288 229.02,-288 229.02,-324"/>
<text text-anchor="middle" x="200.52" y="-303.5" font-family="Helvetica,sans-Serif" font-size="10.00">APickUp</text>
</a>
</g>
</g>
<!-- dir_236e02cd02223a2412f137d7ad85069e -->
<g id="node2" class="node">
<title>dir_236e02cd02223a2412f137d7ad85069e</title>
<g id="a_node2"><a xlink:href="dir_236e02cd02223a2412f137d7ad85069e.html" target="_top" xlink:title="GameConfiguration">
<polygon fill="none" stroke="black" points="128.02,-180 17.02,-180 17.02,-144 128.02,-144 128.02,-180"/>
<text text-anchor="middle" x="72.52" y="-159.5" font-family="Helvetica,sans-Serif" font-size="10.00">GameConfiguration</text>
</a>
</g>
</g>
<!-- dir_738912799028094ce36fed405e8b3a50&#45;&gt;dir_236e02cd02223a2412f137d7ad85069e -->
<g id="edge10" class="edge">
<title>dir_738912799028094ce36fed405e8b3a50&#45;&gt;dir_236e02cd02223a2412f137d7ad85069e</title>
<path fill="none" stroke="black" d="M185.08,-287.87C162.59,-262.92 120.7,-216.45 94.85,-187.77"/>
<polygon fill="black" stroke="black" points="97.31,-185.27 88.01,-180.19 92.11,-189.96 97.31,-185.27"/>
<g id="a_edge10&#45;headlabel"><a xlink:href="dir_000041_000074.html" target="_top" xlink:title="1">
<text text-anchor="middle" x="101.82" y="-183.54" font-family="Helvetica,sans-Serif" font-size="10.00">1</text>
</a>
</g>
</g>
<!-- dir_551d1ed5bb1af47eeab160358667c755 -->
<g id="node3" class="node">
<title>dir_551d1ed5bb1af47eeab160358667c755</title>
<g id="a_node3"><a xlink:href="dir_551d1ed5bb1af47eeab160358667c755.html" target="_top" xlink:title="Collider">
<polygon fill="none" stroke="black" points="200.52,-180 146.52,-180 146.52,-144 200.52,-144 200.52,-180"/>
<text text-anchor="middle" x="173.52" y="-159.5" font-family="Helvetica,sans-Serif" font-size="10.00">Collider</text>
</a>
</g>
</g>
<!-- dir_738912799028094ce36fed405e8b3a50&#45;&gt;dir_551d1ed5bb1af47eeab160358667c755 -->
<g id="edge11" class="edge">
<title>dir_738912799028094ce36fed405e8b3a50&#45;&gt;dir_551d1ed5bb1af47eeab160358667c755</title>
<path fill="none" stroke="black" d="M197.26,-287.87C192.66,-263.67 184.21,-219.21 178.73,-190.39"/>
<polygon fill="black" stroke="black" points="182.09,-189.36 176.79,-180.19 175.22,-190.67 182.09,-189.36"/>
<g id="a_edge11&#45;headlabel"><a xlink:href="dir_000041_000046.html" target="_top" xlink:title="1">
<text text-anchor="middle" x="185.55" y="-189.86" font-family="Helvetica,sans-Serif" font-size="10.00">1</text>
</a>
</g>
</g>
<!-- dir_2e574b6382041dc2a136b1675bed65ad -->
<g id="node4" class="node">
<title>dir_2e574b6382041dc2a136b1675bed65ad</title>
<g id="a_node4"><a xlink:href="dir_2e574b6382041dc2a136b1675bed65ad.html" target="_top" xlink:title="RayLib">
<polygon fill="white" stroke="red" points="171.52,-36 117.52,-36 117.52,0 171.52,0 171.52,-36"/>
<text text-anchor="middle" x="144.52" y="-15.5" font-family="Helvetica,sans-Serif" font-size="10.00">RayLib</text>
</a>
</g>
</g>
<!-- dir_738912799028094ce36fed405e8b3a50&#45;&gt;dir_2e574b6382041dc2a136b1675bed65ad -->
<g id="edge12" class="edge">
<title>dir_738912799028094ce36fed405e8b3a50&#45;&gt;dir_2e574b6382041dc2a136b1675bed65ad</title>
<path fill="none" stroke="black" d="M171.96,-296.36C127.33,-281.12 42.55,-244.79 7.52,-180 -24.11,-121.49 57.69,-65.14 108.18,-37.21"/>
<polygon fill="black" stroke="black" points="110.08,-40.16 117.21,-32.33 106.75,-34.01 110.08,-40.16"/>
<g id="a_edge12&#45;headlabel"><a xlink:href="dir_000041_000005.html" target="_top" xlink:title="1">
<text text-anchor="middle" x="108.26" y="-41.87" font-family="Helvetica,sans-Serif" font-size="10.00">1</text>
</a>
</g>
</g>
<!-- dir_9a9e2b7a8f13e92341bd3030ad46e690 -->
<g id="node5" class="node">
<title>dir_9a9e2b7a8f13e92341bd3030ad46e690</title>
<g id="a_node5"><a xlink:href="dir_9a9e2b7a8f13e92341bd3030ad46e690.html" target="_top" xlink:title="Systems">
<polygon fill="white" stroke="red" points="259.02,-252 200.02,-252 200.02,-216 259.02,-216 259.02,-252"/>
<text text-anchor="middle" x="229.52" y="-231.5" font-family="Helvetica,sans-Serif" font-size="10.00">Systems</text>
</a>
</g>
</g>
<!-- dir_738912799028094ce36fed405e8b3a50&#45;&gt;dir_9a9e2b7a8f13e92341bd3030ad46e690 -->
<g id="edge13" class="edge">
<title>dir_738912799028094ce36fed405e8b3a50&#45;&gt;dir_9a9e2b7a8f13e92341bd3030ad46e690</title>
<path fill="none" stroke="black" d="M207.69,-287.7C210.95,-279.81 214.89,-270.3 218.52,-261.55"/>
<polygon fill="black" stroke="black" points="221.84,-262.68 222.43,-252.1 215.37,-260 221.84,-262.68"/>
<g id="a_edge13&#45;headlabel"><a xlink:href="dir_000041_000079.html" target="_top" xlink:title="1">
<text text-anchor="middle" x="223.09" y="-264.59" font-family="Helvetica,sans-Serif" font-size="10.00">1</text>
</a>
</g>
</g>
<!-- dir_d415c0d599231354676ceb56dc96abfc -->
<g id="node6" class="node">
<title>dir_d415c0d599231354676ceb56dc96abfc</title>
<g id="a_node6"><a xlink:href="dir_d415c0d599231354676ceb56dc96abfc.html" target="_top" xlink:title="IBehaviour">
<polygon fill="none" stroke="black" points="364.02,-180 295.02,-180 295.02,-144 364.02,-144 364.02,-180"/>
<text text-anchor="middle" x="329.52" y="-159.5" font-family="Helvetica,sans-Serif" font-size="10.00">IBehaviour</text>
</a>
</g>
</g>
<!-- dir_738912799028094ce36fed405e8b3a50&#45;&gt;dir_d415c0d599231354676ceb56dc96abfc -->
<g id="edge14" class="edge">
<title>dir_738912799028094ce36fed405e8b3a50&#45;&gt;dir_d415c0d599231354676ceb56dc96abfc</title>
<path fill="none" stroke="black" d="M225.54,-287.94C238.8,-278.25 254.92,-265.39 267.52,-252 285.82,-232.55 302.87,-207.34 314.44,-188.72"/>
<polygon fill="black" stroke="black" points="317.44,-190.52 319.66,-180.16 311.46,-186.88 317.44,-190.52"/>
<g id="a_edge14&#45;headlabel"><a xlink:href="dir_000041_000058.html" target="_top" xlink:title="1">
<text text-anchor="middle" x="317.99" y="-192.57" font-family="Helvetica,sans-Serif" font-size="10.00">1</text>
</a>
</g>
</g>
<!-- dir_9c1a1c874c5316598fbf40a566ddc437 -->
<g id="node7" class="node">
<title>dir_9c1a1c874c5316598fbf40a566ddc437</title>
<g id="a_node7"><a xlink:href="dir_9c1a1c874c5316598fbf40a566ddc437.html" target="_top" xlink:title="Transform">
<polygon fill="none" stroke="black" points="238.02,-108 173.02,-108 173.02,-72 238.02,-72 238.02,-108"/>
<text text-anchor="middle" x="205.52" y="-87.5" font-family="Helvetica,sans-Serif" font-size="10.00">Transform</text>
</a>
</g>
</g>
<!-- dir_738912799028094ce36fed405e8b3a50&#45;&gt;dir_9c1a1c874c5316598fbf40a566ddc437 -->
<g id="edge15" class="edge">
<title>dir_738912799028094ce36fed405e8b3a50&#45;&gt;dir_9c1a1c874c5316598fbf40a566ddc437</title>
<path fill="none" stroke="black" d="M229.15,-294.58C289.82,-270.91 421.91,-210.01 373.52,-144 345.05,-105.17 288.06,-94.05 248.4,-91.25"/>
<polygon fill="black" stroke="black" points="248.39,-87.75 238.21,-90.68 248,-94.73 248.39,-87.75"/>
<g id="a_edge15&#45;headlabel"><a xlink:href="dir_000041_000071.html" target="_top" xlink:title="1">
<text text-anchor="middle" x="252.14" y="-82.61" font-family="Helvetica,sans-Serif" font-size="10.00">1</text>
</a>
</g>
</g>
<!-- dir_236e02cd02223a2412f137d7ad85069e&#45;&gt;dir_2e574b6382041dc2a136b1675bed65ad -->
<g id="edge1" class="edge">
<title>dir_236e02cd02223a2412f137d7ad85069e&#45;&gt;dir_2e574b6382041dc2a136b1675bed65ad</title>
<path fill="none" stroke="black" d="M81.2,-143.87C93.64,-119.35 116.62,-74.03 131.2,-45.26"/>
<polygon fill="black" stroke="black" points="134.4,-46.69 135.8,-36.19 128.16,-43.53 134.4,-46.69"/>
<g id="a_edge1&#45;headlabel"><a xlink:href="dir_000074_000005.html" target="_top" xlink:title="2">
<text text-anchor="middle" x="135.31" y="-48.68" font-family="Helvetica,sans-Serif" font-size="10.00">2</text>
</a>
</g>
</g>
<!-- dir_551d1ed5bb1af47eeab160358667c755&#45;&gt;dir_2e574b6382041dc2a136b1675bed65ad -->
<g id="edge2" class="edge">
<title>dir_551d1ed5bb1af47eeab160358667c755&#45;&gt;dir_2e574b6382041dc2a136b1675bed65ad</title>
<path fill="none" stroke="black" d="M170.02,-143.87C165.06,-119.56 155.92,-74.82 150.04,-46.01"/>
<polygon fill="black" stroke="black" points="153.46,-45.29 148.03,-36.19 146.6,-46.69 153.46,-45.29"/>
<g id="a_edge2&#45;headlabel"><a xlink:href="dir_000046_000005.html" target="_top" xlink:title="3">
<text text-anchor="middle" x="156.96" y="-45.74" font-family="Helvetica,sans-Serif" font-size="10.00">3</text>
</a>
</g>
</g>
<!-- dir_551d1ed5bb1af47eeab160358667c755&#45;&gt;dir_9c1a1c874c5316598fbf40a566ddc437 -->
<g id="edge3" class="edge">
<title>dir_551d1ed5bb1af47eeab160358667c755&#45;&gt;dir_9c1a1c874c5316598fbf40a566ddc437</title>
<path fill="none" stroke="black" d="M181.43,-143.7C185.07,-135.73 189.47,-126.1 193.51,-117.26"/>
<polygon fill="black" stroke="black" points="196.73,-118.65 197.7,-108.1 190.36,-115.74 196.73,-118.65"/>
<g id="a_edge3&#45;headlabel"><a xlink:href="dir_000046_000071.html" target="_top" xlink:title="1">
<text text-anchor="middle" x="197.81" y="-120.6" font-family="Helvetica,sans-Serif" font-size="10.00">1</text>
</a>
</g>
</g>
<!-- dir_9a9e2b7a8f13e92341bd3030ad46e690&#45;&gt;dir_236e02cd02223a2412f137d7ad85069e -->
<g id="edge4" class="edge">
<title>dir_9a9e2b7a8f13e92341bd3030ad46e690&#45;&gt;dir_236e02cd02223a2412f137d7ad85069e</title>
<path fill="none" stroke="black" d="M199.99,-219.83C177.52,-209.82 146.14,-195.83 120.14,-184.23"/>
<polygon fill="black" stroke="black" points="121.39,-180.96 110.83,-180.08 118.54,-187.35 121.39,-180.96"/>
<g id="a_edge4&#45;headlabel"><a xlink:href="dir_000079_000074.html" target="_top" xlink:title="3">
<text text-anchor="middle" x="125.83" y="-177.33" font-family="Helvetica,sans-Serif" font-size="10.00">3</text>
</a>
</g>
</g>
<!-- dir_9a9e2b7a8f13e92341bd3030ad46e690&#45;&gt;dir_551d1ed5bb1af47eeab160358667c755 -->
<g id="edge5" class="edge">
<title>dir_9a9e2b7a8f13e92341bd3030ad46e690&#45;&gt;dir_551d1ed5bb1af47eeab160358667c755</title>
<path fill="none" stroke="black" d="M215.68,-215.7C209.03,-207.39 200.94,-197.28 193.63,-188.14"/>
<polygon fill="black" stroke="black" points="196.18,-185.73 187.2,-180.1 190.72,-190.1 196.18,-185.73"/>
<g id="a_edge5&#45;headlabel"><a xlink:href="dir_000079_000046.html" target="_top" xlink:title="3">
<text text-anchor="middle" x="200.64" y="-184.26" font-family="Helvetica,sans-Serif" font-size="10.00">3</text>
</a>
</g>
</g>
<!-- dir_9a9e2b7a8f13e92341bd3030ad46e690&#45;&gt;dir_2e574b6382041dc2a136b1675bed65ad -->
<g id="edge6" class="edge">
<title>dir_9a9e2b7a8f13e92341bd3030ad46e690&#45;&gt;dir_2e574b6382041dc2a136b1675bed65ad</title>
<path fill="none" stroke="black" d="M237.85,-215.52C251.45,-184.22 274.24,-117.64 246.52,-72 232.44,-48.82 204.57,-35.32 181.51,-27.75"/>
<polygon fill="black" stroke="black" points="182.24,-24.31 171.65,-24.76 180.21,-31.01 182.24,-24.31"/>
<g id="a_edge6&#45;headlabel"><a xlink:href="dir_000079_000005.html" target="_top" xlink:title="5">
<text text-anchor="middle" x="186.5" y="-20.13" font-family="Helvetica,sans-Serif" font-size="10.00">5</text>
</a>
</g>
</g>
<!-- dir_9a9e2b7a8f13e92341bd3030ad46e690&#45;&gt;dir_d415c0d599231354676ceb56dc96abfc -->
<g id="edge7" class="edge">
<title>dir_9a9e2b7a8f13e92341bd3030ad46e690&#45;&gt;dir_d415c0d599231354676ceb56dc96abfc</title>
<path fill="none" stroke="black" d="M253.98,-215.88C266.81,-206.89 282.72,-195.76 296.61,-186.03"/>
<polygon fill="black" stroke="black" points="298.78,-188.79 304.96,-180.19 294.76,-183.06 298.78,-188.79"/>
<g id="a_edge7&#45;headlabel"><a xlink:href="dir_000079_000058.html" target="_top" xlink:title="2">
<text text-anchor="middle" x="297.46" y="-190.68" font-family="Helvetica,sans-Serif" font-size="10.00">2</text>
</a>
</g>
</g>
<!-- dir_9a9e2b7a8f13e92341bd3030ad46e690&#45;&gt;dir_9c1a1c874c5316598fbf40a566ddc437 -->
<g id="edge8" class="edge">
<title>dir_9a9e2b7a8f13e92341bd3030ad46e690&#45;&gt;dir_9c1a1c874c5316598fbf40a566ddc437</title>
<path fill="none" stroke="black" d="M226.62,-215.87C222.53,-191.67 215.02,-147.21 210.15,-118.39"/>
<polygon fill="black" stroke="black" points="213.54,-117.47 208.42,-108.19 206.64,-118.63 213.54,-117.47"/>
<g id="a_edge8&#45;headlabel"><a xlink:href="dir_000079_000071.html" target="_top" xlink:title="4">
<text text-anchor="middle" x="216.94" y="-118.04" font-family="Helvetica,sans-Serif" font-size="10.00">4</text>
</a>
</g>
</g>
<!-- dir_9c1a1c874c5316598fbf40a566ddc437&#45;&gt;dir_2e574b6382041dc2a136b1675bed65ad -->
<g id="edge9" class="edge">
<title>dir_9c1a1c874c5316598fbf40a566ddc437&#45;&gt;dir_2e574b6382041dc2a136b1675bed65ad</title>
<path fill="none" stroke="black" d="M190.44,-71.7C183.13,-63.3 174.21,-53.07 166.18,-43.86"/>
<polygon fill="black" stroke="black" points="168.63,-41.34 159.42,-36.1 163.35,-45.94 168.63,-41.34"/>
<g id="a_edge9&#45;headlabel"><a xlink:href="dir_000071_000005.html" target="_top" xlink:title="1">
<text text-anchor="middle" x="173.13" y="-39.69" font-family="Helvetica,sans-Serif" font-size="10.00">1</text>
</a>
</g>
</g>
</g>
</svg>
