<?xml version="1.0" encoding="UTF-8" standalone="no"?>
<!DOCTYPE svg PUBLIC "-//W3C//DTD SVG 1.1//EN"
 "http://www.w3.org/Graphics/SVG/1.1/DTD/svg11.dtd">
<!-- Generated by graphviz version 2.43.0 (0)
 -->
<!-- Title: Libs/Engine/sources/Components/TextBox Pages: 1 -->
<svg width="277pt" height="223pt"
 viewBox="0.00 0.00 276.64 223.00" xmlns="http://www.w3.org/2000/svg" xmlns:xlink="http://www.w3.org/1999/xlink">
<g id="graph0" class="graph" transform="scale(1 1) rotate(0) translate(4 219)">
<title>Libs/Engine/sources/Components/TextBox</title>
<polygon fill="white" stroke="transparent" points="-4,4 -4,-219 272.64,-219 272.64,4 -4,4"/>
<g id="clust1" class="cluster">
<title>clusterdir_e1b125331ccfd7597fbda9d04ae41b2d</title>
<g id="a_clust1"><a xlink:href="dir_e1b125331ccfd7597fbda9d04ae41b2d.html" target="_top" xlink:title="Components">
<polygon fill="#ddddee" stroke="black" points="66.64,-136 66.64,-207 144.64,-207 144.64,-136 66.64,-136"/>
<text text-anchor="middle" x="105.64" y="-195" font-family="Helvetica,sans-Serif" font-size="10.00">Components</text>
</a>
</g>
</g>
<!-- dir_1e86b01c0afa4a5857f4b6245b9c39f7 -->
<g id="node1" class="node">
<title>dir_1e86b01c0afa4a5857f4b6245b9c39f7</title>
<g id="a_node1"><a xlink:href="dir_1e86b01c0afa4a5857f4b6245b9c39f7.html" target="_top" xlink:title="TextBox">
<polygon fill="#eeeeff" stroke="black" points="133.64,-180 77.64,-180 77.64,-144 133.64,-144 133.64,-180"/>
<text text-anchor="middle" x="105.64" y="-159.5" font-family="Helvetica,sans-Serif" font-size="10.00">TextBox</text>
</a>
</g>
</g>
<!-- dir_2e574b6382041dc2a136b1675bed65ad -->
<g id="node2" class="node">
<title>dir_2e574b6382041dc2a136b1675bed65ad</title>
<g id="a_node2"><a xlink:href="dir_2e574b6382041dc2a136b1675bed65ad.html" target="_top" xlink:title="RayLib">
<polygon fill="white" stroke="red" points="84.64,-36 30.64,-36 30.64,0 84.64,0 84.64,-36"/>
<text text-anchor="middle" x="57.64" y="-15.5" font-family="Helvetica,sans-Serif" font-size="10.00">RayLib</text>
</a>
</g>
</g>
<!-- dir_1e86b01c0afa4a5857f4b6245b9c39f7&#45;&gt;dir_2e574b6382041dc2a136b1675bed65ad -->
<g id="edge2" class="edge">
<title>dir_1e86b01c0afa4a5857f4b6245b9c39f7&#45;&gt;dir_2e574b6382041dc2a136b1675bed65ad</title>
<path fill="none" stroke="black" d="M77.63,-154.67C53.83,-147.66 21.14,-133.76 5.64,-108 -2.61,-94.29 -0.41,-86.81 5.64,-72 10.13,-61.02 18.11,-51.08 26.49,-42.86"/>
<polygon fill="black" stroke="black" points="28.87,-45.42 33.89,-36.09 24.15,-40.26 28.87,-45.42"/>
<g id="a_edge2&#45;headlabel"><a xlink:href="dir_000068_000005.html" target="_top" xlink:title="2">
<text text-anchor="middle" x="28.14" y="-47.45" font-family="Helvetica,sans-Serif" font-size="10.00">2</text>
</a>
</g>
</g>
<!-- dir_ba9f96492b222561776079c293f18c0c -->
<g id="node3" class="node">
<title>dir_ba9f96492b222561776079c293f18c0c</title>
<g id="a_node3"><a xlink:href="dir_ba9f96492b222561776079c293f18c0c.html" target="_top" xlink:title="AssetManager">
<polygon fill="white" stroke="red" points="100.64,-108 14.64,-108 14.64,-72 100.64,-72 100.64,-108"/>
<text text-anchor="middle" x="57.64" y="-87.5" font-family="Helvetica,sans-Serif" font-size="10.00">AssetManager</text>
</a>
</g>
</g>
<!-- dir_1e86b01c0afa4a5857f4b6245b9c39f7&#45;&gt;dir_ba9f96492b222561776079c293f18c0c -->
<g id="edge3" class="edge">
<title>dir_1e86b01c0afa4a5857f4b6245b9c39f7&#45;&gt;dir_ba9f96492b222561776079c293f18c0c</title>
<path fill="none" stroke="black" d="M93.77,-143.7C88.13,-135.47 81.28,-125.48 75.07,-116.42"/>
<polygon fill="black" stroke="black" points="77.91,-114.37 69.37,-108.1 72.14,-118.33 77.91,-114.37"/>
<g id="a_edge3&#45;headlabel"><a xlink:href="dir_000068_000035.html" target="_top" xlink:title="1">
<text text-anchor="middle" x="82.28" y="-113.23" font-family="Helvetica,sans-Serif" font-size="10.00">1</text>
</a>
</g>
</g>
<!-- dir_d415c0d599231354676ceb56dc96abfc -->
<g id="node4" class="node">
<title>dir_d415c0d599231354676ceb56dc96abfc</title>
<g id="a_node4"><a xlink:href="dir_d415c0d599231354676ceb56dc96abfc.html" target="_top" xlink:title="IBehaviour">
<polygon fill="none" stroke="black" points="188.14,-108 119.14,-108 119.14,-72 188.14,-72 188.14,-108"/>
<text text-anchor="middle" x="153.64" y="-87.5" font-family="Helvetica,sans-Serif" font-size="10.00">IBehaviour</text>
</a>
</g>
</g>
<!-- dir_1e86b01c0afa4a5857f4b6245b9c39f7&#45;&gt;dir_d415c0d599231354676ceb56dc96abfc -->
<g id="edge4" class="edge">
<title>dir_1e86b01c0afa4a5857f4b6245b9c39f7&#45;&gt;dir_d415c0d599231354676ceb56dc96abfc</title>
<path fill="none" stroke="black" d="M117.5,-143.7C123.14,-135.47 129.99,-125.48 136.21,-116.42"/>
<polygon fill="black" stroke="black" points="139.14,-118.33 141.91,-108.1 133.37,-114.37 139.14,-118.33"/>
<g id="a_edge4&#45;headlabel"><a xlink:href="dir_000068_000058.html" target="_top" xlink:title="1">
<text text-anchor="middle" x="139.45" y="-120.4" font-family="Helvetica,sans-Serif" font-size="10.00">1</text>
</a>
</g>
</g>
<!-- dir_b1f0031d9eb4af2fcbb46f1518cd5f09 -->
<g id="node5" class="node">
<title>dir_b1f0031d9eb4af2fcbb46f1518cd5f09</title>
<g id="a_node5"><a xlink:href="dir_b1f0031d9eb4af2fcbb46f1518cd5f09.html" target="_top" xlink:title="IUIObject">
<polygon fill="none" stroke="black" points="268.64,-108 206.64,-108 206.64,-72 268.64,-72 268.64,-108"/>
<text text-anchor="middle" x="237.64" y="-87.5" font-family="Helvetica,sans-Serif" font-size="10.00">IUIObject</text>
</a>
</g>
</g>
<!-- dir_1e86b01c0afa4a5857f4b6245b9c39f7&#45;&gt;dir_b1f0031d9eb4af2fcbb46f1518cd5f09 -->
<g id="edge5" class="edge">
<title>dir_1e86b01c0afa4a5857f4b6245b9c39f7&#45;&gt;dir_b1f0031d9eb4af2fcbb46f1518cd5f09</title>
<path fill="none" stroke="black" d="M133.96,-145.98C152.56,-136.11 177.18,-123.06 197.76,-112.15"/>
<polygon fill="black" stroke="black" points="199.41,-115.24 206.6,-107.46 196.13,-109.05 199.41,-115.24"/>
<g id="a_edge5&#45;headlabel"><a xlink:href="dir_000068_000059.html" target="_top" xlink:title="1">
<text text-anchor="middle" x="197.56" y="-116.93" font-family="Helvetica,sans-Serif" font-size="10.00">1</text>
</a>
</g>
</g>
<!-- dir_ba9f96492b222561776079c293f18c0c&#45;&gt;dir_2e574b6382041dc2a136b1675bed65ad -->
<g id="edge1" class="edge">
<title>dir_ba9f96492b222561776079c293f18c0c&#45;&gt;dir_2e574b6382041dc2a136b1675bed65ad</title>
<path fill="none" stroke="black" d="M57.64,-71.7C57.64,-63.98 57.64,-54.71 57.64,-46.11"/>
<polygon fill="black" stroke="black" points="61.14,-46.1 57.64,-36.1 54.14,-46.1 61.14,-46.1"/>
<g id="a_edge1&#45;headlabel"><a xlink:href="dir_000035_000005.html" target="_top" xlink:title="1">
<text text-anchor="middle" x="63.98" y="-47.2" font-family="Helvetica,sans-Serif" font-size="10.00">1</text>
</a>
</g>
</g>
<!-- dir_b1f0031d9eb4af2fcbb46f1518cd5f09&#45;&gt;dir_2e574b6382041dc2a136b1675bed65ad -->
<g id="edge6" class="edge">
<title>dir_b1f0031d9eb4af2fcbb46f1518cd5f09&#45;&gt;dir_2e574b6382041dc2a136b1675bed65ad</title>
<path fill="none" stroke="black" d="M206.24,-75.52C203.34,-74.31 200.44,-73.12 197.64,-72 162.8,-58.01 122.69,-42.93 94.36,-32.45"/>
<polygon fill="black" stroke="black" points="95.46,-29.12 84.86,-28.94 93.03,-35.69 95.46,-29.12"/>
<g id="a_edge6&#45;headlabel"><a xlink:href="dir_000059_000005.html" target="_top" xlink:title="2">
<text text-anchor="middle" x="99.81" y="-25.2" font-family="Helvetica,sans-Serif" font-size="10.00">2</text>
</a>
</g>
</g>
</g>
</svg>
