<?xml version="1.0" encoding="UTF-8" standalone="no"?>
<!DOCTYPE svg PUBLIC "-//W3C//DTD SVG 1.1//EN"
 "http://www.w3.org/Graphics/SVG/1.1/DTD/svg11.dtd">
<!-- Generated by graphviz version 2.43.0 (0)
 -->
<!-- Title: Libs/Engine/sources/Components/Animator Pages: 1 -->
<svg width="186pt" height="223pt"
 viewBox="0.00 0.00 186.00 223.00" xmlns="http://www.w3.org/2000/svg" xmlns:xlink="http://www.w3.org/1999/xlink">
<g id="graph0" class="graph" transform="scale(1 1) rotate(0) translate(4 219)">
<title>Libs/Engine/sources/Components/Animator</title>
<polygon fill="white" stroke="transparent" points="-4,4 -4,-219 182,-219 182,4 -4,4"/>
<g id="clust1" class="cluster">
<title>clusterdir_e1b125331ccfd7597fbda9d04ae41b2d</title>
<g id="a_clust1"><a xlink:href="dir_e1b125331ccfd7597fbda9d04ae41b2d.html" target="_top" xlink:title="Components">
<polygon fill="#ddddee" stroke="black" points="24,-136 24,-207 102,-207 102,-136 24,-136"/>
<text text-anchor="middle" x="63" y="-195" font-family="Helvetica,sans-Serif" font-size="10.00">Components</text>
</a>
</g>
</g>
<!-- dir_a596cbb2d469ff7139a5bd1a3c9de76d -->
<g id="node1" class="node">
<title>dir_a596cbb2d469ff7139a5bd1a3c9de76d</title>
<g id="a_node1"><a xlink:href="dir_a596cbb2d469ff7139a5bd1a3c9de76d.html" target="_top" xlink:title="Animator">
<polygon fill="#eeeeff" stroke="black" points="94,-180 32,-180 32,-144 94,-144 94,-180"/>
<text text-anchor="middle" x="63" y="-159.5" font-family="Helvetica,sans-Serif" font-size="10.00">Animator</text>
</a>
</g>
</g>
<!-- dir_2e574b6382041dc2a136b1675bed65ad -->
<g id="node2" class="node">
<title>dir_2e574b6382041dc2a136b1675bed65ad</title>
<g id="a_node2"><a xlink:href="dir_2e574b6382041dc2a136b1675bed65ad.html" target="_top" xlink:title="RayLib">
<polygon fill="white" stroke="red" points="54,-36 0,-36 0,0 54,0 54,-36"/>
<text text-anchor="middle" x="27" y="-15.5" font-family="Helvetica,sans-Serif" font-size="10.00">RayLib</text>
</a>
</g>
</g>
<!-- dir_a596cbb2d469ff7139a5bd1a3c9de76d&#45;&gt;dir_2e574b6382041dc2a136b1675bed65ad -->
<g id="edge1" class="edge">
<title>dir_a596cbb2d469ff7139a5bd1a3c9de76d&#45;&gt;dir_2e574b6382041dc2a136b1675bed65ad</title>
<path fill="none" stroke="black" d="M39.25,-143.91C28.45,-134.65 16.8,-122.2 11,-108 2.83,-88.01 8.06,-63.81 14.64,-45.7"/>
<polygon fill="black" stroke="black" points="17.93,-46.91 18.37,-36.32 11.42,-44.33 17.93,-46.91"/>
<g id="a_edge1&#45;headlabel"><a xlink:href="dir_000040_000005.html" target="_top" xlink:title="1">
<text text-anchor="middle" x="19.24" y="-48.8" font-family="Helvetica,sans-Serif" font-size="10.00">1</text>
</a>
</g>
</g>
<!-- dir_ba9f96492b222561776079c293f18c0c -->
<g id="node3" class="node">
<title>dir_ba9f96492b222561776079c293f18c0c</title>
<g id="a_node3"><a xlink:href="dir_ba9f96492b222561776079c293f18c0c.html" target="_top" xlink:title="AssetManager">
<polygon fill="white" stroke="red" points="106,-108 20,-108 20,-72 106,-72 106,-108"/>
<text text-anchor="middle" x="63" y="-87.5" font-family="Helvetica,sans-Serif" font-size="10.00">AssetManager</text>
</a>
</g>
</g>
<!-- dir_a596cbb2d469ff7139a5bd1a3c9de76d&#45;&gt;dir_ba9f96492b222561776079c293f18c0c -->
<g id="edge2" class="edge">
<title>dir_a596cbb2d469ff7139a5bd1a3c9de76d&#45;&gt;dir_ba9f96492b222561776079c293f18c0c</title>
<path fill="none" stroke="black" d="M63,-143.7C63,-135.98 63,-126.71 63,-118.11"/>
<polygon fill="black" stroke="black" points="66.5,-118.1 63,-108.1 59.5,-118.1 66.5,-118.1"/>
<g id="a_edge2&#45;headlabel"><a xlink:href="dir_000040_000035.html" target="_top" xlink:title="1">
<text text-anchor="middle" x="69.34" y="-119.2" font-family="Helvetica,sans-Serif" font-size="10.00">1</text>
</a>
</g>
</g>
<!-- dir_4a120dbb11348b2823d2a12dcab2f1e3 -->
<g id="node4" class="node">
<title>dir_4a120dbb11348b2823d2a12dcab2f1e3</title>
<g id="a_node4"><a xlink:href="dir_4a120dbb11348b2823d2a12dcab2f1e3.html" target="_top" xlink:title="ECS">
<polygon fill="white" stroke="red" points="178,-108 124,-108 124,-72 178,-72 178,-108"/>
<text text-anchor="middle" x="151" y="-87.5" font-family="Helvetica,sans-Serif" font-size="10.00">ECS</text>
</a>
</g>
</g>
<!-- dir_a596cbb2d469ff7139a5bd1a3c9de76d&#45;&gt;dir_4a120dbb11348b2823d2a12dcab2f1e3 -->
<g id="edge3" class="edge">
<title>dir_a596cbb2d469ff7139a5bd1a3c9de76d&#45;&gt;dir_4a120dbb11348b2823d2a12dcab2f1e3</title>
<path fill="none" stroke="black" d="M84.75,-143.7C95.84,-134.88 109.47,-124.03 121.49,-114.47"/>
<polygon fill="black" stroke="black" points="123.85,-117.07 129.5,-108.1 119.49,-111.59 123.85,-117.07"/>
<g id="a_edge3&#45;headlabel"><a xlink:href="dir_000040_000002.html" target="_top" xlink:title="2">
<text text-anchor="middle" x="122.8" y="-119.03" font-family="Helvetica,sans-Serif" font-size="10.00">2</text>
</a>
</g>
</g>
<!-- dir_ba9f96492b222561776079c293f18c0c&#45;&gt;dir_2e574b6382041dc2a136b1675bed65ad -->
<g id="edge4" class="edge">
<title>dir_ba9f96492b222561776079c293f18c0c&#45;&gt;dir_2e574b6382041dc2a136b1675bed65ad</title>
<path fill="none" stroke="black" d="M54.1,-71.7C50,-63.73 45.05,-54.1 40.51,-45.26"/>
<polygon fill="black" stroke="black" points="43.48,-43.4 35.8,-36.1 37.26,-46.6 43.48,-43.4"/>
<g id="a_edge4&#45;headlabel"><a xlink:href="dir_000035_000005.html" target="_top" xlink:title="1">
<text text-anchor="middle" x="47.65" y="-42.79" font-family="Helvetica,sans-Serif" font-size="10.00">1</text>
</a>
</g>
</g>
</g>
</svg>
