<?xml version="1.0" encoding="UTF-8" standalone="no"?>
<!DOCTYPE svg PUBLIC "-//W3C//DTD SVG 1.1//EN"
 "http://www.w3.org/Graphics/SVG/1.1/DTD/svg11.dtd">
<!-- Generated by graphviz version 2.43.0 (0)
 -->
<!-- Title: Libs/Engine/sources/XML Pages: 1 -->
<svg width="284pt" height="249pt"
 viewBox="0.00 0.00 284.00 249.13" xmlns="http://www.w3.org/2000/svg" xmlns:xlink="http://www.w3.org/1999/xlink">
<g id="graph0" class="graph" transform="scale(1 1) rotate(0) translate(4 245.13)">
<title>Libs/Engine/sources/XML</title>
<polygon fill="white" stroke="transparent" points="-4,4 -4,-245.13 280,-245.13 280,4 -4,4"/>
<g id="clust1" class="cluster">
<title>clusterdir_12f21af94f7aa2f818b030247191ed7e</title>
<g id="a_clust1"><a xlink:href="dir_12f21af94f7aa2f818b030247191ed7e.html" target="_top" xlink:title="sources">
<polygon fill="#ddddee" stroke="black" points="8,-128 8,-215 190,-215 190,-128 8,-128"/>
<text text-anchor="middle" x="99" y="-203" font-family="Helvetica,sans-Serif" font-size="10.00">sources</text>
</a>
</g>
</g>
<g id="clust2" class="cluster">
<title>clusterdir_436eae144b4bfe579e7df150ba9f667a</title>
<g id="a_clust2"><a xlink:href="dir_436eae144b4bfe579e7df150ba9f667a.html" target="_top">
<polygon fill="#eeeeff" stroke="black" points="16,-136 16,-188 182,-188 182,-136 16,-136"/>
</a>
</g>
</g>
<!-- dir_436eae144b4bfe579e7df150ba9f667a -->
<g id="node1" class="node">
<title>dir_436eae144b4bfe579e7df150ba9f667a</title>
<text text-anchor="middle" x="147" y="-159.5" font-family="Helvetica,sans-Serif" font-size="10.00">XML</text>
</g>
<!-- dir_c6265dd06d6b11d774262e684c606115 -->
<g id="node2" class="node">
<title>dir_c6265dd06d6b11d774262e684c606115</title>
<g id="a_node2"><a xlink:href="dir_c6265dd06d6b11d774262e684c606115.html" target="_top" xlink:title="EntityLoader">
<polygon fill="white" stroke="black" points="102,-180 24,-180 24,-144 102,-144 102,-180"/>
<text text-anchor="middle" x="63" y="-159.5" font-family="Helvetica,sans-Serif" font-size="10.00">EntityLoader</text>
</a>
</g>
</g>
<!-- dir_39e02a65a8e8da5bae3d3dbe68a49458 -->
<g id="node3" class="node">
<title>dir_39e02a65a8e8da5bae3d3dbe68a49458</title>
<g id="a_node3"><a xlink:href="dir_39e02a65a8e8da5bae3d3dbe68a49458.html" target="_top" xlink:title="XMLGenerator">
<polygon fill="white" stroke="red" points="177,-36 91,-36 91,0 177,0 177,-36"/>
<text text-anchor="middle" x="134" y="-15.5" font-family="Helvetica,sans-Serif" font-size="10.00">XMLGenerator</text>
</a>
</g>
</g>
<!-- dir_c6265dd06d6b11d774262e684c606115&#45;&gt;dir_39e02a65a8e8da5bae3d3dbe68a49458 -->
<g id="edge5" class="edge">
<title>dir_c6265dd06d6b11d774262e684c606115&#45;&gt;dir_39e02a65a8e8da5bae3d3dbe68a49458</title>
<path fill="none" stroke="black" d="M63.82,-143.96C65.33,-125.3 69.66,-94.96 82,-72 87.71,-61.37 96.2,-51.43 104.66,-43.1"/>
<polygon fill="black" stroke="black" points="107.12,-45.6 112.03,-36.21 102.33,-40.48 107.12,-45.6"/>
<g id="a_edge5&#45;headlabel"><a xlink:href="dir_000088_000007.html" target="_top" xlink:title="1">
<text text-anchor="middle" x="106.43" y="-47.62" font-family="Helvetica,sans-Serif" font-size="10.00">1</text>
</a>
</g>
</g>
<!-- dir_e1b125331ccfd7597fbda9d04ae41b2d -->
<g id="node4" class="node">
<title>dir_e1b125331ccfd7597fbda9d04ae41b2d</title>
<g id="a_node4"><a xlink:href="dir_e1b125331ccfd7597fbda9d04ae41b2d.html" target="_top" xlink:title="Components">
<polygon fill="white" stroke="red" points="276,-180 198,-180 198,-144 276,-144 276,-180"/>
<text text-anchor="middle" x="237" y="-159.5" font-family="Helvetica,sans-Serif" font-size="10.00">Components</text>
</a>
</g>
</g>
<!-- dir_c6265dd06d6b11d774262e684c606115&#45;&gt;dir_e1b125331ccfd7597fbda9d04ae41b2d -->
<g id="edge6" class="edge">
<title>dir_c6265dd06d6b11d774262e684c606115&#45;&gt;dir_e1b125331ccfd7597fbda9d04ae41b2d</title>
<path fill="none" stroke="black" d="M71.59,-180.17C80.84,-197.38 97.34,-222.13 120,-233 142.84,-243.95 154.02,-243.67 177,-233 196.64,-223.88 212.17,-204.82 222.51,-188.75"/>
<polygon fill="black" stroke="black" points="225.5,-190.56 227.71,-180.2 219.52,-186.92 225.5,-190.56"/>
<g id="a_edge6&#45;headlabel"><a xlink:href="dir_000088_000037.html" target="_top" xlink:title="4">
<text text-anchor="middle" x="226.06" y="-192.61" font-family="Helvetica,sans-Serif" font-size="10.00">4</text>
</a>
</g>
</g>
<!-- dir_c5543cdc84e26c6148bf8505a526aef1 -->
<g id="node5" class="node">
<title>dir_c5543cdc84e26c6148bf8505a526aef1</title>
<g id="a_node5"><a xlink:href="dir_c5543cdc84e26c6148bf8505a526aef1.html" target="_top" xlink:title="Exceptions">
<polygon fill="none" stroke="black" points="161,-108 91,-108 91,-72 161,-72 161,-108"/>
<text text-anchor="middle" x="126" y="-87.5" font-family="Helvetica,sans-Serif" font-size="10.00">Exceptions</text>
</a>
</g>
</g>
<!-- dir_c6265dd06d6b11d774262e684c606115&#45;&gt;dir_c5543cdc84e26c6148bf8505a526aef1 -->
<g id="edge7" class="edge">
<title>dir_c6265dd06d6b11d774262e684c606115&#45;&gt;dir_c5543cdc84e26c6148bf8505a526aef1</title>
<path fill="none" stroke="black" d="M78.57,-143.7C86.2,-135.22 95.52,-124.86 103.88,-115.58"/>
<polygon fill="black" stroke="black" points="106.52,-117.88 110.61,-108.1 101.31,-113.2 106.52,-117.88"/>
<g id="a_edge7&#45;headlabel"><a xlink:href="dir_000088_000073.html" target="_top" xlink:title="1">
<text text-anchor="middle" x="106.22" y="-119.95" font-family="Helvetica,sans-Serif" font-size="10.00">1</text>
</a>
</g>
</g>
<!-- dir_4a120dbb11348b2823d2a12dcab2f1e3 -->
<g id="node6" class="node">
<title>dir_4a120dbb11348b2823d2a12dcab2f1e3</title>
<g id="a_node6"><a xlink:href="dir_4a120dbb11348b2823d2a12dcab2f1e3.html" target="_top" xlink:title="ECS">
<polygon fill="white" stroke="red" points="233,-108 179,-108 179,-72 233,-72 233,-108"/>
<text text-anchor="middle" x="206" y="-87.5" font-family="Helvetica,sans-Serif" font-size="10.00">ECS</text>
</a>
</g>
</g>
<!-- dir_c6265dd06d6b11d774262e684c606115&#45;&gt;dir_4a120dbb11348b2823d2a12dcab2f1e3 -->
<g id="edge8" class="edge">
<title>dir_c6265dd06d6b11d774262e684c606115&#45;&gt;dir_4a120dbb11348b2823d2a12dcab2f1e3</title>
<path fill="none" stroke="black" d="M85.16,-143.88C93.03,-138.32 102.14,-132.44 111,-128 133.34,-116.81 142.5,-117.98 169.27,-107.99"/>
<polygon fill="black" stroke="black" points="170.59,-111.23 178.63,-104.32 168.04,-104.71 170.59,-111.23"/>
<g id="a_edge8&#45;headlabel"><a xlink:href="dir_000088_000002.html" target="_top" xlink:title="2">
<text text-anchor="middle" x="168.28" y="-112.68" font-family="Helvetica,sans-Serif" font-size="10.00">2</text>
</a>
</g>
</g>
<!-- dir_e1b125331ccfd7597fbda9d04ae41b2d&#45;&gt;dir_c6265dd06d6b11d774262e684c606115 -->
<g id="edge3" class="edge">
<title>dir_e1b125331ccfd7597fbda9d04ae41b2d&#45;&gt;dir_c6265dd06d6b11d774262e684c606115</title>
<path fill="none" stroke="black" d="M227.71,-180.2C217.78,-197.42 200.27,-222.2 177,-233 154.02,-243.67 142.84,-243.95 120,-233 101.06,-223.91 86.42,-205.12 76.72,-189.16"/>
<polygon fill="black" stroke="black" points="79.59,-187.12 71.59,-180.17 73.51,-190.59 79.59,-187.12"/>
<g id="a_edge3&#45;headlabel"><a xlink:href="dir_000037_000088.html" target="_top" xlink:title="1">
<text text-anchor="middle" x="83.84" y="-186.33" font-family="Helvetica,sans-Serif" font-size="10.00">1</text>
</a>
</g>
</g>
<!-- dir_e1b125331ccfd7597fbda9d04ae41b2d&#45;&gt;dir_c5543cdc84e26c6148bf8505a526aef1 -->
<g id="edge1" class="edge">
<title>dir_e1b125331ccfd7597fbda9d04ae41b2d&#45;&gt;dir_c5543cdc84e26c6148bf8505a526aef1</title>
<path fill="none" stroke="black" d="M210.86,-143.93C202.9,-138.78 194.11,-133.13 186,-128 178.41,-123.2 170.24,-118.12 162.45,-113.3"/>
<polygon fill="black" stroke="black" points="164.21,-110.27 153.86,-108.01 160.53,-116.23 164.21,-110.27"/>
<g id="a_edge1&#45;headlabel"><a xlink:href="dir_000037_000073.html" target="_top" xlink:title="2">
<text text-anchor="middle" x="168.76" y="-107.24" font-family="Helvetica,sans-Serif" font-size="10.00">2</text>
</a>
</g>
</g>
<!-- dir_e1b125331ccfd7597fbda9d04ae41b2d&#45;&gt;dir_4a120dbb11348b2823d2a12dcab2f1e3 -->
<g id="edge2" class="edge">
<title>dir_e1b125331ccfd7597fbda9d04ae41b2d&#45;&gt;dir_4a120dbb11348b2823d2a12dcab2f1e3</title>
<path fill="none" stroke="black" d="M229.34,-143.7C225.81,-135.73 221.54,-126.1 217.63,-117.26"/>
<polygon fill="black" stroke="black" points="220.82,-115.83 213.57,-108.1 214.42,-118.67 220.82,-115.83"/>
<g id="a_edge2&#45;headlabel"><a xlink:href="dir_000037_000002.html" target="_top" xlink:title="33">
<text text-anchor="middle" x="224.88" y="-115.47" font-family="Helvetica,sans-Serif" font-size="10.00">33</text>
</a>
</g>
</g>
<!-- dir_4a120dbb11348b2823d2a12dcab2f1e3&#45;&gt;dir_39e02a65a8e8da5bae3d3dbe68a49458 -->
<g id="edge4" class="edge">
<title>dir_4a120dbb11348b2823d2a12dcab2f1e3&#45;&gt;dir_39e02a65a8e8da5bae3d3dbe68a49458</title>
<path fill="none" stroke="black" d="M188.2,-71.7C179.4,-63.14 168.62,-52.66 159,-43.3"/>
<polygon fill="black" stroke="black" points="161.2,-40.57 151.59,-36.1 156.32,-45.58 161.2,-40.57"/>
<g id="a_edge4&#45;headlabel"><a xlink:href="dir_000002_000007.html" target="_top" xlink:title="1">
<text text-anchor="middle" x="165.76" y="-38.54" font-family="Helvetica,sans-Serif" font-size="10.00">1</text>
</a>
</g>
</g>
</g>
</svg>
