<?xml version="1.0" encoding="UTF-8" standalone="no"?>
<!DOCTYPE svg PUBLIC "-//W3C//DTD SVG 1.1//EN"
 "http://www.w3.org/Graphics/SVG/1.1/DTD/svg11.dtd">
<!-- Generated by graphviz version 2.43.0 (0)
 -->
<!-- Title: Libs/ECS/sources/Managers/SystemManager Pages: 1 -->
<svg width="136pt" height="151pt"
 viewBox="0.00 0.00 136.00 151.00" xmlns="http://www.w3.org/2000/svg" xmlns:xlink="http://www.w3.org/1999/xlink">
<g id="graph0" class="graph" transform="scale(1 1) rotate(0) translate(4 147)">
<title>Libs/ECS/sources/Managers/SystemManager</title>
<polygon fill="white" stroke="transparent" points="-4,4 -4,-147 132,-147 132,4 -4,4"/>
<g id="clust1" class="cluster">
<title>clusterdir_aed85c5ce4b6a9c7e4c648d53dc0ffb7</title>
<g id="a_clust1"><a xlink:href="dir_aed85c5ce4b6a9c7e4c648d53dc0ffb7.html" target="_top" xlink:title="Managers">
<polygon fill="#ddddee" stroke="black" points="8,-64 8,-135 120,-135 120,-64 8,-64"/>
<text text-anchor="middle" x="64" y="-123" font-family="Helvetica,sans-Serif" font-size="10.00">Managers</text>
</a>
</g>
</g>
<!-- dir_8767246ac7798f5c0f64bb72ca4d787c -->
<g id="node1" class="node">
<title>dir_8767246ac7798f5c0f64bb72ca4d787c</title>
<g id="a_node1"><a xlink:href="dir_8767246ac7798f5c0f64bb72ca4d787c.html" target="_top" xlink:title="SystemManager">
<polygon fill="#eeeeff" stroke="black" points="112,-108 16,-108 16,-72 112,-72 112,-108"/>
<text text-anchor="middle" x="64" y="-87.5" font-family="Helvetica,sans-Serif" font-size="10.00">SystemManager</text>
</a>
</g>
</g>
<!-- dir_07568c1f449be419f67eaaf111015151 -->
<g id="node2" class="node">
<title>dir_07568c1f449be419f67eaaf111015151</title>
<g id="a_node2"><a xlink:href="dir_07568c1f449be419f67eaaf111015151.html" target="_top" xlink:title="Systems">
<polygon fill="none" stroke="black" points="93.5,-36 34.5,-36 34.5,0 93.5,0 93.5,-36"/>
<text text-anchor="middle" x="64" y="-15.5" font-family="Helvetica,sans-Serif" font-size="10.00">Systems</text>
</a>
</g>
</g>
<!-- dir_8767246ac7798f5c0f64bb72ca4d787c&#45;&gt;dir_07568c1f449be419f67eaaf111015151 -->
<g id="edge1" class="edge">
<title>dir_8767246ac7798f5c0f64bb72ca4d787c&#45;&gt;dir_07568c1f449be419f67eaaf111015151</title>
<path fill="none" stroke="black" d="M64,-71.7C64,-63.98 64,-54.71 64,-46.11"/>
<polygon fill="black" stroke="black" points="67.5,-46.1 64,-36.1 60.5,-46.1 67.5,-46.1"/>
<g id="a_edge1&#45;headlabel"><a xlink:href="dir_000029_000030.html" target="_top" xlink:title="1">
<text text-anchor="middle" x="70.34" y="-47.2" font-family="Helvetica,sans-Serif" font-size="10.00">1</text>
</a>
</g>
</g>
</g>
</svg>
