<?xml version="1.0" encoding="UTF-8" standalone="no"?>
<!DOCTYPE svg PUBLIC "-//W3C//DTD SVG 1.1//EN"
 "http://www.w3.org/Graphics/SVG/1.1/DTD/svg11.dtd">
<!-- Generated by graphviz version 2.43.0 (0)
 -->
<!-- Title: Libs/ECS/sources/Managers Pages: 1 -->
<svg width="481pt" height="267pt"
 viewBox="0.00 0.00 481.07 267.00" xmlns="http://www.w3.org/2000/svg" xmlns:xlink="http://www.w3.org/1999/xlink">
<g id="graph0" class="graph" transform="scale(1 1) rotate(0) translate(4 263)">
<title>Libs/ECS/sources/Managers</title>
<polygon fill="white" stroke="transparent" points="-4,4 -4,-263 477.07,-263 477.07,4 -4,4"/>
<g id="clust1" class="cluster">
<title>clusterdir_01f7e9a8ddc73edbc1248d272f2c3911</title>
<g id="a_clust1"><a xlink:href="dir_01f7e9a8ddc73edbc1248d272f2c3911.html" target="_top" xlink:title="sources">
<polygon fill="#ddddee" stroke="black" points="8,-56 8,-143 460,-143 460,-56 8,-56"/>
<text text-anchor="middle" x="234" y="-131" font-family="Helvetica,sans-Serif" font-size="10.00">sources</text>
</a>
</g>
</g>
<g id="clust2" class="cluster">
<title>clusterdir_aed85c5ce4b6a9c7e4c648d53dc0ffb7</title>
<g id="a_clust2"><a xlink:href="dir_aed85c5ce4b6a9c7e4c648d53dc0ffb7.html" target="_top">
<polygon fill="#eeeeff" stroke="black" points="16,-64 16,-116 452,-116 452,-64 16,-64"/>
</a>
</g>
</g>
<!-- dir_aed85c5ce4b6a9c7e4c648d53dc0ffb7 -->
<g id="node1" class="node">
<title>dir_aed85c5ce4b6a9c7e4c648d53dc0ffb7</title>
<text text-anchor="middle" x="411" y="-87.5" font-family="Helvetica,sans-Serif" font-size="10.00">Managers</text>
</g>
<!-- dir_e5442a488d06819299a27d9ce9fd8252 -->
<g id="node2" class="node">
<title>dir_e5442a488d06819299a27d9ce9fd8252</title>
<g id="a_node2"><a xlink:href="dir_e5442a488d06819299a27d9ce9fd8252.html" target="_top" xlink:title="ComponentManager">
<polygon fill="white" stroke="black" points="360,-108 244,-108 244,-72 360,-72 360,-108"/>
<text text-anchor="middle" x="302" y="-87.5" font-family="Helvetica,sans-Serif" font-size="10.00">ComponentManager</text>
</a>
</g>
</g>
<!-- dir_a5273e4af1888c46cbc238269a07fb92 -->
<g id="node7" class="node">
<title>dir_a5273e4af1888c46cbc238269a07fb92</title>
<g id="a_node7"><a xlink:href="dir_a5273e4af1888c46cbc238269a07fb92.html" target="_top" xlink:title="Components">
<polygon fill="none" stroke="black" points="429,-36 351,-36 351,0 429,0 429,-36"/>
<text text-anchor="middle" x="390" y="-15.5" font-family="Helvetica,sans-Serif" font-size="10.00">Components</text>
</a>
</g>
</g>
<!-- dir_e5442a488d06819299a27d9ce9fd8252&#45;&gt;dir_a5273e4af1888c46cbc238269a07fb92 -->
<g id="edge1" class="edge">
<title>dir_e5442a488d06819299a27d9ce9fd8252&#45;&gt;dir_a5273e4af1888c46cbc238269a07fb92</title>
<path fill="none" stroke="black" d="M323.75,-71.7C334.84,-62.88 348.47,-52.03 360.49,-42.47"/>
<polygon fill="black" stroke="black" points="362.85,-45.07 368.5,-36.1 358.49,-39.59 362.85,-45.07"/>
<g id="a_edge1&#45;headlabel"><a xlink:href="dir_000027_000020.html" target="_top" xlink:title="1">
<text text-anchor="middle" x="361.8" y="-47.03" font-family="Helvetica,sans-Serif" font-size="10.00">1</text>
</a>
</g>
</g>
<!-- dir_949a8894935efa81e2772c61dc0f1347 -->
<g id="node3" class="node">
<title>dir_949a8894935efa81e2772c61dc0f1347</title>
<g id="a_node3"><a xlink:href="dir_949a8894935efa81e2772c61dc0f1347.html" target="_top" xlink:title="EntityManager">
<polygon fill="white" stroke="black" points="226,-108 138,-108 138,-72 226,-72 226,-108"/>
<text text-anchor="middle" x="182" y="-87.5" font-family="Helvetica,sans-Serif" font-size="10.00">EntityManager</text>
</a>
</g>
</g>
<!-- dir_b7c09b517d5f4640241c257c460ab0cc -->
<g id="node5" class="node">
<title>dir_b7c09b517d5f4640241c257c460ab0cc</title>
<g id="a_node5"><a xlink:href="dir_b7c09b517d5f4640241c257c460ab0cc.html" target="_top" xlink:title="Entity">
<polygon fill="none" stroke="black" points="329,-187 275,-187 275,-151 329,-151 329,-187"/>
<text text-anchor="middle" x="302" y="-166.5" font-family="Helvetica,sans-Serif" font-size="10.00">Entity</text>
</a>
</g>
</g>
<!-- dir_949a8894935efa81e2772c61dc0f1347&#45;&gt;dir_b7c09b517d5f4640241c257c460ab0cc -->
<g id="edge6" class="edge">
<title>dir_949a8894935efa81e2772c61dc0f1347&#45;&gt;dir_b7c09b517d5f4640241c257c460ab0cc</title>
<path fill="none" stroke="black" d="M188.62,-108.36C197.17,-119.5 211.21,-133.59 226,-143 237.69,-150.43 251.91,-156.14 264.99,-160.2"/>
<polygon fill="black" stroke="black" points="264.13,-163.6 274.7,-163 266.06,-156.87 264.13,-163.6"/>
<g id="a_edge6&#45;headlabel"><a xlink:href="dir_000028_000022.html" target="_top" xlink:title="1">
<text text-anchor="middle" x="259.89" y="-162.83" font-family="Helvetica,sans-Serif" font-size="10.00">1</text>
</a>
</g>
</g>
<!-- dir_8767246ac7798f5c0f64bb72ca4d787c -->
<g id="node4" class="node">
<title>dir_8767246ac7798f5c0f64bb72ca4d787c</title>
<g id="a_node4"><a xlink:href="dir_8767246ac7798f5c0f64bb72ca4d787c.html" target="_top" xlink:title="SystemManager">
<polygon fill="white" stroke="black" points="120,-108 24,-108 24,-72 120,-72 120,-108"/>
<text text-anchor="middle" x="72" y="-87.5" font-family="Helvetica,sans-Serif" font-size="10.00">SystemManager</text>
</a>
</g>
</g>
<!-- dir_07568c1f449be419f67eaaf111015151 -->
<g id="node6" class="node">
<title>dir_07568c1f449be419f67eaaf111015151</title>
<g id="a_node6"><a xlink:href="dir_07568c1f449be419f67eaaf111015151.html" target="_top" xlink:title="Systems">
<polygon fill="none" stroke="black" points="216.5,-259 157.5,-259 157.5,-223 216.5,-223 216.5,-259"/>
<text text-anchor="middle" x="187" y="-238.5" font-family="Helvetica,sans-Serif" font-size="10.00">Systems</text>
</a>
</g>
</g>
<!-- dir_8767246ac7798f5c0f64bb72ca4d787c&#45;&gt;dir_07568c1f449be419f67eaaf111015151 -->
<g id="edge8" class="edge">
<title>dir_8767246ac7798f5c0f64bb72ca4d787c&#45;&gt;dir_07568c1f449be419f67eaaf111015151</title>
<path fill="none" stroke="black" d="M85.39,-108.35C105.68,-134.64 144.32,-184.7 167.66,-214.94"/>
<polygon fill="black" stroke="black" points="164.93,-217.13 173.81,-222.91 170.47,-212.85 164.93,-217.13"/>
<g id="a_edge8&#45;headlabel"><a xlink:href="dir_000029_000030.html" target="_top" xlink:title="1">
<text text-anchor="middle" x="160.48" y="-213.52" font-family="Helvetica,sans-Serif" font-size="10.00">1</text>
</a>
</g>
</g>
<!-- dir_b7c09b517d5f4640241c257c460ab0cc&#45;&gt;dir_aed85c5ce4b6a9c7e4c648d53dc0ffb7 -->
<g id="edge2" class="edge">
<title>dir_b7c09b517d5f4640241c257c460ab0cc&#45;&gt;dir_aed85c5ce4b6a9c7e4c648d53dc0ffb7</title>
<path fill="none" stroke="black" d="M329.06,-161.5C341.95,-157.54 357.11,-151.56 369,-143 378.8,-135.94 387.58,-126.02 394.54,-116.73"/>
<polygon fill="black" stroke="black" points="397.47,-118.66 400.41,-108.48 391.76,-114.61 397.47,-118.66"/>
<g id="a_edge2&#45;headlabel"><a xlink:href="dir_000022_000026.html" target="_top" xlink:title="2">
<text text-anchor="middle" x="397.7" y="-120.74" font-family="Helvetica,sans-Serif" font-size="10.00">2</text>
</a>
</g>
</g>
<!-- dir_b7c09b517d5f4640241c257c460ab0cc&#45;&gt;dir_e5442a488d06819299a27d9ce9fd8252 -->
<g id="edge3" class="edge">
<title>dir_b7c09b517d5f4640241c257c460ab0cc&#45;&gt;dir_e5442a488d06819299a27d9ce9fd8252</title>
<path fill="none" stroke="black" d="M302,-150.91C302,-141.34 302,-129.18 302,-118.32"/>
<polygon fill="black" stroke="black" points="305.5,-118.04 302,-108.04 298.5,-118.04 305.5,-118.04"/>
<g id="a_edge3&#45;headlabel"><a xlink:href="dir_000022_000027.html" target="_top" xlink:title="1">
<text text-anchor="middle" x="308.34" y="-119.14" font-family="Helvetica,sans-Serif" font-size="10.00">1</text>
</a>
</g>
</g>
<!-- dir_b7c09b517d5f4640241c257c460ab0cc&#45;&gt;dir_949a8894935efa81e2772c61dc0f1347 -->
<g id="edge4" class="edge">
<title>dir_b7c09b517d5f4640241c257c460ab0cc&#45;&gt;dir_949a8894935efa81e2772c61dc0f1347</title>
<path fill="none" stroke="black" d="M274.86,-157.79C264.75,-153.98 253.53,-149.06 244,-143 232.21,-135.5 220.91,-125.03 211.1,-115.45"/>
<polygon fill="black" stroke="black" points="213.5,-112.9 203.92,-108.36 208.58,-117.88 213.5,-112.9"/>
<g id="a_edge4&#45;headlabel"><a xlink:href="dir_000022_000028.html" target="_top" xlink:title="1">
<text text-anchor="middle" x="218.05" y="-110.9" font-family="Helvetica,sans-Serif" font-size="10.00">1</text>
</a>
</g>
</g>
<!-- dir_b7c09b517d5f4640241c257c460ab0cc&#45;&gt;dir_a5273e4af1888c46cbc238269a07fb92 -->
<g id="edge5" class="edge">
<title>dir_b7c09b517d5f4640241c257c460ab0cc&#45;&gt;dir_a5273e4af1888c46cbc238269a07fb92</title>
<path fill="none" stroke="black" d="M329.16,-167.65C368.93,-166.49 440.03,-161.77 456,-143 481.06,-113.55 475.54,-89.36 456,-56 451.61,-48.51 445.08,-42.41 437.82,-37.5"/>
<polygon fill="black" stroke="black" points="439.42,-34.38 429.03,-32.26 435.83,-40.39 439.42,-34.38"/>
<g id="a_edge5&#45;headlabel"><a xlink:href="dir_000022_000020.html" target="_top" xlink:title="1">
<text text-anchor="middle" x="443.96" y="-31.28" font-family="Helvetica,sans-Serif" font-size="10.00">1</text>
</a>
</g>
</g>
<!-- dir_07568c1f449be419f67eaaf111015151&#45;&gt;dir_b7c09b517d5f4640241c257c460ab0cc -->
<g id="edge7" class="edge">
<title>dir_07568c1f449be419f67eaaf111015151&#45;&gt;dir_b7c09b517d5f4640241c257c460ab0cc</title>
<path fill="none" stroke="black" d="M215.13,-222.88C230.51,-213.52 249.71,-201.83 266.14,-191.83"/>
<polygon fill="black" stroke="black" points="268.23,-194.65 274.95,-186.47 264.59,-188.67 268.23,-194.65"/>
<g id="a_edge7&#45;headlabel"><a xlink:href="dir_000030_000022.html" target="_top" xlink:title="1">
<text text-anchor="middle" x="266.63" y="-196.45" font-family="Helvetica,sans-Serif" font-size="10.00">1</text>
</a>
</g>
</g>
</g>
</svg>
