<?xml version="1.0" encoding="UTF-8" standalone="no"?>
<!DOCTYPE svg PUBLIC "-//W3C//DTD SVG 1.1//EN"
 "http://www.w3.org/Graphics/SVG/1.1/DTD/svg11.dtd">
<!-- Generated by graphviz version 2.43.0 (0)
 -->
<!-- Title: Libs Pages: 1 -->
<svg width="270pt" height="292pt"
 viewBox="0.00 0.00 270.00 292.00" xmlns="http://www.w3.org/2000/svg" xmlns:xlink="http://www.w3.org/1999/xlink">
<g id="graph0" class="graph" transform="scale(1 1) rotate(0) translate(4 288)">
<title>Libs</title>
<polygon fill="white" stroke="transparent" points="-4,4 -4,-288 266,-288 266,4 -4,4"/>
<g id="clust1" class="cluster">
<title>clusterdir_6e6cb9563333489fde7459b1f95e59a5</title>
<g id="a_clust1"><a xlink:href="dir_6e6cb9563333489fde7459b1f95e59a5.html" target="_top">
<polygon fill="#eeeeff" stroke="black" points="8,-8 8,-276 254,-276 254,-8 8,-8"/>
</a>
</g>
</g>
<!-- dir_6e6cb9563333489fde7459b1f95e59a5 -->
<g id="node1" class="node">
<title>dir_6e6cb9563333489fde7459b1f95e59a5</title>
<text text-anchor="middle" x="200" y="-247.5" font-family="Helvetica,sans-Serif" font-size="10.00">Libs</text>
</g>
<!-- dir_4a120dbb11348b2823d2a12dcab2f1e3 -->
<g id="node2" class="node">
<title>dir_4a120dbb11348b2823d2a12dcab2f1e3</title>
<g id="a_node2"><a xlink:href="dir_4a120dbb11348b2823d2a12dcab2f1e3.html" target="_top" xlink:title="ECS">
<polygon fill="white" stroke="red" points="70,-124 16,-124 16,-88 70,-88 70,-124"/>
<text text-anchor="middle" x="43" y="-103.5" font-family="Helvetica,sans-Serif" font-size="10.00">ECS</text>
</a>
</g>
</g>
<!-- dir_39e02a65a8e8da5bae3d3dbe68a49458 -->
<g id="node7" class="node">
<title>dir_39e02a65a8e8da5bae3d3dbe68a49458</title>
<g id="a_node7"><a xlink:href="dir_39e02a65a8e8da5bae3d3dbe68a49458.html" target="_top" xlink:title="XMLGenerator">
<polygon fill="white" stroke="red" points="158,-52 72,-52 72,-16 158,-16 158,-52"/>
<text text-anchor="middle" x="115" y="-31.5" font-family="Helvetica,sans-Serif" font-size="10.00">XMLGenerator</text>
</a>
</g>
</g>
<!-- dir_4a120dbb11348b2823d2a12dcab2f1e3&#45;&gt;dir_39e02a65a8e8da5bae3d3dbe68a49458 -->
<g id="edge9" class="edge">
<title>dir_4a120dbb11348b2823d2a12dcab2f1e3&#45;&gt;dir_39e02a65a8e8da5bae3d3dbe68a49458</title>
<path fill="none" stroke="black" d="M60.8,-87.7C69.6,-79.14 80.38,-68.66 90,-59.3"/>
<polygon fill="black" stroke="black" points="92.68,-61.58 97.41,-52.1 87.8,-56.57 92.68,-61.58"/>
<g id="a_edge9&#45;headlabel"><a xlink:href="dir_000002_000007.html" target="_top" xlink:title="1">
<text text-anchor="middle" x="92.08" y="-63.63" font-family="Helvetica,sans-Serif" font-size="10.00">1</text>
</a>
</g>
</g>
<!-- dir_2bfc07ec199f106d892954a69be8200a -->
<g id="node3" class="node">
<title>dir_2bfc07ec199f106d892954a69be8200a</title>
<g id="a_node3"><a xlink:href="dir_2bfc07ec199f106d892954a69be8200a.html" target="_top" xlink:title="Engine">
<polygon fill="white" stroke="red" points="136,-268 82,-268 82,-232 136,-232 136,-268"/>
<text text-anchor="middle" x="109" y="-247.5" font-family="Helvetica,sans-Serif" font-size="10.00">Engine</text>
</a>
</g>
</g>
<!-- dir_2bfc07ec199f106d892954a69be8200a&#45;&gt;dir_4a120dbb11348b2823d2a12dcab2f1e3 -->
<g id="edge8" class="edge">
<title>dir_2bfc07ec199f106d892954a69be8200a&#45;&gt;dir_4a120dbb11348b2823d2a12dcab2f1e3</title>
<path fill="none" stroke="black" d="M81.95,-239.58C62.82,-231.33 38.59,-217.29 27,-196 16.5,-176.71 22.25,-151.94 29.63,-133.42"/>
<polygon fill="black" stroke="black" points="32.9,-134.68 33.68,-124.12 26.48,-131.89 32.9,-134.68"/>
<g id="a_edge8&#45;headlabel"><a xlink:href="dir_000003_000002.html" target="_top" xlink:title="60">
<text text-anchor="middle" x="34.07" y="-136.61" font-family="Helvetica,sans-Serif" font-size="10.00">60</text>
</a>
</g>
</g>
<!-- dir_402206ef4f5d43d9b8083ea2790770a1 -->
<g id="node4" class="node">
<title>dir_402206ef4f5d43d9b8083ea2790770a1</title>
<g id="a_node4"><a xlink:href="dir_402206ef4f5d43d9b8083ea2790770a1.html" target="_top" xlink:title="Lua">
<polygon fill="white" stroke="red" points="90,-196 36,-196 36,-160 90,-160 90,-196"/>
<text text-anchor="middle" x="63" y="-175.5" font-family="Helvetica,sans-Serif" font-size="10.00">Lua</text>
</a>
</g>
</g>
<!-- dir_2bfc07ec199f106d892954a69be8200a&#45;&gt;dir_402206ef4f5d43d9b8083ea2790770a1 -->
<g id="edge5" class="edge">
<title>dir_2bfc07ec199f106d892954a69be8200a&#45;&gt;dir_402206ef4f5d43d9b8083ea2790770a1</title>
<path fill="none" stroke="black" d="M97.63,-231.7C92.28,-223.56 85.8,-213.69 79.89,-204.7"/>
<polygon fill="black" stroke="black" points="82.66,-202.54 74.24,-196.1 76.81,-206.38 82.66,-202.54"/>
<g id="a_edge5&#45;headlabel"><a xlink:href="dir_000003_000004.html" target="_top" xlink:title="1">
<text text-anchor="middle" x="87" y="-201.48" font-family="Helvetica,sans-Serif" font-size="10.00">1</text>
</a>
</g>
</g>
<!-- dir_2e574b6382041dc2a136b1675bed65ad -->
<g id="node5" class="node">
<title>dir_2e574b6382041dc2a136b1675bed65ad</title>
<g id="a_node5"><a xlink:href="dir_2e574b6382041dc2a136b1675bed65ad.html" target="_top" xlink:title="RayLib">
<polygon fill="white" stroke="red" points="142,-124 88,-124 88,-88 142,-88 142,-124"/>
<text text-anchor="middle" x="115" y="-103.5" font-family="Helvetica,sans-Serif" font-size="10.00">RayLib</text>
</a>
</g>
</g>
<!-- dir_2bfc07ec199f106d892954a69be8200a&#45;&gt;dir_2e574b6382041dc2a136b1675bed65ad -->
<g id="edge6" class="edge">
<title>dir_2bfc07ec199f106d892954a69be8200a&#45;&gt;dir_2e574b6382041dc2a136b1675bed65ad</title>
<path fill="none" stroke="black" d="M109.72,-231.87C110.75,-207.67 112.62,-163.21 113.84,-134.39"/>
<polygon fill="black" stroke="black" points="117.35,-134.33 114.27,-124.19 110.35,-134.03 117.35,-134.33"/>
<g id="a_edge6&#45;headlabel"><a xlink:href="dir_000003_000005.html" target="_top" xlink:title="86">
<text text-anchor="middle" x="120.03" y="-135.54" font-family="Helvetica,sans-Serif" font-size="10.00">86</text>
</a>
</g>
</g>
<!-- dir_ea67397643a523edf1ca7cd26133a30b -->
<g id="node6" class="node">
<title>dir_ea67397643a523edf1ca7cd26133a30b</title>
<g id="a_node6"><a xlink:href="dir_ea67397643a523edf1ca7cd26133a30b.html" target="_top" xlink:title="TerrainGenerator">
<polygon fill="white" stroke="red" points="226,-196 128,-196 128,-160 226,-160 226,-196"/>
<text text-anchor="middle" x="177" y="-175.5" font-family="Helvetica,sans-Serif" font-size="10.00">TerrainGenerator</text>
</a>
</g>
</g>
<!-- dir_2bfc07ec199f106d892954a69be8200a&#45;&gt;dir_ea67397643a523edf1ca7cd26133a30b -->
<g id="edge7" class="edge">
<title>dir_2bfc07ec199f106d892954a69be8200a&#45;&gt;dir_ea67397643a523edf1ca7cd26133a30b</title>
<path fill="none" stroke="black" d="M125.81,-231.7C134.13,-223.14 144.31,-212.66 153.39,-203.3"/>
<polygon fill="black" stroke="black" points="155.93,-205.72 160.38,-196.1 150.91,-200.84 155.93,-205.72"/>
<g id="a_edge7&#45;headlabel"><a xlink:href="dir_000003_000006.html" target="_top" xlink:title="2">
<text text-anchor="middle" x="155.46" y="-207.77" font-family="Helvetica,sans-Serif" font-size="10.00">2</text>
</a>
</g>
</g>
<!-- dir_2bfc07ec199f106d892954a69be8200a&#45;&gt;dir_39e02a65a8e8da5bae3d3dbe68a49458 -->
<g id="edge4" class="edge">
<title>dir_2bfc07ec199f106d892954a69be8200a&#45;&gt;dir_39e02a65a8e8da5bae3d3dbe68a49458</title>
<path fill="none" stroke="black" d="M136.23,-239.36C171.51,-226.61 229.21,-204.72 235,-196 268.87,-145.02 199.84,-88.24 153.12,-57.59"/>
<polygon fill="black" stroke="black" points="154.99,-54.64 144.69,-52.18 151.21,-60.53 154.99,-54.64"/>
<g id="a_edge4&#45;headlabel"><a xlink:href="dir_000003_000007.html" target="_top" xlink:title="2">
<text text-anchor="middle" x="159.55" y="-51.69" font-family="Helvetica,sans-Serif" font-size="10.00">2</text>
</a>
</g>
</g>
<!-- dir_402206ef4f5d43d9b8083ea2790770a1&#45;&gt;dir_2e574b6382041dc2a136b1675bed65ad -->
<g id="edge1" class="edge">
<title>dir_402206ef4f5d43d9b8083ea2790770a1&#45;&gt;dir_2e574b6382041dc2a136b1675bed65ad</title>
<path fill="none" stroke="black" d="M75.85,-159.7C82.03,-151.39 89.54,-141.28 96.32,-132.14"/>
<polygon fill="black" stroke="black" points="99.14,-134.22 102.29,-124.1 93.52,-130.04 99.14,-134.22"/>
<g id="a_edge1&#45;headlabel"><a xlink:href="dir_000004_000005.html" target="_top" xlink:title="2">
<text text-anchor="middle" x="99.28" y="-136.3" font-family="Helvetica,sans-Serif" font-size="10.00">2</text>
</a>
</g>
</g>
<!-- dir_2e574b6382041dc2a136b1675bed65ad&#45;&gt;dir_39e02a65a8e8da5bae3d3dbe68a49458 -->
<g id="edge2" class="edge">
<title>dir_2e574b6382041dc2a136b1675bed65ad&#45;&gt;dir_39e02a65a8e8da5bae3d3dbe68a49458</title>
<path fill="none" stroke="black" d="M115,-87.7C115,-79.98 115,-70.71 115,-62.11"/>
<polygon fill="black" stroke="black" points="118.5,-62.1 115,-52.1 111.5,-62.1 118.5,-62.1"/>
<g id="a_edge2&#45;headlabel"><a xlink:href="dir_000005_000007.html" target="_top" xlink:title="2">
<text text-anchor="middle" x="121.34" y="-63.2" font-family="Helvetica,sans-Serif" font-size="10.00">2</text>
</a>
</g>
</g>
<!-- dir_ea67397643a523edf1ca7cd26133a30b&#45;&gt;dir_2e574b6382041dc2a136b1675bed65ad -->
<g id="edge3" class="edge">
<title>dir_ea67397643a523edf1ca7cd26133a30b&#45;&gt;dir_2e574b6382041dc2a136b1675bed65ad</title>
<path fill="none" stroke="black" d="M161.67,-159.7C154.24,-151.3 145.18,-141.07 137.02,-131.86"/>
<polygon fill="black" stroke="black" points="139.4,-129.27 130.15,-124.1 134.16,-133.91 139.4,-129.27"/>
<g id="a_edge3&#45;headlabel"><a xlink:href="dir_000006_000005.html" target="_top" xlink:title="1">
<text text-anchor="middle" x="143.91" y="-127.58" font-family="Helvetica,sans-Serif" font-size="10.00">1</text>
</a>
</g>
</g>
</g>
</svg>
