<?xml version="1.0" encoding="UTF-8" standalone="no"?>
<!DOCTYPE svg PUBLIC "-//W3C//DTD SVG 1.1//EN"
 "http://www.w3.org/Graphics/SVG/1.1/DTD/svg11.dtd">
<!-- Generated by graphviz version 2.43.0 (0)
 -->
<!-- Title: Libs/Lua/sources/State Pages: 1 -->
<svg width="228pt" height="151pt"
 viewBox="0.00 0.00 227.50 151.00" xmlns="http://www.w3.org/2000/svg" xmlns:xlink="http://www.w3.org/1999/xlink">
<g id="graph0" class="graph" transform="scale(1 1) rotate(0) translate(4 147)">
<title>Libs/Lua/sources/State</title>
<polygon fill="white" stroke="transparent" points="-4,4 -4,-147 223.5,-147 223.5,4 -4,4"/>
<g id="clust1" class="cluster">
<title>clusterdir_2afc1427824640c7cb01573f168f181b</title>
<g id="a_clust1"><a xlink:href="dir_2afc1427824640c7cb01573f168f181b.html" target="_top" xlink:title="sources">
<polygon fill="#ddddee" stroke="black" points="64,-64 64,-135 134,-135 134,-64 64,-64"/>
<text text-anchor="middle" x="99" y="-123" font-family="Helvetica,sans-Serif" font-size="10.00">sources</text>
</a>
</g>
</g>
<!-- dir_7766dd1b85b05768bdf3be38c3fdd86f -->
<g id="node1" class="node">
<title>dir_7766dd1b85b05768bdf3be38c3fdd86f</title>
<g id="a_node1"><a xlink:href="dir_7766dd1b85b05768bdf3be38c3fdd86f.html" target="_top" xlink:title="State">
<polygon fill="#eeeeff" stroke="black" points="126,-108 72,-108 72,-72 126,-72 126,-108"/>
<text text-anchor="middle" x="99" y="-87.5" font-family="Helvetica,sans-Serif" font-size="10.00">State</text>
</a>
</g>
</g>
<!-- dir_dabc127b2da0ac40ac894508b9e05698 -->
<g id="node2" class="node">
<title>dir_dabc127b2da0ac40ac894508b9e05698</title>
<g id="a_node2"><a xlink:href="dir_dabc127b2da0ac40ac894508b9e05698.html" target="_top" xlink:title="Nil">
<polygon fill="none" stroke="black" points="54,-36 0,-36 0,0 54,0 54,-36"/>
<text text-anchor="middle" x="27" y="-15.5" font-family="Helvetica,sans-Serif" font-size="10.00">Nil</text>
</a>
</g>
</g>
<!-- dir_7766dd1b85b05768bdf3be38c3fdd86f&#45;&gt;dir_dabc127b2da0ac40ac894508b9e05698 -->
<g id="edge2" class="edge">
<title>dir_7766dd1b85b05768bdf3be38c3fdd86f&#45;&gt;dir_dabc127b2da0ac40ac894508b9e05698</title>
<path fill="none" stroke="black" d="M81.2,-71.7C72.4,-63.14 61.62,-52.66 52,-43.3"/>
<polygon fill="black" stroke="black" points="54.2,-40.57 44.59,-36.1 49.32,-45.58 54.2,-40.57"/>
<g id="a_edge2&#45;headlabel"><a xlink:href="dir_000092_000091.html" target="_top" xlink:title="1">
<text text-anchor="middle" x="58.76" y="-38.54" font-family="Helvetica,sans-Serif" font-size="10.00">1</text>
</a>
</g>
</g>
<!-- dir_2e574b6382041dc2a136b1675bed65ad -->
<g id="node3" class="node">
<title>dir_2e574b6382041dc2a136b1675bed65ad</title>
<g id="a_node3"><a xlink:href="dir_2e574b6382041dc2a136b1675bed65ad.html" target="_top" xlink:title="RayLib">
<polygon fill="white" stroke="red" points="126,-36 72,-36 72,0 126,0 126,-36"/>
<text text-anchor="middle" x="99" y="-15.5" font-family="Helvetica,sans-Serif" font-size="10.00">RayLib</text>
</a>
</g>
</g>
<!-- dir_7766dd1b85b05768bdf3be38c3fdd86f&#45;&gt;dir_2e574b6382041dc2a136b1675bed65ad -->
<g id="edge3" class="edge">
<title>dir_7766dd1b85b05768bdf3be38c3fdd86f&#45;&gt;dir_2e574b6382041dc2a136b1675bed65ad</title>
<path fill="none" stroke="black" d="M99,-71.7C99,-63.98 99,-54.71 99,-46.11"/>
<polygon fill="black" stroke="black" points="102.5,-46.1 99,-36.1 95.5,-46.1 102.5,-46.1"/>
<g id="a_edge3&#45;headlabel"><a xlink:href="dir_000092_000005.html" target="_top" xlink:title="1">
<text text-anchor="middle" x="105.34" y="-47.2" font-family="Helvetica,sans-Serif" font-size="10.00">1</text>
</a>
</g>
</g>
<!-- dir_25d4a9ff9e330c240136dd15a7de5aaf -->
<g id="node4" class="node">
<title>dir_25d4a9ff9e330c240136dd15a7de5aaf</title>
<g id="a_node4"><a xlink:href="dir_25d4a9ff9e330c240136dd15a7de5aaf.html" target="_top" xlink:title="DelayedPop">
<polygon fill="none" stroke="black" points="219.5,-36 144.5,-36 144.5,0 219.5,0 219.5,-36"/>
<text text-anchor="middle" x="182" y="-15.5" font-family="Helvetica,sans-Serif" font-size="10.00">DelayedPop</text>
</a>
</g>
</g>
<!-- dir_7766dd1b85b05768bdf3be38c3fdd86f&#45;&gt;dir_25d4a9ff9e330c240136dd15a7de5aaf -->
<g id="edge4" class="edge">
<title>dir_7766dd1b85b05768bdf3be38c3fdd86f&#45;&gt;dir_25d4a9ff9e330c240136dd15a7de5aaf</title>
<path fill="none" stroke="black" d="M113.6,-71.7C123.14,-62.88 135.84,-52.03 147.75,-42.47"/>
<polygon fill="black" stroke="black" points="150.14,-45.05 155.82,-36.1 145.81,-39.55 150.14,-45.05"/>
<g id="a_edge4&#45;headlabel"><a xlink:href="dir_000092_000090.html" target="_top" xlink:title="1">
<text text-anchor="middle" x="149.08" y="-47" font-family="Helvetica,sans-Serif" font-size="10.00">1</text>
</a>
</g>
</g>
<!-- dir_25d4a9ff9e330c240136dd15a7de5aaf&#45;&gt;dir_7766dd1b85b05768bdf3be38c3fdd86f -->
<g id="edge1" class="edge">
<title>dir_25d4a9ff9e330c240136dd15a7de5aaf&#45;&gt;dir_7766dd1b85b05768bdf3be38c3fdd86f</title>
<path fill="none" stroke="black" d="M167.61,-36.1C158.12,-44.89 145.44,-55.73 133.52,-65.31"/>
<polygon fill="black" stroke="black" points="131.11,-62.75 125.43,-71.7 135.45,-68.24 131.11,-62.75"/>
<g id="a_edge1&#45;headlabel"><a xlink:href="dir_000090_000092.html" target="_top" xlink:title="1">
<text text-anchor="middle" x="132.17" y="-55.79" font-family="Helvetica,sans-Serif" font-size="10.00">1</text>
</a>
</g>
</g>
</g>
</svg>
