<?xml version="1.0" encoding="UTF-8" standalone="no"?>
<!DOCTYPE svg PUBLIC "-//W3C//DTD SVG 1.1//EN"
 "http://www.w3.org/Graphics/SVG/1.1/DTD/svg11.dtd">
<!-- Generated by graphviz version 2.43.0 (0)
 -->
<!-- Title: Libs/Engine/sources/EntityFactory Pages: 1 -->
<svg width="578pt" height="439pt"
 viewBox="0.00 0.00 578.00 439.00" xmlns="http://www.w3.org/2000/svg" xmlns:xlink="http://www.w3.org/1999/xlink">
<g id="graph0" class="graph" transform="scale(1 1) rotate(0) translate(4 435)">
<title>Libs/Engine/sources/EntityFactory</title>
<polygon fill="white" stroke="transparent" points="-4,4 -4,-435 574,-435 574,4 -4,4"/>
<g id="clust1" class="cluster">
<title>clusterdir_12f21af94f7aa2f818b030247191ed7e</title>
<g id="a_clust1"><a xlink:href="dir_12f21af94f7aa2f818b030247191ed7e.html" target="_top" xlink:title="sources">
<polygon fill="#ddddee" stroke="black" points="151,-352 151,-423 247,-423 247,-352 151,-352"/>
<text text-anchor="middle" x="199" y="-411" font-family="Helvetica,sans-Serif" font-size="10.00">sources</text>
</a>
</g>
</g>
<!-- dir_fcd037b3c61b82b39da2ca73b895b43c -->
<g id="node1" class="node">
<title>dir_fcd037b3c61b82b39da2ca73b895b43c</title>
<g id="a_node1"><a xlink:href="dir_fcd037b3c61b82b39da2ca73b895b43c.html" target="_top" xlink:title="EntityFactory">
<polygon fill="#eeeeff" stroke="black" points="239,-396 159,-396 159,-360 239,-360 239,-396"/>
<text text-anchor="middle" x="199" y="-375.5" font-family="Helvetica,sans-Serif" font-size="10.00">EntityFactory</text>
</a>
</g>
</g>
<!-- dir_236e02cd02223a2412f137d7ad85069e -->
<g id="node2" class="node">
<title>dir_236e02cd02223a2412f137d7ad85069e</title>
<g id="a_node2"><a xlink:href="dir_236e02cd02223a2412f137d7ad85069e.html" target="_top" xlink:title="GameConfiguration">
<polygon fill="none" stroke="black" points="465.5,-180 354.5,-180 354.5,-144 465.5,-144 465.5,-180"/>
<text text-anchor="middle" x="410" y="-159.5" font-family="Helvetica,sans-Serif" font-size="10.00">GameConfiguration</text>
</a>
</g>
</g>
<!-- dir_fcd037b3c61b82b39da2ca73b895b43c&#45;&gt;dir_236e02cd02223a2412f137d7ad85069e -->
<g id="edge17" class="edge">
<title>dir_fcd037b3c61b82b39da2ca73b895b43c&#45;&gt;dir_236e02cd02223a2412f137d7ad85069e</title>
<path fill="none" stroke="black" d="M215.91,-359.85C253.18,-322.05 342.51,-231.45 385.74,-187.6"/>
<polygon fill="black" stroke="black" points="388.48,-189.81 393.01,-180.23 383.5,-184.9 388.48,-189.81"/>
<g id="a_edge17&#45;headlabel"><a xlink:href="dir_000072_000074.html" target="_top" xlink:title="1">
<text text-anchor="middle" x="387.98" y="-191.86" font-family="Helvetica,sans-Serif" font-size="10.00">1</text>
</a>
</g>
</g>
<!-- dir_410b9e5e5923f3d338ad2cc3fc994ccd -->
<g id="node3" class="node">
<title>dir_410b9e5e5923f3d338ad2cc3fc994ccd</title>
<g id="a_node3"><a xlink:href="dir_410b9e5e5923f3d338ad2cc3fc994ccd.html" target="_top" xlink:title="ModelShader">
<polygon fill="white" stroke="red" points="184,-180 104,-180 104,-144 184,-144 184,-180"/>
<text text-anchor="middle" x="144" y="-159.5" font-family="Helvetica,sans-Serif" font-size="10.00">ModelShader</text>
</a>
</g>
</g>
<!-- dir_fcd037b3c61b82b39da2ca73b895b43c&#45;&gt;dir_410b9e5e5923f3d338ad2cc3fc994ccd -->
<g id="edge18" class="edge">
<title>dir_fcd037b3c61b82b39da2ca73b895b43c&#45;&gt;dir_410b9e5e5923f3d338ad2cc3fc994ccd</title>
<path fill="none" stroke="black" d="M185.7,-359.82C178.7,-349.89 170.64,-336.85 166,-324 149.74,-278.94 145.37,-222.82 144.27,-190.14"/>
<polygon fill="black" stroke="black" points="147.77,-189.91 144.01,-180.01 140.77,-190.09 147.77,-189.91"/>
<g id="a_edge18&#45;headlabel"><a xlink:href="dir_000072_000075.html" target="_top" xlink:title="1">
<text text-anchor="middle" x="150.7" y="-190.93" font-family="Helvetica,sans-Serif" font-size="10.00">1</text>
</a>
</g>
</g>
<!-- dir_2e574b6382041dc2a136b1675bed65ad -->
<g id="node4" class="node">
<title>dir_2e574b6382041dc2a136b1675bed65ad</title>
<g id="a_node4"><a xlink:href="dir_2e574b6382041dc2a136b1675bed65ad.html" target="_top" xlink:title="RayLib">
<polygon fill="white" stroke="red" points="239,-36 185,-36 185,0 239,0 239,-36"/>
<text text-anchor="middle" x="212" y="-15.5" font-family="Helvetica,sans-Serif" font-size="10.00">RayLib</text>
</a>
</g>
</g>
<!-- dir_fcd037b3c61b82b39da2ca73b895b43c&#45;&gt;dir_2e574b6382041dc2a136b1675bed65ad -->
<g id="edge19" class="edge">
<title>dir_fcd037b3c61b82b39da2ca73b895b43c&#45;&gt;dir_2e574b6382041dc2a136b1675bed65ad</title>
<path fill="none" stroke="black" d="M158.73,-367.63C100.58,-351.43 0,-312.25 0,-235 0,-235 0,-235 0,-161 0,-119.11 0.65,-100.86 31,-72 70.29,-34.64 134.48,-23.44 174.92,-20.18"/>
<polygon fill="black" stroke="black" points="175.17,-23.67 184.91,-19.5 174.69,-16.69 175.17,-23.67"/>
<g id="a_edge19&#45;headlabel"><a xlink:href="dir_000072_000005.html" target="_top" xlink:title="4">
<text text-anchor="middle" x="171.78" y="-24.25" font-family="Helvetica,sans-Serif" font-size="10.00">4</text>
</a>
</g>
</g>
<!-- dir_e1b125331ccfd7597fbda9d04ae41b2d -->
<g id="node5" class="node">
<title>dir_e1b125331ccfd7597fbda9d04ae41b2d</title>
<g id="a_node5"><a xlink:href="dir_e1b125331ccfd7597fbda9d04ae41b2d.html" target="_top" xlink:title="Components">
<polygon fill="white" stroke="red" points="444,-396 366,-396 366,-360 444,-360 444,-396"/>
<text text-anchor="middle" x="405" y="-375.5" font-family="Helvetica,sans-Serif" font-size="10.00">Components</text>
</a>
</g>
</g>
<!-- dir_fcd037b3c61b82b39da2ca73b895b43c&#45;&gt;dir_e1b125331ccfd7597fbda9d04ae41b2d -->
<g id="edge20" class="edge">
<title>dir_fcd037b3c61b82b39da2ca73b895b43c&#45;&gt;dir_e1b125331ccfd7597fbda9d04ae41b2d</title>
<path fill="none" stroke="black" d="M239.23,-378C277.97,-378 316.71,-378 355.44,-378"/>
<polygon fill="black" stroke="black" points="355.82,-381.5 365.82,-378 355.82,-374.5 355.82,-381.5"/>
<g id="a_edge20&#45;headlabel"><a xlink:href="dir_000072_000037.html" target="_top" xlink:title="26">
<text text-anchor="middle" x="352.23" y="-381.84" font-family="Helvetica,sans-Serif" font-size="10.00">26</text>
</a>
</g>
</g>
<!-- dir_9a9e2b7a8f13e92341bd3030ad46e690 -->
<g id="node6" class="node">
<title>dir_9a9e2b7a8f13e92341bd3030ad46e690</title>
<g id="a_node6"><a xlink:href="dir_9a9e2b7a8f13e92341bd3030ad46e690.html" target="_top" xlink:title="Systems">
<polygon fill="white" stroke="red" points="305.5,-252 246.5,-252 246.5,-216 305.5,-216 305.5,-252"/>
<text text-anchor="middle" x="276" y="-231.5" font-family="Helvetica,sans-Serif" font-size="10.00">Systems</text>
</a>
</g>
</g>
<!-- dir_fcd037b3c61b82b39da2ca73b895b43c&#45;&gt;dir_9a9e2b7a8f13e92341bd3030ad46e690 -->
<g id="edge21" class="edge">
<title>dir_fcd037b3c61b82b39da2ca73b895b43c&#45;&gt;dir_9a9e2b7a8f13e92341bd3030ad46e690</title>
<path fill="none" stroke="black" d="M206.49,-359.96C214.64,-341.82 228.34,-312.41 242,-288 247.07,-278.94 253.06,-269.3 258.59,-260.77"/>
<polygon fill="black" stroke="black" points="261.56,-262.62 264.13,-252.34 255.71,-258.78 261.56,-262.62"/>
<g id="a_edge21&#45;headlabel"><a xlink:href="dir_000072_000079.html" target="_top" xlink:title="1">
<text text-anchor="middle" x="261.96" y="-264.68" font-family="Helvetica,sans-Serif" font-size="10.00">1</text>
</a>
</g>
</g>
<!-- dir_ba9f96492b222561776079c293f18c0c -->
<g id="node7" class="node">
<title>dir_ba9f96492b222561776079c293f18c0c</title>
<g id="a_node7"><a xlink:href="dir_ba9f96492b222561776079c293f18c0c.html" target="_top" xlink:title="AssetManager">
<polygon fill="white" stroke="red" points="126,-108 40,-108 40,-72 126,-72 126,-108"/>
<text text-anchor="middle" x="83" y="-87.5" font-family="Helvetica,sans-Serif" font-size="10.00">AssetManager</text>
</a>
</g>
</g>
<!-- dir_fcd037b3c61b82b39da2ca73b895b43c&#45;&gt;dir_ba9f96492b222561776079c293f18c0c -->
<g id="edge22" class="edge">
<title>dir_fcd037b3c61b82b39da2ca73b895b43c&#45;&gt;dir_ba9f96492b222561776079c293f18c0c</title>
<path fill="none" stroke="black" d="M181.02,-359.88C149.16,-328.1 84.07,-256.23 62,-180 55.97,-159.16 62.36,-135.2 69.64,-117.39"/>
<polygon fill="black" stroke="black" points="72.86,-118.76 73.69,-108.19 66.45,-115.93 72.86,-118.76"/>
<g id="a_edge22&#45;headlabel"><a xlink:href="dir_000072_000035.html" target="_top" xlink:title="1">
<text text-anchor="middle" x="74.01" y="-120.69" font-family="Helvetica,sans-Serif" font-size="10.00">1</text>
</a>
</g>
</g>
<!-- dir_4a120dbb11348b2823d2a12dcab2f1e3 -->
<g id="node8" class="node">
<title>dir_4a120dbb11348b2823d2a12dcab2f1e3</title>
<g id="a_node8"><a xlink:href="dir_4a120dbb11348b2823d2a12dcab2f1e3.html" target="_top" xlink:title="ECS">
<polygon fill="white" stroke="red" points="332,-108 278,-108 278,-72 332,-72 332,-108"/>
<text text-anchor="middle" x="305" y="-87.5" font-family="Helvetica,sans-Serif" font-size="10.00">ECS</text>
</a>
</g>
</g>
<!-- dir_fcd037b3c61b82b39da2ca73b895b43c&#45;&gt;dir_4a120dbb11348b2823d2a12dcab2f1e3 -->
<g id="edge23" class="edge">
<title>dir_fcd037b3c61b82b39da2ca73b895b43c&#45;&gt;dir_4a120dbb11348b2823d2a12dcab2f1e3</title>
<path fill="none" stroke="black" d="M201.54,-359.63C206.27,-329.62 217.73,-266.44 237,-216 250.76,-179.99 273.02,-141.43 288.29,-116.81"/>
<polygon fill="black" stroke="black" points="291.42,-118.42 293.78,-108.09 285.49,-114.69 291.42,-118.42"/>
<g id="a_edge23&#45;headlabel"><a xlink:href="dir_000072_000002.html" target="_top" xlink:title="1">
<text text-anchor="middle" x="291.91" y="-120.48" font-family="Helvetica,sans-Serif" font-size="10.00">1</text>
</a>
</g>
</g>
<!-- dir_4d6c489bfc51616ec0a9cc5adedf0045 -->
<g id="node9" class="node">
<title>dir_4d6c489bfc51616ec0a9cc5adedf0045</title>
<g id="a_node9"><a xlink:href="dir_4d6c489bfc51616ec0a9cc5adedf0045.html" target="_top" xlink:title="Scenes">
<polygon fill="none" stroke="black" points="432,-324 378,-324 378,-288 432,-288 432,-324"/>
<text text-anchor="middle" x="405" y="-303.5" font-family="Helvetica,sans-Serif" font-size="10.00">Scenes</text>
</a>
</g>
</g>
<!-- dir_fcd037b3c61b82b39da2ca73b895b43c&#45;&gt;dir_4d6c489bfc51616ec0a9cc5adedf0045 -->
<g id="edge24" class="edge">
<title>dir_fcd037b3c61b82b39da2ca73b895b43c&#45;&gt;dir_4d6c489bfc51616ec0a9cc5adedf0045</title>
<path fill="none" stroke="black" d="M239.49,-361.29C276.97,-348.03 332.06,-329.39 368.3,-317.76"/>
<polygon fill="black" stroke="black" points="369.53,-321.04 377.99,-314.68 367.4,-314.37 369.53,-321.04"/>
<g id="a_edge24&#45;headlabel"><a xlink:href="dir_000072_000078.html" target="_top" xlink:title="1">
<text text-anchor="middle" x="366.96" y="-322.34" font-family="Helvetica,sans-Serif" font-size="10.00">1</text>
</a>
</g>
</g>
<!-- dir_236e02cd02223a2412f137d7ad85069e&#45;&gt;dir_2e574b6382041dc2a136b1675bed65ad -->
<g id="edge1" class="edge">
<title>dir_236e02cd02223a2412f137d7ad85069e&#45;&gt;dir_2e574b6382041dc2a136b1675bed65ad</title>
<path fill="none" stroke="black" d="M400.41,-143.73C388.68,-124.01 367.14,-91.89 341,-72 313.41,-51 276.32,-36.91 248.99,-28.57"/>
<polygon fill="black" stroke="black" points="249.62,-25.11 239.04,-25.65 247.65,-31.82 249.62,-25.11"/>
<g id="a_edge1&#45;headlabel"><a xlink:href="dir_000074_000005.html" target="_top" xlink:title="2">
<text text-anchor="middle" x="253.87" y="-20.89" font-family="Helvetica,sans-Serif" font-size="10.00">2</text>
</a>
</g>
</g>
<!-- dir_236e02cd02223a2412f137d7ad85069e&#45;&gt;dir_4a120dbb11348b2823d2a12dcab2f1e3 -->
<g id="edge2" class="edge">
<title>dir_236e02cd02223a2412f137d7ad85069e&#45;&gt;dir_4a120dbb11348b2823d2a12dcab2f1e3</title>
<path fill="none" stroke="black" d="M384.31,-143.88C370.71,-134.81 353.83,-123.55 339.14,-113.76"/>
<polygon fill="black" stroke="black" points="341.05,-110.82 330.78,-108.19 337.16,-116.65 341.05,-110.82"/>
<g id="a_edge2&#45;headlabel"><a xlink:href="dir_000074_000002.html" target="_top" xlink:title="2">
<text text-anchor="middle" x="345.61" y="-107.96" font-family="Helvetica,sans-Serif" font-size="10.00">2</text>
</a>
</g>
</g>
<!-- dir_410b9e5e5923f3d338ad2cc3fc994ccd&#45;&gt;dir_2e574b6382041dc2a136b1675bed65ad -->
<g id="edge3" class="edge">
<title>dir_410b9e5e5923f3d338ad2cc3fc994ccd&#45;&gt;dir_2e574b6382041dc2a136b1675bed65ad</title>
<path fill="none" stroke="black" d="M152.2,-143.87C163.94,-119.35 185.65,-74.03 199.43,-45.26"/>
<polygon fill="black" stroke="black" points="202.61,-46.72 203.77,-36.19 196.29,-43.7 202.61,-46.72"/>
<g id="a_edge3&#45;headlabel"><a xlink:href="dir_000075_000005.html" target="_top" xlink:title="7">
<text text-anchor="middle" x="203.61" y="-48.69" font-family="Helvetica,sans-Serif" font-size="10.00">7</text>
</a>
</g>
</g>
<!-- dir_410b9e5e5923f3d338ad2cc3fc994ccd&#45;&gt;dir_ba9f96492b222561776079c293f18c0c -->
<g id="edge4" class="edge">
<title>dir_410b9e5e5923f3d338ad2cc3fc994ccd&#45;&gt;dir_ba9f96492b222561776079c293f18c0c</title>
<path fill="none" stroke="black" d="M128.92,-143.7C121.61,-135.3 112.69,-125.07 104.66,-115.86"/>
<polygon fill="black" stroke="black" points="107.11,-113.34 97.91,-108.1 101.84,-117.94 107.11,-113.34"/>
<g id="a_edge4&#45;headlabel"><a xlink:href="dir_000075_000035.html" target="_top" xlink:title="2">
<text text-anchor="middle" x="111.62" y="-111.69" font-family="Helvetica,sans-Serif" font-size="10.00">2</text>
</a>
</g>
</g>
<!-- dir_410b9e5e5923f3d338ad2cc3fc994ccd&#45;&gt;dir_4a120dbb11348b2823d2a12dcab2f1e3 -->
<g id="edge5" class="edge">
<title>dir_410b9e5e5923f3d338ad2cc3fc994ccd&#45;&gt;dir_4a120dbb11348b2823d2a12dcab2f1e3</title>
<path fill="none" stroke="black" d="M183.39,-143.88C209.3,-132.61 243,-117.96 268.35,-106.94"/>
<polygon fill="black" stroke="black" points="269.84,-110.1 277.62,-102.9 267.05,-103.68 269.84,-110.1"/>
<g id="a_edge5&#45;headlabel"><a xlink:href="dir_000075_000002.html" target="_top" xlink:title="1">
<text text-anchor="middle" x="267.68" y="-111.64" font-family="Helvetica,sans-Serif" font-size="10.00">1</text>
</a>
</g>
</g>
<!-- dir_e1b125331ccfd7597fbda9d04ae41b2d&#45;&gt;dir_236e02cd02223a2412f137d7ad85069e -->
<g id="edge6" class="edge">
<title>dir_e1b125331ccfd7597fbda9d04ae41b2d&#45;&gt;dir_236e02cd02223a2412f137d7ad85069e</title>
<path fill="none" stroke="black" d="M420.61,-359.77C428.37,-350.03 436.95,-337.18 441,-324 455.25,-277.65 436.8,-221.68 422.87,-189.43"/>
<polygon fill="black" stroke="black" points="426.02,-187.9 418.73,-180.22 419.64,-190.77 426.02,-187.9"/>
<g id="a_edge6&#45;headlabel"><a xlink:href="dir_000037_000074.html" target="_top" xlink:title="9">
<text text-anchor="middle" x="430.08" y="-187.52" font-family="Helvetica,sans-Serif" font-size="10.00">9</text>
</a>
</g>
</g>
<!-- dir_e1b125331ccfd7597fbda9d04ae41b2d&#45;&gt;dir_2e574b6382041dc2a136b1675bed65ad -->
<g id="edge7" class="edge">
<title>dir_e1b125331ccfd7597fbda9d04ae41b2d&#45;&gt;dir_2e574b6382041dc2a136b1675bed65ad</title>
<path fill="none" stroke="black" d="M444.1,-363.21C492.9,-343.21 570,-301.14 570,-235 570,-235 570,-235 570,-161 570,-90.61 503.47,-100.26 439,-72 375.56,-44.19 295.47,-29.88 249.36,-23.44"/>
<polygon fill="black" stroke="black" points="249.6,-19.94 239.23,-22.08 248.67,-26.88 249.6,-19.94"/>
<g id="a_edge7&#45;headlabel"><a xlink:href="dir_000037_000005.html" target="_top" xlink:title="56">
<text text-anchor="middle" x="253.55" y="-15.11" font-family="Helvetica,sans-Serif" font-size="10.00">56</text>
</a>
</g>
</g>
<!-- dir_e1b125331ccfd7597fbda9d04ae41b2d&#45;&gt;dir_9a9e2b7a8f13e92341bd3030ad46e690 -->
<g id="edge8" class="edge">
<title>dir_e1b125331ccfd7597fbda9d04ae41b2d&#45;&gt;dir_9a9e2b7a8f13e92341bd3030ad46e690</title>
<path fill="none" stroke="black" d="M384.86,-359.87C359.66,-335.03 317.47,-288.85 293.54,-260.14"/>
<polygon fill="black" stroke="black" points="296.07,-257.7 287.02,-252.19 290.66,-262.14 296.07,-257.7"/>
<g id="a_edge8&#45;headlabel"><a xlink:href="dir_000037_000079.html" target="_top" xlink:title="8">
<text text-anchor="middle" x="300.55" y="-256.19" font-family="Helvetica,sans-Serif" font-size="10.00">8</text>
</a>
</g>
</g>
<!-- dir_e1b125331ccfd7597fbda9d04ae41b2d&#45;&gt;dir_ba9f96492b222561776079c293f18c0c -->
<g id="edge9" class="edge">
<title>dir_e1b125331ccfd7597fbda9d04ae41b2d&#45;&gt;dir_ba9f96492b222561776079c293f18c0c</title>
<path fill="none" stroke="black" d="M365.75,-364.45C297.94,-340.53 159.91,-281.55 95,-180 83.35,-161.77 80.8,-137.15 80.91,-118.43"/>
<polygon fill="black" stroke="black" points="84.42,-118.29 81.24,-108.18 77.42,-118.06 84.42,-118.29"/>
<g id="a_edge9&#45;headlabel"><a xlink:href="dir_000037_000035.html" target="_top" xlink:title="7">
<text text-anchor="middle" x="87.14" y="-119.47" font-family="Helvetica,sans-Serif" font-size="10.00">7</text>
</a>
</g>
</g>
<!-- dir_e1b125331ccfd7597fbda9d04ae41b2d&#45;&gt;dir_4a120dbb11348b2823d2a12dcab2f1e3 -->
<g id="edge10" class="edge">
<title>dir_e1b125331ccfd7597fbda9d04ae41b2d&#45;&gt;dir_4a120dbb11348b2823d2a12dcab2f1e3</title>
<path fill="none" stroke="black" d="M427.74,-359.81C438.42,-350.44 450.27,-337.93 457,-324 491.98,-251.61 522.64,-208.76 475,-144 444.64,-102.74 382.37,-92.69 342.21,-90.73"/>
<polygon fill="black" stroke="black" points="342.12,-87.22 332.01,-90.38 341.88,-94.22 342.12,-87.22"/>
<g id="a_edge10&#45;headlabel"><a xlink:href="dir_000037_000002.html" target="_top" xlink:title="33">
<text text-anchor="middle" x="345.81" y="-82.01" font-family="Helvetica,sans-Serif" font-size="10.00">33</text>
</a>
</g>
</g>
<!-- dir_e1b125331ccfd7597fbda9d04ae41b2d&#45;&gt;dir_4d6c489bfc51616ec0a9cc5adedf0045 -->
<g id="edge11" class="edge">
<title>dir_e1b125331ccfd7597fbda9d04ae41b2d&#45;&gt;dir_4d6c489bfc51616ec0a9cc5adedf0045</title>
<path fill="none" stroke="black" d="M399.08,-359.7C398.29,-351.98 398.06,-342.71 398.4,-334.11"/>
<polygon fill="black" stroke="black" points="401.9,-334.32 399.1,-324.1 394.92,-333.84 401.9,-334.32"/>
<g id="a_edge11&#45;headlabel"><a xlink:href="dir_000037_000078.html" target="_top" xlink:title="2">
<text text-anchor="middle" x="404.48" y="-335.61" font-family="Helvetica,sans-Serif" font-size="10.00">2</text>
</a>
</g>
</g>
<!-- dir_9a9e2b7a8f13e92341bd3030ad46e690&#45;&gt;dir_236e02cd02223a2412f137d7ad85069e -->
<g id="edge12" class="edge">
<title>dir_9a9e2b7a8f13e92341bd3030ad46e690&#45;&gt;dir_236e02cd02223a2412f137d7ad85069e</title>
<path fill="none" stroke="black" d="M305.74,-217.46C324.06,-207.89 347.83,-195.48 368.05,-184.92"/>
<polygon fill="black" stroke="black" points="369.81,-187.94 377.05,-180.21 366.57,-181.74 369.81,-187.94"/>
<g id="a_edge12&#45;headlabel"><a xlink:href="dir_000079_000074.html" target="_top" xlink:title="3">
<text text-anchor="middle" x="367.94" y="-189.62" font-family="Helvetica,sans-Serif" font-size="10.00">3</text>
</a>
</g>
</g>
<!-- dir_9a9e2b7a8f13e92341bd3030ad46e690&#45;&gt;dir_410b9e5e5923f3d338ad2cc3fc994ccd -->
<g id="edge13" class="edge">
<title>dir_9a9e2b7a8f13e92341bd3030ad46e690&#45;&gt;dir_410b9e5e5923f3d338ad2cc3fc994ccd</title>
<path fill="none" stroke="black" d="M246.38,-217.29C228.32,-207.71 204.97,-195.33 185.13,-184.81"/>
<polygon fill="black" stroke="black" points="186.77,-181.72 176.3,-180.13 183.49,-187.9 186.77,-181.72"/>
<g id="a_edge13&#45;headlabel"><a xlink:href="dir_000079_000075.html" target="_top" xlink:title="1">
<text text-anchor="middle" x="191.28" y="-178.4" font-family="Helvetica,sans-Serif" font-size="10.00">1</text>
</a>
</g>
</g>
<!-- dir_9a9e2b7a8f13e92341bd3030ad46e690&#45;&gt;dir_2e574b6382041dc2a136b1675bed65ad -->
<g id="edge14" class="edge">
<title>dir_9a9e2b7a8f13e92341bd3030ad46e690&#45;&gt;dir_2e574b6382041dc2a136b1675bed65ad</title>
<path fill="none" stroke="black" d="M270.87,-215.85C259.75,-178.68 233.36,-90.44 220.02,-45.82"/>
<polygon fill="black" stroke="black" points="223.37,-44.81 217.15,-36.23 216.67,-46.82 223.37,-44.81"/>
<g id="a_edge14&#45;headlabel"><a xlink:href="dir_000079_000005.html" target="_top" xlink:title="5">
<text text-anchor="middle" x="227.12" y="-44.94" font-family="Helvetica,sans-Serif" font-size="10.00">5</text>
</a>
</g>
</g>
<!-- dir_9a9e2b7a8f13e92341bd3030ad46e690&#45;&gt;dir_e1b125331ccfd7597fbda9d04ae41b2d -->
<g id="edge15" class="edge">
<title>dir_9a9e2b7a8f13e92341bd3030ad46e690&#45;&gt;dir_e1b125331ccfd7597fbda9d04ae41b2d</title>
<path fill="none" stroke="black" d="M296.21,-252.19C321.43,-277.06 363.62,-323.25 387.52,-351.93"/>
<polygon fill="black" stroke="black" points="384.98,-354.35 394.02,-359.87 390.39,-349.92 384.98,-354.35"/>
<g id="a_edge15&#45;headlabel"><a xlink:href="dir_000079_000037.html" target="_top" xlink:title="28">
<text text-anchor="middle" x="380.5" y="-350.87" font-family="Helvetica,sans-Serif" font-size="10.00">28</text>
</a>
</g>
</g>
<!-- dir_9a9e2b7a8f13e92341bd3030ad46e690&#45;&gt;dir_4a120dbb11348b2823d2a12dcab2f1e3 -->
<g id="edge16" class="edge">
<title>dir_9a9e2b7a8f13e92341bd3030ad46e690&#45;&gt;dir_4a120dbb11348b2823d2a12dcab2f1e3</title>
<path fill="none" stroke="black" d="M279.5,-215.87C284.46,-191.56 293.6,-146.82 299.48,-118.01"/>
<polygon fill="black" stroke="black" points="302.92,-118.69 301.49,-108.19 296.06,-117.29 302.92,-118.69"/>
<g id="a_edge16&#45;headlabel"><a xlink:href="dir_000079_000002.html" target="_top" xlink:title="16">
<text text-anchor="middle" x="304.98" y="-120.28" font-family="Helvetica,sans-Serif" font-size="10.00">16</text>
</a>
</g>
</g>
<!-- dir_ba9f96492b222561776079c293f18c0c&#45;&gt;dir_2e574b6382041dc2a136b1675bed65ad -->
<g id="edge25" class="edge">
<title>dir_ba9f96492b222561776079c293f18c0c&#45;&gt;dir_2e574b6382041dc2a136b1675bed65ad</title>
<path fill="none" stroke="black" d="M114.56,-71.88C133.1,-61.81 156.61,-49.05 175.9,-38.59"/>
<polygon fill="black" stroke="black" points="177.58,-41.66 184.7,-33.81 174.24,-35.51 177.58,-41.66"/>
<g id="a_edge25&#45;headlabel"><a xlink:href="dir_000035_000005.html" target="_top" xlink:title="1">
<text text-anchor="middle" x="175.78" y="-43.37" font-family="Helvetica,sans-Serif" font-size="10.00">1</text>
</a>
</g>
</g>
<!-- dir_4d6c489bfc51616ec0a9cc5adedf0045&#45;&gt;dir_fcd037b3c61b82b39da2ca73b895b43c -->
<g id="edge30" class="edge">
<title>dir_4d6c489bfc51616ec0a9cc5adedf0045&#45;&gt;dir_fcd037b3c61b82b39da2ca73b895b43c</title>
<path fill="none" stroke="black" d="M377.99,-317.89C345.19,-329.73 289.51,-348.72 248.88,-361.97"/>
<polygon fill="black" stroke="black" points="247.59,-358.71 239.16,-365.13 249.75,-365.37 247.59,-358.71"/>
<g id="a_edge30&#45;headlabel"><a xlink:href="dir_000078_000072.html" target="_top" xlink:title="2">
<text text-anchor="middle" x="250.14" y="-352.4" font-family="Helvetica,sans-Serif" font-size="10.00">2</text>
</a>
</g>
</g>
<!-- dir_4d6c489bfc51616ec0a9cc5adedf0045&#45;&gt;dir_236e02cd02223a2412f137d7ad85069e -->
<g id="edge26" class="edge">
<title>dir_4d6c489bfc51616ec0a9cc5adedf0045&#45;&gt;dir_236e02cd02223a2412f137d7ad85069e</title>
<path fill="none" stroke="black" d="M405.6,-287.87C406.46,-263.67 408.02,-219.21 409.04,-190.39"/>
<polygon fill="black" stroke="black" points="412.54,-190.31 409.39,-180.19 405.54,-190.06 412.54,-190.31"/>
<g id="a_edge26&#45;headlabel"><a xlink:href="dir_000078_000074.html" target="_top" xlink:title="1">
<text text-anchor="middle" x="415.25" y="-191.5" font-family="Helvetica,sans-Serif" font-size="10.00">1</text>
</a>
</g>
</g>
<!-- dir_4d6c489bfc51616ec0a9cc5adedf0045&#45;&gt;dir_2e574b6382041dc2a136b1675bed65ad -->
<g id="edge27" class="edge">
<title>dir_4d6c489bfc51616ec0a9cc5adedf0045&#45;&gt;dir_2e574b6382041dc2a136b1675bed65ad</title>
<path fill="none" stroke="black" d="M422.8,-287.71C451.32,-257.82 501.48,-194.82 475,-144 431.27,-60.08 310.9,-32.06 249.33,-23.05"/>
<polygon fill="black" stroke="black" points="249.64,-19.56 239.26,-21.67 248.69,-26.5 249.64,-19.56"/>
<g id="a_edge27&#45;headlabel"><a xlink:href="dir_000078_000005.html" target="_top" xlink:title="8">
<text text-anchor="middle" x="253.59" y="-14.74" font-family="Helvetica,sans-Serif" font-size="10.00">8</text>
</a>
</g>
</g>
<!-- dir_4d6c489bfc51616ec0a9cc5adedf0045&#45;&gt;dir_e1b125331ccfd7597fbda9d04ae41b2d -->
<g id="edge28" class="edge">
<title>dir_4d6c489bfc51616ec0a9cc5adedf0045&#45;&gt;dir_e1b125331ccfd7597fbda9d04ae41b2d</title>
<path fill="none" stroke="black" d="M410.9,-324.1C411.7,-331.79 411.94,-341.05 411.6,-349.67"/>
<polygon fill="black" stroke="black" points="408.11,-349.48 410.92,-359.7 415.09,-349.96 408.11,-349.48"/>
<g id="a_edge28&#45;headlabel"><a xlink:href="dir_000078_000037.html" target="_top" xlink:title="16">
<text text-anchor="middle" x="405.52" y="-343.2" font-family="Helvetica,sans-Serif" font-size="10.00">16</text>
</a>
</g>
</g>
<!-- dir_4d6c489bfc51616ec0a9cc5adedf0045&#45;&gt;dir_9a9e2b7a8f13e92341bd3030ad46e690 -->
<g id="edge29" class="edge">
<title>dir_4d6c489bfc51616ec0a9cc5adedf0045&#45;&gt;dir_9a9e2b7a8f13e92341bd3030ad46e690</title>
<path fill="none" stroke="black" d="M377.96,-290.33C359.63,-280.38 335.14,-267.09 314.75,-256.03"/>
<polygon fill="black" stroke="black" points="316.17,-252.81 305.71,-251.12 312.83,-258.97 316.17,-252.81"/>
<g id="a_edge29&#45;headlabel"><a xlink:href="dir_000078_000079.html" target="_top" xlink:title="3">
<text text-anchor="middle" x="320.68" y="-249.53" font-family="Helvetica,sans-Serif" font-size="10.00">3</text>
</a>
</g>
</g>
<!-- dir_4d6c489bfc51616ec0a9cc5adedf0045&#45;&gt;dir_4a120dbb11348b2823d2a12dcab2f1e3 -->
<g id="edge31" class="edge">
<title>dir_4d6c489bfc51616ec0a9cc5adedf0045&#45;&gt;dir_4a120dbb11348b2823d2a12dcab2f1e3</title>
<path fill="none" stroke="black" d="M396.74,-287.63C385.28,-263.51 363.95,-218.5 346,-180 336.17,-158.93 325.15,-134.98 317.01,-117.24"/>
<polygon fill="black" stroke="black" points="320.16,-115.72 312.81,-108.08 313.8,-118.63 320.16,-115.72"/>
<g id="a_edge31&#45;headlabel"><a xlink:href="dir_000078_000002.html" target="_top" xlink:title="4">
<text text-anchor="middle" x="324.24" y="-115.3" font-family="Helvetica,sans-Serif" font-size="10.00">4</text>
</a>
</g>
</g>
</g>
</svg>
