<?xml version="1.0" encoding="UTF-8" standalone="no"?>
<!DOCTYPE svg PUBLIC "-//W3C//DTD SVG 1.1//EN"
 "http://www.w3.org/Graphics/SVG/1.1/DTD/svg11.dtd">
<!-- Generated by graphviz version 2.43.0 (0)
 -->
<!-- Title: Libs/RayLib/sources/Camera3D Pages: 1 -->
<svg width="157pt" height="223pt"
 viewBox="0.00 0.00 157.00 223.00" xmlns="http://www.w3.org/2000/svg" xmlns:xlink="http://www.w3.org/1999/xlink">
<g id="graph0" class="graph" transform="scale(1 1) rotate(0) translate(4 219)">
<title>Libs/RayLib/sources/Camera3D</title>
<polygon fill="white" stroke="transparent" points="-4,4 -4,-219 153,-219 153,4 -4,4"/>
<g id="clust1" class="cluster">
<title>clusterdir_b58f5cbef52144281201f92199ca772f</title>
<g id="a_clust1"><a xlink:href="dir_b58f5cbef52144281201f92199ca772f.html" target="_top" xlink:title="sources">
<polygon fill="#ddddee" stroke="black" points="8,-136 8,-207 92,-207 92,-136 8,-136"/>
<text text-anchor="middle" x="50" y="-195" font-family="Helvetica,sans-Serif" font-size="10.00">sources</text>
</a>
</g>
</g>
<!-- dir_43e46fc5bd88e477fe6a3fa9305049fc -->
<g id="node1" class="node">
<title>dir_43e46fc5bd88e477fe6a3fa9305049fc</title>
<g id="a_node1"><a xlink:href="dir_43e46fc5bd88e477fe6a3fa9305049fc.html" target="_top" xlink:title="Camera3D">
<polygon fill="#eeeeff" stroke="black" points="84,-180 16,-180 16,-144 84,-144 84,-180"/>
<text text-anchor="middle" x="50" y="-159.5" font-family="Helvetica,sans-Serif" font-size="10.00">Camera3D</text>
</a>
</g>
</g>
<!-- dir_42ef1f57a2f22e94d8ccc109a0fc3cde -->
<g id="node2" class="node">
<title>dir_42ef1f57a2f22e94d8ccc109a0fc3cde</title>
<g id="a_node2"><a xlink:href="dir_42ef1f57a2f22e94d8ccc109a0fc3cde.html" target="_top" xlink:title="Vector3">
<polygon fill="none" stroke="black" points="77,-36 23,-36 23,0 77,0 77,-36"/>
<text text-anchor="middle" x="50" y="-15.5" font-family="Helvetica,sans-Serif" font-size="10.00">Vector3</text>
</a>
</g>
</g>
<!-- dir_43e46fc5bd88e477fe6a3fa9305049fc&#45;&gt;dir_42ef1f57a2f22e94d8ccc109a0fc3cde -->
<g id="edge3" class="edge">
<title>dir_43e46fc5bd88e477fe6a3fa9305049fc&#45;&gt;dir_42ef1f57a2f22e94d8ccc109a0fc3cde</title>
<path fill="none" stroke="black" d="M34.39,-143.77C26.63,-134.03 18.05,-121.18 14,-108 9.3,-92.71 9.3,-87.29 14,-72 17.01,-62.22 22.51,-52.62 28.32,-44.33"/>
<polygon fill="black" stroke="black" points="31.19,-46.33 34.39,-36.23 25.59,-42.13 31.19,-46.33"/>
<g id="a_edge3&#45;headlabel"><a xlink:href="dir_000097_000119.html" target="_top" xlink:title="1">
<text text-anchor="middle" x="31.31" y="-48.41" font-family="Helvetica,sans-Serif" font-size="10.00">1</text>
</a>
</g>
</g>
<!-- dir_e5ddc3b8247be52796b2c5c9f83f8e6d -->
<g id="node3" class="node">
<title>dir_e5ddc3b8247be52796b2c5c9f83f8e6d</title>
<g id="a_node3"><a xlink:href="dir_e5ddc3b8247be52796b2c5c9f83f8e6d.html" target="_top" xlink:title="Vector2">
<polygon fill="none" stroke="black" points="77,-108 23,-108 23,-72 77,-72 77,-108"/>
<text text-anchor="middle" x="50" y="-87.5" font-family="Helvetica,sans-Serif" font-size="10.00">Vector2</text>
</a>
</g>
</g>
<!-- dir_43e46fc5bd88e477fe6a3fa9305049fc&#45;&gt;dir_e5ddc3b8247be52796b2c5c9f83f8e6d -->
<g id="edge4" class="edge">
<title>dir_43e46fc5bd88e477fe6a3fa9305049fc&#45;&gt;dir_e5ddc3b8247be52796b2c5c9f83f8e6d</title>
<path fill="none" stroke="black" d="M50,-143.7C50,-135.98 50,-126.71 50,-118.11"/>
<polygon fill="black" stroke="black" points="53.5,-118.1 50,-108.1 46.5,-118.1 53.5,-118.1"/>
<g id="a_edge4&#45;headlabel"><a xlink:href="dir_000097_000118.html" target="_top" xlink:title="1">
<text text-anchor="middle" x="56.34" y="-119.2" font-family="Helvetica,sans-Serif" font-size="10.00">1</text>
</a>
</g>
</g>
<!-- dir_7287b806c7df8c58a2ced2061b9de0c2 -->
<g id="node4" class="node">
<title>dir_7287b806c7df8c58a2ced2061b9de0c2</title>
<g id="a_node4"><a xlink:href="dir_7287b806c7df8c58a2ced2061b9de0c2.html" target="_top" xlink:title="Ray">
<polygon fill="none" stroke="black" points="149,-108 95,-108 95,-72 149,-72 149,-108"/>
<text text-anchor="middle" x="122" y="-87.5" font-family="Helvetica,sans-Serif" font-size="10.00">Ray</text>
</a>
</g>
</g>
<!-- dir_43e46fc5bd88e477fe6a3fa9305049fc&#45;&gt;dir_7287b806c7df8c58a2ced2061b9de0c2 -->
<g id="edge5" class="edge">
<title>dir_43e46fc5bd88e477fe6a3fa9305049fc&#45;&gt;dir_7287b806c7df8c58a2ced2061b9de0c2</title>
<path fill="none" stroke="black" d="M67.8,-143.7C76.6,-135.14 87.38,-124.66 97,-115.3"/>
<polygon fill="black" stroke="black" points="99.68,-117.58 104.41,-108.1 94.8,-112.57 99.68,-117.58"/>
<g id="a_edge5&#45;headlabel"><a xlink:href="dir_000097_000110.html" target="_top" xlink:title="1">
<text text-anchor="middle" x="99.08" y="-119.63" font-family="Helvetica,sans-Serif" font-size="10.00">1</text>
</a>
</g>
</g>
<!-- dir_e5ddc3b8247be52796b2c5c9f83f8e6d&#45;&gt;dir_42ef1f57a2f22e94d8ccc109a0fc3cde -->
<g id="edge1" class="edge">
<title>dir_e5ddc3b8247be52796b2c5c9f83f8e6d&#45;&gt;dir_42ef1f57a2f22e94d8ccc109a0fc3cde</title>
<path fill="none" stroke="black" d="M50,-71.7C50,-63.98 50,-54.71 50,-46.11"/>
<polygon fill="black" stroke="black" points="53.5,-46.1 50,-36.1 46.5,-46.1 53.5,-46.1"/>
<g id="a_edge1&#45;headlabel"><a xlink:href="dir_000118_000119.html" target="_top" xlink:title="1">
<text text-anchor="middle" x="56.34" y="-47.2" font-family="Helvetica,sans-Serif" font-size="10.00">1</text>
</a>
</g>
</g>
<!-- dir_7287b806c7df8c58a2ced2061b9de0c2&#45;&gt;dir_42ef1f57a2f22e94d8ccc109a0fc3cde -->
<g id="edge2" class="edge">
<title>dir_7287b806c7df8c58a2ced2061b9de0c2&#45;&gt;dir_42ef1f57a2f22e94d8ccc109a0fc3cde</title>
<path fill="none" stroke="black" d="M104.2,-71.7C95.4,-63.14 84.62,-52.66 75,-43.3"/>
<polygon fill="black" stroke="black" points="77.2,-40.57 67.59,-36.1 72.32,-45.58 77.2,-40.57"/>
<g id="a_edge2&#45;headlabel"><a xlink:href="dir_000110_000119.html" target="_top" xlink:title="1">
<text text-anchor="middle" x="81.76" y="-38.54" font-family="Helvetica,sans-Serif" font-size="10.00">1</text>
</a>
</g>
</g>
</g>
</svg>
