<?xml version="1.0" encoding="UTF-8" standalone="no"?>
<!DOCTYPE svg PUBLIC "-//W3C//DTD SVG 1.1//EN"
 "http://www.w3.org/Graphics/SVG/1.1/DTD/svg11.dtd">
<!-- Generated by graphviz version 2.43.0 (0)
 -->
<!-- Title: Libs/Engine/sources/GameConfiguration Pages: 1 -->
<svg width="283pt" height="223pt"
 viewBox="0.00 0.00 283.00 223.00" xmlns="http://www.w3.org/2000/svg" xmlns:xlink="http://www.w3.org/1999/xlink">
<g id="graph0" class="graph" transform="scale(1 1) rotate(0) translate(4 219)">
<title>Libs/Engine/sources/GameConfiguration</title>
<polygon fill="white" stroke="transparent" points="-4,4 -4,-219 279,-219 279,4 -4,4"/>
<g id="clust1" class="cluster">
<title>clusterdir_12f21af94f7aa2f818b030247191ed7e</title>
<g id="a_clust1"><a xlink:href="dir_12f21af94f7aa2f818b030247191ed7e.html" target="_top" xlink:title="sources">
<polygon fill="#ddddee" stroke="black" points="54,-136 54,-207 180,-207 180,-136 54,-136"/>
<text text-anchor="middle" x="117" y="-195" font-family="Helvetica,sans-Serif" font-size="10.00">sources</text>
</a>
</g>
</g>
<!-- dir_236e02cd02223a2412f137d7ad85069e -->
<g id="node1" class="node">
<title>dir_236e02cd02223a2412f137d7ad85069e</title>
<g id="a_node1"><a xlink:href="dir_236e02cd02223a2412f137d7ad85069e.html" target="_top" xlink:title="GameConfiguration">
<polygon fill="#eeeeff" stroke="black" points="172.5,-180 61.5,-180 61.5,-144 172.5,-144 172.5,-180"/>
<text text-anchor="middle" x="117" y="-159.5" font-family="Helvetica,sans-Serif" font-size="10.00">GameConfiguration</text>
</a>
</g>
</g>
<!-- dir_2e574b6382041dc2a136b1675bed65ad -->
<g id="node2" class="node">
<title>dir_2e574b6382041dc2a136b1675bed65ad</title>
<g id="a_node2"><a xlink:href="dir_2e574b6382041dc2a136b1675bed65ad.html" target="_top" xlink:title="RayLib">
<polygon fill="white" stroke="red" points="54,-36 0,-36 0,0 54,0 54,-36"/>
<text text-anchor="middle" x="27" y="-15.5" font-family="Helvetica,sans-Serif" font-size="10.00">RayLib</text>
</a>
</g>
</g>
<!-- dir_236e02cd02223a2412f137d7ad85069e&#45;&gt;dir_2e574b6382041dc2a136b1675bed65ad -->
<g id="edge1" class="edge">
<title>dir_236e02cd02223a2412f137d7ad85069e&#45;&gt;dir_2e574b6382041dc2a136b1675bed65ad</title>
<path fill="none" stroke="black" d="M61.35,-147.43C40.94,-139.48 19.94,-127.09 8,-108 -3.85,-89.07 3.18,-63.91 11.85,-45.17"/>
<polygon fill="black" stroke="black" points="15.09,-46.53 16.45,-36.02 8.83,-43.39 15.09,-46.53"/>
<g id="a_edge1&#45;headlabel"><a xlink:href="dir_000074_000005.html" target="_top" xlink:title="2">
<text text-anchor="middle" x="16.01" y="-48.52" font-family="Helvetica,sans-Serif" font-size="10.00">2</text>
</a>
</g>
</g>
<!-- dir_ea67397643a523edf1ca7cd26133a30b -->
<g id="node3" class="node">
<title>dir_ea67397643a523edf1ca7cd26133a30b</title>
<g id="a_node3"><a xlink:href="dir_ea67397643a523edf1ca7cd26133a30b.html" target="_top" xlink:title="TerrainGenerator">
<polygon fill="white" stroke="red" points="115,-108 17,-108 17,-72 115,-72 115,-108"/>
<text text-anchor="middle" x="66" y="-87.5" font-family="Helvetica,sans-Serif" font-size="10.00">TerrainGenerator</text>
</a>
</g>
</g>
<!-- dir_236e02cd02223a2412f137d7ad85069e&#45;&gt;dir_ea67397643a523edf1ca7cd26133a30b -->
<g id="edge2" class="edge">
<title>dir_236e02cd02223a2412f137d7ad85069e&#45;&gt;dir_ea67397643a523edf1ca7cd26133a30b</title>
<path fill="none" stroke="black" d="M104.39,-143.7C98.4,-135.47 91.12,-125.48 84.52,-116.42"/>
<polygon fill="black" stroke="black" points="87.18,-114.13 78.46,-108.1 81.52,-118.25 87.18,-114.13"/>
<g id="a_edge2&#45;headlabel"><a xlink:href="dir_000074_000006.html" target="_top" xlink:title="1">
<text text-anchor="middle" x="91.59" y="-112.86" font-family="Helvetica,sans-Serif" font-size="10.00">1</text>
</a>
</g>
</g>
<!-- dir_c5543cdc84e26c6148bf8505a526aef1 -->
<g id="node4" class="node">
<title>dir_c5543cdc84e26c6148bf8505a526aef1</title>
<g id="a_node4"><a xlink:href="dir_c5543cdc84e26c6148bf8505a526aef1.html" target="_top" xlink:title="Exceptions">
<polygon fill="none" stroke="black" points="203,-108 133,-108 133,-72 203,-72 203,-108"/>
<text text-anchor="middle" x="168" y="-87.5" font-family="Helvetica,sans-Serif" font-size="10.00">Exceptions</text>
</a>
</g>
</g>
<!-- dir_236e02cd02223a2412f137d7ad85069e&#45;&gt;dir_c5543cdc84e26c6148bf8505a526aef1 -->
<g id="edge3" class="edge">
<title>dir_236e02cd02223a2412f137d7ad85069e&#45;&gt;dir_c5543cdc84e26c6148bf8505a526aef1</title>
<path fill="none" stroke="black" d="M129.61,-143.7C135.6,-135.47 142.88,-125.48 149.48,-116.42"/>
<polygon fill="black" stroke="black" points="152.48,-118.25 155.54,-108.1 146.82,-114.13 152.48,-118.25"/>
<g id="a_edge3&#45;headlabel"><a xlink:href="dir_000074_000073.html" target="_top" xlink:title="1">
<text text-anchor="middle" x="152.66" y="-120.32" font-family="Helvetica,sans-Serif" font-size="10.00">1</text>
</a>
</g>
</g>
<!-- dir_4a120dbb11348b2823d2a12dcab2f1e3 -->
<g id="node5" class="node">
<title>dir_4a120dbb11348b2823d2a12dcab2f1e3</title>
<g id="a_node5"><a xlink:href="dir_4a120dbb11348b2823d2a12dcab2f1e3.html" target="_top" xlink:title="ECS">
<polygon fill="white" stroke="red" points="275,-108 221,-108 221,-72 275,-72 275,-108"/>
<text text-anchor="middle" x="248" y="-87.5" font-family="Helvetica,sans-Serif" font-size="10.00">ECS</text>
</a>
</g>
</g>
<!-- dir_236e02cd02223a2412f137d7ad85069e&#45;&gt;dir_4a120dbb11348b2823d2a12dcab2f1e3 -->
<g id="edge4" class="edge">
<title>dir_236e02cd02223a2412f137d7ad85069e&#45;&gt;dir_4a120dbb11348b2823d2a12dcab2f1e3</title>
<path fill="none" stroke="black" d="M149.05,-143.88C168.01,-133.74 192.09,-120.88 211.74,-110.37"/>
<polygon fill="black" stroke="black" points="213.54,-113.38 220.71,-105.58 210.24,-107.21 213.54,-113.38"/>
<g id="a_edge4&#45;headlabel"><a xlink:href="dir_000074_000002.html" target="_top" xlink:title="2">
<text text-anchor="middle" x="211.71" y="-115.08" font-family="Helvetica,sans-Serif" font-size="10.00">2</text>
</a>
</g>
</g>
<!-- dir_ea67397643a523edf1ca7cd26133a30b&#45;&gt;dir_2e574b6382041dc2a136b1675bed65ad -->
<g id="edge5" class="edge">
<title>dir_ea67397643a523edf1ca7cd26133a30b&#45;&gt;dir_2e574b6382041dc2a136b1675bed65ad</title>
<path fill="none" stroke="black" d="M56.36,-71.7C51.87,-63.64 46.44,-53.89 41.48,-44.98"/>
<polygon fill="black" stroke="black" points="44.45,-43.14 36.53,-36.1 38.34,-46.54 44.45,-43.14"/>
<g id="a_edge5&#45;headlabel"><a xlink:href="dir_000006_000005.html" target="_top" xlink:title="1">
<text text-anchor="middle" x="48.68" y="-42.39" font-family="Helvetica,sans-Serif" font-size="10.00">1</text>
</a>
</g>
</g>
</g>
</svg>
