<?xml version="1.0" encoding="UTF-8" standalone="no"?>
<!DOCTYPE svg PUBLIC "-//W3C//DTD SVG 1.1//EN"
 "http://www.w3.org/Graphics/SVG/1.1/DTD/svg11.dtd">
<!-- Generated by graphviz version 2.43.0 (0)
 -->
<!-- Title: Libs/Engine/sources/Components/Particle Pages: 1 -->
<svg width="367pt" height="223pt"
 viewBox="0.00 0.00 367.31 223.00" xmlns="http://www.w3.org/2000/svg" xmlns:xlink="http://www.w3.org/1999/xlink">
<g id="graph0" class="graph" transform="scale(1 1) rotate(0) translate(4 219)">
<title>Libs/Engine/sources/Components/Particle</title>
<polygon fill="white" stroke="transparent" points="-4,4 -4,-219 363.31,-219 363.31,4 -4,4"/>
<g id="clust1" class="cluster">
<title>clusterdir_e1b125331ccfd7597fbda9d04ae41b2d</title>
<g id="a_clust1"><a xlink:href="dir_e1b125331ccfd7597fbda9d04ae41b2d.html" target="_top" xlink:title="Components">
<polygon fill="#ddddee" stroke="black" points="107.81,-136 107.81,-207 185.81,-207 185.81,-136 107.81,-136"/>
<text text-anchor="middle" x="146.81" y="-195" font-family="Helvetica,sans-Serif" font-size="10.00">Components</text>
</a>
</g>
</g>
<!-- dir_9d41fff4ec7defd4dc64f5def95313ad -->
<g id="node1" class="node">
<title>dir_9d41fff4ec7defd4dc64f5def95313ad</title>
<g id="a_node1"><a xlink:href="dir_9d41fff4ec7defd4dc64f5def95313ad.html" target="_top" xlink:title="Particle">
<polygon fill="#eeeeff" stroke="black" points="173.81,-180 119.81,-180 119.81,-144 173.81,-144 173.81,-180"/>
<text text-anchor="middle" x="146.81" y="-159.5" font-family="Helvetica,sans-Serif" font-size="10.00">Particle</text>
</a>
</g>
</g>
<!-- dir_2e574b6382041dc2a136b1675bed65ad -->
<g id="node2" class="node">
<title>dir_2e574b6382041dc2a136b1675bed65ad</title>
<g id="a_node2"><a xlink:href="dir_2e574b6382041dc2a136b1675bed65ad.html" target="_top" xlink:title="RayLib">
<polygon fill="white" stroke="red" points="172.81,-36 118.81,-36 118.81,0 172.81,0 172.81,-36"/>
<text text-anchor="middle" x="145.81" y="-15.5" font-family="Helvetica,sans-Serif" font-size="10.00">RayLib</text>
</a>
</g>
</g>
<!-- dir_9d41fff4ec7defd4dc64f5def95313ad&#45;&gt;dir_2e574b6382041dc2a136b1675bed65ad -->
<g id="edge3" class="edge">
<title>dir_9d41fff4ec7defd4dc64f5def95313ad&#45;&gt;dir_2e574b6382041dc2a136b1675bed65ad</title>
<path fill="none" stroke="black" d="M119.69,-159.51C86.68,-156.06 32.22,-144.78 6.81,-108 -2.28,-94.83 -2.26,-85.18 6.81,-72 29.49,-39.09 75.54,-26.6 108.43,-21.87"/>
<polygon fill="black" stroke="black" points="109.11,-25.31 118.59,-20.59 108.23,-18.37 109.11,-25.31"/>
<g id="a_edge3&#45;headlabel"><a xlink:href="dir_000061_000005.html" target="_top" xlink:title="3">
<text text-anchor="middle" x="105.9" y="-26.08" font-family="Helvetica,sans-Serif" font-size="10.00">3</text>
</a>
</g>
</g>
<!-- dir_750ba15ba58b6b3310460b01ffa6b161 -->
<g id="node3" class="node">
<title>dir_750ba15ba58b6b3310460b01ffa6b161</title>
<g id="a_node3"><a xlink:href="dir_750ba15ba58b6b3310460b01ffa6b161.html" target="_top" xlink:title="PhysicsBody">
<polygon fill="none" stroke="black" points="93.81,-108 15.81,-108 15.81,-72 93.81,-72 93.81,-108"/>
<text text-anchor="middle" x="54.81" y="-87.5" font-family="Helvetica,sans-Serif" font-size="10.00">PhysicsBody</text>
</a>
</g>
</g>
<!-- dir_9d41fff4ec7defd4dc64f5def95313ad&#45;&gt;dir_750ba15ba58b6b3310460b01ffa6b161 -->
<g id="edge4" class="edge">
<title>dir_9d41fff4ec7defd4dc64f5def95313ad&#45;&gt;dir_750ba15ba58b6b3310460b01ffa6b161</title>
<path fill="none" stroke="black" d="M124.07,-143.7C112.38,-134.8 97.95,-123.82 85.3,-114.2"/>
<polygon fill="black" stroke="black" points="87.37,-111.37 77.29,-108.1 83.13,-116.94 87.37,-111.37"/>
<g id="a_edge4&#45;headlabel"><a xlink:href="dir_000061_000062.html" target="_top" xlink:title="1">
<text text-anchor="middle" x="91.95" y="-108.79" font-family="Helvetica,sans-Serif" font-size="10.00">1</text>
</a>
</g>
</g>
<!-- dir_d415c0d599231354676ceb56dc96abfc -->
<g id="node4" class="node">
<title>dir_d415c0d599231354676ceb56dc96abfc</title>
<g id="a_node4"><a xlink:href="dir_d415c0d599231354676ceb56dc96abfc.html" target="_top" xlink:title="IBehaviour">
<polygon fill="none" stroke="black" points="181.31,-108 112.31,-108 112.31,-72 181.31,-72 181.31,-108"/>
<text text-anchor="middle" x="146.81" y="-87.5" font-family="Helvetica,sans-Serif" font-size="10.00">IBehaviour</text>
</a>
</g>
</g>
<!-- dir_9d41fff4ec7defd4dc64f5def95313ad&#45;&gt;dir_d415c0d599231354676ceb56dc96abfc -->
<g id="edge5" class="edge">
<title>dir_9d41fff4ec7defd4dc64f5def95313ad&#45;&gt;dir_d415c0d599231354676ceb56dc96abfc</title>
<path fill="none" stroke="black" d="M146.81,-143.7C146.81,-135.98 146.81,-126.71 146.81,-118.11"/>
<polygon fill="black" stroke="black" points="150.31,-118.1 146.81,-108.1 143.31,-118.1 150.31,-118.1"/>
<g id="a_edge5&#45;headlabel"><a xlink:href="dir_000061_000058.html" target="_top" xlink:title="1">
<text text-anchor="middle" x="153.15" y="-119.2" font-family="Helvetica,sans-Serif" font-size="10.00">1</text>
</a>
</g>
</g>
<!-- dir_ead2403153bcb9f28373d1149c7d4c27 -->
<g id="node5" class="node">
<title>dir_ead2403153bcb9f28373d1149c7d4c27</title>
<g id="a_node5"><a xlink:href="dir_ead2403153bcb9f28373d1149c7d4c27.html" target="_top" xlink:title="Drawable3D">
<polygon fill="none" stroke="black" points="276.31,-108 199.31,-108 199.31,-72 276.31,-72 276.31,-108"/>
<text text-anchor="middle" x="237.81" y="-87.5" font-family="Helvetica,sans-Serif" font-size="10.00">Drawable3D</text>
</a>
</g>
</g>
<!-- dir_9d41fff4ec7defd4dc64f5def95313ad&#45;&gt;dir_ead2403153bcb9f28373d1149c7d4c27 -->
<g id="edge6" class="edge">
<title>dir_9d41fff4ec7defd4dc64f5def95313ad&#45;&gt;dir_ead2403153bcb9f28373d1149c7d4c27</title>
<path fill="none" stroke="black" d="M169.31,-143.7C180.77,-134.88 194.87,-124.03 207.3,-114.47"/>
<polygon fill="black" stroke="black" points="209.79,-116.98 215.58,-108.1 205.52,-111.43 209.79,-116.98"/>
<g id="a_edge6&#45;headlabel"><a xlink:href="dir_000061_000050.html" target="_top" xlink:title="1">
<text text-anchor="middle" x="208.67" y="-118.92" font-family="Helvetica,sans-Serif" font-size="10.00">1</text>
</a>
</g>
</g>
<!-- dir_9c1a1c874c5316598fbf40a566ddc437 -->
<g id="node6" class="node">
<title>dir_9c1a1c874c5316598fbf40a566ddc437</title>
<g id="a_node6"><a xlink:href="dir_9c1a1c874c5316598fbf40a566ddc437.html" target="_top" xlink:title="Transform">
<polygon fill="none" stroke="black" points="359.31,-108 294.31,-108 294.31,-72 359.31,-72 359.31,-108"/>
<text text-anchor="middle" x="326.81" y="-87.5" font-family="Helvetica,sans-Serif" font-size="10.00">Transform</text>
</a>
</g>
</g>
<!-- dir_9d41fff4ec7defd4dc64f5def95313ad&#45;&gt;dir_9c1a1c874c5316598fbf40a566ddc437 -->
<g id="edge7" class="edge">
<title>dir_9d41fff4ec7defd4dc64f5def95313ad&#45;&gt;dir_9c1a1c874c5316598fbf40a566ddc437</title>
<path fill="none" stroke="black" d="M174.07,-150.87C200.3,-141.07 241.28,-125.6 284.84,-108.34"/>
<polygon fill="black" stroke="black" points="286.18,-111.58 294.18,-104.63 283.59,-105.07 286.18,-111.58"/>
<g id="a_edge7&#45;headlabel"><a xlink:href="dir_000061_000071.html" target="_top" xlink:title="1">
<text text-anchor="middle" x="283.88" y="-113.04" font-family="Helvetica,sans-Serif" font-size="10.00">1</text>
</a>
</g>
</g>
<!-- dir_750ba15ba58b6b3310460b01ffa6b161&#45;&gt;dir_2e574b6382041dc2a136b1675bed65ad -->
<g id="edge1" class="edge">
<title>dir_750ba15ba58b6b3310460b01ffa6b161&#45;&gt;dir_2e574b6382041dc2a136b1675bed65ad</title>
<path fill="none" stroke="black" d="M77.31,-71.7C88.77,-62.88 102.87,-52.03 115.3,-42.47"/>
<polygon fill="black" stroke="black" points="117.79,-44.98 123.58,-36.1 113.52,-39.43 117.79,-44.98"/>
<g id="a_edge1&#45;headlabel"><a xlink:href="dir_000062_000005.html" target="_top" xlink:title="1">
<text text-anchor="middle" x="116.67" y="-46.92" font-family="Helvetica,sans-Serif" font-size="10.00">1</text>
</a>
</g>
</g>
<!-- dir_ead2403153bcb9f28373d1149c7d4c27&#45;&gt;dir_2e574b6382041dc2a136b1675bed65ad -->
<g id="edge2" class="edge">
<title>dir_ead2403153bcb9f28373d1149c7d4c27&#45;&gt;dir_2e574b6382041dc2a136b1675bed65ad</title>
<path fill="none" stroke="black" d="M215.07,-71.7C203.38,-62.8 188.95,-51.82 176.3,-42.2"/>
<polygon fill="black" stroke="black" points="178.37,-39.37 168.29,-36.1 174.13,-44.94 178.37,-39.37"/>
<g id="a_edge2&#45;headlabel"><a xlink:href="dir_000050_000005.html" target="_top" xlink:title="3">
<text text-anchor="middle" x="182.95" y="-36.79" font-family="Helvetica,sans-Serif" font-size="10.00">3</text>
</a>
</g>
</g>
<!-- dir_9c1a1c874c5316598fbf40a566ddc437&#45;&gt;dir_2e574b6382041dc2a136b1675bed65ad -->
<g id="edge8" class="edge">
<title>dir_9c1a1c874c5316598fbf40a566ddc437&#45;&gt;dir_2e574b6382041dc2a136b1675bed65ad</title>
<path fill="none" stroke="black" d="M294.18,-75.36C291.35,-74.21 288.54,-73.08 285.81,-72 250.91,-58.16 210.82,-43.06 182.51,-32.53"/>
<polygon fill="black" stroke="black" points="183.6,-29.21 173.01,-29.01 181.17,-35.77 183.6,-29.21"/>
<g id="a_edge8&#45;headlabel"><a xlink:href="dir_000071_000005.html" target="_top" xlink:title="1">
<text text-anchor="middle" x="187.96" y="-25.3" font-family="Helvetica,sans-Serif" font-size="10.00">1</text>
</a>
</g>
</g>
</g>
</svg>
