<?xml version="1.0" encoding="UTF-8" standalone="no"?>
<!DOCTYPE svg PUBLIC "-//W3C//DTD SVG 1.1//EN"
 "http://www.w3.org/Graphics/SVG/1.1/DTD/svg11.dtd">
<!-- Generated by graphviz version 2.43.0 (0)
 -->
<!-- Title: Libs/Engine/sources/ModelShader/TerrainShader Pages: 1 -->
<svg width="144pt" height="223pt"
 viewBox="0.00 0.00 144.00 223.00" xmlns="http://www.w3.org/2000/svg" xmlns:xlink="http://www.w3.org/1999/xlink">
<g id="graph0" class="graph" transform="scale(1 1) rotate(0) translate(4 219)">
<title>Libs/Engine/sources/ModelShader/TerrainShader</title>
<polygon fill="white" stroke="transparent" points="-4,4 -4,-219 140,-219 140,4 -4,4"/>
<g id="clust1" class="cluster">
<title>clusterdir_410b9e5e5923f3d338ad2cc3fc994ccd</title>
<g id="a_clust1"><a xlink:href="dir_410b9e5e5923f3d338ad2cc3fc994ccd.html" target="_top" xlink:title="ModelShader">
<polygon fill="#ddddee" stroke="black" points="8,-136 8,-207 108,-207 108,-136 8,-136"/>
<text text-anchor="middle" x="58" y="-195" font-family="Helvetica,sans-Serif" font-size="10.00">ModelShader</text>
</a>
</g>
</g>
<!-- dir_831c0b5d9bc7aa9da0fa880f33b4af3d -->
<g id="node1" class="node">
<title>dir_831c0b5d9bc7aa9da0fa880f33b4af3d</title>
<g id="a_node1"><a xlink:href="dir_831c0b5d9bc7aa9da0fa880f33b4af3d.html" target="_top" xlink:title="TerrainShader">
<polygon fill="#eeeeff" stroke="black" points="99.5,-180 16.5,-180 16.5,-144 99.5,-144 99.5,-180"/>
<text text-anchor="middle" x="58" y="-159.5" font-family="Helvetica,sans-Serif" font-size="10.00">TerrainShader</text>
</a>
</g>
</g>
<!-- dir_2e574b6382041dc2a136b1675bed65ad -->
<g id="node2" class="node">
<title>dir_2e574b6382041dc2a136b1675bed65ad</title>
<g id="a_node2"><a xlink:href="dir_2e574b6382041dc2a136b1675bed65ad.html" target="_top" xlink:title="RayLib">
<polygon fill="white" stroke="red" points="84,-36 30,-36 30,0 84,0 84,-36"/>
<text text-anchor="middle" x="57" y="-15.5" font-family="Helvetica,sans-Serif" font-size="10.00">RayLib</text>
</a>
</g>
</g>
<!-- dir_831c0b5d9bc7aa9da0fa880f33b4af3d&#45;&gt;dir_2e574b6382041dc2a136b1675bed65ad -->
<g id="edge1" class="edge">
<title>dir_831c0b5d9bc7aa9da0fa880f33b4af3d&#45;&gt;dir_2e574b6382041dc2a136b1675bed65ad</title>
<path fill="none" stroke="black" d="M50.93,-143.67C47.16,-133.47 42.91,-120.22 41,-108 38.53,-92.19 38.66,-87.83 41,-72 42.28,-63.35 44.67,-54.15 47.22,-45.89"/>
<polygon fill="black" stroke="black" points="50.55,-46.96 50.35,-36.37 43.9,-44.78 50.55,-46.96"/>
<g id="a_edge1&#45;headlabel"><a xlink:href="dir_000077_000005.html" target="_top" xlink:title="2">
<text text-anchor="middle" x="52.12" y="-48.77" font-family="Helvetica,sans-Serif" font-size="10.00">2</text>
</a>
</g>
</g>
<!-- dir_ba9f96492b222561776079c293f18c0c -->
<g id="node3" class="node">
<title>dir_ba9f96492b222561776079c293f18c0c</title>
<g id="a_node3"><a xlink:href="dir_ba9f96492b222561776079c293f18c0c.html" target="_top" xlink:title="AssetManager">
<polygon fill="white" stroke="red" points="136,-108 50,-108 50,-72 136,-72 136,-108"/>
<text text-anchor="middle" x="93" y="-87.5" font-family="Helvetica,sans-Serif" font-size="10.00">AssetManager</text>
</a>
</g>
</g>
<!-- dir_831c0b5d9bc7aa9da0fa880f33b4af3d&#45;&gt;dir_ba9f96492b222561776079c293f18c0c -->
<g id="edge2" class="edge">
<title>dir_831c0b5d9bc7aa9da0fa880f33b4af3d&#45;&gt;dir_ba9f96492b222561776079c293f18c0c</title>
<path fill="none" stroke="black" d="M66.65,-143.7C70.64,-135.73 75.45,-126.1 79.87,-117.26"/>
<polygon fill="black" stroke="black" points="83.11,-118.61 84.45,-108.1 76.85,-115.48 83.11,-118.61"/>
<g id="a_edge2&#45;headlabel"><a xlink:href="dir_000077_000035.html" target="_top" xlink:title="1">
<text text-anchor="middle" x="84.04" y="-120.6" font-family="Helvetica,sans-Serif" font-size="10.00">1</text>
</a>
</g>
</g>
<!-- dir_ba9f96492b222561776079c293f18c0c&#45;&gt;dir_2e574b6382041dc2a136b1675bed65ad -->
<g id="edge3" class="edge">
<title>dir_ba9f96492b222561776079c293f18c0c&#45;&gt;dir_2e574b6382041dc2a136b1675bed65ad</title>
<path fill="none" stroke="black" d="M84.1,-71.7C80,-63.73 75.05,-54.1 70.51,-45.26"/>
<polygon fill="black" stroke="black" points="73.48,-43.4 65.8,-36.1 67.26,-46.6 73.48,-43.4"/>
<g id="a_edge3&#45;headlabel"><a xlink:href="dir_000035_000005.html" target="_top" xlink:title="1">
<text text-anchor="middle" x="77.65" y="-42.79" font-family="Helvetica,sans-Serif" font-size="10.00">1</text>
</a>
</g>
</g>
</g>
</svg>
