<?xml version="1.0" encoding="UTF-8" standalone="no"?>
<!DOCTYPE svg PUBLIC "-//W3C//DTD SVG 1.1//EN"
 "http://www.w3.org/Graphics/SVG/1.1/DTD/svg11.dtd">
<!-- Generated by graphviz version 2.43.0 (0)
 -->
<!-- Title: Libs/Engine/sources/Components/SpeedBoost Pages: 1 -->
<svg width="299pt" height="223pt"
 viewBox="0.00 0.00 299.18 223.00" xmlns="http://www.w3.org/2000/svg" xmlns:xlink="http://www.w3.org/1999/xlink">
<g id="graph0" class="graph" transform="scale(1 1) rotate(0) translate(4 219)">
<title>Libs/Engine/sources/Components/SpeedBoost</title>
<polygon fill="white" stroke="transparent" points="-4,4 -4,-219 295.18,-219 295.18,4 -4,4"/>
<g id="clust1" class="cluster">
<title>clusterdir_e1b125331ccfd7597fbda9d04ae41b2d</title>
<g id="a_clust1"><a xlink:href="dir_e1b125331ccfd7597fbda9d04ae41b2d.html" target="_top" xlink:title="Components">
<polygon fill="#ddddee" stroke="black" points="97.49,-136 97.49,-207 187.49,-207 187.49,-136 97.49,-136"/>
<text text-anchor="middle" x="142.49" y="-195" font-family="Helvetica,sans-Serif" font-size="10.00">Components</text>
</a>
</g>
</g>
<!-- dir_8061bf3e4d6d34cd8d904be5f6e8ab30 -->
<g id="node1" class="node">
<title>dir_8061bf3e4d6d34cd8d904be5f6e8ab30</title>
<g id="a_node1"><a xlink:href="dir_8061bf3e4d6d34cd8d904be5f6e8ab30.html" target="_top" xlink:title="SpeedBoost">
<polygon fill="#eeeeff" stroke="black" points="179.49,-180 105.49,-180 105.49,-144 179.49,-144 179.49,-180"/>
<text text-anchor="middle" x="142.49" y="-159.5" font-family="Helvetica,sans-Serif" font-size="10.00">SpeedBoost</text>
</a>
</g>
</g>
<!-- dir_236e02cd02223a2412f137d7ad85069e -->
<g id="node2" class="node">
<title>dir_236e02cd02223a2412f137d7ad85069e</title>
<g id="a_node2"><a xlink:href="dir_236e02cd02223a2412f137d7ad85069e.html" target="_top" xlink:title="GameConfiguration">
<polygon fill="none" stroke="black" points="277.99,-36 166.99,-36 166.99,0 277.99,0 277.99,-36"/>
<text text-anchor="middle" x="222.49" y="-15.5" font-family="Helvetica,sans-Serif" font-size="10.00">GameConfiguration</text>
</a>
</g>
</g>
<!-- dir_8061bf3e4d6d34cd8d904be5f6e8ab30&#45;&gt;dir_236e02cd02223a2412f137d7ad85069e -->
<g id="edge7" class="edge">
<title>dir_8061bf3e4d6d34cd8d904be5f6e8ab30&#45;&gt;dir_236e02cd02223a2412f137d7ad85069e</title>
<path fill="none" stroke="black" d="M153.8,-143.52C160.33,-133.28 168.58,-120.03 175.49,-108 187.38,-87.29 199.97,-63.32 209.13,-45.48"/>
<polygon fill="black" stroke="black" points="212.41,-46.76 213.83,-36.26 206.17,-43.58 212.41,-46.76"/>
<g id="a_edge7&#45;headlabel"><a xlink:href="dir_000066_000074.html" target="_top" xlink:title="1">
<text text-anchor="middle" x="213.3" y="-48.75" font-family="Helvetica,sans-Serif" font-size="10.00">1</text>
</a>
</g>
</g>
<!-- dir_dc579f58a389c8033c170553eedf4653 -->
<g id="node3" class="node">
<title>dir_dc579f58a389c8033c170553eedf4653</title>
<g id="a_node3"><a xlink:href="dir_dc579f58a389c8033c170553eedf4653.html" target="_top" xlink:title="AIAlgo">
<polygon fill="none" stroke="black" points="277.49,-108 223.49,-108 223.49,-72 277.49,-72 277.49,-108"/>
<text text-anchor="middle" x="250.49" y="-87.5" font-family="Helvetica,sans-Serif" font-size="10.00">AIAlgo</text>
</a>
</g>
</g>
<!-- dir_8061bf3e4d6d34cd8d904be5f6e8ab30&#45;&gt;dir_dc579f58a389c8033c170553eedf4653 -->
<g id="edge8" class="edge">
<title>dir_8061bf3e4d6d34cd8d904be5f6e8ab30&#45;&gt;dir_dc579f58a389c8033c170553eedf4653</title>
<path fill="none" stroke="black" d="M168.91,-143.88C182.9,-134.81 200.26,-123.55 215.37,-113.76"/>
<polygon fill="black" stroke="black" points="217.48,-116.57 223.97,-108.19 213.67,-110.69 217.48,-116.57"/>
<g id="a_edge8&#45;headlabel"><a xlink:href="dir_000066_000039.html" target="_top" xlink:title="1">
<text text-anchor="middle" x="216.01" y="-118.4" font-family="Helvetica,sans-Serif" font-size="10.00">1</text>
</a>
</g>
</g>
<!-- dir_6651b4ac6e617e944283cd6ed9b4c080 -->
<g id="node4" class="node">
<title>dir_6651b4ac6e617e944283cd6ed9b4c080</title>
<g id="a_node4"><a xlink:href="dir_6651b4ac6e617e944283cd6ed9b4c080.html" target="_top" xlink:title="AController">
<polygon fill="none" stroke="black" points="88.99,-36 17.99,-36 17.99,0 88.99,0 88.99,-36"/>
<text text-anchor="middle" x="53.49" y="-15.5" font-family="Helvetica,sans-Serif" font-size="10.00">AController</text>
</a>
</g>
</g>
<!-- dir_8061bf3e4d6d34cd8d904be5f6e8ab30&#45;&gt;dir_6651b4ac6e617e944283cd6ed9b4c080 -->
<g id="edge9" class="edge">
<title>dir_8061bf3e4d6d34cd8d904be5f6e8ab30&#45;&gt;dir_6651b4ac6e617e944283cd6ed9b4c080</title>
<path fill="none" stroke="black" d="M105.46,-157.94C73.05,-153.08 27.76,-140.5 5.49,-108 -8.75,-87.22 8.05,-61.77 25.57,-43.42"/>
<polygon fill="black" stroke="black" points="28.4,-45.55 33.04,-36.02 23.47,-40.57 28.4,-45.55"/>
<g id="a_edge9&#45;headlabel"><a xlink:href="dir_000066_000038.html" target="_top" xlink:title="1">
<text text-anchor="middle" x="27.84" y="-47.59" font-family="Helvetica,sans-Serif" font-size="10.00">1</text>
</a>
</g>
</g>
<!-- dir_fcd037b3c61b82b39da2ca73b895b43c -->
<g id="node5" class="node">
<title>dir_fcd037b3c61b82b39da2ca73b895b43c</title>
<g id="a_node5"><a xlink:href="dir_fcd037b3c61b82b39da2ca73b895b43c.html" target="_top" xlink:title="EntityFactory">
<polygon fill="none" stroke="black" points="285.49,-180 205.49,-180 205.49,-144 285.49,-144 285.49,-180"/>
<text text-anchor="middle" x="245.49" y="-159.5" font-family="Helvetica,sans-Serif" font-size="10.00">EntityFactory</text>
</a>
</g>
</g>
<!-- dir_8061bf3e4d6d34cd8d904be5f6e8ab30&#45;&gt;dir_fcd037b3c61b82b39da2ca73b895b43c -->
<g id="edge10" class="edge">
<title>dir_8061bf3e4d6d34cd8d904be5f6e8ab30&#45;&gt;dir_fcd037b3c61b82b39da2ca73b895b43c</title>
<path fill="none" stroke="black" d="M179.5,-162C184.74,-162 189.97,-162 195.21,-162"/>
<polygon fill="black" stroke="black" points="195.28,-165.5 205.28,-162 195.28,-158.5 195.28,-165.5"/>
<g id="a_edge10&#45;headlabel"><a xlink:href="dir_000066_000072.html" target="_top" xlink:title="1">
<text text-anchor="middle" x="191.68" y="-165.84" font-family="Helvetica,sans-Serif" font-size="10.00">1</text>
</a>
</g>
</g>
<!-- dir_7a66e7c408b3aaf201ae5404d9a52624 -->
<g id="node6" class="node">
<title>dir_7a66e7c408b3aaf201ae5404d9a52624</title>
<g id="a_node6"><a xlink:href="dir_7a66e7c408b3aaf201ae5404d9a52624.html" target="_top" xlink:title="PlayerInputs">
<polygon fill="none" stroke="black" points="91.99,-108 14.99,-108 14.99,-72 91.99,-72 91.99,-108"/>
<text text-anchor="middle" x="53.49" y="-87.5" font-family="Helvetica,sans-Serif" font-size="10.00">PlayerInputs</text>
</a>
</g>
</g>
<!-- dir_8061bf3e4d6d34cd8d904be5f6e8ab30&#45;&gt;dir_7a66e7c408b3aaf201ae5404d9a52624 -->
<g id="edge11" class="edge">
<title>dir_8061bf3e4d6d34cd8d904be5f6e8ab30&#45;&gt;dir_7a66e7c408b3aaf201ae5404d9a52624</title>
<path fill="none" stroke="black" d="M120.49,-143.7C109.28,-134.88 95.48,-124.03 83.33,-114.47"/>
<polygon fill="black" stroke="black" points="85.26,-111.54 75.23,-108.1 80.93,-117.04 85.26,-111.54"/>
<g id="a_edge11&#45;headlabel"><a xlink:href="dir_000066_000063.html" target="_top" xlink:title="1">
<text text-anchor="middle" x="89.84" y="-109.03" font-family="Helvetica,sans-Serif" font-size="10.00">1</text>
</a>
</g>
</g>
<!-- dir_738912799028094ce36fed405e8b3a50 -->
<g id="node7" class="node">
<title>dir_738912799028094ce36fed405e8b3a50</title>
<g id="a_node7"><a xlink:href="dir_738912799028094ce36fed405e8b3a50.html" target="_top" xlink:title="APickUp">
<polygon fill="none" stroke="black" points="166.99,-108 109.99,-108 109.99,-72 166.99,-72 166.99,-108"/>
<text text-anchor="middle" x="138.49" y="-87.5" font-family="Helvetica,sans-Serif" font-size="10.00">APickUp</text>
</a>
</g>
</g>
<!-- dir_8061bf3e4d6d34cd8d904be5f6e8ab30&#45;&gt;dir_738912799028094ce36fed405e8b3a50 -->
<g id="edge12" class="edge">
<title>dir_8061bf3e4d6d34cd8d904be5f6e8ab30&#45;&gt;dir_738912799028094ce36fed405e8b3a50</title>
<path fill="none" stroke="black" d="M141.5,-143.7C141.06,-135.98 140.53,-126.71 140.04,-118.11"/>
<polygon fill="black" stroke="black" points="143.53,-117.89 139.46,-108.1 136.54,-118.29 143.53,-117.89"/>
<g id="a_edge12&#45;headlabel"><a xlink:href="dir_000066_000041.html" target="_top" xlink:title="1">
<text text-anchor="middle" x="146.57" y="-118.82" font-family="Helvetica,sans-Serif" font-size="10.00">1</text>
</a>
</g>
</g>
<!-- dir_dc579f58a389c8033c170553eedf4653&#45;&gt;dir_236e02cd02223a2412f137d7ad85069e -->
<g id="edge1" class="edge">
<title>dir_dc579f58a389c8033c170553eedf4653&#45;&gt;dir_236e02cd02223a2412f137d7ad85069e</title>
<path fill="none" stroke="black" d="M243.57,-71.7C240.41,-63.81 236.61,-54.3 233.11,-45.55"/>
<polygon fill="black" stroke="black" points="236.29,-44.09 229.33,-36.1 229.79,-46.69 236.29,-44.09"/>
<g id="a_edge1&#45;headlabel"><a xlink:href="dir_000039_000074.html" target="_top" xlink:title="1">
<text text-anchor="middle" x="240.26" y="-43.87" font-family="Helvetica,sans-Serif" font-size="10.00">1</text>
</a>
</g>
</g>
<!-- dir_dc579f58a389c8033c170553eedf4653&#45;&gt;dir_6651b4ac6e617e944283cd6ed9b4c080 -->
<g id="edge2" class="edge">
<title>dir_dc579f58a389c8033c170553eedf4653&#45;&gt;dir_6651b4ac6e617e944283cd6ed9b4c080</title>
<path fill="none" stroke="black" d="M223.09,-79.27C191.07,-67.89 137.57,-48.88 99.21,-35.25"/>
<polygon fill="black" stroke="black" points="99.91,-31.78 89.32,-31.73 97.57,-38.38 99.91,-31.78"/>
<g id="a_edge2&#45;headlabel"><a xlink:href="dir_000039_000038.html" target="_top" xlink:title="1">
<text text-anchor="middle" x="104.25" y="-27.81" font-family="Helvetica,sans-Serif" font-size="10.00">1</text>
</a>
</g>
</g>
<!-- dir_fcd037b3c61b82b39da2ca73b895b43c&#45;&gt;dir_8061bf3e4d6d34cd8d904be5f6e8ab30 -->
<g id="edge5" class="edge">
<title>dir_fcd037b3c61b82b39da2ca73b895b43c&#45;&gt;dir_8061bf3e4d6d34cd8d904be5f6e8ab30</title>
<path fill="none" stroke="black" d="M205.28,-162C200.04,-162 194.81,-162 189.57,-162"/>
<polygon fill="black" stroke="black" points="189.5,-158.5 179.5,-162 189.5,-165.5 189.5,-158.5"/>
<g id="a_edge5&#45;headlabel"><a xlink:href="dir_000072_000066.html" target="_top" xlink:title="1">
<text text-anchor="middle" x="193.1" y="-153.16" font-family="Helvetica,sans-Serif" font-size="10.00">1</text>
</a>
</g>
</g>
<!-- dir_fcd037b3c61b82b39da2ca73b895b43c&#45;&gt;dir_236e02cd02223a2412f137d7ad85069e -->
<g id="edge3" class="edge">
<title>dir_fcd037b3c61b82b39da2ca73b895b43c&#45;&gt;dir_236e02cd02223a2412f137d7ad85069e</title>
<path fill="none" stroke="black" d="M263.66,-143.68C272.37,-134.1 281.9,-121.43 286.49,-108 291.66,-92.86 293.3,-86.48 286.49,-72 280.96,-60.26 271.42,-50.22 261.36,-42.15"/>
<polygon fill="black" stroke="black" points="263.36,-39.27 253.26,-36.09 259.18,-44.88 263.36,-39.27"/>
<g id="a_edge3&#45;headlabel"><a xlink:href="dir_000072_000074.html" target="_top" xlink:title="1">
<text text-anchor="middle" x="267.94" y="-36.65" font-family="Helvetica,sans-Serif" font-size="10.00">1</text>
</a>
</g>
</g>
<!-- dir_fcd037b3c61b82b39da2ca73b895b43c&#45;&gt;dir_dc579f58a389c8033c170553eedf4653 -->
<g id="edge4" class="edge">
<title>dir_fcd037b3c61b82b39da2ca73b895b43c&#45;&gt;dir_dc579f58a389c8033c170553eedf4653</title>
<path fill="none" stroke="black" d="M246.72,-143.7C247.27,-135.98 247.94,-126.71 248.55,-118.11"/>
<polygon fill="black" stroke="black" points="252.04,-118.33 249.27,-108.1 245.06,-117.83 252.04,-118.33"/>
<g id="a_edge4&#45;headlabel"><a xlink:href="dir_000072_000039.html" target="_top" xlink:title="1">
<text text-anchor="middle" x="254.62" y="-119.62" font-family="Helvetica,sans-Serif" font-size="10.00">1</text>
</a>
</g>
</g>
<!-- dir_fcd037b3c61b82b39da2ca73b895b43c&#45;&gt;dir_7a66e7c408b3aaf201ae5404d9a52624 -->
<g id="edge6" class="edge">
<title>dir_fcd037b3c61b82b39da2ca73b895b43c&#45;&gt;dir_7a66e7c408b3aaf201ae5404d9a52624</title>
<path fill="none" stroke="black" d="M210.34,-143.9C204.12,-141.11 197.66,-138.37 191.49,-136 154.75,-121.92 142.35,-121.42 101.86,-108.35"/>
<polygon fill="black" stroke="black" points="102.76,-104.96 92.16,-105.16 100.57,-111.61 102.76,-104.96"/>
<g id="a_edge6&#45;headlabel"><a xlink:href="dir_000072_000063.html" target="_top" xlink:title="1">
<text text-anchor="middle" x="107.06" y="-100.89" font-family="Helvetica,sans-Serif" font-size="10.00">1</text>
</a>
</g>
</g>
<!-- dir_7a66e7c408b3aaf201ae5404d9a52624&#45;&gt;dir_6651b4ac6e617e944283cd6ed9b4c080 -->
<g id="edge13" class="edge">
<title>dir_7a66e7c408b3aaf201ae5404d9a52624&#45;&gt;dir_6651b4ac6e617e944283cd6ed9b4c080</title>
<path fill="none" stroke="black" d="M53.49,-71.7C53.49,-63.98 53.49,-54.71 53.49,-46.11"/>
<polygon fill="black" stroke="black" points="56.99,-46.1 53.49,-36.1 49.99,-46.1 56.99,-46.1"/>
<g id="a_edge13&#45;headlabel"><a xlink:href="dir_000063_000038.html" target="_top" xlink:title="1">
<text text-anchor="middle" x="59.83" y="-47.2" font-family="Helvetica,sans-Serif" font-size="10.00">1</text>
</a>
</g>
</g>
<!-- dir_738912799028094ce36fed405e8b3a50&#45;&gt;dir_236e02cd02223a2412f137d7ad85069e -->
<g id="edge14" class="edge">
<title>dir_738912799028094ce36fed405e8b3a50&#45;&gt;dir_236e02cd02223a2412f137d7ad85069e</title>
<path fill="none" stroke="black" d="M159.25,-71.7C169.73,-62.97 182.6,-52.24 193.99,-42.75"/>
<polygon fill="black" stroke="black" points="196.52,-45.19 201.96,-36.1 192.04,-39.82 196.52,-45.19"/>
<g id="a_edge14&#45;headlabel"><a xlink:href="dir_000041_000074.html" target="_top" xlink:title="1">
<text text-anchor="middle" x="195.58" y="-47.18" font-family="Helvetica,sans-Serif" font-size="10.00">1</text>
</a>
</g>
</g>
</g>
</svg>
