<?xml version="1.0" encoding="UTF-8" standalone="no"?>
<!DOCTYPE svg PUBLIC "-//W3C//DTD SVG 1.1//EN"
 "http://www.w3.org/Graphics/SVG/1.1/DTD/svg11.dtd">
<!-- Generated by graphviz version 2.43.0 (0)
 -->
<!-- Title: Libs/RayLib/sources/Mesh Pages: 1 -->
<svg width="206pt" height="151pt"
 viewBox="0.00 0.00 206.00 151.00" xmlns="http://www.w3.org/2000/svg" xmlns:xlink="http://www.w3.org/1999/xlink">
<g id="graph0" class="graph" transform="scale(1 1) rotate(0) translate(4 147)">
<title>Libs/RayLib/sources/Mesh</title>
<polygon fill="white" stroke="transparent" points="-4,4 -4,-147 202,-147 202,4 -4,4"/>
<g id="clust1" class="cluster">
<title>clusterdir_b58f5cbef52144281201f92199ca772f</title>
<g id="a_clust1"><a xlink:href="dir_b58f5cbef52144281201f92199ca772f.html" target="_top" xlink:title="sources">
<polygon fill="#ddddee" stroke="black" points="64,-64 64,-135 134,-135 134,-64 64,-64"/>
<text text-anchor="middle" x="99" y="-123" font-family="Helvetica,sans-Serif" font-size="10.00">sources</text>
</a>
</g>
</g>
<!-- dir_440fe1e7d50a3264735b827df84ecc71 -->
<g id="node1" class="node">
<title>dir_440fe1e7d50a3264735b827df84ecc71</title>
<g id="a_node1"><a xlink:href="dir_440fe1e7d50a3264735b827df84ecc71.html" target="_top" xlink:title="Mesh">
<polygon fill="#eeeeff" stroke="black" points="126,-108 72,-108 72,-72 126,-72 126,-108"/>
<text text-anchor="middle" x="99" y="-87.5" font-family="Helvetica,sans-Serif" font-size="10.00">Mesh</text>
</a>
</g>
</g>
<!-- dir_a20e3d58a77f7aec7eaa75bb031705ad -->
<g id="node2" class="node">
<title>dir_a20e3d58a77f7aec7eaa75bb031705ad</title>
<g id="a_node2"><a xlink:href="dir_a20e3d58a77f7aec7eaa75bb031705ad.html" target="_top" xlink:title="IAsset">
<polygon fill="none" stroke="black" points="54,-36 0,-36 0,0 54,0 54,-36"/>
<text text-anchor="middle" x="27" y="-15.5" font-family="Helvetica,sans-Serif" font-size="10.00">IAsset</text>
</a>
</g>
</g>
<!-- dir_440fe1e7d50a3264735b827df84ecc71&#45;&gt;dir_a20e3d58a77f7aec7eaa75bb031705ad -->
<g id="edge1" class="edge">
<title>dir_440fe1e7d50a3264735b827df84ecc71&#45;&gt;dir_a20e3d58a77f7aec7eaa75bb031705ad</title>
<path fill="none" stroke="black" d="M81.2,-71.7C72.4,-63.14 61.62,-52.66 52,-43.3"/>
<polygon fill="black" stroke="black" points="54.2,-40.57 44.59,-36.1 49.32,-45.58 54.2,-40.57"/>
<g id="a_edge1&#45;headlabel"><a xlink:href="dir_000105_000101.html" target="_top" xlink:title="1">
<text text-anchor="middle" x="58.76" y="-38.54" font-family="Helvetica,sans-Serif" font-size="10.00">1</text>
</a>
</g>
</g>
<!-- dir_42ef1f57a2f22e94d8ccc109a0fc3cde -->
<g id="node3" class="node">
<title>dir_42ef1f57a2f22e94d8ccc109a0fc3cde</title>
<g id="a_node3"><a xlink:href="dir_42ef1f57a2f22e94d8ccc109a0fc3cde.html" target="_top" xlink:title="Vector3">
<polygon fill="none" stroke="black" points="126,-36 72,-36 72,0 126,0 126,-36"/>
<text text-anchor="middle" x="99" y="-15.5" font-family="Helvetica,sans-Serif" font-size="10.00">Vector3</text>
</a>
</g>
</g>
<!-- dir_440fe1e7d50a3264735b827df84ecc71&#45;&gt;dir_42ef1f57a2f22e94d8ccc109a0fc3cde -->
<g id="edge2" class="edge">
<title>dir_440fe1e7d50a3264735b827df84ecc71&#45;&gt;dir_42ef1f57a2f22e94d8ccc109a0fc3cde</title>
<path fill="none" stroke="black" d="M99,-71.7C99,-63.98 99,-54.71 99,-46.11"/>
<polygon fill="black" stroke="black" points="102.5,-46.1 99,-36.1 95.5,-46.1 102.5,-46.1"/>
<g id="a_edge2&#45;headlabel"><a xlink:href="dir_000105_000119.html" target="_top" xlink:title="1">
<text text-anchor="middle" x="105.34" y="-47.2" font-family="Helvetica,sans-Serif" font-size="10.00">1</text>
</a>
</g>
</g>
<!-- dir_2d1eb0aa0b8866aa6ce4d53e36ce0d15 -->
<g id="node4" class="node">
<title>dir_2d1eb0aa0b8866aa6ce4d53e36ce0d15</title>
<g id="a_node4"><a xlink:href="dir_2d1eb0aa0b8866aa6ce4d53e36ce0d15.html" target="_top" xlink:title="Image">
<polygon fill="none" stroke="black" points="198,-36 144,-36 144,0 198,0 198,-36"/>
<text text-anchor="middle" x="171" y="-15.5" font-family="Helvetica,sans-Serif" font-size="10.00">Image</text>
</a>
</g>
</g>
<!-- dir_440fe1e7d50a3264735b827df84ecc71&#45;&gt;dir_2d1eb0aa0b8866aa6ce4d53e36ce0d15 -->
<g id="edge3" class="edge">
<title>dir_440fe1e7d50a3264735b827df84ecc71&#45;&gt;dir_2d1eb0aa0b8866aa6ce4d53e36ce0d15</title>
<path fill="none" stroke="black" d="M116.8,-71.7C125.6,-63.14 136.38,-52.66 146,-43.3"/>
<polygon fill="black" stroke="black" points="148.68,-45.58 153.41,-36.1 143.8,-40.57 148.68,-45.58"/>
<g id="a_edge3&#45;headlabel"><a xlink:href="dir_000105_000103.html" target="_top" xlink:title="1">
<text text-anchor="middle" x="148.08" y="-47.63" font-family="Helvetica,sans-Serif" font-size="10.00">1</text>
</a>
</g>
</g>
</g>
</svg>
