<?xml version="1.0" encoding="UTF-8" standalone="no"?>
<!DOCTYPE svg PUBLIC "-//W3C//DTD SVG 1.1//EN"
 "http://www.w3.org/Graphics/SVG/1.1/DTD/svg11.dtd">
<!-- Generated by graphviz version 2.43.0 (0)
 -->
<!-- Title: Libs/Engine Pages: 1 -->
<svg width="326pt" height="375pt"
 viewBox="0.00 0.00 326.09 375.00" xmlns="http://www.w3.org/2000/svg" xmlns:xlink="http://www.w3.org/1999/xlink">
<g id="graph0" class="graph" transform="scale(1 1) rotate(0) translate(4 371)">
<title>Libs/Engine</title>
<polygon fill="white" stroke="transparent" points="-4,4 -4,-371 322.09,-371 322.09,4 -4,4"/>
<g id="clust1" class="cluster">
<title>clusterdir_6e6cb9563333489fde7459b1f95e59a5</title>
<g id="a_clust1"><a xlink:href="dir_6e6cb9563333489fde7459b1f95e59a5.html" target="_top" xlink:title="Libs">
<polygon fill="#ddddee" stroke="black" points="45.09,-200 45.09,-359 203.09,-359 203.09,-200 45.09,-200"/>
<text text-anchor="middle" x="124.09" y="-347" font-family="Helvetica,sans-Serif" font-size="10.00">Libs</text>
</a>
</g>
</g>
<g id="clust2" class="cluster">
<title>clusterdir_2bfc07ec199f106d892954a69be8200a</title>
<g id="a_clust2"><a xlink:href="dir_2bfc07ec199f106d892954a69be8200a.html" target="_top">
<polygon fill="#eeeeff" stroke="black" points="53.09,-208 53.09,-332 195.09,-332 195.09,-208 53.09,-208"/>
</a>
</g>
</g>
<!-- dir_2bfc07ec199f106d892954a69be8200a -->
<g id="node1" class="node">
<title>dir_2bfc07ec199f106d892954a69be8200a</title>
<text text-anchor="middle" x="160.09" y="-303.5" font-family="Helvetica,sans-Serif" font-size="10.00">Engine</text>
</g>
<!-- dir_12f21af94f7aa2f818b030247191ed7e -->
<g id="node2" class="node">
<title>dir_12f21af94f7aa2f818b030247191ed7e</title>
<g id="a_node2"><a xlink:href="dir_12f21af94f7aa2f818b030247191ed7e.html" target="_top" xlink:title="sources">
<polygon fill="white" stroke="red" points="151.09,-252 97.09,-252 97.09,-216 151.09,-216 151.09,-252"/>
<text text-anchor="middle" x="124.09" y="-231.5" font-family="Helvetica,sans-Serif" font-size="10.00">sources</text>
</a>
</g>
</g>
<!-- dir_39e02a65a8e8da5bae3d3dbe68a49458 -->
<g id="node4" class="node">
<title>dir_39e02a65a8e8da5bae3d3dbe68a49458</title>
<g id="a_node4"><a xlink:href="dir_39e02a65a8e8da5bae3d3dbe68a49458.html" target="_top" xlink:title="XMLGenerator">
<polygon fill="white" stroke="red" points="91.09,-36 5.09,-36 5.09,0 91.09,0 91.09,-36"/>
<text text-anchor="middle" x="48.09" y="-15.5" font-family="Helvetica,sans-Serif" font-size="10.00">XMLGenerator</text>
</a>
</g>
</g>
<!-- dir_12f21af94f7aa2f818b030247191ed7e&#45;&gt;dir_39e02a65a8e8da5bae3d3dbe68a49458 -->
<g id="edge9" class="edge">
<title>dir_12f21af94f7aa2f818b030247191ed7e&#45;&gt;dir_39e02a65a8e8da5bae3d3dbe68a49458</title>
<path fill="none" stroke="black" d="M96.99,-226.12C74.39,-218.8 43.63,-204.75 29.09,-180 4.45,-138.03 21.77,-79.3 35.6,-45.6"/>
<polygon fill="black" stroke="black" points="38.83,-46.96 39.56,-36.39 32.4,-44.2 38.83,-46.96"/>
<g id="a_edge9&#45;headlabel"><a xlink:href="dir_000034_000007.html" target="_top" xlink:title="1">
<text text-anchor="middle" x="40.02" y="-48.88" font-family="Helvetica,sans-Serif" font-size="10.00">1</text>
</a>
</g>
</g>
<!-- dir_402206ef4f5d43d9b8083ea2790770a1 -->
<g id="node5" class="node">
<title>dir_402206ef4f5d43d9b8083ea2790770a1</title>
<g id="a_node5"><a xlink:href="dir_402206ef4f5d43d9b8083ea2790770a1.html" target="_top" xlink:title="Lua">
<polygon fill="white" stroke="red" points="246.09,-180 192.09,-180 192.09,-144 246.09,-144 246.09,-180"/>
<text text-anchor="middle" x="219.09" y="-159.5" font-family="Helvetica,sans-Serif" font-size="10.00">Lua</text>
</a>
</g>
</g>
<!-- dir_12f21af94f7aa2f818b030247191ed7e&#45;&gt;dir_402206ef4f5d43d9b8083ea2790770a1 -->
<g id="edge10" class="edge">
<title>dir_12f21af94f7aa2f818b030247191ed7e&#45;&gt;dir_402206ef4f5d43d9b8083ea2790770a1</title>
<path fill="none" stroke="black" d="M147.58,-215.7C159.66,-206.8 174.55,-195.82 187.61,-186.2"/>
<polygon fill="black" stroke="black" points="189.91,-188.85 195.88,-180.1 185.75,-183.22 189.91,-188.85"/>
<g id="a_edge10&#45;headlabel"><a xlink:href="dir_000034_000004.html" target="_top" xlink:title="1">
<text text-anchor="middle" x="188.7" y="-190.77" font-family="Helvetica,sans-Serif" font-size="10.00">1</text>
</a>
</g>
</g>
<!-- dir_2e574b6382041dc2a136b1675bed65ad -->
<g id="node6" class="node">
<title>dir_2e574b6382041dc2a136b1675bed65ad</title>
<g id="a_node6"><a xlink:href="dir_2e574b6382041dc2a136b1675bed65ad.html" target="_top" xlink:title="RayLib">
<polygon fill="white" stroke="red" points="114.09,-108 60.09,-108 60.09,-72 114.09,-72 114.09,-108"/>
<text text-anchor="middle" x="87.09" y="-87.5" font-family="Helvetica,sans-Serif" font-size="10.00">RayLib</text>
</a>
</g>
</g>
<!-- dir_12f21af94f7aa2f818b030247191ed7e&#45;&gt;dir_2e574b6382041dc2a136b1675bed65ad -->
<g id="edge11" class="edge">
<title>dir_12f21af94f7aa2f818b030247191ed7e&#45;&gt;dir_2e574b6382041dc2a136b1675bed65ad</title>
<path fill="none" stroke="black" d="M134.53,-215.67C144.16,-197.29 155.53,-167.68 145.09,-144 140.06,-132.59 131.23,-122.57 121.95,-114.41"/>
<polygon fill="black" stroke="black" points="124.08,-111.62 114.13,-107.99 119.64,-117.04 124.08,-111.62"/>
<g id="a_edge11&#45;headlabel"><a xlink:href="dir_000034_000005.html" target="_top" xlink:title="83">
<text text-anchor="middle" x="128.66" y="-109.21" font-family="Helvetica,sans-Serif" font-size="10.00">83</text>
</a>
</g>
</g>
<!-- dir_ea67397643a523edf1ca7cd26133a30b -->
<g id="node7" class="node">
<title>dir_ea67397643a523edf1ca7cd26133a30b</title>
<g id="a_node7"><a xlink:href="dir_ea67397643a523edf1ca7cd26133a30b.html" target="_top" xlink:title="TerrainGenerator">
<polygon fill="white" stroke="red" points="136.09,-180 38.09,-180 38.09,-144 136.09,-144 136.09,-180"/>
<text text-anchor="middle" x="87.09" y="-159.5" font-family="Helvetica,sans-Serif" font-size="10.00">TerrainGenerator</text>
</a>
</g>
</g>
<!-- dir_12f21af94f7aa2f818b030247191ed7e&#45;&gt;dir_ea67397643a523edf1ca7cd26133a30b -->
<g id="edge12" class="edge">
<title>dir_12f21af94f7aa2f818b030247191ed7e&#45;&gt;dir_ea67397643a523edf1ca7cd26133a30b</title>
<path fill="none" stroke="black" d="M114.95,-215.7C110.69,-207.64 105.54,-197.89 100.83,-188.98"/>
<polygon fill="black" stroke="black" points="103.9,-187.31 96.13,-180.1 97.71,-190.58 103.9,-187.31"/>
<g id="a_edge12&#45;headlabel"><a xlink:href="dir_000034_000006.html" target="_top" xlink:title="2">
<text text-anchor="middle" x="108.09" y="-186.66" font-family="Helvetica,sans-Serif" font-size="10.00">2</text>
</a>
</g>
</g>
<!-- dir_4a120dbb11348b2823d2a12dcab2f1e3 -->
<g id="node8" class="node">
<title>dir_4a120dbb11348b2823d2a12dcab2f1e3</title>
<g id="a_node8"><a xlink:href="dir_4a120dbb11348b2823d2a12dcab2f1e3.html" target="_top" xlink:title="ECS">
<polygon fill="white" stroke="red" points="318.09,-180 264.09,-180 264.09,-144 318.09,-144 318.09,-180"/>
<text text-anchor="middle" x="291.09" y="-159.5" font-family="Helvetica,sans-Serif" font-size="10.00">ECS</text>
</a>
</g>
</g>
<!-- dir_12f21af94f7aa2f818b030247191ed7e&#45;&gt;dir_4a120dbb11348b2823d2a12dcab2f1e3 -->
<g id="edge13" class="edge">
<title>dir_12f21af94f7aa2f818b030247191ed7e&#45;&gt;dir_4a120dbb11348b2823d2a12dcab2f1e3</title>
<path fill="none" stroke="black" d="M151.12,-222.58C175.87,-212.93 213.68,-197.9 254.69,-180.07"/>
<polygon fill="black" stroke="black" points="256.28,-183.19 264.04,-175.98 253.48,-176.78 256.28,-183.19"/>
<g id="a_edge13&#45;headlabel"><a xlink:href="dir_000034_000002.html" target="_top" xlink:title="59">
<text text-anchor="middle" x="254.13" y="-184.73" font-family="Helvetica,sans-Serif" font-size="10.00">59</text>
</a>
</g>
</g>
<!-- dir_7a2d12546a5d2d9d9aea2001147ef0f9 -->
<g id="node3" class="node">
<title>dir_7a2d12546a5d2d9d9aea2001147ef0f9</title>
<g id="a_node3"><a xlink:href="dir_7a2d12546a5d2d9d9aea2001147ef0f9.html" target="_top" xlink:title="tests">
<polygon fill="white" stroke="black" points="115.09,-324 61.09,-324 61.09,-288 115.09,-288 115.09,-324"/>
<text text-anchor="middle" x="88.09" y="-303.5" font-family="Helvetica,sans-Serif" font-size="10.00">tests</text>
</a>
</g>
</g>
<!-- dir_7a2d12546a5d2d9d9aea2001147ef0f9&#45;&gt;dir_12f21af94f7aa2f818b030247191ed7e -->
<g id="edge4" class="edge">
<title>dir_7a2d12546a5d2d9d9aea2001147ef0f9&#45;&gt;dir_12f21af94f7aa2f818b030247191ed7e</title>
<path fill="none" stroke="black" d="M96.99,-287.7C101.09,-279.73 106.04,-270.1 110.59,-261.26"/>
<polygon fill="black" stroke="black" points="113.84,-262.6 115.3,-252.1 107.61,-259.4 113.84,-262.6"/>
<g id="a_edge4&#45;headlabel"><a xlink:href="dir_000089_000034.html" target="_top" xlink:title="4">
<text text-anchor="middle" x="114.72" y="-264.59" font-family="Helvetica,sans-Serif" font-size="10.00">4</text>
</a>
</g>
</g>
<!-- dir_7a2d12546a5d2d9d9aea2001147ef0f9&#45;&gt;dir_39e02a65a8e8da5bae3d3dbe68a49458 -->
<g id="edge1" class="edge">
<title>dir_7a2d12546a5d2d9d9aea2001147ef0f9&#45;&gt;dir_39e02a65a8e8da5bae3d3dbe68a49458</title>
<path fill="none" stroke="black" d="M62.59,-287.77C51.04,-278.56 38.36,-266.19 31.09,-252 -5.5,-180.5 -6.98,-149.22 15.09,-72 17.81,-62.51 22.76,-53.06 28.03,-44.83"/>
<polygon fill="black" stroke="black" points="31.02,-46.67 33.77,-36.43 25.24,-42.72 31.02,-46.67"/>
<g id="a_edge1&#45;headlabel"><a xlink:href="dir_000089_000007.html" target="_top" xlink:title="1">
<text text-anchor="middle" x="31.33" y="-48.74" font-family="Helvetica,sans-Serif" font-size="10.00">1</text>
</a>
</g>
</g>
<!-- dir_7a2d12546a5d2d9d9aea2001147ef0f9&#45;&gt;dir_2e574b6382041dc2a136b1675bed65ad -->
<g id="edge2" class="edge">
<title>dir_7a2d12546a5d2d9d9aea2001147ef0f9&#45;&gt;dir_2e574b6382041dc2a136b1675bed65ad</title>
<path fill="none" stroke="black" d="M76.87,-287.68C62.48,-264.34 38.28,-220.98 29.09,-180 25.59,-164.39 22.64,-158.64 29.09,-144 34.12,-132.59 42.95,-122.57 52.23,-114.41"/>
<polygon fill="black" stroke="black" points="54.54,-117.04 60.06,-107.99 50.11,-111.62 54.54,-117.04"/>
<g id="a_edge2&#45;headlabel"><a xlink:href="dir_000089_000005.html" target="_top" xlink:title="3">
<text text-anchor="middle" x="53.56" y="-119.01" font-family="Helvetica,sans-Serif" font-size="10.00">3</text>
</a>
</g>
</g>
<!-- dir_7a2d12546a5d2d9d9aea2001147ef0f9&#45;&gt;dir_4a120dbb11348b2823d2a12dcab2f1e3 -->
<g id="edge3" class="edge">
<title>dir_7a2d12546a5d2d9d9aea2001147ef0f9&#45;&gt;dir_4a120dbb11348b2823d2a12dcab2f1e3</title>
<path fill="none" stroke="black" d="M112.58,-287.87C149.01,-262.39 217.54,-214.45 258.27,-185.96"/>
<polygon fill="black" stroke="black" points="260.33,-188.79 266.52,-180.19 256.32,-183.05 260.33,-188.79"/>
<g id="a_edge3&#45;headlabel"><a xlink:href="dir_000089_000002.html" target="_top" xlink:title="1">
<text text-anchor="middle" x="259.01" y="-190.68" font-family="Helvetica,sans-Serif" font-size="10.00">1</text>
</a>
</g>
</g>
<!-- dir_402206ef4f5d43d9b8083ea2790770a1&#45;&gt;dir_2e574b6382041dc2a136b1675bed65ad -->
<g id="edge5" class="edge">
<title>dir_402206ef4f5d43d9b8083ea2790770a1&#45;&gt;dir_2e574b6382041dc2a136b1675bed65ad</title>
<path fill="none" stroke="black" d="M192.06,-146.67C172.26,-136.17 145.17,-121.8 123.47,-110.29"/>
<polygon fill="black" stroke="black" points="125.02,-107.15 114.54,-105.56 121.74,-113.33 125.02,-107.15"/>
<g id="a_edge5&#45;headlabel"><a xlink:href="dir_000004_000005.html" target="_top" xlink:title="2">
<text text-anchor="middle" x="129.52" y="-103.82" font-family="Helvetica,sans-Serif" font-size="10.00">2</text>
</a>
</g>
</g>
<!-- dir_2e574b6382041dc2a136b1675bed65ad&#45;&gt;dir_39e02a65a8e8da5bae3d3dbe68a49458 -->
<g id="edge6" class="edge">
<title>dir_2e574b6382041dc2a136b1675bed65ad&#45;&gt;dir_39e02a65a8e8da5bae3d3dbe68a49458</title>
<path fill="none" stroke="black" d="M77.45,-71.7C72.97,-63.64 67.53,-53.89 62.57,-44.98"/>
<polygon fill="black" stroke="black" points="65.55,-43.14 57.62,-36.1 59.43,-46.54 65.55,-43.14"/>
<g id="a_edge6&#45;headlabel"><a xlink:href="dir_000005_000007.html" target="_top" xlink:title="2">
<text text-anchor="middle" x="69.78" y="-42.39" font-family="Helvetica,sans-Serif" font-size="10.00">2</text>
</a>
</g>
</g>
<!-- dir_ea67397643a523edf1ca7cd26133a30b&#45;&gt;dir_2e574b6382041dc2a136b1675bed65ad -->
<g id="edge7" class="edge">
<title>dir_ea67397643a523edf1ca7cd26133a30b&#45;&gt;dir_2e574b6382041dc2a136b1675bed65ad</title>
<path fill="none" stroke="black" d="M87.09,-143.7C87.09,-135.98 87.09,-126.71 87.09,-118.11"/>
<polygon fill="black" stroke="black" points="90.59,-118.1 87.09,-108.1 83.59,-118.1 90.59,-118.1"/>
<g id="a_edge7&#45;headlabel"><a xlink:href="dir_000006_000005.html" target="_top" xlink:title="1">
<text text-anchor="middle" x="93.43" y="-119.2" font-family="Helvetica,sans-Serif" font-size="10.00">1</text>
</a>
</g>
</g>
<!-- dir_4a120dbb11348b2823d2a12dcab2f1e3&#45;&gt;dir_39e02a65a8e8da5bae3d3dbe68a49458 -->
<g id="edge8" class="edge">
<title>dir_4a120dbb11348b2823d2a12dcab2f1e3&#45;&gt;dir_39e02a65a8e8da5bae3d3dbe68a49458</title>
<path fill="none" stroke="black" d="M263.69,-144.99C220.22,-119.59 135.35,-69.99 86.05,-41.18"/>
<polygon fill="black" stroke="black" points="87.68,-38.08 77.28,-36.06 84.15,-44.12 87.68,-38.08"/>
<g id="a_edge8&#45;headlabel"><a xlink:href="dir_000002_000007.html" target="_top" xlink:title="1">
<text text-anchor="middle" x="92.22" y="-34.94" font-family="Helvetica,sans-Serif" font-size="10.00">1</text>
</a>
</g>
</g>
</g>
</svg>
