<?xml version="1.0" encoding="UTF-8" standalone="no"?>
<!DOCTYPE svg PUBLIC "-//W3C//DTD SVG 1.1//EN"
 "http://www.w3.org/Graphics/SVG/1.1/DTD/svg11.dtd">
<!-- Generated by graphviz version 2.43.0 (0)
 -->
<!-- Title: Libs/ECS/tests/StorageComponent Pages: 1 -->
<svg width="150pt" height="151pt"
 viewBox="0.00 0.00 150.00 151.00" xmlns="http://www.w3.org/2000/svg" xmlns:xlink="http://www.w3.org/1999/xlink">
<g id="graph0" class="graph" transform="scale(1 1) rotate(0) translate(4 147)">
<title>Libs/ECS/tests/StorageComponent</title>
<polygon fill="white" stroke="transparent" points="-4,4 -4,-147 146,-147 146,4 -4,4"/>
<g id="clust1" class="cluster">
<title>clusterdir_4af903cecc07d9ccb647b97b7ac72f87</title>
<g id="a_clust1"><a xlink:href="dir_4af903cecc07d9ccb647b97b7ac72f87.html" target="_top" xlink:title="tests">
<polygon fill="#ddddee" stroke="black" points="8,-64 8,-135 134,-135 134,-64 8,-64"/>
<text text-anchor="middle" x="71" y="-123" font-family="Helvetica,sans-Serif" font-size="10.00">tests</text>
</a>
</g>
</g>
<!-- dir_a97e75f625941a617dd06ce722e99309 -->
<g id="node1" class="node">
<title>dir_a97e75f625941a617dd06ce722e99309</title>
<g id="a_node1"><a xlink:href="dir_a97e75f625941a617dd06ce722e99309.html" target="_top" xlink:title="StorageComponent">
<polygon fill="#eeeeff" stroke="black" points="126,-108 16,-108 16,-72 126,-72 126,-108"/>
<text text-anchor="middle" x="71" y="-87.5" font-family="Helvetica,sans-Serif" font-size="10.00">StorageComponent</text>
</a>
</g>
</g>
<!-- dir_01f7e9a8ddc73edbc1248d272f2c3911 -->
<g id="node2" class="node">
<title>dir_01f7e9a8ddc73edbc1248d272f2c3911</title>
<g id="a_node2"><a xlink:href="dir_01f7e9a8ddc73edbc1248d272f2c3911.html" target="_top" xlink:title="sources">
<polygon fill="white" stroke="red" points="98,-36 44,-36 44,0 98,0 98,-36"/>
<text text-anchor="middle" x="71" y="-15.5" font-family="Helvetica,sans-Serif" font-size="10.00">sources</text>
</a>
</g>
</g>
<!-- dir_a97e75f625941a617dd06ce722e99309&#45;&gt;dir_01f7e9a8ddc73edbc1248d272f2c3911 -->
<g id="edge1" class="edge">
<title>dir_a97e75f625941a617dd06ce722e99309&#45;&gt;dir_01f7e9a8ddc73edbc1248d272f2c3911</title>
<path fill="none" stroke="black" d="M71,-71.7C71,-63.98 71,-54.71 71,-46.11"/>
<polygon fill="black" stroke="black" points="74.5,-46.1 71,-36.1 67.5,-46.1 74.5,-46.1"/>
<g id="a_edge1&#45;headlabel"><a xlink:href="dir_000033_000019.html" target="_top" xlink:title="1">
<text text-anchor="middle" x="77.34" y="-47.2" font-family="Helvetica,sans-Serif" font-size="10.00">1</text>
</a>
</g>
</g>
</g>
</svg>
