<?xml version="1.0" encoding="UTF-8" standalone="no"?>
<!DOCTYPE svg PUBLIC "-//W3C//DTD SVG 1.1//EN"
 "http://www.w3.org/Graphics/SVG/1.1/DTD/svg11.dtd">
<!-- Generated by graphviz version 2.43.0 (0)
 -->
<!-- Title: Libs/Engine/sources/Scenes Pages: 1 -->
<svg width="501pt" height="439pt"
 viewBox="0.00 0.00 501.03 439.00" xmlns="http://www.w3.org/2000/svg" xmlns:xlink="http://www.w3.org/1999/xlink">
<g id="graph0" class="graph" transform="scale(1 1) rotate(0) translate(4 435)">
<title>Libs/Engine/sources/Scenes</title>
<polygon fill="white" stroke="transparent" points="-4,4 -4,-435 497.03,-435 497.03,4 -4,4"/>
<g id="clust1" class="cluster">
<title>clusterdir_12f21af94f7aa2f818b030247191ed7e</title>
<g id="a_clust1"><a xlink:href="dir_12f21af94f7aa2f818b030247191ed7e.html" target="_top" xlink:title="sources">
<polygon fill="#ddddee" stroke="black" points="296,-352 296,-423 366,-423 366,-352 296,-352"/>
<text text-anchor="middle" x="331" y="-411" font-family="Helvetica,sans-Serif" font-size="10.00">sources</text>
</a>
</g>
</g>
<!-- dir_4d6c489bfc51616ec0a9cc5adedf0045 -->
<g id="node1" class="node">
<title>dir_4d6c489bfc51616ec0a9cc5adedf0045</title>
<g id="a_node1"><a xlink:href="dir_4d6c489bfc51616ec0a9cc5adedf0045.html" target="_top" xlink:title="Scenes">
<polygon fill="#eeeeff" stroke="black" points="358,-396 304,-396 304,-360 358,-360 358,-396"/>
<text text-anchor="middle" x="331" y="-375.5" font-family="Helvetica,sans-Serif" font-size="10.00">Scenes</text>
</a>
</g>
</g>
<!-- dir_236e02cd02223a2412f137d7ad85069e -->
<g id="node2" class="node">
<title>dir_236e02cd02223a2412f137d7ad85069e</title>
<g id="a_node2"><a xlink:href="dir_236e02cd02223a2412f137d7ad85069e.html" target="_top" xlink:title="GameConfiguration">
<polygon fill="none" stroke="black" points="329.5,-180 218.5,-180 218.5,-144 329.5,-144 329.5,-180"/>
<text text-anchor="middle" x="274" y="-159.5" font-family="Helvetica,sans-Serif" font-size="10.00">GameConfiguration</text>
</a>
</g>
</g>
<!-- dir_4d6c489bfc51616ec0a9cc5adedf0045&#45;&gt;dir_236e02cd02223a2412f137d7ad85069e -->
<g id="edge21" class="edge">
<title>dir_4d6c489bfc51616ec0a9cc5adedf0045&#45;&gt;dir_236e02cd02223a2412f137d7ad85069e</title>
<path fill="none" stroke="black" d="M330.72,-359.99C329.73,-329.99 325.44,-266.13 307,-216 303.54,-206.59 298.27,-197.05 292.95,-188.72"/>
<polygon fill="black" stroke="black" points="295.72,-186.56 287.24,-180.2 289.9,-190.46 295.72,-186.56"/>
<g id="a_edge21&#45;headlabel"><a xlink:href="dir_000078_000074.html" target="_top" xlink:title="1">
<text text-anchor="middle" x="300.08" y="-185.47" font-family="Helvetica,sans-Serif" font-size="10.00">1</text>
</a>
</g>
</g>
<!-- dir_2e574b6382041dc2a136b1675bed65ad -->
<g id="node3" class="node">
<title>dir_2e574b6382041dc2a136b1675bed65ad</title>
<g id="a_node3"><a xlink:href="dir_2e574b6382041dc2a136b1675bed65ad.html" target="_top" xlink:title="RayLib">
<polygon fill="white" stroke="red" points="335,-36 281,-36 281,0 335,0 335,-36"/>
<text text-anchor="middle" x="308" y="-15.5" font-family="Helvetica,sans-Serif" font-size="10.00">RayLib</text>
</a>
</g>
</g>
<!-- dir_4d6c489bfc51616ec0a9cc5adedf0045&#45;&gt;dir_2e574b6382041dc2a136b1675bed65ad -->
<g id="edge22" class="edge">
<title>dir_4d6c489bfc51616ec0a9cc5adedf0045&#45;&gt;dir_2e574b6382041dc2a136b1675bed65ad</title>
<path fill="none" stroke="black" d="M358.14,-367.34C403.79,-349.14 491,-305.19 491,-235 491,-235 491,-235 491,-161 491,-120.55 499.1,-102.02 472,-72 439.56,-36.06 382.62,-24.38 345.11,-20.65"/>
<polygon fill="black" stroke="black" points="345.34,-17.16 335.08,-19.79 344.74,-24.13 345.34,-17.16"/>
<g id="a_edge22&#45;headlabel"><a xlink:href="dir_000078_000005.html" target="_top" xlink:title="8">
<text text-anchor="middle" x="349.16" y="-12.13" font-family="Helvetica,sans-Serif" font-size="10.00">8</text>
</a>
</g>
</g>
<!-- dir_e1b125331ccfd7597fbda9d04ae41b2d -->
<g id="node4" class="node">
<title>dir_e1b125331ccfd7597fbda9d04ae41b2d</title>
<g id="a_node4"><a xlink:href="dir_e1b125331ccfd7597fbda9d04ae41b2d.html" target="_top" xlink:title="Components">
<polygon fill="white" stroke="red" points="199,-396 121,-396 121,-360 199,-360 199,-396"/>
<text text-anchor="middle" x="160" y="-375.5" font-family="Helvetica,sans-Serif" font-size="10.00">Components</text>
</a>
</g>
</g>
<!-- dir_4d6c489bfc51616ec0a9cc5adedf0045&#45;&gt;dir_e1b125331ccfd7597fbda9d04ae41b2d -->
<g id="edge23" class="edge">
<title>dir_4d6c489bfc51616ec0a9cc5adedf0045&#45;&gt;dir_e1b125331ccfd7597fbda9d04ae41b2d</title>
<path fill="none" stroke="black" d="M303.95,-378C272.4,-378 240.86,-378 209.32,-378"/>
<polygon fill="black" stroke="black" points="209.08,-374.5 199.08,-378 209.08,-381.5 209.08,-374.5"/>
<g id="a_edge23&#45;headlabel"><a xlink:href="dir_000078_000037.html" target="_top" xlink:title="16">
<text text-anchor="middle" x="212.67" y="-369.16" font-family="Helvetica,sans-Serif" font-size="10.00">16</text>
</a>
</g>
</g>
<!-- dir_ea67397643a523edf1ca7cd26133a30b -->
<g id="node5" class="node">
<title>dir_ea67397643a523edf1ca7cd26133a30b</title>
<g id="a_node5"><a xlink:href="dir_ea67397643a523edf1ca7cd26133a30b.html" target="_top" xlink:title="TerrainGenerator">
<polygon fill="white" stroke="red" points="463,-108 365,-108 365,-72 463,-72 463,-108"/>
<text text-anchor="middle" x="414" y="-87.5" font-family="Helvetica,sans-Serif" font-size="10.00">TerrainGenerator</text>
</a>
</g>
</g>
<!-- dir_4d6c489bfc51616ec0a9cc5adedf0045&#45;&gt;dir_ea67397643a523edf1ca7cd26133a30b -->
<g id="edge24" class="edge">
<title>dir_4d6c489bfc51616ec0a9cc5adedf0045&#45;&gt;dir_ea67397643a523edf1ca7cd26133a30b</title>
<path fill="none" stroke="black" d="M358.1,-364.35C373.86,-355.44 392.44,-341.91 402,-324 437.68,-257.18 427.64,-163.65 419.63,-118.09"/>
<polygon fill="black" stroke="black" points="423.04,-117.28 417.77,-108.09 416.16,-118.57 423.04,-117.28"/>
<g id="a_edge24&#45;headlabel"><a xlink:href="dir_000078_000006.html" target="_top" xlink:title="1">
<text text-anchor="middle" x="426.49" y="-117.8" font-family="Helvetica,sans-Serif" font-size="10.00">1</text>
</a>
</g>
</g>
<!-- dir_9a9e2b7a8f13e92341bd3030ad46e690 -->
<g id="node6" class="node">
<title>dir_9a9e2b7a8f13e92341bd3030ad46e690</title>
<g id="a_node6"><a xlink:href="dir_9a9e2b7a8f13e92341bd3030ad46e690.html" target="_top" xlink:title="Systems">
<polygon fill="white" stroke="red" points="189.5,-324 130.5,-324 130.5,-288 189.5,-288 189.5,-324"/>
<text text-anchor="middle" x="160" y="-303.5" font-family="Helvetica,sans-Serif" font-size="10.00">Systems</text>
</a>
</g>
</g>
<!-- dir_4d6c489bfc51616ec0a9cc5adedf0045&#45;&gt;dir_9a9e2b7a8f13e92341bd3030ad46e690 -->
<g id="edge25" class="edge">
<title>dir_4d6c489bfc51616ec0a9cc5adedf0045&#45;&gt;dir_9a9e2b7a8f13e92341bd3030ad46e690</title>
<path fill="none" stroke="black" d="M303.9,-365.91C275.66,-354.34 231.11,-336.11 199.06,-322.99"/>
<polygon fill="black" stroke="black" points="200.13,-319.65 189.55,-319.1 197.48,-326.12 200.13,-319.65"/>
<g id="a_edge25&#45;headlabel"><a xlink:href="dir_000078_000079.html" target="_top" xlink:title="3">
<text text-anchor="middle" x="204.53" y="-315.88" font-family="Helvetica,sans-Serif" font-size="10.00">3</text>
</a>
</g>
</g>
<!-- dir_fcd037b3c61b82b39da2ca73b895b43c -->
<g id="node7" class="node">
<title>dir_fcd037b3c61b82b39da2ca73b895b43c</title>
<g id="a_node7"><a xlink:href="dir_fcd037b3c61b82b39da2ca73b895b43c.html" target="_top" xlink:title="EntityFactory">
<polygon fill="none" stroke="black" points="298,-252 218,-252 218,-216 298,-216 298,-252"/>
<text text-anchor="middle" x="258" y="-231.5" font-family="Helvetica,sans-Serif" font-size="10.00">EntityFactory</text>
</a>
</g>
</g>
<!-- dir_4d6c489bfc51616ec0a9cc5adedf0045&#45;&gt;dir_fcd037b3c61b82b39da2ca73b895b43c -->
<g id="edge26" class="edge">
<title>dir_4d6c489bfc51616ec0a9cc5adedf0045&#45;&gt;dir_fcd037b3c61b82b39da2ca73b895b43c</title>
<path fill="none" stroke="black" d="M314.57,-360C305.73,-350.12 295.2,-337.08 288,-324 277.17,-304.33 269.31,-280.06 264.36,-261.84"/>
<polygon fill="black" stroke="black" points="267.74,-260.95 261.84,-252.15 260.97,-262.7 267.74,-260.95"/>
<g id="a_edge26&#45;headlabel"><a xlink:href="dir_000078_000072.html" target="_top" xlink:title="2">
<text text-anchor="middle" x="271.39" y="-261.21" font-family="Helvetica,sans-Serif" font-size="10.00">2</text>
</a>
</g>
</g>
<!-- dir_4a120dbb11348b2823d2a12dcab2f1e3 -->
<g id="node8" class="node">
<title>dir_4a120dbb11348b2823d2a12dcab2f1e3</title>
<g id="a_node8"><a xlink:href="dir_4a120dbb11348b2823d2a12dcab2f1e3.html" target="_top" xlink:title="ECS">
<polygon fill="white" stroke="red" points="217,-108 163,-108 163,-72 217,-72 217,-108"/>
<text text-anchor="middle" x="190" y="-87.5" font-family="Helvetica,sans-Serif" font-size="10.00">ECS</text>
</a>
</g>
</g>
<!-- dir_4d6c489bfc51616ec0a9cc5adedf0045&#45;&gt;dir_4a120dbb11348b2823d2a12dcab2f1e3 -->
<g id="edge27" class="edge">
<title>dir_4d6c489bfc51616ec0a9cc5adedf0045&#45;&gt;dir_4a120dbb11348b2823d2a12dcab2f1e3</title>
<path fill="none" stroke="black" d="M337.92,-359.77C353.37,-318.19 385.76,-210.84 338,-144 312.91,-108.88 262.34,-96.93 227.35,-92.92"/>
<polygon fill="black" stroke="black" points="227.32,-89.4 217.03,-91.91 226.64,-96.37 227.32,-89.4"/>
<g id="a_edge27&#45;headlabel"><a xlink:href="dir_000078_000002.html" target="_top" xlink:title="4">
<text text-anchor="middle" x="231.18" y="-84.42" font-family="Helvetica,sans-Serif" font-size="10.00">4</text>
</a>
</g>
</g>
<!-- dir_236e02cd02223a2412f137d7ad85069e&#45;&gt;dir_2e574b6382041dc2a136b1675bed65ad -->
<g id="edge1" class="edge">
<title>dir_236e02cd02223a2412f137d7ad85069e&#45;&gt;dir_2e574b6382041dc2a136b1675bed65ad</title>
<path fill="none" stroke="black" d="M278.1,-143.87C283.92,-119.56 294.63,-74.82 301.53,-46.01"/>
<polygon fill="black" stroke="black" points="304.96,-46.73 303.88,-36.19 298.15,-45.1 304.96,-46.73"/>
<g id="a_edge1&#45;headlabel"><a xlink:href="dir_000074_000005.html" target="_top" xlink:title="2">
<text text-anchor="middle" x="306.88" y="-48.39" font-family="Helvetica,sans-Serif" font-size="10.00">2</text>
</a>
</g>
</g>
<!-- dir_236e02cd02223a2412f137d7ad85069e&#45;&gt;dir_ea67397643a523edf1ca7cd26133a30b -->
<g id="edge2" class="edge">
<title>dir_236e02cd02223a2412f137d7ad85069e&#45;&gt;dir_ea67397643a523edf1ca7cd26133a30b</title>
<path fill="none" stroke="black" d="M308.25,-143.88C327.06,-134.47 350.58,-122.71 370.67,-112.67"/>
<polygon fill="black" stroke="black" points="372.24,-115.79 379.62,-108.19 369.11,-109.53 372.24,-115.79"/>
<g id="a_edge2&#45;headlabel"><a xlink:href="dir_000074_000006.html" target="_top" xlink:title="1">
<text text-anchor="middle" x="370.3" y="-117.44" font-family="Helvetica,sans-Serif" font-size="10.00">1</text>
</a>
</g>
</g>
<!-- dir_236e02cd02223a2412f137d7ad85069e&#45;&gt;dir_4a120dbb11348b2823d2a12dcab2f1e3 -->
<g id="edge3" class="edge">
<title>dir_236e02cd02223a2412f137d7ad85069e&#45;&gt;dir_4a120dbb11348b2823d2a12dcab2f1e3</title>
<path fill="none" stroke="black" d="M253.24,-143.7C242.76,-134.97 229.89,-124.24 218.5,-114.75"/>
<polygon fill="black" stroke="black" points="220.45,-111.82 210.53,-108.1 215.97,-117.19 220.45,-111.82"/>
<g id="a_edge3&#45;headlabel"><a xlink:href="dir_000074_000002.html" target="_top" xlink:title="2">
<text text-anchor="middle" x="225.03" y="-109.44" font-family="Helvetica,sans-Serif" font-size="10.00">2</text>
</a>
</g>
</g>
<!-- dir_e1b125331ccfd7597fbda9d04ae41b2d&#45;&gt;dir_236e02cd02223a2412f137d7ad85069e -->
<g id="edge4" class="edge">
<title>dir_e1b125331ccfd7597fbda9d04ae41b2d&#45;&gt;dir_236e02cd02223a2412f137d7ad85069e</title>
<path fill="none" stroke="black" d="M143.11,-359.99C134.71,-350.31 125.42,-337.46 121,-324 116.01,-308.8 115.49,-303.02 121,-288 138.71,-239.7 188.18,-205.09 226.12,-184.71"/>
<polygon fill="black" stroke="black" points="227.75,-187.81 235,-180.08 224.52,-181.6 227.75,-187.81"/>
<g id="a_edge4&#45;headlabel"><a xlink:href="dir_000037_000074.html" target="_top" xlink:title="9">
<text text-anchor="middle" x="225.87" y="-189.49" font-family="Helvetica,sans-Serif" font-size="10.00">9</text>
</a>
</g>
</g>
<!-- dir_e1b125331ccfd7597fbda9d04ae41b2d&#45;&gt;dir_2e574b6382041dc2a136b1675bed65ad -->
<g id="edge5" class="edge">
<title>dir_e1b125331ccfd7597fbda9d04ae41b2d&#45;&gt;dir_2e574b6382041dc2a136b1675bed65ad</title>
<path fill="none" stroke="black" d="M120.86,-362.34C73.49,-341.76 0,-299.44 0,-235 0,-235 0,-235 0,-161 0,-42.96 188.86,-22.71 270.8,-19.48"/>
<polygon fill="black" stroke="black" points="271.06,-22.98 280.94,-19.15 270.83,-15.98 271.06,-22.98"/>
<g id="a_edge5&#45;headlabel"><a xlink:href="dir_000037_000005.html" target="_top" xlink:title="56">
<text text-anchor="middle" x="267.56" y="-23.43" font-family="Helvetica,sans-Serif" font-size="10.00">56</text>
</a>
</g>
</g>
<!-- dir_e1b125331ccfd7597fbda9d04ae41b2d&#45;&gt;dir_9a9e2b7a8f13e92341bd3030ad46e690 -->
<g id="edge6" class="edge">
<title>dir_e1b125331ccfd7597fbda9d04ae41b2d&#45;&gt;dir_9a9e2b7a8f13e92341bd3030ad46e690</title>
<path fill="none" stroke="black" d="M154.08,-359.7C153.29,-351.98 153.06,-342.71 153.4,-334.11"/>
<polygon fill="black" stroke="black" points="156.9,-334.32 154.1,-324.1 149.92,-333.84 156.9,-334.32"/>
<g id="a_edge6&#45;headlabel"><a xlink:href="dir_000037_000079.html" target="_top" xlink:title="8">
<text text-anchor="middle" x="159.48" y="-335.61" font-family="Helvetica,sans-Serif" font-size="10.00">8</text>
</a>
</g>
</g>
<!-- dir_e1b125331ccfd7597fbda9d04ae41b2d&#45;&gt;dir_fcd037b3c61b82b39da2ca73b895b43c -->
<g id="edge7" class="edge">
<title>dir_e1b125331ccfd7597fbda9d04ae41b2d&#45;&gt;dir_fcd037b3c61b82b39da2ca73b895b43c</title>
<path fill="none" stroke="black" d="M164.63,-359.9C170.93,-349.56 180.6,-336.08 189,-324 203.81,-302.7 220.26,-278.25 233.63,-260.37"/>
<polygon fill="black" stroke="black" points="236.61,-262.23 239.92,-252.16 231.06,-257.96 236.61,-262.23"/>
<g id="a_edge7&#45;headlabel"><a xlink:href="dir_000037_000072.html" target="_top" xlink:title="5">
<text text-anchor="middle" x="236.68" y="-264.31" font-family="Helvetica,sans-Serif" font-size="10.00">5</text>
</a>
</g>
</g>
<!-- dir_e1b125331ccfd7597fbda9d04ae41b2d&#45;&gt;dir_4a120dbb11348b2823d2a12dcab2f1e3 -->
<g id="edge8" class="edge">
<title>dir_e1b125331ccfd7597fbda9d04ae41b2d&#45;&gt;dir_4a120dbb11348b2823d2a12dcab2f1e3</title>
<path fill="none" stroke="black" d="M139.18,-359.62C129.54,-350.2 119.11,-337.7 114,-324 108.4,-309.01 111.24,-303.76 114,-288 125.2,-224.03 157.3,-154.25 176,-117.34"/>
<polygon fill="black" stroke="black" points="179.21,-118.75 180.67,-108.26 172.99,-115.55 179.21,-118.75"/>
<g id="a_edge8&#45;headlabel"><a xlink:href="dir_000037_000002.html" target="_top" xlink:title="33">
<text text-anchor="middle" x="180.09" y="-120.75" font-family="Helvetica,sans-Serif" font-size="10.00">33</text>
</a>
</g>
</g>
<!-- dir_ea67397643a523edf1ca7cd26133a30b&#45;&gt;dir_2e574b6382041dc2a136b1675bed65ad -->
<g id="edge9" class="edge">
<title>dir_ea67397643a523edf1ca7cd26133a30b&#45;&gt;dir_2e574b6382041dc2a136b1675bed65ad</title>
<path fill="none" stroke="black" d="M388.07,-71.88C374.34,-62.81 357.29,-51.55 342.46,-41.76"/>
<polygon fill="black" stroke="black" points="344.3,-38.78 334.03,-36.19 340.45,-44.62 344.3,-38.78"/>
<g id="a_edge9&#45;headlabel"><a xlink:href="dir_000006_000005.html" target="_top" xlink:title="1">
<text text-anchor="middle" x="348.87" y="-35.89" font-family="Helvetica,sans-Serif" font-size="10.00">1</text>
</a>
</g>
</g>
<!-- dir_9a9e2b7a8f13e92341bd3030ad46e690&#45;&gt;dir_236e02cd02223a2412f137d7ad85069e -->
<g id="edge10" class="edge">
<title>dir_9a9e2b7a8f13e92341bd3030ad46e690&#45;&gt;dir_236e02cd02223a2412f137d7ad85069e</title>
<path fill="none" stroke="black" d="M167.11,-287.73C175.39,-268.86 190.36,-238.35 209,-216 218.07,-205.13 229.62,-194.87 240.46,-186.33"/>
<polygon fill="black" stroke="black" points="242.74,-188.99 248.57,-180.15 238.49,-183.43 242.74,-188.99"/>
<g id="a_edge10&#45;headlabel"><a xlink:href="dir_000079_000074.html" target="_top" xlink:title="3">
<text text-anchor="middle" x="241.6" y="-190.93" font-family="Helvetica,sans-Serif" font-size="10.00">3</text>
</a>
</g>
</g>
<!-- dir_9a9e2b7a8f13e92341bd3030ad46e690&#45;&gt;dir_2e574b6382041dc2a136b1675bed65ad -->
<g id="edge11" class="edge">
<title>dir_9a9e2b7a8f13e92341bd3030ad46e690&#45;&gt;dir_2e574b6382041dc2a136b1675bed65ad</title>
<path fill="none" stroke="black" d="M153.2,-287.77C138.02,-246.2 106.29,-138.87 154,-72 180.3,-35.13 233.99,-23.65 270.49,-20.22"/>
<polygon fill="black" stroke="black" points="271.05,-23.69 280.75,-19.42 270.51,-16.71 271.05,-23.69"/>
<g id="a_edge11&#45;headlabel"><a xlink:href="dir_000079_000005.html" target="_top" xlink:title="5">
<text text-anchor="middle" x="267.69" y="-24.3" font-family="Helvetica,sans-Serif" font-size="10.00">5</text>
</a>
</g>
</g>
<!-- dir_9a9e2b7a8f13e92341bd3030ad46e690&#45;&gt;dir_e1b125331ccfd7597fbda9d04ae41b2d -->
<g id="edge12" class="edge">
<title>dir_9a9e2b7a8f13e92341bd3030ad46e690&#45;&gt;dir_e1b125331ccfd7597fbda9d04ae41b2d</title>
<path fill="none" stroke="black" d="M165.9,-324.1C166.7,-331.79 166.94,-341.05 166.6,-349.67"/>
<polygon fill="black" stroke="black" points="163.11,-349.48 165.92,-359.7 170.09,-349.96 163.11,-349.48"/>
<g id="a_edge12&#45;headlabel"><a xlink:href="dir_000079_000037.html" target="_top" xlink:title="28">
<text text-anchor="middle" x="160.52" y="-343.2" font-family="Helvetica,sans-Serif" font-size="10.00">28</text>
</a>
</g>
</g>
<!-- dir_9a9e2b7a8f13e92341bd3030ad46e690&#45;&gt;dir_fcd037b3c61b82b39da2ca73b895b43c -->
<g id="edge13" class="edge">
<title>dir_9a9e2b7a8f13e92341bd3030ad46e690&#45;&gt;dir_fcd037b3c61b82b39da2ca73b895b43c</title>
<path fill="none" stroke="black" d="M178.31,-287.7C189.96,-278.71 205.34,-267.61 219.53,-257.92"/>
<polygon fill="black" stroke="black" points="221.82,-260.6 228.16,-252.1 217.91,-254.79 221.82,-260.6"/>
<g id="a_edge13&#45;headlabel"><a xlink:href="dir_000079_000072.html" target="_top" xlink:title="1">
<text text-anchor="middle" x="220.43" y="-262.46" font-family="Helvetica,sans-Serif" font-size="10.00">1</text>
</a>
</g>
</g>
<!-- dir_9a9e2b7a8f13e92341bd3030ad46e690&#45;&gt;dir_4a120dbb11348b2823d2a12dcab2f1e3 -->
<g id="edge14" class="edge">
<title>dir_9a9e2b7a8f13e92341bd3030ad46e690&#45;&gt;dir_4a120dbb11348b2823d2a12dcab2f1e3</title>
<path fill="none" stroke="black" d="M162.4,-287.85C167.59,-250.83 179.88,-163.18 186.16,-118.39"/>
<polygon fill="black" stroke="black" points="189.66,-118.62 187.58,-108.23 182.73,-117.65 189.66,-118.62"/>
<g id="a_edge14&#45;headlabel"><a xlink:href="dir_000079_000002.html" target="_top" xlink:title="16">
<text text-anchor="middle" x="191.97" y="-120.08" font-family="Helvetica,sans-Serif" font-size="10.00">16</text>
</a>
</g>
</g>
<!-- dir_fcd037b3c61b82b39da2ca73b895b43c&#45;&gt;dir_4d6c489bfc51616ec0a9cc5adedf0045 -->
<g id="edge20" class="edge">
<title>dir_fcd037b3c61b82b39da2ca73b895b43c&#45;&gt;dir_4d6c489bfc51616ec0a9cc5adedf0045</title>
<path fill="none" stroke="black" d="M268.01,-252.03C273.98,-262.35 281.62,-275.82 288,-288 298.88,-308.78 310.4,-332.74 318.78,-350.56"/>
<polygon fill="black" stroke="black" points="315.68,-352.2 323.08,-359.77 322.02,-349.23 315.68,-352.2"/>
<g id="a_edge20&#45;headlabel"><a xlink:href="dir_000072_000078.html" target="_top" xlink:title="1">
<text text-anchor="middle" x="311.58" y="-347.64" font-family="Helvetica,sans-Serif" font-size="10.00">1</text>
</a>
</g>
</g>
<!-- dir_fcd037b3c61b82b39da2ca73b895b43c&#45;&gt;dir_236e02cd02223a2412f137d7ad85069e -->
<g id="edge15" class="edge">
<title>dir_fcd037b3c61b82b39da2ca73b895b43c&#45;&gt;dir_236e02cd02223a2412f137d7ad85069e</title>
<path fill="none" stroke="black" d="M261.96,-215.7C263.72,-207.98 265.84,-198.71 267.8,-190.11"/>
<polygon fill="black" stroke="black" points="271.27,-190.63 270.09,-180.1 264.45,-189.07 271.27,-190.63"/>
<g id="a_edge15&#45;headlabel"><a xlink:href="dir_000072_000074.html" target="_top" xlink:title="1">
<text text-anchor="middle" x="273.24" y="-192.27" font-family="Helvetica,sans-Serif" font-size="10.00">1</text>
</a>
</g>
</g>
<!-- dir_fcd037b3c61b82b39da2ca73b895b43c&#45;&gt;dir_2e574b6382041dc2a136b1675bed65ad -->
<g id="edge16" class="edge">
<title>dir_fcd037b3c61b82b39da2ca73b895b43c&#45;&gt;dir_2e574b6382041dc2a136b1675bed65ad</title>
<path fill="none" stroke="black" d="M298.34,-216.47C313.63,-207.98 329.41,-196 338,-180 361.26,-136.68 339.41,-78.42 322.78,-45.17"/>
<polygon fill="black" stroke="black" points="325.77,-43.35 318.05,-36.1 319.56,-46.58 325.77,-43.35"/>
<g id="a_edge16&#45;headlabel"><a xlink:href="dir_000072_000005.html" target="_top" xlink:title="4">
<text text-anchor="middle" x="329.95" y="-42.73" font-family="Helvetica,sans-Serif" font-size="10.00">4</text>
</a>
</g>
</g>
<!-- dir_fcd037b3c61b82b39da2ca73b895b43c&#45;&gt;dir_e1b125331ccfd7597fbda9d04ae41b2d -->
<g id="edge17" class="edge">
<title>dir_fcd037b3c61b82b39da2ca73b895b43c&#45;&gt;dir_e1b125331ccfd7597fbda9d04ae41b2d</title>
<path fill="none" stroke="black" d="M253.36,-252.16C243.68,-270.16 224.23,-299.21 207,-324 200.63,-333.16 193.54,-343.12 186.71,-351.9"/>
<polygon fill="black" stroke="black" points="183.81,-349.92 180.27,-359.9 189.26,-354.31 183.81,-349.92"/>
<g id="a_edge17&#45;headlabel"><a xlink:href="dir_000072_000037.html" target="_top" xlink:title="26">
<text text-anchor="middle" x="183.85" y="-342.84" font-family="Helvetica,sans-Serif" font-size="10.00">26</text>
</a>
</g>
</g>
<!-- dir_fcd037b3c61b82b39da2ca73b895b43c&#45;&gt;dir_9a9e2b7a8f13e92341bd3030ad46e690 -->
<g id="edge18" class="edge">
<title>dir_fcd037b3c61b82b39da2ca73b895b43c&#45;&gt;dir_9a9e2b7a8f13e92341bd3030ad46e690</title>
<path fill="none" stroke="black" d="M240.04,-252.03C228.2,-261.18 212.41,-272.57 197.93,-282.45"/>
<polygon fill="black" stroke="black" points="195.94,-279.57 189.6,-288.05 199.85,-285.37 195.94,-279.57"/>
<g id="a_edge18&#45;headlabel"><a xlink:href="dir_000072_000079.html" target="_top" xlink:title="1">
<text text-anchor="middle" x="197.34" y="-272.7" font-family="Helvetica,sans-Serif" font-size="10.00">1</text>
</a>
</g>
</g>
<!-- dir_fcd037b3c61b82b39da2ca73b895b43c&#45;&gt;dir_4a120dbb11348b2823d2a12dcab2f1e3 -->
<g id="edge19" class="edge">
<title>dir_fcd037b3c61b82b39da2ca73b895b43c&#45;&gt;dir_4a120dbb11348b2823d2a12dcab2f1e3</title>
<path fill="none" stroke="black" d="M237.56,-215.79C227.49,-206.25 216.04,-193.57 209,-180 199.03,-160.77 194.29,-136.61 192.04,-118.32"/>
<polygon fill="black" stroke="black" points="195.51,-117.88 190.98,-108.31 188.55,-118.62 195.51,-117.88"/>
<g id="a_edge19&#45;headlabel"><a xlink:href="dir_000072_000002.html" target="_top" xlink:title="1">
<text text-anchor="middle" x="198.71" y="-118.66" font-family="Helvetica,sans-Serif" font-size="10.00">1</text>
</a>
</g>
</g>
</g>
</svg>
