<?xml version="1.0" encoding="UTF-8" standalone="no"?>
<!DOCTYPE svg PUBLIC "-//W3C//DTD SVG 1.1//EN"
 "http://www.w3.org/Graphics/SVG/1.1/DTD/svg11.dtd">
<!-- Generated by graphviz version 2.43.0 (0)
 -->
<!-- Title: Libs/Engine/sources/Components/Explosion Pages: 1 -->
<svg width="914pt" height="404pt"
 viewBox="0.00 0.00 914.28 404.00" xmlns="http://www.w3.org/2000/svg" xmlns:xlink="http://www.w3.org/1999/xlink">
<g id="graph0" class="graph" transform="scale(1 1) rotate(0) translate(4 400)">
<title>Libs/Engine/sources/Components/Explosion</title>
<polygon fill="white" stroke="transparent" points="-4,4 -4,-400 910.28,-400 910.28,4 -4,4"/>
<g id="clust1" class="cluster">
<title>clusterdir_e1b125331ccfd7597fbda9d04ae41b2d</title>
<g id="a_clust1"><a xlink:href="dir_e1b125331ccfd7597fbda9d04ae41b2d.html" target="_top" xlink:title="Components">
<polygon fill="#ddddee" stroke="black" points="346.89,-280 346.89,-351 426.89,-351 426.89,-280 346.89,-280"/>
<text text-anchor="middle" x="386.89" y="-339" font-family="Helvetica,sans-Serif" font-size="10.00">Components</text>
</a>
</g>
</g>
<!-- dir_e3fcb5edb61a9e9076684f95f68c26ba -->
<g id="node1" class="node">
<title>dir_e3fcb5edb61a9e9076684f95f68c26ba</title>
<g id="a_node1"><a xlink:href="dir_e3fcb5edb61a9e9076684f95f68c26ba.html" target="_top" xlink:title="Explosion">
<polygon fill="#eeeeff" stroke="black" points="418.89,-324 354.89,-324 354.89,-288 418.89,-288 418.89,-324"/>
<text text-anchor="middle" x="386.89" y="-303.5" font-family="Helvetica,sans-Serif" font-size="10.00">Explosion</text>
</a>
</g>
</g>
<!-- dir_69a8678f19111c2bff4bcd28d6f0b45d -->
<g id="node2" class="node">
<title>dir_69a8678f19111c2bff4bcd28d6f0b45d</title>
<g id="a_node2"><a xlink:href="dir_69a8678f19111c2bff4bcd28d6f0b45d.html" target="_top" xlink:title="Box">
<polygon fill="none" stroke="black" points="413.89,-396 359.89,-396 359.89,-360 413.89,-360 413.89,-396"/>
<text text-anchor="middle" x="386.89" y="-375.5" font-family="Helvetica,sans-Serif" font-size="10.00">Box</text>
</a>
</g>
</g>
<!-- dir_e3fcb5edb61a9e9076684f95f68c26ba&#45;&gt;dir_69a8678f19111c2bff4bcd28d6f0b45d -->
<g id="edge11" class="edge">
<title>dir_e3fcb5edb61a9e9076684f95f68c26ba&#45;&gt;dir_69a8678f19111c2bff4bcd28d6f0b45d</title>
<path fill="none" stroke="black" d="M386.89,-324.1C386.89,-331.79 386.89,-341.05 386.89,-349.67"/>
<polygon fill="black" stroke="black" points="383.39,-349.7 386.89,-359.7 390.39,-349.7 383.39,-349.7"/>
<g id="a_edge11&#45;headlabel"><a xlink:href="dir_000052_000042.html" target="_top" xlink:title="1">
<text text-anchor="middle" x="380.55" y="-343.6" font-family="Helvetica,sans-Serif" font-size="10.00">1</text>
</a>
</g>
</g>
<!-- dir_260d2cbf2ed6a6826d7b84c90a66ff13 -->
<g id="node3" class="node">
<title>dir_260d2cbf2ed6a6826d7b84c90a66ff13</title>
<g id="a_node3"><a xlink:href="dir_260d2cbf2ed6a6826d7b84c90a66ff13.html" target="_top" xlink:title="SquareCollider">
<polygon fill="none" stroke="black" points="301.89,-252 213.89,-252 213.89,-216 301.89,-216 301.89,-252"/>
<text text-anchor="middle" x="257.89" y="-231.5" font-family="Helvetica,sans-Serif" font-size="10.00">SquareCollider</text>
</a>
</g>
</g>
<!-- dir_e3fcb5edb61a9e9076684f95f68c26ba&#45;&gt;dir_260d2cbf2ed6a6826d7b84c90a66ff13 -->
<g id="edge12" class="edge">
<title>dir_e3fcb5edb61a9e9076684f95f68c26ba&#45;&gt;dir_260d2cbf2ed6a6826d7b84c90a66ff13</title>
<path fill="none" stroke="black" d="M355.33,-287.88C338.23,-278.6 316.91,-267.03 298.57,-257.08"/>
<polygon fill="black" stroke="black" points="300.03,-253.88 289.57,-252.19 296.69,-260.04 300.03,-253.88"/>
<g id="a_edge12&#45;headlabel"><a xlink:href="dir_000052_000067.html" target="_top" xlink:title="1">
<text text-anchor="middle" x="304.54" y="-250.6" font-family="Helvetica,sans-Serif" font-size="10.00">1</text>
</a>
</g>
</g>
<!-- dir_aff1144816ce620757629f51c7ba72f0 -->
<g id="node4" class="node">
<title>dir_aff1144816ce620757629f51c7ba72f0</title>
<g id="a_node4"><a xlink:href="dir_aff1144816ce620757629f51c7ba72f0.html" target="_top" xlink:title="Renderer">
<polygon fill="none" stroke="black" points="512.39,-180 451.39,-180 451.39,-144 512.39,-144 512.39,-180"/>
<text text-anchor="middle" x="481.89" y="-159.5" font-family="Helvetica,sans-Serif" font-size="10.00">Renderer</text>
</a>
</g>
</g>
<!-- dir_e3fcb5edb61a9e9076684f95f68c26ba&#45;&gt;dir_aff1144816ce620757629f51c7ba72f0 -->
<g id="edge13" class="edge">
<title>dir_e3fcb5edb61a9e9076684f95f68c26ba&#45;&gt;dir_aff1144816ce620757629f51c7ba72f0</title>
<path fill="none" stroke="black" d="M398.35,-287.87C414.9,-263.14 445.6,-217.24 464.82,-188.51"/>
<polygon fill="black" stroke="black" points="467.74,-190.45 470.39,-180.19 461.92,-186.55 467.74,-190.45"/>
<g id="a_edge13&#45;headlabel"><a xlink:href="dir_000052_000065.html" target="_top" xlink:title="1">
<text text-anchor="middle" x="468.1" y="-192.51" font-family="Helvetica,sans-Serif" font-size="10.00">1</text>
</a>
</g>
</g>
<!-- dir_236e02cd02223a2412f137d7ad85069e -->
<g id="node5" class="node">
<title>dir_236e02cd02223a2412f137d7ad85069e</title>
<g id="a_node5"><a xlink:href="dir_236e02cd02223a2412f137d7ad85069e.html" target="_top" xlink:title="GameConfiguration">
<polygon fill="none" stroke="black" points="680.39,-180 569.39,-180 569.39,-144 680.39,-144 680.39,-180"/>
<text text-anchor="middle" x="624.89" y="-159.5" font-family="Helvetica,sans-Serif" font-size="10.00">GameConfiguration</text>
</a>
</g>
</g>
<!-- dir_e3fcb5edb61a9e9076684f95f68c26ba&#45;&gt;dir_236e02cd02223a2412f137d7ad85069e -->
<g id="edge14" class="edge">
<title>dir_e3fcb5edb61a9e9076684f95f68c26ba&#45;&gt;dir_236e02cd02223a2412f137d7ad85069e</title>
<path fill="none" stroke="black" d="M418.99,-292.44C429.72,-288.35 441.78,-283.87 452.89,-280 491.65,-266.5 506.14,-273.84 540.89,-252 567.49,-235.28 591.39,-208.18 606.83,-188.27"/>
<polygon fill="black" stroke="black" points="609.67,-190.32 612.91,-180.23 604.09,-186.09 609.67,-190.32"/>
<g id="a_edge14&#45;headlabel"><a xlink:href="dir_000052_000074.html" target="_top" xlink:title="1">
<text text-anchor="middle" x="609.77" y="-192.4" font-family="Helvetica,sans-Serif" font-size="10.00">1</text>
</a>
</g>
</g>
<!-- dir_189353a96b8434d24dafb7e206a5344c -->
<g id="node6" class="node">
<title>dir_189353a96b8434d24dafb7e206a5344c</title>
<g id="a_node6"><a xlink:href="dir_189353a96b8434d24dafb7e206a5344c.html" target="_top" xlink:title="Destructible">
<polygon fill="none" stroke="black" points="109.89,-180 33.89,-180 33.89,-144 109.89,-144 109.89,-180"/>
<text text-anchor="middle" x="71.89" y="-159.5" font-family="Helvetica,sans-Serif" font-size="10.00">Destructible</text>
</a>
</g>
</g>
<!-- dir_e3fcb5edb61a9e9076684f95f68c26ba&#45;&gt;dir_189353a96b8434d24dafb7e206a5344c -->
<g id="edge15" class="edge">
<title>dir_e3fcb5edb61a9e9076684f95f68c26ba&#45;&gt;dir_189353a96b8434d24dafb7e206a5344c</title>
<path fill="none" stroke="black" d="M354.87,-305.6C303.88,-305.05 202.95,-297.68 133.89,-252 110.71,-236.66 93.64,-209.42 83.35,-189.1"/>
<polygon fill="black" stroke="black" points="86.48,-187.52 78.98,-180.04 80.18,-190.57 86.48,-187.52"/>
<g id="a_edge15&#45;headlabel"><a xlink:href="dir_000052_000048.html" target="_top" xlink:title="1">
<text text-anchor="middle" x="90.6" y="-187.03" font-family="Helvetica,sans-Serif" font-size="10.00">1</text>
</a>
</g>
</g>
<!-- dir_2e574b6382041dc2a136b1675bed65ad -->
<g id="node7" class="node">
<title>dir_2e574b6382041dc2a136b1675bed65ad</title>
<g id="a_node7"><a xlink:href="dir_2e574b6382041dc2a136b1675bed65ad.html" target="_top" xlink:title="RayLib">
<polygon fill="white" stroke="red" points="547.89,-36 493.89,-36 493.89,0 547.89,0 547.89,-36"/>
<text text-anchor="middle" x="520.89" y="-15.5" font-family="Helvetica,sans-Serif" font-size="10.00">RayLib</text>
</a>
</g>
</g>
<!-- dir_e3fcb5edb61a9e9076684f95f68c26ba&#45;&gt;dir_2e574b6382041dc2a136b1675bed65ad -->
<g id="edge16" class="edge">
<title>dir_e3fcb5edb61a9e9076684f95f68c26ba&#45;&gt;dir_2e574b6382041dc2a136b1675bed65ad</title>
<path fill="none" stroke="black" d="M354.89,-304.46C257.16,-301.34 -27.64,-280.58 24.89,-144 40.37,-103.76 51.64,-91.88 89.89,-72 158.18,-36.5 391.68,-23.91 483.44,-20.27"/>
<polygon fill="black" stroke="black" points="483.79,-23.76 493.65,-19.88 483.52,-16.77 483.79,-23.76"/>
<g id="a_edge16&#45;headlabel"><a xlink:href="dir_000052_000005.html" target="_top" xlink:title="3">
<text text-anchor="middle" x="480.31" y="-24.24" font-family="Helvetica,sans-Serif" font-size="10.00">3</text>
</a>
</g>
</g>
<!-- dir_9a9e2b7a8f13e92341bd3030ad46e690 -->
<g id="node8" class="node">
<title>dir_9a9e2b7a8f13e92341bd3030ad46e690</title>
<g id="a_node8"><a xlink:href="dir_9a9e2b7a8f13e92341bd3030ad46e690.html" target="_top" xlink:title="Systems">
<polygon fill="white" stroke="red" points="531.39,-252 472.39,-252 472.39,-216 531.39,-216 531.39,-252"/>
<text text-anchor="middle" x="501.89" y="-231.5" font-family="Helvetica,sans-Serif" font-size="10.00">Systems</text>
</a>
</g>
</g>
<!-- dir_e3fcb5edb61a9e9076684f95f68c26ba&#45;&gt;dir_9a9e2b7a8f13e92341bd3030ad46e690 -->
<g id="edge17" class="edge">
<title>dir_e3fcb5edb61a9e9076684f95f68c26ba&#45;&gt;dir_9a9e2b7a8f13e92341bd3030ad46e690</title>
<path fill="none" stroke="black" d="M415.02,-287.88C430.06,-278.72 448.76,-267.34 464.95,-257.48"/>
<polygon fill="black" stroke="black" points="466.93,-260.38 473.65,-252.19 463.29,-254.4 466.93,-260.38"/>
<g id="a_edge17&#45;headlabel"><a xlink:href="dir_000052_000079.html" target="_top" xlink:title="1">
<text text-anchor="middle" x="465.33" y="-262.17" font-family="Helvetica,sans-Serif" font-size="10.00">1</text>
</a>
</g>
</g>
<!-- dir_fcd037b3c61b82b39da2ca73b895b43c -->
<g id="node9" class="node">
<title>dir_fcd037b3c61b82b39da2ca73b895b43c</title>
<g id="a_node9"><a xlink:href="dir_fcd037b3c61b82b39da2ca73b895b43c.html" target="_top" xlink:title="EntityFactory">
<polygon fill="none" stroke="black" points="541.89,-324 461.89,-324 461.89,-288 541.89,-288 541.89,-324"/>
<text text-anchor="middle" x="501.89" y="-303.5" font-family="Helvetica,sans-Serif" font-size="10.00">EntityFactory</text>
</a>
</g>
</g>
<!-- dir_e3fcb5edb61a9e9076684f95f68c26ba&#45;&gt;dir_fcd037b3c61b82b39da2ca73b895b43c -->
<g id="edge18" class="edge">
<title>dir_e3fcb5edb61a9e9076684f95f68c26ba&#45;&gt;dir_fcd037b3c61b82b39da2ca73b895b43c</title>
<path fill="none" stroke="black" d="M419.23,-306C430,-306 440.77,-306 451.53,-306"/>
<polygon fill="black" stroke="black" points="451.85,-309.5 461.85,-306 451.85,-302.5 451.85,-309.5"/>
<g id="a_edge18&#45;headlabel"><a xlink:href="dir_000052_000072.html" target="_top" xlink:title="1">
<text text-anchor="middle" x="448.26" y="-309.84" font-family="Helvetica,sans-Serif" font-size="10.00">1</text>
</a>
</g>
</g>
<!-- dir_ba9f96492b222561776079c293f18c0c -->
<g id="node10" class="node">
<title>dir_ba9f96492b222561776079c293f18c0c</title>
<g id="a_node10"><a xlink:href="dir_ba9f96492b222561776079c293f18c0c.html" target="_top" xlink:title="AssetManager">
<polygon fill="white" stroke="red" points="821.89,-108 735.89,-108 735.89,-72 821.89,-72 821.89,-108"/>
<text text-anchor="middle" x="778.89" y="-87.5" font-family="Helvetica,sans-Serif" font-size="10.00">AssetManager</text>
</a>
</g>
</g>
<!-- dir_e3fcb5edb61a9e9076684f95f68c26ba&#45;&gt;dir_ba9f96492b222561776079c293f18c0c -->
<g id="edge19" class="edge">
<title>dir_e3fcb5edb61a9e9076684f95f68c26ba&#45;&gt;dir_ba9f96492b222561776079c293f18c0c</title>
<path fill="none" stroke="black" d="M419.03,-291.36C429.66,-287.24 441.65,-283.02 452.89,-280 601.71,-239.99 700.92,-309.21 784.89,-180 796.71,-161.81 793.8,-136.89 788.74,-118.04"/>
<polygon fill="black" stroke="black" points="792.03,-116.83 785.79,-108.27 785.33,-118.86 792.03,-116.83"/>
<g id="a_edge19&#45;headlabel"><a xlink:href="dir_000052_000035.html" target="_top" xlink:title="1">
<text text-anchor="middle" x="795.79" y="-116.95" font-family="Helvetica,sans-Serif" font-size="10.00">1</text>
</a>
</g>
</g>
<!-- dir_4a120dbb11348b2823d2a12dcab2f1e3 -->
<g id="node11" class="node">
<title>dir_4a120dbb11348b2823d2a12dcab2f1e3</title>
<g id="a_node11"><a xlink:href="dir_4a120dbb11348b2823d2a12dcab2f1e3.html" target="_top" xlink:title="ECS">
<polygon fill="white" stroke="red" points="386.89,-108 332.89,-108 332.89,-72 386.89,-72 386.89,-108"/>
<text text-anchor="middle" x="359.89" y="-87.5" font-family="Helvetica,sans-Serif" font-size="10.00">ECS</text>
</a>
</g>
</g>
<!-- dir_e3fcb5edb61a9e9076684f95f68c26ba&#45;&gt;dir_4a120dbb11348b2823d2a12dcab2f1e3 -->
<g id="edge20" class="edge">
<title>dir_e3fcb5edb61a9e9076684f95f68c26ba&#45;&gt;dir_4a120dbb11348b2823d2a12dcab2f1e3</title>
<path fill="none" stroke="black" d="M354.57,-300.28C307.27,-292.64 222.86,-275.95 204.89,-252 187.77,-229.18 215.48,-152.4 222.89,-144 248.44,-115.06 291.68,-101.81 322.76,-95.82"/>
<polygon fill="black" stroke="black" points="323.54,-99.24 332.79,-94.05 322.33,-92.34 323.54,-99.24"/>
<g id="a_edge20&#45;headlabel"><a xlink:href="dir_000052_000002.html" target="_top" xlink:title="1">
<text text-anchor="middle" x="320.5" y="-100.15" font-family="Helvetica,sans-Serif" font-size="10.00">1</text>
</a>
</g>
</g>
<!-- dir_d415c0d599231354676ceb56dc96abfc -->
<g id="node12" class="node">
<title>dir_d415c0d599231354676ceb56dc96abfc</title>
<g id="a_node12"><a xlink:href="dir_d415c0d599231354676ceb56dc96abfc.html" target="_top" xlink:title="IBehaviour">
<polygon fill="none" stroke="black" points="394.39,-180 325.39,-180 325.39,-144 394.39,-144 394.39,-180"/>
<text text-anchor="middle" x="359.89" y="-159.5" font-family="Helvetica,sans-Serif" font-size="10.00">IBehaviour</text>
</a>
</g>
</g>
<!-- dir_e3fcb5edb61a9e9076684f95f68c26ba&#45;&gt;dir_d415c0d599231354676ceb56dc96abfc -->
<g id="edge21" class="edge">
<title>dir_e3fcb5edb61a9e9076684f95f68c26ba&#45;&gt;dir_d415c0d599231354676ceb56dc96abfc</title>
<path fill="none" stroke="black" d="M383.63,-287.87C379.03,-263.67 370.58,-219.21 365.1,-190.39"/>
<polygon fill="black" stroke="black" points="368.47,-189.36 363.16,-180.19 361.59,-190.67 368.47,-189.36"/>
<g id="a_edge21&#45;headlabel"><a xlink:href="dir_000052_000058.html" target="_top" xlink:title="1">
<text text-anchor="middle" x="371.93" y="-189.86" font-family="Helvetica,sans-Serif" font-size="10.00">1</text>
</a>
</g>
</g>
<!-- dir_ead2403153bcb9f28373d1149c7d4c27 -->
<g id="node13" class="node">
<title>dir_ead2403153bcb9f28373d1149c7d4c27</title>
<g id="a_node13"><a xlink:href="dir_ead2403153bcb9f28373d1149c7d4c27.html" target="_top" xlink:title="Drawable3D">
<polygon fill="none" stroke="black" points="775.39,-180 698.39,-180 698.39,-144 775.39,-144 775.39,-180"/>
<text text-anchor="middle" x="736.89" y="-159.5" font-family="Helvetica,sans-Serif" font-size="10.00">Drawable3D</text>
</a>
</g>
</g>
<!-- dir_e3fcb5edb61a9e9076684f95f68c26ba&#45;&gt;dir_ead2403153bcb9f28373d1149c7d4c27 -->
<g id="edge22" class="edge">
<title>dir_e3fcb5edb61a9e9076684f95f68c26ba&#45;&gt;dir_ead2403153bcb9f28373d1149c7d4c27</title>
<path fill="none" stroke="black" d="M419.15,-291.77C429.79,-287.68 441.75,-283.37 452.89,-280 506.14,-263.89 522.9,-271.81 574.89,-252 599.58,-242.59 659.54,-208.46 699.18,-185.31"/>
<polygon fill="black" stroke="black" points="701.18,-188.19 708.04,-180.11 697.65,-182.15 701.18,-188.19"/>
<g id="a_edge22&#45;headlabel"><a xlink:href="dir_000052_000050.html" target="_top" xlink:title="1">
<text text-anchor="middle" x="699.52" y="-189.95" font-family="Helvetica,sans-Serif" font-size="10.00">1</text>
</a>
</g>
</g>
<!-- dir_9c1a1c874c5316598fbf40a566ddc437 -->
<g id="node14" class="node">
<title>dir_9c1a1c874c5316598fbf40a566ddc437</title>
<g id="a_node14"><a xlink:href="dir_9c1a1c874c5316598fbf40a566ddc437.html" target="_top" xlink:title="Transform">
<polygon fill="none" stroke="black" points="307.39,-180 242.39,-180 242.39,-144 307.39,-144 307.39,-180"/>
<text text-anchor="middle" x="274.89" y="-159.5" font-family="Helvetica,sans-Serif" font-size="10.00">Transform</text>
</a>
</g>
</g>
<!-- dir_e3fcb5edb61a9e9076684f95f68c26ba&#45;&gt;dir_9c1a1c874c5316598fbf40a566ddc437 -->
<g id="edge23" class="edge">
<title>dir_e3fcb5edb61a9e9076684f95f68c26ba&#45;&gt;dir_9c1a1c874c5316598fbf40a566ddc437</title>
<path fill="none" stroke="black" d="M373.38,-287.87C353.79,-263.03 317.36,-216.85 294.72,-188.14"/>
<polygon fill="black" stroke="black" points="297.39,-185.87 288.45,-180.19 291.89,-190.21 297.39,-185.87"/>
<g id="a_edge23&#45;headlabel"><a xlink:href="dir_000052_000071.html" target="_top" xlink:title="1">
<text text-anchor="middle" x="301.85" y="-184.44" font-family="Helvetica,sans-Serif" font-size="10.00">1</text>
</a>
</g>
</g>
<!-- dir_69a8678f19111c2bff4bcd28d6f0b45d&#45;&gt;dir_189353a96b8434d24dafb7e206a5344c -->
<g id="edge1" class="edge">
<title>dir_69a8678f19111c2bff4bcd28d6f0b45d&#45;&gt;dir_189353a96b8434d24dafb7e206a5344c</title>
<path fill="none" stroke="black" d="M359.83,-373.33C302.28,-364.05 167.21,-334.26 95.89,-252 81.03,-234.86 75.27,-209.41 73.09,-190.12"/>
<polygon fill="black" stroke="black" points="76.57,-189.77 72.21,-180.12 69.6,-190.39 76.57,-189.77"/>
<g id="a_edge1&#45;headlabel"><a xlink:href="dir_000042_000048.html" target="_top" xlink:title="1">
<text text-anchor="middle" x="79.71" y="-190.6" font-family="Helvetica,sans-Serif" font-size="10.00">1</text>
</a>
</g>
</g>
<!-- dir_69a8678f19111c2bff4bcd28d6f0b45d&#45;&gt;dir_fcd037b3c61b82b39da2ca73b895b43c -->
<g id="edge2" class="edge">
<title>dir_69a8678f19111c2bff4bcd28d6f0b45d&#45;&gt;dir_fcd037b3c61b82b39da2ca73b895b43c</title>
<path fill="none" stroke="black" d="M407.42,-359.74C412.18,-356.84 417.18,-353.85 421.89,-351 433.46,-344 446.02,-336.26 457.75,-329.25"/>
<polygon fill="black" stroke="black" points="459.7,-332.16 466.52,-324.06 456.13,-326.14 459.7,-332.16"/>
<g id="a_edge2&#45;headlabel"><a xlink:href="dir_000042_000072.html" target="_top" xlink:title="1">
<text text-anchor="middle" x="458.05" y="-333.94" font-family="Helvetica,sans-Serif" font-size="10.00">1</text>
</a>
</g>
</g>
<!-- dir_69a8678f19111c2bff4bcd28d6f0b45d&#45;&gt;dir_4a120dbb11348b2823d2a12dcab2f1e3 -->
<g id="edge3" class="edge">
<title>dir_69a8678f19111c2bff4bcd28d6f0b45d&#45;&gt;dir_4a120dbb11348b2823d2a12dcab2f1e3</title>
<path fill="none" stroke="black" d="M359.63,-377.41C300.24,-377.81 161.46,-375.96 122.89,-351 37.43,-295.7 -41.22,-221.4 24.89,-144 62.87,-99.55 243.51,-92.17 322.63,-91.09"/>
<polygon fill="black" stroke="black" points="322.69,-94.59 332.65,-90.98 322.61,-87.59 322.69,-94.59"/>
<g id="a_edge3&#45;headlabel"><a xlink:href="dir_000042_000002.html" target="_top" xlink:title="1">
<text text-anchor="middle" x="319.12" y="-94.97" font-family="Helvetica,sans-Serif" font-size="10.00">1</text>
</a>
</g>
</g>
<!-- dir_260d2cbf2ed6a6826d7b84c90a66ff13&#45;&gt;dir_2e574b6382041dc2a136b1675bed65ad -->
<g id="edge4" class="edge">
<title>dir_260d2cbf2ed6a6826d7b84c90a66ff13&#45;&gt;dir_2e574b6382041dc2a136b1675bed65ad</title>
<path fill="none" stroke="black" d="M242.71,-215.7C235.16,-205.94 226.82,-193.1 222.89,-180 218.29,-164.68 216.87,-158.82 222.89,-144 239.68,-102.65 254.03,-93.94 292.89,-72 354.09,-37.45 436.64,-25.39 483.77,-21.21"/>
<polygon fill="black" stroke="black" points="484.15,-24.69 493.84,-20.39 483.59,-17.71 484.15,-24.69"/>
<g id="a_edge4&#45;headlabel"><a xlink:href="dir_000067_000005.html" target="_top" xlink:title="4">
<text text-anchor="middle" x="480.8" y="-25.31" font-family="Helvetica,sans-Serif" font-size="10.00">4</text>
</a>
</g>
</g>
<!-- dir_260d2cbf2ed6a6826d7b84c90a66ff13&#45;&gt;dir_4a120dbb11348b2823d2a12dcab2f1e3 -->
<g id="edge5" class="edge">
<title>dir_260d2cbf2ed6a6826d7b84c90a66ff13&#45;&gt;dir_4a120dbb11348b2823d2a12dcab2f1e3</title>
<path fill="none" stroke="black" d="M245.32,-215.96C233.02,-197.01 218.12,-166.17 232.89,-144 252.74,-114.21 292.86,-101.13 322.72,-95.41"/>
<polygon fill="black" stroke="black" points="323.54,-98.82 332.81,-93.68 322.36,-91.93 323.54,-98.82"/>
<g id="a_edge5&#45;headlabel"><a xlink:href="dir_000067_000002.html" target="_top" xlink:title="3">
<text text-anchor="middle" x="320.48" y="-99.73" font-family="Helvetica,sans-Serif" font-size="10.00">3</text>
</a>
</g>
</g>
<!-- dir_260d2cbf2ed6a6826d7b84c90a66ff13&#45;&gt;dir_9c1a1c874c5316598fbf40a566ddc437 -->
<g id="edge6" class="edge">
<title>dir_260d2cbf2ed6a6826d7b84c90a66ff13&#45;&gt;dir_9c1a1c874c5316598fbf40a566ddc437</title>
<path fill="none" stroke="black" d="M262.09,-215.7C263.99,-207.9 266.27,-198.51 268.38,-189.83"/>
<polygon fill="black" stroke="black" points="271.78,-190.65 270.74,-180.1 264.98,-189 271.78,-190.65"/>
<g id="a_edge6&#45;headlabel"><a xlink:href="dir_000067_000071.html" target="_top" xlink:title="1">
<text text-anchor="middle" x="273.69" y="-192.31" font-family="Helvetica,sans-Serif" font-size="10.00">1</text>
</a>
</g>
</g>
<!-- dir_aff1144816ce620757629f51c7ba72f0&#45;&gt;dir_2e574b6382041dc2a136b1675bed65ad -->
<g id="edge7" class="edge">
<title>dir_aff1144816ce620757629f51c7ba72f0&#45;&gt;dir_2e574b6382041dc2a136b1675bed65ad</title>
<path fill="none" stroke="black" d="M486.6,-143.87C493.27,-119.56 505.56,-74.82 513.47,-46.01"/>
<polygon fill="black" stroke="black" points="516.9,-46.76 516.17,-36.19 510.15,-44.91 516.9,-46.76"/>
<g id="a_edge7&#45;headlabel"><a xlink:href="dir_000065_000005.html" target="_top" xlink:title="2">
<text text-anchor="middle" x="518.68" y="-48.48" font-family="Helvetica,sans-Serif" font-size="10.00">2</text>
</a>
</g>
</g>
<!-- dir_aff1144816ce620757629f51c7ba72f0&#45;&gt;dir_4a120dbb11348b2823d2a12dcab2f1e3 -->
<g id="edge8" class="edge">
<title>dir_aff1144816ce620757629f51c7ba72f0&#45;&gt;dir_4a120dbb11348b2823d2a12dcab2f1e3</title>
<path fill="none" stroke="black" d="M452.05,-143.88C435.11,-134.16 413.78,-121.92 395.92,-111.67"/>
<polygon fill="black" stroke="black" points="397.35,-108.46 386.93,-106.51 393.86,-114.53 397.35,-108.46"/>
<g id="a_edge8&#45;headlabel"><a xlink:href="dir_000065_000002.html" target="_top" xlink:title="1">
<text text-anchor="middle" x="401.88" y="-105.28" font-family="Helvetica,sans-Serif" font-size="10.00">1</text>
</a>
</g>
</g>
<!-- dir_236e02cd02223a2412f137d7ad85069e&#45;&gt;dir_2e574b6382041dc2a136b1675bed65ad -->
<g id="edge9" class="edge">
<title>dir_236e02cd02223a2412f137d7ad85069e&#45;&gt;dir_2e574b6382041dc2a136b1675bed65ad</title>
<path fill="none" stroke="black" d="M612.35,-143.87C594.23,-119.14 560.62,-73.24 539.58,-44.51"/>
<polygon fill="black" stroke="black" points="542.21,-42.19 533.48,-36.19 536.57,-46.33 542.21,-42.19"/>
<g id="a_edge9&#45;headlabel"><a xlink:href="dir_000074_000005.html" target="_top" xlink:title="2">
<text text-anchor="middle" x="546.63" y="-40.91" font-family="Helvetica,sans-Serif" font-size="10.00">2</text>
</a>
</g>
</g>
<!-- dir_236e02cd02223a2412f137d7ad85069e&#45;&gt;dir_4a120dbb11348b2823d2a12dcab2f1e3 -->
<g id="edge10" class="edge">
<title>dir_236e02cd02223a2412f137d7ad85069e&#45;&gt;dir_4a120dbb11348b2823d2a12dcab2f1e3</title>
<path fill="none" stroke="black" d="M569.34,-146.33C517.52,-132.64 441.68,-112.61 396.9,-100.77"/>
<polygon fill="black" stroke="black" points="397.58,-97.34 387.02,-98.17 395.8,-104.1 397.58,-97.34"/>
<g id="a_edge10&#45;headlabel"><a xlink:href="dir_000074_000002.html" target="_top" xlink:title="2">
<text text-anchor="middle" x="401.78" y="-93.01" font-family="Helvetica,sans-Serif" font-size="10.00">2</text>
</a>
</g>
</g>
<!-- dir_189353a96b8434d24dafb7e206a5344c&#45;&gt;dir_2e574b6382041dc2a136b1675bed65ad -->
<g id="edge24" class="edge">
<title>dir_189353a96b8434d24dafb7e206a5344c&#45;&gt;dir_2e574b6382041dc2a136b1675bed65ad</title>
<path fill="none" stroke="black" d="M76.86,-143.69C83.77,-122.97 98.42,-88.96 123.89,-72 182.44,-33.02 396.39,-22.55 483.56,-19.87"/>
<polygon fill="black" stroke="black" points="483.89,-23.36 493.78,-19.58 483.68,-16.37 483.89,-23.36"/>
<g id="a_edge24&#45;headlabel"><a xlink:href="dir_000048_000005.html" target="_top" xlink:title="1">
<text text-anchor="middle" x="480.38" y="-23.81" font-family="Helvetica,sans-Serif" font-size="10.00">1</text>
</a>
</g>
</g>
<!-- dir_189353a96b8434d24dafb7e206a5344c&#45;&gt;dir_4a120dbb11348b2823d2a12dcab2f1e3 -->
<g id="edge25" class="edge">
<title>dir_189353a96b8434d24dafb7e206a5344c&#45;&gt;dir_4a120dbb11348b2823d2a12dcab2f1e3</title>
<path fill="none" stroke="black" d="M110.14,-151.7C165.62,-138.22 267.8,-113.38 322.69,-100.04"/>
<polygon fill="black" stroke="black" points="323.8,-103.37 332.69,-97.61 322.15,-96.57 323.8,-103.37"/>
<g id="a_edge25&#45;headlabel"><a xlink:href="dir_000048_000002.html" target="_top" xlink:title="2">
<text text-anchor="middle" x="320.98" y="-104.48" font-family="Helvetica,sans-Serif" font-size="10.00">2</text>
</a>
</g>
</g>
<!-- dir_9a9e2b7a8f13e92341bd3030ad46e690&#45;&gt;dir_aff1144816ce620757629f51c7ba72f0 -->
<g id="edge26" class="edge">
<title>dir_9a9e2b7a8f13e92341bd3030ad46e690&#45;&gt;dir_aff1144816ce620757629f51c7ba72f0</title>
<path fill="none" stroke="black" d="M496.95,-215.7C494.72,-207.9 492.04,-198.51 489.56,-189.83"/>
<polygon fill="black" stroke="black" points="492.89,-188.76 486.78,-180.1 486.16,-190.68 492.89,-188.76"/>
<g id="a_edge26&#45;headlabel"><a xlink:href="dir_000079_000065.html" target="_top" xlink:title="3">
<text text-anchor="middle" x="496.61" y="-188.93" font-family="Helvetica,sans-Serif" font-size="10.00">3</text>
</a>
</g>
</g>
<!-- dir_9a9e2b7a8f13e92341bd3030ad46e690&#45;&gt;dir_236e02cd02223a2412f137d7ad85069e -->
<g id="edge27" class="edge">
<title>dir_9a9e2b7a8f13e92341bd3030ad46e690&#45;&gt;dir_236e02cd02223a2412f137d7ad85069e</title>
<path fill="none" stroke="black" d="M531.67,-216.05C548.01,-206.75 568.48,-195.11 586.07,-185.1"/>
<polygon fill="black" stroke="black" points="588,-188.02 594.96,-180.03 584.54,-181.94 588,-188.02"/>
<g id="a_edge27&#45;headlabel"><a xlink:href="dir_000079_000074.html" target="_top" xlink:title="3">
<text text-anchor="middle" x="586.28" y="-189.77" font-family="Helvetica,sans-Serif" font-size="10.00">3</text>
</a>
</g>
</g>
<!-- dir_9a9e2b7a8f13e92341bd3030ad46e690&#45;&gt;dir_189353a96b8434d24dafb7e206a5344c -->
<g id="edge28" class="edge">
<title>dir_9a9e2b7a8f13e92341bd3030ad46e690&#45;&gt;dir_189353a96b8434d24dafb7e206a5344c</title>
<path fill="none" stroke="black" d="M472.34,-228.19C399.25,-216.29 209.52,-185.4 119.99,-170.83"/>
<polygon fill="black" stroke="black" points="120.53,-167.37 110.1,-169.22 119.41,-174.28 120.53,-167.37"/>
<g id="a_edge28&#45;headlabel"><a xlink:href="dir_000079_000048.html" target="_top" xlink:title="1">
<text text-anchor="middle" x="124.53" y="-162.65" font-family="Helvetica,sans-Serif" font-size="10.00">1</text>
</a>
</g>
</g>
<!-- dir_9a9e2b7a8f13e92341bd3030ad46e690&#45;&gt;dir_2e574b6382041dc2a136b1675bed65ad -->
<g id="edge29" class="edge">
<title>dir_9a9e2b7a8f13e92341bd3030ad46e690&#45;&gt;dir_2e574b6382041dc2a136b1675bed65ad</title>
<path fill="none" stroke="black" d="M510.2,-215.79C514.63,-205.63 519.63,-192.38 521.89,-180 530.36,-133.55 527.22,-78.31 524.1,-46.1"/>
<polygon fill="black" stroke="black" points="527.58,-45.69 523.06,-36.1 520.62,-46.41 527.58,-45.69"/>
<g id="a_edge29&#45;headlabel"><a xlink:href="dir_000079_000005.html" target="_top" xlink:title="5">
<text text-anchor="middle" x="530.77" y="-46.47" font-family="Helvetica,sans-Serif" font-size="10.00">5</text>
</a>
</g>
</g>
<!-- dir_9a9e2b7a8f13e92341bd3030ad46e690&#45;&gt;dir_fcd037b3c61b82b39da2ca73b895b43c -->
<g id="edge30" class="edge">
<title>dir_9a9e2b7a8f13e92341bd3030ad46e690&#45;&gt;dir_fcd037b3c61b82b39da2ca73b895b43c</title>
<path fill="none" stroke="black" d="M507.79,-252.1C508.59,-259.79 508.83,-269.05 508.5,-277.67"/>
<polygon fill="black" stroke="black" points="505,-277.48 507.81,-287.7 511.98,-277.96 505,-277.48"/>
<g id="a_edge30&#45;headlabel"><a xlink:href="dir_000079_000072.html" target="_top" xlink:title="1">
<text text-anchor="middle" x="502.41" y="-271.2" font-family="Helvetica,sans-Serif" font-size="10.00">1</text>
</a>
</g>
</g>
<!-- dir_9a9e2b7a8f13e92341bd3030ad46e690&#45;&gt;dir_4a120dbb11348b2823d2a12dcab2f1e3 -->
<g id="edge31" class="edge">
<title>dir_9a9e2b7a8f13e92341bd3030ad46e690&#45;&gt;dir_4a120dbb11348b2823d2a12dcab2f1e3</title>
<path fill="none" stroke="black" d="M482.1,-216C470.45,-205.8 455.57,-192.44 442.89,-180 421.58,-159.08 398.5,-134.13 382.1,-115.98"/>
<polygon fill="black" stroke="black" points="384.35,-113.25 375.06,-108.15 379.15,-117.93 384.35,-113.25"/>
<g id="a_edge31&#45;headlabel"><a xlink:href="dir_000079_000002.html" target="_top" xlink:title="16">
<text text-anchor="middle" x="388.87" y="-111.52" font-family="Helvetica,sans-Serif" font-size="10.00">16</text>
</a>
</g>
</g>
<!-- dir_9a9e2b7a8f13e92341bd3030ad46e690&#45;&gt;dir_d415c0d599231354676ceb56dc96abfc -->
<g id="edge32" class="edge">
<title>dir_9a9e2b7a8f13e92341bd3030ad46e690&#45;&gt;dir_d415c0d599231354676ceb56dc96abfc</title>
<path fill="none" stroke="black" d="M472.12,-218.33C452.34,-208.57 426.02,-195.6 403.84,-184.67"/>
<polygon fill="black" stroke="black" points="405.14,-181.4 394.62,-180.12 402.05,-187.68 405.14,-181.4"/>
<g id="a_edge32&#45;headlabel"><a xlink:href="dir_000079_000058.html" target="_top" xlink:title="2">
<text text-anchor="middle" x="409.62" y="-177.95" font-family="Helvetica,sans-Serif" font-size="10.00">2</text>
</a>
</g>
</g>
<!-- dir_9a9e2b7a8f13e92341bd3030ad46e690&#45;&gt;dir_ead2403153bcb9f28373d1149c7d4c27 -->
<g id="edge33" class="edge">
<title>dir_9a9e2b7a8f13e92341bd3030ad46e690&#45;&gt;dir_ead2403153bcb9f28373d1149c7d4c27</title>
<path fill="none" stroke="black" d="M531.4,-225.39C566.69,-216.13 627.75,-199.63 688.5,-180.35"/>
<polygon fill="black" stroke="black" points="689.78,-183.61 698.24,-177.23 687.65,-176.95 689.78,-183.61"/>
<g id="a_edge33&#45;headlabel"><a xlink:href="dir_000079_000050.html" target="_top" xlink:title="1">
<text text-anchor="middle" x="687.22" y="-184.91" font-family="Helvetica,sans-Serif" font-size="10.00">1</text>
</a>
</g>
</g>
<!-- dir_9a9e2b7a8f13e92341bd3030ad46e690&#45;&gt;dir_9c1a1c874c5316598fbf40a566ddc437 -->
<g id="edge34" class="edge">
<title>dir_9a9e2b7a8f13e92341bd3030ad46e690&#45;&gt;dir_9c1a1c874c5316598fbf40a566ddc437</title>
<path fill="none" stroke="black" d="M472.24,-220.99C467.48,-219.22 462.57,-217.49 457.89,-216 398.76,-197.16 379.48,-200.17 316.95,-180.11"/>
<polygon fill="black" stroke="black" points="318,-176.77 307.4,-176.98 315.81,-183.42 318,-176.77"/>
<g id="a_edge34&#45;headlabel"><a xlink:href="dir_000079_000071.html" target="_top" xlink:title="4">
<text text-anchor="middle" x="322.3" y="-172.69" font-family="Helvetica,sans-Serif" font-size="10.00">4</text>
</a>
</g>
</g>
<!-- dir_fcd037b3c61b82b39da2ca73b895b43c&#45;&gt;dir_e3fcb5edb61a9e9076684f95f68c26ba -->
<g id="edge39" class="edge">
<title>dir_fcd037b3c61b82b39da2ca73b895b43c&#45;&gt;dir_e3fcb5edb61a9e9076684f95f68c26ba</title>
<path fill="none" stroke="black" d="M461.85,-306C451.09,-306 440.32,-306 429.56,-306"/>
<polygon fill="black" stroke="black" points="429.23,-302.5 419.23,-306 429.23,-309.5 429.23,-302.5"/>
<g id="a_edge39&#45;headlabel"><a xlink:href="dir_000072_000052.html" target="_top" xlink:title="2">
<text text-anchor="middle" x="432.83" y="-297.16" font-family="Helvetica,sans-Serif" font-size="10.00">2</text>
</a>
</g>
</g>
<!-- dir_fcd037b3c61b82b39da2ca73b895b43c&#45;&gt;dir_69a8678f19111c2bff4bcd28d6f0b45d -->
<g id="edge35" class="edge">
<title>dir_fcd037b3c61b82b39da2ca73b895b43c&#45;&gt;dir_69a8678f19111c2bff4bcd28d6f0b45d</title>
<path fill="none" stroke="black" d="M482.81,-324.06C470.48,-332.27 454.41,-342.22 439.89,-351 434.51,-354.26 428.74,-357.7 423.01,-360.98"/>
<polygon fill="black" stroke="black" points="421.13,-358.02 414.11,-365.95 424.55,-364.13 421.13,-358.02"/>
<g id="a_edge35&#45;headlabel"><a xlink:href="dir_000072_000042.html" target="_top" xlink:title="1">
<text text-anchor="middle" x="422.89" y="-351.29" font-family="Helvetica,sans-Serif" font-size="10.00">1</text>
</a>
</g>
</g>
<!-- dir_fcd037b3c61b82b39da2ca73b895b43c&#45;&gt;dir_260d2cbf2ed6a6826d7b84c90a66ff13 -->
<g id="edge36" class="edge">
<title>dir_fcd037b3c61b82b39da2ca73b895b43c&#45;&gt;dir_260d2cbf2ed6a6826d7b84c90a66ff13</title>
<path fill="none" stroke="black" d="M461.54,-290.13C451.57,-286.64 440.89,-283.05 430.89,-280 391.32,-267.91 346.03,-256.21 311.73,-247.77"/>
<polygon fill="black" stroke="black" points="312.45,-244.34 301.9,-245.36 310.79,-251.14 312.45,-244.34"/>
<g id="a_edge36&#45;headlabel"><a xlink:href="dir_000072_000067.html" target="_top" xlink:title="1">
<text text-anchor="middle" x="316.61" y="-239.93" font-family="Helvetica,sans-Serif" font-size="10.00">1</text>
</a>
</g>
</g>
<!-- dir_fcd037b3c61b82b39da2ca73b895b43c&#45;&gt;dir_aff1144816ce620757629f51c7ba72f0 -->
<g id="edge37" class="edge">
<title>dir_fcd037b3c61b82b39da2ca73b895b43c&#45;&gt;dir_aff1144816ce620757629f51c7ba72f0</title>
<path fill="none" stroke="black" d="M518.78,-287.99C527.18,-278.31 536.47,-265.46 540.89,-252 545.88,-236.8 547.41,-230.61 540.89,-216 535.81,-204.6 526.93,-194.63 517.58,-186.51"/>
<polygon fill="black" stroke="black" points="519.67,-183.69 509.69,-180.13 515.27,-189.14 519.67,-183.69"/>
<g id="a_edge37&#45;headlabel"><a xlink:href="dir_000072_000065.html" target="_top" xlink:title="1">
<text text-anchor="middle" x="524.25" y="-181.25" font-family="Helvetica,sans-Serif" font-size="10.00">1</text>
</a>
</g>
</g>
<!-- dir_fcd037b3c61b82b39da2ca73b895b43c&#45;&gt;dir_236e02cd02223a2412f137d7ad85069e -->
<g id="edge38" class="edge">
<title>dir_fcd037b3c61b82b39da2ca73b895b43c&#45;&gt;dir_236e02cd02223a2412f137d7ad85069e</title>
<path fill="none" stroke="black" d="M521.18,-287.76C532.06,-277.71 545.68,-264.57 556.89,-252 575.02,-231.67 593.67,-206.94 606.84,-188.71"/>
<polygon fill="black" stroke="black" points="609.86,-190.5 612.84,-180.34 604.17,-186.43 609.86,-190.5"/>
<g id="a_edge38&#45;headlabel"><a xlink:href="dir_000072_000074.html" target="_top" xlink:title="1">
<text text-anchor="middle" x="610.08" y="-192.58" font-family="Helvetica,sans-Serif" font-size="10.00">1</text>
</a>
</g>
</g>
<!-- dir_fcd037b3c61b82b39da2ca73b895b43c&#45;&gt;dir_189353a96b8434d24dafb7e206a5344c -->
<g id="edge40" class="edge">
<title>dir_fcd037b3c61b82b39da2ca73b895b43c&#45;&gt;dir_189353a96b8434d24dafb7e206a5344c</title>
<path fill="none" stroke="black" d="M461.79,-289.19C451.82,-285.73 441.07,-282.39 430.89,-280 332.37,-256.84 299.74,-287.32 204.89,-252 164.48,-236.95 124.19,-207.44 98.72,-186.53"/>
<polygon fill="black" stroke="black" points="100.91,-183.8 90.99,-180.07 96.42,-189.17 100.91,-183.8"/>
<g id="a_edge40&#45;headlabel"><a xlink:href="dir_000072_000048.html" target="_top" xlink:title="1">
<text text-anchor="middle" x="105.49" y="-181.42" font-family="Helvetica,sans-Serif" font-size="10.00">1</text>
</a>
</g>
</g>
<!-- dir_fcd037b3c61b82b39da2ca73b895b43c&#45;&gt;dir_2e574b6382041dc2a136b1675bed65ad -->
<g id="edge41" class="edge">
<title>dir_fcd037b3c61b82b39da2ca73b895b43c&#45;&gt;dir_2e574b6382041dc2a136b1675bed65ad</title>
<path fill="none" stroke="black" d="M541.89,-305.66C629.82,-306.17 835.53,-301.88 878.89,-252 933.21,-189.51 899.88,-117.77 830.89,-72 786.66,-42.65 630.79,-27.31 558.38,-21.63"/>
<polygon fill="black" stroke="black" points="558.56,-18.13 548.32,-20.86 558.03,-25.11 558.56,-18.13"/>
<g id="a_edge41&#45;headlabel"><a xlink:href="dir_000072_000005.html" target="_top" xlink:title="4">
<text text-anchor="middle" x="562.36" y="-13.08" font-family="Helvetica,sans-Serif" font-size="10.00">4</text>
</a>
</g>
</g>
<!-- dir_fcd037b3c61b82b39da2ca73b895b43c&#45;&gt;dir_9a9e2b7a8f13e92341bd3030ad46e690 -->
<g id="edge42" class="edge">
<title>dir_fcd037b3c61b82b39da2ca73b895b43c&#45;&gt;dir_9a9e2b7a8f13e92341bd3030ad46e690</title>
<path fill="none" stroke="black" d="M495.98,-287.7C495.18,-279.98 494.95,-270.71 495.3,-262.11"/>
<polygon fill="black" stroke="black" points="498.79,-262.32 496,-252.1 491.81,-261.84 498.79,-262.32"/>
<g id="a_edge42&#45;headlabel"><a xlink:href="dir_000072_000079.html" target="_top" xlink:title="1">
<text text-anchor="middle" x="501.37" y="-263.61" font-family="Helvetica,sans-Serif" font-size="10.00">1</text>
</a>
</g>
</g>
<!-- dir_fcd037b3c61b82b39da2ca73b895b43c&#45;&gt;dir_ba9f96492b222561776079c293f18c0c -->
<g id="edge43" class="edge">
<title>dir_fcd037b3c61b82b39da2ca73b895b43c&#45;&gt;dir_ba9f96492b222561776079c293f18c0c</title>
<path fill="none" stroke="black" d="M541.99,-305.25C625.93,-304.83 815.74,-298.61 855.89,-252 887.22,-215.63 878.23,-186.49 855.89,-144 849.33,-131.52 838.35,-121.4 826.71,-113.48"/>
<polygon fill="black" stroke="black" points="828.49,-110.47 818.16,-108.1 824.76,-116.4 828.49,-110.47"/>
<g id="a_edge43&#45;headlabel"><a xlink:href="dir_000072_000035.html" target="_top" xlink:title="1">
<text text-anchor="middle" x="833.05" y="-107.48" font-family="Helvetica,sans-Serif" font-size="10.00">1</text>
</a>
</g>
</g>
<!-- dir_fcd037b3c61b82b39da2ca73b895b43c&#45;&gt;dir_4a120dbb11348b2823d2a12dcab2f1e3 -->
<g id="edge44" class="edge">
<title>dir_fcd037b3c61b82b39da2ca73b895b43c&#45;&gt;dir_4a120dbb11348b2823d2a12dcab2f1e3</title>
<path fill="none" stroke="black" d="M541.97,-298.41C636.74,-281.23 861.13,-230.33 784.89,-144 759.37,-115.1 496.15,-98.23 397.21,-92.88"/>
<polygon fill="black" stroke="black" points="397.24,-89.37 387.07,-92.34 396.87,-96.36 397.24,-89.37"/>
<g id="a_edge44&#45;headlabel"><a xlink:href="dir_000072_000002.html" target="_top" xlink:title="1">
<text text-anchor="middle" x="400.98" y="-84.23" font-family="Helvetica,sans-Serif" font-size="10.00">1</text>
</a>
</g>
</g>
<!-- dir_fcd037b3c61b82b39da2ca73b895b43c&#45;&gt;dir_ead2403153bcb9f28373d1149c7d4c27 -->
<g id="edge45" class="edge">
<title>dir_fcd037b3c61b82b39da2ca73b895b43c&#45;&gt;dir_ead2403153bcb9f28373d1149c7d4c27</title>
<path fill="none" stroke="black" d="M530.24,-287.87C572.67,-262.23 652.74,-213.85 699.78,-185.43"/>
<polygon fill="black" stroke="black" points="701.7,-188.36 708.44,-180.19 698.08,-182.37 701.7,-188.36"/>
<g id="a_edge45&#45;headlabel"><a xlink:href="dir_000072_000050.html" target="_top" xlink:title="1">
<text text-anchor="middle" x="700.09" y="-190.15" font-family="Helvetica,sans-Serif" font-size="10.00">1</text>
</a>
</g>
</g>
<!-- dir_fcd037b3c61b82b39da2ca73b895b43c&#45;&gt;dir_9c1a1c874c5316598fbf40a566ddc437 -->
<g id="edge46" class="edge">
<title>dir_fcd037b3c61b82b39da2ca73b895b43c&#45;&gt;dir_9c1a1c874c5316598fbf40a566ddc437</title>
<path fill="none" stroke="black" d="M474.51,-287.87C433.61,-262.28 356.5,-214.05 311.02,-185.6"/>
<polygon fill="black" stroke="black" points="312.7,-182.53 302.37,-180.19 308.99,-188.46 312.7,-182.53"/>
<g id="a_edge46&#45;headlabel"><a xlink:href="dir_000072_000071.html" target="_top" xlink:title="1">
<text text-anchor="middle" x="317.26" y="-179.52" font-family="Helvetica,sans-Serif" font-size="10.00">1</text>
</a>
</g>
</g>
<!-- dir_ba9f96492b222561776079c293f18c0c&#45;&gt;dir_2e574b6382041dc2a136b1675bed65ad -->
<g id="edge47" class="edge">
<title>dir_ba9f96492b222561776079c293f18c0c&#45;&gt;dir_2e574b6382041dc2a136b1675bed65ad</title>
<path fill="none" stroke="black" d="M735.71,-77.28C685.86,-63.76 604.72,-41.74 557.73,-28.99"/>
<polygon fill="black" stroke="black" points="558.53,-25.59 547.96,-26.34 556.7,-32.34 558.53,-25.59"/>
<g id="a_edge47&#45;headlabel"><a xlink:href="dir_000035_000005.html" target="_top" xlink:title="1">
<text text-anchor="middle" x="562.74" y="-21.29" font-family="Helvetica,sans-Serif" font-size="10.00">1</text>
</a>
</g>
</g>
<!-- dir_d415c0d599231354676ceb56dc96abfc&#45;&gt;dir_4a120dbb11348b2823d2a12dcab2f1e3 -->
<g id="edge48" class="edge">
<title>dir_d415c0d599231354676ceb56dc96abfc&#45;&gt;dir_4a120dbb11348b2823d2a12dcab2f1e3</title>
<path fill="none" stroke="black" d="M359.89,-143.7C359.89,-135.98 359.89,-126.71 359.89,-118.11"/>
<polygon fill="black" stroke="black" points="363.39,-118.1 359.89,-108.1 356.39,-118.1 363.39,-118.1"/>
<g id="a_edge48&#45;headlabel"><a xlink:href="dir_000058_000002.html" target="_top" xlink:title="2">
<text text-anchor="middle" x="366.23" y="-119.2" font-family="Helvetica,sans-Serif" font-size="10.00">2</text>
</a>
</g>
</g>
<!-- dir_ead2403153bcb9f28373d1149c7d4c27&#45;&gt;dir_2e574b6382041dc2a136b1675bed65ad -->
<g id="edge49" class="edge">
<title>dir_ead2403153bcb9f28373d1149c7d4c27&#45;&gt;dir_2e574b6382041dc2a136b1675bed65ad</title>
<path fill="none" stroke="black" d="M710.84,-143.87C672,-118.34 598.85,-70.25 555.54,-41.78"/>
<polygon fill="black" stroke="black" points="557.32,-38.76 547.04,-36.19 553.47,-44.61 557.32,-38.76"/>
<g id="a_edge49&#45;headlabel"><a xlink:href="dir_000050_000005.html" target="_top" xlink:title="3">
<text text-anchor="middle" x="561.88" y="-35.86" font-family="Helvetica,sans-Serif" font-size="10.00">3</text>
</a>
</g>
</g>
<!-- dir_ead2403153bcb9f28373d1149c7d4c27&#45;&gt;dir_ba9f96492b222561776079c293f18c0c -->
<g id="edge50" class="edge">
<title>dir_ead2403153bcb9f28373d1149c7d4c27&#45;&gt;dir_ba9f96492b222561776079c293f18c0c</title>
<path fill="none" stroke="black" d="M747.27,-143.7C752.16,-135.56 758.08,-125.69 763.47,-116.7"/>
<polygon fill="black" stroke="black" points="766.48,-118.48 768.63,-108.1 760.48,-114.88 766.48,-118.48"/>
<g id="a_edge50&#45;headlabel"><a xlink:href="dir_000050_000035.html" target="_top" xlink:title="1">
<text text-anchor="middle" x="767.07" y="-120.52" font-family="Helvetica,sans-Serif" font-size="10.00">1</text>
</a>
</g>
</g>
<!-- dir_ead2403153bcb9f28373d1149c7d4c27&#45;&gt;dir_4a120dbb11348b2823d2a12dcab2f1e3 -->
<g id="edge51" class="edge">
<title>dir_ead2403153bcb9f28373d1149c7d4c27&#45;&gt;dir_4a120dbb11348b2823d2a12dcab2f1e3</title>
<path fill="none" stroke="black" d="M698.34,-146.41C695.5,-145.53 692.66,-144.72 689.89,-144 585.54,-117 458.88,-101.28 397.23,-94.68"/>
<polygon fill="black" stroke="black" points="397.51,-91.19 387.2,-93.63 396.77,-98.16 397.51,-91.19"/>
<g id="a_edge51&#45;headlabel"><a xlink:href="dir_000050_000002.html" target="_top" xlink:title="1">
<text text-anchor="middle" x="401.38" y="-86.25" font-family="Helvetica,sans-Serif" font-size="10.00">1</text>
</a>
</g>
</g>
<!-- dir_9c1a1c874c5316598fbf40a566ddc437&#45;&gt;dir_2e574b6382041dc2a136b1675bed65ad -->
<g id="edge52" class="edge">
<title>dir_9c1a1c874c5316598fbf40a566ddc437&#45;&gt;dir_2e574b6382041dc2a136b1675bed65ad</title>
<path fill="none" stroke="black" d="M279.78,-143.88C286.43,-123.68 300.3,-90.51 323.89,-72 370.75,-35.25 441.03,-23.91 483.76,-20.46"/>
<polygon fill="black" stroke="black" points="484.01,-23.95 493.74,-19.75 483.52,-16.96 484.01,-23.95"/>
<g id="a_edge52&#45;headlabel"><a xlink:href="dir_000071_000005.html" target="_top" xlink:title="1">
<text text-anchor="middle" x="480.62" y="-24.53" font-family="Helvetica,sans-Serif" font-size="10.00">1</text>
</a>
</g>
</g>
<!-- dir_9c1a1c874c5316598fbf40a566ddc437&#45;&gt;dir_4a120dbb11348b2823d2a12dcab2f1e3 -->
<g id="edge53" class="edge">
<title>dir_9c1a1c874c5316598fbf40a566ddc437&#45;&gt;dir_4a120dbb11348b2823d2a12dcab2f1e3</title>
<path fill="none" stroke="black" d="M295.9,-143.7C306.61,-134.88 319.78,-124.03 331.39,-114.47"/>
<polygon fill="black" stroke="black" points="333.63,-117.16 339.12,-108.1 329.18,-111.76 333.63,-117.16"/>
<g id="a_edge53&#45;headlabel"><a xlink:href="dir_000071_000002.html" target="_top" xlink:title="1">
<text text-anchor="middle" x="332.66" y="-119.14" font-family="Helvetica,sans-Serif" font-size="10.00">1</text>
</a>
</g>
</g>
</g>
</svg>
