<?xml version="1.0" encoding="UTF-8" standalone="no"?>
<!DOCTYPE svg PUBLIC "-//W3C//DTD SVG 1.1//EN"
 "http://www.w3.org/Graphics/SVG/1.1/DTD/svg11.dtd">
<!-- Generated by graphviz version 2.43.0 (0)
 -->
<!-- Title: Libs/Engine/sources/Components/TextUI Pages: 1 -->
<svg width="214pt" height="223pt"
 viewBox="0.00 0.00 213.61 223.00" xmlns="http://www.w3.org/2000/svg" xmlns:xlink="http://www.w3.org/1999/xlink">
<g id="graph0" class="graph" transform="scale(1 1) rotate(0) translate(4 219)">
<title>Libs/Engine/sources/Components/TextUI</title>
<polygon fill="white" stroke="transparent" points="-4,4 -4,-219 209.61,-219 209.61,4 -4,4"/>
<g id="clust1" class="cluster">
<title>clusterdir_e1b125331ccfd7597fbda9d04ae41b2d</title>
<g id="a_clust1"><a xlink:href="dir_e1b125331ccfd7597fbda9d04ae41b2d.html" target="_top" xlink:title="Components">
<polygon fill="#ddddee" stroke="black" points="64.61,-136 64.61,-207 142.61,-207 142.61,-136 64.61,-136"/>
<text text-anchor="middle" x="103.61" y="-195" font-family="Helvetica,sans-Serif" font-size="10.00">Components</text>
</a>
</g>
</g>
<!-- dir_56dcb3087d61a7b61f3acc77e3c49ec1 -->
<g id="node1" class="node">
<title>dir_56dcb3087d61a7b61f3acc77e3c49ec1</title>
<g id="a_node1"><a xlink:href="dir_56dcb3087d61a7b61f3acc77e3c49ec1.html" target="_top" xlink:title="TextUI">
<polygon fill="#eeeeff" stroke="black" points="130.61,-180 76.61,-180 76.61,-144 130.61,-144 130.61,-180"/>
<text text-anchor="middle" x="103.61" y="-159.5" font-family="Helvetica,sans-Serif" font-size="10.00">TextUI</text>
</a>
</g>
</g>
<!-- dir_2e574b6382041dc2a136b1675bed65ad -->
<g id="node2" class="node">
<title>dir_2e574b6382041dc2a136b1675bed65ad</title>
<g id="a_node2"><a xlink:href="dir_2e574b6382041dc2a136b1675bed65ad.html" target="_top" xlink:title="RayLib">
<polygon fill="white" stroke="red" points="84.61,-36 30.61,-36 30.61,0 84.61,0 84.61,-36"/>
<text text-anchor="middle" x="57.61" y="-15.5" font-family="Helvetica,sans-Serif" font-size="10.00">RayLib</text>
</a>
</g>
</g>
<!-- dir_56dcb3087d61a7b61f3acc77e3c49ec1&#45;&gt;dir_2e574b6382041dc2a136b1675bed65ad -->
<g id="edge1" class="edge">
<title>dir_56dcb3087d61a7b61f3acc77e3c49ec1&#45;&gt;dir_2e574b6382041dc2a136b1675bed65ad</title>
<path fill="none" stroke="black" d="M76.6,-154.65C53.23,-147.57 20.86,-133.59 5.61,-108 -2.58,-94.26 -0.44,-86.81 5.61,-72 10.1,-61.02 18.08,-51.08 26.46,-42.86"/>
<polygon fill="black" stroke="black" points="28.84,-45.42 33.86,-36.09 24.12,-40.26 28.84,-45.42"/>
<g id="a_edge1&#45;headlabel"><a xlink:href="dir_000070_000005.html" target="_top" xlink:title="2">
<text text-anchor="middle" x="28.11" y="-47.45" font-family="Helvetica,sans-Serif" font-size="10.00">2</text>
</a>
</g>
</g>
<!-- dir_ba9f96492b222561776079c293f18c0c -->
<g id="node3" class="node">
<title>dir_ba9f96492b222561776079c293f18c0c</title>
<g id="a_node3"><a xlink:href="dir_ba9f96492b222561776079c293f18c0c.html" target="_top" xlink:title="AssetManager">
<polygon fill="white" stroke="red" points="100.61,-108 14.61,-108 14.61,-72 100.61,-72 100.61,-108"/>
<text text-anchor="middle" x="57.61" y="-87.5" font-family="Helvetica,sans-Serif" font-size="10.00">AssetManager</text>
</a>
</g>
</g>
<!-- dir_56dcb3087d61a7b61f3acc77e3c49ec1&#45;&gt;dir_ba9f96492b222561776079c293f18c0c -->
<g id="edge2" class="edge">
<title>dir_56dcb3087d61a7b61f3acc77e3c49ec1&#45;&gt;dir_ba9f96492b222561776079c293f18c0c</title>
<path fill="none" stroke="black" d="M92.24,-143.7C86.89,-135.56 80.4,-125.69 74.5,-116.7"/>
<polygon fill="black" stroke="black" points="77.27,-114.54 68.85,-108.1 71.42,-118.38 77.27,-114.54"/>
<g id="a_edge2&#45;headlabel"><a xlink:href="dir_000070_000035.html" target="_top" xlink:title="1">
<text text-anchor="middle" x="81.61" y="-113.48" font-family="Helvetica,sans-Serif" font-size="10.00">1</text>
</a>
</g>
</g>
<!-- dir_4a120dbb11348b2823d2a12dcab2f1e3 -->
<g id="node4" class="node">
<title>dir_4a120dbb11348b2823d2a12dcab2f1e3</title>
<g id="a_node4"><a xlink:href="dir_4a120dbb11348b2823d2a12dcab2f1e3.html" target="_top" xlink:title="ECS">
<polygon fill="white" stroke="red" points="205.61,-36 151.61,-36 151.61,0 205.61,0 205.61,-36"/>
<text text-anchor="middle" x="178.61" y="-15.5" font-family="Helvetica,sans-Serif" font-size="10.00">ECS</text>
</a>
</g>
</g>
<!-- dir_56dcb3087d61a7b61f3acc77e3c49ec1&#45;&gt;dir_4a120dbb11348b2823d2a12dcab2f1e3 -->
<g id="edge3" class="edge">
<title>dir_56dcb3087d61a7b61f3acc77e3c49ec1&#45;&gt;dir_4a120dbb11348b2823d2a12dcab2f1e3</title>
<path fill="none" stroke="black" d="M130.68,-152.44C150.91,-144.45 177.13,-130.36 189.61,-108 200.18,-89.08 196,-64.41 189.98,-45.85"/>
<polygon fill="black" stroke="black" points="193.21,-44.47 186.54,-36.24 186.62,-46.83 193.21,-44.47"/>
<g id="a_edge3&#45;headlabel"><a xlink:href="dir_000070_000002.html" target="_top" xlink:title="1">
<text text-anchor="middle" x="197.09" y="-44.4" font-family="Helvetica,sans-Serif" font-size="10.00">1</text>
</a>
</g>
</g>
<!-- dir_b1f0031d9eb4af2fcbb46f1518cd5f09 -->
<g id="node5" class="node">
<title>dir_b1f0031d9eb4af2fcbb46f1518cd5f09</title>
<g id="a_node5"><a xlink:href="dir_b1f0031d9eb4af2fcbb46f1518cd5f09.html" target="_top" xlink:title="IUIObject">
<polygon fill="none" stroke="black" points="180.61,-108 118.61,-108 118.61,-72 180.61,-72 180.61,-108"/>
<text text-anchor="middle" x="149.61" y="-87.5" font-family="Helvetica,sans-Serif" font-size="10.00">IUIObject</text>
</a>
</g>
</g>
<!-- dir_56dcb3087d61a7b61f3acc77e3c49ec1&#45;&gt;dir_b1f0031d9eb4af2fcbb46f1518cd5f09 -->
<g id="edge4" class="edge">
<title>dir_56dcb3087d61a7b61f3acc77e3c49ec1&#45;&gt;dir_b1f0031d9eb4af2fcbb46f1518cd5f09</title>
<path fill="none" stroke="black" d="M114.98,-143.7C120.33,-135.56 126.81,-125.69 132.72,-116.7"/>
<polygon fill="black" stroke="black" points="135.8,-118.38 138.37,-108.1 129.95,-114.54 135.8,-118.38"/>
<g id="a_edge4&#45;headlabel"><a xlink:href="dir_000070_000059.html" target="_top" xlink:title="1">
<text text-anchor="middle" x="136.2" y="-120.45" font-family="Helvetica,sans-Serif" font-size="10.00">1</text>
</a>
</g>
</g>
<!-- dir_ba9f96492b222561776079c293f18c0c&#45;&gt;dir_2e574b6382041dc2a136b1675bed65ad -->
<g id="edge5" class="edge">
<title>dir_ba9f96492b222561776079c293f18c0c&#45;&gt;dir_2e574b6382041dc2a136b1675bed65ad</title>
<path fill="none" stroke="black" d="M57.61,-71.7C57.61,-63.98 57.61,-54.71 57.61,-46.11"/>
<polygon fill="black" stroke="black" points="61.11,-46.1 57.61,-36.1 54.11,-46.1 61.11,-46.1"/>
<g id="a_edge5&#45;headlabel"><a xlink:href="dir_000035_000005.html" target="_top" xlink:title="1">
<text text-anchor="middle" x="63.95" y="-47.2" font-family="Helvetica,sans-Serif" font-size="10.00">1</text>
</a>
</g>
</g>
<!-- dir_b1f0031d9eb4af2fcbb46f1518cd5f09&#45;&gt;dir_2e574b6382041dc2a136b1675bed65ad -->
<g id="edge6" class="edge">
<title>dir_b1f0031d9eb4af2fcbb46f1518cd5f09&#45;&gt;dir_2e574b6382041dc2a136b1675bed65ad</title>
<path fill="none" stroke="black" d="M126.87,-71.7C115.17,-62.8 100.75,-51.82 88.1,-42.2"/>
<polygon fill="black" stroke="black" points="90.17,-39.37 80.09,-36.1 85.93,-44.94 90.17,-39.37"/>
<g id="a_edge6&#45;headlabel"><a xlink:href="dir_000059_000005.html" target="_top" xlink:title="2">
<text text-anchor="middle" x="94.75" y="-36.79" font-family="Helvetica,sans-Serif" font-size="10.00">2</text>
</a>
</g>
</g>
<!-- dir_b1f0031d9eb4af2fcbb46f1518cd5f09&#45;&gt;dir_4a120dbb11348b2823d2a12dcab2f1e3 -->
<g id="edge7" class="edge">
<title>dir_b1f0031d9eb4af2fcbb46f1518cd5f09&#45;&gt;dir_4a120dbb11348b2823d2a12dcab2f1e3</title>
<path fill="none" stroke="black" d="M156.78,-71.7C160.04,-63.81 163.98,-54.3 167.61,-45.55"/>
<polygon fill="black" stroke="black" points="170.93,-46.68 171.52,-36.1 164.46,-44 170.93,-46.68"/>
<g id="a_edge7&#45;headlabel"><a xlink:href="dir_000059_000002.html" target="_top" xlink:title="1">
<text text-anchor="middle" x="172.18" y="-48.59" font-family="Helvetica,sans-Serif" font-size="10.00">1</text>
</a>
</g>
</g>
</g>
</svg>
