<?xml version="1.0" encoding="UTF-8" standalone="no"?>
<!DOCTYPE svg PUBLIC "-//W3C//DTD SVG 1.1//EN"
 "http://www.w3.org/Graphics/SVG/1.1/DTD/svg11.dtd">
<!-- Generated by graphviz version 2.43.0 (0)
 -->
<!-- Title: Libs/Lua/sources/DelayedPop Pages: 1 -->
<svg width="114pt" height="151pt"
 viewBox="0.00 0.00 114.00 151.00" xmlns="http://www.w3.org/2000/svg" xmlns:xlink="http://www.w3.org/1999/xlink">
<g id="graph0" class="graph" transform="scale(1 1) rotate(0) translate(4 147)">
<title>Libs/Lua/sources/DelayedPop</title>
<polygon fill="white" stroke="transparent" points="-4,4 -4,-147 110,-147 110,4 -4,4"/>
<g id="clust1" class="cluster">
<title>clusterdir_2afc1427824640c7cb01573f168f181b</title>
<g id="a_clust1"><a xlink:href="dir_2afc1427824640c7cb01573f168f181b.html" target="_top" xlink:title="sources">
<polygon fill="#ddddee" stroke="black" points="8,-64 8,-135 98,-135 98,-64 8,-64"/>
<text text-anchor="middle" x="53" y="-123" font-family="Helvetica,sans-Serif" font-size="10.00">sources</text>
</a>
</g>
</g>
<!-- dir_25d4a9ff9e330c240136dd15a7de5aaf -->
<g id="node1" class="node">
<title>dir_25d4a9ff9e330c240136dd15a7de5aaf</title>
<g id="a_node1"><a xlink:href="dir_25d4a9ff9e330c240136dd15a7de5aaf.html" target="_top" xlink:title="DelayedPop">
<polygon fill="#eeeeff" stroke="black" points="90.5,-108 15.5,-108 15.5,-72 90.5,-72 90.5,-108"/>
<text text-anchor="middle" x="53" y="-87.5" font-family="Helvetica,sans-Serif" font-size="10.00">DelayedPop</text>
</a>
</g>
</g>
<!-- dir_7766dd1b85b05768bdf3be38c3fdd86f -->
<g id="node2" class="node">
<title>dir_7766dd1b85b05768bdf3be38c3fdd86f</title>
<g id="a_node2"><a xlink:href="dir_7766dd1b85b05768bdf3be38c3fdd86f.html" target="_top" xlink:title="State">
<polygon fill="none" stroke="black" points="80,-36 26,-36 26,0 80,0 80,-36"/>
<text text-anchor="middle" x="53" y="-15.5" font-family="Helvetica,sans-Serif" font-size="10.00">State</text>
</a>
</g>
</g>
<!-- dir_25d4a9ff9e330c240136dd15a7de5aaf&#45;&gt;dir_7766dd1b85b05768bdf3be38c3fdd86f -->
<g id="edge1" class="edge">
<title>dir_25d4a9ff9e330c240136dd15a7de5aaf&#45;&gt;dir_7766dd1b85b05768bdf3be38c3fdd86f</title>
<path fill="none" stroke="black" d="M47.08,-71.7C46.29,-63.98 46.06,-54.71 46.4,-46.11"/>
<polygon fill="black" stroke="black" points="49.9,-46.32 47.1,-36.1 42.92,-45.84 49.9,-46.32"/>
<g id="a_edge1&#45;headlabel"><a xlink:href="dir_000090_000092.html" target="_top" xlink:title="1">
<text text-anchor="middle" x="52.48" y="-47.61" font-family="Helvetica,sans-Serif" font-size="10.00">1</text>
</a>
</g>
</g>
<!-- dir_7766dd1b85b05768bdf3be38c3fdd86f&#45;&gt;dir_25d4a9ff9e330c240136dd15a7de5aaf -->
<g id="edge2" class="edge">
<title>dir_7766dd1b85b05768bdf3be38c3fdd86f&#45;&gt;dir_25d4a9ff9e330c240136dd15a7de5aaf</title>
<path fill="none" stroke="black" d="M58.9,-36.1C59.7,-43.79 59.94,-53.05 59.6,-61.67"/>
<polygon fill="black" stroke="black" points="56.11,-61.48 58.92,-71.7 63.09,-61.96 56.11,-61.48"/>
<g id="a_edge2&#45;headlabel"><a xlink:href="dir_000092_000090.html" target="_top" xlink:title="1">
<text text-anchor="middle" x="53.52" y="-55.2" font-family="Helvetica,sans-Serif" font-size="10.00">1</text>
</a>
</g>
</g>
</g>
</svg>
