<?xml version="1.0" encoding="UTF-8" standalone="no"?>
<!DOCTYPE svg PUBLIC "-//W3C//DTD SVG 1.1//EN"
 "http://www.w3.org/Graphics/SVG/1.1/DTD/svg11.dtd">
<!-- Generated by graphviz version 2.43.0 (0)
 -->
<!-- Title: Prototype/sources Pages: 1 -->
<svg width="658pt" height="159pt"
 viewBox="0.00 0.00 658.00 159.00" xmlns="http://www.w3.org/2000/svg" xmlns:xlink="http://www.w3.org/1999/xlink">
<g id="graph0" class="graph" transform="scale(1 1) rotate(0) translate(4 155)">
<title>Prototype/sources</title>
<polygon fill="white" stroke="transparent" points="-4,4 -4,-155 654,-155 654,4 -4,4"/>
<g id="clust1" class="cluster">
<title>clusterdir_62c63055a38ab7e668282ea4bc5e160c</title>
<g id="a_clust1"><a xlink:href="dir_62c63055a38ab7e668282ea4bc5e160c.html" target="_top" xlink:title="Prototype">
<polygon fill="#ddddee" stroke="black" points="8,-56 8,-143 642,-143 642,-56 8,-56"/>
<text text-anchor="middle" x="325" y="-131" font-family="Helvetica,sans-Serif" font-size="10.00">Prototype</text>
</a>
</g>
</g>
<g id="clust2" class="cluster">
<title>clusterdir_133e6c552ddd196868d89f65ecca19a3</title>
<g id="a_clust2"><a xlink:href="dir_133e6c552ddd196868d89f65ecca19a3.html" target="_top">
<polygon fill="#eeeeff" stroke="black" points="16,-64 16,-116 634,-116 634,-64 16,-64"/>
</a>
</g>
</g>
<!-- dir_133e6c552ddd196868d89f65ecca19a3 -->
<g id="node1" class="node">
<title>dir_133e6c552ddd196868d89f65ecca19a3</title>
<text text-anchor="middle" x="599" y="-87.5" font-family="Helvetica,sans-Serif" font-size="10.00">sources</text>
</g>
<!-- dir_1bb3086d073132e349f5bc2c12260f1d -->
<g id="node2" class="node">
<title>dir_1bb3086d073132e349f5bc2c12260f1d</title>
<g id="a_node2"><a xlink:href="dir_1bb3086d073132e349f5bc2c12260f1d.html" target="_top" xlink:title="Behaviour">
<polygon fill="white" stroke="black" points="554,-108 488,-108 488,-72 554,-72 554,-108"/>
<text text-anchor="middle" x="521" y="-87.5" font-family="Helvetica,sans-Serif" font-size="10.00">Behaviour</text>
</a>
</g>
</g>
<!-- dir_6e6cb9563333489fde7459b1f95e59a5 -->
<g id="node9" class="node">
<title>dir_6e6cb9563333489fde7459b1f95e59a5</title>
<g id="a_node9"><a xlink:href="dir_6e6cb9563333489fde7459b1f95e59a5.html" target="_top" xlink:title="Libs">
<polygon fill="white" stroke="red" points="301,-36 247,-36 247,0 301,0 301,-36"/>
<text text-anchor="middle" x="274" y="-15.5" font-family="Helvetica,sans-Serif" font-size="10.00">Libs</text>
</a>
</g>
</g>
<!-- dir_1bb3086d073132e349f5bc2c12260f1d&#45;&gt;dir_6e6cb9563333489fde7459b1f95e59a5 -->
<g id="edge4" class="edge">
<title>dir_1bb3086d073132e349f5bc2c12260f1d&#45;&gt;dir_6e6cb9563333489fde7459b1f95e59a5</title>
<path fill="none" stroke="black" d="M503.06,-71.75C496.05,-65.9 487.63,-59.88 479,-56 423.96,-31.27 353.57,-23.06 311.24,-20.34"/>
<polygon fill="black" stroke="black" points="311.29,-16.84 301.1,-19.76 310.89,-23.82 311.29,-16.84"/>
<g id="a_edge4&#45;headlabel"><a xlink:href="dir_000011_000001.html" target="_top" xlink:title="17">
<text text-anchor="middle" x="315.04" y="-11.71" font-family="Helvetica,sans-Serif" font-size="10.00">17</text>
</a>
</g>
</g>
<!-- dir_e8764ab21035678e47deb17d33edafb1 -->
<g id="node3" class="node">
<title>dir_e8764ab21035678e47deb17d33edafb1</title>
<g id="a_node3"><a xlink:href="dir_e8764ab21035678e47deb17d33edafb1.html" target="_top" xlink:title="Coordinator">
<polygon fill="white" stroke="black" points="470,-108 396,-108 396,-72 470,-72 470,-108"/>
<text text-anchor="middle" x="433" y="-87.5" font-family="Helvetica,sans-Serif" font-size="10.00">Coordinator</text>
</a>
</g>
</g>
<!-- dir_e8764ab21035678e47deb17d33edafb1&#45;&gt;dir_6e6cb9563333489fde7459b1f95e59a5 -->
<g id="edge3" class="edge">
<title>dir_e8764ab21035678e47deb17d33edafb1&#45;&gt;dir_6e6cb9563333489fde7459b1f95e59a5</title>
<path fill="none" stroke="black" d="M411.88,-71.78C404.34,-66.21 395.59,-60.36 387,-56 362.89,-43.77 333.88,-34.37 311.29,-28.11"/>
<polygon fill="black" stroke="black" points="311.97,-24.67 301.41,-25.45 310.15,-31.43 311.97,-24.67"/>
<g id="a_edge3&#45;headlabel"><a xlink:href="dir_000012_000001.html" target="_top" xlink:title="19">
<text text-anchor="middle" x="316.18" y="-20.36" font-family="Helvetica,sans-Serif" font-size="10.00">19</text>
</a>
</g>
</g>
<!-- dir_e851d082c682b3ef59697de33e300896 -->
<g id="node4" class="node">
<title>dir_e851d082c682b3ef59697de33e300896</title>
<g id="a_node4"><a xlink:href="dir_e851d082c682b3ef59697de33e300896.html" target="_top" xlink:title="Drag">
<polygon fill="white" stroke="black" points="378,-108 324,-108 324,-72 378,-72 378,-108"/>
<text text-anchor="middle" x="351" y="-87.5" font-family="Helvetica,sans-Serif" font-size="10.00">Drag</text>
</a>
</g>
</g>
<!-- dir_e851d082c682b3ef59697de33e300896&#45;&gt;dir_6e6cb9563333489fde7459b1f95e59a5 -->
<g id="edge1" class="edge">
<title>dir_e851d082c682b3ef59697de33e300896&#45;&gt;dir_6e6cb9563333489fde7459b1f95e59a5</title>
<path fill="none" stroke="black" d="M332.34,-71.84C326.77,-66.74 320.65,-61.13 315,-56 310.46,-51.87 305.62,-47.49 300.92,-43.24"/>
<polygon fill="black" stroke="black" points="302.99,-40.39 293.22,-36.29 298.3,-45.59 302.99,-40.39"/>
<g id="a_edge1&#45;headlabel"><a xlink:href="dir_000013_000001.html" target="_top" xlink:title="11">
<text text-anchor="middle" x="307.56" y="-38.19" font-family="Helvetica,sans-Serif" font-size="10.00">11</text>
</a>
</g>
</g>
<!-- dir_9eb00c6228dcb080e90be9c18771974c -->
<g id="node5" class="node">
<title>dir_9eb00c6228dcb080e90be9c18771974c</title>
<g id="a_node5"><a xlink:href="dir_9eb00c6228dcb080e90be9c18771974c.html" target="_top" xlink:title="Drawable">
<polygon fill="white" stroke="black" points="305.5,-108 242.5,-108 242.5,-72 305.5,-72 305.5,-108"/>
<text text-anchor="middle" x="274" y="-87.5" font-family="Helvetica,sans-Serif" font-size="10.00">Drawable</text>
</a>
</g>
</g>
<!-- dir_9eb00c6228dcb080e90be9c18771974c&#45;&gt;dir_6e6cb9563333489fde7459b1f95e59a5 -->
<g id="edge6" class="edge">
<title>dir_9eb00c6228dcb080e90be9c18771974c&#45;&gt;dir_6e6cb9563333489fde7459b1f95e59a5</title>
<path fill="none" stroke="black" d="M274,-71.7C274,-63.98 274,-54.71 274,-46.11"/>
<polygon fill="black" stroke="black" points="277.5,-46.1 274,-36.1 270.5,-46.1 277.5,-46.1"/>
<g id="a_edge6&#45;headlabel"><a xlink:href="dir_000014_000001.html" target="_top" xlink:title="11">
<text text-anchor="middle" x="280.34" y="-47.2" font-family="Helvetica,sans-Serif" font-size="10.00">11</text>
</a>
</g>
</g>
<!-- dir_d1e4764623df5ec7acf85682f1f11f67 -->
<g id="node6" class="node">
<title>dir_d1e4764623df5ec7acf85682f1f11f67</title>
<g id="a_node6"><a xlink:href="dir_d1e4764623df5ec7acf85682f1f11f67.html" target="_top" xlink:title="Input">
<polygon fill="white" stroke="black" points="224,-108 170,-108 170,-72 224,-72 224,-108"/>
<text text-anchor="middle" x="197" y="-87.5" font-family="Helvetica,sans-Serif" font-size="10.00">Input</text>
</a>
</g>
</g>
<!-- dir_d1e4764623df5ec7acf85682f1f11f67&#45;&gt;dir_6e6cb9563333489fde7459b1f95e59a5 -->
<g id="edge7" class="edge">
<title>dir_d1e4764623df5ec7acf85682f1f11f67&#45;&gt;dir_6e6cb9563333489fde7459b1f95e59a5</title>
<path fill="none" stroke="black" d="M216.03,-71.7C225.54,-63.05 237.21,-52.45 247.57,-43.03"/>
<polygon fill="black" stroke="black" points="250.14,-45.42 255.19,-36.1 245.43,-40.24 250.14,-45.42"/>
<g id="a_edge7&#45;headlabel"><a xlink:href="dir_000015_000001.html" target="_top" xlink:title="10">
<text text-anchor="middle" x="249.39" y="-47.44" font-family="Helvetica,sans-Serif" font-size="10.00">10</text>
</a>
</g>
</g>
<!-- dir_66fb2484f314bb94ca9295afa33409d1 -->
<g id="node7" class="node">
<title>dir_66fb2484f314bb94ca9295afa33409d1</title>
<g id="a_node7"><a xlink:href="dir_66fb2484f314bb94ca9295afa33409d1.html" target="_top" xlink:title="Loop">
<polygon fill="white" stroke="black" points="152,-108 98,-108 98,-72 152,-72 152,-108"/>
<text text-anchor="middle" x="125" y="-87.5" font-family="Helvetica,sans-Serif" font-size="10.00">Loop</text>
</a>
</g>
</g>
<!-- dir_66fb2484f314bb94ca9295afa33409d1&#45;&gt;dir_6e6cb9563333489fde7459b1f95e59a5 -->
<g id="edge2" class="edge">
<title>dir_66fb2484f314bb94ca9295afa33409d1&#45;&gt;dir_6e6cb9563333489fde7459b1f95e59a5</title>
<path fill="none" stroke="black" d="M140.66,-71.94C146.59,-66.25 153.68,-60.28 161,-56 184.49,-42.26 213.75,-32.86 236.61,-26.98"/>
<polygon fill="black" stroke="black" points="237.74,-30.3 246.61,-24.52 236.07,-23.5 237.74,-30.3"/>
<g id="a_edge2&#45;headlabel"><a xlink:href="dir_000016_000001.html" target="_top" xlink:title="10">
<text text-anchor="middle" x="234.93" y="-31.42" font-family="Helvetica,sans-Serif" font-size="10.00">10</text>
</a>
</g>
</g>
<!-- dir_fec2115e302c1468077f48d78291c3e4 -->
<g id="node8" class="node">
<title>dir_fec2115e302c1468077f48d78291c3e4</title>
<g id="a_node8"><a xlink:href="dir_fec2115e302c1468077f48d78291c3e4.html" target="_top" xlink:title="Shaders">
<polygon fill="white" stroke="black" points="80,-108 24,-108 24,-72 80,-72 80,-108"/>
<text text-anchor="middle" x="52" y="-87.5" font-family="Helvetica,sans-Serif" font-size="10.00">Shaders</text>
</a>
</g>
</g>
<!-- dir_fec2115e302c1468077f48d78291c3e4&#45;&gt;dir_6e6cb9563333489fde7459b1f95e59a5 -->
<g id="edge5" class="edge">
<title>dir_fec2115e302c1468077f48d78291c3e4&#45;&gt;dir_6e6cb9563333489fde7459b1f95e59a5</title>
<path fill="none" stroke="black" d="M67.53,-71.8C73.67,-65.96 81.14,-59.92 89,-56 136.42,-32.34 197.79,-23.81 236.54,-20.73"/>
<polygon fill="black" stroke="black" points="237.11,-24.2 246.84,-20 236.62,-17.22 237.11,-24.2"/>
<g id="a_edge5&#45;headlabel"><a xlink:href="dir_000017_000001.html" target="_top" xlink:title="17">
<text text-anchor="middle" x="233.73" y="-24.79" font-family="Helvetica,sans-Serif" font-size="10.00">17</text>
</a>
</g>
</g>
</g>
</svg>
