<?xml version="1.0" encoding="UTF-8" standalone="no"?>
<!DOCTYPE svg PUBLIC "-//W3C//DTD SVG 1.1//EN"
 "http://www.w3.org/Graphics/SVG/1.1/DTD/svg11.dtd">
<!-- Generated by graphviz version 2.43.0 (0)
 -->
<!-- Title: Libs/RayLib/sources/Shader Pages: 1 -->
<svg width="239pt" height="159pt"
 viewBox="0.00 0.00 239.00 159.00" xmlns="http://www.w3.org/2000/svg" xmlns:xlink="http://www.w3.org/1999/xlink">
<g id="graph0" class="graph" transform="scale(1 1) rotate(0) translate(4 155)">
<title>Libs/RayLib/sources/Shader</title>
<polygon fill="white" stroke="transparent" points="-4,4 -4,-155 235,-155 235,4 -4,4"/>
<g id="clust1" class="cluster">
<title>clusterdir_b58f5cbef52144281201f92199ca772f</title>
<g id="a_clust1"><a xlink:href="dir_b58f5cbef52144281201f92199ca772f.html" target="_top" xlink:title="sources">
<polygon fill="#ddddee" stroke="black" points="8,-56 8,-143 204,-143 204,-56 8,-56"/>
<text text-anchor="middle" x="106" y="-131" font-family="Helvetica,sans-Serif" font-size="10.00">sources</text>
</a>
</g>
</g>
<g id="clust2" class="cluster">
<title>clusterdir_9051183bb55ab46ec0c1900a32da5be2</title>
<g id="a_clust2"><a xlink:href="dir_9051183bb55ab46ec0c1900a32da5be2.html" target="_top">
<polygon fill="#eeeeff" stroke="black" points="16,-64 16,-116 196,-116 196,-64 16,-64"/>
</a>
</g>
</g>
<!-- dir_9051183bb55ab46ec0c1900a32da5be2 -->
<g id="node1" class="node">
<title>dir_9051183bb55ab46ec0c1900a32da5be2</title>
<text text-anchor="middle" x="51" y="-87.5" font-family="Helvetica,sans-Serif" font-size="10.00">Shader</text>
</g>
<!-- dir_a20e3d58a77f7aec7eaa75bb031705ad -->
<g id="node4" class="node">
<title>dir_a20e3d58a77f7aec7eaa75bb031705ad</title>
<g id="a_node4"><a xlink:href="dir_a20e3d58a77f7aec7eaa75bb031705ad.html" target="_top" xlink:title="IAsset">
<polygon fill="none" stroke="black" points="78,-36 24,-36 24,0 78,0 78,-36"/>
<text text-anchor="middle" x="51" y="-15.5" font-family="Helvetica,sans-Serif" font-size="10.00">IAsset</text>
</a>
</g>
</g>
<!-- dir_9051183bb55ab46ec0c1900a32da5be2&#45;&gt;dir_a20e3d58a77f7aec7eaa75bb031705ad -->
<g id="edge3" class="edge">
<title>dir_9051183bb55ab46ec0c1900a32da5be2&#45;&gt;dir_a20e3d58a77f7aec7eaa75bb031705ad</title>
<path fill="none" stroke="black" d="M51,-71.7C51,-63.98 51,-54.71 51,-46.11"/>
<polygon fill="black" stroke="black" points="54.5,-46.1 51,-36.1 47.5,-46.1 54.5,-46.1"/>
<g id="a_edge3&#45;headlabel"><a xlink:href="dir_000114_000101.html" target="_top" xlink:title="1">
<text text-anchor="middle" x="57.34" y="-47.2" font-family="Helvetica,sans-Serif" font-size="10.00">1</text>
</a>
</g>
</g>
<!-- dir_cb0e59d8cdf79bcae8dc59b07a5740ea -->
<g id="node2" class="node">
<title>dir_cb0e59d8cdf79bcae8dc59b07a5740ea</title>
<g id="a_node2"><a xlink:href="dir_cb0e59d8cdf79bcae8dc59b07a5740ea.html" target="_top" xlink:title="AmbientShader">
<polygon fill="white" stroke="black" points="188,-108 96,-108 96,-72 188,-72 188,-108"/>
<text text-anchor="middle" x="142" y="-87.5" font-family="Helvetica,sans-Serif" font-size="10.00">AmbientShader</text>
</a>
</g>
</g>
<!-- dir_3008fb1da06f44ca71e3c91ff5fedb38 -->
<g id="node3" class="node">
<title>dir_3008fb1da06f44ca71e3c91ff5fedb38</title>
<g id="a_node3"><a xlink:href="dir_3008fb1da06f44ca71e3c91ff5fedb38.html" target="_top" xlink:title="Color">
<polygon fill="none" stroke="black" points="159,-36 105,-36 105,0 159,0 159,-36"/>
<text text-anchor="middle" x="132" y="-15.5" font-family="Helvetica,sans-Serif" font-size="10.00">Color</text>
</a>
</g>
</g>
<!-- dir_cb0e59d8cdf79bcae8dc59b07a5740ea&#45;&gt;dir_3008fb1da06f44ca71e3c91ff5fedb38 -->
<g id="edge1" class="edge">
<title>dir_cb0e59d8cdf79bcae8dc59b07a5740ea&#45;&gt;dir_3008fb1da06f44ca71e3c91ff5fedb38</title>
<path fill="none" stroke="black" d="M139.53,-71.7C138.43,-63.98 137.1,-54.71 135.87,-46.11"/>
<polygon fill="black" stroke="black" points="139.32,-45.51 134.44,-36.1 132.39,-46.5 139.32,-45.51"/>
<g id="a_edge1&#45;headlabel"><a xlink:href="dir_000115_000099.html" target="_top" xlink:title="1">
<text text-anchor="middle" x="142.64" y="-46.17" font-family="Helvetica,sans-Serif" font-size="10.00">1</text>
</a>
</g>
</g>
<!-- dir_cf35fc6c26660d1f9e23e25cf7f90496 -->
<g id="node5" class="node">
<title>dir_cf35fc6c26660d1f9e23e25cf7f90496</title>
<g id="a_node5"><a xlink:href="dir_cf35fc6c26660d1f9e23e25cf7f90496.html" target="_top" xlink:title="Vector4">
<polygon fill="none" stroke="black" points="231,-36 177,-36 177,0 231,0 231,-36"/>
<text text-anchor="middle" x="204" y="-15.5" font-family="Helvetica,sans-Serif" font-size="10.00">Vector4</text>
</a>
</g>
</g>
<!-- dir_cb0e59d8cdf79bcae8dc59b07a5740ea&#45;&gt;dir_cf35fc6c26660d1f9e23e25cf7f90496 -->
<g id="edge2" class="edge">
<title>dir_cb0e59d8cdf79bcae8dc59b07a5740ea&#45;&gt;dir_cf35fc6c26660d1f9e23e25cf7f90496</title>
<path fill="none" stroke="black" d="M157.33,-71.7C164.76,-63.3 173.82,-53.07 181.98,-43.86"/>
<polygon fill="black" stroke="black" points="184.84,-45.91 188.85,-36.1 179.6,-41.27 184.84,-45.91"/>
<g id="a_edge2&#45;headlabel"><a xlink:href="dir_000115_000120.html" target="_top" xlink:title="1">
<text text-anchor="middle" x="184.58" y="-47.98" font-family="Helvetica,sans-Serif" font-size="10.00">1</text>
</a>
</g>
</g>
</g>
</svg>
