<?xml version="1.0" encoding="UTF-8" standalone="no"?>
<!DOCTYPE svg PUBLIC "-//W3C//DTD SVG 1.1//EN"
 "http://www.w3.org/Graphics/SVG/1.1/DTD/svg11.dtd">
<!-- Generated by graphviz version 2.43.0 (0)
 -->
<!-- Title: Libs/Engine/sources/Components/Box Pages: 1 -->
<svg width="186pt" height="223pt"
 viewBox="0.00 0.00 185.81 223.00" xmlns="http://www.w3.org/2000/svg" xmlns:xlink="http://www.w3.org/1999/xlink">
<g id="graph0" class="graph" transform="scale(1 1) rotate(0) translate(4 219)">
<title>Libs/Engine/sources/Components/Box</title>
<polygon fill="white" stroke="transparent" points="-4,4 -4,-219 181.81,-219 181.81,4 -4,4"/>
<g id="clust1" class="cluster">
<title>clusterdir_e1b125331ccfd7597fbda9d04ae41b2d</title>
<g id="a_clust1"><a xlink:href="dir_e1b125331ccfd7597fbda9d04ae41b2d.html" target="_top" xlink:title="Components">
<polygon fill="#ddddee" stroke="black" points="9.35,-136 9.35,-207 87.35,-207 87.35,-136 9.35,-136"/>
<text text-anchor="middle" x="48.35" y="-195" font-family="Helvetica,sans-Serif" font-size="10.00">Components</text>
</a>
</g>
</g>
<!-- dir_69a8678f19111c2bff4bcd28d6f0b45d -->
<g id="node1" class="node">
<title>dir_69a8678f19111c2bff4bcd28d6f0b45d</title>
<g id="a_node1"><a xlink:href="dir_69a8678f19111c2bff4bcd28d6f0b45d.html" target="_top" xlink:title="Box">
<polygon fill="#eeeeff" stroke="black" points="78.35,-180 24.35,-180 24.35,-144 78.35,-144 78.35,-180"/>
<text text-anchor="middle" x="51.35" y="-159.5" font-family="Helvetica,sans-Serif" font-size="10.00">Box</text>
</a>
</g>
</g>
<!-- dir_189353a96b8434d24dafb7e206a5344c -->
<g id="node2" class="node">
<title>dir_189353a96b8434d24dafb7e206a5344c</title>
<g id="a_node2"><a xlink:href="dir_189353a96b8434d24dafb7e206a5344c.html" target="_top" xlink:title="Destructible">
<polygon fill="none" stroke="black" points="90.35,-108 14.35,-108 14.35,-72 90.35,-72 90.35,-108"/>
<text text-anchor="middle" x="52.35" y="-87.5" font-family="Helvetica,sans-Serif" font-size="10.00">Destructible</text>
</a>
</g>
</g>
<!-- dir_69a8678f19111c2bff4bcd28d6f0b45d&#45;&gt;dir_189353a96b8434d24dafb7e206a5344c -->
<g id="edge1" class="edge">
<title>dir_69a8678f19111c2bff4bcd28d6f0b45d&#45;&gt;dir_189353a96b8434d24dafb7e206a5344c</title>
<path fill="none" stroke="black" d="M51.6,-143.7C51.71,-135.98 51.84,-126.71 51.97,-118.11"/>
<polygon fill="black" stroke="black" points="55.46,-118.15 52.11,-108.1 48.47,-118.05 55.46,-118.15"/>
<g id="a_edge1&#45;headlabel"><a xlink:href="dir_000042_000048.html" target="_top" xlink:title="1">
<text text-anchor="middle" x="58.25" y="-119.29" font-family="Helvetica,sans-Serif" font-size="10.00">1</text>
</a>
</g>
</g>
<!-- dir_fcd037b3c61b82b39da2ca73b895b43c -->
<g id="node3" class="node">
<title>dir_fcd037b3c61b82b39da2ca73b895b43c</title>
<g id="a_node3"><a xlink:href="dir_fcd037b3c61b82b39da2ca73b895b43c.html" target="_top" xlink:title="EntityFactory">
<polygon fill="none" stroke="black" points="176.35,-180 96.35,-180 96.35,-144 176.35,-144 176.35,-180"/>
<text text-anchor="middle" x="136.35" y="-159.5" font-family="Helvetica,sans-Serif" font-size="10.00">EntityFactory</text>
</a>
</g>
</g>
<!-- dir_69a8678f19111c2bff4bcd28d6f0b45d&#45;&gt;dir_fcd037b3c61b82b39da2ca73b895b43c -->
<g id="edge2" class="edge">
<title>dir_69a8678f19111c2bff4bcd28d6f0b45d&#45;&gt;dir_fcd037b3c61b82b39da2ca73b895b43c</title>
<path fill="none" stroke="black" d="M78.58,-162C81.05,-162 83.53,-162 86.01,-162"/>
<polygon fill="black" stroke="black" points="86.18,-165.5 96.18,-162 86.18,-158.5 86.18,-165.5"/>
<g id="a_edge2&#45;headlabel"><a xlink:href="dir_000042_000072.html" target="_top" xlink:title="1">
<text text-anchor="middle" x="82.59" y="-165.84" font-family="Helvetica,sans-Serif" font-size="10.00">1</text>
</a>
</g>
</g>
<!-- dir_4a120dbb11348b2823d2a12dcab2f1e3 -->
<g id="node4" class="node">
<title>dir_4a120dbb11348b2823d2a12dcab2f1e3</title>
<g id="a_node4"><a xlink:href="dir_4a120dbb11348b2823d2a12dcab2f1e3.html" target="_top" xlink:title="ECS">
<polygon fill="white" stroke="red" points="121.35,-36 67.35,-36 67.35,0 121.35,0 121.35,-36"/>
<text text-anchor="middle" x="94.35" y="-15.5" font-family="Helvetica,sans-Serif" font-size="10.00">ECS</text>
</a>
</g>
</g>
<!-- dir_69a8678f19111c2bff4bcd28d6f0b45d&#45;&gt;dir_4a120dbb11348b2823d2a12dcab2f1e3 -->
<g id="edge3" class="edge">
<title>dir_69a8678f19111c2bff4bcd28d6f0b45d&#45;&gt;dir_4a120dbb11348b2823d2a12dcab2f1e3</title>
<path fill="none" stroke="black" d="M30.53,-143.62C20.89,-134.2 10.47,-121.7 5.35,-108 -0.25,-93.01 -2.55,-85.91 5.35,-72 16.6,-52.21 38.49,-39.03 57.75,-30.76"/>
<polygon fill="black" stroke="black" points="59.23,-33.94 67.22,-26.98 56.63,-27.44 59.23,-33.94"/>
<g id="a_edge3&#45;headlabel"><a xlink:href="dir_000042_000002.html" target="_top" xlink:title="1">
<text text-anchor="middle" x="56.94" y="-35.41" font-family="Helvetica,sans-Serif" font-size="10.00">1</text>
</a>
</g>
</g>
<!-- dir_1f7fd5c054f752becab847a993818f59 -->
<g id="node5" class="node">
<title>dir_1f7fd5c054f752becab847a993818f59</title>
<g id="a_node5"><a xlink:href="dir_1f7fd5c054f752becab847a993818f59.html" target="_top" xlink:title="Camera">
<polygon fill="none" stroke="black" points="163.85,-108 108.85,-108 108.85,-72 163.85,-72 163.85,-108"/>
<text text-anchor="middle" x="136.35" y="-87.5" font-family="Helvetica,sans-Serif" font-size="10.00">Camera</text>
</a>
</g>
</g>
<!-- dir_69a8678f19111c2bff4bcd28d6f0b45d&#45;&gt;dir_1f7fd5c054f752becab847a993818f59 -->
<g id="edge4" class="edge">
<title>dir_69a8678f19111c2bff4bcd28d6f0b45d&#45;&gt;dir_1f7fd5c054f752becab847a993818f59</title>
<path fill="none" stroke="black" d="M72.36,-143.7C83.07,-134.88 96.24,-124.03 107.85,-114.47"/>
<polygon fill="black" stroke="black" points="110.09,-117.16 115.58,-108.1 105.64,-111.76 110.09,-117.16"/>
<g id="a_edge4&#45;headlabel"><a xlink:href="dir_000042_000045.html" target="_top" xlink:title="1">
<text text-anchor="middle" x="109.12" y="-119.14" font-family="Helvetica,sans-Serif" font-size="10.00">1</text>
</a>
</g>
</g>
<!-- dir_189353a96b8434d24dafb7e206a5344c&#45;&gt;dir_4a120dbb11348b2823d2a12dcab2f1e3 -->
<g id="edge5" class="edge">
<title>dir_189353a96b8434d24dafb7e206a5344c&#45;&gt;dir_4a120dbb11348b2823d2a12dcab2f1e3</title>
<path fill="none" stroke="black" d="M62.73,-71.7C67.62,-63.56 73.54,-53.69 78.93,-44.7"/>
<polygon fill="black" stroke="black" points="81.95,-46.48 84.09,-36.1 75.94,-42.88 81.95,-46.48"/>
<g id="a_edge5&#45;headlabel"><a xlink:href="dir_000048_000002.html" target="_top" xlink:title="2">
<text text-anchor="middle" x="82.53" y="-48.52" font-family="Helvetica,sans-Serif" font-size="10.00">2</text>
</a>
</g>
</g>
<!-- dir_fcd037b3c61b82b39da2ca73b895b43c&#45;&gt;dir_69a8678f19111c2bff4bcd28d6f0b45d -->
<g id="edge6" class="edge">
<title>dir_fcd037b3c61b82b39da2ca73b895b43c&#45;&gt;dir_69a8678f19111c2bff4bcd28d6f0b45d</title>
<path fill="none" stroke="black" d="M96.18,-162C93.71,-162 91.23,-162 88.76,-162"/>
<polygon fill="black" stroke="black" points="88.58,-158.5 78.58,-162 88.58,-165.5 88.58,-158.5"/>
<g id="a_edge6&#45;headlabel"><a xlink:href="dir_000072_000042.html" target="_top" xlink:title="1">
<text text-anchor="middle" x="92.17" y="-153.16" font-family="Helvetica,sans-Serif" font-size="10.00">1</text>
</a>
</g>
</g>
<!-- dir_fcd037b3c61b82b39da2ca73b895b43c&#45;&gt;dir_189353a96b8434d24dafb7e206a5344c -->
<g id="edge7" class="edge">
<title>dir_fcd037b3c61b82b39da2ca73b895b43c&#45;&gt;dir_189353a96b8434d24dafb7e206a5344c</title>
<path fill="none" stroke="black" d="M115.59,-143.7C105.11,-134.97 92.24,-124.24 80.85,-114.75"/>
<polygon fill="black" stroke="black" points="82.8,-111.82 72.88,-108.1 78.32,-117.19 82.8,-111.82"/>
<g id="a_edge7&#45;headlabel"><a xlink:href="dir_000072_000048.html" target="_top" xlink:title="1">
<text text-anchor="middle" x="87.38" y="-109.44" font-family="Helvetica,sans-Serif" font-size="10.00">1</text>
</a>
</g>
</g>
<!-- dir_fcd037b3c61b82b39da2ca73b895b43c&#45;&gt;dir_4a120dbb11348b2823d2a12dcab2f1e3 -->
<g id="edge8" class="edge">
<title>dir_fcd037b3c61b82b39da2ca73b895b43c&#45;&gt;dir_4a120dbb11348b2823d2a12dcab2f1e3</title>
<path fill="none" stroke="black" d="M152.54,-143.83C167.68,-125.57 186.19,-96.07 173.35,-72 164.26,-54.95 146.97,-42.41 130.88,-33.82"/>
<polygon fill="black" stroke="black" points="132.12,-30.53 121.61,-29.22 129.01,-36.8 132.12,-30.53"/>
<g id="a_edge8&#45;headlabel"><a xlink:href="dir_000072_000002.html" target="_top" xlink:title="1">
<text text-anchor="middle" x="136.61" y="-27.09" font-family="Helvetica,sans-Serif" font-size="10.00">1</text>
</a>
</g>
</g>
<!-- dir_fcd037b3c61b82b39da2ca73b895b43c&#45;&gt;dir_1f7fd5c054f752becab847a993818f59 -->
<g id="edge9" class="edge">
<title>dir_fcd037b3c61b82b39da2ca73b895b43c&#45;&gt;dir_1f7fd5c054f752becab847a993818f59</title>
<path fill="none" stroke="black" d="M136.35,-143.7C136.35,-135.98 136.35,-126.71 136.35,-118.11"/>
<polygon fill="black" stroke="black" points="139.85,-118.1 136.35,-108.1 132.85,-118.1 139.85,-118.1"/>
<g id="a_edge9&#45;headlabel"><a xlink:href="dir_000072_000045.html" target="_top" xlink:title="1">
<text text-anchor="middle" x="142.69" y="-119.2" font-family="Helvetica,sans-Serif" font-size="10.00">1</text>
</a>
</g>
</g>
<!-- dir_1f7fd5c054f752becab847a993818f59&#45;&gt;dir_4a120dbb11348b2823d2a12dcab2f1e3 -->
<g id="edge10" class="edge">
<title>dir_1f7fd5c054f752becab847a993818f59&#45;&gt;dir_4a120dbb11348b2823d2a12dcab2f1e3</title>
<path fill="none" stroke="black" d="M125.97,-71.7C121.09,-63.56 115.17,-53.69 109.77,-44.7"/>
<polygon fill="black" stroke="black" points="112.76,-42.88 104.62,-36.1 106.76,-46.48 112.76,-42.88"/>
<g id="a_edge10&#45;headlabel"><a xlink:href="dir_000045_000002.html" target="_top" xlink:title="3">
<text text-anchor="middle" x="117.05" y="-42" font-family="Helvetica,sans-Serif" font-size="10.00">3</text>
</a>
</g>
</g>
</g>
</svg>
