<?xml version="1.0" encoding="UTF-8" standalone="no"?>
<!DOCTYPE svg PUBLIC "-//W3C//DTD SVG 1.1//EN"
 "http://www.w3.org/Graphics/SVG/1.1/DTD/svg11.dtd">
<!-- Generated by graphviz version 2.43.0 (0)
 -->
<!-- Title: Libs/RayLib/sources/Window Pages: 1 -->
<svg width="244pt" height="295pt"
 viewBox="0.00 0.00 244.17 295.00" xmlns="http://www.w3.org/2000/svg" xmlns:xlink="http://www.w3.org/1999/xlink">
<g id="graph0" class="graph" transform="scale(1 1) rotate(0) translate(4 291)">
<title>Libs/RayLib/sources/Window</title>
<polygon fill="white" stroke="transparent" points="-4,4 -4,-291 240.17,-291 240.17,4 -4,4"/>
<g id="clust1" class="cluster">
<title>clusterdir_b58f5cbef52144281201f92199ca772f</title>
<g id="a_clust1"><a xlink:href="dir_b58f5cbef52144281201f92199ca772f.html" target="_top" xlink:title="sources">
<polygon fill="#ddddee" stroke="black" points="35.67,-208 35.67,-279 107.67,-279 107.67,-208 35.67,-208"/>
<text text-anchor="middle" x="71.67" y="-267" font-family="Helvetica,sans-Serif" font-size="10.00">sources</text>
</a>
</g>
</g>
<!-- dir_f41cae2d5a2f758547166d37d9d6bc58 -->
<g id="node1" class="node">
<title>dir_f41cae2d5a2f758547166d37d9d6bc58</title>
<g id="a_node1"><a xlink:href="dir_f41cae2d5a2f758547166d37d9d6bc58.html" target="_top" xlink:title="Window">
<polygon fill="#eeeeff" stroke="black" points="99.67,-252 43.67,-252 43.67,-216 99.67,-216 99.67,-252"/>
<text text-anchor="middle" x="71.67" y="-231.5" font-family="Helvetica,sans-Serif" font-size="10.00">Window</text>
</a>
</g>
</g>
<!-- dir_3008fb1da06f44ca71e3c91ff5fedb38 -->
<g id="node2" class="node">
<title>dir_3008fb1da06f44ca71e3c91ff5fedb38</title>
<g id="a_node2"><a xlink:href="dir_3008fb1da06f44ca71e3c91ff5fedb38.html" target="_top" xlink:title="Color">
<polygon fill="none" stroke="black" points="70.67,-108 16.67,-108 16.67,-72 70.67,-72 70.67,-108"/>
<text text-anchor="middle" x="43.67" y="-87.5" font-family="Helvetica,sans-Serif" font-size="10.00">Color</text>
</a>
</g>
</g>
<!-- dir_f41cae2d5a2f758547166d37d9d6bc58&#45;&gt;dir_3008fb1da06f44ca71e3c91ff5fedb38 -->
<g id="edge4" class="edge">
<title>dir_f41cae2d5a2f758547166d37d9d6bc58&#45;&gt;dir_3008fb1da06f44ca71e3c91ff5fedb38</title>
<path fill="none" stroke="black" d="M56.06,-215.77C48.29,-206.03 39.72,-193.18 35.67,-180 29.45,-159.8 32.12,-135.89 35.98,-117.94"/>
<polygon fill="black" stroke="black" points="39.4,-118.67 38.32,-108.13 32.59,-117.04 39.4,-118.67"/>
<g id="a_edge4&#45;headlabel"><a xlink:href="dir_000121_000099.html" target="_top" xlink:title="1">
<text text-anchor="middle" x="41.32" y="-120.33" font-family="Helvetica,sans-Serif" font-size="10.00">1</text>
</a>
</g>
</g>
<!-- dir_42ef1f57a2f22e94d8ccc109a0fc3cde -->
<g id="node3" class="node">
<title>dir_42ef1f57a2f22e94d8ccc109a0fc3cde</title>
<g id="a_node3"><a xlink:href="dir_42ef1f57a2f22e94d8ccc109a0fc3cde.html" target="_top" xlink:title="Vector3">
<polygon fill="none" stroke="black" points="106.67,-36 52.67,-36 52.67,0 106.67,0 106.67,-36"/>
<text text-anchor="middle" x="79.67" y="-15.5" font-family="Helvetica,sans-Serif" font-size="10.00">Vector3</text>
</a>
</g>
</g>
<!-- dir_f41cae2d5a2f758547166d37d9d6bc58&#45;&gt;dir_42ef1f57a2f22e94d8ccc109a0fc3cde -->
<g id="edge5" class="edge">
<title>dir_f41cae2d5a2f758547166d37d9d6bc58&#45;&gt;dir_42ef1f57a2f22e94d8ccc109a0fc3cde</title>
<path fill="none" stroke="black" d="M55.12,-215.64C28.63,-185.64 -17.85,-122.46 7.67,-72 15.36,-56.77 29.73,-44.85 43.61,-36.2"/>
<polygon fill="black" stroke="black" points="45.7,-39.04 52.59,-30.99 42.18,-32.98 45.7,-39.04"/>
<g id="a_edge5&#45;headlabel"><a xlink:href="dir_000121_000119.html" target="_top" xlink:title="1">
<text text-anchor="middle" x="44.01" y="-40.8" font-family="Helvetica,sans-Serif" font-size="10.00">1</text>
</a>
</g>
</g>
<!-- dir_2d1eb0aa0b8866aa6ce4d53e36ce0d15 -->
<g id="node4" class="node">
<title>dir_2d1eb0aa0b8866aa6ce4d53e36ce0d15</title>
<g id="a_node4"><a xlink:href="dir_2d1eb0aa0b8866aa6ce4d53e36ce0d15.html" target="_top" xlink:title="Image">
<polygon fill="none" stroke="black" points="98.67,-180 44.67,-180 44.67,-144 98.67,-144 98.67,-180"/>
<text text-anchor="middle" x="71.67" y="-159.5" font-family="Helvetica,sans-Serif" font-size="10.00">Image</text>
</a>
</g>
</g>
<!-- dir_f41cae2d5a2f758547166d37d9d6bc58&#45;&gt;dir_2d1eb0aa0b8866aa6ce4d53e36ce0d15 -->
<g id="edge6" class="edge">
<title>dir_f41cae2d5a2f758547166d37d9d6bc58&#45;&gt;dir_2d1eb0aa0b8866aa6ce4d53e36ce0d15</title>
<path fill="none" stroke="black" d="M71.67,-215.7C71.67,-207.98 71.67,-198.71 71.67,-190.11"/>
<polygon fill="black" stroke="black" points="75.17,-190.1 71.67,-180.1 68.17,-190.1 75.17,-190.1"/>
<g id="a_edge6&#45;headlabel"><a xlink:href="dir_000121_000103.html" target="_top" xlink:title="1">
<text text-anchor="middle" x="78.01" y="-191.2" font-family="Helvetica,sans-Serif" font-size="10.00">1</text>
</a>
</g>
</g>
<!-- dir_e5ddc3b8247be52796b2c5c9f83f8e6d -->
<g id="node5" class="node">
<title>dir_e5ddc3b8247be52796b2c5c9f83f8e6d</title>
<g id="a_node5"><a xlink:href="dir_e5ddc3b8247be52796b2c5c9f83f8e6d.html" target="_top" xlink:title="Vector2">
<polygon fill="none" stroke="black" points="142.67,-108 88.67,-108 88.67,-72 142.67,-72 142.67,-108"/>
<text text-anchor="middle" x="115.67" y="-87.5" font-family="Helvetica,sans-Serif" font-size="10.00">Vector2</text>
</a>
</g>
</g>
<!-- dir_f41cae2d5a2f758547166d37d9d6bc58&#45;&gt;dir_e5ddc3b8247be52796b2c5c9f83f8e6d -->
<g id="edge7" class="edge">
<title>dir_f41cae2d5a2f758547166d37d9d6bc58&#45;&gt;dir_e5ddc3b8247be52796b2c5c9f83f8e6d</title>
<path fill="none" stroke="black" d="M86.81,-215.62C94.43,-205.83 103.03,-192.99 107.67,-180 114.75,-160.19 116.57,-136.39 116.72,-118.39"/>
<polygon fill="black" stroke="black" points="120.22,-118.25 116.63,-108.27 113.22,-118.3 120.22,-118.25"/>
<g id="a_edge7&#45;headlabel"><a xlink:href="dir_000121_000118.html" target="_top" xlink:title="1">
<text text-anchor="middle" x="123.09" y="-119.32" font-family="Helvetica,sans-Serif" font-size="10.00">1</text>
</a>
</g>
</g>
<!-- dir_d24ad10a75a0a4351bb3081f1b154241 -->
<g id="node6" class="node">
<title>dir_d24ad10a75a0a4351bb3081f1b154241</title>
<g id="a_node6"><a xlink:href="dir_d24ad10a75a0a4351bb3081f1b154241.html" target="_top" xlink:title="BoundingBox">
<polygon fill="none" stroke="black" points="236.17,-180 155.17,-180 155.17,-144 236.17,-144 236.17,-180"/>
<text text-anchor="middle" x="195.67" y="-159.5" font-family="Helvetica,sans-Serif" font-size="10.00">BoundingBox</text>
</a>
</g>
</g>
<!-- dir_f41cae2d5a2f758547166d37d9d6bc58&#45;&gt;dir_d24ad10a75a0a4351bb3081f1b154241 -->
<g id="edge8" class="edge">
<title>dir_f41cae2d5a2f758547166d37d9d6bc58&#45;&gt;dir_d24ad10a75a0a4351bb3081f1b154241</title>
<path fill="none" stroke="black" d="M99.8,-217.12C116.63,-207.62 138.25,-195.41 156.71,-184.99"/>
<polygon fill="black" stroke="black" points="158.49,-188.01 165.47,-180.04 155.05,-181.91 158.49,-188.01"/>
<g id="a_edge8&#45;headlabel"><a xlink:href="dir_000121_000096.html" target="_top" xlink:title="1">
<text text-anchor="middle" x="156.75" y="-189.75" font-family="Helvetica,sans-Serif" font-size="10.00">1</text>
</a>
</g>
</g>
<!-- dir_3008fb1da06f44ca71e3c91ff5fedb38&#45;&gt;dir_42ef1f57a2f22e94d8ccc109a0fc3cde -->
<g id="edge1" class="edge">
<title>dir_3008fb1da06f44ca71e3c91ff5fedb38&#45;&gt;dir_42ef1f57a2f22e94d8ccc109a0fc3cde</title>
<path fill="none" stroke="black" d="M52.57,-71.7C56.66,-63.73 61.62,-54.1 66.16,-45.26"/>
<polygon fill="black" stroke="black" points="69.41,-46.6 70.87,-36.1 63.18,-43.4 69.41,-46.6"/>
<g id="a_edge1&#45;headlabel"><a xlink:href="dir_000099_000119.html" target="_top" xlink:title="1">
<text text-anchor="middle" x="70.29" y="-48.59" font-family="Helvetica,sans-Serif" font-size="10.00">1</text>
</a>
</g>
</g>
<!-- dir_2d1eb0aa0b8866aa6ce4d53e36ce0d15&#45;&gt;dir_3008fb1da06f44ca71e3c91ff5fedb38 -->
<g id="edge2" class="edge">
<title>dir_2d1eb0aa0b8866aa6ce4d53e36ce0d15&#45;&gt;dir_3008fb1da06f44ca71e3c91ff5fedb38</title>
<path fill="none" stroke="black" d="M64.75,-143.7C61.59,-135.81 57.79,-126.3 54.29,-117.55"/>
<polygon fill="black" stroke="black" points="57.47,-116.09 50.51,-108.1 50.97,-118.69 57.47,-116.09"/>
<g id="a_edge2&#45;headlabel"><a xlink:href="dir_000103_000099.html" target="_top" xlink:title="1">
<text text-anchor="middle" x="61.44" y="-115.87" font-family="Helvetica,sans-Serif" font-size="10.00">1</text>
</a>
</g>
</g>
<!-- dir_2d1eb0aa0b8866aa6ce4d53e36ce0d15&#45;&gt;dir_e5ddc3b8247be52796b2c5c9f83f8e6d -->
<g id="edge3" class="edge">
<title>dir_2d1eb0aa0b8866aa6ce4d53e36ce0d15&#45;&gt;dir_e5ddc3b8247be52796b2c5c9f83f8e6d</title>
<path fill="none" stroke="black" d="M82.54,-143.7C87.66,-135.56 93.86,-125.69 99.51,-116.7"/>
<polygon fill="black" stroke="black" points="102.56,-118.43 104.92,-108.1 96.63,-114.71 102.56,-118.43"/>
<g id="a_edge3&#45;headlabel"><a xlink:href="dir_000103_000118.html" target="_top" xlink:title="1">
<text text-anchor="middle" x="103.05" y="-120.49" font-family="Helvetica,sans-Serif" font-size="10.00">1</text>
</a>
</g>
</g>
<!-- dir_e5ddc3b8247be52796b2c5c9f83f8e6d&#45;&gt;dir_42ef1f57a2f22e94d8ccc109a0fc3cde -->
<g id="edge9" class="edge">
<title>dir_e5ddc3b8247be52796b2c5c9f83f8e6d&#45;&gt;dir_42ef1f57a2f22e94d8ccc109a0fc3cde</title>
<path fill="none" stroke="black" d="M106.77,-71.7C102.67,-63.73 97.72,-54.1 93.17,-45.26"/>
<polygon fill="black" stroke="black" points="96.15,-43.4 88.46,-36.1 89.92,-46.6 96.15,-43.4"/>
<g id="a_edge9&#45;headlabel"><a xlink:href="dir_000118_000119.html" target="_top" xlink:title="1">
<text text-anchor="middle" x="100.32" y="-42.79" font-family="Helvetica,sans-Serif" font-size="10.00">1</text>
</a>
</g>
</g>
<!-- dir_d24ad10a75a0a4351bb3081f1b154241&#45;&gt;dir_42ef1f57a2f22e94d8ccc109a0fc3cde -->
<g id="edge10" class="edge">
<title>dir_d24ad10a75a0a4351bb3081f1b154241&#45;&gt;dir_42ef1f57a2f22e94d8ccc109a0fc3cde</title>
<path fill="none" stroke="black" d="M189.99,-143.86C183.09,-124.84 170.05,-93.93 151.67,-72 141.46,-59.82 127.9,-48.91 115.3,-40.2"/>
<polygon fill="black" stroke="black" points="117.05,-37.16 106.79,-34.53 113.17,-42.98 117.05,-37.16"/>
<g id="a_edge10&#45;headlabel"><a xlink:href="dir_000096_000119.html" target="_top" xlink:title="1">
<text text-anchor="middle" x="121.62" y="-34.29" font-family="Helvetica,sans-Serif" font-size="10.00">1</text>
</a>
</g>
</g>
</g>
</svg>
