<?xml version="1.0" encoding="UTF-8" standalone="no"?>
<!DOCTYPE svg PUBLIC "-//W3C//DTD SVG 1.1//EN"
 "http://www.w3.org/Graphics/SVG/1.1/DTD/svg11.dtd">
<!-- Generated by graphviz version 2.43.0 (0)
 -->
<!-- Title: Libs/ECS/sources/Managers/EntityManager Pages: 1 -->
<svg width="128pt" height="151pt"
 viewBox="0.00 0.00 128.00 151.00" xmlns="http://www.w3.org/2000/svg" xmlns:xlink="http://www.w3.org/1999/xlink">
<g id="graph0" class="graph" transform="scale(1 1) rotate(0) translate(4 147)">
<title>Libs/ECS/sources/Managers/EntityManager</title>
<polygon fill="white" stroke="transparent" points="-4,4 -4,-147 124,-147 124,4 -4,4"/>
<g id="clust1" class="cluster">
<title>clusterdir_aed85c5ce4b6a9c7e4c648d53dc0ffb7</title>
<g id="a_clust1"><a xlink:href="dir_aed85c5ce4b6a9c7e4c648d53dc0ffb7.html" target="_top" xlink:title="Managers">
<polygon fill="#ddddee" stroke="black" points="8,-64 8,-135 112,-135 112,-64 8,-64"/>
<text text-anchor="middle" x="60" y="-123" font-family="Helvetica,sans-Serif" font-size="10.00">Managers</text>
</a>
</g>
</g>
<!-- dir_949a8894935efa81e2772c61dc0f1347 -->
<g id="node1" class="node">
<title>dir_949a8894935efa81e2772c61dc0f1347</title>
<g id="a_node1"><a xlink:href="dir_949a8894935efa81e2772c61dc0f1347.html" target="_top" xlink:title="EntityManager">
<polygon fill="#eeeeff" stroke="black" points="104,-108 16,-108 16,-72 104,-72 104,-108"/>
<text text-anchor="middle" x="60" y="-87.5" font-family="Helvetica,sans-Serif" font-size="10.00">EntityManager</text>
</a>
</g>
</g>
<!-- dir_b7c09b517d5f4640241c257c460ab0cc -->
<g id="node2" class="node">
<title>dir_b7c09b517d5f4640241c257c460ab0cc</title>
<g id="a_node2"><a xlink:href="dir_b7c09b517d5f4640241c257c460ab0cc.html" target="_top" xlink:title="Entity">
<polygon fill="none" stroke="black" points="87,-36 33,-36 33,0 87,0 87,-36"/>
<text text-anchor="middle" x="60" y="-15.5" font-family="Helvetica,sans-Serif" font-size="10.00">Entity</text>
</a>
</g>
</g>
<!-- dir_949a8894935efa81e2772c61dc0f1347&#45;&gt;dir_b7c09b517d5f4640241c257c460ab0cc -->
<g id="edge2" class="edge">
<title>dir_949a8894935efa81e2772c61dc0f1347&#45;&gt;dir_b7c09b517d5f4640241c257c460ab0cc</title>
<path fill="none" stroke="black" d="M54.08,-71.7C53.29,-63.98 53.06,-54.71 53.4,-46.11"/>
<polygon fill="black" stroke="black" points="56.9,-46.32 54.1,-36.1 49.92,-45.84 56.9,-46.32"/>
<g id="a_edge2&#45;headlabel"><a xlink:href="dir_000028_000022.html" target="_top" xlink:title="1">
<text text-anchor="middle" x="59.48" y="-47.61" font-family="Helvetica,sans-Serif" font-size="10.00">1</text>
</a>
</g>
</g>
<!-- dir_b7c09b517d5f4640241c257c460ab0cc&#45;&gt;dir_949a8894935efa81e2772c61dc0f1347 -->
<g id="edge1" class="edge">
<title>dir_b7c09b517d5f4640241c257c460ab0cc&#45;&gt;dir_949a8894935efa81e2772c61dc0f1347</title>
<path fill="none" stroke="black" d="M65.9,-36.1C66.7,-43.79 66.94,-53.05 66.6,-61.67"/>
<polygon fill="black" stroke="black" points="63.11,-61.48 65.92,-71.7 70.09,-61.96 63.11,-61.48"/>
<g id="a_edge1&#45;headlabel"><a xlink:href="dir_000022_000028.html" target="_top" xlink:title="1">
<text text-anchor="middle" x="60.52" y="-55.2" font-family="Helvetica,sans-Serif" font-size="10.00">1</text>
</a>
</g>
</g>
</g>
</svg>
