<?xml version="1.0" encoding="UTF-8" standalone="no"?>
<!DOCTYPE svg PUBLIC "-//W3C//DTD SVG 1.1//EN"
 "http://www.w3.org/Graphics/SVG/1.1/DTD/svg11.dtd">
<!-- Generated by graphviz version 2.43.0 (0)
 -->
<!-- Title: Libs/Engine/sources/Components/ButtonCallbacks Pages: 1 -->
<svg width="720pt" height="367pt"
 viewBox="0.00 0.00 719.54 367.00" xmlns="http://www.w3.org/2000/svg" xmlns:xlink="http://www.w3.org/1999/xlink">
<g id="graph0" class="graph" transform="scale(1 1) rotate(0) translate(4 363)">
<title>Libs/Engine/sources/Components/ButtonCallbacks</title>
<polygon fill="white" stroke="transparent" points="-4,4 -4,-363 715.54,-363 715.54,4 -4,4"/>
<g id="clust1" class="cluster">
<title>clusterdir_e1b125331ccfd7597fbda9d04ae41b2d</title>
<g id="a_clust1"><a xlink:href="dir_e1b125331ccfd7597fbda9d04ae41b2d.html" target="_top" xlink:title="Components">
<polygon fill="#ddddee" stroke="black" points="414.33,-280 414.33,-351 526.33,-351 526.33,-280 414.33,-280"/>
<text text-anchor="middle" x="470.33" y="-339" font-family="Helvetica,sans-Serif" font-size="10.00">Components</text>
</a>
</g>
</g>
<!-- dir_4de4d9042dff1d58386c54ecddac1bb7 -->
<g id="node1" class="node">
<title>dir_4de4d9042dff1d58386c54ecddac1bb7</title>
<g id="a_node1"><a xlink:href="dir_4de4d9042dff1d58386c54ecddac1bb7.html" target="_top" xlink:title="ButtonCallbacks">
<polygon fill="#eeeeff" stroke="black" points="518.33,-324 422.33,-324 422.33,-288 518.33,-288 518.33,-324"/>
<text text-anchor="middle" x="470.33" y="-303.5" font-family="Helvetica,sans-Serif" font-size="10.00">ButtonCallbacks</text>
</a>
</g>
</g>
<!-- dir_236e02cd02223a2412f137d7ad85069e -->
<g id="node2" class="node">
<title>dir_236e02cd02223a2412f137d7ad85069e</title>
<g id="a_node2"><a xlink:href="dir_236e02cd02223a2412f137d7ad85069e.html" target="_top" xlink:title="GameConfiguration">
<polygon fill="none" stroke="black" points="416.83,-108 305.83,-108 305.83,-72 416.83,-72 416.83,-108"/>
<text text-anchor="middle" x="361.33" y="-87.5" font-family="Helvetica,sans-Serif" font-size="10.00">GameConfiguration</text>
</a>
</g>
</g>
<!-- dir_4de4d9042dff1d58386c54ecddac1bb7&#45;&gt;dir_236e02cd02223a2412f137d7ad85069e -->
<g id="edge1" class="edge">
<title>dir_4de4d9042dff1d58386c54ecddac1bb7&#45;&gt;dir_236e02cd02223a2412f137d7ad85069e</title>
<path fill="none" stroke="black" d="M464.93,-287.82C455.05,-257.56 432.37,-193.3 403.33,-144 397.64,-134.34 390.36,-124.51 383.45,-115.99"/>
<polygon fill="black" stroke="black" points="386.11,-113.7 377.02,-108.26 380.73,-118.18 386.11,-113.7"/>
<g id="a_edge1&#45;headlabel"><a xlink:href="dir_000044_000074.html" target="_top" xlink:title="1">
<text text-anchor="middle" x="390.59" y="-112.15" font-family="Helvetica,sans-Serif" font-size="10.00">1</text>
</a>
</g>
</g>
<!-- dir_2e574b6382041dc2a136b1675bed65ad -->
<g id="node3" class="node">
<title>dir_2e574b6382041dc2a136b1675bed65ad</title>
<g id="a_node3"><a xlink:href="dir_2e574b6382041dc2a136b1675bed65ad.html" target="_top" xlink:title="RayLib">
<polygon fill="white" stroke="red" points="209.33,-36 155.33,-36 155.33,0 209.33,0 209.33,-36"/>
<text text-anchor="middle" x="182.33" y="-15.5" font-family="Helvetica,sans-Serif" font-size="10.00">RayLib</text>
</a>
</g>
</g>
<!-- dir_4de4d9042dff1d58386c54ecddac1bb7&#45;&gt;dir_2e574b6382041dc2a136b1675bed65ad -->
<g id="edge2" class="edge">
<title>dir_4de4d9042dff1d58386c54ecddac1bb7&#45;&gt;dir_2e574b6382041dc2a136b1675bed65ad</title>
<path fill="none" stroke="black" d="M518.46,-290.34C537.55,-282.09 557.88,-269.79 570.33,-252 616.49,-186.06 643.46,-132.47 590.33,-72 578.11,-58.09 317.8,-31.92 219.48,-22.5"/>
<polygon fill="black" stroke="black" points="219.69,-19 209.4,-21.53 219.02,-25.97 219.69,-19"/>
<g id="a_edge2&#45;headlabel"><a xlink:href="dir_000044_000005.html" target="_top" xlink:title="1">
<text text-anchor="middle" x="223.54" y="-14.01" font-family="Helvetica,sans-Serif" font-size="10.00">1</text>
</a>
</g>
</g>
<!-- dir_56dcb3087d61a7b61f3acc77e3c49ec1 -->
<g id="node4" class="node">
<title>dir_56dcb3087d61a7b61f3acc77e3c49ec1</title>
<g id="a_node4"><a xlink:href="dir_56dcb3087d61a7b61f3acc77e3c49ec1.html" target="_top" xlink:title="TextUI">
<polygon fill="none" stroke="black" points="135.33,-252 81.33,-252 81.33,-216 135.33,-216 135.33,-252"/>
<text text-anchor="middle" x="108.33" y="-231.5" font-family="Helvetica,sans-Serif" font-size="10.00">TextUI</text>
</a>
</g>
</g>
<!-- dir_4de4d9042dff1d58386c54ecddac1bb7&#45;&gt;dir_56dcb3087d61a7b61f3acc77e3c49ec1 -->
<g id="edge3" class="edge">
<title>dir_4de4d9042dff1d58386c54ecddac1bb7&#45;&gt;dir_56dcb3087d61a7b61f3acc77e3c49ec1</title>
<path fill="none" stroke="black" d="M422.26,-295.7C349.24,-281.58 211.88,-255.02 145.76,-242.24"/>
<polygon fill="black" stroke="black" points="146.26,-238.77 135.78,-240.31 144.94,-245.64 146.26,-238.77"/>
<g id="a_edge3&#45;headlabel"><a xlink:href="dir_000044_000070.html" target="_top" xlink:title="1">
<text text-anchor="middle" x="150.33" y="-234.17" font-family="Helvetica,sans-Serif" font-size="10.00">1</text>
</a>
</g>
</g>
<!-- dir_9a9e2b7a8f13e92341bd3030ad46e690 -->
<g id="node5" class="node">
<title>dir_9a9e2b7a8f13e92341bd3030ad46e690</title>
<g id="a_node5"><a xlink:href="dir_9a9e2b7a8f13e92341bd3030ad46e690.html" target="_top" xlink:title="Systems">
<polygon fill="white" stroke="red" points="394.83,-252 335.83,-252 335.83,-216 394.83,-216 394.83,-252"/>
<text text-anchor="middle" x="365.33" y="-231.5" font-family="Helvetica,sans-Serif" font-size="10.00">Systems</text>
</a>
</g>
</g>
<!-- dir_4de4d9042dff1d58386c54ecddac1bb7&#45;&gt;dir_9a9e2b7a8f13e92341bd3030ad46e690 -->
<g id="edge4" class="edge">
<title>dir_4de4d9042dff1d58386c54ecddac1bb7&#45;&gt;dir_9a9e2b7a8f13e92341bd3030ad46e690</title>
<path fill="none" stroke="black" d="M444.65,-287.88C431.04,-278.81 414.16,-267.55 399.47,-257.76"/>
<polygon fill="black" stroke="black" points="401.38,-254.82 391.12,-252.19 397.5,-260.65 401.38,-254.82"/>
<g id="a_edge4&#45;headlabel"><a xlink:href="dir_000044_000079.html" target="_top" xlink:title="1">
<text text-anchor="middle" x="405.94" y="-251.96" font-family="Helvetica,sans-Serif" font-size="10.00">1</text>
</a>
</g>
</g>
<!-- dir_4a120dbb11348b2823d2a12dcab2f1e3 -->
<g id="node6" class="node">
<title>dir_4a120dbb11348b2823d2a12dcab2f1e3</title>
<g id="a_node6"><a xlink:href="dir_4a120dbb11348b2823d2a12dcab2f1e3.html" target="_top" xlink:title="ECS">
<polygon fill="white" stroke="red" points="430.33,-36 376.33,-36 376.33,0 430.33,0 430.33,-36"/>
<text text-anchor="middle" x="403.33" y="-15.5" font-family="Helvetica,sans-Serif" font-size="10.00">ECS</text>
</a>
</g>
</g>
<!-- dir_4de4d9042dff1d58386c54ecddac1bb7&#45;&gt;dir_4a120dbb11348b2823d2a12dcab2f1e3 -->
<g id="edge5" class="edge">
<title>dir_4de4d9042dff1d58386c54ecddac1bb7&#45;&gt;dir_4a120dbb11348b2823d2a12dcab2f1e3</title>
<path fill="none" stroke="black" d="M518.73,-299.68C557.92,-293.43 613.05,-280.1 653.33,-252 697.19,-221.41 722.78,-194.87 706.33,-144 694.19,-106.44 687.42,-93.52 654.33,-72 587.97,-28.83 492.75,-20.06 440.74,-18.73"/>
<polygon fill="black" stroke="black" points="440.7,-15.23 430.64,-18.55 440.57,-22.23 440.7,-15.23"/>
<g id="a_edge5&#45;headlabel"><a xlink:href="dir_000044_000002.html" target="_top" xlink:title="3">
<text text-anchor="middle" x="444.34" y="-9.95" font-family="Helvetica,sans-Serif" font-size="10.00">3</text>
</a>
</g>
</g>
<!-- dir_1e86b01c0afa4a5857f4b6245b9c39f7 -->
<g id="node7" class="node">
<title>dir_1e86b01c0afa4a5857f4b6245b9c39f7</title>
<g id="a_node7"><a xlink:href="dir_1e86b01c0afa4a5857f4b6245b9c39f7.html" target="_top" xlink:title="TextBox">
<polygon fill="none" stroke="black" points="697.33,-180 641.33,-180 641.33,-144 697.33,-144 697.33,-180"/>
<text text-anchor="middle" x="669.33" y="-159.5" font-family="Helvetica,sans-Serif" font-size="10.00">TextBox</text>
</a>
</g>
</g>
<!-- dir_4de4d9042dff1d58386c54ecddac1bb7&#45;&gt;dir_1e86b01c0afa4a5857f4b6245b9c39f7 -->
<g id="edge6" class="edge">
<title>dir_4de4d9042dff1d58386c54ecddac1bb7&#45;&gt;dir_1e86b01c0afa4a5857f4b6245b9c39f7</title>
<path fill="none" stroke="black" d="M518.58,-298.86C552.49,-292.32 597.04,-278.98 627.33,-252 645.69,-235.64 656.68,-209.55 662.79,-189.84"/>
<polygon fill="black" stroke="black" points="666.16,-190.77 665.55,-180.2 659.43,-188.85 666.16,-190.77"/>
<g id="a_edge6&#45;headlabel"><a xlink:href="dir_000044_000068.html" target="_top" xlink:title="1">
<text text-anchor="middle" x="667.9" y="-192.51" font-family="Helvetica,sans-Serif" font-size="10.00">1</text>
</a>
</g>
</g>
<!-- dir_d415c0d599231354676ceb56dc96abfc -->
<g id="node8" class="node">
<title>dir_d415c0d599231354676ceb56dc96abfc</title>
<g id="a_node8"><a xlink:href="dir_d415c0d599231354676ceb56dc96abfc.html" target="_top" xlink:title="IBehaviour">
<polygon fill="none" stroke="black" points="580.83,-108 511.83,-108 511.83,-72 580.83,-72 580.83,-108"/>
<text text-anchor="middle" x="546.33" y="-87.5" font-family="Helvetica,sans-Serif" font-size="10.00">IBehaviour</text>
</a>
</g>
</g>
<!-- dir_4de4d9042dff1d58386c54ecddac1bb7&#45;&gt;dir_d415c0d599231354676ceb56dc96abfc -->
<g id="edge7" class="edge">
<title>dir_4de4d9042dff1d58386c54ecddac1bb7&#45;&gt;dir_d415c0d599231354676ceb56dc96abfc</title>
<path fill="none" stroke="black" d="M512.44,-287.87C527.52,-279.45 542.86,-267.67 551.33,-252 574.14,-209.83 564.15,-151.93 555.07,-118.29"/>
<polygon fill="black" stroke="black" points="558.32,-116.91 552.2,-108.27 551.59,-118.84 558.32,-116.91"/>
<g id="a_edge7&#45;headlabel"><a xlink:href="dir_000044_000058.html" target="_top" xlink:title="1">
<text text-anchor="middle" x="562.04" y="-117.09" font-family="Helvetica,sans-Serif" font-size="10.00">1</text>
</a>
</g>
</g>
<!-- dir_1f7fd5c054f752becab847a993818f59 -->
<g id="node9" class="node">
<title>dir_1f7fd5c054f752becab847a993818f59</title>
<g id="a_node9"><a xlink:href="dir_1f7fd5c054f752becab847a993818f59.html" target="_top" xlink:title="Camera">
<polygon fill="none" stroke="black" points="394.83,-180 339.83,-180 339.83,-144 394.83,-144 394.83,-180"/>
<text text-anchor="middle" x="367.33" y="-159.5" font-family="Helvetica,sans-Serif" font-size="10.00">Camera</text>
</a>
</g>
</g>
<!-- dir_4de4d9042dff1d58386c54ecddac1bb7&#45;&gt;dir_1f7fd5c054f752becab847a993818f59 -->
<g id="edge8" class="edge">
<title>dir_4de4d9042dff1d58386c54ecddac1bb7&#45;&gt;dir_1f7fd5c054f752becab847a993818f59</title>
<path fill="none" stroke="black" d="M457.91,-287.87C439.97,-263.14 406.68,-217.24 385.84,-188.51"/>
<polygon fill="black" stroke="black" points="388.51,-186.23 379.8,-180.19 382.84,-190.34 388.51,-186.23"/>
<g id="a_edge8&#45;headlabel"><a xlink:href="dir_000044_000045.html" target="_top" xlink:title="1">
<text text-anchor="middle" x="392.91" y="-184.97" font-family="Helvetica,sans-Serif" font-size="10.00">1</text>
</a>
</g>
</g>
<!-- dir_a1a50ee26630ac120dbfaac688c5740c -->
<g id="node10" class="node">
<title>dir_a1a50ee26630ac120dbfaac688c5740c</title>
<g id="a_node10"><a xlink:href="dir_a1a50ee26630ac120dbfaac688c5740c.html" target="_top" xlink:title="Button">
<polygon fill="none" stroke="black" points="245.33,-180 191.33,-180 191.33,-144 245.33,-144 245.33,-180"/>
<text text-anchor="middle" x="218.33" y="-159.5" font-family="Helvetica,sans-Serif" font-size="10.00">Button</text>
</a>
</g>
</g>
<!-- dir_4de4d9042dff1d58386c54ecddac1bb7&#45;&gt;dir_a1a50ee26630ac120dbfaac688c5740c -->
<g id="edge9" class="edge">
<title>dir_4de4d9042dff1d58386c54ecddac1bb7&#45;&gt;dir_a1a50ee26630ac120dbfaac688c5740c</title>
<path fill="none" stroke="black" d="M422.18,-291.75C393.32,-282.74 356.48,-269.3 326.33,-252 294.94,-233.99 263.51,-206.8 242.72,-187.22"/>
<polygon fill="black" stroke="black" points="244.94,-184.5 235.29,-180.12 240.1,-189.56 244.94,-184.5"/>
<g id="a_edge9&#45;headlabel"><a xlink:href="dir_000044_000043.html" target="_top" xlink:title="1">
<text text-anchor="middle" x="249.5" y="-182.43" font-family="Helvetica,sans-Serif" font-size="10.00">1</text>
</a>
</g>
</g>
<!-- dir_4d6c489bfc51616ec0a9cc5adedf0045 -->
<g id="node11" class="node">
<title>dir_4d6c489bfc51616ec0a9cc5adedf0045</title>
<g id="a_node11"><a xlink:href="dir_4d6c489bfc51616ec0a9cc5adedf0045.html" target="_top" xlink:title="Scenes">
<polygon fill="none" stroke="black" points="245.33,-324 191.33,-324 191.33,-288 245.33,-288 245.33,-324"/>
<text text-anchor="middle" x="218.33" y="-303.5" font-family="Helvetica,sans-Serif" font-size="10.00">Scenes</text>
</a>
</g>
</g>
<!-- dir_4de4d9042dff1d58386c54ecddac1bb7&#45;&gt;dir_4d6c489bfc51616ec0a9cc5adedf0045 -->
<g id="edge10" class="edge">
<title>dir_4de4d9042dff1d58386c54ecddac1bb7&#45;&gt;dir_4d6c489bfc51616ec0a9cc5adedf0045</title>
<path fill="none" stroke="black" d="M422.01,-306C366.47,-306 310.94,-306 255.41,-306"/>
<polygon fill="black" stroke="black" points="255.4,-302.5 245.4,-306 255.4,-309.5 255.4,-302.5"/>
<g id="a_edge10&#45;headlabel"><a xlink:href="dir_000044_000078.html" target="_top" xlink:title="1">
<text text-anchor="middle" x="259" y="-297.16" font-family="Helvetica,sans-Serif" font-size="10.00">1</text>
</a>
</g>
</g>
<!-- dir_236e02cd02223a2412f137d7ad85069e&#45;&gt;dir_2e574b6382041dc2a136b1675bed65ad -->
<g id="edge11" class="edge">
<title>dir_236e02cd02223a2412f137d7ad85069e&#45;&gt;dir_2e574b6382041dc2a136b1675bed65ad</title>
<path fill="none" stroke="black" d="M317.54,-71.88C287.36,-60.07 247.7,-44.56 219.14,-33.4"/>
<polygon fill="black" stroke="black" points="220.13,-30.02 209.54,-29.64 217.58,-36.54 220.13,-30.02"/>
<g id="a_edge11&#45;headlabel"><a xlink:href="dir_000074_000005.html" target="_top" xlink:title="2">
<text text-anchor="middle" x="224.51" y="-26.19" font-family="Helvetica,sans-Serif" font-size="10.00">2</text>
</a>
</g>
</g>
<!-- dir_236e02cd02223a2412f137d7ad85069e&#45;&gt;dir_4a120dbb11348b2823d2a12dcab2f1e3 -->
<g id="edge12" class="edge">
<title>dir_236e02cd02223a2412f137d7ad85069e&#45;&gt;dir_4a120dbb11348b2823d2a12dcab2f1e3</title>
<path fill="none" stroke="black" d="M371.71,-71.7C376.6,-63.56 382.52,-53.69 387.91,-44.7"/>
<polygon fill="black" stroke="black" points="390.93,-46.48 393.07,-36.1 384.92,-42.88 390.93,-46.48"/>
<g id="a_edge12&#45;headlabel"><a xlink:href="dir_000074_000002.html" target="_top" xlink:title="2">
<text text-anchor="middle" x="391.51" y="-48.52" font-family="Helvetica,sans-Serif" font-size="10.00">2</text>
</a>
</g>
</g>
<!-- dir_56dcb3087d61a7b61f3acc77e3c49ec1&#45;&gt;dir_2e574b6382041dc2a136b1675bed65ad -->
<g id="edge13" class="edge">
<title>dir_56dcb3087d61a7b61f3acc77e3c49ec1&#45;&gt;dir_2e574b6382041dc2a136b1675bed65ad</title>
<path fill="none" stroke="black" d="M107.09,-215.71C106.22,-197.61 106.01,-168.47 111.33,-144 118.7,-110.13 123.91,-101.97 141.33,-72 146.86,-62.5 153.89,-52.79 160.56,-44.32"/>
<polygon fill="black" stroke="black" points="163.47,-46.29 167.05,-36.32 158.03,-41.88 163.47,-46.29"/>
<g id="a_edge13&#45;headlabel"><a xlink:href="dir_000070_000005.html" target="_top" xlink:title="2">
<text text-anchor="middle" x="163.41" y="-48.37" font-family="Helvetica,sans-Serif" font-size="10.00">2</text>
</a>
</g>
</g>
<!-- dir_56dcb3087d61a7b61f3acc77e3c49ec1&#45;&gt;dir_4a120dbb11348b2823d2a12dcab2f1e3 -->
<g id="edge14" class="edge">
<title>dir_56dcb3087d61a7b61f3acc77e3c49ec1&#45;&gt;dir_4a120dbb11348b2823d2a12dcab2f1e3</title>
<path fill="none" stroke="black" d="M117.38,-215.82C127.74,-197.03 145.95,-166.59 166.33,-144 200.42,-106.23 210.98,-96.93 255.33,-72 290.92,-52 335.45,-37.27 366.32,-28.49"/>
<polygon fill="black" stroke="black" points="367.54,-31.79 376.24,-25.74 365.67,-25.04 367.54,-31.79"/>
<g id="a_edge14&#45;headlabel"><a xlink:href="dir_000070_000002.html" target="_top" xlink:title="1">
<text text-anchor="middle" x="364.83" y="-32.98" font-family="Helvetica,sans-Serif" font-size="10.00">1</text>
</a>
</g>
</g>
<!-- dir_9a9e2b7a8f13e92341bd3030ad46e690&#45;&gt;dir_236e02cd02223a2412f137d7ad85069e -->
<g id="edge15" class="edge">
<title>dir_9a9e2b7a8f13e92341bd3030ad46e690&#45;&gt;dir_236e02cd02223a2412f137d7ad85069e</title>
<path fill="none" stroke="black" d="M350.15,-215.7C342.6,-205.94 334.27,-193.1 330.33,-180 325.73,-164.68 326.15,-159.44 330.33,-144 332.91,-134.48 337.68,-124.92 342.71,-116.59"/>
<polygon fill="black" stroke="black" points="345.71,-118.39 348.19,-108.09 339.83,-114.6 345.71,-118.39"/>
<g id="a_edge15&#45;headlabel"><a xlink:href="dir_000079_000074.html" target="_top" xlink:title="3">
<text text-anchor="middle" x="346.15" y="-120.45" font-family="Helvetica,sans-Serif" font-size="10.00">3</text>
</a>
</g>
</g>
<!-- dir_9a9e2b7a8f13e92341bd3030ad46e690&#45;&gt;dir_2e574b6382041dc2a136b1675bed65ad -->
<g id="edge16" class="edge">
<title>dir_9a9e2b7a8f13e92341bd3030ad46e690&#45;&gt;dir_2e574b6382041dc2a136b1675bed65ad</title>
<path fill="none" stroke="black" d="M348.01,-215.78C324.58,-192.19 281.84,-148.17 248.33,-108 231.07,-87.31 212.94,-62.61 200.06,-44.49"/>
<polygon fill="black" stroke="black" points="202.81,-42.32 194.18,-36.17 197.09,-46.36 202.81,-42.32"/>
<g id="a_edge16&#45;headlabel"><a xlink:href="dir_000079_000005.html" target="_top" xlink:title="5">
<text text-anchor="middle" x="207.2" y="-41.12" font-family="Helvetica,sans-Serif" font-size="10.00">5</text>
</a>
</g>
</g>
<!-- dir_9a9e2b7a8f13e92341bd3030ad46e690&#45;&gt;dir_4a120dbb11348b2823d2a12dcab2f1e3 -->
<g id="edge17" class="edge">
<title>dir_9a9e2b7a8f13e92341bd3030ad46e690&#45;&gt;dir_4a120dbb11348b2823d2a12dcab2f1e3</title>
<path fill="none" stroke="black" d="M380.46,-215.94C399.42,-193.23 430.71,-150.9 441.33,-108 445.18,-92.47 446.23,-87.23 441.33,-72 438.14,-62.08 432.34,-52.44 426.21,-44.17"/>
<polygon fill="black" stroke="black" points="428.75,-41.74 419.8,-36.08 423.26,-46.09 428.75,-41.74"/>
<g id="a_edge17&#45;headlabel"><a xlink:href="dir_000079_000002.html" target="_top" xlink:title="16">
<text text-anchor="middle" x="433.21" y="-40.3" font-family="Helvetica,sans-Serif" font-size="10.00">16</text>
</a>
</g>
</g>
<!-- dir_9a9e2b7a8f13e92341bd3030ad46e690&#45;&gt;dir_d415c0d599231354676ceb56dc96abfc -->
<g id="edge18" class="edge">
<title>dir_9a9e2b7a8f13e92341bd3030ad46e690&#45;&gt;dir_d415c0d599231354676ceb56dc96abfc</title>
<path fill="none" stroke="black" d="M389.23,-215.87C403.35,-205.63 421.51,-192.27 437.33,-180 465.23,-158.36 496.38,-132.79 518.2,-114.62"/>
<polygon fill="black" stroke="black" points="520.65,-117.13 526.09,-108.04 516.17,-111.76 520.65,-117.13"/>
<g id="a_edge18&#45;headlabel"><a xlink:href="dir_000079_000058.html" target="_top" xlink:title="2">
<text text-anchor="middle" x="519.71" y="-119.12" font-family="Helvetica,sans-Serif" font-size="10.00">2</text>
</a>
</g>
</g>
<!-- dir_9a9e2b7a8f13e92341bd3030ad46e690&#45;&gt;dir_1f7fd5c054f752becab847a993818f59 -->
<g id="edge19" class="edge">
<title>dir_9a9e2b7a8f13e92341bd3030ad46e690&#45;&gt;dir_1f7fd5c054f752becab847a993818f59</title>
<path fill="none" stroke="black" d="M365.83,-215.7C366.05,-207.98 366.31,-198.71 366.56,-190.11"/>
<polygon fill="black" stroke="black" points="370.06,-190.2 366.84,-180.1 363.06,-190 370.06,-190.2"/>
<g id="a_edge19&#45;headlabel"><a xlink:href="dir_000079_000045.html" target="_top" xlink:title="2">
<text text-anchor="middle" x="372.79" y="-191.37" font-family="Helvetica,sans-Serif" font-size="10.00">2</text>
</a>
</g>
</g>
<!-- dir_9a9e2b7a8f13e92341bd3030ad46e690&#45;&gt;dir_a1a50ee26630ac120dbfaac688c5740c -->
<g id="edge20" class="edge">
<title>dir_9a9e2b7a8f13e92341bd3030ad46e690&#45;&gt;dir_a1a50ee26630ac120dbfaac688c5740c</title>
<path fill="none" stroke="black" d="M335.58,-218.83C312.23,-207.71 279.6,-192.17 254.69,-180.31"/>
<polygon fill="black" stroke="black" points="256.09,-177.1 245.56,-175.96 253.08,-183.42 256.09,-177.1"/>
<g id="a_edge20&#45;headlabel"><a xlink:href="dir_000079_000043.html" target="_top" xlink:title="1">
<text text-anchor="middle" x="260.56" y="-173.59" font-family="Helvetica,sans-Serif" font-size="10.00">1</text>
</a>
</g>
</g>
<!-- dir_1e86b01c0afa4a5857f4b6245b9c39f7&#45;&gt;dir_2e574b6382041dc2a136b1675bed65ad -->
<g id="edge21" class="edge">
<title>dir_1e86b01c0afa4a5857f4b6245b9c39f7&#45;&gt;dir_2e574b6382041dc2a136b1675bed65ad</title>
<path fill="none" stroke="black" d="M666.36,-143.73C661.81,-123.05 651.04,-89.08 627.33,-72 610.81,-60.1 323.82,-32.23 219.69,-22.46"/>
<polygon fill="black" stroke="black" points="219.91,-18.96 209.63,-21.52 219.26,-25.93 219.91,-18.96"/>
<g id="a_edge21&#45;headlabel"><a xlink:href="dir_000068_000005.html" target="_top" xlink:title="2">
<text text-anchor="middle" x="223.75" y="-13.97" font-family="Helvetica,sans-Serif" font-size="10.00">2</text>
</a>
</g>
</g>
<!-- dir_1e86b01c0afa4a5857f4b6245b9c39f7&#45;&gt;dir_d415c0d599231354676ceb56dc96abfc -->
<g id="edge22" class="edge">
<title>dir_1e86b01c0afa4a5857f4b6245b9c39f7&#45;&gt;dir_d415c0d599231354676ceb56dc96abfc</title>
<path fill="none" stroke="black" d="M641.11,-144.94C624.69,-135.59 603.72,-123.66 585.69,-113.4"/>
<polygon fill="black" stroke="black" points="586.99,-110.11 576.57,-108.21 583.53,-116.2 586.99,-110.11"/>
<g id="a_edge22&#45;headlabel"><a xlink:href="dir_000068_000058.html" target="_top" xlink:title="1">
<text text-anchor="middle" x="591.52" y="-106.92" font-family="Helvetica,sans-Serif" font-size="10.00">1</text>
</a>
</g>
</g>
<!-- dir_d415c0d599231354676ceb56dc96abfc&#45;&gt;dir_4a120dbb11348b2823d2a12dcab2f1e3 -->
<g id="edge23" class="edge">
<title>dir_d415c0d599231354676ceb56dc96abfc&#45;&gt;dir_4a120dbb11348b2823d2a12dcab2f1e3</title>
<path fill="none" stroke="black" d="M511.72,-72.05C489.87,-61.36 461.71,-47.57 439.56,-36.73"/>
<polygon fill="black" stroke="black" points="441,-33.54 430.48,-32.29 437.92,-39.83 441,-33.54"/>
<g id="a_edge23&#45;headlabel"><a xlink:href="dir_000058_000002.html" target="_top" xlink:title="2">
<text text-anchor="middle" x="445.47" y="-30.07" font-family="Helvetica,sans-Serif" font-size="10.00">2</text>
</a>
</g>
</g>
<!-- dir_1f7fd5c054f752becab847a993818f59&#45;&gt;dir_236e02cd02223a2412f137d7ad85069e -->
<g id="edge24" class="edge">
<title>dir_1f7fd5c054f752becab847a993818f59&#45;&gt;dir_236e02cd02223a2412f137d7ad85069e</title>
<path fill="none" stroke="black" d="M365.85,-143.7C365.19,-135.98 364.39,-126.71 363.66,-118.11"/>
<polygon fill="black" stroke="black" points="367.14,-117.77 362.8,-108.1 360.16,-118.37 367.14,-117.77"/>
<g id="a_edge24&#45;headlabel"><a xlink:href="dir_000045_000074.html" target="_top" xlink:title="1">
<text text-anchor="middle" x="370.28" y="-118.61" font-family="Helvetica,sans-Serif" font-size="10.00">1</text>
</a>
</g>
</g>
<!-- dir_1f7fd5c054f752becab847a993818f59&#45;&gt;dir_2e574b6382041dc2a136b1675bed65ad -->
<g id="edge25" class="edge">
<title>dir_1f7fd5c054f752becab847a993818f59&#45;&gt;dir_2e574b6382041dc2a136b1675bed65ad</title>
<path fill="none" stroke="black" d="M344.21,-143.94C330.29,-133.61 312.23,-120.13 296.33,-108 267.54,-86.02 234.99,-60.54 212.06,-42.5"/>
<polygon fill="black" stroke="black" points="214.1,-39.64 204.08,-36.2 209.77,-45.14 214.1,-39.64"/>
<g id="a_edge25&#45;headlabel"><a xlink:href="dir_000045_000005.html" target="_top" xlink:title="4">
<text text-anchor="middle" x="218.68" y="-37.14" font-family="Helvetica,sans-Serif" font-size="10.00">4</text>
</a>
</g>
</g>
<!-- dir_1f7fd5c054f752becab847a993818f59&#45;&gt;dir_4a120dbb11348b2823d2a12dcab2f1e3 -->
<g id="edge26" class="edge">
<title>dir_1f7fd5c054f752becab847a993818f59&#45;&gt;dir_4a120dbb11348b2823d2a12dcab2f1e3</title>
<path fill="none" stroke="black" d="M394.67,-143.77C406.44,-134.72 418.95,-122.48 425.33,-108 434.16,-87.97 427.15,-63.77 418.78,-45.67"/>
<polygon fill="black" stroke="black" points="421.69,-43.67 414.08,-36.3 415.44,-46.81 421.69,-43.67"/>
<g id="a_edge26&#45;headlabel"><a xlink:href="dir_000045_000002.html" target="_top" xlink:title="3">
<text text-anchor="middle" x="425.84" y="-43.11" font-family="Helvetica,sans-Serif" font-size="10.00">3</text>
</a>
</g>
</g>
<!-- dir_1f7fd5c054f752becab847a993818f59&#45;&gt;dir_d415c0d599231354676ceb56dc96abfc -->
<g id="edge27" class="edge">
<title>dir_1f7fd5c054f752becab847a993818f59&#45;&gt;dir_d415c0d599231354676ceb56dc96abfc</title>
<path fill="none" stroke="black" d="M394.91,-150.22C423.47,-139.05 468.54,-121.42 502.09,-108.3"/>
<polygon fill="black" stroke="black" points="503.62,-111.46 511.66,-104.56 501.07,-104.94 503.62,-111.46"/>
<g id="a_edge27&#45;headlabel"><a xlink:href="dir_000045_000058.html" target="_top" xlink:title="1">
<text text-anchor="middle" x="501.31" y="-112.91" font-family="Helvetica,sans-Serif" font-size="10.00">1</text>
</a>
</g>
</g>
<!-- dir_a1a50ee26630ac120dbfaac688c5740c&#45;&gt;dir_2e574b6382041dc2a136b1675bed65ad -->
<g id="edge37" class="edge">
<title>dir_a1a50ee26630ac120dbfaac688c5740c&#45;&gt;dir_2e574b6382041dc2a136b1675bed65ad</title>
<path fill="none" stroke="black" d="M191.3,-148.13C175.94,-139.21 158.08,-125.75 149.33,-108 139.13,-87.29 149.97,-62.6 161.88,-44.48"/>
<polygon fill="black" stroke="black" points="164.84,-46.36 167.73,-36.16 159.12,-42.33 164.84,-46.36"/>
<g id="a_edge37&#45;headlabel"><a xlink:href="dir_000043_000005.html" target="_top" xlink:title="6">
<text text-anchor="middle" x="165.1" y="-48.43" font-family="Helvetica,sans-Serif" font-size="10.00">6</text>
</a>
</g>
</g>
<!-- dir_a1a50ee26630ac120dbfaac688c5740c&#45;&gt;dir_4a120dbb11348b2823d2a12dcab2f1e3 -->
<g id="edge38" class="edge">
<title>dir_a1a50ee26630ac120dbfaac688c5740c&#45;&gt;dir_4a120dbb11348b2823d2a12dcab2f1e3</title>
<path fill="none" stroke="black" d="M230.2,-143.79C244.23,-124.42 269.13,-92.92 296.33,-72 317.71,-55.56 344.99,-42.15 366.65,-32.92"/>
<polygon fill="black" stroke="black" points="368.27,-36.04 376.17,-28.99 365.59,-29.57 368.27,-36.04"/>
<g id="a_edge38&#45;headlabel"><a xlink:href="dir_000043_000002.html" target="_top" xlink:title="1">
<text text-anchor="middle" x="366.03" y="-37.54" font-family="Helvetica,sans-Serif" font-size="10.00">1</text>
</a>
</g>
</g>
<!-- dir_4d6c489bfc51616ec0a9cc5adedf0045&#45;&gt;dir_4de4d9042dff1d58386c54ecddac1bb7 -->
<g id="edge28" class="edge">
<title>dir_4d6c489bfc51616ec0a9cc5adedf0045&#45;&gt;dir_4de4d9042dff1d58386c54ecddac1bb7</title>
<path fill="none" stroke="black" d="M245.4,-306C300.94,-306 356.47,-306 412,-306"/>
<polygon fill="black" stroke="black" points="412.01,-309.5 422.01,-306 412.01,-302.5 412.01,-309.5"/>
<g id="a_edge28&#45;headlabel"><a xlink:href="dir_000078_000044.html" target="_top" xlink:title="2">
<text text-anchor="middle" x="408.41" y="-309.84" font-family="Helvetica,sans-Serif" font-size="10.00">2</text>
</a>
</g>
</g>
<!-- dir_4d6c489bfc51616ec0a9cc5adedf0045&#45;&gt;dir_236e02cd02223a2412f137d7ad85069e -->
<g id="edge29" class="edge">
<title>dir_4d6c489bfc51616ec0a9cc5adedf0045&#45;&gt;dir_236e02cd02223a2412f137d7ad85069e</title>
<path fill="none" stroke="black" d="M206.38,-287.86C185.94,-256.24 149.51,-187.95 182.33,-144 196.17,-125.47 250.2,-111.13 295.32,-102.07"/>
<polygon fill="black" stroke="black" points="296.24,-105.45 305.38,-100.1 294.9,-98.58 296.24,-105.45"/>
<g id="a_edge29&#45;headlabel"><a xlink:href="dir_000078_000074.html" target="_top" xlink:title="1">
<text text-anchor="middle" x="293.25" y="-106.43" font-family="Helvetica,sans-Serif" font-size="10.00">1</text>
</a>
</g>
</g>
<!-- dir_4d6c489bfc51616ec0a9cc5adedf0045&#45;&gt;dir_2e574b6382041dc2a136b1675bed65ad -->
<g id="edge30" class="edge">
<title>dir_4d6c489bfc51616ec0a9cc5adedf0045&#45;&gt;dir_2e574b6382041dc2a136b1675bed65ad</title>
<path fill="none" stroke="black" d="M191.15,-301.14C144.91,-293.97 54.11,-276.99 35.33,-252 -12.73,-188.05 -10.65,-137.46 35.33,-72 59.92,-36.99 109.99,-25 144.82,-20.96"/>
<polygon fill="black" stroke="black" points="145.49,-24.41 155.1,-19.94 144.8,-17.44 145.49,-24.41"/>
<g id="a_edge30&#45;headlabel"><a xlink:href="dir_000078_000005.html" target="_top" xlink:title="8">
<text text-anchor="middle" x="142.2" y="-25.09" font-family="Helvetica,sans-Serif" font-size="10.00">8</text>
</a>
</g>
</g>
<!-- dir_4d6c489bfc51616ec0a9cc5adedf0045&#45;&gt;dir_56dcb3087d61a7b61f3acc77e3c49ec1 -->
<g id="edge31" class="edge">
<title>dir_4d6c489bfc51616ec0a9cc5adedf0045&#45;&gt;dir_56dcb3087d61a7b61f3acc77e3c49ec1</title>
<path fill="none" stroke="black" d="M191.42,-287.88C177.17,-278.81 159.49,-267.55 144.1,-257.76"/>
<polygon fill="black" stroke="black" points="145.66,-254.61 135.34,-252.19 141.9,-260.51 145.66,-254.61"/>
<g id="a_edge31&#45;headlabel"><a xlink:href="dir_000078_000070.html" target="_top" xlink:title="1">
<text text-anchor="middle" x="150.22" y="-251.64" font-family="Helvetica,sans-Serif" font-size="10.00">1</text>
</a>
</g>
</g>
<!-- dir_4d6c489bfc51616ec0a9cc5adedf0045&#45;&gt;dir_9a9e2b7a8f13e92341bd3030ad46e690 -->
<g id="edge32" class="edge">
<title>dir_4d6c489bfc51616ec0a9cc5adedf0045&#45;&gt;dir_9a9e2b7a8f13e92341bd3030ad46e690</title>
<path fill="none" stroke="black" d="M245.64,-292C268.31,-281.2 300.85,-265.7 326.29,-253.59"/>
<polygon fill="black" stroke="black" points="328.12,-256.59 335.65,-249.14 325.11,-250.27 328.12,-256.59"/>
<g id="a_edge32&#45;headlabel"><a xlink:href="dir_000078_000079.html" target="_top" xlink:title="3">
<text text-anchor="middle" x="326.1" y="-258.2" font-family="Helvetica,sans-Serif" font-size="10.00">3</text>
</a>
</g>
</g>
<!-- dir_4d6c489bfc51616ec0a9cc5adedf0045&#45;&gt;dir_4a120dbb11348b2823d2a12dcab2f1e3 -->
<g id="edge33" class="edge">
<title>dir_4d6c489bfc51616ec0a9cc5adedf0045&#45;&gt;dir_4a120dbb11348b2823d2a12dcab2f1e3</title>
<path fill="none" stroke="black" d="M191.28,-304C157.03,-301.1 99.26,-290.42 72.33,-252 63.15,-238.9 66.7,-230.98 72.33,-216 102.24,-136.39 125.94,-116.63 198.33,-72 250.94,-39.56 322.88,-26.87 366.06,-21.98"/>
<polygon fill="black" stroke="black" points="366.54,-25.45 376.12,-20.92 365.81,-18.49 366.54,-25.45"/>
<g id="a_edge33&#45;headlabel"><a xlink:href="dir_000078_000002.html" target="_top" xlink:title="4">
<text text-anchor="middle" x="363.26" y="-26.15" font-family="Helvetica,sans-Serif" font-size="10.00">4</text>
</a>
</g>
</g>
<!-- dir_4d6c489bfc51616ec0a9cc5adedf0045&#45;&gt;dir_d415c0d599231354676ceb56dc96abfc -->
<g id="edge34" class="edge">
<title>dir_4d6c489bfc51616ec0a9cc5adedf0045&#45;&gt;dir_d415c0d599231354676ceb56dc96abfc</title>
<path fill="none" stroke="black" d="M245.53,-301.75C283.25,-296.27 352.55,-282.63 403.33,-252 460.58,-217.46 507.63,-152.6 530.79,-116.65"/>
<polygon fill="black" stroke="black" points="533.77,-118.49 536.16,-108.16 527.86,-114.74 533.77,-118.49"/>
<g id="a_edge34&#45;headlabel"><a xlink:href="dir_000078_000058.html" target="_top" xlink:title="2">
<text text-anchor="middle" x="534.25" y="-120.54" font-family="Helvetica,sans-Serif" font-size="10.00">2</text>
</a>
</g>
</g>
<!-- dir_4d6c489bfc51616ec0a9cc5adedf0045&#45;&gt;dir_1f7fd5c054f752becab847a993818f59 -->
<g id="edge35" class="edge">
<title>dir_4d6c489bfc51616ec0a9cc5adedf0045&#45;&gt;dir_1f7fd5c054f752becab847a993818f59</title>
<path fill="none" stroke="black" d="M236.3,-287.87C262.59,-262.82 311.66,-216.05 341.72,-187.41"/>
<polygon fill="black" stroke="black" points="344.47,-189.62 349.3,-180.19 339.64,-184.55 344.47,-189.62"/>
<g id="a_edge35&#45;headlabel"><a xlink:href="dir_000078_000045.html" target="_top" xlink:title="1">
<text text-anchor="middle" x="343.83" y="-191.66" font-family="Helvetica,sans-Serif" font-size="10.00">1</text>
</a>
</g>
</g>
<!-- dir_4d6c489bfc51616ec0a9cc5adedf0045&#45;&gt;dir_a1a50ee26630ac120dbfaac688c5740c -->
<g id="edge36" class="edge">
<title>dir_4d6c489bfc51616ec0a9cc5adedf0045&#45;&gt;dir_a1a50ee26630ac120dbfaac688c5740c</title>
<path fill="none" stroke="black" d="M218.33,-287.87C218.33,-263.67 218.33,-219.21 218.33,-190.39"/>
<polygon fill="black" stroke="black" points="221.83,-190.19 218.33,-180.19 214.83,-190.19 221.83,-190.19"/>
<g id="a_edge36&#45;headlabel"><a xlink:href="dir_000078_000043.html" target="_top" xlink:title="2">
<text text-anchor="middle" x="224.67" y="-191.28" font-family="Helvetica,sans-Serif" font-size="10.00">2</text>
</a>
</g>
</g>
</g>
</svg>
