<?xml version="1.0" encoding="UTF-8" standalone="no"?>
<!DOCTYPE svg PUBLIC "-//W3C//DTD SVG 1.1//EN"
 "http://www.w3.org/Graphics/SVG/1.1/DTD/svg11.dtd">
<!-- Generated by graphviz version 2.43.0 (0)
 -->
<!-- Title: Libs/RayLib/sources/IDrawable Pages: 1 -->
<svg width="112pt" height="223pt"
 viewBox="0.00 0.00 112.00 223.00" xmlns="http://www.w3.org/2000/svg" xmlns:xlink="http://www.w3.org/1999/xlink">
<g id="graph0" class="graph" transform="scale(1 1) rotate(0) translate(4 219)">
<title>Libs/RayLib/sources/IDrawable</title>
<polygon fill="white" stroke="transparent" points="-4,4 -4,-219 108,-219 108,4 -4,4"/>
<g id="clust1" class="cluster">
<title>clusterdir_b58f5cbef52144281201f92199ca772f</title>
<g id="a_clust1"><a xlink:href="dir_b58f5cbef52144281201f92199ca772f.html" target="_top" xlink:title="sources">
<polygon fill="#ddddee" stroke="black" points="14,-136 14,-207 96,-207 96,-136 14,-136"/>
<text text-anchor="middle" x="55" y="-195" font-family="Helvetica,sans-Serif" font-size="10.00">sources</text>
</a>
</g>
</g>
<!-- dir_39df4d791d11ed6d48a6fbf3f4a34302 -->
<g id="node1" class="node">
<title>dir_39df4d791d11ed6d48a6fbf3f4a34302</title>
<g id="a_node1"><a xlink:href="dir_39df4d791d11ed6d48a6fbf3f4a34302.html" target="_top" xlink:title="IDrawable">
<polygon fill="#eeeeff" stroke="black" points="88,-180 22,-180 22,-144 88,-144 88,-180"/>
<text text-anchor="middle" x="55" y="-159.5" font-family="Helvetica,sans-Serif" font-size="10.00">IDrawable</text>
</a>
</g>
</g>
<!-- dir_3008fb1da06f44ca71e3c91ff5fedb38 -->
<g id="node2" class="node">
<title>dir_3008fb1da06f44ca71e3c91ff5fedb38</title>
<g id="a_node2"><a xlink:href="dir_3008fb1da06f44ca71e3c91ff5fedb38.html" target="_top" xlink:title="Color">
<polygon fill="none" stroke="black" points="54,-108 0,-108 0,-72 54,-72 54,-108"/>
<text text-anchor="middle" x="27" y="-87.5" font-family="Helvetica,sans-Serif" font-size="10.00">Color</text>
</a>
</g>
</g>
<!-- dir_39df4d791d11ed6d48a6fbf3f4a34302&#45;&gt;dir_3008fb1da06f44ca71e3c91ff5fedb38 -->
<g id="edge2" class="edge">
<title>dir_39df4d791d11ed6d48a6fbf3f4a34302&#45;&gt;dir_3008fb1da06f44ca71e3c91ff5fedb38</title>
<path fill="none" stroke="black" d="M48.08,-143.7C44.93,-135.81 41.12,-126.3 37.62,-117.55"/>
<polygon fill="black" stroke="black" points="40.81,-116.09 33.84,-108.1 34.31,-118.69 40.81,-116.09"/>
<g id="a_edge2&#45;headlabel"><a xlink:href="dir_000102_000099.html" target="_top" xlink:title="1">
<text text-anchor="middle" x="44.78" y="-115.87" font-family="Helvetica,sans-Serif" font-size="10.00">1</text>
</a>
</g>
</g>
<!-- dir_42ef1f57a2f22e94d8ccc109a0fc3cde -->
<g id="node3" class="node">
<title>dir_42ef1f57a2f22e94d8ccc109a0fc3cde</title>
<g id="a_node3"><a xlink:href="dir_42ef1f57a2f22e94d8ccc109a0fc3cde.html" target="_top" xlink:title="Vector3">
<polygon fill="none" stroke="black" points="81,-36 27,-36 27,0 81,0 81,-36"/>
<text text-anchor="middle" x="54" y="-15.5" font-family="Helvetica,sans-Serif" font-size="10.00">Vector3</text>
</a>
</g>
</g>
<!-- dir_39df4d791d11ed6d48a6fbf3f4a34302&#45;&gt;dir_42ef1f57a2f22e94d8ccc109a0fc3cde -->
<g id="edge3" class="edge">
<title>dir_39df4d791d11ed6d48a6fbf3f4a34302&#45;&gt;dir_42ef1f57a2f22e94d8ccc109a0fc3cde</title>
<path fill="none" stroke="black" d="M58.25,-143.89C60.05,-133.54 62.09,-120.06 63,-108 64.2,-92.04 64.34,-87.94 63,-72 62.28,-63.5 60.93,-54.31 59.49,-46.01"/>
<polygon fill="black" stroke="black" points="62.91,-45.29 57.65,-36.09 56.03,-46.56 62.91,-45.29"/>
<g id="a_edge3&#45;headlabel"><a xlink:href="dir_000102_000119.html" target="_top" xlink:title="1">
<text text-anchor="middle" x="66.36" y="-45.81" font-family="Helvetica,sans-Serif" font-size="10.00">1</text>
</a>
</g>
</g>
<!-- dir_3008fb1da06f44ca71e3c91ff5fedb38&#45;&gt;dir_42ef1f57a2f22e94d8ccc109a0fc3cde -->
<g id="edge1" class="edge">
<title>dir_3008fb1da06f44ca71e3c91ff5fedb38&#45;&gt;dir_42ef1f57a2f22e94d8ccc109a0fc3cde</title>
<path fill="none" stroke="black" d="M33.67,-71.7C36.71,-63.81 40.38,-54.3 43.76,-45.55"/>
<polygon fill="black" stroke="black" points="47.07,-46.69 47.4,-36.1 40.54,-44.17 47.07,-46.69"/>
<g id="a_edge1&#45;headlabel"><a xlink:href="dir_000099_000119.html" target="_top" xlink:title="1">
<text text-anchor="middle" x="48.42" y="-48.57" font-family="Helvetica,sans-Serif" font-size="10.00">1</text>
</a>
</g>
</g>
</g>
</svg>
