<?xml version="1.0" encoding="UTF-8" standalone="no"?>
<!DOCTYPE svg PUBLIC "-//W3C//DTD SVG 1.1//EN"
 "http://www.w3.org/Graphics/SVG/1.1/DTD/svg11.dtd">
<!-- Generated by graphviz version 2.43.0 (0)
 -->
<!-- Title: Libs/Engine/sources/Systems/UISystem Pages: 1 -->
<svg width="226pt" height="295pt"
 viewBox="0.00 0.00 225.78 295.00" xmlns="http://www.w3.org/2000/svg" xmlns:xlink="http://www.w3.org/1999/xlink">
<g id="graph0" class="graph" transform="scale(1 1) rotate(0) translate(4 291)">
<title>Libs/Engine/sources/Systems/UISystem</title>
<polygon fill="white" stroke="transparent" points="-4,4 -4,-291 221.78,-291 221.78,4 -4,4"/>
<g id="clust1" class="cluster">
<title>clusterdir_9a9e2b7a8f13e92341bd3030ad46e690</title>
<g id="a_clust1"><a xlink:href="dir_9a9e2b7a8f13e92341bd3030ad46e690.html" target="_top" xlink:title="Systems">
<polygon fill="#ddddee" stroke="black" points="67,-208 67,-279 147,-279 147,-208 67,-208"/>
<text text-anchor="middle" x="107" y="-267" font-family="Helvetica,sans-Serif" font-size="10.00">Systems</text>
</a>
</g>
</g>
<!-- dir_3e4fa5ebb77107a4f04a6bab76e49648 -->
<g id="node1" class="node">
<title>dir_3e4fa5ebb77107a4f04a6bab76e49648</title>
<g id="a_node1"><a xlink:href="dir_3e4fa5ebb77107a4f04a6bab76e49648.html" target="_top" xlink:title="UISystem">
<polygon fill="#eeeeff" stroke="black" points="139,-252 75,-252 75,-216 139,-216 139,-252"/>
<text text-anchor="middle" x="107" y="-231.5" font-family="Helvetica,sans-Serif" font-size="10.00">UISystem</text>
</a>
</g>
</g>
<!-- dir_236e02cd02223a2412f137d7ad85069e -->
<g id="node2" class="node">
<title>dir_236e02cd02223a2412f137d7ad85069e</title>
<g id="a_node2"><a xlink:href="dir_236e02cd02223a2412f137d7ad85069e.html" target="_top" xlink:title="GameConfiguration">
<polygon fill="none" stroke="black" points="204.5,-108 93.5,-108 93.5,-72 204.5,-72 204.5,-108"/>
<text text-anchor="middle" x="149" y="-87.5" font-family="Helvetica,sans-Serif" font-size="10.00">GameConfiguration</text>
</a>
</g>
</g>
<!-- dir_3e4fa5ebb77107a4f04a6bab76e49648&#45;&gt;dir_236e02cd02223a2412f137d7ad85069e -->
<g id="edge3" class="edge">
<title>dir_3e4fa5ebb77107a4f04a6bab76e49648&#45;&gt;dir_236e02cd02223a2412f137d7ad85069e</title>
<path fill="none" stroke="black" d="M112.07,-215.87C119.26,-191.56 132.49,-146.82 141.01,-118.01"/>
<polygon fill="black" stroke="black" points="144.44,-118.77 143.92,-108.19 137.72,-116.79 144.44,-118.77"/>
<g id="a_edge3&#45;headlabel"><a xlink:href="dir_000086_000074.html" target="_top" xlink:title="1">
<text text-anchor="middle" x="146.14" y="-120.52" font-family="Helvetica,sans-Serif" font-size="10.00">1</text>
</a>
</g>
</g>
<!-- dir_2e574b6382041dc2a136b1675bed65ad -->
<g id="node3" class="node">
<title>dir_2e574b6382041dc2a136b1675bed65ad</title>
<g id="a_node3"><a xlink:href="dir_2e574b6382041dc2a136b1675bed65ad.html" target="_top" xlink:title="RayLib">
<polygon fill="white" stroke="red" points="54,-36 0,-36 0,0 54,0 54,-36"/>
<text text-anchor="middle" x="27" y="-15.5" font-family="Helvetica,sans-Serif" font-size="10.00">RayLib</text>
</a>
</g>
</g>
<!-- dir_3e4fa5ebb77107a4f04a6bab76e49648&#45;&gt;dir_2e574b6382041dc2a136b1675bed65ad -->
<g id="edge4" class="edge">
<title>dir_3e4fa5ebb77107a4f04a6bab76e49648&#45;&gt;dir_2e574b6382041dc2a136b1675bed65ad</title>
<path fill="none" stroke="black" d="M74.83,-222.34C55.48,-214.08 32.46,-200.52 21,-180 -2.48,-137.95 8.34,-79.63 17.94,-45.95"/>
<polygon fill="black" stroke="black" points="21.31,-46.92 20.84,-36.33 14.6,-44.9 21.31,-46.92"/>
<g id="a_edge4&#45;headlabel"><a xlink:href="dir_000086_000005.html" target="_top" xlink:title="2">
<text text-anchor="middle" x="22.99" y="-48.68" font-family="Helvetica,sans-Serif" font-size="10.00">2</text>
</a>
</g>
</g>
<!-- dir_e1b125331ccfd7597fbda9d04ae41b2d -->
<g id="node4" class="node">
<title>dir_e1b125331ccfd7597fbda9d04ae41b2d</title>
<g id="a_node4"><a xlink:href="dir_e1b125331ccfd7597fbda9d04ae41b2d.html" target="_top" xlink:title="Components">
<polygon fill="white" stroke="red" points="108,-180 30,-180 30,-144 108,-144 108,-180"/>
<text text-anchor="middle" x="69" y="-159.5" font-family="Helvetica,sans-Serif" font-size="10.00">Components</text>
</a>
</g>
</g>
<!-- dir_3e4fa5ebb77107a4f04a6bab76e49648&#45;&gt;dir_e1b125331ccfd7597fbda9d04ae41b2d -->
<g id="edge5" class="edge">
<title>dir_3e4fa5ebb77107a4f04a6bab76e49648&#45;&gt;dir_e1b125331ccfd7597fbda9d04ae41b2d</title>
<path fill="none" stroke="black" d="M97.61,-215.7C93.24,-207.64 87.94,-197.89 83.1,-188.98"/>
<polygon fill="black" stroke="black" points="86.13,-187.22 78.29,-180.1 79.98,-190.56 86.13,-187.22"/>
<g id="a_edge5&#45;headlabel"><a xlink:href="dir_000086_000037.html" target="_top" xlink:title="4">
<text text-anchor="middle" x="90.34" y="-186.53" font-family="Helvetica,sans-Serif" font-size="10.00">4</text>
</a>
</g>
</g>
<!-- dir_4a120dbb11348b2823d2a12dcab2f1e3 -->
<g id="node5" class="node">
<title>dir_4a120dbb11348b2823d2a12dcab2f1e3</title>
<g id="a_node5"><a xlink:href="dir_4a120dbb11348b2823d2a12dcab2f1e3.html" target="_top" xlink:title="ECS">
<polygon fill="white" stroke="red" points="176,-36 122,-36 122,0 176,0 176,-36"/>
<text text-anchor="middle" x="149" y="-15.5" font-family="Helvetica,sans-Serif" font-size="10.00">ECS</text>
</a>
</g>
</g>
<!-- dir_3e4fa5ebb77107a4f04a6bab76e49648&#45;&gt;dir_4a120dbb11348b2823d2a12dcab2f1e3 -->
<g id="edge6" class="edge">
<title>dir_3e4fa5ebb77107a4f04a6bab76e49648&#45;&gt;dir_4a120dbb11348b2823d2a12dcab2f1e3</title>
<path fill="none" stroke="black" d="M128.75,-215.92C154.57,-194.11 196.24,-153.68 213,-108 218.51,-92.98 219.81,-86.48 213,-72 206.82,-58.87 195.62,-47.87 184.3,-39.36"/>
<polygon fill="black" stroke="black" points="186.29,-36.49 176.1,-33.61 182.27,-42.22 186.29,-36.49"/>
<g id="a_edge6&#45;headlabel"><a xlink:href="dir_000086_000002.html" target="_top" xlink:title="2">
<text text-anchor="middle" x="190.87" y="-33.73" font-family="Helvetica,sans-Serif" font-size="10.00">2</text>
</a>
</g>
</g>
<!-- dir_236e02cd02223a2412f137d7ad85069e&#45;&gt;dir_2e574b6382041dc2a136b1675bed65ad -->
<g id="edge1" class="edge">
<title>dir_236e02cd02223a2412f137d7ad85069e&#45;&gt;dir_2e574b6382041dc2a136b1675bed65ad</title>
<path fill="none" stroke="black" d="M119.16,-71.88C102.22,-62.16 80.89,-49.92 63.03,-39.67"/>
<polygon fill="black" stroke="black" points="64.45,-36.46 54.04,-34.51 60.97,-42.53 64.45,-36.46"/>
<g id="a_edge1&#45;headlabel"><a xlink:href="dir_000074_000005.html" target="_top" xlink:title="2">
<text text-anchor="middle" x="68.99" y="-33.28" font-family="Helvetica,sans-Serif" font-size="10.00">2</text>
</a>
</g>
</g>
<!-- dir_236e02cd02223a2412f137d7ad85069e&#45;&gt;dir_4a120dbb11348b2823d2a12dcab2f1e3 -->
<g id="edge2" class="edge">
<title>dir_236e02cd02223a2412f137d7ad85069e&#45;&gt;dir_4a120dbb11348b2823d2a12dcab2f1e3</title>
<path fill="none" stroke="black" d="M149,-71.7C149,-63.98 149,-54.71 149,-46.11"/>
<polygon fill="black" stroke="black" points="152.5,-46.1 149,-36.1 145.5,-46.1 152.5,-46.1"/>
<g id="a_edge2&#45;headlabel"><a xlink:href="dir_000074_000002.html" target="_top" xlink:title="2">
<text text-anchor="middle" x="155.34" y="-47.2" font-family="Helvetica,sans-Serif" font-size="10.00">2</text>
</a>
</g>
</g>
<!-- dir_e1b125331ccfd7597fbda9d04ae41b2d&#45;&gt;dir_236e02cd02223a2412f137d7ad85069e -->
<g id="edge7" class="edge">
<title>dir_e1b125331ccfd7597fbda9d04ae41b2d&#45;&gt;dir_236e02cd02223a2412f137d7ad85069e</title>
<path fill="none" stroke="black" d="M88.78,-143.7C98.75,-134.97 111.01,-124.24 121.86,-114.75"/>
<polygon fill="black" stroke="black" points="124.23,-117.32 129.45,-108.1 119.62,-112.06 124.23,-117.32"/>
<g id="a_edge7&#45;headlabel"><a xlink:href="dir_000037_000074.html" target="_top" xlink:title="9">
<text text-anchor="middle" x="123.4" y="-119.33" font-family="Helvetica,sans-Serif" font-size="10.00">9</text>
</a>
</g>
</g>
<!-- dir_e1b125331ccfd7597fbda9d04ae41b2d&#45;&gt;dir_2e574b6382041dc2a136b1675bed65ad -->
<g id="edge8" class="edge">
<title>dir_e1b125331ccfd7597fbda9d04ae41b2d&#45;&gt;dir_2e574b6382041dc2a136b1675bed65ad</title>
<path fill="none" stroke="black" d="M62.88,-143.9C59.26,-133.56 54.68,-120.09 51,-108 44.75,-87.46 38.46,-64.01 33.89,-46.33"/>
<polygon fill="black" stroke="black" points="37.15,-44.97 31.28,-36.15 30.37,-46.71 37.15,-44.97"/>
<g id="a_edge8&#45;headlabel"><a xlink:href="dir_000037_000005.html" target="_top" xlink:title="56">
<text text-anchor="middle" x="40.79" y="-45.25" font-family="Helvetica,sans-Serif" font-size="10.00">56</text>
</a>
</g>
</g>
<!-- dir_e1b125331ccfd7597fbda9d04ae41b2d&#45;&gt;dir_4a120dbb11348b2823d2a12dcab2f1e3 -->
<g id="edge9" class="edge">
<title>dir_e1b125331ccfd7597fbda9d04ae41b2d&#45;&gt;dir_4a120dbb11348b2823d2a12dcab2f1e3</title>
<path fill="none" stroke="black" d="M68.41,-143.73C68.53,-124.86 71,-94.35 84,-72 91.18,-59.66 102.39,-49 113.49,-40.55"/>
<polygon fill="black" stroke="black" points="115.81,-43.19 121.89,-34.52 111.72,-37.5 115.81,-43.19"/>
<g id="a_edge9&#45;headlabel"><a xlink:href="dir_000037_000002.html" target="_top" xlink:title="33">
<text text-anchor="middle" x="114.54" y="-45.09" font-family="Helvetica,sans-Serif" font-size="10.00">33</text>
</a>
</g>
</g>
</g>
</svg>
