<?xml version="1.0" encoding="UTF-8" standalone="no"?>
<!DOCTYPE svg PUBLIC "-//W3C//DTD SVG 1.1//EN"
 "http://www.w3.org/Graphics/SVG/1.1/DTD/svg11.dtd">
<!-- Generated by graphviz version 2.43.0 (0)
 -->
<!-- Title: Libs/RayLib/sources/BoundingBox Pages: 1 -->
<svg width="122pt" height="151pt"
 viewBox="0.00 0.00 122.00 151.00" xmlns="http://www.w3.org/2000/svg" xmlns:xlink="http://www.w3.org/1999/xlink">
<g id="graph0" class="graph" transform="scale(1 1) rotate(0) translate(4 147)">
<title>Libs/RayLib/sources/BoundingBox</title>
<polygon fill="white" stroke="transparent" points="-4,4 -4,-147 118,-147 118,4 -4,4"/>
<g id="clust1" class="cluster">
<title>clusterdir_b58f5cbef52144281201f92199ca772f</title>
<g id="a_clust1"><a xlink:href="dir_b58f5cbef52144281201f92199ca772f.html" target="_top" xlink:title="sources">
<polygon fill="#ddddee" stroke="black" points="8,-64 8,-135 106,-135 106,-64 8,-64"/>
<text text-anchor="middle" x="57" y="-123" font-family="Helvetica,sans-Serif" font-size="10.00">sources</text>
</a>
</g>
</g>
<!-- dir_d24ad10a75a0a4351bb3081f1b154241 -->
<g id="node1" class="node">
<title>dir_d24ad10a75a0a4351bb3081f1b154241</title>
<g id="a_node1"><a xlink:href="dir_d24ad10a75a0a4351bb3081f1b154241.html" target="_top" xlink:title="BoundingBox">
<polygon fill="#eeeeff" stroke="black" points="97.5,-108 16.5,-108 16.5,-72 97.5,-72 97.5,-108"/>
<text text-anchor="middle" x="57" y="-87.5" font-family="Helvetica,sans-Serif" font-size="10.00">BoundingBox</text>
</a>
</g>
</g>
<!-- dir_42ef1f57a2f22e94d8ccc109a0fc3cde -->
<g id="node2" class="node">
<title>dir_42ef1f57a2f22e94d8ccc109a0fc3cde</title>
<g id="a_node2"><a xlink:href="dir_42ef1f57a2f22e94d8ccc109a0fc3cde.html" target="_top" xlink:title="Vector3">
<polygon fill="none" stroke="black" points="84,-36 30,-36 30,0 84,0 84,-36"/>
<text text-anchor="middle" x="57" y="-15.5" font-family="Helvetica,sans-Serif" font-size="10.00">Vector3</text>
</a>
</g>
</g>
<!-- dir_d24ad10a75a0a4351bb3081f1b154241&#45;&gt;dir_42ef1f57a2f22e94d8ccc109a0fc3cde -->
<g id="edge1" class="edge">
<title>dir_d24ad10a75a0a4351bb3081f1b154241&#45;&gt;dir_42ef1f57a2f22e94d8ccc109a0fc3cde</title>
<path fill="none" stroke="black" d="M57,-71.7C57,-63.98 57,-54.71 57,-46.11"/>
<polygon fill="black" stroke="black" points="60.5,-46.1 57,-36.1 53.5,-46.1 60.5,-46.1"/>
<g id="a_edge1&#45;headlabel"><a xlink:href="dir_000096_000119.html" target="_top" xlink:title="1">
<text text-anchor="middle" x="63.34" y="-47.2" font-family="Helvetica,sans-Serif" font-size="10.00">1</text>
</a>
</g>
</g>
</g>
</svg>
