<?xml version="1.0" encoding="UTF-8" standalone="no"?>
<!DOCTYPE svg PUBLIC "-//W3C//DTD SVG 1.1//EN"
 "http://www.w3.org/Graphics/SVG/1.1/DTD/svg11.dtd">
<!-- Generated by graphviz version 2.43.0 (0)
 -->
<!-- Title: Libs/ECS/sources/Entity Pages: 1 -->
<svg width="115pt" height="223pt"
 viewBox="0.00 0.00 114.50 223.00" xmlns="http://www.w3.org/2000/svg" xmlns:xlink="http://www.w3.org/1999/xlink">
<g id="graph0" class="graph" transform="scale(1 1) rotate(0) translate(4 219)">
<title>Libs/ECS/sources/Entity</title>
<polygon fill="white" stroke="transparent" points="-4,4 -4,-219 110.5,-219 110.5,4 -4,4"/>
<g id="clust1" class="cluster">
<title>clusterdir_01f7e9a8ddc73edbc1248d272f2c3911</title>
<g id="a_clust1"><a xlink:href="dir_01f7e9a8ddc73edbc1248d272f2c3911.html" target="_top" xlink:title="sources">
<polygon fill="#ddddee" stroke="black" points="28.5,-136 28.5,-207 98.5,-207 98.5,-136 28.5,-136"/>
<text text-anchor="middle" x="63.5" y="-195" font-family="Helvetica,sans-Serif" font-size="10.00">sources</text>
</a>
</g>
</g>
<!-- dir_b7c09b517d5f4640241c257c460ab0cc -->
<g id="node1" class="node">
<title>dir_b7c09b517d5f4640241c257c460ab0cc</title>
<g id="a_node1"><a xlink:href="dir_b7c09b517d5f4640241c257c460ab0cc.html" target="_top" xlink:title="Entity">
<polygon fill="#eeeeff" stroke="black" points="90.5,-180 36.5,-180 36.5,-144 90.5,-144 90.5,-180"/>
<text text-anchor="middle" x="63.5" y="-159.5" font-family="Helvetica,sans-Serif" font-size="10.00">Entity</text>
</a>
</g>
</g>
<!-- dir_aed85c5ce4b6a9c7e4c648d53dc0ffb7 -->
<g id="node2" class="node">
<title>dir_aed85c5ce4b6a9c7e4c648d53dc0ffb7</title>
<g id="a_node2"><a xlink:href="dir_aed85c5ce4b6a9c7e4c648d53dc0ffb7.html" target="_top" xlink:title="Managers">
<polygon fill="white" stroke="red" points="65,-108 0,-108 0,-72 65,-72 65,-108"/>
<text text-anchor="middle" x="32.5" y="-87.5" font-family="Helvetica,sans-Serif" font-size="10.00">Managers</text>
</a>
</g>
</g>
<!-- dir_b7c09b517d5f4640241c257c460ab0cc&#45;&gt;dir_aed85c5ce4b6a9c7e4c648d53dc0ffb7 -->
<g id="edge2" class="edge">
<title>dir_b7c09b517d5f4640241c257c460ab0cc&#45;&gt;dir_aed85c5ce4b6a9c7e4c648d53dc0ffb7</title>
<path fill="none" stroke="black" d="M55.84,-143.7C52.31,-135.73 48.04,-126.1 44.13,-117.26"/>
<polygon fill="black" stroke="black" points="47.32,-115.83 40.07,-108.1 40.92,-118.67 47.32,-115.83"/>
<g id="a_edge2&#45;headlabel"><a xlink:href="dir_000022_000026.html" target="_top" xlink:title="2">
<text text-anchor="middle" x="51.38" y="-115.47" font-family="Helvetica,sans-Serif" font-size="10.00">2</text>
</a>
</g>
</g>
<!-- dir_a5273e4af1888c46cbc238269a07fb92 -->
<g id="node3" class="node">
<title>dir_a5273e4af1888c46cbc238269a07fb92</title>
<g id="a_node3"><a xlink:href="dir_a5273e4af1888c46cbc238269a07fb92.html" target="_top" xlink:title="Components">
<polygon fill="none" stroke="black" points="101.5,-36 23.5,-36 23.5,0 101.5,0 101.5,-36"/>
<text text-anchor="middle" x="62.5" y="-15.5" font-family="Helvetica,sans-Serif" font-size="10.00">Components</text>
</a>
</g>
</g>
<!-- dir_b7c09b517d5f4640241c257c460ab0cc&#45;&gt;dir_a5273e4af1888c46cbc238269a07fb92 -->
<g id="edge3" class="edge">
<title>dir_b7c09b517d5f4640241c257c460ab0cc&#45;&gt;dir_a5273e4af1888c46cbc238269a07fb92</title>
<path fill="none" stroke="black" d="M67.96,-143.95C70.44,-133.63 73.25,-120.15 74.5,-108 76.13,-92.08 76.28,-87.9 74.5,-72 73.54,-63.43 71.74,-54.22 69.81,-45.93"/>
<polygon fill="black" stroke="black" points="73.16,-44.89 67.37,-36.02 66.37,-46.57 73.16,-44.89"/>
<g id="a_edge3&#45;headlabel"><a xlink:href="dir_000022_000020.html" target="_top" xlink:title="1">
<text text-anchor="middle" x="76.78" y="-45.2" font-family="Helvetica,sans-Serif" font-size="10.00">1</text>
</a>
</g>
</g>
<!-- dir_aed85c5ce4b6a9c7e4c648d53dc0ffb7&#45;&gt;dir_a5273e4af1888c46cbc238269a07fb92 -->
<g id="edge1" class="edge">
<title>dir_aed85c5ce4b6a9c7e4c648d53dc0ffb7&#45;&gt;dir_a5273e4af1888c46cbc238269a07fb92</title>
<path fill="none" stroke="black" d="M39.92,-71.7C43.29,-63.81 47.37,-54.3 51.12,-45.55"/>
<polygon fill="black" stroke="black" points="54.45,-46.67 55.17,-36.1 48.01,-43.92 54.45,-46.67"/>
<g id="a_edge1&#45;headlabel"><a xlink:href="dir_000026_000020.html" target="_top" xlink:title="1">
<text text-anchor="middle" x="55.64" y="-48.6" font-family="Helvetica,sans-Serif" font-size="10.00">1</text>
</a>
</g>
</g>
</g>
</svg>
