<?xml version="1.0" encoding="UTF-8" standalone="no"?>
<!DOCTYPE svg PUBLIC "-//W3C//DTD SVG 1.1//EN"
 "http://www.w3.org/Graphics/SVG/1.1/DTD/svg11.dtd">
<!-- Generated by graphviz version 2.43.0 (0)
 -->
<!-- Title: Libs/Engine/sources/Components/SquareCollider Pages: 1 -->
<svg width="293pt" height="295pt"
 viewBox="0.00 0.00 293.00 295.00" xmlns="http://www.w3.org/2000/svg" xmlns:xlink="http://www.w3.org/1999/xlink">
<g id="graph0" class="graph" transform="scale(1 1) rotate(0) translate(4 291)">
<title>Libs/Engine/sources/Components/SquareCollider</title>
<polygon fill="white" stroke="transparent" points="-4,4 -4,-291 289,-291 289,4 -4,4"/>
<g id="clust1" class="cluster">
<title>clusterdir_e1b125331ccfd7597fbda9d04ae41b2d</title>
<g id="a_clust1"><a xlink:href="dir_e1b125331ccfd7597fbda9d04ae41b2d.html" target="_top" xlink:title="Components">
<polygon fill="#ddddee" stroke="black" points="74,-208 74,-279 178,-279 178,-208 74,-208"/>
<text text-anchor="middle" x="126" y="-267" font-family="Helvetica,sans-Serif" font-size="10.00">Components</text>
</a>
</g>
</g>
<!-- dir_260d2cbf2ed6a6826d7b84c90a66ff13 -->
<g id="node1" class="node">
<title>dir_260d2cbf2ed6a6826d7b84c90a66ff13</title>
<g id="a_node1"><a xlink:href="dir_260d2cbf2ed6a6826d7b84c90a66ff13.html" target="_top" xlink:title="SquareCollider">
<polygon fill="#eeeeff" stroke="black" points="170,-252 82,-252 82,-216 170,-216 170,-252"/>
<text text-anchor="middle" x="126" y="-231.5" font-family="Helvetica,sans-Serif" font-size="10.00">SquareCollider</text>
</a>
</g>
</g>
<!-- dir_551d1ed5bb1af47eeab160358667c755 -->
<g id="node2" class="node">
<title>dir_551d1ed5bb1af47eeab160358667c755</title>
<g id="a_node2"><a xlink:href="dir_551d1ed5bb1af47eeab160358667c755.html" target="_top" xlink:title="Collider">
<polygon fill="none" stroke="black" points="95,-180 41,-180 41,-144 95,-144 95,-180"/>
<text text-anchor="middle" x="68" y="-159.5" font-family="Helvetica,sans-Serif" font-size="10.00">Collider</text>
</a>
</g>
</g>
<!-- dir_260d2cbf2ed6a6826d7b84c90a66ff13&#45;&gt;dir_551d1ed5bb1af47eeab160358667c755 -->
<g id="edge1" class="edge">
<title>dir_260d2cbf2ed6a6826d7b84c90a66ff13&#45;&gt;dir_551d1ed5bb1af47eeab160358667c755</title>
<path fill="none" stroke="black" d="M111.66,-215.7C104.71,-207.3 96.23,-197.07 88.6,-187.86"/>
<polygon fill="black" stroke="black" points="91.25,-185.57 82.17,-180.1 85.86,-190.04 91.25,-185.57"/>
<g id="a_edge1&#45;headlabel"><a xlink:href="dir_000067_000046.html" target="_top" xlink:title="1">
<text text-anchor="middle" x="95.73" y="-184.03" font-family="Helvetica,sans-Serif" font-size="10.00">1</text>
</a>
</g>
</g>
<!-- dir_2e574b6382041dc2a136b1675bed65ad -->
<g id="node3" class="node">
<title>dir_2e574b6382041dc2a136b1675bed65ad</title>
<g id="a_node3"><a xlink:href="dir_2e574b6382041dc2a136b1675bed65ad.html" target="_top" xlink:title="RayLib">
<polygon fill="white" stroke="red" points="54,-36 0,-36 0,0 54,0 54,-36"/>
<text text-anchor="middle" x="27" y="-15.5" font-family="Helvetica,sans-Serif" font-size="10.00">RayLib</text>
</a>
</g>
</g>
<!-- dir_260d2cbf2ed6a6826d7b84c90a66ff13&#45;&gt;dir_2e574b6382041dc2a136b1675bed65ad -->
<g id="edge2" class="edge">
<title>dir_260d2cbf2ed6a6826d7b84c90a66ff13&#45;&gt;dir_2e574b6382041dc2a136b1675bed65ad</title>
<path fill="none" stroke="black" d="M81.53,-219.04C62.91,-210.78 43.06,-198.27 32,-180 7.05,-138.77 13.43,-80.08 20.26,-46.13"/>
<polygon fill="black" stroke="black" points="23.75,-46.54 22.45,-36.03 16.91,-45.06 23.75,-46.54"/>
<g id="a_edge2&#45;headlabel"><a xlink:href="dir_000067_000005.html" target="_top" xlink:title="4">
<text text-anchor="middle" x="25.76" y="-48.16" font-family="Helvetica,sans-Serif" font-size="10.00">4</text>
</a>
</g>
</g>
<!-- dir_c5543cdc84e26c6148bf8505a526aef1 -->
<g id="node4" class="node">
<title>dir_c5543cdc84e26c6148bf8505a526aef1</title>
<g id="a_node4"><a xlink:href="dir_c5543cdc84e26c6148bf8505a526aef1.html" target="_top" xlink:title="Exceptions">
<polygon fill="none" stroke="black" points="285,-180 215,-180 215,-144 285,-144 285,-180"/>
<text text-anchor="middle" x="250" y="-159.5" font-family="Helvetica,sans-Serif" font-size="10.00">Exceptions</text>
</a>
</g>
</g>
<!-- dir_260d2cbf2ed6a6826d7b84c90a66ff13&#45;&gt;dir_c5543cdc84e26c6148bf8505a526aef1 -->
<g id="edge3" class="edge">
<title>dir_260d2cbf2ed6a6826d7b84c90a66ff13&#45;&gt;dir_c5543cdc84e26c6148bf8505a526aef1</title>
<path fill="none" stroke="black" d="M156.33,-215.88C172.7,-206.64 193.08,-195.13 210.65,-185.21"/>
<polygon fill="black" stroke="black" points="212.56,-188.15 219.55,-180.19 209.12,-182.06 212.56,-188.15"/>
<g id="a_edge3&#45;headlabel"><a xlink:href="dir_000067_000073.html" target="_top" xlink:title="1">
<text text-anchor="middle" x="210.83" y="-189.89" font-family="Helvetica,sans-Serif" font-size="10.00">1</text>
</a>
</g>
</g>
<!-- dir_4a120dbb11348b2823d2a12dcab2f1e3 -->
<g id="node5" class="node">
<title>dir_4a120dbb11348b2823d2a12dcab2f1e3</title>
<g id="a_node5"><a xlink:href="dir_4a120dbb11348b2823d2a12dcab2f1e3.html" target="_top" xlink:title="ECS">
<polygon fill="white" stroke="red" points="153,-36 99,-36 99,0 153,0 153,-36"/>
<text text-anchor="middle" x="126" y="-15.5" font-family="Helvetica,sans-Serif" font-size="10.00">ECS</text>
</a>
</g>
</g>
<!-- dir_260d2cbf2ed6a6826d7b84c90a66ff13&#45;&gt;dir_4a120dbb11348b2823d2a12dcab2f1e3 -->
<g id="edge4" class="edge">
<title>dir_260d2cbf2ed6a6826d7b84c90a66ff13&#45;&gt;dir_4a120dbb11348b2823d2a12dcab2f1e3</title>
<path fill="none" stroke="black" d="M136.85,-215.82C154.2,-186.09 184.53,-123.31 167,-72 163.56,-61.93 157.34,-52.28 150.77,-44.05"/>
<polygon fill="black" stroke="black" points="153.32,-41.65 144.17,-36.32 148,-46.2 153.32,-41.65"/>
<g id="a_edge4&#45;headlabel"><a xlink:href="dir_000067_000002.html" target="_top" xlink:title="3">
<text text-anchor="middle" x="157.82" y="-40.04" font-family="Helvetica,sans-Serif" font-size="10.00">3</text>
</a>
</g>
</g>
<!-- dir_9c1a1c874c5316598fbf40a566ddc437 -->
<g id="node6" class="node">
<title>dir_9c1a1c874c5316598fbf40a566ddc437</title>
<g id="a_node6"><a xlink:href="dir_9c1a1c874c5316598fbf40a566ddc437.html" target="_top" xlink:title="Transform">
<polygon fill="none" stroke="black" points="158.5,-108 93.5,-108 93.5,-72 158.5,-72 158.5,-108"/>
<text text-anchor="middle" x="126" y="-87.5" font-family="Helvetica,sans-Serif" font-size="10.00">Transform</text>
</a>
</g>
</g>
<!-- dir_260d2cbf2ed6a6826d7b84c90a66ff13&#45;&gt;dir_9c1a1c874c5316598fbf40a566ddc437 -->
<g id="edge5" class="edge">
<title>dir_260d2cbf2ed6a6826d7b84c90a66ff13&#45;&gt;dir_9c1a1c874c5316598fbf40a566ddc437</title>
<path fill="none" stroke="black" d="M126,-215.87C126,-191.67 126,-147.21 126,-118.39"/>
<polygon fill="black" stroke="black" points="129.5,-118.19 126,-108.19 122.5,-118.19 129.5,-118.19"/>
<g id="a_edge5&#45;headlabel"><a xlink:href="dir_000067_000071.html" target="_top" xlink:title="1">
<text text-anchor="middle" x="132.34" y="-119.28" font-family="Helvetica,sans-Serif" font-size="10.00">1</text>
</a>
</g>
</g>
<!-- dir_551d1ed5bb1af47eeab160358667c755&#45;&gt;dir_2e574b6382041dc2a136b1675bed65ad -->
<g id="edge6" class="edge">
<title>dir_551d1ed5bb1af47eeab160358667c755&#45;&gt;dir_2e574b6382041dc2a136b1675bed65ad</title>
<path fill="none" stroke="black" d="M62.28,-143.88C58.88,-133.53 54.55,-120.05 51,-108 44.92,-87.41 38.63,-63.96 34.01,-46.3"/>
<polygon fill="black" stroke="black" points="37.27,-44.93 31.36,-36.13 30.49,-46.69 37.27,-44.93"/>
<g id="a_edge6&#45;headlabel"><a xlink:href="dir_000046_000005.html" target="_top" xlink:title="3">
<text text-anchor="middle" x="40.92" y="-45.19" font-family="Helvetica,sans-Serif" font-size="10.00">3</text>
</a>
</g>
</g>
<!-- dir_551d1ed5bb1af47eeab160358667c755&#45;&gt;dir_4a120dbb11348b2823d2a12dcab2f1e3 -->
<g id="edge7" class="edge">
<title>dir_551d1ed5bb1af47eeab160358667c755&#45;&gt;dir_4a120dbb11348b2823d2a12dcab2f1e3</title>
<path fill="none" stroke="black" d="M68.61,-143.87C69.82,-125.39 73.41,-95.47 84,-72 88.49,-62.05 95.26,-52.33 102.06,-43.99"/>
<polygon fill="black" stroke="black" points="104.93,-46.03 108.79,-36.16 99.62,-41.47 104.93,-46.03"/>
<g id="a_edge7&#45;headlabel"><a xlink:href="dir_000046_000002.html" target="_top" xlink:title="3">
<text text-anchor="middle" x="104.75" y="-48.1" font-family="Helvetica,sans-Serif" font-size="10.00">3</text>
</a>
</g>
</g>
<!-- dir_551d1ed5bb1af47eeab160358667c755&#45;&gt;dir_9c1a1c874c5316598fbf40a566ddc437 -->
<g id="edge8" class="edge">
<title>dir_551d1ed5bb1af47eeab160358667c755&#45;&gt;dir_9c1a1c874c5316598fbf40a566ddc437</title>
<path fill="none" stroke="black" d="M82.34,-143.7C89.29,-135.3 97.77,-125.07 105.4,-115.86"/>
<polygon fill="black" stroke="black" points="108.14,-118.04 111.83,-108.1 102.75,-113.57 108.14,-118.04"/>
<g id="a_edge8&#45;headlabel"><a xlink:href="dir_000046_000071.html" target="_top" xlink:title="1">
<text text-anchor="middle" x="108.04" y="-120.12" font-family="Helvetica,sans-Serif" font-size="10.00">1</text>
</a>
</g>
</g>
<!-- dir_9c1a1c874c5316598fbf40a566ddc437&#45;&gt;dir_2e574b6382041dc2a136b1675bed65ad -->
<g id="edge9" class="edge">
<title>dir_9c1a1c874c5316598fbf40a566ddc437&#45;&gt;dir_2e574b6382041dc2a136b1675bed65ad</title>
<path fill="none" stroke="black" d="M101.78,-71.88C89.08,-62.89 73.34,-51.76 59.58,-42.03"/>
<polygon fill="black" stroke="black" points="61.5,-39.11 51.31,-36.19 57.46,-44.82 61.5,-39.11"/>
<g id="a_edge9&#45;headlabel"><a xlink:href="dir_000071_000005.html" target="_top" xlink:title="1">
<text text-anchor="middle" x="66.07" y="-36.36" font-family="Helvetica,sans-Serif" font-size="10.00">1</text>
</a>
</g>
</g>
<!-- dir_9c1a1c874c5316598fbf40a566ddc437&#45;&gt;dir_4a120dbb11348b2823d2a12dcab2f1e3 -->
<g id="edge10" class="edge">
<title>dir_9c1a1c874c5316598fbf40a566ddc437&#45;&gt;dir_4a120dbb11348b2823d2a12dcab2f1e3</title>
<path fill="none" stroke="black" d="M126,-71.7C126,-63.98 126,-54.71 126,-46.11"/>
<polygon fill="black" stroke="black" points="129.5,-46.1 126,-36.1 122.5,-46.1 129.5,-46.1"/>
<g id="a_edge10&#45;headlabel"><a xlink:href="dir_000071_000002.html" target="_top" xlink:title="1">
<text text-anchor="middle" x="132.34" y="-47.2" font-family="Helvetica,sans-Serif" font-size="10.00">1</text>
</a>
</g>
</g>
</g>
</svg>
