<?xml version="1.0" encoding="UTF-8" standalone="no"?>
<!DOCTYPE svg PUBLIC "-//W3C//DTD SVG 1.1//EN"
 "http://www.w3.org/Graphics/SVG/1.1/DTD/svg11.dtd">
<!-- Generated by graphviz version 2.43.0 (0)
 -->
<!-- Title: Libs/Engine/sources/Components/Collider Pages: 1 -->
<svg width="146pt" height="223pt"
 viewBox="0.00 0.00 146.00 223.00" xmlns="http://www.w3.org/2000/svg" xmlns:xlink="http://www.w3.org/1999/xlink">
<g id="graph0" class="graph" transform="scale(1 1) rotate(0) translate(4 219)">
<title>Libs/Engine/sources/Components/Collider</title>
<polygon fill="white" stroke="transparent" points="-4,4 -4,-219 142,-219 142,4 -4,4"/>
<g id="clust1" class="cluster">
<title>clusterdir_e1b125331ccfd7597fbda9d04ae41b2d</title>
<g id="a_clust1"><a xlink:href="dir_e1b125331ccfd7597fbda9d04ae41b2d.html" target="_top" xlink:title="Components">
<polygon fill="#ddddee" stroke="black" points="24,-136 24,-207 102,-207 102,-136 24,-136"/>
<text text-anchor="middle" x="63" y="-195" font-family="Helvetica,sans-Serif" font-size="10.00">Components</text>
</a>
</g>
</g>
<!-- dir_551d1ed5bb1af47eeab160358667c755 -->
<g id="node1" class="node">
<title>dir_551d1ed5bb1af47eeab160358667c755</title>
<g id="a_node1"><a xlink:href="dir_551d1ed5bb1af47eeab160358667c755.html" target="_top" xlink:title="Collider">
<polygon fill="#eeeeff" stroke="black" points="90,-180 36,-180 36,-144 90,-144 90,-180"/>
<text text-anchor="middle" x="63" y="-159.5" font-family="Helvetica,sans-Serif" font-size="10.00">Collider</text>
</a>
</g>
</g>
<!-- dir_2e574b6382041dc2a136b1675bed65ad -->
<g id="node2" class="node">
<title>dir_2e574b6382041dc2a136b1675bed65ad</title>
<g id="a_node2"><a xlink:href="dir_2e574b6382041dc2a136b1675bed65ad.html" target="_top" xlink:title="RayLib">
<polygon fill="white" stroke="red" points="54,-36 0,-36 0,0 54,0 54,-36"/>
<text text-anchor="middle" x="27" y="-15.5" font-family="Helvetica,sans-Serif" font-size="10.00">RayLib</text>
</a>
</g>
</g>
<!-- dir_551d1ed5bb1af47eeab160358667c755&#45;&gt;dir_2e574b6382041dc2a136b1675bed65ad -->
<g id="edge1" class="edge">
<title>dir_551d1ed5bb1af47eeab160358667c755&#45;&gt;dir_2e574b6382041dc2a136b1675bed65ad</title>
<path fill="none" stroke="black" d="M44.4,-143.76C35.47,-134.2 25.71,-121.53 21,-108 14.06,-88.07 16.21,-64.14 19.74,-46.12"/>
<polygon fill="black" stroke="black" points="23.17,-46.78 21.91,-36.26 16.34,-45.27 23.17,-46.78"/>
<g id="a_edge1&#45;headlabel"><a xlink:href="dir_000046_000005.html" target="_top" xlink:title="3">
<text text-anchor="middle" x="25.17" y="-48.41" font-family="Helvetica,sans-Serif" font-size="10.00">3</text>
</a>
</g>
</g>
<!-- dir_4a120dbb11348b2823d2a12dcab2f1e3 -->
<g id="node3" class="node">
<title>dir_4a120dbb11348b2823d2a12dcab2f1e3</title>
<g id="a_node3"><a xlink:href="dir_4a120dbb11348b2823d2a12dcab2f1e3.html" target="_top" xlink:title="ECS">
<polygon fill="white" stroke="red" points="138,-36 84,-36 84,0 138,0 138,-36"/>
<text text-anchor="middle" x="111" y="-15.5" font-family="Helvetica,sans-Serif" font-size="10.00">ECS</text>
</a>
</g>
</g>
<!-- dir_551d1ed5bb1af47eeab160358667c755&#45;&gt;dir_4a120dbb11348b2823d2a12dcab2f1e3 -->
<g id="edge2" class="edge">
<title>dir_551d1ed5bb1af47eeab160358667c755&#45;&gt;dir_4a120dbb11348b2823d2a12dcab2f1e3</title>
<path fill="none" stroke="black" d="M80.32,-143.99C89.02,-134.31 98.8,-121.46 104,-108 111.62,-88.27 113.1,-64.29 112.83,-46.19"/>
<polygon fill="black" stroke="black" points="116.32,-45.91 112.48,-36.03 109.33,-46.15 116.32,-45.91"/>
<g id="a_edge2&#45;headlabel"><a xlink:href="dir_000046_000002.html" target="_top" xlink:title="3">
<text text-anchor="middle" x="119.28" y="-46.91" font-family="Helvetica,sans-Serif" font-size="10.00">3</text>
</a>
</g>
</g>
<!-- dir_9c1a1c874c5316598fbf40a566ddc437 -->
<g id="node4" class="node">
<title>dir_9c1a1c874c5316598fbf40a566ddc437</title>
<g id="a_node4"><a xlink:href="dir_9c1a1c874c5316598fbf40a566ddc437.html" target="_top" xlink:title="Transform">
<polygon fill="none" stroke="black" points="95.5,-108 30.5,-108 30.5,-72 95.5,-72 95.5,-108"/>
<text text-anchor="middle" x="63" y="-87.5" font-family="Helvetica,sans-Serif" font-size="10.00">Transform</text>
</a>
</g>
</g>
<!-- dir_551d1ed5bb1af47eeab160358667c755&#45;&gt;dir_9c1a1c874c5316598fbf40a566ddc437 -->
<g id="edge3" class="edge">
<title>dir_551d1ed5bb1af47eeab160358667c755&#45;&gt;dir_9c1a1c874c5316598fbf40a566ddc437</title>
<path fill="none" stroke="black" d="M63,-143.7C63,-135.98 63,-126.71 63,-118.11"/>
<polygon fill="black" stroke="black" points="66.5,-118.1 63,-108.1 59.5,-118.1 66.5,-118.1"/>
<g id="a_edge3&#45;headlabel"><a xlink:href="dir_000046_000071.html" target="_top" xlink:title="1">
<text text-anchor="middle" x="69.34" y="-119.2" font-family="Helvetica,sans-Serif" font-size="10.00">1</text>
</a>
</g>
</g>
<!-- dir_9c1a1c874c5316598fbf40a566ddc437&#45;&gt;dir_2e574b6382041dc2a136b1675bed65ad -->
<g id="edge4" class="edge">
<title>dir_9c1a1c874c5316598fbf40a566ddc437&#45;&gt;dir_2e574b6382041dc2a136b1675bed65ad</title>
<path fill="none" stroke="black" d="M54.1,-71.7C50,-63.73 45.05,-54.1 40.51,-45.26"/>
<polygon fill="black" stroke="black" points="43.48,-43.4 35.8,-36.1 37.26,-46.6 43.48,-43.4"/>
<g id="a_edge4&#45;headlabel"><a xlink:href="dir_000071_000005.html" target="_top" xlink:title="1">
<text text-anchor="middle" x="47.65" y="-42.79" font-family="Helvetica,sans-Serif" font-size="10.00">1</text>
</a>
</g>
</g>
<!-- dir_9c1a1c874c5316598fbf40a566ddc437&#45;&gt;dir_4a120dbb11348b2823d2a12dcab2f1e3 -->
<g id="edge5" class="edge">
<title>dir_9c1a1c874c5316598fbf40a566ddc437&#45;&gt;dir_4a120dbb11348b2823d2a12dcab2f1e3</title>
<path fill="none" stroke="black" d="M74.87,-71.7C80.5,-63.47 87.35,-53.48 93.57,-44.42"/>
<polygon fill="black" stroke="black" points="96.5,-46.33 99.27,-36.1 90.73,-42.37 96.5,-46.33"/>
<g id="a_edge5&#45;headlabel"><a xlink:href="dir_000071_000002.html" target="_top" xlink:title="1">
<text text-anchor="middle" x="96.81" y="-48.4" font-family="Helvetica,sans-Serif" font-size="10.00">1</text>
</a>
</g>
</g>
</g>
</svg>
