<?xml version="1.0" encoding="UTF-8" standalone="no"?>
<!DOCTYPE svg PUBLIC "-//W3C//DTD SVG 1.1//EN"
 "http://www.w3.org/Graphics/SVG/1.1/DTD/svg11.dtd">
<!-- Generated by graphviz version 2.43.0 (0)
 -->
<!-- Title: Libs/Engine/sources/Components/Movement Pages: 1 -->
<svg width="377pt" height="295pt"
 viewBox="0.00 0.00 377.04 295.00" xmlns="http://www.w3.org/2000/svg" xmlns:xlink="http://www.w3.org/1999/xlink">
<g id="graph0" class="graph" transform="scale(1 1) rotate(0) translate(4 291)">
<title>Libs/Engine/sources/Components/Movement</title>
<polygon fill="white" stroke="transparent" points="-4,4 -4,-291 373.04,-291 373.04,4 -4,4"/>
<g id="clust1" class="cluster">
<title>clusterdir_e1b125331ccfd7597fbda9d04ae41b2d</title>
<g id="a_clust1"><a xlink:href="dir_e1b125331ccfd7597fbda9d04ae41b2d.html" target="_top" xlink:title="Components">
<polygon fill="#ddddee" stroke="black" points="124.09,-208 124.09,-279 210.09,-279 210.09,-208 124.09,-208"/>
<text text-anchor="middle" x="167.09" y="-267" font-family="Helvetica,sans-Serif" font-size="10.00">Components</text>
</a>
</g>
</g>
<!-- dir_6c4ca536b0ff958154ebda695b1eb8bd -->
<g id="node1" class="node">
<title>dir_6c4ca536b0ff958154ebda695b1eb8bd</title>
<g id="a_node1"><a xlink:href="dir_6c4ca536b0ff958154ebda695b1eb8bd.html" target="_top" xlink:title="Movement">
<polygon fill="#eeeeff" stroke="black" points="201.59,-252 132.59,-252 132.59,-216 201.59,-216 201.59,-252"/>
<text text-anchor="middle" x="167.09" y="-231.5" font-family="Helvetica,sans-Serif" font-size="10.00">Movement</text>
</a>
</g>
</g>
<!-- dir_551d1ed5bb1af47eeab160358667c755 -->
<g id="node2" class="node">
<title>dir_551d1ed5bb1af47eeab160358667c755</title>
<g id="a_node2"><a xlink:href="dir_551d1ed5bb1af47eeab160358667c755.html" target="_top" xlink:title="Collider">
<polygon fill="none" stroke="black" points="137.09,-180 83.09,-180 83.09,-144 137.09,-144 137.09,-180"/>
<text text-anchor="middle" x="110.09" y="-159.5" font-family="Helvetica,sans-Serif" font-size="10.00">Collider</text>
</a>
</g>
</g>
<!-- dir_6c4ca536b0ff958154ebda695b1eb8bd&#45;&gt;dir_551d1ed5bb1af47eeab160358667c755 -->
<g id="edge6" class="edge">
<title>dir_6c4ca536b0ff958154ebda695b1eb8bd&#45;&gt;dir_551d1ed5bb1af47eeab160358667c755</title>
<path fill="none" stroke="black" d="M153,-215.7C146.17,-207.3 137.84,-197.07 130.34,-187.86"/>
<polygon fill="black" stroke="black" points="133.05,-185.65 124.02,-180.1 127.62,-190.07 133.05,-185.65"/>
<g id="a_edge6&#45;headlabel"><a xlink:href="dir_000060_000046.html" target="_top" xlink:title="1">
<text text-anchor="middle" x="137.52" y="-184.14" font-family="Helvetica,sans-Serif" font-size="10.00">1</text>
</a>
</g>
</g>
<!-- dir_2e574b6382041dc2a136b1675bed65ad -->
<g id="node3" class="node">
<title>dir_2e574b6382041dc2a136b1675bed65ad</title>
<g id="a_node3"><a xlink:href="dir_2e574b6382041dc2a136b1675bed65ad.html" target="_top" xlink:title="RayLib">
<polygon fill="white" stroke="red" points="135.09,-36 81.09,-36 81.09,0 135.09,0 135.09,-36"/>
<text text-anchor="middle" x="108.09" y="-15.5" font-family="Helvetica,sans-Serif" font-size="10.00">RayLib</text>
</a>
</g>
</g>
<!-- dir_6c4ca536b0ff958154ebda695b1eb8bd&#45;&gt;dir_2e574b6382041dc2a136b1675bed65ad -->
<g id="edge7" class="edge">
<title>dir_6c4ca536b0ff958154ebda695b1eb8bd&#45;&gt;dir_2e574b6382041dc2a136b1675bed65ad</title>
<path fill="none" stroke="black" d="M132.37,-222.47C108.21,-213.88 76.29,-199.89 53.09,-180 23.9,-154.96 16.24,-144.81 5.09,-108 0.46,-92.69 -3.24,-85.66 5.09,-72 19.39,-48.57 47.72,-35.05 71.06,-27.55"/>
<polygon fill="black" stroke="black" points="72.11,-30.88 80.7,-24.68 70.12,-24.17 72.11,-30.88"/>
<g id="a_edge7&#45;headlabel"><a xlink:href="dir_000060_000005.html" target="_top" xlink:title="3">
<text text-anchor="middle" x="69.47" y="-32.13" font-family="Helvetica,sans-Serif" font-size="10.00">3</text>
</a>
</g>
</g>
<!-- dir_a596cbb2d469ff7139a5bd1a3c9de76d -->
<g id="node4" class="node">
<title>dir_a596cbb2d469ff7139a5bd1a3c9de76d</title>
<g id="a_node4"><a xlink:href="dir_a596cbb2d469ff7139a5bd1a3c9de76d.html" target="_top" xlink:title="Animator">
<polygon fill="none" stroke="black" points="198.09,-108 136.09,-108 136.09,-72 198.09,-72 198.09,-108"/>
<text text-anchor="middle" x="167.09" y="-87.5" font-family="Helvetica,sans-Serif" font-size="10.00">Animator</text>
</a>
</g>
</g>
<!-- dir_6c4ca536b0ff958154ebda695b1eb8bd&#45;&gt;dir_a596cbb2d469ff7139a5bd1a3c9de76d -->
<g id="edge8" class="edge">
<title>dir_6c4ca536b0ff958154ebda695b1eb8bd&#45;&gt;dir_a596cbb2d469ff7139a5bd1a3c9de76d</title>
<path fill="none" stroke="black" d="M167.09,-215.87C167.09,-191.67 167.09,-147.21 167.09,-118.39"/>
<polygon fill="black" stroke="black" points="170.59,-118.19 167.09,-108.19 163.59,-118.19 170.59,-118.19"/>
<g id="a_edge8&#45;headlabel"><a xlink:href="dir_000060_000040.html" target="_top" xlink:title="1">
<text text-anchor="middle" x="173.43" y="-119.28" font-family="Helvetica,sans-Serif" font-size="10.00">1</text>
</a>
</g>
</g>
<!-- dir_4a120dbb11348b2823d2a12dcab2f1e3 -->
<g id="node5" class="node">
<title>dir_4a120dbb11348b2823d2a12dcab2f1e3</title>
<g id="a_node5"><a xlink:href="dir_4a120dbb11348b2823d2a12dcab2f1e3.html" target="_top" xlink:title="ECS">
<polygon fill="white" stroke="red" points="286.09,-36 232.09,-36 232.09,0 286.09,0 286.09,-36"/>
<text text-anchor="middle" x="259.09" y="-15.5" font-family="Helvetica,sans-Serif" font-size="10.00">ECS</text>
</a>
</g>
</g>
<!-- dir_6c4ca536b0ff958154ebda695b1eb8bd&#45;&gt;dir_4a120dbb11348b2823d2a12dcab2f1e3 -->
<g id="edge9" class="edge">
<title>dir_6c4ca536b0ff958154ebda695b1eb8bd&#45;&gt;dir_4a120dbb11348b2823d2a12dcab2f1e3</title>
<path fill="none" stroke="black" d="M201.7,-228.63C252.33,-221.45 342.71,-205.36 362.09,-180 372.67,-166.17 370.52,-92.85 357.09,-72 343.2,-50.42 317.38,-36.98 295.73,-29.03"/>
<polygon fill="black" stroke="black" points="296.73,-25.67 286.14,-25.75 294.47,-32.29 296.73,-25.67"/>
<g id="a_edge9&#45;headlabel"><a xlink:href="dir_000060_000002.html" target="_top" xlink:title="1">
<text text-anchor="middle" x="301.05" y="-21.64" font-family="Helvetica,sans-Serif" font-size="10.00">1</text>
</a>
</g>
</g>
<!-- dir_750ba15ba58b6b3310460b01ffa6b161 -->
<g id="node6" class="node">
<title>dir_750ba15ba58b6b3310460b01ffa6b161</title>
<g id="a_node6"><a xlink:href="dir_750ba15ba58b6b3310460b01ffa6b161.html" target="_top" xlink:title="PhysicsBody">
<polygon fill="none" stroke="black" points="332.09,-108 254.09,-108 254.09,-72 332.09,-72 332.09,-108"/>
<text text-anchor="middle" x="293.09" y="-87.5" font-family="Helvetica,sans-Serif" font-size="10.00">PhysicsBody</text>
</a>
</g>
</g>
<!-- dir_6c4ca536b0ff958154ebda695b1eb8bd&#45;&gt;dir_750ba15ba58b6b3310460b01ffa6b161 -->
<g id="edge10" class="edge">
<title>dir_6c4ca536b0ff958154ebda695b1eb8bd&#45;&gt;dir_750ba15ba58b6b3310460b01ffa6b161</title>
<path fill="none" stroke="black" d="M182.29,-215.87C204.43,-190.92 245.67,-144.45 271.11,-115.77"/>
<polygon fill="black" stroke="black" points="273.82,-117.99 277.84,-108.19 268.59,-113.35 273.82,-117.99"/>
<g id="a_edge10&#45;headlabel"><a xlink:href="dir_000060_000062.html" target="_top" xlink:title="1">
<text text-anchor="middle" x="273.56" y="-120.07" font-family="Helvetica,sans-Serif" font-size="10.00">1</text>
</a>
</g>
</g>
<!-- dir_d415c0d599231354676ceb56dc96abfc -->
<g id="node7" class="node">
<title>dir_d415c0d599231354676ceb56dc96abfc</title>
<g id="a_node7"><a xlink:href="dir_d415c0d599231354676ceb56dc96abfc.html" target="_top" xlink:title="IBehaviour">
<polygon fill="none" stroke="black" points="352.59,-180 283.59,-180 283.59,-144 352.59,-144 352.59,-180"/>
<text text-anchor="middle" x="318.09" y="-159.5" font-family="Helvetica,sans-Serif" font-size="10.00">IBehaviour</text>
</a>
</g>
</g>
<!-- dir_6c4ca536b0ff958154ebda695b1eb8bd&#45;&gt;dir_d415c0d599231354676ceb56dc96abfc -->
<g id="edge11" class="edge">
<title>dir_6c4ca536b0ff958154ebda695b1eb8bd&#45;&gt;dir_d415c0d599231354676ceb56dc96abfc</title>
<path fill="none" stroke="black" d="M201.74,-216.94C223.24,-206.97 251.07,-194.07 274.13,-183.38"/>
<polygon fill="black" stroke="black" points="275.75,-186.49 283.35,-179.11 272.81,-180.14 275.75,-186.49"/>
<g id="a_edge11&#45;headlabel"><a xlink:href="dir_000060_000058.html" target="_top" xlink:title="1">
<text text-anchor="middle" x="273.68" y="-188.07" font-family="Helvetica,sans-Serif" font-size="10.00">1</text>
</a>
</g>
</g>
<!-- dir_9c1a1c874c5316598fbf40a566ddc437 -->
<g id="node8" class="node">
<title>dir_9c1a1c874c5316598fbf40a566ddc437</title>
<g id="a_node8"><a xlink:href="dir_9c1a1c874c5316598fbf40a566ddc437.html" target="_top" xlink:title="Transform">
<polygon fill="none" stroke="black" points="79.59,-108 14.59,-108 14.59,-72 79.59,-72 79.59,-108"/>
<text text-anchor="middle" x="47.09" y="-87.5" font-family="Helvetica,sans-Serif" font-size="10.00">Transform</text>
</a>
</g>
</g>
<!-- dir_6c4ca536b0ff958154ebda695b1eb8bd&#45;&gt;dir_9c1a1c874c5316598fbf40a566ddc437 -->
<g id="edge12" class="edge">
<title>dir_6c4ca536b0ff958154ebda695b1eb8bd&#45;&gt;dir_9c1a1c874c5316598fbf40a566ddc437</title>
<path fill="none" stroke="black" d="M132.18,-220.64C112.55,-212.05 89.05,-198.74 74.09,-180 59.97,-162.3 53.21,-137.28 50,-118.28"/>
<polygon fill="black" stroke="black" points="53.43,-117.54 48.52,-108.15 46.5,-118.55 53.43,-117.54"/>
<g id="a_edge12&#45;headlabel"><a xlink:href="dir_000060_000071.html" target="_top" xlink:title="1">
<text text-anchor="middle" x="56.76" y="-118.18" font-family="Helvetica,sans-Serif" font-size="10.00">1</text>
</a>
</g>
</g>
<!-- dir_551d1ed5bb1af47eeab160358667c755&#45;&gt;dir_2e574b6382041dc2a136b1675bed65ad -->
<g id="edge1" class="edge">
<title>dir_551d1ed5bb1af47eeab160358667c755&#45;&gt;dir_2e574b6382041dc2a136b1675bed65ad</title>
<path fill="none" stroke="black" d="M109.85,-143.87C109.51,-119.67 108.89,-75.21 108.48,-46.39"/>
<polygon fill="black" stroke="black" points="111.98,-46.14 108.34,-36.19 104.98,-46.24 111.98,-46.14"/>
<g id="a_edge1&#45;headlabel"><a xlink:href="dir_000046_000005.html" target="_top" xlink:title="3">
<text text-anchor="middle" x="114.87" y="-47.19" font-family="Helvetica,sans-Serif" font-size="10.00">3</text>
</a>
</g>
</g>
<!-- dir_551d1ed5bb1af47eeab160358667c755&#45;&gt;dir_4a120dbb11348b2823d2a12dcab2f1e3 -->
<g id="edge2" class="edge">
<title>dir_551d1ed5bb1af47eeab160358667c755&#45;&gt;dir_4a120dbb11348b2823d2a12dcab2f1e3</title>
<path fill="none" stroke="black" d="M137.3,-150.87C158.28,-142.02 187,-127.53 207.09,-108 225.35,-90.26 239.37,-64.77 248.22,-45.61"/>
<polygon fill="black" stroke="black" points="251.52,-46.8 252.38,-36.24 245.13,-43.96 251.52,-46.8"/>
<g id="a_edge2&#45;headlabel"><a xlink:href="dir_000046_000002.html" target="_top" xlink:title="3">
<text text-anchor="middle" x="252.66" y="-48.74" font-family="Helvetica,sans-Serif" font-size="10.00">3</text>
</a>
</g>
</g>
<!-- dir_551d1ed5bb1af47eeab160358667c755&#45;&gt;dir_9c1a1c874c5316598fbf40a566ddc437 -->
<g id="edge3" class="edge">
<title>dir_551d1ed5bb1af47eeab160358667c755&#45;&gt;dir_9c1a1c874c5316598fbf40a566ddc437</title>
<path fill="none" stroke="black" d="M94.52,-143.7C86.89,-135.22 77.57,-124.86 69.22,-115.58"/>
<polygon fill="black" stroke="black" points="71.78,-113.2 62.49,-108.1 66.58,-117.88 71.78,-113.2"/>
<g id="a_edge3&#45;headlabel"><a xlink:href="dir_000046_000071.html" target="_top" xlink:title="1">
<text text-anchor="middle" x="76.29" y="-111.47" font-family="Helvetica,sans-Serif" font-size="10.00">1</text>
</a>
</g>
</g>
<!-- dir_a596cbb2d469ff7139a5bd1a3c9de76d&#45;&gt;dir_2e574b6382041dc2a136b1675bed65ad -->
<g id="edge4" class="edge">
<title>dir_a596cbb2d469ff7139a5bd1a3c9de76d&#45;&gt;dir_2e574b6382041dc2a136b1675bed65ad</title>
<path fill="none" stroke="black" d="M152.51,-71.7C145.44,-63.3 136.81,-53.07 129.05,-43.86"/>
<polygon fill="black" stroke="black" points="131.63,-41.49 122.51,-36.1 126.28,-46.01 131.63,-41.49"/>
<g id="a_edge4&#45;headlabel"><a xlink:href="dir_000040_000005.html" target="_top" xlink:title="1">
<text text-anchor="middle" x="136.12" y="-39.91" font-family="Helvetica,sans-Serif" font-size="10.00">1</text>
</a>
</g>
</g>
<!-- dir_a596cbb2d469ff7139a5bd1a3c9de76d&#45;&gt;dir_4a120dbb11348b2823d2a12dcab2f1e3 -->
<g id="edge5" class="edge">
<title>dir_a596cbb2d469ff7139a5bd1a3c9de76d&#45;&gt;dir_4a120dbb11348b2823d2a12dcab2f1e3</title>
<path fill="none" stroke="black" d="M189.84,-71.7C201.53,-62.8 215.96,-51.82 228.6,-42.2"/>
<polygon fill="black" stroke="black" points="230.78,-44.94 236.61,-36.1 226.54,-39.37 230.78,-44.94"/>
<g id="a_edge5&#45;headlabel"><a xlink:href="dir_000040_000002.html" target="_top" xlink:title="2">
<text text-anchor="middle" x="229.63" y="-46.88" font-family="Helvetica,sans-Serif" font-size="10.00">2</text>
</a>
</g>
</g>
<!-- dir_750ba15ba58b6b3310460b01ffa6b161&#45;&gt;dir_2e574b6382041dc2a136b1675bed65ad -->
<g id="edge13" class="edge">
<title>dir_750ba15ba58b6b3310460b01ffa6b161&#45;&gt;dir_2e574b6382041dc2a136b1675bed65ad</title>
<path fill="none" stroke="black" d="M253.86,-74.15C221.7,-61.99 176.52,-44.89 145.01,-32.97"/>
<polygon fill="black" stroke="black" points="145.88,-29.56 135.29,-29.29 143.41,-36.1 145.88,-29.56"/>
<g id="a_edge13&#45;headlabel"><a xlink:href="dir_000062_000005.html" target="_top" xlink:title="1">
<text text-anchor="middle" x="150.25" y="-25.67" font-family="Helvetica,sans-Serif" font-size="10.00">1</text>
</a>
</g>
</g>
<!-- dir_750ba15ba58b6b3310460b01ffa6b161&#45;&gt;dir_4a120dbb11348b2823d2a12dcab2f1e3 -->
<g id="edge14" class="edge">
<title>dir_750ba15ba58b6b3310460b01ffa6b161&#45;&gt;dir_4a120dbb11348b2823d2a12dcab2f1e3</title>
<path fill="none" stroke="black" d="M284.69,-71.7C280.82,-63.73 276.14,-54.1 271.85,-45.26"/>
<polygon fill="black" stroke="black" points="274.92,-43.57 267.4,-36.1 268.62,-46.63 274.92,-43.57"/>
<g id="a_edge14&#45;headlabel"><a xlink:href="dir_000062_000002.html" target="_top" xlink:title="1">
<text text-anchor="middle" x="279.04" y="-43.06" font-family="Helvetica,sans-Serif" font-size="10.00">1</text>
</a>
</g>
</g>
<!-- dir_d415c0d599231354676ceb56dc96abfc&#45;&gt;dir_4a120dbb11348b2823d2a12dcab2f1e3 -->
<g id="edge15" class="edge">
<title>dir_d415c0d599231354676ceb56dc96abfc&#45;&gt;dir_4a120dbb11348b2823d2a12dcab2f1e3</title>
<path fill="none" stroke="black" d="M329.72,-143.68C340.65,-125.05 353.61,-94.99 341.09,-72 331.32,-54.04 312.54,-41.23 295.42,-32.72"/>
<polygon fill="black" stroke="black" points="296.69,-29.45 286.15,-28.42 293.75,-35.8 296.69,-29.45"/>
<g id="a_edge15&#45;headlabel"><a xlink:href="dir_000058_000002.html" target="_top" xlink:title="2">
<text text-anchor="middle" x="301.15" y="-25.88" font-family="Helvetica,sans-Serif" font-size="10.00">2</text>
</a>
</g>
</g>
<!-- dir_9c1a1c874c5316598fbf40a566ddc437&#45;&gt;dir_2e574b6382041dc2a136b1675bed65ad -->
<g id="edge16" class="edge">
<title>dir_9c1a1c874c5316598fbf40a566ddc437&#45;&gt;dir_2e574b6382041dc2a136b1675bed65ad</title>
<path fill="none" stroke="black" d="M62.17,-71.7C69.49,-63.3 78.4,-53.07 86.43,-43.86"/>
<polygon fill="black" stroke="black" points="89.26,-45.94 93.19,-36.1 83.98,-41.34 89.26,-45.94"/>
<g id="a_edge16&#45;headlabel"><a xlink:href="dir_000071_000005.html" target="_top" xlink:title="1">
<text text-anchor="middle" x="89.04" y="-48.02" font-family="Helvetica,sans-Serif" font-size="10.00">1</text>
</a>
</g>
</g>
<!-- dir_9c1a1c874c5316598fbf40a566ddc437&#45;&gt;dir_4a120dbb11348b2823d2a12dcab2f1e3 -->
<g id="edge17" class="edge">
<title>dir_9c1a1c874c5316598fbf40a566ddc437&#45;&gt;dir_4a120dbb11348b2823d2a12dcab2f1e3</title>
<path fill="none" stroke="black" d="M79.75,-78.22C118.19,-65.52 181.87,-44.5 222.1,-31.22"/>
<polygon fill="black" stroke="black" points="223.39,-34.47 231.79,-28.01 221.2,-27.83 223.39,-34.47"/>
<g id="a_edge17&#45;headlabel"><a xlink:href="dir_000071_000002.html" target="_top" xlink:title="1">
<text text-anchor="middle" x="220.87" y="-35.8" font-family="Helvetica,sans-Serif" font-size="10.00">1</text>
</a>
</g>
</g>
</g>
</svg>
