<?xml version="1.0" encoding="UTF-8" standalone="no"?>
<!DOCTYPE svg PUBLIC "-//W3C//DTD SVG 1.1//EN"
 "http://www.w3.org/Graphics/SVG/1.1/DTD/svg11.dtd">
<!-- Generated by graphviz version 2.43.0 (0)
 -->
<!-- Title: Libs/Engine/sources/Components/HUD Pages: 1 -->
<svg width="416pt" height="159pt"
 viewBox="0.00 0.00 416.00 159.00" xmlns="http://www.w3.org/2000/svg" xmlns:xlink="http://www.w3.org/1999/xlink">
<g id="graph0" class="graph" transform="scale(1 1) rotate(0) translate(4 155)">
<title>Libs/Engine/sources/Components/HUD</title>
<polygon fill="white" stroke="transparent" points="-4,4 -4,-155 412,-155 412,4 -4,4"/>
<g id="clust1" class="cluster">
<title>clusterdir_e1b125331ccfd7597fbda9d04ae41b2d</title>
<g id="a_clust1"><a xlink:href="dir_e1b125331ccfd7597fbda9d04ae41b2d.html" target="_top" xlink:title="Components">
<polygon fill="#ddddee" stroke="black" points="8,-56 8,-143 383,-143 383,-56 8,-56"/>
<text text-anchor="middle" x="195.5" y="-131" font-family="Helvetica,sans-Serif" font-size="10.00">Components</text>
</a>
</g>
</g>
<g id="clust2" class="cluster">
<title>clusterdir_9a67015509ad4c2cbcb9f79c4e19af26</title>
<g id="a_clust2"><a xlink:href="dir_9a67015509ad4c2cbcb9f79c4e19af26.html" target="_top">
<polygon fill="#eeeeff" stroke="black" points="16,-64 16,-116 375,-116 375,-64 16,-64"/>
</a>
</g>
</g>
<!-- dir_9a67015509ad4c2cbcb9f79c4e19af26 -->
<g id="node1" class="node">
<title>dir_9a67015509ad4c2cbcb9f79c4e19af26</title>
<text text-anchor="middle" x="340" y="-87.5" font-family="Helvetica,sans-Serif" font-size="10.00">HUD</text>
</g>
<!-- dir_6651b4ac6e617e944283cd6ed9b4c080 -->
<g id="node5" class="node">
<title>dir_6651b4ac6e617e944283cd6ed9b4c080</title>
<g id="a_node5"><a xlink:href="dir_6651b4ac6e617e944283cd6ed9b4c080.html" target="_top" xlink:title="AController">
<polygon fill="none" stroke="black" points="335.5,-36 264.5,-36 264.5,0 335.5,0 335.5,-36"/>
<text text-anchor="middle" x="300" y="-15.5" font-family="Helvetica,sans-Serif" font-size="10.00">AController</text>
</a>
</g>
</g>
<!-- dir_9a67015509ad4c2cbcb9f79c4e19af26&#45;&gt;dir_6651b4ac6e617e944283cd6ed9b4c080 -->
<g id="edge1" class="edge">
<title>dir_9a67015509ad4c2cbcb9f79c4e19af26&#45;&gt;dir_6651b4ac6e617e944283cd6ed9b4c080</title>
<path fill="none" stroke="black" d="M330.11,-71.7C325.51,-63.64 319.94,-53.89 314.85,-44.98"/>
<polygon fill="black" stroke="black" points="317.77,-43.05 309.77,-36.1 311.7,-46.52 317.77,-43.05"/>
<g id="a_edge1&#45;headlabel"><a xlink:href="dir_000054_000038.html" target="_top" xlink:title="1">
<text text-anchor="middle" x="322.02" y="-42.26" font-family="Helvetica,sans-Serif" font-size="10.00">1</text>
</a>
</g>
</g>
<!-- dir_4a120dbb11348b2823d2a12dcab2f1e3 -->
<g id="node6" class="node">
<title>dir_4a120dbb11348b2823d2a12dcab2f1e3</title>
<g id="a_node6"><a xlink:href="dir_4a120dbb11348b2823d2a12dcab2f1e3.html" target="_top" xlink:title="ECS">
<polygon fill="white" stroke="red" points="408,-36 354,-36 354,0 408,0 408,-36"/>
<text text-anchor="middle" x="381" y="-15.5" font-family="Helvetica,sans-Serif" font-size="10.00">ECS</text>
</a>
</g>
</g>
<!-- dir_9a67015509ad4c2cbcb9f79c4e19af26&#45;&gt;dir_4a120dbb11348b2823d2a12dcab2f1e3 -->
<g id="edge2" class="edge">
<title>dir_9a67015509ad4c2cbcb9f79c4e19af26&#45;&gt;dir_4a120dbb11348b2823d2a12dcab2f1e3</title>
<path fill="none" stroke="black" d="M350.13,-71.7C354.85,-63.64 360.56,-53.89 365.78,-44.98"/>
<polygon fill="black" stroke="black" points="368.95,-46.5 370.98,-36.1 362.91,-42.96 368.95,-46.5"/>
<g id="a_edge2&#45;headlabel"><a xlink:href="dir_000054_000002.html" target="_top" xlink:title="2">
<text text-anchor="middle" x="369.58" y="-48.54" font-family="Helvetica,sans-Serif" font-size="10.00">2</text>
</a>
</g>
</g>
<!-- dir_f74339ab3e87b811ba03a099615d25d2 -->
<g id="node2" class="node">
<title>dir_f74339ab3e87b811ba03a099615d25d2</title>
<g id="a_node2"><a xlink:href="dir_f74339ab3e87b811ba03a099615d25d2.html" target="_top" xlink:title="HUDBonusBar">
<polygon fill="white" stroke="black" points="295,-108 209,-108 209,-72 295,-72 295,-108"/>
<text text-anchor="middle" x="252" y="-87.5" font-family="Helvetica,sans-Serif" font-size="10.00">HUDBonusBar</text>
</a>
</g>
</g>
<!-- dir_facc0f772ea2fb38f896f4b7a1e0eb12 -->
<g id="node3" class="node">
<title>dir_facc0f772ea2fb38f896f4b7a1e0eb12</title>
<g id="a_node3"><a xlink:href="dir_facc0f772ea2fb38f896f4b7a1e0eb12.html" target="_top" xlink:title="HUDBonusIcon">
<polygon fill="white" stroke="black" points="190.5,-108 101.5,-108 101.5,-72 190.5,-72 190.5,-108"/>
<text text-anchor="middle" x="146" y="-87.5" font-family="Helvetica,sans-Serif" font-size="10.00">HUDBonusIcon</text>
</a>
</g>
</g>
<!-- dir_c6ea7d22b8c19de684872adbae1352d7 -->
<g id="node4" class="node">
<title>dir_c6ea7d22b8c19de684872adbae1352d7</title>
<g id="a_node4"><a xlink:href="dir_c6ea7d22b8c19de684872adbae1352d7.html" target="_top" xlink:title="HUDText">
<polygon fill="white" stroke="black" points="83.5,-108 24.5,-108 24.5,-72 83.5,-72 83.5,-108"/>
<text text-anchor="middle" x="54" y="-87.5" font-family="Helvetica,sans-Serif" font-size="10.00">HUDText</text>
</a>
</g>
</g>
</g>
</svg>
