<?xml version="1.0" encoding="UTF-8" standalone="no"?>
<!DOCTYPE svg PUBLIC "-//W3C//DTD SVG 1.1//EN"
 "http://www.w3.org/Graphics/SVG/1.1/DTD/svg11.dtd">
<!-- Generated by graphviz version 2.43.0 (0)
 -->
<!-- Title: Libs/Engine/sources/Components/Draggable Pages: 1 -->
<svg width="358pt" height="295pt"
 viewBox="0.00 0.00 357.55 295.00" xmlns="http://www.w3.org/2000/svg" xmlns:xlink="http://www.w3.org/1999/xlink">
<g id="graph0" class="graph" transform="scale(1 1) rotate(0) translate(4 291)">
<title>Libs/Engine/sources/Components/Draggable</title>
<polygon fill="white" stroke="transparent" points="-4,4 -4,-291 353.55,-291 353.55,4 -4,4"/>
<g id="clust1" class="cluster">
<title>clusterdir_e1b125331ccfd7597fbda9d04ae41b2d</title>
<g id="a_clust1"><a xlink:href="dir_e1b125331ccfd7597fbda9d04ae41b2d.html" target="_top" xlink:title="Components">
<polygon fill="#ddddee" stroke="black" points="114.05,-208 114.05,-279 198.05,-279 198.05,-208 114.05,-208"/>
<text text-anchor="middle" x="156.05" y="-267" font-family="Helvetica,sans-Serif" font-size="10.00">Components</text>
</a>
</g>
</g>
<!-- dir_1263645f47f5f77656cc75595da2cfd3 -->
<g id="node1" class="node">
<title>dir_1263645f47f5f77656cc75595da2cfd3</title>
<g id="a_node1"><a xlink:href="dir_1263645f47f5f77656cc75595da2cfd3.html" target="_top" xlink:title="Draggable">
<polygon fill="#eeeeff" stroke="black" points="189.55,-252 122.55,-252 122.55,-216 189.55,-216 189.55,-252"/>
<text text-anchor="middle" x="156.05" y="-231.5" font-family="Helvetica,sans-Serif" font-size="10.00">Draggable</text>
</a>
</g>
</g>
<!-- dir_551d1ed5bb1af47eeab160358667c755 -->
<g id="node2" class="node">
<title>dir_551d1ed5bb1af47eeab160358667c755</title>
<g id="a_node2"><a xlink:href="dir_551d1ed5bb1af47eeab160358667c755.html" target="_top" xlink:title="Collider">
<polygon fill="none" stroke="black" points="88.05,-180 34.05,-180 34.05,-144 88.05,-144 88.05,-180"/>
<text text-anchor="middle" x="61.05" y="-159.5" font-family="Helvetica,sans-Serif" font-size="10.00">Collider</text>
</a>
</g>
</g>
<!-- dir_1263645f47f5f77656cc75595da2cfd3&#45;&gt;dir_551d1ed5bb1af47eeab160358667c755 -->
<g id="edge1" class="edge">
<title>dir_1263645f47f5f77656cc75595da2cfd3&#45;&gt;dir_551d1ed5bb1af47eeab160358667c755</title>
<path fill="none" stroke="black" d="M132.56,-215.7C120.49,-206.8 105.59,-195.82 92.53,-186.2"/>
<polygon fill="black" stroke="black" points="94.39,-183.22 84.26,-180.1 90.24,-188.85 94.39,-183.22"/>
<g id="a_edge1&#45;headlabel"><a xlink:href="dir_000049_000046.html" target="_top" xlink:title="1">
<text text-anchor="middle" x="98.97" y="-180.57" font-family="Helvetica,sans-Serif" font-size="10.00">1</text>
</a>
</g>
</g>
<!-- dir_2e574b6382041dc2a136b1675bed65ad -->
<g id="node3" class="node">
<title>dir_2e574b6382041dc2a136b1675bed65ad</title>
<g id="a_node3"><a xlink:href="dir_2e574b6382041dc2a136b1675bed65ad.html" target="_top" xlink:title="RayLib">
<polygon fill="white" stroke="red" points="54.05,-36 0.05,-36 0.05,0 54.05,0 54.05,-36"/>
<text text-anchor="middle" x="27.05" y="-15.5" font-family="Helvetica,sans-Serif" font-size="10.00">RayLib</text>
</a>
</g>
</g>
<!-- dir_1263645f47f5f77656cc75595da2cfd3&#45;&gt;dir_2e574b6382041dc2a136b1675bed65ad -->
<g id="edge2" class="edge">
<title>dir_1263645f47f5f77656cc75595da2cfd3&#45;&gt;dir_2e574b6382041dc2a136b1675bed65ad</title>
<path fill="none" stroke="black" d="M122.33,-228.1C92.48,-221.99 49.92,-208.61 25.05,-180 -6.88,-143.28 -1.68,-119.87 7.05,-72 8.65,-63.2 11.65,-53.95 14.83,-45.7"/>
<polygon fill="black" stroke="black" points="18.17,-46.79 18.74,-36.21 11.7,-44.12 18.17,-46.79"/>
<g id="a_edge2&#45;headlabel"><a xlink:href="dir_000049_000005.html" target="_top" xlink:title="3">
<text text-anchor="middle" x="19.42" y="-48.7" font-family="Helvetica,sans-Serif" font-size="10.00">3</text>
</a>
</g>
</g>
<!-- dir_4a120dbb11348b2823d2a12dcab2f1e3 -->
<g id="node4" class="node">
<title>dir_4a120dbb11348b2823d2a12dcab2f1e3</title>
<g id="a_node4"><a xlink:href="dir_4a120dbb11348b2823d2a12dcab2f1e3.html" target="_top" xlink:title="ECS">
<polygon fill="white" stroke="red" points="212.05,-36 158.05,-36 158.05,0 212.05,0 212.05,-36"/>
<text text-anchor="middle" x="185.05" y="-15.5" font-family="Helvetica,sans-Serif" font-size="10.00">ECS</text>
</a>
</g>
</g>
<!-- dir_1263645f47f5f77656cc75595da2cfd3&#45;&gt;dir_4a120dbb11348b2823d2a12dcab2f1e3 -->
<g id="edge3" class="edge">
<title>dir_1263645f47f5f77656cc75595da2cfd3&#45;&gt;dir_4a120dbb11348b2823d2a12dcab2f1e3</title>
<path fill="none" stroke="black" d="M170.97,-215.88C189.73,-193.08 220.96,-150.67 233.05,-108 237.41,-92.61 238.8,-86.93 233.05,-72 228.95,-61.36 221.6,-51.53 213.88,-43.3"/>
<polygon fill="black" stroke="black" points="216.32,-40.78 206.76,-36.21 211.38,-45.75 216.32,-40.78"/>
<g id="a_edge3&#45;headlabel"><a xlink:href="dir_000049_000002.html" target="_top" xlink:title="1">
<text text-anchor="middle" x="220.87" y="-38.81" font-family="Helvetica,sans-Serif" font-size="10.00">1</text>
</a>
</g>
</g>
<!-- dir_750ba15ba58b6b3310460b01ffa6b161 -->
<g id="node5" class="node">
<title>dir_750ba15ba58b6b3310460b01ffa6b161</title>
<g id="a_node5"><a xlink:href="dir_750ba15ba58b6b3310460b01ffa6b161.html" target="_top" xlink:title="PhysicsBody">
<polygon fill="none" stroke="black" points="224.05,-108 146.05,-108 146.05,-72 224.05,-72 224.05,-108"/>
<text text-anchor="middle" x="185.05" y="-87.5" font-family="Helvetica,sans-Serif" font-size="10.00">PhysicsBody</text>
</a>
</g>
</g>
<!-- dir_1263645f47f5f77656cc75595da2cfd3&#45;&gt;dir_750ba15ba58b6b3310460b01ffa6b161 -->
<g id="edge4" class="edge">
<title>dir_1263645f47f5f77656cc75595da2cfd3&#45;&gt;dir_750ba15ba58b6b3310460b01ffa6b161</title>
<path fill="none" stroke="black" d="M159.55,-215.87C164.51,-191.56 173.65,-146.82 179.53,-118.01"/>
<polygon fill="black" stroke="black" points="182.97,-118.69 181.54,-108.19 176.11,-117.29 182.97,-118.69"/>
<g id="a_edge4&#45;headlabel"><a xlink:href="dir_000049_000062.html" target="_top" xlink:title="1">
<text text-anchor="middle" x="185.03" y="-120.28" font-family="Helvetica,sans-Serif" font-size="10.00">1</text>
</a>
</g>
</g>
<!-- dir_d415c0d599231354676ceb56dc96abfc -->
<g id="node6" class="node">
<title>dir_d415c0d599231354676ceb56dc96abfc</title>
<g id="a_node6"><a xlink:href="dir_d415c0d599231354676ceb56dc96abfc.html" target="_top" xlink:title="IBehaviour">
<polygon fill="none" stroke="black" points="349.55,-180 280.55,-180 280.55,-144 349.55,-144 349.55,-180"/>
<text text-anchor="middle" x="315.05" y="-159.5" font-family="Helvetica,sans-Serif" font-size="10.00">IBehaviour</text>
</a>
</g>
</g>
<!-- dir_1263645f47f5f77656cc75595da2cfd3&#45;&gt;dir_d415c0d599231354676ceb56dc96abfc -->
<g id="edge5" class="edge">
<title>dir_1263645f47f5f77656cc75595da2cfd3&#45;&gt;dir_d415c0d599231354676ceb56dc96abfc</title>
<path fill="none" stroke="black" d="M189.77,-218.15C213.47,-207.72 245.42,-193.65 271.12,-182.34"/>
<polygon fill="black" stroke="black" points="272.54,-185.54 280.28,-178.31 269.71,-179.13 272.54,-185.54"/>
<g id="a_edge5&#45;headlabel"><a xlink:href="dir_000049_000058.html" target="_top" xlink:title="1">
<text text-anchor="middle" x="270.39" y="-187.09" font-family="Helvetica,sans-Serif" font-size="10.00">1</text>
</a>
</g>
</g>
<!-- dir_9c1a1c874c5316598fbf40a566ddc437 -->
<g id="node7" class="node">
<title>dir_9c1a1c874c5316598fbf40a566ddc437</title>
<g id="a_node7"><a xlink:href="dir_9c1a1c874c5316598fbf40a566ddc437.html" target="_top" xlink:title="Transform">
<polygon fill="none" stroke="black" points="89.55,-108 24.55,-108 24.55,-72 89.55,-72 89.55,-108"/>
<text text-anchor="middle" x="57.05" y="-87.5" font-family="Helvetica,sans-Serif" font-size="10.00">Transform</text>
</a>
</g>
</g>
<!-- dir_1263645f47f5f77656cc75595da2cfd3&#45;&gt;dir_9c1a1c874c5316598fbf40a566ddc437 -->
<g id="edge6" class="edge">
<title>dir_1263645f47f5f77656cc75595da2cfd3&#45;&gt;dir_9c1a1c874c5316598fbf40a566ddc437</title>
<path fill="none" stroke="black" d="M145.04,-215.73C133.42,-197.64 114.4,-168.51 97.05,-144 90.65,-134.97 83.43,-125.26 76.9,-116.65"/>
<polygon fill="black" stroke="black" points="79.5,-114.29 70.65,-108.47 73.94,-118.54 79.5,-114.29"/>
<g id="a_edge6&#45;headlabel"><a xlink:href="dir_000049_000071.html" target="_top" xlink:title="1">
<text text-anchor="middle" x="83.94" y="-112.92" font-family="Helvetica,sans-Serif" font-size="10.00">1</text>
</a>
</g>
</g>
<!-- dir_551d1ed5bb1af47eeab160358667c755&#45;&gt;dir_2e574b6382041dc2a136b1675bed65ad -->
<g id="edge7" class="edge">
<title>dir_551d1ed5bb1af47eeab160358667c755&#45;&gt;dir_2e574b6382041dc2a136b1675bed65ad</title>
<path fill="none" stroke="black" d="M40.22,-143.62C30.59,-134.2 20.16,-121.7 15.05,-108 7.58,-88.01 11.53,-63.94 16.82,-45.88"/>
<polygon fill="black" stroke="black" points="20.18,-46.87 19.93,-36.28 13.52,-44.72 20.18,-46.87"/>
<g id="a_edge7&#45;headlabel"><a xlink:href="dir_000046_000005.html" target="_top" xlink:title="3">
<text text-anchor="middle" x="21.78" y="-48.66" font-family="Helvetica,sans-Serif" font-size="10.00">3</text>
</a>
</g>
</g>
<!-- dir_551d1ed5bb1af47eeab160358667c755&#45;&gt;dir_4a120dbb11348b2823d2a12dcab2f1e3 -->
<g id="edge8" class="edge">
<title>dir_551d1ed5bb1af47eeab160358667c755&#45;&gt;dir_4a120dbb11348b2823d2a12dcab2f1e3</title>
<path fill="none" stroke="black" d="M75.47,-143.81C90.65,-125.79 115.31,-96.72 137.05,-72 145.29,-62.63 154.46,-52.44 162.56,-43.53"/>
<polygon fill="black" stroke="black" points="165.21,-45.82 169.36,-36.07 160.03,-41.11 165.21,-45.82"/>
<g id="a_edge8&#45;headlabel"><a xlink:href="dir_000046_000002.html" target="_top" xlink:title="3">
<text text-anchor="middle" x="164.89" y="-47.89" font-family="Helvetica,sans-Serif" font-size="10.00">3</text>
</a>
</g>
</g>
<!-- dir_551d1ed5bb1af47eeab160358667c755&#45;&gt;dir_9c1a1c874c5316598fbf40a566ddc437 -->
<g id="edge9" class="edge">
<title>dir_551d1ed5bb1af47eeab160358667c755&#45;&gt;dir_9c1a1c874c5316598fbf40a566ddc437</title>
<path fill="none" stroke="black" d="M60.06,-143.7C59.62,-135.98 59.09,-126.71 58.6,-118.11"/>
<polygon fill="black" stroke="black" points="62.09,-117.89 58.03,-108.1 55.1,-118.29 62.09,-117.89"/>
<g id="a_edge9&#45;headlabel"><a xlink:href="dir_000046_000071.html" target="_top" xlink:title="1">
<text text-anchor="middle" x="65.13" y="-118.82" font-family="Helvetica,sans-Serif" font-size="10.00">1</text>
</a>
</g>
</g>
<!-- dir_750ba15ba58b6b3310460b01ffa6b161&#45;&gt;dir_2e574b6382041dc2a136b1675bed65ad -->
<g id="edge10" class="edge">
<title>dir_750ba15ba58b6b3310460b01ffa6b161&#45;&gt;dir_2e574b6382041dc2a136b1675bed65ad</title>
<path fill="none" stroke="black" d="M146.4,-71.88C121.23,-60.73 88.6,-46.27 63.82,-35.29"/>
<polygon fill="black" stroke="black" points="64.97,-31.97 54.41,-31.12 62.13,-38.37 64.97,-31.97"/>
<g id="a_edge10&#45;headlabel"><a xlink:href="dir_000062_000005.html" target="_top" xlink:title="1">
<text text-anchor="middle" x="69.4" y="-28.33" font-family="Helvetica,sans-Serif" font-size="10.00">1</text>
</a>
</g>
</g>
<!-- dir_750ba15ba58b6b3310460b01ffa6b161&#45;&gt;dir_4a120dbb11348b2823d2a12dcab2f1e3 -->
<g id="edge11" class="edge">
<title>dir_750ba15ba58b6b3310460b01ffa6b161&#45;&gt;dir_4a120dbb11348b2823d2a12dcab2f1e3</title>
<path fill="none" stroke="black" d="M185.05,-71.7C185.05,-63.98 185.05,-54.71 185.05,-46.11"/>
<polygon fill="black" stroke="black" points="188.55,-46.1 185.05,-36.1 181.55,-46.1 188.55,-46.1"/>
<g id="a_edge11&#45;headlabel"><a xlink:href="dir_000062_000002.html" target="_top" xlink:title="1">
<text text-anchor="middle" x="191.39" y="-47.2" font-family="Helvetica,sans-Serif" font-size="10.00">1</text>
</a>
</g>
</g>
<!-- dir_d415c0d599231354676ceb56dc96abfc&#45;&gt;dir_4a120dbb11348b2823d2a12dcab2f1e3 -->
<g id="edge12" class="edge">
<title>dir_d415c0d599231354676ceb56dc96abfc&#45;&gt;dir_4a120dbb11348b2823d2a12dcab2f1e3</title>
<path fill="none" stroke="black" d="M308.52,-143.7C300.64,-124.52 285.95,-93.48 266.05,-72 253.37,-58.32 236.47,-46.54 221.38,-37.59"/>
<polygon fill="black" stroke="black" points="222.69,-34.31 212.27,-32.38 219.22,-40.38 222.69,-34.31"/>
<g id="a_edge12&#45;headlabel"><a xlink:href="dir_000058_000002.html" target="_top" xlink:title="2">
<text text-anchor="middle" x="227.22" y="-31.12" font-family="Helvetica,sans-Serif" font-size="10.00">2</text>
</a>
</g>
</g>
<!-- dir_9c1a1c874c5316598fbf40a566ddc437&#45;&gt;dir_2e574b6382041dc2a136b1675bed65ad -->
<g id="edge13" class="edge">
<title>dir_9c1a1c874c5316598fbf40a566ddc437&#45;&gt;dir_2e574b6382041dc2a136b1675bed65ad</title>
<path fill="none" stroke="black" d="M49.63,-71.7C46.25,-63.81 42.18,-54.3 38.42,-45.55"/>
<polygon fill="black" stroke="black" points="41.53,-43.92 34.38,-36.1 35.1,-46.67 41.53,-43.92"/>
<g id="a_edge13&#45;headlabel"><a xlink:href="dir_000071_000005.html" target="_top" xlink:title="1">
<text text-anchor="middle" x="45.56" y="-43.6" font-family="Helvetica,sans-Serif" font-size="10.00">1</text>
</a>
</g>
</g>
<!-- dir_9c1a1c874c5316598fbf40a566ddc437&#45;&gt;dir_4a120dbb11348b2823d2a12dcab2f1e3 -->
<g id="edge14" class="edge">
<title>dir_9c1a1c874c5316598fbf40a566ddc437&#45;&gt;dir_4a120dbb11348b2823d2a12dcab2f1e3</title>
<path fill="none" stroke="black" d="M88.36,-71.88C106.68,-61.86 129.88,-49.17 148.96,-38.73"/>
<polygon fill="black" stroke="black" points="150.87,-41.68 157.96,-33.81 147.51,-35.54 150.87,-41.68"/>
<g id="a_edge14&#45;headlabel"><a xlink:href="dir_000071_000002.html" target="_top" xlink:title="1">
<text text-anchor="middle" x="149.08" y="-43.4" font-family="Helvetica,sans-Serif" font-size="10.00">1</text>
</a>
</g>
</g>
</g>
</svg>
