<?xml version="1.0" encoding="UTF-8" standalone="no"?>
<!DOCTYPE svg PUBLIC "-//W3C//DTD SVG 1.1//EN"
 "http://www.w3.org/Graphics/SVG/1.1/DTD/svg11.dtd">
<!-- Generated by graphviz version 2.43.0 (0)
 -->
<!-- Title: Prototype Pages: 1 -->
<svg width="176pt" height="132pt"
 viewBox="0.00 0.00 176.00 132.00" xmlns="http://www.w3.org/2000/svg" xmlns:xlink="http://www.w3.org/1999/xlink">
<g id="graph0" class="graph" transform="scale(1 1) rotate(0) translate(4 128)">
<title>Prototype</title>
<polygon fill="white" stroke="transparent" points="-4,4 -4,-128 172,-128 172,4 -4,4"/>
<g id="clust1" class="cluster">
<title>clusterdir_62c63055a38ab7e668282ea4bc5e160c</title>
<g id="a_clust1"><a xlink:href="dir_62c63055a38ab7e668282ea4bc5e160c.html" target="_top">
<polygon fill="#eeeeff" stroke="black" points="8,-64 8,-116 160,-116 160,-64 8,-64"/>
</a>
</g>
</g>
<!-- dir_62c63055a38ab7e668282ea4bc5e160c -->
<g id="node1" class="node">
<title>dir_62c63055a38ab7e668282ea4bc5e160c</title>
<text text-anchor="middle" x="120" y="-87.5" font-family="Helvetica,sans-Serif" font-size="10.00">Prototype</text>
</g>
<!-- dir_133e6c552ddd196868d89f65ecca19a3 -->
<g id="node2" class="node">
<title>dir_133e6c552ddd196868d89f65ecca19a3</title>
<g id="a_node2"><a xlink:href="dir_133e6c552ddd196868d89f65ecca19a3.html" target="_top" xlink:title="sources">
<polygon fill="white" stroke="red" points="70,-108 16,-108 16,-72 70,-72 70,-108"/>
<text text-anchor="middle" x="43" y="-87.5" font-family="Helvetica,sans-Serif" font-size="10.00">sources</text>
</a>
</g>
</g>
<!-- dir_6e6cb9563333489fde7459b1f95e59a5 -->
<g id="node3" class="node">
<title>dir_6e6cb9563333489fde7459b1f95e59a5</title>
<g id="a_node3"><a xlink:href="dir_6e6cb9563333489fde7459b1f95e59a5.html" target="_top" xlink:title="Libs">
<polygon fill="white" stroke="red" points="70,-36 16,-36 16,0 70,0 70,-36"/>
<text text-anchor="middle" x="43" y="-15.5" font-family="Helvetica,sans-Serif" font-size="10.00">Libs</text>
</a>
</g>
</g>
<!-- dir_133e6c552ddd196868d89f65ecca19a3&#45;&gt;dir_6e6cb9563333489fde7459b1f95e59a5 -->
<g id="edge1" class="edge">
<title>dir_133e6c552ddd196868d89f65ecca19a3&#45;&gt;dir_6e6cb9563333489fde7459b1f95e59a5</title>
<path fill="none" stroke="black" d="M43,-71.7C43,-63.98 43,-54.71 43,-46.11"/>
<polygon fill="black" stroke="black" points="46.5,-46.1 43,-36.1 39.5,-46.1 46.5,-46.1"/>
<g id="a_edge1&#45;headlabel"><a xlink:href="dir_000010_000001.html" target="_top" xlink:title="95">
<text text-anchor="middle" x="49.34" y="-47.2" font-family="Helvetica,sans-Serif" font-size="10.00">95</text>
</a>
</g>
</g>
</g>
</svg>
