<?xml version="1.0" encoding="UTF-8" standalone="no"?>
<!DOCTYPE svg PUBLIC "-//W3C//DTD SVG 1.1//EN"
 "http://www.w3.org/Graphics/SVG/1.1/DTD/svg11.dtd">
<!-- Generated by graphviz version 2.43.0 (0)
 -->
<!-- Title: Libs/ECS/sources/Coordinator Pages: 1 -->
<svg width="114pt" height="151pt"
 viewBox="0.00 0.00 114.00 151.00" xmlns="http://www.w3.org/2000/svg" xmlns:xlink="http://www.w3.org/1999/xlink">
<g id="graph0" class="graph" transform="scale(1 1) rotate(0) translate(4 147)">
<title>Libs/ECS/sources/Coordinator</title>
<polygon fill="white" stroke="transparent" points="-4,4 -4,-147 110,-147 110,4 -4,4"/>
<g id="clust1" class="cluster">
<title>clusterdir_01f7e9a8ddc73edbc1248d272f2c3911</title>
<g id="a_clust1"><a xlink:href="dir_01f7e9a8ddc73edbc1248d272f2c3911.html" target="_top" xlink:title="sources">
<polygon fill="#ddddee" stroke="black" points="8,-64 8,-135 98,-135 98,-64 8,-64"/>
<text text-anchor="middle" x="53" y="-123" font-family="Helvetica,sans-Serif" font-size="10.00">sources</text>
</a>
</g>
</g>
<!-- dir_b2d87e50e2769190575ca72568f801de -->
<g id="node1" class="node">
<title>dir_b2d87e50e2769190575ca72568f801de</title>
<g id="a_node1"><a xlink:href="dir_b2d87e50e2769190575ca72568f801de.html" target="_top" xlink:title="Coordinator">
<polygon fill="#eeeeff" stroke="black" points="90,-108 16,-108 16,-72 90,-72 90,-108"/>
<text text-anchor="middle" x="53" y="-87.5" font-family="Helvetica,sans-Serif" font-size="10.00">Coordinator</text>
</a>
</g>
</g>
<!-- dir_aed85c5ce4b6a9c7e4c648d53dc0ffb7 -->
<g id="node2" class="node">
<title>dir_aed85c5ce4b6a9c7e4c648d53dc0ffb7</title>
<g id="a_node2"><a xlink:href="dir_aed85c5ce4b6a9c7e4c648d53dc0ffb7.html" target="_top" xlink:title="Managers">
<polygon fill="white" stroke="red" points="85.5,-36 20.5,-36 20.5,0 85.5,0 85.5,-36"/>
<text text-anchor="middle" x="53" y="-15.5" font-family="Helvetica,sans-Serif" font-size="10.00">Managers</text>
</a>
</g>
</g>
<!-- dir_b2d87e50e2769190575ca72568f801de&#45;&gt;dir_aed85c5ce4b6a9c7e4c648d53dc0ffb7 -->
<g id="edge1" class="edge">
<title>dir_b2d87e50e2769190575ca72568f801de&#45;&gt;dir_aed85c5ce4b6a9c7e4c648d53dc0ffb7</title>
<path fill="none" stroke="black" d="M53,-71.7C53,-63.98 53,-54.71 53,-46.11"/>
<polygon fill="black" stroke="black" points="56.5,-46.1 53,-36.1 49.5,-46.1 56.5,-46.1"/>
<g id="a_edge1&#45;headlabel"><a xlink:href="dir_000021_000026.html" target="_top" xlink:title="2">
<text text-anchor="middle" x="59.34" y="-47.2" font-family="Helvetica,sans-Serif" font-size="10.00">2</text>
</a>
</g>
</g>
</g>
</svg>
