<?xml version="1.0" encoding="UTF-8" standalone="no"?>
<!DOCTYPE svg PUBLIC "-//W3C//DTD SVG 1.1//EN"
 "http://www.w3.org/Graphics/SVG/1.1/DTD/svg11.dtd">
<!-- Generated by graphviz version 2.43.0 (0)
 -->
<!-- Title: Bomberman Pages: 1 -->
<svg width="262pt" height="132pt"
 viewBox="0.00 0.00 262.00 132.00" xmlns="http://www.w3.org/2000/svg" xmlns:xlink="http://www.w3.org/1999/xlink">
<g id="graph0" class="graph" transform="scale(1 1) rotate(0) translate(4 128)">
<title>Bomberman</title>
<polygon fill="white" stroke="transparent" points="-4,4 -4,-128 258,-128 258,4 -4,4"/>
<g id="clust1" class="cluster">
<title>clusterdir_f373ae5f1228bccfe03907c71d64e54c</title>
<g id="a_clust1"><a xlink:href="dir_f373ae5f1228bccfe03907c71d64e54c.html" target="_top">
<polygon fill="#eeeeff" stroke="black" points="8,-64 8,-116 246,-116 246,-64 8,-64"/>
</a>
</g>
</g>
<!-- dir_f373ae5f1228bccfe03907c71d64e54c -->
<g id="node1" class="node">
<title>dir_f373ae5f1228bccfe03907c71d64e54c</title>
<text text-anchor="middle" x="199" y="-87.5" font-family="Helvetica,sans-Serif" font-size="10.00">Bomberman</text>
</g>
<!-- dir_5fc9c51cbefaf70951e191340c2bfe9f -->
<g id="node2" class="node">
<title>dir_5fc9c51cbefaf70951e191340c2bfe9f</title>
<g id="a_node2"><a xlink:href="dir_5fc9c51cbefaf70951e191340c2bfe9f.html" target="_top" xlink:title="sources">
<polygon fill="white" stroke="black" points="142,-108 88,-108 88,-72 142,-72 142,-108"/>
<text text-anchor="middle" x="115" y="-87.5" font-family="Helvetica,sans-Serif" font-size="10.00">sources</text>
</a>
</g>
</g>
<!-- dir_6e6cb9563333489fde7459b1f95e59a5 -->
<g id="node4" class="node">
<title>dir_6e6cb9563333489fde7459b1f95e59a5</title>
<g id="a_node4"><a xlink:href="dir_6e6cb9563333489fde7459b1f95e59a5.html" target="_top" xlink:title="Libs">
<polygon fill="white" stroke="red" points="142,-36 88,-36 88,0 142,0 142,-36"/>
<text text-anchor="middle" x="115" y="-15.5" font-family="Helvetica,sans-Serif" font-size="10.00">Libs</text>
</a>
</g>
</g>
<!-- dir_5fc9c51cbefaf70951e191340c2bfe9f&#45;&gt;dir_6e6cb9563333489fde7459b1f95e59a5 -->
<g id="edge1" class="edge">
<title>dir_5fc9c51cbefaf70951e191340c2bfe9f&#45;&gt;dir_6e6cb9563333489fde7459b1f95e59a5</title>
<path fill="none" stroke="black" d="M115,-71.7C115,-63.98 115,-54.71 115,-46.11"/>
<polygon fill="black" stroke="black" points="118.5,-46.1 115,-36.1 111.5,-46.1 118.5,-46.1"/>
<g id="a_edge1&#45;headlabel"><a xlink:href="dir_000009_000001.html" target="_top" xlink:title="22">
<text text-anchor="middle" x="121.34" y="-47.2" font-family="Helvetica,sans-Serif" font-size="10.00">22</text>
</a>
</g>
</g>
<!-- dir_a5c91764c359eea88f0b149849ed58f1 -->
<g id="node3" class="node">
<title>dir_a5c91764c359eea88f0b149849ed58f1</title>
<g id="a_node3"><a xlink:href="dir_a5c91764c359eea88f0b149849ed58f1.html" target="_top" xlink:title="tests">
<polygon fill="white" stroke="black" points="70,-108 16,-108 16,-72 70,-72 70,-108"/>
<text text-anchor="middle" x="43" y="-87.5" font-family="Helvetica,sans-Serif" font-size="10.00">tests</text>
</a>
</g>
</g>
</g>
</svg>
