<?xml version="1.0" encoding="UTF-8" standalone="no"?>
<!DOCTYPE svg PUBLIC "-//W3C//DTD SVG 1.1//EN"
 "http://www.w3.org/Graphics/SVG/1.1/DTD/svg11.dtd">
<!-- Generated by graphviz version 2.43.0 (0)
 -->
<!-- Title: Libs/Engine/sources/Components/Draggable/Draggable.hpp Pages: 1 -->
<svg width="1725pt" height="565pt"
 viewBox="0.00 0.00 1725.00 565.00" xmlns="http://www.w3.org/2000/svg" xmlns:xlink="http://www.w3.org/1999/xlink">
<g id="graph0" class="graph" transform="scale(1 1) rotate(0) translate(4 561)">
<title>Libs/Engine/sources/Components/Draggable/Draggable.hpp</title>
<polygon fill="white" stroke="transparent" points="-4,4 -4,-561 1721,-561 1721,4 -4,4"/>
<!-- Node1 -->
<g id="node1" class="node">
<title>Node1</title>
<g id="a_node1"><a xlink:title=" ">
<polygon fill="#bfbfbf" stroke="black" points="522,-515.5 522,-556.5 656,-556.5 656,-515.5 522,-515.5"/>
<text text-anchor="start" x="530" y="-544.5" font-family="Helvetica,sans-Serif" font-size="10.00">Libs/Engine/sources</text>
<text text-anchor="start" x="530" y="-533.5" font-family="Helvetica,sans-Serif" font-size="10.00">/Components/Draggable</text>
<text text-anchor="middle" x="589" y="-522.5" font-family="Helvetica,sans-Serif" font-size="10.00">/Draggable.hpp</text>
</a>
</g>
</g>
<!-- Node2 -->
<g id="node2" class="node">
<title>Node2</title>
<g id="a_node2"><a xlink:href="IBehaviour_8hpp.html" target="_top" xlink:title=" ">
<polygon fill="white" stroke="black" points="892.5,-291.5 892.5,-310.5 981.5,-310.5 981.5,-291.5 892.5,-291.5"/>
<text text-anchor="middle" x="937" y="-298.5" font-family="Helvetica,sans-Serif" font-size="10.00">IBehaviour.hpp</text>
</a>
</g>
</g>
<!-- Node1&#45;&gt;Node2 -->
<g id="edge1" class="edge">
<title>Node1&#45;&gt;Node2</title>
<path fill="none" stroke="midnightblue" d="M656.01,-533.73C708.67,-529.63 781.47,-516.77 833,-479 889.01,-437.94 920,-356.85 931.62,-320.45"/>
<polygon fill="midnightblue" stroke="midnightblue" points="935.03,-321.27 934.61,-310.68 928.33,-319.22 935.03,-321.27"/>
</g>
<!-- Node9 -->
<g id="node9" class="node">
<title>Node9</title>
<g id="a_node9"><a xlink:href="Entity_8hpp.html" target="_top" xlink:title=" ">
<polygon fill="white" stroke="black" points="1006.5,-235.5 1006.5,-254.5 1071.5,-254.5 1071.5,-235.5 1006.5,-235.5"/>
<text text-anchor="middle" x="1039" y="-242.5" font-family="Helvetica,sans-Serif" font-size="10.00">Entity.hpp</text>
</a>
</g>
</g>
<!-- Node1&#45;&gt;Node9 -->
<g id="edge46" class="edge">
<title>Node1&#45;&gt;Node9</title>
<path fill="none" stroke="midnightblue" d="M656.17,-529.65C775.03,-518.32 1010,-486.72 1010,-414 1010,-414 1010,-414 1010,-356 1010,-322.72 1022.57,-285.58 1031.16,-264.09"/>
<polygon fill="midnightblue" stroke="midnightblue" points="1034.48,-265.21 1035.09,-254.64 1028.02,-262.53 1034.48,-265.21"/>
</g>
<!-- Node21 -->
<g id="node21" class="node">
<title>Node21</title>
<g id="a_node21"><a xlink:href="Input_8hpp.html" target="_top" xlink:title=" ">
<polygon fill="white" stroke="black" points="128,-459.5 128,-478.5 190,-478.5 190,-459.5 128,-459.5"/>
<text text-anchor="middle" x="159" y="-466.5" font-family="Helvetica,sans-Serif" font-size="10.00">Input.hpp</text>
</a>
</g>
</g>
<!-- Node1&#45;&gt;Node21 -->
<g id="edge31" class="edge">
<title>Node1&#45;&gt;Node21</title>
<path fill="none" stroke="midnightblue" d="M521.81,-524.84C431.69,-511.22 274.4,-487.44 200.1,-476.21"/>
<polygon fill="midnightblue" stroke="midnightblue" points="200.59,-472.75 190.18,-474.71 199.55,-479.67 200.59,-472.75"/>
</g>
<!-- Node24 -->
<g id="node24" class="node">
<title>Node24</title>
<g id="a_node24"><a xlink:title=" ">
<polygon fill="white" stroke="#bfbfbf" points="68.5,-235.5 68.5,-254.5 115.5,-254.5 115.5,-235.5 68.5,-235.5"/>
<text text-anchor="middle" x="92" y="-242.5" font-family="Helvetica,sans-Serif" font-size="10.00">cmath</text>
</a>
</g>
</g>
<!-- Node1&#45;&gt;Node24 -->
<g id="edge93" class="edge">
<title>Node1&#45;&gt;Node24</title>
<path fill="none" stroke="midnightblue" d="M521.99,-534.24C375.14,-530.75 38,-512.06 38,-414 38,-414 38,-414 38,-356 38,-319.86 61.77,-283.25 77.77,-262.71"/>
<polygon fill="midnightblue" stroke="midnightblue" points="80.69,-264.67 84.26,-254.69 75.25,-260.26 80.69,-264.67"/>
</g>
<!-- Node27 -->
<g id="node27" class="node">
<title>Node27</title>
<g id="a_node27"><a xlink:href="PhysicsBody_8hpp.html" target="_top" xlink:title=" ">
<polygon fill="white" stroke="black" points="540,-347.5 540,-366.5 638,-366.5 638,-347.5 540,-347.5"/>
<text text-anchor="middle" x="589" y="-354.5" font-family="Helvetica,sans-Serif" font-size="10.00">PhysicsBody.hpp</text>
</a>
</g>
</g>
<!-- Node1&#45;&gt;Node27 -->
<g id="edge41" class="edge">
<title>Node1&#45;&gt;Node27</title>
<path fill="none" stroke="midnightblue" d="M589,-515.38C589,-481.08 589,-410.66 589,-376.88"/>
<polygon fill="midnightblue" stroke="midnightblue" points="592.5,-376.58 589,-366.58 585.5,-376.58 592.5,-376.58"/>
</g>
<!-- Node28 -->
<g id="node28" class="node">
<title>Node28</title>
<g id="a_node28"><a xlink:href="Collider_8hpp.html" target="_top" xlink:title=" ">
<polygon fill="white" stroke="black" points="750,-459.5 750,-478.5 824,-478.5 824,-459.5 750,-459.5"/>
<text text-anchor="middle" x="787" y="-466.5" font-family="Helvetica,sans-Serif" font-size="10.00">Collider.hpp</text>
</a>
</g>
</g>
<!-- Node1&#45;&gt;Node28 -->
<g id="edge47" class="edge">
<title>Node1&#45;&gt;Node28</title>
<path fill="none" stroke="midnightblue" d="M648.41,-515.5C681.93,-504.49 722.71,-491.11 751.32,-481.71"/>
<polygon fill="midnightblue" stroke="midnightblue" points="752.49,-485.01 760.9,-478.57 750.31,-478.36 752.49,-485.01"/>
</g>
<!-- Node33 -->
<g id="node33" class="node">
<title>Node33</title>
<g id="a_node33"><a xlink:href="Transform_8hpp.html" target="_top" xlink:title=" ">
<polygon fill="white" stroke="black" points="712,-347.5 712,-366.5 798,-366.5 798,-347.5 712,-347.5"/>
<text text-anchor="middle" x="755" y="-354.5" font-family="Helvetica,sans-Serif" font-size="10.00">Transform.hpp</text>
</a>
</g>
</g>
<!-- Node1&#45;&gt;Node33 -->
<g id="edge92" class="edge">
<title>Node1&#45;&gt;Node33</title>
<path fill="none" stroke="midnightblue" d="M607.4,-515.38C640.55,-480.03 709.68,-406.32 740.1,-373.89"/>
<polygon fill="midnightblue" stroke="midnightblue" points="742.66,-376.27 746.95,-366.58 737.56,-371.48 742.66,-376.27"/>
</g>
<!-- Node37 -->
<g id="node37" class="node">
<title>Node37</title>
<g id="a_node37"><a xlink:href="Camera3D_8hpp.html" target="_top" xlink:title=" ">
<polygon fill="white" stroke="black" points="150.5,-403.5 150.5,-422.5 239.5,-422.5 239.5,-403.5 150.5,-403.5"/>
<text text-anchor="middle" x="195" y="-410.5" font-family="Helvetica,sans-Serif" font-size="10.00">Camera3D.hpp</text>
</a>
</g>
</g>
<!-- Node1&#45;&gt;Node37 -->
<g id="edge82" class="edge">
<title>Node1&#45;&gt;Node37</title>
<path fill="none" stroke="midnightblue" d="M522.36,-515.43C486.38,-504.8 441.21,-491.33 401,-479 341.38,-460.72 272.29,-438.76 231.2,-425.62"/>
<polygon fill="midnightblue" stroke="midnightblue" points="232.21,-422.27 221.62,-422.55 230.08,-428.93 232.21,-422.27"/>
</g>
<!-- Node39 -->
<g id="node39" class="node">
<title>Node39</title>
<g id="a_node39"><a xlink:href="Mouse_8hpp.html" target="_top" xlink:title=" ">
<polygon fill="white" stroke="black" points="258,-403.5 258,-422.5 328,-422.5 328,-403.5 258,-403.5"/>
<text text-anchor="middle" x="293" y="-410.5" font-family="Helvetica,sans-Serif" font-size="10.00">Mouse.hpp</text>
</a>
</g>
</g>
<!-- Node1&#45;&gt;Node39 -->
<g id="edge88" class="edge">
<title>Node1&#45;&gt;Node39</title>
<path fill="none" stroke="midnightblue" d="M541.11,-515.42C479.63,-490.29 374.74,-447.42 323.29,-426.38"/>
<polygon fill="midnightblue" stroke="midnightblue" points="324.61,-423.14 314.03,-422.6 321.96,-429.62 324.61,-423.14"/>
</g>
<!-- Node3 -->
<g id="node3" class="node">
<title>Node3</title>
<g id="a_node3"><a xlink:href="IComponent_8hpp.html" target="_top" xlink:title=" ">
<polygon fill="white" stroke="black" points="568.5,-123.5 568.5,-142.5 665.5,-142.5 665.5,-123.5 568.5,-123.5"/>
<text text-anchor="middle" x="617" y="-130.5" font-family="Helvetica,sans-Serif" font-size="10.00">IComponent.hpp</text>
</a>
</g>
</g>
<!-- Node2&#45;&gt;Node3 -->
<g id="edge2" class="edge">
<title>Node2&#45;&gt;Node3</title>
<path fill="none" stroke="midnightblue" d="M920.25,-291.31C867.65,-264.02 705.57,-179.95 642.49,-147.22"/>
<polygon fill="midnightblue" stroke="midnightblue" points="644.08,-144.1 633.59,-142.61 640.85,-150.32 644.08,-144.1"/>
</g>
<!-- Node2&#45;&gt;Node9 -->
<g id="edge9" class="edge">
<title>Node2&#45;&gt;Node9</title>
<path fill="none" stroke="midnightblue" d="M953.39,-291.32C969.67,-282.7 994.87,-269.36 1013.72,-259.39"/>
<polygon fill="midnightblue" stroke="midnightblue" points="1015.45,-262.43 1022.65,-254.65 1012.18,-256.24 1015.45,-262.43"/>
</g>
<!-- Node4 -->
<g id="node4" class="node">
<title>Node4</title>
<g id="a_node4"><a xlink:title=" ">
<polygon fill="white" stroke="#bfbfbf" points="557.5,-6 557.5,-25 614.5,-25 614.5,-6 557.5,-6"/>
<text text-anchor="middle" x="586" y="-13" font-family="Helvetica,sans-Serif" font-size="10.00">ostream</text>
</a>
</g>
</g>
<!-- Node3&#45;&gt;Node4 -->
<g id="edge3" class="edge">
<title>Node3&#45;&gt;Node4</title>
<path fill="none" stroke="midnightblue" d="M614.67,-123.32C609.67,-104.67 597.79,-60.44 591,-35.13"/>
<polygon fill="midnightblue" stroke="midnightblue" points="594.33,-34.03 588.36,-25.28 587.57,-35.85 594.33,-34.03"/>
</g>
<!-- Node5 -->
<g id="node5" class="node">
<title>Node5</title>
<g id="a_node5"><a xlink:href="IXMLSerializable_8hpp.html" target="_top" xlink:title=" ">
<polygon fill="white" stroke="black" points="280.5,-67.5 280.5,-86.5 399.5,-86.5 399.5,-67.5 280.5,-67.5"/>
<text text-anchor="middle" x="340" y="-74.5" font-family="Helvetica,sans-Serif" font-size="10.00">IXMLSerializable.hpp</text>
</a>
</g>
</g>
<!-- Node3&#45;&gt;Node5 -->
<g id="edge4" class="edge">
<title>Node3&#45;&gt;Node5</title>
<path fill="none" stroke="midnightblue" d="M573.11,-123.44C524.48,-113.96 446.05,-98.67 393.78,-88.48"/>
<polygon fill="midnightblue" stroke="midnightblue" points="394.17,-84.99 383.69,-86.52 392.83,-91.87 394.17,-84.99"/>
</g>
<!-- Node5&#45;&gt;Node4 -->
<g id="edge5" class="edge">
<title>Node5&#45;&gt;Node4</title>
<path fill="none" stroke="midnightblue" d="M375.25,-67.48C420.92,-56.43 500.27,-37.24 547.49,-25.82"/>
<polygon fill="midnightblue" stroke="midnightblue" points="548.44,-29.19 557.34,-23.43 546.79,-22.38 548.44,-29.19"/>
</g>
<!-- Node6 -->
<g id="node6" class="node">
<title>Node6</title>
<g id="a_node6"><a xlink:title=" ">
<polygon fill="white" stroke="#bfbfbf" points="415,-6 415,-25 475,-25 475,-6 415,-6"/>
<text text-anchor="middle" x="445" y="-13" font-family="Helvetica,sans-Serif" font-size="10.00">iostream</text>
</a>
</g>
</g>
<!-- Node5&#45;&gt;Node6 -->
<g id="edge6" class="edge">
<title>Node5&#45;&gt;Node6</title>
<path fill="none" stroke="midnightblue" d="M355.04,-67.48C372.28,-57.71 400.74,-41.58 421.03,-30.08"/>
<polygon fill="midnightblue" stroke="midnightblue" points="423.01,-32.98 429.98,-25.01 419.56,-26.89 423.01,-32.98"/>
</g>
<!-- Node7 -->
<g id="node7" class="node">
<title>Node7</title>
<g id="a_node7"><a xlink:title=" ">
<polygon fill="white" stroke="#bfbfbf" points="152.5,-0.5 152.5,-30.5 265.5,-30.5 265.5,-0.5 152.5,-0.5"/>
<text text-anchor="start" x="160.5" y="-18.5" font-family="Helvetica,sans-Serif" font-size="10.00">boost/property_tree</text>
<text text-anchor="middle" x="209" y="-7.5" font-family="Helvetica,sans-Serif" font-size="10.00">/ptree.hpp</text>
</a>
</g>
</g>
<!-- Node5&#45;&gt;Node7 -->
<g id="edge7" class="edge">
<title>Node5&#45;&gt;Node7</title>
<path fill="none" stroke="midnightblue" d="M321.23,-67.48C302.49,-58.96 273.11,-45.62 249.11,-34.72"/>
<polygon fill="midnightblue" stroke="midnightblue" points="250.43,-31.47 239.87,-30.52 247.53,-37.85 250.43,-31.47"/>
</g>
<!-- Node8 -->
<g id="node8" class="node">
<title>Node8</title>
<g id="a_node8"><a xlink:title=" ">
<polygon fill="white" stroke="#bfbfbf" points="283.5,-0.5 283.5,-30.5 396.5,-30.5 396.5,-0.5 283.5,-0.5"/>
<text text-anchor="start" x="291.5" y="-18.5" font-family="Helvetica,sans-Serif" font-size="10.00">boost/property_tree</text>
<text text-anchor="middle" x="340" y="-7.5" font-family="Helvetica,sans-Serif" font-size="10.00">/xml_parser.hpp</text>
</a>
</g>
</g>
<!-- Node5&#45;&gt;Node8 -->
<g id="edge8" class="edge">
<title>Node5&#45;&gt;Node8</title>
<path fill="none" stroke="midnightblue" d="M340,-67.48C340,-60.47 340,-50.19 340,-40.7"/>
<polygon fill="midnightblue" stroke="midnightblue" points="343.5,-40.52 340,-30.52 336.5,-40.52 343.5,-40.52"/>
</g>
<!-- Node9&#45;&gt;Node3 -->
<g id="edge30" class="edge">
<title>Node9&#45;&gt;Node3</title>
<path fill="none" stroke="midnightblue" d="M1006.24,-235.46C930.59,-215.74 743.81,-167.05 659.5,-145.08"/>
<polygon fill="midnightblue" stroke="midnightblue" points="660.3,-141.67 649.74,-142.53 658.54,-148.44 660.3,-141.67"/>
</g>
<!-- Node10 -->
<g id="node10" class="node">
<title>Node10</title>
<g id="a_node10"><a xlink:title=" ">
<polygon fill="white" stroke="#bfbfbf" points="795,-123.5 795,-142.5 857,-142.5 857,-123.5 795,-123.5"/>
<text text-anchor="middle" x="826" y="-130.5" font-family="Helvetica,sans-Serif" font-size="10.00">cinttypes</text>
</a>
</g>
</g>
<!-- Node9&#45;&gt;Node10 -->
<g id="edge10" class="edge">
<title>Node9&#45;&gt;Node10</title>
<path fill="none" stroke="midnightblue" d="M1022.29,-235.37C985.19,-216.21 895.78,-170.04 851.59,-147.22"/>
<polygon fill="midnightblue" stroke="midnightblue" points="853.13,-144.07 842.64,-142.59 849.92,-150.29 853.13,-144.07"/>
</g>
<!-- Node11 -->
<g id="node11" class="node">
<title>Node11</title>
<g id="a_node11"><a xlink:title=" ">
<polygon fill="white" stroke="#bfbfbf" points="1079.5,-123.5 1079.5,-142.5 1172.5,-142.5 1172.5,-123.5 1079.5,-123.5"/>
<text text-anchor="middle" x="1126" y="-130.5" font-family="Helvetica,sans-Serif" font-size="10.00">unordered_map</text>
</a>
</g>
</g>
<!-- Node9&#45;&gt;Node11 -->
<g id="edge11" class="edge">
<title>Node9&#45;&gt;Node11</title>
<path fill="none" stroke="midnightblue" d="M1043.34,-235.09C1049.89,-222.08 1063.12,-197.43 1078,-179 1086.77,-168.14 1098.1,-157.39 1107.55,-149.13"/>
<polygon fill="midnightblue" stroke="midnightblue" points="1109.92,-151.71 1115.27,-142.56 1105.38,-146.38 1109.92,-151.71"/>
</g>
<!-- Node12 -->
<g id="node12" class="node">
<title>Node12</title>
<g id="a_node12"><a xlink:title=" ">
<polygon fill="white" stroke="#bfbfbf" points="1350,-123.5 1350,-142.5 1408,-142.5 1408,-123.5 1350,-123.5"/>
<text text-anchor="middle" x="1379" y="-130.5" font-family="Helvetica,sans-Serif" font-size="10.00">memory</text>
</a>
</g>
</g>
<!-- Node9&#45;&gt;Node12 -->
<g id="edge12" class="edge">
<title>Node9&#45;&gt;Node12</title>
<path fill="none" stroke="midnightblue" d="M1071.71,-240.82C1116.49,-235.73 1198.85,-223.7 1265,-199 1299.74,-186.03 1336.38,-163.28 1358.47,-148.43"/>
<polygon fill="midnightblue" stroke="midnightblue" points="1360.72,-151.13 1367,-142.6 1356.76,-145.35 1360.72,-151.13"/>
</g>
<!-- Node13 -->
<g id="node13" class="node">
<title>Node13</title>
<g id="a_node13"><a xlink:title=" ">
<polygon fill="white" stroke="#bfbfbf" points="888,-123.5 888,-142.5 952,-142.5 952,-123.5 888,-123.5"/>
<text text-anchor="middle" x="920" y="-130.5" font-family="Helvetica,sans-Serif" font-size="10.00">algorithm</text>
</a>
</g>
</g>
<!-- Node9&#45;&gt;Node13 -->
<g id="edge13" class="edge">
<title>Node9&#45;&gt;Node13</title>
<path fill="none" stroke="midnightblue" d="M1029.66,-235.37C1009.59,-216.81 962.1,-172.91 936.7,-149.44"/>
<polygon fill="midnightblue" stroke="midnightblue" points="939.01,-146.81 929.29,-142.59 934.26,-151.95 939.01,-146.81"/>
</g>
<!-- Node14 -->
<g id="node14" class="node">
<title>Node14</title>
<g id="a_node14"><a xlink:title=" ">
<polygon fill="white" stroke="#bfbfbf" points="1538.5,-123.5 1538.5,-142.5 1585.5,-142.5 1585.5,-123.5 1538.5,-123.5"/>
<text text-anchor="middle" x="1562" y="-130.5" font-family="Helvetica,sans-Serif" font-size="10.00">vector</text>
</a>
</g>
</g>
<!-- Node9&#45;&gt;Node14 -->
<g id="edge14" class="edge">
<title>Node9&#45;&gt;Node14</title>
<path fill="none" stroke="midnightblue" d="M1071.57,-243.19C1177.36,-240.29 1506.6,-228.9 1543,-199 1556.46,-187.94 1560.71,-167.9 1561.89,-152.98"/>
<polygon fill="midnightblue" stroke="midnightblue" points="1565.4,-152.94 1562.31,-142.81 1558.4,-152.66 1565.4,-152.94"/>
</g>
<!-- Node15 -->
<g id="node15" class="node">
<title>Node15</title>
<g id="a_node15"><a xlink:title=" ">
<polygon fill="white" stroke="#bfbfbf" points="970.5,-123.5 970.5,-142.5 1061.5,-142.5 1061.5,-123.5 970.5,-123.5"/>
<text text-anchor="middle" x="1016" y="-130.5" font-family="Helvetica,sans-Serif" font-size="10.00">Exceptions.hpp</text>
</a>
</g>
</g>
<!-- Node9&#45;&gt;Node15 -->
<g id="edge15" class="edge">
<title>Node9&#45;&gt;Node15</title>
<path fill="none" stroke="midnightblue" d="M1037.2,-235.37C1033.48,-217.62 1024.92,-176.67 1019.89,-152.6"/>
<polygon fill="midnightblue" stroke="midnightblue" points="1023.27,-151.66 1017.8,-142.59 1016.42,-153.1 1023.27,-151.66"/>
</g>
<!-- Node16 -->
<g id="node16" class="node">
<title>Node16</title>
<g id="a_node16"><a xlink:href="ComponentManager_8hpp.html" target="_top" xlink:title=" ">
<polygon fill="white" stroke="black" points="1120,-179.5 1120,-198.5 1256,-198.5 1256,-179.5 1120,-179.5"/>
<text text-anchor="middle" x="1188" y="-186.5" font-family="Helvetica,sans-Serif" font-size="10.00">ComponentManager.hpp</text>
</a>
</g>
</g>
<!-- Node9&#45;&gt;Node16 -->
<g id="edge16" class="edge">
<title>Node9&#45;&gt;Node16</title>
<path fill="none" stroke="midnightblue" d="M1062.61,-235.44C1087.46,-226.44 1126.77,-212.19 1154.75,-202.05"/>
<polygon fill="midnightblue" stroke="midnightblue" points="1156.29,-205.21 1164.5,-198.52 1153.91,-198.63 1156.29,-205.21"/>
</g>
<!-- Node19 -->
<g id="node19" class="node">
<title>Node19</title>
<g id="a_node19"><a xlink:href="EntityManager_8hpp.html" target="_top" xlink:title=" ">
<polygon fill="white" stroke="black" points="1426,-179.5 1426,-198.5 1534,-198.5 1534,-179.5 1426,-179.5"/>
<text text-anchor="middle" x="1480" y="-186.5" font-family="Helvetica,sans-Serif" font-size="10.00">EntityManager.hpp</text>
</a>
</g>
</g>
<!-- Node9&#45;&gt;Node19 -->
<g id="edge25" class="edge">
<title>Node9&#45;&gt;Node19</title>
<path fill="none" stroke="midnightblue" d="M1071.79,-239.99C1144.49,-231.08 1320.34,-209.55 1415.79,-197.86"/>
<polygon fill="midnightblue" stroke="midnightblue" points="1416.39,-201.32 1425.89,-196.63 1415.54,-194.37 1416.39,-201.32"/>
</g>
<!-- Node16&#45;&gt;Node3 -->
<g id="edge23" class="edge">
<title>Node16&#45;&gt;Node3</title>
<path fill="none" stroke="midnightblue" d="M1119.97,-181.57C1007.07,-170.89 782.88,-149.69 676.14,-139.59"/>
<polygon fill="midnightblue" stroke="midnightblue" points="676.16,-136.08 665.88,-138.62 675.51,-143.05 676.16,-136.08"/>
</g>
<!-- Node16&#45;&gt;Node11 -->
<g id="edge17" class="edge">
<title>Node16&#45;&gt;Node11</title>
<path fill="none" stroke="midnightblue" d="M1178.04,-179.32C1168.87,-171.34 1155.06,-159.31 1143.97,-149.65"/>
<polygon fill="midnightblue" stroke="midnightblue" points="1145.98,-146.76 1136.14,-142.83 1141.38,-152.04 1145.98,-146.76"/>
</g>
<!-- Node16&#45;&gt;Node12 -->
<g id="edge20" class="edge">
<title>Node16&#45;&gt;Node12</title>
<path fill="none" stroke="midnightblue" d="M1218.26,-179.44C1251.24,-170.12 1304.1,-155.17 1340.13,-144.99"/>
<polygon fill="midnightblue" stroke="midnightblue" points="1341.15,-148.34 1349.82,-142.25 1339.24,-141.6 1341.15,-148.34"/>
</g>
<!-- Node16&#45;&gt;Node13 -->
<g id="edge21" class="edge">
<title>Node16&#45;&gt;Node13</title>
<path fill="none" stroke="midnightblue" d="M1144.21,-179.48C1098.66,-170.56 1025.27,-156.08 962,-143 961.9,-142.98 961.8,-142.96 961.7,-142.94"/>
<polygon fill="midnightblue" stroke="midnightblue" points="962.6,-139.55 952.09,-140.93 961.16,-146.4 962.6,-139.55"/>
</g>
<!-- Node16&#45;&gt;Node14 -->
<g id="edge19" class="edge">
<title>Node16&#45;&gt;Node14</title>
<path fill="none" stroke="midnightblue" d="M1250,-179.49C1313.93,-170.65 1416.49,-156.27 1505,-143 1512.56,-141.87 1520.68,-140.61 1528.35,-139.4"/>
<polygon fill="midnightblue" stroke="midnightblue" points="1529.11,-142.83 1538.44,-137.8 1528.02,-135.91 1529.11,-142.83"/>
</g>
<!-- Node16&#45;&gt;Node15 -->
<g id="edge22" class="edge">
<title>Node16&#45;&gt;Node15</title>
<path fill="none" stroke="midnightblue" d="M1160.75,-179.44C1131.56,-170.28 1085.08,-155.69 1052.69,-145.52"/>
<polygon fill="midnightblue" stroke="midnightblue" points="1053.72,-142.17 1043.13,-142.52 1051.62,-148.85 1053.72,-142.17"/>
</g>
<!-- Node17 -->
<g id="node17" class="node">
<title>Node17</title>
<g id="a_node17"><a xlink:title=" ">
<polygon fill="white" stroke="#bfbfbf" points="1673,-123.5 1673,-142.5 1717,-142.5 1717,-123.5 1673,-123.5"/>
<text text-anchor="middle" x="1695" y="-130.5" font-family="Helvetica,sans-Serif" font-size="10.00">string</text>
</a>
</g>
</g>
<!-- Node16&#45;&gt;Node17 -->
<g id="edge18" class="edge">
<title>Node16&#45;&gt;Node17</title>
<path fill="none" stroke="midnightblue" d="M1256.11,-180.75C1366.73,-168.96 1581.26,-146.11 1662.64,-137.45"/>
<polygon fill="midnightblue" stroke="midnightblue" points="1663.2,-140.91 1672.77,-136.37 1662.46,-133.95 1663.2,-140.91"/>
</g>
<!-- Node18 -->
<g id="node18" class="node">
<title>Node18</title>
<g id="a_node18"><a xlink:title=" ">
<polygon fill="white" stroke="#bfbfbf" points="1252,-123.5 1252,-142.5 1290,-142.5 1290,-123.5 1252,-123.5"/>
<text text-anchor="middle" x="1271" y="-130.5" font-family="Helvetica,sans-Serif" font-size="10.00">map</text>
</a>
</g>
</g>
<!-- Node16&#45;&gt;Node18 -->
<g id="edge24" class="edge">
<title>Node16&#45;&gt;Node18</title>
<path fill="none" stroke="midnightblue" d="M1201.34,-179.32C1214.16,-170.98 1233.78,-158.21 1248.94,-148.35"/>
<polygon fill="midnightblue" stroke="midnightblue" points="1251.22,-151.04 1257.7,-142.65 1247.41,-145.17 1251.22,-151.04"/>
</g>
<!-- Node19&#45;&gt;Node10 -->
<g id="edge27" class="edge">
<title>Node19&#45;&gt;Node10</title>
<path fill="none" stroke="midnightblue" d="M1425.96,-185.65C1320.5,-180.69 1079.97,-167.53 879,-143 875.1,-142.52 871.05,-141.96 867,-141.35"/>
<polygon fill="midnightblue" stroke="midnightblue" points="867.46,-137.88 857.04,-139.77 866.36,-144.8 867.46,-137.88"/>
</g>
<!-- Node19&#45;&gt;Node12 -->
<g id="edge28" class="edge">
<title>Node19&#45;&gt;Node12</title>
<path fill="none" stroke="midnightblue" d="M1463.77,-179.32C1447.65,-170.7 1422.7,-157.36 1404.04,-147.39"/>
<polygon fill="midnightblue" stroke="midnightblue" points="1405.66,-144.28 1395.19,-142.65 1402.36,-150.46 1405.66,-144.28"/>
</g>
<!-- Node19&#45;&gt;Node14 -->
<g id="edge26" class="edge">
<title>Node19&#45;&gt;Node14</title>
<path fill="none" stroke="midnightblue" d="M1493.17,-179.32C1505.85,-170.98 1525.23,-158.21 1540.21,-148.35"/>
<polygon fill="midnightblue" stroke="midnightblue" points="1542.43,-151.08 1548.86,-142.65 1538.58,-145.23 1542.43,-151.08"/>
</g>
<!-- Node20 -->
<g id="node20" class="node">
<title>Node20</title>
<g id="a_node20"><a xlink:title=" ">
<polygon fill="white" stroke="#bfbfbf" points="1464,-123.5 1464,-142.5 1496,-142.5 1496,-123.5 1464,-123.5"/>
<text text-anchor="middle" x="1480" y="-130.5" font-family="Helvetica,sans-Serif" font-size="10.00">list</text>
</a>
</g>
</g>
<!-- Node19&#45;&gt;Node20 -->
<g id="edge29" class="edge">
<title>Node19&#45;&gt;Node20</title>
<path fill="none" stroke="midnightblue" d="M1480,-179.08C1480,-172.01 1480,-161.86 1480,-152.99"/>
<polygon fill="midnightblue" stroke="midnightblue" points="1483.5,-152.75 1480,-142.75 1476.5,-152.75 1483.5,-152.75"/>
</g>
<!-- Node22 -->
<g id="node22" class="node">
<title>Node22</title>
<g id="a_node22"><a xlink:href="Vector2_8hpp.html" target="_top" xlink:title=" ">
<polygon fill="white" stroke="black" points="66,-347.5 66,-366.5 140,-366.5 140,-347.5 66,-347.5"/>
<text text-anchor="middle" x="103" y="-354.5" font-family="Helvetica,sans-Serif" font-size="10.00">Vector2.hpp</text>
</a>
</g>
</g>
<!-- Node21&#45;&gt;Node22 -->
<g id="edge32" class="edge">
<title>Node21&#45;&gt;Node22</title>
<path fill="none" stroke="midnightblue" d="M154.61,-459.37C145.45,-441.38 124.15,-399.55 111.97,-375.63"/>
<polygon fill="midnightblue" stroke="midnightblue" points="115.03,-373.92 107.37,-366.59 108.79,-377.09 115.03,-373.92"/>
</g>
<!-- Node22&#45;&gt;Node5 -->
<g id="edge40" class="edge">
<title>Node22&#45;&gt;Node5</title>
<path fill="none" stroke="midnightblue" d="M85.06,-347.25C55.55,-331.45 0,-295.19 0,-246 0,-246 0,-246 0,-188 0,-131.69 170.93,-99.93 270.4,-86.22"/>
<polygon fill="midnightblue" stroke="midnightblue" points="270.95,-89.68 280.39,-84.87 270.01,-82.74 270.95,-89.68"/>
</g>
<!-- Node23 -->
<g id="node23" class="node">
<title>Node23</title>
<g id="a_node23"><a xlink:title=" ">
<polygon fill="white" stroke="#bfbfbf" points="314.5,-235.5 314.5,-254.5 367.5,-254.5 367.5,-235.5 314.5,-235.5"/>
<text text-anchor="middle" x="341" y="-242.5" font-family="Helvetica,sans-Serif" font-size="10.00">raylib.h</text>
</a>
</g>
</g>
<!-- Node22&#45;&gt;Node23 -->
<g id="edge33" class="edge">
<title>Node22&#45;&gt;Node23</title>
<path fill="none" stroke="midnightblue" d="M107.32,-347.31C114.79,-333.18 131.54,-305.39 154,-291 209.48,-255.45 235.59,-269.9 304.29,-255.02"/>
<polygon fill="midnightblue" stroke="midnightblue" points="305.31,-258.37 314.27,-252.72 303.74,-251.55 305.31,-258.37"/>
</g>
<!-- Node22&#45;&gt;Node24 -->
<g id="edge34" class="edge">
<title>Node22&#45;&gt;Node24</title>
<path fill="none" stroke="midnightblue" d="M102.14,-347.37C100.36,-329.62 96.27,-288.67 93.86,-264.6"/>
<polygon fill="midnightblue" stroke="midnightblue" points="97.34,-264.19 92.86,-254.59 90.37,-264.89 97.34,-264.19"/>
</g>
<!-- Node25 -->
<g id="node25" class="node">
<title>Node25</title>
<g id="a_node25"><a xlink:href="Vector3_8hpp.html" target="_top" xlink:title=" ">
<polygon fill="white" stroke="black" points="220,-291.5 220,-310.5 294,-310.5 294,-291.5 220,-291.5"/>
<text text-anchor="middle" x="257" y="-298.5" font-family="Helvetica,sans-Serif" font-size="10.00">Vector3.hpp</text>
</a>
</g>
</g>
<!-- Node22&#45;&gt;Node25 -->
<g id="edge35" class="edge">
<title>Node22&#45;&gt;Node25</title>
<path fill="none" stroke="midnightblue" d="M127.4,-347.44C153.2,-338.4 194.08,-324.06 223.02,-313.92"/>
<polygon fill="midnightblue" stroke="midnightblue" points="224.43,-317.13 232.71,-310.52 222.12,-310.52 224.43,-317.13"/>
</g>
<!-- Node25&#45;&gt;Node5 -->
<g id="edge37" class="edge">
<title>Node25&#45;&gt;Node5</title>
<path fill="none" stroke="midnightblue" d="M249.43,-291.32C239.63,-279.01 224.54,-255.65 231,-235 249.33,-176.46 298.03,-120.59 323.68,-94.07"/>
<polygon fill="midnightblue" stroke="midnightblue" points="326.31,-96.38 330.84,-86.81 321.32,-91.47 326.31,-96.38"/>
</g>
<!-- Node25&#45;&gt;Node23 -->
<g id="edge36" class="edge">
<title>Node25&#45;&gt;Node23</title>
<path fill="none" stroke="midnightblue" d="M270.5,-291.32C283.6,-282.9 303.71,-269.97 319.11,-260.07"/>
<polygon fill="midnightblue" stroke="midnightblue" points="321.02,-263.01 327.54,-254.65 317.23,-257.12 321.02,-263.01"/>
</g>
<!-- Node25&#45;&gt;Node24 -->
<g id="edge38" class="edge">
<title>Node25&#45;&gt;Node24</title>
<path fill="none" stroke="midnightblue" d="M230.86,-291.44C202.24,-282.08 156.29,-267.04 125.16,-256.85"/>
<polygon fill="midnightblue" stroke="midnightblue" points="126.21,-253.51 115.62,-253.73 124.03,-260.17 126.21,-253.51"/>
</g>
<!-- Node26 -->
<g id="node26" class="node">
<title>Node26</title>
<g id="a_node26"><a xlink:title=" ">
<polygon fill="white" stroke="#bfbfbf" points="240,-235.5 240,-254.5 296,-254.5 296,-235.5 240,-235.5"/>
<text text-anchor="middle" x="268" y="-242.5" font-family="Helvetica,sans-Serif" font-size="10.00">sstream</text>
</a>
</g>
</g>
<!-- Node25&#45;&gt;Node26 -->
<g id="edge39" class="edge">
<title>Node25&#45;&gt;Node26</title>
<path fill="none" stroke="midnightblue" d="M258.82,-291.08C260.27,-283.93 262.37,-273.64 264.19,-264.69"/>
<polygon fill="midnightblue" stroke="midnightblue" points="267.65,-265.25 266.22,-254.75 260.79,-263.85 267.65,-265.25"/>
</g>
<!-- Node27&#45;&gt;Node3 -->
<g id="edge43" class="edge">
<title>Node27&#45;&gt;Node3</title>
<path fill="none" stroke="midnightblue" d="M586.72,-347.23C580.3,-320.91 563.82,-240.65 584,-179 587.49,-168.34 594.57,-158.12 601.29,-150.12"/>
<polygon fill="midnightblue" stroke="midnightblue" points="603.9,-152.44 607.98,-142.66 598.7,-147.76 603.9,-152.44"/>
</g>
<!-- Node27&#45;&gt;Node10 -->
<g id="edge42" class="edge">
<title>Node27&#45;&gt;Node10</title>
<path fill="none" stroke="midnightblue" d="M598.29,-347.3C634.06,-313.8 763.14,-192.88 809.38,-149.57"/>
<polygon fill="midnightblue" stroke="midnightblue" points="811.87,-152.03 816.77,-142.64 807.08,-146.92 811.87,-152.03"/>
</g>
<!-- Node27&#45;&gt;Node25 -->
<g id="edge44" class="edge">
<title>Node27&#45;&gt;Node25</title>
<path fill="none" stroke="midnightblue" d="M539.65,-347.97C476.17,-337.65 366.67,-319.84 304.23,-309.68"/>
<polygon fill="midnightblue" stroke="midnightblue" points="304.69,-306.21 294.26,-308.06 303.56,-313.12 304.69,-306.21"/>
</g>
<!-- Node27&#45;&gt;Node27 -->
<g id="edge45" class="edge">
<title>Node27&#45;&gt;Node27</title>
<path fill="none" stroke="midnightblue" d="M617.58,-366.53C636.99,-369.31 656,-366.13 656,-357 656,-349.51 643.21,-346.03 627.89,-346.55"/>
<polygon fill="midnightblue" stroke="midnightblue" points="627.22,-343.1 617.58,-347.47 627.85,-350.07 627.22,-343.1"/>
</g>
<!-- Node28&#45;&gt;Node3 -->
<g id="edge49" class="edge">
<title>Node28&#45;&gt;Node3</title>
<path fill="none" stroke="midnightblue" d="M777.98,-459.33C761.2,-442.77 724.9,-404.92 703,-367 660.23,-292.93 632.11,-193.77 621.61,-152.86"/>
<polygon fill="midnightblue" stroke="midnightblue" points="624.95,-151.78 619.12,-142.93 618.16,-153.48 624.95,-151.78"/>
</g>
<!-- Node28&#45;&gt;Node9 -->
<g id="edge53" class="edge">
<title>Node28&#45;&gt;Node9</title>
<path fill="none" stroke="midnightblue" d="M801.05,-459.28C812.97,-451.22 829.73,-438.2 840,-423 874.63,-371.76 839.42,-333.86 884,-291 914.11,-262.05 961.72,-251.55 996.23,-247.84"/>
<polygon fill="midnightblue" stroke="midnightblue" points="996.85,-251.3 1006.48,-246.89 996.21,-244.33 996.85,-251.3"/>
</g>
<!-- Node28&#45;&gt;Node10 -->
<g id="edge48" class="edge">
<title>Node28&#45;&gt;Node10</title>
<path fill="none" stroke="midnightblue" d="M792.42,-459.25C803.14,-441.1 826,-397.71 826,-358 826,-358 826,-358 826,-244 826,-211.95 826,-174.64 826,-152.75"/>
<polygon fill="midnightblue" stroke="midnightblue" points="829.5,-152.56 826,-142.56 822.5,-152.56 829.5,-152.56"/>
</g>
<!-- Node28&#45;&gt;Node12 -->
<g id="edge52" class="edge">
<title>Node28&#45;&gt;Node12</title>
<path fill="none" stroke="midnightblue" d="M824.07,-467.38C992.32,-464.08 1676,-445.28 1676,-358 1676,-358 1676,-358 1676,-244 1676,-189.67 1499,-153.67 1418.28,-140.07"/>
<polygon fill="midnightblue" stroke="midnightblue" points="1418.45,-136.56 1408.02,-138.38 1417.31,-143.46 1418.45,-136.56"/>
</g>
<!-- Node28&#45;&gt;Node14 -->
<g id="edge51" class="edge">
<title>Node28&#45;&gt;Node14</title>
<path fill="none" stroke="midnightblue" d="M824.37,-467.59C959.54,-465.85 1422.59,-457.45 1566,-423 1635.85,-406.22 1714,-429.84 1714,-358 1714,-358 1714,-358 1714,-244 1714,-185.98 1640.41,-155.44 1595.64,-142.24"/>
<polygon fill="midnightblue" stroke="midnightblue" points="1596.32,-138.79 1585.75,-139.46 1594.43,-145.53 1596.32,-138.79"/>
</g>
<!-- Node28&#45;&gt;Node25 -->
<g id="edge50" class="edge">
<title>Node28&#45;&gt;Node25</title>
<path fill="none" stroke="midnightblue" d="M749.95,-466.98C662.37,-464.1 445.09,-453.93 380,-423 366.78,-416.71 302,-349.44 272.13,-318.01"/>
<polygon fill="midnightblue" stroke="midnightblue" points="274.45,-315.36 265.03,-310.52 269.37,-320.18 274.45,-315.36"/>
</g>
<!-- Node29 -->
<g id="node29" class="node">
<title>Node29</title>
<g id="a_node29"><a xlink:href="Coordinator_8hpp.html" target="_top" xlink:title=" ">
<polygon fill="white" stroke="black" points="1267,-403.5 1267,-422.5 1361,-422.5 1361,-403.5 1267,-403.5"/>
<text text-anchor="middle" x="1314" y="-410.5" font-family="Helvetica,sans-Serif" font-size="10.00">Coordinator.hpp</text>
</a>
</g>
</g>
<!-- Node28&#45;&gt;Node29 -->
<g id="edge54" class="edge">
<title>Node28&#45;&gt;Node29</title>
<path fill="none" stroke="midnightblue" d="M824.06,-464.2C914.73,-454.91 1148.26,-430.98 1256.88,-419.85"/>
<polygon fill="midnightblue" stroke="midnightblue" points="1257.4,-423.32 1266.99,-418.82 1256.68,-416.35 1257.4,-423.32"/>
</g>
<!-- Node28&#45;&gt;Node33 -->
<g id="edge70" class="edge">
<title>Node28&#45;&gt;Node33</title>
<path fill="none" stroke="midnightblue" d="M784.49,-459.37C779.3,-441.54 767.3,-400.3 760.32,-376.27"/>
<polygon fill="midnightblue" stroke="midnightblue" points="763.65,-375.22 757.5,-366.59 756.93,-377.17 763.65,-375.22"/>
</g>
<!-- Node34 -->
<g id="node34" class="node">
<title>Node34</title>
<g id="a_node34"><a xlink:href="Circle_8hpp.html" target="_top" xlink:title=" ">
<polygon fill="white" stroke="black" points="388.5,-403.5 388.5,-422.5 453.5,-422.5 453.5,-403.5 388.5,-403.5"/>
<text text-anchor="middle" x="421" y="-410.5" font-family="Helvetica,sans-Serif" font-size="10.00">Circle.hpp</text>
</a>
</g>
</g>
<!-- Node28&#45;&gt;Node34 -->
<g id="edge74" class="edge">
<title>Node28&#45;&gt;Node34</title>
<path fill="none" stroke="midnightblue" d="M749.93,-463.75C691.36,-456.83 573.63,-442.14 463.47,-422.96"/>
<polygon fill="midnightblue" stroke="midnightblue" points="463.97,-419.5 453.51,-421.21 462.76,-426.39 463.97,-419.5"/>
</g>
<!-- Node35 -->
<g id="node35" class="node">
<title>Node35</title>
<g id="a_node35"><a xlink:href="Rectangle_8hpp.html" target="_top" xlink:title=" ">
<polygon fill="white" stroke="black" points="472,-403.5 472,-422.5 558,-422.5 558,-403.5 472,-403.5"/>
<text text-anchor="middle" x="515" y="-410.5" font-family="Helvetica,sans-Serif" font-size="10.00">Rectangle.hpp</text>
</a>
</g>
</g>
<!-- Node28&#45;&gt;Node35 -->
<g id="edge77" class="edge">
<title>Node28&#45;&gt;Node35</title>
<path fill="none" stroke="midnightblue" d="M749.75,-460.6C702.73,-451.27 621.54,-435.15 568.05,-424.53"/>
<polygon fill="midnightblue" stroke="midnightblue" points="568.56,-421.07 558.07,-422.55 567.2,-427.93 568.56,-421.07"/>
</g>
<!-- Node29&#45;&gt;Node12 -->
<g id="edge56" class="edge">
<title>Node29&#45;&gt;Node12</title>
<path fill="none" stroke="midnightblue" d="M1344.47,-403.46C1383.71,-390.64 1450.27,-362.27 1479,-311 1502.01,-269.94 1456.99,-262.64 1417,-199 1407.02,-183.12 1396.3,-164.63 1388.79,-151.44"/>
<polygon fill="midnightblue" stroke="midnightblue" points="1391.72,-149.5 1383.75,-142.52 1385.62,-152.95 1391.72,-149.5"/>
</g>
<!-- Node29&#45;&gt;Node17 -->
<g id="edge57" class="edge">
<title>Node29&#45;&gt;Node17</title>
<path fill="none" stroke="midnightblue" d="M1361.18,-408.41C1425.41,-402.73 1536.13,-389.91 1569,-367 1645.86,-313.43 1680.19,-197.55 1691,-152.47"/>
<polygon fill="midnightblue" stroke="midnightblue" points="1694.44,-153.14 1693.25,-142.62 1687.61,-151.58 1694.44,-153.14"/>
</g>
<!-- Node29&#45;&gt;Node18 -->
<g id="edge58" class="edge">
<title>Node29&#45;&gt;Node18</title>
<path fill="none" stroke="midnightblue" d="M1291.21,-403.47C1275.67,-396.32 1256.29,-384.44 1247,-367 1242.82,-359.16 1246.46,-355.87 1247,-347 1251.01,-280.86 1257.95,-264.89 1265,-199 1266.66,-183.49 1268.27,-165.86 1269.4,-152.88"/>
<polygon fill="midnightblue" stroke="midnightblue" points="1272.9,-153.1 1270.27,-142.84 1265.92,-152.5 1272.9,-153.1"/>
</g>
<!-- Node29&#45;&gt;Node19 -->
<g id="edge69" class="edge">
<title>Node29&#45;&gt;Node19</title>
<path fill="none" stroke="midnightblue" d="M1361.09,-409.9C1422.95,-406.04 1526.5,-395.4 1550,-367 1591.36,-317.01 1528.09,-239.57 1496.36,-206.2"/>
<polygon fill="midnightblue" stroke="midnightblue" points="1498.55,-203.43 1489.06,-198.71 1493.53,-208.32 1498.55,-203.43"/>
</g>
<!-- Node30 -->
<g id="node30" class="node">
<title>Node30</title>
<g id="a_node30"><a xlink:title=" ">
<polygon fill="white" stroke="#bfbfbf" points="1103,-347.5 1103,-366.5 1153,-366.5 1153,-347.5 1103,-347.5"/>
<text text-anchor="middle" x="1128" y="-354.5" font-family="Helvetica,sans-Serif" font-size="10.00">chrono</text>
</a>
</g>
</g>
<!-- Node29&#45;&gt;Node30 -->
<g id="edge55" class="edge">
<title>Node29&#45;&gt;Node30</title>
<path fill="none" stroke="midnightblue" d="M1284.53,-403.44C1251.52,-393.86 1198.07,-378.34 1162.98,-368.15"/>
<polygon fill="midnightblue" stroke="midnightblue" points="1163.74,-364.73 1153.16,-365.3 1161.79,-371.45 1163.74,-364.73"/>
</g>
<!-- Node31 -->
<g id="node31" class="node">
<title>Node31</title>
<g id="a_node31"><a xlink:href="SystemManager_8hpp.html" target="_top" xlink:title=" ">
<polygon fill="white" stroke="black" points="1256,-347.5 1256,-366.5 1372,-366.5 1372,-347.5 1256,-347.5"/>
<text text-anchor="middle" x="1314" y="-354.5" font-family="Helvetica,sans-Serif" font-size="10.00">SystemManager.hpp</text>
</a>
</g>
</g>
<!-- Node29&#45;&gt;Node31 -->
<g id="edge59" class="edge">
<title>Node29&#45;&gt;Node31</title>
<path fill="none" stroke="midnightblue" d="M1314,-403.08C1314,-396.01 1314,-385.86 1314,-376.99"/>
<polygon fill="midnightblue" stroke="midnightblue" points="1317.5,-376.75 1314,-366.75 1310.5,-376.75 1317.5,-376.75"/>
</g>
<!-- Node31&#45;&gt;Node11 -->
<g id="edge63" class="edge">
<title>Node31&#45;&gt;Node11</title>
<path fill="none" stroke="midnightblue" d="M1303.59,-347.48C1288.25,-334.97 1258.62,-310.93 1233,-291 1179.4,-249.3 1141.29,-259.78 1111,-199 1103.59,-184.13 1109.19,-165.52 1115.55,-152.03"/>
<polygon fill="midnightblue" stroke="midnightblue" points="1118.82,-153.33 1120.36,-142.85 1112.62,-150.08 1118.82,-153.33"/>
</g>
<!-- Node31&#45;&gt;Node12 -->
<g id="edge60" class="edge">
<title>Node31&#45;&gt;Node12</title>
<path fill="none" stroke="midnightblue" d="M1316.55,-347.3C1326.13,-314.56 1360.15,-198.38 1373.53,-152.67"/>
<polygon fill="midnightblue" stroke="midnightblue" points="1376.95,-153.46 1376.4,-142.88 1370.23,-151.5 1376.95,-153.46"/>
</g>
<!-- Node31&#45;&gt;Node13 -->
<g id="edge61" class="edge">
<title>Node31&#45;&gt;Node13</title>
<path fill="none" stroke="midnightblue" d="M1255.99,-354.81C1182.32,-350.06 1056.22,-330.53 985,-255 955.8,-224.03 935.72,-177.42 926.24,-152.04"/>
<polygon fill="midnightblue" stroke="midnightblue" points="929.51,-150.79 922.83,-142.57 922.92,-153.16 929.51,-150.79"/>
</g>
<!-- Node31&#45;&gt;Node15 -->
<g id="edge68" class="edge">
<title>Node31&#45;&gt;Node15</title>
<path fill="none" stroke="midnightblue" d="M1279.75,-347.48C1201.52,-327.67 1015.13,-278.46 998,-255 975.54,-224.25 993.37,-177.22 1006.07,-151.8"/>
<polygon fill="midnightblue" stroke="midnightblue" points="1009.34,-153.1 1010.91,-142.62 1003.15,-149.83 1009.34,-153.1"/>
</g>
<!-- Node31&#45;&gt;Node17 -->
<g id="edge62" class="edge">
<title>Node31&#45;&gt;Node17</title>
<path fill="none" stroke="midnightblue" d="M1359.37,-347.48C1393.24,-340.21 1440.17,-328.18 1479,-311 1560.39,-274.99 1581.04,-260.88 1645,-199 1660.13,-184.36 1674.46,-164.95 1683.87,-151.16"/>
<polygon fill="midnightblue" stroke="midnightblue" points="1686.92,-152.9 1689.55,-142.64 1681.09,-149.02 1686.92,-152.9"/>
</g>
<!-- Node32 -->
<g id="node32" class="node">
<title>Node32</title>
<g id="a_node32"><a xlink:href="ASystem_8hpp.html" target="_top" xlink:title=" ">
<polygon fill="white" stroke="black" points="1388.5,-291.5 1388.5,-310.5 1469.5,-310.5 1469.5,-291.5 1388.5,-291.5"/>
<text text-anchor="middle" x="1429" y="-298.5" font-family="Helvetica,sans-Serif" font-size="10.00">ASystem.hpp</text>
</a>
</g>
</g>
<!-- Node31&#45;&gt;Node32 -->
<g id="edge64" class="edge">
<title>Node31&#45;&gt;Node32</title>
<path fill="none" stroke="midnightblue" d="M1332.22,-347.44C1350.9,-338.68 1380.16,-324.94 1401.62,-314.86"/>
<polygon fill="midnightblue" stroke="midnightblue" points="1403.3,-317.93 1410.86,-310.52 1400.32,-311.6 1403.3,-317.93"/>
</g>
<!-- Node32&#45;&gt;Node9 -->
<g id="edge67" class="edge">
<title>Node32&#45;&gt;Node9</title>
<path fill="none" stroke="midnightblue" d="M1388.37,-294.37C1314.21,-284.11 1157.59,-262.42 1081.84,-251.93"/>
<polygon fill="midnightblue" stroke="midnightblue" points="1082.08,-248.43 1071.7,-250.53 1081.12,-255.37 1082.08,-248.43"/>
</g>
<!-- Node32&#45;&gt;Node14 -->
<g id="edge66" class="edge">
<title>Node32&#45;&gt;Node14</title>
<path fill="none" stroke="midnightblue" d="M1450.19,-291.46C1481.6,-277.48 1539.35,-246.45 1563,-199 1570.16,-184.64 1569.06,-166.18 1566.66,-152.6"/>
<polygon fill="midnightblue" stroke="midnightblue" points="1570.02,-151.59 1564.5,-142.55 1563.18,-153.06 1570.02,-151.59"/>
</g>
<!-- Node32&#45;&gt;Node17 -->
<g id="edge65" class="edge">
<title>Node32&#45;&gt;Node17</title>
<path fill="none" stroke="midnightblue" d="M1455.72,-291.37C1478.6,-283.44 1512.02,-270.59 1539,-255 1593.86,-223.29 1650.84,-174.28 1678.27,-149.49"/>
<polygon fill="midnightblue" stroke="midnightblue" points="1680.77,-151.94 1685.8,-142.62 1676.05,-146.77 1680.77,-151.94"/>
</g>
<!-- Node33&#45;&gt;Node3 -->
<g id="edge72" class="edge">
<title>Node33&#45;&gt;Node3</title>
<path fill="none" stroke="midnightblue" d="M749.59,-347.3C729.07,-314.29 655.79,-196.4 627.89,-151.52"/>
<polygon fill="midnightblue" stroke="midnightblue" points="630.77,-149.53 622.52,-142.88 624.83,-153.22 630.77,-149.53"/>
</g>
<!-- Node33&#45;&gt;Node10 -->
<g id="edge71" class="edge">
<title>Node33&#45;&gt;Node10</title>
<path fill="none" stroke="midnightblue" d="M757.78,-347.3C768.25,-314.56 805.41,-198.38 820.03,-152.67"/>
<polygon fill="midnightblue" stroke="midnightblue" points="823.45,-153.47 823.16,-142.88 816.78,-151.34 823.45,-153.47"/>
</g>
<!-- Node33&#45;&gt;Node25 -->
<g id="edge73" class="edge">
<title>Node33&#45;&gt;Node25</title>
<path fill="none" stroke="midnightblue" d="M711.68,-351.3C618.64,-341.21 400.37,-317.55 304.07,-307.1"/>
<polygon fill="midnightblue" stroke="midnightblue" points="304.36,-303.61 294.04,-306.02 303.6,-310.57 304.36,-303.61"/>
</g>
<!-- Node34&#45;&gt;Node22 -->
<g id="edge76" class="edge">
<title>Node34&#45;&gt;Node22</title>
<path fill="none" stroke="midnightblue" d="M388.46,-406.47C331.97,-396.88 215.52,-377.11 150.16,-366.01"/>
<polygon fill="midnightblue" stroke="midnightblue" points="150.57,-362.53 140.13,-364.3 149.4,-369.43 150.57,-362.53"/>
</g>
<!-- Node34&#45;&gt;Node23 -->
<g id="edge75" class="edge">
<title>Node34&#45;&gt;Node23</title>
<path fill="none" stroke="midnightblue" d="M431.13,-403.33C444.22,-391.03 464.29,-367.68 455,-347 437,-306.91 394.31,-276.3 366.59,-259.76"/>
<polygon fill="midnightblue" stroke="midnightblue" points="368.23,-256.67 357.82,-254.7 364.73,-262.73 368.23,-256.67"/>
</g>
<!-- Node35&#45;&gt;Node23 -->
<g id="edge78" class="edge">
<title>Node35&#45;&gt;Node23</title>
<path fill="none" stroke="midnightblue" d="M511.23,-403.23C501.54,-381.54 473.74,-324.74 435,-291 418.15,-276.33 395.69,-265.34 376.95,-257.9"/>
<polygon fill="midnightblue" stroke="midnightblue" points="378.13,-254.6 367.53,-254.33 375.64,-261.14 378.13,-254.6"/>
</g>
<!-- Node36 -->
<g id="node36" class="node">
<title>Node36</title>
<g id="a_node36"><a xlink:href="Color_8hpp.html" target="_top" xlink:title=" ">
<polygon fill="white" stroke="black" points="384,-347.5 384,-366.5 446,-366.5 446,-347.5 384,-347.5"/>
<text text-anchor="middle" x="415" y="-354.5" font-family="Helvetica,sans-Serif" font-size="10.00">Color.hpp</text>
</a>
</g>
</g>
<!-- Node35&#45;&gt;Node36 -->
<g id="edge79" class="edge">
<title>Node35&#45;&gt;Node36</title>
<path fill="none" stroke="midnightblue" d="M498.93,-403.32C483.04,-394.74 458.49,-381.49 440.04,-371.52"/>
<polygon fill="midnightblue" stroke="midnightblue" points="441.49,-368.33 431.03,-366.65 438.16,-374.49 441.49,-368.33"/>
</g>
<!-- Node36&#45;&gt;Node23 -->
<g id="edge80" class="edge">
<title>Node36&#45;&gt;Node23</title>
<path fill="none" stroke="midnightblue" d="M409.19,-347.37C396.98,-329.22 368.45,-286.8 352.43,-262.99"/>
<polygon fill="midnightblue" stroke="midnightblue" points="355.27,-260.94 346.78,-254.59 349.46,-264.84 355.27,-260.94"/>
</g>
<!-- Node36&#45;&gt;Node25 -->
<g id="edge81" class="edge">
<title>Node36&#45;&gt;Node25</title>
<path fill="none" stroke="midnightblue" d="M389.96,-347.44C363.38,-338.36 321.19,-323.94 291.48,-313.78"/>
<polygon fill="midnightblue" stroke="midnightblue" points="292.51,-310.44 281.92,-310.52 290.25,-317.06 292.51,-310.44"/>
</g>
<!-- Node37&#45;&gt;Node22 -->
<g id="edge84" class="edge">
<title>Node37&#45;&gt;Node22</title>
<path fill="none" stroke="midnightblue" d="M180.22,-403.32C165.73,-394.82 143.43,-381.73 126.51,-371.8"/>
<polygon fill="midnightblue" stroke="midnightblue" points="128.14,-368.7 117.74,-366.65 124.6,-374.74 128.14,-368.7"/>
</g>
<!-- Node37&#45;&gt;Node23 -->
<g id="edge83" class="edge">
<title>Node37&#45;&gt;Node23</title>
<path fill="none" stroke="midnightblue" d="M193.33,-403.2C189.74,-381.44 183.67,-324.49 211,-291 217.16,-283.45 268.27,-267.25 304.54,-256.48"/>
<polygon fill="midnightblue" stroke="midnightblue" points="305.72,-259.79 314.32,-253.61 303.74,-253.07 305.72,-259.79"/>
</g>
<!-- Node37&#45;&gt;Node25 -->
<g id="edge85" class="edge">
<title>Node37&#45;&gt;Node25</title>
<path fill="none" stroke="midnightblue" d="M198.6,-403.37C203.99,-390.7 214.74,-366.48 226,-347 231.58,-337.35 238.57,-327.08 244.5,-318.79"/>
<polygon fill="midnightblue" stroke="midnightblue" points="247.33,-320.84 250.4,-310.69 241.68,-316.71 247.33,-320.84"/>
</g>
<!-- Node38 -->
<g id="node38" class="node">
<title>Node38</title>
<g id="a_node38"><a xlink:href="Ray_8hpp.html" target="_top" xlink:title=" ">
<polygon fill="white" stroke="black" points="234.5,-347.5 234.5,-366.5 289.5,-366.5 289.5,-347.5 234.5,-347.5"/>
<text text-anchor="middle" x="262" y="-354.5" font-family="Helvetica,sans-Serif" font-size="10.00">Ray.hpp</text>
</a>
</g>
</g>
<!-- Node37&#45;&gt;Node38 -->
<g id="edge86" class="edge">
<title>Node37&#45;&gt;Node38</title>
<path fill="none" stroke="midnightblue" d="M205.76,-403.32C215.77,-395.26 230.89,-383.08 242.93,-373.37"/>
<polygon fill="midnightblue" stroke="midnightblue" points="245.45,-375.83 251.04,-366.83 241.06,-370.38 245.45,-375.83"/>
</g>
<!-- Node38&#45;&gt;Node25 -->
<g id="edge87" class="edge">
<title>Node38&#45;&gt;Node25</title>
<path fill="none" stroke="midnightblue" d="M261.17,-347.08C260.52,-340.01 259.58,-329.86 258.76,-320.99"/>
<polygon fill="midnightblue" stroke="midnightblue" points="262.22,-320.39 257.81,-310.75 255.25,-321.03 262.22,-320.39"/>
</g>
<!-- Node39&#45;&gt;Node22 -->
<g id="edge90" class="edge">
<title>Node39&#45;&gt;Node22</title>
<path fill="none" stroke="midnightblue" d="M262.89,-403.44C230.37,-394.2 178.42,-379.44 142.61,-369.26"/>
<polygon fill="midnightblue" stroke="midnightblue" points="143.54,-365.88 132.97,-366.52 141.63,-372.62 143.54,-365.88"/>
</g>
<!-- Node39&#45;&gt;Node23 -->
<g id="edge89" class="edge">
<title>Node39&#45;&gt;Node23</title>
<path fill="none" stroke="midnightblue" d="M295.58,-403.08C303.14,-376.95 325.32,-300.21 335.63,-264.58"/>
<polygon fill="midnightblue" stroke="midnightblue" points="339.11,-265.15 338.52,-254.57 332.38,-263.2 339.11,-265.15"/>
</g>
<!-- Node39&#45;&gt;Node38 -->
<g id="edge91" class="edge">
<title>Node39&#45;&gt;Node38</title>
<path fill="none" stroke="midnightblue" d="M287.88,-403.08C283.59,-395.61 277.34,-384.72 272.06,-375.52"/>
<polygon fill="midnightblue" stroke="midnightblue" points="275.04,-373.68 267.02,-366.75 268.97,-377.17 275.04,-373.68"/>
</g>
</g>
</svg>
