<?xml version="1.0" encoding="UTF-8" standalone="no"?>
<!DOCTYPE svg PUBLIC "-//W3C//DTD SVG 1.1//EN"
 "http://www.w3.org/Graphics/SVG/1.1/DTD/svg11.dtd">
<!-- Generated by graphviz version 2.43.0 (0)
 -->
<!-- Title: Libs/Engine/sources/Components/Drawable3D/Drawable3D.cpp Pages: 1 -->
<svg width="1259pt" height="509pt"
 viewBox="0.00 0.00 1258.50 509.00" xmlns="http://www.w3.org/2000/svg" xmlns:xlink="http://www.w3.org/1999/xlink">
<g id="graph0" class="graph" transform="scale(1 1) rotate(0) translate(4 505)">
<title>Libs/Engine/sources/Components/Drawable3D/Drawable3D.cpp</title>
<polygon fill="white" stroke="transparent" points="-4,4 -4,-505 1254.5,-505 1254.5,4 -4,4"/>
<!-- Node1 -->
<g id="node1" class="node">
<title>Node1</title>
<g id="a_node1"><a xlink:title=" ">
<polygon fill="#bfbfbf" stroke="black" points="927.5,-459.5 927.5,-500.5 1071.5,-500.5 1071.5,-459.5 927.5,-459.5"/>
<text text-anchor="start" x="935.5" y="-488.5" font-family="Helvetica,sans-Serif" font-size="10.00">Libs/Engine/sources</text>
<text text-anchor="start" x="935.5" y="-477.5" font-family="Helvetica,sans-Serif" font-size="10.00">/Components/Drawable3D</text>
<text text-anchor="middle" x="999.5" y="-466.5" font-family="Helvetica,sans-Serif" font-size="10.00">/Drawable3D.cpp</text>
</a>
</g>
</g>
<!-- Node2 -->
<g id="node2" class="node">
<title>Node2</title>
<g id="a_node2"><a xlink:href="Drawable3D_8hpp.html" target="_top" xlink:title=" ">
<polygon fill="white" stroke="black" points="841.5,-403.5 841.5,-422.5 939.5,-422.5 939.5,-403.5 841.5,-403.5"/>
<text text-anchor="middle" x="890.5" y="-410.5" font-family="Helvetica,sans-Serif" font-size="10.00">Drawable3D.hpp</text>
</a>
</g>
</g>
<!-- Node1&#45;&gt;Node2 -->
<g id="edge1" class="edge">
<title>Node1&#45;&gt;Node2</title>
<path fill="none" stroke="midnightblue" d="M966.8,-459.5C949.76,-449.34 929.33,-437.16 913.9,-427.95"/>
<polygon fill="midnightblue" stroke="midnightblue" points="915.39,-424.77 905.01,-422.65 911.81,-430.78 915.39,-424.77"/>
</g>
<!-- Node30 -->
<g id="node30" class="node">
<title>Node30</title>
<g id="a_node30"><a xlink:href="AssetCache_8hpp.html" target="_top" xlink:title=" ">
<polygon fill="white" stroke="black" points="1061,-403.5 1061,-422.5 1156,-422.5 1156,-403.5 1061,-403.5"/>
<text text-anchor="middle" x="1108.5" y="-410.5" font-family="Helvetica,sans-Serif" font-size="10.00">AssetCache.hpp</text>
</a>
</g>
</g>
<!-- Node1&#45;&gt;Node30 -->
<g id="edge65" class="edge">
<title>Node1&#45;&gt;Node30</title>
<path fill="none" stroke="midnightblue" d="M1032.2,-459.5C1049.24,-449.34 1069.67,-437.16 1085.1,-427.95"/>
<polygon fill="midnightblue" stroke="midnightblue" points="1087.19,-430.78 1093.99,-422.65 1083.61,-424.77 1087.19,-430.78"/>
</g>
<!-- Node3 -->
<g id="node3" class="node">
<title>Node3</title>
<g id="a_node3"><a xlink:title=" ">
<polygon fill="white" stroke="#bfbfbf" points="515,-67.5 515,-86.5 568,-86.5 568,-67.5 515,-67.5"/>
<text text-anchor="middle" x="541.5" y="-74.5" font-family="Helvetica,sans-Serif" font-size="10.00">raylib.h</text>
</a>
</g>
</g>
<!-- Node2&#45;&gt;Node3 -->
<g id="edge2" class="edge">
<title>Node2&#45;&gt;Node3</title>
<path fill="none" stroke="midnightblue" d="M939.74,-406.6C973.53,-400.99 1018.13,-389.67 1051.5,-367 1107.39,-329.04 1143.5,-313.56 1143.5,-246 1143.5,-246 1143.5,-246 1143.5,-188 1143.5,-130.26 709.4,-91.26 578.45,-80.81"/>
<polygon fill="midnightblue" stroke="midnightblue" points="578.39,-77.3 568.14,-80 577.84,-84.27 578.39,-77.3"/>
</g>
<!-- Node4 -->
<g id="node4" class="node">
<title>Node4</title>
<g id="a_node4"><a xlink:href="Model_8hpp.html" target="_top" xlink:title=" ">
<polygon fill="white" stroke="black" points="607.5,-347.5 607.5,-366.5 675.5,-366.5 675.5,-347.5 607.5,-347.5"/>
<text text-anchor="middle" x="641.5" y="-354.5" font-family="Helvetica,sans-Serif" font-size="10.00">Model.hpp</text>
</a>
</g>
</g>
<!-- Node2&#45;&gt;Node4 -->
<g id="edge3" class="edge">
<title>Node2&#45;&gt;Node4</title>
<path fill="none" stroke="midnightblue" d="M851.05,-403.44C805.95,-393.66 732.33,-377.7 685.44,-367.53"/>
<polygon fill="midnightblue" stroke="midnightblue" points="686.08,-364.09 675.57,-365.39 684.6,-370.93 686.08,-364.09"/>
</g>
<!-- Node22 -->
<g id="node22" class="node">
<title>Node22</title>
<g id="a_node22"><a xlink:href="Mesh_8hpp.html" target="_top" xlink:title=" ">
<polygon fill="white" stroke="black" points="792.5,-291.5 792.5,-310.5 856.5,-310.5 856.5,-291.5 792.5,-291.5"/>
<text text-anchor="middle" x="824.5" y="-298.5" font-family="Helvetica,sans-Serif" font-size="10.00">Mesh.hpp</text>
</a>
</g>
</g>
<!-- Node2&#45;&gt;Node22 -->
<g id="edge60" class="edge">
<title>Node2&#45;&gt;Node22</title>
<path fill="none" stroke="midnightblue" d="M885.32,-403.37C874.48,-385.3 849.21,-343.18 834.88,-319.31"/>
<polygon fill="midnightblue" stroke="midnightblue" points="837.8,-317.37 829.65,-310.59 831.8,-320.97 837.8,-317.37"/>
</g>
<!-- Node24 -->
<g id="node24" class="node">
<title>Node24</title>
<g id="a_node24"><a xlink:href="Shader_8hpp.html" target="_top" xlink:title=" ">
<polygon fill="white" stroke="black" points="881,-291.5 881,-310.5 952,-310.5 952,-291.5 881,-291.5"/>
<text text-anchor="middle" x="916.5" y="-298.5" font-family="Helvetica,sans-Serif" font-size="10.00">Shader.hpp</text>
</a>
</g>
</g>
<!-- Node2&#45;&gt;Node24 -->
<g id="edge61" class="edge">
<title>Node2&#45;&gt;Node24</title>
<path fill="none" stroke="midnightblue" d="M892.54,-403.37C896.74,-385.62 906.42,-344.67 912.1,-320.6"/>
<polygon fill="midnightblue" stroke="midnightblue" points="915.58,-321.13 914.47,-310.59 908.76,-319.52 915.58,-321.13"/>
</g>
<!-- Node27 -->
<g id="node27" class="node">
<title>Node27</title>
<g id="a_node27"><a xlink:href="IComponent_8hpp.html" target="_top" xlink:title=" ">
<polygon fill="white" stroke="black" points="0,-123.5 0,-142.5 97,-142.5 97,-123.5 0,-123.5"/>
<text text-anchor="middle" x="48.5" y="-130.5" font-family="Helvetica,sans-Serif" font-size="10.00">IComponent.hpp</text>
</a>
</g>
</g>
<!-- Node2&#45;&gt;Node27 -->
<g id="edge57" class="edge">
<title>Node2&#45;&gt;Node27</title>
<path fill="none" stroke="midnightblue" d="M841.28,-410.79C661.19,-405.7 48.5,-382.48 48.5,-302 48.5,-302 48.5,-302 48.5,-244 48.5,-211.95 48.5,-174.64 48.5,-152.75"/>
<polygon fill="midnightblue" stroke="midnightblue" points="52,-152.56 48.5,-142.56 45,-152.56 52,-152.56"/>
</g>
<!-- Node28 -->
<g id="node28" class="node">
<title>Node28</title>
<g id="a_node28"><a xlink:href="EngineExceptions_8hpp.html" target="_top" xlink:title=" ">
<polygon fill="white" stroke="black" points="918.5,-347.5 918.5,-366.5 1042.5,-366.5 1042.5,-347.5 918.5,-347.5"/>
<text text-anchor="middle" x="980.5" y="-354.5" font-family="Helvetica,sans-Serif" font-size="10.00">EngineExceptions.hpp</text>
</a>
</g>
</g>
<!-- Node2&#45;&gt;Node28 -->
<g id="edge62" class="edge">
<title>Node2&#45;&gt;Node28</title>
<path fill="none" stroke="midnightblue" d="M904.96,-403.32C919,-394.9 940.55,-381.97 957.04,-372.07"/>
<polygon fill="midnightblue" stroke="midnightblue" points="959.3,-374.8 966.08,-366.65 955.7,-368.8 959.3,-374.8"/>
</g>
<!-- Node4&#45;&gt;Node3 -->
<g id="edge4" class="edge">
<title>Node4&#45;&gt;Node3</title>
<path fill="none" stroke="midnightblue" d="M651.96,-347.41C661.49,-339.05 675.29,-325.51 683.5,-311 713.21,-258.45 745.62,-231.31 715.5,-179 686.03,-127.83 619.6,-100.19 577.88,-87.33"/>
<polygon fill="midnightblue" stroke="midnightblue" points="578.68,-83.91 568.1,-84.44 576.7,-90.63 578.68,-83.91"/>
</g>
<!-- Node5 -->
<g id="node5" class="node">
<title>Node5</title>
<g id="a_node5"><a xlink:title=" ">
<polygon fill="white" stroke="#bfbfbf" points="662.5,-179.5 662.5,-198.5 706.5,-198.5 706.5,-179.5 662.5,-179.5"/>
<text text-anchor="middle" x="684.5" y="-186.5" font-family="Helvetica,sans-Serif" font-size="10.00">string</text>
</a>
</g>
</g>
<!-- Node4&#45;&gt;Node5 -->
<g id="edge5" class="edge">
<title>Node4&#45;&gt;Node5</title>
<path fill="none" stroke="midnightblue" d="M646.54,-347.47C656.23,-330.55 677.11,-291.23 684.5,-255 687.64,-239.61 687.37,-221.73 686.46,-208.63"/>
<polygon fill="midnightblue" stroke="midnightblue" points="689.93,-208.18 685.57,-198.52 682.96,-208.79 689.93,-208.18"/>
</g>
<!-- Node6 -->
<g id="node6" class="node">
<title>Node6</title>
<g id="a_node6"><a xlink:href="Vector3_8hpp.html" target="_top" xlink:title=" ">
<polygon fill="white" stroke="black" points="240.5,-123.5 240.5,-142.5 314.5,-142.5 314.5,-123.5 240.5,-123.5"/>
<text text-anchor="middle" x="277.5" y="-130.5" font-family="Helvetica,sans-Serif" font-size="10.00">Vector3.hpp</text>
</a>
</g>
</g>
<!-- Node4&#45;&gt;Node6 -->
<g id="edge6" class="edge">
<title>Node4&#45;&gt;Node6</title>
<path fill="none" stroke="midnightblue" d="M607.3,-356.71C536.48,-357.21 369.37,-353.34 237.5,-311 189,-295.43 173.67,-290.86 137.5,-255 111.47,-229.2 83.1,-208.01 105.5,-179 120.67,-159.35 184.67,-146.63 230.15,-139.89"/>
<polygon fill="midnightblue" stroke="midnightblue" points="230.73,-143.34 240.13,-138.46 229.73,-136.41 230.73,-143.34"/>
</g>
<!-- Node14 -->
<g id="node14" class="node">
<title>Node14</title>
<g id="a_node14"><a xlink:href="Color_8hpp.html" target="_top" xlink:title=" ">
<polygon fill="white" stroke="black" points="432.5,-179.5 432.5,-198.5 494.5,-198.5 494.5,-179.5 432.5,-179.5"/>
<text text-anchor="middle" x="463.5" y="-186.5" font-family="Helvetica,sans-Serif" font-size="10.00">Color.hpp</text>
</a>
</g>
</g>
<!-- Node4&#45;&gt;Node14 -->
<g id="edge15" class="edge">
<title>Node4&#45;&gt;Node14</title>
<path fill="none" stroke="midnightblue" d="M607.42,-351.94C557,-343.81 464.69,-320.32 429.5,-255 420.6,-238.47 433.22,-219.43 445.53,-206.24"/>
<polygon fill="midnightblue" stroke="midnightblue" points="448.33,-208.4 452.96,-198.87 443.4,-203.43 448.33,-208.4"/>
</g>
<!-- Node15 -->
<g id="node15" class="node">
<title>Node15</title>
<g id="a_node15"><a xlink:href="Texture_8hpp.html" target="_top" xlink:title=" ">
<polygon fill="white" stroke="black" points="523.5,-291.5 523.5,-310.5 597.5,-310.5 597.5,-291.5 523.5,-291.5"/>
<text text-anchor="middle" x="560.5" y="-298.5" font-family="Helvetica,sans-Serif" font-size="10.00">Texture.hpp</text>
</a>
</g>
</g>
<!-- Node4&#45;&gt;Node15 -->
<g id="edge18" class="edge">
<title>Node4&#45;&gt;Node15</title>
<path fill="none" stroke="midnightblue" d="M628.49,-347.32C615.97,-338.98 596.82,-326.21 582.03,-316.35"/>
<polygon fill="midnightblue" stroke="midnightblue" points="583.74,-313.29 573.48,-310.65 579.86,-319.11 583.74,-313.29"/>
</g>
<!-- Node4&#45;&gt;Node22 -->
<g id="edge42" class="edge">
<title>Node4&#45;&gt;Node22</title>
<path fill="none" stroke="midnightblue" d="M670.5,-347.44C701.68,-338.24 751.43,-323.56 785.91,-313.39"/>
<polygon fill="midnightblue" stroke="midnightblue" points="787.04,-316.7 795.64,-310.52 785.06,-309.99 787.04,-316.7"/>
</g>
<!-- Node23 -->
<g id="node23" class="node">
<title>Node23</title>
<g id="a_node23"><a xlink:href="IDrawable_8hpp.html" target="_top" xlink:title=" ">
<polygon fill="white" stroke="black" points="265,-235.5 265,-254.5 352,-254.5 352,-235.5 265,-235.5"/>
<text text-anchor="middle" x="308.5" y="-242.5" font-family="Helvetica,sans-Serif" font-size="10.00">IDrawable.hpp</text>
</a>
</g>
</g>
<!-- Node4&#45;&gt;Node23 -->
<g id="edge47" class="edge">
<title>Node4&#45;&gt;Node23</title>
<path fill="none" stroke="midnightblue" d="M607.17,-353.25C542.94,-347.64 407.42,-333.47 366.5,-311 346.08,-299.79 329.24,-278.53 319.06,-263.38"/>
<polygon fill="midnightblue" stroke="midnightblue" points="321.95,-261.41 313.61,-254.88 316.06,-265.19 321.95,-261.41"/>
</g>
<!-- Node4&#45;&gt;Node24 -->
<g id="edge51" class="edge">
<title>Node4&#45;&gt;Node24</title>
<path fill="none" stroke="midnightblue" d="M675.77,-349.27C725.01,-339.6 815.86,-321.76 870.77,-310.98"/>
<polygon fill="midnightblue" stroke="midnightblue" points="871.78,-314.35 880.92,-308.99 870.44,-307.48 871.78,-314.35"/>
</g>
<!-- Node26 -->
<g id="node26" class="node">
<title>Node26</title>
<g id="a_node26"><a xlink:title=" ">
<polygon fill="white" stroke="#bfbfbf" points="247,-291.5 247,-310.5 314,-310.5 314,-291.5 247,-291.5"/>
<text text-anchor="middle" x="280.5" y="-298.5" font-family="Helvetica,sans-Serif" font-size="10.00">raymath.h</text>
</a>
</g>
</g>
<!-- Node4&#45;&gt;Node26 -->
<g id="edge56" class="edge">
<title>Node4&#45;&gt;Node26</title>
<path fill="none" stroke="midnightblue" d="M607.15,-351.55C549.47,-343.96 429.51,-327.72 328.5,-311 327.04,-310.76 325.55,-310.51 324.05,-310.25"/>
<polygon fill="midnightblue" stroke="midnightblue" points="324.49,-306.77 314.04,-308.48 323.27,-313.67 324.49,-306.77"/>
</g>
<!-- Node6&#45;&gt;Node3 -->
<g id="edge7" class="edge">
<title>Node6&#45;&gt;Node3</title>
<path fill="none" stroke="midnightblue" d="M314.76,-124.38C365.19,-114.06 454.59,-95.78 504.75,-85.52"/>
<polygon fill="midnightblue" stroke="midnightblue" points="505.73,-88.89 514.83,-83.46 504.33,-82.03 505.73,-88.89"/>
</g>
<!-- Node7 -->
<g id="node7" class="node">
<title>Node7</title>
<g id="a_node7"><a xlink:href="IXMLSerializable_8hpp.html" target="_top" xlink:title=" ">
<polygon fill="white" stroke="black" points="77,-67.5 77,-86.5 196,-86.5 196,-67.5 77,-67.5"/>
<text text-anchor="middle" x="136.5" y="-74.5" font-family="Helvetica,sans-Serif" font-size="10.00">IXMLSerializable.hpp</text>
</a>
</g>
</g>
<!-- Node6&#45;&gt;Node7 -->
<g id="edge8" class="edge">
<title>Node6&#45;&gt;Node7</title>
<path fill="none" stroke="midnightblue" d="M255.16,-123.44C231.75,-114.48 194.76,-100.31 168.31,-90.18"/>
<polygon fill="midnightblue" stroke="midnightblue" points="169.33,-86.82 158.74,-86.52 166.82,-93.36 169.33,-86.82"/>
</g>
<!-- Node12 -->
<g id="node12" class="node">
<title>Node12</title>
<g id="a_node12"><a xlink:title=" ">
<polygon fill="white" stroke="#bfbfbf" points="214,-67.5 214,-86.5 261,-86.5 261,-67.5 214,-67.5"/>
<text text-anchor="middle" x="237.5" y="-74.5" font-family="Helvetica,sans-Serif" font-size="10.00">cmath</text>
</a>
</g>
</g>
<!-- Node6&#45;&gt;Node12 -->
<g id="edge13" class="edge">
<title>Node6&#45;&gt;Node12</title>
<path fill="none" stroke="midnightblue" d="M270.89,-123.08C265.24,-115.46 256.96,-104.26 250.05,-94.94"/>
<polygon fill="midnightblue" stroke="midnightblue" points="252.75,-92.7 243.98,-86.75 247.12,-96.87 252.75,-92.7"/>
</g>
<!-- Node13 -->
<g id="node13" class="node">
<title>Node13</title>
<g id="a_node13"><a xlink:title=" ">
<polygon fill="white" stroke="#bfbfbf" points="279.5,-67.5 279.5,-86.5 335.5,-86.5 335.5,-67.5 279.5,-67.5"/>
<text text-anchor="middle" x="307.5" y="-74.5" font-family="Helvetica,sans-Serif" font-size="10.00">sstream</text>
</a>
</g>
</g>
<!-- Node6&#45;&gt;Node13 -->
<g id="edge14" class="edge">
<title>Node6&#45;&gt;Node13</title>
<path fill="none" stroke="midnightblue" d="M282.45,-123.08C286.6,-115.61 292.65,-104.72 297.77,-95.52"/>
<polygon fill="midnightblue" stroke="midnightblue" points="300.84,-97.19 302.64,-86.75 294.72,-93.79 300.84,-97.19"/>
</g>
<!-- Node8 -->
<g id="node8" class="node">
<title>Node8</title>
<g id="a_node8"><a xlink:title=" ">
<polygon fill="white" stroke="#bfbfbf" points="5,-6 5,-25 62,-25 62,-6 5,-6"/>
<text text-anchor="middle" x="33.5" y="-13" font-family="Helvetica,sans-Serif" font-size="10.00">ostream</text>
</a>
</g>
</g>
<!-- Node7&#45;&gt;Node8 -->
<g id="edge9" class="edge">
<title>Node7&#45;&gt;Node8</title>
<path fill="none" stroke="midnightblue" d="M121.74,-67.48C104.84,-57.71 76.92,-41.58 57.01,-30.08"/>
<polygon fill="midnightblue" stroke="midnightblue" points="58.64,-26.98 48.23,-25.01 55.14,-33.04 58.64,-26.98"/>
</g>
<!-- Node9 -->
<g id="node9" class="node">
<title>Node9</title>
<g id="a_node9"><a xlink:title=" ">
<polygon fill="white" stroke="#bfbfbf" points="342.5,-6 342.5,-25 402.5,-25 402.5,-6 342.5,-6"/>
<text text-anchor="middle" x="372.5" y="-13" font-family="Helvetica,sans-Serif" font-size="10.00">iostream</text>
</a>
</g>
</g>
<!-- Node7&#45;&gt;Node9 -->
<g id="edge10" class="edge">
<title>Node7&#45;&gt;Node9</title>
<path fill="none" stroke="midnightblue" d="M180.88,-67.42C220.87,-59.32 281.1,-46.16 332.5,-31 335.13,-30.22 337.84,-29.37 340.55,-28.47"/>
<polygon fill="midnightblue" stroke="midnightblue" points="341.93,-31.7 350.23,-25.12 339.64,-25.08 341.93,-31.7"/>
</g>
<!-- Node10 -->
<g id="node10" class="node">
<title>Node10</title>
<g id="a_node10"><a xlink:title=" ">
<polygon fill="white" stroke="#bfbfbf" points="80,-0.5 80,-30.5 193,-30.5 193,-0.5 80,-0.5"/>
<text text-anchor="start" x="88" y="-18.5" font-family="Helvetica,sans-Serif" font-size="10.00">boost/property_tree</text>
<text text-anchor="middle" x="136.5" y="-7.5" font-family="Helvetica,sans-Serif" font-size="10.00">/ptree.hpp</text>
</a>
</g>
</g>
<!-- Node7&#45;&gt;Node10 -->
<g id="edge11" class="edge">
<title>Node7&#45;&gt;Node10</title>
<path fill="none" stroke="midnightblue" d="M136.5,-67.48C136.5,-60.47 136.5,-50.19 136.5,-40.7"/>
<polygon fill="midnightblue" stroke="midnightblue" points="140,-40.52 136.5,-30.52 133,-40.52 140,-40.52"/>
</g>
<!-- Node11 -->
<g id="node11" class="node">
<title>Node11</title>
<g id="a_node11"><a xlink:title=" ">
<polygon fill="white" stroke="#bfbfbf" points="211,-0.5 211,-30.5 324,-30.5 324,-0.5 211,-0.5"/>
<text text-anchor="start" x="219" y="-18.5" font-family="Helvetica,sans-Serif" font-size="10.00">boost/property_tree</text>
<text text-anchor="middle" x="267.5" y="-7.5" font-family="Helvetica,sans-Serif" font-size="10.00">/xml_parser.hpp</text>
</a>
</g>
</g>
<!-- Node7&#45;&gt;Node11 -->
<g id="edge12" class="edge">
<title>Node7&#45;&gt;Node11</title>
<path fill="none" stroke="midnightblue" d="M155.27,-67.48C174.01,-58.96 203.39,-45.62 227.39,-34.72"/>
<polygon fill="midnightblue" stroke="midnightblue" points="228.97,-37.85 236.63,-30.52 226.07,-31.47 228.97,-37.85"/>
</g>
<!-- Node14&#45;&gt;Node3 -->
<g id="edge16" class="edge">
<title>Node14&#45;&gt;Node3</title>
<path fill="none" stroke="midnightblue" d="M469.54,-179.12C478.1,-166.55 494.32,-142.9 508.5,-123 515.19,-113.61 522.79,-103.23 529.01,-94.81"/>
<polygon fill="midnightblue" stroke="midnightblue" points="531.96,-96.7 535.1,-86.58 526.34,-92.53 531.96,-96.7"/>
</g>
<!-- Node14&#45;&gt;Node6 -->
<g id="edge17" class="edge">
<title>Node14&#45;&gt;Node6</title>
<path fill="none" stroke="midnightblue" d="M434.03,-179.44C402.33,-170.24 351.77,-155.56 316.73,-145.39"/>
<polygon fill="midnightblue" stroke="midnightblue" points="317.41,-141.94 306.83,-142.52 315.46,-148.67 317.41,-141.94"/>
</g>
<!-- Node15&#45;&gt;Node3 -->
<g id="edge19" class="edge">
<title>Node15&#45;&gt;Node3</title>
<path fill="none" stroke="midnightblue" d="M559.76,-291.3C556.96,-258.63 547.05,-142.87 543.12,-96.96"/>
<polygon fill="midnightblue" stroke="midnightblue" points="546.6,-96.55 542.26,-86.88 539.63,-97.15 546.6,-96.55"/>
</g>
<!-- Node15&#45;&gt;Node5 -->
<g id="edge20" class="edge">
<title>Node15&#45;&gt;Node5</title>
<path fill="none" stroke="midnightblue" d="M597.56,-292.56C620.14,-286.2 647.94,-274.82 665.5,-255 676.82,-242.23 681.41,-223.03 683.27,-208.81"/>
<polygon fill="midnightblue" stroke="midnightblue" points="686.77,-208.98 684.24,-198.69 679.8,-208.31 686.77,-208.98"/>
</g>
<!-- Node15&#45;&gt;Node14 -->
<g id="edge30" class="edge">
<title>Node15&#45;&gt;Node14</title>
<path fill="none" stroke="midnightblue" d="M523.3,-297.42C494.62,-293.24 456.71,-282.49 437.5,-255 427.01,-239.99 437.88,-220.12 448.6,-206.32"/>
<polygon fill="midnightblue" stroke="midnightblue" points="451.32,-208.52 455.06,-198.61 445.96,-204.03 451.32,-208.52"/>
</g>
<!-- Node16 -->
<g id="node16" class="node">
<title>Node16</title>
<g id="a_node16"><a xlink:href="Image_8hpp.html" target="_top" xlink:title=" ">
<polygon fill="white" stroke="black" points="588.5,-235.5 588.5,-254.5 656.5,-254.5 656.5,-235.5 588.5,-235.5"/>
<text text-anchor="middle" x="622.5" y="-242.5" font-family="Helvetica,sans-Serif" font-size="10.00">Image.hpp</text>
</a>
</g>
</g>
<!-- Node15&#45;&gt;Node16 -->
<g id="edge21" class="edge">
<title>Node15&#45;&gt;Node16</title>
<path fill="none" stroke="midnightblue" d="M570.46,-291.32C579.63,-283.34 593.44,-271.31 604.53,-261.65"/>
<polygon fill="midnightblue" stroke="midnightblue" points="607.12,-264.04 612.36,-254.83 602.52,-258.76 607.12,-264.04"/>
</g>
<!-- Node17 -->
<g id="node17" class="node">
<title>Node17</title>
<g id="a_node17"><a xlink:href="Vector2_8hpp.html" target="_top" xlink:title=" ">
<polygon fill="white" stroke="black" points="114.5,-179.5 114.5,-198.5 188.5,-198.5 188.5,-179.5 114.5,-179.5"/>
<text text-anchor="middle" x="151.5" y="-186.5" font-family="Helvetica,sans-Serif" font-size="10.00">Vector2.hpp</text>
</a>
</g>
</g>
<!-- Node15&#45;&gt;Node17 -->
<g id="edge31" class="edge">
<title>Node15&#45;&gt;Node17</title>
<path fill="none" stroke="midnightblue" d="M523.38,-298.72C426.78,-295 173.33,-282.69 148.5,-255 137.44,-242.67 140.03,-223.14 144.27,-208.7"/>
<polygon fill="midnightblue" stroke="midnightblue" points="147.71,-209.45 147.63,-198.86 141.09,-207.19 147.71,-209.45"/>
</g>
<!-- Node18 -->
<g id="node18" class="node">
<title>Node18</title>
<g id="a_node18"><a xlink:href="Camera3D_8hpp.html" target="_top" xlink:title=" ">
<polygon fill="white" stroke="black" points="158,-235.5 158,-254.5 247,-254.5 247,-235.5 158,-235.5"/>
<text text-anchor="middle" x="202.5" y="-242.5" font-family="Helvetica,sans-Serif" font-size="10.00">Camera3D.hpp</text>
</a>
</g>
</g>
<!-- Node15&#45;&gt;Node18 -->
<g id="edge32" class="edge">
<title>Node15&#45;&gt;Node18</title>
<path fill="none" stroke="midnightblue" d="M523.37,-294.79C467.76,-286.92 359.26,-271.35 257.19,-255.24"/>
<polygon fill="midnightblue" stroke="midnightblue" points="257.45,-251.74 247.02,-253.63 256.35,-258.65 257.45,-251.74"/>
</g>
<!-- Node20 -->
<g id="node20" class="node">
<title>Node20</title>
<g id="a_node20"><a xlink:href="Rectangle_8hpp.html" target="_top" xlink:title=" ">
<polygon fill="white" stroke="black" points="446.5,-235.5 446.5,-254.5 532.5,-254.5 532.5,-235.5 446.5,-235.5"/>
<text text-anchor="middle" x="489.5" y="-242.5" font-family="Helvetica,sans-Serif" font-size="10.00">Rectangle.hpp</text>
</a>
</g>
</g>
<!-- Node15&#45;&gt;Node20 -->
<g id="edge38" class="edge">
<title>Node15&#45;&gt;Node20</title>
<path fill="none" stroke="midnightblue" d="M549.09,-291.32C538.39,-283.18 522.16,-270.84 509.34,-261.09"/>
<polygon fill="midnightblue" stroke="midnightblue" points="511.19,-258.1 501.11,-254.83 506.96,-263.67 511.19,-258.1"/>
</g>
<!-- Node21 -->
<g id="node21" class="node">
<title>Node21</title>
<g id="a_node21"><a xlink:href="IAsset_8hpp.html" target="_top" xlink:title=" ">
<polygon fill="white" stroke="black" points="864.5,-235.5 864.5,-254.5 932.5,-254.5 932.5,-235.5 864.5,-235.5"/>
<text text-anchor="middle" x="898.5" y="-242.5" font-family="Helvetica,sans-Serif" font-size="10.00">IAsset.hpp</text>
</a>
</g>
</g>
<!-- Node15&#45;&gt;Node21 -->
<g id="edge41" class="edge">
<title>Node15&#45;&gt;Node21</title>
<path fill="none" stroke="midnightblue" d="M597.64,-294.07C660.31,-284.05 786.79,-263.85 854.07,-253.1"/>
<polygon fill="midnightblue" stroke="midnightblue" points="855.01,-256.49 864.34,-251.46 853.91,-249.58 855.01,-256.49"/>
</g>
<!-- Node16&#45;&gt;Node3 -->
<g id="edge23" class="edge">
<title>Node16&#45;&gt;Node3</title>
<path fill="none" stroke="midnightblue" d="M619.94,-235.45C613.71,-215.19 596.59,-162.95 574.5,-123 568.99,-113.04 561.59,-102.74 555.19,-94.52"/>
<polygon fill="midnightblue" stroke="midnightblue" points="557.76,-92.13 548.78,-86.52 552.3,-96.51 557.76,-92.13"/>
</g>
<!-- Node16&#45;&gt;Node5 -->
<g id="edge22" class="edge">
<title>Node16&#45;&gt;Node5</title>
<path fill="none" stroke="midnightblue" d="M632.46,-235.32C641.63,-227.34 655.44,-215.31 666.53,-205.65"/>
<polygon fill="midnightblue" stroke="midnightblue" points="669.12,-208.04 674.36,-198.83 664.52,-202.76 669.12,-208.04"/>
</g>
<!-- Node16&#45;&gt;Node14 -->
<g id="edge24" class="edge">
<title>Node16&#45;&gt;Node14</title>
<path fill="none" stroke="midnightblue" d="M597.31,-235.44C570.56,-226.36 528.1,-211.94 498.19,-201.78"/>
<polygon fill="midnightblue" stroke="midnightblue" points="499.17,-198.42 488.58,-198.52 496.92,-205.05 499.17,-198.42"/>
</g>
<!-- Node16&#45;&gt;Node17 -->
<g id="edge25" class="edge">
<title>Node16&#45;&gt;Node17</title>
<path fill="none" stroke="midnightblue" d="M588.25,-240.07C505.3,-230.56 293.54,-206.28 198.69,-195.41"/>
<polygon fill="midnightblue" stroke="midnightblue" points="198.86,-191.91 188.53,-194.25 198.06,-198.86 198.86,-191.91"/>
</g>
<!-- Node17&#45;&gt;Node3 -->
<g id="edge26" class="edge">
<title>Node17&#45;&gt;Node3</title>
<path fill="none" stroke="midnightblue" d="M159.34,-179.08C172.6,-164.62 201.02,-136.37 231.5,-123 323.83,-82.52 444.99,-77.07 504.81,-77.14"/>
<polygon fill="midnightblue" stroke="midnightblue" points="504.88,-80.64 514.91,-77.21 504.93,-73.64 504.88,-80.64"/>
</g>
<!-- Node17&#45;&gt;Node6 -->
<g id="edge28" class="edge">
<title>Node17&#45;&gt;Node6</title>
<path fill="none" stroke="midnightblue" d="M171.47,-179.44C192.11,-170.6 224.56,-156.69 248.13,-146.59"/>
<polygon fill="midnightblue" stroke="midnightblue" points="249.82,-149.67 257.63,-142.52 247.06,-143.24 249.82,-149.67"/>
</g>
<!-- Node17&#45;&gt;Node7 -->
<g id="edge29" class="edge">
<title>Node17&#45;&gt;Node7</title>
<path fill="none" stroke="midnightblue" d="M150.32,-179.37C147.9,-161.62 142.32,-120.67 139.04,-96.6"/>
<polygon fill="midnightblue" stroke="midnightblue" points="142.49,-96.03 137.67,-86.59 135.55,-96.97 142.49,-96.03"/>
</g>
<!-- Node17&#45;&gt;Node12 -->
<g id="edge27" class="edge">
<title>Node17&#45;&gt;Node12</title>
<path fill="none" stroke="midnightblue" d="M157.35,-179.41C166.02,-166.8 182.93,-142.65 198.5,-123 206.2,-113.28 215.26,-102.78 222.7,-94.37"/>
<polygon fill="midnightblue" stroke="midnightblue" points="225.44,-96.56 229.49,-86.77 220.22,-91.89 225.44,-96.56"/>
</g>
<!-- Node18&#45;&gt;Node3 -->
<g id="edge33" class="edge">
<title>Node18&#45;&gt;Node3</title>
<path fill="none" stroke="midnightblue" d="M224.24,-235.35C245.82,-226.62 279.74,-212.55 308.5,-199 329.16,-189.27 460.26,-120.62 516.23,-91.26"/>
<polygon fill="midnightblue" stroke="midnightblue" points="517.92,-94.33 525.15,-86.58 514.67,-88.13 517.92,-94.33"/>
</g>
<!-- Node18&#45;&gt;Node6 -->
<g id="edge35" class="edge">
<title>Node18&#45;&gt;Node6</title>
<path fill="none" stroke="midnightblue" d="M206.05,-235.15C211.43,-222.22 222.44,-197.67 235.5,-179 242.83,-168.51 252.5,-157.99 260.7,-149.76"/>
<polygon fill="midnightblue" stroke="midnightblue" points="263.28,-152.14 268,-142.65 258.4,-147.12 263.28,-152.14"/>
</g>
<!-- Node18&#45;&gt;Node17 -->
<g id="edge34" class="edge">
<title>Node18&#45;&gt;Node17</title>
<path fill="none" stroke="midnightblue" d="M194.08,-235.08C186.65,-227.22 175.65,-215.57 166.69,-206.08"/>
<polygon fill="midnightblue" stroke="midnightblue" points="169.18,-203.62 159.76,-198.75 164.09,-208.42 169.18,-203.62"/>
</g>
<!-- Node19 -->
<g id="node19" class="node">
<title>Node19</title>
<g id="a_node19"><a xlink:href="Ray_8hpp.html" target="_top" xlink:title=" ">
<polygon fill="white" stroke="black" points="245,-179.5 245,-198.5 300,-198.5 300,-179.5 245,-179.5"/>
<text text-anchor="middle" x="272.5" y="-186.5" font-family="Helvetica,sans-Serif" font-size="10.00">Ray.hpp</text>
</a>
</g>
</g>
<!-- Node18&#45;&gt;Node19 -->
<g id="edge36" class="edge">
<title>Node18&#45;&gt;Node19</title>
<path fill="none" stroke="midnightblue" d="M213.75,-235.32C224.3,-227.18 240.3,-214.84 252.94,-205.09"/>
<polygon fill="midnightblue" stroke="midnightblue" points="255.27,-207.71 261.05,-198.83 250.99,-202.17 255.27,-207.71"/>
</g>
<!-- Node19&#45;&gt;Node6 -->
<g id="edge37" class="edge">
<title>Node19&#45;&gt;Node6</title>
<path fill="none" stroke="midnightblue" d="M273.33,-179.08C273.98,-172.01 274.92,-161.86 275.74,-152.99"/>
<polygon fill="midnightblue" stroke="midnightblue" points="279.25,-153.03 276.69,-142.75 272.28,-152.39 279.25,-153.03"/>
</g>
<!-- Node20&#45;&gt;Node3 -->
<g id="edge39" class="edge">
<title>Node20&#45;&gt;Node3</title>
<path fill="none" stroke="midnightblue" d="M492.3,-235.08C500.52,-208.83 524.73,-131.55 535.82,-96.12"/>
<polygon fill="midnightblue" stroke="midnightblue" points="539.17,-97.16 538.82,-86.57 532.49,-95.06 539.17,-97.16"/>
</g>
<!-- Node20&#45;&gt;Node14 -->
<g id="edge40" class="edge">
<title>Node20&#45;&gt;Node14</title>
<path fill="none" stroke="midnightblue" d="M485.21,-235.08C481.65,-227.69 476.48,-216.95 472.08,-207.81"/>
<polygon fill="midnightblue" stroke="midnightblue" points="475.21,-206.24 467.71,-198.75 468.9,-209.28 475.21,-206.24"/>
</g>
<!-- Node22&#45;&gt;Node3 -->
<g id="edge43" class="edge">
<title>Node22&#45;&gt;Node3</title>
<path fill="none" stroke="midnightblue" d="M825.62,-291.46C828.83,-262.92 834.99,-170.06 786.5,-123 757.44,-94.8 639.81,-83.78 578.73,-79.89"/>
<polygon fill="midnightblue" stroke="midnightblue" points="578.56,-76.37 568.37,-79.27 578.14,-83.36 578.56,-76.37"/>
</g>
<!-- Node22&#45;&gt;Node6 -->
<g id="edge45" class="edge">
<title>Node22&#45;&gt;Node6</title>
<path fill="none" stroke="midnightblue" d="M819.78,-291.31C806.74,-268.26 767.68,-205.5 715.5,-179 648.18,-144.81 423.93,-136.59 325.04,-134.62"/>
<polygon fill="midnightblue" stroke="midnightblue" points="324.81,-131.11 314.74,-134.43 324.68,-138.11 324.81,-131.11"/>
</g>
<!-- Node22&#45;&gt;Node16 -->
<g id="edge44" class="edge">
<title>Node22&#45;&gt;Node16</title>
<path fill="none" stroke="midnightblue" d="M792.49,-291.44C757.77,-282.16 702.21,-267.31 664.12,-257.13"/>
<polygon fill="midnightblue" stroke="midnightblue" points="664.92,-253.72 654.36,-254.52 663.11,-260.48 664.92,-253.72"/>
</g>
<!-- Node22&#45;&gt;Node21 -->
<g id="edge46" class="edge">
<title>Node22&#45;&gt;Node21</title>
<path fill="none" stroke="midnightblue" d="M836.39,-291.32C847.65,-283.11 864.79,-270.6 878.21,-260.81"/>
<polygon fill="midnightblue" stroke="midnightblue" points="880.38,-263.56 886.39,-254.83 876.25,-257.9 880.38,-263.56"/>
</g>
<!-- Node23&#45;&gt;Node3 -->
<g id="edge48" class="edge">
<title>Node23&#45;&gt;Node3</title>
<path fill="none" stroke="midnightblue" d="M323.08,-235.39C337.79,-226.59 361.06,-212.35 380.5,-199 433.27,-162.78 492.9,-116.49 522.59,-93.05"/>
<polygon fill="midnightblue" stroke="midnightblue" points="525.14,-95.5 530.8,-86.54 520.79,-90.01 525.14,-95.5"/>
</g>
<!-- Node23&#45;&gt;Node6 -->
<g id="edge49" class="edge">
<title>Node23&#45;&gt;Node6</title>
<path fill="none" stroke="midnightblue" d="M310.1,-235.34C312.08,-222.65 314.53,-198.4 308.5,-179 305.27,-168.62 298.72,-158.52 292.48,-150.53"/>
<polygon fill="midnightblue" stroke="midnightblue" points="295.08,-148.19 285.98,-142.77 289.71,-152.68 295.08,-148.19"/>
</g>
<!-- Node23&#45;&gt;Node14 -->
<g id="edge50" class="edge">
<title>Node23&#45;&gt;Node14</title>
<path fill="none" stroke="midnightblue" d="M333.06,-235.44C359.02,-226.4 400.17,-212.06 429.3,-201.92"/>
<polygon fill="midnightblue" stroke="midnightblue" points="430.76,-205.11 439.05,-198.52 428.46,-198.5 430.76,-205.11"/>
</g>
<!-- Node24&#45;&gt;Node3 -->
<g id="edge54" class="edge">
<title>Node24&#45;&gt;Node3</title>
<path fill="none" stroke="midnightblue" d="M952.18,-296.01C998.11,-289.3 1069.35,-272.58 1045.5,-235 982.86,-136.29 919.05,-157.96 807.5,-123 727.85,-98.04 630.18,-86.02 578.18,-81.02"/>
<polygon fill="midnightblue" stroke="midnightblue" points="578.39,-77.53 568.11,-80.09 577.74,-84.5 578.39,-77.53"/>
</g>
<!-- Node24&#45;&gt;Node5 -->
<g id="edge53" class="edge">
<title>Node24&#45;&gt;Node5</title>
<path fill="none" stroke="midnightblue" d="M925.11,-291.07C937.05,-277.59 955.65,-251.85 941.5,-235 913.13,-201.23 779.21,-192.8 716.74,-190.7"/>
<polygon fill="midnightblue" stroke="midnightblue" points="716.75,-187.19 706.65,-190.39 716.54,-194.19 716.75,-187.19"/>
</g>
<!-- Node24&#45;&gt;Node21 -->
<g id="edge52" class="edge">
<title>Node24&#45;&gt;Node21</title>
<path fill="none" stroke="midnightblue" d="M913.53,-291.08C911.12,-283.85 907.64,-273.41 904.63,-264.4"/>
<polygon fill="midnightblue" stroke="midnightblue" points="907.9,-263.13 901.42,-254.75 901.26,-265.34 907.9,-263.13"/>
</g>
<!-- Node25 -->
<g id="node25" class="node">
<title>Node25</title>
<g id="a_node25"><a xlink:title=" ">
<polygon fill="white" stroke="#bfbfbf" points="989,-235.5 989,-254.5 1036,-254.5 1036,-235.5 989,-235.5"/>
<text text-anchor="middle" x="1012.5" y="-242.5" font-family="Helvetica,sans-Serif" font-size="10.00">vector</text>
</a>
</g>
</g>
<!-- Node24&#45;&gt;Node25 -->
<g id="edge55" class="edge">
<title>Node24&#45;&gt;Node25</title>
<path fill="none" stroke="midnightblue" d="M931.92,-291.32C947.04,-282.82 970.32,-269.73 987.97,-259.8"/>
<polygon fill="midnightblue" stroke="midnightblue" points="990.11,-262.61 997.11,-254.65 986.68,-256.51 990.11,-262.61"/>
</g>
<!-- Node27&#45;&gt;Node7 -->
<g id="edge59" class="edge">
<title>Node27&#45;&gt;Node7</title>
<path fill="none" stroke="midnightblue" d="M62.64,-123.32C76.37,-114.9 97.44,-101.97 113.56,-92.07"/>
<polygon fill="midnightblue" stroke="midnightblue" points="115.7,-94.87 122.4,-86.65 112.04,-88.9 115.7,-94.87"/>
</g>
<!-- Node27&#45;&gt;Node8 -->
<g id="edge58" class="edge">
<title>Node27&#45;&gt;Node8</title>
<path fill="none" stroke="midnightblue" d="M47.37,-123.32C44.96,-104.76 39.26,-60.84 35.96,-35.47"/>
<polygon fill="midnightblue" stroke="midnightblue" points="39.4,-34.75 34.64,-25.28 32.46,-35.65 39.4,-34.75"/>
</g>
<!-- Node28&#45;&gt;Node5 -->
<g id="edge64" class="edge">
<title>Node28&#45;&gt;Node5</title>
<path fill="none" stroke="midnightblue" d="M982.07,-347.35C984.75,-334.24 991.18,-308.97 1003.5,-291 1021.1,-265.34 1066.09,-258.32 1045.5,-235 1023.85,-210.48 800.88,-196.18 716.56,-191.61"/>
<polygon fill="midnightblue" stroke="midnightblue" points="716.7,-188.12 706.53,-191.08 716.33,-195.11 716.7,-188.12"/>
</g>
<!-- Node29 -->
<g id="node29" class="node">
<title>Node29</title>
<g id="a_node29"><a xlink:title=" ">
<polygon fill="white" stroke="#bfbfbf" points="1012,-291.5 1012,-310.5 1077,-310.5 1077,-291.5 1012,-291.5"/>
<text text-anchor="middle" x="1044.5" y="-298.5" font-family="Helvetica,sans-Serif" font-size="10.00">exception</text>
</a>
</g>
</g>
<!-- Node28&#45;&gt;Node29 -->
<g id="edge63" class="edge">
<title>Node28&#45;&gt;Node29</title>
<path fill="none" stroke="midnightblue" d="M990.78,-347.32C1000.34,-339.26 1014.78,-327.08 1026.28,-317.37"/>
<polygon fill="midnightblue" stroke="midnightblue" points="1028.64,-319.96 1034.03,-310.83 1024.13,-314.61 1028.64,-319.96"/>
</g>
<!-- Node30&#45;&gt;Node21 -->
<g id="edge66" class="edge">
<title>Node30&#45;&gt;Node21</title>
<path fill="none" stroke="midnightblue" d="M1109.81,-403.29C1112.59,-381.26 1116.59,-322.79 1086.5,-291 1067.12,-270.52 992.17,-257.54 942.96,-251.03"/>
<polygon fill="midnightblue" stroke="midnightblue" points="943.24,-247.54 932.88,-249.74 942.36,-254.48 943.24,-247.54"/>
</g>
<!-- Node30&#45;&gt;Node28 -->
<g id="edge67" class="edge">
<title>Node30&#45;&gt;Node28</title>
<path fill="none" stroke="midnightblue" d="M1088.22,-403.44C1067.15,-394.56 1033.98,-380.56 1010.01,-370.45"/>
<polygon fill="midnightblue" stroke="midnightblue" points="1011.26,-367.18 1000.69,-366.52 1008.54,-373.63 1011.26,-367.18"/>
</g>
<!-- Node31 -->
<g id="node31" class="node">
<title>Node31</title>
<g id="a_node31"><a xlink:title=" ">
<polygon fill="white" stroke="#bfbfbf" points="1136.5,-347.5 1136.5,-366.5 1174.5,-366.5 1174.5,-347.5 1136.5,-347.5"/>
<text text-anchor="middle" x="1155.5" y="-354.5" font-family="Helvetica,sans-Serif" font-size="10.00">map</text>
</a>
</g>
</g>
<!-- Node30&#45;&gt;Node31 -->
<g id="edge68" class="edge">
<title>Node30&#45;&gt;Node31</title>
<path fill="none" stroke="midnightblue" d="M1116.26,-403.08C1123.04,-395.3 1133.04,-383.8 1141.26,-374.37"/>
<polygon fill="midnightblue" stroke="midnightblue" points="1143.96,-376.59 1147.88,-366.75 1138.68,-372 1143.96,-376.59"/>
</g>
<!-- Node32 -->
<g id="node32" class="node">
<title>Node32</title>
<g id="a_node32"><a xlink:title=" ">
<polygon fill="white" stroke="#bfbfbf" points="1192.5,-347.5 1192.5,-366.5 1250.5,-366.5 1250.5,-347.5 1192.5,-347.5"/>
<text text-anchor="middle" x="1221.5" y="-354.5" font-family="Helvetica,sans-Serif" font-size="10.00">memory</text>
</a>
</g>
</g>
<!-- Node30&#45;&gt;Node32 -->
<g id="edge69" class="edge">
<title>Node30&#45;&gt;Node32</title>
<path fill="none" stroke="midnightblue" d="M1126.41,-403.44C1144.75,-394.68 1173.51,-380.94 1194.59,-370.86"/>
<polygon fill="midnightblue" stroke="midnightblue" points="1196.17,-373.99 1203.68,-366.52 1193.15,-367.67 1196.17,-373.99"/>
</g>
</g>
</svg>
