<?xml version="1.0" encoding="UTF-8" standalone="no"?>
<!DOCTYPE svg PUBLIC "-//W3C//DTD SVG 1.1//EN"
 "http://www.w3.org/Graphics/SVG/1.1/DTD/svg11.dtd">
<!-- Generated by graphviz version 2.43.0 (0)
 -->
<!-- Title: Libs/Engine/sources/Components/Drawable3D/Drawable3D.hpp Pages: 1 -->
<svg width="1403pt" height="128pt"
 viewBox="0.00 0.00 1403.00 128.00" xmlns="http://www.w3.org/2000/svg" xmlns:xlink="http://www.w3.org/1999/xlink">
<g id="graph0" class="graph" transform="scale(1 1) rotate(0) translate(4 124)">
<title>Libs/Engine/sources/Components/Drawable3D/Drawable3D.hpp</title>
<polygon fill="white" stroke="transparent" points="-4,4 -4,-124 1399,-124 1399,4 -4,4"/>
<!-- Node1 -->
<g id="node1" class="node">
<title>Node1</title>
<g id="a_node1"><a xlink:title=" ">
<polygon fill="#bfbfbf" stroke="black" points="617,-78.5 617,-119.5 761,-119.5 761,-78.5 617,-78.5"/>
<text text-anchor="start" x="625" y="-107.5" font-family="Helvetica,sans-Serif" font-size="10.00">Libs/Engine/sources</text>
<text text-anchor="start" x="625" y="-96.5" font-family="Helvetica,sans-Serif" font-size="10.00">/Components/Drawable3D</text>
<text text-anchor="middle" x="689" y="-85.5" font-family="Helvetica,sans-Serif" font-size="10.00">/Drawable3D.hpp</text>
</a>
</g>
</g>
<!-- Node2 -->
<g id="node2" class="node">
<title>Node2</title>
<g id="a_node2"><a xlink:href="Drawable3D_8cpp.html" target="_top" xlink:title=" ">
<polygon fill="white" stroke="black" points="0,-0.5 0,-41.5 144,-41.5 144,-0.5 0,-0.5"/>
<text text-anchor="start" x="8" y="-29.5" font-family="Helvetica,sans-Serif" font-size="10.00">Libs/Engine/sources</text>
<text text-anchor="start" x="8" y="-18.5" font-family="Helvetica,sans-Serif" font-size="10.00">/Components/Drawable3D</text>
<text text-anchor="middle" x="72" y="-7.5" font-family="Helvetica,sans-Serif" font-size="10.00">/Drawable3D.cpp</text>
</a>
</g>
</g>
<!-- Node1&#45;&gt;Node2 -->
<g id="edge1" class="edge">
<title>Node1&#45;&gt;Node2</title>
<path fill="none" stroke="midnightblue" d="M606.32,-92.92C500.62,-85.6 312.21,-69.84 153,-42 150.15,-41.5 147.24,-40.96 144.32,-40.38"/>
<polygon fill="midnightblue" stroke="midnightblue" points="606.39,-96.43 616.6,-93.62 606.87,-89.45 606.39,-96.43"/>
</g>
<!-- Node3 -->
<g id="node3" class="node">
<title>Node3</title>
<g id="a_node3"><a xlink:href="DropBomb_8cpp.html" target="_top" xlink:title=" ">
<polygon fill="white" stroke="black" points="162,-0.5 162,-41.5 298,-41.5 298,-0.5 162,-0.5"/>
<text text-anchor="start" x="170" y="-29.5" font-family="Helvetica,sans-Serif" font-size="10.00">Libs/Engine/sources</text>
<text text-anchor="start" x="170" y="-18.5" font-family="Helvetica,sans-Serif" font-size="10.00">/Components/DropBomb</text>
<text text-anchor="middle" x="230" y="-7.5" font-family="Helvetica,sans-Serif" font-size="10.00">/DropBomb.cpp</text>
</a>
</g>
</g>
<!-- Node1&#45;&gt;Node3 -->
<g id="edge2" class="edge">
<title>Node1&#45;&gt;Node3</title>
<path fill="none" stroke="midnightblue" d="M606.58,-88.54C528.91,-79.01 409.48,-62.76 307,-42 304.16,-41.42 301.26,-40.81 298.34,-40.16"/>
<polygon fill="midnightblue" stroke="midnightblue" points="606.43,-92.05 616.78,-89.79 607.28,-85.1 606.43,-92.05"/>
</g>
<!-- Node4 -->
<g id="node4" class="node">
<title>Node4</title>
<g id="a_node4"><a xlink:href="Explosion_8cpp.html" target="_top" xlink:title=" ">
<polygon fill="white" stroke="black" points="316.5,-0.5 316.5,-41.5 447.5,-41.5 447.5,-0.5 316.5,-0.5"/>
<text text-anchor="start" x="324.5" y="-29.5" font-family="Helvetica,sans-Serif" font-size="10.00">Libs/Engine/sources</text>
<text text-anchor="start" x="324.5" y="-18.5" font-family="Helvetica,sans-Serif" font-size="10.00">/Components/Explosion</text>
<text text-anchor="middle" x="382" y="-7.5" font-family="Helvetica,sans-Serif" font-size="10.00">/Explosion.cpp</text>
</a>
</g>
</g>
<!-- Node1&#45;&gt;Node4 -->
<g id="edge3" class="edge">
<title>Node1&#45;&gt;Node4</title>
<path fill="none" stroke="midnightblue" d="M606.9,-78.69C562.47,-68.11 506.66,-54.61 457,-42 454,-41.24 450.93,-40.45 447.83,-39.65"/>
<polygon fill="midnightblue" stroke="midnightblue" points="606.25,-82.13 616.78,-81.03 607.86,-75.32 606.25,-82.13"/>
</g>
<!-- Node5 -->
<g id="node5" class="node">
<title>Node5</title>
<g id="a_node5"><a xlink:href="Particle_8cpp.html" target="_top" xlink:title=" ">
<polygon fill="white" stroke="black" points="466,-0.5 466,-41.5 586,-41.5 586,-0.5 466,-0.5"/>
<text text-anchor="start" x="474" y="-29.5" font-family="Helvetica,sans-Serif" font-size="10.00">Libs/Engine/sources</text>
<text text-anchor="start" x="474" y="-18.5" font-family="Helvetica,sans-Serif" font-size="10.00">/Components/Particle</text>
<text text-anchor="middle" x="526" y="-7.5" font-family="Helvetica,sans-Serif" font-size="10.00">/Particle.cpp</text>
</a>
</g>
</g>
<!-- Node1&#45;&gt;Node5 -->
<g id="edge4" class="edge">
<title>Node1&#45;&gt;Node5</title>
<path fill="none" stroke="midnightblue" d="M637.93,-74.19C615.38,-63.67 589.2,-51.47 567.83,-41.51"/>
<polygon fill="midnightblue" stroke="midnightblue" points="636.48,-77.37 647.02,-78.43 639.44,-71.03 636.48,-77.37"/>
</g>
<!-- Node6 -->
<g id="node6" class="node">
<title>Node6</title>
<g id="a_node6"><a xlink:href="EntityFactory_8cpp.html" target="_top" xlink:title=" ">
<polygon fill="white" stroke="black" points="604.5,-6 604.5,-36 773.5,-36 773.5,-6 604.5,-6"/>
<text text-anchor="start" x="612.5" y="-24" font-family="Helvetica,sans-Serif" font-size="10.00">Libs/Engine/sources</text>
<text text-anchor="middle" x="689" y="-13" font-family="Helvetica,sans-Serif" font-size="10.00">/EntityFactory/EntityFactory.cpp</text>
</a>
</g>
</g>
<!-- Node1&#45;&gt;Node6 -->
<g id="edge5" class="edge">
<title>Node1&#45;&gt;Node6</title>
<path fill="none" stroke="midnightblue" d="M689,-68.28C689,-57.25 689,-45.25 689,-36.23"/>
<polygon fill="midnightblue" stroke="midnightblue" points="685.5,-68.43 689,-78.43 692.5,-68.43 685.5,-68.43"/>
</g>
<!-- Node7 -->
<g id="node7" class="node">
<title>Node7</title>
<g id="a_node7"><a xlink:href="Scenes_8cpp.html" target="_top" xlink:title=" ">
<polygon fill="white" stroke="black" points="791.5,-6 791.5,-36 904.5,-36 904.5,-6 791.5,-6"/>
<text text-anchor="start" x="799.5" y="-24" font-family="Helvetica,sans-Serif" font-size="10.00">Libs/Engine/sources</text>
<text text-anchor="middle" x="848" y="-13" font-family="Helvetica,sans-Serif" font-size="10.00">/Scenes/Scenes.cpp</text>
</a>
</g>
</g>
<!-- Node1&#45;&gt;Node7 -->
<g id="edge6" class="edge">
<title>Node1&#45;&gt;Node7</title>
<path fill="none" stroke="midnightblue" d="M739.27,-73.97C765.25,-61.55 796.06,-46.83 818.24,-36.23"/>
<polygon fill="midnightblue" stroke="midnightblue" points="737.46,-70.96 729.95,-78.43 740.48,-77.27 737.46,-70.96"/>
</g>
<!-- Node8 -->
<g id="node8" class="node">
<title>Node8</title>
<g id="a_node8"><a xlink:href="RenderSystem_8cpp.html" target="_top" xlink:title=" ">
<polygon fill="white" stroke="black" points="923,-0.5 923,-41.5 1059,-41.5 1059,-0.5 923,-0.5"/>
<text text-anchor="start" x="931" y="-29.5" font-family="Helvetica,sans-Serif" font-size="10.00">Libs/Engine/sources</text>
<text text-anchor="start" x="931" y="-18.5" font-family="Helvetica,sans-Serif" font-size="10.00">/Systems/RenderSystem</text>
<text text-anchor="middle" x="991" y="-7.5" font-family="Helvetica,sans-Serif" font-size="10.00">/RenderSystem.cpp</text>
</a>
</g>
</g>
<!-- Node1&#45;&gt;Node8 -->
<g id="edge7" class="edge">
<title>Node1&#45;&gt;Node8</title>
<path fill="none" stroke="midnightblue" d="M771.02,-77.8C813.68,-67.24 866.68,-54.03 914,-42 916.94,-41.25 919.95,-40.48 922.99,-39.71"/>
<polygon fill="midnightblue" stroke="midnightblue" points="770.11,-74.42 761.24,-80.22 771.79,-81.21 770.11,-74.42"/>
</g>
<!-- Node9 -->
<g id="node9" class="node">
<title>Node9</title>
<g id="a_node9"><a xlink:href="Prototype_2sources_2Drawable_2main_8cpp.html" target="_top" xlink:title=" ">
<polygon fill="white" stroke="black" points="1077,-6 1077,-36 1231,-36 1231,-6 1077,-6"/>
<text text-anchor="start" x="1085" y="-24" font-family="Helvetica,sans-Serif" font-size="10.00">Prototype/sources/Drawable</text>
<text text-anchor="middle" x="1154" y="-13" font-family="Helvetica,sans-Serif" font-size="10.00">/main.cpp</text>
</a>
</g>
</g>
<!-- Node1&#45;&gt;Node9 -->
<g id="edge8" class="edge">
<title>Node1&#45;&gt;Node9</title>
<path fill="none" stroke="midnightblue" d="M771.36,-87.81C848.35,-77.81 966.38,-61.29 1068,-42 1077.19,-40.26 1086.88,-38.21 1096.31,-36.1"/>
<polygon fill="midnightblue" stroke="midnightblue" points="770.72,-84.36 761.25,-89.11 771.61,-91.3 770.72,-84.36"/>
</g>
<!-- Node10 -->
<g id="node10" class="node">
<title>Node10</title>
<g id="a_node10"><a xlink:href="Prototype_2sources_2Shaders_2main_8cpp.html" target="_top" xlink:title=" ">
<polygon fill="white" stroke="black" points="1249,-6 1249,-36 1395,-36 1395,-6 1249,-6"/>
<text text-anchor="start" x="1257" y="-24" font-family="Helvetica,sans-Serif" font-size="10.00">Prototype/sources/Shaders</text>
<text text-anchor="middle" x="1322" y="-13" font-family="Helvetica,sans-Serif" font-size="10.00">/main.cpp</text>
</a>
</g>
</g>
<!-- Node1&#45;&gt;Node10 -->
<g id="edge9" class="edge">
<title>Node1&#45;&gt;Node10</title>
<path fill="none" stroke="midnightblue" d="M771.38,-93.19C879.52,-86.05 1074.99,-70.37 1240,-42 1249.39,-40.39 1259.29,-38.3 1268.85,-36.09"/>
<polygon fill="midnightblue" stroke="midnightblue" points="770.94,-89.71 761.19,-93.85 771.4,-96.69 770.94,-89.71"/>
</g>
</g>
</svg>
