<?xml version="1.0" encoding="UTF-8" standalone="no"?>
<!DOCTYPE svg PUBLIC "-//W3C//DTD SVG 1.1//EN"
 "http://www.w3.org/Graphics/SVG/1.1/DTD/svg11.dtd">
<!-- Generated by graphviz version 2.43.0 (0)
 -->
<!-- Title: Libs/Engine/sources/Components/Drawable3D/Drawable3D.hpp Pages: 1 -->
<svg width="1240pt" height="453pt"
 viewBox="0.00 0.00 1239.50 453.00" xmlns="http://www.w3.org/2000/svg" xmlns:xlink="http://www.w3.org/1999/xlink">
<g id="graph0" class="graph" transform="scale(1 1) rotate(0) translate(4 449)">
<title>Libs/Engine/sources/Components/Drawable3D/Drawable3D.hpp</title>
<polygon fill="white" stroke="transparent" points="-4,4 -4,-449 1235.5,-449 1235.5,4 -4,4"/>
<!-- Node1 -->
<g id="node1" class="node">
<title>Node1</title>
<g id="a_node1"><a xlink:title=" ">
<polygon fill="#bfbfbf" stroke="black" points="876.5,-403.5 876.5,-444.5 1020.5,-444.5 1020.5,-403.5 876.5,-403.5"/>
<text text-anchor="start" x="884.5" y="-432.5" font-family="Helvetica,sans-Serif" font-size="10.00">Libs/Engine/sources</text>
<text text-anchor="start" x="884.5" y="-421.5" font-family="Helvetica,sans-Serif" font-size="10.00">/Components/Drawable3D</text>
<text text-anchor="middle" x="948.5" y="-410.5" font-family="Helvetica,sans-Serif" font-size="10.00">/Drawable3D.hpp</text>
</a>
</g>
</g>
<!-- Node2 -->
<g id="node2" class="node">
<title>Node2</title>
<g id="a_node2"><a xlink:title=" ">
<polygon fill="white" stroke="#bfbfbf" points="551,-67.5 551,-86.5 604,-86.5 604,-67.5 551,-67.5"/>
<text text-anchor="middle" x="577.5" y="-74.5" font-family="Helvetica,sans-Serif" font-size="10.00">raylib.h</text>
</a>
</g>
</g>
<!-- Node1&#45;&gt;Node2 -->
<g id="edge1" class="edge">
<title>Node1&#45;&gt;Node2</title>
<path fill="none" stroke="midnightblue" d="M1020.65,-422.11C1104.49,-416.8 1231.5,-393.64 1231.5,-302 1231.5,-302 1231.5,-302 1231.5,-188 1231.5,-100.85 1131.61,-141.74 1046.5,-123 888.06,-88.11 693.6,-80.27 614.04,-78.51"/>
<polygon fill="midnightblue" stroke="midnightblue" points="614.1,-75.01 604.03,-78.31 613.96,-82.01 614.1,-75.01"/>
</g>
<!-- Node3 -->
<g id="node3" class="node">
<title>Node3</title>
<g id="a_node3"><a xlink:href="Model_8hpp.html" target="_top" xlink:title=" ">
<polygon fill="white" stroke="black" points="676.5,-347.5 676.5,-366.5 744.5,-366.5 744.5,-347.5 676.5,-347.5"/>
<text text-anchor="middle" x="710.5" y="-354.5" font-family="Helvetica,sans-Serif" font-size="10.00">Model.hpp</text>
</a>
</g>
</g>
<!-- Node1&#45;&gt;Node3 -->
<g id="edge2" class="edge">
<title>Node1&#45;&gt;Node3</title>
<path fill="none" stroke="midnightblue" d="M877.09,-403.5C836.09,-392.3 786.07,-378.64 751.6,-369.22"/>
<polygon fill="midnightblue" stroke="midnightblue" points="752.44,-365.83 741.87,-366.57 750.59,-372.58 752.44,-365.83"/>
</g>
<!-- Node21 -->
<g id="node21" class="node">
<title>Node21</title>
<g id="a_node21"><a xlink:href="Mesh_8hpp.html" target="_top" xlink:title=" ">
<polygon fill="white" stroke="black" points="797.5,-291.5 797.5,-310.5 861.5,-310.5 861.5,-291.5 797.5,-291.5"/>
<text text-anchor="middle" x="829.5" y="-298.5" font-family="Helvetica,sans-Serif" font-size="10.00">Mesh.hpp</text>
</a>
</g>
</g>
<!-- Node1&#45;&gt;Node21 -->
<g id="edge59" class="edge">
<title>Node1&#45;&gt;Node21</title>
<path fill="none" stroke="midnightblue" d="M929.12,-403.29C905.65,-379.43 866.61,-339.74 845.03,-317.79"/>
<polygon fill="midnightblue" stroke="midnightblue" points="847.44,-315.25 837.93,-310.57 842.45,-320.16 847.44,-315.25"/>
</g>
<!-- Node23 -->
<g id="node23" class="node">
<title>Node23</title>
<g id="a_node23"><a xlink:href="Shader_8hpp.html" target="_top" xlink:title=" ">
<polygon fill="white" stroke="black" points="1010,-291.5 1010,-310.5 1081,-310.5 1081,-291.5 1010,-291.5"/>
<text text-anchor="middle" x="1045.5" y="-298.5" font-family="Helvetica,sans-Serif" font-size="10.00">Shader.hpp</text>
</a>
</g>
</g>
<!-- Node1&#45;&gt;Node23 -->
<g id="edge60" class="edge">
<title>Node1&#45;&gt;Node23</title>
<path fill="none" stroke="midnightblue" d="M964.3,-403.29C983.17,-379.75 1014.41,-340.78 1032.14,-318.67"/>
<polygon fill="midnightblue" stroke="midnightblue" points="1035.1,-320.57 1038.63,-310.57 1029.64,-316.19 1035.1,-320.57"/>
</g>
<!-- Node26 -->
<g id="node26" class="node">
<title>Node26</title>
<g id="a_node26"><a xlink:href="IComponent_8hpp.html" target="_top" xlink:title=" ">
<polygon fill="white" stroke="black" points="6,-123.5 6,-142.5 103,-142.5 103,-123.5 6,-123.5"/>
<text text-anchor="middle" x="54.5" y="-130.5" font-family="Helvetica,sans-Serif" font-size="10.00">IComponent.hpp</text>
</a>
</g>
</g>
<!-- Node1&#45;&gt;Node26 -->
<g id="edge56" class="edge">
<title>Node1&#45;&gt;Node26</title>
<path fill="none" stroke="midnightblue" d="M876.18,-420.77C663.59,-413.28 55.5,-384.63 55.5,-302 55.5,-302 55.5,-302 55.5,-244 55.5,-211.95 55.07,-174.64 54.77,-152.75"/>
<polygon fill="midnightblue" stroke="midnightblue" points="58.27,-152.51 54.63,-142.56 51.27,-152.61 58.27,-152.51"/>
</g>
<!-- Node27 -->
<g id="node27" class="node">
<title>Node27</title>
<g id="a_node27"><a xlink:href="EngineExceptions_8hpp.html" target="_top" xlink:title=" ">
<polygon fill="white" stroke="black" points="1047.5,-347.5 1047.5,-366.5 1171.5,-366.5 1171.5,-347.5 1047.5,-347.5"/>
<text text-anchor="middle" x="1109.5" y="-354.5" font-family="Helvetica,sans-Serif" font-size="10.00">EngineExceptions.hpp</text>
</a>
</g>
</g>
<!-- Node1&#45;&gt;Node27 -->
<g id="edge61" class="edge">
<title>Node1&#45;&gt;Node27</title>
<path fill="none" stroke="midnightblue" d="M996.81,-403.5C1023.39,-392.77 1055.58,-379.77 1078.74,-370.42"/>
<polygon fill="midnightblue" stroke="midnightblue" points="1080.11,-373.64 1088.07,-366.65 1077.49,-367.15 1080.11,-373.64"/>
</g>
<!-- Node3&#45;&gt;Node2 -->
<g id="edge3" class="edge">
<title>Node3&#45;&gt;Node2</title>
<path fill="none" stroke="midnightblue" d="M744.57,-353.56C779.29,-349.54 833.21,-338.95 870.5,-311 900.26,-288.7 917.06,-270.35 905.5,-235 866.67,-116.22 691.79,-87.26 614.47,-80.24"/>
<polygon fill="midnightblue" stroke="midnightblue" points="614.49,-76.72 604.23,-79.38 613.9,-83.7 614.49,-76.72"/>
</g>
<!-- Node4 -->
<g id="node4" class="node">
<title>Node4</title>
<g id="a_node4"><a xlink:title=" ">
<polygon fill="white" stroke="#bfbfbf" points="745.5,-179.5 745.5,-198.5 789.5,-198.5 789.5,-179.5 745.5,-179.5"/>
<text text-anchor="middle" x="767.5" y="-186.5" font-family="Helvetica,sans-Serif" font-size="10.00">string</text>
</a>
</g>
</g>
<!-- Node3&#45;&gt;Node4 -->
<g id="edge4" class="edge">
<title>Node3&#45;&gt;Node4</title>
<path fill="none" stroke="midnightblue" d="M713.56,-347.08C722.58,-320.83 749.11,-243.55 761.28,-208.12"/>
<polygon fill="midnightblue" stroke="midnightblue" points="764.62,-209.16 764.56,-198.57 758,-206.89 764.62,-209.16"/>
</g>
<!-- Node5 -->
<g id="node5" class="node">
<title>Node5</title>
<g id="a_node5"><a xlink:href="Vector3_8hpp.html" target="_top" xlink:title=" ">
<polygon fill="white" stroke="black" points="242.5,-123.5 242.5,-142.5 316.5,-142.5 316.5,-123.5 242.5,-123.5"/>
<text text-anchor="middle" x="279.5" y="-130.5" font-family="Helvetica,sans-Serif" font-size="10.00">Vector3.hpp</text>
</a>
</g>
</g>
<!-- Node3&#45;&gt;Node5 -->
<g id="edge5" class="edge">
<title>Node3&#45;&gt;Node5</title>
<path fill="none" stroke="midnightblue" d="M676.22,-354.4C588.05,-349.97 355.22,-336.17 282.5,-311 233.35,-293.99 184.62,-286.25 193.5,-235 198.01,-208.96 197.34,-199.92 213.5,-179 223.6,-165.93 238.58,-155.28 251.72,-147.63"/>
<polygon fill="midnightblue" stroke="midnightblue" points="253.8,-150.48 260.87,-142.6 250.42,-144.35 253.8,-150.48"/>
</g>
<!-- Node13 -->
<g id="node13" class="node">
<title>Node13</title>
<g id="a_node13"><a xlink:href="Color_8hpp.html" target="_top" xlink:title=" ">
<polygon fill="white" stroke="black" points="448.5,-179.5 448.5,-198.5 510.5,-198.5 510.5,-179.5 448.5,-179.5"/>
<text text-anchor="middle" x="479.5" y="-186.5" font-family="Helvetica,sans-Serif" font-size="10.00">Color.hpp</text>
</a>
</g>
</g>
<!-- Node3&#45;&gt;Node13 -->
<g id="edge14" class="edge">
<title>Node3&#45;&gt;Node13</title>
<path fill="none" stroke="midnightblue" d="M676.16,-353.99C620.3,-348.59 511.93,-328.64 471.5,-255 463.64,-240.69 467.12,-221.98 471.68,-208.31"/>
<polygon fill="midnightblue" stroke="midnightblue" points="475.09,-209.2 475.38,-198.61 468.55,-206.7 475.09,-209.2"/>
</g>
<!-- Node14 -->
<g id="node14" class="node">
<title>Node14</title>
<g id="a_node14"><a xlink:href="Texture_8hpp.html" target="_top" xlink:title=" ">
<polygon fill="white" stroke="black" points="568.5,-291.5 568.5,-310.5 642.5,-310.5 642.5,-291.5 568.5,-291.5"/>
<text text-anchor="middle" x="605.5" y="-298.5" font-family="Helvetica,sans-Serif" font-size="10.00">Texture.hpp</text>
</a>
</g>
</g>
<!-- Node3&#45;&gt;Node14 -->
<g id="edge17" class="edge">
<title>Node3&#45;&gt;Node14</title>
<path fill="none" stroke="midnightblue" d="M693.63,-347.32C676.79,-338.66 650.69,-325.24 631.26,-315.25"/>
<polygon fill="midnightblue" stroke="midnightblue" points="632.82,-312.12 622.33,-310.65 629.62,-318.34 632.82,-312.12"/>
</g>
<!-- Node3&#45;&gt;Node21 -->
<g id="edge41" class="edge">
<title>Node3&#45;&gt;Node21</title>
<path fill="none" stroke="midnightblue" d="M729.36,-347.44C748.77,-338.64 779.23,-324.81 801.46,-314.72"/>
<polygon fill="midnightblue" stroke="midnightblue" points="803.07,-317.84 810.73,-310.52 800.18,-311.46 803.07,-317.84"/>
</g>
<!-- Node22 -->
<g id="node22" class="node">
<title>Node22</title>
<g id="a_node22"><a xlink:href="IDrawable_8hpp.html" target="_top" xlink:title=" ">
<polygon fill="white" stroke="black" points="310,-235.5 310,-254.5 397,-254.5 397,-235.5 310,-235.5"/>
<text text-anchor="middle" x="353.5" y="-242.5" font-family="Helvetica,sans-Serif" font-size="10.00">IDrawable.hpp</text>
</a>
</g>
</g>
<!-- Node3&#45;&gt;Node22 -->
<g id="edge46" class="edge">
<title>Node3&#45;&gt;Node22</title>
<path fill="none" stroke="midnightblue" d="M676.38,-353.78C607.98,-348.85 456.75,-335.47 411.5,-311 391.01,-299.92 374.18,-278.64 364.02,-263.45"/>
<polygon fill="midnightblue" stroke="midnightblue" points="366.91,-261.47 358.59,-254.92 361.01,-265.23 366.91,-261.47"/>
</g>
<!-- Node3&#45;&gt;Node23 -->
<g id="edge50" class="edge">
<title>Node3&#45;&gt;Node23</title>
<path fill="none" stroke="midnightblue" d="M744.76,-350.83C798.32,-342.7 905.11,-326.27 995.5,-311 996.94,-310.76 998.4,-310.51 999.88,-310.25"/>
<polygon fill="midnightblue" stroke="midnightblue" points="1000.49,-313.7 1009.74,-308.53 999.28,-306.8 1000.49,-313.7"/>
</g>
<!-- Node25 -->
<g id="node25" class="node">
<title>Node25</title>
<g id="a_node25"><a xlink:title=" ">
<polygon fill="white" stroke="#bfbfbf" points="292,-291.5 292,-310.5 359,-310.5 359,-291.5 292,-291.5"/>
<text text-anchor="middle" x="325.5" y="-298.5" font-family="Helvetica,sans-Serif" font-size="10.00">raymath.h</text>
</a>
</g>
</g>
<!-- Node3&#45;&gt;Node25 -->
<g id="edge55" class="edge">
<title>Node3&#45;&gt;Node25</title>
<path fill="none" stroke="midnightblue" d="M676.45,-352.05C615.54,-344.86 483.94,-328.72 373.5,-311 372.03,-310.77 370.55,-310.52 369.04,-310.27"/>
<polygon fill="midnightblue" stroke="midnightblue" points="369.48,-306.79 359.03,-308.52 368.28,-313.69 369.48,-306.79"/>
</g>
<!-- Node5&#45;&gt;Node2 -->
<g id="edge6" class="edge">
<title>Node5&#45;&gt;Node2</title>
<path fill="none" stroke="midnightblue" d="M316.64,-125.27C374.07,-114.86 483.75,-94.99 540.87,-84.64"/>
<polygon fill="midnightblue" stroke="midnightblue" points="541.68,-88.05 550.9,-82.82 540.44,-81.16 541.68,-88.05"/>
</g>
<!-- Node6 -->
<g id="node6" class="node">
<title>Node6</title>
<g id="a_node6"><a xlink:href="IXMLSerializable_8hpp.html" target="_top" xlink:title=" ">
<polygon fill="white" stroke="black" points="72,-67.5 72,-86.5 191,-86.5 191,-67.5 72,-67.5"/>
<text text-anchor="middle" x="131.5" y="-74.5" font-family="Helvetica,sans-Serif" font-size="10.00">IXMLSerializable.hpp</text>
</a>
</g>
</g>
<!-- Node5&#45;&gt;Node6 -->
<g id="edge7" class="edge">
<title>Node5&#45;&gt;Node6</title>
<path fill="none" stroke="midnightblue" d="M256.05,-123.44C231.37,-114.44 192.31,-100.19 164.52,-90.05"/>
<polygon fill="midnightblue" stroke="midnightblue" points="165.44,-86.66 154.84,-86.52 163.04,-93.23 165.44,-86.66"/>
</g>
<!-- Node11 -->
<g id="node11" class="node">
<title>Node11</title>
<g id="a_node11"><a xlink:title=" ">
<polygon fill="white" stroke="#bfbfbf" points="209,-67.5 209,-86.5 256,-86.5 256,-67.5 209,-67.5"/>
<text text-anchor="middle" x="232.5" y="-74.5" font-family="Helvetica,sans-Serif" font-size="10.00">cmath</text>
</a>
</g>
</g>
<!-- Node5&#45;&gt;Node11 -->
<g id="edge12" class="edge">
<title>Node5&#45;&gt;Node11</title>
<path fill="none" stroke="midnightblue" d="M271.74,-123.08C264.96,-115.3 254.96,-103.8 246.74,-94.37"/>
<polygon fill="midnightblue" stroke="midnightblue" points="249.32,-92 240.12,-86.75 244.04,-96.59 249.32,-92"/>
</g>
<!-- Node12 -->
<g id="node12" class="node">
<title>Node12</title>
<g id="a_node12"><a xlink:title=" ">
<polygon fill="white" stroke="#bfbfbf" points="274.5,-67.5 274.5,-86.5 330.5,-86.5 330.5,-67.5 274.5,-67.5"/>
<text text-anchor="middle" x="302.5" y="-74.5" font-family="Helvetica,sans-Serif" font-size="10.00">sstream</text>
</a>
</g>
</g>
<!-- Node5&#45;&gt;Node12 -->
<g id="edge13" class="edge">
<title>Node5&#45;&gt;Node12</title>
<path fill="none" stroke="midnightblue" d="M283.3,-123.08C286.41,-115.77 290.92,-105.18 294.79,-96.1"/>
<polygon fill="midnightblue" stroke="midnightblue" points="298.07,-97.32 298.77,-86.75 291.63,-94.58 298.07,-97.32"/>
</g>
<!-- Node7 -->
<g id="node7" class="node">
<title>Node7</title>
<g id="a_node7"><a xlink:title=" ">
<polygon fill="white" stroke="#bfbfbf" points="0,-6 0,-25 57,-25 57,-6 0,-6"/>
<text text-anchor="middle" x="28.5" y="-13" font-family="Helvetica,sans-Serif" font-size="10.00">ostream</text>
</a>
</g>
</g>
<!-- Node6&#45;&gt;Node7 -->
<g id="edge8" class="edge">
<title>Node6&#45;&gt;Node7</title>
<path fill="none" stroke="midnightblue" d="M116.74,-67.48C99.84,-57.71 71.92,-41.58 52.01,-30.08"/>
<polygon fill="midnightblue" stroke="midnightblue" points="53.64,-26.98 43.23,-25.01 50.14,-33.04 53.64,-26.98"/>
</g>
<!-- Node8 -->
<g id="node8" class="node">
<title>Node8</title>
<g id="a_node8"><a xlink:title=" ">
<polygon fill="white" stroke="#bfbfbf" points="337.5,-6 337.5,-25 397.5,-25 397.5,-6 337.5,-6"/>
<text text-anchor="middle" x="367.5" y="-13" font-family="Helvetica,sans-Serif" font-size="10.00">iostream</text>
</a>
</g>
</g>
<!-- Node6&#45;&gt;Node8 -->
<g id="edge9" class="edge">
<title>Node6&#45;&gt;Node8</title>
<path fill="none" stroke="midnightblue" d="M175.88,-67.42C215.87,-59.32 276.1,-46.16 327.5,-31 330.13,-30.22 332.84,-29.37 335.55,-28.47"/>
<polygon fill="midnightblue" stroke="midnightblue" points="336.93,-31.7 345.23,-25.12 334.64,-25.08 336.93,-31.7"/>
</g>
<!-- Node9 -->
<g id="node9" class="node">
<title>Node9</title>
<g id="a_node9"><a xlink:title=" ">
<polygon fill="white" stroke="#bfbfbf" points="75,-0.5 75,-30.5 188,-30.5 188,-0.5 75,-0.5"/>
<text text-anchor="start" x="83" y="-18.5" font-family="Helvetica,sans-Serif" font-size="10.00">boost/property_tree</text>
<text text-anchor="middle" x="131.5" y="-7.5" font-family="Helvetica,sans-Serif" font-size="10.00">/ptree.hpp</text>
</a>
</g>
</g>
<!-- Node6&#45;&gt;Node9 -->
<g id="edge10" class="edge">
<title>Node6&#45;&gt;Node9</title>
<path fill="none" stroke="midnightblue" d="M131.5,-67.48C131.5,-60.47 131.5,-50.19 131.5,-40.7"/>
<polygon fill="midnightblue" stroke="midnightblue" points="135,-40.52 131.5,-30.52 128,-40.52 135,-40.52"/>
</g>
<!-- Node10 -->
<g id="node10" class="node">
<title>Node10</title>
<g id="a_node10"><a xlink:title=" ">
<polygon fill="white" stroke="#bfbfbf" points="206,-0.5 206,-30.5 319,-30.5 319,-0.5 206,-0.5"/>
<text text-anchor="start" x="214" y="-18.5" font-family="Helvetica,sans-Serif" font-size="10.00">boost/property_tree</text>
<text text-anchor="middle" x="262.5" y="-7.5" font-family="Helvetica,sans-Serif" font-size="10.00">/xml_parser.hpp</text>
</a>
</g>
</g>
<!-- Node6&#45;&gt;Node10 -->
<g id="edge11" class="edge">
<title>Node6&#45;&gt;Node10</title>
<path fill="none" stroke="midnightblue" d="M150.27,-67.48C169.01,-58.96 198.39,-45.62 222.39,-34.72"/>
<polygon fill="midnightblue" stroke="midnightblue" points="223.97,-37.85 231.63,-30.52 221.07,-31.47 223.97,-37.85"/>
</g>
<!-- Node13&#45;&gt;Node2 -->
<g id="edge15" class="edge">
<title>Node13&#45;&gt;Node2</title>
<path fill="none" stroke="midnightblue" d="M486.64,-179.49C497.19,-166.99 517.6,-142.96 535.5,-123 544.26,-113.23 554.28,-102.48 562.33,-93.94"/>
<polygon fill="midnightblue" stroke="midnightblue" points="565.01,-96.2 569.35,-86.53 559.93,-91.39 565.01,-96.2"/>
</g>
<!-- Node13&#45;&gt;Node5 -->
<g id="edge16" class="edge">
<title>Node13&#45;&gt;Node5</title>
<path fill="none" stroke="midnightblue" d="M448.25,-179.56C413.96,-170.3 358.77,-155.4 320.9,-145.18"/>
<polygon fill="midnightblue" stroke="midnightblue" points="321.76,-141.78 311.19,-142.56 319.93,-148.54 321.76,-141.78"/>
</g>
<!-- Node14&#45;&gt;Node2 -->
<g id="edge18" class="edge">
<title>Node14&#45;&gt;Node2</title>
<path fill="none" stroke="midnightblue" d="M604.4,-291.3C600.28,-258.63 585.68,-142.87 579.89,-96.96"/>
<polygon fill="midnightblue" stroke="midnightblue" points="583.34,-96.37 578.62,-86.88 576.4,-97.24 583.34,-96.37"/>
</g>
<!-- Node14&#45;&gt;Node4 -->
<g id="edge19" class="edge">
<title>Node14&#45;&gt;Node4</title>
<path fill="none" stroke="midnightblue" d="M634.48,-291.48C656.63,-284.09 687.23,-271.89 710.5,-255 728.83,-241.69 745.36,-221.48 755.84,-207.13"/>
<polygon fill="midnightblue" stroke="midnightblue" points="758.9,-208.87 761.81,-198.68 753.18,-204.83 758.9,-208.87"/>
</g>
<!-- Node14&#45;&gt;Node13 -->
<g id="edge29" class="edge">
<title>Node14&#45;&gt;Node13</title>
<path fill="none" stroke="midnightblue" d="M568.35,-297.13C539.9,-292.79 502.28,-281.95 482.5,-255 472.8,-241.78 473.13,-222.65 475.25,-208.56"/>
<polygon fill="midnightblue" stroke="midnightblue" points="478.72,-209.04 477.16,-198.56 471.84,-207.72 478.72,-209.04"/>
</g>
<!-- Node15 -->
<g id="node15" class="node">
<title>Node15</title>
<g id="a_node15"><a xlink:href="Image_8hpp.html" target="_top" xlink:title=" ">
<polygon fill="white" stroke="black" points="633.5,-235.5 633.5,-254.5 701.5,-254.5 701.5,-235.5 633.5,-235.5"/>
<text text-anchor="middle" x="667.5" y="-242.5" font-family="Helvetica,sans-Serif" font-size="10.00">Image.hpp</text>
</a>
</g>
</g>
<!-- Node14&#45;&gt;Node15 -->
<g id="edge20" class="edge">
<title>Node14&#45;&gt;Node15</title>
<path fill="none" stroke="midnightblue" d="M615.46,-291.32C624.63,-283.34 638.44,-271.31 649.53,-261.65"/>
<polygon fill="midnightblue" stroke="midnightblue" points="652.12,-264.04 657.36,-254.83 647.52,-258.76 652.12,-264.04"/>
</g>
<!-- Node16 -->
<g id="node16" class="node">
<title>Node16</title>
<g id="a_node16"><a xlink:href="Vector2_8hpp.html" target="_top" xlink:title=" ">
<polygon fill="white" stroke="black" points="92.5,-179.5 92.5,-198.5 166.5,-198.5 166.5,-179.5 92.5,-179.5"/>
<text text-anchor="middle" x="129.5" y="-186.5" font-family="Helvetica,sans-Serif" font-size="10.00">Vector2.hpp</text>
</a>
</g>
</g>
<!-- Node14&#45;&gt;Node16 -->
<g id="edge30" class="edge">
<title>Node14&#45;&gt;Node16</title>
<path fill="none" stroke="midnightblue" d="M568.29,-299.11C479.78,-296.48 259.23,-286.83 193.5,-255 171.31,-244.25 152.44,-222.54 141.06,-207.17"/>
<polygon fill="midnightblue" stroke="midnightblue" points="143.61,-204.72 134.98,-198.58 137.9,-208.76 143.61,-204.72"/>
</g>
<!-- Node17 -->
<g id="node17" class="node">
<title>Node17</title>
<g id="a_node17"><a xlink:href="Camera3D_8hpp.html" target="_top" xlink:title=" ">
<polygon fill="white" stroke="black" points="203,-235.5 203,-254.5 292,-254.5 292,-235.5 203,-235.5"/>
<text text-anchor="middle" x="247.5" y="-242.5" font-family="Helvetica,sans-Serif" font-size="10.00">Camera3D.hpp</text>
</a>
</g>
</g>
<!-- Node14&#45;&gt;Node17 -->
<g id="edge31" class="edge">
<title>Node14&#45;&gt;Node17</title>
<path fill="none" stroke="midnightblue" d="M568.37,-294.79C512.76,-286.92 404.26,-271.35 302.19,-255.24"/>
<polygon fill="midnightblue" stroke="midnightblue" points="302.45,-251.74 292.02,-253.63 301.35,-258.65 302.45,-251.74"/>
</g>
<!-- Node19 -->
<g id="node19" class="node">
<title>Node19</title>
<g id="a_node19"><a xlink:href="Rectangle_8hpp.html" target="_top" xlink:title=" ">
<polygon fill="white" stroke="black" points="491.5,-235.5 491.5,-254.5 577.5,-254.5 577.5,-235.5 491.5,-235.5"/>
<text text-anchor="middle" x="534.5" y="-242.5" font-family="Helvetica,sans-Serif" font-size="10.00">Rectangle.hpp</text>
</a>
</g>
</g>
<!-- Node14&#45;&gt;Node19 -->
<g id="edge37" class="edge">
<title>Node14&#45;&gt;Node19</title>
<path fill="none" stroke="midnightblue" d="M594.09,-291.32C583.39,-283.18 567.16,-270.84 554.34,-261.09"/>
<polygon fill="midnightblue" stroke="midnightblue" points="556.19,-258.1 546.11,-254.83 551.96,-263.67 556.19,-258.1"/>
</g>
<!-- Node20 -->
<g id="node20" class="node">
<title>Node20</title>
<g id="a_node20"><a xlink:href="IAsset_8hpp.html" target="_top" xlink:title=" ">
<polygon fill="white" stroke="black" points="795.5,-235.5 795.5,-254.5 863.5,-254.5 863.5,-235.5 795.5,-235.5"/>
<text text-anchor="middle" x="829.5" y="-242.5" font-family="Helvetica,sans-Serif" font-size="10.00">IAsset.hpp</text>
</a>
</g>
</g>
<!-- Node14&#45;&gt;Node20 -->
<g id="edge40" class="edge">
<title>Node14&#45;&gt;Node20</title>
<path fill="none" stroke="midnightblue" d="M640.99,-291.44C680.17,-282 743.26,-266.79 785.53,-256.6"/>
<polygon fill="midnightblue" stroke="midnightblue" points="786.37,-260 795.27,-254.25 784.73,-253.19 786.37,-260"/>
</g>
<!-- Node15&#45;&gt;Node2 -->
<g id="edge22" class="edge">
<title>Node15&#45;&gt;Node2</title>
<path fill="none" stroke="midnightblue" d="M665.25,-235.27C659.69,-214.61 643.91,-161.57 619.5,-123 612.74,-112.33 603.27,-101.91 595.03,-93.8"/>
<polygon fill="midnightblue" stroke="midnightblue" points="597.3,-91.13 587.64,-86.79 592.49,-96.21 597.3,-91.13"/>
</g>
<!-- Node15&#45;&gt;Node4 -->
<g id="edge21" class="edge">
<title>Node15&#45;&gt;Node4</title>
<path fill="none" stroke="midnightblue" d="M683.57,-235.32C699.46,-226.74 724.01,-213.49 742.46,-203.52"/>
<polygon fill="midnightblue" stroke="midnightblue" points="744.34,-206.49 751.47,-198.65 741.01,-200.33 744.34,-206.49"/>
</g>
<!-- Node15&#45;&gt;Node13 -->
<g id="edge23" class="edge">
<title>Node15&#45;&gt;Node13</title>
<path fill="none" stroke="midnightblue" d="M637.71,-235.44C605.67,-226.24 554.57,-211.56 519.15,-201.39"/>
<polygon fill="midnightblue" stroke="midnightblue" points="519.73,-197.91 509.15,-198.52 517.79,-204.64 519.73,-197.91"/>
</g>
<!-- Node15&#45;&gt;Node16 -->
<g id="edge24" class="edge">
<title>Node15&#45;&gt;Node16</title>
<path fill="none" stroke="midnightblue" d="M633.22,-240.08C618.8,-238.46 601.84,-236.59 586.5,-235 420.84,-217.8 379.19,-215.87 213.5,-199 201.65,-197.79 188.87,-196.45 176.93,-195.17"/>
<polygon fill="midnightblue" stroke="midnightblue" points="177.02,-191.66 166.71,-194.07 176.28,-198.62 177.02,-191.66"/>
</g>
<!-- Node16&#45;&gt;Node2 -->
<g id="edge25" class="edge">
<title>Node16&#45;&gt;Node2</title>
<path fill="none" stroke="midnightblue" d="M141.78,-179.39C164.87,-163.36 214.16,-129.94 233.5,-123 340.37,-84.67 476.38,-78.39 540.66,-77.74"/>
<polygon fill="midnightblue" stroke="midnightblue" points="540.73,-81.24 550.71,-77.68 540.69,-74.24 540.73,-81.24"/>
</g>
<!-- Node16&#45;&gt;Node5 -->
<g id="edge27" class="edge">
<title>Node16&#45;&gt;Node5</title>
<path fill="none" stroke="midnightblue" d="M153.27,-179.44C178.39,-170.4 218.21,-156.06 246.4,-145.92"/>
<polygon fill="midnightblue" stroke="midnightblue" points="247.62,-149.2 255.84,-142.52 245.25,-142.61 247.62,-149.2"/>
</g>
<!-- Node16&#45;&gt;Node6 -->
<g id="edge28" class="edge">
<title>Node16&#45;&gt;Node6</title>
<path fill="none" stroke="midnightblue" d="M129.66,-179.37C129.98,-161.62 130.72,-120.67 131.16,-96.6"/>
<polygon fill="midnightblue" stroke="midnightblue" points="134.66,-96.65 131.34,-86.59 127.66,-96.53 134.66,-96.65"/>
</g>
<!-- Node16&#45;&gt;Node11 -->
<g id="edge26" class="edge">
<title>Node16&#45;&gt;Node11</title>
<path fill="none" stroke="midnightblue" d="M137.58,-179.37C154.81,-160.97 195.35,-117.67 217.47,-94.05"/>
<polygon fill="midnightblue" stroke="midnightblue" points="220.18,-96.28 224.46,-86.59 215.07,-91.5 220.18,-96.28"/>
</g>
<!-- Node17&#45;&gt;Node2 -->
<g id="edge32" class="edge">
<title>Node17&#45;&gt;Node2</title>
<path fill="none" stroke="midnightblue" d="M264.19,-235.4C302.95,-215.46 402.12,-164.58 485.5,-123 507.35,-112.1 532.23,-99.95 550.6,-91.02"/>
<polygon fill="midnightblue" stroke="midnightblue" points="552.35,-94.06 559.82,-86.55 549.3,-87.76 552.35,-94.06"/>
</g>
<!-- Node17&#45;&gt;Node5 -->
<g id="edge34" class="edge">
<title>Node17&#45;&gt;Node5</title>
<path fill="none" stroke="midnightblue" d="M258.49,-235.37C267.95,-227.17 280.94,-213.92 286.5,-199 292.08,-184.05 289.42,-165.91 285.88,-152.59"/>
<polygon fill="midnightblue" stroke="midnightblue" points="289.14,-151.27 282.87,-142.72 282.44,-153.31 289.14,-151.27"/>
</g>
<!-- Node17&#45;&gt;Node16 -->
<g id="edge33" class="edge">
<title>Node17&#45;&gt;Node16</title>
<path fill="none" stroke="midnightblue" d="M228.8,-235.44C209.56,-226.64 179.35,-212.81 157.3,-202.72"/>
<polygon fill="midnightblue" stroke="midnightblue" points="158.66,-199.5 148.11,-198.52 155.75,-205.86 158.66,-199.5"/>
</g>
<!-- Node18 -->
<g id="node18" class="node">
<title>Node18</title>
<g id="a_node18"><a xlink:href="Ray_8hpp.html" target="_top" xlink:title=" ">
<polygon fill="white" stroke="black" points="223,-179.5 223,-198.5 278,-198.5 278,-179.5 223,-179.5"/>
<text text-anchor="middle" x="250.5" y="-186.5" font-family="Helvetica,sans-Serif" font-size="10.00">Ray.hpp</text>
</a>
</g>
</g>
<!-- Node17&#45;&gt;Node18 -->
<g id="edge35" class="edge">
<title>Node17&#45;&gt;Node18</title>
<path fill="none" stroke="midnightblue" d="M248,-235.08C248.39,-228.01 248.95,-217.86 249.45,-208.99"/>
<polygon fill="midnightblue" stroke="midnightblue" points="252.95,-208.93 250.01,-198.75 245.96,-208.54 252.95,-208.93"/>
</g>
<!-- Node18&#45;&gt;Node5 -->
<g id="edge36" class="edge">
<title>Node18&#45;&gt;Node5</title>
<path fill="none" stroke="midnightblue" d="M255.29,-179.08C259.26,-171.69 265.03,-160.95 269.93,-151.81"/>
<polygon fill="midnightblue" stroke="midnightblue" points="273.15,-153.22 274.8,-142.75 266.99,-149.91 273.15,-153.22"/>
</g>
<!-- Node19&#45;&gt;Node2 -->
<g id="edge38" class="edge">
<title>Node19&#45;&gt;Node2</title>
<path fill="none" stroke="midnightblue" d="M536.81,-235.08C543.58,-208.95 563.46,-132.21 572.69,-96.58"/>
<polygon fill="midnightblue" stroke="midnightblue" points="576.16,-97.13 575.28,-86.57 569.38,-95.37 576.16,-97.13"/>
</g>
<!-- Node19&#45;&gt;Node13 -->
<g id="edge39" class="edge">
<title>Node19&#45;&gt;Node13</title>
<path fill="none" stroke="midnightblue" d="M525.42,-235.08C517.33,-227.14 505.3,-215.34 495.59,-205.8"/>
<polygon fill="midnightblue" stroke="midnightblue" points="498,-203.26 488.41,-198.75 493.1,-208.25 498,-203.26"/>
</g>
<!-- Node21&#45;&gt;Node2 -->
<g id="edge42" class="edge">
<title>Node21&#45;&gt;Node2</title>
<path fill="none" stroke="midnightblue" d="M848.48,-291.4C862.39,-283.95 880.21,-271.74 888.5,-255 906.77,-218.09 869.65,-202.01 835.5,-179 764.07,-130.86 666.34,-100.65 614.05,-86.84"/>
<polygon fill="midnightblue" stroke="midnightblue" points="614.78,-83.41 604.22,-84.3 613.02,-90.19 614.78,-83.41"/>
</g>
<!-- Node21&#45;&gt;Node5 -->
<g id="edge44" class="edge">
<title>Node21&#45;&gt;Node5</title>
<path fill="none" stroke="midnightblue" d="M842.3,-291.38C858.53,-279.31 883.16,-256.44 872.5,-235 854.13,-198.07 837,-193.81 798.5,-179 713.04,-146.13 438.12,-137.11 326.88,-134.77"/>
<polygon fill="midnightblue" stroke="midnightblue" points="326.71,-131.26 316.64,-134.56 326.57,-138.26 326.71,-131.26"/>
</g>
<!-- Node21&#45;&gt;Node15 -->
<g id="edge43" class="edge">
<title>Node21&#45;&gt;Node15</title>
<path fill="none" stroke="midnightblue" d="M803.83,-291.44C776.58,-282.36 733.32,-267.94 702.85,-257.78"/>
<polygon fill="midnightblue" stroke="midnightblue" points="703.64,-254.36 693.05,-254.52 701.43,-261 703.64,-254.36"/>
</g>
<!-- Node21&#45;&gt;Node20 -->
<g id="edge45" class="edge">
<title>Node21&#45;&gt;Node20</title>
<path fill="none" stroke="midnightblue" d="M829.5,-291.08C829.5,-284.01 829.5,-273.86 829.5,-264.99"/>
<polygon fill="midnightblue" stroke="midnightblue" points="833,-264.75 829.5,-254.75 826,-264.75 833,-264.75"/>
</g>
<!-- Node22&#45;&gt;Node2 -->
<g id="edge47" class="edge">
<title>Node22&#45;&gt;Node2</title>
<path fill="none" stroke="midnightblue" d="M364.74,-235.38C390.86,-215.4 457.75,-164.45 514.5,-123 528.65,-112.67 544.72,-101.19 557.1,-92.41"/>
<polygon fill="midnightblue" stroke="midnightblue" points="559.23,-95.19 565.37,-86.55 555.18,-89.47 559.23,-95.19"/>
</g>
<!-- Node22&#45;&gt;Node5 -->
<g id="edge48" class="edge">
<title>Node22&#45;&gt;Node5</title>
<path fill="none" stroke="midnightblue" d="M347.69,-235.37C335.48,-217.22 306.95,-174.8 290.93,-150.99"/>
<polygon fill="midnightblue" stroke="midnightblue" points="293.77,-148.94 285.28,-142.59 287.96,-152.84 293.77,-148.94"/>
</g>
<!-- Node22&#45;&gt;Node13 -->
<g id="edge49" class="edge">
<title>Node22&#45;&gt;Node13</title>
<path fill="none" stroke="midnightblue" d="M373.47,-235.44C394.11,-226.6 426.56,-212.69 450.13,-202.59"/>
<polygon fill="midnightblue" stroke="midnightblue" points="451.82,-205.67 459.63,-198.52 449.06,-199.24 451.82,-205.67"/>
</g>
<!-- Node23&#45;&gt;Node2 -->
<g id="edge53" class="edge">
<title>Node23&#45;&gt;Node2</title>
<path fill="none" stroke="midnightblue" d="M1058.28,-291.37C1068.89,-283.36 1083.23,-270.38 1089.5,-255 1092.86,-246.77 1091.95,-243.54 1089.5,-235 1073.32,-178.57 1069.33,-154.02 1019.5,-123 952.19,-81.1 707.96,-77.47 614.35,-77.67"/>
<polygon fill="midnightblue" stroke="midnightblue" points="614.21,-74.17 604.22,-77.71 614.23,-81.17 614.21,-74.17"/>
</g>
<!-- Node23&#45;&gt;Node4 -->
<g id="edge52" class="edge">
<title>Node23&#45;&gt;Node4</title>
<path fill="none" stroke="midnightblue" d="M1023.69,-291.37C974.66,-271.97 855.62,-224.87 798.76,-202.37"/>
<polygon fill="midnightblue" stroke="midnightblue" points="799.8,-199.02 789.21,-198.59 797.22,-205.53 799.8,-199.02"/>
</g>
<!-- Node23&#45;&gt;Node20 -->
<g id="edge51" class="edge">
<title>Node23&#45;&gt;Node20</title>
<path fill="none" stroke="midnightblue" d="M1011.27,-291.44C973.99,-282.12 914.23,-267.18 873.49,-257"/>
<polygon fill="midnightblue" stroke="midnightblue" points="874.12,-253.55 863.57,-254.52 872.42,-260.34 874.12,-253.55"/>
</g>
<!-- Node24 -->
<g id="node24" class="node">
<title>Node24</title>
<g id="a_node24"><a xlink:title=" ">
<polygon fill="white" stroke="#bfbfbf" points="1034,-235.5 1034,-254.5 1081,-254.5 1081,-235.5 1034,-235.5"/>
<text text-anchor="middle" x="1057.5" y="-242.5" font-family="Helvetica,sans-Serif" font-size="10.00">vector</text>
</a>
</g>
</g>
<!-- Node23&#45;&gt;Node24 -->
<g id="edge54" class="edge">
<title>Node23&#45;&gt;Node24</title>
<path fill="none" stroke="midnightblue" d="M1047.48,-291.08C1049.07,-283.93 1051.36,-273.64 1053.35,-264.69"/>
<polygon fill="midnightblue" stroke="midnightblue" points="1056.8,-265.27 1055.56,-254.75 1049.97,-263.75 1056.8,-265.27"/>
</g>
<!-- Node26&#45;&gt;Node6 -->
<g id="edge58" class="edge">
<title>Node26&#45;&gt;Node6</title>
<path fill="none" stroke="midnightblue" d="M66.87,-123.32C78.66,-115.06 96.63,-102.45 110.64,-92.63"/>
<polygon fill="midnightblue" stroke="midnightblue" points="112.98,-95.26 119.16,-86.65 108.96,-89.53 112.98,-95.26"/>
</g>
<!-- Node26&#45;&gt;Node7 -->
<g id="edge57" class="edge">
<title>Node26&#45;&gt;Node7</title>
<path fill="none" stroke="midnightblue" d="M52.55,-123.32C48.35,-104.67 38.39,-60.44 32.69,-35.13"/>
<polygon fill="midnightblue" stroke="midnightblue" points="36.09,-34.27 30.48,-25.28 29.26,-35.81 36.09,-34.27"/>
</g>
<!-- Node27&#45;&gt;Node4 -->
<g id="edge63" class="edge">
<title>Node27&#45;&gt;Node4</title>
<path fill="none" stroke="midnightblue" d="M1111.1,-347.46C1114.72,-325.31 1120.9,-265.63 1089.5,-235 1048.87,-195.37 873.36,-190.23 799.96,-189.85"/>
<polygon fill="midnightblue" stroke="midnightblue" points="799.91,-186.35 789.9,-189.83 799.89,-193.35 799.91,-186.35"/>
</g>
<!-- Node28 -->
<g id="node28" class="node">
<title>Node28</title>
<g id="a_node28"><a xlink:title=" ">
<polygon fill="white" stroke="#bfbfbf" points="1138,-291.5 1138,-310.5 1203,-310.5 1203,-291.5 1138,-291.5"/>
<text text-anchor="middle" x="1170.5" y="-298.5" font-family="Helvetica,sans-Serif" font-size="10.00">exception</text>
</a>
</g>
</g>
<!-- Node27&#45;&gt;Node28 -->
<g id="edge62" class="edge">
<title>Node27&#45;&gt;Node28</title>
<path fill="none" stroke="midnightblue" d="M1119.3,-347.32C1128.32,-339.34 1141.91,-327.31 1152.82,-317.65"/>
<polygon fill="midnightblue" stroke="midnightblue" points="1155.35,-320.08 1160.52,-310.83 1150.71,-314.84 1155.35,-320.08"/>
</g>
</g>
</svg>
