<?xml version="1.0" encoding="UTF-8" standalone="no"?>
<!DOCTYPE svg PUBLIC "-//W3C//DTD SVG 1.1//EN"
 "http://www.w3.org/Graphics/SVG/1.1/DTD/svg11.dtd">
<!-- Generated by graphviz version 2.43.0 (0)
 -->
<!-- Title: Libs/Engine/sources/XML/EntityLoader/EntityLoader.hpp Pages: 1 -->
<svg width="943pt" height="351pt"
 viewBox="0.00 0.00 943.00 351.00" xmlns="http://www.w3.org/2000/svg" xmlns:xlink="http://www.w3.org/1999/xlink">
<g id="graph0" class="graph" transform="scale(1 1) rotate(0) translate(4 347)">
<title>Libs/Engine/sources/XML/EntityLoader/EntityLoader.hpp</title>
<polygon fill="white" stroke="transparent" points="-4,4 -4,-347 939,-347 939,4 -4,4"/>
<!-- Node1 -->
<g id="node1" class="node">
<title>Node1</title>
<g id="a_node1"><a xlink:title=" ">
<polygon fill="#bfbfbf" stroke="black" points="388.5,-312.5 388.5,-342.5 578.5,-342.5 578.5,-312.5 388.5,-312.5"/>
<text text-anchor="start" x="396.5" y="-330.5" font-family="Helvetica,sans-Serif" font-size="10.00">Libs/Engine/sources</text>
<text text-anchor="middle" x="483.5" y="-319.5" font-family="Helvetica,sans-Serif" font-size="10.00">/XML/EntityLoader/EntityLoader.hpp</text>
</a>
</g>
</g>
<!-- Node2 -->
<g id="node2" class="node">
<title>Node2</title>
<g id="a_node2"><a xlink:href="GameConfigurator_8hpp.html" target="_top" xlink:title=" ">
<polygon fill="white" stroke="black" points="298,-234.5 298,-275.5 471,-275.5 471,-234.5 298,-234.5"/>
<text text-anchor="start" x="306" y="-263.5" font-family="Helvetica,sans-Serif" font-size="10.00">Libs/Engine/sources</text>
<text text-anchor="start" x="306" y="-252.5" font-family="Helvetica,sans-Serif" font-size="10.00">/Components/GameConfigurator</text>
<text text-anchor="middle" x="384.5" y="-241.5" font-family="Helvetica,sans-Serif" font-size="10.00">/GameConfigurator.hpp</text>
</a>
</g>
</g>
<!-- Node1&#45;&gt;Node2 -->
<g id="edge1" class="edge">
<title>Node1&#45;&gt;Node2</title>
<path fill="none" stroke="midnightblue" d="M455.01,-306.21C441.49,-296.58 425.4,-285.12 412.01,-275.59"/>
<polygon fill="midnightblue" stroke="midnightblue" points="453.29,-309.28 463.47,-312.23 457.35,-303.58 453.29,-309.28"/>
</g>
<!-- Node15 -->
<g id="node15" class="node">
<title>Node15</title>
<g id="a_node15"><a xlink:href="EntityLoader_8cpp.html" target="_top" xlink:title=" ">
<polygon fill="white" stroke="black" points="489,-240 489,-270 678,-270 678,-240 489,-240"/>
<text text-anchor="start" x="497" y="-258" font-family="Helvetica,sans-Serif" font-size="10.00">Libs/Engine/sources</text>
<text text-anchor="middle" x="583.5" y="-247" font-family="Helvetica,sans-Serif" font-size="10.00">/XML/EntityLoader/EntityLoader.cpp</text>
</a>
</g>
</g>
<!-- Node1&#45;&gt;Node15 -->
<g id="edge15" class="edge">
<title>Node1&#45;&gt;Node15</title>
<path fill="none" stroke="midnightblue" d="M511.97,-306.43C528.48,-294.79 548.86,-280.42 563.63,-270"/>
<polygon fill="midnightblue" stroke="midnightblue" points="509.89,-303.61 503.74,-312.23 513.93,-309.33 509.89,-303.61"/>
</g>
<!-- Node3 -->
<g id="node3" class="node">
<title>Node3</title>
<g id="a_node3"><a xlink:href="Bomberman_2sources_2main_8cpp.html" target="_top" xlink:title=" ">
<polygon fill="white" stroke="black" points="0,-167.5 0,-186.5 165,-186.5 165,-167.5 0,-167.5"/>
<text text-anchor="middle" x="82.5" y="-174.5" font-family="Helvetica,sans-Serif" font-size="10.00">Bomberman/sources/main.cpp</text>
</a>
</g>
</g>
<!-- Node2&#45;&gt;Node3 -->
<g id="edge2" class="edge">
<title>Node2&#45;&gt;Node3</title>
<path fill="none" stroke="midnightblue" d="M296.83,-231.94C236.57,-216.77 159.88,-197.47 116.48,-186.55"/>
<polygon fill="midnightblue" stroke="midnightblue" points="296.18,-235.38 306.73,-234.43 297.88,-228.59 296.18,-235.38"/>
</g>
<!-- Node4 -->
<g id="node4" class="node">
<title>Node4</title>
<g id="a_node4"><a xlink:href="GameConfigurator_8cpp.html" target="_top" xlink:title=" ">
<polygon fill="white" stroke="black" points="183,-156.5 183,-197.5 356,-197.5 356,-156.5 183,-156.5"/>
<text text-anchor="start" x="191" y="-185.5" font-family="Helvetica,sans-Serif" font-size="10.00">Libs/Engine/sources</text>
<text text-anchor="start" x="191" y="-174.5" font-family="Helvetica,sans-Serif" font-size="10.00">/Components/GameConfigurator</text>
<text text-anchor="middle" x="269.5" y="-163.5" font-family="Helvetica,sans-Serif" font-size="10.00">/GameConfigurator.cpp</text>
</a>
</g>
</g>
<!-- Node2&#45;&gt;Node4 -->
<g id="edge3" class="edge">
<title>Node2&#45;&gt;Node4</title>
<path fill="none" stroke="midnightblue" d="M346.12,-228.64C330.76,-218.49 313.35,-206.98 299.01,-197.51"/>
<polygon fill="midnightblue" stroke="midnightblue" points="344.61,-231.83 354.88,-234.43 348.47,-225.99 344.61,-231.83"/>
</g>
<!-- Node5 -->
<g id="node5" class="node">
<title>Node5</title>
<g id="a_node5"><a xlink:href="Scenes_8cpp.html" target="_top" xlink:title=" ">
<polygon fill="white" stroke="black" points="299,-84 299,-114 412,-114 412,-84 299,-84"/>
<text text-anchor="start" x="307" y="-102" font-family="Helvetica,sans-Serif" font-size="10.00">Libs/Engine/sources</text>
<text text-anchor="middle" x="355.5" y="-91" font-family="Helvetica,sans-Serif" font-size="10.00">/Scenes/Scenes.cpp</text>
</a>
</g>
</g>
<!-- Node2&#45;&gt;Node5 -->
<g id="edge4" class="edge">
<title>Node2&#45;&gt;Node5</title>
<path fill="none" stroke="midnightblue" d="M378.95,-224.51C372.73,-191.49 362.91,-139.34 358.2,-114.32"/>
<polygon fill="midnightblue" stroke="midnightblue" points="375.54,-225.32 380.83,-234.5 382.42,-224.02 375.54,-225.32"/>
</g>
<!-- Node6 -->
<g id="node6" class="node">
<title>Node6</title>
<g id="a_node6"><a xlink:href="AIMapsGenerator_8hpp.html" target="_top" xlink:title=" ">
<polygon fill="white" stroke="black" points="412,-156.5 412,-197.5 561,-197.5 561,-156.5 412,-156.5"/>
<text text-anchor="start" x="420" y="-185.5" font-family="Helvetica,sans-Serif" font-size="10.00">Libs/Engine/sources</text>
<text text-anchor="start" x="420" y="-174.5" font-family="Helvetica,sans-Serif" font-size="10.00">/Systems/AIMapsGenerator</text>
<text text-anchor="middle" x="486.5" y="-163.5" font-family="Helvetica,sans-Serif" font-size="10.00">/AIMapsGenerator.hpp</text>
</a>
</g>
</g>
<!-- Node2&#45;&gt;Node6 -->
<g id="edge5" class="edge">
<title>Node2&#45;&gt;Node6</title>
<path fill="none" stroke="midnightblue" d="M418.92,-228.35C432.45,-218.27 447.72,-206.89 460.32,-197.51"/>
<polygon fill="midnightblue" stroke="midnightblue" points="416.7,-225.65 410.77,-234.43 420.88,-231.26 416.7,-225.65"/>
</g>
<!-- Node14 -->
<g id="node14" class="node">
<title>Node14</title>
<g id="a_node14"><a xlink:href="Prototype_2sources_2Behaviour_2main_8cpp.html" target="_top" xlink:title=" ">
<polygon fill="white" stroke="black" points="579,-162 579,-192 736,-192 736,-162 579,-162"/>
<text text-anchor="start" x="587" y="-180" font-family="Helvetica,sans-Serif" font-size="10.00">Prototype/sources/Behaviour</text>
<text text-anchor="middle" x="657.5" y="-169" font-family="Helvetica,sans-Serif" font-size="10.00">/main.cpp</text>
</a>
</g>
</g>
<!-- Node2&#45;&gt;Node14 -->
<g id="edge14" class="edge">
<title>Node2&#45;&gt;Node14</title>
<path fill="none" stroke="midnightblue" d="M464.46,-231.74C510.47,-218.93 566.89,-203.22 606.83,-192.11"/>
<polygon fill="midnightblue" stroke="midnightblue" points="463.5,-228.37 454.8,-234.43 465.38,-235.12 463.5,-228.37"/>
</g>
<!-- Node6&#45;&gt;Node5 -->
<g id="edge12" class="edge">
<title>Node6&#45;&gt;Node5</title>
<path fill="none" stroke="midnightblue" d="M443.95,-151.31C422.79,-139.04 397.97,-124.64 380.02,-114.23"/>
<polygon fill="midnightblue" stroke="midnightblue" points="442.36,-154.44 452.76,-156.43 445.87,-148.38 442.36,-154.44"/>
</g>
<!-- Node7 -->
<g id="node7" class="node">
<title>Node7</title>
<g id="a_node7"><a xlink:href="AIAlgo_8hpp.html" target="_top" xlink:title=" ">
<polygon fill="white" stroke="black" points="430,-84 430,-114 601,-114 601,-84 430,-84"/>
<text text-anchor="start" x="438" y="-102" font-family="Helvetica,sans-Serif" font-size="10.00">Libs/Engine/sources</text>
<text text-anchor="middle" x="515.5" y="-91" font-family="Helvetica,sans-Serif" font-size="10.00">/Components/AIAlgo/AIAlgo.hpp</text>
</a>
</g>
</g>
<!-- Node6&#45;&gt;Node7 -->
<g id="edge6" class="edge">
<title>Node6&#45;&gt;Node7</title>
<path fill="none" stroke="midnightblue" d="M497.58,-146.96C501.86,-135.75 506.56,-123.43 510.07,-114.23"/>
<polygon fill="midnightblue" stroke="midnightblue" points="494.26,-145.84 493.97,-156.43 500.8,-148.33 494.26,-145.84"/>
</g>
<!-- Node13 -->
<g id="node13" class="node">
<title>Node13</title>
<g id="a_node13"><a xlink:href="AIMapsGenerator_8cpp.html" target="_top" xlink:title=" ">
<polygon fill="white" stroke="black" points="619,-78.5 619,-119.5 768,-119.5 768,-78.5 619,-78.5"/>
<text text-anchor="start" x="627" y="-107.5" font-family="Helvetica,sans-Serif" font-size="10.00">Libs/Engine/sources</text>
<text text-anchor="start" x="627" y="-96.5" font-family="Helvetica,sans-Serif" font-size="10.00">/Systems/AIMapsGenerator</text>
<text text-anchor="middle" x="693.5" y="-85.5" font-family="Helvetica,sans-Serif" font-size="10.00">/AIMapsGenerator.cpp</text>
</a>
</g>
</g>
<!-- Node6&#45;&gt;Node13 -->
<g id="edge13" class="edge">
<title>Node6&#45;&gt;Node13</title>
<path fill="none" stroke="midnightblue" d="M549.45,-152.89C578.51,-142.22 612.63,-129.69 640.37,-119.51"/>
<polygon fill="midnightblue" stroke="midnightblue" points="547.99,-149.7 539.81,-156.43 550.4,-156.27 547.99,-149.7"/>
</g>
<!-- Node8 -->
<g id="node8" class="node">
<title>Node8</title>
<g id="a_node8"><a xlink:href="AIAlgo_8cpp.html" target="_top" xlink:title=" ">
<polygon fill="white" stroke="black" points="76.5,-6 76.5,-36 246.5,-36 246.5,-6 76.5,-6"/>
<text text-anchor="start" x="84.5" y="-24" font-family="Helvetica,sans-Serif" font-size="10.00">Libs/Engine/sources</text>
<text text-anchor="middle" x="161.5" y="-13" font-family="Helvetica,sans-Serif" font-size="10.00">/Components/AIAlgo/AIAlgo.cpp</text>
</a>
</g>
</g>
<!-- Node7&#45;&gt;Node8 -->
<g id="edge7" class="edge">
<title>Node7&#45;&gt;Node8</title>
<path fill="none" stroke="midnightblue" d="M440.22,-81.84C376.85,-68.23 287.13,-48.97 226.76,-36.01"/>
<polygon fill="midnightblue" stroke="midnightblue" points="439.65,-85.29 450.16,-83.97 441.12,-78.45 439.65,-85.29"/>
</g>
<!-- Node9 -->
<g id="node9" class="node">
<title>Node9</title>
<g id="a_node9"><a xlink:href="CoolDownBoost_8cpp.html" target="_top" xlink:title=" ">
<polygon fill="white" stroke="black" points="265,-0.5 265,-41.5 426,-41.5 426,-0.5 265,-0.5"/>
<text text-anchor="start" x="273" y="-29.5" font-family="Helvetica,sans-Serif" font-size="10.00">Libs/Engine/sources</text>
<text text-anchor="start" x="273" y="-18.5" font-family="Helvetica,sans-Serif" font-size="10.00">/Components/CoolDownBoost</text>
<text text-anchor="middle" x="345.5" y="-7.5" font-family="Helvetica,sans-Serif" font-size="10.00">/CoolDownBoost.cpp</text>
</a>
</g>
</g>
<!-- Node7&#45;&gt;Node9 -->
<g id="edge8" class="edge">
<title>Node7&#45;&gt;Node9</title>
<path fill="none" stroke="midnightblue" d="M474.46,-79.65C448.75,-68.16 415.64,-53.36 389.4,-41.63"/>
<polygon fill="midnightblue" stroke="midnightblue" points="473.36,-83 483.92,-83.88 476.22,-76.61 473.36,-83"/>
</g>
<!-- Node10 -->
<g id="node10" class="node">
<title>Node10</title>
<g id="a_node10"><a xlink:href="RangeBoost_8cpp.html" target="_top" xlink:title=" ">
<polygon fill="white" stroke="black" points="444,-0.5 444,-41.5 587,-41.5 587,-0.5 444,-0.5"/>
<text text-anchor="start" x="452" y="-29.5" font-family="Helvetica,sans-Serif" font-size="10.00">Libs/Engine/sources</text>
<text text-anchor="start" x="452" y="-18.5" font-family="Helvetica,sans-Serif" font-size="10.00">/Components/RangeBoost</text>
<text text-anchor="middle" x="515.5" y="-7.5" font-family="Helvetica,sans-Serif" font-size="10.00">/RangeBoost.cpp</text>
</a>
</g>
</g>
<!-- Node7&#45;&gt;Node10 -->
<g id="edge9" class="edge">
<title>Node7&#45;&gt;Node10</title>
<path fill="none" stroke="midnightblue" d="M515.5,-73.66C515.5,-63.33 515.5,-51.44 515.5,-41.68"/>
<polygon fill="midnightblue" stroke="midnightblue" points="512,-73.7 515.5,-83.7 519,-73.71 512,-73.7"/>
</g>
<!-- Node11 -->
<g id="node11" class="node">
<title>Node11</title>
<g id="a_node11"><a xlink:href="SpeedBoost_8cpp.html" target="_top" xlink:title=" ">
<polygon fill="white" stroke="black" points="605.5,-0.5 605.5,-41.5 747.5,-41.5 747.5,-0.5 605.5,-0.5"/>
<text text-anchor="start" x="613.5" y="-29.5" font-family="Helvetica,sans-Serif" font-size="10.00">Libs/Engine/sources</text>
<text text-anchor="start" x="613.5" y="-18.5" font-family="Helvetica,sans-Serif" font-size="10.00">/Components/SpeedBoost</text>
<text text-anchor="middle" x="676.5" y="-7.5" font-family="Helvetica,sans-Serif" font-size="10.00">/SpeedBoost.cpp</text>
</a>
</g>
</g>
<!-- Node7&#45;&gt;Node11 -->
<g id="edge10" class="edge">
<title>Node7&#45;&gt;Node11</title>
<path fill="none" stroke="midnightblue" d="M554.69,-79.5C578.99,-68.03 610.18,-53.3 634.92,-41.63"/>
<polygon fill="midnightblue" stroke="midnightblue" points="552.95,-76.45 545.41,-83.88 555.94,-82.78 552.95,-76.45"/>
</g>
<!-- Node12 -->
<g id="node12" class="node">
<title>Node12</title>
<g id="a_node12"><a xlink:href="EntityFactory_8cpp.html" target="_top" xlink:title=" ">
<polygon fill="white" stroke="black" points="766,-6 766,-36 935,-36 935,-6 766,-6"/>
<text text-anchor="start" x="774" y="-24" font-family="Helvetica,sans-Serif" font-size="10.00">Libs/Engine/sources</text>
<text text-anchor="middle" x="850.5" y="-13" font-family="Helvetica,sans-Serif" font-size="10.00">/EntityFactory/EntityFactory.cpp</text>
</a>
</g>
</g>
<!-- Node7&#45;&gt;Node12 -->
<g id="edge11" class="edge">
<title>Node7&#45;&gt;Node12</title>
<path fill="none" stroke="midnightblue" d="M587.11,-81.75C647.06,-68.15 731.73,-48.95 788.74,-36.01"/>
<polygon fill="midnightblue" stroke="midnightblue" points="586.31,-78.35 577.33,-83.97 587.86,-85.17 586.31,-78.35"/>
</g>
</g>
</svg>
