<?xml version="1.0" encoding="UTF-8" standalone="no"?>
<!DOCTYPE svg PUBLIC "-//W3C//DTD SVG 1.1//EN"
 "http://www.w3.org/Graphics/SVG/1.1/DTD/svg11.dtd">
<!-- Generated by graphviz version 2.43.0 (0)
 -->
<!-- Title: Libs/ECS/sources/Entity/Entity.hpp Pages: 1 -->
<svg width="1075pt" height="274pt"
 viewBox="0.00 0.00 1074.50 274.00" xmlns="http://www.w3.org/2000/svg" xmlns:xlink="http://www.w3.org/1999/xlink">
<g id="graph0" class="graph" transform="scale(1 1) rotate(0) translate(4 270)">
<title>Libs/ECS/sources/Entity/Entity.hpp</title>
<polygon fill="white" stroke="transparent" points="-4,4 -4,-270 1070.5,-270 1070.5,4 -4,4"/>
<!-- Node1 -->
<g id="node1" class="node">
<title>Node1</title>
<g id="a_node1"><a xlink:title=" ">
<polygon fill="#bfbfbf" stroke="black" points="252,-235.5 252,-265.5 382,-265.5 382,-235.5 252,-235.5"/>
<text text-anchor="start" x="260" y="-253.5" font-family="Helvetica,sans-Serif" font-size="10.00">Libs/ECS/sources/Entity</text>
<text text-anchor="middle" x="317" y="-242.5" font-family="Helvetica,sans-Serif" font-size="10.00">/Entity.hpp</text>
</a>
</g>
</g>
<!-- Node2 -->
<g id="node2" class="node">
<title>Node2</title>
<g id="a_node2"><a xlink:title=" ">
<polygon fill="white" stroke="#bfbfbf" points="0,-123.5 0,-142.5 62,-142.5 62,-123.5 0,-123.5"/>
<text text-anchor="middle" x="31" y="-130.5" font-family="Helvetica,sans-Serif" font-size="10.00">cinttypes</text>
</a>
</g>
</g>
<!-- Node1&#45;&gt;Node2 -->
<g id="edge1" class="edge">
<title>Node1&#45;&gt;Node2</title>
<path fill="none" stroke="midnightblue" d="M251.7,-244.21C205.8,-238.26 144.22,-225.66 96,-199 74.49,-187.11 55.33,-165.99 43.48,-151.06"/>
<polygon fill="midnightblue" stroke="midnightblue" points="45.95,-148.52 37.1,-142.7 40.38,-152.77 45.95,-148.52"/>
</g>
<!-- Node3 -->
<g id="node3" class="node">
<title>Node3</title>
<g id="a_node3"><a xlink:title=" ">
<polygon fill="white" stroke="#bfbfbf" points="271.5,-123.5 271.5,-142.5 364.5,-142.5 364.5,-123.5 271.5,-123.5"/>
<text text-anchor="middle" x="318" y="-130.5" font-family="Helvetica,sans-Serif" font-size="10.00">unordered_map</text>
</a>
</g>
</g>
<!-- Node1&#45;&gt;Node3 -->
<g id="edge2" class="edge">
<title>Node1&#45;&gt;Node3</title>
<path fill="none" stroke="midnightblue" d="M317.12,-235.34C317.3,-214.62 317.64,-176.02 317.84,-152.9"/>
<polygon fill="midnightblue" stroke="midnightblue" points="321.34,-152.7 317.92,-142.67 314.34,-152.64 321.34,-152.7"/>
</g>
<!-- Node4 -->
<g id="node4" class="node">
<title>Node4</title>
<g id="a_node4"><a xlink:title=" ">
<polygon fill="white" stroke="#bfbfbf" points="130,-123.5 130,-142.5 188,-142.5 188,-123.5 130,-123.5"/>
<text text-anchor="middle" x="159" y="-130.5" font-family="Helvetica,sans-Serif" font-size="10.00">memory</text>
</a>
</g>
</g>
<!-- Node1&#45;&gt;Node4 -->
<g id="edge3" class="edge">
<title>Node1&#45;&gt;Node4</title>
<path fill="none" stroke="midnightblue" d="M298.15,-235.35C279.03,-221.05 248.57,-198.34 222,-179 207.84,-168.69 191.76,-157.21 179.39,-148.43"/>
<polygon fill="midnightblue" stroke="midnightblue" points="181.31,-145.49 171.12,-142.56 177.26,-151.2 181.31,-145.49"/>
</g>
<!-- Node5 -->
<g id="node5" class="node">
<title>Node5</title>
<g id="a_node5"><a xlink:title=" ">
<polygon fill="white" stroke="#bfbfbf" points="383,-123.5 383,-142.5 447,-142.5 447,-123.5 383,-123.5"/>
<text text-anchor="middle" x="415" y="-130.5" font-family="Helvetica,sans-Serif" font-size="10.00">algorithm</text>
</a>
</g>
</g>
<!-- Node1&#45;&gt;Node5 -->
<g id="edge4" class="edge">
<title>Node1&#45;&gt;Node5</title>
<path fill="none" stroke="midnightblue" d="M328.11,-235.25C339.43,-220.87 357.6,-198.11 374,-179 382.35,-169.28 391.99,-158.67 399.82,-150.2"/>
<polygon fill="midnightblue" stroke="midnightblue" points="402.43,-152.53 406.67,-142.83 397.3,-147.76 402.43,-152.53"/>
</g>
<!-- Node6 -->
<g id="node6" class="node">
<title>Node6</title>
<g id="a_node6"><a xlink:title=" ">
<polygon fill="white" stroke="#bfbfbf" points="206.5,-123.5 206.5,-142.5 253.5,-142.5 253.5,-123.5 206.5,-123.5"/>
<text text-anchor="middle" x="230" y="-130.5" font-family="Helvetica,sans-Serif" font-size="10.00">vector</text>
</a>
</g>
</g>
<!-- Node1&#45;&gt;Node6 -->
<g id="edge5" class="edge">
<title>Node1&#45;&gt;Node6</title>
<path fill="none" stroke="midnightblue" d="M306.33,-235.34C290.23,-213.96 259.78,-173.53 242.6,-150.73"/>
<polygon fill="midnightblue" stroke="midnightblue" points="245.34,-148.55 236.53,-142.67 239.75,-152.76 245.34,-148.55"/>
</g>
<!-- Node7 -->
<g id="node7" class="node">
<title>Node7</title>
<g id="a_node7"><a xlink:title=" ">
<polygon fill="white" stroke="#bfbfbf" points="583.5,-123.5 583.5,-142.5 674.5,-142.5 674.5,-123.5 583.5,-123.5"/>
<text text-anchor="middle" x="629" y="-130.5" font-family="Helvetica,sans-Serif" font-size="10.00">Exceptions.hpp</text>
</a>
</g>
</g>
<!-- Node1&#45;&gt;Node7 -->
<g id="edge6" class="edge">
<title>Node1&#45;&gt;Node7</title>
<path fill="none" stroke="midnightblue" d="M382.04,-239.78C424.7,-232.01 481.06,-219.03 528,-199 558.93,-185.8 590.98,-163.43 610.46,-148.68"/>
<polygon fill="midnightblue" stroke="midnightblue" points="612.69,-151.38 618.48,-142.51 608.42,-145.84 612.69,-151.38"/>
</g>
<!-- Node8 -->
<g id="node8" class="node">
<title>Node8</title>
<g id="a_node8"><a xlink:href="ComponentManager_8hpp.html" target="_top" xlink:title=" ">
<polygon fill="white" stroke="black" points="383,-179.5 383,-198.5 519,-198.5 519,-179.5 383,-179.5"/>
<text text-anchor="middle" x="451" y="-186.5" font-family="Helvetica,sans-Serif" font-size="10.00">ComponentManager.hpp</text>
</a>
</g>
</g>
<!-- Node1&#45;&gt;Node8 -->
<g id="edge7" class="edge">
<title>Node1&#45;&gt;Node8</title>
<path fill="none" stroke="midnightblue" d="M348.76,-235.4C371.04,-225.51 400.59,-212.38 422.19,-202.79"/>
<polygon fill="midnightblue" stroke="midnightblue" points="423.78,-205.91 431.5,-198.66 420.94,-199.52 423.78,-205.91"/>
</g>
<!-- Node10 -->
<g id="node10" class="node">
<title>Node10</title>
<g id="a_node10"><a xlink:href="IComponent_8hpp.html" target="_top" xlink:title=" ">
<polygon fill="white" stroke="black" points="692.5,-123.5 692.5,-142.5 789.5,-142.5 789.5,-123.5 692.5,-123.5"/>
<text text-anchor="middle" x="741" y="-130.5" font-family="Helvetica,sans-Serif" font-size="10.00">IComponent.hpp</text>
</a>
</g>
</g>
<!-- Node1&#45;&gt;Node10 -->
<g id="edge27" class="edge">
<title>Node1&#45;&gt;Node10</title>
<path fill="none" stroke="midnightblue" d="M382.08,-238.64C431.59,-229.75 501.16,-215.9 561,-199 614.78,-183.81 675.58,-160.52 710.97,-146.33"/>
<polygon fill="midnightblue" stroke="midnightblue" points="712.29,-149.58 720.26,-142.59 709.67,-143.09 712.29,-149.58"/>
</g>
<!-- Node17 -->
<g id="node17" class="node">
<title>Node17</title>
<g id="a_node17"><a xlink:href="EntityManager_8hpp.html" target="_top" xlink:title=" ">
<polygon fill="white" stroke="black" points="105,-179.5 105,-198.5 213,-198.5 213,-179.5 105,-179.5"/>
<text text-anchor="middle" x="159" y="-186.5" font-family="Helvetica,sans-Serif" font-size="10.00">EntityManager.hpp</text>
</a>
</g>
</g>
<!-- Node1&#45;&gt;Node17 -->
<g id="edge22" class="edge">
<title>Node1&#45;&gt;Node17</title>
<path fill="none" stroke="midnightblue" d="M279.56,-235.4C252.81,-225.33 217.18,-211.91 191.6,-202.28"/>
<polygon fill="midnightblue" stroke="midnightblue" points="192.58,-198.91 181.99,-198.66 190.12,-205.46 192.58,-198.91"/>
</g>
<!-- Node8&#45;&gt;Node3 -->
<g id="edge8" class="edge">
<title>Node8&#45;&gt;Node3</title>
<path fill="none" stroke="midnightblue" d="M429.93,-179.44C407.94,-170.52 373.27,-156.44 348.34,-146.32"/>
<polygon fill="midnightblue" stroke="midnightblue" points="349.56,-143.04 338.98,-142.52 346.92,-149.52 349.56,-143.04"/>
</g>
<!-- Node8&#45;&gt;Node4 -->
<g id="edge11" class="edge">
<title>Node8&#45;&gt;Node4</title>
<path fill="none" stroke="midnightblue" d="M397.8,-179.49C348.51,-171.39 272.91,-158.46 198.08,-143.13"/>
<polygon fill="midnightblue" stroke="midnightblue" points="198.51,-139.64 188.01,-141.05 197.09,-146.5 198.51,-139.64"/>
</g>
<!-- Node8&#45;&gt;Node5 -->
<g id="edge12" class="edge">
<title>Node8&#45;&gt;Node5</title>
<path fill="none" stroke="midnightblue" d="M445.06,-179.08C440.02,-171.53 432.66,-160.49 426.49,-151.23"/>
<polygon fill="midnightblue" stroke="midnightblue" points="429.29,-149.13 420.83,-142.75 423.47,-153.01 429.29,-149.13"/>
</g>
<!-- Node8&#45;&gt;Node6 -->
<g id="edge10" class="edge">
<title>Node8&#45;&gt;Node6</title>
<path fill="none" stroke="midnightblue" d="M413.24,-179.48C377.1,-171.22 320.82,-158.09 263.66,-143.36"/>
<polygon fill="midnightblue" stroke="midnightblue" points="264.29,-139.91 253.74,-140.79 262.54,-146.69 264.29,-139.91"/>
</g>
<!-- Node8&#45;&gt;Node7 -->
<g id="edge13" class="edge">
<title>Node8&#45;&gt;Node7</title>
<path fill="none" stroke="midnightblue" d="M479.2,-179.44C509.41,-170.28 557.51,-155.69 591.03,-145.52"/>
<polygon fill="midnightblue" stroke="midnightblue" points="592.37,-148.77 600.93,-142.52 590.34,-142.07 592.37,-148.77"/>
</g>
<!-- Node9 -->
<g id="node9" class="node">
<title>Node9</title>
<g id="a_node9"><a xlink:title=" ">
<polygon fill="white" stroke="#bfbfbf" points="465,-123.5 465,-142.5 509,-142.5 509,-123.5 465,-123.5"/>
<text text-anchor="middle" x="487" y="-130.5" font-family="Helvetica,sans-Serif" font-size="10.00">string</text>
</a>
</g>
</g>
<!-- Node8&#45;&gt;Node9 -->
<g id="edge9" class="edge">
<title>Node8&#45;&gt;Node9</title>
<path fill="none" stroke="midnightblue" d="M456.94,-179.08C461.98,-171.53 469.34,-160.49 475.51,-151.23"/>
<polygon fill="midnightblue" stroke="midnightblue" points="478.53,-153.01 481.17,-142.75 472.71,-149.13 478.53,-153.01"/>
</g>
<!-- Node8&#45;&gt;Node10 -->
<g id="edge14" class="edge">
<title>Node8&#45;&gt;Node10</title>
<path fill="none" stroke="midnightblue" d="M496.95,-179.44C548.07,-169.92 630.65,-154.55 685.38,-144.36"/>
<polygon fill="midnightblue" stroke="midnightblue" points="686.07,-147.79 695.26,-142.52 684.79,-140.91 686.07,-147.79"/>
</g>
<!-- Node16 -->
<g id="node16" class="node">
<title>Node16</title>
<g id="a_node16"><a xlink:title=" ">
<polygon fill="white" stroke="#bfbfbf" points="527,-123.5 527,-142.5 565,-142.5 565,-123.5 527,-123.5"/>
<text text-anchor="middle" x="546" y="-130.5" font-family="Helvetica,sans-Serif" font-size="10.00">map</text>
</a>
</g>
</g>
<!-- Node8&#45;&gt;Node16 -->
<g id="edge21" class="edge">
<title>Node8&#45;&gt;Node16</title>
<path fill="none" stroke="midnightblue" d="M466.26,-179.32C481.22,-170.82 504.25,-157.73 521.73,-147.8"/>
<polygon fill="midnightblue" stroke="midnightblue" points="523.81,-150.64 530.77,-142.65 520.35,-144.55 523.81,-150.64"/>
</g>
<!-- Node11 -->
<g id="node11" class="node">
<title>Node11</title>
<g id="a_node11"><a xlink:title=" ">
<polygon fill="white" stroke="#bfbfbf" points="668.5,-6 668.5,-25 725.5,-25 725.5,-6 668.5,-6"/>
<text text-anchor="middle" x="697" y="-13" font-family="Helvetica,sans-Serif" font-size="10.00">ostream</text>
</a>
</g>
</g>
<!-- Node10&#45;&gt;Node11 -->
<g id="edge15" class="edge">
<title>Node10&#45;&gt;Node11</title>
<path fill="none" stroke="midnightblue" d="M735.36,-123.35C729.8,-114.52 721.37,-100.25 716,-87 709.16,-70.13 704.02,-50 700.82,-35.58"/>
<polygon fill="midnightblue" stroke="midnightblue" points="704.16,-34.47 698.67,-25.41 697.31,-35.91 704.16,-34.47"/>
</g>
<!-- Node12 -->
<g id="node12" class="node">
<title>Node12</title>
<g id="a_node12"><a xlink:href="IXMLSerializable_8hpp.html" target="_top" xlink:title=" ">
<polygon fill="white" stroke="black" points="725.5,-67.5 725.5,-86.5 844.5,-86.5 844.5,-67.5 725.5,-67.5"/>
<text text-anchor="middle" x="785" y="-74.5" font-family="Helvetica,sans-Serif" font-size="10.00">IXMLSerializable.hpp</text>
</a>
</g>
</g>
<!-- Node10&#45;&gt;Node12 -->
<g id="edge16" class="edge">
<title>Node10&#45;&gt;Node12</title>
<path fill="none" stroke="midnightblue" d="M748.27,-123.08C754.54,-115.38 763.79,-104.03 771.43,-94.65"/>
<polygon fill="midnightblue" stroke="midnightblue" points="774.27,-96.71 777.87,-86.75 768.84,-92.29 774.27,-96.71"/>
</g>
<!-- Node12&#45;&gt;Node11 -->
<g id="edge17" class="edge">
<title>Node12&#45;&gt;Node11</title>
<path fill="none" stroke="midnightblue" d="M772.39,-67.48C758.28,-57.93 735.17,-42.31 718.25,-30.87"/>
<polygon fill="midnightblue" stroke="midnightblue" points="719.83,-27.71 709.58,-25.01 715.91,-33.51 719.83,-27.71"/>
</g>
<!-- Node13 -->
<g id="node13" class="node">
<title>Node13</title>
<g id="a_node13"><a xlink:title=" ">
<polygon fill="white" stroke="#bfbfbf" points="744,-6 744,-25 804,-25 804,-6 744,-6"/>
<text text-anchor="middle" x="774" y="-13" font-family="Helvetica,sans-Serif" font-size="10.00">iostream</text>
</a>
</g>
</g>
<!-- Node12&#45;&gt;Node13 -->
<g id="edge18" class="edge">
<title>Node12&#45;&gt;Node13</title>
<path fill="none" stroke="midnightblue" d="M783.42,-67.48C781.87,-59.08 779.45,-45.98 777.45,-35.16"/>
<polygon fill="midnightblue" stroke="midnightblue" points="780.83,-34.21 775.57,-25.01 773.95,-35.48 780.83,-34.21"/>
</g>
<!-- Node14 -->
<g id="node14" class="node">
<title>Node14</title>
<g id="a_node14"><a xlink:title=" ">
<polygon fill="white" stroke="#bfbfbf" points="822.5,-0.5 822.5,-30.5 935.5,-30.5 935.5,-0.5 822.5,-0.5"/>
<text text-anchor="start" x="830.5" y="-18.5" font-family="Helvetica,sans-Serif" font-size="10.00">boost/property_tree</text>
<text text-anchor="middle" x="879" y="-7.5" font-family="Helvetica,sans-Serif" font-size="10.00">/ptree.hpp</text>
</a>
</g>
</g>
<!-- Node12&#45;&gt;Node14 -->
<g id="edge19" class="edge">
<title>Node12&#45;&gt;Node14</title>
<path fill="none" stroke="midnightblue" d="M798.47,-67.48C811.44,-59.27 831.51,-46.56 848.38,-35.88"/>
<polygon fill="midnightblue" stroke="midnightblue" points="850.27,-38.83 856.85,-30.52 846.52,-32.91 850.27,-38.83"/>
</g>
<!-- Node15 -->
<g id="node15" class="node">
<title>Node15</title>
<g id="a_node15"><a xlink:title=" ">
<polygon fill="white" stroke="#bfbfbf" points="953.5,-0.5 953.5,-30.5 1066.5,-30.5 1066.5,-0.5 953.5,-0.5"/>
<text text-anchor="start" x="961.5" y="-18.5" font-family="Helvetica,sans-Serif" font-size="10.00">boost/property_tree</text>
<text text-anchor="middle" x="1010" y="-7.5" font-family="Helvetica,sans-Serif" font-size="10.00">/xml_parser.hpp</text>
</a>
</g>
</g>
<!-- Node12&#45;&gt;Node15 -->
<g id="edge20" class="edge">
<title>Node12&#45;&gt;Node15</title>
<path fill="none" stroke="midnightblue" d="M817.24,-67.48C850.99,-58.55 904.84,-44.31 947.06,-33.14"/>
<polygon fill="midnightblue" stroke="midnightblue" points="948.2,-36.46 956.97,-30.52 946.41,-29.7 948.2,-36.46"/>
</g>
<!-- Node17&#45;&gt;Node2 -->
<g id="edge24" class="edge">
<title>Node17&#45;&gt;Node2</title>
<path fill="none" stroke="midnightblue" d="M138.72,-179.44C117.65,-170.56 84.48,-156.56 60.51,-146.45"/>
<polygon fill="midnightblue" stroke="midnightblue" points="61.76,-143.18 51.19,-142.52 59.04,-149.63 61.76,-143.18"/>
</g>
<!-- Node17&#45;&gt;Node4 -->
<g id="edge25" class="edge">
<title>Node17&#45;&gt;Node4</title>
<path fill="none" stroke="midnightblue" d="M159,-179.08C159,-172.01 159,-161.86 159,-152.99"/>
<polygon fill="midnightblue" stroke="midnightblue" points="162.5,-152.75 159,-142.75 155.5,-152.75 162.5,-152.75"/>
</g>
<!-- Node17&#45;&gt;Node6 -->
<g id="edge23" class="edge">
<title>Node17&#45;&gt;Node6</title>
<path fill="none" stroke="midnightblue" d="M170.41,-179.32C181.11,-171.18 197.34,-158.84 210.16,-149.09"/>
<polygon fill="midnightblue" stroke="midnightblue" points="212.54,-151.67 218.39,-142.83 208.31,-146.1 212.54,-151.67"/>
</g>
<!-- Node18 -->
<g id="node18" class="node">
<title>Node18</title>
<g id="a_node18"><a xlink:title=" ">
<polygon fill="white" stroke="#bfbfbf" points="80,-123.5 80,-142.5 112,-142.5 112,-123.5 80,-123.5"/>
<text text-anchor="middle" x="96" y="-130.5" font-family="Helvetica,sans-Serif" font-size="10.00">list</text>
</a>
</g>
</g>
<!-- Node17&#45;&gt;Node18 -->
<g id="edge26" class="edge">
<title>Node17&#45;&gt;Node18</title>
<path fill="none" stroke="midnightblue" d="M148.88,-179.32C139.47,-171.26 125.26,-159.08 113.93,-149.37"/>
<polygon fill="midnightblue" stroke="midnightblue" points="116.18,-146.68 106.31,-142.83 111.62,-152 116.18,-146.68"/>
</g>
</g>
</svg>
