<?xml version="1.0" encoding="UTF-8" standalone="no"?>
<!DOCTYPE svg PUBLIC "-//W3C//DTD SVG 1.1//EN"
 "http://www.w3.org/Graphics/SVG/1.1/DTD/svg11.dtd">
<!-- Generated by graphviz version 2.43.0 (0)
 -->
<!-- Title: Libs/ECS/sources/Managers/EntityManager/EntityManager.cpp Pages: 1 -->
<svg width="852pt" height="330pt"
 viewBox="0.00 0.00 852.00 330.00" xmlns="http://www.w3.org/2000/svg" xmlns:xlink="http://www.w3.org/1999/xlink">
<g id="graph0" class="graph" transform="scale(1 1) rotate(0) translate(4 326)">
<title>Libs/ECS/sources/Managers/EntityManager/EntityManager.cpp</title>
<polygon fill="white" stroke="transparent" points="-4,4 -4,-326 848,-326 848,4 -4,4"/>
<!-- Node1 -->
<g id="node1" class="node">
<title>Node1</title>
<g id="a_node1"><a xlink:title=" ">
<polygon fill="#bfbfbf" stroke="black" points="377.5,-291.5 377.5,-321.5 562.5,-321.5 562.5,-291.5 377.5,-291.5"/>
<text text-anchor="start" x="385.5" y="-309.5" font-family="Helvetica,sans-Serif" font-size="10.00">Libs/ECS/sources/Managers</text>
<text text-anchor="middle" x="470" y="-298.5" font-family="Helvetica,sans-Serif" font-size="10.00">/EntityManager/EntityManager.cpp</text>
</a>
</g>
</g>
<!-- Node2 -->
<g id="node2" class="node">
<title>Node2</title>
<g id="a_node2"><a xlink:title=" ">
<polygon fill="white" stroke="#bfbfbf" points="0,-123.5 0,-142.5 64,-142.5 64,-123.5 0,-123.5"/>
<text text-anchor="middle" x="32" y="-130.5" font-family="Helvetica,sans-Serif" font-size="10.00">algorithm</text>
</a>
</g>
</g>
<!-- Node1&#45;&gt;Node2 -->
<g id="edge1" class="edge">
<title>Node1&#45;&gt;Node2</title>
<path fill="none" stroke="midnightblue" d="M408.23,-291.44C372.1,-282.51 325.89,-269.84 286,-255 199,-222.63 101.18,-171.63 56.56,-147.51"/>
<polygon fill="midnightblue" stroke="midnightblue" points="58.08,-144.35 47.62,-142.65 54.74,-150.5 58.08,-144.35"/>
</g>
<!-- Node3 -->
<g id="node3" class="node">
<title>Node3</title>
<g id="a_node3"><a xlink:title=" ">
<polygon fill="white" stroke="#bfbfbf" points="82.5,-123.5 82.5,-142.5 173.5,-142.5 173.5,-123.5 82.5,-123.5"/>
<text text-anchor="middle" x="128" y="-130.5" font-family="Helvetica,sans-Serif" font-size="10.00">Exceptions.hpp</text>
</a>
</g>
</g>
<!-- Node1&#45;&gt;Node3 -->
<g id="edge2" class="edge">
<title>Node1&#45;&gt;Node3</title>
<path fill="none" stroke="midnightblue" d="M428.96,-291.41C377.96,-273.17 288.98,-238.95 218,-199 191.83,-184.27 164.17,-163.38 146.53,-149.3"/>
<polygon fill="midnightblue" stroke="midnightblue" points="148.26,-146.19 138.28,-142.62 143.85,-151.63 148.26,-146.19"/>
</g>
<!-- Node4 -->
<g id="node4" class="node">
<title>Node4</title>
<g id="a_node4"><a xlink:href="Entity_8hpp.html" target="_top" xlink:title=" ">
<polygon fill="white" stroke="black" points="437.5,-235.5 437.5,-254.5 502.5,-254.5 502.5,-235.5 437.5,-235.5"/>
<text text-anchor="middle" x="470" y="-242.5" font-family="Helvetica,sans-Serif" font-size="10.00">Entity.hpp</text>
</a>
</g>
</g>
<!-- Node1&#45;&gt;Node4 -->
<g id="edge3" class="edge">
<title>Node1&#45;&gt;Node4</title>
<path fill="none" stroke="midnightblue" d="M470,-291.4C470,-283.47 470,-273.46 470,-264.86"/>
<polygon fill="midnightblue" stroke="midnightblue" points="473.5,-264.66 470,-254.66 466.5,-264.66 473.5,-264.66"/>
</g>
<!-- Node14 -->
<g id="node14" class="node">
<title>Node14</title>
<g id="a_node14"><a xlink:title=" ">
<polygon fill="white" stroke="#bfbfbf" points="784,-6 784,-25 844,-25 844,-6 784,-6"/>
<text text-anchor="middle" x="814" y="-13" font-family="Helvetica,sans-Serif" font-size="10.00">iostream</text>
</a>
</g>
</g>
<!-- Node1&#45;&gt;Node14 -->
<g id="edge32" class="edge">
<title>Node1&#45;&gt;Node14</title>
<path fill="none" stroke="midnightblue" d="M562.8,-293.26C665.89,-276.99 818,-243.87 818,-190 818,-190 818,-190 818,-132 818,-97.84 816.23,-58.04 815.05,-35.2"/>
<polygon fill="midnightblue" stroke="midnightblue" points="818.54,-34.99 814.51,-25.19 811.55,-35.36 818.54,-34.99"/>
</g>
<!-- Node18 -->
<g id="node18" class="node">
<title>Node18</title>
<g id="a_node18"><a xlink:href="EntityManager_8hpp.html" target="_top" xlink:title=" ">
<polygon fill="white" stroke="black" points="576,-179.5 576,-198.5 684,-198.5 684,-179.5 576,-179.5"/>
<text text-anchor="middle" x="630" y="-186.5" font-family="Helvetica,sans-Serif" font-size="10.00">EntityManager.hpp</text>
</a>
</g>
</g>
<!-- Node1&#45;&gt;Node18 -->
<g id="edge31" class="edge">
<title>Node1&#45;&gt;Node18</title>
<path fill="none" stroke="midnightblue" d="M489.62,-291.34C520.15,-269.3 578.73,-227.01 609.69,-204.66"/>
<polygon fill="midnightblue" stroke="midnightblue" points="611.93,-207.36 617.99,-198.67 607.83,-201.68 611.93,-207.36"/>
</g>
<!-- Node4&#45;&gt;Node2 -->
<g id="edge7" class="edge">
<title>Node4&#45;&gt;Node2</title>
<path fill="none" stroke="midnightblue" d="M437.42,-239.88C389.05,-233.37 295.59,-219.35 218,-199 162.05,-184.33 98.86,-160.68 62.4,-146.31"/>
<polygon fill="midnightblue" stroke="midnightblue" points="63.45,-142.96 52.86,-142.52 60.86,-149.47 63.45,-142.96"/>
</g>
<!-- Node4&#45;&gt;Node3 -->
<g id="edge9" class="edge">
<title>Node4&#45;&gt;Node3</title>
<path fill="none" stroke="midnightblue" d="M437.4,-238.89C397.15,-232.09 326.93,-218.59 269,-199 226.74,-184.71 180.2,-161.73 152.57,-147.27"/>
<polygon fill="midnightblue" stroke="midnightblue" points="154.1,-144.12 143.62,-142.54 150.82,-150.31 154.1,-144.12"/>
</g>
<!-- Node5 -->
<g id="node5" class="node">
<title>Node5</title>
<g id="a_node5"><a xlink:title=" ">
<polygon fill="white" stroke="#bfbfbf" points="728,-123.5 728,-142.5 790,-142.5 790,-123.5 728,-123.5"/>
<text text-anchor="middle" x="759" y="-130.5" font-family="Helvetica,sans-Serif" font-size="10.00">cinttypes</text>
</a>
</g>
</g>
<!-- Node4&#45;&gt;Node5 -->
<g id="edge4" class="edge">
<title>Node4&#45;&gt;Node5</title>
<path fill="none" stroke="midnightblue" d="M502.58,-243.18C547.83,-240.81 631.09,-231.9 693,-199 715.08,-187.27 734.69,-165.81 746.68,-150.77"/>
<polygon fill="midnightblue" stroke="midnightblue" points="749.5,-152.84 752.82,-142.77 743.95,-148.57 749.5,-152.84"/>
</g>
<!-- Node6 -->
<g id="node6" class="node">
<title>Node6</title>
<g id="a_node6"><a xlink:title=" ">
<polygon fill="white" stroke="#bfbfbf" points="191.5,-123.5 191.5,-142.5 284.5,-142.5 284.5,-123.5 191.5,-123.5"/>
<text text-anchor="middle" x="238" y="-130.5" font-family="Helvetica,sans-Serif" font-size="10.00">unordered_map</text>
</a>
</g>
</g>
<!-- Node4&#45;&gt;Node6 -->
<g id="edge5" class="edge">
<title>Node4&#45;&gt;Node6</title>
<path fill="none" stroke="midnightblue" d="M437.23,-241.11C400.73,-236.67 341.08,-225.67 297,-199 276.92,-186.85 259.64,-165.79 249.07,-150.94"/>
<polygon fill="midnightblue" stroke="midnightblue" points="251.92,-148.91 243.38,-142.63 246.14,-152.86 251.92,-148.91"/>
</g>
<!-- Node7 -->
<g id="node7" class="node">
<title>Node7</title>
<g id="a_node7"><a xlink:title=" ">
<polygon fill="white" stroke="#bfbfbf" points="602,-123.5 602,-142.5 660,-142.5 660,-123.5 602,-123.5"/>
<text text-anchor="middle" x="631" y="-130.5" font-family="Helvetica,sans-Serif" font-size="10.00">memory</text>
</a>
</g>
</g>
<!-- Node4&#45;&gt;Node7 -->
<g id="edge6" class="edge">
<title>Node4&#45;&gt;Node7</title>
<path fill="none" stroke="midnightblue" d="M482.63,-235.37C510.26,-216.49 576.28,-171.38 610.16,-148.24"/>
<polygon fill="midnightblue" stroke="midnightblue" points="612.14,-151.12 618.43,-142.59 608.19,-145.34 612.14,-151.12"/>
</g>
<!-- Node8 -->
<g id="node8" class="node">
<title>Node8</title>
<g id="a_node8"><a xlink:title=" ">
<polygon fill="white" stroke="#bfbfbf" points="536.5,-123.5 536.5,-142.5 583.5,-142.5 583.5,-123.5 536.5,-123.5"/>
<text text-anchor="middle" x="560" y="-130.5" font-family="Helvetica,sans-Serif" font-size="10.00">vector</text>
</a>
</g>
</g>
<!-- Node4&#45;&gt;Node8 -->
<g id="edge8" class="edge">
<title>Node4&#45;&gt;Node8</title>
<path fill="none" stroke="midnightblue" d="M477.06,-235.37C492.05,-217.05 527.23,-174.05 546.61,-150.36"/>
<polygon fill="midnightblue" stroke="midnightblue" points="549.35,-152.55 552.97,-142.59 543.93,-148.11 549.35,-152.55"/>
</g>
<!-- Node9 -->
<g id="node9" class="node">
<title>Node9</title>
<g id="a_node9"><a xlink:href="ComponentManager_8hpp.html" target="_top" xlink:title=" ">
<polygon fill="white" stroke="black" points="306,-179.5 306,-198.5 442,-198.5 442,-179.5 306,-179.5"/>
<text text-anchor="middle" x="374" y="-186.5" font-family="Helvetica,sans-Serif" font-size="10.00">ComponentManager.hpp</text>
</a>
</g>
</g>
<!-- Node4&#45;&gt;Node9 -->
<g id="edge10" class="edge">
<title>Node4&#45;&gt;Node9</title>
<path fill="none" stroke="midnightblue" d="M454.58,-235.32C439.46,-226.82 416.18,-213.73 398.53,-203.8"/>
<polygon fill="midnightblue" stroke="midnightblue" points="399.82,-200.51 389.39,-198.65 396.39,-206.61 399.82,-200.51"/>
</g>
<!-- Node11 -->
<g id="node11" class="node">
<title>Node11</title>
<g id="a_node11"><a xlink:href="IComponent_8hpp.html" target="_top" xlink:title=" ">
<polygon fill="white" stroke="black" points="421.5,-123.5 421.5,-142.5 518.5,-142.5 518.5,-123.5 421.5,-123.5"/>
<text text-anchor="middle" x="470" y="-130.5" font-family="Helvetica,sans-Serif" font-size="10.00">IComponent.hpp</text>
</a>
</g>
</g>
<!-- Node4&#45;&gt;Node11 -->
<g id="edge30" class="edge">
<title>Node4&#45;&gt;Node11</title>
<path fill="none" stroke="midnightblue" d="M470,-235.37C470,-217.62 470,-176.67 470,-152.6"/>
<polygon fill="midnightblue" stroke="midnightblue" points="473.5,-152.59 470,-142.59 466.5,-152.59 473.5,-152.59"/>
</g>
<!-- Node4&#45;&gt;Node18 -->
<g id="edge25" class="edge">
<title>Node4&#45;&gt;Node18</title>
<path fill="none" stroke="midnightblue" d="M495.35,-235.44C522.27,-226.36 565,-211.94 595.09,-201.78"/>
<polygon fill="midnightblue" stroke="midnightblue" points="596.41,-205.03 604.77,-198.52 594.17,-198.4 596.41,-205.03"/>
</g>
<!-- Node9&#45;&gt;Node2 -->
<g id="edge15" class="edge">
<title>Node9&#45;&gt;Node2</title>
<path fill="none" stroke="midnightblue" d="M308.32,-179.48C249.47,-171.56 160.57,-158.85 74.16,-143.11"/>
<polygon fill="midnightblue" stroke="midnightblue" points="74.66,-139.65 64.19,-141.28 73.39,-146.53 74.66,-139.65"/>
</g>
<!-- Node9&#45;&gt;Node3 -->
<g id="edge16" class="edge">
<title>Node9&#45;&gt;Node3</title>
<path fill="none" stroke="midnightblue" d="M335.02,-179.44C292.11,-170.02 223.05,-154.87 176.63,-144.68"/>
<polygon fill="midnightblue" stroke="midnightblue" points="177.31,-141.24 166.8,-142.52 175.81,-148.08 177.31,-141.24"/>
</g>
<!-- Node9&#45;&gt;Node6 -->
<g id="edge11" class="edge">
<title>Node9&#45;&gt;Node6</title>
<path fill="none" stroke="midnightblue" d="M352.45,-179.44C329.97,-170.52 294.51,-156.44 269.02,-146.32"/>
<polygon fill="midnightblue" stroke="midnightblue" points="270.03,-142.95 259.45,-142.52 267.45,-149.46 270.03,-142.95"/>
</g>
<!-- Node9&#45;&gt;Node7 -->
<g id="edge14" class="edge">
<title>Node9&#45;&gt;Node7</title>
<path fill="none" stroke="midnightblue" d="M417.71,-179.42C459.9,-171.05 525.82,-157.73 592.18,-143.13"/>
<polygon fill="midnightblue" stroke="midnightblue" points="592.96,-146.54 601.97,-140.97 591.45,-139.71 592.96,-146.54"/>
</g>
<!-- Node9&#45;&gt;Node8 -->
<g id="edge13" class="edge">
<title>Node9&#45;&gt;Node8</title>
<path fill="none" stroke="midnightblue" d="M403.47,-179.44C436.94,-169.73 491.44,-153.9 526.5,-143.73"/>
<polygon fill="midnightblue" stroke="midnightblue" points="527.64,-147.04 536.27,-140.89 525.69,-140.32 527.64,-147.04"/>
</g>
<!-- Node10 -->
<g id="node10" class="node">
<title>Node10</title>
<g id="a_node10"><a xlink:title=" ">
<polygon fill="white" stroke="#bfbfbf" points="303,-123.5 303,-142.5 347,-142.5 347,-123.5 303,-123.5"/>
<text text-anchor="middle" x="325" y="-130.5" font-family="Helvetica,sans-Serif" font-size="10.00">string</text>
</a>
</g>
</g>
<!-- Node9&#45;&gt;Node10 -->
<g id="edge12" class="edge">
<title>Node9&#45;&gt;Node10</title>
<path fill="none" stroke="midnightblue" d="M365.91,-179.08C358.84,-171.3 348.41,-159.8 339.85,-150.37"/>
<polygon fill="midnightblue" stroke="midnightblue" points="342.25,-147.8 332.94,-142.75 337.07,-152.51 342.25,-147.8"/>
</g>
<!-- Node9&#45;&gt;Node11 -->
<g id="edge17" class="edge">
<title>Node9&#45;&gt;Node11</title>
<path fill="none" stroke="midnightblue" d="M389.42,-179.32C404.54,-170.82 427.82,-157.73 445.47,-147.8"/>
<polygon fill="midnightblue" stroke="midnightblue" points="447.61,-150.61 454.61,-142.65 444.18,-144.51 447.61,-150.61"/>
</g>
<!-- Node17 -->
<g id="node17" class="node">
<title>Node17</title>
<g id="a_node17"><a xlink:title=" ">
<polygon fill="white" stroke="#bfbfbf" points="365,-123.5 365,-142.5 403,-142.5 403,-123.5 365,-123.5"/>
<text text-anchor="middle" x="384" y="-130.5" font-family="Helvetica,sans-Serif" font-size="10.00">map</text>
</a>
</g>
</g>
<!-- Node9&#45;&gt;Node17 -->
<g id="edge24" class="edge">
<title>Node9&#45;&gt;Node17</title>
<path fill="none" stroke="midnightblue" d="M375.65,-179.08C376.98,-171.93 378.88,-161.64 380.54,-152.69"/>
<polygon fill="midnightblue" stroke="midnightblue" points="384,-153.22 382.38,-142.75 377.12,-151.95 384,-153.22"/>
</g>
<!-- Node12 -->
<g id="node12" class="node">
<title>Node12</title>
<g id="a_node12"><a xlink:title=" ">
<polygon fill="white" stroke="#bfbfbf" points="441.5,-6 441.5,-25 498.5,-25 498.5,-6 441.5,-6"/>
<text text-anchor="middle" x="470" y="-13" font-family="Helvetica,sans-Serif" font-size="10.00">ostream</text>
</a>
</g>
</g>
<!-- Node11&#45;&gt;Node12 -->
<g id="edge18" class="edge">
<title>Node11&#45;&gt;Node12</title>
<path fill="none" stroke="midnightblue" d="M470,-123.32C470,-104.76 470,-60.84 470,-35.47"/>
<polygon fill="midnightblue" stroke="midnightblue" points="473.5,-35.28 470,-25.28 466.5,-35.28 473.5,-35.28"/>
</g>
<!-- Node13 -->
<g id="node13" class="node">
<title>Node13</title>
<g id="a_node13"><a xlink:href="IXMLSerializable_8hpp.html" target="_top" xlink:title=" ">
<polygon fill="white" stroke="black" points="513.5,-67.5 513.5,-86.5 632.5,-86.5 632.5,-67.5 513.5,-67.5"/>
<text text-anchor="middle" x="573" y="-74.5" font-family="Helvetica,sans-Serif" font-size="10.00">IXMLSerializable.hpp</text>
</a>
</g>
</g>
<!-- Node11&#45;&gt;Node13 -->
<g id="edge19" class="edge">
<title>Node11&#45;&gt;Node13</title>
<path fill="none" stroke="midnightblue" d="M486.55,-123.32C502.99,-114.7 528.43,-101.36 547.47,-91.39"/>
<polygon fill="midnightblue" stroke="midnightblue" points="549.26,-94.4 556.49,-86.65 546.01,-88.2 549.26,-94.4"/>
</g>
<!-- Node13&#45;&gt;Node12 -->
<g id="edge20" class="edge">
<title>Node13&#45;&gt;Node12</title>
<path fill="none" stroke="midnightblue" d="M558.24,-67.48C541.34,-57.71 513.42,-41.58 493.51,-30.08"/>
<polygon fill="midnightblue" stroke="midnightblue" points="495.14,-26.98 484.73,-25.01 491.64,-33.04 495.14,-26.98"/>
</g>
<!-- Node13&#45;&gt;Node14 -->
<g id="edge21" class="edge">
<title>Node13&#45;&gt;Node14</title>
<path fill="none" stroke="midnightblue" d="M615.56,-67.48C655.66,-59.17 717.28,-45.67 770,-31 773.18,-30.12 776.46,-29.14 779.75,-28.13"/>
<polygon fill="midnightblue" stroke="midnightblue" points="780.99,-31.41 789.46,-25.04 778.87,-24.74 780.99,-31.41"/>
</g>
<!-- Node15 -->
<g id="node15" class="node">
<title>Node15</title>
<g id="a_node15"><a xlink:title=" ">
<polygon fill="white" stroke="#bfbfbf" points="647.5,-0.5 647.5,-30.5 760.5,-30.5 760.5,-0.5 647.5,-0.5"/>
<text text-anchor="start" x="655.5" y="-18.5" font-family="Helvetica,sans-Serif" font-size="10.00">boost/property_tree</text>
<text text-anchor="middle" x="704" y="-7.5" font-family="Helvetica,sans-Serif" font-size="10.00">/ptree.hpp</text>
</a>
</g>
</g>
<!-- Node13&#45;&gt;Node15 -->
<g id="edge22" class="edge">
<title>Node13&#45;&gt;Node15</title>
<path fill="none" stroke="midnightblue" d="M591.77,-67.48C610.51,-58.96 639.89,-45.62 663.89,-34.72"/>
<polygon fill="midnightblue" stroke="midnightblue" points="665.47,-37.85 673.13,-30.52 662.57,-31.47 665.47,-37.85"/>
</g>
<!-- Node16 -->
<g id="node16" class="node">
<title>Node16</title>
<g id="a_node16"><a xlink:title=" ">
<polygon fill="white" stroke="#bfbfbf" points="516.5,-0.5 516.5,-30.5 629.5,-30.5 629.5,-0.5 516.5,-0.5"/>
<text text-anchor="start" x="524.5" y="-18.5" font-family="Helvetica,sans-Serif" font-size="10.00">boost/property_tree</text>
<text text-anchor="middle" x="573" y="-7.5" font-family="Helvetica,sans-Serif" font-size="10.00">/xml_parser.hpp</text>
</a>
</g>
</g>
<!-- Node13&#45;&gt;Node16 -->
<g id="edge23" class="edge">
<title>Node13&#45;&gt;Node16</title>
<path fill="none" stroke="midnightblue" d="M573,-67.48C573,-60.47 573,-50.19 573,-40.7"/>
<polygon fill="midnightblue" stroke="midnightblue" points="576.5,-40.52 573,-30.52 569.5,-40.52 576.5,-40.52"/>
</g>
<!-- Node18&#45;&gt;Node5 -->
<g id="edge27" class="edge">
<title>Node18&#45;&gt;Node5</title>
<path fill="none" stroke="midnightblue" d="M650.44,-179.44C671.67,-170.56 705.1,-156.56 729.25,-146.45"/>
<polygon fill="midnightblue" stroke="midnightblue" points="730.78,-149.61 738.66,-142.52 728.08,-143.15 730.78,-149.61"/>
</g>
<!-- Node18&#45;&gt;Node7 -->
<g id="edge28" class="edge">
<title>Node18&#45;&gt;Node7</title>
<path fill="none" stroke="midnightblue" d="M630.17,-179.08C630.3,-172.01 630.48,-161.86 630.65,-152.99"/>
<polygon fill="midnightblue" stroke="midnightblue" points="634.15,-152.81 630.84,-142.75 627.15,-152.68 634.15,-152.81"/>
</g>
<!-- Node18&#45;&gt;Node8 -->
<g id="edge26" class="edge">
<title>Node18&#45;&gt;Node8</title>
<path fill="none" stroke="midnightblue" d="M618.75,-179.32C608.2,-171.18 592.2,-158.84 579.56,-149.09"/>
<polygon fill="midnightblue" stroke="midnightblue" points="581.51,-146.17 571.45,-142.83 577.23,-151.71 581.51,-146.17"/>
</g>
<!-- Node19 -->
<g id="node19" class="node">
<title>Node19</title>
<g id="a_node19"><a xlink:title=" ">
<polygon fill="white" stroke="#bfbfbf" points="678,-123.5 678,-142.5 710,-142.5 710,-123.5 678,-123.5"/>
<text text-anchor="middle" x="694" y="-130.5" font-family="Helvetica,sans-Serif" font-size="10.00">list</text>
</a>
</g>
</g>
<!-- Node18&#45;&gt;Node19 -->
<g id="edge29" class="edge">
<title>Node18&#45;&gt;Node19</title>
<path fill="none" stroke="midnightblue" d="M640.28,-179.32C649.84,-171.26 664.28,-159.08 675.78,-149.37"/>
<polygon fill="midnightblue" stroke="midnightblue" points="678.14,-151.96 683.53,-142.83 673.63,-146.61 678.14,-151.96"/>
</g>
</g>
</svg>
