<?xml version="1.0" encoding="UTF-8" standalone="no"?>
<!DOCTYPE svg PUBLIC "-//W3C//DTD SVG 1.1//EN"
 "http://www.w3.org/Graphics/SVG/1.1/DTD/svg11.dtd">
<!-- Generated by graphviz version 2.43.0 (0)
 -->
<!-- Title: Libs/RayLib/sources/Font/Font.cpp Pages: 1 -->
<svg width="521pt" height="330pt"
 viewBox="0.00 0.00 521.35 330.00" xmlns="http://www.w3.org/2000/svg" xmlns:xlink="http://www.w3.org/1999/xlink">
<g id="graph0" class="graph" transform="scale(1 1) rotate(0) translate(4 326)">
<title>Libs/RayLib/sources/Font/Font.cpp</title>
<polygon fill="white" stroke="transparent" points="-4,4 -4,-326 517.35,-326 517.35,4 -4,4"/>
<!-- Node1 -->
<g id="node1" class="node">
<title>Node1</title>
<g id="a_node1"><a xlink:title=" ">
<polygon fill="#bfbfbf" stroke="black" points="80.35,-291.5 80.35,-321.5 193.35,-321.5 193.35,-291.5 80.35,-291.5"/>
<text text-anchor="start" x="88.35" y="-309.5" font-family="Helvetica,sans-Serif" font-size="10.00">Libs/RayLib/sources</text>
<text text-anchor="middle" x="136.85" y="-298.5" font-family="Helvetica,sans-Serif" font-size="10.00">/Font/Font.cpp</text>
</a>
</g>
</g>
<!-- Node2 -->
<g id="node2" class="node">
<title>Node2</title>
<g id="a_node2"><a xlink:href="Font_8hpp.html" target="_top" xlink:title=" ">
<polygon fill="white" stroke="black" points="107.35,-235.5 107.35,-254.5 166.35,-254.5 166.35,-235.5 107.35,-235.5"/>
<text text-anchor="middle" x="136.85" y="-242.5" font-family="Helvetica,sans-Serif" font-size="10.00">Font.hpp</text>
</a>
</g>
</g>
<!-- Node1&#45;&gt;Node2 -->
<g id="edge1" class="edge">
<title>Node1&#45;&gt;Node2</title>
<path fill="none" stroke="midnightblue" d="M136.85,-291.4C136.85,-283.47 136.85,-273.46 136.85,-264.86"/>
<polygon fill="midnightblue" stroke="midnightblue" points="140.35,-264.66 136.85,-254.66 133.35,-264.66 140.35,-264.66"/>
</g>
<!-- Node3 -->
<g id="node3" class="node">
<title>Node3</title>
<g id="a_node3"><a xlink:title=" ">
<polygon fill="white" stroke="#bfbfbf" points="3.35,-67.5 3.35,-86.5 56.35,-86.5 56.35,-67.5 3.35,-67.5"/>
<text text-anchor="middle" x="29.85" y="-74.5" font-family="Helvetica,sans-Serif" font-size="10.00">raylib.h</text>
</a>
</g>
</g>
<!-- Node2&#45;&gt;Node3 -->
<g id="edge2" class="edge">
<title>Node2&#45;&gt;Node3</title>
<path fill="none" stroke="midnightblue" d="M107.13,-242.7C77.23,-239.61 32.53,-229.76 10.85,-199 -11.11,-167.83 7.01,-120.97 19.84,-95.68"/>
<polygon fill="midnightblue" stroke="midnightblue" points="23.1,-97.03 24.73,-86.56 16.92,-93.73 23.1,-97.03"/>
</g>
<!-- Node4 -->
<g id="node4" class="node">
<title>Node4</title>
<g id="a_node4"><a xlink:title=" ">
<polygon fill="white" stroke="#bfbfbf" points="191.85,-179.5 191.85,-198.5 235.85,-198.5 235.85,-179.5 191.85,-179.5"/>
<text text-anchor="middle" x="213.85" y="-186.5" font-family="Helvetica,sans-Serif" font-size="10.00">string</text>
</a>
</g>
</g>
<!-- Node2&#45;&gt;Node4 -->
<g id="edge3" class="edge">
<title>Node2&#45;&gt;Node4</title>
<path fill="none" stroke="midnightblue" d="M149.23,-235.32C161.01,-227.06 178.99,-214.45 192.99,-204.63"/>
<polygon fill="midnightblue" stroke="midnightblue" points="195.34,-207.26 201.51,-198.65 191.32,-201.53 195.34,-207.26"/>
</g>
<!-- Node5 -->
<g id="node5" class="node">
<title>Node5</title>
<g id="a_node5"><a xlink:href="Vector2_8hpp.html" target="_top" xlink:title=" ">
<polygon fill="white" stroke="black" points="99.85,-179.5 99.85,-198.5 173.85,-198.5 173.85,-179.5 99.85,-179.5"/>
<text text-anchor="middle" x="136.85" y="-186.5" font-family="Helvetica,sans-Serif" font-size="10.00">Vector2.hpp</text>
</a>
</g>
</g>
<!-- Node2&#45;&gt;Node5 -->
<g id="edge4" class="edge">
<title>Node2&#45;&gt;Node5</title>
<path fill="none" stroke="midnightblue" d="M136.85,-235.08C136.85,-228.01 136.85,-217.86 136.85,-208.99"/>
<polygon fill="midnightblue" stroke="midnightblue" points="140.35,-208.75 136.85,-198.75 133.35,-208.75 140.35,-208.75"/>
</g>
<!-- Node14 -->
<g id="node14" class="node">
<title>Node14</title>
<g id="a_node14"><a xlink:href="Color_8hpp.html" target="_top" xlink:title=" ">
<polygon fill="white" stroke="black" points="19.85,-179.5 19.85,-198.5 81.85,-198.5 81.85,-179.5 19.85,-179.5"/>
<text text-anchor="middle" x="50.85" y="-186.5" font-family="Helvetica,sans-Serif" font-size="10.00">Color.hpp</text>
</a>
</g>
</g>
<!-- Node2&#45;&gt;Node14 -->
<g id="edge17" class="edge">
<title>Node2&#45;&gt;Node14</title>
<path fill="none" stroke="midnightblue" d="M123.04,-235.32C109.62,-226.9 89.03,-213.97 73.27,-204.07"/>
<polygon fill="midnightblue" stroke="midnightblue" points="74.97,-201.01 64.64,-198.65 71.25,-206.94 74.97,-201.01"/>
</g>
<!-- Node15 -->
<g id="node15" class="node">
<title>Node15</title>
<g id="a_node15"><a xlink:href="IAsset_8hpp.html" target="_top" xlink:title=" ">
<polygon fill="white" stroke="black" points="253.85,-179.5 253.85,-198.5 321.85,-198.5 321.85,-179.5 253.85,-179.5"/>
<text text-anchor="middle" x="287.85" y="-186.5" font-family="Helvetica,sans-Serif" font-size="10.00">IAsset.hpp</text>
</a>
</g>
</g>
<!-- Node2&#45;&gt;Node15 -->
<g id="edge20" class="edge">
<title>Node2&#45;&gt;Node15</title>
<path fill="none" stroke="midnightblue" d="M160.78,-235.44C186.07,-226.4 226.16,-212.06 254.53,-201.92"/>
<polygon fill="midnightblue" stroke="midnightblue" points="255.8,-205.18 264.04,-198.52 253.45,-198.59 255.8,-205.18"/>
</g>
<!-- Node5&#45;&gt;Node3 -->
<g id="edge5" class="edge">
<title>Node5&#45;&gt;Node3</title>
<path fill="none" stroke="midnightblue" d="M126.57,-179.37C116.23,-170.55 99.98,-156.3 86.85,-143 71.28,-127.23 54.71,-108.03 43.47,-94.6"/>
<polygon fill="midnightblue" stroke="midnightblue" points="46,-92.16 36.92,-86.7 40.62,-96.63 46,-92.16"/>
</g>
<!-- Node6 -->
<g id="node6" class="node">
<title>Node6</title>
<g id="a_node6"><a xlink:title=" ">
<polygon fill="white" stroke="#bfbfbf" points="149.35,-67.5 149.35,-86.5 196.35,-86.5 196.35,-67.5 149.35,-67.5"/>
<text text-anchor="middle" x="172.85" y="-74.5" font-family="Helvetica,sans-Serif" font-size="10.00">cmath</text>
</a>
</g>
</g>
<!-- Node5&#45;&gt;Node6 -->
<g id="edge6" class="edge">
<title>Node5&#45;&gt;Node6</title>
<path fill="none" stroke="midnightblue" d="M149.07,-179.24C159.21,-171.14 172.9,-158.11 178.85,-143 184.7,-128.17 182.31,-110.02 178.97,-96.67"/>
<polygon fill="midnightblue" stroke="midnightblue" points="182.25,-95.4 176.1,-86.77 175.52,-97.35 182.25,-95.4"/>
</g>
<!-- Node7 -->
<g id="node7" class="node">
<title>Node7</title>
<g id="a_node7"><a xlink:href="Vector3_8hpp.html" target="_top" xlink:title=" ">
<polygon fill="white" stroke="black" points="95.85,-123.5 95.85,-142.5 169.85,-142.5 169.85,-123.5 95.85,-123.5"/>
<text text-anchor="middle" x="132.85" y="-130.5" font-family="Helvetica,sans-Serif" font-size="10.00">Vector3.hpp</text>
</a>
</g>
</g>
<!-- Node5&#45;&gt;Node7 -->
<g id="edge7" class="edge">
<title>Node5&#45;&gt;Node7</title>
<path fill="none" stroke="midnightblue" d="M136.19,-179.08C135.67,-172.01 134.92,-161.86 134.26,-152.99"/>
<polygon fill="midnightblue" stroke="midnightblue" points="137.73,-152.47 133.5,-142.75 130.75,-152.98 137.73,-152.47"/>
</g>
<!-- Node8 -->
<g id="node8" class="node">
<title>Node8</title>
<g id="a_node8"><a xlink:href="IXMLSerializable_8hpp.html" target="_top" xlink:title=" ">
<polygon fill="white" stroke="black" points="214.35,-67.5 214.35,-86.5 333.35,-86.5 333.35,-67.5 214.35,-67.5"/>
<text text-anchor="middle" x="273.85" y="-74.5" font-family="Helvetica,sans-Serif" font-size="10.00">IXMLSerializable.hpp</text>
</a>
</g>
</g>
<!-- Node5&#45;&gt;Node8 -->
<g id="edge16" class="edge">
<title>Node5&#45;&gt;Node8</title>
<path fill="none" stroke="midnightblue" d="M147.82,-179.42C159.32,-170.4 177.91,-155.77 193.85,-143 214.95,-126.1 239,-106.52 255.17,-93.3"/>
<polygon fill="midnightblue" stroke="midnightblue" points="257.76,-95.71 263.28,-86.67 253.32,-90.29 257.76,-95.71"/>
</g>
<!-- Node7&#45;&gt;Node3 -->
<g id="edge8" class="edge">
<title>Node7&#45;&gt;Node3</title>
<path fill="none" stroke="midnightblue" d="M116.31,-123.32C99.86,-114.7 74.42,-101.36 55.39,-91.39"/>
<polygon fill="midnightblue" stroke="midnightblue" points="56.84,-88.2 46.36,-86.65 53.59,-94.4 56.84,-88.2"/>
</g>
<!-- Node7&#45;&gt;Node6 -->
<g id="edge14" class="edge">
<title>Node7&#45;&gt;Node6</title>
<path fill="none" stroke="midnightblue" d="M139.46,-123.08C145.11,-115.46 153.4,-104.26 160.31,-94.94"/>
<polygon fill="midnightblue" stroke="midnightblue" points="163.23,-96.87 166.37,-86.75 157.61,-92.7 163.23,-96.87"/>
</g>
<!-- Node7&#45;&gt;Node8 -->
<g id="edge9" class="edge">
<title>Node7&#45;&gt;Node8</title>
<path fill="none" stroke="midnightblue" d="M155.2,-123.44C178.61,-114.48 215.59,-100.31 242.04,-90.18"/>
<polygon fill="midnightblue" stroke="midnightblue" points="243.53,-93.36 251.62,-86.52 241.03,-86.82 243.53,-93.36"/>
</g>
<!-- Node13 -->
<g id="node13" class="node">
<title>Node13</title>
<g id="a_node13"><a xlink:title=" ">
<polygon fill="white" stroke="#bfbfbf" points="74.85,-67.5 74.85,-86.5 130.85,-86.5 130.85,-67.5 74.85,-67.5"/>
<text text-anchor="middle" x="102.85" y="-74.5" font-family="Helvetica,sans-Serif" font-size="10.00">sstream</text>
</a>
</g>
</g>
<!-- Node7&#45;&gt;Node13 -->
<g id="edge15" class="edge">
<title>Node7&#45;&gt;Node13</title>
<path fill="none" stroke="midnightblue" d="M127.9,-123.08C123.75,-115.61 117.7,-104.72 112.59,-95.52"/>
<polygon fill="midnightblue" stroke="midnightblue" points="115.63,-93.79 107.72,-86.75 109.51,-97.19 115.63,-93.79"/>
</g>
<!-- Node9 -->
<g id="node9" class="node">
<title>Node9</title>
<g id="a_node9"><a xlink:title=" ">
<polygon fill="white" stroke="#bfbfbf" points="115.35,-6 115.35,-25 172.35,-25 172.35,-6 115.35,-6"/>
<text text-anchor="middle" x="143.85" y="-13" font-family="Helvetica,sans-Serif" font-size="10.00">ostream</text>
</a>
</g>
</g>
<!-- Node8&#45;&gt;Node9 -->
<g id="edge10" class="edge">
<title>Node8&#45;&gt;Node9</title>
<path fill="none" stroke="midnightblue" d="M255.23,-67.48C233.41,-57.49 197.05,-40.85 171.84,-29.31"/>
<polygon fill="midnightblue" stroke="midnightblue" points="172.99,-25.99 162.45,-25.01 170.08,-32.35 172.99,-25.99"/>
</g>
<!-- Node10 -->
<g id="node10" class="node">
<title>Node10</title>
<g id="a_node10"><a xlink:title=" ">
<polygon fill="white" stroke="#bfbfbf" points="190.85,-6 190.85,-25 250.85,-25 250.85,-6 190.85,-6"/>
<text text-anchor="middle" x="220.85" y="-13" font-family="Helvetica,sans-Serif" font-size="10.00">iostream</text>
</a>
</g>
</g>
<!-- Node8&#45;&gt;Node10 -->
<g id="edge11" class="edge">
<title>Node8&#45;&gt;Node10</title>
<path fill="none" stroke="midnightblue" d="M266.26,-67.48C258.15,-58.37 245.12,-43.74 235.09,-32.48"/>
<polygon fill="midnightblue" stroke="midnightblue" points="237.7,-30.15 228.43,-25.01 232.47,-34.8 237.7,-30.15"/>
</g>
<!-- Node11 -->
<g id="node11" class="node">
<title>Node11</title>
<g id="a_node11"><a xlink:title=" ">
<polygon fill="white" stroke="#bfbfbf" points="269.35,-0.5 269.35,-30.5 382.35,-30.5 382.35,-0.5 269.35,-0.5"/>
<text text-anchor="start" x="277.35" y="-18.5" font-family="Helvetica,sans-Serif" font-size="10.00">boost/property_tree</text>
<text text-anchor="middle" x="325.85" y="-7.5" font-family="Helvetica,sans-Serif" font-size="10.00">/ptree.hpp</text>
</a>
</g>
</g>
<!-- Node8&#45;&gt;Node11 -->
<g id="edge12" class="edge">
<title>Node8&#45;&gt;Node11</title>
<path fill="none" stroke="midnightblue" d="M281.3,-67.48C287.95,-59.87 297.98,-48.4 306.83,-38.26"/>
<polygon fill="midnightblue" stroke="midnightblue" points="309.65,-40.36 313.6,-30.52 304.38,-35.75 309.65,-40.36"/>
</g>
<!-- Node12 -->
<g id="node12" class="node">
<title>Node12</title>
<g id="a_node12"><a xlink:title=" ">
<polygon fill="white" stroke="#bfbfbf" points="400.35,-0.5 400.35,-30.5 513.35,-30.5 513.35,-0.5 400.35,-0.5"/>
<text text-anchor="start" x="408.35" y="-18.5" font-family="Helvetica,sans-Serif" font-size="10.00">boost/property_tree</text>
<text text-anchor="middle" x="456.85" y="-7.5" font-family="Helvetica,sans-Serif" font-size="10.00">/xml_parser.hpp</text>
</a>
</g>
</g>
<!-- Node8&#45;&gt;Node12 -->
<g id="edge13" class="edge">
<title>Node8&#45;&gt;Node12</title>
<path fill="none" stroke="midnightblue" d="M300.07,-67.48C327.06,-58.7 369.85,-44.79 403.92,-33.71"/>
<polygon fill="midnightblue" stroke="midnightblue" points="405.3,-36.94 413.72,-30.52 403.13,-30.29 405.3,-36.94"/>
</g>
<!-- Node14&#45;&gt;Node3 -->
<g id="edge18" class="edge">
<title>Node14&#45;&gt;Node3</title>
<path fill="none" stroke="midnightblue" d="M49.21,-179.37C45.82,-161.62 38,-120.67 33.4,-96.6"/>
<polygon fill="midnightblue" stroke="midnightblue" points="36.81,-95.76 31.49,-86.59 29.93,-97.07 36.81,-95.76"/>
</g>
<!-- Node14&#45;&gt;Node7 -->
<g id="edge19" class="edge">
<title>Node14&#45;&gt;Node7</title>
<path fill="none" stroke="midnightblue" d="M64.03,-179.32C76.7,-170.98 96.09,-158.21 111.06,-148.35"/>
<polygon fill="midnightblue" stroke="midnightblue" points="113.29,-151.08 119.71,-142.65 109.44,-145.23 113.29,-151.08"/>
</g>
</g>
</svg>
