<?xml version="1.0" encoding="UTF-8" standalone="no"?>
<!DOCTYPE svg PUBLIC "-//W3C//DTD SVG 1.1//EN"
 "http://www.w3.org/Graphics/SVG/1.1/DTD/svg11.dtd">
<!-- Generated by graphviz version 2.43.0 (0)
 -->
<!-- Title: Libs/RayLib/sources/Font/Font.hpp Pages: 1 -->
<svg width="521pt" height="274pt"
 viewBox="0.00 0.00 520.99 274.00" xmlns="http://www.w3.org/2000/svg" xmlns:xlink="http://www.w3.org/1999/xlink">
<g id="graph0" class="graph" transform="scale(1 1) rotate(0) translate(4 270)">
<title>Libs/RayLib/sources/Font/Font.hpp</title>
<polygon fill="white" stroke="transparent" points="-4,4 -4,-270 516.99,-270 516.99,4 -4,4"/>
<!-- Node1 -->
<g id="node1" class="node">
<title>Node1</title>
<g id="a_node1"><a xlink:title=" ">
<polygon fill="#bfbfbf" stroke="black" points="79.99,-235.5 79.99,-265.5 192.99,-265.5 192.99,-235.5 79.99,-235.5"/>
<text text-anchor="start" x="87.99" y="-253.5" font-family="Helvetica,sans-Serif" font-size="10.00">Libs/RayLib/sources</text>
<text text-anchor="middle" x="136.49" y="-242.5" font-family="Helvetica,sans-Serif" font-size="10.00">/Font/Font.hpp</text>
</a>
</g>
</g>
<!-- Node2 -->
<g id="node2" class="node">
<title>Node2</title>
<g id="a_node2"><a xlink:title=" ">
<polygon fill="white" stroke="#bfbfbf" points="2.99,-67.5 2.99,-86.5 55.99,-86.5 55.99,-67.5 2.99,-67.5"/>
<text text-anchor="middle" x="29.49" y="-74.5" font-family="Helvetica,sans-Serif" font-size="10.00">raylib.h</text>
</a>
</g>
</g>
<!-- Node1&#45;&gt;Node2 -->
<g id="edge1" class="edge">
<title>Node1&#45;&gt;Node2</title>
<path fill="none" stroke="midnightblue" d="M79.71,-241.38C54.06,-234.56 26.07,-222.03 10.49,-199 -10.87,-167.42 7.01,-120.72 19.64,-95.57"/>
<polygon fill="midnightblue" stroke="midnightblue" points="22.86,-96.98 24.45,-86.5 16.67,-93.7 22.86,-96.98"/>
</g>
<!-- Node3 -->
<g id="node3" class="node">
<title>Node3</title>
<g id="a_node3"><a xlink:title=" ">
<polygon fill="white" stroke="#bfbfbf" points="191.49,-179.5 191.49,-198.5 235.49,-198.5 235.49,-179.5 191.49,-179.5"/>
<text text-anchor="middle" x="213.49" y="-186.5" font-family="Helvetica,sans-Serif" font-size="10.00">string</text>
</a>
</g>
</g>
<!-- Node1&#45;&gt;Node3 -->
<g id="edge2" class="edge">
<title>Node1&#45;&gt;Node3</title>
<path fill="none" stroke="midnightblue" d="M154.74,-235.4C166.62,-226.22 182.1,-214.26 194.18,-204.92"/>
<polygon fill="midnightblue" stroke="midnightblue" points="196.51,-207.54 202.29,-198.66 192.23,-202 196.51,-207.54"/>
</g>
<!-- Node4 -->
<g id="node4" class="node">
<title>Node4</title>
<g id="a_node4"><a xlink:href="Vector2_8hpp.html" target="_top" xlink:title=" ">
<polygon fill="white" stroke="black" points="99.49,-179.5 99.49,-198.5 173.49,-198.5 173.49,-179.5 99.49,-179.5"/>
<text text-anchor="middle" x="136.49" y="-186.5" font-family="Helvetica,sans-Serif" font-size="10.00">Vector2.hpp</text>
</a>
</g>
</g>
<!-- Node1&#45;&gt;Node4 -->
<g id="edge3" class="edge">
<title>Node1&#45;&gt;Node4</title>
<path fill="none" stroke="midnightblue" d="M136.49,-235.4C136.49,-227.47 136.49,-217.46 136.49,-208.86"/>
<polygon fill="midnightblue" stroke="midnightblue" points="139.99,-208.66 136.49,-198.66 132.99,-208.66 139.99,-208.66"/>
</g>
<!-- Node13 -->
<g id="node13" class="node">
<title>Node13</title>
<g id="a_node13"><a xlink:href="Color_8hpp.html" target="_top" xlink:title=" ">
<polygon fill="white" stroke="black" points="19.49,-179.5 19.49,-198.5 81.49,-198.5 81.49,-179.5 19.49,-179.5"/>
<text text-anchor="middle" x="50.49" y="-186.5" font-family="Helvetica,sans-Serif" font-size="10.00">Color.hpp</text>
</a>
</g>
</g>
<!-- Node1&#45;&gt;Node13 -->
<g id="edge16" class="edge">
<title>Node1&#45;&gt;Node13</title>
<path fill="none" stroke="midnightblue" d="M116.11,-235.4C102.58,-226.04 84.88,-213.79 71.27,-204.38"/>
<polygon fill="midnightblue" stroke="midnightblue" points="73.22,-201.47 63,-198.66 69.24,-207.23 73.22,-201.47"/>
</g>
<!-- Node14 -->
<g id="node14" class="node">
<title>Node14</title>
<g id="a_node14"><a xlink:href="IAsset_8hpp.html" target="_top" xlink:title=" ">
<polygon fill="white" stroke="black" points="253.49,-179.5 253.49,-198.5 321.49,-198.5 321.49,-179.5 253.49,-179.5"/>
<text text-anchor="middle" x="287.49" y="-186.5" font-family="Helvetica,sans-Serif" font-size="10.00">IAsset.hpp</text>
</a>
</g>
</g>
<!-- Node1&#45;&gt;Node14 -->
<g id="edge19" class="edge">
<title>Node1&#45;&gt;Node14</title>
<path fill="none" stroke="midnightblue" d="M172.27,-235.4C197.72,-225.37 231.59,-212.03 256.01,-202.4"/>
<polygon fill="midnightblue" stroke="midnightblue" points="257.5,-205.58 265.52,-198.66 254.93,-199.07 257.5,-205.58"/>
</g>
<!-- Node4&#45;&gt;Node2 -->
<g id="edge4" class="edge">
<title>Node4&#45;&gt;Node2</title>
<path fill="none" stroke="midnightblue" d="M126.21,-179.37C115.87,-170.55 99.62,-156.3 86.49,-143 70.92,-127.23 54.35,-108.03 43.11,-94.6"/>
<polygon fill="midnightblue" stroke="midnightblue" points="45.64,-92.16 36.56,-86.7 40.25,-96.63 45.64,-92.16"/>
</g>
<!-- Node5 -->
<g id="node5" class="node">
<title>Node5</title>
<g id="a_node5"><a xlink:title=" ">
<polygon fill="white" stroke="#bfbfbf" points="148.99,-67.5 148.99,-86.5 195.99,-86.5 195.99,-67.5 148.99,-67.5"/>
<text text-anchor="middle" x="172.49" y="-74.5" font-family="Helvetica,sans-Serif" font-size="10.00">cmath</text>
</a>
</g>
</g>
<!-- Node4&#45;&gt;Node5 -->
<g id="edge5" class="edge">
<title>Node4&#45;&gt;Node5</title>
<path fill="none" stroke="midnightblue" d="M148.7,-179.24C158.84,-171.14 172.53,-158.11 178.49,-143 184.33,-128.17 181.95,-110.02 178.61,-96.67"/>
<polygon fill="midnightblue" stroke="midnightblue" points="181.88,-95.4 175.74,-86.77 175.16,-97.35 181.88,-95.4"/>
</g>
<!-- Node6 -->
<g id="node6" class="node">
<title>Node6</title>
<g id="a_node6"><a xlink:href="Vector3_8hpp.html" target="_top" xlink:title=" ">
<polygon fill="white" stroke="black" points="95.49,-123.5 95.49,-142.5 169.49,-142.5 169.49,-123.5 95.49,-123.5"/>
<text text-anchor="middle" x="132.49" y="-130.5" font-family="Helvetica,sans-Serif" font-size="10.00">Vector3.hpp</text>
</a>
</g>
</g>
<!-- Node4&#45;&gt;Node6 -->
<g id="edge6" class="edge">
<title>Node4&#45;&gt;Node6</title>
<path fill="none" stroke="midnightblue" d="M135.83,-179.08C135.31,-172.01 134.55,-161.86 133.9,-152.99"/>
<polygon fill="midnightblue" stroke="midnightblue" points="137.37,-152.47 133.14,-142.75 130.39,-152.98 137.37,-152.47"/>
</g>
<!-- Node7 -->
<g id="node7" class="node">
<title>Node7</title>
<g id="a_node7"><a xlink:href="IXMLSerializable_8hpp.html" target="_top" xlink:title=" ">
<polygon fill="white" stroke="black" points="213.99,-67.5 213.99,-86.5 332.99,-86.5 332.99,-67.5 213.99,-67.5"/>
<text text-anchor="middle" x="273.49" y="-74.5" font-family="Helvetica,sans-Serif" font-size="10.00">IXMLSerializable.hpp</text>
</a>
</g>
</g>
<!-- Node4&#45;&gt;Node7 -->
<g id="edge15" class="edge">
<title>Node4&#45;&gt;Node7</title>
<path fill="none" stroke="midnightblue" d="M147.45,-179.42C158.96,-170.4 177.55,-155.77 193.49,-143 214.59,-126.1 238.63,-106.52 254.81,-93.3"/>
<polygon fill="midnightblue" stroke="midnightblue" points="257.39,-95.71 262.92,-86.67 252.96,-90.29 257.39,-95.71"/>
</g>
<!-- Node6&#45;&gt;Node2 -->
<g id="edge7" class="edge">
<title>Node6&#45;&gt;Node2</title>
<path fill="none" stroke="midnightblue" d="M115.94,-123.32C99.5,-114.7 74.06,-101.36 55.02,-91.39"/>
<polygon fill="midnightblue" stroke="midnightblue" points="56.48,-88.2 46,-86.65 53.23,-94.4 56.48,-88.2"/>
</g>
<!-- Node6&#45;&gt;Node5 -->
<g id="edge13" class="edge">
<title>Node6&#45;&gt;Node5</title>
<path fill="none" stroke="midnightblue" d="M139.1,-123.08C144.75,-115.46 153.03,-104.26 159.94,-94.94"/>
<polygon fill="midnightblue" stroke="midnightblue" points="162.87,-96.87 166.01,-86.75 157.24,-92.7 162.87,-96.87"/>
</g>
<!-- Node6&#45;&gt;Node7 -->
<g id="edge8" class="edge">
<title>Node6&#45;&gt;Node7</title>
<path fill="none" stroke="midnightblue" d="M154.83,-123.44C178.24,-114.48 215.23,-100.31 241.68,-90.18"/>
<polygon fill="midnightblue" stroke="midnightblue" points="243.17,-93.36 251.25,-86.52 240.66,-86.82 243.17,-93.36"/>
</g>
<!-- Node12 -->
<g id="node12" class="node">
<title>Node12</title>
<g id="a_node12"><a xlink:title=" ">
<polygon fill="white" stroke="#bfbfbf" points="74.49,-67.5 74.49,-86.5 130.49,-86.5 130.49,-67.5 74.49,-67.5"/>
<text text-anchor="middle" x="102.49" y="-74.5" font-family="Helvetica,sans-Serif" font-size="10.00">sstream</text>
</a>
</g>
</g>
<!-- Node6&#45;&gt;Node12 -->
<g id="edge14" class="edge">
<title>Node6&#45;&gt;Node12</title>
<path fill="none" stroke="midnightblue" d="M127.54,-123.08C123.39,-115.61 117.34,-104.72 112.22,-95.52"/>
<polygon fill="midnightblue" stroke="midnightblue" points="115.27,-93.79 107.35,-86.75 109.15,-97.19 115.27,-93.79"/>
</g>
<!-- Node8 -->
<g id="node8" class="node">
<title>Node8</title>
<g id="a_node8"><a xlink:title=" ">
<polygon fill="white" stroke="#bfbfbf" points="114.99,-6 114.99,-25 171.99,-25 171.99,-6 114.99,-6"/>
<text text-anchor="middle" x="143.49" y="-13" font-family="Helvetica,sans-Serif" font-size="10.00">ostream</text>
</a>
</g>
</g>
<!-- Node7&#45;&gt;Node8 -->
<g id="edge9" class="edge">
<title>Node7&#45;&gt;Node8</title>
<path fill="none" stroke="midnightblue" d="M254.86,-67.48C233.05,-57.49 196.69,-40.85 171.47,-29.31"/>
<polygon fill="midnightblue" stroke="midnightblue" points="172.63,-25.99 162.08,-25.01 169.72,-32.35 172.63,-25.99"/>
</g>
<!-- Node9 -->
<g id="node9" class="node">
<title>Node9</title>
<g id="a_node9"><a xlink:title=" ">
<polygon fill="white" stroke="#bfbfbf" points="190.49,-6 190.49,-25 250.49,-25 250.49,-6 190.49,-6"/>
<text text-anchor="middle" x="220.49" y="-13" font-family="Helvetica,sans-Serif" font-size="10.00">iostream</text>
</a>
</g>
</g>
<!-- Node7&#45;&gt;Node9 -->
<g id="edge10" class="edge">
<title>Node7&#45;&gt;Node9</title>
<path fill="none" stroke="midnightblue" d="M265.9,-67.48C257.79,-58.37 244.76,-43.74 234.73,-32.48"/>
<polygon fill="midnightblue" stroke="midnightblue" points="237.33,-30.15 228.07,-25.01 232.11,-34.8 237.33,-30.15"/>
</g>
<!-- Node10 -->
<g id="node10" class="node">
<title>Node10</title>
<g id="a_node10"><a xlink:title=" ">
<polygon fill="white" stroke="#bfbfbf" points="268.99,-0.5 268.99,-30.5 381.99,-30.5 381.99,-0.5 268.99,-0.5"/>
<text text-anchor="start" x="276.99" y="-18.5" font-family="Helvetica,sans-Serif" font-size="10.00">boost/property_tree</text>
<text text-anchor="middle" x="325.49" y="-7.5" font-family="Helvetica,sans-Serif" font-size="10.00">/ptree.hpp</text>
</a>
</g>
</g>
<!-- Node7&#45;&gt;Node10 -->
<g id="edge11" class="edge">
<title>Node7&#45;&gt;Node10</title>
<path fill="none" stroke="midnightblue" d="M280.94,-67.48C287.59,-59.87 297.61,-48.4 306.47,-38.26"/>
<polygon fill="midnightblue" stroke="midnightblue" points="309.29,-40.36 313.23,-30.52 304.02,-35.75 309.29,-40.36"/>
</g>
<!-- Node11 -->
<g id="node11" class="node">
<title>Node11</title>
<g id="a_node11"><a xlink:title=" ">
<polygon fill="white" stroke="#bfbfbf" points="399.99,-0.5 399.99,-30.5 512.99,-30.5 512.99,-0.5 399.99,-0.5"/>
<text text-anchor="start" x="407.99" y="-18.5" font-family="Helvetica,sans-Serif" font-size="10.00">boost/property_tree</text>
<text text-anchor="middle" x="456.49" y="-7.5" font-family="Helvetica,sans-Serif" font-size="10.00">/xml_parser.hpp</text>
</a>
</g>
</g>
<!-- Node7&#45;&gt;Node11 -->
<g id="edge12" class="edge">
<title>Node7&#45;&gt;Node11</title>
<path fill="none" stroke="midnightblue" d="M299.71,-67.48C326.69,-58.7 369.49,-44.79 403.55,-33.71"/>
<polygon fill="midnightblue" stroke="midnightblue" points="404.93,-36.94 413.36,-30.52 402.77,-30.29 404.93,-36.94"/>
</g>
<!-- Node13&#45;&gt;Node2 -->
<g id="edge17" class="edge">
<title>Node13&#45;&gt;Node2</title>
<path fill="none" stroke="midnightblue" d="M48.84,-179.37C45.45,-161.62 37.64,-120.67 33.04,-96.6"/>
<polygon fill="midnightblue" stroke="midnightblue" points="36.44,-95.76 31.13,-86.59 29.57,-97.07 36.44,-95.76"/>
</g>
<!-- Node13&#45;&gt;Node6 -->
<g id="edge18" class="edge">
<title>Node13&#45;&gt;Node6</title>
<path fill="none" stroke="midnightblue" d="M63.66,-179.32C76.34,-170.98 95.72,-158.21 110.7,-148.35"/>
<polygon fill="midnightblue" stroke="midnightblue" points="112.92,-151.08 119.35,-142.65 109.07,-145.23 112.92,-151.08"/>
</g>
</g>
</svg>
