<?xml version="1.0" encoding="UTF-8" standalone="no"?>
<!DOCTYPE svg PUBLIC "-//W3C//DTD SVG 1.1//EN"
 "http://www.w3.org/Graphics/SVG/1.1/DTD/svg11.dtd">
<!-- Generated by graphviz version 2.43.0 (0)
 -->
<!-- Title: Libs/RayLib/sources/Font/Font.hpp Pages: 1 -->
<svg width="1060pt" height="273pt"
 viewBox="0.00 0.00 1060.00 273.00" xmlns="http://www.w3.org/2000/svg" xmlns:xlink="http://www.w3.org/1999/xlink">
<g id="graph0" class="graph" transform="scale(1 1) rotate(0) translate(4 269)">
<title>Libs/RayLib/sources/Font/Font.hpp</title>
<polygon fill="white" stroke="transparent" points="-4,4 -4,-269 1056,-269 1056,4 -4,4"/>
<!-- Node1 -->
<g id="node1" class="node">
<title>Node1</title>
<g id="a_node1"><a xlink:title=" ">
<polygon fill="#bfbfbf" stroke="black" points="718,-234.5 718,-264.5 831,-264.5 831,-234.5 718,-234.5"/>
<text text-anchor="start" x="726" y="-252.5" font-family="Helvetica,sans-Serif" font-size="10.00">Libs/RayLib/sources</text>
<text text-anchor="middle" x="774.5" y="-241.5" font-family="Helvetica,sans-Serif" font-size="10.00">/Font/Font.hpp</text>
</a>
</g>
</g>
<!-- Node2 -->
<g id="node2" class="node">
<title>Node2</title>
<g id="a_node2"><a xlink:href="TextBox_8hpp.html" target="_top" xlink:title=" ">
<polygon fill="white" stroke="black" points="273,-156.5 273,-197.5 396,-197.5 396,-156.5 273,-156.5"/>
<text text-anchor="start" x="281" y="-185.5" font-family="Helvetica,sans-Serif" font-size="10.00">Libs/Engine/sources</text>
<text text-anchor="start" x="281" y="-174.5" font-family="Helvetica,sans-Serif" font-size="10.00">/Components/TextBox</text>
<text text-anchor="middle" x="334.5" y="-163.5" font-family="Helvetica,sans-Serif" font-size="10.00">/TextBox.hpp</text>
</a>
</g>
</g>
<!-- Node1&#45;&gt;Node2 -->
<g id="edge1" class="edge">
<title>Node1&#45;&gt;Node2</title>
<path fill="none" stroke="midnightblue" d="M707.87,-237.82C623.25,-224.27 478.41,-201.06 396.21,-187.89"/>
<polygon fill="midnightblue" stroke="midnightblue" points="707.45,-241.3 717.88,-239.43 708.56,-234.39 707.45,-241.3"/>
</g>
<!-- Node7 -->
<g id="node7" class="node">
<title>Node7</title>
<g id="a_node7"><a xlink:href="EntityFactory_8cpp.html" target="_top" xlink:title=" ">
<polygon fill="white" stroke="black" points="360,-6 360,-36 529,-36 529,-6 360,-6"/>
<text text-anchor="start" x="368" y="-24" font-family="Helvetica,sans-Serif" font-size="10.00">Libs/Engine/sources</text>
<text text-anchor="middle" x="444.5" y="-13" font-family="Helvetica,sans-Serif" font-size="10.00">/EntityFactory/EntityFactory.cpp</text>
</a>
</g>
</g>
<!-- Node1&#45;&gt;Node7 -->
<g id="edge13" class="edge">
<title>Node1&#45;&gt;Node7</title>
<path fill="none" stroke="midnightblue" d="M805.77,-228.7C854.09,-195.75 936.91,-128.3 892.5,-78 868.9,-51.26 652.42,-34.24 529.24,-26.63"/>
<polygon fill="midnightblue" stroke="midnightblue" points="803.56,-225.97 797.19,-234.44 807.45,-231.79 803.56,-225.97"/>
</g>
<!-- Node8 -->
<g id="node8" class="node">
<title>Node8</title>
<g id="a_node8"><a xlink:href="TextUI_8hpp.html" target="_top" xlink:title=" ">
<polygon fill="white" stroke="black" points="554.5,-162 554.5,-192 724.5,-192 724.5,-162 554.5,-162"/>
<text text-anchor="start" x="562.5" y="-180" font-family="Helvetica,sans-Serif" font-size="10.00">Libs/Engine/sources</text>
<text text-anchor="middle" x="639.5" y="-169" font-family="Helvetica,sans-Serif" font-size="10.00">/Components/TextUI/TextUI.hpp</text>
</a>
</g>
</g>
<!-- Node1&#45;&gt;Node8 -->
<g id="edge8" class="edge">
<title>Node1&#45;&gt;Node8</title>
<path fill="none" stroke="midnightblue" d="M738.53,-229.72C715.88,-217.89 687.13,-202.87 666.45,-192.07"/>
<polygon fill="midnightblue" stroke="midnightblue" points="737.02,-232.88 747.51,-234.4 740.26,-226.67 737.02,-232.88"/>
</g>
<!-- Node11 -->
<g id="node11" class="node">
<title>Node11</title>
<g id="a_node11"><a xlink:href="Font_8cpp.html" target="_top" xlink:title=" ">
<polygon fill="white" stroke="black" points="939,-162 939,-192 1052,-192 1052,-162 939,-162"/>
<text text-anchor="start" x="947" y="-180" font-family="Helvetica,sans-Serif" font-size="10.00">Libs/RayLib/sources</text>
<text text-anchor="middle" x="995.5" y="-169" font-family="Helvetica,sans-Serif" font-size="10.00">/Font/Font.cpp</text>
</a>
</g>
</g>
<!-- Node1&#45;&gt;Node11 -->
<g id="edge14" class="edge">
<title>Node1&#45;&gt;Node11</title>
<path fill="none" stroke="midnightblue" d="M828.23,-231.36C865.97,-219.32 915.84,-203.41 951.28,-192.11"/>
<polygon fill="midnightblue" stroke="midnightblue" points="826.89,-228.11 818.43,-234.49 829.02,-234.78 826.89,-228.11"/>
</g>
<!-- Node3 -->
<g id="node3" class="node">
<title>Node3</title>
<g id="a_node3"><a xlink:href="ButtonCallbacks_8cpp.html" target="_top" xlink:title=" ">
<polygon fill="white" stroke="black" points="362.5,-78.5 362.5,-119.5 526.5,-119.5 526.5,-78.5 362.5,-78.5"/>
<text text-anchor="start" x="370.5" y="-107.5" font-family="Helvetica,sans-Serif" font-size="10.00">Libs/Engine/sources</text>
<text text-anchor="start" x="370.5" y="-96.5" font-family="Helvetica,sans-Serif" font-size="10.00">/Components/ButtonCallbacks</text>
<text text-anchor="middle" x="444.5" y="-85.5" font-family="Helvetica,sans-Serif" font-size="10.00">/ButtonCallbacks.cpp</text>
</a>
</g>
</g>
<!-- Node2&#45;&gt;Node3 -->
<g id="edge2" class="edge">
<title>Node2&#45;&gt;Node3</title>
<path fill="none" stroke="midnightblue" d="M371.21,-150.64C385.9,-140.49 402.55,-128.98 416.27,-119.51"/>
<polygon fill="midnightblue" stroke="midnightblue" points="369.07,-147.86 362.83,-156.43 373.04,-153.62 369.07,-147.86"/>
</g>
<!-- Node4 -->
<g id="node4" class="node">
<title>Node4</title>
<g id="a_node4"><a xlink:href="TextBox_8cpp.html" target="_top" xlink:title=" ">
<polygon fill="white" stroke="black" points="183,-78.5 183,-119.5 306,-119.5 306,-78.5 183,-78.5"/>
<text text-anchor="start" x="191" y="-107.5" font-family="Helvetica,sans-Serif" font-size="10.00">Libs/Engine/sources</text>
<text text-anchor="start" x="191" y="-96.5" font-family="Helvetica,sans-Serif" font-size="10.00">/Components/TextBox</text>
<text text-anchor="middle" x="244.5" y="-85.5" font-family="Helvetica,sans-Serif" font-size="10.00">/TextBox.cpp</text>
</a>
</g>
</g>
<!-- Node2&#45;&gt;Node4 -->
<g id="edge3" class="edge">
<title>Node2&#45;&gt;Node4</title>
<path fill="none" stroke="midnightblue" d="M303.45,-149.78C291.68,-139.84 278.51,-128.72 267.6,-119.51"/>
<polygon fill="midnightblue" stroke="midnightblue" points="301.42,-152.65 311.32,-156.43 305.94,-147.3 301.42,-152.65"/>
</g>
<!-- Node5 -->
<g id="node5" class="node">
<title>Node5</title>
<g id="a_node5"><a xlink:href="TextBoxCallback_8hpp.html" target="_top" xlink:title=" ">
<polygon fill="white" stroke="black" points="0,-78.5 0,-119.5 165,-119.5 165,-78.5 0,-78.5"/>
<text text-anchor="start" x="8" y="-107.5" font-family="Helvetica,sans-Serif" font-size="10.00">Libs/Engine/sources</text>
<text text-anchor="start" x="8" y="-96.5" font-family="Helvetica,sans-Serif" font-size="10.00">/Components/TextBoxCallback</text>
<text text-anchor="middle" x="82.5" y="-85.5" font-family="Helvetica,sans-Serif" font-size="10.00">/TextBoxCallback.hpp</text>
</a>
</g>
</g>
<!-- Node2&#45;&gt;Node5 -->
<g id="edge4" class="edge">
<title>Node2&#45;&gt;Node5</title>
<path fill="none" stroke="midnightblue" d="M262.83,-154.38C226.52,-143.44 182.78,-130.24 147.47,-119.59"/>
<polygon fill="midnightblue" stroke="midnightblue" points="262.27,-157.87 272.85,-157.41 264.29,-151.17 262.27,-157.87"/>
</g>
<!-- Node2&#45;&gt;Node7 -->
<g id="edge7" class="edge">
<title>Node2&#45;&gt;Node7</title>
<path fill="none" stroke="midnightblue" d="M334.17,-146.01C335.33,-125.26 339.73,-97.9 353.5,-78 366.69,-58.93 388.7,-45.13 407.77,-36.01"/>
<polygon fill="midnightblue" stroke="midnightblue" points="330.67,-146.07 333.83,-156.18 337.66,-146.31 330.67,-146.07"/>
</g>
<!-- Node6 -->
<g id="node6" class="node">
<title>Node6</title>
<g id="a_node6"><a xlink:href="TextBoxCallback_8cpp.html" target="_top" xlink:title=" ">
<polygon fill="white" stroke="black" points="0,-0.5 0,-41.5 165,-41.5 165,-0.5 0,-0.5"/>
<text text-anchor="start" x="8" y="-29.5" font-family="Helvetica,sans-Serif" font-size="10.00">Libs/Engine/sources</text>
<text text-anchor="start" x="8" y="-18.5" font-family="Helvetica,sans-Serif" font-size="10.00">/Components/TextBoxCallback</text>
<text text-anchor="middle" x="82.5" y="-7.5" font-family="Helvetica,sans-Serif" font-size="10.00">/TextBoxCallback.cpp</text>
</a>
</g>
</g>
<!-- Node5&#45;&gt;Node6 -->
<g id="edge5" class="edge">
<title>Node5&#45;&gt;Node6</title>
<path fill="none" stroke="midnightblue" d="M82.5,-68.3C82.5,-59.3 82.5,-49.65 82.5,-41.51"/>
<polygon fill="midnightblue" stroke="midnightblue" points="79,-68.43 82.5,-78.43 86,-68.43 79,-68.43"/>
</g>
<!-- Node5&#45;&gt;Node7 -->
<g id="edge6" class="edge">
<title>Node5&#45;&gt;Node7</title>
<path fill="none" stroke="midnightblue" d="M175.22,-77.64C248.8,-61.99 322.95,-46.74 375.39,-36.03"/>
<polygon fill="midnightblue" stroke="midnightblue" points="174.37,-74.25 165.32,-79.75 175.83,-81.09 174.37,-74.25"/>
</g>
<!-- Node8&#45;&gt;Node3 -->
<g id="edge9" class="edge">
<title>Node8&#45;&gt;Node3</title>
<path fill="none" stroke="midnightblue" d="M593.59,-158.11C563.94,-146.55 525.35,-131.51 494.86,-119.63"/>
<polygon fill="midnightblue" stroke="midnightblue" points="592.69,-161.51 603.28,-161.88 595.23,-154.99 592.69,-161.51"/>
</g>
<!-- Node8&#45;&gt;Node7 -->
<g id="edge11" class="edge">
<title>Node8&#45;&gt;Node7</title>
<path fill="none" stroke="midnightblue" d="M614.17,-155.31C601.91,-145 587.14,-132.18 574.5,-120 556.16,-102.33 555.19,-94.16 535.5,-78 515.56,-61.65 490.45,-46.54 471.66,-36.15"/>
<polygon fill="midnightblue" stroke="midnightblue" points="612.28,-158.29 622.21,-162 616.76,-152.91 612.28,-158.29"/>
</g>
<!-- Node9 -->
<g id="node9" class="node">
<title>Node9</title>
<g id="a_node9"><a xlink:href="TextUI_8cpp.html" target="_top" xlink:title=" ">
<polygon fill="white" stroke="black" points="714,-84 714,-114 883,-114 883,-84 714,-84"/>
<text text-anchor="start" x="722" y="-102" font-family="Helvetica,sans-Serif" font-size="10.00">Libs/Engine/sources</text>
<text text-anchor="middle" x="798.5" y="-91" font-family="Helvetica,sans-Serif" font-size="10.00">/Components/TextUI/TextUI.cpp</text>
</a>
</g>
</g>
<!-- Node8&#45;&gt;Node9 -->
<g id="edge10" class="edge">
<title>Node8&#45;&gt;Node9</title>
<path fill="none" stroke="midnightblue" d="M678.15,-157.52C706.18,-144.13 743.51,-126.28 769.12,-114.04"/>
<polygon fill="midnightblue" stroke="midnightblue" points="676.55,-154.41 669.03,-161.88 679.57,-160.73 676.55,-154.41"/>
</g>
<!-- Node10 -->
<g id="node10" class="node">
<title>Node10</title>
<g id="a_node10"><a xlink:href="Scenes_8cpp.html" target="_top" xlink:title=" ">
<polygon fill="white" stroke="black" points="583,-84 583,-114 696,-114 696,-84 583,-84"/>
<text text-anchor="start" x="591" y="-102" font-family="Helvetica,sans-Serif" font-size="10.00">Libs/Engine/sources</text>
<text text-anchor="middle" x="639.5" y="-91" font-family="Helvetica,sans-Serif" font-size="10.00">/Scenes/Scenes.cpp</text>
</a>
</g>
</g>
<!-- Node8&#45;&gt;Node10 -->
<g id="edge12" class="edge">
<title>Node8&#45;&gt;Node10</title>
<path fill="none" stroke="midnightblue" d="M639.5,-151.59C639.5,-139.26 639.5,-124.72 639.5,-114.23"/>
<polygon fill="midnightblue" stroke="midnightblue" points="636,-151.7 639.5,-161.7 643,-151.71 636,-151.7"/>
</g>
</g>
</svg>
