<?xml version="1.0" encoding="UTF-8" standalone="no"?>
<!DOCTYPE svg PUBLIC "-//W3C//DTD SVG 1.1//EN"
 "http://www.w3.org/Graphics/SVG/1.1/DTD/svg11.dtd">
<!-- Generated by graphviz version 2.43.0 (0)
 -->
<!-- Title: Libs/Engine/sources/GameConfiguration/GameConfiguration.hpp Pages: 1 -->
<svg width="2388pt" height="429pt"
 viewBox="0.00 0.00 2388.23 429.00" xmlns="http://www.w3.org/2000/svg" xmlns:xlink="http://www.w3.org/1999/xlink">
<g id="graph0" class="graph" transform="scale(1 1) rotate(0) translate(4 425)">
<title>Libs/Engine/sources/GameConfiguration/GameConfiguration.hpp</title>
<polygon fill="white" stroke="transparent" points="-4,4 -4,-425 2384.23,-425 2384.23,4 -4,4"/>
<!-- Node1 -->
<g id="node1" class="node">
<title>Node1</title>
<g id="a_node1"><a xlink:title=" ">
<polygon fill="#bfbfbf" stroke="black" points="903.73,-390.5 903.73,-420.5 1136.73,-420.5 1136.73,-390.5 903.73,-390.5"/>
<text text-anchor="start" x="911.73" y="-408.5" font-family="Helvetica,sans-Serif" font-size="10.00">Libs/Engine/sources</text>
<text text-anchor="middle" x="1020.23" y="-397.5" font-family="Helvetica,sans-Serif" font-size="10.00">/GameConfiguration/GameConfiguration.hpp</text>
</a>
</g>
</g>
<!-- Node2 -->
<g id="node2" class="node">
<title>Node2</title>
<g id="a_node2"><a xlink:href="AIAlgo_8hpp.html" target="_top" xlink:title=" ">
<polygon fill="white" stroke="black" points="497.73,-162 497.73,-192 668.73,-192 668.73,-162 497.73,-162"/>
<text text-anchor="start" x="505.73" y="-180" font-family="Helvetica,sans-Serif" font-size="10.00">Libs/Engine/sources</text>
<text text-anchor="middle" x="583.23" y="-169" font-family="Helvetica,sans-Serif" font-size="10.00">/Components/AIAlgo/AIAlgo.hpp</text>
</a>
</g>
</g>
<!-- Node1&#45;&gt;Node2 -->
<g id="edge1" class="edge">
<title>Node1&#45;&gt;Node2</title>
<path fill="none" stroke="midnightblue" d="M893.32,-397.19C812.43,-390.34 716.73,-377.49 683.23,-354 633.57,-319.18 648.76,-286.41 618.23,-234 609.8,-219.54 599.6,-203.36 592.4,-192.12"/>
<polygon fill="midnightblue" stroke="midnightblue" points="893.36,-400.71 903.62,-398.04 893.94,-393.73 893.36,-400.71"/>
</g>
<!-- Node8 -->
<g id="node8" class="node">
<title>Node8</title>
<g id="a_node8"><a xlink:href="APickUp_8hpp.html" target="_top" xlink:title=" ">
<polygon fill="white" stroke="black" points="483.73,-312.5 483.73,-353.5 608.73,-353.5 608.73,-312.5 483.73,-312.5"/>
<text text-anchor="start" x="491.73" y="-341.5" font-family="Helvetica,sans-Serif" font-size="10.00">Libs/Engine/sources</text>
<text text-anchor="start" x="491.73" y="-330.5" font-family="Helvetica,sans-Serif" font-size="10.00">/Components/APickUp</text>
<text text-anchor="middle" x="546.23" y="-319.5" font-family="Helvetica,sans-Serif" font-size="10.00">/APickUp.hpp</text>
</a>
</g>
</g>
<!-- Node1&#45;&gt;Node8 -->
<g id="edge7" class="edge">
<title>Node1&#45;&gt;Node8</title>
<path fill="none" stroke="midnightblue" d="M893.09,-392.19C815.36,-383.69 714.12,-370.87 625.23,-354 619.95,-353 614.49,-351.85 609.03,-350.63"/>
<polygon fill="midnightblue" stroke="midnightblue" points="893.09,-395.71 903.41,-393.31 893.85,-388.75 893.09,-395.71"/>
</g>
<!-- Node10 -->
<g id="node10" class="node">
<title>Node10</title>
<g id="a_node10"><a xlink:href="CoolDownBoost_8hpp.html" target="_top" xlink:title=" ">
<polygon fill="white" stroke="black" points="318.73,-156.5 318.73,-197.5 479.73,-197.5 479.73,-156.5 318.73,-156.5"/>
<text text-anchor="start" x="326.73" y="-185.5" font-family="Helvetica,sans-Serif" font-size="10.00">Libs/Engine/sources</text>
<text text-anchor="start" x="326.73" y="-174.5" font-family="Helvetica,sans-Serif" font-size="10.00">/Components/CoolDownBoost</text>
<text text-anchor="middle" x="399.23" y="-163.5" font-family="Helvetica,sans-Serif" font-size="10.00">/CoolDownBoost.hpp</text>
</a>
</g>
</g>
<!-- Node1&#45;&gt;Node10 -->
<g id="edge38" class="edge">
<title>Node1&#45;&gt;Node10</title>
<path fill="none" stroke="midnightblue" d="M893.4,-399.2C743.18,-391.92 508.94,-377.05 475.23,-354 421.93,-317.55 405.77,-235.27 401.07,-197.56"/>
<polygon fill="midnightblue" stroke="midnightblue" points="893.46,-402.7 903.62,-399.69 893.8,-395.71 893.46,-402.7"/>
</g>
<!-- Node11 -->
<g id="node11" class="node">
<title>Node11</title>
<g id="a_node11"><a xlink:href="RangeBoost_8hpp.html" target="_top" xlink:title=" ">
<polygon fill="white" stroke="black" points="771.73,-234.5 771.73,-275.5 914.73,-275.5 914.73,-234.5 771.73,-234.5"/>
<text text-anchor="start" x="779.73" y="-263.5" font-family="Helvetica,sans-Serif" font-size="10.00">Libs/Engine/sources</text>
<text text-anchor="start" x="779.73" y="-252.5" font-family="Helvetica,sans-Serif" font-size="10.00">/Components/RangeBoost</text>
<text text-anchor="middle" x="843.23" y="-241.5" font-family="Helvetica,sans-Serif" font-size="10.00">/RangeBoost.hpp</text>
</a>
</g>
</g>
<!-- Node1&#45;&gt;Node11 -->
<g id="edge49" class="edge">
<title>Node1&#45;&gt;Node11</title>
<path fill="none" stroke="midnightblue" d="M987.24,-385.24C972.94,-376.37 956.28,-365.3 942.23,-354 911.51,-329.29 879.78,-296.32 860.77,-275.62"/>
<polygon fill="midnightblue" stroke="midnightblue" points="985.44,-388.24 995.8,-390.47 989.09,-382.27 985.44,-388.24"/>
</g>
<!-- Node12 -->
<g id="node12" class="node">
<title>Node12</title>
<g id="a_node12"><a xlink:href="EntityFactory_8hpp.html" target="_top" xlink:title=" ">
<polygon fill="white" stroke="black" points="822.23,-162 822.23,-192 992.23,-192 992.23,-162 822.23,-162"/>
<text text-anchor="start" x="830.23" y="-180" font-family="Helvetica,sans-Serif" font-size="10.00">Libs/Engine/sources</text>
<text text-anchor="middle" x="907.23" y="-169" font-family="Helvetica,sans-Serif" font-size="10.00">/EntityFactory/EntityFactory.hpp</text>
</a>
</g>
</g>
<!-- Node1&#45;&gt;Node12 -->
<g id="edge51" class="edge">
<title>Node1&#45;&gt;Node12</title>
<path fill="none" stroke="midnightblue" d="M1008.64,-381.27C985.29,-334.48 933.24,-230.13 914.3,-192.16"/>
<polygon fill="midnightblue" stroke="midnightblue" points="1005.56,-382.95 1013.16,-390.33 1011.83,-379.82 1005.56,-382.95"/>
</g>
<!-- Node14 -->
<g id="node14" class="node">
<title>Node14</title>
<g id="a_node14"><a xlink:href="Explosion_8cpp.html" target="_top" xlink:title=" ">
<polygon fill="white" stroke="black" points="1352.73,-78.5 1352.73,-119.5 1483.73,-119.5 1483.73,-78.5 1352.73,-78.5"/>
<text text-anchor="start" x="1360.73" y="-107.5" font-family="Helvetica,sans-Serif" font-size="10.00">Libs/Engine/sources</text>
<text text-anchor="start" x="1360.73" y="-96.5" font-family="Helvetica,sans-Serif" font-size="10.00">/Components/Explosion</text>
<text text-anchor="middle" x="1418.23" y="-85.5" font-family="Helvetica,sans-Serif" font-size="10.00">/Explosion.cpp</text>
</a>
</g>
</g>
<!-- Node1&#45;&gt;Node14 -->
<g id="edge39" class="edge">
<title>Node1&#45;&gt;Node14</title>
<path fill="none" stroke="midnightblue" d="M1013.9,-380.41C1002.47,-330.85 984.76,-217.01 1044.23,-156 1090.17,-108.87 1273.51,-132 1338.23,-120 1342.87,-119.14 1347.65,-118.17 1352.45,-117.13"/>
<polygon fill="midnightblue" stroke="midnightblue" points="1010.52,-381.34 1016.28,-390.23 1017.32,-379.69 1010.52,-381.34"/>
</g>
<!-- Node16 -->
<g id="node16" class="node">
<title>Node16</title>
<g id="a_node16"><a xlink:href="Scenes_8hpp.html" target="_top" xlink:title=" ">
<polygon fill="white" stroke="black" points="1501.73,-84 1501.73,-114 1614.73,-114 1614.73,-84 1501.73,-84"/>
<text text-anchor="start" x="1509.73" y="-102" font-family="Helvetica,sans-Serif" font-size="10.00">Libs/Engine/sources</text>
<text text-anchor="middle" x="1558.23" y="-91" font-family="Helvetica,sans-Serif" font-size="10.00">/Scenes/Scenes.hpp</text>
</a>
</g>
</g>
<!-- Node1&#45;&gt;Node16 -->
<g id="edge53" class="edge">
<title>Node1&#45;&gt;Node16</title>
<path fill="none" stroke="midnightblue" d="M1029.77,-381.17C1039.19,-360.62 1055.35,-331.06 1077.23,-312 1148.09,-250.24 1416.37,-150.6 1518.46,-114.04"/>
<polygon fill="midnightblue" stroke="midnightblue" points="1026.51,-379.89 1025.69,-390.45 1032.92,-382.7 1026.51,-379.89"/>
</g>
<!-- Node18 -->
<g id="node18" class="node">
<title>Node18</title>
<g id="a_node18"><a xlink:href="ButtonCallbacks_8cpp.html" target="_top" xlink:title=" ">
<polygon fill="white" stroke="black" points="752.23,-0.5 752.23,-41.5 916.23,-41.5 916.23,-0.5 752.23,-0.5"/>
<text text-anchor="start" x="760.23" y="-29.5" font-family="Helvetica,sans-Serif" font-size="10.00">Libs/Engine/sources</text>
<text text-anchor="start" x="760.23" y="-18.5" font-family="Helvetica,sans-Serif" font-size="10.00">/Components/ButtonCallbacks</text>
<text text-anchor="middle" x="834.23" y="-7.5" font-family="Helvetica,sans-Serif" font-size="10.00">/ButtonCallbacks.cpp</text>
</a>
</g>
</g>
<!-- Node1&#45;&gt;Node18 -->
<g id="edge36" class="edge">
<title>Node1&#45;&gt;Node18</title>
<path fill="none" stroke="midnightblue" d="M970.09,-386.95C946.11,-378 917.25,-366.39 892.23,-354 832.19,-324.27 812.29,-321.63 763.23,-276 715.37,-231.49 725.47,-201.16 678.23,-156 656.84,-135.55 636.41,-145.97 622.23,-120 613.28,-103.62 610.84,-92.79 622.23,-78 638.37,-57.04 699.49,-42.33 751.98,-33.26"/>
<polygon fill="midnightblue" stroke="midnightblue" points="969.1,-390.32 979.7,-390.49 971.53,-383.75 969.1,-390.32"/>
</g>
<!-- Node24 -->
<g id="node24" class="node">
<title>Node24</title>
<g id="a_node24"><a xlink:href="SpeedBoost_8hpp.html" target="_top" xlink:title=" ">
<polygon fill="white" stroke="black" points="221.23,-234.5 221.23,-275.5 363.23,-275.5 363.23,-234.5 221.23,-234.5"/>
<text text-anchor="start" x="229.23" y="-263.5" font-family="Helvetica,sans-Serif" font-size="10.00">Libs/Engine/sources</text>
<text text-anchor="start" x="229.23" y="-252.5" font-family="Helvetica,sans-Serif" font-size="10.00">/Components/SpeedBoost</text>
<text text-anchor="middle" x="292.23" y="-241.5" font-family="Helvetica,sans-Serif" font-size="10.00">/SpeedBoost.hpp</text>
</a>
</g>
</g>
<!-- Node1&#45;&gt;Node24 -->
<g id="edge50" class="edge">
<title>Node1&#45;&gt;Node24</title>
<path fill="none" stroke="midnightblue" d="M893.35,-404.41C736.16,-402.56 478.54,-393.35 392.23,-354 354.41,-336.76 322.5,-298.82 305.47,-275.53"/>
<polygon fill="midnightblue" stroke="midnightblue" points="893.51,-407.91 903.55,-404.52 893.59,-400.91 893.51,-407.91"/>
</g>
<!-- Node25 -->
<g id="node25" class="node">
<title>Node25</title>
<g id="a_node25"><a xlink:href="Camera_8cpp.html" target="_top" xlink:title=" ">
<polygon fill="white" stroke="black" points="1086.23,-318 1086.23,-348 1270.23,-348 1270.23,-318 1086.23,-318"/>
<text text-anchor="start" x="1094.23" y="-336" font-family="Helvetica,sans-Serif" font-size="10.00">Libs/Engine/sources</text>
<text text-anchor="middle" x="1178.23" y="-325" font-family="Helvetica,sans-Serif" font-size="10.00">/Components/Camera/Camera.cpp</text>
</a>
</g>
</g>
<!-- Node1&#45;&gt;Node25 -->
<g id="edge37" class="edge">
<title>Node1&#45;&gt;Node25</title>
<path fill="none" stroke="midnightblue" d="M1061.27,-386.19C1087.93,-374.29 1122.16,-359.02 1146.69,-348.07"/>
<polygon fill="midnightblue" stroke="midnightblue" points="1059.53,-383.13 1051.82,-390.4 1062.38,-389.52 1059.53,-383.13"/>
</g>
<!-- Node26 -->
<g id="node26" class="node">
<title>Node26</title>
<g id="a_node26"><a xlink:href="GameConfigurator_8hpp.html" target="_top" xlink:title=" ">
<polygon fill="white" stroke="black" points="1288.73,-312.5 1288.73,-353.5 1461.73,-353.5 1461.73,-312.5 1288.73,-312.5"/>
<text text-anchor="start" x="1296.73" y="-341.5" font-family="Helvetica,sans-Serif" font-size="10.00">Libs/Engine/sources</text>
<text text-anchor="start" x="1296.73" y="-330.5" font-family="Helvetica,sans-Serif" font-size="10.00">/Components/GameConfigurator</text>
<text text-anchor="middle" x="1375.23" y="-319.5" font-family="Helvetica,sans-Serif" font-size="10.00">/GameConfigurator.hpp</text>
</a>
</g>
</g>
<!-- Node1&#45;&gt;Node26 -->
<g id="edge40" class="edge">
<title>Node1&#45;&gt;Node26</title>
<path fill="none" stroke="midnightblue" d="M1103.35,-388.57C1154.18,-378.77 1220.5,-365.84 1279.23,-354 1282.32,-353.38 1285.46,-352.74 1288.63,-352.09"/>
<polygon fill="midnightblue" stroke="midnightblue" points="1102.56,-385.16 1093.4,-390.49 1103.88,-392.04 1102.56,-385.16"/>
</g>
<!-- Node29 -->
<g id="node29" class="node">
<title>Node29</title>
<g id="a_node29"><a xlink:href="GameConfiguration_8cpp.html" target="_top" xlink:title=" ">
<polygon fill="white" stroke="black" points="1480.23,-318 1480.23,-348 1712.23,-348 1712.23,-318 1480.23,-318"/>
<text text-anchor="start" x="1488.23" y="-336" font-family="Helvetica,sans-Serif" font-size="10.00">Libs/Engine/sources</text>
<text text-anchor="middle" x="1596.23" y="-325" font-family="Helvetica,sans-Serif" font-size="10.00">/GameConfiguration/GameConfiguration.cpp</text>
</a>
</g>
</g>
<!-- Node1&#45;&gt;Node29 -->
<g id="edge52" class="edge">
<title>Node1&#45;&gt;Node29</title>
<path fill="none" stroke="midnightblue" d="M1146.78,-391.94C1237.29,-382.57 1361.93,-368.85 1471.23,-354 1484.4,-352.21 1498.33,-350.15 1511.93,-348.04"/>
<polygon fill="midnightblue" stroke="midnightblue" points="1146.34,-388.47 1136.75,-392.98 1147.06,-395.43 1146.34,-388.47"/>
</g>
<!-- Node30 -->
<g id="node30" class="node">
<title>Node30</title>
<g id="a_node30"><a xlink:href="BehaviourSystem_8cpp.html" target="_top" xlink:title=" ">
<polygon fill="white" stroke="black" points="1730.73,-312.5 1730.73,-353.5 1881.73,-353.5 1881.73,-312.5 1730.73,-312.5"/>
<text text-anchor="start" x="1738.73" y="-341.5" font-family="Helvetica,sans-Serif" font-size="10.00">Libs/Engine/sources</text>
<text text-anchor="start" x="1738.73" y="-330.5" font-family="Helvetica,sans-Serif" font-size="10.00">/Systems/BehaviourSystem</text>
<text text-anchor="middle" x="1806.23" y="-319.5" font-family="Helvetica,sans-Serif" font-size="10.00">/BehaviourSystem.cpp</text>
</a>
</g>
</g>
<!-- Node1&#45;&gt;Node30 -->
<g id="edge54" class="edge">
<title>Node1&#45;&gt;Node30</title>
<path fill="none" stroke="midnightblue" d="M1147.24,-401.42C1288.19,-396.6 1522.07,-384.41 1721.23,-354 1724.23,-353.54 1727.27,-353.03 1730.35,-352.49"/>
<polygon fill="midnightblue" stroke="midnightblue" points="1146.71,-397.94 1136.84,-401.77 1146.95,-404.93 1146.71,-397.94"/>
</g>
<!-- Node31 -->
<g id="node31" class="node">
<title>Node31</title>
<g id="a_node31"><a xlink:href="PhysicsSystem_8cpp.html" target="_top" xlink:title=" ">
<polygon fill="white" stroke="black" points="1900.23,-312.5 1900.23,-353.5 2038.23,-353.5 2038.23,-312.5 1900.23,-312.5"/>
<text text-anchor="start" x="1908.23" y="-341.5" font-family="Helvetica,sans-Serif" font-size="10.00">Libs/Engine/sources</text>
<text text-anchor="start" x="1908.23" y="-330.5" font-family="Helvetica,sans-Serif" font-size="10.00">/Systems/PhysicsSystem</text>
<text text-anchor="middle" x="1969.23" y="-319.5" font-family="Helvetica,sans-Serif" font-size="10.00">/PhysicsSystem.cpp</text>
</a>
</g>
</g>
<!-- Node1&#45;&gt;Node31 -->
<g id="edge55" class="edge">
<title>Node1&#45;&gt;Node31</title>
<path fill="none" stroke="midnightblue" d="M1146.87,-404.79C1317.11,-403.44 1628.74,-394.87 1891.23,-354 1894.13,-353.55 1897.08,-353.04 1900.05,-352.48"/>
<polygon fill="midnightblue" stroke="midnightblue" points="1146.84,-401.29 1136.86,-404.86 1146.89,-408.29 1146.84,-401.29"/>
</g>
<!-- Node32 -->
<g id="node32" class="node">
<title>Node32</title>
<g id="a_node32"><a xlink:href="UISystem_8hpp.html" target="_top" xlink:title=" ">
<polygon fill="white" stroke="black" points="1970.73,-84 1970.73,-114 2153.73,-114 2153.73,-84 1970.73,-84"/>
<text text-anchor="start" x="1978.73" y="-102" font-family="Helvetica,sans-Serif" font-size="10.00">Libs/Engine/sources</text>
<text text-anchor="middle" x="2062.23" y="-91" font-family="Helvetica,sans-Serif" font-size="10.00">/Systems/UISystem/UISystem.hpp</text>
</a>
</g>
</g>
<!-- Node1&#45;&gt;Node32 -->
<g id="edge56" class="edge">
<title>Node1&#45;&gt;Node32</title>
<path fill="none" stroke="midnightblue" d="M1147.34,-402.72C1415.19,-398.37 2015.74,-385.18 2047.23,-354 2113.77,-288.11 2080.39,-157.16 2066.95,-114.09"/>
<polygon fill="midnightblue" stroke="midnightblue" points="1147.11,-399.23 1137.17,-402.89 1147.22,-406.23 1147.11,-399.23"/>
</g>
<!-- Node3 -->
<g id="node3" class="node">
<title>Node3</title>
<g id="a_node3"><a xlink:href="AIAlgo_8cpp.html" target="_top" xlink:title=" ">
<polygon fill="white" stroke="black" points="64.23,-84 64.23,-114 234.23,-114 234.23,-84 64.23,-84"/>
<text text-anchor="start" x="72.23" y="-102" font-family="Helvetica,sans-Serif" font-size="10.00">Libs/Engine/sources</text>
<text text-anchor="middle" x="149.23" y="-91" font-family="Helvetica,sans-Serif" font-size="10.00">/Components/AIAlgo/AIAlgo.cpp</text>
</a>
</g>
</g>
<!-- Node2&#45;&gt;Node3 -->
<g id="edge2" class="edge">
<title>Node2&#45;&gt;Node3</title>
<path fill="none" stroke="midnightblue" d="M509.93,-159.93C502.95,-158.54 495.96,-157.21 489.23,-156 380.47,-136.49 351.99,-139.51 243.23,-120 233.21,-118.2 222.63,-116.13 212.32,-114.01"/>
<polygon fill="midnightblue" stroke="midnightblue" points="509.64,-163.44 520.14,-161.99 511.03,-156.58 509.64,-163.44"/>
</g>
<!-- Node4 -->
<g id="node4" class="node">
<title>Node4</title>
<g id="a_node4"><a xlink:href="CoolDownBoost_8cpp.html" target="_top" xlink:title=" ">
<polygon fill="white" stroke="black" points="412.73,-78.5 412.73,-119.5 573.73,-119.5 573.73,-78.5 412.73,-78.5"/>
<text text-anchor="start" x="420.73" y="-107.5" font-family="Helvetica,sans-Serif" font-size="10.00">Libs/Engine/sources</text>
<text text-anchor="start" x="420.73" y="-96.5" font-family="Helvetica,sans-Serif" font-size="10.00">/Components/CoolDownBoost</text>
<text text-anchor="middle" x="493.23" y="-85.5" font-family="Helvetica,sans-Serif" font-size="10.00">/CoolDownBoost.cpp</text>
</a>
</g>
</g>
<!-- Node2&#45;&gt;Node4 -->
<g id="edge3" class="edge">
<title>Node2&#45;&gt;Node4</title>
<path fill="none" stroke="midnightblue" d="M558.57,-155.18C545.46,-144.11 529.43,-130.57 516.53,-119.68"/>
<polygon fill="midnightblue" stroke="midnightblue" points="556.4,-157.93 566.3,-161.7 560.92,-152.58 556.4,-157.93"/>
</g>
<!-- Node5 -->
<g id="node5" class="node">
<title>Node5</title>
<g id="a_node5"><a xlink:href="RangeBoost_8cpp.html" target="_top" xlink:title=" ">
<polygon fill="white" stroke="black" points="630.73,-78.5 630.73,-119.5 773.73,-119.5 773.73,-78.5 630.73,-78.5"/>
<text text-anchor="start" x="638.73" y="-107.5" font-family="Helvetica,sans-Serif" font-size="10.00">Libs/Engine/sources</text>
<text text-anchor="start" x="638.73" y="-96.5" font-family="Helvetica,sans-Serif" font-size="10.00">/Components/RangeBoost</text>
<text text-anchor="middle" x="702.23" y="-85.5" font-family="Helvetica,sans-Serif" font-size="10.00">/RangeBoost.cpp</text>
</a>
</g>
</g>
<!-- Node2&#45;&gt;Node5 -->
<g id="edge4" class="edge">
<title>Node2&#45;&gt;Node5</title>
<path fill="none" stroke="midnightblue" d="M614.09,-156.29C631.68,-145.06 653.66,-131.02 671.27,-119.77"/>
<polygon fill="midnightblue" stroke="midnightblue" points="611.88,-153.55 605.33,-161.88 615.65,-159.45 611.88,-153.55"/>
</g>
<!-- Node6 -->
<g id="node6" class="node">
<title>Node6</title>
<g id="a_node6"><a xlink:href="SpeedBoost_8cpp.html" target="_top" xlink:title=" ">
<polygon fill="white" stroke="black" points="252.23,-78.5 252.23,-119.5 394.23,-119.5 394.23,-78.5 252.23,-78.5"/>
<text text-anchor="start" x="260.23" y="-107.5" font-family="Helvetica,sans-Serif" font-size="10.00">Libs/Engine/sources</text>
<text text-anchor="start" x="260.23" y="-96.5" font-family="Helvetica,sans-Serif" font-size="10.00">/Components/SpeedBoost</text>
<text text-anchor="middle" x="323.23" y="-85.5" font-family="Helvetica,sans-Serif" font-size="10.00">/SpeedBoost.cpp</text>
</a>
</g>
</g>
<!-- Node2&#45;&gt;Node6 -->
<g id="edge5" class="edge">
<title>Node2&#45;&gt;Node6</title>
<path fill="none" stroke="midnightblue" d="M525.61,-159.16C485.54,-147.44 431.99,-131.79 390.04,-119.53"/>
<polygon fill="midnightblue" stroke="midnightblue" points="524.66,-162.53 535.24,-161.97 526.62,-155.81 524.66,-162.53"/>
</g>
<!-- Node7 -->
<g id="node7" class="node">
<title>Node7</title>
<g id="a_node7"><a xlink:href="EntityFactory_8cpp.html" target="_top" xlink:title=" ">
<polygon fill="white" stroke="black" points="141.73,-6 141.73,-36 310.73,-36 310.73,-6 141.73,-6"/>
<text text-anchor="start" x="149.73" y="-24" font-family="Helvetica,sans-Serif" font-size="10.00">Libs/Engine/sources</text>
<text text-anchor="middle" x="226.23" y="-13" font-family="Helvetica,sans-Serif" font-size="10.00">/EntityFactory/EntityFactory.cpp</text>
</a>
</g>
</g>
<!-- Node2&#45;&gt;Node7 -->
<g id="edge6" class="edge">
<title>Node2&#45;&gt;Node7</title>
<path fill="none" stroke="midnightblue" d="M512.78,-160C504.86,-158.5 496.89,-157.13 489.23,-156 441.36,-148.95 88,-155.6 55.23,-120 42.59,-106.27 44.28,-93.11 55.23,-78 75.21,-50.43 109.18,-36.18 141.6,-28.92"/>
<polygon fill="midnightblue" stroke="midnightblue" points="512.27,-163.47 522.76,-161.95 513.61,-156.6 512.27,-163.47"/>
</g>
<!-- Node9 -->
<g id="node9" class="node">
<title>Node9</title>
<g id="a_node9"><a xlink:href="APickUp_8cpp.html" target="_top" xlink:title=" ">
<polygon fill="white" stroke="black" points="483.73,-234.5 483.73,-275.5 608.73,-275.5 608.73,-234.5 483.73,-234.5"/>
<text text-anchor="start" x="491.73" y="-263.5" font-family="Helvetica,sans-Serif" font-size="10.00">Libs/Engine/sources</text>
<text text-anchor="start" x="491.73" y="-252.5" font-family="Helvetica,sans-Serif" font-size="10.00">/Components/APickUp</text>
<text text-anchor="middle" x="546.23" y="-241.5" font-family="Helvetica,sans-Serif" font-size="10.00">/APickUp.cpp</text>
</a>
</g>
</g>
<!-- Node8&#45;&gt;Node9 -->
<g id="edge8" class="edge">
<title>Node8&#45;&gt;Node9</title>
<path fill="none" stroke="midnightblue" d="M546.23,-302.3C546.23,-293.3 546.23,-283.65 546.23,-275.51"/>
<polygon fill="midnightblue" stroke="midnightblue" points="542.73,-302.43 546.23,-312.43 549.73,-302.43 542.73,-302.43"/>
</g>
<!-- Node8&#45;&gt;Node10 -->
<g id="edge9" class="edge">
<title>Node8&#45;&gt;Node10</title>
<path fill="none" stroke="midnightblue" d="M510.04,-306.19C498.42,-297.2 485.82,-286.67 475.23,-276 450.52,-251.08 426.46,-218.17 412.25,-197.54"/>
<polygon fill="midnightblue" stroke="midnightblue" points="508.21,-309.19 518.29,-312.45 512.44,-303.62 508.21,-309.19"/>
</g>
<!-- Node8&#45;&gt;Node11 -->
<g id="edge12" class="edge">
<title>Node8&#45;&gt;Node11</title>
<path fill="none" stroke="midnightblue" d="M618.56,-313.49C665.05,-301.6 725.2,-286.2 771.56,-274.34"/>
<polygon fill="midnightblue" stroke="midnightblue" points="617.67,-310.11 608.85,-315.98 619.41,-316.89 617.67,-310.11"/>
</g>
<!-- Node8&#45;&gt;Node24 -->
<g id="edge33" class="edge">
<title>Node8&#45;&gt;Node24</title>
<path fill="none" stroke="midnightblue" d="M473.84,-310.34C437.32,-299.41 393.36,-286.26 357.84,-275.63"/>
<polygon fill="midnightblue" stroke="midnightblue" points="472.86,-313.7 483.44,-313.21 474.87,-306.99 472.86,-313.7"/>
</g>
<!-- Node10&#45;&gt;Node4 -->
<g id="edge10" class="edge">
<title>Node10&#45;&gt;Node4</title>
<path fill="none" stroke="midnightblue" d="M431.31,-150.06C443.68,-140.06 457.6,-128.8 469.1,-119.51"/>
<polygon fill="midnightblue" stroke="midnightblue" points="429.01,-147.42 423.44,-156.43 433.41,-152.86 429.01,-147.42"/>
</g>
<!-- Node10&#45;&gt;Node7 -->
<g id="edge11" class="edge">
<title>Node10&#45;&gt;Node7</title>
<path fill="none" stroke="midnightblue" d="M308.62,-175.61C209.08,-173.02 58.47,-162.03 22.23,-120 -18.31,-72.99 68.9,-46.68 141.61,-33.42"/>
<polygon fill="midnightblue" stroke="midnightblue" points="308.61,-179.11 318.69,-175.84 308.77,-172.11 308.61,-179.11"/>
</g>
<!-- Node11&#45;&gt;Node5 -->
<g id="edge13" class="edge">
<title>Node11&#45;&gt;Node5</title>
<path fill="none" stroke="midnightblue" d="M818.28,-226.75C790.21,-196.1 745.31,-147.05 720.39,-119.83"/>
<polygon fill="midnightblue" stroke="midnightblue" points="816.04,-229.48 825.37,-234.5 821.2,-224.76 816.04,-229.48"/>
</g>
<!-- Node11&#45;&gt;Node12 -->
<g id="edge14" class="edge">
<title>Node11&#45;&gt;Node12</title>
<path fill="none" stroke="midnightblue" d="M866.26,-226.65C876.07,-215 887.11,-201.9 895.25,-192.23"/>
<polygon fill="midnightblue" stroke="midnightblue" points="863.48,-224.52 859.71,-234.43 868.83,-229.03 863.48,-224.52"/>
</g>
<!-- Node12&#45;&gt;Node4 -->
<g id="edge16" class="edge">
<title>Node12&#45;&gt;Node4</title>
<path fill="none" stroke="midnightblue" d="M820.76,-160.13C748.02,-146.77 644.82,-127.83 573.79,-114.79"/>
<polygon fill="midnightblue" stroke="midnightblue" points="820.35,-163.61 830.81,-161.97 821.61,-156.72 820.35,-163.61"/>
</g>
<!-- Node12&#45;&gt;Node5 -->
<g id="edge18" class="edge">
<title>Node12&#45;&gt;Node5</title>
<path fill="none" stroke="midnightblue" d="M859.37,-158.26C828.15,-146.68 787.37,-131.56 755.17,-119.63"/>
<polygon fill="midnightblue" stroke="midnightblue" points="858.56,-161.69 869.15,-161.88 860.99,-155.13 858.56,-161.69"/>
</g>
<!-- Node12&#45;&gt;Node6 -->
<g id="edge19" class="edge">
<title>Node12&#45;&gt;Node6</title>
<path fill="none" stroke="midnightblue" d="M811.76,-166.94C688.07,-154.93 479.29,-133.67 403.23,-120 400.41,-119.49 397.55,-118.94 394.66,-118.36"/>
<polygon fill="midnightblue" stroke="midnightblue" points="811.69,-170.45 821.98,-167.93 812.36,-163.48 811.69,-170.45"/>
</g>
<!-- Node12&#45;&gt;Node7 -->
<g id="edge20" class="edge">
<title>Node12&#45;&gt;Node7</title>
<path fill="none" stroke="midnightblue" d="M873.2,-156.65C856.79,-146.64 837.24,-133.66 821.23,-120 802.08,-103.66 805.7,-89.35 783.23,-78 702.66,-37.3 445.77,-26.18 310.84,-23.14"/>
<polygon fill="midnightblue" stroke="midnightblue" points="871.57,-159.76 881.95,-161.9 875.17,-153.75 871.57,-159.76"/>
</g>
<!-- Node13 -->
<g id="node13" class="node">
<title>Node13</title>
<g id="a_node13"><a xlink:href="Box_8cpp.html" target="_top" xlink:title=" ">
<polygon fill="white" stroke="black" points="1002.73,-84 1002.73,-114 1147.73,-114 1147.73,-84 1002.73,-84"/>
<text text-anchor="start" x="1010.73" y="-102" font-family="Helvetica,sans-Serif" font-size="10.00">Libs/Engine/sources</text>
<text text-anchor="middle" x="1075.23" y="-91" font-family="Helvetica,sans-Serif" font-size="10.00">/Components/Box/Box.cpp</text>
</a>
</g>
</g>
<!-- Node12&#45;&gt;Node13 -->
<g id="edge15" class="edge">
<title>Node12&#45;&gt;Node13</title>
<path fill="none" stroke="midnightblue" d="M947.68,-157.7C977.34,-144.28 1017.01,-126.34 1044.19,-114.04"/>
<polygon fill="midnightblue" stroke="midnightblue" points="946.1,-154.57 938.44,-161.88 948.99,-160.95 946.1,-154.57"/>
</g>
<!-- Node12&#45;&gt;Node14 -->
<g id="edge17" class="edge">
<title>Node12&#45;&gt;Node14</title>
<path fill="none" stroke="midnightblue" d="M982.16,-160.11C990.26,-158.62 998.41,-157.21 1006.23,-156 1152.9,-133.28 1192.11,-146.06 1338.23,-120 1342.88,-119.17 1347.66,-118.22 1352.46,-117.2"/>
<polygon fill="midnightblue" stroke="midnightblue" points="981.49,-156.68 972.31,-161.97 982.79,-163.56 981.49,-156.68"/>
</g>
<!-- Node15 -->
<g id="node15" class="node">
<title>Node15</title>
<g id="a_node15"><a xlink:href="Scenes_8cpp.html" target="_top" xlink:title=" ">
<polygon fill="white" stroke="black" points="1353.73,-6 1353.73,-36 1466.73,-36 1466.73,-6 1353.73,-6"/>
<text text-anchor="start" x="1361.73" y="-24" font-family="Helvetica,sans-Serif" font-size="10.00">Libs/Engine/sources</text>
<text text-anchor="middle" x="1410.23" y="-13" font-family="Helvetica,sans-Serif" font-size="10.00">/Scenes/Scenes.cpp</text>
</a>
</g>
</g>
<!-- Node12&#45;&gt;Node15 -->
<g id="edge21" class="edge">
<title>Node12&#45;&gt;Node15</title>
<path fill="none" stroke="midnightblue" d="M982.82,-160.09C990.71,-158.62 998.62,-157.22 1006.23,-156 1138.38,-134.73 1185.96,-180.75 1305.23,-120 1327.93,-108.44 1325.82,-95.6 1344.23,-78 1359.87,-63.05 1378.8,-47.2 1392.37,-36.19"/>
<polygon fill="midnightblue" stroke="midnightblue" points="982.03,-156.67 972.86,-161.98 983.34,-163.55 982.03,-156.67"/>
</g>
<!-- Node12&#45;&gt;Node16 -->
<g id="edge22" class="edge">
<title>Node12&#45;&gt;Node16</title>
<path fill="none" stroke="midnightblue" d="M1002.4,-161.29C1016.41,-159.37 1030.68,-157.53 1044.23,-156 1243.16,-133.53 1296.61,-157.66 1493.23,-120 1501.11,-118.49 1509.4,-116.37 1517.31,-114.07"/>
<polygon fill="midnightblue" stroke="midnightblue" points="1001.68,-157.86 992.26,-162.71 1002.65,-164.79 1001.68,-157.86"/>
</g>
<!-- Node21 -->
<g id="node21" class="node">
<title>Node21</title>
<g id="a_node21"><a xlink:href="PauseSystem_8hpp.html" target="_top" xlink:title=" ">
<polygon fill="white" stroke="black" points="1166.23,-78.5 1166.23,-119.5 1296.23,-119.5 1296.23,-78.5 1166.23,-78.5"/>
<text text-anchor="start" x="1174.23" y="-107.5" font-family="Helvetica,sans-Serif" font-size="10.00">Libs/Engine/sources</text>
<text text-anchor="start" x="1174.23" y="-96.5" font-family="Helvetica,sans-Serif" font-size="10.00">/Systems/PauseSystem</text>
<text text-anchor="middle" x="1231.23" y="-85.5" font-family="Helvetica,sans-Serif" font-size="10.00">/PauseSystem.hpp</text>
</a>
</g>
</g>
<!-- Node12&#45;&gt;Node21 -->
<g id="edge29" class="edge">
<title>Node12&#45;&gt;Node21</title>
<path fill="none" stroke="midnightblue" d="M983.49,-159.82C1033.11,-149.07 1099.16,-134.34 1157.23,-120 1160.07,-119.3 1162.97,-118.57 1165.9,-117.82"/>
<polygon fill="midnightblue" stroke="midnightblue" points="982.51,-156.45 973.47,-161.99 983.99,-163.29 982.51,-156.45"/>
</g>
<!-- Node23 -->
<g id="node23" class="node">
<title>Node23</title>
<g id="a_node23"><a xlink:href="Prototype_2sources_2Drawable_2main_8cpp.html" target="_top" xlink:title=" ">
<polygon fill="white" stroke="black" points="830.23,-84 830.23,-114 984.23,-114 984.23,-84 830.23,-84"/>
<text text-anchor="start" x="838.23" y="-102" font-family="Helvetica,sans-Serif" font-size="10.00">Prototype/sources/Drawable</text>
<text text-anchor="middle" x="907.23" y="-91" font-family="Helvetica,sans-Serif" font-size="10.00">/main.cpp</text>
</a>
</g>
</g>
<!-- Node12&#45;&gt;Node23 -->
<g id="edge32" class="edge">
<title>Node12&#45;&gt;Node23</title>
<path fill="none" stroke="midnightblue" d="M907.23,-151.59C907.23,-139.26 907.23,-124.72 907.23,-114.23"/>
<polygon fill="midnightblue" stroke="midnightblue" points="903.73,-151.7 907.23,-161.7 910.73,-151.71 903.73,-151.7"/>
</g>
<!-- Node16&#45;&gt;Node7 -->
<g id="edge26" class="edge">
<title>Node16&#45;&gt;Node7</title>
<path fill="none" stroke="midnightblue" d="M1508.38,-81.27C1503.31,-79.99 1498.19,-78.86 1493.23,-78 1464.08,-72.96 590.23,-36.89 311.07,-25.46"/>
<polygon fill="midnightblue" stroke="midnightblue" points="1507.48,-84.65 1518.05,-83.9 1509.32,-77.9 1507.48,-84.65"/>
</g>
<!-- Node16&#45;&gt;Node15 -->
<g id="edge27" class="edge">
<title>Node16&#45;&gt;Node15</title>
<path fill="none" stroke="midnightblue" d="M1521.57,-79.17C1495.56,-65.82 1461.2,-48.18 1437.57,-36.04"/>
<polygon fill="midnightblue" stroke="midnightblue" points="1520.24,-82.43 1530.74,-83.88 1523.44,-76.2 1520.24,-82.43"/>
</g>
<!-- Node17 -->
<g id="node17" class="node">
<title>Node17</title>
<g id="a_node17"><a xlink:href="Bomberman_2sources_2main_8cpp.html" target="_top" xlink:title=" ">
<polygon fill="white" stroke="black" points="1484.73,-11.5 1484.73,-30.5 1649.73,-30.5 1649.73,-11.5 1484.73,-11.5"/>
<text text-anchor="middle" x="1567.23" y="-18.5" font-family="Helvetica,sans-Serif" font-size="10.00">Bomberman/sources/main.cpp</text>
</a>
</g>
</g>
<!-- Node16&#45;&gt;Node17 -->
<g id="edge23" class="edge">
<title>Node16&#45;&gt;Node17</title>
<path fill="none" stroke="midnightblue" d="M1561.11,-73.67C1562.86,-58.9 1564.99,-40.95 1566.22,-30.56"/>
<polygon fill="midnightblue" stroke="midnightblue" points="1557.62,-73.36 1559.92,-83.7 1564.57,-74.19 1557.62,-73.36"/>
</g>
<!-- Node16&#45;&gt;Node18 -->
<g id="edge24" class="edge">
<title>Node16&#45;&gt;Node18</title>
<path fill="none" stroke="midnightblue" d="M1507.53,-81.27C1502.73,-80.03 1497.91,-78.91 1493.23,-78 1384.88,-56.98 1067.61,-35.95 916.32,-26.78"/>
<polygon fill="midnightblue" stroke="midnightblue" points="1506.73,-84.68 1517.3,-83.96 1508.59,-77.93 1506.73,-84.68"/>
</g>
<!-- Node19 -->
<g id="node19" class="node">
<title>Node19</title>
<g id="a_node19"><a xlink:href="GameConfigurator_8cpp.html" target="_top" xlink:title=" ">
<polygon fill="white" stroke="black" points="1667.73,-0.5 1667.73,-41.5 1840.73,-41.5 1840.73,-0.5 1667.73,-0.5"/>
<text text-anchor="start" x="1675.73" y="-29.5" font-family="Helvetica,sans-Serif" font-size="10.00">Libs/Engine/sources</text>
<text text-anchor="start" x="1675.73" y="-18.5" font-family="Helvetica,sans-Serif" font-size="10.00">/Components/GameConfigurator</text>
<text text-anchor="middle" x="1754.23" y="-7.5" font-family="Helvetica,sans-Serif" font-size="10.00">/GameConfigurator.cpp</text>
</a>
</g>
</g>
<!-- Node16&#45;&gt;Node19 -->
<g id="edge25" class="edge">
<title>Node16&#45;&gt;Node19</title>
<path fill="none" stroke="midnightblue" d="M1603.99,-80.26C1633.84,-68.68 1672.83,-53.56 1703.61,-41.63"/>
<polygon fill="midnightblue" stroke="midnightblue" points="1602.69,-77 1594.64,-83.88 1605.23,-83.53 1602.69,-77"/>
</g>
<!-- Node20 -->
<g id="node20" class="node">
<title>Node20</title>
<g id="a_node20"><a xlink:href="Prototype_2sources_2Behaviour_2main_8cpp.html" target="_top" xlink:title=" ">
<polygon fill="white" stroke="black" points="1858.73,-6 1858.73,-36 2015.73,-36 2015.73,-6 1858.73,-6"/>
<text text-anchor="start" x="1866.73" y="-24" font-family="Helvetica,sans-Serif" font-size="10.00">Prototype/sources/Behaviour</text>
<text text-anchor="middle" x="1937.23" y="-13" font-family="Helvetica,sans-Serif" font-size="10.00">/main.cpp</text>
</a>
</g>
</g>
<!-- Node16&#45;&gt;Node20 -->
<g id="edge28" class="edge">
<title>Node16&#45;&gt;Node20</title>
<path fill="none" stroke="midnightblue" d="M1624.86,-85.94C1684.13,-75.04 1773.12,-58.25 1850.23,-42 1859.03,-40.15 1868.3,-38.11 1877.39,-36.06"/>
<polygon fill="midnightblue" stroke="midnightblue" points="1624.08,-82.52 1614.88,-87.77 1625.34,-89.41 1624.08,-82.52"/>
</g>
<!-- Node21&#45;&gt;Node17 -->
<g id="edge30" class="edge">
<title>Node21&#45;&gt;Node17</title>
<path fill="none" stroke="midnightblue" d="M1306.39,-81C1375.62,-65.34 1475.51,-42.75 1529.37,-30.56"/>
<polygon fill="midnightblue" stroke="midnightblue" points="1305.39,-77.64 1296.41,-83.26 1306.94,-84.46 1305.39,-77.64"/>
</g>
<!-- Node22 -->
<g id="node22" class="node">
<title>Node22</title>
<g id="a_node22"><a xlink:href="PauseSystem_8cpp.html" target="_top" xlink:title=" ">
<polygon fill="white" stroke="black" points="1166.23,-0.5 1166.23,-41.5 1296.23,-41.5 1296.23,-0.5 1166.23,-0.5"/>
<text text-anchor="start" x="1174.23" y="-29.5" font-family="Helvetica,sans-Serif" font-size="10.00">Libs/Engine/sources</text>
<text text-anchor="start" x="1174.23" y="-18.5" font-family="Helvetica,sans-Serif" font-size="10.00">/Systems/PauseSystem</text>
<text text-anchor="middle" x="1231.23" y="-7.5" font-family="Helvetica,sans-Serif" font-size="10.00">/PauseSystem.cpp</text>
</a>
</g>
</g>
<!-- Node21&#45;&gt;Node22 -->
<g id="edge31" class="edge">
<title>Node21&#45;&gt;Node22</title>
<path fill="none" stroke="midnightblue" d="M1231.23,-68.3C1231.23,-59.3 1231.23,-49.65 1231.23,-41.51"/>
<polygon fill="midnightblue" stroke="midnightblue" points="1227.73,-68.43 1231.23,-78.43 1234.73,-68.43 1227.73,-68.43"/>
</g>
<!-- Node24&#45;&gt;Node6 -->
<g id="edge34" class="edge">
<title>Node24&#45;&gt;Node6</title>
<path fill="none" stroke="midnightblue" d="M296.8,-224.3C299.94,-204.81 304.41,-178.81 309.23,-156 311.8,-143.84 315.17,-130.32 317.95,-119.61"/>
<polygon fill="midnightblue" stroke="midnightblue" points="293.31,-223.97 295.2,-234.4 300.22,-225.07 293.31,-223.97"/>
</g>
<!-- Node24&#45;&gt;Node7 -->
<g id="edge35" class="edge">
<title>Node24&#45;&gt;Node7</title>
<path fill="none" stroke="midnightblue" d="M210.97,-240.11C143.76,-223.87 52.44,-189.75 8.23,-120 -27.21,-64.1 66.14,-39.81 141.55,-29.45"/>
<polygon fill="midnightblue" stroke="midnightblue" points="210.58,-243.61 221.12,-242.47 212.17,-236.79 210.58,-243.61"/>
</g>
<!-- Node26&#45;&gt;Node15 -->
<g id="edge43" class="edge">
<title>Node26&#45;&gt;Node15</title>
<path fill="none" stroke="midnightblue" d="M1424.17,-307.51C1484.22,-274.36 1583.13,-208.98 1624.23,-120 1632.06,-103.05 1635.76,-92.68 1624.23,-78 1582.4,-24.77 1541.54,-59.82 1476.23,-42 1469.53,-40.17 1462.48,-38.15 1455.58,-36.1"/>
<polygon fill="midnightblue" stroke="midnightblue" points="1422.36,-304.51 1415.24,-312.35 1425.7,-310.66 1422.36,-304.51"/>
</g>
<!-- Node26&#45;&gt;Node17 -->
<g id="edge41" class="edge">
<title>Node26&#45;&gt;Node17</title>
<path fill="none" stroke="midnightblue" d="M1471.76,-312.19C1559.94,-301.7 1746.47,-317.28 1805.23,-276 1836.78,-253.83 1834.56,-235.58 1843.23,-198 1847.42,-179.81 1853.14,-171.82 1843.23,-156 1814.4,-109.95 1656.25,-52.2 1593.2,-30.64"/>
<polygon fill="midnightblue" stroke="midnightblue" points="1471.2,-308.74 1461.76,-313.56 1472.15,-315.67 1471.2,-308.74"/>
</g>
<!-- Node26&#45;&gt;Node19 -->
<g id="edge42" class="edge">
<title>Node26&#45;&gt;Node19</title>
<path fill="none" stroke="midnightblue" d="M1471.68,-312.22C1566.62,-301.53 1773.4,-325.16 1834.23,-276 1876.6,-241.76 1877,-207.5 1859.23,-156 1842.93,-108.78 1802.39,-65.51 1776.72,-41.55"/>
<polygon fill="midnightblue" stroke="midnightblue" points="1471.22,-308.75 1461.76,-313.53 1472.13,-315.69 1471.22,-308.75"/>
</g>
<!-- Node26&#45;&gt;Node20 -->
<g id="edge48" class="edge">
<title>Node26&#45;&gt;Node20</title>
<path fill="none" stroke="midnightblue" d="M1471.77,-312.21C1573.36,-301.13 1797.97,-329.8 1863.23,-276 1938.54,-213.91 1939.81,-79.89 1938.07,-36.13"/>
<polygon fill="midnightblue" stroke="midnightblue" points="1471.23,-308.75 1461.76,-313.5 1472.12,-315.7 1471.23,-308.75"/>
</g>
<!-- Node27 -->
<g id="node27" class="node">
<title>Node27</title>
<g id="a_node27"><a xlink:href="AIMapsGenerator_8hpp.html" target="_top" xlink:title=" ">
<polygon fill="white" stroke="black" points="1646.73,-234.5 1646.73,-275.5 1795.73,-275.5 1795.73,-234.5 1646.73,-234.5"/>
<text text-anchor="start" x="1654.73" y="-263.5" font-family="Helvetica,sans-Serif" font-size="10.00">Libs/Engine/sources</text>
<text text-anchor="start" x="1654.73" y="-252.5" font-family="Helvetica,sans-Serif" font-size="10.00">/Systems/AIMapsGenerator</text>
<text text-anchor="middle" x="1721.23" y="-241.5" font-family="Helvetica,sans-Serif" font-size="10.00">/AIMapsGenerator.hpp</text>
</a>
</g>
</g>
<!-- Node26&#45;&gt;Node27 -->
<g id="edge44" class="edge">
<title>Node26&#45;&gt;Node27</title>
<path fill="none" stroke="midnightblue" d="M1471.72,-311.29C1520.21,-300.82 1579.86,-287.86 1633.23,-276 1637.51,-275.05 1641.91,-274.07 1646.35,-273.07"/>
<polygon fill="midnightblue" stroke="midnightblue" points="1470.9,-307.89 1461.86,-313.42 1472.38,-314.73 1470.9,-307.89"/>
</g>
<!-- Node27&#45;&gt;Node2 -->
<g id="edge45" class="edge">
<title>Node27&#45;&gt;Node2</title>
<path fill="none" stroke="midnightblue" d="M1636.14,-249.47C1475.31,-240.74 1115.69,-220.47 813.23,-198 765.46,-194.45 712.18,-189.86 668.93,-185.97"/>
<polygon fill="midnightblue" stroke="midnightblue" points="1636.27,-252.98 1646.44,-250.03 1636.65,-245.99 1636.27,-252.98"/>
</g>
<!-- Node27&#45;&gt;Node15 -->
<g id="edge46" class="edge">
<title>Node27&#45;&gt;Node15</title>
<path fill="none" stroke="midnightblue" d="M1694.6,-226.68C1687.6,-218.1 1680.75,-208.2 1676.23,-198 1654.36,-148.63 1694.65,-116.93 1657.23,-78 1600.38,-18.87 1555.79,-61.92 1476.23,-42 1469.14,-40.23 1461.69,-38.16 1454.44,-36.05"/>
<polygon fill="midnightblue" stroke="midnightblue" points="1692.12,-229.16 1701.29,-234.46 1697.43,-224.59 1692.12,-229.16"/>
</g>
<!-- Node28 -->
<g id="node28" class="node">
<title>Node28</title>
<g id="a_node28"><a xlink:href="AIMapsGenerator_8cpp.html" target="_top" xlink:title=" ">
<polygon fill="white" stroke="black" points="1684.73,-156.5 1684.73,-197.5 1833.73,-197.5 1833.73,-156.5 1684.73,-156.5"/>
<text text-anchor="start" x="1692.73" y="-185.5" font-family="Helvetica,sans-Serif" font-size="10.00">Libs/Engine/sources</text>
<text text-anchor="start" x="1692.73" y="-174.5" font-family="Helvetica,sans-Serif" font-size="10.00">/Systems/AIMapsGenerator</text>
<text text-anchor="middle" x="1759.23" y="-163.5" font-family="Helvetica,sans-Serif" font-size="10.00">/AIMapsGenerator.cpp</text>
</a>
</g>
</g>
<!-- Node27&#45;&gt;Node28 -->
<g id="edge47" class="edge">
<title>Node27&#45;&gt;Node28</title>
<path fill="none" stroke="midnightblue" d="M1735.5,-225.47C1740.16,-216.14 1745.23,-206.01 1749.48,-197.51"/>
<polygon fill="midnightblue" stroke="midnightblue" points="1732.36,-223.92 1731.02,-234.43 1738.62,-227.05 1732.36,-223.92"/>
</g>
<!-- Node32&#45;&gt;Node7 -->
<g id="edge58" class="edge">
<title>Node32&#45;&gt;Node7</title>
<path fill="none" stroke="midnightblue" d="M1960.31,-93.18C1871.54,-89.03 1739.38,-82.94 1624.23,-78 1126.43,-56.66 528.81,-33.57 310.94,-25.23"/>
<polygon fill="midnightblue" stroke="midnightblue" points="1960.22,-96.68 1970.37,-93.66 1960.55,-89.69 1960.22,-96.68"/>
</g>
<!-- Node32&#45;&gt;Node17 -->
<g id="edge57" class="edge">
<title>Node32&#45;&gt;Node17</title>
<path fill="none" stroke="midnightblue" d="M1960.41,-86.02C1878.73,-75.89 1761.27,-60.15 1659.23,-42 1640.72,-38.71 1620.28,-34.34 1603.37,-30.52"/>
<polygon fill="midnightblue" stroke="midnightblue" points="1960.33,-89.54 1970.69,-87.29 1961.19,-82.59 1960.33,-89.54"/>
</g>
<!-- Node32&#45;&gt;Node20 -->
<g id="edge60" class="edge">
<title>Node32&#45;&gt;Node20</title>
<path fill="none" stroke="midnightblue" d="M2030.39,-78.64C2008.53,-65.35 1980.02,-48.02 1960.32,-36.04"/>
<polygon fill="midnightblue" stroke="midnightblue" points="2028.65,-81.68 2039.01,-83.88 2032.28,-75.7 2028.65,-81.68"/>
</g>
<!-- Node33 -->
<g id="node33" class="node">
<title>Node33</title>
<g id="a_node33"><a xlink:href="UISystem_8cpp.html" target="_top" xlink:title=" ">
<polygon fill="white" stroke="black" points="2034.23,-6 2034.23,-36 2216.23,-36 2216.23,-6 2034.23,-6"/>
<text text-anchor="start" x="2042.23" y="-24" font-family="Helvetica,sans-Serif" font-size="10.00">Libs/Engine/sources</text>
<text text-anchor="middle" x="2125.23" y="-13" font-family="Helvetica,sans-Serif" font-size="10.00">/Systems/UISystem/UISystem.cpp</text>
</a>
</g>
</g>
<!-- Node32&#45;&gt;Node33 -->
<g id="edge59" class="edge">
<title>Node32&#45;&gt;Node33</title>
<path fill="none" stroke="midnightblue" d="M2080.63,-75.81C2091.22,-63.03 2104.21,-47.36 2113.43,-36.23"/>
<polygon fill="midnightblue" stroke="midnightblue" points="2077.77,-73.77 2074.08,-83.7 2083.16,-78.24 2077.77,-73.77"/>
</g>
<!-- Node34 -->
<g id="node34" class="node">
<title>Node34</title>
<g id="a_node34"><a xlink:href="Prototype_2sources_2Shaders_2main_8cpp.html" target="_top" xlink:title=" ">
<polygon fill="white" stroke="black" points="2234.23,-6 2234.23,-36 2380.23,-36 2380.23,-6 2234.23,-6"/>
<text text-anchor="start" x="2242.23" y="-24" font-family="Helvetica,sans-Serif" font-size="10.00">Prototype/sources/Shaders</text>
<text text-anchor="middle" x="2307.23" y="-13" font-family="Helvetica,sans-Serif" font-size="10.00">/main.cpp</text>
</a>
</g>
</g>
<!-- Node32&#45;&gt;Node34 -->
<g id="edge61" class="edge">
<title>Node32&#45;&gt;Node34</title>
<path fill="none" stroke="midnightblue" d="M2117.04,-81C2160.65,-67.47 2220.93,-48.77 2261.86,-36.07"/>
<polygon fill="midnightblue" stroke="midnightblue" points="2115.97,-77.67 2107.45,-83.97 2118.04,-84.35 2115.97,-77.67"/>
</g>
</g>
</svg>
