<?xml version="1.0" encoding="UTF-8" standalone="no"?>
<!DOCTYPE svg PUBLIC "-//W3C//DTD SVG 1.1//EN"
 "http://www.w3.org/Graphics/SVG/1.1/DTD/svg11.dtd">
<!-- Generated by graphviz version 2.43.0 (0)
 -->
<!-- Title: Libs/Engine/sources/GameConfiguration/GameConfiguration.cpp Pages: 1 -->
<svg width="1540pt" height="554pt"
 viewBox="0.00 0.00 1540.41 554.00" xmlns="http://www.w3.org/2000/svg" xmlns:xlink="http://www.w3.org/1999/xlink">
<g id="graph0" class="graph" transform="scale(1 1) rotate(0) translate(4 550)">
<title>Libs/Engine/sources/GameConfiguration/GameConfiguration.cpp</title>
<polygon fill="white" stroke="transparent" points="-4,4 -4,-550 1536.41,-550 1536.41,4 -4,4"/>
<!-- Node1 -->
<g id="node1" class="node">
<title>Node1</title>
<g id="a_node1"><a xlink:title=" ">
<polygon fill="#bfbfbf" stroke="black" points="708.41,-515.5 708.41,-545.5 940.41,-545.5 940.41,-515.5 708.41,-515.5"/>
<text text-anchor="start" x="716.41" y="-533.5" font-family="Helvetica,sans-Serif" font-size="10.00">Libs/Engine/sources</text>
<text text-anchor="middle" x="824.41" y="-522.5" font-family="Helvetica,sans-Serif" font-size="10.00">/GameConfiguration/GameConfiguration.cpp</text>
</a>
</g>
</g>
<!-- Node2 -->
<g id="node2" class="node">
<title>Node2</title>
<g id="a_node2"><a xlink:href="GameConfiguration_8hpp.html" target="_top" xlink:title=" ">
<polygon fill="white" stroke="black" points="226.41,-291.5 226.41,-310.5 358.41,-310.5 358.41,-291.5 226.41,-291.5"/>
<text text-anchor="middle" x="292.41" y="-298.5" font-family="Helvetica,sans-Serif" font-size="10.00">GameConfiguration.hpp</text>
</a>
</g>
</g>
<!-- Node1&#45;&gt;Node2 -->
<g id="edge1" class="edge">
<title>Node1&#45;&gt;Node2</title>
<path fill="none" stroke="midnightblue" d="M707.93,-525.75C610.39,-517.4 471.61,-492.88 372.41,-423 334.97,-396.62 310.36,-346.66 299.24,-319.93"/>
<polygon fill="midnightblue" stroke="midnightblue" points="302.48,-318.62 295.52,-310.63 295.98,-321.21 302.48,-318.62"/>
</g>
<!-- Node10 -->
<g id="node10" class="node">
<title>Node10</title>
<g id="a_node10"><a xlink:title=" ">
<polygon fill="white" stroke="#bfbfbf" points="1138.41,-6 1138.41,-25 1198.41,-25 1198.41,-6 1138.41,-6"/>
<text text-anchor="middle" x="1168.41" y="-13" font-family="Helvetica,sans-Serif" font-size="10.00">iostream</text>
</a>
</g>
</g>
<!-- Node1&#45;&gt;Node10 -->
<g id="edge27" class="edge">
<title>Node1&#45;&gt;Node10</title>
<path fill="none" stroke="midnightblue" d="M940.53,-522.28C1141.39,-508.22 1532.41,-473.24 1532.41,-414 1532.41,-414 1532.41,-414 1532.41,-132 1532.41,-64.66 1303.23,-31.47 1208.57,-20.63"/>
<polygon fill="midnightblue" stroke="midnightblue" points="1208.84,-17.14 1198.51,-19.5 1208.06,-24.09 1208.84,-17.14"/>
</g>
<!-- Node21 -->
<g id="node21" class="node">
<title>Node21</title>
<g id="a_node21"><a xlink:href="Coordinator_8hpp.html" target="_top" xlink:title=" ">
<polygon fill="white" stroke="black" points="1025.41,-459.5 1025.41,-478.5 1119.41,-478.5 1119.41,-459.5 1025.41,-459.5"/>
<text text-anchor="middle" x="1072.41" y="-466.5" font-family="Helvetica,sans-Serif" font-size="10.00">Coordinator.hpp</text>
</a>
</g>
</g>
<!-- Node1&#45;&gt;Node21 -->
<g id="edge28" class="edge">
<title>Node1&#45;&gt;Node21</title>
<path fill="none" stroke="midnightblue" d="M882.87,-515.47C926.96,-504.9 986.57,-490.59 1027.09,-480.87"/>
<polygon fill="midnightblue" stroke="midnightblue" points="1028.05,-484.24 1036.96,-478.51 1026.42,-477.44 1028.05,-484.24"/>
</g>
<!-- Node31 -->
<g id="node31" class="node">
<title>Node31</title>
<g id="a_node31"><a xlink:href="IComponent_8hpp.html" target="_top" xlink:title=" ">
<polygon fill="white" stroke="black" points="673.91,-179.5 673.91,-198.5 770.91,-198.5 770.91,-179.5 673.91,-179.5"/>
<text text-anchor="middle" x="722.41" y="-186.5" font-family="Helvetica,sans-Serif" font-size="10.00">IComponent.hpp</text>
</a>
</g>
</g>
<!-- Node1&#45;&gt;Node31 -->
<g id="edge67" class="edge">
<title>Node1&#45;&gt;Node31</title>
<path fill="none" stroke="midnightblue" d="M733.22,-515.5C676.55,-501.02 614.41,-471.94 614.41,-414 614.41,-414 614.41,-414 614.41,-356 614.41,-291.57 672.28,-232.52 703.3,-205.5"/>
<polygon fill="midnightblue" stroke="midnightblue" points="705.9,-207.88 711.26,-198.75 701.37,-202.54 705.9,-207.88"/>
</g>
<!-- Node3 -->
<g id="node3" class="node">
<title>Node3</title>
<g id="a_node3"><a xlink:href="Input_8hpp.html" target="_top" xlink:title=" ">
<polygon fill="white" stroke="black" points="16.41,-235.5 16.41,-254.5 78.41,-254.5 78.41,-235.5 16.41,-235.5"/>
<text text-anchor="middle" x="47.41" y="-242.5" font-family="Helvetica,sans-Serif" font-size="10.00">Input.hpp</text>
</a>
</g>
</g>
<!-- Node2&#45;&gt;Node3 -->
<g id="edge2" class="edge">
<title>Node2&#45;&gt;Node3</title>
<path fill="none" stroke="midnightblue" d="M253.1,-291.43C213.92,-282.88 151.75,-269.28 88.57,-255.25"/>
<polygon fill="midnightblue" stroke="midnightblue" points="88.94,-251.75 78.42,-252.99 87.42,-258.58 88.94,-251.75"/>
</g>
<!-- Node4 -->
<g id="node4" class="node">
<title>Node4</title>
<g id="a_node4"><a xlink:href="Vector2_8hpp.html" target="_top" xlink:title=" ">
<polygon fill="white" stroke="black" points="111.41,-179.5 111.41,-198.5 185.41,-198.5 185.41,-179.5 111.41,-179.5"/>
<text text-anchor="middle" x="148.41" y="-186.5" font-family="Helvetica,sans-Serif" font-size="10.00">Vector2.hpp</text>
</a>
</g>
</g>
<!-- Node2&#45;&gt;Node4 -->
<g id="edge20" class="edge">
<title>Node2&#45;&gt;Node4</title>
<path fill="none" stroke="midnightblue" d="M226.23,-299.11C150.99,-296.54 34.99,-287.27 7.41,-255 -22.3,-220.23 49.33,-202.99 101,-195.33"/>
<polygon fill="midnightblue" stroke="midnightblue" points="101.62,-198.77 111.04,-193.92 100.65,-191.84 101.62,-198.77"/>
</g>
<!-- Node14 -->
<g id="node14" class="node">
<title>Node14</title>
<g id="a_node14"><a xlink:title=" ">
<polygon fill="white" stroke="#bfbfbf" points="824.91,-179.5 824.91,-198.5 915.91,-198.5 915.91,-179.5 824.91,-179.5"/>
<text text-anchor="middle" x="870.41" y="-186.5" font-family="Helvetica,sans-Serif" font-size="10.00">Exceptions.hpp</text>
</a>
</g>
</g>
<!-- Node2&#45;&gt;Node14 -->
<g id="edge16" class="edge">
<title>Node2&#45;&gt;Node14</title>
<path fill="none" stroke="midnightblue" d="M337.29,-291.46C441.95,-271.54 701.94,-222.06 815.68,-200.42"/>
<polygon fill="midnightblue" stroke="midnightblue" points="816.4,-203.84 825.57,-198.53 815.09,-196.97 816.4,-203.84"/>
</g>
<!-- Node15 -->
<g id="node15" class="node">
<title>Node15</title>
<g id="a_node15"><a xlink:href="EngineExceptions_8hpp.html" target="_top" xlink:title=" ">
<polygon fill="white" stroke="black" points="96.41,-235.5 96.41,-254.5 220.41,-254.5 220.41,-235.5 96.41,-235.5"/>
<text text-anchor="middle" x="158.41" y="-242.5" font-family="Helvetica,sans-Serif" font-size="10.00">EngineExceptions.hpp</text>
</a>
</g>
</g>
<!-- Node2&#45;&gt;Node15 -->
<g id="edge17" class="edge">
<title>Node2&#45;&gt;Node15</title>
<path fill="none" stroke="midnightblue" d="M271.18,-291.44C249.03,-282.52 214.09,-268.44 188.98,-258.32"/>
<polygon fill="midnightblue" stroke="midnightblue" points="190.13,-255.01 179.55,-254.52 187.51,-261.5 190.13,-255.01"/>
</g>
<!-- Node18 -->
<g id="node18" class="node">
<title>Node18</title>
<g id="a_node18"><a xlink:href="TerrainGenerator_8hpp.html" target="_top" xlink:title=" ">
<polygon fill="white" stroke="black" points="238.91,-235.5 238.91,-254.5 357.91,-254.5 357.91,-235.5 238.91,-235.5"/>
<text text-anchor="middle" x="298.41" y="-242.5" font-family="Helvetica,sans-Serif" font-size="10.00">TerrainGenerator.hpp</text>
</a>
</g>
</g>
<!-- Node2&#45;&gt;Node18 -->
<g id="edge21" class="edge">
<title>Node2&#45;&gt;Node18</title>
<path fill="none" stroke="midnightblue" d="M293.4,-291.08C294.2,-283.93 295.34,-273.64 296.34,-264.69"/>
<polygon fill="midnightblue" stroke="midnightblue" points="299.82,-265.08 297.44,-254.75 292.86,-264.3 299.82,-265.08"/>
</g>
<!-- Node19 -->
<g id="node19" class="node">
<title>Node19</title>
<g id="a_node19"><a xlink:title=" ">
<polygon fill="white" stroke="#bfbfbf" points="596.91,-179.5 596.91,-198.5 643.91,-198.5 643.91,-179.5 596.91,-179.5"/>
<text text-anchor="middle" x="620.41" y="-186.5" font-family="Helvetica,sans-Serif" font-size="10.00">vector</text>
</a>
</g>
</g>
<!-- Node2&#45;&gt;Node19 -->
<g id="edge25" class="edge">
<title>Node2&#45;&gt;Node19</title>
<path fill="none" stroke="midnightblue" d="M317.88,-291.46C376.46,-271.81 520.78,-223.41 586.65,-201.32"/>
<polygon fill="midnightblue" stroke="midnightblue" points="588.16,-204.51 596.52,-198.01 585.93,-197.87 588.16,-204.51"/>
</g>
<!-- Node20 -->
<g id="node20" class="node">
<title>Node20</title>
<g id="a_node20"><a xlink:title=" ">
<polygon fill="white" stroke="#bfbfbf" points="481.41,-179.5 481.41,-198.5 519.41,-198.5 519.41,-179.5 481.41,-179.5"/>
<text text-anchor="middle" x="500.41" y="-186.5" font-family="Helvetica,sans-Serif" font-size="10.00">map</text>
</a>
</g>
</g>
<!-- Node2&#45;&gt;Node20 -->
<g id="edge26" class="edge">
<title>Node2&#45;&gt;Node20</title>
<path fill="none" stroke="midnightblue" d="M308.73,-291.37C344.88,-272.25 431.91,-226.23 475.15,-203.36"/>
<polygon fill="midnightblue" stroke="midnightblue" points="476.96,-206.36 484.17,-198.59 473.69,-200.17 476.96,-206.36"/>
</g>
<!-- Node3&#45;&gt;Node4 -->
<g id="edge3" class="edge">
<title>Node3&#45;&gt;Node4</title>
<path fill="none" stroke="midnightblue" d="M63.64,-235.32C79.76,-226.7 104.71,-213.36 123.38,-203.39"/>
<polygon fill="midnightblue" stroke="midnightblue" points="125.06,-206.46 132.23,-198.65 121.76,-200.28 125.06,-206.46"/>
</g>
<!-- Node5 -->
<g id="node5" class="node">
<title>Node5</title>
<g id="a_node5"><a xlink:title=" ">
<polygon fill="white" stroke="#bfbfbf" points="102.91,-67.5 102.91,-86.5 155.91,-86.5 155.91,-67.5 102.91,-67.5"/>
<text text-anchor="middle" x="129.41" y="-74.5" font-family="Helvetica,sans-Serif" font-size="10.00">raylib.h</text>
</a>
</g>
</g>
<!-- Node4&#45;&gt;Node5 -->
<g id="edge4" class="edge">
<title>Node4&#45;&gt;Node5</title>
<path fill="none" stroke="midnightblue" d="M146.92,-179.37C143.86,-161.62 136.78,-120.67 132.63,-96.6"/>
<polygon fill="midnightblue" stroke="midnightblue" points="136.05,-95.85 130.9,-86.59 129.15,-97.04 136.05,-95.85"/>
</g>
<!-- Node6 -->
<g id="node6" class="node">
<title>Node6</title>
<g id="a_node6"><a xlink:title=" ">
<polygon fill="white" stroke="#bfbfbf" points="173.91,-67.5 173.91,-86.5 220.91,-86.5 220.91,-67.5 173.91,-67.5"/>
<text text-anchor="middle" x="197.41" y="-74.5" font-family="Helvetica,sans-Serif" font-size="10.00">cmath</text>
</a>
</g>
</g>
<!-- Node4&#45;&gt;Node6 -->
<g id="edge5" class="edge">
<title>Node4&#45;&gt;Node6</title>
<path fill="none" stroke="midnightblue" d="M152.26,-179.37C160.24,-161.46 178.74,-119.92 189.42,-95.95"/>
<polygon fill="midnightblue" stroke="midnightblue" points="192.71,-97.15 193.59,-86.59 186.32,-94.3 192.71,-97.15"/>
</g>
<!-- Node7 -->
<g id="node7" class="node">
<title>Node7</title>
<g id="a_node7"><a xlink:href="Vector3_8hpp.html" target="_top" xlink:title=" ">
<polygon fill="white" stroke="black" points="195.41,-123.5 195.41,-142.5 269.41,-142.5 269.41,-123.5 195.41,-123.5"/>
<text text-anchor="middle" x="232.41" y="-130.5" font-family="Helvetica,sans-Serif" font-size="10.00">Vector3.hpp</text>
</a>
</g>
</g>
<!-- Node4&#45;&gt;Node7 -->
<g id="edge6" class="edge">
<title>Node4&#45;&gt;Node7</title>
<path fill="none" stroke="midnightblue" d="M161.91,-179.32C175.01,-170.9 195.13,-157.97 210.52,-148.07"/>
<polygon fill="midnightblue" stroke="midnightblue" points="212.43,-151.01 218.95,-142.65 208.65,-145.12 212.43,-151.01"/>
</g>
<!-- Node8 -->
<g id="node8" class="node">
<title>Node8</title>
<g id="a_node8"><a xlink:href="IXMLSerializable_8hpp.html" target="_top" xlink:title=" ">
<polygon fill="white" stroke="black" points="559.91,-67.5 559.91,-86.5 678.91,-86.5 678.91,-67.5 559.91,-67.5"/>
<text text-anchor="middle" x="619.41" y="-74.5" font-family="Helvetica,sans-Serif" font-size="10.00">IXMLSerializable.hpp</text>
</a>
</g>
</g>
<!-- Node4&#45;&gt;Node8 -->
<g id="edge15" class="edge">
<title>Node4&#45;&gt;Node8</title>
<path fill="none" stroke="midnightblue" d="M184.98,-179.46C269.75,-159.66 479.58,-110.66 573.12,-88.81"/>
<polygon fill="midnightblue" stroke="midnightblue" points="573.93,-92.22 582.87,-86.53 572.34,-85.4 573.93,-92.22"/>
</g>
<!-- Node7&#45;&gt;Node5 -->
<g id="edge7" class="edge">
<title>Node7&#45;&gt;Node5</title>
<path fill="none" stroke="midnightblue" d="M215.86,-123.32C199.42,-114.7 173.98,-101.36 154.95,-91.39"/>
<polygon fill="midnightblue" stroke="midnightblue" points="156.4,-88.2 145.92,-86.65 153.15,-94.4 156.4,-88.2"/>
</g>
<!-- Node7&#45;&gt;Node6 -->
<g id="edge13" class="edge">
<title>Node7&#45;&gt;Node6</title>
<path fill="none" stroke="midnightblue" d="M226.63,-123.08C221.74,-115.53 214.59,-104.49 208.58,-95.23"/>
<polygon fill="midnightblue" stroke="midnightblue" points="211.46,-93.24 203.09,-86.75 205.59,-97.05 211.46,-93.24"/>
</g>
<!-- Node7&#45;&gt;Node8 -->
<g id="edge8" class="edge">
<title>Node7&#45;&gt;Node8</title>
<path fill="none" stroke="midnightblue" d="M269.52,-126.82C333.99,-117.83 467.65,-99.18 549.83,-87.71"/>
<polygon fill="midnightblue" stroke="midnightblue" points="550.42,-91.16 559.84,-86.31 549.45,-84.23 550.42,-91.16"/>
</g>
<!-- Node13 -->
<g id="node13" class="node">
<title>Node13</title>
<g id="a_node13"><a xlink:title=" ">
<polygon fill="white" stroke="#bfbfbf" points="239.41,-67.5 239.41,-86.5 295.41,-86.5 295.41,-67.5 239.41,-67.5"/>
<text text-anchor="middle" x="267.41" y="-74.5" font-family="Helvetica,sans-Serif" font-size="10.00">sstream</text>
</a>
</g>
</g>
<!-- Node7&#45;&gt;Node13 -->
<g id="edge14" class="edge">
<title>Node7&#45;&gt;Node13</title>
<path fill="none" stroke="midnightblue" d="M238.19,-123.08C243.09,-115.53 250.24,-104.49 256.25,-95.23"/>
<polygon fill="midnightblue" stroke="midnightblue" points="259.24,-97.05 261.74,-86.75 253.37,-93.24 259.24,-97.05"/>
</g>
<!-- Node9 -->
<g id="node9" class="node">
<title>Node9</title>
<g id="a_node9"><a xlink:title=" ">
<polygon fill="white" stroke="#bfbfbf" points="693.91,-6 693.91,-25 750.91,-25 750.91,-6 693.91,-6"/>
<text text-anchor="middle" x="722.41" y="-13" font-family="Helvetica,sans-Serif" font-size="10.00">ostream</text>
</a>
</g>
</g>
<!-- Node8&#45;&gt;Node9 -->
<g id="edge9" class="edge">
<title>Node8&#45;&gt;Node9</title>
<path fill="none" stroke="midnightblue" d="M634.17,-67.48C651.07,-57.71 679,-41.58 698.9,-30.08"/>
<polygon fill="midnightblue" stroke="midnightblue" points="700.78,-33.04 707.68,-25.01 697.27,-26.98 700.78,-33.04"/>
</g>
<!-- Node8&#45;&gt;Node10 -->
<g id="edge10" class="edge">
<title>Node8&#45;&gt;Node10</title>
<path fill="none" stroke="midnightblue" d="M678.95,-69.55C791.46,-57.35 1032.56,-31.22 1128.16,-20.86"/>
<polygon fill="midnightblue" stroke="midnightblue" points="1128.72,-24.32 1138.29,-19.77 1127.97,-17.36 1128.72,-24.32"/>
</g>
<!-- Node11 -->
<g id="node11" class="node">
<title>Node11</title>
<g id="a_node11"><a xlink:title=" ">
<polygon fill="white" stroke="#bfbfbf" points="431.91,-0.5 431.91,-30.5 544.91,-30.5 544.91,-0.5 431.91,-0.5"/>
<text text-anchor="start" x="439.91" y="-18.5" font-family="Helvetica,sans-Serif" font-size="10.00">boost/property_tree</text>
<text text-anchor="middle" x="488.41" y="-7.5" font-family="Helvetica,sans-Serif" font-size="10.00">/ptree.hpp</text>
</a>
</g>
</g>
<!-- Node8&#45;&gt;Node11 -->
<g id="edge11" class="edge">
<title>Node8&#45;&gt;Node11</title>
<path fill="none" stroke="midnightblue" d="M600.64,-67.48C581.91,-58.96 552.52,-45.62 528.52,-34.72"/>
<polygon fill="midnightblue" stroke="midnightblue" points="529.84,-31.47 519.29,-30.52 526.94,-37.85 529.84,-31.47"/>
</g>
<!-- Node12 -->
<g id="node12" class="node">
<title>Node12</title>
<g id="a_node12"><a xlink:title=" ">
<polygon fill="white" stroke="#bfbfbf" points="562.91,-0.5 562.91,-30.5 675.91,-30.5 675.91,-0.5 562.91,-0.5"/>
<text text-anchor="start" x="570.91" y="-18.5" font-family="Helvetica,sans-Serif" font-size="10.00">boost/property_tree</text>
<text text-anchor="middle" x="619.41" y="-7.5" font-family="Helvetica,sans-Serif" font-size="10.00">/xml_parser.hpp</text>
</a>
</g>
</g>
<!-- Node8&#45;&gt;Node12 -->
<g id="edge12" class="edge">
<title>Node8&#45;&gt;Node12</title>
<path fill="none" stroke="midnightblue" d="M619.41,-67.48C619.41,-60.47 619.41,-50.19 619.41,-40.7"/>
<polygon fill="midnightblue" stroke="midnightblue" points="622.91,-40.52 619.41,-30.52 615.91,-40.52 622.91,-40.52"/>
</g>
<!-- Node16 -->
<g id="node16" class="node">
<title>Node16</title>
<g id="a_node16"><a xlink:title=" ">
<polygon fill="white" stroke="#bfbfbf" points="203.91,-179.5 203.91,-198.5 268.91,-198.5 268.91,-179.5 203.91,-179.5"/>
<text text-anchor="middle" x="236.41" y="-186.5" font-family="Helvetica,sans-Serif" font-size="10.00">exception</text>
</a>
</g>
</g>
<!-- Node15&#45;&gt;Node16 -->
<g id="edge18" class="edge">
<title>Node15&#45;&gt;Node16</title>
<path fill="none" stroke="midnightblue" d="M170.95,-235.32C183,-226.98 201.44,-214.21 215.68,-204.35"/>
<polygon fill="midnightblue" stroke="midnightblue" points="217.68,-207.22 223.91,-198.65 213.7,-201.47 217.68,-207.22"/>
</g>
<!-- Node17 -->
<g id="node17" class="node">
<title>Node17</title>
<g id="a_node17"><a xlink:title=" ">
<polygon fill="white" stroke="#bfbfbf" points="383.41,-179.5 383.41,-198.5 427.41,-198.5 427.41,-179.5 383.41,-179.5"/>
<text text-anchor="middle" x="405.41" y="-186.5" font-family="Helvetica,sans-Serif" font-size="10.00">string</text>
</a>
</g>
</g>
<!-- Node15&#45;&gt;Node17 -->
<g id="edge19" class="edge">
<title>Node15&#45;&gt;Node17</title>
<path fill="none" stroke="midnightblue" d="M197.55,-235.44C246.26,-224.79 328.52,-206.81 373.57,-196.96"/>
<polygon fill="midnightblue" stroke="midnightblue" points="374.36,-200.37 383.38,-194.82 372.87,-193.53 374.36,-200.37"/>
</g>
<!-- Node18&#45;&gt;Node4 -->
<g id="edge24" class="edge">
<title>Node18&#45;&gt;Node4</title>
<path fill="none" stroke="midnightblue" d="M274.65,-235.44C249.52,-226.4 209.7,-212.06 181.51,-201.92"/>
<polygon fill="midnightblue" stroke="midnightblue" points="182.66,-198.61 172.07,-198.52 180.29,-205.2 182.66,-198.61"/>
</g>
<!-- Node18&#45;&gt;Node17 -->
<g id="edge22" class="edge">
<title>Node18&#45;&gt;Node17</title>
<path fill="none" stroke="midnightblue" d="M315.6,-235.32C332.76,-226.66 359.36,-213.24 379.16,-203.25"/>
<polygon fill="midnightblue" stroke="midnightblue" points="380.91,-206.28 388.26,-198.65 377.76,-200.04 380.91,-206.28"/>
</g>
<!-- Node18&#45;&gt;Node19 -->
<g id="edge23" class="edge">
<title>Node18&#45;&gt;Node19</title>
<path fill="none" stroke="midnightblue" d="M349.44,-235.44C415.74,-224.32 529.72,-205.21 586.38,-195.71"/>
<polygon fill="midnightblue" stroke="midnightblue" points="587.31,-199.1 596.59,-194 586.15,-192.2 587.31,-199.1"/>
</g>
<!-- Node21&#45;&gt;Node17 -->
<g id="edge31" class="edge">
<title>Node21&#45;&gt;Node17</title>
<path fill="none" stroke="midnightblue" d="M1025.26,-465.43C870.27,-456.35 386.41,-422.83 386.41,-358 386.41,-358 386.41,-358 386.41,-300 386.41,-267.49 394.57,-230.35 400.2,-208.61"/>
<polygon fill="midnightblue" stroke="midnightblue" points="403.63,-209.32 402.85,-198.75 396.87,-207.5 403.63,-209.32"/>
</g>
<!-- Node21&#45;&gt;Node20 -->
<g id="edge32" class="edge">
<title>Node21&#45;&gt;Node20</title>
<path fill="none" stroke="midnightblue" d="M1037.44,-459.38C980.14,-444.59 863.43,-411.58 771.41,-367 670.61,-318.16 562.49,-238.07 519.56,-205"/>
<polygon fill="midnightblue" stroke="midnightblue" points="521.46,-202.05 511.41,-198.69 517.17,-207.58 521.46,-202.05"/>
</g>
<!-- Node22 -->
<g id="node22" class="node">
<title>Node22</title>
<g id="a_node22"><a xlink:title=" ">
<polygon fill="white" stroke="#bfbfbf" points="1454.41,-403.5 1454.41,-422.5 1504.41,-422.5 1504.41,-403.5 1454.41,-403.5"/>
<text text-anchor="middle" x="1479.41" y="-410.5" font-family="Helvetica,sans-Serif" font-size="10.00">chrono</text>
</a>
</g>
</g>
<!-- Node21&#45;&gt;Node22 -->
<g id="edge29" class="edge">
<title>Node21&#45;&gt;Node22</title>
<path fill="none" stroke="midnightblue" d="M1119.7,-463.82C1189.98,-457.25 1325.99,-443.14 1440.41,-423 1441.68,-422.78 1442.97,-422.54 1444.28,-422.29"/>
<polygon fill="midnightblue" stroke="midnightblue" points="1445.24,-425.66 1454.32,-420.2 1443.81,-418.81 1445.24,-425.66"/>
</g>
<!-- Node23 -->
<g id="node23" class="node">
<title>Node23</title>
<g id="a_node23"><a xlink:title=" ">
<polygon fill="white" stroke="#bfbfbf" points="1321.41,-179.5 1321.41,-198.5 1379.41,-198.5 1379.41,-179.5 1321.41,-179.5"/>
<text text-anchor="middle" x="1350.41" y="-186.5" font-family="Helvetica,sans-Serif" font-size="10.00">memory</text>
</a>
</g>
</g>
<!-- Node21&#45;&gt;Node23 -->
<g id="edge30" class="edge">
<title>Node21&#45;&gt;Node23</title>
<path fill="none" stroke="midnightblue" d="M1119.42,-463.35C1215.72,-452.52 1426.41,-421.55 1426.41,-358 1426.41,-358 1426.41,-358 1426.41,-300 1426.41,-260.28 1392.45,-224.5 1369.93,-205.15"/>
<polygon fill="midnightblue" stroke="midnightblue" points="1371.9,-202.24 1361.96,-198.57 1367.44,-207.63 1371.9,-202.24"/>
</g>
<!-- Node24 -->
<g id="node24" class="node">
<title>Node24</title>
<g id="a_node24"><a xlink:href="SystemManager_8hpp.html" target="_top" xlink:title=" ">
<polygon fill="white" stroke="black" points="1014.41,-403.5 1014.41,-422.5 1130.41,-422.5 1130.41,-403.5 1014.41,-403.5"/>
<text text-anchor="middle" x="1072.41" y="-410.5" font-family="Helvetica,sans-Serif" font-size="10.00">SystemManager.hpp</text>
</a>
</g>
</g>
<!-- Node21&#45;&gt;Node24 -->
<g id="edge33" class="edge">
<title>Node21&#45;&gt;Node24</title>
<path fill="none" stroke="midnightblue" d="M1072.41,-459.08C1072.41,-452.01 1072.41,-441.86 1072.41,-432.99"/>
<polygon fill="midnightblue" stroke="midnightblue" points="1075.91,-432.75 1072.41,-422.75 1068.91,-432.75 1075.91,-432.75"/>
</g>
<!-- Node32 -->
<g id="node32" class="node">
<title>Node32</title>
<g id="a_node32"><a xlink:href="EntityManager_8hpp.html" target="_top" xlink:title=" ">
<polygon fill="white" stroke="black" points="1214.41,-235.5 1214.41,-254.5 1322.41,-254.5 1322.41,-235.5 1214.41,-235.5"/>
<text text-anchor="middle" x="1268.41" y="-242.5" font-family="Helvetica,sans-Serif" font-size="10.00">EntityManager.hpp</text>
</a>
</g>
</g>
<!-- Node21&#45;&gt;Node32 -->
<g id="edge66" class="edge">
<title>Node21&#45;&gt;Node32</title>
<path fill="none" stroke="midnightblue" d="M1088.44,-459.39C1102.78,-451.21 1123.87,-437.96 1139.41,-423 1192.3,-372.1 1238.77,-297.33 1258.44,-263.62"/>
<polygon fill="midnightblue" stroke="midnightblue" points="1261.7,-264.96 1263.66,-254.55 1255.64,-261.47 1261.7,-264.96"/>
</g>
<!-- Node24&#45;&gt;Node14 -->
<g id="edge65" class="edge">
<title>Node24&#45;&gt;Node14</title>
<path fill="none" stroke="midnightblue" d="M1069.2,-403.15C1058.31,-374.47 1020.09,-283.1 958.41,-235 941.29,-221.64 919.59,-210.5 902.02,-202.64"/>
<polygon fill="midnightblue" stroke="midnightblue" points="903.31,-199.38 892.74,-198.62 900.53,-205.8 903.31,-199.38"/>
</g>
<!-- Node24&#45;&gt;Node17 -->
<g id="edge36" class="edge">
<title>Node24&#45;&gt;Node17</title>
<path fill="none" stroke="midnightblue" d="M1014.32,-407.84C952.99,-402.4 853.95,-390.64 771.41,-367 651.24,-332.58 624.54,-312.24 513.41,-255 482.57,-239.11 448.51,-217.97 427.04,-204.18"/>
<polygon fill="midnightblue" stroke="midnightblue" points="428.69,-201.08 418.39,-198.58 424.89,-206.95 428.69,-201.08"/>
</g>
<!-- Node24&#45;&gt;Node23 -->
<g id="edge34" class="edge">
<title>Node24&#45;&gt;Node23</title>
<path fill="none" stroke="midnightblue" d="M1110.86,-403.49C1174.26,-387.14 1298.95,-344.72 1351.41,-255 1359.59,-241.01 1358.28,-222.26 1355.55,-208.49"/>
<polygon fill="midnightblue" stroke="midnightblue" points="1358.94,-207.62 1353.21,-198.71 1352.13,-209.25 1358.94,-207.62"/>
</g>
<!-- Node25 -->
<g id="node25" class="node">
<title>Node25</title>
<g id="a_node25"><a xlink:title=" ">
<polygon fill="white" stroke="#bfbfbf" points="952.41,-179.5 952.41,-198.5 1016.41,-198.5 1016.41,-179.5 952.41,-179.5"/>
<text text-anchor="middle" x="984.41" y="-186.5" font-family="Helvetica,sans-Serif" font-size="10.00">algorithm</text>
</a>
</g>
</g>
<!-- Node24&#45;&gt;Node25 -->
<g id="edge35" class="edge">
<title>Node24&#45;&gt;Node25</title>
<path fill="none" stroke="midnightblue" d="M1073.51,-403.47C1076.56,-376.49 1082.73,-291.44 1048.41,-235 1040.18,-221.46 1026.16,-210.91 1013.33,-203.45"/>
<polygon fill="midnightblue" stroke="midnightblue" points="1014.76,-200.24 1004.3,-198.55 1011.43,-206.4 1014.76,-200.24"/>
</g>
<!-- Node26 -->
<g id="node26" class="node">
<title>Node26</title>
<g id="a_node26"><a xlink:title=" ">
<polygon fill="white" stroke="#bfbfbf" points="1034.91,-179.5 1034.91,-198.5 1127.91,-198.5 1127.91,-179.5 1034.91,-179.5"/>
<text text-anchor="middle" x="1081.41" y="-186.5" font-family="Helvetica,sans-Serif" font-size="10.00">unordered_map</text>
</a>
</g>
</g>
<!-- Node24&#45;&gt;Node26 -->
<g id="edge37" class="edge">
<title>Node24&#45;&gt;Node26</title>
<path fill="none" stroke="midnightblue" d="M1088.2,-403.47C1100.62,-395.77 1117.02,-383.18 1124.41,-367 1148.8,-313.64 1146.25,-289.45 1124.41,-235 1119.73,-223.33 1110.42,-212.97 1101.66,-205.14"/>
<polygon fill="midnightblue" stroke="midnightblue" points="1103.84,-202.4 1093.91,-198.7 1099.36,-207.78 1103.84,-202.4"/>
</g>
<!-- Node27 -->
<g id="node27" class="node">
<title>Node27</title>
<g id="a_node27"><a xlink:href="ASystem_8hpp.html" target="_top" xlink:title=" ">
<polygon fill="white" stroke="black" points="779.91,-347.5 779.91,-366.5 860.91,-366.5 860.91,-347.5 779.91,-347.5"/>
<text text-anchor="middle" x="820.41" y="-354.5" font-family="Helvetica,sans-Serif" font-size="10.00">ASystem.hpp</text>
</a>
</g>
</g>
<!-- Node24&#45;&gt;Node27 -->
<g id="edge38" class="edge">
<title>Node24&#45;&gt;Node27</title>
<path fill="none" stroke="midnightblue" d="M1032.48,-403.44C988.52,-394.02 917.79,-378.87 870.23,-368.68"/>
<polygon fill="midnightblue" stroke="midnightblue" points="870.67,-365.19 860.16,-366.52 869.2,-372.03 870.67,-365.19"/>
</g>
<!-- Node27&#45;&gt;Node17 -->
<g id="edge39" class="edge">
<title>Node27&#45;&gt;Node17</title>
<path fill="none" stroke="midnightblue" d="M798.98,-347.42C730.53,-320.05 517.05,-234.65 436.55,-202.45"/>
<polygon fill="midnightblue" stroke="midnightblue" points="437.56,-199.09 426.97,-198.62 434.96,-205.59 437.56,-199.09"/>
</g>
<!-- Node27&#45;&gt;Node19 -->
<g id="edge40" class="edge">
<title>Node27&#45;&gt;Node19</title>
<path fill="none" stroke="midnightblue" d="M809.94,-347.31C777.68,-320.53 679.49,-239.03 638.59,-205.09"/>
<polygon fill="midnightblue" stroke="midnightblue" points="640.71,-202.3 630.78,-198.61 636.24,-207.69 640.71,-202.3"/>
</g>
<!-- Node28 -->
<g id="node28" class="node">
<title>Node28</title>
<g id="a_node28"><a xlink:href="Entity_8hpp.html" target="_top" xlink:title=" ">
<polygon fill="white" stroke="black" points="932.91,-291.5 932.91,-310.5 997.91,-310.5 997.91,-291.5 932.91,-291.5"/>
<text text-anchor="middle" x="965.41" y="-298.5" font-family="Helvetica,sans-Serif" font-size="10.00">Entity.hpp</text>
</a>
</g>
</g>
<!-- Node27&#45;&gt;Node28 -->
<g id="edge41" class="edge">
<title>Node27&#45;&gt;Node28</title>
<path fill="none" stroke="midnightblue" d="M843.39,-347.44C867.57,-338.44 905.83,-324.19 933.06,-314.05"/>
<polygon fill="midnightblue" stroke="midnightblue" points="934.4,-317.29 942.55,-310.52 931.95,-310.73 934.4,-317.29"/>
</g>
<!-- Node28&#45;&gt;Node14 -->
<g id="edge47" class="edge">
<title>Node28&#45;&gt;Node14</title>
<path fill="none" stroke="midnightblue" d="M963.67,-291.13C960.66,-277.74 953.44,-252.11 939.41,-235 928.51,-221.7 912.63,-210.97 898.85,-203.32"/>
<polygon fill="midnightblue" stroke="midnightblue" points="900.21,-200.08 889.73,-198.53 896.95,-206.28 900.21,-200.08"/>
</g>
<!-- Node28&#45;&gt;Node19 -->
<g id="edge46" class="edge">
<title>Node28&#45;&gt;Node19</title>
<path fill="none" stroke="midnightblue" d="M932.75,-295.47C890.89,-289.1 816.44,-275.9 755.41,-255 714.86,-241.12 670.59,-218.18 644.18,-203.59"/>
<polygon fill="midnightblue" stroke="midnightblue" points="645.74,-200.45 635.3,-198.63 642.32,-206.56 645.74,-200.45"/>
</g>
<!-- Node28&#45;&gt;Node23 -->
<g id="edge44" class="edge">
<title>Node28&#45;&gt;Node23</title>
<path fill="none" stroke="midnightblue" d="M998.13,-300.42C1078.29,-300.76 1281.59,-297.34 1331.41,-255 1344.69,-243.72 1348.96,-223.71 1350.21,-208.86"/>
<polygon fill="midnightblue" stroke="midnightblue" points="1353.71,-208.89 1350.67,-198.75 1346.72,-208.58 1353.71,-208.89"/>
</g>
<!-- Node28&#45;&gt;Node25 -->
<g id="edge45" class="edge">
<title>Node28&#45;&gt;Node25</title>
<path fill="none" stroke="midnightblue" d="M966.9,-291.37C969.97,-273.62 977.04,-232.67 981.2,-208.6"/>
<polygon fill="midnightblue" stroke="midnightblue" points="984.68,-209.04 982.93,-198.59 977.78,-207.85 984.68,-209.04"/>
</g>
<!-- Node28&#45;&gt;Node26 -->
<g id="edge43" class="edge">
<title>Node28&#45;&gt;Node26</title>
<path fill="none" stroke="midnightblue" d="M974.52,-291.37C994,-272.89 1039.98,-229.29 1064.81,-205.74"/>
<polygon fill="midnightblue" stroke="midnightblue" points="1067.51,-208.01 1072.35,-198.59 1062.69,-202.93 1067.51,-208.01"/>
</g>
<!-- Node29 -->
<g id="node29" class="node">
<title>Node29</title>
<g id="a_node29"><a xlink:title=" ">
<polygon fill="white" stroke="#bfbfbf" points="1155.41,-179.5 1155.41,-198.5 1217.41,-198.5 1217.41,-179.5 1155.41,-179.5"/>
<text text-anchor="middle" x="1186.41" y="-186.5" font-family="Helvetica,sans-Serif" font-size="10.00">cinttypes</text>
</a>
</g>
</g>
<!-- Node28&#45;&gt;Node29 -->
<g id="edge42" class="edge">
<title>Node28&#45;&gt;Node29</title>
<path fill="none" stroke="midnightblue" d="M982.75,-291.37C1021.32,-272.17 1114.4,-225.84 1160.15,-203.07"/>
<polygon fill="midnightblue" stroke="midnightblue" points="1161.76,-206.18 1169.15,-198.59 1158.64,-199.91 1161.76,-206.18"/>
</g>
<!-- Node30 -->
<g id="node30" class="node">
<title>Node30</title>
<g id="a_node30"><a xlink:href="ComponentManager_8hpp.html" target="_top" xlink:title=" ">
<polygon fill="white" stroke="black" points="794.41,-235.5 794.41,-254.5 930.41,-254.5 930.41,-235.5 794.41,-235.5"/>
<text text-anchor="middle" x="862.41" y="-242.5" font-family="Helvetica,sans-Serif" font-size="10.00">ComponentManager.hpp</text>
</a>
</g>
</g>
<!-- Node28&#45;&gt;Node30 -->
<g id="edge48" class="edge">
<title>Node28&#45;&gt;Node30</title>
<path fill="none" stroke="midnightblue" d="M948.86,-291.32C932.42,-282.7 906.98,-269.36 887.95,-259.39"/>
<polygon fill="midnightblue" stroke="midnightblue" points="889.4,-256.2 878.92,-254.65 886.15,-262.4 889.4,-256.2"/>
</g>
<!-- Node28&#45;&gt;Node31 -->
<g id="edge64" class="edge">
<title>Node28&#45;&gt;Node31</title>
<path fill="none" stroke="midnightblue" d="M932.85,-297.29C895.16,-292.96 832.3,-282.03 785.41,-255 764.44,-242.91 745.9,-221.84 734.46,-206.97"/>
<polygon fill="midnightblue" stroke="midnightblue" points="737.05,-204.6 728.29,-198.65 731.43,-208.77 737.05,-204.6"/>
</g>
<!-- Node28&#45;&gt;Node32 -->
<g id="edge59" class="edge">
<title>Node28&#45;&gt;Node32</title>
<path fill="none" stroke="midnightblue" d="M998.13,-294.17C1048.93,-285.12 1147.51,-267.55 1210.53,-256.32"/>
<polygon fill="midnightblue" stroke="midnightblue" points="1211.48,-259.7 1220.71,-254.5 1210.25,-252.81 1211.48,-259.7"/>
</g>
<!-- Node30&#45;&gt;Node14 -->
<g id="edge54" class="edge">
<title>Node30&#45;&gt;Node14</title>
<path fill="none" stroke="midnightblue" d="M863.73,-235.08C864.79,-227.93 866.32,-217.64 867.64,-208.69"/>
<polygon fill="midnightblue" stroke="midnightblue" points="871.11,-209.16 869.12,-198.75 864.19,-208.13 871.11,-209.16"/>
</g>
<!-- Node30&#45;&gt;Node17 -->
<g id="edge50" class="edge">
<title>Node30&#45;&gt;Node17</title>
<path fill="none" stroke="midnightblue" d="M794.38,-236.54C716.52,-227.91 585.19,-213.08 472.41,-199 461.03,-197.58 448.57,-195.93 437.51,-194.44"/>
<polygon fill="midnightblue" stroke="midnightblue" points="437.81,-190.94 427.43,-193.06 436.86,-197.88 437.81,-190.94"/>
</g>
<!-- Node30&#45;&gt;Node19 -->
<g id="edge51" class="edge">
<title>Node30&#45;&gt;Node19</title>
<path fill="none" stroke="midnightblue" d="M824.07,-235.44C777.18,-224.98 698.58,-207.44 653.98,-197.49"/>
<polygon fill="midnightblue" stroke="midnightblue" points="654.47,-194.01 643.94,-195.25 652.94,-200.84 654.47,-194.01"/>
</g>
<!-- Node30&#45;&gt;Node20 -->
<g id="edge58" class="edge">
<title>Node30&#45;&gt;Node20</title>
<path fill="none" stroke="midnightblue" d="M805.05,-235.44C726.82,-223.77 589.54,-203.3 529.69,-194.37"/>
<polygon fill="midnightblue" stroke="midnightblue" points="530.19,-190.9 519.78,-192.89 529.15,-197.83 530.19,-190.9"/>
</g>
<!-- Node30&#45;&gt;Node23 -->
<g id="edge52" class="edge">
<title>Node30&#45;&gt;Node23</title>
<path fill="none" stroke="midnightblue" d="M930.47,-238.01C1015.53,-230.26 1165.48,-215.77 1293.41,-199 1299.06,-198.26 1305.02,-197.4 1310.86,-196.52"/>
<polygon fill="midnightblue" stroke="midnightblue" points="1311.82,-199.91 1321.17,-194.92 1310.75,-193 1311.82,-199.91"/>
</g>
<!-- Node30&#45;&gt;Node25 -->
<g id="edge53" class="edge">
<title>Node30&#45;&gt;Node25</title>
<path fill="none" stroke="midnightblue" d="M881.74,-235.44C901.73,-226.6 933.16,-212.69 955.98,-202.59"/>
<polygon fill="midnightblue" stroke="midnightblue" points="957.44,-205.76 965.17,-198.52 954.61,-199.36 957.44,-205.76"/>
</g>
<!-- Node30&#45;&gt;Node26 -->
<g id="edge49" class="edge">
<title>Node30&#45;&gt;Node26</title>
<path fill="none" stroke="midnightblue" d="M897.11,-235.44C935,-226.1 995.76,-211.12 1037.08,-200.93"/>
<polygon fill="midnightblue" stroke="midnightblue" points="1038,-204.31 1046.87,-198.52 1036.33,-197.51 1038,-204.31"/>
</g>
<!-- Node30&#45;&gt;Node31 -->
<g id="edge55" class="edge">
<title>Node30&#45;&gt;Node31</title>
<path fill="none" stroke="midnightblue" d="M840.23,-235.44C816.98,-226.48 780.26,-212.31 754,-202.18"/>
<polygon fill="midnightblue" stroke="midnightblue" points="755.08,-198.85 744.49,-198.52 752.56,-205.38 755.08,-198.85"/>
</g>
<!-- Node31&#45;&gt;Node8 -->
<g id="edge57" class="edge">
<title>Node31&#45;&gt;Node8</title>
<path fill="none" stroke="midnightblue" d="M714.33,-179.37C697.11,-160.97 656.56,-117.67 634.44,-94.05"/>
<polygon fill="midnightblue" stroke="midnightblue" points="636.85,-91.5 627.46,-86.59 631.74,-96.28 636.85,-91.5"/>
</g>
<!-- Node31&#45;&gt;Node9 -->
<g id="edge56" class="edge">
<title>Node31&#45;&gt;Node9</title>
<path fill="none" stroke="midnightblue" d="M722.41,-179.26C722.41,-152.65 722.41,-72.21 722.41,-35.34"/>
<polygon fill="midnightblue" stroke="midnightblue" points="725.91,-35.02 722.41,-25.02 718.91,-35.02 725.91,-35.02"/>
</g>
<!-- Node32&#45;&gt;Node19 -->
<g id="edge60" class="edge">
<title>Node32&#45;&gt;Node19</title>
<path fill="none" stroke="midnightblue" d="M1214.13,-242.19C1108.19,-238.15 866.67,-226.53 665.41,-199 661.72,-198.5 657.88,-197.87 654.06,-197.2"/>
<polygon fill="midnightblue" stroke="midnightblue" points="654.62,-193.74 644.14,-195.31 653.31,-200.62 654.62,-193.74"/>
</g>
<!-- Node32&#45;&gt;Node23 -->
<g id="edge62" class="edge">
<title>Node32&#45;&gt;Node23</title>
<path fill="none" stroke="midnightblue" d="M1281.59,-235.32C1294.26,-226.98 1313.65,-214.21 1328.62,-204.35"/>
<polygon fill="midnightblue" stroke="midnightblue" points="1330.84,-207.08 1337.27,-198.65 1326.99,-201.23 1330.84,-207.08"/>
</g>
<!-- Node32&#45;&gt;Node29 -->
<g id="edge61" class="edge">
<title>Node32&#45;&gt;Node29</title>
<path fill="none" stroke="midnightblue" d="M1255.24,-235.32C1242.57,-226.98 1223.18,-214.21 1208.21,-204.35"/>
<polygon fill="midnightblue" stroke="midnightblue" points="1209.83,-201.23 1199.56,-198.65 1205.98,-207.08 1209.83,-201.23"/>
</g>
<!-- Node33 -->
<g id="node33" class="node">
<title>Node33</title>
<g id="a_node33"><a xlink:title=" ">
<polygon fill="white" stroke="#bfbfbf" points="1252.41,-179.5 1252.41,-198.5 1284.41,-198.5 1284.41,-179.5 1252.41,-179.5"/>
<text text-anchor="middle" x="1268.41" y="-186.5" font-family="Helvetica,sans-Serif" font-size="10.00">list</text>
</a>
</g>
</g>
<!-- Node32&#45;&gt;Node33 -->
<g id="edge63" class="edge">
<title>Node32&#45;&gt;Node33</title>
<path fill="none" stroke="midnightblue" d="M1268.41,-235.08C1268.41,-228.01 1268.41,-217.86 1268.41,-208.99"/>
<polygon fill="midnightblue" stroke="midnightblue" points="1271.91,-208.75 1268.41,-198.75 1264.91,-208.75 1271.91,-208.75"/>
</g>
</g>
</svg>
