<?xml version="1.0" encoding="UTF-8" standalone="no"?>
<!DOCTYPE svg PUBLIC "-//W3C//DTD SVG 1.1//EN"
 "http://www.w3.org/Graphics/SVG/1.1/DTD/svg11.dtd">
<!-- Generated by graphviz version 2.43.0 (0)
 -->
<!-- Title: Libs/Engine/sources/GameConfiguration/GameConfiguration.hpp Pages: 1 -->
<svg width="629pt" height="330pt"
 viewBox="0.00 0.00 628.50 330.00" xmlns="http://www.w3.org/2000/svg" xmlns:xlink="http://www.w3.org/1999/xlink">
<g id="graph0" class="graph" transform="scale(1 1) rotate(0) translate(4 326)">
<title>Libs/Engine/sources/GameConfiguration/GameConfiguration.hpp</title>
<polygon fill="white" stroke="transparent" points="-4,4 -4,-326 624.5,-326 624.5,4 -4,4"/>
<!-- Node1 -->
<g id="node1" class="node">
<title>Node1</title>
<g id="a_node1"><a xlink:title=" ">
<polygon fill="#bfbfbf" stroke="black" points="136,-291.5 136,-321.5 369,-321.5 369,-291.5 136,-291.5"/>
<text text-anchor="start" x="144" y="-309.5" font-family="Helvetica,sans-Serif" font-size="10.00">Libs/Engine/sources</text>
<text text-anchor="middle" x="252.5" y="-298.5" font-family="Helvetica,sans-Serif" font-size="10.00">/GameConfiguration/GameConfiguration.hpp</text>
</a>
</g>
</g>
<!-- Node2 -->
<g id="node2" class="node">
<title>Node2</title>
<g id="a_node2"><a xlink:href="Input_8hpp.html" target="_top" xlink:title=" ">
<polygon fill="white" stroke="black" points="36.5,-235.5 36.5,-254.5 98.5,-254.5 98.5,-235.5 36.5,-235.5"/>
<text text-anchor="middle" x="67.5" y="-242.5" font-family="Helvetica,sans-Serif" font-size="10.00">Input.hpp</text>
</a>
</g>
</g>
<!-- Node1&#45;&gt;Node2 -->
<g id="edge1" class="edge">
<title>Node1&#45;&gt;Node2</title>
<path fill="none" stroke="midnightblue" d="M208.66,-291.4C176.69,-281.12 133.88,-267.35 103.82,-257.68"/>
<polygon fill="midnightblue" stroke="midnightblue" points="104.74,-254.3 94.15,-254.57 102.6,-260.96 104.74,-254.3"/>
</g>
<!-- Node3 -->
<g id="node3" class="node">
<title>Node3</title>
<g id="a_node3"><a xlink:href="Vector2_8hpp.html" target="_top" xlink:title=" ">
<polygon fill="white" stroke="black" points="89.5,-179.5 89.5,-198.5 163.5,-198.5 163.5,-179.5 89.5,-179.5"/>
<text text-anchor="middle" x="126.5" y="-186.5" font-family="Helvetica,sans-Serif" font-size="10.00">Vector2.hpp</text>
</a>
</g>
</g>
<!-- Node1&#45;&gt;Node3 -->
<g id="edge19" class="edge">
<title>Node1&#45;&gt;Node3</title>
<path fill="none" stroke="midnightblue" d="M227.44,-291.36C212.14,-282.1 192.67,-269.11 177.5,-255 161.97,-240.56 147.36,-221.11 137.8,-207.26"/>
<polygon fill="midnightblue" stroke="midnightblue" points="140.52,-205.04 132.03,-198.7 134.71,-208.95 140.52,-205.04"/>
</g>
<!-- Node13 -->
<g id="node13" class="node">
<title>Node13</title>
<g id="a_node13"><a xlink:title=" ">
<polygon fill="white" stroke="#bfbfbf" points="473,-235.5 473,-254.5 564,-254.5 564,-235.5 473,-235.5"/>
<text text-anchor="middle" x="518.5" y="-242.5" font-family="Helvetica,sans-Serif" font-size="10.00">Exceptions.hpp</text>
</a>
</g>
</g>
<!-- Node1&#45;&gt;Node13 -->
<g id="edge15" class="edge">
<title>Node1&#45;&gt;Node13</title>
<path fill="none" stroke="midnightblue" d="M315.2,-291.47C362.7,-280.85 426.97,-266.47 470.44,-256.75"/>
<polygon fill="midnightblue" stroke="midnightblue" points="471.48,-260.1 480.47,-254.51 469.95,-253.27 471.48,-260.1"/>
</g>
<!-- Node14 -->
<g id="node14" class="node">
<title>Node14</title>
<g id="a_node14"><a xlink:href="EngineExceptions_8hpp.html" target="_top" xlink:title=" ">
<polygon fill="white" stroke="black" points="330.5,-235.5 330.5,-254.5 454.5,-254.5 454.5,-235.5 330.5,-235.5"/>
<text text-anchor="middle" x="392.5" y="-242.5" font-family="Helvetica,sans-Serif" font-size="10.00">EngineExceptions.hpp</text>
</a>
</g>
</g>
<!-- Node1&#45;&gt;Node14 -->
<g id="edge16" class="edge">
<title>Node1&#45;&gt;Node14</title>
<path fill="none" stroke="midnightblue" d="M285.68,-291.4C309.06,-281.46 340.11,-268.26 362.71,-258.66"/>
<polygon fill="midnightblue" stroke="midnightblue" points="364.29,-261.79 372.13,-254.66 361.56,-255.35 364.29,-261.79"/>
</g>
<!-- Node17 -->
<g id="node17" class="node">
<title>Node17</title>
<g id="a_node17"><a xlink:href="TerrainGenerator_8hpp.html" target="_top" xlink:title=" ">
<polygon fill="white" stroke="black" points="193,-235.5 193,-254.5 312,-254.5 312,-235.5 193,-235.5"/>
<text text-anchor="middle" x="252.5" y="-242.5" font-family="Helvetica,sans-Serif" font-size="10.00">TerrainGenerator.hpp</text>
</a>
</g>
</g>
<!-- Node1&#45;&gt;Node17 -->
<g id="edge20" class="edge">
<title>Node1&#45;&gt;Node17</title>
<path fill="none" stroke="midnightblue" d="M252.5,-291.4C252.5,-283.47 252.5,-273.46 252.5,-264.86"/>
<polygon fill="midnightblue" stroke="midnightblue" points="256,-264.66 252.5,-254.66 249,-264.66 256,-264.66"/>
</g>
<!-- Node18 -->
<g id="node18" class="node">
<title>Node18</title>
<g id="a_node18"><a xlink:title=" ">
<polygon fill="white" stroke="#bfbfbf" points="206,-179.5 206,-198.5 253,-198.5 253,-179.5 206,-179.5"/>
<text text-anchor="middle" x="229.5" y="-186.5" font-family="Helvetica,sans-Serif" font-size="10.00">vector</text>
</a>
</g>
</g>
<!-- Node1&#45;&gt;Node18 -->
<g id="edge24" class="edge">
<title>Node1&#45;&gt;Node18</title>
<path fill="none" stroke="midnightblue" d="M221.59,-291.34C207.22,-282.98 191.56,-270.89 183.5,-255 174.07,-236.42 191.69,-217.18 207.78,-204.51"/>
<polygon fill="midnightblue" stroke="midnightblue" points="209.93,-207.27 215.9,-198.52 205.77,-201.64 209.93,-207.27"/>
</g>
<!-- Node19 -->
<g id="node19" class="node">
<title>Node19</title>
<g id="a_node19"><a xlink:title=" ">
<polygon fill="white" stroke="#bfbfbf" points="582.5,-235.5 582.5,-254.5 620.5,-254.5 620.5,-235.5 582.5,-235.5"/>
<text text-anchor="middle" x="601.5" y="-242.5" font-family="Helvetica,sans-Serif" font-size="10.00">map</text>
</a>
</g>
</g>
<!-- Node1&#45;&gt;Node19 -->
<g id="edge25" class="edge">
<title>Node1&#45;&gt;Node19</title>
<path fill="none" stroke="midnightblue" d="M369.24,-291.57C427.87,-283.5 500.03,-271.97 572.56,-254.92"/>
<polygon fill="midnightblue" stroke="midnightblue" points="573.42,-258.32 582.33,-252.59 571.79,-251.51 573.42,-258.32"/>
</g>
<!-- Node2&#45;&gt;Node3 -->
<g id="edge2" class="edge">
<title>Node2&#45;&gt;Node3</title>
<path fill="none" stroke="midnightblue" d="M76.98,-235.32C85.7,-227.34 98.84,-215.31 109.4,-205.65"/>
<polygon fill="midnightblue" stroke="midnightblue" points="111.83,-208.17 116.85,-198.83 107.11,-203 111.83,-208.17"/>
</g>
<!-- Node4 -->
<g id="node4" class="node">
<title>Node4</title>
<g id="a_node4"><a xlink:title=" ">
<polygon fill="white" stroke="#bfbfbf" points="0,-67.5 0,-86.5 53,-86.5 53,-67.5 0,-67.5"/>
<text text-anchor="middle" x="26.5" y="-74.5" font-family="Helvetica,sans-Serif" font-size="10.00">raylib.h</text>
</a>
</g>
</g>
<!-- Node3&#45;&gt;Node4 -->
<g id="edge3" class="edge">
<title>Node3&#45;&gt;Node4</title>
<path fill="none" stroke="midnightblue" d="M118.65,-179.37C101.93,-160.97 62.56,-117.67 41.09,-94.05"/>
<polygon fill="midnightblue" stroke="midnightblue" points="43.63,-91.64 34.31,-86.59 38.45,-96.35 43.63,-91.64"/>
</g>
<!-- Node5 -->
<g id="node5" class="node">
<title>Node5</title>
<g id="a_node5"><a xlink:title=" ">
<polygon fill="white" stroke="#bfbfbf" points="71,-67.5 71,-86.5 118,-86.5 118,-67.5 71,-67.5"/>
<text text-anchor="middle" x="94.5" y="-74.5" font-family="Helvetica,sans-Serif" font-size="10.00">cmath</text>
</a>
</g>
</g>
<!-- Node3&#45;&gt;Node5 -->
<g id="edge4" class="edge">
<title>Node3&#45;&gt;Node5</title>
<path fill="none" stroke="midnightblue" d="M123.99,-179.37C118.8,-161.54 106.8,-120.3 99.82,-96.27"/>
<polygon fill="midnightblue" stroke="midnightblue" points="103.15,-95.22 97,-86.59 96.43,-97.17 103.15,-95.22"/>
</g>
<!-- Node6 -->
<g id="node6" class="node">
<title>Node6</title>
<g id="a_node6"><a xlink:href="Vector3_8hpp.html" target="_top" xlink:title=" ">
<polygon fill="white" stroke="black" points="122.5,-123.5 122.5,-142.5 196.5,-142.5 196.5,-123.5 122.5,-123.5"/>
<text text-anchor="middle" x="159.5" y="-130.5" font-family="Helvetica,sans-Serif" font-size="10.00">Vector3.hpp</text>
</a>
</g>
</g>
<!-- Node3&#45;&gt;Node6 -->
<g id="edge5" class="edge">
<title>Node3&#45;&gt;Node6</title>
<path fill="none" stroke="midnightblue" d="M131.95,-179.08C136.51,-171.61 143.17,-160.72 148.79,-151.52"/>
<polygon fill="midnightblue" stroke="midnightblue" points="151.92,-153.11 154.15,-142.75 145.95,-149.46 151.92,-153.11"/>
</g>
<!-- Node7 -->
<g id="node7" class="node">
<title>Node7</title>
<g id="a_node7"><a xlink:href="IXMLSerializable_8hpp.html" target="_top" xlink:title=" ">
<polygon fill="white" stroke="black" points="211,-67.5 211,-86.5 330,-86.5 330,-67.5 211,-67.5"/>
<text text-anchor="middle" x="270.5" y="-74.5" font-family="Helvetica,sans-Serif" font-size="10.00">IXMLSerializable.hpp</text>
</a>
</g>
</g>
<!-- Node3&#45;&gt;Node7 -->
<g id="edge14" class="edge">
<title>Node3&#45;&gt;Node7</title>
<path fill="none" stroke="midnightblue" d="M144.6,-179.44C161.19,-171.2 186.05,-157.84 205.5,-143 224.63,-128.41 243.76,-108.47 256.27,-94.54"/>
<polygon fill="midnightblue" stroke="midnightblue" points="259.15,-96.56 263.14,-86.74 253.9,-91.93 259.15,-96.56"/>
</g>
<!-- Node6&#45;&gt;Node4 -->
<g id="edge6" class="edge">
<title>Node6&#45;&gt;Node4</title>
<path fill="none" stroke="midnightblue" d="M138.43,-123.44C116.44,-114.52 81.77,-100.44 56.84,-90.32"/>
<polygon fill="midnightblue" stroke="midnightblue" points="58.06,-87.04 47.48,-86.52 55.42,-93.52 58.06,-87.04"/>
</g>
<!-- Node6&#45;&gt;Node5 -->
<g id="edge12" class="edge">
<title>Node6&#45;&gt;Node5</title>
<path fill="none" stroke="midnightblue" d="M149.06,-123.32C139.35,-115.26 124.68,-103.08 113,-93.37"/>
<polygon fill="midnightblue" stroke="midnightblue" points="115.06,-90.53 105.13,-86.83 110.59,-95.92 115.06,-90.53"/>
</g>
<!-- Node6&#45;&gt;Node7 -->
<g id="edge7" class="edge">
<title>Node6&#45;&gt;Node7</title>
<path fill="none" stroke="midnightblue" d="M177.33,-123.32C195.22,-114.62 222.98,-101.12 243.55,-91.11"/>
<polygon fill="midnightblue" stroke="midnightblue" points="245.25,-94.18 252.71,-86.65 242.19,-87.88 245.25,-94.18"/>
</g>
<!-- Node12 -->
<g id="node12" class="node">
<title>Node12</title>
<g id="a_node12"><a xlink:title=" ">
<polygon fill="white" stroke="#bfbfbf" points="136.5,-67.5 136.5,-86.5 192.5,-86.5 192.5,-67.5 136.5,-67.5"/>
<text text-anchor="middle" x="164.5" y="-74.5" font-family="Helvetica,sans-Serif" font-size="10.00">sstream</text>
</a>
</g>
</g>
<!-- Node6&#45;&gt;Node12 -->
<g id="edge13" class="edge">
<title>Node6&#45;&gt;Node12</title>
<path fill="none" stroke="midnightblue" d="M160.33,-123.08C160.98,-116.01 161.92,-105.86 162.74,-96.99"/>
<polygon fill="midnightblue" stroke="midnightblue" points="166.25,-97.03 163.69,-86.75 159.28,-96.39 166.25,-97.03"/>
</g>
<!-- Node8 -->
<g id="node8" class="node">
<title>Node8</title>
<g id="a_node8"><a xlink:title=" ">
<polygon fill="white" stroke="#bfbfbf" points="112,-6 112,-25 169,-25 169,-6 112,-6"/>
<text text-anchor="middle" x="140.5" y="-13" font-family="Helvetica,sans-Serif" font-size="10.00">ostream</text>
</a>
</g>
</g>
<!-- Node7&#45;&gt;Node8 -->
<g id="edge8" class="edge">
<title>Node7&#45;&gt;Node8</title>
<path fill="none" stroke="midnightblue" d="M251.87,-67.48C230.06,-57.49 193.7,-40.85 168.48,-29.31"/>
<polygon fill="midnightblue" stroke="midnightblue" points="169.64,-25.99 159.09,-25.01 166.73,-32.35 169.64,-25.99"/>
</g>
<!-- Node9 -->
<g id="node9" class="node">
<title>Node9</title>
<g id="a_node9"><a xlink:title=" ">
<polygon fill="white" stroke="#bfbfbf" points="187.5,-6 187.5,-25 247.5,-25 247.5,-6 187.5,-6"/>
<text text-anchor="middle" x="217.5" y="-13" font-family="Helvetica,sans-Serif" font-size="10.00">iostream</text>
</a>
</g>
</g>
<!-- Node7&#45;&gt;Node9 -->
<g id="edge9" class="edge">
<title>Node7&#45;&gt;Node9</title>
<path fill="none" stroke="midnightblue" d="M262.91,-67.48C254.8,-58.37 241.77,-43.74 231.74,-32.48"/>
<polygon fill="midnightblue" stroke="midnightblue" points="234.34,-30.15 225.08,-25.01 229.12,-34.8 234.34,-30.15"/>
</g>
<!-- Node10 -->
<g id="node10" class="node">
<title>Node10</title>
<g id="a_node10"><a xlink:title=" ">
<polygon fill="white" stroke="#bfbfbf" points="266,-0.5 266,-30.5 379,-30.5 379,-0.5 266,-0.5"/>
<text text-anchor="start" x="274" y="-18.5" font-family="Helvetica,sans-Serif" font-size="10.00">boost/property_tree</text>
<text text-anchor="middle" x="322.5" y="-7.5" font-family="Helvetica,sans-Serif" font-size="10.00">/ptree.hpp</text>
</a>
</g>
</g>
<!-- Node7&#45;&gt;Node10 -->
<g id="edge10" class="edge">
<title>Node7&#45;&gt;Node10</title>
<path fill="none" stroke="midnightblue" d="M277.95,-67.48C284.6,-59.87 294.62,-48.4 303.48,-38.26"/>
<polygon fill="midnightblue" stroke="midnightblue" points="306.3,-40.36 310.24,-30.52 301.03,-35.75 306.3,-40.36"/>
</g>
<!-- Node11 -->
<g id="node11" class="node">
<title>Node11</title>
<g id="a_node11"><a xlink:title=" ">
<polygon fill="white" stroke="#bfbfbf" points="397,-0.5 397,-30.5 510,-30.5 510,-0.5 397,-0.5"/>
<text text-anchor="start" x="405" y="-18.5" font-family="Helvetica,sans-Serif" font-size="10.00">boost/property_tree</text>
<text text-anchor="middle" x="453.5" y="-7.5" font-family="Helvetica,sans-Serif" font-size="10.00">/xml_parser.hpp</text>
</a>
</g>
</g>
<!-- Node7&#45;&gt;Node11 -->
<g id="edge11" class="edge">
<title>Node7&#45;&gt;Node11</title>
<path fill="none" stroke="midnightblue" d="M296.72,-67.48C323.7,-58.7 366.5,-44.79 400.56,-33.71"/>
<polygon fill="midnightblue" stroke="midnightblue" points="401.94,-36.94 410.37,-30.52 399.78,-30.29 401.94,-36.94"/>
</g>
<!-- Node15 -->
<g id="node15" class="node">
<title>Node15</title>
<g id="a_node15"><a xlink:title=" ">
<polygon fill="white" stroke="#bfbfbf" points="360,-179.5 360,-198.5 425,-198.5 425,-179.5 360,-179.5"/>
<text text-anchor="middle" x="392.5" y="-186.5" font-family="Helvetica,sans-Serif" font-size="10.00">exception</text>
</a>
</g>
</g>
<!-- Node14&#45;&gt;Node15 -->
<g id="edge17" class="edge">
<title>Node14&#45;&gt;Node15</title>
<path fill="none" stroke="midnightblue" d="M392.5,-235.08C392.5,-228.01 392.5,-217.86 392.5,-208.99"/>
<polygon fill="midnightblue" stroke="midnightblue" points="396,-208.75 392.5,-198.75 389,-208.75 396,-208.75"/>
</g>
<!-- Node16 -->
<g id="node16" class="node">
<title>Node16</title>
<g id="a_node16"><a xlink:title=" ">
<polygon fill="white" stroke="#bfbfbf" points="284.5,-179.5 284.5,-198.5 328.5,-198.5 328.5,-179.5 284.5,-179.5"/>
<text text-anchor="middle" x="306.5" y="-186.5" font-family="Helvetica,sans-Serif" font-size="10.00">string</text>
</a>
</g>
</g>
<!-- Node14&#45;&gt;Node16 -->
<g id="edge18" class="edge">
<title>Node14&#45;&gt;Node16</title>
<path fill="none" stroke="midnightblue" d="M378.68,-235.32C365.27,-226.9 344.68,-213.97 328.91,-204.07"/>
<polygon fill="midnightblue" stroke="midnightblue" points="330.61,-201.01 320.28,-198.65 326.89,-206.94 330.61,-201.01"/>
</g>
<!-- Node17&#45;&gt;Node3 -->
<g id="edge23" class="edge">
<title>Node17&#45;&gt;Node3</title>
<path fill="none" stroke="midnightblue" d="M232.53,-235.44C211.89,-226.6 179.44,-212.69 155.87,-202.59"/>
<polygon fill="midnightblue" stroke="midnightblue" points="156.94,-199.24 146.37,-198.52 154.18,-205.67 156.94,-199.24"/>
</g>
<!-- Node17&#45;&gt;Node16 -->
<g id="edge21" class="edge">
<title>Node17&#45;&gt;Node16</title>
<path fill="none" stroke="midnightblue" d="M261.42,-235.08C269.28,-227.22 280.93,-215.57 290.42,-206.08"/>
<polygon fill="midnightblue" stroke="midnightblue" points="293.15,-208.3 297.75,-198.75 288.2,-203.35 293.15,-208.3"/>
</g>
<!-- Node17&#45;&gt;Node18 -->
<g id="edge22" class="edge">
<title>Node17&#45;&gt;Node18</title>
<path fill="none" stroke="midnightblue" d="M248.7,-235.08C245.59,-227.77 241.08,-217.18 237.21,-208.1"/>
<polygon fill="midnightblue" stroke="midnightblue" points="240.37,-206.58 233.23,-198.75 233.93,-209.32 240.37,-206.58"/>
</g>
</g>
</svg>
