<?xml version="1.0" encoding="UTF-8" standalone="no"?>
<!DOCTYPE svg PUBLIC "-//W3C//DTD SVG 1.1//EN"
 "http://www.w3.org/Graphics/SVG/1.1/DTD/svg11.dtd">
<!-- Generated by graphviz version 2.43.0 (0)
 -->
<!-- Title: Libs/Engine/sources/Components/HUD/HUD.hpp Pages: 1 -->
<svg width="821pt" height="195pt"
 viewBox="0.00 0.00 821.00 195.00" xmlns="http://www.w3.org/2000/svg" xmlns:xlink="http://www.w3.org/1999/xlink">
<g id="graph0" class="graph" transform="scale(1 1) rotate(0) translate(4 191)">
<title>Libs/Engine/sources/Components/HUD/HUD.hpp</title>
<polygon fill="white" stroke="transparent" points="-4,4 -4,-191 817,-191 817,4 -4,4"/>
<!-- Node1 -->
<g id="node1" class="node">
<title>Node1</title>
<g id="a_node1"><a xlink:title=" ">
<polygon fill="#bfbfbf" stroke="black" points="282.5,-156.5 282.5,-186.5 435.5,-186.5 435.5,-156.5 282.5,-156.5"/>
<text text-anchor="start" x="290.5" y="-174.5" font-family="Helvetica,sans-Serif" font-size="10.00">Libs/Engine/sources</text>
<text text-anchor="middle" x="359" y="-163.5" font-family="Helvetica,sans-Serif" font-size="10.00">/Components/HUD/HUD.hpp</text>
</a>
</g>
</g>
<!-- Node2 -->
<g id="node2" class="node">
<title>Node2</title>
<g id="a_node2"><a xlink:href="HUD_8cpp.html" target="_top" xlink:title=" ">
<polygon fill="white" stroke="black" points="0,-84 0,-114 152,-114 152,-84 0,-84"/>
<text text-anchor="start" x="8" y="-102" font-family="Helvetica,sans-Serif" font-size="10.00">Libs/Engine/sources</text>
<text text-anchor="middle" x="76" y="-91" font-family="Helvetica,sans-Serif" font-size="10.00">/Components/HUD/HUD.cpp</text>
</a>
</g>
</g>
<!-- Node1&#45;&gt;Node2 -->
<g id="edge1" class="edge">
<title>Node1&#45;&gt;Node2</title>
<path fill="none" stroke="midnightblue" d="M292.95,-154.05C244.32,-141.93 178.88,-125.63 132.63,-114.11"/>
<polygon fill="midnightblue" stroke="midnightblue" points="292.2,-157.47 302.75,-156.49 293.89,-150.67 292.2,-157.47"/>
</g>
<!-- Node3 -->
<g id="node3" class="node">
<title>Node3</title>
<g id="a_node3"><a xlink:href="HUDBonusBar_8hpp.html" target="_top" xlink:title=" ">
<polygon fill="white" stroke="black" points="170.5,-78.5 170.5,-119.5 349.5,-119.5 349.5,-78.5 170.5,-78.5"/>
<text text-anchor="start" x="178.5" y="-107.5" font-family="Helvetica,sans-Serif" font-size="10.00">Libs/Engine/sources</text>
<text text-anchor="start" x="178.5" y="-96.5" font-family="Helvetica,sans-Serif" font-size="10.00">/Components/HUD/HUDBonusBar</text>
<text text-anchor="middle" x="260" y="-85.5" font-family="Helvetica,sans-Serif" font-size="10.00">/HUDBonusBar.hpp</text>
</a>
</g>
</g>
<!-- Node1&#45;&gt;Node3 -->
<g id="edge2" class="edge">
<title>Node1&#45;&gt;Node3</title>
<path fill="none" stroke="midnightblue" d="M330.51,-150.21C316.99,-140.58 300.9,-129.12 287.51,-119.59"/>
<polygon fill="midnightblue" stroke="midnightblue" points="328.79,-153.28 338.97,-156.23 332.85,-147.58 328.79,-153.28"/>
</g>
<!-- Node6 -->
<g id="node6" class="node">
<title>Node6</title>
<g id="a_node6"><a xlink:href="HUDBonusIcon_8hpp.html" target="_top" xlink:title=" ">
<polygon fill="white" stroke="black" points="368,-78.5 368,-119.5 550,-119.5 550,-78.5 368,-78.5"/>
<text text-anchor="start" x="376" y="-107.5" font-family="Helvetica,sans-Serif" font-size="10.00">Libs/Engine/sources</text>
<text text-anchor="start" x="376" y="-96.5" font-family="Helvetica,sans-Serif" font-size="10.00">/Components/HUD/HUDBonusIcon</text>
<text text-anchor="middle" x="459" y="-85.5" font-family="Helvetica,sans-Serif" font-size="10.00">/HUDBonusIcon.hpp</text>
</a>
</g>
</g>
<!-- Node1&#45;&gt;Node6 -->
<g id="edge5" class="edge">
<title>Node1&#45;&gt;Node6</title>
<path fill="none" stroke="midnightblue" d="M387.78,-150.21C401.44,-140.58 417.69,-129.12 431.21,-119.59"/>
<polygon fill="midnightblue" stroke="midnightblue" points="385.39,-147.61 379.24,-156.23 389.43,-153.33 385.39,-147.61"/>
</g>
<!-- Node8 -->
<g id="node8" class="node">
<title>Node8</title>
<g id="a_node8"><a xlink:href="HUDText_8hpp.html" target="_top" xlink:title=" ">
<polygon fill="white" stroke="black" points="568,-78.5 568,-119.5 720,-119.5 720,-78.5 568,-78.5"/>
<text text-anchor="start" x="576" y="-107.5" font-family="Helvetica,sans-Serif" font-size="10.00">Libs/Engine/sources</text>
<text text-anchor="start" x="576" y="-96.5" font-family="Helvetica,sans-Serif" font-size="10.00">/Components/HUD/HUDText</text>
<text text-anchor="middle" x="644" y="-85.5" font-family="Helvetica,sans-Serif" font-size="10.00">/HUDText.hpp</text>
</a>
</g>
</g>
<!-- Node1&#45;&gt;Node8 -->
<g id="edge8" class="edge">
<title>Node1&#45;&gt;Node8</title>
<path fill="none" stroke="midnightblue" d="M425.62,-154.02C468.17,-143.49 523.46,-129.82 567.76,-118.86"/>
<polygon fill="midnightblue" stroke="midnightblue" points="424.51,-150.69 415.65,-156.49 426.2,-157.48 424.51,-150.69"/>
</g>
<!-- Node4 -->
<g id="node4" class="node">
<title>Node4</title>
<g id="a_node4"><a xlink:href="HUDBonusBar_8cpp.html" target="_top" xlink:title=" ">
<polygon fill="white" stroke="black" points="76.5,-0.5 76.5,-41.5 255.5,-41.5 255.5,-0.5 76.5,-0.5"/>
<text text-anchor="start" x="84.5" y="-29.5" font-family="Helvetica,sans-Serif" font-size="10.00">Libs/Engine/sources</text>
<text text-anchor="start" x="84.5" y="-18.5" font-family="Helvetica,sans-Serif" font-size="10.00">/Components/HUD/HUDBonusBar</text>
<text text-anchor="middle" x="166" y="-7.5" font-family="Helvetica,sans-Serif" font-size="10.00">/HUDBonusBar.cpp</text>
</a>
</g>
</g>
<!-- Node3&#45;&gt;Node4 -->
<g id="edge3" class="edge">
<title>Node3&#45;&gt;Node4</title>
<path fill="none" stroke="midnightblue" d="M227.92,-72.06C215.54,-62.06 201.63,-50.8 190.13,-41.51"/>
<polygon fill="midnightblue" stroke="midnightblue" points="225.82,-74.86 235.79,-78.43 230.22,-69.42 225.82,-74.86"/>
</g>
<!-- Node5 -->
<g id="node5" class="node">
<title>Node5</title>
<g id="a_node5"><a xlink:href="EntityFactory_8cpp.html" target="_top" xlink:title=" ">
<polygon fill="white" stroke="black" points="273.5,-6 273.5,-36 442.5,-36 442.5,-6 273.5,-6"/>
<text text-anchor="start" x="281.5" y="-24" font-family="Helvetica,sans-Serif" font-size="10.00">Libs/Engine/sources</text>
<text text-anchor="middle" x="358" y="-13" font-family="Helvetica,sans-Serif" font-size="10.00">/EntityFactory/EntityFactory.cpp</text>
</a>
</g>
</g>
<!-- Node3&#45;&gt;Node5 -->
<g id="edge4" class="edge">
<title>Node3&#45;&gt;Node5</title>
<path fill="none" stroke="midnightblue" d="M293.54,-71.99C308.98,-60.02 326.71,-46.27 339.66,-36.23"/>
<polygon fill="midnightblue" stroke="midnightblue" points="290.99,-69.53 285.24,-78.43 295.28,-75.07 290.99,-69.53"/>
</g>
<!-- Node6&#45;&gt;Node5 -->
<g id="edge7" class="edge">
<title>Node6&#45;&gt;Node5</title>
<path fill="none" stroke="midnightblue" d="M424.88,-72.32C408.86,-60.27 390.38,-46.36 376.9,-36.23"/>
<polygon fill="midnightblue" stroke="midnightblue" points="422.9,-75.21 432.99,-78.43 427.1,-69.62 422.9,-75.21"/>
</g>
<!-- Node7 -->
<g id="node7" class="node">
<title>Node7</title>
<g id="a_node7"><a xlink:href="HUDBonusIcon_8cpp.html" target="_top" xlink:title=" ">
<polygon fill="white" stroke="black" points="461,-0.5 461,-41.5 643,-41.5 643,-0.5 461,-0.5"/>
<text text-anchor="start" x="469" y="-29.5" font-family="Helvetica,sans-Serif" font-size="10.00">Libs/Engine/sources</text>
<text text-anchor="start" x="469" y="-18.5" font-family="Helvetica,sans-Serif" font-size="10.00">/Components/HUD/HUDBonusIcon</text>
<text text-anchor="middle" x="552" y="-7.5" font-family="Helvetica,sans-Serif" font-size="10.00">/HUDBonusIcon.cpp</text>
</a>
</g>
</g>
<!-- Node6&#45;&gt;Node7 -->
<g id="edge6" class="edge">
<title>Node6&#45;&gt;Node7</title>
<path fill="none" stroke="midnightblue" d="M490.74,-72.06C502.98,-62.06 516.75,-50.8 528.13,-41.51"/>
<polygon fill="midnightblue" stroke="midnightblue" points="488.48,-69.39 482.95,-78.43 492.91,-74.81 488.48,-69.39"/>
</g>
<!-- Node8&#45;&gt;Node5 -->
<g id="edge10" class="edge">
<title>Node8&#45;&gt;Node5</title>
<path fill="none" stroke="midnightblue" d="M560.54,-75.82C512.28,-63 453.01,-47.25 411.08,-36.11"/>
<polygon fill="midnightblue" stroke="midnightblue" points="559.78,-79.24 570.35,-78.43 561.58,-72.48 559.78,-79.24"/>
</g>
<!-- Node9 -->
<g id="node9" class="node">
<title>Node9</title>
<g id="a_node9"><a xlink:href="HUDText_8cpp.html" target="_top" xlink:title=" ">
<polygon fill="white" stroke="black" points="661,-0.5 661,-41.5 813,-41.5 813,-0.5 661,-0.5"/>
<text text-anchor="start" x="669" y="-29.5" font-family="Helvetica,sans-Serif" font-size="10.00">Libs/Engine/sources</text>
<text text-anchor="start" x="669" y="-18.5" font-family="Helvetica,sans-Serif" font-size="10.00">/Components/HUD/HUDText</text>
<text text-anchor="middle" x="737" y="-7.5" font-family="Helvetica,sans-Serif" font-size="10.00">/HUDText.cpp</text>
</a>
</g>
</g>
<!-- Node8&#45;&gt;Node9 -->
<g id="edge9" class="edge">
<title>Node8&#45;&gt;Node9</title>
<path fill="none" stroke="midnightblue" d="M675.74,-72.06C687.98,-62.06 701.75,-50.8 713.13,-41.51"/>
<polygon fill="midnightblue" stroke="midnightblue" points="673.48,-69.39 667.95,-78.43 677.91,-74.81 673.48,-69.39"/>
</g>
</g>
</svg>
