<?xml version="1.0" encoding="UTF-8" standalone="no"?>
<!DOCTYPE svg PUBLIC "-//W3C//DTD SVG 1.1//EN"
 "http://www.w3.org/Graphics/SVG/1.1/DTD/svg11.dtd">
<!-- Generated by graphviz version 2.43.0 (0)
 -->
<!-- Title: Libs/Engine/sources/Components/HUD/HUDBonusBar/HUDBonusBar.hpp Pages: 1 -->
<svg width="374pt" height="128pt"
 viewBox="0.00 0.00 374.00 128.00" xmlns="http://www.w3.org/2000/svg" xmlns:xlink="http://www.w3.org/1999/xlink">
<g id="graph0" class="graph" transform="scale(1 1) rotate(0) translate(4 124)">
<title>Libs/Engine/sources/Components/HUD/HUDBonusBar/HUDBonusBar.hpp</title>
<polygon fill="white" stroke="transparent" points="-4,4 -4,-124 370,-124 370,4 -4,4"/>
<!-- Node1 -->
<g id="node1" class="node">
<title>Node1</title>
<g id="a_node1"><a xlink:title=" ">
<polygon fill="#bfbfbf" stroke="black" points="96,-78.5 96,-119.5 275,-119.5 275,-78.5 96,-78.5"/>
<text text-anchor="start" x="104" y="-107.5" font-family="Helvetica,sans-Serif" font-size="10.00">Libs/Engine/sources</text>
<text text-anchor="start" x="104" y="-96.5" font-family="Helvetica,sans-Serif" font-size="10.00">/Components/HUD/HUDBonusBar</text>
<text text-anchor="middle" x="185.5" y="-85.5" font-family="Helvetica,sans-Serif" font-size="10.00">/HUDBonusBar.hpp</text>
</a>
</g>
</g>
<!-- Node2 -->
<g id="node2" class="node">
<title>Node2</title>
<g id="a_node2"><a xlink:href="HUDBonusBar_8cpp.html" target="_top" xlink:title=" ">
<polygon fill="white" stroke="black" points="0,-0.5 0,-41.5 179,-41.5 179,-0.5 0,-0.5"/>
<text text-anchor="start" x="8" y="-29.5" font-family="Helvetica,sans-Serif" font-size="10.00">Libs/Engine/sources</text>
<text text-anchor="start" x="8" y="-18.5" font-family="Helvetica,sans-Serif" font-size="10.00">/Components/HUD/HUDBonusBar</text>
<text text-anchor="middle" x="89.5" y="-7.5" font-family="Helvetica,sans-Serif" font-size="10.00">/HUDBonusBar.cpp</text>
</a>
</g>
</g>
<!-- Node1&#45;&gt;Node2 -->
<g id="edge1" class="edge">
<title>Node1&#45;&gt;Node2</title>
<path fill="none" stroke="midnightblue" d="M152.74,-72.06C140.1,-62.06 125.88,-50.8 114.14,-41.51"/>
<polygon fill="midnightblue" stroke="midnightblue" points="150.76,-74.97 160.78,-78.43 155.11,-69.48 150.76,-74.97"/>
</g>
<!-- Node3 -->
<g id="node3" class="node">
<title>Node3</title>
<g id="a_node3"><a xlink:href="EntityFactory_8cpp.html" target="_top" xlink:title=" ">
<polygon fill="white" stroke="black" points="197,-6 197,-36 366,-36 366,-6 197,-6"/>
<text text-anchor="start" x="205" y="-24" font-family="Helvetica,sans-Serif" font-size="10.00">Libs/Engine/sources</text>
<text text-anchor="middle" x="281.5" y="-13" font-family="Helvetica,sans-Serif" font-size="10.00">/EntityFactory/EntityFactory.cpp</text>
</a>
</g>
</g>
<!-- Node1&#45;&gt;Node3 -->
<g id="edge2" class="edge">
<title>Node1&#45;&gt;Node3</title>
<path fill="none" stroke="midnightblue" d="M218.35,-71.99C233.48,-60.02 250.84,-46.27 263.53,-36.23"/>
<polygon fill="midnightblue" stroke="midnightblue" points="215.89,-69.48 210.22,-78.43 220.24,-74.97 215.89,-69.48"/>
</g>
</g>
</svg>
