<?xml version="1.0" encoding="UTF-8" standalone="no"?>
<!DOCTYPE svg PUBLIC "-//W3C//DTD SVG 1.1//EN"
 "http://www.w3.org/Graphics/SVG/1.1/DTD/svg11.dtd">
<!-- Generated by graphviz version 2.43.0 (0)
 -->
<!-- Title: Libs/Engine/sources/Components/IBehaviour/IBehaviour.hpp Pages: 1 -->
<svg width="1062pt" height="341pt"
 viewBox="0.00 0.00 1062.00 341.00" xmlns="http://www.w3.org/2000/svg" xmlns:xlink="http://www.w3.org/1999/xlink">
<g id="graph0" class="graph" transform="scale(1 1) rotate(0) translate(4 337)">
<title>Libs/Engine/sources/Components/IBehaviour/IBehaviour.hpp</title>
<polygon fill="white" stroke="transparent" points="-4,4 -4,-337 1058,-337 1058,4 -4,4"/>
<!-- Node1 -->
<g id="node1" class="node">
<title>Node1</title>
<g id="a_node1"><a xlink:title=" ">
<polygon fill="#bfbfbf" stroke="black" points="402.5,-291.5 402.5,-332.5 539.5,-332.5 539.5,-291.5 402.5,-291.5"/>
<text text-anchor="start" x="410.5" y="-320.5" font-family="Helvetica,sans-Serif" font-size="10.00">Libs/Engine/sources</text>
<text text-anchor="start" x="410.5" y="-309.5" font-family="Helvetica,sans-Serif" font-size="10.00">/Components/IBehaviour</text>
<text text-anchor="middle" x="471" y="-298.5" font-family="Helvetica,sans-Serif" font-size="10.00">/IBehaviour.hpp</text>
</a>
</g>
</g>
<!-- Node2 -->
<g id="node2" class="node">
<title>Node2</title>
<g id="a_node2"><a xlink:href="IComponent_8hpp.html" target="_top" xlink:title=" ">
<polygon fill="white" stroke="black" points="692.5,-123.5 692.5,-142.5 789.5,-142.5 789.5,-123.5 692.5,-123.5"/>
<text text-anchor="middle" x="741" y="-130.5" font-family="Helvetica,sans-Serif" font-size="10.00">IComponent.hpp</text>
</a>
</g>
</g>
<!-- Node1&#45;&gt;Node2 -->
<g id="edge1" class="edge">
<title>Node1&#45;&gt;Node2</title>
<path fill="none" stroke="midnightblue" d="M500.93,-291.38C555.87,-255.36 671.6,-179.49 719.52,-148.08"/>
<polygon fill="midnightblue" stroke="midnightblue" points="721.46,-150.99 727.91,-142.58 717.62,-145.14 721.46,-150.99"/>
</g>
<!-- Node8 -->
<g id="node8" class="node">
<title>Node8</title>
<g id="a_node8"><a xlink:href="Entity_8hpp.html" target="_top" xlink:title=" ">
<polygon fill="white" stroke="black" points="304.5,-235.5 304.5,-254.5 369.5,-254.5 369.5,-235.5 304.5,-235.5"/>
<text text-anchor="middle" x="337" y="-242.5" font-family="Helvetica,sans-Serif" font-size="10.00">Entity.hpp</text>
</a>
</g>
</g>
<!-- Node1&#45;&gt;Node8 -->
<g id="edge8" class="edge">
<title>Node1&#45;&gt;Node8</title>
<path fill="none" stroke="midnightblue" d="M430.8,-291.5C409.16,-281.01 383.07,-268.35 363.9,-259.05"/>
<polygon fill="midnightblue" stroke="midnightblue" points="365.36,-255.87 354.84,-254.65 362.31,-262.17 365.36,-255.87"/>
</g>
<!-- Node3 -->
<g id="node3" class="node">
<title>Node3</title>
<g id="a_node3"><a xlink:title=" ">
<polygon fill="white" stroke="#bfbfbf" points="656.5,-6 656.5,-25 713.5,-25 713.5,-6 656.5,-6"/>
<text text-anchor="middle" x="685" y="-13" font-family="Helvetica,sans-Serif" font-size="10.00">ostream</text>
</a>
</g>
</g>
<!-- Node2&#45;&gt;Node3 -->
<g id="edge2" class="edge">
<title>Node2&#45;&gt;Node3</title>
<path fill="none" stroke="midnightblue" d="M736.79,-123.32C727.67,-104.51 705.92,-59.65 693.71,-34.46"/>
<polygon fill="midnightblue" stroke="midnightblue" points="696.77,-32.75 689.26,-25.28 690.47,-35.81 696.77,-32.75"/>
</g>
<!-- Node4 -->
<g id="node4" class="node">
<title>Node4</title>
<g id="a_node4"><a xlink:href="IXMLSerializable_8hpp.html" target="_top" xlink:title=" ">
<polygon fill="white" stroke="black" points="728.5,-67.5 728.5,-86.5 847.5,-86.5 847.5,-67.5 728.5,-67.5"/>
<text text-anchor="middle" x="788" y="-74.5" font-family="Helvetica,sans-Serif" font-size="10.00">IXMLSerializable.hpp</text>
</a>
</g>
</g>
<!-- Node2&#45;&gt;Node4 -->
<g id="edge3" class="edge">
<title>Node2&#45;&gt;Node4</title>
<path fill="none" stroke="midnightblue" d="M748.76,-123.08C755.54,-115.3 765.54,-103.8 773.76,-94.37"/>
<polygon fill="midnightblue" stroke="midnightblue" points="776.46,-96.59 780.38,-86.75 771.18,-92 776.46,-96.59"/>
</g>
<!-- Node4&#45;&gt;Node3 -->
<g id="edge4" class="edge">
<title>Node4&#45;&gt;Node3</title>
<path fill="none" stroke="midnightblue" d="M773.24,-67.48C756.34,-57.71 728.42,-41.58 708.51,-30.08"/>
<polygon fill="midnightblue" stroke="midnightblue" points="710.14,-26.98 699.73,-25.01 706.64,-33.04 710.14,-26.98"/>
</g>
<!-- Node5 -->
<g id="node5" class="node">
<title>Node5</title>
<g id="a_node5"><a xlink:title=" ">
<polygon fill="white" stroke="#bfbfbf" points="994,-6 994,-25 1054,-25 1054,-6 994,-6"/>
<text text-anchor="middle" x="1024" y="-13" font-family="Helvetica,sans-Serif" font-size="10.00">iostream</text>
</a>
</g>
</g>
<!-- Node4&#45;&gt;Node5 -->
<g id="edge5" class="edge">
<title>Node4&#45;&gt;Node5</title>
<path fill="none" stroke="midnightblue" d="M833.03,-67.47C873.25,-59.44 933.57,-46.36 985,-31 987.57,-30.23 990.22,-29.38 992.86,-28.49"/>
<polygon fill="midnightblue" stroke="midnightblue" points="994.05,-31.78 1002.31,-25.14 991.71,-25.18 994.05,-31.78"/>
</g>
<!-- Node6 -->
<g id="node6" class="node">
<title>Node6</title>
<g id="a_node6"><a xlink:title=" ">
<polygon fill="white" stroke="#bfbfbf" points="731.5,-0.5 731.5,-30.5 844.5,-30.5 844.5,-0.5 731.5,-0.5"/>
<text text-anchor="start" x="739.5" y="-18.5" font-family="Helvetica,sans-Serif" font-size="10.00">boost/property_tree</text>
<text text-anchor="middle" x="788" y="-7.5" font-family="Helvetica,sans-Serif" font-size="10.00">/ptree.hpp</text>
</a>
</g>
</g>
<!-- Node4&#45;&gt;Node6 -->
<g id="edge6" class="edge">
<title>Node4&#45;&gt;Node6</title>
<path fill="none" stroke="midnightblue" d="M788,-67.48C788,-60.47 788,-50.19 788,-40.7"/>
<polygon fill="midnightblue" stroke="midnightblue" points="791.5,-40.52 788,-30.52 784.5,-40.52 791.5,-40.52"/>
</g>
<!-- Node7 -->
<g id="node7" class="node">
<title>Node7</title>
<g id="a_node7"><a xlink:title=" ">
<polygon fill="white" stroke="#bfbfbf" points="862.5,-0.5 862.5,-30.5 975.5,-30.5 975.5,-0.5 862.5,-0.5"/>
<text text-anchor="start" x="870.5" y="-18.5" font-family="Helvetica,sans-Serif" font-size="10.00">boost/property_tree</text>
<text text-anchor="middle" x="919" y="-7.5" font-family="Helvetica,sans-Serif" font-size="10.00">/xml_parser.hpp</text>
</a>
</g>
</g>
<!-- Node4&#45;&gt;Node7 -->
<g id="edge7" class="edge">
<title>Node4&#45;&gt;Node7</title>
<path fill="none" stroke="midnightblue" d="M806.77,-67.48C825.51,-58.96 854.89,-45.62 878.89,-34.72"/>
<polygon fill="midnightblue" stroke="midnightblue" points="880.47,-37.85 888.13,-30.52 877.57,-31.47 880.47,-37.85"/>
</g>
<!-- Node8&#45;&gt;Node2 -->
<g id="edge29" class="edge">
<title>Node8&#45;&gt;Node2</title>
<path fill="none" stroke="midnightblue" d="M369.63,-239.01C413.56,-231.93 493.95,-217.73 561,-199 614.74,-183.99 675.42,-160.7 710.82,-146.46"/>
<polygon fill="midnightblue" stroke="midnightblue" points="712.58,-149.52 720.54,-142.52 709.95,-143.03 712.58,-149.52"/>
</g>
<!-- Node9 -->
<g id="node9" class="node">
<title>Node9</title>
<g id="a_node9"><a xlink:title=" ">
<polygon fill="white" stroke="#bfbfbf" points="0,-123.5 0,-142.5 62,-142.5 62,-123.5 0,-123.5"/>
<text text-anchor="middle" x="31" y="-130.5" font-family="Helvetica,sans-Serif" font-size="10.00">cinttypes</text>
</a>
</g>
</g>
<!-- Node8&#45;&gt;Node9 -->
<g id="edge9" class="edge">
<title>Node8&#45;&gt;Node9</title>
<path fill="none" stroke="midnightblue" d="M304.21,-243.91C255.9,-242.5 163.97,-234.82 96,-199 74.05,-187.43 54.78,-165.94 43.04,-150.84"/>
<polygon fill="midnightblue" stroke="midnightblue" points="45.83,-148.72 37.03,-142.82 40.22,-152.92 45.83,-148.72"/>
</g>
<!-- Node10 -->
<g id="node10" class="node">
<title>Node10</title>
<g id="a_node10"><a xlink:title=" ">
<polygon fill="white" stroke="#bfbfbf" points="271.5,-123.5 271.5,-142.5 364.5,-142.5 364.5,-123.5 271.5,-123.5"/>
<text text-anchor="middle" x="318" y="-130.5" font-family="Helvetica,sans-Serif" font-size="10.00">unordered_map</text>
</a>
</g>
</g>
<!-- Node8&#45;&gt;Node10 -->
<g id="edge10" class="edge">
<title>Node8&#45;&gt;Node10</title>
<path fill="none" stroke="midnightblue" d="M335.51,-235.37C332.44,-217.62 325.37,-176.67 321.21,-152.6"/>
<polygon fill="midnightblue" stroke="midnightblue" points="324.64,-151.85 319.48,-142.59 317.74,-153.04 324.64,-151.85"/>
</g>
<!-- Node11 -->
<g id="node11" class="node">
<title>Node11</title>
<g id="a_node11"><a xlink:title=" ">
<polygon fill="white" stroke="#bfbfbf" points="130,-123.5 130,-142.5 188,-142.5 188,-123.5 130,-123.5"/>
<text text-anchor="middle" x="159" y="-130.5" font-family="Helvetica,sans-Serif" font-size="10.00">memory</text>
</a>
</g>
</g>
<!-- Node8&#45;&gt;Node11 -->
<g id="edge11" class="edge">
<title>Node8&#45;&gt;Node11</title>
<path fill="none" stroke="midnightblue" d="M323.03,-235.37C292.36,-216.41 218.87,-171 181.56,-147.94"/>
<polygon fill="midnightblue" stroke="midnightblue" points="183.25,-144.87 172.9,-142.59 179.57,-150.83 183.25,-144.87"/>
</g>
<!-- Node12 -->
<g id="node12" class="node">
<title>Node12</title>
<g id="a_node12"><a xlink:title=" ">
<polygon fill="white" stroke="#bfbfbf" points="383,-123.5 383,-142.5 447,-142.5 447,-123.5 383,-123.5"/>
<text text-anchor="middle" x="415" y="-130.5" font-family="Helvetica,sans-Serif" font-size="10.00">algorithm</text>
</a>
</g>
</g>
<!-- Node8&#45;&gt;Node12 -->
<g id="edge12" class="edge">
<title>Node8&#45;&gt;Node12</title>
<path fill="none" stroke="midnightblue" d="M341.4,-235.25C348.01,-222.44 361.18,-198.04 375,-179 382.37,-168.85 391.62,-158.33 399.37,-150.01"/>
<polygon fill="midnightblue" stroke="midnightblue" points="402.13,-152.18 406.49,-142.53 397.06,-147.36 402.13,-152.18"/>
</g>
<!-- Node13 -->
<g id="node13" class="node">
<title>Node13</title>
<g id="a_node13"><a xlink:title=" ">
<polygon fill="white" stroke="#bfbfbf" points="206.5,-123.5 206.5,-142.5 253.5,-142.5 253.5,-123.5 206.5,-123.5"/>
<text text-anchor="middle" x="230" y="-130.5" font-family="Helvetica,sans-Serif" font-size="10.00">vector</text>
</a>
</g>
</g>
<!-- Node8&#45;&gt;Node13 -->
<g id="edge13" class="edge">
<title>Node8&#45;&gt;Node13</title>
<path fill="none" stroke="midnightblue" d="M328.6,-235.37C310.71,-216.97 268.59,-173.67 245.61,-150.05"/>
<polygon fill="midnightblue" stroke="midnightblue" points="247.84,-147.32 238.36,-142.59 242.82,-152.2 247.84,-147.32"/>
</g>
<!-- Node14 -->
<g id="node14" class="node">
<title>Node14</title>
<g id="a_node14"><a xlink:title=" ">
<polygon fill="white" stroke="#bfbfbf" points="583.5,-123.5 583.5,-142.5 674.5,-142.5 674.5,-123.5 583.5,-123.5"/>
<text text-anchor="middle" x="629" y="-130.5" font-family="Helvetica,sans-Serif" font-size="10.00">Exceptions.hpp</text>
</a>
</g>
</g>
<!-- Node8&#45;&gt;Node14 -->
<g id="edge14" class="edge">
<title>Node8&#45;&gt;Node14</title>
<path fill="none" stroke="midnightblue" d="M369.67,-239.86C408.76,-234.12 475.62,-221.77 529,-199 559.72,-185.89 591.43,-163.5 610.68,-148.72"/>
<polygon fill="midnightblue" stroke="midnightblue" points="612.88,-151.45 618.6,-142.53 608.57,-145.93 612.88,-151.45"/>
</g>
<!-- Node15 -->
<g id="node15" class="node">
<title>Node15</title>
<g id="a_node15"><a xlink:href="ComponentManager_8hpp.html" target="_top" xlink:title=" ">
<polygon fill="white" stroke="black" points="384,-179.5 384,-198.5 520,-198.5 520,-179.5 384,-179.5"/>
<text text-anchor="middle" x="452" y="-186.5" font-family="Helvetica,sans-Serif" font-size="10.00">ComponentManager.hpp</text>
</a>
</g>
</g>
<!-- Node8&#45;&gt;Node15 -->
<g id="edge15" class="edge">
<title>Node8&#45;&gt;Node15</title>
<path fill="none" stroke="midnightblue" d="M355.22,-235.44C373.9,-226.68 403.16,-212.94 424.62,-202.86"/>
<polygon fill="midnightblue" stroke="midnightblue" points="426.3,-205.93 433.86,-198.52 423.32,-199.6 426.3,-205.93"/>
</g>
<!-- Node18 -->
<g id="node18" class="node">
<title>Node18</title>
<g id="a_node18"><a xlink:href="EntityManager_8hpp.html" target="_top" xlink:title=" ">
<polygon fill="white" stroke="black" points="105,-179.5 105,-198.5 213,-198.5 213,-179.5 105,-179.5"/>
<text text-anchor="middle" x="159" y="-186.5" font-family="Helvetica,sans-Serif" font-size="10.00">EntityManager.hpp</text>
</a>
</g>
</g>
<!-- Node8&#45;&gt;Node18 -->
<g id="edge24" class="edge">
<title>Node8&#45;&gt;Node18</title>
<path fill="none" stroke="midnightblue" d="M308.8,-235.44C278.59,-226.28 230.49,-211.69 196.97,-201.52"/>
<polygon fill="midnightblue" stroke="midnightblue" points="197.66,-198.07 187.07,-198.52 195.63,-204.77 197.66,-198.07"/>
</g>
<!-- Node15&#45;&gt;Node2 -->
<g id="edge22" class="edge">
<title>Node15&#45;&gt;Node2</title>
<path fill="none" stroke="midnightblue" d="M497.79,-179.44C548.74,-169.92 631.03,-154.55 685.57,-144.36"/>
<polygon fill="midnightblue" stroke="midnightblue" points="686.23,-147.79 695.42,-142.52 684.95,-140.91 686.23,-147.79"/>
</g>
<!-- Node15&#45;&gt;Node10 -->
<g id="edge16" class="edge">
<title>Node15&#45;&gt;Node10</title>
<path fill="none" stroke="midnightblue" d="M430.77,-179.44C408.62,-170.52 373.68,-156.44 348.56,-146.32"/>
<polygon fill="midnightblue" stroke="midnightblue" points="349.72,-143.01 339.13,-142.52 347.1,-149.5 349.72,-143.01"/>
</g>
<!-- Node15&#45;&gt;Node11 -->
<g id="edge19" class="edge">
<title>Node15&#45;&gt;Node11</title>
<path fill="none" stroke="midnightblue" d="M398.59,-179.5C349.1,-171.41 273.21,-158.49 198.12,-143.14"/>
<polygon fill="midnightblue" stroke="midnightblue" points="198.51,-139.64 188.01,-141.05 197.1,-146.5 198.51,-139.64"/>
</g>
<!-- Node15&#45;&gt;Node12 -->
<g id="edge20" class="edge">
<title>Node15&#45;&gt;Node12</title>
<path fill="none" stroke="midnightblue" d="M445.89,-179.08C440.72,-171.53 433.15,-160.49 426.81,-151.23"/>
<polygon fill="midnightblue" stroke="midnightblue" points="429.54,-149.02 421,-142.75 423.76,-152.98 429.54,-149.02"/>
</g>
<!-- Node15&#45;&gt;Node13 -->
<g id="edge18" class="edge">
<title>Node15&#45;&gt;Node13</title>
<path fill="none" stroke="midnightblue" d="M414.62,-179.48C378.44,-171.14 321.82,-157.89 263.52,-143.07"/>
<polygon fill="midnightblue" stroke="midnightblue" points="264.32,-139.66 253.77,-140.58 262.59,-146.45 264.32,-139.66"/>
</g>
<!-- Node15&#45;&gt;Node14 -->
<g id="edge21" class="edge">
<title>Node15&#45;&gt;Node14</title>
<path fill="none" stroke="midnightblue" d="M480.05,-179.44C510.08,-170.28 557.91,-155.69 591.24,-145.52"/>
<polygon fill="midnightblue" stroke="midnightblue" points="592.54,-148.78 601.09,-142.52 590.5,-142.09 592.54,-148.78"/>
</g>
<!-- Node16 -->
<g id="node16" class="node">
<title>Node16</title>
<g id="a_node16"><a xlink:title=" ">
<polygon fill="white" stroke="#bfbfbf" points="465,-123.5 465,-142.5 509,-142.5 509,-123.5 465,-123.5"/>
<text text-anchor="middle" x="487" y="-130.5" font-family="Helvetica,sans-Serif" font-size="10.00">string</text>
</a>
</g>
</g>
<!-- Node15&#45;&gt;Node16 -->
<g id="edge17" class="edge">
<title>Node15&#45;&gt;Node16</title>
<path fill="none" stroke="midnightblue" d="M457.78,-179.08C462.67,-171.53 469.83,-160.49 475.83,-151.23"/>
<polygon fill="midnightblue" stroke="midnightblue" points="478.83,-153.05 481.33,-142.75 472.95,-149.24 478.83,-153.05"/>
</g>
<!-- Node17 -->
<g id="node17" class="node">
<title>Node17</title>
<g id="a_node17"><a xlink:title=" ">
<polygon fill="white" stroke="#bfbfbf" points="527,-123.5 527,-142.5 565,-142.5 565,-123.5 527,-123.5"/>
<text text-anchor="middle" x="546" y="-130.5" font-family="Helvetica,sans-Serif" font-size="10.00">map</text>
</a>
</g>
</g>
<!-- Node15&#45;&gt;Node17 -->
<g id="edge23" class="edge">
<title>Node15&#45;&gt;Node17</title>
<path fill="none" stroke="midnightblue" d="M467.1,-179.32C481.9,-170.82 504.69,-157.73 521.98,-147.8"/>
<polygon fill="midnightblue" stroke="midnightblue" points="524.01,-150.67 530.93,-142.65 520.52,-144.6 524.01,-150.67"/>
</g>
<!-- Node18&#45;&gt;Node9 -->
<g id="edge26" class="edge">
<title>Node18&#45;&gt;Node9</title>
<path fill="none" stroke="midnightblue" d="M138.72,-179.44C117.65,-170.56 84.48,-156.56 60.51,-146.45"/>
<polygon fill="midnightblue" stroke="midnightblue" points="61.76,-143.18 51.19,-142.52 59.04,-149.63 61.76,-143.18"/>
</g>
<!-- Node18&#45;&gt;Node11 -->
<g id="edge27" class="edge">
<title>Node18&#45;&gt;Node11</title>
<path fill="none" stroke="midnightblue" d="M159,-179.08C159,-172.01 159,-161.86 159,-152.99"/>
<polygon fill="midnightblue" stroke="midnightblue" points="162.5,-152.75 159,-142.75 155.5,-152.75 162.5,-152.75"/>
</g>
<!-- Node18&#45;&gt;Node13 -->
<g id="edge25" class="edge">
<title>Node18&#45;&gt;Node13</title>
<path fill="none" stroke="midnightblue" d="M170.41,-179.32C181.11,-171.18 197.34,-158.84 210.16,-149.09"/>
<polygon fill="midnightblue" stroke="midnightblue" points="212.54,-151.67 218.39,-142.83 208.31,-146.1 212.54,-151.67"/>
</g>
<!-- Node19 -->
<g id="node19" class="node">
<title>Node19</title>
<g id="a_node19"><a xlink:title=" ">
<polygon fill="white" stroke="#bfbfbf" points="80,-123.5 80,-142.5 112,-142.5 112,-123.5 80,-123.5"/>
<text text-anchor="middle" x="96" y="-130.5" font-family="Helvetica,sans-Serif" font-size="10.00">list</text>
</a>
</g>
</g>
<!-- Node18&#45;&gt;Node19 -->
<g id="edge28" class="edge">
<title>Node18&#45;&gt;Node19</title>
<path fill="none" stroke="midnightblue" d="M148.88,-179.32C139.47,-171.26 125.26,-159.08 113.93,-149.37"/>
<polygon fill="midnightblue" stroke="midnightblue" points="116.18,-146.68 106.31,-142.83 111.62,-152 116.18,-146.68"/>
</g>
</g>
</svg>
