<?xml version="1.0" encoding="UTF-8" standalone="no"?>
<!DOCTYPE svg PUBLIC "-//W3C//DTD SVG 1.1//EN"
 "http://www.w3.org/Graphics/SVG/1.1/DTD/svg11.dtd">
<!-- Generated by graphviz version 2.43.0 (0)
 -->
<!-- Title: Libs/ECS/sources/Components/IComponent.hpp Pages: 1 -->
<svg width="415pt" height="162pt"
 viewBox="0.00 0.00 415.00 162.00" xmlns="http://www.w3.org/2000/svg" xmlns:xlink="http://www.w3.org/1999/xlink">
<g id="graph0" class="graph" transform="scale(1 1) rotate(0) translate(4 158)">
<title>Libs/ECS/sources/Components/IComponent.hpp</title>
<polygon fill="white" stroke="transparent" points="-4,4 -4,-158 411,-158 411,4 -4,4"/>
<!-- Node1 -->
<g id="node1" class="node">
<title>Node1</title>
<g id="a_node1"><a xlink:title=" ">
<polygon fill="#bfbfbf" stroke="black" points="0,-123.5 0,-153.5 163,-153.5 163,-123.5 0,-123.5"/>
<text text-anchor="start" x="8" y="-141.5" font-family="Helvetica,sans-Serif" font-size="10.00">Libs/ECS/sources/Components</text>
<text text-anchor="middle" x="81.5" y="-130.5" font-family="Helvetica,sans-Serif" font-size="10.00">/IComponent.hpp</text>
</a>
</g>
</g>
<!-- Node2 -->
<g id="node2" class="node">
<title>Node2</title>
<g id="a_node2"><a xlink:title=" ">
<polygon fill="white" stroke="#bfbfbf" points="9,-6 9,-25 66,-25 66,-6 9,-6"/>
<text text-anchor="middle" x="37.5" y="-13" font-family="Helvetica,sans-Serif" font-size="10.00">ostream</text>
</a>
</g>
</g>
<!-- Node1&#45;&gt;Node2 -->
<g id="edge1" class="edge">
<title>Node1&#45;&gt;Node2</title>
<path fill="none" stroke="midnightblue" d="M73.5,-123.25C68.17,-113.32 61.27,-99.63 56.5,-87 50.06,-69.97 44.87,-49.86 41.55,-35.49"/>
<polygon fill="midnightblue" stroke="midnightblue" points="44.88,-34.36 39.3,-25.36 38.05,-35.88 44.88,-34.36"/>
</g>
<!-- Node3 -->
<g id="node3" class="node">
<title>Node3</title>
<g id="a_node3"><a xlink:href="IXMLSerializable_8hpp.html" target="_top" xlink:title=" ">
<polygon fill="white" stroke="black" points="66,-67.5 66,-86.5 185,-86.5 185,-67.5 66,-67.5"/>
<text text-anchor="middle" x="125.5" y="-74.5" font-family="Helvetica,sans-Serif" font-size="10.00">IXMLSerializable.hpp</text>
</a>
</g>
</g>
<!-- Node1&#45;&gt;Node3 -->
<g id="edge2" class="edge">
<title>Node1&#45;&gt;Node3</title>
<path fill="none" stroke="midnightblue" d="M91.93,-123.4C98.26,-114.84 106.37,-103.87 113.03,-94.86"/>
<polygon fill="midnightblue" stroke="midnightblue" points="115.97,-96.78 119.1,-86.66 110.34,-92.62 115.97,-96.78"/>
</g>
<!-- Node3&#45;&gt;Node2 -->
<g id="edge3" class="edge">
<title>Node3&#45;&gt;Node2</title>
<path fill="none" stroke="midnightblue" d="M112.89,-67.48C98.78,-57.93 75.67,-42.31 58.75,-30.87"/>
<polygon fill="midnightblue" stroke="midnightblue" points="60.33,-27.71 50.08,-25.01 56.41,-33.51 60.33,-27.71"/>
</g>
<!-- Node4 -->
<g id="node4" class="node">
<title>Node4</title>
<g id="a_node4"><a xlink:title=" ">
<polygon fill="white" stroke="#bfbfbf" points="84.5,-6 84.5,-25 144.5,-25 144.5,-6 84.5,-6"/>
<text text-anchor="middle" x="114.5" y="-13" font-family="Helvetica,sans-Serif" font-size="10.00">iostream</text>
</a>
</g>
</g>
<!-- Node3&#45;&gt;Node4 -->
<g id="edge4" class="edge">
<title>Node3&#45;&gt;Node4</title>
<path fill="none" stroke="midnightblue" d="M123.92,-67.48C122.37,-59.08 119.95,-45.98 117.95,-35.16"/>
<polygon fill="midnightblue" stroke="midnightblue" points="121.33,-34.21 116.07,-25.01 114.45,-35.48 121.33,-34.21"/>
</g>
<!-- Node5 -->
<g id="node5" class="node">
<title>Node5</title>
<g id="a_node5"><a xlink:title=" ">
<polygon fill="white" stroke="#bfbfbf" points="163,-0.5 163,-30.5 276,-30.5 276,-0.5 163,-0.5"/>
<text text-anchor="start" x="171" y="-18.5" font-family="Helvetica,sans-Serif" font-size="10.00">boost/property_tree</text>
<text text-anchor="middle" x="219.5" y="-7.5" font-family="Helvetica,sans-Serif" font-size="10.00">/ptree.hpp</text>
</a>
</g>
</g>
<!-- Node3&#45;&gt;Node5 -->
<g id="edge5" class="edge">
<title>Node3&#45;&gt;Node5</title>
<path fill="none" stroke="midnightblue" d="M138.97,-67.48C151.94,-59.27 172.01,-46.56 188.88,-35.88"/>
<polygon fill="midnightblue" stroke="midnightblue" points="190.77,-38.83 197.35,-30.52 187.02,-32.91 190.77,-38.83"/>
</g>
<!-- Node6 -->
<g id="node6" class="node">
<title>Node6</title>
<g id="a_node6"><a xlink:title=" ">
<polygon fill="white" stroke="#bfbfbf" points="294,-0.5 294,-30.5 407,-30.5 407,-0.5 294,-0.5"/>
<text text-anchor="start" x="302" y="-18.5" font-family="Helvetica,sans-Serif" font-size="10.00">boost/property_tree</text>
<text text-anchor="middle" x="350.5" y="-7.5" font-family="Helvetica,sans-Serif" font-size="10.00">/xml_parser.hpp</text>
</a>
</g>
</g>
<!-- Node3&#45;&gt;Node6 -->
<g id="edge6" class="edge">
<title>Node3&#45;&gt;Node6</title>
<path fill="none" stroke="midnightblue" d="M157.74,-67.48C191.49,-58.55 245.34,-44.31 287.56,-33.14"/>
<polygon fill="midnightblue" stroke="midnightblue" points="288.7,-36.46 297.47,-30.52 286.91,-29.7 288.7,-36.46"/>
</g>
</g>
</svg>
