<?xml version="1.0" encoding="UTF-8" standalone="no"?>
<!DOCTYPE svg PUBLIC "-//W3C//DTD SVG 1.1//EN"
 "http://www.w3.org/Graphics/SVG/1.1/DTD/svg11.dtd">
<!-- Generated by graphviz version 2.43.0 (0)
 -->
<!-- Title: Libs/RayLib/sources/Image/Image.hpp Pages: 1 -->
<svg width="526pt" height="274pt"
 viewBox="0.00 0.00 525.50 274.00" xmlns="http://www.w3.org/2000/svg" xmlns:xlink="http://www.w3.org/1999/xlink">
<g id="graph0" class="graph" transform="scale(1 1) rotate(0) translate(4 270)">
<title>Libs/RayLib/sources/Image/Image.hpp</title>
<polygon fill="white" stroke="transparent" points="-4,4 -4,-270 521.5,-270 521.5,4 -4,4"/>
<!-- Node1 -->
<g id="node1" class="node">
<title>Node1</title>
<g id="a_node1"><a xlink:title=" ">
<polygon fill="#bfbfbf" stroke="black" points="44.5,-235.5 44.5,-265.5 157.5,-265.5 157.5,-235.5 44.5,-235.5"/>
<text text-anchor="start" x="52.5" y="-253.5" font-family="Helvetica,sans-Serif" font-size="10.00">Libs/RayLib/sources</text>
<text text-anchor="middle" x="101" y="-242.5" font-family="Helvetica,sans-Serif" font-size="10.00">/Image/Image.hpp</text>
</a>
</g>
</g>
<!-- Node2 -->
<g id="node2" class="node">
<title>Node2</title>
<g id="a_node2"><a xlink:title=" ">
<polygon fill="white" stroke="#bfbfbf" points="0,-179.5 0,-198.5 44,-198.5 44,-179.5 0,-179.5"/>
<text text-anchor="middle" x="22" y="-186.5" font-family="Helvetica,sans-Serif" font-size="10.00">string</text>
</a>
</g>
</g>
<!-- Node1&#45;&gt;Node2 -->
<g id="edge1" class="edge">
<title>Node1&#45;&gt;Node2</title>
<path fill="none" stroke="midnightblue" d="M82.28,-235.4C70.09,-226.22 54.21,-214.26 41.81,-204.92"/>
<polygon fill="midnightblue" stroke="midnightblue" points="43.59,-201.88 33.5,-198.66 39.38,-207.47 43.59,-201.88"/>
</g>
<!-- Node3 -->
<g id="node3" class="node">
<title>Node3</title>
<g id="a_node3"><a xlink:title=" ">
<polygon fill="white" stroke="#bfbfbf" points="72.5,-67.5 72.5,-86.5 125.5,-86.5 125.5,-67.5 72.5,-67.5"/>
<text text-anchor="middle" x="99" y="-74.5" font-family="Helvetica,sans-Serif" font-size="10.00">raylib.h</text>
</a>
</g>
</g>
<!-- Node1&#45;&gt;Node3 -->
<g id="edge2" class="edge">
<title>Node1&#45;&gt;Node3</title>
<path fill="none" stroke="midnightblue" d="M97.45,-235.46C95.1,-225.39 92.22,-211.45 91,-199 87.45,-162.81 92.33,-120.37 95.89,-96.59"/>
<polygon fill="midnightblue" stroke="midnightblue" points="99.37,-96.95 97.48,-86.52 92.46,-95.85 99.37,-96.95"/>
</g>
<!-- Node4 -->
<g id="node4" class="node">
<title>Node4</title>
<g id="a_node4"><a xlink:href="Color_8hpp.html" target="_top" xlink:title=" ">
<polygon fill="white" stroke="black" points="100,-179.5 100,-198.5 162,-198.5 162,-179.5 100,-179.5"/>
<text text-anchor="middle" x="131" y="-186.5" font-family="Helvetica,sans-Serif" font-size="10.00">Color.hpp</text>
</a>
</g>
</g>
<!-- Node1&#45;&gt;Node4 -->
<g id="edge3" class="edge">
<title>Node1&#45;&gt;Node4</title>
<path fill="none" stroke="midnightblue" d="M108.11,-235.4C112.29,-227.11 117.61,-216.55 122.07,-207.71"/>
<polygon fill="midnightblue" stroke="midnightblue" points="125.26,-209.16 126.63,-198.66 119.01,-206.01 125.26,-209.16"/>
</g>
<!-- Node13 -->
<g id="node13" class="node">
<title>Node13</title>
<g id="a_node13"><a xlink:href="Vector2_8hpp.html" target="_top" xlink:title=" ">
<polygon fill="white" stroke="black" points="180,-179.5 180,-198.5 254,-198.5 254,-179.5 180,-179.5"/>
<text text-anchor="middle" x="217" y="-186.5" font-family="Helvetica,sans-Serif" font-size="10.00">Vector2.hpp</text>
</a>
</g>
</g>
<!-- Node1&#45;&gt;Node13 -->
<g id="edge14" class="edge">
<title>Node1&#45;&gt;Node13</title>
<path fill="none" stroke="midnightblue" d="M128.49,-235.4C147.43,-225.68 172.44,-212.86 191.04,-203.31"/>
<polygon fill="midnightblue" stroke="midnightblue" points="192.82,-206.34 200.12,-198.66 189.63,-200.11 192.82,-206.34"/>
</g>
<!-- Node4&#45;&gt;Node3 -->
<g id="edge4" class="edge">
<title>Node4&#45;&gt;Node3</title>
<path fill="none" stroke="midnightblue" d="M128.49,-179.37C123.3,-161.54 111.3,-120.3 104.32,-96.27"/>
<polygon fill="midnightblue" stroke="midnightblue" points="107.65,-95.22 101.5,-86.59 100.93,-97.17 107.65,-95.22"/>
</g>
<!-- Node5 -->
<g id="node5" class="node">
<title>Node5</title>
<g id="a_node5"><a xlink:href="Vector3_8hpp.html" target="_top" xlink:title=" ">
<polygon fill="white" stroke="black" points="176,-123.5 176,-142.5 250,-142.5 250,-123.5 176,-123.5"/>
<text text-anchor="middle" x="213" y="-130.5" font-family="Helvetica,sans-Serif" font-size="10.00">Vector3.hpp</text>
</a>
</g>
</g>
<!-- Node4&#45;&gt;Node5 -->
<g id="edge5" class="edge">
<title>Node4&#45;&gt;Node5</title>
<path fill="none" stroke="midnightblue" d="M144.17,-179.32C156.85,-170.98 176.23,-158.21 191.21,-148.35"/>
<polygon fill="midnightblue" stroke="midnightblue" points="193.43,-151.08 199.86,-142.65 189.58,-145.23 193.43,-151.08"/>
</g>
<!-- Node5&#45;&gt;Node3 -->
<g id="edge6" class="edge">
<title>Node5&#45;&gt;Node3</title>
<path fill="none" stroke="midnightblue" d="M194.94,-123.44C176.43,-114.68 147.42,-100.94 126.14,-90.86"/>
<polygon fill="midnightblue" stroke="midnightblue" points="127.51,-87.63 116.98,-86.52 124.52,-93.96 127.51,-87.63"/>
</g>
<!-- Node6 -->
<g id="node6" class="node">
<title>Node6</title>
<g id="a_node6"><a xlink:href="IXMLSerializable_8hpp.html" target="_top" xlink:title=" ">
<polygon fill="white" stroke="black" points="218.5,-67.5 218.5,-86.5 337.5,-86.5 337.5,-67.5 218.5,-67.5"/>
<text text-anchor="middle" x="278" y="-74.5" font-family="Helvetica,sans-Serif" font-size="10.00">IXMLSerializable.hpp</text>
</a>
</g>
</g>
<!-- Node5&#45;&gt;Node6 -->
<g id="edge7" class="edge">
<title>Node5&#45;&gt;Node6</title>
<path fill="none" stroke="midnightblue" d="M223.44,-123.32C233.15,-115.26 247.82,-103.08 259.5,-93.37"/>
<polygon fill="midnightblue" stroke="midnightblue" points="261.91,-95.92 267.37,-86.83 257.44,-90.53 261.91,-95.92"/>
</g>
<!-- Node11 -->
<g id="node11" class="node">
<title>Node11</title>
<g id="a_node11"><a xlink:title=" ">
<polygon fill="white" stroke="#bfbfbf" points="355.5,-67.5 355.5,-86.5 402.5,-86.5 402.5,-67.5 355.5,-67.5"/>
<text text-anchor="middle" x="379" y="-74.5" font-family="Helvetica,sans-Serif" font-size="10.00">cmath</text>
</a>
</g>
</g>
<!-- Node5&#45;&gt;Node11 -->
<g id="edge12" class="edge">
<title>Node5&#45;&gt;Node11</title>
<path fill="none" stroke="midnightblue" d="M239.3,-123.44C268.09,-114.08 314.32,-99.04 345.64,-88.85"/>
<polygon fill="midnightblue" stroke="midnightblue" points="346.81,-92.15 355.24,-85.73 344.65,-85.49 346.81,-92.15"/>
</g>
<!-- Node12 -->
<g id="node12" class="node">
<title>Node12</title>
<g id="a_node12"><a xlink:title=" ">
<polygon fill="white" stroke="#bfbfbf" points="144,-67.5 144,-86.5 200,-86.5 200,-67.5 144,-67.5"/>
<text text-anchor="middle" x="172" y="-74.5" font-family="Helvetica,sans-Serif" font-size="10.00">sstream</text>
</a>
</g>
</g>
<!-- Node5&#45;&gt;Node12 -->
<g id="edge13" class="edge">
<title>Node5&#45;&gt;Node12</title>
<path fill="none" stroke="midnightblue" d="M206.23,-123.08C200.44,-115.46 191.94,-104.26 184.86,-94.94"/>
<polygon fill="midnightblue" stroke="midnightblue" points="187.48,-92.6 178.64,-86.75 181.9,-96.83 187.48,-92.6"/>
</g>
<!-- Node7 -->
<g id="node7" class="node">
<title>Node7</title>
<g id="a_node7"><a xlink:title=" ">
<polygon fill="white" stroke="#bfbfbf" points="119.5,-6 119.5,-25 176.5,-25 176.5,-6 119.5,-6"/>
<text text-anchor="middle" x="148" y="-13" font-family="Helvetica,sans-Serif" font-size="10.00">ostream</text>
</a>
</g>
</g>
<!-- Node6&#45;&gt;Node7 -->
<g id="edge8" class="edge">
<title>Node6&#45;&gt;Node7</title>
<path fill="none" stroke="midnightblue" d="M259.37,-67.48C237.56,-57.49 201.2,-40.85 175.98,-29.31"/>
<polygon fill="midnightblue" stroke="midnightblue" points="177.14,-25.99 166.59,-25.01 174.23,-32.35 177.14,-25.99"/>
</g>
<!-- Node8 -->
<g id="node8" class="node">
<title>Node8</title>
<g id="a_node8"><a xlink:title=" ">
<polygon fill="white" stroke="#bfbfbf" points="195,-6 195,-25 255,-25 255,-6 195,-6"/>
<text text-anchor="middle" x="225" y="-13" font-family="Helvetica,sans-Serif" font-size="10.00">iostream</text>
</a>
</g>
</g>
<!-- Node6&#45;&gt;Node8 -->
<g id="edge9" class="edge">
<title>Node6&#45;&gt;Node8</title>
<path fill="none" stroke="midnightblue" d="M270.41,-67.48C262.3,-58.37 249.27,-43.74 239.24,-32.48"/>
<polygon fill="midnightblue" stroke="midnightblue" points="241.84,-30.15 232.58,-25.01 236.62,-34.8 241.84,-30.15"/>
</g>
<!-- Node9 -->
<g id="node9" class="node">
<title>Node9</title>
<g id="a_node9"><a xlink:title=" ">
<polygon fill="white" stroke="#bfbfbf" points="273.5,-0.5 273.5,-30.5 386.5,-30.5 386.5,-0.5 273.5,-0.5"/>
<text text-anchor="start" x="281.5" y="-18.5" font-family="Helvetica,sans-Serif" font-size="10.00">boost/property_tree</text>
<text text-anchor="middle" x="330" y="-7.5" font-family="Helvetica,sans-Serif" font-size="10.00">/ptree.hpp</text>
</a>
</g>
</g>
<!-- Node6&#45;&gt;Node9 -->
<g id="edge10" class="edge">
<title>Node6&#45;&gt;Node9</title>
<path fill="none" stroke="midnightblue" d="M285.45,-67.48C292.1,-59.87 302.12,-48.4 310.98,-38.26"/>
<polygon fill="midnightblue" stroke="midnightblue" points="313.8,-40.36 317.74,-30.52 308.53,-35.75 313.8,-40.36"/>
</g>
<!-- Node10 -->
<g id="node10" class="node">
<title>Node10</title>
<g id="a_node10"><a xlink:title=" ">
<polygon fill="white" stroke="#bfbfbf" points="404.5,-0.5 404.5,-30.5 517.5,-30.5 517.5,-0.5 404.5,-0.5"/>
<text text-anchor="start" x="412.5" y="-18.5" font-family="Helvetica,sans-Serif" font-size="10.00">boost/property_tree</text>
<text text-anchor="middle" x="461" y="-7.5" font-family="Helvetica,sans-Serif" font-size="10.00">/xml_parser.hpp</text>
</a>
</g>
</g>
<!-- Node6&#45;&gt;Node10 -->
<g id="edge11" class="edge">
<title>Node6&#45;&gt;Node10</title>
<path fill="none" stroke="midnightblue" d="M304.22,-67.48C331.2,-58.7 374,-44.79 408.06,-33.71"/>
<polygon fill="midnightblue" stroke="midnightblue" points="409.44,-36.94 417.87,-30.52 407.28,-30.29 409.44,-36.94"/>
</g>
<!-- Node13&#45;&gt;Node3 -->
<g id="edge15" class="edge">
<title>Node13&#45;&gt;Node3</title>
<path fill="none" stroke="midnightblue" d="M207.34,-179.46C197.21,-170.47 180.87,-155.87 167,-143 149.18,-126.47 129.11,-107.2 115.41,-93.96"/>
<polygon fill="midnightblue" stroke="midnightblue" points="117.77,-91.37 108.16,-86.92 112.9,-96.39 117.77,-91.37"/>
</g>
<!-- Node13&#45;&gt;Node5 -->
<g id="edge17" class="edge">
<title>Node13&#45;&gt;Node5</title>
<path fill="none" stroke="midnightblue" d="M216.34,-179.08C215.82,-172.01 215.06,-161.86 214.41,-152.99"/>
<polygon fill="midnightblue" stroke="midnightblue" points="217.88,-152.47 213.65,-142.75 210.9,-152.98 217.88,-152.47"/>
</g>
<!-- Node13&#45;&gt;Node6 -->
<g id="edge18" class="edge">
<title>Node13&#45;&gt;Node6</title>
<path fill="none" stroke="midnightblue" d="M227.44,-179.4C236.96,-171.03 250.75,-157.49 259,-143 267.18,-128.63 272.11,-110.44 274.89,-96.95"/>
<polygon fill="midnightblue" stroke="midnightblue" points="278.36,-97.39 276.74,-86.92 271.48,-96.12 278.36,-97.39"/>
</g>
<!-- Node13&#45;&gt;Node11 -->
<g id="edge16" class="edge">
<title>Node13&#45;&gt;Node11</title>
<path fill="none" stroke="midnightblue" d="M229.71,-179.37C257.51,-160.49 323.94,-115.38 358.03,-92.24"/>
<polygon fill="midnightblue" stroke="midnightblue" points="360.04,-95.1 366.35,-86.59 356.11,-89.31 360.04,-95.1"/>
</g>
</g>
</svg>
