<?xml version="1.0" encoding="UTF-8" standalone="no"?>
<!DOCTYPE svg PUBLIC "-//W3C//DTD SVG 1.1//EN"
 "http://www.w3.org/Graphics/SVG/1.1/DTD/svg11.dtd">
<!-- Generated by graphviz version 2.43.0 (0)
 -->
<!-- Title: Graphical Class Hierarchy Pages: 1 -->
<svg width="394pt" height="256pt"
 viewBox="0.00 0.00 394.00 256.00" xmlns="http://www.w3.org/2000/svg" xmlns:xlink="http://www.w3.org/1999/xlink">
<g id="graph0" class="graph" transform="scale(1 1) rotate(0) translate(4 252)">
<title>Graphical Class Hierarchy</title>
<polygon fill="white" stroke="transparent" points="-4,4 -4,-252 390,-252 390,4 -4,4"/>
<!-- Node0 -->
<g id="node1" class="node">
<title>Node0</title>
<g id="a_node1"><a xlink:href="classRayLib_1_1IAsset.html" target="_top" xlink:title=" ">
<polygon fill="white" stroke="black" points="0,-114.5 0,-133.5 86,-133.5 86,-114.5 0,-114.5"/>
<text text-anchor="middle" x="43" y="-121.5" font-family="Helvetica,sans-Serif" font-size="10.00">RayLib::IAsset</text>
</a>
</g>
</g>
<!-- Node1 -->
<g id="node2" class="node">
<title>Node1</title>
<g id="a_node2"><a xlink:href="classRayLib_1_1Font.html" target="_top" xlink:title="Font encapsulation.">
<polygon fill="white" stroke="black" points="151.5,-228.5 151.5,-247.5 228.5,-247.5 228.5,-228.5 151.5,-228.5"/>
<text text-anchor="middle" x="190" y="-235.5" font-family="Helvetica,sans-Serif" font-size="10.00">RayLib::Font</text>
</a>
</g>
</g>
<!-- Node0&#45;&gt;Node1 -->
<g id="edge1" class="edge">
<title>Node0&#45;&gt;Node1</title>
<path fill="none" stroke="midnightblue" d="M54.43,-142.57C67.47,-164.13 91.81,-199.23 122,-219 130.8,-224.76 141.36,-228.8 151.46,-231.63"/>
<polygon fill="midnightblue" stroke="midnightblue" points="57.32,-140.59 49.25,-133.73 51.28,-144.13 57.32,-140.59"/>
</g>
<!-- Node2 -->
<g id="node3" class="node">
<title>Node2</title>
<g id="a_node3"><a xlink:href="classRayLib_1_1Mesh.html" target="_top" xlink:title="Mesh encapsulation.">
<polygon fill="white" stroke="black" points="149,-190.5 149,-209.5 231,-209.5 231,-190.5 149,-190.5"/>
<text text-anchor="middle" x="190" y="-197.5" font-family="Helvetica,sans-Serif" font-size="10.00">RayLib::Mesh</text>
</a>
</g>
</g>
<!-- Node0&#45;&gt;Node2 -->
<g id="edge2" class="edge">
<title>Node0&#45;&gt;Node2</title>
<path fill="none" stroke="midnightblue" d="M62.81,-140.73C77.88,-153.36 100.07,-170.31 122,-181 130.37,-185.08 139.76,-188.43 148.81,-191.11"/>
<polygon fill="midnightblue" stroke="midnightblue" points="64.68,-137.72 54.81,-133.86 60.12,-143.03 64.68,-137.72"/>
</g>
<!-- Node3 -->
<g id="node4" class="node">
<title>Node3</title>
<g id="a_node4"><a xlink:href="classRayLib_1_1Model.html" target="_top" xlink:title="Model encapsulation.">
<polygon fill="white" stroke="black" points="147,-152.5 147,-171.5 233,-171.5 233,-152.5 147,-152.5"/>
<text text-anchor="middle" x="190" y="-159.5" font-family="Helvetica,sans-Serif" font-size="10.00">RayLib::Model</text>
</a>
</g>
</g>
<!-- Node0&#45;&gt;Node3 -->
<g id="edge3" class="edge">
<title>Node0&#45;&gt;Node3</title>
<path fill="none" stroke="midnightblue" d="M90.49,-136.18C110.62,-141.46 133.84,-147.54 152.67,-152.48"/>
<polygon fill="midnightblue" stroke="midnightblue" points="91.15,-132.74 80.59,-133.59 89.38,-139.51 91.15,-132.74"/>
</g>
<!-- Node4 -->
<g id="node5" class="node">
<title>Node4</title>
<g id="a_node5"><a xlink:href="classRayLib_1_1ModelAnimation.html" target="_top" xlink:title="Encapsulation for ModelAnimation struct.">
<polygon fill="white" stroke="black" points="122,-114.5 122,-133.5 258,-133.5 258,-114.5 122,-114.5"/>
<text text-anchor="middle" x="190" y="-121.5" font-family="Helvetica,sans-Serif" font-size="10.00">RayLib::ModelAnimation</text>
</a>
</g>
</g>
<!-- Node0&#45;&gt;Node4 -->
<g id="edge4" class="edge">
<title>Node0&#45;&gt;Node4</title>
<path fill="none" stroke="midnightblue" d="M96.5,-124C104.72,-124 113.3,-124 121.79,-124"/>
<polygon fill="midnightblue" stroke="midnightblue" points="96.33,-120.5 86.33,-124 96.33,-127.5 96.33,-120.5"/>
</g>
<!-- Node5 -->
<g id="node6" class="node">
<title>Node5</title>
<g id="a_node6"><a xlink:href="classRayLib_1_1Shader.html" target="_top" xlink:title="Shader Encapsulation of the raylib structure Shader.">
<polygon fill="white" stroke="black" points="145.5,-76.5 145.5,-95.5 234.5,-95.5 234.5,-76.5 145.5,-76.5"/>
<text text-anchor="middle" x="190" y="-83.5" font-family="Helvetica,sans-Serif" font-size="10.00">RayLib::Shader</text>
</a>
</g>
</g>
<!-- Node0&#45;&gt;Node5 -->
<g id="edge5" class="edge">
<title>Node0&#45;&gt;Node5</title>
<path fill="none" stroke="midnightblue" d="M90.49,-111.82C110.62,-106.54 133.84,-100.46 152.67,-95.52"/>
<polygon fill="midnightblue" stroke="midnightblue" points="89.38,-108.49 80.59,-114.41 91.15,-115.26 89.38,-108.49"/>
</g>
<!-- Node8 -->
<g id="node9" class="node">
<title>Node8</title>
<g id="a_node9"><a xlink:href="classRayLib_1_1Sound.html" target="_top" xlink:title=" ">
<polygon fill="white" stroke="black" points="147,-38.5 147,-57.5 233,-57.5 233,-38.5 147,-38.5"/>
<text text-anchor="middle" x="190" y="-45.5" font-family="Helvetica,sans-Serif" font-size="10.00">RayLib::Sound</text>
</a>
</g>
</g>
<!-- Node0&#45;&gt;Node8 -->
<g id="edge8" class="edge">
<title>Node0&#45;&gt;Node8</title>
<path fill="none" stroke="midnightblue" d="M62.81,-107.27C77.88,-94.64 100.07,-77.69 122,-67 129.72,-63.24 138.31,-60.1 146.69,-57.53"/>
<polygon fill="midnightblue" stroke="midnightblue" points="60.12,-104.97 54.81,-114.14 64.68,-110.28 60.12,-104.97"/>
</g>
<!-- Node9 -->
<g id="node10" class="node">
<title>Node9</title>
<g id="a_node10"><a xlink:href="classRayLib_1_1Texture.html" target="_top" xlink:title="Texture encapsulation.">
<polygon fill="white" stroke="black" points="144,-0.5 144,-19.5 236,-19.5 236,-0.5 144,-0.5"/>
<text text-anchor="middle" x="190" y="-7.5" font-family="Helvetica,sans-Serif" font-size="10.00">RayLib::Texture</text>
</a>
</g>
</g>
<!-- Node0&#45;&gt;Node9 -->
<g id="edge9" class="edge">
<title>Node0&#45;&gt;Node9</title>
<path fill="none" stroke="midnightblue" d="M54.43,-105.43C67.47,-83.87 91.81,-48.77 122,-29 128.57,-24.69 136.13,-21.35 143.74,-18.76"/>
<polygon fill="midnightblue" stroke="midnightblue" points="51.28,-103.87 49.25,-114.27 57.32,-107.41 51.28,-103.87"/>
</g>
<!-- Node6 -->
<g id="node7" class="node">
<title>Node6</title>
<g id="a_node7"><a xlink:href="classAmbientShader.html" target="_top" xlink:title=" ">
<polygon fill="white" stroke="black" points="294,-95.5 294,-114.5 386,-114.5 386,-95.5 294,-95.5"/>
<text text-anchor="middle" x="340" y="-102.5" font-family="Helvetica,sans-Serif" font-size="10.00">AmbientShader</text>
</a>
</g>
</g>
<!-- Node5&#45;&gt;Node6 -->
<g id="edge6" class="edge">
<title>Node5&#45;&gt;Node6</title>
<path fill="none" stroke="midnightblue" d="M244.94,-92.92C261.02,-94.99 278.46,-97.23 293.91,-99.21"/>
<polygon fill="midnightblue" stroke="midnightblue" points="244.97,-89.4 234.6,-91.6 244.08,-96.34 244.97,-89.4"/>
</g>
<!-- Node7 -->
<g id="node8" class="node">
<title>Node7</title>
<g id="a_node8"><a xlink:href="classBasicLight.html" target="_top" xlink:title=" ">
<polygon fill="white" stroke="black" points="306.5,-57.5 306.5,-76.5 373.5,-76.5 373.5,-57.5 306.5,-57.5"/>
<text text-anchor="middle" x="340" y="-64.5" font-family="Helvetica,sans-Serif" font-size="10.00">BasicLight</text>
</a>
</g>
</g>
<!-- Node5&#45;&gt;Node7 -->
<g id="edge7" class="edge">
<title>Node5&#45;&gt;Node7</title>
<path fill="none" stroke="midnightblue" d="M244.77,-79.1C265.28,-76.46 288.03,-73.54 306.04,-71.23"/>
<polygon fill="midnightblue" stroke="midnightblue" points="244.08,-75.66 234.6,-80.4 244.97,-82.6 244.08,-75.66"/>
</g>
</g>
</svg>
