<?xml version="1.0" encoding="UTF-8" standalone="no"?>
<!DOCTYPE svg PUBLIC "-//W3C//DTD SVG 1.1//EN"
 "http://www.w3.org/Graphics/SVG/1.1/DTD/svg11.dtd">
<!-- Generated by graphviz version 2.43.0 (0)
 -->
<!-- Title: Graphical Class Hierarchy Pages: 1 -->
<svg width="284pt" height="421pt"
 viewBox="0.00 0.00 284.00 421.00" xmlns="http://www.w3.org/2000/svg" xmlns:xlink="http://www.w3.org/1999/xlink">
<g id="graph0" class="graph" transform="scale(1 1) rotate(0) translate(4 417)">
<title>Graphical Class Hierarchy</title>
<polygon fill="white" stroke="transparent" points="-4,4 -4,-417 280,-417 280,4 -4,4"/>
<!-- Node85 -->
<g id="node1" class="node">
<title>Node85</title>
<g id="a_node1"><a xlink:title=" ">
<polygon fill="white" stroke="#bfbfbf" points="0,-202 0,-221 65,-221 65,-202 0,-202"/>
<text text-anchor="middle" x="32.5" y="-209" font-family="Helvetica,sans-Serif" font-size="10.00">exception</text>
</a>
</g>
</g>
<!-- Node0 -->
<g id="node2" class="node">
<title>Node0</title>
<g id="a_node2"><a xlink:href="classECS_1_1Exception_1_1ComponentException.html" target="_top" xlink:title="Exception thrown if a component has unexpected behaviour.">
<polygon fill="white" stroke="black" points="112.5,-382.5 112.5,-412.5 264.5,-412.5 264.5,-382.5 112.5,-382.5"/>
<text text-anchor="start" x="120.5" y="-400.5" font-family="Helvetica,sans-Serif" font-size="10.00">ECS::Exception::Component</text>
<text text-anchor="middle" x="188.5" y="-389.5" font-family="Helvetica,sans-Serif" font-size="10.00">Exception</text>
</a>
</g>
</g>
<!-- Node85&#45;&gt;Node0 -->
<g id="edge1" class="edge">
<title>Node85&#45;&gt;Node0</title>
<path fill="none" stroke="midnightblue" d="M36.11,-231.33C41.67,-265.49 57.91,-335.45 101,-373.5 104.86,-376.9 109.15,-379.83 113.72,-382.34"/>
<polygon fill="midnightblue" stroke="midnightblue" points="39.54,-230.59 34.61,-221.21 32.61,-231.62 39.54,-230.59"/>
</g>
<!-- Node87 -->
<g id="node3" class="node">
<title>Node87</title>
<g id="a_node3"><a xlink:href="classECS_1_1Exception_1_1CoordinatorException.html" target="_top" xlink:title="Exception thrown if the SystemManager have an expected behavior.">
<polygon fill="white" stroke="black" points="112.5,-333.5 112.5,-363.5 264.5,-363.5 264.5,-333.5 112.5,-333.5"/>
<text text-anchor="start" x="120.5" y="-351.5" font-family="Helvetica,sans-Serif" font-size="10.00">ECS::Exception::Coordinator</text>
<text text-anchor="middle" x="188.5" y="-340.5" font-family="Helvetica,sans-Serif" font-size="10.00">Exception</text>
</a>
</g>
</g>
<!-- Node85&#45;&gt;Node87 -->
<g id="edge2" class="edge">
<title>Node85&#45;&gt;Node87</title>
<path fill="none" stroke="midnightblue" d="M40.03,-230.77C49.52,-255.85 69.49,-299.3 101,-323.5 106.08,-327.4 111.76,-330.7 117.7,-333.48"/>
<polygon fill="midnightblue" stroke="midnightblue" points="43.29,-229.49 36.61,-221.26 36.7,-231.86 43.29,-229.49"/>
</g>
<!-- Node88 -->
<g id="node4" class="node">
<title>Node88</title>
<g id="a_node4"><a xlink:href="classECS_1_1Exception_1_1EntityException.html" target="_top" xlink:title="Exception thrown if an Entity have an expected behavior.">
<polygon fill="white" stroke="black" points="102.5,-295 102.5,-314 274.5,-314 274.5,-295 102.5,-295"/>
<text text-anchor="middle" x="188.5" y="-302" font-family="Helvetica,sans-Serif" font-size="10.00">ECS::Exception::EntityException</text>
</a>
</g>
</g>
<!-- Node85&#45;&gt;Node88 -->
<g id="edge3" class="edge">
<title>Node85&#45;&gt;Node88</title>
<path fill="none" stroke="midnightblue" d="M45.19,-229.76C57.13,-246.86 77.24,-271.78 101,-285.5 107.66,-289.34 115.01,-292.41 122.54,-294.86"/>
<polygon fill="midnightblue" stroke="midnightblue" points="47.91,-227.53 39.43,-221.19 42.1,-231.44 47.91,-227.53"/>
</g>
<!-- Node89 -->
<g id="node5" class="node">
<title>Node89</title>
<g id="a_node5"><a xlink:href="classECS_1_1Exception_1_1EntityManagerException.html" target="_top" xlink:title="Exception thrown if the EntityManager have an expected behavior.">
<polygon fill="white" stroke="black" points="105,-245.5 105,-275.5 272,-275.5 272,-245.5 105,-245.5"/>
<text text-anchor="start" x="113" y="-263.5" font-family="Helvetica,sans-Serif" font-size="10.00">ECS::Exception::EntityManager</text>
<text text-anchor="middle" x="188.5" y="-252.5" font-family="Helvetica,sans-Serif" font-size="10.00">Exception</text>
</a>
</g>
</g>
<!-- Node85&#45;&gt;Node89 -->
<g id="edge4" class="edge">
<title>Node85&#45;&gt;Node89</title>
<path fill="none" stroke="midnightblue" d="M67.16,-224.6C77.91,-228.61 89.89,-232.91 101,-236.5 110.49,-239.57 120.64,-242.6 130.53,-245.43"/>
<polygon fill="midnightblue" stroke="midnightblue" points="68.29,-221.28 57.7,-221.02 65.81,-227.83 68.29,-221.28"/>
</g>
<!-- Node90 -->
<g id="node6" class="node">
<title>Node90</title>
<g id="a_node6"><a xlink:href="classECS_1_1Exception_1_1SystemManagerException.html" target="_top" xlink:title="Exception thrown if the SystemManager have an expected behavior.">
<polygon fill="white" stroke="black" points="101,-196.5 101,-226.5 276,-226.5 276,-196.5 101,-196.5"/>
<text text-anchor="start" x="109" y="-214.5" font-family="Helvetica,sans-Serif" font-size="10.00">ECS::Exception::SystemManager</text>
<text text-anchor="middle" x="188.5" y="-203.5" font-family="Helvetica,sans-Serif" font-size="10.00">Exception</text>
</a>
</g>
</g>
<!-- Node85&#45;&gt;Node90 -->
<g id="edge5" class="edge">
<title>Node85&#45;&gt;Node90</title>
<path fill="none" stroke="midnightblue" d="M75.23,-211.5C83.31,-211.5 92.04,-211.5 100.95,-211.5"/>
<polygon fill="midnightblue" stroke="midnightblue" points="75.04,-208 65.04,-211.5 75.04,-215 75.04,-208"/>
</g>
<!-- Node91 -->
<g id="node7" class="node">
<title>Node91</title>
<g id="a_node7"><a xlink:href="classEngine_1_1Exception_1_1AssetException.html" target="_top" xlink:title="Exception thrown if the Asset have an expected behavior.">
<polygon fill="white" stroke="black" points="133.5,-147.5 133.5,-177.5 243.5,-177.5 243.5,-147.5 133.5,-147.5"/>
<text text-anchor="start" x="141.5" y="-165.5" font-family="Helvetica,sans-Serif" font-size="10.00">Engine::Exception::</text>
<text text-anchor="middle" x="188.5" y="-154.5" font-family="Helvetica,sans-Serif" font-size="10.00">AssetException</text>
</a>
</g>
</g>
<!-- Node85&#45;&gt;Node91 -->
<g id="edge6" class="edge">
<title>Node85&#45;&gt;Node91</title>
<path fill="none" stroke="midnightblue" d="M68.86,-198.47C79.18,-194.8 90.5,-190.88 101,-187.5 111.42,-184.15 122.6,-180.76 133.36,-177.6"/>
<polygon fill="midnightblue" stroke="midnightblue" points="67.56,-195.22 59.34,-201.9 69.93,-201.81 67.56,-195.22"/>
</g>
<!-- Node92 -->
<g id="node8" class="node">
<title>Node92</title>
<g id="a_node8"><a xlink:href="classEngine_1_1Exception_1_1AssetManagerException.html" target="_top" xlink:title="Exception thrown if the AssetManager have an expected behavior.">
<polygon fill="white" stroke="black" points="121.5,-98.5 121.5,-128.5 255.5,-128.5 255.5,-98.5 121.5,-98.5"/>
<text text-anchor="start" x="129.5" y="-116.5" font-family="Helvetica,sans-Serif" font-size="10.00">Engine::Exception::</text>
<text text-anchor="middle" x="188.5" y="-105.5" font-family="Helvetica,sans-Serif" font-size="10.00">AssetManagerException</text>
</a>
</g>
</g>
<!-- Node85&#45;&gt;Node92 -->
<g id="edge7" class="edge">
<title>Node85&#45;&gt;Node92</title>
<path fill="none" stroke="midnightblue" d="M45.64,-193.56C57.79,-176.95 77.95,-152.73 101,-138.5 107.25,-134.64 114.12,-131.36 121.18,-128.57"/>
<polygon fill="midnightblue" stroke="midnightblue" points="42.67,-191.71 39.75,-201.89 48.38,-195.75 42.67,-191.71"/>
</g>
<!-- Node93 -->
<g id="node9" class="node">
<title>Node93</title>
<g id="a_node9"><a xlink:href="classEngine_1_1Exception_1_1EngineException.html" target="_top" xlink:title="Exception thrown if something in the engine has expected behavior.">
<polygon fill="white" stroke="black" points="133.5,-49.5 133.5,-79.5 243.5,-79.5 243.5,-49.5 133.5,-49.5"/>
<text text-anchor="start" x="141.5" y="-67.5" font-family="Helvetica,sans-Serif" font-size="10.00">Engine::Exception::</text>
<text text-anchor="middle" x="188.5" y="-56.5" font-family="Helvetica,sans-Serif" font-size="10.00">EngineException</text>
</a>
</g>
</g>
<!-- Node85&#45;&gt;Node93 -->
<g id="edge8" class="edge">
<title>Node85&#45;&gt;Node93</title>
<path fill="none" stroke="midnightblue" d="M39.04,-192.1C47.75,-165.08 67.24,-116.43 101,-89.5 110.29,-82.09 121.68,-76.88 133.12,-73.21"/>
<polygon fill="midnightblue" stroke="midnightblue" points="35.61,-191.33 36.04,-201.92 42.31,-193.37 35.61,-191.33"/>
</g>
<!-- Node94 -->
<g id="node10" class="node">
<title>Node94</title>
<g id="a_node10"><a xlink:href="classLua_1_1Exception_1_1TableValueException.html" target="_top" xlink:title="Exception thrown if the TableValue have an expected behavior.">
<polygon fill="white" stroke="black" points="115.5,-0.5 115.5,-30.5 261.5,-30.5 261.5,-0.5 115.5,-0.5"/>
<text text-anchor="start" x="123.5" y="-18.5" font-family="Helvetica,sans-Serif" font-size="10.00">Lua::Exception::TableValue</text>
<text text-anchor="middle" x="188.5" y="-7.5" font-family="Helvetica,sans-Serif" font-size="10.00">Exception</text>
</a>
</g>
</g>
<!-- Node85&#45;&gt;Node94 -->
<g id="edge9" class="edge">
<title>Node85&#45;&gt;Node94</title>
<path fill="none" stroke="midnightblue" d="M35.67,-191.62C40.62,-156.04 56.05,-81.39 101,-40.5 105.28,-36.61 110.13,-33.32 115.29,-30.54"/>
<polygon fill="midnightblue" stroke="midnightblue" points="32.18,-191.35 34.41,-201.71 39.12,-192.22 32.18,-191.35"/>
</g>
</g>
</svg>
