<?xml version="1.0" encoding="UTF-8" standalone="no"?>
<!DOCTYPE svg PUBLIC "-//W3C//DTD SVG 1.1//EN"
 "http://www.w3.org/Graphics/SVG/1.1/DTD/svg11.dtd">
<!-- Generated by graphviz version 2.43.0 (0)
 -->
<!-- Title: Graphical Class Hierarchy Pages: 1 -->
<svg width="854pt" height="636pt"
 viewBox="0.00 0.00 854.00 636.00" xmlns="http://www.w3.org/2000/svg" xmlns:xlink="http://www.w3.org/1999/xlink">
<g id="graph0" class="graph" transform="scale(1 1) rotate(0) translate(4 632)">
<title>Graphical Class Hierarchy</title>
<polygon fill="white" stroke="transparent" points="-4,4 -4,-632 850,-632 850,4 -4,4"/>
<!-- Node22 -->
<g id="node1" class="node">
<title>Node22</title>
<g id="a_node1"><a xlink:href="classIXMLSerializable.html" target="_top" xlink:title=" ">
<polygon fill="white" stroke="black" points="0,-190.5 0,-209.5 98,-209.5 98,-190.5 0,-190.5"/>
<text text-anchor="middle" x="49" y="-197.5" font-family="Helvetica,sans-Serif" font-size="10.00">IXMLSerializable</text>
</a>
</g>
</g>
<!-- Node23 -->
<g id="node2" class="node">
<title>Node23</title>
<g id="a_node2"><a xlink:href="classECS_1_1IComponent.html" target="_top" xlink:title="Base Interface class to create a new component.">
<polygon fill="white" stroke="black" points="152,-266.5 152,-285.5 253,-285.5 253,-266.5 152,-266.5"/>
<text text-anchor="middle" x="202.5" y="-273.5" font-family="Helvetica,sans-Serif" font-size="10.00">ECS::IComponent</text>
</a>
</g>
</g>
<!-- Node22&#45;&gt;Node23 -->
<g id="edge1" class="edge">
<title>Node22&#45;&gt;Node23</title>
<path fill="none" stroke="midnightblue" d="M69.72,-216.09C86.08,-228.75 110.4,-246.03 134,-257 142.06,-260.75 151.01,-263.9 159.69,-266.5"/>
<polygon fill="midnightblue" stroke="midnightblue" points="71.52,-213.05 61.51,-209.6 67.19,-218.55 71.52,-213.05"/>
</g>
<!-- Node62 -->
<g id="node41" class="node">
<title>Node62</title>
<g id="a_node41"><a xlink:href="classRayLib_1_1Vector2.html" target="_top" xlink:title="Vector2 encapsulation.">
<polygon fill="white" stroke="black" points="142,-228.5 142,-247.5 263,-247.5 263,-228.5 142,-228.5"/>
<text text-anchor="middle" x="202.5" y="-235.5" font-family="Helvetica,sans-Serif" font-size="10.00">RayLib::Vector2&lt; T &gt;</text>
</a>
</g>
</g>
<!-- Node22&#45;&gt;Node62 -->
<g id="edge40" class="edge">
<title>Node22&#45;&gt;Node62</title>
<path fill="none" stroke="midnightblue" d="M98,-212.04C119.17,-217.35 143.69,-223.5 163.55,-228.48"/>
<polygon fill="midnightblue" stroke="midnightblue" points="98.78,-208.63 88.23,-209.59 97.08,-215.42 98.78,-208.63"/>
</g>
<!-- Node0 -->
<g id="node42" class="node">
<title>Node0</title>
<g id="a_node42"><a xlink:href="classRayLib_1_1Vector3.html" target="_top" xlink:title="Vector3 encapsulation.">
<polygon fill="white" stroke="black" points="156.5,-114.5 156.5,-133.5 248.5,-133.5 248.5,-114.5 156.5,-114.5"/>
<text text-anchor="middle" x="202.5" y="-121.5" font-family="Helvetica,sans-Serif" font-size="10.00">RayLib::Vector3</text>
</a>
</g>
</g>
<!-- Node22&#45;&gt;Node0 -->
<g id="edge41" class="edge">
<title>Node22&#45;&gt;Node0</title>
<path fill="none" stroke="midnightblue" d="M69.72,-183.91C86.08,-171.25 110.4,-153.97 134,-143 142.06,-139.25 151.01,-136.1 159.69,-133.5"/>
<polygon fill="midnightblue" stroke="midnightblue" points="67.19,-181.45 61.51,-190.4 71.52,-186.95 67.19,-181.45"/>
</g>
<!-- Node63 -->
<g id="node43" class="node">
<title>Node63</title>
<g id="a_node43"><a xlink:href="classRayLib_1_1Vector2.html" target="_top" xlink:title=" ">
<polygon fill="white" stroke="black" points="134,-190.5 134,-209.5 271,-209.5 271,-190.5 134,-190.5"/>
<text text-anchor="middle" x="202.5" y="-197.5" font-family="Helvetica,sans-Serif" font-size="10.00">RayLib::Vector2&lt; float &gt;</text>
</a>
</g>
</g>
<!-- Node22&#45;&gt;Node63 -->
<g id="edge42" class="edge">
<title>Node22&#45;&gt;Node63</title>
<path fill="none" stroke="midnightblue" d="M108.4,-200C116.78,-200 125.46,-200 134,-200"/>
<polygon fill="midnightblue" stroke="midnightblue" points="108.35,-196.5 98.35,-200 108.35,-203.5 108.35,-196.5"/>
</g>
<!-- Node64 -->
<g id="node44" class="node">
<title>Node64</title>
<g id="a_node44"><a xlink:href="classRayLib_1_1Vector2.html" target="_top" xlink:title=" ">
<polygon fill="white" stroke="black" points="138.5,-152.5 138.5,-171.5 266.5,-171.5 266.5,-152.5 138.5,-152.5"/>
<text text-anchor="middle" x="202.5" y="-159.5" font-family="Helvetica,sans-Serif" font-size="10.00">RayLib::Vector2&lt; int &gt;</text>
</a>
</g>
</g>
<!-- Node22&#45;&gt;Node64 -->
<g id="edge43" class="edge">
<title>Node22&#45;&gt;Node64</title>
<path fill="none" stroke="midnightblue" d="M98,-187.96C119.17,-182.65 143.69,-176.5 163.55,-171.52"/>
<polygon fill="midnightblue" stroke="midnightblue" points="97.08,-184.58 88.23,-190.41 98.78,-191.37 97.08,-184.58"/>
</g>
<!-- Node24 -->
<g id="node3" class="node">
<title>Node24</title>
<g id="a_node3"><a xlink:href="classComponent_1_1Animator.html" target="_top" xlink:title=" ">
<polygon fill="white" stroke="black" points="316.5,-494.5 316.5,-513.5 440.5,-513.5 440.5,-494.5 316.5,-494.5"/>
<text text-anchor="middle" x="378.5" y="-501.5" font-family="Helvetica,sans-Serif" font-size="10.00">Component::Animator</text>
</a>
</g>
</g>
<!-- Node23&#45;&gt;Node24 -->
<g id="edge2" class="edge">
<title>Node23&#45;&gt;Node24</title>
<path fill="none" stroke="midnightblue" d="M207.51,-295.58C217.04,-337.07 245.07,-434.18 307,-485 311.7,-488.86 317.12,-491.94 322.82,-494.4"/>
<polygon fill="midnightblue" stroke="midnightblue" points="210.89,-294.67 205.34,-285.65 204.05,-296.17 210.89,-294.67"/>
</g>
<!-- Node25 -->
<g id="node4" class="node">
<title>Node25</title>
<g id="a_node4"><a xlink:href="classComponent_1_1Collider.html" target="_top" xlink:title="Collider base component class.">
<polygon fill="white" stroke="black" points="320.5,-456.5 320.5,-475.5 436.5,-475.5 436.5,-456.5 320.5,-456.5"/>
<text text-anchor="middle" x="378.5" y="-463.5" font-family="Helvetica,sans-Serif" font-size="10.00">Component::Collider</text>
</a>
</g>
</g>
<!-- Node23&#45;&gt;Node25 -->
<g id="edge3" class="edge">
<title>Node23&#45;&gt;Node25</title>
<path fill="none" stroke="midnightblue" d="M209.84,-295.65C222.42,-331.41 253.97,-407.11 307,-447 312.17,-450.89 318.07,-453.98 324.22,-456.44"/>
<polygon fill="midnightblue" stroke="midnightblue" points="213.07,-294.26 206.55,-285.91 206.44,-296.51 213.07,-294.26"/>
</g>
<!-- Node27 -->
<g id="node6" class="node">
<title>Node27</title>
<g id="a_node6"><a xlink:href="classComponent_1_1Destructible.html" target="_top" xlink:title="Component allowing for entities to be destructible.">
<polygon fill="white" stroke="black" points="309.5,-418.5 309.5,-437.5 447.5,-437.5 447.5,-418.5 309.5,-418.5"/>
<text text-anchor="middle" x="378.5" y="-425.5" font-family="Helvetica,sans-Serif" font-size="10.00">Component::Destructible</text>
</a>
</g>
</g>
<!-- Node23&#45;&gt;Node27 -->
<g id="edge5" class="edge">
<title>Node23&#45;&gt;Node27</title>
<path fill="none" stroke="midnightblue" d="M212.97,-294.87C228.54,-323.91 262.31,-379.31 307,-409 312.81,-412.86 319.37,-415.94 326.1,-418.39"/>
<polygon fill="midnightblue" stroke="midnightblue" points="215.96,-293.03 208.24,-285.78 209.75,-296.27 215.96,-293.03"/>
</g>
<!-- Node29 -->
<g id="node8" class="node">
<title>Node29</title>
<g id="a_node8"><a xlink:href="classComponent_1_1Drawable3D.html" target="_top" xlink:title=" ">
<polygon fill="white" stroke="black" points="309,-380.5 309,-399.5 448,-399.5 448,-380.5 309,-380.5"/>
<text text-anchor="middle" x="378.5" y="-387.5" font-family="Helvetica,sans-Serif" font-size="10.00">Component::Drawable3D</text>
</a>
</g>
</g>
<!-- Node23&#45;&gt;Node29 -->
<g id="edge7" class="edge">
<title>Node23&#45;&gt;Node29</title>
<path fill="none" stroke="midnightblue" d="M217.7,-293.39C236.1,-314.78 270.21,-350.76 307,-371 314,-374.85 321.82,-377.95 329.64,-380.45"/>
<polygon fill="midnightblue" stroke="midnightblue" points="220.35,-291.1 211.23,-285.71 214.99,-295.61 220.35,-291.1"/>
</g>
<!-- Node30 -->
<g id="node9" class="node">
<title>Node30</title>
<g id="a_node9"><a xlink:href="classComponent_1_1DropBomb.html" target="_top" xlink:title="Behaviour for players or AI allowing to drop a bomb upon pressing a key.">
<polygon fill="white" stroke="black" points="313,-342.5 313,-361.5 444,-361.5 444,-342.5 313,-342.5"/>
<text text-anchor="middle" x="378.5" y="-349.5" font-family="Helvetica,sans-Serif" font-size="10.00">Component::DropBomb</text>
</a>
</g>
</g>
<!-- Node23&#45;&gt;Node30 -->
<g id="edge8" class="edge">
<title>Node23&#45;&gt;Node30</title>
<path fill="none" stroke="midnightblue" d="M227,-291.08C247.47,-303.69 278.29,-321.42 307,-333 316.05,-336.65 326.04,-339.82 335.57,-342.48"/>
<polygon fill="midnightblue" stroke="midnightblue" points="228.7,-288.02 218.37,-285.69 224.99,-293.96 228.7,-288.02"/>
</g>
<!-- Node31 -->
<g id="node10" class="node">
<title>Node31</title>
<g id="a_node10"><a xlink:href="classComponent_1_1IBehaviour.html" target="_top" xlink:title="IBehaviour base component (CF Monobehaviour class in Unity)">
<polygon fill="white" stroke="black" points="313,-304.5 313,-323.5 444,-323.5 444,-304.5 313,-304.5"/>
<text text-anchor="middle" x="378.5" y="-311.5" font-family="Helvetica,sans-Serif" font-size="10.00">Component::IBehaviour</text>
</a>
</g>
</g>
<!-- Node23&#45;&gt;Node31 -->
<g id="edge9" class="edge">
<title>Node23&#45;&gt;Node31</title>
<path fill="none" stroke="midnightblue" d="M257.31,-287.75C281.92,-293.13 310.69,-299.41 333.91,-304.48"/>
<polygon fill="midnightblue" stroke="midnightblue" points="257.92,-284.3 247.41,-285.59 256.43,-291.14 257.92,-284.3"/>
</g>
<!-- Node51 -->
<g id="node30" class="node">
<title>Node51</title>
<g id="a_node30"><a xlink:href="classComponent_1_1IUIObject.html" target="_top" xlink:title="Base class for UI objects.">
<polygon fill="white" stroke="black" points="316.5,-266.5 316.5,-285.5 440.5,-285.5 440.5,-266.5 316.5,-266.5"/>
<text text-anchor="middle" x="378.5" y="-273.5" font-family="Helvetica,sans-Serif" font-size="10.00">Component::IUIObject</text>
</a>
</g>
</g>
<!-- Node23&#45;&gt;Node51 -->
<g id="edge29" class="edge">
<title>Node23&#45;&gt;Node51</title>
<path fill="none" stroke="midnightblue" d="M263.71,-276C280.68,-276 299.15,-276 316.19,-276"/>
<polygon fill="midnightblue" stroke="midnightblue" points="263.36,-272.5 253.36,-276 263.36,-279.5 263.36,-272.5"/>
</g>
<!-- Node55 -->
<g id="node34" class="node">
<title>Node55</title>
<g id="a_node34"><a xlink:href="classComponent_1_1ModelShader.html" target="_top" xlink:title=" ">
<polygon fill="white" stroke="black" points="307,-228.5 307,-247.5 450,-247.5 450,-228.5 307,-228.5"/>
<text text-anchor="middle" x="378.5" y="-235.5" font-family="Helvetica,sans-Serif" font-size="10.00">Component::ModelShader</text>
</a>
</g>
</g>
<!-- Node23&#45;&gt;Node55 -->
<g id="edge33" class="edge">
<title>Node23&#45;&gt;Node55</title>
<path fill="none" stroke="midnightblue" d="M257.31,-264.25C281.92,-258.87 310.69,-252.59 333.91,-247.52"/>
<polygon fill="midnightblue" stroke="midnightblue" points="256.43,-260.86 247.41,-266.41 257.92,-267.7 256.43,-260.86"/>
</g>
<!-- Node57 -->
<g id="node36" class="node">
<title>Node57</title>
<g id="a_node36"><a xlink:href="classComponent_1_1PhysicsBody.html" target="_top" xlink:title="Physicsbody class (CF Unity&#39;s rigidbody)">
<polygon fill="white" stroke="black" points="308.5,-190.5 308.5,-209.5 448.5,-209.5 448.5,-190.5 308.5,-190.5"/>
<text text-anchor="middle" x="378.5" y="-197.5" font-family="Helvetica,sans-Serif" font-size="10.00">Component::PhysicsBody</text>
</a>
</g>
</g>
<!-- Node23&#45;&gt;Node57 -->
<g id="edge35" class="edge">
<title>Node23&#45;&gt;Node57</title>
<path fill="none" stroke="midnightblue" d="M259.64,-262.79C263.59,-261.08 267.42,-259.16 271,-257 290.91,-244.97 287.02,-230.92 307,-219 313.53,-215.1 320.87,-211.99 328.29,-209.51"/>
<polygon fill="midnightblue" stroke="midnightblue" points="258.34,-259.54 250.26,-266.41 260.85,-266.08 258.34,-259.54"/>
</g>
<!-- Node58 -->
<g id="node37" class="node">
<title>Node58</title>
<g id="a_node37"><a xlink:href="classComponent_1_1Renderer.html" target="_top" xlink:title="Renderer component.">
<polygon fill="white" stroke="black" points="317,-152.5 317,-171.5 440,-171.5 440,-152.5 317,-152.5"/>
<text text-anchor="middle" x="378.5" y="-159.5" font-family="Helvetica,sans-Serif" font-size="10.00">Component::Renderer</text>
</a>
</g>
</g>
<!-- Node23&#45;&gt;Node58 -->
<g id="edge36" class="edge">
<title>Node23&#45;&gt;Node58</title>
<path fill="none" stroke="midnightblue" d="M262.28,-263.03C265.38,-261.27 268.31,-259.27 271,-257 299.55,-232.88 278.31,-204.96 307,-181 311.67,-177.1 317.07,-173.99 322.76,-171.52"/>
<polygon fill="midnightblue" stroke="midnightblue" points="260.69,-259.91 253.19,-267.39 263.72,-266.22 260.69,-259.91"/>
</g>
<!-- Node59 -->
<g id="node38" class="node">
<title>Node59</title>
<g id="a_node38"><a xlink:href="classComponent_1_1Transform.html" target="_top" xlink:title=" ">
<polygon fill="white" stroke="black" points="314.5,-114.5 314.5,-133.5 442.5,-133.5 442.5,-114.5 314.5,-114.5"/>
<text text-anchor="middle" x="378.5" y="-121.5" font-family="Helvetica,sans-Serif" font-size="10.00">Component::Transform</text>
</a>
</g>
</g>
<!-- Node23&#45;&gt;Node59 -->
<g id="edge37" class="edge">
<title>Node23&#45;&gt;Node59</title>
<path fill="none" stroke="midnightblue" d="M262.05,-263.82C265.28,-261.87 268.31,-259.61 271,-257 309.16,-220.03 268.64,-179.76 307,-143 311.03,-139.14 315.75,-136.05 320.82,-133.57"/>
<polygon fill="midnightblue" stroke="midnightblue" points="260.46,-260.7 253.08,-268.3 263.59,-266.96 260.46,-260.7"/>
</g>
<!-- Node60 -->
<g id="node39" class="node">
<title>Node60</title>
<g id="a_node39"><a xlink:href="classObjectComponent.html" target="_top" xlink:title=" ">
<polygon fill="white" stroke="black" points="326.5,-76.5 326.5,-95.5 430.5,-95.5 430.5,-76.5 326.5,-76.5"/>
<text text-anchor="middle" x="378.5" y="-83.5" font-family="Helvetica,sans-Serif" font-size="10.00">ObjectComponent</text>
</a>
</g>
</g>
<!-- Node23&#45;&gt;Node60 -->
<g id="edge38" class="edge">
<title>Node23&#45;&gt;Node60</title>
<path fill="none" stroke="midnightblue" d="M262.11,-264.15C265.35,-262.12 268.36,-259.75 271,-257 319.05,-206.89 258.67,-154.84 307,-105 312.38,-99.45 319.2,-95.46 326.47,-92.62"/>
<polygon fill="midnightblue" stroke="midnightblue" points="260.37,-261.1 253.06,-268.77 263.56,-267.34 260.37,-261.1"/>
</g>
<!-- Node61 -->
<g id="node40" class="node">
<title>Node61</title>
<g id="a_node40"><a xlink:href="classStorageComponent.html" target="_top" xlink:title=" ">
<polygon fill="white" stroke="black" points="323.5,-38.5 323.5,-57.5 433.5,-57.5 433.5,-38.5 323.5,-38.5"/>
<text text-anchor="middle" x="378.5" y="-45.5" font-family="Helvetica,sans-Serif" font-size="10.00">StorageComponent</text>
</a>
</g>
</g>
<!-- Node23&#45;&gt;Node61 -->
<g id="edge39" class="edge">
<title>Node23&#45;&gt;Node61</title>
<path fill="none" stroke="midnightblue" d="M262.26,-264.28C265.46,-262.22 268.42,-259.81 271,-257 329.07,-193.64 248.58,-130.04 307,-67 311.57,-62.07 317.26,-58.37 323.43,-55.6"/>
<polygon fill="midnightblue" stroke="midnightblue" points="260.52,-261.24 253.28,-268.97 263.76,-267.45 260.52,-261.24"/>
</g>
<!-- Node26 -->
<g id="node5" class="node">
<title>Node26</title>
<g id="a_node5"><a xlink:href="classComponent_1_1SquareCollider.html" target="_top" xlink:title=" ">
<polygon fill="white" stroke="black" points="495,-608.5 495,-627.5 645,-627.5 645,-608.5 495,-608.5"/>
<text text-anchor="middle" x="570" y="-615.5" font-family="Helvetica,sans-Serif" font-size="10.00">Component::SquareCollider</text>
</a>
</g>
</g>
<!-- Node25&#45;&gt;Node26 -->
<g id="edge4" class="edge">
<title>Node25&#45;&gt;Node26</title>
<path fill="none" stroke="midnightblue" d="M445.19,-480.97C446.88,-482.21 448.49,-483.55 450,-485 488.36,-521.76 446.94,-562.98 486,-599 490.13,-602.81 494.86,-605.9 499.93,-608.42"/>
<polygon fill="midnightblue" stroke="midnightblue" points="446.56,-477.71 436.18,-475.57 442.96,-483.71 446.56,-477.71"/>
</g>
<!-- Node28 -->
<g id="node7" class="node">
<title>Node28</title>
<g id="a_node7"><a xlink:href="classComponent_1_1Box.html" target="_top" xlink:title=" ">
<polygon fill="white" stroke="black" points="521,-570.5 521,-589.5 619,-589.5 619,-570.5 521,-570.5"/>
<text text-anchor="middle" x="570" y="-577.5" font-family="Helvetica,sans-Serif" font-size="10.00">Component::Box</text>
</a>
</g>
</g>
<!-- Node27&#45;&gt;Node28 -->
<g id="edge6" class="edge">
<title>Node27&#45;&gt;Node28</title>
<path fill="none" stroke="midnightblue" d="M445.19,-442.97C446.88,-444.21 448.49,-445.55 450,-447 488.36,-483.76 446.94,-524.98 486,-561 495.45,-569.72 508.07,-574.71 520.6,-577.49"/>
<polygon fill="midnightblue" stroke="midnightblue" points="446.56,-439.71 436.18,-437.57 442.96,-445.71 446.56,-439.71"/>
</g>
<!-- Node32 -->
<g id="node11" class="node">
<title>Node32</title>
<g id="a_node11"><a xlink:href="classComponent_1_1AController.html" target="_top" xlink:title=" ">
<polygon fill="white" stroke="black" points="503,-532.5 503,-551.5 637,-551.5 637,-532.5 503,-532.5"/>
<text text-anchor="middle" x="570" y="-539.5" font-family="Helvetica,sans-Serif" font-size="10.00">Component::AController</text>
</a>
</g>
</g>
<!-- Node31&#45;&gt;Node32 -->
<g id="edge10" class="edge">
<title>Node31&#45;&gt;Node32</title>
<path fill="none" stroke="midnightblue" d="M446.13,-329.32C447.49,-330.47 448.79,-331.69 450,-333 508.42,-396.04 426.39,-461.09 486,-523 490.72,-527.9 496.42,-531.65 502.6,-534.51"/>
<polygon fill="midnightblue" stroke="midnightblue" points="447.93,-326.31 437.68,-323.63 444.02,-332.12 447.93,-326.31"/>
</g>
<!-- Node35 -->
<g id="node14" class="node">
<title>Node35</title>
<g id="a_node14"><a xlink:href="classComponent_1_1APickUp.html" target="_top" xlink:title=" ">
<polygon fill="white" stroke="black" points="510.5,-494.5 510.5,-513.5 629.5,-513.5 629.5,-494.5 510.5,-494.5"/>
<text text-anchor="middle" x="570" y="-501.5" font-family="Helvetica,sans-Serif" font-size="10.00">Component::APickUp</text>
</a>
</g>
</g>
<!-- Node31&#45;&gt;Node35 -->
<g id="edge13" class="edge">
<title>Node31&#45;&gt;Node35</title>
<path fill="none" stroke="midnightblue" d="M445.95,-329.32C447.37,-330.46 448.73,-331.69 450,-333 498.33,-382.84 436.73,-436.09 486,-485 492.71,-491.66 501.26,-496.18 510.3,-499.22"/>
<polygon fill="midnightblue" stroke="midnightblue" points="447.46,-326.12 437.16,-323.62 443.65,-332 447.46,-326.12"/>
</g>
<!-- Node39 -->
<g id="node18" class="node">
<title>Node39</title>
<g id="a_node18"><a xlink:href="classComponent_1_1ButtonCallbacks.html" target="_top" xlink:title="Button wrapper class.">
<polygon fill="white" stroke="black" points="491,-456.5 491,-475.5 649,-475.5 649,-456.5 491,-456.5"/>
<text text-anchor="middle" x="570" y="-463.5" font-family="Helvetica,sans-Serif" font-size="10.00">Component::ButtonCallbacks</text>
</a>
</g>
</g>
<!-- Node31&#45;&gt;Node39 -->
<g id="edge17" class="edge">
<title>Node31&#45;&gt;Node39</title>
<path fill="none" stroke="midnightblue" d="M445.19,-328.97C446.88,-330.21 448.49,-331.55 450,-333 488.36,-369.76 446.94,-410.98 486,-447 490.13,-450.81 494.86,-453.9 499.93,-456.42"/>
<polygon fill="midnightblue" stroke="midnightblue" points="446.56,-325.71 436.18,-323.57 442.96,-331.71 446.56,-325.71"/>
</g>
<!-- Node40 -->
<g id="node19" class="node">
<title>Node40</title>
<g id="a_node19"><a xlink:href="classComponent_1_1Camera.html" target="_top" xlink:title="Camera component.">
<polygon fill="white" stroke="black" points="511.5,-418.5 511.5,-437.5 628.5,-437.5 628.5,-418.5 511.5,-418.5"/>
<text text-anchor="middle" x="570" y="-425.5" font-family="Helvetica,sans-Serif" font-size="10.00">Component::Camera</text>
</a>
</g>
</g>
<!-- Node31&#45;&gt;Node40 -->
<g id="edge18" class="edge">
<title>Node31&#45;&gt;Node40</title>
<path fill="none" stroke="midnightblue" d="M443.49,-328.32C445.77,-329.74 447.96,-331.29 450,-333 478.69,-356.96 456.86,-385.59 486,-409 493.38,-414.92 502.25,-419.07 511.42,-421.97"/>
<polygon fill="midnightblue" stroke="midnightblue" points="444.73,-325.03 434.24,-323.52 441.51,-331.24 444.73,-325.03"/>
</g>
<!-- Node41 -->
<g id="node20" class="node">
<title>Node41</title>
<g id="a_node20"><a xlink:href="classComponent_1_1Draggable.html" target="_top" xlink:title="Draggable component (allows for objects to be selected and dragged with the mouse)">
<polygon fill="white" stroke="black" points="505.5,-380.5 505.5,-399.5 634.5,-399.5 634.5,-380.5 505.5,-380.5"/>
<text text-anchor="middle" x="570" y="-387.5" font-family="Helvetica,sans-Serif" font-size="10.00">Component::Draggable</text>
</a>
</g>
</g>
<!-- Node31&#45;&gt;Node41 -->
<g id="edge19" class="edge">
<title>Node31&#45;&gt;Node41</title>
<path fill="none" stroke="midnightblue" d="M438.34,-327.14C442.39,-328.86 446.33,-330.81 450,-333 469.98,-344.92 465.8,-359.47 486,-371 492.8,-374.88 500.35,-377.97 508.03,-380.43"/>
<polygon fill="midnightblue" stroke="midnightblue" points="439.3,-323.76 428.71,-323.51 436.83,-330.31 439.3,-323.76"/>
</g>
<!-- Node42 -->
<g id="node21" class="node">
<title>Node42</title>
<g id="a_node21"><a xlink:href="classComponent_1_1Explosion.html" target="_top" xlink:title="Explosion/Bomb component.">
<polygon fill="white" stroke="black" points="507,-342.5 507,-361.5 633,-361.5 633,-342.5 507,-342.5"/>
<text text-anchor="middle" x="570" y="-349.5" font-family="Helvetica,sans-Serif" font-size="10.00">Component::Explosion</text>
</a>
</g>
</g>
<!-- Node31&#45;&gt;Node42 -->
<g id="edge20" class="edge">
<title>Node31&#45;&gt;Node42</title>
<path fill="none" stroke="midnightblue" d="M437.39,-325.61C464.35,-331.01 496.01,-337.36 521.53,-342.48"/>
<polygon fill="midnightblue" stroke="midnightblue" points="437.81,-322.12 427.32,-323.59 436.44,-328.99 437.81,-322.12"/>
</g>
<!-- Node43 -->
<g id="node22" class="node">
<title>Node43</title>
<g id="a_node22"><a xlink:href="classComponent_1_1GameConfigurator.html" target="_top" xlink:title=" ">
<polygon fill="white" stroke="black" points="486,-304.5 486,-323.5 654,-323.5 654,-304.5 486,-304.5"/>
<text text-anchor="middle" x="570" y="-311.5" font-family="Helvetica,sans-Serif" font-size="10.00">Component::GameConfigurator</text>
</a>
</g>
</g>
<!-- Node31&#45;&gt;Node43 -->
<g id="edge21" class="edge">
<title>Node31&#45;&gt;Node43</title>
<path fill="none" stroke="midnightblue" d="M454.39,-314C464.72,-314 475.37,-314 485.84,-314"/>
<polygon fill="midnightblue" stroke="midnightblue" points="454.19,-310.5 444.19,-314 454.19,-317.5 454.19,-310.5"/>
</g>
<!-- Node44 -->
<g id="node23" class="node">
<title>Node44</title>
<g id="a_node23"><a xlink:href="classComponent_1_1HUD.html" target="_top" xlink:title="HUD base component class.">
<polygon fill="white" stroke="black" points="519.5,-266.5 519.5,-285.5 620.5,-285.5 620.5,-266.5 519.5,-266.5"/>
<text text-anchor="middle" x="570" y="-273.5" font-family="Helvetica,sans-Serif" font-size="10.00">Component::HUD</text>
</a>
</g>
</g>
<!-- Node31&#45;&gt;Node44 -->
<g id="edge22" class="edge">
<title>Node31&#45;&gt;Node44</title>
<path fill="none" stroke="midnightblue" d="M437.39,-302.39C464.35,-296.99 496.01,-290.64 521.53,-285.52"/>
<polygon fill="midnightblue" stroke="midnightblue" points="436.44,-299.01 427.32,-304.41 437.81,-305.88 436.44,-299.01"/>
</g>
<!-- Node48 -->
<g id="node27" class="node">
<title>Node48</title>
<g id="a_node27"><a xlink:href="classComponent_1_1Movement.html" target="_top" xlink:title="Behaviour script responsible for moving an entity.">
<polygon fill="white" stroke="black" points="504.5,-228.5 504.5,-247.5 635.5,-247.5 635.5,-228.5 504.5,-228.5"/>
<text text-anchor="middle" x="570" y="-235.5" font-family="Helvetica,sans-Serif" font-size="10.00">Component::Movement</text>
</a>
</g>
</g>
<!-- Node31&#45;&gt;Node48 -->
<g id="edge26" class="edge">
<title>Node31&#45;&gt;Node48</title>
<path fill="none" stroke="midnightblue" d="M438.34,-300.86C442.39,-299.14 446.33,-297.19 450,-295 469.98,-283.08 465.8,-268.53 486,-257 492.8,-253.12 500.35,-250.03 508.03,-247.57"/>
<polygon fill="midnightblue" stroke="midnightblue" points="436.83,-297.69 428.71,-304.49 439.3,-304.24 436.83,-297.69"/>
</g>
<!-- Node49 -->
<g id="node28" class="node">
<title>Node49</title>
<g id="a_node28"><a xlink:href="classComponent_1_1Particle.html" target="_top" xlink:title=" ">
<polygon fill="white" stroke="black" points="512.5,-190.5 512.5,-209.5 627.5,-209.5 627.5,-190.5 512.5,-190.5"/>
<text text-anchor="middle" x="570" y="-197.5" font-family="Helvetica,sans-Serif" font-size="10.00">Component::Particle</text>
</a>
</g>
</g>
<!-- Node31&#45;&gt;Node49 -->
<g id="edge27" class="edge">
<title>Node31&#45;&gt;Node49</title>
<path fill="none" stroke="midnightblue" d="M443.49,-299.68C445.77,-298.26 447.96,-296.71 450,-295 478.69,-271.04 456.86,-242.41 486,-219 493.61,-212.89 502.81,-208.67 512.28,-205.77"/>
<polygon fill="midnightblue" stroke="midnightblue" points="441.51,-296.76 434.24,-304.48 444.73,-302.97 441.51,-296.76"/>
</g>
<!-- Node50 -->
<g id="node29" class="node">
<title>Node50</title>
<g id="a_node29"><a xlink:href="classComponent_1_1TextBoxCallback.html" target="_top" xlink:title="Behaviour of the TextBox.">
<polygon fill="white" stroke="black" points="490,-152.5 490,-171.5 650,-171.5 650,-152.5 490,-152.5"/>
<text text-anchor="middle" x="570" y="-159.5" font-family="Helvetica,sans-Serif" font-size="10.00">Component::TextBoxCallback</text>
</a>
</g>
</g>
<!-- Node31&#45;&gt;Node50 -->
<g id="edge28" class="edge">
<title>Node31&#45;&gt;Node50</title>
<path fill="none" stroke="midnightblue" d="M445.19,-299.03C446.88,-297.79 448.49,-296.45 450,-295 488.36,-258.24 446.94,-217.02 486,-181 490.13,-177.19 494.86,-174.1 499.93,-171.58"/>
<polygon fill="midnightblue" stroke="midnightblue" points="442.96,-296.29 436.18,-304.43 446.56,-302.29 442.96,-296.29"/>
</g>
<!-- Node33 -->
<g id="node12" class="node">
<title>Node33</title>
<g id="a_node12"><a xlink:href="classComponent_1_1AIAlgo.html" target="_top" xlink:title=" ">
<polygon fill="white" stroke="black" points="713,-570.5 713,-589.5 823,-589.5 823,-570.5 713,-570.5"/>
<text text-anchor="middle" x="768" y="-577.5" font-family="Helvetica,sans-Serif" font-size="10.00">Component::AIAlgo</text>
</a>
</g>
</g>
<!-- Node32&#45;&gt;Node33 -->
<g id="edge11" class="edge">
<title>Node32&#45;&gt;Node33</title>
<path fill="none" stroke="midnightblue" d="M630.26,-553.49C658.23,-558.91 691.21,-565.31 717.77,-570.46"/>
<polygon fill="midnightblue" stroke="midnightblue" points="630.69,-550.01 620.21,-551.54 629.36,-556.88 630.69,-550.01"/>
</g>
<!-- Node34 -->
<g id="node13" class="node">
<title>Node34</title>
<g id="a_node13"><a xlink:href="classComponent_1_1PlayerInputs.html" target="_top" xlink:title=" ">
<polygon fill="white" stroke="black" points="698,-532.5 698,-551.5 838,-551.5 838,-532.5 698,-532.5"/>
<text text-anchor="middle" x="768" y="-539.5" font-family="Helvetica,sans-Serif" font-size="10.00">Component::PlayerInputs</text>
</a>
</g>
</g>
<!-- Node32&#45;&gt;Node34 -->
<g id="edge12" class="edge">
<title>Node32&#45;&gt;Node34</title>
<path fill="none" stroke="midnightblue" d="M647.32,-542C663.97,-542 681.5,-542 697.85,-542"/>
<polygon fill="midnightblue" stroke="midnightblue" points="647.08,-538.5 637.08,-542 647.08,-545.5 647.08,-538.5"/>
</g>
<!-- Node36 -->
<g id="node15" class="node">
<title>Node36</title>
<g id="a_node15"><a xlink:href="classComponent_1_1CoolDownBoost.html" target="_top" xlink:title=" ">
<polygon fill="white" stroke="black" points="690,-494.5 690,-513.5 846,-513.5 846,-494.5 690,-494.5"/>
<text text-anchor="middle" x="768" y="-501.5" font-family="Helvetica,sans-Serif" font-size="10.00">Component::CoolDownBoost</text>
</a>
</g>
</g>
<!-- Node35&#45;&gt;Node36 -->
<g id="edge14" class="edge">
<title>Node35&#45;&gt;Node36</title>
<path fill="none" stroke="midnightblue" d="M639.96,-504C656.11,-504 673.41,-504 689.89,-504"/>
<polygon fill="midnightblue" stroke="midnightblue" points="639.54,-500.5 629.54,-504 639.54,-507.5 639.54,-500.5"/>
</g>
<!-- Node37 -->
<g id="node16" class="node">
<title>Node37</title>
<g id="a_node16"><a xlink:href="classComponent_1_1RangeBoost.html" target="_top" xlink:title=" ">
<polygon fill="white" stroke="black" points="699.5,-456.5 699.5,-475.5 836.5,-475.5 836.5,-456.5 699.5,-456.5"/>
<text text-anchor="middle" x="768" y="-463.5" font-family="Helvetica,sans-Serif" font-size="10.00">Component::RangeBoost</text>
</a>
</g>
</g>
<!-- Node35&#45;&gt;Node37 -->
<g id="edge15" class="edge">
<title>Node35&#45;&gt;Node37</title>
<path fill="none" stroke="midnightblue" d="M630.26,-492.51C658.23,-487.09 691.21,-480.69 717.77,-475.54"/>
<polygon fill="midnightblue" stroke="midnightblue" points="629.36,-489.12 620.21,-494.46 630.69,-495.99 629.36,-489.12"/>
</g>
<!-- Node38 -->
<g id="node17" class="node">
<title>Node38</title>
<g id="a_node17"><a xlink:href="classComponent_1_1SpeedBoost.html" target="_top" xlink:title=" ">
<polygon fill="white" stroke="black" points="699.5,-418.5 699.5,-437.5 836.5,-437.5 836.5,-418.5 699.5,-418.5"/>
<text text-anchor="middle" x="768" y="-425.5" font-family="Helvetica,sans-Serif" font-size="10.00">Component::SpeedBoost</text>
</a>
</g>
</g>
<!-- Node35&#45;&gt;Node38 -->
<g id="edge16" class="edge">
<title>Node35&#45;&gt;Node38</title>
<path fill="none" stroke="midnightblue" d="M639.58,-491.76C644.6,-489.83 649.46,-487.59 654,-485 674.2,-473.47 669.89,-458.7 690,-447 696.66,-443.12 704.1,-440.03 711.64,-437.57"/>
<polygon fill="midnightblue" stroke="midnightblue" points="638.11,-488.56 629.79,-495.11 640.38,-495.18 638.11,-488.56"/>
</g>
<!-- Node45 -->
<g id="node24" class="node">
<title>Node45</title>
<g id="a_node24"><a xlink:href="classComponent_1_1HUDBonusBar.html" target="_top" xlink:title=" ">
<polygon fill="white" stroke="black" points="694,-304.5 694,-323.5 842,-323.5 842,-304.5 694,-304.5"/>
<text text-anchor="middle" x="768" y="-311.5" font-family="Helvetica,sans-Serif" font-size="10.00">Component::HUDBonusBar</text>
</a>
</g>
</g>
<!-- Node44&#45;&gt;Node45 -->
<g id="edge23" class="edge">
<title>Node44&#45;&gt;Node45</title>
<path fill="none" stroke="midnightblue" d="M630.26,-287.49C658.23,-292.91 691.21,-299.31 717.77,-304.46"/>
<polygon fill="midnightblue" stroke="midnightblue" points="630.69,-284.01 620.21,-285.54 629.36,-290.88 630.69,-284.01"/>
</g>
<!-- Node46 -->
<g id="node25" class="node">
<title>Node46</title>
<g id="a_node25"><a xlink:href="classComponent_1_1HUDBonusIcon.html" target="_top" xlink:title=" ">
<polygon fill="white" stroke="black" points="692,-266.5 692,-285.5 844,-285.5 844,-266.5 692,-266.5"/>
<text text-anchor="middle" x="768" y="-273.5" font-family="Helvetica,sans-Serif" font-size="10.00">Component::HUDBonusIcon</text>
</a>
</g>
</g>
<!-- Node44&#45;&gt;Node46 -->
<g id="edge24" class="edge">
<title>Node44&#45;&gt;Node46</title>
<path fill="none" stroke="midnightblue" d="M630.83,-276C650.05,-276 671.59,-276 691.77,-276"/>
<polygon fill="midnightblue" stroke="midnightblue" points="630.71,-272.5 620.71,-276 630.71,-279.5 630.71,-272.5"/>
</g>
<!-- Node47 -->
<g id="node26" class="node">
<title>Node47</title>
<g id="a_node26"><a xlink:href="classComponent_1_1HUDText.html" target="_top" xlink:title=" ">
<polygon fill="white" stroke="black" points="707,-228.5 707,-247.5 829,-247.5 829,-228.5 707,-228.5"/>
<text text-anchor="middle" x="768" y="-235.5" font-family="Helvetica,sans-Serif" font-size="10.00">Component::HUDText</text>
</a>
</g>
</g>
<!-- Node44&#45;&gt;Node47 -->
<g id="edge25" class="edge">
<title>Node44&#45;&gt;Node47</title>
<path fill="none" stroke="midnightblue" d="M630.26,-264.51C658.23,-259.09 691.21,-252.69 717.77,-247.54"/>
<polygon fill="midnightblue" stroke="midnightblue" points="629.36,-261.12 620.21,-266.46 630.69,-267.99 629.36,-261.12"/>
</g>
<!-- Node52 -->
<g id="node31" class="node">
<title>Node52</title>
<g id="a_node31"><a xlink:href="classComponent_1_1Button.html" target="_top" xlink:title="Button class.">
<polygon fill="white" stroke="black" points="514.5,-114.5 514.5,-133.5 625.5,-133.5 625.5,-114.5 514.5,-114.5"/>
<text text-anchor="middle" x="570" y="-121.5" font-family="Helvetica,sans-Serif" font-size="10.00">Component::Button</text>
</a>
</g>
</g>
<!-- Node51&#45;&gt;Node52 -->
<g id="edge30" class="edge">
<title>Node51&#45;&gt;Node52</title>
<path fill="none" stroke="midnightblue" d="M445.19,-261.03C446.88,-259.79 448.49,-258.45 450,-257 488.36,-220.24 446.94,-179.02 486,-143 493.82,-135.78 503.81,-131.12 514.13,-128.15"/>
<polygon fill="midnightblue" stroke="midnightblue" points="442.96,-258.29 436.18,-266.43 446.56,-264.29 442.96,-258.29"/>
</g>
<!-- Node53 -->
<g id="node32" class="node">
<title>Node53</title>
<g id="a_node32"><a xlink:href="classComponent_1_1TextBox.html" target="_top" xlink:title="Component where it&#39;s possible to enter text and show it.">
<polygon fill="white" stroke="black" points="511,-76.5 511,-95.5 629,-95.5 629,-76.5 511,-76.5"/>
<text text-anchor="middle" x="570" y="-83.5" font-family="Helvetica,sans-Serif" font-size="10.00">Component::TextBox</text>
</a>
</g>
</g>
<!-- Node51&#45;&gt;Node53 -->
<g id="edge31" class="edge">
<title>Node51&#45;&gt;Node53</title>
<path fill="none" stroke="midnightblue" d="M445.95,-260.68C447.37,-259.54 448.73,-258.31 450,-257 498.33,-207.16 436.73,-153.91 486,-105 492.82,-98.23 501.53,-93.67 510.72,-90.64"/>
<polygon fill="midnightblue" stroke="midnightblue" points="443.65,-258 437.16,-266.38 447.46,-263.88 443.65,-258"/>
</g>
<!-- Node54 -->
<g id="node33" class="node">
<title>Node54</title>
<g id="a_node33"><a xlink:href="classComponent_1_1TextUI.html" target="_top" xlink:title=" ">
<polygon fill="white" stroke="black" points="515,-38.5 515,-57.5 625,-57.5 625,-38.5 515,-38.5"/>
<text text-anchor="middle" x="570" y="-45.5" font-family="Helvetica,sans-Serif" font-size="10.00">Component::TextUI</text>
</a>
</g>
</g>
<!-- Node51&#45;&gt;Node54 -->
<g id="edge32" class="edge">
<title>Node51&#45;&gt;Node54</title>
<path fill="none" stroke="midnightblue" d="M446.13,-260.68C447.49,-259.53 448.79,-258.31 450,-257 508.42,-193.96 426.39,-128.91 486,-67 493.69,-59.01 504,-54.08 514.73,-51.09"/>
<polygon fill="midnightblue" stroke="midnightblue" points="444.02,-257.88 437.68,-266.37 447.93,-263.69 444.02,-257.88"/>
</g>
<!-- Node56 -->
<g id="node35" class="node">
<title>Node56</title>
<g id="a_node35"><a xlink:href="classTerrainShader.html" target="_top" xlink:title=" ">
<polygon fill="white" stroke="black" points="528.5,-0.5 528.5,-19.5 611.5,-19.5 611.5,-0.5 528.5,-0.5"/>
<text text-anchor="middle" x="570" y="-7.5" font-family="Helvetica,sans-Serif" font-size="10.00">TerrainShader</text>
</a>
</g>
</g>
<!-- Node55&#45;&gt;Node56 -->
<g id="edge34" class="edge">
<title>Node55&#45;&gt;Node56</title>
<path fill="none" stroke="midnightblue" d="M446.13,-222.68C447.49,-221.53 448.79,-220.31 450,-219 508.42,-155.96 426.39,-90.91 486,-29 496.87,-17.71 512.97,-12.52 528.1,-10.3"/>
<polygon fill="midnightblue" stroke="midnightblue" points="444.02,-219.88 437.68,-228.37 447.93,-225.69 444.02,-219.88"/>
</g>
<!-- Node3 -->
<g id="node45" class="node">
<title>Node3</title>
<g id="a_node45"><a xlink:title=" ">
<polygon fill="white" stroke="#bfbfbf" points="22.5,-114.5 22.5,-133.5 75.5,-133.5 75.5,-114.5 22.5,-114.5"/>
<text text-anchor="middle" x="49" y="-121.5" font-family="Helvetica,sans-Serif" font-size="10.00">Vector3</text>
</a>
</g>
</g>
<!-- Node3&#45;&gt;Node0 -->
<g id="edge44" class="edge">
<title>Node3&#45;&gt;Node0</title>
<path fill="none" stroke="midnightblue" d="M85.85,-124C106.94,-124 133.8,-124 156.33,-124"/>
<polygon fill="midnightblue" stroke="midnightblue" points="85.7,-120.5 75.7,-124 85.7,-127.5 85.7,-120.5"/>
</g>
</g>
</svg>
