<?xml version="1.0" encoding="UTF-8" standalone="no"?>
<!DOCTYPE svg PUBLIC "-//W3C//DTD SVG 1.1//EN"
 "http://www.w3.org/Graphics/SVG/1.1/DTD/svg11.dtd">
<!-- Generated by graphviz version 2.43.0 (0)
 -->
<!-- Title: Graphical Class Hierarchy Pages: 1 -->
<svg width="294pt" height="294pt"
 viewBox="0.00 0.00 294.00 294.00" xmlns="http://www.w3.org/2000/svg" xmlns:xlink="http://www.w3.org/1999/xlink">
<g id="graph0" class="graph" transform="scale(1 1) rotate(0) translate(4 290)">
<title>Graphical Class Hierarchy</title>
<polygon fill="white" stroke="transparent" points="-4,4 -4,-290 290,-290 290,4 -4,4"/>
<!-- Node0 -->
<g id="node1" class="node">
<title>Node0</title>
<g id="a_node1"><a xlink:href="classECS_1_1ASystem.html" target="_top" xlink:title="Base Abstract class to create a new System.">
<polygon fill="white" stroke="black" points="0,-133.5 0,-152.5 85,-152.5 85,-133.5 0,-133.5"/>
<text text-anchor="middle" x="42.5" y="-140.5" font-family="Helvetica,sans-Serif" font-size="10.00">ECS::ASystem</text>
</a>
</g>
</g>
<!-- Node1 -->
<g id="node2" class="node">
<title>Node1</title>
<g id="a_node2"><a xlink:href="classAddSystem.html" target="_top" xlink:title=" ">
<polygon fill="white" stroke="black" points="167.5,-266.5 167.5,-285.5 239.5,-285.5 239.5,-266.5 167.5,-266.5"/>
<text text-anchor="middle" x="203.5" y="-273.5" font-family="Helvetica,sans-Serif" font-size="10.00">AddSystem</text>
</a>
</g>
</g>
<!-- Node0&#45;&gt;Node1 -->
<g id="edge1" class="edge">
<title>Node0&#45;&gt;Node1</title>
<path fill="none" stroke="midnightblue" d="M51.17,-162.17C62.49,-187.89 86.14,-233.08 121,-257 134.54,-266.29 152,-271.08 167.29,-273.53"/>
<polygon fill="midnightblue" stroke="midnightblue" points="54.31,-160.61 47.2,-152.76 47.86,-163.33 54.31,-160.61"/>
</g>
<!-- Node2 -->
<g id="node3" class="node">
<title>Node2</title>
<g id="a_node3"><a xlink:href="classAIMapsGenerator.html" target="_top" xlink:title=" ">
<polygon fill="white" stroke="black" points="153,-228.5 153,-247.5 254,-247.5 254,-228.5 153,-228.5"/>
<text text-anchor="middle" x="203.5" y="-235.5" font-family="Helvetica,sans-Serif" font-size="10.00">AIMapsGenerator</text>
</a>
</g>
</g>
<!-- Node0&#45;&gt;Node2 -->
<g id="edge2" class="edge">
<title>Node0&#45;&gt;Node2</title>
<path fill="none" stroke="midnightblue" d="M56.85,-160.89C70.88,-178.39 94.56,-204.47 121,-219 130.68,-224.32 141.79,-228.15 152.64,-230.91"/>
<polygon fill="midnightblue" stroke="midnightblue" points="59.33,-158.38 50.43,-152.63 53.8,-162.67 59.33,-158.38"/>
</g>
<!-- Node3 -->
<g id="node4" class="node">
<title>Node3</title>
<g id="a_node4"><a xlink:href="classComponent_1_1BehaviourSystem.html" target="_top" xlink:title=" ">
<polygon fill="white" stroke="black" points="121,-190.5 121,-209.5 286,-209.5 286,-190.5 121,-190.5"/>
<text text-anchor="middle" x="203.5" y="-197.5" font-family="Helvetica,sans-Serif" font-size="10.00">Component::BehaviourSystem</text>
</a>
</g>
</g>
<!-- Node0&#45;&gt;Node3 -->
<g id="edge3" class="edge">
<title>Node0&#45;&gt;Node3</title>
<path fill="none" stroke="midnightblue" d="M69.28,-157.48C84.06,-165.31 103.17,-174.64 121,-181 131.26,-184.66 142.51,-187.8 153.28,-190.42"/>
<polygon fill="midnightblue" stroke="midnightblue" points="70.71,-154.27 60.25,-152.6 67.39,-160.43 70.71,-154.27"/>
</g>
<!-- Node4 -->
<g id="node5" class="node">
<title>Node4</title>
<g id="a_node5"><a xlink:href="classComponent_1_1PauseSystem.html" target="_top" xlink:title=" ">
<polygon fill="white" stroke="black" points="131.5,-152.5 131.5,-171.5 275.5,-171.5 275.5,-152.5 131.5,-152.5"/>
<text text-anchor="middle" x="203.5" y="-159.5" font-family="Helvetica,sans-Serif" font-size="10.00">Component::PauseSystem</text>
</a>
</g>
</g>
<!-- Node0&#45;&gt;Node4 -->
<g id="edge4" class="edge">
<title>Node0&#45;&gt;Node4</title>
<path fill="none" stroke="midnightblue" d="M95.55,-149.22C107.04,-150.59 119.4,-152.07 131.49,-153.52"/>
<polygon fill="midnightblue" stroke="midnightblue" points="95.62,-145.7 85.28,-147.99 94.79,-152.65 95.62,-145.7"/>
</g>
<!-- Node5 -->
<g id="node6" class="node">
<title>Node5</title>
<g id="a_node6"><a xlink:href="classComponent_1_1PhysicsSystem.html" target="_top" xlink:title=" ">
<polygon fill="white" stroke="black" points="127.5,-114.5 127.5,-133.5 279.5,-133.5 279.5,-114.5 127.5,-114.5"/>
<text text-anchor="middle" x="203.5" y="-121.5" font-family="Helvetica,sans-Serif" font-size="10.00">Component::PhysicsSystem</text>
</a>
</g>
</g>
<!-- Node0&#45;&gt;Node5 -->
<g id="edge5" class="edge">
<title>Node0&#45;&gt;Node5</title>
<path fill="none" stroke="midnightblue" d="M95.3,-136.81C105.6,-135.58 116.6,-134.27 127.49,-132.96"/>
<polygon fill="midnightblue" stroke="midnightblue" points="94.79,-133.35 85.28,-138.01 95.62,-140.3 94.79,-133.35"/>
</g>
<!-- Node6 -->
<g id="node7" class="node">
<title>Node6</title>
<g id="a_node7"><a xlink:href="classComponent_1_1RenderSystem.html" target="_top" xlink:title="Renderer system.">
<polygon fill="white" stroke="black" points="128.5,-76.5 128.5,-95.5 278.5,-95.5 278.5,-76.5 128.5,-76.5"/>
<text text-anchor="middle" x="203.5" y="-83.5" font-family="Helvetica,sans-Serif" font-size="10.00">Component::RenderSystem</text>
</a>
</g>
</g>
<!-- Node0&#45;&gt;Node6 -->
<g id="edge6" class="edge">
<title>Node0&#45;&gt;Node6</title>
<path fill="none" stroke="midnightblue" d="M69.28,-128.52C84.06,-120.69 103.17,-111.36 121,-105 131.26,-101.34 142.51,-98.2 153.28,-95.58"/>
<polygon fill="midnightblue" stroke="midnightblue" points="67.39,-125.57 60.25,-133.4 70.71,-131.73 67.39,-125.57"/>
</g>
<!-- Node7 -->
<g id="node8" class="node">
<title>Node7</title>
<g id="a_node8"><a xlink:href="classComponent_1_1UISystem.html" target="_top" xlink:title="UI System.">
<polygon fill="white" stroke="black" points="140.5,-38.5 140.5,-57.5 266.5,-57.5 266.5,-38.5 140.5,-38.5"/>
<text text-anchor="middle" x="203.5" y="-45.5" font-family="Helvetica,sans-Serif" font-size="10.00">Component::UISystem</text>
</a>
</g>
</g>
<!-- Node0&#45;&gt;Node7 -->
<g id="edge7" class="edge">
<title>Node0&#45;&gt;Node7</title>
<path fill="none" stroke="midnightblue" d="M56.85,-125.11C70.88,-107.61 94.56,-81.53 121,-67 128,-63.15 135.76,-60.08 143.62,-57.63"/>
<polygon fill="midnightblue" stroke="midnightblue" points="53.8,-123.33 50.43,-133.37 59.33,-127.62 53.8,-123.33"/>
</g>
<!-- Node8 -->
<g id="node9" class="node">
<title>Node8</title>
<g id="a_node9"><a xlink:href="classMoveSystem.html" target="_top" xlink:title=" ">
<polygon fill="white" stroke="black" points="163.5,-0.5 163.5,-19.5 243.5,-19.5 243.5,-0.5 163.5,-0.5"/>
<text text-anchor="middle" x="203.5" y="-7.5" font-family="Helvetica,sans-Serif" font-size="10.00">MoveSystem</text>
</a>
</g>
</g>
<!-- Node0&#45;&gt;Node8 -->
<g id="edge8" class="edge">
<title>Node0&#45;&gt;Node8</title>
<path fill="none" stroke="midnightblue" d="M51.17,-123.83C62.49,-98.11 86.14,-52.92 121,-29 133.34,-20.53 148.94,-15.8 163.19,-13.17"/>
<polygon fill="midnightblue" stroke="midnightblue" points="47.86,-122.67 47.2,-133.24 54.31,-125.39 47.86,-122.67"/>
</g>
</g>
</svg>
