<?xml version="1.0" encoding="UTF-8" standalone="no"?>
<!DOCTYPE svg PUBLIC "-//W3C//DTD SVG 1.1//EN"
 "http://www.w3.org/Graphics/SVG/1.1/DTD/svg11.dtd">
<!-- Generated by graphviz version 2.43.0 (0)
 -->
<!-- Title: Libs/Engine/sources/Components/IUIObject/IUIObject.hpp Pages: 1 -->
<svg width="1923pt" height="362pt"
 viewBox="0.00 0.00 1922.50 362.00" xmlns="http://www.w3.org/2000/svg" xmlns:xlink="http://www.w3.org/1999/xlink">
<g id="graph0" class="graph" transform="scale(1 1) rotate(0) translate(4 358)">
<title>Libs/Engine/sources/Components/IUIObject/IUIObject.hpp</title>
<polygon fill="white" stroke="transparent" points="-4,4 -4,-358 1918.5,-358 1918.5,4 -4,4"/>
<!-- Node1 -->
<g id="node1" class="node">
<title>Node1</title>
<g id="a_node1"><a xlink:title=" ">
<polygon fill="#bfbfbf" stroke="black" points="1174.5,-312.5 1174.5,-353.5 1303.5,-353.5 1303.5,-312.5 1174.5,-312.5"/>
<text text-anchor="start" x="1182.5" y="-341.5" font-family="Helvetica,sans-Serif" font-size="10.00">Libs/Engine/sources</text>
<text text-anchor="start" x="1182.5" y="-330.5" font-family="Helvetica,sans-Serif" font-size="10.00">/Components/IUIObject</text>
<text text-anchor="middle" x="1239" y="-319.5" font-family="Helvetica,sans-Serif" font-size="10.00">/IUIObject.hpp</text>
</a>
</g>
</g>
<!-- Node2 -->
<g id="node2" class="node">
<title>Node2</title>
<g id="a_node2"><a xlink:href="Button_8hpp.html" target="_top" xlink:title=" ">
<polygon fill="white" stroke="black" points="828.5,-240 828.5,-270 1001.5,-270 1001.5,-240 828.5,-240"/>
<text text-anchor="start" x="836.5" y="-258" font-family="Helvetica,sans-Serif" font-size="10.00">Libs/Engine/sources</text>
<text text-anchor="middle" x="915" y="-247" font-family="Helvetica,sans-Serif" font-size="10.00">/Components/Button/Button.hpp</text>
</a>
</g>
</g>
<!-- Node1&#45;&gt;Node2 -->
<g id="edge1" class="edge">
<title>Node1&#45;&gt;Node2</title>
<path fill="none" stroke="midnightblue" d="M1164.44,-314.51C1106.86,-301 1028.24,-282.56 974.76,-270.02"/>
<polygon fill="midnightblue" stroke="midnightblue" points="1163.68,-317.93 1174.21,-316.8 1165.28,-311.11 1163.68,-317.93"/>
</g>
<!-- Node8 -->
<g id="node8" class="node">
<title>Node8</title>
<g id="a_node8"><a xlink:href="Scenes_8cpp.html" target="_top" xlink:title=" ">
<polygon fill="white" stroke="black" points="1061.5,-6 1061.5,-36 1174.5,-36 1174.5,-6 1061.5,-6"/>
<text text-anchor="start" x="1069.5" y="-24" font-family="Helvetica,sans-Serif" font-size="10.00">Libs/Engine/sources</text>
<text text-anchor="middle" x="1118" y="-13" font-family="Helvetica,sans-Serif" font-size="10.00">/Scenes/Scenes.cpp</text>
</a>
</g>
</g>
<!-- Node1&#45;&gt;Node8 -->
<g id="edge38" class="edge">
<title>Node1&#45;&gt;Node8</title>
<path fill="none" stroke="midnightblue" d="M1233.26,-302.46C1223.05,-253.76 1199.07,-154.43 1160,-78 1152.15,-62.63 1140.08,-47.08 1130.9,-36.28"/>
<polygon fill="midnightblue" stroke="midnightblue" points="1229.84,-303.24 1235.28,-312.33 1236.7,-301.83 1229.84,-303.24"/>
</g>
<!-- Node9 -->
<g id="node9" class="node">
<title>Node9</title>
<g id="a_node9"><a xlink:href="Scenes_8hpp.html" target="_top" xlink:title=" ">
<polygon fill="white" stroke="black" points="1021.5,-84 1021.5,-114 1134.5,-114 1134.5,-84 1021.5,-84"/>
<text text-anchor="start" x="1029.5" y="-102" font-family="Helvetica,sans-Serif" font-size="10.00">Libs/Engine/sources</text>
<text text-anchor="middle" x="1078" y="-91" font-family="Helvetica,sans-Serif" font-size="10.00">/Scenes/Scenes.hpp</text>
</a>
</g>
</g>
<!-- Node1&#45;&gt;Node9 -->
<g id="edge39" class="edge">
<title>Node1&#45;&gt;Node9</title>
<path fill="none" stroke="midnightblue" d="M1219.44,-303.82C1184.81,-253.91 1113.88,-151.7 1087.86,-114.2"/>
<polygon fill="midnightblue" stroke="midnightblue" points="1216.7,-306 1225.27,-312.22 1222.45,-302.01 1216.7,-306"/>
</g>
<!-- Node15 -->
<g id="node15" class="node">
<title>Node15</title>
<g id="a_node15"><a xlink:href="TextBox_8hpp.html" target="_top" xlink:title=" ">
<polygon fill="white" stroke="black" points="1590.5,-156.5 1590.5,-197.5 1713.5,-197.5 1713.5,-156.5 1590.5,-156.5"/>
<text text-anchor="start" x="1598.5" y="-185.5" font-family="Helvetica,sans-Serif" font-size="10.00">Libs/Engine/sources</text>
<text text-anchor="start" x="1598.5" y="-174.5" font-family="Helvetica,sans-Serif" font-size="10.00">/Components/TextBox</text>
<text text-anchor="middle" x="1652" y="-163.5" font-family="Helvetica,sans-Serif" font-size="10.00">/TextBox.hpp</text>
</a>
</g>
</g>
<!-- Node1&#45;&gt;Node15 -->
<g id="edge26" class="edge">
<title>Node1&#45;&gt;Node15</title>
<path fill="none" stroke="midnightblue" d="M1283.02,-307.23C1298.08,-298.09 1314.72,-287.2 1329,-276 1350.02,-259.51 1348.37,-246.47 1372,-234 1441.17,-197.51 1531.41,-184.72 1590.49,-180.29"/>
<polygon fill="midnightblue" stroke="midnightblue" points="1281.15,-304.27 1274.37,-312.41 1284.75,-310.28 1281.15,-304.27"/>
</g>
<!-- Node19 -->
<g id="node19" class="node">
<title>Node19</title>
<g id="a_node19"><a xlink:href="TextUI_8hpp.html" target="_top" xlink:title=" ">
<polygon fill="white" stroke="black" points="1343,-84 1343,-114 1513,-114 1513,-84 1343,-84"/>
<text text-anchor="start" x="1351" y="-102" font-family="Helvetica,sans-Serif" font-size="10.00">Libs/Engine/sources</text>
<text text-anchor="middle" x="1428" y="-91" font-family="Helvetica,sans-Serif" font-size="10.00">/Components/TextUI/TextUI.hpp</text>
</a>
</g>
</g>
<!-- Node1&#45;&gt;Node19 -->
<g id="edge33" class="edge">
<title>Node1&#45;&gt;Node19</title>
<path fill="none" stroke="midnightblue" d="M1261.45,-304.44C1301.93,-254.76 1385.75,-151.86 1416.43,-114.2"/>
<polygon fill="midnightblue" stroke="midnightblue" points="1258.72,-302.26 1255.11,-312.22 1264.14,-306.68 1258.72,-302.26"/>
</g>
<!-- Node21 -->
<g id="node21" class="node">
<title>Node21</title>
<g id="a_node21"><a xlink:href="RenderSystem_8cpp.html" target="_top" xlink:title=" ">
<polygon fill="white" stroke="black" points="1381,-234.5 1381,-275.5 1517,-275.5 1517,-234.5 1381,-234.5"/>
<text text-anchor="start" x="1389" y="-263.5" font-family="Helvetica,sans-Serif" font-size="10.00">Libs/Engine/sources</text>
<text text-anchor="start" x="1389" y="-252.5" font-family="Helvetica,sans-Serif" font-size="10.00">/Systems/RenderSystem</text>
<text text-anchor="middle" x="1449" y="-241.5" font-family="Helvetica,sans-Serif" font-size="10.00">/RenderSystem.cpp</text>
</a>
</g>
</g>
<!-- Node1&#45;&gt;Node21 -->
<g id="edge40" class="edge">
<title>Node1&#45;&gt;Node21</title>
<path fill="none" stroke="midnightblue" d="M1302.86,-308.89C1332.34,-298.22 1366.96,-285.69 1395.1,-275.51"/>
<polygon fill="midnightblue" stroke="midnightblue" points="1301.29,-305.73 1293.08,-312.43 1303.67,-312.32 1301.29,-305.73"/>
</g>
<!-- Node22 -->
<g id="node22" class="node">
<title>Node22</title>
<g id="a_node22"><a xlink:href="UISystem_8hpp.html" target="_top" xlink:title=" ">
<polygon fill="white" stroke="black" points="309.5,-84 309.5,-114 492.5,-114 492.5,-84 309.5,-84"/>
<text text-anchor="start" x="317.5" y="-102" font-family="Helvetica,sans-Serif" font-size="10.00">Libs/Engine/sources</text>
<text text-anchor="middle" x="401" y="-91" font-family="Helvetica,sans-Serif" font-size="10.00">/Systems/UISystem/UISystem.hpp</text>
</a>
</g>
</g>
<!-- Node1&#45;&gt;Node22 -->
<g id="edge41" class="edge">
<title>Node1&#45;&gt;Node22</title>
<path fill="none" stroke="midnightblue" d="M1163.97,-332.17C1027.32,-329.53 732.06,-310.06 516,-198 473.62,-176.02 433.37,-135.76 413.65,-114.32"/>
<polygon fill="midnightblue" stroke="midnightblue" points="1164.26,-335.67 1174.32,-332.34 1164.38,-328.67 1164.26,-335.67"/>
</g>
<!-- Node3 -->
<g id="node3" class="node">
<title>Node3</title>
<g id="a_node3"><a xlink:href="Bomberman_2sources_2main_8cpp.html" target="_top" xlink:title=" ">
<polygon fill="white" stroke="black" points="687.5,-11.5 687.5,-30.5 852.5,-30.5 852.5,-11.5 687.5,-11.5"/>
<text text-anchor="middle" x="770" y="-18.5" font-family="Helvetica,sans-Serif" font-size="10.00">Bomberman/sources/main.cpp</text>
</a>
</g>
</g>
<!-- Node2&#45;&gt;Node3 -->
<g id="edge2" class="edge">
<title>Node2&#45;&gt;Node3</title>
<path fill="none" stroke="midnightblue" d="M875.44,-234.99C858.31,-225.48 838.83,-212.83 824,-198 795.22,-169.22 788.28,-158.81 776,-120 765.97,-88.31 767.74,-48.04 769.15,-30.64"/>
<polygon fill="midnightblue" stroke="midnightblue" points="874.21,-238.3 884.67,-239.94 877.52,-232.13 874.21,-238.3"/>
</g>
<!-- Node4 -->
<g id="node4" class="node">
<title>Node4</title>
<g id="a_node4"><a xlink:href="Button_8cpp.html" target="_top" xlink:title=" ">
<polygon fill="white" stroke="black" points="549,-162 549,-192 721,-192 721,-162 549,-162"/>
<text text-anchor="start" x="557" y="-180" font-family="Helvetica,sans-Serif" font-size="10.00">Libs/Engine/sources</text>
<text text-anchor="middle" x="635" y="-169" font-family="Helvetica,sans-Serif" font-size="10.00">/Components/Button/Button.cpp</text>
</a>
</g>
</g>
<!-- Node2&#45;&gt;Node4 -->
<g id="edge3" class="edge">
<title>Node2&#45;&gt;Node4</title>
<path fill="none" stroke="midnightblue" d="M853.61,-237.34C803.68,-223.78 734.02,-204.88 686.85,-192.07"/>
<polygon fill="midnightblue" stroke="midnightblue" points="852.75,-240.73 863.32,-239.97 854.58,-233.97 852.75,-240.73"/>
</g>
<!-- Node5 -->
<g id="node5" class="node">
<title>Node5</title>
<g id="a_node5"><a xlink:href="ButtonCallbacks_8hpp.html" target="_top" xlink:title=" ">
<polygon fill="white" stroke="black" points="833,-156.5 833,-197.5 997,-197.5 997,-156.5 833,-156.5"/>
<text text-anchor="start" x="841" y="-185.5" font-family="Helvetica,sans-Serif" font-size="10.00">Libs/Engine/sources</text>
<text text-anchor="start" x="841" y="-174.5" font-family="Helvetica,sans-Serif" font-size="10.00">/Components/ButtonCallbacks</text>
<text text-anchor="middle" x="915" y="-163.5" font-family="Helvetica,sans-Serif" font-size="10.00">/ButtonCallbacks.hpp</text>
</a>
</g>
</g>
<!-- Node2&#45;&gt;Node5 -->
<g id="edge4" class="edge">
<title>Node2&#45;&gt;Node5</title>
<path fill="none" stroke="midnightblue" d="M915,-229.66C915,-219.33 915,-207.44 915,-197.68"/>
<polygon fill="midnightblue" stroke="midnightblue" points="911.5,-229.7 915,-239.7 918.5,-229.71 911.5,-229.7"/>
</g>
<!-- Node7 -->
<g id="node7" class="node">
<title>Node7</title>
<g id="a_node7"><a xlink:href="EntityFactory_8cpp.html" target="_top" xlink:title=" ">
<polygon fill="white" stroke="black" points="1192.5,-6 1192.5,-36 1361.5,-36 1361.5,-6 1192.5,-6"/>
<text text-anchor="start" x="1200.5" y="-24" font-family="Helvetica,sans-Serif" font-size="10.00">Libs/Engine/sources</text>
<text text-anchor="middle" x="1277" y="-13" font-family="Helvetica,sans-Serif" font-size="10.00">/EntityFactory/EntityFactory.cpp</text>
</a>
</g>
</g>
<!-- Node2&#45;&gt;Node7 -->
<g id="edge21" class="edge">
<title>Node2&#45;&gt;Node7</title>
<path fill="none" stroke="midnightblue" d="M1002.05,-237.5C1035.91,-228.82 1074.14,-216.1 1106,-198 1181.19,-155.27 1244.66,-69.64 1267.71,-36.01"/>
<polygon fill="midnightblue" stroke="midnightblue" points="1001.02,-234.15 992.16,-239.96 1002.71,-240.94 1001.02,-234.15"/>
</g>
<!-- Node2&#45;&gt;Node8 -->
<g id="edge22" class="edge">
<title>Node2&#45;&gt;Node8</title>
<path fill="none" stroke="midnightblue" d="M981.06,-236.82C1036.67,-218.33 1112.09,-182.75 1144,-120 1158.12,-92.23 1140.29,-56.01 1127.93,-36.3"/>
<polygon fill="midnightblue" stroke="midnightblue" points="979.72,-233.58 971.27,-239.97 981.86,-240.24 979.72,-233.58"/>
</g>
<!-- Node2&#45;&gt;Node9 -->
<g id="edge23" class="edge">
<title>Node2&#45;&gt;Node9</title>
<path fill="none" stroke="midnightblue" d="M953.24,-234.84C970.44,-225.17 990.34,-212.42 1006,-198 1033.79,-172.4 1057.92,-134.68 1069.92,-114.32"/>
<polygon fill="midnightblue" stroke="midnightblue" points="951.1,-232.02 944.01,-239.89 954.46,-238.16 951.1,-232.02"/>
</g>
<!-- Node11 -->
<g id="node11" class="node">
<title>Node11</title>
<g id="a_node11"><a xlink:href="Prototype_2sources_2Behaviour_2main_8cpp.html" target="_top" xlink:title=" ">
<polygon fill="white" stroke="black" points="512.5,-6 512.5,-36 669.5,-36 669.5,-6 512.5,-6"/>
<text text-anchor="start" x="520.5" y="-24" font-family="Helvetica,sans-Serif" font-size="10.00">Prototype/sources/Behaviour</text>
<text text-anchor="middle" x="591" y="-13" font-family="Helvetica,sans-Serif" font-size="10.00">/main.cpp</text>
</a>
</g>
</g>
<!-- Node2&#45;&gt;Node11 -->
<g id="edge25" class="edge">
<title>Node2&#45;&gt;Node11</title>
<path fill="none" stroke="midnightblue" d="M818.37,-253.35C719.43,-250.39 575.26,-238.92 540,-198 505.18,-157.6 520.75,-127.74 540,-78 546.5,-61.2 560.65,-46.34 572.4,-36.16"/>
<polygon fill="midnightblue" stroke="midnightblue" points="818.31,-256.85 828.4,-253.63 818.5,-249.85 818.31,-256.85"/>
</g>
<!-- Node12 -->
<g id="node12" class="node">
<title>Node12</title>
<g id="a_node12"><a xlink:href="PauseSystem_8hpp.html" target="_top" xlink:title=" ">
<polygon fill="white" stroke="black" points="549,-78.5 549,-119.5 679,-119.5 679,-78.5 549,-78.5"/>
<text text-anchor="start" x="557" y="-107.5" font-family="Helvetica,sans-Serif" font-size="10.00">Libs/Engine/sources</text>
<text text-anchor="start" x="557" y="-96.5" font-family="Helvetica,sans-Serif" font-size="10.00">/Systems/PauseSystem</text>
<text text-anchor="middle" x="614" y="-85.5" font-family="Helvetica,sans-Serif" font-size="10.00">/PauseSystem.hpp</text>
</a>
</g>
</g>
<!-- Node2&#45;&gt;Node12 -->
<g id="edge24" class="edge">
<title>Node2&#45;&gt;Node12</title>
<path fill="none" stroke="midnightblue" d="M856.12,-236.69C829.53,-227.42 798.46,-214.48 773,-198 750.58,-183.48 751.87,-171.34 730,-156 709.5,-141.62 684.73,-129.1 663.35,-119.57"/>
<polygon fill="midnightblue" stroke="midnightblue" points="855.09,-240.04 865.69,-239.94 857.34,-233.41 855.09,-240.04"/>
</g>
<!-- Node5&#45;&gt;Node3 -->
<g id="edge5" class="edge">
<title>Node5&#45;&gt;Node3</title>
<path fill="none" stroke="midnightblue" d="M844.85,-151.97C829.05,-143.86 813.56,-133.36 802,-120 778.82,-93.2 772.35,-49.23 770.61,-30.68"/>
<polygon fill="midnightblue" stroke="midnightblue" points="843.64,-155.28 854.16,-156.48 846.69,-148.97 843.64,-155.28"/>
</g>
<!-- Node6 -->
<g id="node6" class="node">
<title>Node6</title>
<g id="a_node6"><a xlink:href="ButtonCallbacks_8cpp.html" target="_top" xlink:title=" ">
<polygon fill="white" stroke="black" points="1567,-0.5 1567,-41.5 1731,-41.5 1731,-0.5 1567,-0.5"/>
<text text-anchor="start" x="1575" y="-29.5" font-family="Helvetica,sans-Serif" font-size="10.00">Libs/Engine/sources</text>
<text text-anchor="start" x="1575" y="-18.5" font-family="Helvetica,sans-Serif" font-size="10.00">/Components/ButtonCallbacks</text>
<text text-anchor="middle" x="1649" y="-7.5" font-family="Helvetica,sans-Serif" font-size="10.00">/ButtonCallbacks.cpp</text>
</a>
</g>
</g>
<!-- Node5&#45;&gt;Node6 -->
<g id="edge6" class="edge">
<title>Node5&#45;&gt;Node6</title>
<path fill="none" stroke="midnightblue" d="M1007.6,-175.46C1154.64,-173.27 1433.9,-163.34 1522,-120 1544.86,-108.75 1541.43,-94.3 1561,-78 1577.28,-64.44 1597.06,-51.58 1613.74,-41.61"/>
<polygon fill="midnightblue" stroke="midnightblue" points="1007.2,-171.96 997.25,-175.6 1007.29,-178.96 1007.2,-171.96"/>
</g>
<!-- Node5&#45;&gt;Node7 -->
<g id="edge7" class="edge">
<title>Node5&#45;&gt;Node7</title>
<path fill="none" stroke="midnightblue" d="M1007,-162.11C1049.97,-153.49 1101.01,-140.11 1144,-120 1191.29,-97.89 1238.56,-57.68 1261.94,-36.29"/>
<polygon fill="midnightblue" stroke="midnightblue" points="1006.26,-158.69 997.12,-164.04 1007.6,-165.56 1006.26,-158.69"/>
</g>
<!-- Node5&#45;&gt;Node8 -->
<g id="edge8" class="edge">
<title>Node5&#45;&gt;Node8</title>
<path fill="none" stroke="midnightblue" d="M943.84,-149.31C953.55,-140.15 964.36,-129.74 974,-120 991.91,-101.89 992.82,-93.54 1013,-78 1035.26,-60.86 1063.5,-46.12 1085.09,-36.08"/>
<polygon fill="midnightblue" stroke="midnightblue" points="941.23,-146.96 936.34,-156.36 946.02,-152.07 941.23,-146.96"/>
</g>
<!-- Node5&#45;&gt;Node9 -->
<g id="edge9" class="edge">
<title>Node5&#45;&gt;Node9</title>
<path fill="none" stroke="midnightblue" d="M966.22,-152.12C993.01,-139.63 1024.9,-124.76 1047.75,-114.11"/>
<polygon fill="midnightblue" stroke="midnightblue" points="964.56,-149.03 956.98,-156.43 967.52,-155.37 964.56,-149.03"/>
</g>
<!-- Node5&#45;&gt;Node11 -->
<g id="edge19" class="edge">
<title>Node5&#45;&gt;Node11</title>
<path fill="none" stroke="midnightblue" d="M853.17,-152.69C828.87,-143.11 800.89,-131.57 776,-120 717.33,-92.73 650.81,-56 615.72,-36.16"/>
<polygon fill="midnightblue" stroke="midnightblue" points="852.05,-156.01 862.63,-156.39 854.6,-149.49 852.05,-156.01"/>
</g>
<!-- Node5&#45;&gt;Node12 -->
<g id="edge16" class="edge">
<title>Node5&#45;&gt;Node12</title>
<path fill="none" stroke="midnightblue" d="M827.5,-153.95C786.63,-143.64 737.32,-131.2 693,-120 688.47,-118.86 683.8,-117.67 679.1,-116.48"/>
<polygon fill="midnightblue" stroke="midnightblue" points="826.88,-157.4 837.43,-156.45 828.59,-150.61 826.88,-157.4"/>
</g>
<!-- Node14 -->
<g id="node14" class="node">
<title>Node14</title>
<g id="a_node14"><a xlink:href="Prototype_2sources_2Drawable_2main_8cpp.html" target="_top" xlink:title=" ">
<polygon fill="white" stroke="black" points="811,-84 811,-114 965,-114 965,-84 811,-84"/>
<text text-anchor="start" x="819" y="-102" font-family="Helvetica,sans-Serif" font-size="10.00">Prototype/sources/Drawable</text>
<text text-anchor="middle" x="888" y="-91" font-family="Helvetica,sans-Serif" font-size="10.00">/main.cpp</text>
</a>
</g>
</g>
<!-- Node5&#45;&gt;Node14 -->
<g id="edge20" class="edge">
<title>Node5&#45;&gt;Node14</title>
<path fill="none" stroke="midnightblue" d="M904.68,-146.96C900.7,-135.75 896.32,-123.43 893.05,-114.23"/>
<polygon fill="midnightblue" stroke="midnightblue" points="901.4,-148.18 908.05,-156.43 908,-145.83 901.4,-148.18"/>
</g>
<!-- Node9&#45;&gt;Node3 -->
<g id="edge10" class="edge">
<title>Node9&#45;&gt;Node3</title>
<path fill="none" stroke="midnightblue" d="M1011.21,-81.52C947.61,-65.83 854.41,-42.83 804.53,-30.52"/>
<polygon fill="midnightblue" stroke="midnightblue" points="1010.6,-84.97 1021.15,-83.97 1012.28,-78.18 1010.6,-84.97"/>
</g>
<!-- Node9&#45;&gt;Node6 -->
<g id="edge11" class="edge">
<title>Node9&#45;&gt;Node6</title>
<path fill="none" stroke="midnightblue" d="M1144.9,-92.33C1237.93,-83.96 1411.46,-66.59 1558,-42 1560.87,-41.52 1563.79,-41.01 1566.73,-40.47"/>
<polygon fill="midnightblue" stroke="midnightblue" points="1144.44,-88.86 1134.79,-93.23 1145.06,-95.83 1144.44,-88.86"/>
</g>
<!-- Node9&#45;&gt;Node7 -->
<g id="edge13" class="edge">
<title>Node9&#45;&gt;Node7</title>
<path fill="none" stroke="midnightblue" d="M1124.56,-80.22C1159.83,-66.75 1207.62,-48.5 1240.23,-36.04"/>
<polygon fill="midnightblue" stroke="midnightblue" points="1123.06,-77.05 1114.96,-83.88 1125.55,-83.58 1123.06,-77.05"/>
</g>
<!-- Node9&#45;&gt;Node8 -->
<g id="edge14" class="edge">
<title>Node9&#45;&gt;Node8</title>
<path fill="none" stroke="midnightblue" d="M1090.26,-74.7C1096.87,-62.14 1104.82,-47.04 1110.51,-36.23"/>
<polygon fill="midnightblue" stroke="midnightblue" points="1087.08,-73.23 1085.52,-83.7 1093.28,-76.49 1087.08,-73.23"/>
</g>
<!-- Node10 -->
<g id="node10" class="node">
<title>Node10</title>
<g id="a_node10"><a xlink:href="GameConfigurator_8cpp.html" target="_top" xlink:title=" ">
<polygon fill="white" stroke="black" points="870.5,-0.5 870.5,-41.5 1043.5,-41.5 1043.5,-0.5 870.5,-0.5"/>
<text text-anchor="start" x="878.5" y="-29.5" font-family="Helvetica,sans-Serif" font-size="10.00">Libs/Engine/sources</text>
<text text-anchor="start" x="878.5" y="-18.5" font-family="Helvetica,sans-Serif" font-size="10.00">/Components/GameConfigurator</text>
<text text-anchor="middle" x="957" y="-7.5" font-family="Helvetica,sans-Serif" font-size="10.00">/GameConfigurator.cpp</text>
</a>
</g>
</g>
<!-- Node9&#45;&gt;Node10 -->
<g id="edge12" class="edge">
<title>Node9&#45;&gt;Node10</title>
<path fill="none" stroke="midnightblue" d="M1046.62,-78.29C1028.73,-67.06 1006.38,-53.02 988.48,-41.77"/>
<polygon fill="midnightblue" stroke="midnightblue" points="1045.19,-81.53 1055.52,-83.88 1048.92,-75.6 1045.19,-81.53"/>
</g>
<!-- Node9&#45;&gt;Node11 -->
<g id="edge15" class="edge">
<title>Node9&#45;&gt;Node11</title>
<path fill="none" stroke="midnightblue" d="M1011.58,-84.52C999.12,-82.2 986.18,-79.91 974,-78 843.51,-57.52 809.12,-64.67 679,-42 669.28,-40.31 659.01,-38.23 649.05,-36.07"/>
<polygon fill="midnightblue" stroke="midnightblue" points="1010.97,-87.97 1021.45,-86.39 1012.28,-81.09 1010.97,-87.97"/>
</g>
<!-- Node12&#45;&gt;Node3 -->
<g id="edge17" class="edge">
<title>Node12&#45;&gt;Node3</title>
<path fill="none" stroke="midnightblue" d="M663.38,-73.94C693.81,-59.12 731,-41 752.45,-30.55"/>
<polygon fill="midnightblue" stroke="midnightblue" points="661.63,-70.9 654.17,-78.43 664.7,-77.19 661.63,-70.9"/>
</g>
<!-- Node13 -->
<g id="node13" class="node">
<title>Node13</title>
<g id="a_node13"><a xlink:href="PauseSystem_8cpp.html" target="_top" xlink:title=" ">
<polygon fill="white" stroke="black" points="364,-0.5 364,-41.5 494,-41.5 494,-0.5 364,-0.5"/>
<text text-anchor="start" x="372" y="-29.5" font-family="Helvetica,sans-Serif" font-size="10.00">Libs/Engine/sources</text>
<text text-anchor="start" x="372" y="-18.5" font-family="Helvetica,sans-Serif" font-size="10.00">/Systems/PauseSystem</text>
<text text-anchor="middle" x="429" y="-7.5" font-family="Helvetica,sans-Serif" font-size="10.00">/PauseSystem.cpp</text>
</a>
</g>
</g>
<!-- Node12&#45;&gt;Node13 -->
<g id="edge18" class="edge">
<title>Node12&#45;&gt;Node13</title>
<path fill="none" stroke="midnightblue" d="M557.06,-74.61C531.24,-64 501.06,-51.6 476.48,-41.51"/>
<polygon fill="midnightblue" stroke="midnightblue" points="555.78,-77.87 566.36,-78.43 558.44,-71.39 555.78,-77.87"/>
</g>
<!-- Node15&#45;&gt;Node6 -->
<g id="edge27" class="edge">
<title>Node15&#45;&gt;Node6</title>
<path fill="none" stroke="midnightblue" d="M1723.78,-170.63C1808.48,-161.5 1932.2,-137.71 1885,-78 1882.5,-74.84 1798.42,-55.39 1731.33,-40.29"/>
<polygon fill="midnightblue" stroke="midnightblue" points="1723.25,-167.16 1713.66,-171.67 1723.97,-174.13 1723.25,-167.16"/>
</g>
<!-- Node15&#45;&gt;Node7 -->
<g id="edge32" class="edge">
<title>Node15&#45;&gt;Node7</title>
<path fill="none" stroke="midnightblue" d="M1580.27,-170.39C1499.02,-162.83 1372.85,-147.11 1334,-120 1304.46,-99.39 1288.03,-58.17 1281.06,-36.33"/>
<polygon fill="midnightblue" stroke="midnightblue" points="1580.16,-173.89 1590.44,-171.31 1580.8,-166.92 1580.16,-173.89"/>
</g>
<!-- Node16 -->
<g id="node16" class="node">
<title>Node16</title>
<g id="a_node16"><a xlink:href="TextBox_8cpp.html" target="_top" xlink:title=" ">
<polygon fill="white" stroke="black" points="1752.5,-78.5 1752.5,-119.5 1875.5,-119.5 1875.5,-78.5 1752.5,-78.5"/>
<text text-anchor="start" x="1760.5" y="-107.5" font-family="Helvetica,sans-Serif" font-size="10.00">Libs/Engine/sources</text>
<text text-anchor="start" x="1760.5" y="-96.5" font-family="Helvetica,sans-Serif" font-size="10.00">/Components/TextBox</text>
<text text-anchor="middle" x="1814" y="-85.5" font-family="Helvetica,sans-Serif" font-size="10.00">/TextBox.cpp</text>
</a>
</g>
</g>
<!-- Node15&#45;&gt;Node16 -->
<g id="edge28" class="edge">
<title>Node15&#45;&gt;Node16</title>
<path fill="none" stroke="midnightblue" d="M1703.05,-152.05C1725.4,-141.57 1751.28,-129.42 1772.42,-119.51"/>
<polygon fill="midnightblue" stroke="midnightblue" points="1701.29,-149.01 1693.72,-156.43 1704.26,-155.35 1701.29,-149.01"/>
</g>
<!-- Node17 -->
<g id="node17" class="node">
<title>Node17</title>
<g id="a_node17"><a xlink:href="TextBoxCallback_8hpp.html" target="_top" xlink:title=" ">
<polygon fill="white" stroke="black" points="1569.5,-78.5 1569.5,-119.5 1734.5,-119.5 1734.5,-78.5 1569.5,-78.5"/>
<text text-anchor="start" x="1577.5" y="-107.5" font-family="Helvetica,sans-Serif" font-size="10.00">Libs/Engine/sources</text>
<text text-anchor="start" x="1577.5" y="-96.5" font-family="Helvetica,sans-Serif" font-size="10.00">/Components/TextBoxCallback</text>
<text text-anchor="middle" x="1652" y="-85.5" font-family="Helvetica,sans-Serif" font-size="10.00">/TextBoxCallback.hpp</text>
</a>
</g>
</g>
<!-- Node15&#45;&gt;Node17 -->
<g id="edge29" class="edge">
<title>Node15&#45;&gt;Node17</title>
<path fill="none" stroke="midnightblue" d="M1652,-146.3C1652,-137.3 1652,-127.65 1652,-119.51"/>
<polygon fill="midnightblue" stroke="midnightblue" points="1648.5,-146.43 1652,-156.43 1655.5,-146.43 1648.5,-146.43"/>
</g>
<!-- Node17&#45;&gt;Node7 -->
<g id="edge31" class="edge">
<title>Node17&#45;&gt;Node7</title>
<path fill="none" stroke="midnightblue" d="M1559.22,-79.82C1504.42,-69.01 1433.72,-54.92 1371,-42 1361.77,-40.1 1352.03,-38.06 1342.46,-36.04"/>
<polygon fill="midnightblue" stroke="midnightblue" points="1558.77,-83.3 1569.26,-81.8 1560.12,-76.43 1558.77,-83.3"/>
</g>
<!-- Node18 -->
<g id="node18" class="node">
<title>Node18</title>
<g id="a_node18"><a xlink:href="TextBoxCallback_8cpp.html" target="_top" xlink:title=" ">
<polygon fill="white" stroke="black" points="1749.5,-0.5 1749.5,-41.5 1914.5,-41.5 1914.5,-0.5 1749.5,-0.5"/>
<text text-anchor="start" x="1757.5" y="-29.5" font-family="Helvetica,sans-Serif" font-size="10.00">Libs/Engine/sources</text>
<text text-anchor="start" x="1757.5" y="-18.5" font-family="Helvetica,sans-Serif" font-size="10.00">/Components/TextBoxCallback</text>
<text text-anchor="middle" x="1832" y="-7.5" font-family="Helvetica,sans-Serif" font-size="10.00">/TextBoxCallback.cpp</text>
</a>
</g>
</g>
<!-- Node17&#45;&gt;Node18 -->
<g id="edge30" class="edge">
<title>Node17&#45;&gt;Node18</title>
<path fill="none" stroke="midnightblue" d="M1707.73,-74.47C1732.78,-63.89 1762,-51.56 1785.8,-41.51"/>
<polygon fill="midnightblue" stroke="midnightblue" points="1706.21,-71.31 1698.35,-78.43 1708.93,-77.76 1706.21,-71.31"/>
</g>
<!-- Node19&#45;&gt;Node6 -->
<g id="edge34" class="edge">
<title>Node19&#45;&gt;Node6</title>
<path fill="none" stroke="midnightblue" d="M1478.49,-80.64C1512.38,-68.98 1557.08,-53.61 1592.21,-41.53"/>
<polygon fill="midnightblue" stroke="midnightblue" points="1477.11,-77.41 1468.79,-83.97 1479.39,-84.03 1477.11,-77.41"/>
</g>
<!-- Node19&#45;&gt;Node7 -->
<g id="edge36" class="edge">
<title>Node19&#45;&gt;Node7</title>
<path fill="none" stroke="midnightblue" d="M1390.94,-79.35C1364.36,-65.97 1329.11,-48.23 1304.9,-36.04"/>
<polygon fill="midnightblue" stroke="midnightblue" points="1389.45,-82.51 1399.95,-83.88 1392.59,-76.26 1389.45,-82.51"/>
</g>
<!-- Node19&#45;&gt;Node8 -->
<g id="edge37" class="edge">
<title>Node19&#45;&gt;Node8</title>
<path fill="none" stroke="midnightblue" d="M1351.11,-81.77C1302.91,-71.25 1239.58,-56.78 1184,-42 1177.17,-40.18 1169.99,-38.14 1162.97,-36.08"/>
<polygon fill="midnightblue" stroke="midnightblue" points="1350.64,-85.25 1361.16,-83.96 1352.13,-78.41 1350.64,-85.25"/>
</g>
<!-- Node20 -->
<g id="node20" class="node">
<title>Node20</title>
<g id="a_node20"><a xlink:href="TextUI_8cpp.html" target="_top" xlink:title=" ">
<polygon fill="white" stroke="black" points="1379.5,-6 1379.5,-36 1548.5,-36 1548.5,-6 1379.5,-6"/>
<text text-anchor="start" x="1387.5" y="-24" font-family="Helvetica,sans-Serif" font-size="10.00">Libs/Engine/sources</text>
<text text-anchor="middle" x="1464" y="-13" font-family="Helvetica,sans-Serif" font-size="10.00">/Components/TextUI/TextUI.cpp</text>
</a>
</g>
</g>
<!-- Node19&#45;&gt;Node20 -->
<g id="edge35" class="edge">
<title>Node19&#45;&gt;Node20</title>
<path fill="none" stroke="midnightblue" d="M1439.21,-74.33C1445.13,-61.85 1452.19,-46.94 1457.26,-36.23"/>
<polygon fill="midnightblue" stroke="midnightblue" points="1435.89,-73.17 1434.77,-83.7 1442.22,-76.17 1435.89,-73.17"/>
</g>
<!-- Node22&#45;&gt;Node3 -->
<g id="edge42" class="edge">
<title>Node22&#45;&gt;Node3</title>
<path fill="none" stroke="midnightblue" d="M482.61,-81.95C538.05,-70.95 613.01,-55.9 679,-42 696.41,-38.33 715.66,-34.13 731.96,-30.52"/>
<polygon fill="midnightblue" stroke="midnightblue" points="481.62,-78.58 472.49,-83.96 482.98,-85.45 481.62,-78.58"/>
</g>
<!-- Node22&#45;&gt;Node7 -->
<g id="edge43" class="edge">
<title>Node22&#45;&gt;Node7</title>
<path fill="none" stroke="midnightblue" d="M500.34,-82.63C513.65,-80.89 527.14,-79.28 540,-78 825.25,-49.56 899.89,-80.25 1184,-42 1195.13,-40.5 1206.91,-38.39 1218.21,-36.09"/>
<polygon fill="midnightblue" stroke="midnightblue" points="499.66,-79.19 490.21,-83.99 500.59,-86.13 499.66,-79.19"/>
</g>
<!-- Node22&#45;&gt;Node11 -->
<g id="edge45" class="edge">
<title>Node22&#45;&gt;Node11</title>
<path fill="none" stroke="midnightblue" d="M445.88,-80.05C479.52,-66.59 524.89,-48.44 555.9,-36.04"/>
<polygon fill="midnightblue" stroke="midnightblue" points="444.28,-76.92 436.29,-83.88 446.88,-83.42 444.28,-76.92"/>
</g>
<!-- Node23 -->
<g id="node23" class="node">
<title>Node23</title>
<g id="a_node23"><a xlink:href="UISystem_8cpp.html" target="_top" xlink:title=" ">
<polygon fill="white" stroke="black" points="0,-6 0,-36 182,-36 182,-6 0,-6"/>
<text text-anchor="start" x="8" y="-24" font-family="Helvetica,sans-Serif" font-size="10.00">Libs/Engine/sources</text>
<text text-anchor="middle" x="91" y="-13" font-family="Helvetica,sans-Serif" font-size="10.00">/Systems/UISystem/UISystem.cpp</text>
</a>
</g>
</g>
<!-- Node22&#45;&gt;Node23 -->
<g id="edge44" class="edge">
<title>Node22&#45;&gt;Node23</title>
<path fill="none" stroke="midnightblue" d="M334.05,-81.59C278.61,-67.99 200.69,-48.89 148.15,-36.01"/>
<polygon fill="midnightblue" stroke="midnightblue" points="333.23,-84.99 343.78,-83.97 334.9,-78.19 333.23,-84.99"/>
</g>
<!-- Node24 -->
<g id="node24" class="node">
<title>Node24</title>
<g id="a_node24"><a xlink:href="Prototype_2sources_2Shaders_2main_8cpp.html" target="_top" xlink:title=" ">
<polygon fill="white" stroke="black" points="200,-6 200,-36 346,-36 346,-6 200,-6"/>
<text text-anchor="start" x="208" y="-24" font-family="Helvetica,sans-Serif" font-size="10.00">Prototype/sources/Shaders</text>
<text text-anchor="middle" x="273" y="-13" font-family="Helvetica,sans-Serif" font-size="10.00">/main.cpp</text>
</a>
</g>
</g>
<!-- Node22&#45;&gt;Node24 -->
<g id="edge46" class="edge">
<title>Node22&#45;&gt;Node24</title>
<path fill="none" stroke="midnightblue" d="M368.4,-78.64C346.02,-65.35 316.82,-48.02 296.65,-36.04"/>
<polygon fill="midnightblue" stroke="midnightblue" points="366.84,-81.79 377.22,-83.88 370.41,-75.77 366.84,-81.79"/>
</g>
</g>
</svg>
