<?xml version="1.0" encoding="UTF-8" standalone="no"?>
<!DOCTYPE svg PUBLIC "-//W3C//DTD SVG 1.1//EN"
 "http://www.w3.org/Graphics/SVG/1.1/DTD/svg11.dtd">
<!-- Generated by graphviz version 2.43.0 (0)
 -->
<!-- Title: Libs/Engine/sources/Components/IUIObject/IUIObject.hpp Pages: 1 -->
<svg width="667pt" height="397pt"
 viewBox="0.00 0.00 666.50 397.00" xmlns="http://www.w3.org/2000/svg" xmlns:xlink="http://www.w3.org/1999/xlink">
<g id="graph0" class="graph" transform="scale(1 1) rotate(0) translate(4 393)">
<title>Libs/Engine/sources/Components/IUIObject/IUIObject.hpp</title>
<polygon fill="white" stroke="transparent" points="-4,4 -4,-393 662.5,-393 662.5,4 -4,4"/>
<!-- Node1 -->
<g id="node1" class="node">
<title>Node1</title>
<g id="a_node1"><a xlink:title=" ">
<polygon fill="#bfbfbf" stroke="black" points="63,-347.5 63,-388.5 192,-388.5 192,-347.5 63,-347.5"/>
<text text-anchor="start" x="71" y="-376.5" font-family="Helvetica,sans-Serif" font-size="10.00">Libs/Engine/sources</text>
<text text-anchor="start" x="71" y="-365.5" font-family="Helvetica,sans-Serif" font-size="10.00">/Components/IUIObject</text>
<text text-anchor="middle" x="127.5" y="-354.5" font-family="Helvetica,sans-Serif" font-size="10.00">/IUIObject.hpp</text>
</a>
</g>
</g>
<!-- Node2 -->
<g id="node2" class="node">
<title>Node2</title>
<g id="a_node2"><a xlink:href="IComponent_8hpp.html" target="_top" xlink:title=" ">
<polygon fill="white" stroke="black" points="6,-123.5 6,-142.5 103,-142.5 103,-123.5 6,-123.5"/>
<text text-anchor="middle" x="54.5" y="-130.5" font-family="Helvetica,sans-Serif" font-size="10.00">IComponent.hpp</text>
</a>
</g>
</g>
<!-- Node1&#45;&gt;Node2 -->
<g id="edge1" class="edge">
<title>Node1&#45;&gt;Node2</title>
<path fill="none" stroke="midnightblue" d="M121.28,-347.13C107.32,-302.59 73.7,-195.27 60.22,-152.27"/>
<polygon fill="midnightblue" stroke="midnightblue" points="63.52,-151.08 57.19,-142.59 56.84,-153.18 63.52,-151.08"/>
</g>
<!-- Node8 -->
<g id="node8" class="node">
<title>Node8</title>
<g id="a_node8"><a xlink:href="Vector2_8hpp.html" target="_top" xlink:title=" ">
<polygon fill="white" stroke="black" points="114.5,-179.5 114.5,-198.5 188.5,-198.5 188.5,-179.5 114.5,-179.5"/>
<text text-anchor="middle" x="151.5" y="-186.5" font-family="Helvetica,sans-Serif" font-size="10.00">Vector2.hpp</text>
</a>
</g>
</g>
<!-- Node1&#45;&gt;Node8 -->
<g id="edge8" class="edge">
<title>Node1&#45;&gt;Node8</title>
<path fill="none" stroke="midnightblue" d="M130.16,-347.38C134.81,-313.08 144.36,-242.66 148.94,-208.88"/>
<polygon fill="midnightblue" stroke="midnightblue" points="152.46,-208.96 150.34,-198.58 145.52,-208.02 152.46,-208.96"/>
</g>
<!-- Node13 -->
<g id="node13" class="node">
<title>Node13</title>
<g id="a_node13"><a xlink:href="Texture_8hpp.html" target="_top" xlink:title=" ">
<polygon fill="white" stroke="black" points="336.5,-291.5 336.5,-310.5 410.5,-310.5 410.5,-291.5 336.5,-291.5"/>
<text text-anchor="middle" x="373.5" y="-298.5" font-family="Helvetica,sans-Serif" font-size="10.00">Texture.hpp</text>
</a>
</g>
</g>
<!-- Node1&#45;&gt;Node13 -->
<g id="edge17" class="edge">
<title>Node1&#45;&gt;Node13</title>
<path fill="none" stroke="midnightblue" d="M192.13,-349.92C236.17,-338.29 293.2,-323.22 331.45,-313.11"/>
<polygon fill="midnightblue" stroke="midnightblue" points="332.46,-316.46 341.23,-310.53 330.67,-309.7 332.46,-316.46"/>
</g>
<!-- Node3 -->
<g id="node3" class="node">
<title>Node3</title>
<g id="a_node3"><a xlink:title=" ">
<polygon fill="white" stroke="#bfbfbf" points="0,-6 0,-25 57,-25 57,-6 0,-6"/>
<text text-anchor="middle" x="28.5" y="-13" font-family="Helvetica,sans-Serif" font-size="10.00">ostream</text>
</a>
</g>
</g>
<!-- Node2&#45;&gt;Node3 -->
<g id="edge2" class="edge">
<title>Node2&#45;&gt;Node3</title>
<path fill="none" stroke="midnightblue" d="M52.55,-123.32C48.35,-104.67 38.39,-60.44 32.69,-35.13"/>
<polygon fill="midnightblue" stroke="midnightblue" points="36.09,-34.27 30.48,-25.28 29.26,-35.81 36.09,-34.27"/>
</g>
<!-- Node4 -->
<g id="node4" class="node">
<title>Node4</title>
<g id="a_node4"><a xlink:href="IXMLSerializable_8hpp.html" target="_top" xlink:title=" ">
<polygon fill="white" stroke="black" points="72,-67.5 72,-86.5 191,-86.5 191,-67.5 72,-67.5"/>
<text text-anchor="middle" x="131.5" y="-74.5" font-family="Helvetica,sans-Serif" font-size="10.00">IXMLSerializable.hpp</text>
</a>
</g>
</g>
<!-- Node2&#45;&gt;Node4 -->
<g id="edge3" class="edge">
<title>Node2&#45;&gt;Node4</title>
<path fill="none" stroke="midnightblue" d="M66.87,-123.32C78.66,-115.06 96.63,-102.45 110.64,-92.63"/>
<polygon fill="midnightblue" stroke="midnightblue" points="112.98,-95.26 119.16,-86.65 108.96,-89.53 112.98,-95.26"/>
</g>
<!-- Node4&#45;&gt;Node3 -->
<g id="edge4" class="edge">
<title>Node4&#45;&gt;Node3</title>
<path fill="none" stroke="midnightblue" d="M116.74,-67.48C99.84,-57.71 71.92,-41.58 52.01,-30.08"/>
<polygon fill="midnightblue" stroke="midnightblue" points="53.64,-26.98 43.23,-25.01 50.14,-33.04 53.64,-26.98"/>
</g>
<!-- Node5 -->
<g id="node5" class="node">
<title>Node5</title>
<g id="a_node5"><a xlink:title=" ">
<polygon fill="white" stroke="#bfbfbf" points="337.5,-6 337.5,-25 397.5,-25 397.5,-6 337.5,-6"/>
<text text-anchor="middle" x="367.5" y="-13" font-family="Helvetica,sans-Serif" font-size="10.00">iostream</text>
</a>
</g>
</g>
<!-- Node4&#45;&gt;Node5 -->
<g id="edge5" class="edge">
<title>Node4&#45;&gt;Node5</title>
<path fill="none" stroke="midnightblue" d="M176.53,-67.47C216.75,-59.44 277.07,-46.36 328.5,-31 331.07,-30.23 333.72,-29.38 336.36,-28.49"/>
<polygon fill="midnightblue" stroke="midnightblue" points="337.55,-31.78 345.81,-25.14 335.21,-25.18 337.55,-31.78"/>
</g>
<!-- Node6 -->
<g id="node6" class="node">
<title>Node6</title>
<g id="a_node6"><a xlink:title=" ">
<polygon fill="white" stroke="#bfbfbf" points="75,-0.5 75,-30.5 188,-30.5 188,-0.5 75,-0.5"/>
<text text-anchor="start" x="83" y="-18.5" font-family="Helvetica,sans-Serif" font-size="10.00">boost/property_tree</text>
<text text-anchor="middle" x="131.5" y="-7.5" font-family="Helvetica,sans-Serif" font-size="10.00">/ptree.hpp</text>
</a>
</g>
</g>
<!-- Node4&#45;&gt;Node6 -->
<g id="edge6" class="edge">
<title>Node4&#45;&gt;Node6</title>
<path fill="none" stroke="midnightblue" d="M131.5,-67.48C131.5,-60.47 131.5,-50.19 131.5,-40.7"/>
<polygon fill="midnightblue" stroke="midnightblue" points="135,-40.52 131.5,-30.52 128,-40.52 135,-40.52"/>
</g>
<!-- Node7 -->
<g id="node7" class="node">
<title>Node7</title>
<g id="a_node7"><a xlink:title=" ">
<polygon fill="white" stroke="#bfbfbf" points="206,-0.5 206,-30.5 319,-30.5 319,-0.5 206,-0.5"/>
<text text-anchor="start" x="214" y="-18.5" font-family="Helvetica,sans-Serif" font-size="10.00">boost/property_tree</text>
<text text-anchor="middle" x="262.5" y="-7.5" font-family="Helvetica,sans-Serif" font-size="10.00">/xml_parser.hpp</text>
</a>
</g>
</g>
<!-- Node4&#45;&gt;Node7 -->
<g id="edge7" class="edge">
<title>Node4&#45;&gt;Node7</title>
<path fill="none" stroke="midnightblue" d="M150.27,-67.48C169.01,-58.96 198.39,-45.62 222.39,-34.72"/>
<polygon fill="midnightblue" stroke="midnightblue" points="223.97,-37.85 231.63,-30.52 221.07,-31.47 223.97,-37.85"/>
</g>
<!-- Node8&#45;&gt;Node4 -->
<g id="edge16" class="edge">
<title>Node8&#45;&gt;Node4</title>
<path fill="none" stroke="midnightblue" d="M149.93,-179.37C146.7,-161.62 139.26,-120.67 134.88,-96.6"/>
<polygon fill="midnightblue" stroke="midnightblue" points="138.29,-95.8 133.06,-86.59 131.41,-97.06 138.29,-95.8"/>
</g>
<!-- Node9 -->
<g id="node9" class="node">
<title>Node9</title>
<g id="a_node9"><a xlink:title=" ">
<polygon fill="white" stroke="#bfbfbf" points="402,-67.5 402,-86.5 455,-86.5 455,-67.5 402,-67.5"/>
<text text-anchor="middle" x="428.5" y="-74.5" font-family="Helvetica,sans-Serif" font-size="10.00">raylib.h</text>
</a>
</g>
</g>
<!-- Node8&#45;&gt;Node9 -->
<g id="edge9" class="edge">
<title>Node8&#45;&gt;Node9</title>
<path fill="none" stroke="midnightblue" d="M178.47,-179.46C204.77,-170.93 245.77,-157.09 280.5,-143 300.03,-135.07 304.26,-131.6 323.5,-123 348.67,-111.76 377.46,-99.46 398.52,-90.56"/>
<polygon fill="midnightblue" stroke="midnightblue" points="400.04,-93.72 407.9,-86.61 397.32,-87.27 400.04,-93.72"/>
</g>
<!-- Node10 -->
<g id="node10" class="node">
<title>Node10</title>
<g id="a_node10"><a xlink:title=" ">
<polygon fill="white" stroke="#bfbfbf" points="209,-67.5 209,-86.5 256,-86.5 256,-67.5 209,-67.5"/>
<text text-anchor="middle" x="232.5" y="-74.5" font-family="Helvetica,sans-Serif" font-size="10.00">cmath</text>
</a>
</g>
</g>
<!-- Node8&#45;&gt;Node10 -->
<g id="edge10" class="edge">
<title>Node8&#45;&gt;Node10</title>
<path fill="none" stroke="midnightblue" d="M155.63,-179.15C161.86,-166.22 174.43,-141.67 188.5,-123 196.46,-112.44 206.72,-101.82 215.33,-93.54"/>
<polygon fill="midnightblue" stroke="midnightblue" points="217.76,-96.06 222.66,-86.67 212.97,-90.96 217.76,-96.06"/>
</g>
<!-- Node11 -->
<g id="node11" class="node">
<title>Node11</title>
<g id="a_node11"><a xlink:href="Vector3_8hpp.html" target="_top" xlink:title=" ">
<polygon fill="white" stroke="black" points="197.5,-123.5 197.5,-142.5 271.5,-142.5 271.5,-123.5 197.5,-123.5"/>
<text text-anchor="middle" x="234.5" y="-130.5" font-family="Helvetica,sans-Serif" font-size="10.00">Vector3.hpp</text>
</a>
</g>
</g>
<!-- Node8&#45;&gt;Node11 -->
<g id="edge11" class="edge">
<title>Node8&#45;&gt;Node11</title>
<path fill="none" stroke="midnightblue" d="M164.84,-179.32C177.66,-170.98 197.28,-158.21 212.44,-148.35"/>
<polygon fill="midnightblue" stroke="midnightblue" points="214.72,-151.04 221.2,-142.65 210.91,-145.17 214.72,-151.04"/>
</g>
<!-- Node11&#45;&gt;Node4 -->
<g id="edge13" class="edge">
<title>Node11&#45;&gt;Node4</title>
<path fill="none" stroke="midnightblue" d="M217.95,-123.32C201.51,-114.7 176.07,-101.36 157.03,-91.39"/>
<polygon fill="midnightblue" stroke="midnightblue" points="158.49,-88.2 148.01,-86.65 155.24,-94.4 158.49,-88.2"/>
</g>
<!-- Node11&#45;&gt;Node9 -->
<g id="edge12" class="edge">
<title>Node11&#45;&gt;Node9</title>
<path fill="none" stroke="midnightblue" d="M265.24,-123.44C299.71,-113.85 355.58,-98.3 392.18,-88.11"/>
<polygon fill="midnightblue" stroke="midnightblue" points="393.26,-91.44 401.96,-85.39 391.38,-84.7 393.26,-91.44"/>
</g>
<!-- Node11&#45;&gt;Node10 -->
<g id="edge14" class="edge">
<title>Node11&#45;&gt;Node10</title>
<path fill="none" stroke="midnightblue" d="M234.17,-123.08C233.91,-116.01 233.53,-105.86 233.2,-96.99"/>
<polygon fill="midnightblue" stroke="midnightblue" points="236.69,-96.61 232.82,-86.75 229.7,-96.87 236.69,-96.61"/>
</g>
<!-- Node12 -->
<g id="node12" class="node">
<title>Node12</title>
<g id="a_node12"><a xlink:title=" ">
<polygon fill="white" stroke="#bfbfbf" points="274.5,-67.5 274.5,-86.5 330.5,-86.5 330.5,-67.5 274.5,-67.5"/>
<text text-anchor="middle" x="302.5" y="-74.5" font-family="Helvetica,sans-Serif" font-size="10.00">sstream</text>
</a>
</g>
</g>
<!-- Node11&#45;&gt;Node12 -->
<g id="edge15" class="edge">
<title>Node11&#45;&gt;Node12</title>
<path fill="none" stroke="midnightblue" d="M245.43,-123.32C255.67,-115.18 271.22,-102.84 283.5,-93.09"/>
<polygon fill="midnightblue" stroke="midnightblue" points="285.72,-95.79 291.38,-86.83 281.37,-90.31 285.72,-95.79"/>
</g>
<!-- Node13&#45;&gt;Node8 -->
<g id="edge28" class="edge">
<title>Node13&#45;&gt;Node8</title>
<path fill="none" stroke="midnightblue" d="M336.42,-299.92C295.45,-298 229.45,-289.24 185.5,-255 170.46,-243.28 161.39,-223.05 156.44,-208.26"/>
<polygon fill="midnightblue" stroke="midnightblue" points="159.78,-207.22 153.54,-198.66 153.08,-209.24 159.78,-207.22"/>
</g>
<!-- Node13&#45;&gt;Node9 -->
<g id="edge18" class="edge">
<title>Node13&#45;&gt;Node9</title>
<path fill="none" stroke="midnightblue" d="M410.55,-299.51C477.62,-297.76 614.93,-289.88 644.5,-255 706.98,-181.29 541.26,-115.07 464.79,-89.35"/>
<polygon fill="midnightblue" stroke="midnightblue" points="465.65,-85.95 455.06,-86.14 463.45,-92.6 465.65,-85.95"/>
</g>
<!-- Node14 -->
<g id="node14" class="node">
<title>Node14</title>
<g id="a_node14"><a xlink:title=" ">
<polygon fill="white" stroke="#bfbfbf" points="356.5,-179.5 356.5,-198.5 400.5,-198.5 400.5,-179.5 356.5,-179.5"/>
<text text-anchor="middle" x="378.5" y="-186.5" font-family="Helvetica,sans-Serif" font-size="10.00">string</text>
</a>
</g>
</g>
<!-- Node13&#45;&gt;Node14 -->
<g id="edge19" class="edge">
<title>Node13&#45;&gt;Node14</title>
<path fill="none" stroke="midnightblue" d="M360.75,-291.33C344.91,-279.38 321.03,-256.85 330.5,-235 335.77,-222.84 346.12,-212.46 355.86,-204.74"/>
<polygon fill="midnightblue" stroke="midnightblue" points="358.14,-207.41 364.13,-198.67 354,-201.77 358.14,-207.41"/>
</g>
<!-- Node15 -->
<g id="node15" class="node">
<title>Node15</title>
<g id="a_node15"><a xlink:href="Image_8hpp.html" target="_top" xlink:title=" ">
<polygon fill="white" stroke="black" points="339.5,-235.5 339.5,-254.5 407.5,-254.5 407.5,-235.5 339.5,-235.5"/>
<text text-anchor="middle" x="373.5" y="-242.5" font-family="Helvetica,sans-Serif" font-size="10.00">Image.hpp</text>
</a>
</g>
</g>
<!-- Node13&#45;&gt;Node15 -->
<g id="edge20" class="edge">
<title>Node13&#45;&gt;Node15</title>
<path fill="none" stroke="midnightblue" d="M373.5,-291.08C373.5,-284.01 373.5,-273.86 373.5,-264.99"/>
<polygon fill="midnightblue" stroke="midnightblue" points="377,-264.75 373.5,-254.75 370,-264.75 377,-264.75"/>
</g>
<!-- Node16 -->
<g id="node16" class="node">
<title>Node16</title>
<g id="a_node16"><a xlink:href="Color_8hpp.html" target="_top" xlink:title=" ">
<polygon fill="white" stroke="black" points="456.5,-179.5 456.5,-198.5 518.5,-198.5 518.5,-179.5 456.5,-179.5"/>
<text text-anchor="middle" x="487.5" y="-186.5" font-family="Helvetica,sans-Serif" font-size="10.00">Color.hpp</text>
</a>
</g>
</g>
<!-- Node13&#45;&gt;Node16 -->
<g id="edge27" class="edge">
<title>Node13&#45;&gt;Node16</title>
<path fill="none" stroke="midnightblue" d="M382.45,-291.37C401.59,-272.89 446.78,-229.29 471.18,-205.74"/>
<polygon fill="midnightblue" stroke="midnightblue" points="473.83,-208.05 478.6,-198.59 468.97,-203.02 473.83,-208.05"/>
</g>
<!-- Node17 -->
<g id="node17" class="node">
<title>Node17</title>
<g id="a_node17"><a xlink:href="Camera3D_8hpp.html" target="_top" xlink:title=" ">
<polygon fill="white" stroke="black" points="194,-235.5 194,-254.5 283,-254.5 283,-235.5 194,-235.5"/>
<text text-anchor="middle" x="238.5" y="-242.5" font-family="Helvetica,sans-Serif" font-size="10.00">Camera3D.hpp</text>
</a>
</g>
</g>
<!-- Node13&#45;&gt;Node17 -->
<g id="edge29" class="edge">
<title>Node13&#45;&gt;Node17</title>
<path fill="none" stroke="midnightblue" d="M352.11,-291.44C329.79,-282.52 294.6,-268.44 269.29,-258.32"/>
<polygon fill="midnightblue" stroke="midnightblue" points="270.38,-254.98 259.79,-254.52 267.78,-261.48 270.38,-254.98"/>
</g>
<!-- Node19 -->
<g id="node19" class="node">
<title>Node19</title>
<g id="a_node19"><a xlink:href="Rectangle_8hpp.html" target="_top" xlink:title=" ">
<polygon fill="white" stroke="black" points="549.5,-235.5 549.5,-254.5 635.5,-254.5 635.5,-235.5 549.5,-235.5"/>
<text text-anchor="middle" x="592.5" y="-242.5" font-family="Helvetica,sans-Serif" font-size="10.00">Rectangle.hpp</text>
</a>
</g>
</g>
<!-- Node13&#45;&gt;Node19 -->
<g id="edge35" class="edge">
<title>Node13&#45;&gt;Node19</title>
<path fill="none" stroke="midnightblue" d="M408.2,-291.44C446.08,-282.1 506.85,-267.12 548.16,-256.93"/>
<polygon fill="midnightblue" stroke="midnightblue" points="549.09,-260.31 557.96,-254.52 547.41,-253.51 549.09,-260.31"/>
</g>
<!-- Node20 -->
<g id="node20" class="node">
<title>Node20</title>
<g id="a_node20"><a xlink:href="IAsset_8hpp.html" target="_top" xlink:title=" ">
<polygon fill="white" stroke="black" points="463.5,-235.5 463.5,-254.5 531.5,-254.5 531.5,-235.5 463.5,-235.5"/>
<text text-anchor="middle" x="497.5" y="-242.5" font-family="Helvetica,sans-Serif" font-size="10.00">IAsset.hpp</text>
</a>
</g>
</g>
<!-- Node13&#45;&gt;Node20 -->
<g id="edge38" class="edge">
<title>Node13&#45;&gt;Node20</title>
<path fill="none" stroke="midnightblue" d="M393.15,-291.44C413.46,-282.6 445.4,-268.69 468.6,-258.59"/>
<polygon fill="midnightblue" stroke="midnightblue" points="470.17,-261.72 477.94,-254.52 467.38,-255.3 470.17,-261.72"/>
</g>
<!-- Node15&#45;&gt;Node8 -->
<g id="edge26" class="edge">
<title>Node15&#45;&gt;Node8</title>
<path fill="none" stroke="midnightblue" d="M339.3,-235.68C300.9,-226.34 238.46,-211.15 196.22,-200.88"/>
<polygon fill="midnightblue" stroke="midnightblue" points="197.02,-197.47 186.47,-198.51 195.36,-204.27 197.02,-197.47"/>
</g>
<!-- Node15&#45;&gt;Node9 -->
<g id="edge22" class="edge">
<title>Node15&#45;&gt;Node9</title>
<path fill="none" stroke="midnightblue" d="M382.81,-235.3C391.21,-226.87 403.2,-213.28 409.5,-199 424.46,-165.07 427.85,-121.22 428.5,-96.71"/>
<polygon fill="midnightblue" stroke="midnightblue" points="432,-96.68 428.63,-86.63 425,-96.59 432,-96.68"/>
</g>
<!-- Node15&#45;&gt;Node14 -->
<g id="edge21" class="edge">
<title>Node15&#45;&gt;Node14</title>
<path fill="none" stroke="midnightblue" d="M374.33,-235.08C374.98,-228.01 375.92,-217.86 376.74,-208.99"/>
<polygon fill="midnightblue" stroke="midnightblue" points="380.25,-209.03 377.69,-198.75 373.28,-208.39 380.25,-209.03"/>
</g>
<!-- Node15&#45;&gt;Node16 -->
<g id="edge23" class="edge">
<title>Node15&#45;&gt;Node16</title>
<path fill="none" stroke="midnightblue" d="M391.56,-235.44C410.07,-226.68 439.08,-212.94 460.36,-202.86"/>
<polygon fill="midnightblue" stroke="midnightblue" points="461.98,-205.96 469.52,-198.52 458.99,-199.63 461.98,-205.96"/>
</g>
<!-- Node16&#45;&gt;Node9 -->
<g id="edge24" class="edge">
<title>Node16&#45;&gt;Node9</title>
<path fill="none" stroke="midnightblue" d="M482.87,-179.37C473.22,-161.38 450.79,-119.55 437.95,-95.63"/>
<polygon fill="midnightblue" stroke="midnightblue" points="440.92,-93.75 433.11,-86.59 434.75,-97.06 440.92,-93.75"/>
</g>
<!-- Node16&#45;&gt;Node11 -->
<g id="edge25" class="edge">
<title>Node16&#45;&gt;Node11</title>
<path fill="none" stroke="midnightblue" d="M456.48,-181.38C412.69,-172.03 332.4,-154.9 281.33,-144"/>
<polygon fill="midnightblue" stroke="midnightblue" points="282.04,-140.57 271.53,-141.9 280.57,-147.41 282.04,-140.57"/>
</g>
<!-- Node17&#45;&gt;Node8 -->
<g id="edge31" class="edge">
<title>Node17&#45;&gt;Node8</title>
<path fill="none" stroke="midnightblue" d="M224.52,-235.32C210.95,-226.9 190.12,-213.97 174.18,-204.07"/>
<polygon fill="midnightblue" stroke="midnightblue" points="175.79,-200.95 165.44,-198.65 172.09,-206.9 175.79,-200.95"/>
</g>
<!-- Node17&#45;&gt;Node9 -->
<g id="edge30" class="edge">
<title>Node17&#45;&gt;Node9</title>
<path fill="none" stroke="midnightblue" d="M248.45,-235.31C278.97,-208.64 371.6,-127.72 410.74,-93.52"/>
<polygon fill="midnightblue" stroke="midnightblue" points="413.42,-95.82 418.65,-86.61 408.82,-90.55 413.42,-95.82"/>
</g>
<!-- Node17&#45;&gt;Node11 -->
<g id="edge32" class="edge">
<title>Node17&#45;&gt;Node11</title>
<path fill="none" stroke="midnightblue" d="M247.94,-235.48C260.18,-223.35 279.1,-200.21 271.5,-179 267.56,-168 259.64,-157.77 252.14,-149.85"/>
<polygon fill="midnightblue" stroke="midnightblue" points="254.52,-147.28 244.94,-142.76 249.61,-152.27 254.52,-147.28"/>
</g>
<!-- Node18 -->
<g id="node18" class="node">
<title>Node18</title>
<g id="a_node18"><a xlink:href="Ray_8hpp.html" target="_top" xlink:title=" ">
<polygon fill="white" stroke="black" points="207,-179.5 207,-198.5 262,-198.5 262,-179.5 207,-179.5"/>
<text text-anchor="middle" x="234.5" y="-186.5" font-family="Helvetica,sans-Serif" font-size="10.00">Ray.hpp</text>
</a>
</g>
</g>
<!-- Node17&#45;&gt;Node18 -->
<g id="edge33" class="edge">
<title>Node17&#45;&gt;Node18</title>
<path fill="none" stroke="midnightblue" d="M237.84,-235.08C237.32,-228.01 236.56,-217.86 235.91,-208.99"/>
<polygon fill="midnightblue" stroke="midnightblue" points="239.38,-208.47 235.15,-198.75 232.4,-208.98 239.38,-208.47"/>
</g>
<!-- Node18&#45;&gt;Node11 -->
<g id="edge34" class="edge">
<title>Node18&#45;&gt;Node11</title>
<path fill="none" stroke="midnightblue" d="M234.5,-179.08C234.5,-172.01 234.5,-161.86 234.5,-152.99"/>
<polygon fill="midnightblue" stroke="midnightblue" points="238,-152.75 234.5,-142.75 231,-152.75 238,-152.75"/>
</g>
<!-- Node19&#45;&gt;Node9 -->
<g id="edge36" class="edge">
<title>Node19&#45;&gt;Node9</title>
<path fill="none" stroke="midnightblue" d="M583.68,-235.08C557.2,-208.27 478.09,-128.19 444.19,-93.89"/>
<polygon fill="midnightblue" stroke="midnightblue" points="446.48,-91.22 436.96,-86.57 441.5,-96.14 446.48,-91.22"/>
</g>
<!-- Node19&#45;&gt;Node16 -->
<g id="edge37" class="edge">
<title>Node19&#45;&gt;Node16</title>
<path fill="none" stroke="midnightblue" d="M575.63,-235.32C558.79,-226.66 532.69,-213.24 513.26,-203.25"/>
<polygon fill="midnightblue" stroke="midnightblue" points="514.82,-200.12 504.33,-198.65 511.62,-206.34 514.82,-200.12"/>
</g>
</g>
</svg>
