<?xml version="1.0" encoding="UTF-8" standalone="no"?>
<!DOCTYPE svg PUBLIC "-//W3C//DTD SVG 1.1//EN"
 "http://www.w3.org/Graphics/SVG/1.1/DTD/svg11.dtd">
<!-- Generated by graphviz version 2.43.0 (0)
 -->
<!-- Title: Libs/XMLGenerator/sources/IXMLSerializable/IXMLSerializable.hpp Pages: 1 -->
<svg width="406pt" height="106pt"
 viewBox="0.00 0.00 406.00 106.00" xmlns="http://www.w3.org/2000/svg" xmlns:xlink="http://www.w3.org/1999/xlink">
<g id="graph0" class="graph" transform="scale(1 1) rotate(0) translate(4 102)">
<title>Libs/XMLGenerator/sources/IXMLSerializable/IXMLSerializable.hpp</title>
<polygon fill="white" stroke="transparent" points="-4,4 -4,-102 402,-102 402,4 -4,4"/>
<!-- Node1 -->
<g id="node1" class="node">
<title>Node1</title>
<g id="a_node1"><a xlink:title=" ">
<polygon fill="#bfbfbf" stroke="black" points="54.5,-67.5 54.5,-97.5 260.5,-97.5 260.5,-67.5 54.5,-67.5"/>
<text text-anchor="start" x="62.5" y="-85.5" font-family="Helvetica,sans-Serif" font-size="10.00">Libs/XMLGenerator/sources</text>
<text text-anchor="middle" x="157.5" y="-74.5" font-family="Helvetica,sans-Serif" font-size="10.00">/IXMLSerializable/IXMLSerializable.hpp</text>
</a>
</g>
</g>
<!-- Node2 -->
<g id="node2" class="node">
<title>Node2</title>
<g id="a_node2"><a xlink:title=" ">
<polygon fill="white" stroke="#bfbfbf" points="0,-6 0,-25 57,-25 57,-6 0,-6"/>
<text text-anchor="middle" x="28.5" y="-13" font-family="Helvetica,sans-Serif" font-size="10.00">ostream</text>
</a>
</g>
</g>
<!-- Node1&#45;&gt;Node2 -->
<g id="edge1" class="edge">
<title>Node1&#45;&gt;Node2</title>
<path fill="none" stroke="midnightblue" d="M129.51,-67.4C107.17,-56.14 76.13,-40.5 54.37,-29.54"/>
<polygon fill="midnightblue" stroke="midnightblue" points="55.89,-26.38 45.38,-25.01 52.74,-32.63 55.89,-26.38"/>
</g>
<!-- Node3 -->
<g id="node3" class="node">
<title>Node3</title>
<g id="a_node3"><a xlink:title=" ">
<polygon fill="white" stroke="#bfbfbf" points="75.5,-6 75.5,-25 135.5,-25 135.5,-6 75.5,-6"/>
<text text-anchor="middle" x="105.5" y="-13" font-family="Helvetica,sans-Serif" font-size="10.00">iostream</text>
</a>
</g>
</g>
<!-- Node1&#45;&gt;Node3 -->
<g id="edge2" class="edge">
<title>Node1&#45;&gt;Node3</title>
<path fill="none" stroke="midnightblue" d="M146.22,-67.4C138.19,-57.36 127.37,-43.84 118.9,-33.25"/>
<polygon fill="midnightblue" stroke="midnightblue" points="121.44,-30.82 112.46,-25.19 115.97,-35.19 121.44,-30.82"/>
</g>
<!-- Node4 -->
<g id="node4" class="node">
<title>Node4</title>
<g id="a_node4"><a xlink:title=" ">
<polygon fill="white" stroke="#bfbfbf" points="154,-0.5 154,-30.5 267,-30.5 267,-0.5 154,-0.5"/>
<text text-anchor="start" x="162" y="-18.5" font-family="Helvetica,sans-Serif" font-size="10.00">boost/property_tree</text>
<text text-anchor="middle" x="210.5" y="-7.5" font-family="Helvetica,sans-Serif" font-size="10.00">/ptree.hpp</text>
</a>
</g>
</g>
<!-- Node1&#45;&gt;Node4 -->
<g id="edge3" class="edge">
<title>Node1&#45;&gt;Node4</title>
<path fill="none" stroke="midnightblue" d="M169,-67.4C175.88,-58.96 184.76,-48.07 192.54,-38.52"/>
<polygon fill="midnightblue" stroke="midnightblue" points="195.42,-40.54 199.02,-30.58 189.99,-36.11 195.42,-40.54"/>
</g>
<!-- Node5 -->
<g id="node5" class="node">
<title>Node5</title>
<g id="a_node5"><a xlink:title=" ">
<polygon fill="white" stroke="#bfbfbf" points="285,-0.5 285,-30.5 398,-30.5 398,-0.5 285,-0.5"/>
<text text-anchor="start" x="293" y="-18.5" font-family="Helvetica,sans-Serif" font-size="10.00">boost/property_tree</text>
<text text-anchor="middle" x="341.5" y="-7.5" font-family="Helvetica,sans-Serif" font-size="10.00">/xml_parser.hpp</text>
</a>
</g>
</g>
<!-- Node1&#45;&gt;Node5 -->
<g id="edge4" class="edge">
<title>Node1&#45;&gt;Node5</title>
<path fill="none" stroke="midnightblue" d="M197.43,-67.4C225.15,-57.6 262.29,-44.48 291.92,-34.02"/>
<polygon fill="midnightblue" stroke="midnightblue" points="293.39,-37.21 301.65,-30.58 291.06,-30.61 293.39,-37.21"/>
</g>
</g>
</svg>
