<?xml version="1.0" encoding="UTF-8" standalone="no"?>
<!DOCTYPE svg PUBLIC "-//W3C//DTD SVG 1.1//EN"
 "http://www.w3.org/Graphics/SVG/1.1/DTD/svg11.dtd">
<!-- Generated by graphviz version 2.43.0 (0)
 -->
<!-- Title: Libs/Lua/sources/Exceptions/Exceptions.hpp Pages: 1 -->
<svg width="161pt" height="95pt"
 viewBox="0.00 0.00 161.00 95.00" xmlns="http://www.w3.org/2000/svg" xmlns:xlink="http://www.w3.org/1999/xlink">
<g id="graph0" class="graph" transform="scale(1 1) rotate(0) translate(4 91)">
<title>Libs/Lua/sources/Exceptions/Exceptions.hpp</title>
<polygon fill="white" stroke="transparent" points="-4,4 -4,-91 157,-91 157,4 -4,4"/>
<!-- Node1 -->
<g id="node1" class="node">
<title>Node1</title>
<g id="a_node1"><a xlink:title=" ">
<polygon fill="#bfbfbf" stroke="black" points="0,-56.5 0,-86.5 153,-86.5 153,-56.5 0,-56.5"/>
<text text-anchor="start" x="8" y="-74.5" font-family="Helvetica,sans-Serif" font-size="10.00">Libs/Lua/sources/Exceptions</text>
<text text-anchor="middle" x="76.5" y="-63.5" font-family="Helvetica,sans-Serif" font-size="10.00">/Exceptions.hpp</text>
</a>
</g>
</g>
<!-- Node2 -->
<g id="node2" class="node">
<title>Node2</title>
<g id="a_node2"><a xlink:title=" ">
<polygon fill="white" stroke="#bfbfbf" points="8,-0.5 8,-19.5 73,-19.5 73,-0.5 8,-0.5"/>
<text text-anchor="middle" x="40.5" y="-7.5" font-family="Helvetica,sans-Serif" font-size="10.00">exception</text>
</a>
</g>
</g>
<!-- Node1&#45;&gt;Node2 -->
<g id="edge1" class="edge">
<title>Node1&#45;&gt;Node2</title>
<path fill="none" stroke="midnightblue" d="M67.97,-56.4C62.9,-48.02 56.43,-37.33 51.04,-28.42"/>
<polygon fill="midnightblue" stroke="midnightblue" points="53.91,-26.4 45.74,-19.66 47.92,-30.03 53.91,-26.4"/>
</g>
<!-- Node3 -->
<g id="node3" class="node">
<title>Node3</title>
<g id="a_node3"><a xlink:title=" ">
<polygon fill="white" stroke="#bfbfbf" points="91.5,-0.5 91.5,-19.5 135.5,-19.5 135.5,-0.5 91.5,-0.5"/>
<text text-anchor="middle" x="113.5" y="-7.5" font-family="Helvetica,sans-Serif" font-size="10.00">string</text>
</a>
</g>
</g>
<!-- Node1&#45;&gt;Node3 -->
<g id="edge2" class="edge">
<title>Node1&#45;&gt;Node3</title>
<path fill="none" stroke="midnightblue" d="M85.27,-56.4C90.48,-48.02 97.13,-37.33 102.67,-28.42"/>
<polygon fill="midnightblue" stroke="midnightblue" points="105.81,-30 108.12,-19.66 99.86,-26.3 105.81,-30"/>
</g>
</g>
</svg>
