<?xml version="1.0" encoding="UTF-8" standalone="no"?>
<!DOCTYPE svg PUBLIC "-//W3C//DTD SVG 1.1//EN"
 "http://www.w3.org/Graphics/SVG/1.1/DTD/svg11.dtd">
<!-- Generated by graphviz version 2.43.0 (0)
 -->
<!-- Title: Libs/Lua/tests/Lua.cpp Pages: 1 -->
<svg width="895pt" height="319pt"
 viewBox="0.00 0.00 895.00 319.00" xmlns="http://www.w3.org/2000/svg" xmlns:xlink="http://www.w3.org/1999/xlink">
<g id="graph0" class="graph" transform="scale(1 1) rotate(0) translate(4 315)">
<title>Libs/Lua/tests/Lua.cpp</title>
<polygon fill="white" stroke="transparent" points="-4,4 -4,-315 891,-315 891,4 -4,4"/>
<!-- Node1 -->
<g id="node1" class="node">
<title>Node1</title>
<g id="a_node1"><a xlink:title=" ">
<polygon fill="#bfbfbf" stroke="black" points="243,-291.5 243,-310.5 367,-310.5 367,-291.5 243,-291.5"/>
<text text-anchor="middle" x="305" y="-298.5" font-family="Helvetica,sans-Serif" font-size="10.00">Libs/Lua/tests/Lua.cpp</text>
</a>
</g>
</g>
<!-- Node2 -->
<g id="node2" class="node">
<title>Node2</title>
<g id="a_node2"><a xlink:title=" ">
<polygon fill="white" stroke="#bfbfbf" points="0,-6 0,-25 60,-25 60,-6 0,-6"/>
<text text-anchor="middle" x="30" y="-13" font-family="Helvetica,sans-Serif" font-size="10.00">iostream</text>
</a>
</g>
</g>
<!-- Node1&#45;&gt;Node2 -->
<g id="edge1" class="edge">
<title>Node1&#45;&gt;Node2</title>
<path fill="none" stroke="midnightblue" d="M258.97,-291.45C180.69,-275.59 30,-238.72 30,-190 30,-190 30,-190 30,-132 30,-97.86 30,-58.05 30,-35.21"/>
<polygon fill="midnightblue" stroke="midnightblue" points="33.5,-35.19 30,-25.19 26.5,-35.19 33.5,-35.19"/>
</g>
<!-- Node3 -->
<g id="node3" class="node">
<title>Node3</title>
<g id="a_node3"><a xlink:title=" ">
<polygon fill="white" stroke="#bfbfbf" points="281.5,-179.5 281.5,-198.5 328.5,-198.5 328.5,-179.5 281.5,-179.5"/>
<text text-anchor="middle" x="305" y="-186.5" font-family="Helvetica,sans-Serif" font-size="10.00">vector</text>
</a>
</g>
</g>
<!-- Node1&#45;&gt;Node3 -->
<g id="edge2" class="edge">
<title>Node1&#45;&gt;Node3</title>
<path fill="none" stroke="midnightblue" d="M305,-291.37C305,-273.62 305,-232.67 305,-208.6"/>
<polygon fill="midnightblue" stroke="midnightblue" points="308.5,-208.59 305,-198.59 301.5,-208.59 308.5,-208.59"/>
</g>
<!-- Node4 -->
<g id="node4" class="node">
<title>Node4</title>
<g id="a_node4"><a xlink:title=" ">
<polygon fill="white" stroke="#bfbfbf" points="507,-235.5 507,-254.5 617,-254.5 617,-235.5 507,-235.5"/>
<text text-anchor="middle" x="562" y="-242.5" font-family="Helvetica,sans-Serif" font-size="10.00">criterion/criterion.h</text>
</a>
</g>
</g>
<!-- Node1&#45;&gt;Node4 -->
<g id="edge3" class="edge">
<title>Node1&#45;&gt;Node4</title>
<path fill="none" stroke="midnightblue" d="M345.72,-291.44C390.65,-282 463,-266.8 511.5,-256.61"/>
<polygon fill="midnightblue" stroke="midnightblue" points="512.4,-260 521.47,-254.52 510.96,-253.15 512.4,-260"/>
</g>
<!-- Node5 -->
<g id="node5" class="node">
<title>Node5</title>
<g id="a_node5"><a xlink:href="Vector2_8hpp.html" target="_top" xlink:title=" ">
<polygon fill="white" stroke="black" points="189,-179.5 189,-198.5 263,-198.5 263,-179.5 189,-179.5"/>
<text text-anchor="middle" x="226" y="-186.5" font-family="Helvetica,sans-Serif" font-size="10.00">Vector2.hpp</text>
</a>
</g>
</g>
<!-- Node1&#45;&gt;Node5 -->
<g id="edge4" class="edge">
<title>Node1&#45;&gt;Node5</title>
<path fill="none" stroke="midnightblue" d="M298.8,-291.37C285.76,-273.22 255.3,-230.8 238.2,-206.99"/>
<polygon fill="midnightblue" stroke="midnightblue" points="240.85,-204.67 232.17,-198.59 235.16,-208.76 240.85,-204.67"/>
</g>
<!-- Node14 -->
<g id="node14" class="node">
<title>Node14</title>
<g id="a_node14"><a xlink:href="State_8hpp.html" target="_top" xlink:title=" ">
<polygon fill="white" stroke="black" points="425.5,-235.5 425.5,-254.5 488.5,-254.5 488.5,-235.5 425.5,-235.5"/>
<text text-anchor="middle" x="457" y="-242.5" font-family="Helvetica,sans-Serif" font-size="10.00">State.hpp</text>
</a>
</g>
</g>
<!-- Node1&#45;&gt;Node14 -->
<g id="edge17" class="edge">
<title>Node1&#45;&gt;Node14</title>
<path fill="none" stroke="midnightblue" d="M329.08,-291.44C354.54,-282.4 394.89,-268.06 423.46,-257.92"/>
<polygon fill="midnightblue" stroke="midnightblue" points="424.78,-261.16 433.03,-254.52 422.43,-254.57 424.78,-261.16"/>
</g>
<!-- Node6 -->
<g id="node6" class="node">
<title>Node6</title>
<g id="a_node6"><a xlink:title=" ">
<polygon fill="white" stroke="#bfbfbf" points="270.5,-67.5 270.5,-86.5 323.5,-86.5 323.5,-67.5 270.5,-67.5"/>
<text text-anchor="middle" x="297" y="-74.5" font-family="Helvetica,sans-Serif" font-size="10.00">raylib.h</text>
</a>
</g>
</g>
<!-- Node5&#45;&gt;Node6 -->
<g id="edge5" class="edge">
<title>Node5&#45;&gt;Node6</title>
<path fill="none" stroke="midnightblue" d="M237.19,-179.43C247.44,-171.09 262.42,-157.56 272,-143 281.54,-128.49 288.25,-109.81 292.29,-96.2"/>
<polygon fill="midnightblue" stroke="midnightblue" points="295.67,-97.12 294.97,-86.55 288.92,-95.24 295.67,-97.12"/>
</g>
<!-- Node7 -->
<g id="node7" class="node">
<title>Node7</title>
<g id="a_node7"><a xlink:title=" ">
<polygon fill="white" stroke="#bfbfbf" points="341.5,-67.5 341.5,-86.5 388.5,-86.5 388.5,-67.5 341.5,-67.5"/>
<text text-anchor="middle" x="365" y="-74.5" font-family="Helvetica,sans-Serif" font-size="10.00">cmath</text>
</a>
</g>
</g>
<!-- Node5&#45;&gt;Node7 -->
<g id="edge6" class="edge">
<title>Node5&#45;&gt;Node7</title>
<path fill="none" stroke="midnightblue" d="M239.27,-179.46C252.63,-170.72 273.69,-156.52 291,-143 311.47,-127.01 333.69,-107.12 348.39,-93.58"/>
<polygon fill="midnightblue" stroke="midnightblue" points="350.77,-96.14 355.72,-86.78 346.01,-91.01 350.77,-96.14"/>
</g>
<!-- Node8 -->
<g id="node8" class="node">
<title>Node8</title>
<g id="a_node8"><a xlink:href="Vector3_8hpp.html" target="_top" xlink:title=" ">
<polygon fill="white" stroke="black" points="189,-123.5 189,-142.5 263,-142.5 263,-123.5 189,-123.5"/>
<text text-anchor="middle" x="226" y="-130.5" font-family="Helvetica,sans-Serif" font-size="10.00">Vector3.hpp</text>
</a>
</g>
</g>
<!-- Node5&#45;&gt;Node8 -->
<g id="edge7" class="edge">
<title>Node5&#45;&gt;Node8</title>
<path fill="none" stroke="midnightblue" d="M226,-179.08C226,-172.01 226,-161.86 226,-152.99"/>
<polygon fill="midnightblue" stroke="midnightblue" points="229.5,-152.75 226,-142.75 222.5,-152.75 229.5,-152.75"/>
</g>
<!-- Node9 -->
<g id="node9" class="node">
<title>Node9</title>
<g id="a_node9"><a xlink:href="IXMLSerializable_8hpp.html" target="_top" xlink:title=" ">
<polygon fill="white" stroke="black" points="58.5,-67.5 58.5,-86.5 177.5,-86.5 177.5,-67.5 58.5,-67.5"/>
<text text-anchor="middle" x="118" y="-74.5" font-family="Helvetica,sans-Serif" font-size="10.00">IXMLSerializable.hpp</text>
</a>
</g>
</g>
<!-- Node5&#45;&gt;Node9 -->
<g id="edge16" class="edge">
<title>Node5&#45;&gt;Node9</title>
<path fill="none" stroke="midnightblue" d="M217.09,-179.46C207.76,-170.48 192.72,-155.88 180,-143 163.67,-126.46 145.33,-107.14 132.87,-93.89"/>
<polygon fill="midnightblue" stroke="midnightblue" points="135.33,-91.4 125.93,-86.5 130.22,-96.19 135.33,-91.4"/>
</g>
<!-- Node8&#45;&gt;Node6 -->
<g id="edge8" class="edge">
<title>Node8&#45;&gt;Node6</title>
<path fill="none" stroke="midnightblue" d="M237.41,-123.32C248.11,-115.18 264.34,-102.84 277.16,-93.09"/>
<polygon fill="midnightblue" stroke="midnightblue" points="279.54,-95.67 285.39,-86.83 275.31,-90.1 279.54,-95.67"/>
</g>
<!-- Node8&#45;&gt;Node7 -->
<g id="edge14" class="edge">
<title>Node8&#45;&gt;Node7</title>
<path fill="none" stroke="midnightblue" d="M248.02,-123.44C271.1,-114.48 307.56,-100.31 333.64,-90.18"/>
<polygon fill="midnightblue" stroke="midnightblue" points="335.02,-93.4 343.08,-86.52 332.49,-86.88 335.02,-93.4"/>
</g>
<!-- Node8&#45;&gt;Node9 -->
<g id="edge9" class="edge">
<title>Node8&#45;&gt;Node9</title>
<path fill="none" stroke="midnightblue" d="M208.65,-123.32C191.33,-114.66 164.48,-101.24 144.5,-91.25"/>
<polygon fill="midnightblue" stroke="midnightblue" points="145.82,-88 135.31,-86.65 142.69,-94.26 145.82,-88"/>
</g>
<!-- Node13 -->
<g id="node13" class="node">
<title>Node13</title>
<g id="a_node13"><a xlink:title=" ">
<polygon fill="white" stroke="#bfbfbf" points="196,-67.5 196,-86.5 252,-86.5 252,-67.5 196,-67.5"/>
<text text-anchor="middle" x="224" y="-74.5" font-family="Helvetica,sans-Serif" font-size="10.00">sstream</text>
</a>
</g>
</g>
<!-- Node8&#45;&gt;Node13 -->
<g id="edge15" class="edge">
<title>Node8&#45;&gt;Node13</title>
<path fill="none" stroke="midnightblue" d="M225.67,-123.08C225.41,-116.01 225.03,-105.86 224.7,-96.99"/>
<polygon fill="midnightblue" stroke="midnightblue" points="228.19,-96.61 224.32,-86.75 221.2,-96.87 228.19,-96.61"/>
</g>
<!-- Node9&#45;&gt;Node2 -->
<g id="edge11" class="edge">
<title>Node9&#45;&gt;Node2</title>
<path fill="none" stroke="midnightblue" d="M105.39,-67.48C91.28,-57.93 68.17,-42.31 51.25,-30.87"/>
<polygon fill="midnightblue" stroke="midnightblue" points="52.83,-27.71 42.58,-25.01 48.91,-33.51 52.83,-27.71"/>
</g>
<!-- Node10 -->
<g id="node10" class="node">
<title>Node10</title>
<g id="a_node10"><a xlink:title=" ">
<polygon fill="white" stroke="#bfbfbf" points="78.5,-6 78.5,-25 135.5,-25 135.5,-6 78.5,-6"/>
<text text-anchor="middle" x="107" y="-13" font-family="Helvetica,sans-Serif" font-size="10.00">ostream</text>
</a>
</g>
</g>
<!-- Node9&#45;&gt;Node10 -->
<g id="edge10" class="edge">
<title>Node9&#45;&gt;Node10</title>
<path fill="none" stroke="midnightblue" d="M116.42,-67.48C114.87,-59.08 112.45,-45.98 110.45,-35.16"/>
<polygon fill="midnightblue" stroke="midnightblue" points="113.83,-34.21 108.57,-25.01 106.95,-35.48 113.83,-34.21"/>
</g>
<!-- Node11 -->
<g id="node11" class="node">
<title>Node11</title>
<g id="a_node11"><a xlink:title=" ">
<polygon fill="white" stroke="#bfbfbf" points="153.5,-0.5 153.5,-30.5 266.5,-30.5 266.5,-0.5 153.5,-0.5"/>
<text text-anchor="start" x="161.5" y="-18.5" font-family="Helvetica,sans-Serif" font-size="10.00">boost/property_tree</text>
<text text-anchor="middle" x="210" y="-7.5" font-family="Helvetica,sans-Serif" font-size="10.00">/ptree.hpp</text>
</a>
</g>
</g>
<!-- Node9&#45;&gt;Node11 -->
<g id="edge12" class="edge">
<title>Node9&#45;&gt;Node11</title>
<path fill="none" stroke="midnightblue" d="M131.18,-67.48C143.76,-59.34 163.16,-46.79 179.57,-36.18"/>
<polygon fill="midnightblue" stroke="midnightblue" points="181.82,-38.89 188.32,-30.52 178.02,-33.01 181.82,-38.89"/>
</g>
<!-- Node12 -->
<g id="node12" class="node">
<title>Node12</title>
<g id="a_node12"><a xlink:title=" ">
<polygon fill="white" stroke="#bfbfbf" points="284.5,-0.5 284.5,-30.5 397.5,-30.5 397.5,-0.5 284.5,-0.5"/>
<text text-anchor="start" x="292.5" y="-18.5" font-family="Helvetica,sans-Serif" font-size="10.00">boost/property_tree</text>
<text text-anchor="middle" x="341" y="-7.5" font-family="Helvetica,sans-Serif" font-size="10.00">/xml_parser.hpp</text>
</a>
</g>
</g>
<!-- Node9&#45;&gt;Node12 -->
<g id="edge13" class="edge">
<title>Node9&#45;&gt;Node12</title>
<path fill="none" stroke="midnightblue" d="M149.95,-67.48C183.4,-58.55 236.78,-44.31 278.62,-33.14"/>
<polygon fill="midnightblue" stroke="midnightblue" points="279.68,-36.48 288.44,-30.52 277.88,-29.72 279.68,-36.48"/>
</g>
<!-- Node14&#45;&gt;Node3 -->
<g id="edge20" class="edge">
<title>Node14&#45;&gt;Node3</title>
<path fill="none" stroke="midnightblue" d="M432.92,-235.44C407.46,-226.4 367.11,-212.06 338.54,-201.92"/>
<polygon fill="midnightblue" stroke="midnightblue" points="339.57,-198.57 328.97,-198.52 337.22,-205.16 339.57,-198.57"/>
</g>
<!-- Node14&#45;&gt;Node5 -->
<g id="edge25" class="edge">
<title>Node14&#45;&gt;Node5</title>
<path fill="none" stroke="midnightblue" d="M425.36,-236.6C385.85,-227.37 317.91,-211.49 272.48,-200.87"/>
<polygon fill="midnightblue" stroke="midnightblue" points="273.11,-197.42 262.58,-198.55 271.52,-204.24 273.11,-197.42"/>
</g>
<!-- Node15 -->
<g id="node15" class="node">
<title>Node15</title>
<g id="a_node15"><a xlink:title=" ">
<polygon fill="white" stroke="#bfbfbf" points="773,-179.5 773,-198.5 831,-198.5 831,-179.5 773,-179.5"/>
<text text-anchor="middle" x="802" y="-186.5" font-family="Helvetica,sans-Serif" font-size="10.00">memory</text>
</a>
</g>
</g>
<!-- Node14&#45;&gt;Node15 -->
<g id="edge18" class="edge">
<title>Node14&#45;&gt;Node15</title>
<path fill="none" stroke="midnightblue" d="M488.73,-236.77C491.86,-236.13 494.99,-235.53 498,-235 612.26,-214.76 644.93,-220.43 762.48,-199.13"/>
<polygon fill="midnightblue" stroke="midnightblue" points="763.4,-202.52 772.6,-197.26 762.13,-195.63 763.4,-202.52"/>
</g>
<!-- Node16 -->
<g id="node16" class="node">
<title>Node16</title>
<g id="a_node16"><a xlink:title=" ">
<polygon fill="white" stroke="#bfbfbf" points="849,-179.5 849,-198.5 887,-198.5 887,-179.5 849,-179.5"/>
<text text-anchor="middle" x="868" y="-186.5" font-family="Helvetica,sans-Serif" font-size="10.00">map</text>
</a>
</g>
</g>
<!-- Node14&#45;&gt;Node16 -->
<g id="edge19" class="edge">
<title>Node14&#45;&gt;Node16</title>
<path fill="none" stroke="midnightblue" d="M488.72,-236.67C491.84,-236.06 494.98,-235.49 498,-235 645.63,-211.1 688.62,-229.71 838.81,-198.83"/>
<polygon fill="midnightblue" stroke="midnightblue" points="839.79,-202.2 848.86,-196.73 838.36,-195.35 839.79,-202.2"/>
</g>
<!-- Node17 -->
<g id="node17" class="node">
<title>Node17</title>
<g id="a_node17"><a xlink:title=" ">
<polygon fill="white" stroke="#bfbfbf" points="347,-179.5 347,-198.5 391,-198.5 391,-179.5 347,-179.5"/>
<text text-anchor="middle" x="369" y="-186.5" font-family="Helvetica,sans-Serif" font-size="10.00">string</text>
</a>
</g>
</g>
<!-- Node14&#45;&gt;Node17 -->
<g id="edge21" class="edge">
<title>Node14&#45;&gt;Node17</title>
<path fill="none" stroke="midnightblue" d="M442.86,-235.32C429.13,-226.9 408.06,-213.97 391.94,-204.07"/>
<polygon fill="midnightblue" stroke="midnightblue" points="393.46,-200.9 383.1,-198.65 389.8,-206.87 393.46,-200.9"/>
</g>
<!-- Node18 -->
<g id="node18" class="node">
<title>Node18</title>
<g id="a_node18"><a xlink:href="DelayedPop_8hpp.html" target="_top" xlink:title=" ">
<polygon fill="white" stroke="black" points="409,-179.5 409,-198.5 505,-198.5 505,-179.5 409,-179.5"/>
<text text-anchor="middle" x="457" y="-186.5" font-family="Helvetica,sans-Serif" font-size="10.00">DelayedPop.hpp</text>
</a>
</g>
</g>
<!-- Node14&#45;&gt;Node18 -->
<g id="edge22" class="edge">
<title>Node14&#45;&gt;Node18</title>
<path fill="none" stroke="midnightblue" d="M457,-235.08C457,-228.01 457,-217.86 457,-208.99"/>
<polygon fill="midnightblue" stroke="midnightblue" points="460.5,-208.75 457,-198.75 453.5,-208.75 460.5,-208.75"/>
</g>
<!-- Node19 -->
<g id="node19" class="node">
<title>Node19</title>
<g id="a_node19"><a xlink:href="Nil_8hpp.html" target="_top" xlink:title=" ">
<polygon fill="white" stroke="black" points="523.5,-179.5 523.5,-198.5 574.5,-198.5 574.5,-179.5 523.5,-179.5"/>
<text text-anchor="middle" x="549" y="-186.5" font-family="Helvetica,sans-Serif" font-size="10.00">Nil.hpp</text>
</a>
</g>
</g>
<!-- Node14&#45;&gt;Node19 -->
<g id="edge23" class="edge">
<title>Node14&#45;&gt;Node19</title>
<path fill="none" stroke="midnightblue" d="M471.78,-235.32C486.27,-226.82 508.57,-213.73 525.49,-203.8"/>
<polygon fill="midnightblue" stroke="midnightblue" points="527.4,-206.74 534.26,-198.65 523.86,-200.7 527.4,-206.74"/>
</g>
<!-- Node20 -->
<g id="node20" class="node">
<title>Node20</title>
<g id="a_node20"><a xlink:title=" ">
<polygon fill="white" stroke="#bfbfbf" points="592.5,-179.5 592.5,-198.5 645.5,-198.5 645.5,-179.5 592.5,-179.5"/>
<text text-anchor="middle" x="619" y="-186.5" font-family="Helvetica,sans-Serif" font-size="10.00">lua.hpp</text>
</a>
</g>
</g>
<!-- Node14&#45;&gt;Node20 -->
<g id="edge24" class="edge">
<title>Node14&#45;&gt;Node20</title>
<path fill="none" stroke="midnightblue" d="M482.67,-235.44C509.92,-226.36 553.18,-211.94 583.65,-201.78"/>
<polygon fill="midnightblue" stroke="midnightblue" points="585.07,-205 593.45,-198.52 582.86,-198.36 585.07,-205"/>
</g>
<!-- Node21 -->
<g id="node21" class="node">
<title>Node21</title>
<g id="a_node21"><a xlink:title=" ">
<polygon fill="white" stroke="#bfbfbf" points="663.5,-179.5 663.5,-198.5 754.5,-198.5 754.5,-179.5 663.5,-179.5"/>
<text text-anchor="middle" x="709" y="-186.5" font-family="Helvetica,sans-Serif" font-size="10.00">Exceptions.hpp</text>
</a>
</g>
</g>
<!-- Node14&#45;&gt;Node21 -->
<g id="edge26" class="edge">
<title>Node14&#45;&gt;Node21</title>
<path fill="none" stroke="midnightblue" d="M488.78,-237C491.89,-236.32 495.01,-235.65 498,-235 552.9,-223.12 615.9,-209.71 658.66,-200.65"/>
<polygon fill="midnightblue" stroke="midnightblue" points="659.48,-204.05 668.53,-198.56 658.03,-197.2 659.48,-204.05"/>
</g>
</g>
</svg>
