<?xml version="1.0" encoding="UTF-8" standalone="no"?>
<!DOCTYPE svg PUBLIC "-//W3C//DTD SVG 1.1//EN"
 "http://www.w3.org/Graphics/SVG/1.1/DTD/svg11.dtd">
<!-- Generated by graphviz version 2.43.0 (0)
 -->
<!-- Title: Libs/RayLib/sources/Mesh/Mesh.cpp Pages: 1 -->
<svg width="524pt" height="386pt"
 viewBox="0.00 0.00 523.87 386.00" xmlns="http://www.w3.org/2000/svg" xmlns:xlink="http://www.w3.org/1999/xlink">
<g id="graph0" class="graph" transform="scale(1 1) rotate(0) translate(4 382)">
<title>Libs/RayLib/sources/Mesh/Mesh.cpp</title>
<polygon fill="white" stroke="transparent" points="-4,4 -4,-382 519.87,-382 519.87,4 -4,4"/>
<!-- Node1 -->
<g id="node1" class="node">
<title>Node1</title>
<g id="a_node1"><a xlink:title=" ">
<polygon fill="#bfbfbf" stroke="black" points="147.87,-347.5 147.87,-377.5 260.87,-377.5 260.87,-347.5 147.87,-347.5"/>
<text text-anchor="start" x="155.87" y="-365.5" font-family="Helvetica,sans-Serif" font-size="10.00">Libs/RayLib/sources</text>
<text text-anchor="middle" x="204.37" y="-354.5" font-family="Helvetica,sans-Serif" font-size="10.00">/Mesh/Mesh.cpp</text>
</a>
</g>
</g>
<!-- Node2 -->
<g id="node2" class="node">
<title>Node2</title>
<g id="a_node2"><a xlink:href="Mesh_8hpp.html" target="_top" xlink:title=" ">
<polygon fill="white" stroke="black" points="172.37,-291.5 172.37,-310.5 236.37,-310.5 236.37,-291.5 172.37,-291.5"/>
<text text-anchor="middle" x="204.37" y="-298.5" font-family="Helvetica,sans-Serif" font-size="10.00">Mesh.hpp</text>
</a>
</g>
</g>
<!-- Node1&#45;&gt;Node2 -->
<g id="edge1" class="edge">
<title>Node1&#45;&gt;Node2</title>
<path fill="none" stroke="midnightblue" d="M204.37,-347.4C204.37,-339.47 204.37,-329.46 204.37,-320.86"/>
<polygon fill="midnightblue" stroke="midnightblue" points="207.87,-320.66 204.37,-310.66 200.87,-320.66 207.87,-320.66"/>
</g>
<!-- Node3 -->
<g id="node3" class="node">
<title>Node3</title>
<g id="a_node3"><a xlink:title=" ">
<polygon fill="white" stroke="#bfbfbf" points="5.87,-67.5 5.87,-86.5 58.87,-86.5 58.87,-67.5 5.87,-67.5"/>
<text text-anchor="middle" x="32.37" y="-74.5" font-family="Helvetica,sans-Serif" font-size="10.00">raylib.h</text>
</a>
</g>
</g>
<!-- Node2&#45;&gt;Node3 -->
<g id="edge2" class="edge">
<title>Node2&#45;&gt;Node3</title>
<path fill="none" stroke="midnightblue" d="M172.24,-294.54C126.12,-284.73 43.1,-259.22 10.37,-199 -5.77,-169.31 0.18,-155.78 8.37,-123 10.81,-113.25 15.81,-103.29 20.61,-95.23"/>
<polygon fill="midnightblue" stroke="midnightblue" points="23.58,-97.08 26,-86.77 17.68,-93.32 23.58,-97.08"/>
</g>
<!-- Node4 -->
<g id="node4" class="node">
<title>Node4</title>
<g id="a_node4"><a xlink:href="Image_8hpp.html" target="_top" xlink:title=" ">
<polygon fill="white" stroke="black" points="99.37,-235.5 99.37,-254.5 167.37,-254.5 167.37,-235.5 99.37,-235.5"/>
<text text-anchor="middle" x="133.37" y="-242.5" font-family="Helvetica,sans-Serif" font-size="10.00">Image.hpp</text>
</a>
</g>
</g>
<!-- Node2&#45;&gt;Node4 -->
<g id="edge3" class="edge">
<title>Node2&#45;&gt;Node4</title>
<path fill="none" stroke="midnightblue" d="M192.96,-291.32C182.26,-283.18 166.03,-270.84 153.21,-261.09"/>
<polygon fill="midnightblue" stroke="midnightblue" points="155.06,-258.1 144.99,-254.83 150.83,-263.67 155.06,-258.1"/>
</g>
<!-- Node7 -->
<g id="node7" class="node">
<title>Node7</title>
<g id="a_node7"><a xlink:href="Vector3_8hpp.html" target="_top" xlink:title=" ">
<polygon fill="white" stroke="black" points="108.37,-123.5 108.37,-142.5 182.37,-142.5 182.37,-123.5 108.37,-123.5"/>
<text text-anchor="middle" x="145.37" y="-130.5" font-family="Helvetica,sans-Serif" font-size="10.00">Vector3.hpp</text>
</a>
</g>
</g>
<!-- Node2&#45;&gt;Node7 -->
<g id="edge22" class="edge">
<title>Node2&#45;&gt;Node7</title>
<path fill="none" stroke="midnightblue" d="M213.78,-291.23C234.88,-270.5 282.18,-217.31 256.37,-179 242.04,-157.72 215.74,-146.5 192.34,-140.59"/>
<polygon fill="midnightblue" stroke="midnightblue" points="193.05,-137.16 182.53,-138.36 191.51,-143.99 193.05,-137.16"/>
</g>
<!-- Node16 -->
<g id="node16" class="node">
<title>Node16</title>
<g id="a_node16"><a xlink:href="IAsset_8hpp.html" target="_top" xlink:title=" ">
<polygon fill="white" stroke="black" points="303.37,-235.5 303.37,-254.5 371.37,-254.5 371.37,-235.5 303.37,-235.5"/>
<text text-anchor="middle" x="337.37" y="-242.5" font-family="Helvetica,sans-Serif" font-size="10.00">IAsset.hpp</text>
</a>
</g>
</g>
<!-- Node2&#45;&gt;Node16 -->
<g id="edge23" class="edge">
<title>Node2&#45;&gt;Node16</title>
<path fill="none" stroke="midnightblue" d="M225.45,-291.44C247.43,-282.52 282.11,-268.44 307.03,-258.32"/>
<polygon fill="midnightblue" stroke="midnightblue" points="308.45,-261.52 316.4,-254.52 305.81,-255.04 308.45,-261.52"/>
</g>
<!-- Node4&#45;&gt;Node3 -->
<g id="edge5" class="edge">
<title>Node4&#45;&gt;Node3</title>
<path fill="none" stroke="midnightblue" d="M99.16,-240.21C73.28,-235.35 39.39,-224.27 22.37,-199 1.35,-167.79 14.5,-121.28 24.4,-95.97"/>
<polygon fill="midnightblue" stroke="midnightblue" points="27.71,-97.11 28.33,-86.53 21.25,-94.42 27.71,-97.11"/>
</g>
<!-- Node5 -->
<g id="node5" class="node">
<title>Node5</title>
<g id="a_node5"><a xlink:title=" ">
<polygon fill="white" stroke="#bfbfbf" points="111.37,-179.5 111.37,-198.5 155.37,-198.5 155.37,-179.5 111.37,-179.5"/>
<text text-anchor="middle" x="133.37" y="-186.5" font-family="Helvetica,sans-Serif" font-size="10.00">string</text>
</a>
</g>
</g>
<!-- Node4&#45;&gt;Node5 -->
<g id="edge4" class="edge">
<title>Node4&#45;&gt;Node5</title>
<path fill="none" stroke="midnightblue" d="M133.37,-235.08C133.37,-228.01 133.37,-217.86 133.37,-208.99"/>
<polygon fill="midnightblue" stroke="midnightblue" points="136.87,-208.75 133.37,-198.75 129.87,-208.75 136.87,-208.75"/>
</g>
<!-- Node6 -->
<g id="node6" class="node">
<title>Node6</title>
<g id="a_node6"><a xlink:href="Color_8hpp.html" target="_top" xlink:title=" ">
<polygon fill="white" stroke="black" points="31.37,-179.5 31.37,-198.5 93.37,-198.5 93.37,-179.5 31.37,-179.5"/>
<text text-anchor="middle" x="62.37" y="-186.5" font-family="Helvetica,sans-Serif" font-size="10.00">Color.hpp</text>
</a>
</g>
</g>
<!-- Node4&#45;&gt;Node6 -->
<g id="edge6" class="edge">
<title>Node4&#45;&gt;Node6</title>
<path fill="none" stroke="midnightblue" d="M121.96,-235.32C111.26,-227.18 95.03,-214.84 82.21,-205.09"/>
<polygon fill="midnightblue" stroke="midnightblue" points="84.06,-202.1 73.99,-198.83 79.83,-207.67 84.06,-202.1"/>
</g>
<!-- Node15 -->
<g id="node15" class="node">
<title>Node15</title>
<g id="a_node15"><a xlink:href="Vector2_8hpp.html" target="_top" xlink:title=" ">
<polygon fill="white" stroke="black" points="173.37,-179.5 173.37,-198.5 247.37,-198.5 247.37,-179.5 173.37,-179.5"/>
<text text-anchor="middle" x="210.37" y="-186.5" font-family="Helvetica,sans-Serif" font-size="10.00">Vector2.hpp</text>
</a>
</g>
</g>
<!-- Node4&#45;&gt;Node15 -->
<g id="edge17" class="edge">
<title>Node4&#45;&gt;Node15</title>
<path fill="none" stroke="midnightblue" d="M145.74,-235.32C157.53,-227.06 175.5,-214.45 189.51,-204.63"/>
<polygon fill="midnightblue" stroke="midnightblue" points="191.85,-207.26 198.03,-198.65 187.83,-201.53 191.85,-207.26"/>
</g>
<!-- Node6&#45;&gt;Node3 -->
<g id="edge7" class="edge">
<title>Node6&#45;&gt;Node3</title>
<path fill="none" stroke="midnightblue" d="M60.02,-179.37C55.15,-161.54 43.91,-120.3 37.35,-96.27"/>
<polygon fill="midnightblue" stroke="midnightblue" points="40.72,-95.32 34.71,-86.59 33.97,-97.16 40.72,-95.32"/>
</g>
<!-- Node6&#45;&gt;Node7 -->
<g id="edge8" class="edge">
<title>Node6&#45;&gt;Node7</title>
<path fill="none" stroke="midnightblue" d="M75.71,-179.32C88.53,-170.98 108.16,-158.21 123.31,-148.35"/>
<polygon fill="midnightblue" stroke="midnightblue" points="125.6,-151.04 132.07,-142.65 121.78,-145.17 125.6,-151.04"/>
</g>
<!-- Node7&#45;&gt;Node3 -->
<g id="edge9" class="edge">
<title>Node7&#45;&gt;Node3</title>
<path fill="none" stroke="midnightblue" d="M127.47,-123.44C109.12,-114.68 80.37,-100.94 59.28,-90.86"/>
<polygon fill="midnightblue" stroke="midnightblue" points="60.72,-87.67 50.19,-86.52 57.71,-93.99 60.72,-87.67"/>
</g>
<!-- Node8 -->
<g id="node8" class="node">
<title>Node8</title>
<g id="a_node8"><a xlink:href="IXMLSerializable_8hpp.html" target="_top" xlink:title=" ">
<polygon fill="white" stroke="black" points="216.87,-67.5 216.87,-86.5 335.87,-86.5 335.87,-67.5 216.87,-67.5"/>
<text text-anchor="middle" x="276.37" y="-74.5" font-family="Helvetica,sans-Serif" font-size="10.00">IXMLSerializable.hpp</text>
</a>
</g>
</g>
<!-- Node7&#45;&gt;Node8 -->
<g id="edge10" class="edge">
<title>Node7&#45;&gt;Node8</title>
<path fill="none" stroke="midnightblue" d="M166.13,-123.44C187.69,-114.56 221.63,-100.56 246.16,-90.45"/>
<polygon fill="midnightblue" stroke="midnightblue" points="247.8,-93.56 255.71,-86.52 245.13,-87.09 247.8,-93.56"/>
</g>
<!-- Node13 -->
<g id="node13" class="node">
<title>Node13</title>
<g id="a_node13"><a xlink:title=" ">
<polygon fill="white" stroke="#bfbfbf" points="151.87,-67.5 151.87,-86.5 198.87,-86.5 198.87,-67.5 151.87,-67.5"/>
<text text-anchor="middle" x="175.37" y="-74.5" font-family="Helvetica,sans-Serif" font-size="10.00">cmath</text>
</a>
</g>
</g>
<!-- Node7&#45;&gt;Node13 -->
<g id="edge15" class="edge">
<title>Node7&#45;&gt;Node13</title>
<path fill="none" stroke="midnightblue" d="M150.32,-123.08C154.47,-115.61 160.52,-104.72 165.64,-95.52"/>
<polygon fill="midnightblue" stroke="midnightblue" points="168.71,-97.19 170.51,-86.75 162.59,-93.79 168.71,-97.19"/>
</g>
<!-- Node14 -->
<g id="node14" class="node">
<title>Node14</title>
<g id="a_node14"><a xlink:title=" ">
<polygon fill="white" stroke="#bfbfbf" points="77.37,-67.5 77.37,-86.5 133.37,-86.5 133.37,-67.5 77.37,-67.5"/>
<text text-anchor="middle" x="105.37" y="-74.5" font-family="Helvetica,sans-Serif" font-size="10.00">sstream</text>
</a>
</g>
</g>
<!-- Node7&#45;&gt;Node14 -->
<g id="edge16" class="edge">
<title>Node7&#45;&gt;Node14</title>
<path fill="none" stroke="midnightblue" d="M138.77,-123.08C133.12,-115.46 124.83,-104.26 117.92,-94.94"/>
<polygon fill="midnightblue" stroke="midnightblue" points="120.62,-92.7 111.85,-86.75 114.99,-96.87 120.62,-92.7"/>
</g>
<!-- Node9 -->
<g id="node9" class="node">
<title>Node9</title>
<g id="a_node9"><a xlink:title=" ">
<polygon fill="white" stroke="#bfbfbf" points="117.87,-6 117.87,-25 174.87,-25 174.87,-6 117.87,-6"/>
<text text-anchor="middle" x="146.37" y="-13" font-family="Helvetica,sans-Serif" font-size="10.00">ostream</text>
</a>
</g>
</g>
<!-- Node8&#45;&gt;Node9 -->
<g id="edge11" class="edge">
<title>Node8&#45;&gt;Node9</title>
<path fill="none" stroke="midnightblue" d="M257.74,-67.48C235.93,-57.49 199.57,-40.85 174.35,-29.31"/>
<polygon fill="midnightblue" stroke="midnightblue" points="175.51,-25.99 164.96,-25.01 172.6,-32.35 175.51,-25.99"/>
</g>
<!-- Node10 -->
<g id="node10" class="node">
<title>Node10</title>
<g id="a_node10"><a xlink:title=" ">
<polygon fill="white" stroke="#bfbfbf" points="193.37,-6 193.37,-25 253.37,-25 253.37,-6 193.37,-6"/>
<text text-anchor="middle" x="223.37" y="-13" font-family="Helvetica,sans-Serif" font-size="10.00">iostream</text>
</a>
</g>
</g>
<!-- Node8&#45;&gt;Node10 -->
<g id="edge12" class="edge">
<title>Node8&#45;&gt;Node10</title>
<path fill="none" stroke="midnightblue" d="M268.78,-67.48C260.67,-58.37 247.64,-43.74 237.61,-32.48"/>
<polygon fill="midnightblue" stroke="midnightblue" points="240.22,-30.15 230.95,-25.01 234.99,-34.8 240.22,-30.15"/>
</g>
<!-- Node11 -->
<g id="node11" class="node">
<title>Node11</title>
<g id="a_node11"><a xlink:title=" ">
<polygon fill="white" stroke="#bfbfbf" points="271.87,-0.5 271.87,-30.5 384.87,-30.5 384.87,-0.5 271.87,-0.5"/>
<text text-anchor="start" x="279.87" y="-18.5" font-family="Helvetica,sans-Serif" font-size="10.00">boost/property_tree</text>
<text text-anchor="middle" x="328.37" y="-7.5" font-family="Helvetica,sans-Serif" font-size="10.00">/ptree.hpp</text>
</a>
</g>
</g>
<!-- Node8&#45;&gt;Node11 -->
<g id="edge13" class="edge">
<title>Node8&#45;&gt;Node11</title>
<path fill="none" stroke="midnightblue" d="M283.82,-67.48C290.47,-59.87 300.49,-48.4 309.35,-38.26"/>
<polygon fill="midnightblue" stroke="midnightblue" points="312.17,-40.36 316.12,-30.52 306.9,-35.75 312.17,-40.36"/>
</g>
<!-- Node12 -->
<g id="node12" class="node">
<title>Node12</title>
<g id="a_node12"><a xlink:title=" ">
<polygon fill="white" stroke="#bfbfbf" points="402.87,-0.5 402.87,-30.5 515.87,-30.5 515.87,-0.5 402.87,-0.5"/>
<text text-anchor="start" x="410.87" y="-18.5" font-family="Helvetica,sans-Serif" font-size="10.00">boost/property_tree</text>
<text text-anchor="middle" x="459.37" y="-7.5" font-family="Helvetica,sans-Serif" font-size="10.00">/xml_parser.hpp</text>
</a>
</g>
</g>
<!-- Node8&#45;&gt;Node12 -->
<g id="edge14" class="edge">
<title>Node8&#45;&gt;Node12</title>
<path fill="none" stroke="midnightblue" d="M302.59,-67.48C329.58,-58.7 372.37,-44.79 406.43,-33.71"/>
<polygon fill="midnightblue" stroke="midnightblue" points="407.81,-36.94 416.24,-30.52 405.65,-30.29 407.81,-36.94"/>
</g>
<!-- Node15&#45;&gt;Node3 -->
<g id="edge18" class="edge">
<title>Node15&#45;&gt;Node3</title>
<path fill="none" stroke="midnightblue" d="M180.59,-179.4C157.33,-171.88 124.8,-159.58 99.37,-143 78.49,-129.39 58.51,-108.67 45.89,-94.3"/>
<polygon fill="midnightblue" stroke="midnightblue" points="48.52,-91.99 39.36,-86.67 43.21,-96.54 48.52,-91.99"/>
</g>
<!-- Node15&#45;&gt;Node7 -->
<g id="edge20" class="edge">
<title>Node15&#45;&gt;Node7</title>
<path fill="none" stroke="midnightblue" d="M199.93,-179.32C190.22,-171.26 175.56,-159.08 163.87,-149.37"/>
<polygon fill="midnightblue" stroke="midnightblue" points="165.93,-146.53 156,-142.83 161.46,-151.92 165.93,-146.53"/>
</g>
<!-- Node15&#45;&gt;Node8 -->
<g id="edge21" class="edge">
<title>Node15&#45;&gt;Node8</title>
<path fill="none" stroke="midnightblue" d="M215.55,-179.37C226.39,-161.3 251.66,-119.18 265.99,-95.31"/>
<polygon fill="midnightblue" stroke="midnightblue" points="269.07,-96.97 271.22,-86.59 263.07,-93.37 269.07,-96.97"/>
</g>
<!-- Node15&#45;&gt;Node13 -->
<g id="edge19" class="edge">
<title>Node15&#45;&gt;Node13</title>
<path fill="none" stroke="midnightblue" d="M207.95,-179.12C204.48,-166.56 197.81,-142.91 191.37,-123 188.49,-114.11 185.05,-104.34 182.1,-96.17"/>
<polygon fill="midnightblue" stroke="midnightblue" points="185.31,-94.76 178.59,-86.58 178.74,-97.17 185.31,-94.76"/>
</g>
</g>
</svg>
