<?xml version="1.0" encoding="UTF-8" standalone="no"?>
<!DOCTYPE svg PUBLIC "-//W3C//DTD SVG 1.1//EN"
 "http://www.w3.org/Graphics/SVG/1.1/DTD/svg11.dtd">
<!-- Generated by graphviz version 2.43.0 (0)
 -->
<!-- Title: Libs/RayLib/sources/Model/Model.hpp Pages: 1 -->
<svg width="1057pt" height="386pt"
 viewBox="0.00 0.00 1057.44 386.00" xmlns="http://www.w3.org/2000/svg" xmlns:xlink="http://www.w3.org/1999/xlink">
<g id="graph0" class="graph" transform="scale(1 1) rotate(0) translate(4 382)">
<title>Libs/RayLib/sources/Model/Model.hpp</title>
<polygon fill="white" stroke="transparent" points="-4,4 -4,-382 1053.44,-382 1053.44,4 -4,4"/>
<!-- Node1 -->
<g id="node1" class="node">
<title>Node1</title>
<g id="a_node1"><a xlink:title=" ">
<polygon fill="#bfbfbf" stroke="black" points="468.44,-347.5 468.44,-377.5 581.44,-377.5 581.44,-347.5 468.44,-347.5"/>
<text text-anchor="start" x="476.44" y="-365.5" font-family="Helvetica,sans-Serif" font-size="10.00">Libs/RayLib/sources</text>
<text text-anchor="middle" x="524.94" y="-354.5" font-family="Helvetica,sans-Serif" font-size="10.00">/Model/Model.hpp</text>
</a>
</g>
</g>
<!-- Node2 -->
<g id="node2" class="node">
<title>Node2</title>
<g id="a_node2"><a xlink:title=" ">
<polygon fill="white" stroke="#bfbfbf" points="394.44,-67.5 394.44,-86.5 447.44,-86.5 447.44,-67.5 394.44,-67.5"/>
<text text-anchor="middle" x="420.94" y="-74.5" font-family="Helvetica,sans-Serif" font-size="10.00">raylib.h</text>
</a>
</g>
</g>
<!-- Node1&#45;&gt;Node2 -->
<g id="edge1" class="edge">
<title>Node1&#45;&gt;Node2</title>
<path fill="none" stroke="midnightblue" d="M581.57,-357.61C668.62,-350.95 830.71,-335.63 882.94,-311 921.63,-292.75 953.94,-288.78 953.94,-246 953.94,-246 953.94,-246 953.94,-188 953.94,-86.54 578.8,-77.9 457.96,-77.75"/>
<polygon fill="midnightblue" stroke="midnightblue" points="457.73,-74.25 447.73,-77.75 457.74,-81.25 457.73,-74.25"/>
</g>
<!-- Node3 -->
<g id="node3" class="node">
<title>Node3</title>
<g id="a_node3"><a xlink:title=" ">
<polygon fill="white" stroke="#bfbfbf" points="738.94,-179.5 738.94,-198.5 782.94,-198.5 782.94,-179.5 738.94,-179.5"/>
<text text-anchor="middle" x="760.94" y="-186.5" font-family="Helvetica,sans-Serif" font-size="10.00">string</text>
</a>
</g>
</g>
<!-- Node1&#45;&gt;Node3 -->
<g id="edge2" class="edge">
<title>Node1&#45;&gt;Node3</title>
<path fill="none" stroke="midnightblue" d="M575.81,-347.47C623.15,-332.01 692.72,-302.78 735.94,-255 747.71,-241.98 754.17,-222.82 757.56,-208.68"/>
<polygon fill="midnightblue" stroke="midnightblue" points="761.04,-209.12 759.66,-198.62 754.19,-207.69 761.04,-209.12"/>
</g>
<!-- Node4 -->
<g id="node4" class="node">
<title>Node4</title>
<g id="a_node4"><a xlink:href="Vector3_8hpp.html" target="_top" xlink:title=" ">
<polygon fill="white" stroke="black" points="69.94,-123.5 69.94,-142.5 143.94,-142.5 143.94,-123.5 69.94,-123.5"/>
<text text-anchor="middle" x="106.94" y="-130.5" font-family="Helvetica,sans-Serif" font-size="10.00">Vector3.hpp</text>
</a>
</g>
</g>
<!-- Node1&#45;&gt;Node4 -->
<g id="edge3" class="edge">
<title>Node1&#45;&gt;Node4</title>
<path fill="none" stroke="midnightblue" d="M468.08,-357.98C348.3,-349.3 76.25,-322.44 17.94,-255 -4.2,-229.39 -5.11,-207.64 12.94,-179 23.43,-162.34 42,-151.71 59.87,-145"/>
<polygon fill="midnightblue" stroke="midnightblue" points="61.34,-148.19 69.67,-141.66 59.08,-141.57 61.34,-148.19"/>
</g>
<!-- Node12 -->
<g id="node12" class="node">
<title>Node12</title>
<g id="a_node12"><a xlink:href="Color_8hpp.html" target="_top" xlink:title=" ">
<polygon fill="white" stroke="black" points="389.94,-179.5 389.94,-198.5 451.94,-198.5 451.94,-179.5 389.94,-179.5"/>
<text text-anchor="middle" x="420.94" y="-186.5" font-family="Helvetica,sans-Serif" font-size="10.00">Color.hpp</text>
</a>
</g>
</g>
<!-- Node1&#45;&gt;Node12 -->
<g id="edge12" class="edge">
<title>Node1&#45;&gt;Node12</title>
<path fill="none" stroke="midnightblue" d="M468.15,-359.08C433.08,-354.33 390.42,-341.98 366.94,-311 346.53,-284.07 350.33,-265.47 364.94,-235 371.19,-221.95 383.27,-211.49 394.62,-203.95"/>
<polygon fill="midnightblue" stroke="midnightblue" points="396.75,-206.75 403.44,-198.54 393.08,-200.79 396.75,-206.75"/>
</g>
<!-- Node13 -->
<g id="node13" class="node">
<title>Node13</title>
<g id="a_node13"><a xlink:href="Texture_8hpp.html" target="_top" xlink:title=" ">
<polygon fill="white" stroke="black" points="487.94,-291.5 487.94,-310.5 561.94,-310.5 561.94,-291.5 487.94,-291.5"/>
<text text-anchor="middle" x="524.94" y="-298.5" font-family="Helvetica,sans-Serif" font-size="10.00">Texture.hpp</text>
</a>
</g>
</g>
<!-- Node1&#45;&gt;Node13 -->
<g id="edge15" class="edge">
<title>Node1&#45;&gt;Node13</title>
<path fill="none" stroke="midnightblue" d="M524.94,-347.4C524.94,-339.47 524.94,-329.46 524.94,-320.86"/>
<polygon fill="midnightblue" stroke="midnightblue" points="528.44,-320.66 524.94,-310.66 521.44,-320.66 528.44,-320.66"/>
</g>
<!-- Node20 -->
<g id="node20" class="node">
<title>Node20</title>
<g id="a_node20"><a xlink:href="Mesh_8hpp.html" target="_top" xlink:title=" ">
<polygon fill="white" stroke="black" points="375.94,-291.5 375.94,-310.5 439.94,-310.5 439.94,-291.5 375.94,-291.5"/>
<text text-anchor="middle" x="407.94" y="-298.5" font-family="Helvetica,sans-Serif" font-size="10.00">Mesh.hpp</text>
</a>
</g>
</g>
<!-- Node1&#45;&gt;Node20 -->
<g id="edge39" class="edge">
<title>Node1&#45;&gt;Node20</title>
<path fill="none" stroke="midnightblue" d="M497.21,-347.4C478.11,-337.68 452.88,-324.86 434.12,-315.31"/>
<polygon fill="midnightblue" stroke="midnightblue" points="435.46,-312.07 424.96,-310.66 432.29,-318.31 435.46,-312.07"/>
</g>
<!-- Node21 -->
<g id="node21" class="node">
<title>Node21</title>
<g id="a_node21"><a xlink:href="IDrawable_8hpp.html" target="_top" xlink:title=" ">
<polygon fill="white" stroke="black" points="154.44,-235.5 154.44,-254.5 241.44,-254.5 241.44,-235.5 154.44,-235.5"/>
<text text-anchor="middle" x="197.94" y="-242.5" font-family="Helvetica,sans-Serif" font-size="10.00">IDrawable.hpp</text>
</a>
</g>
</g>
<!-- Node1&#45;&gt;Node21 -->
<g id="edge44" class="edge">
<title>Node1&#45;&gt;Node21</title>
<path fill="none" stroke="midnightblue" d="M468.03,-355.18C420.11,-348.44 350.53,-335.27 293.94,-311 264.37,-298.32 234.3,-276.13 215.88,-261.25"/>
<polygon fill="midnightblue" stroke="midnightblue" points="217.77,-258.28 207.83,-254.61 213.32,-263.68 217.77,-258.28"/>
</g>
<!-- Node22 -->
<g id="node22" class="node">
<title>Node22</title>
<g id="a_node22"><a xlink:href="Shader_8hpp.html" target="_top" xlink:title=" ">
<polygon fill="white" stroke="black" points="802.44,-291.5 802.44,-310.5 873.44,-310.5 873.44,-291.5 802.44,-291.5"/>
<text text-anchor="middle" x="837.94" y="-298.5" font-family="Helvetica,sans-Serif" font-size="10.00">Shader.hpp</text>
</a>
</g>
</g>
<!-- Node1&#45;&gt;Node22 -->
<g id="edge48" class="edge">
<title>Node1&#45;&gt;Node22</title>
<path fill="none" stroke="midnightblue" d="M581.62,-350.72C641.99,-339.25 736.36,-321.31 792.18,-310.7"/>
<polygon fill="midnightblue" stroke="midnightblue" points="792.97,-314.11 802.14,-308.8 791.66,-307.23 792.97,-314.11"/>
</g>
<!-- Node24 -->
<g id="node24" class="node">
<title>Node24</title>
<g id="a_node24"><a xlink:title=" ">
<polygon fill="white" stroke="#bfbfbf" points="982.44,-291.5 982.44,-310.5 1049.44,-310.5 1049.44,-291.5 982.44,-291.5"/>
<text text-anchor="middle" x="1015.94" y="-298.5" font-family="Helvetica,sans-Serif" font-size="10.00">raymath.h</text>
</a>
</g>
</g>
<!-- Node1&#45;&gt;Node24 -->
<g id="edge53" class="edge">
<title>Node1&#45;&gt;Node24</title>
<path fill="none" stroke="midnightblue" d="M581.75,-356.34C666.21,-348.37 829.77,-331.8 967.94,-311 969.41,-310.78 970.9,-310.55 972.4,-310.3"/>
<polygon fill="midnightblue" stroke="midnightblue" points="973.15,-313.73 982.42,-308.6 971.98,-306.83 973.15,-313.73"/>
</g>
<!-- Node4&#45;&gt;Node2 -->
<g id="edge4" class="edge">
<title>Node4&#45;&gt;Node2</title>
<path fill="none" stroke="midnightblue" d="M144.19,-125.59C204.72,-115.18 323.73,-94.72 384.04,-84.35"/>
<polygon fill="midnightblue" stroke="midnightblue" points="384.98,-87.74 394.24,-82.59 383.79,-80.84 384.98,-87.74"/>
</g>
<!-- Node5 -->
<g id="node5" class="node">
<title>Node5</title>
<g id="a_node5"><a xlink:href="IXMLSerializable_8hpp.html" target="_top" xlink:title=" ">
<polygon fill="white" stroke="black" points="150.44,-67.5 150.44,-86.5 269.44,-86.5 269.44,-67.5 150.44,-67.5"/>
<text text-anchor="middle" x="209.94" y="-74.5" font-family="Helvetica,sans-Serif" font-size="10.00">IXMLSerializable.hpp</text>
</a>
</g>
</g>
<!-- Node4&#45;&gt;Node5 -->
<g id="edge5" class="edge">
<title>Node4&#45;&gt;Node5</title>
<path fill="none" stroke="midnightblue" d="M123.49,-123.32C139.93,-114.7 165.37,-101.36 184.41,-91.39"/>
<polygon fill="midnightblue" stroke="midnightblue" points="186.2,-94.4 193.43,-86.65 182.95,-88.2 186.2,-94.4"/>
</g>
<!-- Node10 -->
<g id="node10" class="node">
<title>Node10</title>
<g id="a_node10"><a xlink:title=" ">
<polygon fill="white" stroke="#bfbfbf" points="85.44,-67.5 85.44,-86.5 132.44,-86.5 132.44,-67.5 85.44,-67.5"/>
<text text-anchor="middle" x="108.94" y="-74.5" font-family="Helvetica,sans-Serif" font-size="10.00">cmath</text>
</a>
</g>
</g>
<!-- Node4&#45;&gt;Node10 -->
<g id="edge10" class="edge">
<title>Node4&#45;&gt;Node10</title>
<path fill="none" stroke="midnightblue" d="M107.27,-123.08C107.53,-116.01 107.91,-105.86 108.23,-96.99"/>
<polygon fill="midnightblue" stroke="midnightblue" points="111.74,-96.87 108.61,-86.75 104.75,-96.61 111.74,-96.87"/>
</g>
<!-- Node11 -->
<g id="node11" class="node">
<title>Node11</title>
<g id="a_node11"><a xlink:title=" ">
<polygon fill="white" stroke="#bfbfbf" points="10.94,-67.5 10.94,-86.5 66.94,-86.5 66.94,-67.5 10.94,-67.5"/>
<text text-anchor="middle" x="38.94" y="-74.5" font-family="Helvetica,sans-Serif" font-size="10.00">sstream</text>
</a>
</g>
</g>
<!-- Node4&#45;&gt;Node11 -->
<g id="edge11" class="edge">
<title>Node4&#45;&gt;Node11</title>
<path fill="none" stroke="midnightblue" d="M96.01,-123.32C85.76,-115.18 70.22,-102.84 57.94,-93.09"/>
<polygon fill="midnightblue" stroke="midnightblue" points="60.07,-90.31 50.06,-86.83 55.72,-95.79 60.07,-90.31"/>
</g>
<!-- Node6 -->
<g id="node6" class="node">
<title>Node6</title>
<g id="a_node6"><a xlink:title=" ">
<polygon fill="white" stroke="#bfbfbf" points="51.44,-6 51.44,-25 108.44,-25 108.44,-6 51.44,-6"/>
<text text-anchor="middle" x="79.94" y="-13" font-family="Helvetica,sans-Serif" font-size="10.00">ostream</text>
</a>
</g>
</g>
<!-- Node5&#45;&gt;Node6 -->
<g id="edge6" class="edge">
<title>Node5&#45;&gt;Node6</title>
<path fill="none" stroke="midnightblue" d="M191.31,-67.48C169.5,-57.49 133.13,-40.85 107.92,-29.31"/>
<polygon fill="midnightblue" stroke="midnightblue" points="109.08,-25.99 98.53,-25.01 106.17,-32.35 109.08,-25.99"/>
</g>
<!-- Node7 -->
<g id="node7" class="node">
<title>Node7</title>
<g id="a_node7"><a xlink:title=" ">
<polygon fill="white" stroke="#bfbfbf" points="126.94,-6 126.94,-25 186.94,-25 186.94,-6 126.94,-6"/>
<text text-anchor="middle" x="156.94" y="-13" font-family="Helvetica,sans-Serif" font-size="10.00">iostream</text>
</a>
</g>
</g>
<!-- Node5&#45;&gt;Node7 -->
<g id="edge7" class="edge">
<title>Node5&#45;&gt;Node7</title>
<path fill="none" stroke="midnightblue" d="M202.34,-67.48C194.24,-58.37 181.2,-43.74 171.17,-32.48"/>
<polygon fill="midnightblue" stroke="midnightblue" points="173.78,-30.15 164.52,-25.01 168.56,-34.8 173.78,-30.15"/>
</g>
<!-- Node8 -->
<g id="node8" class="node">
<title>Node8</title>
<g id="a_node8"><a xlink:title=" ">
<polygon fill="white" stroke="#bfbfbf" points="205.44,-0.5 205.44,-30.5 318.44,-30.5 318.44,-0.5 205.44,-0.5"/>
<text text-anchor="start" x="213.44" y="-18.5" font-family="Helvetica,sans-Serif" font-size="10.00">boost/property_tree</text>
<text text-anchor="middle" x="261.94" y="-7.5" font-family="Helvetica,sans-Serif" font-size="10.00">/ptree.hpp</text>
</a>
</g>
</g>
<!-- Node5&#45;&gt;Node8 -->
<g id="edge8" class="edge">
<title>Node5&#45;&gt;Node8</title>
<path fill="none" stroke="midnightblue" d="M217.39,-67.48C224.04,-59.87 234.06,-48.4 242.92,-38.26"/>
<polygon fill="midnightblue" stroke="midnightblue" points="245.74,-40.36 249.68,-30.52 240.47,-35.75 245.74,-40.36"/>
</g>
<!-- Node9 -->
<g id="node9" class="node">
<title>Node9</title>
<g id="a_node9"><a xlink:title=" ">
<polygon fill="white" stroke="#bfbfbf" points="336.44,-0.5 336.44,-30.5 449.44,-30.5 449.44,-0.5 336.44,-0.5"/>
<text text-anchor="start" x="344.44" y="-18.5" font-family="Helvetica,sans-Serif" font-size="10.00">boost/property_tree</text>
<text text-anchor="middle" x="392.94" y="-7.5" font-family="Helvetica,sans-Serif" font-size="10.00">/xml_parser.hpp</text>
</a>
</g>
</g>
<!-- Node5&#45;&gt;Node9 -->
<g id="edge9" class="edge">
<title>Node5&#45;&gt;Node9</title>
<path fill="none" stroke="midnightblue" d="M236.16,-67.48C263.14,-58.7 305.93,-44.79 340,-33.71"/>
<polygon fill="midnightblue" stroke="midnightblue" points="341.38,-36.94 349.81,-30.52 339.22,-30.29 341.38,-36.94"/>
</g>
<!-- Node12&#45;&gt;Node2 -->
<g id="edge13" class="edge">
<title>Node12&#45;&gt;Node2</title>
<path fill="none" stroke="midnightblue" d="M420.94,-179.37C420.94,-161.62 420.94,-120.67 420.94,-96.6"/>
<polygon fill="midnightblue" stroke="midnightblue" points="424.44,-96.59 420.94,-86.59 417.44,-96.59 424.44,-96.59"/>
</g>
<!-- Node12&#45;&gt;Node4 -->
<g id="edge14" class="edge">
<title>Node12&#45;&gt;Node4</title>
<path fill="none" stroke="midnightblue" d="M389.68,-182.62C334.39,-173.12 219.06,-153.28 154.07,-142.11"/>
<polygon fill="midnightblue" stroke="midnightblue" points="154.54,-138.64 144.09,-140.39 153.35,-145.53 154.54,-138.64"/>
</g>
<!-- Node13&#45;&gt;Node2 -->
<g id="edge16" class="edge">
<title>Node13&#45;&gt;Node2</title>
<path fill="none" stroke="midnightblue" d="M562.06,-298.47C615.38,-294.66 704.54,-281.36 678.94,-235 631.73,-149.52 516.68,-105.33 457.47,-87.58"/>
<polygon fill="midnightblue" stroke="midnightblue" points="458.36,-84.2 447.78,-84.77 456.4,-90.92 458.36,-84.2"/>
</g>
<!-- Node13&#45;&gt;Node3 -->
<g id="edge17" class="edge">
<title>Node13&#45;&gt;Node3</title>
<path fill="none" stroke="midnightblue" d="M562.29,-298.38C602.28,-295.06 666.15,-285.03 711.94,-255 729.8,-243.29 743.65,-222.75 752,-207.89"/>
<polygon fill="midnightblue" stroke="midnightblue" points="755.28,-209.16 756.88,-198.69 749.1,-205.88 755.28,-209.16"/>
</g>
<!-- Node13&#45;&gt;Node12 -->
<g id="edge27" class="edge">
<title>Node13&#45;&gt;Node12</title>
<path fill="none" stroke="midnightblue" d="M530.32,-291.17C537.69,-277.82 548.74,-252.23 536.94,-235 520.24,-210.61 488.25,-199.44 462.09,-194.32"/>
<polygon fill="midnightblue" stroke="midnightblue" points="462.47,-190.84 452.03,-192.59 461.29,-197.73 462.47,-190.84"/>
</g>
<!-- Node14 -->
<g id="node14" class="node">
<title>Node14</title>
<g id="a_node14"><a xlink:href="Image_8hpp.html" target="_top" xlink:title=" ">
<polygon fill="white" stroke="black" points="373.94,-235.5 373.94,-254.5 441.94,-254.5 441.94,-235.5 373.94,-235.5"/>
<text text-anchor="middle" x="407.94" y="-242.5" font-family="Helvetica,sans-Serif" font-size="10.00">Image.hpp</text>
</a>
</g>
</g>
<!-- Node13&#45;&gt;Node14 -->
<g id="edge18" class="edge">
<title>Node13&#45;&gt;Node14</title>
<path fill="none" stroke="midnightblue" d="M506.4,-291.44C487.31,-282.64 457.36,-268.81 435.5,-258.72"/>
<polygon fill="midnightblue" stroke="midnightblue" points="436.94,-255.53 426.39,-254.52 434,-261.88 436.94,-255.53"/>
</g>
<!-- Node15 -->
<g id="node15" class="node">
<title>Node15</title>
<g id="a_node15"><a xlink:href="Vector2_8hpp.html" target="_top" xlink:title=" ">
<polygon fill="white" stroke="black" points="183.94,-179.5 183.94,-198.5 257.94,-198.5 257.94,-179.5 183.94,-179.5"/>
<text text-anchor="middle" x="220.94" y="-186.5" font-family="Helvetica,sans-Serif" font-size="10.00">Vector2.hpp</text>
</a>
</g>
</g>
<!-- Node13&#45;&gt;Node15 -->
<g id="edge28" class="edge">
<title>Node13&#45;&gt;Node15</title>
<path fill="none" stroke="midnightblue" d="M488.55,-291.42C455.79,-283.31 406.56,-270.15 364.94,-255 322.75,-239.64 275.63,-217.35 247.14,-203.27"/>
<polygon fill="midnightblue" stroke="midnightblue" points="248.39,-199.98 237.88,-198.65 245.27,-206.25 248.39,-199.98"/>
</g>
<!-- Node16 -->
<g id="node16" class="node">
<title>Node16</title>
<g id="a_node16"><a xlink:href="Camera3D_8hpp.html" target="_top" xlink:title=" ">
<polygon fill="white" stroke="black" points="47.44,-235.5 47.44,-254.5 136.44,-254.5 136.44,-235.5 47.44,-235.5"/>
<text text-anchor="middle" x="91.94" y="-242.5" font-family="Helvetica,sans-Serif" font-size="10.00">Camera3D.hpp</text>
</a>
</g>
</g>
<!-- Node13&#45;&gt;Node16 -->
<g id="edge29" class="edge">
<title>Node13&#45;&gt;Node16</title>
<path fill="none" stroke="midnightblue" d="M487.87,-295.61C402.28,-285.48 194.97,-260.94 146.46,-254.99"/>
<polygon fill="midnightblue" stroke="midnightblue" points="146.81,-251.51 136.45,-253.72 145.93,-258.45 146.81,-251.51"/>
</g>
<!-- Node18 -->
<g id="node18" class="node">
<title>Node18</title>
<g id="a_node18"><a xlink:href="Rectangle_8hpp.html" target="_top" xlink:title=" ">
<polygon fill="white" stroke="black" points="583.94,-235.5 583.94,-254.5 669.94,-254.5 669.94,-235.5 583.94,-235.5"/>
<text text-anchor="middle" x="626.94" y="-242.5" font-family="Helvetica,sans-Serif" font-size="10.00">Rectangle.hpp</text>
</a>
</g>
</g>
<!-- Node13&#45;&gt;Node18 -->
<g id="edge35" class="edge">
<title>Node13&#45;&gt;Node18</title>
<path fill="none" stroke="midnightblue" d="M541.33,-291.32C557.61,-282.7 582.81,-269.36 601.65,-259.39"/>
<polygon fill="midnightblue" stroke="midnightblue" points="603.39,-262.43 610.59,-254.65 600.11,-256.24 603.39,-262.43"/>
</g>
<!-- Node19 -->
<g id="node19" class="node">
<title>Node19</title>
<g id="a_node19"><a xlink:href="IAsset_8hpp.html" target="_top" xlink:title=" ">
<polygon fill="white" stroke="black" points="459.94,-235.5 459.94,-254.5 527.94,-254.5 527.94,-235.5 459.94,-235.5"/>
<text text-anchor="middle" x="493.94" y="-242.5" font-family="Helvetica,sans-Serif" font-size="10.00">IAsset.hpp</text>
</a>
</g>
</g>
<!-- Node13&#45;&gt;Node19 -->
<g id="edge38" class="edge">
<title>Node13&#45;&gt;Node19</title>
<path fill="none" stroke="midnightblue" d="M519.82,-291.08C515.53,-283.61 509.28,-272.72 504,-263.52"/>
<polygon fill="midnightblue" stroke="midnightblue" points="506.98,-261.68 498.96,-254.75 500.9,-265.17 506.98,-261.68"/>
</g>
<!-- Node14&#45;&gt;Node2 -->
<g id="edge20" class="edge">
<title>Node14&#45;&gt;Node2</title>
<path fill="none" stroke="midnightblue" d="M424.27,-235.39C436.89,-227.72 453.44,-215.21 460.94,-199 477.5,-163.21 451.61,-118.61 434.35,-94.81"/>
<polygon fill="midnightblue" stroke="midnightblue" points="437.1,-92.63 428.27,-86.77 431.51,-96.85 437.1,-92.63"/>
</g>
<!-- Node14&#45;&gt;Node3 -->
<g id="edge19" class="edge">
<title>Node14&#45;&gt;Node3</title>
<path fill="none" stroke="midnightblue" d="M442.17,-236.64C445.13,-236.06 448.08,-235.51 450.94,-235 551.81,-217.14 672.07,-201.2 728.57,-194.02"/>
<polygon fill="midnightblue" stroke="midnightblue" points="729.2,-197.47 738.68,-192.75 728.32,-190.53 729.2,-197.47"/>
</g>
<!-- Node14&#45;&gt;Node12 -->
<g id="edge21" class="edge">
<title>Node14&#45;&gt;Node12</title>
<path fill="none" stroke="midnightblue" d="M410.08,-235.08C411.81,-227.93 414.28,-217.64 416.44,-208.69"/>
<polygon fill="midnightblue" stroke="midnightblue" points="419.89,-209.29 418.83,-198.75 413.09,-207.65 419.89,-209.29"/>
</g>
<!-- Node14&#45;&gt;Node15 -->
<g id="edge22" class="edge">
<title>Node14&#45;&gt;Node15</title>
<path fill="none" stroke="midnightblue" d="M378.31,-235.44C346.44,-226.24 295.61,-211.56 260.37,-201.39"/>
<polygon fill="midnightblue" stroke="midnightblue" points="261.01,-197.93 250.43,-198.52 259.07,-204.65 261.01,-197.93"/>
</g>
<!-- Node15&#45;&gt;Node2 -->
<g id="edge23" class="edge">
<title>Node15&#45;&gt;Node2</title>
<path fill="none" stroke="midnightblue" d="M225.35,-179.45C232.97,-165.54 249.91,-138.05 271.94,-123 305.91,-99.78 352.19,-88.27 384.12,-82.74"/>
<polygon fill="midnightblue" stroke="midnightblue" points="385.04,-86.14 394.35,-81.09 383.92,-79.23 385.04,-86.14"/>
</g>
<!-- Node15&#45;&gt;Node4 -->
<g id="edge25" class="edge">
<title>Node15&#45;&gt;Node4</title>
<path fill="none" stroke="midnightblue" d="M202.87,-179.44C184.36,-170.68 155.36,-156.94 134.08,-146.86"/>
<polygon fill="midnightblue" stroke="midnightblue" points="135.45,-143.63 124.92,-142.52 132.46,-149.96 135.45,-143.63"/>
</g>
<!-- Node15&#45;&gt;Node5 -->
<g id="edge26" class="edge">
<title>Node15&#45;&gt;Node5</title>
<path fill="none" stroke="midnightblue" d="M220.07,-179.37C218.3,-161.62 214.2,-120.67 211.8,-96.6"/>
<polygon fill="midnightblue" stroke="midnightblue" points="215.27,-96.19 210.8,-86.59 208.31,-96.89 215.27,-96.19"/>
</g>
<!-- Node15&#45;&gt;Node10 -->
<g id="edge24" class="edge">
<title>Node15&#45;&gt;Node10</title>
<path fill="none" stroke="midnightblue" d="M212.15,-179.37C193.34,-160.89 148.94,-117.29 124.97,-93.74"/>
<polygon fill="midnightblue" stroke="midnightblue" points="127.27,-91.1 117.69,-86.59 122.37,-96.1 127.27,-91.1"/>
</g>
<!-- Node16&#45;&gt;Node2 -->
<g id="edge30" class="edge">
<title>Node16&#45;&gt;Node2</title>
<path fill="none" stroke="midnightblue" d="M136.74,-235.79C181.14,-227.08 245.53,-212.69 266.94,-199 303.66,-175.51 294.79,-150.09 328.94,-123 346.41,-109.14 368.85,-98.05 387.2,-90.36"/>
<polygon fill="midnightblue" stroke="midnightblue" points="388.68,-93.53 396.64,-86.54 386.06,-87.04 388.68,-93.53"/>
</g>
<!-- Node16&#45;&gt;Node4 -->
<g id="edge32" class="edge">
<title>Node16&#45;&gt;Node4</title>
<path fill="none" stroke="midnightblue" d="M93.11,-235.37C95.54,-217.62 101.12,-176.67 104.4,-152.6"/>
<polygon fill="midnightblue" stroke="midnightblue" points="107.88,-152.97 105.77,-142.59 100.95,-152.03 107.88,-152.97"/>
</g>
<!-- Node16&#45;&gt;Node15 -->
<g id="edge31" class="edge">
<title>Node16&#45;&gt;Node15</title>
<path fill="none" stroke="midnightblue" d="M112.38,-235.44C133.61,-226.56 167.04,-212.56 191.19,-202.45"/>
<polygon fill="midnightblue" stroke="midnightblue" points="192.72,-205.61 200.59,-198.52 190.02,-199.15 192.72,-205.61"/>
</g>
<!-- Node17 -->
<g id="node17" class="node">
<title>Node17</title>
<g id="a_node17"><a xlink:href="Ray_8hpp.html" target="_top" xlink:title=" ">
<polygon fill="white" stroke="black" points="34.44,-179.5 34.44,-198.5 89.44,-198.5 89.44,-179.5 34.44,-179.5"/>
<text text-anchor="middle" x="61.94" y="-186.5" font-family="Helvetica,sans-Serif" font-size="10.00">Ray.hpp</text>
</a>
</g>
</g>
<!-- Node16&#45;&gt;Node17 -->
<g id="edge33" class="edge">
<title>Node16&#45;&gt;Node17</title>
<path fill="none" stroke="midnightblue" d="M86.98,-235.08C82.83,-227.61 76.78,-216.72 71.67,-207.52"/>
<polygon fill="midnightblue" stroke="midnightblue" points="74.72,-205.79 66.8,-198.75 68.6,-209.19 74.72,-205.79"/>
</g>
<!-- Node17&#45;&gt;Node4 -->
<g id="edge34" class="edge">
<title>Node17&#45;&gt;Node4</title>
<path fill="none" stroke="midnightblue" d="M69.37,-179.08C75.79,-171.38 85.24,-160.03 93.06,-150.65"/>
<polygon fill="midnightblue" stroke="midnightblue" points="95.93,-152.67 99.65,-142.75 90.55,-148.19 95.93,-152.67"/>
</g>
<!-- Node18&#45;&gt;Node2 -->
<g id="edge36" class="edge">
<title>Node18&#45;&gt;Node2</title>
<path fill="none" stroke="midnightblue" d="M616.15,-235.31C582.92,-208.53 481.79,-127.03 439.66,-93.09"/>
<polygon fill="midnightblue" stroke="midnightblue" points="441.6,-90.15 431.62,-86.61 437.21,-95.61 441.6,-90.15"/>
</g>
<!-- Node18&#45;&gt;Node12 -->
<g id="edge37" class="edge">
<title>Node18&#45;&gt;Node12</title>
<path fill="none" stroke="midnightblue" d="M594.3,-235.44C558.47,-226.05 500.89,-210.96 462.02,-200.77"/>
<polygon fill="midnightblue" stroke="midnightblue" points="462.64,-197.31 452.08,-198.16 460.86,-204.08 462.64,-197.31"/>
</g>
<!-- Node20&#45;&gt;Node2 -->
<g id="edge40" class="edge">
<title>Node20&#45;&gt;Node2</title>
<path fill="none" stroke="midnightblue" d="M395.44,-291.3C385.06,-283.25 371.05,-270.24 364.94,-255 361.63,-246.75 363.7,-243.8 364.94,-235 372.34,-182.16 398.12,-124 411.97,-95.59"/>
<polygon fill="midnightblue" stroke="midnightblue" points="415.16,-97.05 416.48,-86.53 408.89,-93.93 415.16,-97.05"/>
</g>
<!-- Node20&#45;&gt;Node4 -->
<g id="edge42" class="edge">
<title>Node20&#45;&gt;Node4</title>
<path fill="none" stroke="midnightblue" d="M375.9,-300.63C295.37,-301.52 87.34,-299.38 37.94,-255 12.44,-232.1 7.48,-208.49 24.94,-179 33.91,-163.84 50,-153.45 65.57,-146.5"/>
<polygon fill="midnightblue" stroke="midnightblue" points="67.19,-149.63 75.13,-142.62 64.55,-143.14 67.19,-149.63"/>
</g>
<!-- Node20&#45;&gt;Node14 -->
<g id="edge41" class="edge">
<title>Node20&#45;&gt;Node14</title>
<path fill="none" stroke="midnightblue" d="M407.94,-291.08C407.94,-284.01 407.94,-273.86 407.94,-264.99"/>
<polygon fill="midnightblue" stroke="midnightblue" points="411.44,-264.75 407.94,-254.75 404.44,-264.75 411.44,-264.75"/>
</g>
<!-- Node20&#45;&gt;Node19 -->
<g id="edge43" class="edge">
<title>Node20&#45;&gt;Node19</title>
<path fill="none" stroke="midnightblue" d="M421.76,-291.32C435.17,-282.9 455.76,-269.97 471.52,-260.07"/>
<polygon fill="midnightblue" stroke="midnightblue" points="473.55,-262.94 480.15,-254.65 469.82,-257.01 473.55,-262.94"/>
</g>
<!-- Node21&#45;&gt;Node2 -->
<g id="edge45" class="edge">
<title>Node21&#45;&gt;Node2</title>
<path fill="none" stroke="midnightblue" d="M229.61,-235.4C251.24,-228.32 279.56,-216.57 299.94,-199 330.2,-172.91 319.53,-151.09 347.94,-123 361.05,-110.03 378.56,-99.08 393.15,-91.22"/>
<polygon fill="midnightblue" stroke="midnightblue" points="394.96,-94.23 402.24,-86.52 391.75,-88.01 394.96,-94.23"/>
</g>
<!-- Node21&#45;&gt;Node4 -->
<g id="edge46" class="edge">
<title>Node21&#45;&gt;Node4</title>
<path fill="none" stroke="midnightblue" d="M190.8,-235.37C175.65,-217.05 140.07,-174.05 120.47,-150.36"/>
<polygon fill="midnightblue" stroke="midnightblue" points="123.12,-148.07 114.05,-142.59 117.72,-152.53 123.12,-148.07"/>
</g>
<!-- Node21&#45;&gt;Node12 -->
<g id="edge47" class="edge">
<title>Node21&#45;&gt;Node12</title>
<path fill="none" stroke="midnightblue" d="M233.27,-235.44C273.1,-225.8 337.75,-210.14 379.81,-199.96"/>
<polygon fill="midnightblue" stroke="midnightblue" points="380.83,-203.31 389.73,-197.56 379.18,-196.51 380.83,-203.31"/>
</g>
<!-- Node22&#45;&gt;Node2 -->
<g id="edge51" class="edge">
<title>Node22&#45;&gt;Node2</title>
<path fill="none" stroke="midnightblue" d="M856.04,-291.46C878.05,-279.85 910.66,-257.87 896.94,-235 850.03,-156.82 560.97,-101.43 457.63,-83.91"/>
<polygon fill="midnightblue" stroke="midnightblue" points="458.09,-80.44 447.65,-82.24 456.94,-87.34 458.09,-80.44"/>
</g>
<!-- Node22&#45;&gt;Node3 -->
<g id="edge50" class="edge">
<title>Node22&#45;&gt;Node3</title>
<path fill="none" stroke="midnightblue" d="M831.9,-291.37C819.19,-273.22 789.5,-230.8 772.83,-206.99"/>
<polygon fill="midnightblue" stroke="midnightblue" points="775.55,-204.78 766.95,-198.59 769.82,-208.79 775.55,-204.78"/>
</g>
<!-- Node22&#45;&gt;Node19 -->
<g id="edge49" class="edge">
<title>Node22&#45;&gt;Node19</title>
<path fill="none" stroke="midnightblue" d="M802.42,-294.42C739.15,-284.49 607.11,-263.77 538.1,-252.93"/>
<polygon fill="midnightblue" stroke="midnightblue" points="538.41,-249.44 527.99,-251.35 537.32,-256.35 538.41,-249.44"/>
</g>
<!-- Node23 -->
<g id="node23" class="node">
<title>Node23</title>
<g id="a_node23"><a xlink:title=" ">
<polygon fill="white" stroke="#bfbfbf" points="840.44,-235.5 840.44,-254.5 887.44,-254.5 887.44,-235.5 840.44,-235.5"/>
<text text-anchor="middle" x="863.94" y="-242.5" font-family="Helvetica,sans-Serif" font-size="10.00">vector</text>
</a>
</g>
</g>
<!-- Node22&#45;&gt;Node23 -->
<g id="edge52" class="edge">
<title>Node22&#45;&gt;Node23</title>
<path fill="none" stroke="midnightblue" d="M842.23,-291.08C845.79,-283.69 850.96,-272.95 855.36,-263.81"/>
<polygon fill="midnightblue" stroke="midnightblue" points="858.54,-265.28 859.72,-254.75 852.23,-262.24 858.54,-265.28"/>
</g>
</g>
</svg>
