<?xml version="1.0" encoding="UTF-8" standalone="no"?>
<!DOCTYPE svg PUBLIC "-//W3C//DTD SVG 1.1//EN"
 "http://www.w3.org/Graphics/SVG/1.1/DTD/svg11.dtd">
<!-- Generated by graphviz version 2.43.0 (0)
 -->
<!-- Title: Libs/RayLib/sources/Model/Model.cpp Pages: 1 -->
<svg width="1055pt" height="442pt"
 viewBox="0.00 0.00 1054.64 442.00" xmlns="http://www.w3.org/2000/svg" xmlns:xlink="http://www.w3.org/1999/xlink">
<g id="graph0" class="graph" transform="scale(1 1) rotate(0) translate(4 438)">
<title>Libs/RayLib/sources/Model/Model.cpp</title>
<polygon fill="white" stroke="transparent" points="-4,4 -4,-438 1050.64,-438 1050.64,4 -4,4"/>
<!-- Node1 -->
<g id="node1" class="node">
<title>Node1</title>
<g id="a_node1"><a xlink:title=" ">
<polygon fill="#bfbfbf" stroke="black" points="729.14,-403.5 729.14,-433.5 842.14,-433.5 842.14,-403.5 729.14,-403.5"/>
<text text-anchor="start" x="737.14" y="-421.5" font-family="Helvetica,sans-Serif" font-size="10.00">Libs/RayLib/sources</text>
<text text-anchor="middle" x="785.64" y="-410.5" font-family="Helvetica,sans-Serif" font-size="10.00">/Model/Model.cpp</text>
</a>
</g>
</g>
<!-- Node2 -->
<g id="node2" class="node">
<title>Node2</title>
<g id="a_node2"><a xlink:href="Model_8hpp.html" target="_top" xlink:title=" ">
<polygon fill="white" stroke="black" points="618.64,-347.5 618.64,-366.5 686.64,-366.5 686.64,-347.5 618.64,-347.5"/>
<text text-anchor="middle" x="652.64" y="-354.5" font-family="Helvetica,sans-Serif" font-size="10.00">Model.hpp</text>
</a>
</g>
</g>
<!-- Node1&#45;&gt;Node2 -->
<g id="edge1" class="edge">
<title>Node1&#45;&gt;Node2</title>
<path fill="none" stroke="midnightblue" d="M754.12,-403.4C732.01,-393.51 702.67,-380.38 681.23,-370.79"/>
<polygon fill="midnightblue" stroke="midnightblue" points="682.55,-367.55 671.99,-366.66 679.69,-373.94 682.55,-367.55"/>
</g>
<!-- Node8 -->
<g id="node8" class="node">
<title>Node8</title>
<g id="a_node8"><a xlink:title=" ">
<polygon fill="white" stroke="#bfbfbf" points="688.64,-6 688.64,-25 748.64,-25 748.64,-6 688.64,-6"/>
<text text-anchor="middle" x="718.64" y="-13" font-family="Helvetica,sans-Serif" font-size="10.00">iostream</text>
</a>
</g>
</g>
<!-- Node1&#45;&gt;Node8 -->
<g id="edge55" class="edge">
<title>Node1&#45;&gt;Node8</title>
<path fill="none" stroke="midnightblue" d="M842.27,-416.51C919.04,-411.83 1046.64,-390.7 1046.64,-302 1046.64,-302 1046.64,-302 1046.64,-132 1046.64,-71.67 846.7,-35.14 759.02,-22.02"/>
<polygon fill="midnightblue" stroke="midnightblue" points="759.31,-18.53 748.91,-20.54 758.3,-25.45 759.31,-18.53"/>
</g>
<!-- Node3 -->
<g id="node3" class="node">
<title>Node3</title>
<g id="a_node3"><a xlink:title=" ">
<polygon fill="white" stroke="#bfbfbf" points="395.14,-67.5 395.14,-86.5 448.14,-86.5 448.14,-67.5 395.14,-67.5"/>
<text text-anchor="middle" x="421.64" y="-74.5" font-family="Helvetica,sans-Serif" font-size="10.00">raylib.h</text>
</a>
</g>
</g>
<!-- Node2&#45;&gt;Node3 -->
<g id="edge2" class="edge">
<title>Node2&#45;&gt;Node3</title>
<path fill="none" stroke="midnightblue" d="M686.78,-355.32C725.6,-352.89 789.1,-343.73 831.64,-311 860.55,-288.76 875.47,-269.15 862.64,-235 851.01,-204.04 840.46,-198.36 813.64,-179 702.3,-98.63 532.56,-82.11 458.43,-78.79"/>
<polygon fill="midnightblue" stroke="midnightblue" points="458.34,-75.28 448.21,-78.39 458.06,-82.28 458.34,-75.28"/>
</g>
<!-- Node4 -->
<g id="node4" class="node">
<title>Node4</title>
<g id="a_node4"><a xlink:title=" ">
<polygon fill="white" stroke="#bfbfbf" points="726.64,-179.5 726.64,-198.5 770.64,-198.5 770.64,-179.5 726.64,-179.5"/>
<text text-anchor="middle" x="748.64" y="-186.5" font-family="Helvetica,sans-Serif" font-size="10.00">string</text>
</a>
</g>
</g>
<!-- Node2&#45;&gt;Node4 -->
<g id="edge3" class="edge">
<title>Node2&#45;&gt;Node4</title>
<path fill="none" stroke="midnightblue" d="M686.66,-352.56C719.87,-347.79 770.53,-336.64 806.64,-311 831.58,-293.29 837.31,-284.13 846.64,-255 849.35,-246.54 851.44,-242.48 846.64,-235 832.18,-212.45 803.27,-201.05 780.58,-195.38"/>
<polygon fill="midnightblue" stroke="midnightblue" points="781.19,-191.93 770.67,-193.16 779.66,-198.76 781.19,-191.93"/>
</g>
<!-- Node5 -->
<g id="node5" class="node">
<title>Node5</title>
<g id="a_node5"><a xlink:href="Vector3_8hpp.html" target="_top" xlink:title=" ">
<polygon fill="white" stroke="black" points="70.64,-123.5 70.64,-142.5 144.64,-142.5 144.64,-123.5 70.64,-123.5"/>
<text text-anchor="middle" x="107.64" y="-130.5" font-family="Helvetica,sans-Serif" font-size="10.00">Vector3.hpp</text>
</a>
</g>
</g>
<!-- Node2&#45;&gt;Node5 -->
<g id="edge4" class="edge">
<title>Node2&#45;&gt;Node5</title>
<path fill="none" stroke="midnightblue" d="M618.54,-356.39C496.63,-356.96 85.61,-351.59 9.64,-255 0.89,-243.87 -7.43,-208.91 12.64,-179 23.71,-162.51 42.54,-151.9 60.53,-145.16"/>
<polygon fill="midnightblue" stroke="midnightblue" points="62.05,-148.34 70.38,-141.8 59.79,-141.72 62.05,-148.34"/>
</g>
<!-- Node13 -->
<g id="node13" class="node">
<title>Node13</title>
<g id="a_node13"><a xlink:href="Color_8hpp.html" target="_top" xlink:title=" ">
<polygon fill="white" stroke="black" points="390.64,-179.5 390.64,-198.5 452.64,-198.5 452.64,-179.5 390.64,-179.5"/>
<text text-anchor="middle" x="421.64" y="-186.5" font-family="Helvetica,sans-Serif" font-size="10.00">Color.hpp</text>
</a>
</g>
</g>
<!-- Node2&#45;&gt;Node13 -->
<g id="edge13" class="edge">
<title>Node2&#45;&gt;Node13</title>
<path fill="none" stroke="midnightblue" d="M618.46,-356.07C547.73,-355.41 389.03,-349.56 354.64,-311 332.15,-285.78 336.55,-264.71 352.64,-235 360.39,-220.7 374.88,-210.22 388.58,-202.99"/>
<polygon fill="midnightblue" stroke="midnightblue" points="390.38,-206.01 397.85,-198.5 387.33,-199.71 390.38,-206.01"/>
</g>
<!-- Node14 -->
<g id="node14" class="node">
<title>Node14</title>
<g id="a_node14"><a xlink:href="Texture_8hpp.html" target="_top" xlink:title=" ">
<polygon fill="white" stroke="black" points="506.64,-291.5 506.64,-310.5 580.64,-310.5 580.64,-291.5 506.64,-291.5"/>
<text text-anchor="middle" x="543.64" y="-298.5" font-family="Helvetica,sans-Serif" font-size="10.00">Texture.hpp</text>
</a>
</g>
</g>
<!-- Node2&#45;&gt;Node14 -->
<g id="edge16" class="edge">
<title>Node2&#45;&gt;Node14</title>
<path fill="none" stroke="midnightblue" d="M635.13,-347.32C617.57,-338.62 590.31,-325.12 570.11,-315.11"/>
<polygon fill="midnightblue" stroke="midnightblue" points="571.62,-311.96 561.11,-310.65 568.52,-318.23 571.62,-311.96"/>
</g>
<!-- Node21 -->
<g id="node21" class="node">
<title>Node21</title>
<g id="a_node21"><a xlink:href="Mesh_8hpp.html" target="_top" xlink:title=" ">
<polygon fill="white" stroke="black" points="363.64,-291.5 363.64,-310.5 427.64,-310.5 427.64,-291.5 363.64,-291.5"/>
<text text-anchor="middle" x="395.64" y="-298.5" font-family="Helvetica,sans-Serif" font-size="10.00">Mesh.hpp</text>
</a>
</g>
</g>
<!-- Node2&#45;&gt;Node21 -->
<g id="edge40" class="edge">
<title>Node2&#45;&gt;Node21</title>
<path fill="none" stroke="midnightblue" d="M618.51,-348.83C571.89,-339.03 488.32,-321.47 437.82,-310.86"/>
<polygon fill="midnightblue" stroke="midnightblue" points="438.39,-307.41 427.88,-308.77 436.95,-314.26 438.39,-307.41"/>
</g>
<!-- Node22 -->
<g id="node22" class="node">
<title>Node22</title>
<g id="a_node22"><a xlink:href="IDrawable_8hpp.html" target="_top" xlink:title=" ">
<polygon fill="white" stroke="black" points="142.14,-235.5 142.14,-254.5 229.14,-254.5 229.14,-235.5 142.14,-235.5"/>
<text text-anchor="middle" x="185.64" y="-242.5" font-family="Helvetica,sans-Serif" font-size="10.00">IDrawable.hpp</text>
</a>
</g>
</g>
<!-- Node2&#45;&gt;Node22 -->
<g id="edge45" class="edge">
<title>Node2&#45;&gt;Node22</title>
<path fill="none" stroke="midnightblue" d="M618.57,-353.92C539.01,-348.74 343.09,-333.99 281.64,-311 251.18,-299.61 220.93,-276.71 202.76,-261.36"/>
<polygon fill="midnightblue" stroke="midnightblue" points="204.71,-258.42 194.86,-254.52 200.13,-263.71 204.71,-258.42"/>
</g>
<!-- Node23 -->
<g id="node23" class="node">
<title>Node23</title>
<g id="a_node23"><a xlink:href="Shader_8hpp.html" target="_top" xlink:title=" ">
<polygon fill="white" stroke="black" points="726.14,-291.5 726.14,-310.5 797.14,-310.5 797.14,-291.5 726.14,-291.5"/>
<text text-anchor="middle" x="761.64" y="-298.5" font-family="Helvetica,sans-Serif" font-size="10.00">Shader.hpp</text>
</a>
</g>
</g>
<!-- Node2&#45;&gt;Node23 -->
<g id="edge49" class="edge">
<title>Node2&#45;&gt;Node23</title>
<path fill="none" stroke="midnightblue" d="M670.15,-347.32C687.71,-338.62 714.97,-325.12 735.17,-315.11"/>
<polygon fill="midnightblue" stroke="midnightblue" points="736.77,-318.23 744.17,-310.65 733.66,-311.96 736.77,-318.23"/>
</g>
<!-- Node25 -->
<g id="node25" class="node">
<title>Node25</title>
<g id="a_node25"><a xlink:title=" ">
<polygon fill="white" stroke="#bfbfbf" points="951.14,-291.5 951.14,-310.5 1018.14,-310.5 1018.14,-291.5 951.14,-291.5"/>
<text text-anchor="middle" x="984.64" y="-298.5" font-family="Helvetica,sans-Serif" font-size="10.00">raymath.h</text>
</a>
</g>
</g>
<!-- Node2&#45;&gt;Node25 -->
<g id="edge54" class="edge">
<title>Node2&#45;&gt;Node25</title>
<path fill="none" stroke="midnightblue" d="M686.79,-350.91C740.18,-342.87 846.62,-326.57 936.64,-311 938.1,-310.75 939.59,-310.49 941.09,-310.22"/>
<polygon fill="midnightblue" stroke="midnightblue" points="941.87,-313.64 951.09,-308.41 940.63,-306.75 941.87,-313.64"/>
</g>
<!-- Node5&#45;&gt;Node3 -->
<g id="edge5" class="edge">
<title>Node5&#45;&gt;Node3</title>
<path fill="none" stroke="midnightblue" d="M144.89,-125.59C205.43,-115.18 324.44,-94.72 384.74,-84.35"/>
<polygon fill="midnightblue" stroke="midnightblue" points="385.68,-87.74 394.94,-82.59 384.5,-80.84 385.68,-87.74"/>
</g>
<!-- Node6 -->
<g id="node6" class="node">
<title>Node6</title>
<g id="a_node6"><a xlink:href="IXMLSerializable_8hpp.html" target="_top" xlink:title=" ">
<polygon fill="white" stroke="black" points="183.14,-67.5 183.14,-86.5 302.14,-86.5 302.14,-67.5 183.14,-67.5"/>
<text text-anchor="middle" x="242.64" y="-74.5" font-family="Helvetica,sans-Serif" font-size="10.00">IXMLSerializable.hpp</text>
</a>
</g>
</g>
<!-- Node5&#45;&gt;Node6 -->
<g id="edge6" class="edge">
<title>Node5&#45;&gt;Node6</title>
<path fill="none" stroke="midnightblue" d="M129.03,-123.44C151.35,-114.52 186.54,-100.44 211.85,-90.32"/>
<polygon fill="midnightblue" stroke="midnightblue" points="213.37,-93.48 221.35,-86.52 210.77,-86.98 213.37,-93.48"/>
</g>
<!-- Node11 -->
<g id="node11" class="node">
<title>Node11</title>
<g id="a_node11"><a xlink:title=" ">
<polygon fill="white" stroke="#bfbfbf" points="118.14,-67.5 118.14,-86.5 165.14,-86.5 165.14,-67.5 118.14,-67.5"/>
<text text-anchor="middle" x="141.64" y="-74.5" font-family="Helvetica,sans-Serif" font-size="10.00">cmath</text>
</a>
</g>
</g>
<!-- Node5&#45;&gt;Node11 -->
<g id="edge11" class="edge">
<title>Node5&#45;&gt;Node11</title>
<path fill="none" stroke="midnightblue" d="M113.26,-123.08C118.01,-115.53 124.96,-104.49 130.79,-95.23"/>
<polygon fill="midnightblue" stroke="midnightblue" points="133.76,-97.08 136.13,-86.75 127.84,-93.35 133.76,-97.08"/>
</g>
<!-- Node12 -->
<g id="node12" class="node">
<title>Node12</title>
<g id="a_node12"><a xlink:title=" ">
<polygon fill="white" stroke="#bfbfbf" points="43.64,-67.5 43.64,-86.5 99.64,-86.5 99.64,-67.5 43.64,-67.5"/>
<text text-anchor="middle" x="71.64" y="-74.5" font-family="Helvetica,sans-Serif" font-size="10.00">sstream</text>
</a>
</g>
</g>
<!-- Node5&#45;&gt;Node12 -->
<g id="edge12" class="edge">
<title>Node5&#45;&gt;Node12</title>
<path fill="none" stroke="midnightblue" d="M101.7,-123.08C96.66,-115.53 89.3,-104.49 83.13,-95.23"/>
<polygon fill="midnightblue" stroke="midnightblue" points="85.93,-93.13 77.48,-86.75 80.11,-97.01 85.93,-93.13"/>
</g>
<!-- Node7 -->
<g id="node7" class="node">
<title>Node7</title>
<g id="a_node7"><a xlink:title=" ">
<polygon fill="white" stroke="#bfbfbf" points="317.14,-6 317.14,-25 374.14,-25 374.14,-6 317.14,-6"/>
<text text-anchor="middle" x="345.64" y="-13" font-family="Helvetica,sans-Serif" font-size="10.00">ostream</text>
</a>
</g>
</g>
<!-- Node6&#45;&gt;Node7 -->
<g id="edge7" class="edge">
<title>Node6&#45;&gt;Node7</title>
<path fill="none" stroke="midnightblue" d="M257.4,-67.48C274.3,-57.71 302.22,-41.58 322.13,-30.08"/>
<polygon fill="midnightblue" stroke="midnightblue" points="324,-33.04 330.91,-25.01 320.5,-26.98 324,-33.04"/>
</g>
<!-- Node6&#45;&gt;Node8 -->
<g id="edge8" class="edge">
<title>Node6&#45;&gt;Node8</title>
<path fill="none" stroke="midnightblue" d="M302.45,-68.52C400.86,-56.22 594.39,-32.03 678.28,-21.55"/>
<polygon fill="midnightblue" stroke="midnightblue" points="678.94,-24.99 688.42,-20.28 678.07,-18.04 678.94,-24.99"/>
</g>
<!-- Node9 -->
<g id="node9" class="node">
<title>Node9</title>
<g id="a_node9"><a xlink:title=" ">
<polygon fill="white" stroke="#bfbfbf" points="55.14,-0.5 55.14,-30.5 168.14,-30.5 168.14,-0.5 55.14,-0.5"/>
<text text-anchor="start" x="63.14" y="-18.5" font-family="Helvetica,sans-Serif" font-size="10.00">boost/property_tree</text>
<text text-anchor="middle" x="111.64" y="-7.5" font-family="Helvetica,sans-Serif" font-size="10.00">/ptree.hpp</text>
</a>
</g>
</g>
<!-- Node6&#45;&gt;Node9 -->
<g id="edge9" class="edge">
<title>Node6&#45;&gt;Node9</title>
<path fill="none" stroke="midnightblue" d="M223.87,-67.48C205.14,-58.96 175.75,-45.62 151.75,-34.72"/>
<polygon fill="midnightblue" stroke="midnightblue" points="153.07,-31.47 142.52,-30.52 150.17,-37.85 153.07,-31.47"/>
</g>
<!-- Node10 -->
<g id="node10" class="node">
<title>Node10</title>
<g id="a_node10"><a xlink:title=" ">
<polygon fill="white" stroke="#bfbfbf" points="186.14,-0.5 186.14,-30.5 299.14,-30.5 299.14,-0.5 186.14,-0.5"/>
<text text-anchor="start" x="194.14" y="-18.5" font-family="Helvetica,sans-Serif" font-size="10.00">boost/property_tree</text>
<text text-anchor="middle" x="242.64" y="-7.5" font-family="Helvetica,sans-Serif" font-size="10.00">/xml_parser.hpp</text>
</a>
</g>
</g>
<!-- Node6&#45;&gt;Node10 -->
<g id="edge10" class="edge">
<title>Node6&#45;&gt;Node10</title>
<path fill="none" stroke="midnightblue" d="M242.64,-67.48C242.64,-60.47 242.64,-50.19 242.64,-40.7"/>
<polygon fill="midnightblue" stroke="midnightblue" points="246.14,-40.52 242.64,-30.52 239.14,-40.52 246.14,-40.52"/>
</g>
<!-- Node13&#45;&gt;Node3 -->
<g id="edge14" class="edge">
<title>Node13&#45;&gt;Node3</title>
<path fill="none" stroke="midnightblue" d="M421.64,-179.37C421.64,-161.62 421.64,-120.67 421.64,-96.6"/>
<polygon fill="midnightblue" stroke="midnightblue" points="425.14,-96.59 421.64,-86.59 418.14,-96.59 425.14,-96.59"/>
</g>
<!-- Node13&#45;&gt;Node5 -->
<g id="edge15" class="edge">
<title>Node13&#45;&gt;Node5</title>
<path fill="none" stroke="midnightblue" d="M390.39,-182.62C335.1,-173.12 219.76,-153.28 154.78,-142.11"/>
<polygon fill="midnightblue" stroke="midnightblue" points="155.24,-138.64 144.79,-140.39 154.06,-145.53 155.24,-138.64"/>
</g>
<!-- Node14&#45;&gt;Node3 -->
<g id="edge17" class="edge">
<title>Node14&#45;&gt;Node3</title>
<path fill="none" stroke="midnightblue" d="M580.65,-295.48C623.65,-288.46 686.35,-271.71 666.64,-235 622.57,-152.91 514.84,-107.62 458.05,-88.71"/>
<polygon fill="midnightblue" stroke="midnightblue" points="458.99,-85.33 448.4,-85.58 456.83,-91.99 458.99,-85.33"/>
</g>
<!-- Node14&#45;&gt;Node4 -->
<g id="edge18" class="edge">
<title>Node14&#45;&gt;Node4</title>
<path fill="none" stroke="midnightblue" d="M580.85,-296.03C614.37,-290.97 663.77,-279.69 699.64,-255 717.23,-242.89 731.13,-222.43 739.57,-207.69"/>
<polygon fill="midnightblue" stroke="midnightblue" points="742.82,-209.04 744.51,-198.58 736.66,-205.7 742.82,-209.04"/>
</g>
<!-- Node14&#45;&gt;Node13 -->
<g id="edge28" class="edge">
<title>Node14&#45;&gt;Node13</title>
<path fill="none" stroke="midnightblue" d="M543.37,-291.32C542.5,-277.71 538.93,-251.24 524.64,-235 508.62,-216.79 483.87,-205.65 462.64,-199.02"/>
<polygon fill="midnightblue" stroke="midnightblue" points="463.45,-195.61 452.88,-196.19 461.51,-202.33 463.45,-195.61"/>
</g>
<!-- Node15 -->
<g id="node15" class="node">
<title>Node15</title>
<g id="a_node15"><a xlink:href="Image_8hpp.html" target="_top" xlink:title=" ">
<polygon fill="white" stroke="black" points="361.64,-235.5 361.64,-254.5 429.64,-254.5 429.64,-235.5 361.64,-235.5"/>
<text text-anchor="middle" x="395.64" y="-242.5" font-family="Helvetica,sans-Serif" font-size="10.00">Image.hpp</text>
</a>
</g>
</g>
<!-- Node14&#45;&gt;Node15 -->
<g id="edge19" class="edge">
<title>Node14&#45;&gt;Node15</title>
<path fill="none" stroke="midnightblue" d="M520.19,-291.44C495.51,-282.44 456.46,-268.19 428.66,-258.05"/>
<polygon fill="midnightblue" stroke="midnightblue" points="429.58,-254.66 418.98,-254.52 427.18,-261.23 429.58,-254.66"/>
</g>
<!-- Node16 -->
<g id="node16" class="node">
<title>Node16</title>
<g id="a_node16"><a xlink:href="Vector2_8hpp.html" target="_top" xlink:title=" ">
<polygon fill="white" stroke="black" points="184.64,-179.5 184.64,-198.5 258.64,-198.5 258.64,-179.5 184.64,-179.5"/>
<text text-anchor="middle" x="221.64" y="-186.5" font-family="Helvetica,sans-Serif" font-size="10.00">Vector2.hpp</text>
</a>
</g>
</g>
<!-- Node14&#45;&gt;Node16 -->
<g id="edge29" class="edge">
<title>Node14&#45;&gt;Node16</title>
<path fill="none" stroke="midnightblue" d="M506.3,-293.82C467.26,-286.76 404.56,-273.72 352.64,-255 313.46,-240.88 270.7,-218.16 245.04,-203.67"/>
<polygon fill="midnightblue" stroke="midnightblue" points="246.5,-200.47 236.09,-198.55 243.03,-206.55 246.5,-200.47"/>
</g>
<!-- Node17 -->
<g id="node17" class="node">
<title>Node17</title>
<g id="a_node17"><a xlink:href="Camera3D_8hpp.html" target="_top" xlink:title=" ">
<polygon fill="white" stroke="black" points="35.14,-235.5 35.14,-254.5 124.14,-254.5 124.14,-235.5 35.14,-235.5"/>
<text text-anchor="middle" x="79.64" y="-242.5" font-family="Helvetica,sans-Serif" font-size="10.00">Camera3D.hpp</text>
</a>
</g>
</g>
<!-- Node14&#45;&gt;Node17 -->
<g id="edge30" class="edge">
<title>Node14&#45;&gt;Node17</title>
<path fill="none" stroke="midnightblue" d="M506.43,-296.67C435.89,-290.2 277.67,-274.91 134.43,-255.18"/>
<polygon fill="midnightblue" stroke="midnightblue" points="134.53,-251.66 124.14,-253.75 133.57,-258.6 134.53,-251.66"/>
</g>
<!-- Node19 -->
<g id="node19" class="node">
<title>Node19</title>
<g id="a_node19"><a xlink:href="Rectangle_8hpp.html" target="_top" xlink:title=" ">
<polygon fill="white" stroke="black" points="571.64,-235.5 571.64,-254.5 657.64,-254.5 657.64,-235.5 571.64,-235.5"/>
<text text-anchor="middle" x="614.64" y="-242.5" font-family="Helvetica,sans-Serif" font-size="10.00">Rectangle.hpp</text>
</a>
</g>
</g>
<!-- Node14&#45;&gt;Node19 -->
<g id="edge36" class="edge">
<title>Node14&#45;&gt;Node19</title>
<path fill="none" stroke="midnightblue" d="M555.05,-291.32C565.75,-283.18 581.98,-270.84 594.8,-261.09"/>
<polygon fill="midnightblue" stroke="midnightblue" points="597.19,-263.67 603.03,-254.83 592.95,-258.1 597.19,-263.67"/>
</g>
<!-- Node20 -->
<g id="node20" class="node">
<title>Node20</title>
<g id="a_node20"><a xlink:href="IAsset_8hpp.html" target="_top" xlink:title=" ">
<polygon fill="white" stroke="black" points="447.64,-235.5 447.64,-254.5 515.64,-254.5 515.64,-235.5 447.64,-235.5"/>
<text text-anchor="middle" x="481.64" y="-242.5" font-family="Helvetica,sans-Serif" font-size="10.00">IAsset.hpp</text>
</a>
</g>
</g>
<!-- Node14&#45;&gt;Node20 -->
<g id="edge39" class="edge">
<title>Node14&#45;&gt;Node20</title>
<path fill="none" stroke="midnightblue" d="M533.68,-291.32C524.51,-283.34 510.7,-271.31 499.61,-261.65"/>
<polygon fill="midnightblue" stroke="midnightblue" points="501.62,-258.76 491.78,-254.83 497.03,-264.04 501.62,-258.76"/>
</g>
<!-- Node15&#45;&gt;Node3 -->
<g id="edge21" class="edge">
<title>Node15&#45;&gt;Node3</title>
<path fill="none" stroke="midnightblue" d="M418.1,-235.38C433.41,-228.18 452.5,-216.29 461.64,-199 480.16,-163.96 453.18,-118.72 435.31,-94.7"/>
<polygon fill="midnightblue" stroke="midnightblue" points="437.92,-92.36 429.02,-86.61 432.39,-96.65 437.92,-92.36"/>
</g>
<!-- Node15&#45;&gt;Node4 -->
<g id="edge20" class="edge">
<title>Node15&#45;&gt;Node4</title>
<path fill="none" stroke="midnightblue" d="M429.87,-236.64C432.83,-236.06 435.79,-235.51 438.64,-235 539.51,-217.14 659.77,-201.2 716.28,-194.02"/>
<polygon fill="midnightblue" stroke="midnightblue" points="716.9,-197.47 726.39,-192.75 716.03,-190.53 716.9,-197.47"/>
</g>
<!-- Node15&#45;&gt;Node13 -->
<g id="edge22" class="edge">
<title>Node15&#45;&gt;Node13</title>
<path fill="none" stroke="midnightblue" d="M399.93,-235.08C403.49,-227.69 408.66,-216.95 413.07,-207.81"/>
<polygon fill="midnightblue" stroke="midnightblue" points="416.24,-209.28 417.43,-198.75 409.94,-206.24 416.24,-209.28"/>
</g>
<!-- Node15&#45;&gt;Node16 -->
<g id="edge23" class="edge">
<title>Node15&#45;&gt;Node16</title>
<path fill="none" stroke="midnightblue" d="M368.07,-235.44C338.54,-226.28 291.52,-211.69 258.76,-201.52"/>
<polygon fill="midnightblue" stroke="midnightblue" points="259.67,-198.14 249.08,-198.52 257.6,-204.82 259.67,-198.14"/>
</g>
<!-- Node16&#45;&gt;Node3 -->
<g id="edge24" class="edge">
<title>Node16&#45;&gt;Node3</title>
<path fill="none" stroke="midnightblue" d="M226.05,-179.45C233.67,-165.54 250.61,-138.05 272.64,-123 306.62,-99.78 352.9,-88.27 384.82,-82.74"/>
<polygon fill="midnightblue" stroke="midnightblue" points="385.74,-86.14 395.06,-81.09 384.63,-79.23 385.74,-86.14"/>
</g>
<!-- Node16&#45;&gt;Node5 -->
<g id="edge26" class="edge">
<title>Node16&#45;&gt;Node5</title>
<path fill="none" stroke="midnightblue" d="M203.58,-179.44C185.07,-170.68 156.06,-156.94 134.79,-146.86"/>
<polygon fill="midnightblue" stroke="midnightblue" points="136.16,-143.63 125.62,-142.52 133.16,-149.96 136.16,-143.63"/>
</g>
<!-- Node16&#45;&gt;Node6 -->
<g id="edge27" class="edge">
<title>Node16&#45;&gt;Node6</title>
<path fill="none" stroke="midnightblue" d="M223.29,-179.37C226.68,-161.62 234.5,-120.67 239.09,-96.6"/>
<polygon fill="midnightblue" stroke="midnightblue" points="242.56,-97.07 241,-86.59 235.69,-95.76 242.56,-97.07"/>
</g>
<!-- Node16&#45;&gt;Node11 -->
<g id="edge25" class="edge">
<title>Node16&#45;&gt;Node11</title>
<path fill="none" stroke="midnightblue" d="M215.36,-179.37C202.16,-161.22 171.32,-118.8 154,-94.99"/>
<polygon fill="midnightblue" stroke="midnightblue" points="156.6,-92.62 147.89,-86.59 150.94,-96.74 156.6,-92.62"/>
</g>
<!-- Node17&#45;&gt;Node3 -->
<g id="edge31" class="edge">
<title>Node17&#45;&gt;Node3</title>
<path fill="none" stroke="midnightblue" d="M121.35,-235.5C172.87,-224.76 255.28,-206.76 267.64,-199 304.56,-175.82 295.49,-150.09 329.64,-123 347.12,-109.14 369.56,-98.05 387.9,-90.36"/>
<polygon fill="midnightblue" stroke="midnightblue" points="389.38,-93.53 397.34,-86.54 386.76,-87.04 389.38,-93.53"/>
</g>
<!-- Node17&#45;&gt;Node5 -->
<g id="edge33" class="edge">
<title>Node17&#45;&gt;Node5</title>
<path fill="none" stroke="midnightblue" d="M84.13,-235.28C88.52,-226.39 95.04,-212.08 98.64,-199 102.85,-183.71 105.14,-165.83 106.36,-152.69"/>
<polygon fill="midnightblue" stroke="midnightblue" points="109.86,-152.81 107.17,-142.56 102.88,-152.25 109.86,-152.81"/>
</g>
<!-- Node17&#45;&gt;Node16 -->
<g id="edge32" class="edge">
<title>Node17&#45;&gt;Node16</title>
<path fill="none" stroke="midnightblue" d="M102.14,-235.44C125.72,-226.48 162.96,-212.31 189.61,-202.18"/>
<polygon fill="midnightblue" stroke="midnightblue" points="191.14,-205.34 199.25,-198.52 188.66,-198.8 191.14,-205.34"/>
</g>
<!-- Node18 -->
<g id="node18" class="node">
<title>Node18</title>
<g id="a_node18"><a xlink:href="Ray_8hpp.html" target="_top" xlink:title=" ">
<polygon fill="white" stroke="black" points="35.14,-179.5 35.14,-198.5 90.14,-198.5 90.14,-179.5 35.14,-179.5"/>
<text text-anchor="middle" x="62.64" y="-186.5" font-family="Helvetica,sans-Serif" font-size="10.00">Ray.hpp</text>
</a>
</g>
</g>
<!-- Node17&#45;&gt;Node18 -->
<g id="edge34" class="edge">
<title>Node17&#45;&gt;Node18</title>
<path fill="none" stroke="midnightblue" d="M76.83,-235.08C74.56,-227.85 71.27,-217.41 68.43,-208.4"/>
<polygon fill="midnightblue" stroke="midnightblue" points="71.74,-207.24 65.4,-198.75 65.06,-209.34 71.74,-207.24"/>
</g>
<!-- Node18&#45;&gt;Node5 -->
<g id="edge35" class="edge">
<title>Node18&#45;&gt;Node5</title>
<path fill="none" stroke="midnightblue" d="M70.07,-179.08C76.49,-171.38 85.95,-160.03 93.76,-150.65"/>
<polygon fill="midnightblue" stroke="midnightblue" points="96.64,-152.67 100.35,-142.75 91.26,-148.19 96.64,-152.67"/>
</g>
<!-- Node19&#45;&gt;Node3 -->
<g id="edge37" class="edge">
<title>Node19&#45;&gt;Node3</title>
<path fill="none" stroke="midnightblue" d="M604.54,-235.31C573.53,-208.64 479.44,-127.72 439.68,-93.52"/>
<polygon fill="midnightblue" stroke="midnightblue" points="441.51,-90.47 431.65,-86.61 436.95,-95.78 441.51,-90.47"/>
</g>
<!-- Node19&#45;&gt;Node13 -->
<g id="edge38" class="edge">
<title>Node19&#45;&gt;Node13</title>
<path fill="none" stroke="midnightblue" d="M584.06,-235.44C551.03,-226.2 498.25,-211.44 461.88,-201.26"/>
<polygon fill="midnightblue" stroke="midnightblue" points="462.65,-197.84 452.08,-198.52 460.77,-204.58 462.65,-197.84"/>
</g>
<!-- Node21&#45;&gt;Node3 -->
<g id="edge41" class="edge">
<title>Node21&#45;&gt;Node3</title>
<path fill="none" stroke="midnightblue" d="M383.14,-291.3C372.77,-283.25 358.75,-270.24 352.64,-255 349.33,-246.75 350.81,-243.7 352.64,-235 363.92,-181.31 394.71,-123.57 411.08,-95.42"/>
<polygon fill="midnightblue" stroke="midnightblue" points="414.13,-97.15 416.22,-86.76 408.11,-93.58 414.13,-97.15"/>
</g>
<!-- Node21&#45;&gt;Node5 -->
<g id="edge43" class="edge">
<title>Node21&#45;&gt;Node5</title>
<path fill="none" stroke="midnightblue" d="M363.54,-298.49C277.71,-294.12 47.93,-280.16 25.64,-255 3.24,-229.71 8.44,-208.07 25.64,-179 34.61,-163.84 50.71,-153.45 66.28,-146.5"/>
<polygon fill="midnightblue" stroke="midnightblue" points="67.89,-149.63 75.83,-142.62 65.25,-143.14 67.89,-149.63"/>
</g>
<!-- Node21&#45;&gt;Node15 -->
<g id="edge42" class="edge">
<title>Node21&#45;&gt;Node15</title>
<path fill="none" stroke="midnightblue" d="M395.64,-291.08C395.64,-284.01 395.64,-273.86 395.64,-264.99"/>
<polygon fill="midnightblue" stroke="midnightblue" points="399.14,-264.75 395.64,-254.75 392.14,-264.75 399.14,-264.75"/>
</g>
<!-- Node21&#45;&gt;Node20 -->
<g id="edge44" class="edge">
<title>Node21&#45;&gt;Node20</title>
<path fill="none" stroke="midnightblue" d="M409.46,-291.32C422.87,-282.9 443.47,-269.97 459.23,-260.07"/>
<polygon fill="midnightblue" stroke="midnightblue" points="461.25,-262.94 467.86,-254.65 457.53,-257.01 461.25,-262.94"/>
</g>
<!-- Node22&#45;&gt;Node3 -->
<g id="edge46" class="edge">
<title>Node22&#45;&gt;Node3</title>
<path fill="none" stroke="midnightblue" d="M224.28,-235.47C248.25,-228.68 278.57,-217.22 300.64,-199 331.45,-173.56 320.24,-151.09 348.64,-123 361.75,-110.03 379.27,-99.08 393.85,-91.22"/>
<polygon fill="midnightblue" stroke="midnightblue" points="395.67,-94.23 402.94,-86.52 392.45,-88.01 395.67,-94.23"/>
</g>
<!-- Node22&#45;&gt;Node5 -->
<g id="edge47" class="edge">
<title>Node22&#45;&gt;Node5</title>
<path fill="none" stroke="midnightblue" d="M179.52,-235.37C166.65,-217.22 136.57,-174.8 119.69,-150.99"/>
<polygon fill="midnightblue" stroke="midnightblue" points="122.37,-148.72 113.73,-142.59 116.66,-152.77 122.37,-148.72"/>
</g>
<!-- Node22&#45;&gt;Node13 -->
<g id="edge48" class="edge">
<title>Node22&#45;&gt;Node13</title>
<path fill="none" stroke="midnightblue" d="M223.04,-235.44C265.96,-225.62 336.15,-209.56 380.57,-199.4"/>
<polygon fill="midnightblue" stroke="midnightblue" points="381.48,-202.78 390.45,-197.14 379.92,-195.96 381.48,-202.78"/>
</g>
<!-- Node23&#45;&gt;Node3 -->
<g id="edge52" class="edge">
<title>Node23&#45;&gt;Node3</title>
<path fill="none" stroke="midnightblue" d="M795.44,-291.39C814.03,-284.74 835.53,-273.45 846.64,-255 873.46,-210.46 800.57,-190.04 779.64,-179 670.67,-121.49 525.28,-93.6 458.28,-83.13"/>
<polygon fill="midnightblue" stroke="midnightblue" points="458.63,-79.64 448.22,-81.59 457.58,-86.56 458.63,-79.64"/>
</g>
<!-- Node23&#45;&gt;Node4 -->
<g id="edge51" class="edge">
<title>Node23&#45;&gt;Node4</title>
<path fill="none" stroke="midnightblue" d="M760.62,-291.37C758.52,-273.62 753.68,-232.67 750.84,-208.6"/>
<polygon fill="midnightblue" stroke="midnightblue" points="754.31,-208.11 749.66,-198.59 747.35,-208.93 754.31,-208.11"/>
</g>
<!-- Node23&#45;&gt;Node20 -->
<g id="edge50" class="edge">
<title>Node23&#45;&gt;Node20</title>
<path fill="none" stroke="midnightblue" d="M725.89,-293.11C674.82,-283.26 581.03,-265.17 525.72,-254.5"/>
<polygon fill="midnightblue" stroke="midnightblue" points="526.34,-251.06 515.86,-252.6 525.02,-257.93 526.34,-251.06"/>
</g>
<!-- Node24 -->
<g id="node24" class="node">
<title>Node24</title>
<g id="a_node24"><a xlink:title=" ">
<polygon fill="white" stroke="#bfbfbf" points="790.14,-235.5 790.14,-254.5 837.14,-254.5 837.14,-235.5 790.14,-235.5"/>
<text text-anchor="middle" x="813.64" y="-242.5" font-family="Helvetica,sans-Serif" font-size="10.00">vector</text>
</a>
</g>
</g>
<!-- Node23&#45;&gt;Node24 -->
<g id="edge53" class="edge">
<title>Node23&#45;&gt;Node24</title>
<path fill="none" stroke="midnightblue" d="M770.23,-291.08C777.8,-283.22 789.02,-271.57 798.16,-262.08"/>
<polygon fill="midnightblue" stroke="midnightblue" points="800.8,-264.38 805.21,-254.75 795.76,-259.53 800.8,-264.38"/>
</g>
</g>
</svg>
