<?xml version="1.0" encoding="UTF-8" standalone="no"?>
<!DOCTYPE svg PUBLIC "-//W3C//DTD SVG 1.1//EN"
 "http://www.w3.org/Graphics/SVG/1.1/DTD/svg11.dtd">
<!-- Generated by graphviz version 2.43.0 (0)
 -->
<!-- Title: Libs/Engine/sources/ModelShader/ModelShader.hpp Pages: 1 -->
<svg width="514pt" height="195pt"
 viewBox="0.00 0.00 514.00 195.00" xmlns="http://www.w3.org/2000/svg" xmlns:xlink="http://www.w3.org/1999/xlink">
<g id="graph0" class="graph" transform="scale(1 1) rotate(0) translate(4 191)">
<title>Libs/Engine/sources/ModelShader/ModelShader.hpp</title>
<polygon fill="white" stroke="transparent" points="-4,4 -4,-191 510,-191 510,4 -4,4"/>
<!-- Node1 -->
<g id="node1" class="node">
<title>Node1</title>
<g id="a_node1"><a xlink:title=" ">
<polygon fill="#bfbfbf" stroke="black" points="180,-156.5 180,-186.5 350,-186.5 350,-156.5 180,-156.5"/>
<text text-anchor="start" x="188" y="-174.5" font-family="Helvetica,sans-Serif" font-size="10.00">Libs/Engine/sources</text>
<text text-anchor="middle" x="265" y="-163.5" font-family="Helvetica,sans-Serif" font-size="10.00">/ModelShader/ModelShader.hpp</text>
</a>
</g>
</g>
<!-- Node2 -->
<g id="node2" class="node">
<title>Node2</title>
<g id="a_node2"><a xlink:href="ModelShader_8cpp.html" target="_top" xlink:title=" ">
<polygon fill="white" stroke="black" points="0,-84 0,-114 170,-114 170,-84 0,-84"/>
<text text-anchor="start" x="8" y="-102" font-family="Helvetica,sans-Serif" font-size="10.00">Libs/Engine/sources</text>
<text text-anchor="middle" x="85" y="-91" font-family="Helvetica,sans-Serif" font-size="10.00">/ModelShader/ModelShader.cpp</text>
</a>
</g>
</g>
<!-- Node1&#45;&gt;Node2 -->
<g id="edge1" class="edge">
<title>Node1&#45;&gt;Node2</title>
<path fill="none" stroke="midnightblue" d="M219.44,-152.65C188.9,-140.69 149.24,-125.16 120.93,-114.07"/>
<polygon fill="midnightblue" stroke="midnightblue" points="218.42,-156.01 229.01,-156.4 220.97,-149.5 218.42,-156.01"/>
</g>
<!-- Node3 -->
<g id="node3" class="node">
<title>Node3</title>
<g id="a_node3"><a xlink:href="TerrainShader_8hpp.html" target="_top" xlink:title=" ">
<polygon fill="white" stroke="black" points="188.5,-78.5 188.5,-119.5 341.5,-119.5 341.5,-78.5 188.5,-78.5"/>
<text text-anchor="start" x="196.5" y="-107.5" font-family="Helvetica,sans-Serif" font-size="10.00">Libs/Engine/sources</text>
<text text-anchor="start" x="196.5" y="-96.5" font-family="Helvetica,sans-Serif" font-size="10.00">/ModelShader/TerrainShader</text>
<text text-anchor="middle" x="265" y="-85.5" font-family="Helvetica,sans-Serif" font-size="10.00">/TerrainShader.hpp</text>
</a>
</g>
</g>
<!-- Node1&#45;&gt;Node3 -->
<g id="edge2" class="edge">
<title>Node1&#45;&gt;Node3</title>
<path fill="none" stroke="midnightblue" d="M265,-145.98C265,-137.35 265,-127.76 265,-119.59"/>
<polygon fill="midnightblue" stroke="midnightblue" points="261.5,-146.23 265,-156.23 268.5,-146.23 261.5,-146.23"/>
</g>
<!-- Node7 -->
<g id="node7" class="node">
<title>Node7</title>
<g id="a_node7"><a xlink:href="RenderSystem_8cpp.html" target="_top" xlink:title=" ">
<polygon fill="white" stroke="black" points="360,-78.5 360,-119.5 496,-119.5 496,-78.5 360,-78.5"/>
<text text-anchor="start" x="368" y="-107.5" font-family="Helvetica,sans-Serif" font-size="10.00">Libs/Engine/sources</text>
<text text-anchor="start" x="368" y="-96.5" font-family="Helvetica,sans-Serif" font-size="10.00">/Systems/RenderSystem</text>
<text text-anchor="middle" x="428" y="-85.5" font-family="Helvetica,sans-Serif" font-size="10.00">/RenderSystem.cpp</text>
</a>
</g>
</g>
<!-- Node1&#45;&gt;Node7 -->
<g id="edge6" class="edge">
<title>Node1&#45;&gt;Node7</title>
<path fill="none" stroke="midnightblue" d="M306.85,-152.4C330.1,-142.34 359.04,-129.83 382.81,-119.55"/>
<polygon fill="midnightblue" stroke="midnightblue" points="305.38,-149.22 297.59,-156.4 308.16,-155.65 305.38,-149.22"/>
</g>
<!-- Node4 -->
<g id="node4" class="node">
<title>Node4</title>
<g id="a_node4"><a xlink:href="EntityFactory_8cpp.html" target="_top" xlink:title=" ">
<polygon fill="white" stroke="black" points="1.5,-6 1.5,-36 170.5,-36 170.5,-6 1.5,-6"/>
<text text-anchor="start" x="9.5" y="-24" font-family="Helvetica,sans-Serif" font-size="10.00">Libs/Engine/sources</text>
<text text-anchor="middle" x="86" y="-13" font-family="Helvetica,sans-Serif" font-size="10.00">/EntityFactory/EntityFactory.cpp</text>
</a>
</g>
</g>
<!-- Node3&#45;&gt;Node4 -->
<g id="edge3" class="edge">
<title>Node3&#45;&gt;Node4</title>
<path fill="none" stroke="midnightblue" d="M209.52,-74.45C179.94,-61.89 144.53,-46.85 119.22,-36.11"/>
<polygon fill="midnightblue" stroke="midnightblue" points="208.33,-77.74 218.9,-78.43 211.07,-71.3 208.33,-77.74"/>
</g>
<!-- Node5 -->
<g id="node5" class="node">
<title>Node5</title>
<g id="a_node5"><a xlink:href="TerrainShader_8cpp.html" target="_top" xlink:title=" ">
<polygon fill="white" stroke="black" points="188.5,-0.5 188.5,-41.5 341.5,-41.5 341.5,-0.5 188.5,-0.5"/>
<text text-anchor="start" x="196.5" y="-29.5" font-family="Helvetica,sans-Serif" font-size="10.00">Libs/Engine/sources</text>
<text text-anchor="start" x="196.5" y="-18.5" font-family="Helvetica,sans-Serif" font-size="10.00">/ModelShader/TerrainShader</text>
<text text-anchor="middle" x="265" y="-7.5" font-family="Helvetica,sans-Serif" font-size="10.00">/TerrainShader.cpp</text>
</a>
</g>
</g>
<!-- Node3&#45;&gt;Node5 -->
<g id="edge4" class="edge">
<title>Node3&#45;&gt;Node5</title>
<path fill="none" stroke="midnightblue" d="M265,-68.3C265,-59.3 265,-49.65 265,-41.51"/>
<polygon fill="midnightblue" stroke="midnightblue" points="261.5,-68.43 265,-78.43 268.5,-68.43 261.5,-68.43"/>
</g>
<!-- Node6 -->
<g id="node6" class="node">
<title>Node6</title>
<g id="a_node6"><a xlink:href="Prototype_2sources_2Shaders_2main_8cpp.html" target="_top" xlink:title=" ">
<polygon fill="white" stroke="black" points="360,-6 360,-36 506,-36 506,-6 360,-6"/>
<text text-anchor="start" x="368" y="-24" font-family="Helvetica,sans-Serif" font-size="10.00">Prototype/sources/Shaders</text>
<text text-anchor="middle" x="433" y="-13" font-family="Helvetica,sans-Serif" font-size="10.00">/main.cpp</text>
</a>
</g>
</g>
<!-- Node3&#45;&gt;Node6 -->
<g id="edge5" class="edge">
<title>Node3&#45;&gt;Node6</title>
<path fill="none" stroke="midnightblue" d="M317.43,-74.28C345.12,-61.76 378.17,-46.81 401.82,-36.11"/>
<polygon fill="midnightblue" stroke="midnightblue" points="315.93,-71.12 308.26,-78.43 318.82,-77.5 315.93,-71.12"/>
</g>
</g>
</svg>
