<?xml version="1.0" encoding="UTF-8" standalone="no"?>
<!DOCTYPE svg PUBLIC "-//W3C//DTD SVG 1.1//EN"
 "http://www.w3.org/Graphics/SVG/1.1/DTD/svg11.dtd">
<!-- Generated by graphviz version 2.43.0 (0)
 -->
<!-- Title: Libs/Engine/sources/ModelShader/ModelShader.cpp Pages: 1 -->
<svg width="698pt" height="274pt"
 viewBox="0.00 0.00 698.00 274.00" xmlns="http://www.w3.org/2000/svg" xmlns:xlink="http://www.w3.org/1999/xlink">
<g id="graph0" class="graph" transform="scale(1 1) rotate(0) translate(4 270)">
<title>Libs/Engine/sources/ModelShader/ModelShader.cpp</title>
<polygon fill="white" stroke="transparent" points="-4,4 -4,-270 694,-270 694,4 -4,4"/>
<!-- Node1 -->
<g id="node1" class="node">
<title>Node1</title>
<g id="a_node1"><a xlink:title=" ">
<polygon fill="#bfbfbf" stroke="black" points="282.5,-235.5 282.5,-265.5 452.5,-265.5 452.5,-235.5 282.5,-235.5"/>
<text text-anchor="start" x="290.5" y="-253.5" font-family="Helvetica,sans-Serif" font-size="10.00">Libs/Engine/sources</text>
<text text-anchor="middle" x="367.5" y="-242.5" font-family="Helvetica,sans-Serif" font-size="10.00">/ModelShader/ModelShader.cpp</text>
</a>
</g>
</g>
<!-- Node2 -->
<g id="node2" class="node">
<title>Node2</title>
<g id="a_node2"><a xlink:href="ModelShader_8hpp.html" target="_top" xlink:title=" ">
<polygon fill="white" stroke="black" points="145,-179.5 145,-198.5 246,-198.5 246,-179.5 145,-179.5"/>
<text text-anchor="middle" x="195.5" y="-186.5" font-family="Helvetica,sans-Serif" font-size="10.00">ModelShader.hpp</text>
</a>
</g>
</g>
<!-- Node1&#45;&gt;Node2 -->
<g id="edge1" class="edge">
<title>Node1&#45;&gt;Node2</title>
<path fill="none" stroke="midnightblue" d="M326.74,-235.4C297.28,-225.21 257.91,-211.59 230,-201.93"/>
<polygon fill="midnightblue" stroke="midnightblue" points="230.87,-198.53 220.28,-198.57 228.58,-205.15 230.87,-198.53"/>
</g>
<!-- Node9 -->
<g id="node9" class="node">
<title>Node9</title>
<g id="a_node9"><a xlink:href="AssetCache_8hpp.html" target="_top" xlink:title=" ">
<polygon fill="white" stroke="black" points="320,-179.5 320,-198.5 415,-198.5 415,-179.5 320,-179.5"/>
<text text-anchor="middle" x="367.5" y="-186.5" font-family="Helvetica,sans-Serif" font-size="10.00">AssetCache.hpp</text>
</a>
</g>
</g>
<!-- Node1&#45;&gt;Node9 -->
<g id="edge9" class="edge">
<title>Node1&#45;&gt;Node9</title>
<path fill="none" stroke="midnightblue" d="M367.5,-235.4C367.5,-227.47 367.5,-217.46 367.5,-208.86"/>
<polygon fill="midnightblue" stroke="midnightblue" points="371,-208.66 367.5,-198.66 364,-208.66 371,-208.66"/>
</g>
<!-- Node16 -->
<g id="node16" class="node">
<title>Node16</title>
<g id="a_node16"><a xlink:href="Shader_8hpp.html" target="_top" xlink:title=" ">
<polygon fill="white" stroke="black" points="508,-179.5 508,-198.5 579,-198.5 579,-179.5 508,-179.5"/>
<text text-anchor="middle" x="543.5" y="-186.5" font-family="Helvetica,sans-Serif" font-size="10.00">Shader.hpp</text>
</a>
</g>
</g>
<!-- Node1&#45;&gt;Node16 -->
<g id="edge16" class="edge">
<title>Node1&#45;&gt;Node16</title>
<path fill="none" stroke="midnightblue" d="M409.21,-235.4C439.49,-225.16 479.99,-211.47 508.57,-201.81"/>
<polygon fill="midnightblue" stroke="midnightblue" points="509.8,-205.09 518.15,-198.57 507.55,-198.46 509.8,-205.09"/>
</g>
<!-- Node3 -->
<g id="node3" class="node">
<title>Node3</title>
<g id="a_node3"><a xlink:href="IComponent_8hpp.html" target="_top" xlink:title=" ">
<polygon fill="white" stroke="black" points="58,-123.5 58,-142.5 155,-142.5 155,-123.5 58,-123.5"/>
<text text-anchor="middle" x="106.5" y="-130.5" font-family="Helvetica,sans-Serif" font-size="10.00">IComponent.hpp</text>
</a>
</g>
</g>
<!-- Node2&#45;&gt;Node3 -->
<g id="edge2" class="edge">
<title>Node2&#45;&gt;Node3</title>
<path fill="none" stroke="midnightblue" d="M181.2,-179.32C167.32,-170.9 146.01,-157.97 129.7,-148.07"/>
<polygon fill="midnightblue" stroke="midnightblue" points="131.13,-144.85 120.76,-142.65 127.5,-150.83 131.13,-144.85"/>
</g>
<!-- Node4 -->
<g id="node4" class="node">
<title>Node4</title>
<g id="a_node4"><a xlink:title=" ">
<polygon fill="white" stroke="#bfbfbf" points="0,-6 0,-25 57,-25 57,-6 0,-6"/>
<text text-anchor="middle" x="28.5" y="-13" font-family="Helvetica,sans-Serif" font-size="10.00">ostream</text>
</a>
</g>
</g>
<!-- Node3&#45;&gt;Node4 -->
<g id="edge3" class="edge">
<title>Node3&#45;&gt;Node4</title>
<path fill="none" stroke="midnightblue" d="M90.07,-123.5C76.68,-115.74 58.27,-103.04 47.5,-87 37.03,-71.4 32.31,-50.23 30.2,-35.17"/>
<polygon fill="midnightblue" stroke="midnightblue" points="33.65,-34.58 29.04,-25.04 26.7,-35.37 33.65,-34.58"/>
</g>
<!-- Node5 -->
<g id="node5" class="node">
<title>Node5</title>
<g id="a_node5"><a xlink:href="IXMLSerializable_8hpp.html" target="_top" xlink:title=" ">
<polygon fill="white" stroke="black" points="57,-67.5 57,-86.5 176,-86.5 176,-67.5 57,-67.5"/>
<text text-anchor="middle" x="116.5" y="-74.5" font-family="Helvetica,sans-Serif" font-size="10.00">IXMLSerializable.hpp</text>
</a>
</g>
</g>
<!-- Node3&#45;&gt;Node5 -->
<g id="edge4" class="edge">
<title>Node3&#45;&gt;Node5</title>
<path fill="none" stroke="midnightblue" d="M108.15,-123.08C109.48,-115.93 111.38,-105.64 113.04,-96.69"/>
<polygon fill="midnightblue" stroke="midnightblue" points="116.5,-97.22 114.88,-86.75 109.62,-95.95 116.5,-97.22"/>
</g>
<!-- Node5&#45;&gt;Node4 -->
<g id="edge5" class="edge">
<title>Node5&#45;&gt;Node4</title>
<path fill="none" stroke="midnightblue" d="M103.89,-67.48C89.78,-57.93 66.67,-42.31 49.75,-30.87"/>
<polygon fill="midnightblue" stroke="midnightblue" points="51.33,-27.71 41.08,-25.01 47.41,-33.51 51.33,-27.71"/>
</g>
<!-- Node6 -->
<g id="node6" class="node">
<title>Node6</title>
<g id="a_node6"><a xlink:title=" ">
<polygon fill="white" stroke="#bfbfbf" points="75.5,-6 75.5,-25 135.5,-25 135.5,-6 75.5,-6"/>
<text text-anchor="middle" x="105.5" y="-13" font-family="Helvetica,sans-Serif" font-size="10.00">iostream</text>
</a>
</g>
</g>
<!-- Node5&#45;&gt;Node6 -->
<g id="edge6" class="edge">
<title>Node5&#45;&gt;Node6</title>
<path fill="none" stroke="midnightblue" d="M114.92,-67.48C113.37,-59.08 110.95,-45.98 108.95,-35.16"/>
<polygon fill="midnightblue" stroke="midnightblue" points="112.33,-34.21 107.07,-25.01 105.45,-35.48 112.33,-34.21"/>
</g>
<!-- Node7 -->
<g id="node7" class="node">
<title>Node7</title>
<g id="a_node7"><a xlink:title=" ">
<polygon fill="white" stroke="#bfbfbf" points="154,-0.5 154,-30.5 267,-30.5 267,-0.5 154,-0.5"/>
<text text-anchor="start" x="162" y="-18.5" font-family="Helvetica,sans-Serif" font-size="10.00">boost/property_tree</text>
<text text-anchor="middle" x="210.5" y="-7.5" font-family="Helvetica,sans-Serif" font-size="10.00">/ptree.hpp</text>
</a>
</g>
</g>
<!-- Node5&#45;&gt;Node7 -->
<g id="edge7" class="edge">
<title>Node5&#45;&gt;Node7</title>
<path fill="none" stroke="midnightblue" d="M129.97,-67.48C142.94,-59.27 163.01,-46.56 179.88,-35.88"/>
<polygon fill="midnightblue" stroke="midnightblue" points="181.77,-38.83 188.35,-30.52 178.02,-32.91 181.77,-38.83"/>
</g>
<!-- Node8 -->
<g id="node8" class="node">
<title>Node8</title>
<g id="a_node8"><a xlink:title=" ">
<polygon fill="white" stroke="#bfbfbf" points="285,-0.5 285,-30.5 398,-30.5 398,-0.5 285,-0.5"/>
<text text-anchor="start" x="293" y="-18.5" font-family="Helvetica,sans-Serif" font-size="10.00">boost/property_tree</text>
<text text-anchor="middle" x="341.5" y="-7.5" font-family="Helvetica,sans-Serif" font-size="10.00">/xml_parser.hpp</text>
</a>
</g>
</g>
<!-- Node5&#45;&gt;Node8 -->
<g id="edge8" class="edge">
<title>Node5&#45;&gt;Node8</title>
<path fill="none" stroke="midnightblue" d="M148.74,-67.48C182.49,-58.55 236.34,-44.31 278.56,-33.14"/>
<polygon fill="midnightblue" stroke="midnightblue" points="279.7,-36.46 288.47,-30.52 277.91,-29.7 279.7,-36.46"/>
</g>
<!-- Node10 -->
<g id="node10" class="node">
<title>Node10</title>
<g id="a_node10"><a xlink:href="IAsset_8hpp.html" target="_top" xlink:title=" ">
<polygon fill="white" stroke="black" points="447.5,-123.5 447.5,-142.5 515.5,-142.5 515.5,-123.5 447.5,-123.5"/>
<text text-anchor="middle" x="481.5" y="-130.5" font-family="Helvetica,sans-Serif" font-size="10.00">IAsset.hpp</text>
</a>
</g>
</g>
<!-- Node9&#45;&gt;Node10 -->
<g id="edge10" class="edge">
<title>Node9&#45;&gt;Node10</title>
<path fill="none" stroke="midnightblue" d="M385.56,-179.44C404.07,-170.68 433.08,-156.94 454.36,-146.86"/>
<polygon fill="midnightblue" stroke="midnightblue" points="455.98,-149.96 463.52,-142.52 452.99,-143.63 455.98,-149.96"/>
</g>
<!-- Node11 -->
<g id="node11" class="node">
<title>Node11</title>
<g id="a_node11"><a xlink:href="EngineExceptions_8hpp.html" target="_top" xlink:title=" ">
<polygon fill="white" stroke="black" points="173.5,-123.5 173.5,-142.5 297.5,-142.5 297.5,-123.5 173.5,-123.5"/>
<text text-anchor="middle" x="235.5" y="-130.5" font-family="Helvetica,sans-Serif" font-size="10.00">EngineExceptions.hpp</text>
</a>
</g>
</g>
<!-- Node9&#45;&gt;Node11 -->
<g id="edge11" class="edge">
<title>Node9&#45;&gt;Node11</title>
<path fill="none" stroke="midnightblue" d="M346.58,-179.44C324.76,-170.52 290.35,-156.44 265.61,-146.32"/>
<polygon fill="midnightblue" stroke="midnightblue" points="266.9,-143.06 256.32,-142.52 264.25,-149.54 266.9,-143.06"/>
</g>
<!-- Node14 -->
<g id="node14" class="node">
<title>Node14</title>
<g id="a_node14"><a xlink:title=" ">
<polygon fill="white" stroke="#bfbfbf" points="315.5,-123.5 315.5,-142.5 353.5,-142.5 353.5,-123.5 315.5,-123.5"/>
<text text-anchor="middle" x="334.5" y="-130.5" font-family="Helvetica,sans-Serif" font-size="10.00">map</text>
</a>
</g>
</g>
<!-- Node9&#45;&gt;Node14 -->
<g id="edge14" class="edge">
<title>Node9&#45;&gt;Node14</title>
<path fill="none" stroke="midnightblue" d="M362.05,-179.08C357.49,-171.61 350.83,-160.72 345.21,-151.52"/>
<polygon fill="midnightblue" stroke="midnightblue" points="348.05,-149.46 339.85,-142.75 342.08,-153.11 348.05,-149.46"/>
</g>
<!-- Node15 -->
<g id="node15" class="node">
<title>Node15</title>
<g id="a_node15"><a xlink:title=" ">
<polygon fill="white" stroke="#bfbfbf" points="371.5,-123.5 371.5,-142.5 429.5,-142.5 429.5,-123.5 371.5,-123.5"/>
<text text-anchor="middle" x="400.5" y="-130.5" font-family="Helvetica,sans-Serif" font-size="10.00">memory</text>
</a>
</g>
</g>
<!-- Node9&#45;&gt;Node15 -->
<g id="edge15" class="edge">
<title>Node9&#45;&gt;Node15</title>
<path fill="none" stroke="midnightblue" d="M372.95,-179.08C377.51,-171.61 384.17,-160.72 389.79,-151.52"/>
<polygon fill="midnightblue" stroke="midnightblue" points="392.92,-153.11 395.15,-142.75 386.95,-149.46 392.92,-153.11"/>
</g>
<!-- Node12 -->
<g id="node12" class="node">
<title>Node12</title>
<g id="a_node12"><a xlink:title=" ">
<polygon fill="white" stroke="#bfbfbf" points="203,-67.5 203,-86.5 268,-86.5 268,-67.5 203,-67.5"/>
<text text-anchor="middle" x="235.5" y="-74.5" font-family="Helvetica,sans-Serif" font-size="10.00">exception</text>
</a>
</g>
</g>
<!-- Node11&#45;&gt;Node12 -->
<g id="edge12" class="edge">
<title>Node11&#45;&gt;Node12</title>
<path fill="none" stroke="midnightblue" d="M235.5,-123.08C235.5,-116.01 235.5,-105.86 235.5,-96.99"/>
<polygon fill="midnightblue" stroke="midnightblue" points="239,-96.75 235.5,-86.75 232,-96.75 239,-96.75"/>
</g>
<!-- Node13 -->
<g id="node13" class="node">
<title>Node13</title>
<g id="a_node13"><a xlink:title=" ">
<polygon fill="white" stroke="#bfbfbf" points="403.5,-67.5 403.5,-86.5 447.5,-86.5 447.5,-67.5 403.5,-67.5"/>
<text text-anchor="middle" x="425.5" y="-74.5" font-family="Helvetica,sans-Serif" font-size="10.00">string</text>
</a>
</g>
</g>
<!-- Node11&#45;&gt;Node13 -->
<g id="edge13" class="edge">
<title>Node11&#45;&gt;Node13</title>
<path fill="none" stroke="midnightblue" d="M265.61,-123.44C300.46,-113.54 357.65,-97.28 393.35,-87.14"/>
<polygon fill="midnightblue" stroke="midnightblue" points="394.59,-90.42 403.25,-84.32 392.68,-83.69 394.59,-90.42"/>
</g>
<!-- Node16&#45;&gt;Node10 -->
<g id="edge17" class="edge">
<title>Node16&#45;&gt;Node10</title>
<path fill="none" stroke="midnightblue" d="M533.54,-179.32C524.37,-171.34 510.56,-159.31 499.47,-149.65"/>
<polygon fill="midnightblue" stroke="midnightblue" points="501.48,-146.76 491.64,-142.83 496.88,-152.04 501.48,-146.76"/>
</g>
<!-- Node16&#45;&gt;Node13 -->
<g id="edge18" class="edge">
<title>Node16&#45;&gt;Node13</title>
<path fill="none" stroke="midnightblue" d="M543.2,-179.35C542.29,-165.77 538.67,-139.35 524.5,-123 507.2,-103.05 479.26,-91.47 457.46,-85.06"/>
<polygon fill="midnightblue" stroke="midnightblue" points="458.2,-81.64 447.64,-82.4 456.37,-88.39 458.2,-81.64"/>
</g>
<!-- Node17 -->
<g id="node17" class="node">
<title>Node17</title>
<g id="a_node17"><a xlink:title=" ">
<polygon fill="white" stroke="#bfbfbf" points="572,-123.5 572,-142.5 625,-142.5 625,-123.5 572,-123.5"/>
<text text-anchor="middle" x="598.5" y="-130.5" font-family="Helvetica,sans-Serif" font-size="10.00">raylib.h</text>
</a>
</g>
</g>
<!-- Node16&#45;&gt;Node17 -->
<g id="edge19" class="edge">
<title>Node16&#45;&gt;Node17</title>
<path fill="none" stroke="midnightblue" d="M552.58,-179.08C560.67,-171.14 572.7,-159.34 582.41,-149.8"/>
<polygon fill="midnightblue" stroke="midnightblue" points="584.9,-152.25 589.59,-142.75 580,-147.26 584.9,-152.25"/>
</g>
<!-- Node18 -->
<g id="node18" class="node">
<title>Node18</title>
<g id="a_node18"><a xlink:title=" ">
<polygon fill="white" stroke="#bfbfbf" points="643,-123.5 643,-142.5 690,-142.5 690,-123.5 643,-123.5"/>
<text text-anchor="middle" x="666.5" y="-130.5" font-family="Helvetica,sans-Serif" font-size="10.00">vector</text>
</a>
</g>
</g>
<!-- Node16&#45;&gt;Node18 -->
<g id="edge20" class="edge">
<title>Node16&#45;&gt;Node18</title>
<path fill="none" stroke="midnightblue" d="M562.99,-179.44C583.14,-170.6 614.82,-156.69 637.83,-146.59"/>
<polygon fill="midnightblue" stroke="midnightblue" points="639.35,-149.74 647.1,-142.52 636.54,-143.33 639.35,-149.74"/>
</g>
</g>
</svg>
