<?xml version="1.0" encoding="UTF-8" standalone="no"?>
<!DOCTYPE svg PUBLIC "-//W3C//DTD SVG 1.1//EN"
 "http://www.w3.org/Graphics/SVG/1.1/DTD/svg11.dtd">
<!-- Generated by graphviz version 2.43.0 (0)
 -->
<!-- Title: Libs/RayLib/sources/ModelAnimation/ModelAnimation.hpp Pages: 1 -->
<svg width="1154pt" height="442pt"
 viewBox="0.00 0.00 1153.50 442.00" xmlns="http://www.w3.org/2000/svg" xmlns:xlink="http://www.w3.org/1999/xlink">
<g id="graph0" class="graph" transform="scale(1 1) rotate(0) translate(4 438)">
<title>Libs/RayLib/sources/ModelAnimation/ModelAnimation.hpp</title>
<polygon fill="white" stroke="transparent" points="-4,4 -4,-438 1149.5,-438 1149.5,4 -4,4"/>
<!-- Node1 -->
<g id="node1" class="node">
<title>Node1</title>
<g id="a_node1"><a xlink:title=" ">
<polygon fill="#bfbfbf" stroke="black" points="941.5,-403.5 941.5,-433.5 1145.5,-433.5 1145.5,-403.5 941.5,-403.5"/>
<text text-anchor="start" x="949.5" y="-421.5" font-family="Helvetica,sans-Serif" font-size="10.00">Libs/RayLib/sources</text>
<text text-anchor="middle" x="1043.5" y="-410.5" font-family="Helvetica,sans-Serif" font-size="10.00">/ModelAnimation/ModelAnimation.hpp</text>
</a>
</g>
</g>
<!-- Node2 -->
<g id="node2" class="node">
<title>Node2</title>
<g id="a_node2"><a xlink:title=" ">
<polygon fill="white" stroke="#bfbfbf" points="482,-67.5 482,-86.5 535,-86.5 535,-67.5 482,-67.5"/>
<text text-anchor="middle" x="508.5" y="-74.5" font-family="Helvetica,sans-Serif" font-size="10.00">raylib.h</text>
</a>
</g>
</g>
<!-- Node1&#45;&gt;Node2 -->
<g id="edge1" class="edge">
<title>Node1&#45;&gt;Node2</title>
<path fill="none" stroke="midnightblue" d="M1060.75,-403.43C1083.17,-383.44 1119.5,-344.49 1119.5,-302 1119.5,-302 1119.5,-302 1119.5,-188 1119.5,-129.3 677.04,-90.85 545.16,-80.69"/>
<polygon fill="midnightblue" stroke="midnightblue" points="545.38,-77.2 535.15,-79.93 544.85,-84.18 545.38,-77.2"/>
</g>
<!-- Node3 -->
<g id="node3" class="node">
<title>Node3</title>
<g id="a_node3"><a xlink:title=" ">
<polygon fill="white" stroke="#bfbfbf" points="663.5,-179.5 663.5,-198.5 707.5,-198.5 707.5,-179.5 663.5,-179.5"/>
<text text-anchor="middle" x="685.5" y="-186.5" font-family="Helvetica,sans-Serif" font-size="10.00">string</text>
</a>
</g>
</g>
<!-- Node1&#45;&gt;Node3 -->
<g id="edge2" class="edge">
<title>Node1&#45;&gt;Node3</title>
<path fill="none" stroke="midnightblue" d="M1046.84,-403.37C1054.04,-369.01 1066.84,-280.56 1020.5,-235 978.22,-193.44 793.98,-189.45 718.22,-189.62"/>
<polygon fill="midnightblue" stroke="midnightblue" points="717.84,-186.12 707.86,-189.67 717.87,-193.12 717.84,-186.12"/>
</g>
<!-- Node4 -->
<g id="node4" class="node">
<title>Node4</title>
<g id="a_node4"><a xlink:title=" ">
<polygon fill="white" stroke="#bfbfbf" points="964,-235.5 964,-254.5 1011,-254.5 1011,-235.5 964,-235.5"/>
<text text-anchor="middle" x="987.5" y="-242.5" font-family="Helvetica,sans-Serif" font-size="10.00">vector</text>
</a>
</g>
</g>
<!-- Node1&#45;&gt;Node4 -->
<g id="edge3" class="edge">
<title>Node1&#45;&gt;Node4</title>
<path fill="none" stroke="midnightblue" d="M1038.92,-403.47C1028.83,-372.57 1004.7,-298.69 993.46,-264.25"/>
<polygon fill="midnightblue" stroke="midnightblue" points="996.73,-262.98 990.3,-254.56 990.07,-265.15 996.73,-262.98"/>
</g>
<!-- Node5 -->
<g id="node5" class="node">
<title>Node5</title>
<g id="a_node5"><a xlink:href="Model_8hpp.html" target="_top" xlink:title=" ">
<polygon fill="white" stroke="black" points="667.5,-347.5 667.5,-366.5 735.5,-366.5 735.5,-347.5 667.5,-347.5"/>
<text text-anchor="middle" x="701.5" y="-354.5" font-family="Helvetica,sans-Serif" font-size="10.00">Model.hpp</text>
</a>
</g>
</g>
<!-- Node1&#45;&gt;Node5 -->
<g id="edge4" class="edge">
<title>Node1&#45;&gt;Node5</title>
<path fill="none" stroke="midnightblue" d="M962.88,-403.47C894.98,-391.66 800.4,-375.21 745.59,-365.67"/>
<polygon fill="midnightblue" stroke="midnightblue" points="745.96,-362.18 735.51,-363.92 744.76,-369.08 745.96,-362.18"/>
</g>
<!-- Node21 -->
<g id="node21" class="node">
<title>Node21</title>
<g id="a_node21"><a xlink:href="IAsset_8hpp.html" target="_top" xlink:title=" ">
<polygon fill="white" stroke="black" points="801.5,-235.5 801.5,-254.5 869.5,-254.5 869.5,-235.5 801.5,-235.5"/>
<text text-anchor="middle" x="835.5" y="-242.5" font-family="Helvetica,sans-Serif" font-size="10.00">IAsset.hpp</text>
</a>
</g>
</g>
<!-- Node1&#45;&gt;Node21 -->
<g id="edge58" class="edge">
<title>Node1&#45;&gt;Node21</title>
<path fill="none" stroke="midnightblue" d="M1021.8,-403.46C992.46,-384.08 939.03,-347.39 897.5,-311 880.02,-295.68 861.87,-276.16 849.77,-262.53"/>
<polygon fill="midnightblue" stroke="midnightblue" points="852.29,-260.1 843.07,-254.89 847.03,-264.72 852.29,-260.1"/>
</g>
<!-- Node5&#45;&gt;Node2 -->
<g id="edge5" class="edge">
<title>Node5&#45;&gt;Node2</title>
<path fill="none" stroke="midnightblue" d="M735.76,-355.68C831.38,-353.5 1089.76,-338.14 1020.5,-235 965.82,-153.58 653.53,-99.73 545.37,-83.31"/>
<polygon fill="midnightblue" stroke="midnightblue" points="545.67,-79.81 535.26,-81.79 544.63,-86.73 545.67,-79.81"/>
</g>
<!-- Node5&#45;&gt;Node3 -->
<g id="edge6" class="edge">
<title>Node5&#45;&gt;Node3</title>
<path fill="none" stroke="midnightblue" d="M698.88,-347.47C696.25,-338.49 692.32,-323.9 690.5,-311 685.41,-275.04 684.91,-232.52 685.13,-208.66"/>
<polygon fill="midnightblue" stroke="midnightblue" points="688.63,-208.61 685.27,-198.56 681.63,-208.51 688.63,-208.61"/>
</g>
<!-- Node6 -->
<g id="node6" class="node">
<title>Node6</title>
<g id="a_node6"><a xlink:href="Vector3_8hpp.html" target="_top" xlink:title=" ">
<polygon fill="white" stroke="black" points="169.5,-123.5 169.5,-142.5 243.5,-142.5 243.5,-123.5 169.5,-123.5"/>
<text text-anchor="middle" x="206.5" y="-130.5" font-family="Helvetica,sans-Serif" font-size="10.00">Vector3.hpp</text>
</a>
</g>
</g>
<!-- Node5&#45;&gt;Node6 -->
<g id="edge7" class="edge">
<title>Node5&#45;&gt;Node6</title>
<path fill="none" stroke="midnightblue" d="M667.22,-355.81C553.04,-354.36 189.16,-342.8 123.5,-255 110.16,-237.16 126.71,-197.77 140.5,-179 150.31,-165.65 165.33,-154.96 178.57,-147.36"/>
<polygon fill="midnightblue" stroke="midnightblue" points="180.23,-150.43 187.36,-142.59 176.9,-144.28 180.23,-150.43"/>
</g>
<!-- Node14 -->
<g id="node14" class="node">
<title>Node14</title>
<g id="a_node14"><a xlink:href="Color_8hpp.html" target="_top" xlink:title=" ">
<polygon fill="white" stroke="black" points="375.5,-179.5 375.5,-198.5 437.5,-198.5 437.5,-179.5 375.5,-179.5"/>
<text text-anchor="middle" x="406.5" y="-186.5" font-family="Helvetica,sans-Serif" font-size="10.00">Color.hpp</text>
</a>
</g>
</g>
<!-- Node5&#45;&gt;Node14 -->
<g id="edge16" class="edge">
<title>Node5&#45;&gt;Node14</title>
<path fill="none" stroke="midnightblue" d="M667.37,-352.5C624.55,-347.28 549.47,-335.33 489.5,-311 446.19,-293.43 423.09,-295.91 400.5,-255 392.63,-240.75 395.48,-222.04 399.5,-208.35"/>
<polygon fill="midnightblue" stroke="midnightblue" points="402.9,-209.22 402.79,-198.63 396.26,-206.98 402.9,-209.22"/>
</g>
<!-- Node15 -->
<g id="node15" class="node">
<title>Node15</title>
<g id="a_node15"><a xlink:href="Texture_8hpp.html" target="_top" xlink:title=" ">
<polygon fill="white" stroke="black" points="498.5,-291.5 498.5,-310.5 572.5,-310.5 572.5,-291.5 498.5,-291.5"/>
<text text-anchor="middle" x="535.5" y="-298.5" font-family="Helvetica,sans-Serif" font-size="10.00">Texture.hpp</text>
</a>
</g>
</g>
<!-- Node5&#45;&gt;Node15 -->
<g id="edge19" class="edge">
<title>Node5&#45;&gt;Node15</title>
<path fill="none" stroke="midnightblue" d="M675.2,-347.44C647.15,-338.32 602.56,-323.81 571.32,-313.65"/>
<polygon fill="midnightblue" stroke="midnightblue" points="572.27,-310.28 561.68,-310.52 570.11,-316.94 572.27,-310.28"/>
</g>
<!-- Node22 -->
<g id="node22" class="node">
<title>Node22</title>
<g id="a_node22"><a xlink:href="Mesh_8hpp.html" target="_top" xlink:title=" ">
<polygon fill="white" stroke="black" points="699.5,-291.5 699.5,-310.5 763.5,-310.5 763.5,-291.5 699.5,-291.5"/>
<text text-anchor="middle" x="731.5" y="-298.5" font-family="Helvetica,sans-Serif" font-size="10.00">Mesh.hpp</text>
</a>
</g>
</g>
<!-- Node5&#45;&gt;Node22 -->
<g id="edge43" class="edge">
<title>Node5&#45;&gt;Node22</title>
<path fill="none" stroke="midnightblue" d="M706.45,-347.08C710.6,-339.61 716.65,-328.72 721.77,-319.52"/>
<polygon fill="midnightblue" stroke="midnightblue" points="724.84,-321.19 726.64,-310.75 718.72,-317.79 724.84,-321.19"/>
</g>
<!-- Node23 -->
<g id="node23" class="node">
<title>Node23</title>
<g id="a_node23"><a xlink:href="IDrawable_8hpp.html" target="_top" xlink:title=" ">
<polygon fill="white" stroke="black" points="240,-235.5 240,-254.5 327,-254.5 327,-235.5 240,-235.5"/>
<text text-anchor="middle" x="283.5" y="-242.5" font-family="Helvetica,sans-Serif" font-size="10.00">IDrawable.hpp</text>
</a>
</g>
</g>
<!-- Node5&#45;&gt;Node23 -->
<g id="edge48" class="edge">
<title>Node5&#45;&gt;Node23</title>
<path fill="none" stroke="midnightblue" d="M667.43,-354.77C588.93,-351.46 397.76,-340.53 341.5,-311 320.65,-300.06 303.71,-278.38 293.63,-263.08"/>
<polygon fill="midnightblue" stroke="midnightblue" points="296.55,-261.14 288.27,-254.53 290.62,-264.86 296.55,-261.14"/>
</g>
<!-- Node24 -->
<g id="node24" class="node">
<title>Node24</title>
<g id="a_node24"><a xlink:href="Shader_8hpp.html" target="_top" xlink:title=" ">
<polygon fill="white" stroke="black" points="906,-291.5 906,-310.5 977,-310.5 977,-291.5 906,-291.5"/>
<text text-anchor="middle" x="941.5" y="-298.5" font-family="Helvetica,sans-Serif" font-size="10.00">Shader.hpp</text>
</a>
</g>
</g>
<!-- Node5&#45;&gt;Node24 -->
<g id="edge52" class="edge">
<title>Node5&#45;&gt;Node24</title>
<path fill="none" stroke="midnightblue" d="M735.63,-348.32C777.71,-338.85 849.37,-322.73 896.07,-312.22"/>
<polygon fill="midnightblue" stroke="midnightblue" points="896.93,-315.61 905.92,-310.01 895.4,-308.79 896.93,-315.61"/>
</g>
<!-- Node25 -->
<g id="node25" class="node">
<title>Node25</title>
<g id="a_node25"><a xlink:title=" ">
<polygon fill="white" stroke="#bfbfbf" points="782,-291.5 782,-310.5 849,-310.5 849,-291.5 782,-291.5"/>
<text text-anchor="middle" x="815.5" y="-298.5" font-family="Helvetica,sans-Serif" font-size="10.00">raymath.h</text>
</a>
</g>
</g>
<!-- Node5&#45;&gt;Node25 -->
<g id="edge57" class="edge">
<title>Node5&#45;&gt;Node25</title>
<path fill="none" stroke="midnightblue" d="M719.56,-347.44C738.07,-338.68 767.08,-324.94 788.36,-314.86"/>
<polygon fill="midnightblue" stroke="midnightblue" points="789.98,-317.96 797.52,-310.52 786.99,-311.63 789.98,-317.96"/>
</g>
<!-- Node6&#45;&gt;Node2 -->
<g id="edge8" class="edge">
<title>Node6&#45;&gt;Node2</title>
<path fill="none" stroke="midnightblue" d="M243.53,-125.38C301.66,-114.99 413.64,-94.96 471.65,-84.59"/>
<polygon fill="midnightblue" stroke="midnightblue" points="472.6,-87.97 481.83,-82.77 471.37,-81.08 472.6,-87.97"/>
</g>
<!-- Node7 -->
<g id="node7" class="node">
<title>Node7</title>
<g id="a_node7"><a xlink:href="IXMLSerializable_8hpp.html" target="_top" xlink:title=" ">
<polygon fill="white" stroke="black" points="98,-67.5 98,-86.5 217,-86.5 217,-67.5 98,-67.5"/>
<text text-anchor="middle" x="157.5" y="-74.5" font-family="Helvetica,sans-Serif" font-size="10.00">IXMLSerializable.hpp</text>
</a>
</g>
</g>
<!-- Node6&#45;&gt;Node7 -->
<g id="edge9" class="edge">
<title>Node6&#45;&gt;Node7</title>
<path fill="none" stroke="midnightblue" d="M198.41,-123.08C191.34,-115.3 180.91,-103.8 172.35,-94.37"/>
<polygon fill="midnightblue" stroke="midnightblue" points="174.75,-91.8 165.44,-86.75 169.57,-96.51 174.75,-91.8"/>
</g>
<!-- Node12 -->
<g id="node12" class="node">
<title>Node12</title>
<g id="a_node12"><a xlink:title=" ">
<polygon fill="white" stroke="#bfbfbf" points="33,-67.5 33,-86.5 80,-86.5 80,-67.5 33,-67.5"/>
<text text-anchor="middle" x="56.5" y="-74.5" font-family="Helvetica,sans-Serif" font-size="10.00">cmath</text>
</a>
</g>
</g>
<!-- Node6&#45;&gt;Node12 -->
<g id="edge14" class="edge">
<title>Node6&#45;&gt;Node12</title>
<path fill="none" stroke="midnightblue" d="M182.73,-123.44C157.61,-114.4 117.79,-100.06 89.6,-89.92"/>
<polygon fill="midnightblue" stroke="midnightblue" points="90.75,-86.61 80.16,-86.52 88.38,-93.2 90.75,-86.61"/>
</g>
<!-- Node13 -->
<g id="node13" class="node">
<title>Node13</title>
<g id="a_node13"><a xlink:title=" ">
<polygon fill="white" stroke="#bfbfbf" points="235.5,-67.5 235.5,-86.5 291.5,-86.5 291.5,-67.5 235.5,-67.5"/>
<text text-anchor="middle" x="263.5" y="-74.5" font-family="Helvetica,sans-Serif" font-size="10.00">sstream</text>
</a>
</g>
</g>
<!-- Node6&#45;&gt;Node13 -->
<g id="edge15" class="edge">
<title>Node6&#45;&gt;Node13</title>
<path fill="none" stroke="midnightblue" d="M215.66,-123.32C224,-115.42 236.53,-103.55 246.68,-93.94"/>
<polygon fill="midnightblue" stroke="midnightblue" points="249.32,-96.25 254.18,-86.83 244.51,-91.17 249.32,-96.25"/>
</g>
<!-- Node8 -->
<g id="node8" class="node">
<title>Node8</title>
<g id="a_node8"><a xlink:title=" ">
<polygon fill="white" stroke="#bfbfbf" points="0,-6 0,-25 57,-25 57,-6 0,-6"/>
<text text-anchor="middle" x="28.5" y="-13" font-family="Helvetica,sans-Serif" font-size="10.00">ostream</text>
</a>
</g>
</g>
<!-- Node7&#45;&gt;Node8 -->
<g id="edge10" class="edge">
<title>Node7&#45;&gt;Node8</title>
<path fill="none" stroke="midnightblue" d="M139.02,-67.48C117.37,-57.49 81.29,-40.85 56.27,-29.31"/>
<polygon fill="midnightblue" stroke="midnightblue" points="57.49,-26.02 46.95,-25.01 54.56,-32.38 57.49,-26.02"/>
</g>
<!-- Node9 -->
<g id="node9" class="node">
<title>Node9</title>
<g id="a_node9"><a xlink:title=" ">
<polygon fill="white" stroke="#bfbfbf" points="75.5,-6 75.5,-25 135.5,-25 135.5,-6 75.5,-6"/>
<text text-anchor="middle" x="105.5" y="-13" font-family="Helvetica,sans-Serif" font-size="10.00">iostream</text>
</a>
</g>
</g>
<!-- Node7&#45;&gt;Node9 -->
<g id="edge11" class="edge">
<title>Node7&#45;&gt;Node9</title>
<path fill="none" stroke="midnightblue" d="M150.05,-67.48C142.17,-58.46 129.56,-44.02 119.76,-32.81"/>
<polygon fill="midnightblue" stroke="midnightblue" points="122.15,-30.24 112.94,-25.01 116.88,-34.84 122.15,-30.24"/>
</g>
<!-- Node10 -->
<g id="node10" class="node">
<title>Node10</title>
<g id="a_node10"><a xlink:title=" ">
<polygon fill="white" stroke="#bfbfbf" points="154,-0.5 154,-30.5 267,-30.5 267,-0.5 154,-0.5"/>
<text text-anchor="start" x="162" y="-18.5" font-family="Helvetica,sans-Serif" font-size="10.00">boost/property_tree</text>
<text text-anchor="middle" x="210.5" y="-7.5" font-family="Helvetica,sans-Serif" font-size="10.00">/ptree.hpp</text>
</a>
</g>
</g>
<!-- Node7&#45;&gt;Node10 -->
<g id="edge12" class="edge">
<title>Node7&#45;&gt;Node10</title>
<path fill="none" stroke="midnightblue" d="M165.09,-67.48C171.87,-59.87 182.09,-48.4 191.11,-38.26"/>
<polygon fill="midnightblue" stroke="midnightblue" points="193.97,-40.32 198.01,-30.52 188.74,-35.66 193.97,-40.32"/>
</g>
<!-- Node11 -->
<g id="node11" class="node">
<title>Node11</title>
<g id="a_node11"><a xlink:title=" ">
<polygon fill="white" stroke="#bfbfbf" points="285,-0.5 285,-30.5 398,-30.5 398,-0.5 285,-0.5"/>
<text text-anchor="start" x="293" y="-18.5" font-family="Helvetica,sans-Serif" font-size="10.00">boost/property_tree</text>
<text text-anchor="middle" x="341.5" y="-7.5" font-family="Helvetica,sans-Serif" font-size="10.00">/xml_parser.hpp</text>
</a>
</g>
</g>
<!-- Node7&#45;&gt;Node11 -->
<g id="edge13" class="edge">
<title>Node7&#45;&gt;Node11</title>
<path fill="none" stroke="midnightblue" d="M183.86,-67.48C211,-58.7 254.02,-44.79 288.27,-33.71"/>
<polygon fill="midnightblue" stroke="midnightblue" points="289.7,-36.93 298.13,-30.52 287.54,-30.27 289.7,-36.93"/>
</g>
<!-- Node14&#45;&gt;Node2 -->
<g id="edge17" class="edge">
<title>Node14&#45;&gt;Node2</title>
<path fill="none" stroke="midnightblue" d="M414.5,-179.37C431.56,-160.97 471.71,-117.67 493.62,-94.05"/>
<polygon fill="midnightblue" stroke="midnightblue" points="496.3,-96.3 500.53,-86.59 491.17,-91.54 496.3,-96.3"/>
</g>
<!-- Node14&#45;&gt;Node6 -->
<g id="edge18" class="edge">
<title>Node14&#45;&gt;Node6</title>
<path fill="none" stroke="midnightblue" d="M375.25,-179.56C340.96,-170.3 285.77,-155.4 247.9,-145.18"/>
<polygon fill="midnightblue" stroke="midnightblue" points="248.76,-141.78 238.19,-142.56 246.93,-148.54 248.76,-141.78"/>
</g>
<!-- Node15&#45;&gt;Node2 -->
<g id="edge20" class="edge">
<title>Node15&#45;&gt;Node2</title>
<path fill="none" stroke="midnightblue" d="M534.44,-291.3C530.47,-258.63 516.39,-142.87 510.81,-96.96"/>
<polygon fill="midnightblue" stroke="midnightblue" points="514.26,-96.39 509.58,-86.88 507.31,-97.23 514.26,-96.39"/>
</g>
<!-- Node15&#45;&gt;Node3 -->
<g id="edge21" class="edge">
<title>Node15&#45;&gt;Node3</title>
<path fill="none" stroke="midnightblue" d="M567.39,-291.48C589.61,-284.38 619,-272.57 640.5,-255 656.39,-242.02 669.07,-222.03 676.87,-207.65"/>
<polygon fill="midnightblue" stroke="midnightblue" points="679.99,-209.23 681.46,-198.74 673.77,-206.02 679.99,-209.23"/>
</g>
<!-- Node15&#45;&gt;Node14 -->
<g id="edge31" class="edge">
<title>Node15&#45;&gt;Node14</title>
<path fill="none" stroke="midnightblue" d="M498.39,-296.83C470.16,-292.32 432.82,-281.4 412.5,-255 402.46,-241.96 401.88,-222.81 403.26,-208.66"/>
<polygon fill="midnightblue" stroke="midnightblue" points="406.75,-208.99 404.64,-198.61 399.81,-208.04 406.75,-208.99"/>
</g>
<!-- Node16 -->
<g id="node16" class="node">
<title>Node16</title>
<g id="a_node16"><a xlink:href="Image_8hpp.html" target="_top" xlink:title=" ">
<polygon fill="white" stroke="black" points="563.5,-235.5 563.5,-254.5 631.5,-254.5 631.5,-235.5 563.5,-235.5"/>
<text text-anchor="middle" x="597.5" y="-242.5" font-family="Helvetica,sans-Serif" font-size="10.00">Image.hpp</text>
</a>
</g>
</g>
<!-- Node15&#45;&gt;Node16 -->
<g id="edge22" class="edge">
<title>Node15&#45;&gt;Node16</title>
<path fill="none" stroke="midnightblue" d="M545.46,-291.32C554.63,-283.34 568.44,-271.31 579.53,-261.65"/>
<polygon fill="midnightblue" stroke="midnightblue" points="582.12,-264.04 587.36,-254.83 577.52,-258.76 582.12,-264.04"/>
</g>
<!-- Node17 -->
<g id="node17" class="node">
<title>Node17</title>
<g id="a_node17"><a xlink:href="Vector2_8hpp.html" target="_top" xlink:title=" ">
<polygon fill="white" stroke="black" points="19.5,-179.5 19.5,-198.5 93.5,-198.5 93.5,-179.5 19.5,-179.5"/>
<text text-anchor="middle" x="56.5" y="-186.5" font-family="Helvetica,sans-Serif" font-size="10.00">Vector2.hpp</text>
</a>
</g>
</g>
<!-- Node15&#45;&gt;Node17 -->
<g id="edge32" class="edge">
<title>Node15&#45;&gt;Node17</title>
<path fill="none" stroke="midnightblue" d="M498.33,-299.01C409.93,-296.16 189.59,-286.08 123.5,-255 100.45,-244.16 80.45,-222.14 68.44,-206.74"/>
<polygon fill="midnightblue" stroke="midnightblue" points="71.13,-204.49 62.33,-198.58 65.52,-208.68 71.13,-204.49"/>
</g>
<!-- Node18 -->
<g id="node18" class="node">
<title>Node18</title>
<g id="a_node18"><a xlink:href="Camera3D_8hpp.html" target="_top" xlink:title=" ">
<polygon fill="white" stroke="black" points="133,-235.5 133,-254.5 222,-254.5 222,-235.5 133,-235.5"/>
<text text-anchor="middle" x="177.5" y="-242.5" font-family="Helvetica,sans-Serif" font-size="10.00">Camera3D.hpp</text>
</a>
</g>
</g>
<!-- Node15&#45;&gt;Node18 -->
<g id="edge33" class="edge">
<title>Node15&#45;&gt;Node18</title>
<path fill="none" stroke="midnightblue" d="M498.37,-294.79C442.76,-286.92 334.26,-271.35 232.19,-255.24"/>
<polygon fill="midnightblue" stroke="midnightblue" points="232.45,-251.74 222.02,-253.63 231.35,-258.65 232.45,-251.74"/>
</g>
<!-- Node20 -->
<g id="node20" class="node">
<title>Node20</title>
<g id="a_node20"><a xlink:href="Rectangle_8hpp.html" target="_top" xlink:title=" ">
<polygon fill="white" stroke="black" points="421.5,-235.5 421.5,-254.5 507.5,-254.5 507.5,-235.5 421.5,-235.5"/>
<text text-anchor="middle" x="464.5" y="-242.5" font-family="Helvetica,sans-Serif" font-size="10.00">Rectangle.hpp</text>
</a>
</g>
</g>
<!-- Node15&#45;&gt;Node20 -->
<g id="edge39" class="edge">
<title>Node15&#45;&gt;Node20</title>
<path fill="none" stroke="midnightblue" d="M524.09,-291.32C513.39,-283.18 497.16,-270.84 484.34,-261.09"/>
<polygon fill="midnightblue" stroke="midnightblue" points="486.19,-258.1 476.11,-254.83 481.96,-263.67 486.19,-258.1"/>
</g>
<!-- Node15&#45;&gt;Node21 -->
<g id="edge42" class="edge">
<title>Node15&#45;&gt;Node21</title>
<path fill="none" stroke="midnightblue" d="M572.59,-293.32C627.9,-283.37 731.82,-264.66 791.1,-253.99"/>
<polygon fill="midnightblue" stroke="midnightblue" points="792.05,-257.38 801.27,-252.16 790.81,-250.49 792.05,-257.38"/>
</g>
<!-- Node16&#45;&gt;Node2 -->
<g id="edge24" class="edge">
<title>Node16&#45;&gt;Node2</title>
<path fill="none" stroke="midnightblue" d="M595.22,-235.29C589.59,-214.67 573.68,-161.72 549.5,-123 542.87,-112.38 533.59,-101.95 525.54,-93.81"/>
<polygon fill="midnightblue" stroke="midnightblue" points="527.64,-90.97 518.04,-86.51 522.76,-95.99 527.64,-90.97"/>
</g>
<!-- Node16&#45;&gt;Node3 -->
<g id="edge23" class="edge">
<title>Node16&#45;&gt;Node3</title>
<path fill="none" stroke="midnightblue" d="M611.64,-235.32C625.37,-226.9 646.44,-213.97 662.56,-204.07"/>
<polygon fill="midnightblue" stroke="midnightblue" points="664.7,-206.87 671.4,-198.65 661.04,-200.9 664.7,-206.87"/>
</g>
<!-- Node16&#45;&gt;Node14 -->
<g id="edge25" class="edge">
<title>Node16&#45;&gt;Node14</title>
<path fill="none" stroke="midnightblue" d="M567.24,-235.44C534.54,-226.2 482.32,-211.44 446.32,-201.26"/>
<polygon fill="midnightblue" stroke="midnightblue" points="447.2,-197.87 436.62,-198.52 445.29,-204.61 447.2,-197.87"/>
</g>
<!-- Node16&#45;&gt;Node17 -->
<g id="edge26" class="edge">
<title>Node16&#45;&gt;Node17</title>
<path fill="none" stroke="midnightblue" d="M563.22,-240.07C548.8,-238.45 531.84,-236.59 516.5,-235 349.52,-217.73 307.52,-215.94 140.5,-199 128.65,-197.8 115.86,-196.45 103.93,-195.18"/>
<polygon fill="midnightblue" stroke="midnightblue" points="104.02,-191.67 93.71,-194.08 103.28,-198.63 104.02,-191.67"/>
</g>
<!-- Node17&#45;&gt;Node2 -->
<g id="edge27" class="edge">
<title>Node17&#45;&gt;Node2</title>
<path fill="none" stroke="midnightblue" d="M68.78,-179.39C91.87,-163.35 141.15,-129.92 160.5,-123 268.9,-84.22 406.9,-78.17 471.72,-77.66"/>
<polygon fill="midnightblue" stroke="midnightblue" points="471.86,-81.16 481.85,-77.63 471.84,-74.16 471.86,-81.16"/>
</g>
<!-- Node17&#45;&gt;Node6 -->
<g id="edge29" class="edge">
<title>Node17&#45;&gt;Node6</title>
<path fill="none" stroke="midnightblue" d="M80.27,-179.44C105.39,-170.4 145.21,-156.06 173.4,-145.92"/>
<polygon fill="midnightblue" stroke="midnightblue" points="174.62,-149.2 182.84,-142.52 172.25,-142.61 174.62,-149.2"/>
</g>
<!-- Node17&#45;&gt;Node7 -->
<g id="edge30" class="edge">
<title>Node17&#45;&gt;Node7</title>
<path fill="none" stroke="midnightblue" d="M64.43,-179.37C81.31,-160.97 121.07,-117.67 142.76,-94.05"/>
<polygon fill="midnightblue" stroke="midnightblue" points="145.43,-96.32 149.61,-86.59 140.27,-91.59 145.43,-96.32"/>
</g>
<!-- Node17&#45;&gt;Node12 -->
<g id="edge28" class="edge">
<title>Node17&#45;&gt;Node12</title>
<path fill="none" stroke="midnightblue" d="M56.5,-179.37C56.5,-161.62 56.5,-120.67 56.5,-96.6"/>
<polygon fill="midnightblue" stroke="midnightblue" points="60,-96.59 56.5,-86.59 53,-96.59 60,-96.59"/>
</g>
<!-- Node18&#45;&gt;Node2 -->
<g id="edge34" class="edge">
<title>Node18&#45;&gt;Node2</title>
<path fill="none" stroke="midnightblue" d="M193.72,-235.46C231.86,-215.43 330.29,-164.03 413.5,-123 435.94,-111.94 461.59,-99.82 480.58,-90.94"/>
<polygon fill="midnightblue" stroke="midnightblue" points="482.26,-94.02 489.85,-86.62 479.31,-87.68 482.26,-94.02"/>
</g>
<!-- Node18&#45;&gt;Node6 -->
<g id="edge36" class="edge">
<title>Node18&#45;&gt;Node6</title>
<path fill="none" stroke="midnightblue" d="M187.66,-235.19C196.41,-226.87 208.4,-213.54 213.5,-199 218.78,-183.94 216.15,-165.81 212.7,-152.53"/>
<polygon fill="midnightblue" stroke="midnightblue" points="215.98,-151.27 209.77,-142.69 209.27,-153.27 215.98,-151.27"/>
</g>
<!-- Node18&#45;&gt;Node17 -->
<g id="edge35" class="edge">
<title>Node18&#45;&gt;Node17</title>
<path fill="none" stroke="midnightblue" d="M158.33,-235.44C138.59,-226.64 107.61,-212.81 85.01,-202.72"/>
<polygon fill="midnightblue" stroke="midnightblue" points="86.14,-199.4 75.58,-198.52 83.29,-205.79 86.14,-199.4"/>
</g>
<!-- Node19 -->
<g id="node19" class="node">
<title>Node19</title>
<g id="a_node19"><a xlink:href="Ray_8hpp.html" target="_top" xlink:title=" ">
<polygon fill="white" stroke="black" points="150,-179.5 150,-198.5 205,-198.5 205,-179.5 150,-179.5"/>
<text text-anchor="middle" x="177.5" y="-186.5" font-family="Helvetica,sans-Serif" font-size="10.00">Ray.hpp</text>
</a>
</g>
</g>
<!-- Node18&#45;&gt;Node19 -->
<g id="edge37" class="edge">
<title>Node18&#45;&gt;Node19</title>
<path fill="none" stroke="midnightblue" d="M177.5,-235.08C177.5,-228.01 177.5,-217.86 177.5,-208.99"/>
<polygon fill="midnightblue" stroke="midnightblue" points="181,-208.75 177.5,-198.75 174,-208.75 181,-208.75"/>
</g>
<!-- Node19&#45;&gt;Node6 -->
<g id="edge38" class="edge">
<title>Node19&#45;&gt;Node6</title>
<path fill="none" stroke="midnightblue" d="M182.29,-179.08C186.26,-171.69 192.03,-160.95 196.93,-151.81"/>
<polygon fill="midnightblue" stroke="midnightblue" points="200.15,-153.22 201.8,-142.75 193.99,-149.91 200.15,-153.22"/>
</g>
<!-- Node20&#45;&gt;Node2 -->
<g id="edge40" class="edge">
<title>Node20&#45;&gt;Node2</title>
<path fill="none" stroke="midnightblue" d="M466.87,-235.08C473.79,-208.95 494.13,-132.21 503.58,-96.58"/>
<polygon fill="midnightblue" stroke="midnightblue" points="507.05,-97.13 506.23,-86.57 500.28,-95.34 507.05,-97.13"/>
</g>
<!-- Node20&#45;&gt;Node14 -->
<g id="edge41" class="edge">
<title>Node20&#45;&gt;Node14</title>
<path fill="none" stroke="midnightblue" d="M455.18,-235.32C446.61,-227.34 433.69,-215.31 423.31,-205.65"/>
<polygon fill="midnightblue" stroke="midnightblue" points="425.69,-203.09 415.99,-198.83 420.92,-208.21 425.69,-203.09"/>
</g>
<!-- Node22&#45;&gt;Node2 -->
<g id="edge44" class="edge">
<title>Node22&#45;&gt;Node2</title>
<path fill="none" stroke="midnightblue" d="M736.88,-291.44C742.06,-282.68 749.51,-268.47 752.5,-255 759.98,-221.3 759.16,-205.04 736.5,-179 685.85,-120.79 595.22,-94.68 544.82,-84.18"/>
<polygon fill="midnightblue" stroke="midnightblue" points="545.5,-80.75 535.01,-82.23 544.13,-87.62 545.5,-80.75"/>
</g>
<!-- Node22&#45;&gt;Node6 -->
<g id="edge46" class="edge">
<title>Node22&#45;&gt;Node6</title>
<path fill="none" stroke="midnightblue" d="M733.6,-291.42C738.47,-269.18 747.87,-209.28 716.5,-179 683.6,-147.24 374.03,-137.46 253.87,-134.85"/>
<polygon fill="midnightblue" stroke="midnightblue" points="253.59,-131.34 243.52,-134.63 253.44,-138.34 253.59,-131.34"/>
</g>
<!-- Node22&#45;&gt;Node16 -->
<g id="edge45" class="edge">
<title>Node22&#45;&gt;Node16</title>
<path fill="none" stroke="midnightblue" d="M710.27,-291.44C688.12,-282.52 653.18,-268.44 628.06,-258.32"/>
<polygon fill="midnightblue" stroke="midnightblue" points="629.22,-255.01 618.63,-254.52 626.6,-261.5 629.22,-255.01"/>
</g>
<!-- Node22&#45;&gt;Node21 -->
<g id="edge47" class="edge">
<title>Node22&#45;&gt;Node21</title>
<path fill="none" stroke="midnightblue" d="M748.21,-291.32C764.81,-282.7 790.5,-269.36 809.72,-259.39"/>
<polygon fill="midnightblue" stroke="midnightblue" points="811.57,-262.37 818.83,-254.65 808.34,-256.16 811.57,-262.37"/>
</g>
<!-- Node23&#45;&gt;Node2 -->
<g id="edge49" class="edge">
<title>Node23&#45;&gt;Node2</title>
<path fill="none" stroke="midnightblue" d="M294.13,-235.44C309.82,-222.87 340.14,-198.77 366.5,-179 400.64,-153.39 409.71,-147.72 444.5,-123 458.93,-112.74 475.26,-101.26 487.81,-92.47"/>
<polygon fill="midnightblue" stroke="midnightblue" points="490.02,-95.19 496.21,-86.59 486.01,-89.46 490.02,-95.19"/>
</g>
<!-- Node23&#45;&gt;Node6 -->
<g id="edge50" class="edge">
<title>Node23&#45;&gt;Node6</title>
<path fill="none" stroke="midnightblue" d="M277.46,-235.37C264.75,-217.22 235.06,-174.8 218.39,-150.99"/>
<polygon fill="midnightblue" stroke="midnightblue" points="221.12,-148.78 212.51,-142.59 215.38,-152.79 221.12,-148.78"/>
</g>
<!-- Node23&#45;&gt;Node14 -->
<g id="edge51" class="edge">
<title>Node23&#45;&gt;Node14</title>
<path fill="none" stroke="midnightblue" d="M302.99,-235.44C323.14,-226.6 354.82,-212.69 377.83,-202.59"/>
<polygon fill="midnightblue" stroke="midnightblue" points="379.35,-205.74 387.1,-198.52 376.54,-199.33 379.35,-205.74"/>
</g>
<!-- Node24&#45;&gt;Node2 -->
<g id="edge55" class="edge">
<title>Node24&#45;&gt;Node2</title>
<path fill="none" stroke="midnightblue" d="M938.44,-291.41C933.27,-277.92 921.67,-251.61 904.5,-235 799.78,-133.72 621.75,-95.35 545.24,-83.04"/>
<polygon fill="midnightblue" stroke="midnightblue" points="545.55,-79.54 535.13,-81.47 544.48,-86.46 545.55,-79.54"/>
</g>
<!-- Node24&#45;&gt;Node3 -->
<g id="edge54" class="edge">
<title>Node24&#45;&gt;Node3</title>
<path fill="none" stroke="midnightblue" d="M935.65,-291.31C925.67,-277.19 903.94,-249.4 878.5,-235 826.96,-205.83 757.48,-195.54 717.48,-191.93"/>
<polygon fill="midnightblue" stroke="midnightblue" points="717.75,-188.44 707.5,-191.12 717.18,-195.42 717.75,-188.44"/>
</g>
<!-- Node24&#45;&gt;Node4 -->
<g id="edge56" class="edge">
<title>Node24&#45;&gt;Node4</title>
<path fill="none" stroke="midnightblue" d="M949.1,-291.08C955.73,-283.3 965.52,-271.8 973.56,-262.37"/>
<polygon fill="midnightblue" stroke="midnightblue" points="976.23,-264.63 980.05,-254.75 970.9,-260.09 976.23,-264.63"/>
</g>
<!-- Node24&#45;&gt;Node21 -->
<g id="edge53" class="edge">
<title>Node24&#45;&gt;Node21</title>
<path fill="none" stroke="midnightblue" d="M924.47,-291.32C907.47,-282.66 881.12,-269.24 861.51,-259.25"/>
<polygon fill="midnightblue" stroke="midnightblue" points="862.99,-256.08 852.49,-254.65 859.81,-262.31 862.99,-256.08"/>
</g>
</g>
</svg>
