<?xml version="1.0" encoding="UTF-8" standalone="no"?>
<!DOCTYPE svg PUBLIC "-//W3C//DTD SVG 1.1//EN"
 "http://www.w3.org/Graphics/SVG/1.1/DTD/svg11.dtd">
<!-- Generated by graphviz version 2.43.0 (0)
 -->
<!-- Title: Libs/RayLib/sources/Mouse/Mouse.cpp Pages: 1 -->
<svg width="454pt" height="330pt"
 viewBox="0.00 0.00 454.00 330.00" xmlns="http://www.w3.org/2000/svg" xmlns:xlink="http://www.w3.org/1999/xlink">
<g id="graph0" class="graph" transform="scale(1 1) rotate(0) translate(4 326)">
<title>Libs/RayLib/sources/Mouse/Mouse.cpp</title>
<polygon fill="white" stroke="transparent" points="-4,4 -4,-326 450,-326 450,4 -4,4"/>
<!-- Node1 -->
<g id="node1" class="node">
<title>Node1</title>
<g id="a_node1"><a xlink:title=" ">
<polygon fill="#bfbfbf" stroke="black" points="45,-291.5 45,-321.5 158,-321.5 158,-291.5 45,-291.5"/>
<text text-anchor="start" x="53" y="-309.5" font-family="Helvetica,sans-Serif" font-size="10.00">Libs/RayLib/sources</text>
<text text-anchor="middle" x="101.5" y="-298.5" font-family="Helvetica,sans-Serif" font-size="10.00">/Mouse/Mouse.cpp</text>
</a>
</g>
</g>
<!-- Node2 -->
<g id="node2" class="node">
<title>Node2</title>
<g id="a_node2"><a xlink:href="Mouse_8hpp.html" target="_top" xlink:title=" ">
<polygon fill="white" stroke="black" points="66.5,-235.5 66.5,-254.5 136.5,-254.5 136.5,-235.5 66.5,-235.5"/>
<text text-anchor="middle" x="101.5" y="-242.5" font-family="Helvetica,sans-Serif" font-size="10.00">Mouse.hpp</text>
</a>
</g>
</g>
<!-- Node1&#45;&gt;Node2 -->
<g id="edge1" class="edge">
<title>Node1&#45;&gt;Node2</title>
<path fill="none" stroke="midnightblue" d="M101.5,-291.4C101.5,-283.47 101.5,-273.46 101.5,-264.86"/>
<polygon fill="midnightblue" stroke="midnightblue" points="105,-264.66 101.5,-254.66 98,-264.66 105,-264.66"/>
</g>
<!-- Node3 -->
<g id="node3" class="node">
<title>Node3</title>
<g id="a_node3"><a xlink:title=" ">
<polygon fill="white" stroke="#bfbfbf" points="0,-67.5 0,-86.5 53,-86.5 53,-67.5 0,-67.5"/>
<text text-anchor="middle" x="26.5" y="-74.5" font-family="Helvetica,sans-Serif" font-size="10.00">raylib.h</text>
</a>
</g>
</g>
<!-- Node2&#45;&gt;Node3 -->
<g id="edge2" class="edge">
<title>Node2&#45;&gt;Node3</title>
<path fill="none" stroke="midnightblue" d="M92.73,-235.44C84.42,-226.9 72.11,-213.05 64.5,-199 46.22,-165.23 35.21,-121.32 30.05,-96.76"/>
<polygon fill="midnightblue" stroke="midnightblue" points="33.42,-95.78 28.03,-86.66 26.56,-97.15 33.42,-95.78"/>
</g>
<!-- Node4 -->
<g id="node4" class="node">
<title>Node4</title>
<g id="a_node4"><a xlink:href="Vector2_8hpp.html" target="_top" xlink:title=" ">
<polygon fill="white" stroke="black" points="147.5,-179.5 147.5,-198.5 221.5,-198.5 221.5,-179.5 147.5,-179.5"/>
<text text-anchor="middle" x="184.5" y="-186.5" font-family="Helvetica,sans-Serif" font-size="10.00">Vector2.hpp</text>
</a>
</g>
</g>
<!-- Node2&#45;&gt;Node4 -->
<g id="edge3" class="edge">
<title>Node2&#45;&gt;Node4</title>
<path fill="none" stroke="midnightblue" d="M114.84,-235.32C127.66,-226.98 147.28,-214.21 162.44,-204.35"/>
<polygon fill="midnightblue" stroke="midnightblue" points="164.72,-207.04 171.2,-198.65 160.91,-201.17 164.72,-207.04"/>
</g>
<!-- Node13 -->
<g id="node13" class="node">
<title>Node13</title>
<g id="a_node13"><a xlink:href="Ray_8hpp.html" target="_top" xlink:title=" ">
<polygon fill="white" stroke="black" points="74,-179.5 74,-198.5 129,-198.5 129,-179.5 74,-179.5"/>
<text text-anchor="middle" x="101.5" y="-186.5" font-family="Helvetica,sans-Serif" font-size="10.00">Ray.hpp</text>
</a>
</g>
</g>
<!-- Node2&#45;&gt;Node13 -->
<g id="edge16" class="edge">
<title>Node2&#45;&gt;Node13</title>
<path fill="none" stroke="midnightblue" d="M101.5,-235.08C101.5,-228.01 101.5,-217.86 101.5,-208.99"/>
<polygon fill="midnightblue" stroke="midnightblue" points="105,-208.75 101.5,-198.75 98,-208.75 105,-208.75"/>
</g>
<!-- Node4&#45;&gt;Node3 -->
<g id="edge4" class="edge">
<title>Node4&#45;&gt;Node3</title>
<path fill="none" stroke="midnightblue" d="M162.2,-179.49C142.85,-171.56 114.55,-158.62 92.5,-143 72.72,-128.99 53.35,-108.95 40.77,-94.83"/>
<polygon fill="midnightblue" stroke="midnightblue" points="43.08,-92.15 33.87,-86.91 37.8,-96.75 43.08,-92.15"/>
</g>
<!-- Node5 -->
<g id="node5" class="node">
<title>Node5</title>
<g id="a_node5"><a xlink:title=" ">
<polygon fill="white" stroke="#bfbfbf" points="283,-67.5 283,-86.5 330,-86.5 330,-67.5 283,-67.5"/>
<text text-anchor="middle" x="306.5" y="-74.5" font-family="Helvetica,sans-Serif" font-size="10.00">cmath</text>
</a>
</g>
</g>
<!-- Node4&#45;&gt;Node5 -->
<g id="edge5" class="edge">
<title>Node4&#45;&gt;Node5</title>
<path fill="none" stroke="midnightblue" d="M194.07,-179.37C214.65,-160.81 263.34,-116.91 289.38,-93.44"/>
<polygon fill="midnightblue" stroke="midnightblue" points="291.89,-95.89 296.97,-86.59 287.2,-90.69 291.89,-95.89"/>
</g>
<!-- Node6 -->
<g id="node6" class="node">
<title>Node6</title>
<g id="a_node6"><a xlink:href="Vector3_8hpp.html" target="_top" xlink:title=" ">
<polygon fill="white" stroke="black" points="101.5,-123.5 101.5,-142.5 175.5,-142.5 175.5,-123.5 101.5,-123.5"/>
<text text-anchor="middle" x="138.5" y="-130.5" font-family="Helvetica,sans-Serif" font-size="10.00">Vector3.hpp</text>
</a>
</g>
</g>
<!-- Node4&#45;&gt;Node6 -->
<g id="edge6" class="edge">
<title>Node4&#45;&gt;Node6</title>
<path fill="none" stroke="midnightblue" d="M176.9,-179.08C170.27,-171.3 160.48,-159.8 152.44,-150.37"/>
<polygon fill="midnightblue" stroke="midnightblue" points="155.1,-148.09 145.95,-142.75 149.77,-152.63 155.1,-148.09"/>
</g>
<!-- Node7 -->
<g id="node7" class="node">
<title>Node7</title>
<g id="a_node7"><a xlink:href="IXMLSerializable_8hpp.html" target="_top" xlink:title=" ">
<polygon fill="white" stroke="black" points="146,-67.5 146,-86.5 265,-86.5 265,-67.5 146,-67.5"/>
<text text-anchor="middle" x="205.5" y="-74.5" font-family="Helvetica,sans-Serif" font-size="10.00">IXMLSerializable.hpp</text>
</a>
</g>
</g>
<!-- Node4&#45;&gt;Node7 -->
<g id="edge15" class="edge">
<title>Node4&#45;&gt;Node7</title>
<path fill="none" stroke="midnightblue" d="M186.15,-179.37C189.54,-161.62 197.35,-120.67 201.95,-96.6"/>
<polygon fill="midnightblue" stroke="midnightblue" points="205.42,-97.07 203.86,-86.59 198.55,-95.76 205.42,-97.07"/>
</g>
<!-- Node6&#45;&gt;Node3 -->
<g id="edge7" class="edge">
<title>Node6&#45;&gt;Node3</title>
<path fill="none" stroke="midnightblue" d="M120.51,-123.32C102.46,-114.62 74.45,-101.12 53.7,-91.11"/>
<polygon fill="midnightblue" stroke="midnightblue" points="54.98,-87.84 44.45,-86.65 51.94,-94.15 54.98,-87.84"/>
</g>
<!-- Node6&#45;&gt;Node5 -->
<g id="edge13" class="edge">
<title>Node6&#45;&gt;Node5</title>
<path fill="none" stroke="midnightblue" d="M165.12,-123.44C194.42,-114.02 241.57,-98.87 273.28,-88.68"/>
<polygon fill="midnightblue" stroke="midnightblue" points="274.54,-91.95 282.99,-85.56 272.39,-85.29 274.54,-91.95"/>
</g>
<!-- Node6&#45;&gt;Node7 -->
<g id="edge8" class="edge">
<title>Node6&#45;&gt;Node7</title>
<path fill="none" stroke="midnightblue" d="M149.26,-123.32C159.27,-115.26 174.39,-103.08 186.43,-93.37"/>
<polygon fill="midnightblue" stroke="midnightblue" points="188.95,-95.83 194.54,-86.83 184.56,-90.38 188.95,-95.83"/>
</g>
<!-- Node12 -->
<g id="node12" class="node">
<title>Node12</title>
<g id="a_node12"><a xlink:title=" ">
<polygon fill="white" stroke="#bfbfbf" points="71.5,-67.5 71.5,-86.5 127.5,-86.5 127.5,-67.5 71.5,-67.5"/>
<text text-anchor="middle" x="99.5" y="-74.5" font-family="Helvetica,sans-Serif" font-size="10.00">sstream</text>
</a>
</g>
</g>
<!-- Node6&#45;&gt;Node12 -->
<g id="edge14" class="edge">
<title>Node6&#45;&gt;Node12</title>
<path fill="none" stroke="midnightblue" d="M132.06,-123.08C126.55,-115.46 118.47,-104.26 111.74,-94.94"/>
<polygon fill="midnightblue" stroke="midnightblue" points="114.51,-92.81 105.82,-86.75 108.84,-96.91 114.51,-92.81"/>
</g>
<!-- Node8 -->
<g id="node8" class="node">
<title>Node8</title>
<g id="a_node8"><a xlink:title=" ">
<polygon fill="white" stroke="#bfbfbf" points="48,-6 48,-25 105,-25 105,-6 48,-6"/>
<text text-anchor="middle" x="76.5" y="-13" font-family="Helvetica,sans-Serif" font-size="10.00">ostream</text>
</a>
</g>
</g>
<!-- Node7&#45;&gt;Node8 -->
<g id="edge9" class="edge">
<title>Node7&#45;&gt;Node8</title>
<path fill="none" stroke="midnightblue" d="M187.02,-67.48C165.37,-57.49 129.29,-40.85 104.27,-29.31"/>
<polygon fill="midnightblue" stroke="midnightblue" points="105.49,-26.02 94.95,-25.01 102.56,-32.38 105.49,-26.02"/>
</g>
<!-- Node9 -->
<g id="node9" class="node">
<title>Node9</title>
<g id="a_node9"><a xlink:title=" ">
<polygon fill="white" stroke="#bfbfbf" points="123.5,-6 123.5,-25 183.5,-25 183.5,-6 123.5,-6"/>
<text text-anchor="middle" x="153.5" y="-13" font-family="Helvetica,sans-Serif" font-size="10.00">iostream</text>
</a>
</g>
</g>
<!-- Node7&#45;&gt;Node9 -->
<g id="edge10" class="edge">
<title>Node7&#45;&gt;Node9</title>
<path fill="none" stroke="midnightblue" d="M198.05,-67.48C190.17,-58.46 177.56,-44.02 167.76,-32.81"/>
<polygon fill="midnightblue" stroke="midnightblue" points="170.15,-30.24 160.94,-25.01 164.88,-34.84 170.15,-30.24"/>
</g>
<!-- Node10 -->
<g id="node10" class="node">
<title>Node10</title>
<g id="a_node10"><a xlink:title=" ">
<polygon fill="white" stroke="#bfbfbf" points="202,-0.5 202,-30.5 315,-30.5 315,-0.5 202,-0.5"/>
<text text-anchor="start" x="210" y="-18.5" font-family="Helvetica,sans-Serif" font-size="10.00">boost/property_tree</text>
<text text-anchor="middle" x="258.5" y="-7.5" font-family="Helvetica,sans-Serif" font-size="10.00">/ptree.hpp</text>
</a>
</g>
</g>
<!-- Node7&#45;&gt;Node10 -->
<g id="edge11" class="edge">
<title>Node7&#45;&gt;Node10</title>
<path fill="none" stroke="midnightblue" d="M213.09,-67.48C219.87,-59.87 230.09,-48.4 239.11,-38.26"/>
<polygon fill="midnightblue" stroke="midnightblue" points="241.97,-40.32 246.01,-30.52 236.74,-35.66 241.97,-40.32"/>
</g>
<!-- Node11 -->
<g id="node11" class="node">
<title>Node11</title>
<g id="a_node11"><a xlink:title=" ">
<polygon fill="white" stroke="#bfbfbf" points="333,-0.5 333,-30.5 446,-30.5 446,-0.5 333,-0.5"/>
<text text-anchor="start" x="341" y="-18.5" font-family="Helvetica,sans-Serif" font-size="10.00">boost/property_tree</text>
<text text-anchor="middle" x="389.5" y="-7.5" font-family="Helvetica,sans-Serif" font-size="10.00">/xml_parser.hpp</text>
</a>
</g>
</g>
<!-- Node7&#45;&gt;Node11 -->
<g id="edge12" class="edge">
<title>Node7&#45;&gt;Node11</title>
<path fill="none" stroke="midnightblue" d="M231.86,-67.48C259,-58.7 302.02,-44.79 336.27,-33.71"/>
<polygon fill="midnightblue" stroke="midnightblue" points="337.7,-36.93 346.13,-30.52 335.54,-30.27 337.7,-36.93"/>
</g>
<!-- Node13&#45;&gt;Node6 -->
<g id="edge17" class="edge">
<title>Node13&#45;&gt;Node6</title>
<path fill="none" stroke="midnightblue" d="M107.61,-179.08C112.78,-171.53 120.35,-160.49 126.69,-151.23"/>
<polygon fill="midnightblue" stroke="midnightblue" points="129.74,-152.98 132.5,-142.75 123.96,-149.02 129.74,-152.98"/>
</g>
</g>
</svg>
