<?xml version="1.0" encoding="UTF-8" standalone="no"?>
<!DOCTYPE svg PUBLIC "-//W3C//DTD SVG 1.1//EN"
 "http://www.w3.org/Graphics/SVG/1.1/DTD/svg11.dtd">
<!-- Generated by graphviz version 2.43.0 (0)
 -->
<!-- Title: Libs/RayLib/sources/Mouse/Mouse.hpp Pages: 1 -->
<svg width="1808pt" height="351pt"
 viewBox="0.00 0.00 1807.50 351.00" xmlns="http://www.w3.org/2000/svg" xmlns:xlink="http://www.w3.org/1999/xlink">
<g id="graph0" class="graph" transform="scale(1 1) rotate(0) translate(4 347)">
<title>Libs/RayLib/sources/Mouse/Mouse.hpp</title>
<polygon fill="white" stroke="transparent" points="-4,4 -4,-347 1803.5,-347 1803.5,4 -4,4"/>
<!-- Node1 -->
<g id="node1" class="node">
<title>Node1</title>
<g id="a_node1"><a xlink:title=" ">
<polygon fill="#bfbfbf" stroke="black" points="1132.5,-312.5 1132.5,-342.5 1245.5,-342.5 1245.5,-312.5 1132.5,-312.5"/>
<text text-anchor="start" x="1140.5" y="-330.5" font-family="Helvetica,sans-Serif" font-size="10.00">Libs/RayLib/sources</text>
<text text-anchor="middle" x="1189" y="-319.5" font-family="Helvetica,sans-Serif" font-size="10.00">/Mouse/Mouse.hpp</text>
</a>
</g>
</g>
<!-- Node2 -->
<g id="node2" class="node">
<title>Node2</title>
<g id="a_node2"><a xlink:href="Button_8hpp.html" target="_top" xlink:title=" ">
<polygon fill="white" stroke="black" points="680.5,-240 680.5,-270 853.5,-270 853.5,-240 680.5,-240"/>
<text text-anchor="start" x="688.5" y="-258" font-family="Helvetica,sans-Serif" font-size="10.00">Libs/Engine/sources</text>
<text text-anchor="middle" x="767" y="-247" font-family="Helvetica,sans-Serif" font-size="10.00">/Components/Button/Button.hpp</text>
</a>
</g>
</g>
<!-- Node1&#45;&gt;Node2 -->
<g id="edge1" class="edge">
<title>Node1&#45;&gt;Node2</title>
<path fill="none" stroke="midnightblue" d="M1122.05,-317.16C1056.03,-307.71 952.33,-292.21 863,-276 852.95,-274.18 842.34,-272.11 831.98,-270.01"/>
<polygon fill="midnightblue" stroke="midnightblue" points="1121.92,-320.68 1132.31,-318.63 1122.91,-313.75 1121.92,-320.68"/>
</g>
<!-- Node15 -->
<g id="node15" class="node">
<title>Node15</title>
<g id="a_node15"><a xlink:href="Draggable_8hpp.html" target="_top" xlink:title=" ">
<polygon fill="white" stroke="black" points="166,-78.5 166,-119.5 300,-119.5 300,-78.5 166,-78.5"/>
<text text-anchor="start" x="174" y="-107.5" font-family="Helvetica,sans-Serif" font-size="10.00">Libs/Engine/sources</text>
<text text-anchor="start" x="174" y="-96.5" font-family="Helvetica,sans-Serif" font-size="10.00">/Components/Draggable</text>
<text text-anchor="middle" x="233" y="-85.5" font-family="Helvetica,sans-Serif" font-size="10.00">/Draggable.hpp</text>
</a>
</g>
</g>
<!-- Node1&#45;&gt;Node15 -->
<g id="edge26" class="edge">
<title>Node1&#45;&gt;Node15</title>
<path fill="none" stroke="midnightblue" d="M1122.04,-327.23C979.86,-326.38 639.94,-311.55 385,-198 337.1,-176.67 287.01,-141.46 257.97,-119.56"/>
<polygon fill="midnightblue" stroke="midnightblue" points="1122.33,-330.73 1132.34,-327.27 1122.36,-323.73 1122.33,-330.73"/>
</g>
<!-- Node17 -->
<g id="node17" class="node">
<title>Node17</title>
<g id="a_node17"><a xlink:href="TextBoxCallback_8cpp.html" target="_top" xlink:title=" ">
<polygon fill="white" stroke="black" points="871.5,-234.5 871.5,-275.5 1036.5,-275.5 1036.5,-234.5 871.5,-234.5"/>
<text text-anchor="start" x="879.5" y="-263.5" font-family="Helvetica,sans-Serif" font-size="10.00">Libs/Engine/sources</text>
<text text-anchor="start" x="879.5" y="-252.5" font-family="Helvetica,sans-Serif" font-size="10.00">/Components/TextBoxCallback</text>
<text text-anchor="middle" x="954" y="-241.5" font-family="Helvetica,sans-Serif" font-size="10.00">/TextBoxCallback.cpp</text>
</a>
</g>
</g>
<!-- Node1&#45;&gt;Node17 -->
<g id="edge30" class="edge">
<title>Node1&#45;&gt;Node17</title>
<path fill="none" stroke="midnightblue" d="M1132.49,-309.55C1098.41,-299.32 1054.86,-286.26 1019.31,-275.59"/>
<polygon fill="midnightblue" stroke="midnightblue" points="1131.71,-312.97 1142.29,-312.49 1133.72,-306.26 1131.71,-312.97"/>
</g>
<!-- Node18 -->
<g id="node18" class="node">
<title>Node18</title>
<g id="a_node18"><a xlink:href="Mouse_8cpp.html" target="_top" xlink:title=" ">
<polygon fill="white" stroke="black" points="1054.5,-240 1054.5,-270 1167.5,-270 1167.5,-240 1054.5,-240"/>
<text text-anchor="start" x="1062.5" y="-258" font-family="Helvetica,sans-Serif" font-size="10.00">Libs/RayLib/sources</text>
<text text-anchor="middle" x="1111" y="-247" font-family="Helvetica,sans-Serif" font-size="10.00">/Mouse/Mouse.cpp</text>
</a>
</g>
</g>
<!-- Node1&#45;&gt;Node18 -->
<g id="edge31" class="edge">
<title>Node1&#45;&gt;Node18</title>
<path fill="none" stroke="midnightblue" d="M1165.73,-305.46C1153.05,-294 1137.7,-280.14 1126.49,-270"/>
<polygon fill="midnightblue" stroke="midnightblue" points="1163.45,-308.12 1173.22,-312.23 1168.14,-302.93 1163.45,-308.12"/>
</g>
<!-- Node19 -->
<g id="node19" class="node">
<title>Node19</title>
<g id="a_node19"><a xlink:href="Prototype_2sources_2Coordinator_2main_8cpp.html" target="_top" xlink:title=" ">
<polygon fill="white" stroke="black" points="1186,-240 1186,-270 1350,-270 1350,-240 1186,-240"/>
<text text-anchor="start" x="1194" y="-258" font-family="Helvetica,sans-Serif" font-size="10.00">Prototype/sources/Coordinator</text>
<text text-anchor="middle" x="1268" y="-247" font-family="Helvetica,sans-Serif" font-size="10.00">/main.cpp</text>
</a>
</g>
</g>
<!-- Node1&#45;&gt;Node19 -->
<g id="edge32" class="edge">
<title>Node1&#45;&gt;Node19</title>
<path fill="none" stroke="midnightblue" d="M1212.57,-305.46C1225.41,-294 1240.95,-280.14 1252.31,-270"/>
<polygon fill="midnightblue" stroke="midnightblue" points="1210.12,-302.96 1204.99,-312.23 1214.78,-308.19 1210.12,-302.96"/>
</g>
<!-- Node20 -->
<g id="node20" class="node">
<title>Node20</title>
<g id="a_node20"><a xlink:href="Prototype_2sources_2Drag_2main_8cpp.html" target="_top" xlink:title=" ">
<polygon fill="white" stroke="black" points="1368.5,-240 1368.5,-270 1499.5,-270 1499.5,-240 1368.5,-240"/>
<text text-anchor="start" x="1376.5" y="-258" font-family="Helvetica,sans-Serif" font-size="10.00">Prototype/sources/Drag</text>
<text text-anchor="middle" x="1434" y="-247" font-family="Helvetica,sans-Serif" font-size="10.00">/main.cpp</text>
</a>
</g>
</g>
<!-- Node1&#45;&gt;Node20 -->
<g id="edge33" class="edge">
<title>Node1&#45;&gt;Node20</title>
<path fill="none" stroke="midnightblue" d="M1247.5,-309.66C1289.46,-297.59 1345.35,-281.51 1384.98,-270.11"/>
<polygon fill="midnightblue" stroke="midnightblue" points="1246.34,-306.36 1237.7,-312.49 1248.27,-313.09 1246.34,-306.36"/>
</g>
<!-- Node21 -->
<g id="node21" class="node">
<title>Node21</title>
<g id="a_node21"><a xlink:href="Prototype_2sources_2Input_2main_8cpp.html" target="_top" xlink:title=" ">
<polygon fill="white" stroke="black" points="1518,-240 1518,-270 1650,-270 1650,-240 1518,-240"/>
<text text-anchor="start" x="1526" y="-258" font-family="Helvetica,sans-Serif" font-size="10.00">Prototype/sources/Input</text>
<text text-anchor="middle" x="1584" y="-247" font-family="Helvetica,sans-Serif" font-size="10.00">/main.cpp</text>
</a>
</g>
</g>
<!-- Node1&#45;&gt;Node21 -->
<g id="edge34" class="edge">
<title>Node1&#45;&gt;Node21</title>
<path fill="none" stroke="midnightblue" d="M1255.8,-318.02C1320.79,-309.29 1422.17,-294.38 1509,-276 1517.17,-274.27 1525.79,-272.2 1534.15,-270.07"/>
<polygon fill="midnightblue" stroke="midnightblue" points="1255.13,-314.58 1245.69,-319.37 1256.06,-321.52 1255.13,-314.58"/>
</g>
<!-- Node22 -->
<g id="node22" class="node">
<title>Node22</title>
<g id="a_node22"><a xlink:href="Prototype_2sources_2Loop_2main_8cpp.html" target="_top" xlink:title=" ">
<polygon fill="white" stroke="black" points="1668.5,-240 1668.5,-270 1799.5,-270 1799.5,-240 1668.5,-240"/>
<text text-anchor="start" x="1676.5" y="-258" font-family="Helvetica,sans-Serif" font-size="10.00">Prototype/sources/Loop</text>
<text text-anchor="middle" x="1734" y="-247" font-family="Helvetica,sans-Serif" font-size="10.00">/main.cpp</text>
</a>
</g>
</g>
<!-- Node1&#45;&gt;Node22 -->
<g id="edge35" class="edge">
<title>Node1&#45;&gt;Node22</title>
<path fill="none" stroke="midnightblue" d="M1256.08,-322.54C1347.7,-316.4 1516.83,-302.43 1659,-276 1667.74,-274.37 1676.96,-272.26 1685.83,-270.01"/>
<polygon fill="midnightblue" stroke="midnightblue" points="1255.59,-319.07 1245.84,-323.22 1256.05,-326.05 1255.59,-319.07"/>
</g>
<!-- Node3 -->
<g id="node3" class="node">
<title>Node3</title>
<g id="a_node3"><a xlink:href="Bomberman_2sources_2main_8cpp.html" target="_top" xlink:title=" ">
<polygon fill="white" stroke="black" points="476.5,-11.5 476.5,-30.5 641.5,-30.5 641.5,-11.5 476.5,-11.5"/>
<text text-anchor="middle" x="559" y="-18.5" font-family="Helvetica,sans-Serif" font-size="10.00">Bomberman/sources/main.cpp</text>
</a>
</g>
</g>
<!-- Node2&#45;&gt;Node3 -->
<g id="edge2" class="edge">
<title>Node2&#45;&gt;Node3</title>
<path fill="none" stroke="midnightblue" d="M720.54,-235.81C674.59,-215.17 606.46,-176.8 573,-120 555.82,-90.83 556.79,-48.52 558.15,-30.57"/>
<polygon fill="midnightblue" stroke="midnightblue" points="719.42,-239.15 729.98,-239.95 722.23,-232.73 719.42,-239.15"/>
</g>
<!-- Node4 -->
<g id="node4" class="node">
<title>Node4</title>
<g id="a_node4"><a xlink:href="Button_8cpp.html" target="_top" xlink:title=" ">
<polygon fill="white" stroke="black" points="1076,-162 1076,-192 1248,-192 1248,-162 1076,-162"/>
<text text-anchor="start" x="1084" y="-180" font-family="Helvetica,sans-Serif" font-size="10.00">Libs/Engine/sources</text>
<text text-anchor="middle" x="1162" y="-169" font-family="Helvetica,sans-Serif" font-size="10.00">/Components/Button/Button.cpp</text>
</a>
</g>
</g>
<!-- Node2&#45;&gt;Node4 -->
<g id="edge3" class="edge">
<title>Node2&#45;&gt;Node4</title>
<path fill="none" stroke="midnightblue" d="M842.96,-237.98C849.73,-236.61 856.49,-235.27 863,-234 951.23,-216.83 973.71,-214.81 1062,-198 1071.91,-196.11 1082.37,-194.07 1092.64,-192.04"/>
<polygon fill="midnightblue" stroke="midnightblue" points="842.16,-234.57 833.06,-240 843.55,-241.43 842.16,-234.57"/>
</g>
<!-- Node5 -->
<g id="node5" class="node">
<title>Node5</title>
<g id="a_node5"><a xlink:href="ButtonCallbacks_8hpp.html" target="_top" xlink:title=" ">
<polygon fill="white" stroke="black" points="685,-156.5 685,-197.5 849,-197.5 849,-156.5 685,-156.5"/>
<text text-anchor="start" x="693" y="-185.5" font-family="Helvetica,sans-Serif" font-size="10.00">Libs/Engine/sources</text>
<text text-anchor="start" x="693" y="-174.5" font-family="Helvetica,sans-Serif" font-size="10.00">/Components/ButtonCallbacks</text>
<text text-anchor="middle" x="767" y="-163.5" font-family="Helvetica,sans-Serif" font-size="10.00">/ButtonCallbacks.hpp</text>
</a>
</g>
</g>
<!-- Node2&#45;&gt;Node5 -->
<g id="edge4" class="edge">
<title>Node2&#45;&gt;Node5</title>
<path fill="none" stroke="midnightblue" d="M767,-229.66C767,-219.33 767,-207.44 767,-197.68"/>
<polygon fill="midnightblue" stroke="midnightblue" points="763.5,-229.7 767,-239.7 770.5,-229.71 763.5,-229.7"/>
</g>
<!-- Node7 -->
<g id="node7" class="node">
<title>Node7</title>
<g id="a_node7"><a xlink:href="EntityFactory_8cpp.html" target="_top" xlink:title=" ">
<polygon fill="white" stroke="black" points="1033.5,-6 1033.5,-36 1202.5,-36 1202.5,-6 1033.5,-6"/>
<text text-anchor="start" x="1041.5" y="-24" font-family="Helvetica,sans-Serif" font-size="10.00">Libs/Engine/sources</text>
<text text-anchor="middle" x="1118" y="-13" font-family="Helvetica,sans-Serif" font-size="10.00">/EntityFactory/EntityFactory.cpp</text>
</a>
</g>
</g>
<!-- Node2&#45;&gt;Node7 -->
<g id="edge21" class="edge">
<title>Node2&#45;&gt;Node7</title>
<path fill="none" stroke="midnightblue" d="M808.34,-235.81C830.39,-225.58 857.71,-212.06 881,-198 968.52,-145.15 1063.56,-67.78 1101.25,-36.21"/>
<polygon fill="midnightblue" stroke="midnightblue" points="806.86,-232.63 799.23,-239.98 809.78,-238.99 806.86,-232.63"/>
</g>
<!-- Node8 -->
<g id="node8" class="node">
<title>Node8</title>
<g id="a_node8"><a xlink:href="Scenes_8cpp.html" target="_top" xlink:title=" ">
<polygon fill="white" stroke="black" points="1220.5,-6 1220.5,-36 1333.5,-36 1333.5,-6 1220.5,-6"/>
<text text-anchor="start" x="1228.5" y="-24" font-family="Helvetica,sans-Serif" font-size="10.00">Libs/Engine/sources</text>
<text text-anchor="middle" x="1277" y="-13" font-family="Helvetica,sans-Serif" font-size="10.00">/Scenes/Scenes.cpp</text>
</a>
</g>
</g>
<!-- Node2&#45;&gt;Node8 -->
<g id="edge22" class="edge">
<title>Node2&#45;&gt;Node8</title>
<path fill="none" stroke="midnightblue" d="M838.88,-238.1C846.99,-236.58 855.16,-235.17 863,-234 906.48,-227.51 1225.57,-228.74 1257,-198 1301.41,-154.56 1288.19,-70.09 1280.63,-36.39"/>
<polygon fill="midnightblue" stroke="midnightblue" points="838.2,-234.66 829.04,-239.99 839.52,-241.54 838.2,-234.66"/>
</g>
<!-- Node9 -->
<g id="node9" class="node">
<title>Node9</title>
<g id="a_node9"><a xlink:href="Scenes_8hpp.html" target="_top" xlink:title=" ">
<polygon fill="white" stroke="black" points="830.5,-84 830.5,-114 943.5,-114 943.5,-84 830.5,-84"/>
<text text-anchor="start" x="838.5" y="-102" font-family="Helvetica,sans-Serif" font-size="10.00">Libs/Engine/sources</text>
<text text-anchor="middle" x="887" y="-91" font-family="Helvetica,sans-Serif" font-size="10.00">/Scenes/Scenes.hpp</text>
</a>
</g>
</g>
<!-- Node2&#45;&gt;Node9 -->
<g id="edge23" class="edge">
<title>Node2&#45;&gt;Node9</title>
<path fill="none" stroke="midnightblue" d="M811.26,-235.23C828,-226.17 845.92,-213.78 858,-198 877.42,-172.64 883.86,-134.49 885.98,-114.08"/>
<polygon fill="midnightblue" stroke="midnightblue" points="809.42,-232.24 802.12,-239.92 812.62,-238.47 809.42,-232.24"/>
</g>
<!-- Node11 -->
<g id="node11" class="node">
<title>Node11</title>
<g id="a_node11"><a xlink:href="Prototype_2sources_2Behaviour_2main_8cpp.html" target="_top" xlink:title=" ">
<polygon fill="white" stroke="black" points="152.5,-6 152.5,-36 309.5,-36 309.5,-6 152.5,-6"/>
<text text-anchor="start" x="160.5" y="-24" font-family="Helvetica,sans-Serif" font-size="10.00">Prototype/sources/Behaviour</text>
<text text-anchor="middle" x="231" y="-13" font-family="Helvetica,sans-Serif" font-size="10.00">/main.cpp</text>
</a>
</g>
</g>
<!-- Node2&#45;&gt;Node11 -->
<g id="edge25" class="edge">
<title>Node2&#45;&gt;Node11</title>
<path fill="none" stroke="midnightblue" d="M670.21,-248.22C606.62,-241.68 522.78,-227.73 454,-198 400.64,-174.94 392.54,-158.52 349,-120 329.69,-102.92 328.44,-94.92 309,-78 291.14,-62.46 269.1,-46.93 253,-36.18"/>
<polygon fill="midnightblue" stroke="midnightblue" points="669.94,-251.71 680.24,-249.21 670.63,-244.74 669.94,-251.71"/>
</g>
<!-- Node12 -->
<g id="node12" class="node">
<title>Node12</title>
<g id="a_node12"><a xlink:href="PauseSystem_8hpp.html" target="_top" xlink:title=" ">
<polygon fill="white" stroke="black" points="358,-78.5 358,-119.5 488,-119.5 488,-78.5 358,-78.5"/>
<text text-anchor="start" x="366" y="-107.5" font-family="Helvetica,sans-Serif" font-size="10.00">Libs/Engine/sources</text>
<text text-anchor="start" x="366" y="-96.5" font-family="Helvetica,sans-Serif" font-size="10.00">/Systems/PauseSystem</text>
<text text-anchor="middle" x="423" y="-85.5" font-family="Helvetica,sans-Serif" font-size="10.00">/PauseSystem.hpp</text>
</a>
</g>
</g>
<!-- Node2&#45;&gt;Node12 -->
<g id="edge24" class="edge">
<title>Node2&#45;&gt;Node12</title>
<path fill="none" stroke="midnightblue" d="M670.32,-249.3C617.37,-243.01 552.46,-228.96 502,-198 470.52,-178.69 446.17,-142.16 433.26,-119.57"/>
<polygon fill="midnightblue" stroke="midnightblue" points="670.08,-252.79 680.4,-250.42 670.85,-245.83 670.08,-252.79"/>
</g>
<!-- Node5&#45;&gt;Node3 -->
<g id="edge5" class="edge">
<title>Node5&#45;&gt;Node3</title>
<path fill="none" stroke="midnightblue" d="M767.85,-146.18C766.85,-124.64 761.97,-96.23 745,-78 734.55,-66.77 644.95,-43.2 594.02,-30.52"/>
<polygon fill="midnightblue" stroke="midnightblue" points="764.36,-146.51 768.07,-156.43 771.36,-146.36 764.36,-146.51"/>
</g>
<!-- Node6 -->
<g id="node6" class="node">
<title>Node6</title>
<g id="a_node6"><a xlink:href="ButtonCallbacks_8cpp.html" target="_top" xlink:title=" ">
<polygon fill="white" stroke="black" points="660,-0.5 660,-41.5 824,-41.5 824,-0.5 660,-0.5"/>
<text text-anchor="start" x="668" y="-29.5" font-family="Helvetica,sans-Serif" font-size="10.00">Libs/Engine/sources</text>
<text text-anchor="start" x="668" y="-18.5" font-family="Helvetica,sans-Serif" font-size="10.00">/Components/ButtonCallbacks</text>
<text text-anchor="middle" x="742" y="-7.5" font-family="Helvetica,sans-Serif" font-size="10.00">/ButtonCallbacks.cpp</text>
</a>
</g>
</g>
<!-- Node5&#45;&gt;Node6 -->
<g id="edge6" class="edge">
<title>Node5&#45;&gt;Node6</title>
<path fill="none" stroke="midnightblue" d="M776.26,-146.52C781.02,-126.79 784.58,-100.42 778,-78 774.12,-64.8 766.07,-51.78 758.57,-41.61"/>
<polygon fill="midnightblue" stroke="midnightblue" points="772.81,-145.89 773.63,-156.46 779.57,-147.68 772.81,-145.89"/>
</g>
<!-- Node5&#45;&gt;Node7 -->
<g id="edge7" class="edge">
<title>Node5&#45;&gt;Node7</title>
<path fill="none" stroke="midnightblue" d="M859.23,-157.62C890.36,-149.02 924.43,-136.85 953,-120 976.01,-106.42 973.98,-93.13 996,-78 1021.64,-60.38 1053.72,-45.91 1078.54,-36.09"/>
<polygon fill="midnightblue" stroke="midnightblue" points="858,-154.33 849.24,-160.29 859.8,-161.09 858,-154.33"/>
</g>
<!-- Node5&#45;&gt;Node8 -->
<g id="edge8" class="edge">
<title>Node5&#45;&gt;Node8</title>
<path fill="none" stroke="midnightblue" d="M858.74,-154.47C898.65,-144.66 945.84,-132.47 988,-120 1078.69,-93.18 1183.41,-56.12 1238.51,-36.13"/>
<polygon fill="midnightblue" stroke="midnightblue" points="857.9,-151.07 849.02,-156.85 859.57,-157.87 857.9,-151.07"/>
</g>
<!-- Node5&#45;&gt;Node9 -->
<g id="edge9" class="edge">
<title>Node5&#45;&gt;Node9</title>
<path fill="none" stroke="midnightblue" d="M806.5,-150.99C825.77,-138.78 848.24,-124.55 864.54,-114.23"/>
<polygon fill="midnightblue" stroke="midnightblue" points="804.48,-148.12 797.9,-156.43 808.22,-154.03 804.48,-148.12"/>
</g>
<!-- Node5&#45;&gt;Node11 -->
<g id="edge19" class="edge">
<title>Node5&#45;&gt;Node11</title>
<path fill="none" stroke="midnightblue" d="M674.89,-153.95C642.17,-144.94 605.43,-133.44 573,-120 537.35,-105.22 533.22,-91.31 497,-78 421.24,-50.16 397.91,-58.95 319,-42 310.27,-40.13 301.06,-38.09 292.03,-36.07"/>
<polygon fill="midnightblue" stroke="midnightblue" points="674.34,-157.43 684.91,-156.67 676.18,-150.67 674.34,-157.43"/>
</g>
<!-- Node5&#45;&gt;Node12 -->
<g id="edge16" class="edge">
<title>Node5&#45;&gt;Node12</title>
<path fill="none" stroke="midnightblue" d="M674.55,-155.57C615.64,-142.56 540.77,-126.02 488.08,-114.38"/>
<polygon fill="midnightblue" stroke="midnightblue" points="674.08,-159.06 684.6,-157.8 675.59,-152.22 674.08,-159.06"/>
</g>
<!-- Node14 -->
<g id="node14" class="node">
<title>Node14</title>
<g id="a_node14"><a xlink:href="Prototype_2sources_2Drawable_2main_8cpp.html" target="_top" xlink:title=" ">
<polygon fill="white" stroke="black" points="582,-84 582,-114 736,-114 736,-84 582,-84"/>
<text text-anchor="start" x="590" y="-102" font-family="Helvetica,sans-Serif" font-size="10.00">Prototype/sources/Drawable</text>
<text text-anchor="middle" x="659" y="-91" font-family="Helvetica,sans-Serif" font-size="10.00">/main.cpp</text>
</a>
</g>
</g>
<!-- Node5&#45;&gt;Node14 -->
<g id="edge20" class="edge">
<title>Node5&#45;&gt;Node14</title>
<path fill="none" stroke="midnightblue" d="M730.98,-150.66C713.75,-138.53 693.75,-124.45 679.21,-114.23"/>
<polygon fill="midnightblue" stroke="midnightblue" points="728.99,-153.54 739.19,-156.43 733.02,-147.81 728.99,-153.54"/>
</g>
<!-- Node9&#45;&gt;Node3 -->
<g id="edge10" class="edge">
<title>Node9&#45;&gt;Node3</title>
<path fill="none" stroke="midnightblue" d="M820.09,-82.5C752.32,-66.79 649.98,-43.08 595.75,-30.52"/>
<polygon fill="midnightblue" stroke="midnightblue" points="819.71,-86 830.24,-84.85 821.29,-79.18 819.71,-86"/>
</g>
<!-- Node9&#45;&gt;Node6 -->
<g id="edge11" class="edge">
<title>Node9&#45;&gt;Node6</title>
<path fill="none" stroke="midnightblue" d="M851.12,-79.2C829.32,-67.77 801.53,-53.2 779.45,-41.63"/>
<polygon fill="midnightblue" stroke="midnightblue" points="849.58,-82.34 860.07,-83.88 852.83,-76.14 849.58,-82.34"/>
</g>
<!-- Node9&#45;&gt;Node7 -->
<g id="edge13" class="edge">
<title>Node9&#45;&gt;Node7</title>
<path fill="none" stroke="midnightblue" d="M939.2,-80.83C980.27,-67.31 1036.8,-48.72 1075.22,-36.07"/>
<polygon fill="midnightblue" stroke="midnightblue" points="938.04,-77.52 929.64,-83.97 940.23,-84.17 938.04,-77.52"/>
</g>
<!-- Node9&#45;&gt;Node8 -->
<g id="edge14" class="edge">
<title>Node9&#45;&gt;Node8</title>
<path fill="none" stroke="midnightblue" d="M953.59,-85.6C967.59,-83.05 982.28,-80.4 996,-78 1091.87,-61.22 1117.28,-64.36 1212,-42 1219.24,-40.29 1226.85,-38.21 1234.22,-36.05"/>
<polygon fill="midnightblue" stroke="midnightblue" points="952.75,-82.2 943.54,-87.44 954.01,-89.08 952.75,-82.2"/>
</g>
<!-- Node10 -->
<g id="node10" class="node">
<title>Node10</title>
<g id="a_node10"><a xlink:href="GameConfigurator_8cpp.html" target="_top" xlink:title=" ">
<polygon fill="white" stroke="black" points="842.5,-0.5 842.5,-41.5 1015.5,-41.5 1015.5,-0.5 842.5,-0.5"/>
<text text-anchor="start" x="850.5" y="-29.5" font-family="Helvetica,sans-Serif" font-size="10.00">Libs/Engine/sources</text>
<text text-anchor="start" x="850.5" y="-18.5" font-family="Helvetica,sans-Serif" font-size="10.00">/Components/GameConfigurator</text>
<text text-anchor="middle" x="929" y="-7.5" font-family="Helvetica,sans-Serif" font-size="10.00">/GameConfigurator.cpp</text>
</a>
</g>
</g>
<!-- Node9&#45;&gt;Node10 -->
<g id="edge12" class="edge">
<title>Node9&#45;&gt;Node10</title>
<path fill="none" stroke="midnightblue" d="M899.74,-74.95C905.61,-64.33 912.5,-51.85 918.12,-41.68"/>
<polygon fill="midnightblue" stroke="midnightblue" points="896.67,-73.26 894.9,-83.7 902.8,-76.65 896.67,-73.26"/>
</g>
<!-- Node9&#45;&gt;Node11 -->
<g id="edge15" class="edge">
<title>Node9&#45;&gt;Node11</title>
<path fill="none" stroke="midnightblue" d="M820.46,-87.85C796.68,-84.43 769.68,-80.78 745,-78 556.18,-56.74 506.76,-71.13 319,-42 308.78,-40.41 297.98,-38.32 287.58,-36.08"/>
<polygon fill="midnightblue" stroke="midnightblue" points="820.03,-91.32 830.43,-89.3 821.04,-84.4 820.03,-91.32"/>
</g>
<!-- Node12&#45;&gt;Node3 -->
<g id="edge17" class="edge">
<title>Node12&#45;&gt;Node3</title>
<path fill="none" stroke="midnightblue" d="M467.08,-73.37C493.42,-58.65 525.24,-40.87 543.7,-30.55"/>
<polygon fill="midnightblue" stroke="midnightblue" points="465.05,-70.49 458.02,-78.43 468.46,-76.61 465.05,-70.49"/>
</g>
<!-- Node13 -->
<g id="node13" class="node">
<title>Node13</title>
<g id="a_node13"><a xlink:href="PauseSystem_8cpp.html" target="_top" xlink:title=" ">
<polygon fill="white" stroke="black" points="328,-0.5 328,-41.5 458,-41.5 458,-0.5 328,-0.5"/>
<text text-anchor="start" x="336" y="-29.5" font-family="Helvetica,sans-Serif" font-size="10.00">Libs/Engine/sources</text>
<text text-anchor="start" x="336" y="-18.5" font-family="Helvetica,sans-Serif" font-size="10.00">/Systems/PauseSystem</text>
<text text-anchor="middle" x="393" y="-7.5" font-family="Helvetica,sans-Serif" font-size="10.00">/PauseSystem.cpp</text>
</a>
</g>
</g>
<!-- Node12&#45;&gt;Node13 -->
<g id="edge18" class="edge">
<title>Node12&#45;&gt;Node13</title>
<path fill="none" stroke="midnightblue" d="M411.51,-68.88C407.89,-59.72 403.99,-49.83 400.7,-41.51"/>
<polygon fill="midnightblue" stroke="midnightblue" points="408.35,-70.41 415.27,-78.43 414.86,-67.84 408.35,-70.41"/>
</g>
<!-- Node15&#45;&gt;Node3 -->
<g id="edge27" class="edge">
<title>Node15&#45;&gt;Node3</title>
<path fill="none" stroke="midnightblue" d="M310.24,-79.99C377.2,-64.38 471.15,-42.48 522.29,-30.56"/>
<polygon fill="midnightblue" stroke="midnightblue" points="309.1,-76.67 300.15,-82.34 310.69,-83.48 309.1,-76.67"/>
</g>
<!-- Node15&#45;&gt;Node11 -->
<g id="edge29" class="edge">
<title>Node15&#45;&gt;Node11</title>
<path fill="none" stroke="midnightblue" d="M232.22,-68.28C231.93,-57.25 231.61,-45.25 231.37,-36.23"/>
<polygon fill="midnightblue" stroke="midnightblue" points="228.72,-68.52 232.48,-78.43 235.72,-68.34 228.72,-68.52"/>
</g>
<!-- Node16 -->
<g id="node16" class="node">
<title>Node16</title>
<g id="a_node16"><a xlink:href="Draggable_8cpp.html" target="_top" xlink:title=" ">
<polygon fill="white" stroke="black" points="0,-0.5 0,-41.5 134,-41.5 134,-0.5 0,-0.5"/>
<text text-anchor="start" x="8" y="-29.5" font-family="Helvetica,sans-Serif" font-size="10.00">Libs/Engine/sources</text>
<text text-anchor="start" x="8" y="-18.5" font-family="Helvetica,sans-Serif" font-size="10.00">/Components/Draggable</text>
<text text-anchor="middle" x="67" y="-7.5" font-family="Helvetica,sans-Serif" font-size="10.00">/Draggable.cpp</text>
</a>
</g>
</g>
<!-- Node15&#45;&gt;Node16 -->
<g id="edge28" class="edge">
<title>Node15&#45;&gt;Node16</title>
<path fill="none" stroke="midnightblue" d="M180.99,-74.19C158.03,-63.67 131.37,-51.47 109.6,-41.51"/>
<polygon fill="midnightblue" stroke="midnightblue" points="179.7,-77.45 190.25,-78.43 182.62,-71.08 179.7,-77.45"/>
</g>
</g>
</svg>
