<?xml version="1.0" encoding="UTF-8" standalone="no"?>
<!DOCTYPE svg PUBLIC "-//W3C//DTD SVG 1.1//EN"
 "http://www.w3.org/Graphics/SVG/1.1/DTD/svg11.dtd">
<!-- Generated by graphviz version 2.43.0 (0)
 -->
<!-- Title: Prototype/sources/Coordinator/MoveSystem.cpp Pages: 1 -->
<svg width="1805pt" height="498pt"
 viewBox="0.00 0.00 1805.00 498.00" xmlns="http://www.w3.org/2000/svg" xmlns:xlink="http://www.w3.org/1999/xlink">
<g id="graph0" class="graph" transform="scale(1 1) rotate(0) translate(4 494)">
<title>Prototype/sources/Coordinator/MoveSystem.cpp</title>
<polygon fill="white" stroke="transparent" points="-4,4 -4,-494 1801,-494 1801,4 -4,4"/>
<!-- Node1 -->
<g id="node1" class="node">
<title>Node1</title>
<g id="a_node1"><a xlink:title=" ">
<polygon fill="#bfbfbf" stroke="black" points="1087,-459.5 1087,-489.5 1251,-489.5 1251,-459.5 1087,-459.5"/>
<text text-anchor="start" x="1095" y="-477.5" font-family="Helvetica,sans-Serif" font-size="10.00">Prototype/sources/Coordinator</text>
<text text-anchor="middle" x="1169" y="-466.5" font-family="Helvetica,sans-Serif" font-size="10.00">/MoveSystem.cpp</text>
</a>
</g>
</g>
<!-- Node2 -->
<g id="node2" class="node">
<title>Node2</title>
<g id="a_node2"><a xlink:href="MoveSystem_8hpp.html" target="_top" xlink:title=" ">
<polygon fill="white" stroke="black" points="568.5,-403.5 568.5,-422.5 669.5,-422.5 669.5,-403.5 568.5,-403.5"/>
<text text-anchor="middle" x="619" y="-410.5" font-family="Helvetica,sans-Serif" font-size="10.00">MoveSystem.hpp</text>
</a>
</g>
</g>
<!-- Node1&#45;&gt;Node2 -->
<g id="edge1" class="edge">
<title>Node1&#45;&gt;Node2</title>
<path fill="none" stroke="midnightblue" d="M1086.96,-464.62C975.61,-452.58 779.17,-431.33 679.97,-420.6"/>
<polygon fill="midnightblue" stroke="midnightblue" points="680.13,-417.09 669.81,-419.5 679.38,-424.05 680.13,-417.09"/>
</g>
<!-- Node16 -->
<g id="node16" class="node">
<title>Node16</title>
<g id="a_node16"><a xlink:title=" ">
<polygon fill="white" stroke="#bfbfbf" points="1713,-6 1713,-25 1773,-25 1773,-6 1713,-6"/>
<text text-anchor="middle" x="1743" y="-13" font-family="Helvetica,sans-Serif" font-size="10.00">iostream</text>
</a>
</g>
</g>
<!-- Node1&#45;&gt;Node16 -->
<g id="edge89" class="edge">
<title>Node1&#45;&gt;Node16</title>
<path fill="none" stroke="midnightblue" d="M1251.1,-466.85C1421.33,-451.96 1797,-412.87 1797,-358 1797,-358 1797,-358 1797,-132 1797,-93.84 1772.52,-54.71 1756.52,-33.21"/>
<polygon fill="midnightblue" stroke="midnightblue" points="1759.17,-30.9 1750.28,-25.13 1753.62,-35.18 1759.17,-30.9"/>
</g>
<!-- Node22 -->
<g id="node22" class="node">
<title>Node22</title>
<g id="a_node22"><a xlink:href="ObjectComponent_8hpp.html" target="_top" xlink:title=" ">
<polygon fill="white" stroke="black" points="1106.5,-403.5 1106.5,-422.5 1231.5,-422.5 1231.5,-403.5 1106.5,-403.5"/>
<text text-anchor="middle" x="1169" y="-410.5" font-family="Helvetica,sans-Serif" font-size="10.00">ObjectComponent.hpp</text>
</a>
</g>
</g>
<!-- Node1&#45;&gt;Node22 -->
<g id="edge34" class="edge">
<title>Node1&#45;&gt;Node22</title>
<path fill="none" stroke="midnightblue" d="M1169,-459.4C1169,-451.47 1169,-441.46 1169,-432.86"/>
<polygon fill="midnightblue" stroke="midnightblue" points="1172.5,-432.66 1169,-422.66 1165.5,-432.66 1172.5,-432.66"/>
</g>
<!-- Node3 -->
<g id="node3" class="node">
<title>Node3</title>
<g id="a_node3"><a xlink:href="ASystem_8hpp.html" target="_top" xlink:title=" ">
<polygon fill="white" stroke="black" points="578.5,-347.5 578.5,-366.5 659.5,-366.5 659.5,-347.5 578.5,-347.5"/>
<text text-anchor="middle" x="619" y="-354.5" font-family="Helvetica,sans-Serif" font-size="10.00">ASystem.hpp</text>
</a>
</g>
</g>
<!-- Node2&#45;&gt;Node3 -->
<g id="edge2" class="edge">
<title>Node2&#45;&gt;Node3</title>
<path fill="none" stroke="midnightblue" d="M619,-403.08C619,-396.01 619,-385.86 619,-376.99"/>
<polygon fill="midnightblue" stroke="midnightblue" points="622.5,-376.75 619,-366.75 615.5,-376.75 622.5,-376.75"/>
</g>
<!-- Node6 -->
<g id="node6" class="node">
<title>Node6</title>
<g id="a_node6"><a xlink:href="Entity_8hpp.html" target="_top" xlink:title=" ">
<polygon fill="white" stroke="black" points="280.5,-291.5 280.5,-310.5 345.5,-310.5 345.5,-291.5 280.5,-291.5"/>
<text text-anchor="middle" x="313" y="-298.5" font-family="Helvetica,sans-Serif" font-size="10.00">Entity.hpp</text>
</a>
</g>
</g>
<!-- Node2&#45;&gt;Node6 -->
<g id="edge33" class="edge">
<title>Node2&#45;&gt;Node6</title>
<path fill="none" stroke="midnightblue" d="M595.24,-403.46C541.24,-384.05 409.12,-336.55 346.7,-314.12"/>
<polygon fill="midnightblue" stroke="midnightblue" points="347.55,-310.7 336.95,-310.61 345.18,-317.29 347.55,-310.7"/>
</g>
<!-- Node4 -->
<g id="node4" class="node">
<title>Node4</title>
<g id="a_node4"><a xlink:title=" ">
<polygon fill="white" stroke="#bfbfbf" points="869,-179.5 869,-198.5 913,-198.5 913,-179.5 869,-179.5"/>
<text text-anchor="middle" x="891" y="-186.5" font-family="Helvetica,sans-Serif" font-size="10.00">string</text>
</a>
</g>
</g>
<!-- Node3&#45;&gt;Node4 -->
<g id="edge3" class="edge">
<title>Node3&#45;&gt;Node4</title>
<path fill="none" stroke="midnightblue" d="M633.24,-347.31C677.67,-320.19 814.02,-236.98 868.33,-203.83"/>
<polygon fill="midnightblue" stroke="midnightblue" points="870.19,-206.8 876.9,-198.61 866.54,-200.83 870.19,-206.8"/>
</g>
<!-- Node5 -->
<g id="node5" class="node">
<title>Node5</title>
<g id="a_node5"><a xlink:title=" ">
<polygon fill="white" stroke="#bfbfbf" points="565.5,-179.5 565.5,-198.5 612.5,-198.5 612.5,-179.5 565.5,-179.5"/>
<text text-anchor="middle" x="589" y="-186.5" font-family="Helvetica,sans-Serif" font-size="10.00">vector</text>
</a>
</g>
</g>
<!-- Node3&#45;&gt;Node5 -->
<g id="edge4" class="edge">
<title>Node3&#45;&gt;Node5</title>
<path fill="none" stroke="midnightblue" d="M617.39,-347.08C612.66,-320.95 598.8,-244.21 592.36,-208.58"/>
<polygon fill="midnightblue" stroke="midnightblue" points="595.77,-207.79 590.55,-198.57 588.88,-209.03 595.77,-207.79"/>
</g>
<!-- Node3&#45;&gt;Node6 -->
<g id="edge5" class="edge">
<title>Node3&#45;&gt;Node6</title>
<path fill="none" stroke="midnightblue" d="M578.37,-348.83C520.55,-338.63 415.01,-320 355.95,-309.58"/>
<polygon fill="midnightblue" stroke="midnightblue" points="356.29,-306.09 345.83,-307.79 355.07,-312.98 356.29,-306.09"/>
</g>
<!-- Node6&#45;&gt;Node5 -->
<g id="edge10" class="edge">
<title>Node6&#45;&gt;Node5</title>
<path fill="none" stroke="midnightblue" d="M345.65,-296.65C385.03,-291.66 452.45,-280.02 505,-255 531.37,-242.44 557.26,-220.54 573.18,-205.67"/>
<polygon fill="midnightblue" stroke="midnightblue" points="575.74,-208.06 580.54,-198.61 570.9,-203.01 575.74,-208.06"/>
</g>
<!-- Node7 -->
<g id="node7" class="node">
<title>Node7</title>
<g id="a_node7"><a xlink:title=" ">
<polygon fill="white" stroke="#bfbfbf" points="0,-179.5 0,-198.5 62,-198.5 62,-179.5 0,-179.5"/>
<text text-anchor="middle" x="31" y="-186.5" font-family="Helvetica,sans-Serif" font-size="10.00">cinttypes</text>
</a>
</g>
</g>
<!-- Node6&#45;&gt;Node7 -->
<g id="edge6" class="edge">
<title>Node6&#45;&gt;Node7</title>
<path fill="none" stroke="midnightblue" d="M280.14,-299.44C235,-297.36 152.52,-288.77 92,-255 71.18,-243.38 53.33,-222.21 42.42,-207.19"/>
<polygon fill="midnightblue" stroke="midnightblue" points="45.14,-204.98 36.55,-198.78 39.4,-208.98 45.14,-204.98"/>
</g>
<!-- Node8 -->
<g id="node8" class="node">
<title>Node8</title>
<g id="a_node8"><a xlink:title=" ">
<polygon fill="white" stroke="#bfbfbf" points="454.5,-179.5 454.5,-198.5 547.5,-198.5 547.5,-179.5 454.5,-179.5"/>
<text text-anchor="middle" x="501" y="-186.5" font-family="Helvetica,sans-Serif" font-size="10.00">unordered_map</text>
</a>
</g>
</g>
<!-- Node6&#45;&gt;Node8 -->
<g id="edge7" class="edge">
<title>Node6&#45;&gt;Node8</title>
<path fill="none" stroke="midnightblue" d="M345.66,-295.58C390.2,-288.9 466.69,-274.85 486,-255 497.72,-242.95 500.97,-223.66 501.59,-209.22"/>
<polygon fill="midnightblue" stroke="midnightblue" points="505.09,-208.92 501.63,-198.91 498.09,-208.89 505.09,-208.92"/>
</g>
<!-- Node9 -->
<g id="node9" class="node">
<title>Node9</title>
<g id="a_node9"><a xlink:title=" ">
<polygon fill="white" stroke="#bfbfbf" points="130,-179.5 130,-198.5 188,-198.5 188,-179.5 130,-179.5"/>
<text text-anchor="middle" x="159" y="-186.5" font-family="Helvetica,sans-Serif" font-size="10.00">memory</text>
</a>
</g>
</g>
<!-- Node6&#45;&gt;Node9 -->
<g id="edge8" class="edge">
<title>Node6&#45;&gt;Node9</title>
<path fill="none" stroke="midnightblue" d="M300.92,-291.37C274.6,-272.57 211.88,-227.77 179.35,-204.53"/>
<polygon fill="midnightblue" stroke="midnightblue" points="181.2,-201.56 171.03,-198.59 177.13,-207.25 181.2,-201.56"/>
</g>
<!-- Node10 -->
<g id="node10" class="node">
<title>Node10</title>
<g id="a_node10"><a xlink:title=" ">
<polygon fill="white" stroke="#bfbfbf" points="206,-179.5 206,-198.5 270,-198.5 270,-179.5 206,-179.5"/>
<text text-anchor="middle" x="238" y="-186.5" font-family="Helvetica,sans-Serif" font-size="10.00">algorithm</text>
</a>
</g>
</g>
<!-- Node6&#45;&gt;Node10 -->
<g id="edge9" class="edge">
<title>Node6&#45;&gt;Node10</title>
<path fill="none" stroke="midnightblue" d="M307.11,-291.37C294.74,-273.22 265.82,-230.8 249.58,-206.99"/>
<polygon fill="midnightblue" stroke="midnightblue" points="252.38,-204.88 243.86,-198.59 246.6,-208.83 252.38,-204.88"/>
</g>
<!-- Node11 -->
<g id="node11" class="node">
<title>Node11</title>
<g id="a_node11"><a xlink:title=" ">
<polygon fill="white" stroke="#bfbfbf" points="288.5,-179.5 288.5,-198.5 379.5,-198.5 379.5,-179.5 288.5,-179.5"/>
<text text-anchor="middle" x="334" y="-186.5" font-family="Helvetica,sans-Serif" font-size="10.00">Exceptions.hpp</text>
</a>
</g>
</g>
<!-- Node6&#45;&gt;Node11 -->
<g id="edge11" class="edge">
<title>Node6&#45;&gt;Node11</title>
<path fill="none" stroke="midnightblue" d="M314.65,-291.37C318.04,-273.62 325.85,-232.67 330.45,-208.6"/>
<polygon fill="midnightblue" stroke="midnightblue" points="333.92,-209.07 332.36,-198.59 327.05,-207.76 333.92,-209.07"/>
</g>
<!-- Node12 -->
<g id="node12" class="node">
<title>Node12</title>
<g id="a_node12"><a xlink:href="ComponentManager_8hpp.html" target="_top" xlink:title=" ">
<polygon fill="white" stroke="black" points="341,-235.5 341,-254.5 477,-254.5 477,-235.5 341,-235.5"/>
<text text-anchor="middle" x="409" y="-242.5" font-family="Helvetica,sans-Serif" font-size="10.00">ComponentManager.hpp</text>
</a>
</g>
</g>
<!-- Node6&#45;&gt;Node12 -->
<g id="edge12" class="edge">
<title>Node6&#45;&gt;Node12</title>
<path fill="none" stroke="midnightblue" d="M328.42,-291.32C343.54,-282.82 366.82,-269.73 384.47,-259.8"/>
<polygon fill="midnightblue" stroke="midnightblue" points="386.61,-262.61 393.61,-254.65 383.18,-256.51 386.61,-262.61"/>
</g>
<!-- Node13 -->
<g id="node13" class="node">
<title>Node13</title>
<g id="a_node13"><a xlink:href="IComponent_8hpp.html" target="_top" xlink:title=" ">
<polygon fill="white" stroke="black" points="630.5,-179.5 630.5,-198.5 727.5,-198.5 727.5,-179.5 630.5,-179.5"/>
<text text-anchor="middle" x="679" y="-186.5" font-family="Helvetica,sans-Serif" font-size="10.00">IComponent.hpp</text>
</a>
</g>
</g>
<!-- Node6&#45;&gt;Node13 -->
<g id="edge32" class="edge">
<title>Node6&#45;&gt;Node13</title>
<path fill="none" stroke="midnightblue" d="M345.56,-295.73C389.36,-289.47 469.32,-276.19 535,-255 578.2,-241.07 625.72,-217.98 653.93,-203.41"/>
<polygon fill="midnightblue" stroke="midnightblue" points="655.82,-206.37 663.06,-198.63 652.58,-200.16 655.82,-206.37"/>
</g>
<!-- Node20 -->
<g id="node20" class="node">
<title>Node20</title>
<g id="a_node20"><a xlink:href="EntityManager_8hpp.html" target="_top" xlink:title=" ">
<polygon fill="white" stroke="black" points="101,-235.5 101,-254.5 209,-254.5 209,-235.5 101,-235.5"/>
<text text-anchor="middle" x="155" y="-242.5" font-family="Helvetica,sans-Serif" font-size="10.00">EntityManager.hpp</text>
</a>
</g>
</g>
<!-- Node6&#45;&gt;Node20 -->
<g id="edge27" class="edge">
<title>Node6&#45;&gt;Node20</title>
<path fill="none" stroke="midnightblue" d="M287.96,-291.44C261.38,-282.36 219.19,-267.94 189.48,-257.78"/>
<polygon fill="midnightblue" stroke="midnightblue" points="190.51,-254.44 179.92,-254.52 188.25,-261.06 190.51,-254.44"/>
</g>
<!-- Node12&#45;&gt;Node4 -->
<g id="edge14" class="edge">
<title>Node12&#45;&gt;Node4</title>
<path fill="none" stroke="midnightblue" d="M477.04,-236.38C582.37,-224.58 780.87,-202.34 858.61,-193.63"/>
<polygon fill="midnightblue" stroke="midnightblue" points="859.21,-197.08 868.76,-192.49 858.43,-190.13 859.21,-197.08"/>
</g>
<!-- Node12&#45;&gt;Node5 -->
<g id="edge15" class="edge">
<title>Node12&#45;&gt;Node5</title>
<path fill="none" stroke="midnightblue" d="M437.52,-235.44C469.59,-225.82 521.62,-210.21 555.57,-200.03"/>
<polygon fill="midnightblue" stroke="midnightblue" points="556.92,-203.28 565.49,-197.05 554.9,-196.57 556.92,-203.28"/>
</g>
<!-- Node12&#45;&gt;Node8 -->
<g id="edge13" class="edge">
<title>Node12&#45;&gt;Node8</title>
<path fill="none" stroke="midnightblue" d="M423.78,-235.32C438.27,-226.82 460.57,-213.73 477.49,-203.8"/>
<polygon fill="midnightblue" stroke="midnightblue" points="479.4,-206.74 486.26,-198.65 475.86,-200.7 479.4,-206.74"/>
</g>
<!-- Node12&#45;&gt;Node9 -->
<g id="edge16" class="edge">
<title>Node12&#45;&gt;Node9</title>
<path fill="none" stroke="midnightblue" d="M367.5,-235.49C326.81,-227.08 262.74,-213.66 198,-199.19"/>
<polygon fill="midnightblue" stroke="midnightblue" points="198.55,-195.72 188.03,-196.95 197.02,-202.55 198.55,-195.72"/>
</g>
<!-- Node12&#45;&gt;Node10 -->
<g id="edge17" class="edge">
<title>Node12&#45;&gt;Node10</title>
<path fill="none" stroke="midnightblue" d="M381.9,-235.44C353.01,-226.32 307.08,-211.81 274.89,-201.65"/>
<polygon fill="midnightblue" stroke="midnightblue" points="275.56,-198.19 264.97,-198.52 273.45,-204.87 275.56,-198.19"/>
</g>
<!-- Node12&#45;&gt;Node11 -->
<g id="edge18" class="edge">
<title>Node12&#45;&gt;Node11</title>
<path fill="none" stroke="midnightblue" d="M396.95,-235.32C385.54,-227.11 368.17,-214.6 354.57,-204.81"/>
<polygon fill="midnightblue" stroke="midnightblue" points="356.43,-201.84 346.27,-198.83 352.34,-207.52 356.43,-201.84"/>
</g>
<!-- Node12&#45;&gt;Node13 -->
<g id="edge19" class="edge">
<title>Node12&#45;&gt;Node13</title>
<path fill="none" stroke="midnightblue" d="M451.78,-235.44C499.18,-225.96 575.63,-210.67 626.58,-200.48"/>
<polygon fill="midnightblue" stroke="midnightblue" points="627.3,-203.91 636.42,-198.52 625.93,-197.05 627.3,-203.91"/>
</g>
<!-- Node19 -->
<g id="node19" class="node">
<title>Node19</title>
<g id="a_node19"><a xlink:title=" ">
<polygon fill="white" stroke="#bfbfbf" points="398,-179.5 398,-198.5 436,-198.5 436,-179.5 398,-179.5"/>
<text text-anchor="middle" x="417" y="-186.5" font-family="Helvetica,sans-Serif" font-size="10.00">map</text>
</a>
</g>
</g>
<!-- Node12&#45;&gt;Node19 -->
<g id="edge26" class="edge">
<title>Node12&#45;&gt;Node19</title>
<path fill="none" stroke="midnightblue" d="M410.32,-235.08C411.38,-227.93 412.91,-217.64 414.23,-208.69"/>
<polygon fill="midnightblue" stroke="midnightblue" points="417.7,-209.16 415.7,-198.75 410.78,-208.13 417.7,-209.16"/>
</g>
<!-- Node14 -->
<g id="node14" class="node">
<title>Node14</title>
<g id="a_node14"><a xlink:title=" ">
<polygon fill="white" stroke="#bfbfbf" points="998.5,-6 998.5,-25 1055.5,-25 1055.5,-6 998.5,-6"/>
<text text-anchor="middle" x="1027" y="-13" font-family="Helvetica,sans-Serif" font-size="10.00">ostream</text>
</a>
</g>
</g>
<!-- Node13&#45;&gt;Node14 -->
<g id="edge20" class="edge">
<title>Node13&#45;&gt;Node14</title>
<path fill="none" stroke="midnightblue" d="M685.4,-179.22C695.84,-165.48 717.8,-138.83 742,-123 821.9,-70.73 931.05,-39.18 988.31,-25.15"/>
<polygon fill="midnightblue" stroke="midnightblue" points="989.47,-28.47 998.38,-22.73 987.84,-21.66 989.47,-28.47"/>
</g>
<!-- Node15 -->
<g id="node15" class="node">
<title>Node15</title>
<g id="a_node15"><a xlink:href="IXMLSerializable_8hpp.html" target="_top" xlink:title=" ">
<polygon fill="white" stroke="black" points="1387.5,-67.5 1387.5,-86.5 1506.5,-86.5 1506.5,-67.5 1387.5,-67.5"/>
<text text-anchor="middle" x="1447" y="-74.5" font-family="Helvetica,sans-Serif" font-size="10.00">IXMLSerializable.hpp</text>
</a>
</g>
</g>
<!-- Node13&#45;&gt;Node15 -->
<g id="edge21" class="edge">
<title>Node13&#45;&gt;Node15</title>
<path fill="none" stroke="midnightblue" d="M727.62,-181.04C859.37,-162.17 1223.61,-110 1377.23,-87.99"/>
<polygon fill="midnightblue" stroke="midnightblue" points="1378.08,-91.41 1387.48,-86.53 1377.08,-84.48 1378.08,-91.41"/>
</g>
<!-- Node15&#45;&gt;Node14 -->
<g id="edge22" class="edge">
<title>Node15&#45;&gt;Node14</title>
<path fill="none" stroke="midnightblue" d="M1387.27,-67.54C1299.85,-55.15 1139.46,-32.43 1065.83,-22"/>
<polygon fill="midnightblue" stroke="midnightblue" points="1066,-18.49 1055.61,-20.55 1065.02,-25.42 1066,-18.49"/>
</g>
<!-- Node15&#45;&gt;Node16 -->
<g id="edge23" class="edge">
<title>Node15&#45;&gt;Node16</title>
<path fill="none" stroke="midnightblue" d="M1489.41,-67.48C1546.45,-56.01 1647.14,-35.77 1702.94,-24.55"/>
<polygon fill="midnightblue" stroke="midnightblue" points="1703.71,-27.97 1712.82,-22.57 1702.33,-21.11 1703.71,-27.97"/>
</g>
<!-- Node17 -->
<g id="node17" class="node">
<title>Node17</title>
<g id="a_node17"><a xlink:title=" ">
<polygon fill="white" stroke="#bfbfbf" points="1312.5,-0.5 1312.5,-30.5 1425.5,-30.5 1425.5,-0.5 1312.5,-0.5"/>
<text text-anchor="start" x="1320.5" y="-18.5" font-family="Helvetica,sans-Serif" font-size="10.00">boost/property_tree</text>
<text text-anchor="middle" x="1369" y="-7.5" font-family="Helvetica,sans-Serif" font-size="10.00">/ptree.hpp</text>
</a>
</g>
</g>
<!-- Node15&#45;&gt;Node17 -->
<g id="edge24" class="edge">
<title>Node15&#45;&gt;Node17</title>
<path fill="none" stroke="midnightblue" d="M1435.82,-67.48C1425.36,-59.49 1409.32,-47.25 1395.57,-36.77"/>
<polygon fill="midnightblue" stroke="midnightblue" points="1397.46,-33.81 1387.38,-30.52 1393.21,-39.37 1397.46,-33.81"/>
</g>
<!-- Node18 -->
<g id="node18" class="node">
<title>Node18</title>
<g id="a_node18"><a xlink:title=" ">
<polygon fill="white" stroke="#bfbfbf" points="1443.5,-0.5 1443.5,-30.5 1556.5,-30.5 1556.5,-0.5 1443.5,-0.5"/>
<text text-anchor="start" x="1451.5" y="-18.5" font-family="Helvetica,sans-Serif" font-size="10.00">boost/property_tree</text>
<text text-anchor="middle" x="1500" y="-7.5" font-family="Helvetica,sans-Serif" font-size="10.00">/xml_parser.hpp</text>
</a>
</g>
</g>
<!-- Node15&#45;&gt;Node18 -->
<g id="edge25" class="edge">
<title>Node15&#45;&gt;Node18</title>
<path fill="none" stroke="midnightblue" d="M1454.59,-67.48C1461.37,-59.87 1471.59,-48.4 1480.61,-38.26"/>
<polygon fill="midnightblue" stroke="midnightblue" points="1483.47,-40.32 1487.51,-30.52 1478.24,-35.66 1483.47,-40.32"/>
</g>
<!-- Node20&#45;&gt;Node5 -->
<g id="edge28" class="edge">
<title>Node20&#45;&gt;Node5</title>
<path fill="none" stroke="midnightblue" d="M209.07,-240.75C284.68,-235.59 426.37,-223.68 555.29,-199.07"/>
<polygon fill="midnightblue" stroke="midnightblue" points="556.19,-202.46 565.34,-197.12 554.85,-195.59 556.19,-202.46"/>
</g>
<!-- Node20&#45;&gt;Node7 -->
<g id="edge29" class="edge">
<title>Node20&#45;&gt;Node7</title>
<path fill="none" stroke="midnightblue" d="M135.35,-235.44C115.04,-226.6 83.1,-212.69 59.9,-202.59"/>
<polygon fill="midnightblue" stroke="midnightblue" points="61.12,-199.3 50.56,-198.52 58.33,-205.72 61.12,-199.3"/>
</g>
<!-- Node20&#45;&gt;Node9 -->
<g id="edge30" class="edge">
<title>Node20&#45;&gt;Node9</title>
<path fill="none" stroke="midnightblue" d="M155.66,-235.08C156.18,-228.01 156.94,-217.86 157.59,-208.99"/>
<polygon fill="midnightblue" stroke="midnightblue" points="161.1,-208.98 158.35,-198.75 154.12,-208.47 161.1,-208.98"/>
</g>
<!-- Node21 -->
<g id="node21" class="node">
<title>Node21</title>
<g id="a_node21"><a xlink:title=" ">
<polygon fill="white" stroke="#bfbfbf" points="80,-179.5 80,-198.5 112,-198.5 112,-179.5 80,-179.5"/>
<text text-anchor="middle" x="96" y="-186.5" font-family="Helvetica,sans-Serif" font-size="10.00">list</text>
</a>
</g>
</g>
<!-- Node20&#45;&gt;Node21 -->
<g id="edge31" class="edge">
<title>Node20&#45;&gt;Node21</title>
<path fill="none" stroke="midnightblue" d="M145.52,-235.32C136.8,-227.34 123.66,-215.31 113.1,-205.65"/>
<polygon fill="midnightblue" stroke="midnightblue" points="115.39,-203 105.65,-198.83 110.67,-208.17 115.39,-203"/>
</g>
<!-- Node22&#45;&gt;Node7 -->
<g id="edge35" class="edge">
<title>Node22&#45;&gt;Node7</title>
<path fill="none" stroke="midnightblue" d="M1106.25,-409.56C996.94,-404.81 764.66,-392.46 570,-367 435.94,-349.46 402.82,-341.04 271,-311 177.66,-289.73 136.95,-315.8 63,-255 48.6,-243.16 40.15,-223.24 35.58,-208.57"/>
<polygon fill="midnightblue" stroke="midnightblue" points="38.86,-207.29 32.82,-198.59 32.12,-209.16 38.86,-207.29"/>
</g>
<!-- Node22&#45;&gt;Node13 -->
<g id="edge36" class="edge">
<title>Node22&#45;&gt;Node13</title>
<path fill="none" stroke="midnightblue" d="M1109.83,-403.45C1036.92,-391.1 910.92,-363.71 815,-311 763.99,-282.97 715.98,-232.64 693.06,-206.61"/>
<polygon fill="midnightblue" stroke="midnightblue" points="695.47,-204.05 686.28,-198.78 690.18,-208.63 695.47,-204.05"/>
</g>
<!-- Node23 -->
<g id="node23" class="node">
<title>Node23</title>
<g id="a_node23"><a xlink:href="Model_8hpp.html" target="_top" xlink:title=" ">
<polygon fill="white" stroke="black" points="1135,-347.5 1135,-366.5 1203,-366.5 1203,-347.5 1135,-347.5"/>
<text text-anchor="middle" x="1169" y="-354.5" font-family="Helvetica,sans-Serif" font-size="10.00">Model.hpp</text>
</a>
</g>
</g>
<!-- Node22&#45;&gt;Node23 -->
<g id="edge37" class="edge">
<title>Node22&#45;&gt;Node23</title>
<path fill="none" stroke="midnightblue" d="M1169,-403.08C1169,-396.01 1169,-385.86 1169,-376.99"/>
<polygon fill="midnightblue" stroke="midnightblue" points="1172.5,-376.75 1169,-366.75 1165.5,-376.75 1172.5,-376.75"/>
</g>
<!-- Node25 -->
<g id="node25" class="node">
<title>Node25</title>
<g id="a_node25"><a xlink:href="Vector3_8hpp.html" target="_top" xlink:title=" ">
<polygon fill="white" stroke="black" points="1545,-123.5 1545,-142.5 1619,-142.5 1619,-123.5 1545,-123.5"/>
<text text-anchor="middle" x="1582" y="-130.5" font-family="Helvetica,sans-Serif" font-size="10.00">Vector3.hpp</text>
</a>
</g>
</g>
<!-- Node22&#45;&gt;Node25 -->
<g id="edge88" class="edge">
<title>Node22&#45;&gt;Node25</title>
<path fill="none" stroke="midnightblue" d="M1231.58,-406.85C1383.43,-393.53 1759,-355.2 1759,-302 1759,-302 1759,-302 1759,-244 1759,-182.65 1681.34,-154.31 1628.9,-142.17"/>
<polygon fill="midnightblue" stroke="midnightblue" points="1629.62,-138.74 1619.11,-140.02 1628.12,-145.58 1629.62,-138.74"/>
</g>
<!-- Node29 -->
<g id="node29" class="node">
<title>Node29</title>
<g id="a_node29"><a xlink:href="Texture_8hpp.html" target="_top" xlink:title=" ">
<polygon fill="white" stroke="black" points="1221,-291.5 1221,-310.5 1295,-310.5 1295,-291.5 1221,-291.5"/>
<text text-anchor="middle" x="1258" y="-298.5" font-family="Helvetica,sans-Serif" font-size="10.00">Texture.hpp</text>
</a>
</g>
</g>
<!-- Node22&#45;&gt;Node29 -->
<g id="edge87" class="edge">
<title>Node22&#45;&gt;Node29</title>
<path fill="none" stroke="midnightblue" d="M1177.97,-403.39C1186.96,-394.58 1201,-380.34 1212,-367 1224.73,-351.55 1237.78,-332.77 1246.72,-319.38"/>
<polygon fill="midnightblue" stroke="midnightblue" points="1249.85,-320.98 1252.43,-310.71 1244.01,-317.13 1249.85,-320.98"/>
</g>
<!-- Node23&#45;&gt;Node4 -->
<g id="edge39" class="edge">
<title>Node23&#45;&gt;Node4</title>
<path fill="none" stroke="midnightblue" d="M1134.92,-347.42C1087.42,-334.11 1000.54,-304.69 942,-255 925.83,-241.27 911.32,-221.72 901.95,-207.65"/>
<polygon fill="midnightblue" stroke="midnightblue" points="904.69,-205.43 896.33,-198.92 898.81,-209.22 904.69,-205.43"/>
</g>
<!-- Node24 -->
<g id="node24" class="node">
<title>Node24</title>
<g id="a_node24"><a xlink:title=" ">
<polygon fill="white" stroke="#bfbfbf" points="1220.5,-67.5 1220.5,-86.5 1273.5,-86.5 1273.5,-67.5 1220.5,-67.5"/>
<text text-anchor="middle" x="1247" y="-74.5" font-family="Helvetica,sans-Serif" font-size="10.00">raylib.h</text>
</a>
</g>
</g>
<!-- Node23&#45;&gt;Node24 -->
<g id="edge38" class="edge">
<title>Node23&#45;&gt;Node24</title>
<path fill="none" stroke="midnightblue" d="M1134.95,-354.19C1050.37,-349.35 835.99,-334.82 815,-311 809.12,-304.33 813.8,-299.81 815,-291 826.76,-204.44 836.6,-157.15 917,-123 969.25,-100.81 1135.47,-86.19 1210.1,-80.58"/>
<polygon fill="midnightblue" stroke="midnightblue" points="1210.71,-84.04 1220.43,-79.81 1210.19,-77.06 1210.71,-84.04"/>
</g>
<!-- Node23&#45;&gt;Node25 -->
<g id="edge40" class="edge">
<title>Node23&#45;&gt;Node25</title>
<path fill="none" stroke="midnightblue" d="M1203.17,-355.05C1310.34,-351.25 1636.37,-333.36 1698,-255 1712.87,-236.09 1694.78,-196.57 1679,-179 1665.06,-163.47 1644.66,-152.91 1626.16,-145.94"/>
<polygon fill="midnightblue" stroke="midnightblue" points="1627.3,-142.63 1616.7,-142.61 1624.98,-149.23 1627.3,-142.63"/>
</g>
<!-- Node28 -->
<g id="node28" class="node">
<title>Node28</title>
<g id="a_node28"><a xlink:href="Color_8hpp.html" target="_top" xlink:title=" ">
<polygon fill="white" stroke="black" points="1275,-179.5 1275,-198.5 1337,-198.5 1337,-179.5 1275,-179.5"/>
<text text-anchor="middle" x="1306" y="-186.5" font-family="Helvetica,sans-Serif" font-size="10.00">Color.hpp</text>
</a>
</g>
</g>
<!-- Node23&#45;&gt;Node28 -->
<g id="edge45" class="edge">
<title>Node23&#45;&gt;Node28</title>
<path fill="none" stroke="midnightblue" d="M1203.17,-350.42C1232.1,-344.41 1273.61,-332.64 1304,-311 1335.61,-288.49 1361.01,-271.19 1347,-235 1342.55,-223.5 1333.63,-213.13 1325.25,-205.25"/>
<polygon fill="midnightblue" stroke="midnightblue" points="1327.37,-202.46 1317.54,-198.51 1322.76,-207.73 1327.37,-202.46"/>
</g>
<!-- Node23&#45;&gt;Node29 -->
<g id="edge48" class="edge">
<title>Node23&#45;&gt;Node29</title>
<path fill="none" stroke="midnightblue" d="M1183.3,-347.32C1197.18,-338.9 1218.49,-325.97 1234.8,-316.07"/>
<polygon fill="midnightblue" stroke="midnightblue" points="1237,-318.83 1243.74,-310.65 1233.37,-312.85 1237,-318.83"/>
</g>
<!-- Node36 -->
<g id="node36" class="node">
<title>Node36</title>
<g id="a_node36"><a xlink:href="Mesh_8hpp.html" target="_top" xlink:title=" ">
<polygon fill="white" stroke="black" points="1053,-291.5 1053,-310.5 1117,-310.5 1117,-291.5 1053,-291.5"/>
<text text-anchor="middle" x="1085" y="-298.5" font-family="Helvetica,sans-Serif" font-size="10.00">Mesh.hpp</text>
</a>
</g>
</g>
<!-- Node23&#45;&gt;Node36 -->
<g id="edge72" class="edge">
<title>Node23&#45;&gt;Node36</title>
<path fill="none" stroke="midnightblue" d="M1155.5,-347.32C1142.4,-338.9 1122.29,-325.97 1106.89,-316.07"/>
<polygon fill="midnightblue" stroke="midnightblue" points="1108.77,-313.12 1098.46,-310.65 1104.98,-319.01 1108.77,-313.12"/>
</g>
<!-- Node37 -->
<g id="node37" class="node">
<title>Node37</title>
<g id="a_node37"><a xlink:href="IDrawable_8hpp.html" target="_top" xlink:title=" ">
<polygon fill="white" stroke="black" points="1455.5,-235.5 1455.5,-254.5 1542.5,-254.5 1542.5,-235.5 1455.5,-235.5"/>
<text text-anchor="middle" x="1499" y="-242.5" font-family="Helvetica,sans-Serif" font-size="10.00">IDrawable.hpp</text>
</a>
</g>
</g>
<!-- Node23&#45;&gt;Node37 -->
<g id="edge77" class="edge">
<title>Node23&#45;&gt;Node37</title>
<path fill="none" stroke="midnightblue" d="M1203.45,-353.17C1267.18,-347.46 1400.64,-333.21 1441,-311 1461.41,-299.77 1478.26,-278.52 1488.44,-263.38"/>
<polygon fill="midnightblue" stroke="midnightblue" points="1491.44,-265.19 1493.89,-254.88 1485.54,-261.41 1491.44,-265.19"/>
</g>
<!-- Node38 -->
<g id="node38" class="node">
<title>Node38</title>
<g id="a_node38"><a xlink:href="Shader_8hpp.html" target="_top" xlink:title=" ">
<polygon fill="white" stroke="black" points="823.5,-291.5 823.5,-310.5 894.5,-310.5 894.5,-291.5 823.5,-291.5"/>
<text text-anchor="middle" x="859" y="-298.5" font-family="Helvetica,sans-Serif" font-size="10.00">Shader.hpp</text>
</a>
</g>
</g>
<!-- Node23&#45;&gt;Node38 -->
<g id="edge81" class="edge">
<title>Node23&#45;&gt;Node38</title>
<path fill="none" stroke="midnightblue" d="M1134.92,-350.18C1085.22,-341.67 989.98,-325.3 909,-311 907.53,-310.74 906.04,-310.48 904.54,-310.21"/>
<polygon fill="midnightblue" stroke="midnightblue" points="904.96,-306.73 894.5,-308.42 903.73,-313.62 904.96,-306.73"/>
</g>
<!-- Node39 -->
<g id="node39" class="node">
<title>Node39</title>
<g id="a_node39"><a xlink:title=" ">
<polygon fill="white" stroke="#bfbfbf" points="1135.5,-291.5 1135.5,-310.5 1202.5,-310.5 1202.5,-291.5 1135.5,-291.5"/>
<text text-anchor="middle" x="1169" y="-298.5" font-family="Helvetica,sans-Serif" font-size="10.00">raymath.h</text>
</a>
</g>
</g>
<!-- Node23&#45;&gt;Node39 -->
<g id="edge86" class="edge">
<title>Node23&#45;&gt;Node39</title>
<path fill="none" stroke="midnightblue" d="M1169,-347.08C1169,-340.01 1169,-329.86 1169,-320.99"/>
<polygon fill="midnightblue" stroke="midnightblue" points="1172.5,-320.75 1169,-310.75 1165.5,-320.75 1172.5,-320.75"/>
</g>
<!-- Node25&#45;&gt;Node15 -->
<g id="edge42" class="edge">
<title>Node25&#45;&gt;Node15</title>
<path fill="none" stroke="midnightblue" d="M1560.61,-123.44C1538.29,-114.52 1503.1,-100.44 1477.79,-90.32"/>
<polygon fill="midnightblue" stroke="midnightblue" points="1478.88,-86.98 1468.29,-86.52 1476.28,-93.48 1478.88,-86.98"/>
</g>
<!-- Node25&#45;&gt;Node24 -->
<g id="edge41" class="edge">
<title>Node25&#45;&gt;Node24</title>
<path fill="none" stroke="midnightblue" d="M1544.87,-126.01C1480.32,-115.61 1348.17,-94.31 1283.83,-83.94"/>
<polygon fill="midnightblue" stroke="midnightblue" points="1284.17,-80.45 1273.74,-82.31 1283.06,-87.36 1284.17,-80.45"/>
</g>
<!-- Node26 -->
<g id="node26" class="node">
<title>Node26</title>
<g id="a_node26"><a xlink:title=" ">
<polygon fill="white" stroke="#bfbfbf" points="1524.5,-67.5 1524.5,-86.5 1571.5,-86.5 1571.5,-67.5 1524.5,-67.5"/>
<text text-anchor="middle" x="1548" y="-74.5" font-family="Helvetica,sans-Serif" font-size="10.00">cmath</text>
</a>
</g>
</g>
<!-- Node25&#45;&gt;Node26 -->
<g id="edge43" class="edge">
<title>Node25&#45;&gt;Node26</title>
<path fill="none" stroke="midnightblue" d="M1576.39,-123.08C1571.63,-115.53 1564.68,-104.49 1558.85,-95.23"/>
<polygon fill="midnightblue" stroke="midnightblue" points="1561.8,-93.35 1553.51,-86.75 1555.88,-97.08 1561.8,-93.35"/>
</g>
<!-- Node27 -->
<g id="node27" class="node">
<title>Node27</title>
<g id="a_node27"><a xlink:title=" ">
<polygon fill="white" stroke="#bfbfbf" points="1590,-67.5 1590,-86.5 1646,-86.5 1646,-67.5 1590,-67.5"/>
<text text-anchor="middle" x="1618" y="-74.5" font-family="Helvetica,sans-Serif" font-size="10.00">sstream</text>
</a>
</g>
</g>
<!-- Node25&#45;&gt;Node27 -->
<g id="edge44" class="edge">
<title>Node25&#45;&gt;Node27</title>
<path fill="none" stroke="midnightblue" d="M1587.94,-123.08C1592.98,-115.53 1600.34,-104.49 1606.51,-95.23"/>
<polygon fill="midnightblue" stroke="midnightblue" points="1609.53,-97.01 1612.17,-86.75 1603.71,-93.13 1609.53,-97.01"/>
</g>
<!-- Node28&#45;&gt;Node24 -->
<g id="edge46" class="edge">
<title>Node28&#45;&gt;Node24</title>
<path fill="none" stroke="midnightblue" d="M1301.37,-179.37C1291.72,-161.38 1269.29,-119.55 1256.45,-95.63"/>
<polygon fill="midnightblue" stroke="midnightblue" points="1259.42,-93.75 1251.61,-86.59 1253.25,-97.06 1259.42,-93.75"/>
</g>
<!-- Node28&#45;&gt;Node25 -->
<g id="edge47" class="edge">
<title>Node28&#45;&gt;Node25</title>
<path fill="none" stroke="midnightblue" d="M1337.12,-181.91C1385.3,-172.48 1478.25,-154.3 1534.75,-143.24"/>
<polygon fill="midnightblue" stroke="midnightblue" points="1535.72,-146.62 1544.86,-141.27 1534.37,-139.75 1535.72,-146.62"/>
</g>
<!-- Node29&#45;&gt;Node4 -->
<g id="edge50" class="edge">
<title>Node29&#45;&gt;Node4</title>
<path fill="none" stroke="midnightblue" d="M1228.45,-291.48C1197.42,-282.5 1147.24,-267.91 1104,-255 1039.49,-235.73 964.18,-212.6 922.62,-199.78"/>
<polygon fill="midnightblue" stroke="midnightblue" points="923.64,-196.43 913.05,-196.82 921.57,-203.12 923.64,-196.43"/>
</g>
<!-- Node29&#45;&gt;Node24 -->
<g id="edge49" class="edge">
<title>Node29&#45;&gt;Node24</title>
<path fill="none" stroke="midnightblue" d="M1249.79,-291.18C1242.46,-282.66 1232.24,-269.02 1228,-255 1211.02,-198.93 1229.61,-128.84 1240.4,-96.24"/>
<polygon fill="midnightblue" stroke="midnightblue" points="1243.74,-97.29 1243.69,-86.7 1237.12,-95.01 1243.74,-97.29"/>
</g>
<!-- Node29&#45;&gt;Node28 -->
<g id="edge60" class="edge">
<title>Node29&#45;&gt;Node28</title>
<path fill="none" stroke="midnightblue" d="M1284.93,-291.36C1301.72,-284.41 1321.98,-272.82 1332,-255 1340.8,-239.36 1330.8,-220.14 1320.76,-206.67"/>
<polygon fill="midnightblue" stroke="midnightblue" points="1323.36,-204.32 1314.35,-198.74 1317.91,-208.72 1323.36,-204.32"/>
</g>
<!-- Node30 -->
<g id="node30" class="node">
<title>Node30</title>
<g id="a_node30"><a xlink:href="Image_8hpp.html" target="_top" xlink:title=" ">
<polygon fill="white" stroke="black" points="1113,-235.5 1113,-254.5 1181,-254.5 1181,-235.5 1113,-235.5"/>
<text text-anchor="middle" x="1147" y="-242.5" font-family="Helvetica,sans-Serif" font-size="10.00">Image.hpp</text>
</a>
</g>
</g>
<!-- Node29&#45;&gt;Node30 -->
<g id="edge51" class="edge">
<title>Node29&#45;&gt;Node30</title>
<path fill="none" stroke="midnightblue" d="M1240.17,-291.32C1222.28,-282.62 1194.52,-269.12 1173.95,-259.11"/>
<polygon fill="midnightblue" stroke="midnightblue" points="1175.31,-255.88 1164.79,-254.65 1172.25,-262.18 1175.31,-255.88"/>
</g>
<!-- Node31 -->
<g id="node31" class="node">
<title>Node31</title>
<g id="a_node31"><a xlink:href="Vector2_8hpp.html" target="_top" xlink:title=" ">
<polygon fill="white" stroke="black" points="1431,-179.5 1431,-198.5 1505,-198.5 1505,-179.5 1431,-179.5"/>
<text text-anchor="middle" x="1468" y="-186.5" font-family="Helvetica,sans-Serif" font-size="10.00">Vector2.hpp</text>
</a>
</g>
</g>
<!-- Node29&#45;&gt;Node31 -->
<g id="edge61" class="edge">
<title>Node29&#45;&gt;Node31</title>
<path fill="none" stroke="midnightblue" d="M1275.13,-291.5C1293.09,-282.54 1322.13,-267.97 1347,-255 1380.6,-237.48 1419.11,-216.67 1443.49,-203.4"/>
<polygon fill="midnightblue" stroke="midnightblue" points="1445.3,-206.4 1452.4,-198.54 1441.95,-200.25 1445.3,-206.4"/>
</g>
<!-- Node32 -->
<g id="node32" class="node">
<title>Node32</title>
<g id="a_node32"><a xlink:href="Camera3D_8hpp.html" target="_top" xlink:title=" ">
<polygon fill="white" stroke="black" points="1599.5,-235.5 1599.5,-254.5 1688.5,-254.5 1688.5,-235.5 1599.5,-235.5"/>
<text text-anchor="middle" x="1644" y="-242.5" font-family="Helvetica,sans-Serif" font-size="10.00">Camera3D.hpp</text>
</a>
</g>
</g>
<!-- Node29&#45;&gt;Node32 -->
<g id="edge62" class="edge">
<title>Node29&#45;&gt;Node32</title>
<path fill="none" stroke="midnightblue" d="M1295.3,-295.05C1356.03,-286.94 1480.08,-270.22 1585,-255 1586.3,-254.81 1587.61,-254.62 1588.94,-254.43"/>
<polygon fill="midnightblue" stroke="midnightblue" points="1589.85,-257.83 1599.23,-252.9 1588.83,-250.9 1589.85,-257.83"/>
</g>
<!-- Node34 -->
<g id="node34" class="node">
<title>Node34</title>
<g id="a_node34"><a xlink:href="Rectangle_8hpp.html" target="_top" xlink:title=" ">
<polygon fill="white" stroke="black" points="1237,-235.5 1237,-254.5 1323,-254.5 1323,-235.5 1237,-235.5"/>
<text text-anchor="middle" x="1280" y="-242.5" font-family="Helvetica,sans-Serif" font-size="10.00">Rectangle.hpp</text>
</a>
</g>
</g>
<!-- Node29&#45;&gt;Node34 -->
<g id="edge68" class="edge">
<title>Node29&#45;&gt;Node34</title>
<path fill="none" stroke="midnightblue" d="M1261.63,-291.08C1264.61,-283.77 1268.93,-273.18 1272.62,-264.1"/>
<polygon fill="midnightblue" stroke="midnightblue" points="1275.9,-265.33 1276.43,-254.75 1269.42,-262.69 1275.9,-265.33"/>
</g>
<!-- Node35 -->
<g id="node35" class="node">
<title>Node35</title>
<g id="a_node35"><a xlink:href="IAsset_8hpp.html" target="_top" xlink:title=" ">
<polygon fill="white" stroke="black" points="951,-235.5 951,-254.5 1019,-254.5 1019,-235.5 951,-235.5"/>
<text text-anchor="middle" x="985" y="-242.5" font-family="Helvetica,sans-Serif" font-size="10.00">IAsset.hpp</text>
</a>
</g>
</g>
<!-- Node29&#45;&gt;Node35 -->
<g id="edge71" class="edge">
<title>Node29&#45;&gt;Node35</title>
<path fill="none" stroke="midnightblue" d="M1220.9,-292.66C1170.91,-282.77 1082.07,-265.2 1028.84,-254.67"/>
<polygon fill="midnightblue" stroke="midnightblue" points="1029.5,-251.23 1019.01,-252.73 1028.14,-258.1 1029.5,-251.23"/>
</g>
<!-- Node30&#45;&gt;Node4 -->
<g id="edge52" class="edge">
<title>Node30&#45;&gt;Node4</title>
<path fill="none" stroke="midnightblue" d="M1112.74,-236.77C1062.98,-226.28 971.39,-206.96 922.96,-196.74"/>
<polygon fill="midnightblue" stroke="midnightblue" points="923.54,-193.29 913.03,-194.65 922.09,-200.14 923.54,-193.29"/>
</g>
<!-- Node30&#45;&gt;Node24 -->
<g id="edge53" class="edge">
<title>Node30&#45;&gt;Node24</title>
<path fill="none" stroke="midnightblue" d="M1148.9,-235.4C1153.82,-214.57 1168.44,-160.4 1195,-123 1203.32,-111.29 1215.3,-100.65 1225.67,-92.65"/>
<polygon fill="midnightblue" stroke="midnightblue" points="1227.91,-95.35 1233.88,-86.6 1223.76,-89.72 1227.91,-95.35"/>
</g>
<!-- Node30&#45;&gt;Node28 -->
<g id="edge54" class="edge">
<title>Node30&#45;&gt;Node28</title>
<path fill="none" stroke="midnightblue" d="M1172.19,-235.44C1198.94,-226.36 1241.4,-211.94 1271.31,-201.78"/>
<polygon fill="midnightblue" stroke="midnightblue" points="1272.58,-205.05 1280.92,-198.52 1270.33,-198.42 1272.58,-205.05"/>
</g>
<!-- Node30&#45;&gt;Node31 -->
<g id="edge55" class="edge">
<title>Node30&#45;&gt;Node31</title>
<path fill="none" stroke="midnightblue" d="M1181.05,-238.27C1238.64,-228.58 1355.37,-208.95 1420.81,-197.94"/>
<polygon fill="midnightblue" stroke="midnightblue" points="1421.58,-201.36 1430.86,-196.25 1420.42,-194.46 1421.58,-201.36"/>
</g>
<!-- Node31&#45;&gt;Node15 -->
<g id="edge59" class="edge">
<title>Node31&#45;&gt;Node15</title>
<path fill="none" stroke="midnightblue" d="M1466.35,-179.37C1462.96,-161.62 1455.15,-120.67 1450.55,-96.6"/>
<polygon fill="midnightblue" stroke="midnightblue" points="1453.95,-95.76 1448.64,-86.59 1447.08,-97.07 1453.95,-95.76"/>
</g>
<!-- Node31&#45;&gt;Node24 -->
<g id="edge56" class="edge">
<title>Node31&#45;&gt;Node24</title>
<path fill="none" stroke="midnightblue" d="M1463.64,-179.37C1456.11,-165.33 1439.28,-137.67 1417,-123 1376.27,-96.19 1320.18,-85.32 1283.76,-80.93"/>
<polygon fill="midnightblue" stroke="midnightblue" points="1283.9,-77.42 1273.58,-79.81 1283.14,-84.38 1283.9,-77.42"/>
</g>
<!-- Node31&#45;&gt;Node25 -->
<g id="edge58" class="edge">
<title>Node31&#45;&gt;Node25</title>
<path fill="none" stroke="midnightblue" d="M1486.06,-179.44C1504.57,-170.68 1533.58,-156.94 1554.86,-146.86"/>
<polygon fill="midnightblue" stroke="midnightblue" points="1556.48,-149.96 1564.02,-142.52 1553.49,-143.63 1556.48,-149.96"/>
</g>
<!-- Node31&#45;&gt;Node26 -->
<g id="edge57" class="edge">
<title>Node31&#45;&gt;Node26</title>
<path fill="none" stroke="midnightblue" d="M1474.28,-179.37C1487.48,-161.22 1518.33,-118.8 1535.64,-94.99"/>
<polygon fill="midnightblue" stroke="midnightblue" points="1538.7,-96.74 1541.75,-86.59 1533.04,-92.62 1538.7,-96.74"/>
</g>
<!-- Node32&#45;&gt;Node24 -->
<g id="edge63" class="edge">
<title>Node32&#45;&gt;Node24</title>
<path fill="none" stroke="midnightblue" d="M1599.36,-240.56C1553.29,-235.74 1480.16,-224.51 1422,-199 1395.62,-187.43 1340.79,-139.24 1317,-123 1301.39,-112.35 1283.46,-100.83 1269.65,-92.11"/>
<polygon fill="midnightblue" stroke="midnightblue" points="1271.16,-88.93 1260.83,-86.57 1267.43,-94.86 1271.16,-88.93"/>
</g>
<!-- Node32&#45;&gt;Node25 -->
<g id="edge65" class="edge">
<title>Node32&#45;&gt;Node25</title>
<path fill="none" stroke="midnightblue" d="M1650.79,-235.48C1660.22,-222.54 1674.95,-197.49 1664,-179 1655.03,-163.84 1638.93,-153.45 1623.37,-146.5"/>
<polygon fill="midnightblue" stroke="midnightblue" points="1624.39,-143.14 1613.81,-142.62 1621.75,-149.63 1624.39,-143.14"/>
</g>
<!-- Node32&#45;&gt;Node31 -->
<g id="edge64" class="edge">
<title>Node32&#45;&gt;Node31</title>
<path fill="none" stroke="midnightblue" d="M1616.11,-235.44C1586.25,-226.28 1538.69,-211.69 1505.54,-201.52"/>
<polygon fill="midnightblue" stroke="midnightblue" points="1506.34,-198.1 1495.76,-198.52 1504.29,-204.8 1506.34,-198.1"/>
</g>
<!-- Node33 -->
<g id="node33" class="node">
<title>Node33</title>
<g id="a_node33"><a xlink:href="Ray_8hpp.html" target="_top" xlink:title=" ">
<polygon fill="white" stroke="black" points="1599.5,-179.5 1599.5,-198.5 1654.5,-198.5 1654.5,-179.5 1599.5,-179.5"/>
<text text-anchor="middle" x="1627" y="-186.5" font-family="Helvetica,sans-Serif" font-size="10.00">Ray.hpp</text>
</a>
</g>
</g>
<!-- Node32&#45;&gt;Node33 -->
<g id="edge66" class="edge">
<title>Node32&#45;&gt;Node33</title>
<path fill="none" stroke="midnightblue" d="M1641.19,-235.08C1638.92,-227.85 1635.63,-217.41 1632.79,-208.4"/>
<polygon fill="midnightblue" stroke="midnightblue" points="1636.1,-207.24 1629.75,-198.75 1629.42,-209.34 1636.1,-207.24"/>
</g>
<!-- Node33&#45;&gt;Node25 -->
<g id="edge67" class="edge">
<title>Node33&#45;&gt;Node25</title>
<path fill="none" stroke="midnightblue" d="M1619.57,-179.08C1613.15,-171.38 1603.69,-160.03 1595.88,-150.65"/>
<polygon fill="midnightblue" stroke="midnightblue" points="1598.38,-148.19 1589.29,-142.75 1593.01,-152.67 1598.38,-148.19"/>
</g>
<!-- Node34&#45;&gt;Node24 -->
<g id="edge69" class="edge">
<title>Node34&#45;&gt;Node24</title>
<path fill="none" stroke="midnightblue" d="M1276.94,-235.48C1273.81,-226.5 1269,-211.91 1266,-199 1257.67,-163.23 1251.93,-120.64 1249.08,-96.72"/>
<polygon fill="midnightblue" stroke="midnightblue" points="1252.53,-96.12 1247.91,-86.59 1245.58,-96.93 1252.53,-96.12"/>
</g>
<!-- Node34&#45;&gt;Node28 -->
<g id="edge70" class="edge">
<title>Node34&#45;&gt;Node28</title>
<path fill="none" stroke="midnightblue" d="M1284.29,-235.08C1287.85,-227.69 1293.02,-216.95 1297.42,-207.81"/>
<polygon fill="midnightblue" stroke="midnightblue" points="1300.6,-209.28 1301.79,-198.75 1294.29,-206.24 1300.6,-209.28"/>
</g>
<!-- Node36&#45;&gt;Node24 -->
<g id="edge73" class="edge">
<title>Node36&#45;&gt;Node24</title>
<path fill="none" stroke="midnightblue" d="M1086.66,-291.28C1089.29,-278.52 1095.04,-254.17 1104,-235 1129.37,-180.73 1136.52,-165.25 1179,-123 1191.48,-110.59 1207.87,-99.62 1221.44,-91.62"/>
<polygon fill="midnightblue" stroke="midnightblue" points="1223.34,-94.57 1230.29,-86.57 1219.87,-88.48 1223.34,-94.57"/>
</g>
<!-- Node36&#45;&gt;Node25 -->
<g id="edge75" class="edge">
<title>Node36&#45;&gt;Node25</title>
<path fill="none" stroke="midnightblue" d="M1117.03,-292.7C1120.38,-292.07 1123.75,-291.48 1127,-291 1220.75,-277.04 1479.88,-316.5 1552,-255 1581.68,-229.69 1584.44,-180.03 1583.47,-152.86"/>
<polygon fill="midnightblue" stroke="midnightblue" points="1586.96,-152.52 1582.9,-142.73 1579.97,-152.92 1586.96,-152.52"/>
</g>
<!-- Node36&#45;&gt;Node30 -->
<g id="edge74" class="edge">
<title>Node36&#45;&gt;Node30</title>
<path fill="none" stroke="midnightblue" d="M1094.96,-291.32C1104.13,-283.34 1117.94,-271.31 1129.03,-261.65"/>
<polygon fill="midnightblue" stroke="midnightblue" points="1131.62,-264.04 1136.86,-254.83 1127.02,-258.76 1131.62,-264.04"/>
</g>
<!-- Node36&#45;&gt;Node35 -->
<g id="edge76" class="edge">
<title>Node36&#45;&gt;Node35</title>
<path fill="none" stroke="midnightblue" d="M1068.93,-291.32C1053.04,-282.74 1028.49,-269.49 1010.04,-259.52"/>
<polygon fill="midnightblue" stroke="midnightblue" points="1011.49,-256.33 1001.03,-254.65 1008.16,-262.49 1011.49,-256.33"/>
</g>
<!-- Node37&#45;&gt;Node24 -->
<g id="edge78" class="edge">
<title>Node37&#45;&gt;Node24</title>
<path fill="none" stroke="midnightblue" d="M1471.18,-235.37C1448.21,-227.61 1415.26,-214.99 1389,-199 1338.08,-167.99 1286.97,-119.01 1262.27,-93.94"/>
<polygon fill="midnightblue" stroke="midnightblue" points="1264.7,-91.42 1255.21,-86.7 1259.68,-96.3 1264.7,-91.42"/>
</g>
<!-- Node37&#45;&gt;Node25 -->
<g id="edge79" class="edge">
<title>Node37&#45;&gt;Node25</title>
<path fill="none" stroke="midnightblue" d="M1505.51,-235.37C1519.27,-217.14 1551.5,-174.43 1569.42,-150.68"/>
<polygon fill="midnightblue" stroke="midnightblue" points="1572.29,-152.68 1575.52,-142.59 1566.7,-148.47 1572.29,-152.68"/>
</g>
<!-- Node37&#45;&gt;Node28 -->
<g id="edge80" class="edge">
<title>Node37&#45;&gt;Node28</title>
<path fill="none" stroke="midnightblue" d="M1468.42,-235.44C1435.39,-226.2 1382.61,-211.44 1346.23,-201.26"/>
<polygon fill="midnightblue" stroke="midnightblue" points="1347.01,-197.84 1336.44,-198.52 1345.13,-204.58 1347.01,-197.84"/>
</g>
<!-- Node38&#45;&gt;Node4 -->
<g id="edge83" class="edge">
<title>Node38&#45;&gt;Node4</title>
<path fill="none" stroke="midnightblue" d="M861.51,-291.37C866.7,-273.54 878.7,-232.3 885.68,-208.27"/>
<polygon fill="midnightblue" stroke="midnightblue" points="889.07,-209.17 888.5,-198.59 882.35,-207.22 889.07,-209.17"/>
</g>
<!-- Node38&#45;&gt;Node5 -->
<g id="edge85" class="edge">
<title>Node38&#45;&gt;Node5</title>
<path fill="none" stroke="midnightblue" d="M837.81,-291.37C790.2,-271.97 674.59,-224.87 619.36,-202.37"/>
<polygon fill="midnightblue" stroke="midnightblue" points="620.67,-199.12 610.09,-198.59 618.03,-205.61 620.67,-199.12"/>
</g>
<!-- Node38&#45;&gt;Node24 -->
<g id="edge84" class="edge">
<title>Node38&#45;&gt;Node24</title>
<path fill="none" stroke="midnightblue" d="M855.85,-291.24C848.66,-269.57 833.66,-212.81 860,-179 903.42,-123.27 1122.31,-92.33 1210.3,-81.97"/>
<polygon fill="midnightblue" stroke="midnightblue" points="1210.83,-85.43 1220.36,-80.81 1210.02,-78.48 1210.83,-85.43"/>
</g>
<!-- Node38&#45;&gt;Node35 -->
<g id="edge82" class="edge">
<title>Node38&#45;&gt;Node35</title>
<path fill="none" stroke="midnightblue" d="M878.97,-291.44C899.61,-282.6 932.06,-268.69 955.63,-258.59"/>
<polygon fill="midnightblue" stroke="midnightblue" points="957.32,-261.67 965.13,-254.52 954.56,-255.24 957.32,-261.67"/>
</g>
</g>
</svg>
