<?xml version="1.0" encoding="UTF-8" standalone="no"?>
<!DOCTYPE svg PUBLIC "-//W3C//DTD SVG 1.1//EN"
 "http://www.w3.org/Graphics/SVG/1.1/DTD/svg11.dtd">
<!-- Generated by graphviz version 2.43.0 (0)
 -->
<!-- Title: Prototype/sources/Coordinator/MoveSystem.hpp Pages: 1 -->
<svg width="799pt" height="386pt"
 viewBox="0.00 0.00 799.00 386.00" xmlns="http://www.w3.org/2000/svg" xmlns:xlink="http://www.w3.org/1999/xlink">
<g id="graph0" class="graph" transform="scale(1 1) rotate(0) translate(4 382)">
<title>Prototype/sources/Coordinator/MoveSystem.hpp</title>
<polygon fill="white" stroke="transparent" points="-4,4 -4,-382 795,-382 795,4 -4,4"/>
<!-- Node1 -->
<g id="node1" class="node">
<title>Node1</title>
<g id="a_node1"><a xlink:title=" ">
<polygon fill="#bfbfbf" stroke="black" points="390,-347.5 390,-377.5 554,-377.5 554,-347.5 390,-347.5"/>
<text text-anchor="start" x="398" y="-365.5" font-family="Helvetica,sans-Serif" font-size="10.00">Prototype/sources/Coordinator</text>
<text text-anchor="middle" x="472" y="-354.5" font-family="Helvetica,sans-Serif" font-size="10.00">/MoveSystem.hpp</text>
</a>
</g>
</g>
<!-- Node2 -->
<g id="node2" class="node">
<title>Node2</title>
<g id="a_node2"><a xlink:href="ASystem_8hpp.html" target="_top" xlink:title=" ">
<polygon fill="white" stroke="black" points="466.5,-291.5 466.5,-310.5 547.5,-310.5 547.5,-291.5 466.5,-291.5"/>
<text text-anchor="middle" x="507" y="-298.5" font-family="Helvetica,sans-Serif" font-size="10.00">ASystem.hpp</text>
</a>
</g>
</g>
<!-- Node1&#45;&gt;Node2 -->
<g id="edge1" class="edge">
<title>Node1&#45;&gt;Node2</title>
<path fill="none" stroke="midnightblue" d="M480.29,-347.4C485.22,-339.02 491.51,-328.33 496.75,-319.42"/>
<polygon fill="midnightblue" stroke="midnightblue" points="499.85,-321.05 501.91,-310.66 493.82,-317.5 499.85,-321.05"/>
</g>
<!-- Node5 -->
<g id="node5" class="node">
<title>Node5</title>
<g id="a_node5"><a xlink:href="Entity_8hpp.html" target="_top" xlink:title=" ">
<polygon fill="white" stroke="black" points="439.5,-235.5 439.5,-254.5 504.5,-254.5 504.5,-235.5 439.5,-235.5"/>
<text text-anchor="middle" x="472" y="-242.5" font-family="Helvetica,sans-Serif" font-size="10.00">Entity.hpp</text>
</a>
</g>
</g>
<!-- Node1&#45;&gt;Node5 -->
<g id="edge32" class="edge">
<title>Node1&#45;&gt;Node5</title>
<path fill="none" stroke="midnightblue" d="M465.8,-347.26C460.37,-333.08 453.81,-310.64 457,-291 458.47,-281.96 461.49,-272.28 464.44,-264.22"/>
<polygon fill="midnightblue" stroke="midnightblue" points="467.76,-265.34 468.14,-254.75 461.24,-262.79 467.76,-265.34"/>
</g>
<!-- Node3 -->
<g id="node3" class="node">
<title>Node3</title>
<g id="a_node3"><a xlink:title=" ">
<polygon fill="white" stroke="#bfbfbf" points="0,-123.5 0,-142.5 44,-142.5 44,-123.5 0,-123.5"/>
<text text-anchor="middle" x="22" y="-130.5" font-family="Helvetica,sans-Serif" font-size="10.00">string</text>
</a>
</g>
</g>
<!-- Node2&#45;&gt;Node3 -->
<g id="edge2" class="edge">
<title>Node2&#45;&gt;Node3</title>
<path fill="none" stroke="midnightblue" d="M475.15,-291.46C415.73,-275.28 284.17,-238.21 176,-199 131.19,-182.76 80.5,-160.6 49.91,-146.81"/>
<polygon fill="midnightblue" stroke="midnightblue" points="51.27,-143.58 40.72,-142.64 48.38,-149.96 51.27,-143.58"/>
</g>
<!-- Node4 -->
<g id="node4" class="node">
<title>Node4</title>
<g id="a_node4"><a xlink:title=" ">
<polygon fill="white" stroke="#bfbfbf" points="613.5,-123.5 613.5,-142.5 660.5,-142.5 660.5,-123.5 613.5,-123.5"/>
<text text-anchor="middle" x="637" y="-130.5" font-family="Helvetica,sans-Serif" font-size="10.00">vector</text>
</a>
</g>
</g>
<!-- Node2&#45;&gt;Node4 -->
<g id="edge3" class="edge">
<title>Node2&#45;&gt;Node4</title>
<path fill="none" stroke="midnightblue" d="M545.84,-291.43C590.36,-279.29 661.25,-252.37 693,-199 704.56,-179.57 682.73,-160.34 663.04,-147.89"/>
<polygon fill="midnightblue" stroke="midnightblue" points="664.66,-144.78 654.27,-142.68 661.08,-150.8 664.66,-144.78"/>
</g>
<!-- Node2&#45;&gt;Node5 -->
<g id="edge4" class="edge">
<title>Node2&#45;&gt;Node5</title>
<path fill="none" stroke="midnightblue" d="M501.22,-291.08C496.33,-283.53 489.17,-272.49 483.17,-263.23"/>
<polygon fill="midnightblue" stroke="midnightblue" points="486.05,-261.24 477.67,-254.75 480.17,-265.05 486.05,-261.24"/>
</g>
<!-- Node5&#45;&gt;Node4 -->
<g id="edge9" class="edge">
<title>Node5&#45;&gt;Node4</title>
<path fill="none" stroke="midnightblue" d="M484.22,-235.47C502.24,-222.94 537.02,-198.88 567,-179 582.85,-168.49 600.9,-156.89 614.71,-148.1"/>
<polygon fill="midnightblue" stroke="midnightblue" points="616.94,-150.83 623.51,-142.51 613.19,-144.92 616.94,-150.83"/>
</g>
<!-- Node6 -->
<g id="node6" class="node">
<title>Node6</title>
<g id="a_node6"><a xlink:title=" ">
<polygon fill="white" stroke="#bfbfbf" points="729,-123.5 729,-142.5 791,-142.5 791,-123.5 729,-123.5"/>
<text text-anchor="middle" x="760" y="-130.5" font-family="Helvetica,sans-Serif" font-size="10.00">cinttypes</text>
</a>
</g>
</g>
<!-- Node5&#45;&gt;Node6 -->
<g id="edge5" class="edge">
<title>Node5&#45;&gt;Node6</title>
<path fill="none" stroke="midnightblue" d="M504.64,-243.03C549.52,-240.47 631.71,-231.34 693,-199 715.29,-187.24 735.22,-165.79 747.43,-150.75"/>
<polygon fill="midnightblue" stroke="midnightblue" points="750.28,-152.8 753.69,-142.77 744.77,-148.48 750.28,-152.8"/>
</g>
<!-- Node7 -->
<g id="node7" class="node">
<title>Node7</title>
<g id="a_node7"><a xlink:title=" ">
<polygon fill="white" stroke="#bfbfbf" points="425.5,-123.5 425.5,-142.5 518.5,-142.5 518.5,-123.5 425.5,-123.5"/>
<text text-anchor="middle" x="472" y="-130.5" font-family="Helvetica,sans-Serif" font-size="10.00">unordered_map</text>
</a>
</g>
</g>
<!-- Node5&#45;&gt;Node7 -->
<g id="edge6" class="edge">
<title>Node5&#45;&gt;Node7</title>
<path fill="none" stroke="midnightblue" d="M472,-235.37C472,-217.62 472,-176.67 472,-152.6"/>
<polygon fill="midnightblue" stroke="midnightblue" points="475.5,-152.59 472,-142.59 468.5,-152.59 475.5,-152.59"/>
</g>
<!-- Node8 -->
<g id="node8" class="node">
<title>Node8</title>
<g id="a_node8"><a xlink:title=" ">
<polygon fill="white" stroke="#bfbfbf" points="537,-123.5 537,-142.5 595,-142.5 595,-123.5 537,-123.5"/>
<text text-anchor="middle" x="566" y="-130.5" font-family="Helvetica,sans-Serif" font-size="10.00">memory</text>
</a>
</g>
</g>
<!-- Node5&#45;&gt;Node8 -->
<g id="edge7" class="edge">
<title>Node5&#45;&gt;Node8</title>
<path fill="none" stroke="midnightblue" d="M479.38,-235.37C495.03,-217.05 531.78,-174.05 552.02,-150.36"/>
<polygon fill="midnightblue" stroke="midnightblue" points="554.82,-152.47 558.66,-142.59 549.5,-147.92 554.82,-152.47"/>
</g>
<!-- Node9 -->
<g id="node9" class="node">
<title>Node9</title>
<g id="a_node9"><a xlink:title=" ">
<polygon fill="white" stroke="#bfbfbf" points="62,-123.5 62,-142.5 126,-142.5 126,-123.5 62,-123.5"/>
<text text-anchor="middle" x="94" y="-130.5" font-family="Helvetica,sans-Serif" font-size="10.00">algorithm</text>
</a>
</g>
</g>
<!-- Node5&#45;&gt;Node9 -->
<g id="edge8" class="edge">
<title>Node5&#45;&gt;Node9</title>
<path fill="none" stroke="midnightblue" d="M439.48,-240.76C392.22,-235.42 302.2,-222.93 229,-199 188.04,-185.61 143.56,-162.33 117.27,-147.57"/>
<polygon fill="midnightblue" stroke="midnightblue" points="118.87,-144.45 108.45,-142.55 115.41,-150.54 118.87,-144.45"/>
</g>
<!-- Node10 -->
<g id="node10" class="node">
<title>Node10</title>
<g id="a_node10"><a xlink:title=" ">
<polygon fill="white" stroke="#bfbfbf" points="144.5,-123.5 144.5,-142.5 235.5,-142.5 235.5,-123.5 144.5,-123.5"/>
<text text-anchor="middle" x="190" y="-130.5" font-family="Helvetica,sans-Serif" font-size="10.00">Exceptions.hpp</text>
</a>
</g>
</g>
<!-- Node5&#45;&gt;Node10 -->
<g id="edge10" class="edge">
<title>Node5&#45;&gt;Node10</title>
<path fill="none" stroke="midnightblue" d="M439.5,-242.35C396.47,-239.03 319.27,-229.02 261,-199 237.9,-187.1 216.67,-165.68 203.56,-150.69"/>
<polygon fill="midnightblue" stroke="midnightblue" points="205.96,-148.1 196.82,-142.73 200.61,-152.62 205.96,-148.1"/>
</g>
<!-- Node11 -->
<g id="node11" class="node">
<title>Node11</title>
<g id="a_node11"><a xlink:href="ComponentManager_8hpp.html" target="_top" xlink:title=" ">
<polygon fill="white" stroke="black" points="270,-179.5 270,-198.5 406,-198.5 406,-179.5 270,-179.5"/>
<text text-anchor="middle" x="338" y="-186.5" font-family="Helvetica,sans-Serif" font-size="10.00">ComponentManager.hpp</text>
</a>
</g>
</g>
<!-- Node5&#45;&gt;Node11 -->
<g id="edge11" class="edge">
<title>Node5&#45;&gt;Node11</title>
<path fill="none" stroke="midnightblue" d="M450.77,-235.44C428.62,-226.52 393.68,-212.44 368.56,-202.32"/>
<polygon fill="midnightblue" stroke="midnightblue" points="369.72,-199.01 359.13,-198.52 367.1,-205.5 369.72,-199.01"/>
</g>
<!-- Node12 -->
<g id="node12" class="node">
<title>Node12</title>
<g id="a_node12"><a xlink:href="IComponent_8hpp.html" target="_top" xlink:title=" ">
<polygon fill="white" stroke="black" points="310.5,-123.5 310.5,-142.5 407.5,-142.5 407.5,-123.5 310.5,-123.5"/>
<text text-anchor="middle" x="359" y="-130.5" font-family="Helvetica,sans-Serif" font-size="10.00">IComponent.hpp</text>
</a>
</g>
</g>
<!-- Node5&#45;&gt;Node12 -->
<g id="edge31" class="edge">
<title>Node5&#45;&gt;Node12</title>
<path fill="none" stroke="midnightblue" d="M465.07,-235.16C454.76,-222.23 434.51,-197.69 415,-179 403.77,-168.24 390.2,-157.29 379.23,-148.89"/>
<polygon fill="midnightblue" stroke="midnightblue" points="381.17,-145.97 371.08,-142.74 376.96,-151.56 381.17,-145.97"/>
</g>
<!-- Node19 -->
<g id="node19" class="node">
<title>Node19</title>
<g id="a_node19"><a xlink:href="EntityManager_8hpp.html" target="_top" xlink:title=" ">
<polygon fill="white" stroke="black" points="576,-179.5 576,-198.5 684,-198.5 684,-179.5 576,-179.5"/>
<text text-anchor="middle" x="630" y="-186.5" font-family="Helvetica,sans-Serif" font-size="10.00">EntityManager.hpp</text>
</a>
</g>
</g>
<!-- Node5&#45;&gt;Node19 -->
<g id="edge26" class="edge">
<title>Node5&#45;&gt;Node19</title>
<path fill="none" stroke="midnightblue" d="M497.04,-235.44C523.62,-226.36 565.81,-211.94 595.52,-201.78"/>
<polygon fill="midnightblue" stroke="midnightblue" points="596.75,-205.06 605.08,-198.52 594.49,-198.44 596.75,-205.06"/>
</g>
<!-- Node11&#45;&gt;Node3 -->
<g id="edge13" class="edge">
<title>Node11&#45;&gt;Node3</title>
<path fill="none" stroke="midnightblue" d="M269.89,-179.7C214.24,-172.36 133.42,-160.42 54.39,-143.08"/>
<polygon fill="midnightblue" stroke="midnightblue" points="54.79,-139.58 44.26,-140.83 53.26,-146.42 54.79,-139.58"/>
</g>
<!-- Node11&#45;&gt;Node4 -->
<g id="edge14" class="edge">
<title>Node11&#45;&gt;Node4</title>
<path fill="none" stroke="midnightblue" d="M398.55,-179.5C450.35,-171.83 527.08,-159.54 603.05,-143.02"/>
<polygon fill="midnightblue" stroke="midnightblue" points="604.26,-146.34 613.28,-140.77 602.76,-139.5 604.26,-146.34"/>
</g>
<!-- Node11&#45;&gt;Node7 -->
<g id="edge12" class="edge">
<title>Node11&#45;&gt;Node7</title>
<path fill="none" stroke="midnightblue" d="M359.23,-179.44C381.38,-170.52 416.32,-156.44 441.44,-146.32"/>
<polygon fill="midnightblue" stroke="midnightblue" points="442.9,-149.5 450.87,-142.52 440.28,-143.01 442.9,-149.5"/>
</g>
<!-- Node11&#45;&gt;Node8 -->
<g id="edge15" class="edge">
<title>Node11&#45;&gt;Node8</title>
<path fill="none" stroke="midnightblue" d="M374.13,-179.44C415.86,-169.56 484.26,-153.36 527.13,-143.21"/>
<polygon fill="midnightblue" stroke="midnightblue" points="527.99,-146.6 536.91,-140.89 526.38,-139.79 527.99,-146.6"/>
</g>
<!-- Node11&#45;&gt;Node9 -->
<g id="edge16" class="edge">
<title>Node11&#45;&gt;Node9</title>
<path fill="none" stroke="midnightblue" d="M299.34,-179.44C254.86,-169.6 182.08,-153.49 136.18,-143.33"/>
<polygon fill="midnightblue" stroke="midnightblue" points="136.77,-139.88 126.25,-141.14 135.26,-146.72 136.77,-139.88"/>
</g>
<!-- Node11&#45;&gt;Node10 -->
<g id="edge17" class="edge">
<title>Node11&#45;&gt;Node10</title>
<path fill="none" stroke="midnightblue" d="M314.55,-179.44C289.87,-170.44 250.81,-156.19 223.02,-146.05"/>
<polygon fill="midnightblue" stroke="midnightblue" points="223.94,-142.66 213.34,-142.52 221.54,-149.23 223.94,-142.66"/>
</g>
<!-- Node11&#45;&gt;Node12 -->
<g id="edge18" class="edge">
<title>Node11&#45;&gt;Node12</title>
<path fill="none" stroke="midnightblue" d="M341.47,-179.08C344.31,-171.77 348.43,-161.18 351.96,-152.1"/>
<polygon fill="midnightblue" stroke="midnightblue" points="355.23,-153.34 355.6,-142.75 348.71,-150.8 355.23,-153.34"/>
</g>
<!-- Node18 -->
<g id="node18" class="node">
<title>Node18</title>
<g id="a_node18"><a xlink:title=" ">
<polygon fill="white" stroke="#bfbfbf" points="254,-123.5 254,-142.5 292,-142.5 292,-123.5 254,-123.5"/>
<text text-anchor="middle" x="273" y="-130.5" font-family="Helvetica,sans-Serif" font-size="10.00">map</text>
</a>
</g>
</g>
<!-- Node11&#45;&gt;Node18 -->
<g id="edge25" class="edge">
<title>Node11&#45;&gt;Node18</title>
<path fill="none" stroke="midnightblue" d="M327.56,-179.32C317.85,-171.26 303.18,-159.08 291.5,-149.37"/>
<polygon fill="midnightblue" stroke="midnightblue" points="293.56,-146.53 283.63,-142.83 289.09,-151.92 293.56,-146.53"/>
</g>
<!-- Node13 -->
<g id="node13" class="node">
<title>Node13</title>
<g id="a_node13"><a xlink:title=" ">
<polygon fill="white" stroke="#bfbfbf" points="286.5,-6 286.5,-25 343.5,-25 343.5,-6 286.5,-6"/>
<text text-anchor="middle" x="315" y="-13" font-family="Helvetica,sans-Serif" font-size="10.00">ostream</text>
</a>
</g>
</g>
<!-- Node12&#45;&gt;Node13 -->
<g id="edge19" class="edge">
<title>Node12&#45;&gt;Node13</title>
<path fill="none" stroke="midnightblue" d="M353.36,-123.35C347.8,-114.52 339.37,-100.25 334,-87 327.16,-70.13 322.02,-50 318.82,-35.58"/>
<polygon fill="midnightblue" stroke="midnightblue" points="322.16,-34.47 316.67,-25.41 315.31,-35.91 322.16,-34.47"/>
</g>
<!-- Node14 -->
<g id="node14" class="node">
<title>Node14</title>
<g id="a_node14"><a xlink:href="IXMLSerializable_8hpp.html" target="_top" xlink:title=" ">
<polygon fill="white" stroke="black" points="343.5,-67.5 343.5,-86.5 462.5,-86.5 462.5,-67.5 343.5,-67.5"/>
<text text-anchor="middle" x="403" y="-74.5" font-family="Helvetica,sans-Serif" font-size="10.00">IXMLSerializable.hpp</text>
</a>
</g>
</g>
<!-- Node12&#45;&gt;Node14 -->
<g id="edge20" class="edge">
<title>Node12&#45;&gt;Node14</title>
<path fill="none" stroke="midnightblue" d="M366.27,-123.08C372.54,-115.38 381.79,-104.03 389.43,-94.65"/>
<polygon fill="midnightblue" stroke="midnightblue" points="392.27,-96.71 395.87,-86.75 386.84,-92.29 392.27,-96.71"/>
</g>
<!-- Node14&#45;&gt;Node13 -->
<g id="edge21" class="edge">
<title>Node14&#45;&gt;Node13</title>
<path fill="none" stroke="midnightblue" d="M390.39,-67.48C376.28,-57.93 353.17,-42.31 336.25,-30.87"/>
<polygon fill="midnightblue" stroke="midnightblue" points="337.83,-27.71 327.58,-25.01 333.91,-33.51 337.83,-27.71"/>
</g>
<!-- Node15 -->
<g id="node15" class="node">
<title>Node15</title>
<g id="a_node15"><a xlink:title=" ">
<polygon fill="white" stroke="#bfbfbf" points="362,-6 362,-25 422,-25 422,-6 362,-6"/>
<text text-anchor="middle" x="392" y="-13" font-family="Helvetica,sans-Serif" font-size="10.00">iostream</text>
</a>
</g>
</g>
<!-- Node14&#45;&gt;Node15 -->
<g id="edge22" class="edge">
<title>Node14&#45;&gt;Node15</title>
<path fill="none" stroke="midnightblue" d="M401.42,-67.48C399.87,-59.08 397.45,-45.98 395.45,-35.16"/>
<polygon fill="midnightblue" stroke="midnightblue" points="398.83,-34.21 393.57,-25.01 391.95,-35.48 398.83,-34.21"/>
</g>
<!-- Node16 -->
<g id="node16" class="node">
<title>Node16</title>
<g id="a_node16"><a xlink:title=" ">
<polygon fill="white" stroke="#bfbfbf" points="440.5,-0.5 440.5,-30.5 553.5,-30.5 553.5,-0.5 440.5,-0.5"/>
<text text-anchor="start" x="448.5" y="-18.5" font-family="Helvetica,sans-Serif" font-size="10.00">boost/property_tree</text>
<text text-anchor="middle" x="497" y="-7.5" font-family="Helvetica,sans-Serif" font-size="10.00">/ptree.hpp</text>
</a>
</g>
</g>
<!-- Node14&#45;&gt;Node16 -->
<g id="edge23" class="edge">
<title>Node14&#45;&gt;Node16</title>
<path fill="none" stroke="midnightblue" d="M416.47,-67.48C429.44,-59.27 449.51,-46.56 466.38,-35.88"/>
<polygon fill="midnightblue" stroke="midnightblue" points="468.27,-38.83 474.85,-30.52 464.52,-32.91 468.27,-38.83"/>
</g>
<!-- Node17 -->
<g id="node17" class="node">
<title>Node17</title>
<g id="a_node17"><a xlink:title=" ">
<polygon fill="white" stroke="#bfbfbf" points="571.5,-0.5 571.5,-30.5 684.5,-30.5 684.5,-0.5 571.5,-0.5"/>
<text text-anchor="start" x="579.5" y="-18.5" font-family="Helvetica,sans-Serif" font-size="10.00">boost/property_tree</text>
<text text-anchor="middle" x="628" y="-7.5" font-family="Helvetica,sans-Serif" font-size="10.00">/xml_parser.hpp</text>
</a>
</g>
</g>
<!-- Node14&#45;&gt;Node17 -->
<g id="edge24" class="edge">
<title>Node14&#45;&gt;Node17</title>
<path fill="none" stroke="midnightblue" d="M435.24,-67.48C468.99,-58.55 522.84,-44.31 565.06,-33.14"/>
<polygon fill="midnightblue" stroke="midnightblue" points="566.2,-36.46 574.97,-30.52 564.41,-29.7 566.2,-36.46"/>
</g>
<!-- Node19&#45;&gt;Node4 -->
<g id="edge27" class="edge">
<title>Node19&#45;&gt;Node4</title>
<path fill="none" stroke="midnightblue" d="M631.16,-179.08C632.08,-171.93 633.42,-161.64 634.58,-152.69"/>
<polygon fill="midnightblue" stroke="midnightblue" points="638.05,-153.12 635.87,-142.75 631.11,-152.22 638.05,-153.12"/>
</g>
<!-- Node19&#45;&gt;Node6 -->
<g id="edge28" class="edge">
<title>Node19&#45;&gt;Node6</title>
<path fill="none" stroke="midnightblue" d="M650.6,-179.44C671.99,-170.56 705.68,-156.56 730.02,-146.45"/>
<polygon fill="midnightblue" stroke="midnightblue" points="731.61,-149.58 739.5,-142.52 728.92,-143.12 731.61,-149.58"/>
</g>
<!-- Node19&#45;&gt;Node8 -->
<g id="edge29" class="edge">
<title>Node19&#45;&gt;Node8</title>
<path fill="none" stroke="midnightblue" d="M619.72,-179.32C610.16,-171.26 595.72,-159.08 584.22,-149.37"/>
<polygon fill="midnightblue" stroke="midnightblue" points="586.37,-146.61 576.47,-142.83 581.86,-151.96 586.37,-146.61"/>
</g>
<!-- Node20 -->
<g id="node20" class="node">
<title>Node20</title>
<g id="a_node20"><a xlink:title=" ">
<polygon fill="white" stroke="#bfbfbf" points="679,-123.5 679,-142.5 711,-142.5 711,-123.5 679,-123.5"/>
<text text-anchor="middle" x="695" y="-130.5" font-family="Helvetica,sans-Serif" font-size="10.00">list</text>
</a>
</g>
</g>
<!-- Node19&#45;&gt;Node20 -->
<g id="edge30" class="edge">
<title>Node19&#45;&gt;Node20</title>
<path fill="none" stroke="midnightblue" d="M640.44,-179.32C650.15,-171.26 664.82,-159.08 676.5,-149.37"/>
<polygon fill="midnightblue" stroke="midnightblue" points="678.91,-151.92 684.37,-142.83 674.44,-146.53 678.91,-151.92"/>
</g>
</g>
</svg>
