<?xml version="1.0" encoding="UTF-8" standalone="no"?>
<!DOCTYPE svg PUBLIC "-//W3C//DTD SVG 1.1//EN"
 "http://www.w3.org/Graphics/SVG/1.1/DTD/svg11.dtd">
<!-- Generated by graphviz version 2.43.0 (0)
 -->
<!-- Title: Libs/Lua/sources/Nil/Nil.hpp Pages: 1 -->
<svg width="977pt" height="251pt"
 viewBox="0.00 0.00 977.00 251.00" xmlns="http://www.w3.org/2000/svg" xmlns:xlink="http://www.w3.org/1999/xlink">
<g id="graph0" class="graph" transform="scale(1 1) rotate(0) translate(4 247)">
<title>Libs/Lua/sources/Nil/Nil.hpp</title>
<polygon fill="white" stroke="transparent" points="-4,4 -4,-247 973,-247 973,4 -4,4"/>
<!-- Node1 -->
<g id="node1" class="node">
<title>Node1</title>
<g id="a_node1"><a xlink:title=" ">
<polygon fill="#bfbfbf" stroke="black" points="631.5,-212.5 631.5,-242.5 744.5,-242.5 744.5,-212.5 631.5,-212.5"/>
<text text-anchor="start" x="639.5" y="-230.5" font-family="Helvetica,sans-Serif" font-size="10.00">Libs/Lua/sources/Nil</text>
<text text-anchor="middle" x="688" y="-219.5" font-family="Helvetica,sans-Serif" font-size="10.00">/Nil.hpp</text>
</a>
</g>
</g>
<!-- Node2 -->
<g id="node2" class="node">
<title>Node2</title>
<g id="a_node2"><a xlink:href="State_8hpp.html" target="_top" xlink:title=" ">
<polygon fill="white" stroke="black" points="625.5,-145.5 625.5,-175.5 750.5,-175.5 750.5,-145.5 625.5,-145.5"/>
<text text-anchor="start" x="633.5" y="-163.5" font-family="Helvetica,sans-Serif" font-size="10.00">Libs/Lua/sources/State</text>
<text text-anchor="middle" x="688" y="-152.5" font-family="Helvetica,sans-Serif" font-size="10.00">/State.hpp</text>
</a>
</g>
</g>
<!-- Node1&#45;&gt;Node2 -->
<g id="edge1" class="edge">
<title>Node1&#45;&gt;Node2</title>
<path fill="none" stroke="midnightblue" d="M688,-202.11C688,-193.15 688,-183.32 688,-175.58"/>
<polygon fill="midnightblue" stroke="midnightblue" points="684.5,-202.4 688,-212.4 691.5,-202.4 684.5,-202.4"/>
</g>
<!-- Node3 -->
<g id="node3" class="node">
<title>Node3</title>
<g id="a_node3"><a xlink:href="AIAlgo_8hpp.html" target="_top" xlink:title=" ">
<polygon fill="white" stroke="black" points="353.5,-78.5 353.5,-108.5 524.5,-108.5 524.5,-78.5 353.5,-78.5"/>
<text text-anchor="start" x="361.5" y="-96.5" font-family="Helvetica,sans-Serif" font-size="10.00">Libs/Engine/sources</text>
<text text-anchor="middle" x="439" y="-85.5" font-family="Helvetica,sans-Serif" font-size="10.00">/Components/AIAlgo/AIAlgo.hpp</text>
</a>
</g>
</g>
<!-- Node2&#45;&gt;Node3 -->
<g id="edge2" class="edge">
<title>Node2&#45;&gt;Node3</title>
<path fill="none" stroke="midnightblue" d="M624.47,-142.92C583.84,-132.31 531.7,-118.7 493.06,-108.61"/>
<polygon fill="midnightblue" stroke="midnightblue" points="623.72,-146.34 634.28,-145.48 625.49,-139.56 623.72,-146.34"/>
</g>
<!-- Node9 -->
<g id="node9" class="node">
<title>Node9</title>
<g id="a_node9"><a xlink:href="DelayedPop_8cpp.html" target="_top" xlink:title=" ">
<polygon fill="white" stroke="black" points="543,-78.5 543,-108.5 683,-108.5 683,-78.5 543,-78.5"/>
<text text-anchor="start" x="551" y="-96.5" font-family="Helvetica,sans-Serif" font-size="10.00">Libs/Lua/sources/Delayed</text>
<text text-anchor="middle" x="613" y="-85.5" font-family="Helvetica,sans-Serif" font-size="10.00">Pop/DelayedPop.cpp</text>
</a>
</g>
</g>
<!-- Node2&#45;&gt;Node9 -->
<g id="edge8" class="edge">
<title>Node2&#45;&gt;Node9</title>
<path fill="none" stroke="midnightblue" d="M663.88,-138.6C652.56,-128.78 639.36,-117.34 629.24,-108.58"/>
<polygon fill="midnightblue" stroke="midnightblue" points="661.88,-141.49 671.73,-145.4 666.46,-136.2 661.88,-141.49"/>
</g>
<!-- Node10 -->
<g id="node10" class="node">
<title>Node10</title>
<g id="a_node10"><a xlink:href="State_8cpp.html" target="_top" xlink:title=" ">
<polygon fill="white" stroke="black" points="701.5,-78.5 701.5,-108.5 826.5,-108.5 826.5,-78.5 701.5,-78.5"/>
<text text-anchor="start" x="709.5" y="-96.5" font-family="Helvetica,sans-Serif" font-size="10.00">Libs/Lua/sources/State</text>
<text text-anchor="middle" x="764" y="-85.5" font-family="Helvetica,sans-Serif" font-size="10.00">/State.cpp</text>
</a>
</g>
</g>
<!-- Node2&#45;&gt;Node10 -->
<g id="edge9" class="edge">
<title>Node2&#45;&gt;Node10</title>
<path fill="none" stroke="midnightblue" d="M712.11,-138.88C723.66,-129.01 737.19,-117.43 747.54,-108.58"/>
<polygon fill="midnightblue" stroke="midnightblue" points="709.82,-136.24 704.49,-145.4 714.37,-141.56 709.82,-136.24"/>
</g>
<!-- Node11 -->
<g id="node11" class="node">
<title>Node11</title>
<g id="a_node11"><a xlink:href="Lua_8cpp.html" target="_top" xlink:title=" ">
<polygon fill="white" stroke="black" points="845,-84 845,-103 969,-103 969,-84 845,-84"/>
<text text-anchor="middle" x="907" y="-91" font-family="Helvetica,sans-Serif" font-size="10.00">Libs/Lua/tests/Lua.cpp</text>
</a>
</g>
</g>
<!-- Node2&#45;&gt;Node11 -->
<g id="edge10" class="edge">
<title>Node2&#45;&gt;Node11</title>
<path fill="none" stroke="midnightblue" d="M744.97,-142.59C787.74,-129.9 844.52,-113.04 878.26,-103.03"/>
<polygon fill="midnightblue" stroke="midnightblue" points="743.84,-139.28 735.25,-145.48 745.83,-145.99 743.84,-139.28"/>
</g>
<!-- Node4 -->
<g id="node4" class="node">
<title>Node4</title>
<g id="a_node4"><a xlink:href="AIAlgo_8cpp.html" target="_top" xlink:title=" ">
<polygon fill="white" stroke="black" points="0,-6 0,-36 170,-36 170,-6 0,-6"/>
<text text-anchor="start" x="8" y="-24" font-family="Helvetica,sans-Serif" font-size="10.00">Libs/Engine/sources</text>
<text text-anchor="middle" x="85" y="-13" font-family="Helvetica,sans-Serif" font-size="10.00">/Components/AIAlgo/AIAlgo.cpp</text>
</a>
</g>
</g>
<!-- Node3&#45;&gt;Node4 -->
<g id="edge3" class="edge">
<title>Node3&#45;&gt;Node4</title>
<path fill="none" stroke="midnightblue" d="M354.98,-76.57C304.03,-66.82 237.72,-53.95 179,-42 169.68,-40.1 159.85,-38.06 150.2,-36.03"/>
<polygon fill="midnightblue" stroke="midnightblue" points="354.48,-80.04 364.96,-78.48 355.8,-73.17 354.48,-80.04"/>
</g>
<!-- Node5 -->
<g id="node5" class="node">
<title>Node5</title>
<g id="a_node5"><a xlink:href="CoolDownBoost_8cpp.html" target="_top" xlink:title=" ">
<polygon fill="white" stroke="black" points="188.5,-0.5 188.5,-41.5 349.5,-41.5 349.5,-0.5 188.5,-0.5"/>
<text text-anchor="start" x="196.5" y="-29.5" font-family="Helvetica,sans-Serif" font-size="10.00">Libs/Engine/sources</text>
<text text-anchor="start" x="196.5" y="-18.5" font-family="Helvetica,sans-Serif" font-size="10.00">/Components/CoolDownBoost</text>
<text text-anchor="middle" x="269" y="-7.5" font-family="Helvetica,sans-Serif" font-size="10.00">/CoolDownBoost.cpp</text>
</a>
</g>
</g>
<!-- Node3&#45;&gt;Node5 -->
<g id="edge4" class="edge">
<title>Node3&#45;&gt;Node5</title>
<path fill="none" stroke="midnightblue" d="M395.67,-74.53C371.37,-64.45 341.03,-51.87 316.13,-41.55"/>
<polygon fill="midnightblue" stroke="midnightblue" points="394.43,-77.8 405.01,-78.4 397.11,-71.34 394.43,-77.8"/>
</g>
<!-- Node6 -->
<g id="node6" class="node">
<title>Node6</title>
<g id="a_node6"><a xlink:href="RangeBoost_8cpp.html" target="_top" xlink:title=" ">
<polygon fill="white" stroke="black" points="367.5,-0.5 367.5,-41.5 510.5,-41.5 510.5,-0.5 367.5,-0.5"/>
<text text-anchor="start" x="375.5" y="-29.5" font-family="Helvetica,sans-Serif" font-size="10.00">Libs/Engine/sources</text>
<text text-anchor="start" x="375.5" y="-18.5" font-family="Helvetica,sans-Serif" font-size="10.00">/Components/RangeBoost</text>
<text text-anchor="middle" x="439" y="-7.5" font-family="Helvetica,sans-Serif" font-size="10.00">/RangeBoost.cpp</text>
</a>
</g>
</g>
<!-- Node3&#45;&gt;Node6 -->
<g id="edge5" class="edge">
<title>Node3&#45;&gt;Node6</title>
<path fill="none" stroke="midnightblue" d="M439,-67.98C439,-59.35 439,-49.76 439,-41.59"/>
<polygon fill="midnightblue" stroke="midnightblue" points="435.5,-68.23 439,-78.23 442.5,-68.23 435.5,-68.23"/>
</g>
<!-- Node7 -->
<g id="node7" class="node">
<title>Node7</title>
<g id="a_node7"><a xlink:href="SpeedBoost_8cpp.html" target="_top" xlink:title=" ">
<polygon fill="white" stroke="black" points="529,-0.5 529,-41.5 671,-41.5 671,-0.5 529,-0.5"/>
<text text-anchor="start" x="537" y="-29.5" font-family="Helvetica,sans-Serif" font-size="10.00">Libs/Engine/sources</text>
<text text-anchor="start" x="537" y="-18.5" font-family="Helvetica,sans-Serif" font-size="10.00">/Components/SpeedBoost</text>
<text text-anchor="middle" x="600" y="-7.5" font-family="Helvetica,sans-Serif" font-size="10.00">/SpeedBoost.cpp</text>
</a>
</g>
</g>
<!-- Node3&#45;&gt;Node7 -->
<g id="edge6" class="edge">
<title>Node3&#45;&gt;Node7</title>
<path fill="none" stroke="midnightblue" d="M480.64,-74.26C503.56,-64.23 531.99,-51.78 555.36,-41.55"/>
<polygon fill="midnightblue" stroke="midnightblue" points="478.95,-71.19 471.19,-78.4 481.76,-77.6 478.95,-71.19"/>
</g>
<!-- Node8 -->
<g id="node8" class="node">
<title>Node8</title>
<g id="a_node8"><a xlink:href="EntityFactory_8cpp.html" target="_top" xlink:title=" ">
<polygon fill="white" stroke="black" points="689.5,-6 689.5,-36 858.5,-36 858.5,-6 689.5,-6"/>
<text text-anchor="start" x="697.5" y="-24" font-family="Helvetica,sans-Serif" font-size="10.00">Libs/Engine/sources</text>
<text text-anchor="middle" x="774" y="-13" font-family="Helvetica,sans-Serif" font-size="10.00">/EntityFactory/EntityFactory.cpp</text>
</a>
</g>
</g>
<!-- Node3&#45;&gt;Node8 -->
<g id="edge7" class="edge">
<title>Node3&#45;&gt;Node8</title>
<path fill="none" stroke="midnightblue" d="M516.14,-76.4C563.44,-66.51 625.23,-53.56 680,-42 689.14,-40.07 698.78,-38.03 708.27,-36.01"/>
<polygon fill="midnightblue" stroke="midnightblue" points="515.35,-72.99 506.28,-78.46 516.78,-79.84 515.35,-72.99"/>
</g>
</g>
</svg>
