<?xml version="1.0" encoding="UTF-8" standalone="no"?>
<!DOCTYPE svg PUBLIC "-//W3C//DTD SVG 1.1//EN"
 "http://www.w3.org/Graphics/SVG/1.1/DTD/svg11.dtd">
<!-- Generated by graphviz version 2.43.0 (0)
 -->
<!-- Title: Prototype/sources/Coordinator/ObjectComponent.hpp Pages: 1 -->
<svg width="1160pt" height="442pt"
 viewBox="0.00 0.00 1160.00 442.00" xmlns="http://www.w3.org/2000/svg" xmlns:xlink="http://www.w3.org/1999/xlink">
<g id="graph0" class="graph" transform="scale(1 1) rotate(0) translate(4 438)">
<title>Prototype/sources/Coordinator/ObjectComponent.hpp</title>
<polygon fill="white" stroke="transparent" points="-4,4 -4,-438 1156,-438 1156,4 -4,4"/>
<!-- Node1 -->
<g id="node1" class="node">
<title>Node1</title>
<g id="a_node1"><a xlink:title=" ">
<polygon fill="#bfbfbf" stroke="black" points="46,-403.5 46,-433.5 210,-433.5 210,-403.5 46,-403.5"/>
<text text-anchor="start" x="54" y="-421.5" font-family="Helvetica,sans-Serif" font-size="10.00">Prototype/sources/Coordinator</text>
<text text-anchor="middle" x="128" y="-410.5" font-family="Helvetica,sans-Serif" font-size="10.00">/ObjectComponent.hpp</text>
</a>
</g>
</g>
<!-- Node2 -->
<g id="node2" class="node">
<title>Node2</title>
<g id="a_node2"><a xlink:title=" ">
<polygon fill="white" stroke="#bfbfbf" points="0,-347.5 0,-366.5 62,-366.5 62,-347.5 0,-347.5"/>
<text text-anchor="middle" x="31" y="-354.5" font-family="Helvetica,sans-Serif" font-size="10.00">cinttypes</text>
</a>
</g>
</g>
<!-- Node1&#45;&gt;Node2 -->
<g id="edge1" class="edge">
<title>Node1&#45;&gt;Node2</title>
<path fill="none" stroke="midnightblue" d="M105.01,-403.4C89.61,-393.95 69.41,-381.56 54,-372.11"/>
<polygon fill="midnightblue" stroke="midnightblue" points="55.47,-368.9 45.11,-366.66 51.81,-374.87 55.47,-368.9"/>
</g>
<!-- Node3 -->
<g id="node3" class="node">
<title>Node3</title>
<g id="a_node3"><a xlink:href="IComponent_8hpp.html" target="_top" xlink:title=" ">
<polygon fill="white" stroke="black" points="47.5,-123.5 47.5,-142.5 144.5,-142.5 144.5,-123.5 47.5,-123.5"/>
<text text-anchor="middle" x="96" y="-130.5" font-family="Helvetica,sans-Serif" font-size="10.00">IComponent.hpp</text>
</a>
</g>
</g>
<!-- Node1&#45;&gt;Node3 -->
<g id="edge2" class="edge">
<title>Node1&#45;&gt;Node3</title>
<path fill="none" stroke="midnightblue" d="M120.13,-403.41C109,-382.13 90,-340.21 90,-302 90,-302 90,-302 90,-244 90,-211.9 92.58,-174.61 94.36,-152.73"/>
<polygon fill="midnightblue" stroke="midnightblue" points="97.86,-152.81 95.22,-142.55 90.89,-152.22 97.86,-152.81"/>
</g>
<!-- Node9 -->
<g id="node9" class="node">
<title>Node9</title>
<g id="a_node9"><a xlink:href="Model_8hpp.html" target="_top" xlink:title=" ">
<polygon fill="white" stroke="black" points="552,-347.5 552,-366.5 620,-366.5 620,-347.5 552,-347.5"/>
<text text-anchor="middle" x="586" y="-354.5" font-family="Helvetica,sans-Serif" font-size="10.00">Model.hpp</text>
</a>
</g>
</g>
<!-- Node1&#45;&gt;Node9 -->
<g id="edge9" class="edge">
<title>Node1&#45;&gt;Node9</title>
<path fill="none" stroke="midnightblue" d="M210.15,-406.83C307.14,-394.23 464.92,-373.73 541.49,-363.78"/>
<polygon fill="midnightblue" stroke="midnightblue" points="542.28,-367.21 551.75,-362.45 541.38,-360.27 542.28,-367.21"/>
</g>
<!-- Node12 -->
<g id="node12" class="node">
<title>Node12</title>
<g id="a_node12"><a xlink:href="Vector3_8hpp.html" target="_top" xlink:title=" ">
<polygon fill="white" stroke="black" points="268,-123.5 268,-142.5 342,-142.5 342,-123.5 268,-123.5"/>
<text text-anchor="middle" x="305" y="-130.5" font-family="Helvetica,sans-Serif" font-size="10.00">Vector3.hpp</text>
</a>
</g>
</g>
<!-- Node1&#45;&gt;Node12 -->
<g id="edge60" class="edge">
<title>Node1&#45;&gt;Node12</title>
<path fill="none" stroke="midnightblue" d="M128,-403.28C128,-381.48 128,-338.49 128,-302 128,-302 128,-302 128,-244 128,-182.65 205.66,-154.31 258.1,-142.17"/>
<polygon fill="midnightblue" stroke="midnightblue" points="258.88,-145.58 267.89,-140.02 257.38,-138.74 258.88,-145.58"/>
</g>
<!-- Node16 -->
<g id="node16" class="node">
<title>Node16</title>
<g id="a_node16"><a xlink:href="Texture_8hpp.html" target="_top" xlink:title=" ">
<polygon fill="white" stroke="black" points="693,-291.5 693,-310.5 767,-310.5 767,-291.5 693,-291.5"/>
<text text-anchor="middle" x="730" y="-298.5" font-family="Helvetica,sans-Serif" font-size="10.00">Texture.hpp</text>
</a>
</g>
</g>
<!-- Node1&#45;&gt;Node16 -->
<g id="edge59" class="edge">
<title>Node1&#45;&gt;Node16</title>
<path fill="none" stroke="midnightblue" d="M210.06,-413.88C331.75,-407.73 553.8,-393.28 629,-367 661.09,-355.79 693.27,-332.49 712.41,-317.05"/>
<polygon fill="midnightblue" stroke="midnightblue" points="714.76,-319.65 720.24,-310.59 710.3,-314.26 714.76,-319.65"/>
</g>
<!-- Node4 -->
<g id="node4" class="node">
<title>Node4</title>
<g id="a_node4"><a xlink:title=" ">
<polygon fill="white" stroke="#bfbfbf" points="67.5,-6 67.5,-25 124.5,-25 124.5,-6 67.5,-6"/>
<text text-anchor="middle" x="96" y="-13" font-family="Helvetica,sans-Serif" font-size="10.00">ostream</text>
</a>
</g>
</g>
<!-- Node3&#45;&gt;Node4 -->
<g id="edge3" class="edge">
<title>Node3&#45;&gt;Node4</title>
<path fill="none" stroke="midnightblue" d="M96,-123.32C96,-104.76 96,-60.84 96,-35.47"/>
<polygon fill="midnightblue" stroke="midnightblue" points="99.5,-35.28 96,-25.28 92.5,-35.28 99.5,-35.28"/>
</g>
<!-- Node5 -->
<g id="node5" class="node">
<title>Node5</title>
<g id="a_node5"><a xlink:href="IXMLSerializable_8hpp.html" target="_top" xlink:title=" ">
<polygon fill="white" stroke="black" points="150.5,-67.5 150.5,-86.5 269.5,-86.5 269.5,-67.5 150.5,-67.5"/>
<text text-anchor="middle" x="210" y="-74.5" font-family="Helvetica,sans-Serif" font-size="10.00">IXMLSerializable.hpp</text>
</a>
</g>
</g>
<!-- Node3&#45;&gt;Node5 -->
<g id="edge4" class="edge">
<title>Node3&#45;&gt;Node5</title>
<path fill="none" stroke="midnightblue" d="M114.06,-123.44C132.57,-114.68 161.58,-100.94 182.86,-90.86"/>
<polygon fill="midnightblue" stroke="midnightblue" points="184.48,-93.96 192.02,-86.52 181.49,-87.63 184.48,-93.96"/>
</g>
<!-- Node5&#45;&gt;Node4 -->
<g id="edge5" class="edge">
<title>Node5&#45;&gt;Node4</title>
<path fill="none" stroke="midnightblue" d="M193.67,-67.48C174.79,-57.62 143.49,-41.29 121.42,-29.77"/>
<polygon fill="midnightblue" stroke="midnightblue" points="122.79,-26.53 112.3,-25.01 119.55,-32.74 122.79,-26.53"/>
</g>
<!-- Node6 -->
<g id="node6" class="node">
<title>Node6</title>
<g id="a_node6"><a xlink:title=" ">
<polygon fill="white" stroke="#bfbfbf" points="405,-6 405,-25 465,-25 465,-6 405,-6"/>
<text text-anchor="middle" x="435" y="-13" font-family="Helvetica,sans-Serif" font-size="10.00">iostream</text>
</a>
</g>
</g>
<!-- Node5&#45;&gt;Node6 -->
<g id="edge6" class="edge">
<title>Node5&#45;&gt;Node6</title>
<path fill="none" stroke="midnightblue" d="M251.38,-67.46C289.33,-59.29 346.91,-46.01 396,-31 398.57,-30.22 401.21,-29.35 403.85,-28.45"/>
<polygon fill="midnightblue" stroke="midnightblue" points="405.05,-31.74 413.29,-25.09 402.7,-25.15 405.05,-31.74"/>
</g>
<!-- Node7 -->
<g id="node7" class="node">
<title>Node7</title>
<g id="a_node7"><a xlink:title=" ">
<polygon fill="white" stroke="#bfbfbf" points="142.5,-0.5 142.5,-30.5 255.5,-30.5 255.5,-0.5 142.5,-0.5"/>
<text text-anchor="start" x="150.5" y="-18.5" font-family="Helvetica,sans-Serif" font-size="10.00">boost/property_tree</text>
<text text-anchor="middle" x="199" y="-7.5" font-family="Helvetica,sans-Serif" font-size="10.00">/ptree.hpp</text>
</a>
</g>
</g>
<!-- Node5&#45;&gt;Node7 -->
<g id="edge7" class="edge">
<title>Node5&#45;&gt;Node7</title>
<path fill="none" stroke="midnightblue" d="M208.42,-67.48C207.12,-60.4 205.19,-49.97 203.42,-40.39"/>
<polygon fill="midnightblue" stroke="midnightblue" points="206.85,-39.72 201.59,-30.52 199.97,-40.99 206.85,-39.72"/>
</g>
<!-- Node8 -->
<g id="node8" class="node">
<title>Node8</title>
<g id="a_node8"><a xlink:title=" ">
<polygon fill="white" stroke="#bfbfbf" points="273.5,-0.5 273.5,-30.5 386.5,-30.5 386.5,-0.5 273.5,-0.5"/>
<text text-anchor="start" x="281.5" y="-18.5" font-family="Helvetica,sans-Serif" font-size="10.00">boost/property_tree</text>
<text text-anchor="middle" x="330" y="-7.5" font-family="Helvetica,sans-Serif" font-size="10.00">/xml_parser.hpp</text>
</a>
</g>
</g>
<!-- Node5&#45;&gt;Node8 -->
<g id="edge8" class="edge">
<title>Node5&#45;&gt;Node8</title>
<path fill="none" stroke="midnightblue" d="M227.19,-67.48C244.2,-59.04 270.8,-45.86 292.67,-35.01"/>
<polygon fill="midnightblue" stroke="midnightblue" points="294.31,-38.1 301.72,-30.52 291.2,-31.83 294.31,-38.1"/>
</g>
<!-- Node10 -->
<g id="node10" class="node">
<title>Node10</title>
<g id="a_node10"><a xlink:title=" ">
<polygon fill="white" stroke="#bfbfbf" points="613.5,-67.5 613.5,-86.5 666.5,-86.5 666.5,-67.5 613.5,-67.5"/>
<text text-anchor="middle" x="640" y="-74.5" font-family="Helvetica,sans-Serif" font-size="10.00">raylib.h</text>
</a>
</g>
</g>
<!-- Node9&#45;&gt;Node10 -->
<g id="edge10" class="edge">
<title>Node9&#45;&gt;Node10</title>
<path fill="none" stroke="midnightblue" d="M620.13,-356.67C742.5,-358.15 1152,-354.99 1152,-246 1152,-246 1152,-246 1152,-188 1152,-90.8 794.8,-79.23 677.11,-78.06"/>
<polygon fill="midnightblue" stroke="midnightblue" points="676.83,-74.56 666.81,-77.98 676.78,-81.56 676.83,-74.56"/>
</g>
<!-- Node11 -->
<g id="node11" class="node">
<title>Node11</title>
<g id="a_node11"><a xlink:title=" ">
<polygon fill="white" stroke="#bfbfbf" points="970,-179.5 970,-198.5 1014,-198.5 1014,-179.5 970,-179.5"/>
<text text-anchor="middle" x="992" y="-186.5" font-family="Helvetica,sans-Serif" font-size="10.00">string</text>
</a>
</g>
</g>
<!-- Node9&#45;&gt;Node11 -->
<g id="edge11" class="edge">
<title>Node9&#45;&gt;Node11</title>
<path fill="none" stroke="midnightblue" d="M620.17,-355.08C719.52,-352.05 1003.03,-340.86 1031,-311 1054.1,-286.34 1045.2,-266.51 1033,-235 1028.55,-223.5 1019.63,-213.13 1011.25,-205.25"/>
<polygon fill="midnightblue" stroke="midnightblue" points="1013.37,-202.46 1003.54,-198.51 1008.76,-207.73 1013.37,-202.46"/>
</g>
<!-- Node9&#45;&gt;Node12 -->
<g id="edge12" class="edge">
<title>Node9&#45;&gt;Node12</title>
<path fill="none" stroke="midnightblue" d="M551.96,-351.74C468.67,-340.58 258.3,-307.66 215,-255 193.52,-228.87 192.97,-207.62 211,-179 221.5,-162.34 240.06,-151.71 257.93,-145"/>
<polygon fill="midnightblue" stroke="midnightblue" points="259.4,-148.19 267.74,-141.66 257.14,-141.57 259.4,-148.19"/>
</g>
<!-- Node15 -->
<g id="node15" class="node">
<title>Node15</title>
<g id="a_node15"><a xlink:href="Color_8hpp.html" target="_top" xlink:title=" ">
<polygon fill="white" stroke="black" points="550,-179.5 550,-198.5 612,-198.5 612,-179.5 550,-179.5"/>
<text text-anchor="middle" x="581" y="-186.5" font-family="Helvetica,sans-Serif" font-size="10.00">Color.hpp</text>
</a>
</g>
</g>
<!-- Node9&#45;&gt;Node15 -->
<g id="edge17" class="edge">
<title>Node9&#45;&gt;Node15</title>
<path fill="none" stroke="midnightblue" d="M562.21,-347.5C546.28,-340.41 526.54,-328.61 517,-311 508.75,-295.78 513.6,-255.01 525,-235 532.26,-222.26 544.66,-211.73 555.95,-204.07"/>
<polygon fill="midnightblue" stroke="midnightblue" points="558.08,-206.86 564.65,-198.55 554.33,-200.95 558.08,-206.86"/>
</g>
<!-- Node9&#45;&gt;Node16 -->
<g id="edge20" class="edge">
<title>Node9&#45;&gt;Node16</title>
<path fill="none" stroke="midnightblue" d="M608.82,-347.44C632.83,-338.44 670.83,-324.19 697.87,-314.05"/>
<polygon fill="midnightblue" stroke="midnightblue" points="699.16,-317.3 707.29,-310.52 696.7,-310.75 699.16,-317.3"/>
</g>
<!-- Node23 -->
<g id="node23" class="node">
<title>Node23</title>
<g id="a_node23"><a xlink:href="Mesh_8hpp.html" target="_top" xlink:title=" ">
<polygon fill="white" stroke="black" points="611,-291.5 611,-310.5 675,-310.5 675,-291.5 611,-291.5"/>
<text text-anchor="middle" x="643" y="-298.5" font-family="Helvetica,sans-Serif" font-size="10.00">Mesh.hpp</text>
</a>
</g>
</g>
<!-- Node9&#45;&gt;Node23 -->
<g id="edge44" class="edge">
<title>Node9&#45;&gt;Node23</title>
<path fill="none" stroke="midnightblue" d="M595.16,-347.32C603.5,-339.42 616.03,-327.55 626.18,-317.94"/>
<polygon fill="midnightblue" stroke="midnightblue" points="628.82,-320.25 633.68,-310.83 624.01,-315.17 628.82,-320.25"/>
</g>
<!-- Node24 -->
<g id="node24" class="node">
<title>Node24</title>
<g id="a_node24"><a xlink:href="IDrawable_8hpp.html" target="_top" xlink:title=" ">
<polygon fill="white" stroke="black" points="390.5,-235.5 390.5,-254.5 477.5,-254.5 477.5,-235.5 390.5,-235.5"/>
<text text-anchor="middle" x="434" y="-242.5" font-family="Helvetica,sans-Serif" font-size="10.00">IDrawable.hpp</text>
</a>
</g>
</g>
<!-- Node9&#45;&gt;Node24 -->
<g id="edge49" class="edge">
<title>Node9&#45;&gt;Node24</title>
<path fill="none" stroke="midnightblue" d="M555.85,-347.39C534.06,-340.14 504.75,-328.17 483,-311 466.42,-297.91 452.49,-277.94 443.78,-263.59"/>
<polygon fill="midnightblue" stroke="midnightblue" points="446.66,-261.59 438.6,-254.71 440.61,-265.11 446.66,-261.59"/>
</g>
<!-- Node25 -->
<g id="node25" class="node">
<title>Node25</title>
<g id="a_node25"><a xlink:href="Shader_8hpp.html" target="_top" xlink:title=" ">
<polygon fill="white" stroke="black" points="950.5,-291.5 950.5,-310.5 1021.5,-310.5 1021.5,-291.5 950.5,-291.5"/>
<text text-anchor="middle" x="986" y="-298.5" font-family="Helvetica,sans-Serif" font-size="10.00">Shader.hpp</text>
</a>
</g>
</g>
<!-- Node9&#45;&gt;Node25 -->
<g id="edge53" class="edge">
<title>Node9&#45;&gt;Node25</title>
<path fill="none" stroke="midnightblue" d="M620.1,-351.4C692.03,-341.69 859.3,-319.1 940.35,-308.16"/>
<polygon fill="midnightblue" stroke="midnightblue" points="940.82,-311.63 950.27,-306.82 939.89,-304.69 940.82,-311.63"/>
</g>
<!-- Node27 -->
<g id="node27" class="node">
<title>Node27</title>
<g id="a_node27"><a xlink:title=" ">
<polygon fill="white" stroke="#bfbfbf" points="525.5,-291.5 525.5,-310.5 592.5,-310.5 592.5,-291.5 525.5,-291.5"/>
<text text-anchor="middle" x="559" y="-298.5" font-family="Helvetica,sans-Serif" font-size="10.00">raymath.h</text>
</a>
</g>
</g>
<!-- Node9&#45;&gt;Node27 -->
<g id="edge58" class="edge">
<title>Node9&#45;&gt;Node27</title>
<path fill="none" stroke="midnightblue" d="M581.54,-347.08C577.85,-339.69 572.48,-328.95 567.91,-319.81"/>
<polygon fill="midnightblue" stroke="midnightblue" points="570.98,-318.13 563.38,-310.75 564.72,-321.26 570.98,-318.13"/>
</g>
<!-- Node12&#45;&gt;Node5 -->
<g id="edge14" class="edge">
<title>Node12&#45;&gt;Node5</title>
<path fill="none" stroke="midnightblue" d="M289.74,-123.32C274.78,-114.82 251.75,-101.73 234.27,-91.8"/>
<polygon fill="midnightblue" stroke="midnightblue" points="235.65,-88.55 225.23,-86.65 232.19,-94.64 235.65,-88.55"/>
</g>
<!-- Node12&#45;&gt;Node10 -->
<g id="edge13" class="edge">
<title>Node12&#45;&gt;Node10</title>
<path fill="none" stroke="midnightblue" d="M342.13,-126.01C406.68,-115.61 538.83,-94.31 603.17,-83.94"/>
<polygon fill="midnightblue" stroke="midnightblue" points="603.94,-87.36 613.26,-82.31 602.83,-80.45 603.94,-87.36"/>
</g>
<!-- Node13 -->
<g id="node13" class="node">
<title>Node13</title>
<g id="a_node13"><a xlink:title=" ">
<polygon fill="white" stroke="#bfbfbf" points="378.5,-67.5 378.5,-86.5 425.5,-86.5 425.5,-67.5 378.5,-67.5"/>
<text text-anchor="middle" x="402" y="-74.5" font-family="Helvetica,sans-Serif" font-size="10.00">cmath</text>
</a>
</g>
</g>
<!-- Node12&#45;&gt;Node13 -->
<g id="edge15" class="edge">
<title>Node12&#45;&gt;Node13</title>
<path fill="none" stroke="midnightblue" d="M320.58,-123.32C336,-114.74 359.81,-101.49 377.71,-91.52"/>
<polygon fill="midnightblue" stroke="midnightblue" points="379.42,-94.58 386.45,-86.65 376.01,-88.46 379.42,-94.58"/>
</g>
<!-- Node14 -->
<g id="node14" class="node">
<title>Node14</title>
<g id="a_node14"><a xlink:title=" ">
<polygon fill="white" stroke="#bfbfbf" points="288,-67.5 288,-86.5 344,-86.5 344,-67.5 288,-67.5"/>
<text text-anchor="middle" x="316" y="-74.5" font-family="Helvetica,sans-Serif" font-size="10.00">sstream</text>
</a>
</g>
</g>
<!-- Node12&#45;&gt;Node14 -->
<g id="edge16" class="edge">
<title>Node12&#45;&gt;Node14</title>
<path fill="none" stroke="midnightblue" d="M306.82,-123.08C308.27,-115.93 310.37,-105.64 312.19,-96.69"/>
<polygon fill="midnightblue" stroke="midnightblue" points="315.65,-97.25 314.22,-86.75 308.79,-95.85 315.65,-97.25"/>
</g>
<!-- Node15&#45;&gt;Node10 -->
<g id="edge18" class="edge">
<title>Node15&#45;&gt;Node10</title>
<path fill="none" stroke="midnightblue" d="M585.63,-179.37C595.28,-161.38 617.71,-119.55 630.55,-95.63"/>
<polygon fill="midnightblue" stroke="midnightblue" points="633.75,-97.06 635.39,-86.59 627.58,-93.75 633.75,-97.06"/>
</g>
<!-- Node15&#45;&gt;Node12 -->
<g id="edge19" class="edge">
<title>Node15&#45;&gt;Node12</title>
<path fill="none" stroke="midnightblue" d="M549.88,-181.91C501.7,-172.48 408.75,-154.3 352.25,-143.24"/>
<polygon fill="midnightblue" stroke="midnightblue" points="352.63,-139.75 342.14,-141.27 351.28,-146.62 352.63,-139.75"/>
</g>
<!-- Node16&#45;&gt;Node10 -->
<g id="edge21" class="edge">
<title>Node16&#45;&gt;Node10</title>
<path fill="none" stroke="midnightblue" d="M767.33,-297.99C818.14,-293.57 900.26,-279.52 877,-235 835.15,-154.9 731.92,-109.07 676.53,-89.46"/>
<polygon fill="midnightblue" stroke="midnightblue" points="677.36,-86.04 666.76,-86.1 675.08,-92.66 677.36,-86.04"/>
</g>
<!-- Node16&#45;&gt;Node11 -->
<g id="edge22" class="edge">
<title>Node16&#45;&gt;Node11</title>
<path fill="none" stroke="midnightblue" d="M767.1,-295.42C804.64,-289.73 863.62,-277.84 910,-255 935.81,-242.29 961.07,-220.42 976.59,-205.6"/>
<polygon fill="midnightblue" stroke="midnightblue" points="979.06,-208.07 983.76,-198.57 974.17,-203.07 979.06,-208.07"/>
</g>
<!-- Node16&#45;&gt;Node15 -->
<g id="edge32" class="edge">
<title>Node16&#45;&gt;Node15</title>
<path fill="none" stroke="midnightblue" d="M718.31,-291.37C692.85,-272.57 632.16,-227.77 600.69,-204.53"/>
<polygon fill="midnightblue" stroke="midnightblue" points="602.76,-201.72 592.64,-198.59 598.6,-207.35 602.76,-201.72"/>
</g>
<!-- Node17 -->
<g id="node17" class="node">
<title>Node17</title>
<g id="a_node17"><a xlink:href="Image_8hpp.html" target="_top" xlink:title=" ">
<polygon fill="white" stroke="black" points="534,-235.5 534,-254.5 602,-254.5 602,-235.5 534,-235.5"/>
<text text-anchor="middle" x="568" y="-242.5" font-family="Helvetica,sans-Serif" font-size="10.00">Image.hpp</text>
</a>
</g>
</g>
<!-- Node16&#45;&gt;Node17 -->
<g id="edge23" class="edge">
<title>Node16&#45;&gt;Node17</title>
<path fill="none" stroke="midnightblue" d="M704.33,-291.44C677.08,-282.36 633.82,-267.94 603.35,-257.78"/>
<polygon fill="midnightblue" stroke="midnightblue" points="604.14,-254.36 593.55,-254.52 601.93,-261 604.14,-254.36"/>
</g>
<!-- Node18 -->
<g id="node18" class="node">
<title>Node18</title>
<g id="a_node18"><a xlink:href="Vector2_8hpp.html" target="_top" xlink:title=" ">
<polygon fill="white" stroke="black" points="382,-179.5 382,-198.5 456,-198.5 456,-179.5 382,-179.5"/>
<text text-anchor="middle" x="419" y="-186.5" font-family="Helvetica,sans-Serif" font-size="10.00">Vector2.hpp</text>
</a>
</g>
</g>
<!-- Node16&#45;&gt;Node18 -->
<g id="edge33" class="edge">
<title>Node16&#45;&gt;Node18</title>
<path fill="none" stroke="midnightblue" d="M692.88,-292.49C689.88,-291.96 686.89,-291.45 684,-291 617.23,-280.5 426.87,-305.54 382,-255 368.57,-239.87 385.2,-219.07 400.27,-205.12"/>
<polygon fill="midnightblue" stroke="midnightblue" points="402.61,-207.72 407.84,-198.51 398.01,-202.45 402.61,-207.72"/>
</g>
<!-- Node19 -->
<g id="node19" class="node">
<title>Node19</title>
<g id="a_node19"><a xlink:href="Camera3D_8hpp.html" target="_top" xlink:title=" ">
<polygon fill="white" stroke="black" points="244.5,-235.5 244.5,-254.5 333.5,-254.5 333.5,-235.5 244.5,-235.5"/>
<text text-anchor="middle" x="289" y="-242.5" font-family="Helvetica,sans-Serif" font-size="10.00">Camera3D.hpp</text>
</a>
</g>
</g>
<!-- Node16&#45;&gt;Node19 -->
<g id="edge34" class="edge">
<title>Node16&#45;&gt;Node19</title>
<path fill="none" stroke="midnightblue" d="M692.89,-292.45C689.89,-291.93 686.9,-291.44 684,-291 535.5,-268.56 496.94,-274.33 348,-255 346.7,-254.83 345.38,-254.66 344.06,-254.48"/>
<polygon fill="midnightblue" stroke="midnightblue" points="344.14,-250.96 333.75,-253.04 343.17,-257.89 344.14,-250.96"/>
</g>
<!-- Node21 -->
<g id="node21" class="node">
<title>Node21</title>
<g id="a_node21"><a xlink:href="Rectangle_8hpp.html" target="_top" xlink:title=" ">
<polygon fill="white" stroke="black" points="782,-235.5 782,-254.5 868,-254.5 868,-235.5 782,-235.5"/>
<text text-anchor="middle" x="825" y="-242.5" font-family="Helvetica,sans-Serif" font-size="10.00">Rectangle.hpp</text>
</a>
</g>
</g>
<!-- Node16&#45;&gt;Node21 -->
<g id="edge40" class="edge">
<title>Node16&#45;&gt;Node21</title>
<path fill="none" stroke="midnightblue" d="M745.26,-291.32C760.22,-282.82 783.25,-269.73 800.73,-259.8"/>
<polygon fill="midnightblue" stroke="midnightblue" points="802.81,-262.64 809.77,-254.65 799.35,-256.55 802.81,-262.64"/>
</g>
<!-- Node22 -->
<g id="node22" class="node">
<title>Node22</title>
<g id="a_node22"><a xlink:href="IAsset_8hpp.html" target="_top" xlink:title=" ">
<polygon fill="white" stroke="black" points="696,-235.5 696,-254.5 764,-254.5 764,-235.5 696,-235.5"/>
<text text-anchor="middle" x="730" y="-242.5" font-family="Helvetica,sans-Serif" font-size="10.00">IAsset.hpp</text>
</a>
</g>
</g>
<!-- Node16&#45;&gt;Node22 -->
<g id="edge43" class="edge">
<title>Node16&#45;&gt;Node22</title>
<path fill="none" stroke="midnightblue" d="M730,-291.08C730,-284.01 730,-273.86 730,-264.99"/>
<polygon fill="midnightblue" stroke="midnightblue" points="733.5,-264.75 730,-254.75 726.5,-264.75 733.5,-264.75"/>
</g>
<!-- Node17&#45;&gt;Node10 -->
<g id="edge25" class="edge">
<title>Node17&#45;&gt;Node10</title>
<path fill="none" stroke="midnightblue" d="M583.18,-235.37C595.47,-227.53 612.14,-214.79 621,-199 639.23,-166.5 641.41,-121.79 640.96,-96.82"/>
<polygon fill="midnightblue" stroke="midnightblue" points="644.45,-96.44 640.61,-86.57 637.46,-96.69 644.45,-96.44"/>
</g>
<!-- Node17&#45;&gt;Node11 -->
<g id="edge24" class="edge">
<title>Node17&#45;&gt;Node11</title>
<path fill="none" stroke="midnightblue" d="M602.34,-239.63C682.55,-229.41 881.34,-204.09 959.6,-194.13"/>
<polygon fill="midnightblue" stroke="midnightblue" points="960.34,-197.56 969.82,-192.82 959.46,-190.62 960.34,-197.56"/>
</g>
<!-- Node17&#45;&gt;Node15 -->
<g id="edge26" class="edge">
<title>Node17&#45;&gt;Node15</title>
<path fill="none" stroke="midnightblue" d="M570.15,-235.08C571.87,-227.93 574.35,-217.64 576.5,-208.69"/>
<polygon fill="midnightblue" stroke="midnightblue" points="579.96,-209.29 578.89,-198.75 573.15,-207.65 579.96,-209.29"/>
</g>
<!-- Node17&#45;&gt;Node18 -->
<g id="edge27" class="edge">
<title>Node17&#45;&gt;Node18</title>
<path fill="none" stroke="midnightblue" d="M544.39,-235.44C519.54,-226.44 480.23,-212.19 452.25,-202.05"/>
<polygon fill="midnightblue" stroke="midnightblue" points="453.09,-198.63 442.5,-198.52 450.71,-205.21 453.09,-198.63"/>
</g>
<!-- Node18&#45;&gt;Node5 -->
<g id="edge31" class="edge">
<title>Node18&#45;&gt;Node5</title>
<path fill="none" stroke="midnightblue" d="M412.02,-179.11C400.66,-165.21 376.84,-138.34 351,-123 324.14,-107.05 290.99,-96.1 263.59,-89"/>
<polygon fill="midnightblue" stroke="midnightblue" points="264.32,-85.58 253.77,-86.55 262.63,-92.37 264.32,-85.58"/>
</g>
<!-- Node18&#45;&gt;Node10 -->
<g id="edge28" class="edge">
<title>Node18&#45;&gt;Node10</title>
<path fill="none" stroke="midnightblue" d="M423.36,-179.37C430.89,-165.33 447.72,-137.67 470,-123 510.73,-96.19 566.82,-85.32 603.24,-80.93"/>
<polygon fill="midnightblue" stroke="midnightblue" points="603.86,-84.38 613.42,-79.81 603.1,-77.42 603.86,-84.38"/>
</g>
<!-- Node18&#45;&gt;Node12 -->
<g id="edge30" class="edge">
<title>Node18&#45;&gt;Node12</title>
<path fill="none" stroke="midnightblue" d="M400.94,-179.44C382.43,-170.68 353.42,-156.94 332.14,-146.86"/>
<polygon fill="midnightblue" stroke="midnightblue" points="333.51,-143.63 322.98,-142.52 330.52,-149.96 333.51,-143.63"/>
</g>
<!-- Node18&#45;&gt;Node13 -->
<g id="edge29" class="edge">
<title>Node18&#45;&gt;Node13</title>
<path fill="none" stroke="midnightblue" d="M417.67,-179.37C414.92,-161.62 408.59,-120.67 404.87,-96.6"/>
<polygon fill="midnightblue" stroke="midnightblue" points="408.31,-95.94 403.33,-86.59 401.4,-97.01 408.31,-95.94"/>
</g>
<!-- Node19&#45;&gt;Node10 -->
<g id="edge35" class="edge">
<title>Node19&#45;&gt;Node10</title>
<path fill="none" stroke="midnightblue" d="M333.76,-237.69C370.4,-231.34 422.88,-219.48 465,-199 489.94,-186.87 541.03,-138.54 564,-123 580.72,-111.69 600.35,-100.11 615.47,-91.53"/>
<polygon fill="midnightblue" stroke="midnightblue" points="617.23,-94.55 624.23,-86.6 613.8,-88.45 617.23,-94.55"/>
</g>
<!-- Node19&#45;&gt;Node12 -->
<g id="edge37" class="edge">
<title>Node19&#45;&gt;Node12</title>
<path fill="none" stroke="midnightblue" d="M290.67,-235.4C292.39,-226.36 295.09,-211.71 297,-199 299.33,-183.52 301.46,-165.89 302.94,-152.9"/>
<polygon fill="midnightblue" stroke="midnightblue" points="306.43,-153.18 304.06,-142.85 299.48,-152.4 306.43,-153.18"/>
</g>
<!-- Node19&#45;&gt;Node18 -->
<g id="edge36" class="edge">
<title>Node19&#45;&gt;Node18</title>
<path fill="none" stroke="midnightblue" d="M309.6,-235.44C330.99,-226.56 364.68,-212.56 389.02,-202.45"/>
<polygon fill="midnightblue" stroke="midnightblue" points="390.61,-205.58 398.5,-198.52 387.92,-199.12 390.61,-205.58"/>
</g>
<!-- Node20 -->
<g id="node20" class="node">
<title>Node20</title>
<g id="a_node20"><a xlink:href="Ray_8hpp.html" target="_top" xlink:title=" ">
<polygon fill="white" stroke="black" points="232.5,-179.5 232.5,-198.5 287.5,-198.5 287.5,-179.5 232.5,-179.5"/>
<text text-anchor="middle" x="260" y="-186.5" font-family="Helvetica,sans-Serif" font-size="10.00">Ray.hpp</text>
</a>
</g>
</g>
<!-- Node19&#45;&gt;Node20 -->
<g id="edge38" class="edge">
<title>Node19&#45;&gt;Node20</title>
<path fill="none" stroke="midnightblue" d="M284.21,-235.08C280.24,-227.69 274.47,-216.95 269.57,-207.81"/>
<polygon fill="midnightblue" stroke="midnightblue" points="272.51,-205.91 264.7,-198.75 266.35,-209.22 272.51,-205.91"/>
</g>
<!-- Node20&#45;&gt;Node12 -->
<g id="edge39" class="edge">
<title>Node20&#45;&gt;Node12</title>
<path fill="none" stroke="midnightblue" d="M267.43,-179.08C273.85,-171.38 283.31,-160.03 291.12,-150.65"/>
<polygon fill="midnightblue" stroke="midnightblue" points="293.99,-152.67 297.71,-142.75 288.62,-148.19 293.99,-152.67"/>
</g>
<!-- Node21&#45;&gt;Node10 -->
<g id="edge41" class="edge">
<title>Node21&#45;&gt;Node10</title>
<path fill="none" stroke="midnightblue" d="M815.72,-235.41C794.16,-215.49 738.93,-164.64 692,-123 680.7,-112.97 667.86,-101.86 657.77,-93.19"/>
<polygon fill="midnightblue" stroke="midnightblue" points="659.9,-90.41 650.03,-86.55 655.35,-95.72 659.9,-90.41"/>
</g>
<!-- Node21&#45;&gt;Node15 -->
<g id="edge42" class="edge">
<title>Node21&#45;&gt;Node15</title>
<path fill="none" stroke="midnightblue" d="M786.34,-235.44C741.49,-225.52 667.86,-209.22 622.02,-199.08"/>
<polygon fill="midnightblue" stroke="midnightblue" points="622.65,-195.63 612.13,-196.89 621.13,-202.47 622.65,-195.63"/>
</g>
<!-- Node23&#45;&gt;Node10 -->
<g id="edge45" class="edge">
<title>Node23&#45;&gt;Node10</title>
<path fill="none" stroke="midnightblue" d="M644.66,-291.48C649.41,-265.85 662.1,-187.3 653,-123 651.73,-114.04 649.11,-104.37 646.55,-96.3"/>
<polygon fill="midnightblue" stroke="midnightblue" points="649.86,-95.16 643.34,-86.8 643.23,-97.4 649.86,-95.16"/>
</g>
<!-- Node23&#45;&gt;Node12 -->
<g id="edge47" class="edge">
<title>Node23&#45;&gt;Node12</title>
<path fill="none" stroke="midnightblue" d="M610.84,-292.56C607.86,-291.99 604.88,-291.46 602,-291 521.28,-278.22 296.96,-309.43 236,-255 210.49,-232.22 206.66,-208.47 224,-179 232.92,-163.84 248.99,-153.43 264.48,-146.46"/>
<polygon fill="midnightblue" stroke="midnightblue" points="266.06,-149.6 273.98,-142.56 263.4,-143.12 266.06,-149.6"/>
</g>
<!-- Node23&#45;&gt;Node17 -->
<g id="edge46" class="edge">
<title>Node23&#45;&gt;Node17</title>
<path fill="none" stroke="midnightblue" d="M630.95,-291.32C619.54,-283.11 602.17,-270.6 588.57,-260.81"/>
<polygon fill="midnightblue" stroke="midnightblue" points="590.43,-257.84 580.27,-254.83 586.34,-263.52 590.43,-257.84"/>
</g>
<!-- Node23&#45;&gt;Node22 -->
<g id="edge48" class="edge">
<title>Node23&#45;&gt;Node22</title>
<path fill="none" stroke="midnightblue" d="M656.98,-291.32C670.55,-282.9 691.38,-269.97 707.32,-260.07"/>
<polygon fill="midnightblue" stroke="midnightblue" points="709.41,-262.9 716.06,-254.65 705.71,-256.95 709.41,-262.9"/>
</g>
<!-- Node24&#45;&gt;Node10 -->
<g id="edge50" class="edge">
<title>Node24&#45;&gt;Node10</title>
<path fill="none" stroke="midnightblue" d="M447,-235.38C460.12,-226.56 480.82,-212.31 498,-199 544.66,-162.84 596.87,-116.83 623.06,-93.33"/>
<polygon fill="midnightblue" stroke="midnightblue" points="625.52,-95.82 630.61,-86.53 620.84,-90.62 625.52,-95.82"/>
</g>
<!-- Node24&#45;&gt;Node12 -->
<g id="edge51" class="edge">
<title>Node24&#45;&gt;Node12</title>
<path fill="none" stroke="midnightblue" d="M421.5,-235.48C408.91,-226.74 389.12,-212.55 373,-199 354.19,-183.18 334,-163.5 320.55,-149.97"/>
<polygon fill="midnightblue" stroke="midnightblue" points="322.98,-147.45 313.47,-142.78 318,-152.36 322.98,-147.45"/>
</g>
<!-- Node24&#45;&gt;Node15 -->
<g id="edge52" class="edge">
<title>Node24&#45;&gt;Node15</title>
<path fill="none" stroke="midnightblue" d="M457.29,-235.44C481.81,-226.44 520.6,-212.19 548.2,-202.05"/>
<polygon fill="midnightblue" stroke="midnightblue" points="549.64,-205.25 557.82,-198.52 547.22,-198.68 549.64,-205.25"/>
</g>
<!-- Node25&#45;&gt;Node10 -->
<g id="edge56" class="edge">
<title>Node25&#45;&gt;Node10</title>
<path fill="none" stroke="midnightblue" d="M1000.08,-291.26C1011.35,-283.35 1026.35,-270.58 1033,-255 1041.26,-235.66 1031.6,-188.32 1023,-179 975.74,-127.74 763.02,-94.31 676.63,-82.63"/>
<polygon fill="midnightblue" stroke="midnightblue" points="676.88,-79.13 666.5,-81.28 675.96,-86.07 676.88,-79.13"/>
</g>
<!-- Node25&#45;&gt;Node11 -->
<g id="edge55" class="edge">
<title>Node25&#45;&gt;Node11</title>
<path fill="none" stroke="midnightblue" d="M995.02,-291.34C1003.07,-282.93 1014.3,-269.36 1019,-255 1024.5,-238.2 1015.17,-219.64 1006.01,-206.67"/>
<polygon fill="midnightblue" stroke="midnightblue" points="1008.74,-204.48 999.88,-198.67 1003.18,-208.73 1008.74,-204.48"/>
</g>
<!-- Node25&#45;&gt;Node22 -->
<g id="edge54" class="edge">
<title>Node25&#45;&gt;Node22</title>
<path fill="none" stroke="midnightblue" d="M950.4,-292.49C904.26,-282.76 823.81,-265.79 773.92,-255.27"/>
<polygon fill="midnightblue" stroke="midnightblue" points="774.58,-251.83 764.07,-253.19 773.13,-258.68 774.58,-251.83"/>
</g>
<!-- Node26 -->
<g id="node26" class="node">
<title>Node26</title>
<g id="a_node26"><a xlink:title=" ">
<polygon fill="white" stroke="#bfbfbf" points="962.5,-235.5 962.5,-254.5 1009.5,-254.5 1009.5,-235.5 962.5,-235.5"/>
<text text-anchor="middle" x="986" y="-242.5" font-family="Helvetica,sans-Serif" font-size="10.00">vector</text>
</a>
</g>
</g>
<!-- Node25&#45;&gt;Node26 -->
<g id="edge57" class="edge">
<title>Node25&#45;&gt;Node26</title>
<path fill="none" stroke="midnightblue" d="M986,-291.08C986,-284.01 986,-273.86 986,-264.99"/>
<polygon fill="midnightblue" stroke="midnightblue" points="989.5,-264.75 986,-254.75 982.5,-264.75 989.5,-264.75"/>
</g>
</g>
</svg>
