<?xml version="1.0" encoding="UTF-8" standalone="no"?>
<!DOCTYPE svg PUBLIC "-//W3C//DTD SVG 1.1//EN"
 "http://www.w3.org/Graphics/SVG/1.1/DTD/svg11.dtd">
<!-- Generated by graphviz version 2.43.0 (0)
 -->
<!-- Title: Libs/Engine/sources/Components/Particle/Particle.hpp Pages: 1 -->
<svg width="908pt" height="397pt"
 viewBox="0.00 0.00 908.00 397.00" xmlns="http://www.w3.org/2000/svg" xmlns:xlink="http://www.w3.org/1999/xlink">
<g id="graph0" class="graph" transform="scale(1 1) rotate(0) translate(4 393)">
<title>Libs/Engine/sources/Components/Particle/Particle.hpp</title>
<polygon fill="white" stroke="transparent" points="-4,4 -4,-393 904,-393 904,4 -4,4"/>
<!-- Node1 -->
<g id="node1" class="node">
<title>Node1</title>
<g id="a_node1"><a xlink:title=" ">
<polygon fill="#bfbfbf" stroke="black" points="555.5,-347.5 555.5,-388.5 675.5,-388.5 675.5,-347.5 555.5,-347.5"/>
<text text-anchor="start" x="563.5" y="-376.5" font-family="Helvetica,sans-Serif" font-size="10.00">Libs/Engine/sources</text>
<text text-anchor="start" x="563.5" y="-365.5" font-family="Helvetica,sans-Serif" font-size="10.00">/Components/Particle</text>
<text text-anchor="middle" x="615.5" y="-354.5" font-family="Helvetica,sans-Serif" font-size="10.00">/Particle.hpp</text>
</a>
</g>
</g>
<!-- Node2 -->
<g id="node2" class="node">
<title>Node2</title>
<g id="a_node2"><a xlink:href="IBehaviour_8hpp.html" target="_top" xlink:title=" ">
<polygon fill="white" stroke="black" points="429,-291.5 429,-310.5 518,-310.5 518,-291.5 429,-291.5"/>
<text text-anchor="middle" x="473.5" y="-298.5" font-family="Helvetica,sans-Serif" font-size="10.00">IBehaviour.hpp</text>
</a>
</g>
</g>
<!-- Node1&#45;&gt;Node2 -->
<g id="edge1" class="edge">
<title>Node1&#45;&gt;Node2</title>
<path fill="none" stroke="midnightblue" d="M572.9,-347.5C549.87,-336.96 522.07,-324.23 501.73,-314.92"/>
<polygon fill="midnightblue" stroke="midnightblue" points="502.95,-311.63 492.4,-310.65 500.04,-318 502.95,-311.63"/>
</g>
<!-- Node21 -->
<g id="node21" class="node">
<title>Node21</title>
<g id="a_node21"><a xlink:href="Vector3_8hpp.html" target="_top" xlink:title=" ">
<polygon fill="white" stroke="black" points="725.5,-291.5 725.5,-310.5 799.5,-310.5 799.5,-291.5 725.5,-291.5"/>
<text text-anchor="middle" x="762.5" y="-298.5" font-family="Helvetica,sans-Serif" font-size="10.00">Vector3.hpp</text>
</a>
</g>
</g>
<!-- Node1&#45;&gt;Node21 -->
<g id="edge31" class="edge">
<title>Node1&#45;&gt;Node21</title>
<path fill="none" stroke="midnightblue" d="M659.6,-347.5C683.55,-336.91 712.48,-324.12 733.56,-314.8"/>
<polygon fill="midnightblue" stroke="midnightblue" points="735.2,-317.9 742.93,-310.65 732.37,-311.5 735.2,-317.9"/>
</g>
<!-- Node3 -->
<g id="node3" class="node">
<title>Node3</title>
<g id="a_node3"><a xlink:href="IComponent_8hpp.html" target="_top" xlink:title=" ">
<polygon fill="white" stroke="black" points="0,-123.5 0,-142.5 97,-142.5 97,-123.5 0,-123.5"/>
<text text-anchor="middle" x="48.5" y="-130.5" font-family="Helvetica,sans-Serif" font-size="10.00">IComponent.hpp</text>
</a>
</g>
</g>
<!-- Node2&#45;&gt;Node3 -->
<g id="edge2" class="edge">
<title>Node2&#45;&gt;Node3</title>
<path fill="none" stroke="midnightblue" d="M441.65,-291.46C385.39,-275.95 265.26,-240.84 168.5,-199 133.37,-183.81 94.79,-161.9 71.1,-147.81"/>
<polygon fill="midnightblue" stroke="midnightblue" points="72.87,-144.79 62.5,-142.64 69.27,-150.79 72.87,-144.79"/>
</g>
<!-- Node9 -->
<g id="node9" class="node">
<title>Node9</title>
<g id="a_node9"><a xlink:href="Entity_8hpp.html" target="_top" xlink:title=" ">
<polygon fill="white" stroke="black" points="441,-235.5 441,-254.5 506,-254.5 506,-235.5 441,-235.5"/>
<text text-anchor="middle" x="473.5" y="-242.5" font-family="Helvetica,sans-Serif" font-size="10.00">Entity.hpp</text>
</a>
</g>
</g>
<!-- Node2&#45;&gt;Node9 -->
<g id="edge9" class="edge">
<title>Node2&#45;&gt;Node9</title>
<path fill="none" stroke="midnightblue" d="M473.5,-291.08C473.5,-284.01 473.5,-273.86 473.5,-264.99"/>
<polygon fill="midnightblue" stroke="midnightblue" points="477,-264.75 473.5,-254.75 470,-264.75 477,-264.75"/>
</g>
<!-- Node4 -->
<g id="node4" class="node">
<title>Node4</title>
<g id="a_node4"><a xlink:title=" ">
<polygon fill="white" stroke="#bfbfbf" points="20,-6 20,-25 77,-25 77,-6 20,-6"/>
<text text-anchor="middle" x="48.5" y="-13" font-family="Helvetica,sans-Serif" font-size="10.00">ostream</text>
</a>
</g>
</g>
<!-- Node3&#45;&gt;Node4 -->
<g id="edge3" class="edge">
<title>Node3&#45;&gt;Node4</title>
<path fill="none" stroke="midnightblue" d="M48.5,-123.32C48.5,-104.76 48.5,-60.84 48.5,-35.47"/>
<polygon fill="midnightblue" stroke="midnightblue" points="52,-35.28 48.5,-25.28 45,-35.28 52,-35.28"/>
</g>
<!-- Node5 -->
<g id="node5" class="node">
<title>Node5</title>
<g id="a_node5"><a xlink:href="IXMLSerializable_8hpp.html" target="_top" xlink:title=" ">
<polygon fill="white" stroke="black" points="157,-67.5 157,-86.5 276,-86.5 276,-67.5 157,-67.5"/>
<text text-anchor="middle" x="216.5" y="-74.5" font-family="Helvetica,sans-Serif" font-size="10.00">IXMLSerializable.hpp</text>
</a>
</g>
</g>
<!-- Node3&#45;&gt;Node5 -->
<g id="edge4" class="edge">
<title>Node3&#45;&gt;Node5</title>
<path fill="none" stroke="midnightblue" d="M75.12,-123.44C103.51,-114.32 148.64,-99.81 180.25,-89.65"/>
<polygon fill="midnightblue" stroke="midnightblue" points="181.56,-92.91 190,-86.52 179.41,-86.24 181.56,-92.91"/>
</g>
<!-- Node5&#45;&gt;Node4 -->
<g id="edge5" class="edge">
<title>Node5&#45;&gt;Node4</title>
<path fill="none" stroke="midnightblue" d="M190.29,-67.36C163.76,-58.53 121.61,-44.27 85.5,-31 83.61,-30.3 81.66,-29.58 79.7,-28.84"/>
<polygon fill="midnightblue" stroke="midnightblue" points="80.55,-25.41 69.96,-25.09 78.04,-31.95 80.55,-25.41"/>
</g>
<!-- Node6 -->
<g id="node6" class="node">
<title>Node6</title>
<g id="a_node6"><a xlink:title=" ">
<polygon fill="white" stroke="#bfbfbf" points="357.5,-6 357.5,-25 417.5,-25 417.5,-6 357.5,-6"/>
<text text-anchor="middle" x="387.5" y="-13" font-family="Helvetica,sans-Serif" font-size="10.00">iostream</text>
</a>
</g>
</g>
<!-- Node5&#45;&gt;Node6 -->
<g id="edge6" class="edge">
<title>Node5&#45;&gt;Node6</title>
<path fill="none" stroke="midnightblue" d="M241.66,-67.5C268.06,-58.54 310.76,-43.97 347.5,-31 349.88,-30.16 352.33,-29.29 354.8,-28.41"/>
<polygon fill="midnightblue" stroke="midnightblue" points="356.03,-31.68 364.26,-25 353.66,-25.09 356.03,-31.68"/>
</g>
<!-- Node7 -->
<g id="node7" class="node">
<title>Node7</title>
<g id="a_node7"><a xlink:title=" ">
<polygon fill="white" stroke="#bfbfbf" points="95,-0.5 95,-30.5 208,-30.5 208,-0.5 95,-0.5"/>
<text text-anchor="start" x="103" y="-18.5" font-family="Helvetica,sans-Serif" font-size="10.00">boost/property_tree</text>
<text text-anchor="middle" x="151.5" y="-7.5" font-family="Helvetica,sans-Serif" font-size="10.00">/ptree.hpp</text>
</a>
</g>
</g>
<!-- Node5&#45;&gt;Node7 -->
<g id="edge7" class="edge">
<title>Node5&#45;&gt;Node7</title>
<path fill="none" stroke="midnightblue" d="M207.19,-67.48C198.63,-59.64 185.6,-47.71 174.29,-37.37"/>
<polygon fill="midnightblue" stroke="midnightblue" points="176.56,-34.69 166.82,-30.52 171.83,-39.86 176.56,-34.69"/>
</g>
<!-- Node8 -->
<g id="node8" class="node">
<title>Node8</title>
<g id="a_node8"><a xlink:title=" ">
<polygon fill="white" stroke="#bfbfbf" points="226,-0.5 226,-30.5 339,-30.5 339,-0.5 226,-0.5"/>
<text text-anchor="start" x="234" y="-18.5" font-family="Helvetica,sans-Serif" font-size="10.00">boost/property_tree</text>
<text text-anchor="middle" x="282.5" y="-7.5" font-family="Helvetica,sans-Serif" font-size="10.00">/xml_parser.hpp</text>
</a>
</g>
</g>
<!-- Node5&#45;&gt;Node8 -->
<g id="edge8" class="edge">
<title>Node5&#45;&gt;Node8</title>
<path fill="none" stroke="midnightblue" d="M225.96,-67.48C234.64,-59.64 247.88,-47.71 259.36,-37.37"/>
<polygon fill="midnightblue" stroke="midnightblue" points="261.86,-39.82 266.95,-30.52 257.17,-34.62 261.86,-39.82"/>
</g>
<!-- Node9&#45;&gt;Node3 -->
<g id="edge30" class="edge">
<title>Node9&#45;&gt;Node3</title>
<path fill="none" stroke="midnightblue" d="M440.68,-239.42C394.29,-232.58 307.11,-218.4 234.5,-199 178.77,-184.11 115.75,-160.63 79.22,-146.34"/>
<polygon fill="midnightblue" stroke="midnightblue" points="80.24,-142.98 69.65,-142.57 77.67,-149.49 80.24,-142.98"/>
</g>
<!-- Node10 -->
<g id="node10" class="node">
<title>Node10</title>
<g id="a_node10"><a xlink:title=" ">
<polygon fill="white" stroke="#bfbfbf" points="728.5,-123.5 728.5,-142.5 790.5,-142.5 790.5,-123.5 728.5,-123.5"/>
<text text-anchor="middle" x="759.5" y="-130.5" font-family="Helvetica,sans-Serif" font-size="10.00">cinttypes</text>
</a>
</g>
</g>
<!-- Node9&#45;&gt;Node10 -->
<g id="edge10" class="edge">
<title>Node9&#45;&gt;Node10</title>
<path fill="none" stroke="midnightblue" d="M506.36,-243.71C552.39,-241.98 637.38,-233.82 699.5,-199 720.13,-187.43 737.66,-166.25 748.35,-151.22"/>
<polygon fill="midnightblue" stroke="midnightblue" points="751.35,-153.02 754.08,-142.79 745.56,-149.09 751.35,-153.02"/>
</g>
<!-- Node11 -->
<g id="node11" class="node">
<title>Node11</title>
<g id="a_node11"><a xlink:title=" ">
<polygon fill="white" stroke="#bfbfbf" points="115,-123.5 115,-142.5 208,-142.5 208,-123.5 115,-123.5"/>
<text text-anchor="middle" x="161.5" y="-130.5" font-family="Helvetica,sans-Serif" font-size="10.00">unordered_map</text>
</a>
</g>
</g>
<!-- Node9&#45;&gt;Node11 -->
<g id="edge11" class="edge">
<title>Node9&#45;&gt;Node11</title>
<path fill="none" stroke="midnightblue" d="M440.93,-239.35C401.53,-233.08 333.63,-220.19 278.5,-199 243.23,-185.44 205.57,-162.89 182.78,-148.23"/>
<polygon fill="midnightblue" stroke="midnightblue" points="184.54,-145.2 174.25,-142.67 180.71,-151.06 184.54,-145.2"/>
</g>
<!-- Node12 -->
<g id="node12" class="node">
<title>Node12</title>
<g id="a_node12"><a xlink:title=" ">
<polygon fill="white" stroke="#bfbfbf" points="536.5,-123.5 536.5,-142.5 594.5,-142.5 594.5,-123.5 536.5,-123.5"/>
<text text-anchor="middle" x="565.5" y="-130.5" font-family="Helvetica,sans-Serif" font-size="10.00">memory</text>
</a>
</g>
</g>
<!-- Node9&#45;&gt;Node12 -->
<g id="edge12" class="edge">
<title>Node9&#45;&gt;Node12</title>
<path fill="none" stroke="midnightblue" d="M480.72,-235.37C496.04,-217.05 532,-174.05 551.82,-150.36"/>
<polygon fill="midnightblue" stroke="midnightblue" points="554.58,-152.51 558.31,-142.59 549.21,-148.02 554.58,-152.51"/>
</g>
<!-- Node13 -->
<g id="node13" class="node">
<title>Node13</title>
<g id="a_node13"><a xlink:title=" ">
<polygon fill="white" stroke="#bfbfbf" points="226.5,-123.5 226.5,-142.5 290.5,-142.5 290.5,-123.5 226.5,-123.5"/>
<text text-anchor="middle" x="258.5" y="-130.5" font-family="Helvetica,sans-Serif" font-size="10.00">algorithm</text>
</a>
</g>
</g>
<!-- Node9&#45;&gt;Node13 -->
<g id="edge13" class="edge">
<title>Node9&#45;&gt;Node13</title>
<path fill="none" stroke="midnightblue" d="M440.87,-242.5C403.69,-239.32 342.63,-229.45 300.5,-199 284.2,-187.22 272.6,-167 265.78,-152.23"/>
<polygon fill="midnightblue" stroke="midnightblue" points="268.83,-150.44 261.66,-142.64 262.39,-153.21 268.83,-150.44"/>
</g>
<!-- Node14 -->
<g id="node14" class="node">
<title>Node14</title>
<g id="a_node14"><a xlink:title=" ">
<polygon fill="white" stroke="#bfbfbf" points="613,-123.5 613,-142.5 660,-142.5 660,-123.5 613,-123.5"/>
<text text-anchor="middle" x="636.5" y="-130.5" font-family="Helvetica,sans-Serif" font-size="10.00">vector</text>
</a>
</g>
</g>
<!-- Node9&#45;&gt;Node14 -->
<g id="edge14" class="edge">
<title>Node9&#45;&gt;Node14</title>
<path fill="none" stroke="midnightblue" d="M486.29,-235.37C514.26,-216.49 581.1,-171.38 615.4,-148.24"/>
<polygon fill="midnightblue" stroke="midnightblue" points="617.44,-151.09 623.77,-142.59 613.52,-145.28 617.44,-151.09"/>
</g>
<!-- Node15 -->
<g id="node15" class="node">
<title>Node15</title>
<g id="a_node15"><a xlink:title=" ">
<polygon fill="white" stroke="#bfbfbf" points="427,-123.5 427,-142.5 518,-142.5 518,-123.5 427,-123.5"/>
<text text-anchor="middle" x="472.5" y="-130.5" font-family="Helvetica,sans-Serif" font-size="10.00">Exceptions.hpp</text>
</a>
</g>
</g>
<!-- Node9&#45;&gt;Node15 -->
<g id="edge15" class="edge">
<title>Node9&#45;&gt;Node15</title>
<path fill="none" stroke="midnightblue" d="M473.42,-235.37C473.26,-217.62 472.89,-176.67 472.67,-152.6"/>
<polygon fill="midnightblue" stroke="midnightblue" points="476.17,-152.56 472.58,-142.59 469.17,-152.62 476.17,-152.56"/>
</g>
<!-- Node16 -->
<g id="node16" class="node">
<title>Node16</title>
<g id="a_node16"><a xlink:href="ComponentManager_8hpp.html" target="_top" xlink:title=" ">
<polygon fill="white" stroke="black" points="309.5,-179.5 309.5,-198.5 445.5,-198.5 445.5,-179.5 309.5,-179.5"/>
<text text-anchor="middle" x="377.5" y="-186.5" font-family="Helvetica,sans-Serif" font-size="10.00">ComponentManager.hpp</text>
</a>
</g>
</g>
<!-- Node9&#45;&gt;Node16 -->
<g id="edge16" class="edge">
<title>Node9&#45;&gt;Node16</title>
<path fill="none" stroke="midnightblue" d="M458.08,-235.32C442.96,-226.82 419.68,-213.73 402.03,-203.8"/>
<polygon fill="midnightblue" stroke="midnightblue" points="403.32,-200.51 392.89,-198.65 399.89,-206.61 403.32,-200.51"/>
</g>
<!-- Node19 -->
<g id="node19" class="node">
<title>Node19</title>
<g id="a_node19"><a xlink:href="EntityManager_8hpp.html" target="_top" xlink:title=" ">
<polygon fill="white" stroke="black" points="582.5,-179.5 582.5,-198.5 690.5,-198.5 690.5,-179.5 582.5,-179.5"/>
<text text-anchor="middle" x="636.5" y="-186.5" font-family="Helvetica,sans-Serif" font-size="10.00">EntityManager.hpp</text>
</a>
</g>
</g>
<!-- Node9&#45;&gt;Node19 -->
<g id="edge25" class="edge">
<title>Node9&#45;&gt;Node19</title>
<path fill="none" stroke="midnightblue" d="M499.33,-235.44C526.75,-226.36 570.28,-211.94 600.93,-201.78"/>
<polygon fill="midnightblue" stroke="midnightblue" points="602.4,-204.98 610.79,-198.52 600.2,-198.34 602.4,-204.98"/>
</g>
<!-- Node16&#45;&gt;Node3 -->
<g id="edge23" class="edge">
<title>Node16&#45;&gt;Node3</title>
<path fill="none" stroke="midnightblue" d="M325.37,-179.44C265.98,-169.7 169.17,-153.81 107.19,-143.63"/>
<polygon fill="midnightblue" stroke="midnightblue" points="107.6,-140.15 97.17,-141.99 106.47,-147.06 107.6,-140.15"/>
</g>
<!-- Node16&#45;&gt;Node11 -->
<g id="edge17" class="edge">
<title>Node16&#45;&gt;Node11</title>
<path fill="none" stroke="midnightblue" d="M343.27,-179.44C305.99,-170.12 246.23,-155.18 205.49,-145"/>
<polygon fill="midnightblue" stroke="midnightblue" points="206.12,-141.55 195.57,-142.52 204.42,-148.34 206.12,-141.55"/>
</g>
<!-- Node16&#45;&gt;Node12 -->
<g id="edge20" class="edge">
<title>Node16&#45;&gt;Node12</title>
<path fill="none" stroke="midnightblue" d="M407.29,-179.44C439.52,-170.19 491.04,-155.39 526.48,-145.21"/>
<polygon fill="midnightblue" stroke="midnightblue" points="527.82,-148.46 536.47,-142.34 525.89,-141.74 527.82,-148.46"/>
</g>
<!-- Node16&#45;&gt;Node13 -->
<g id="edge21" class="edge">
<title>Node16&#45;&gt;Node13</title>
<path fill="none" stroke="midnightblue" d="M358.64,-179.44C339.23,-170.64 308.77,-156.81 286.54,-146.72"/>
<polygon fill="midnightblue" stroke="midnightblue" points="287.82,-143.46 277.27,-142.52 284.93,-149.84 287.82,-143.46"/>
</g>
<!-- Node16&#45;&gt;Node14 -->
<g id="edge19" class="edge">
<title>Node16&#45;&gt;Node14</title>
<path fill="none" stroke="midnightblue" d="M425.33,-179.48C469.06,-171.46 535.75,-158.67 602.86,-143.02"/>
<polygon fill="midnightblue" stroke="midnightblue" points="603.83,-146.39 612.76,-140.69 602.22,-139.57 603.83,-146.39"/>
</g>
<!-- Node16&#45;&gt;Node15 -->
<g id="edge22" class="edge">
<title>Node16&#45;&gt;Node15</title>
<path fill="none" stroke="midnightblue" d="M392.76,-179.32C407.72,-170.82 430.75,-157.73 448.23,-147.8"/>
<polygon fill="midnightblue" stroke="midnightblue" points="450.31,-150.64 457.27,-142.65 446.85,-144.55 450.31,-150.64"/>
</g>
<!-- Node17 -->
<g id="node17" class="node">
<title>Node17</title>
<g id="a_node17"><a xlink:title=" ">
<polygon fill="white" stroke="#bfbfbf" points="308.5,-123.5 308.5,-142.5 352.5,-142.5 352.5,-123.5 308.5,-123.5"/>
<text text-anchor="middle" x="330.5" y="-130.5" font-family="Helvetica,sans-Serif" font-size="10.00">string</text>
</a>
</g>
</g>
<!-- Node16&#45;&gt;Node17 -->
<g id="edge18" class="edge">
<title>Node16&#45;&gt;Node17</title>
<path fill="none" stroke="midnightblue" d="M369.74,-179.08C362.96,-171.3 352.96,-159.8 344.74,-150.37"/>
<polygon fill="midnightblue" stroke="midnightblue" points="347.32,-148 338.12,-142.75 342.04,-152.59 347.32,-148"/>
</g>
<!-- Node18 -->
<g id="node18" class="node">
<title>Node18</title>
<g id="a_node18"><a xlink:title=" ">
<polygon fill="white" stroke="#bfbfbf" points="370.5,-123.5 370.5,-142.5 408.5,-142.5 408.5,-123.5 370.5,-123.5"/>
<text text-anchor="middle" x="389.5" y="-130.5" font-family="Helvetica,sans-Serif" font-size="10.00">map</text>
</a>
</g>
</g>
<!-- Node16&#45;&gt;Node18 -->
<g id="edge24" class="edge">
<title>Node16&#45;&gt;Node18</title>
<path fill="none" stroke="midnightblue" d="M379.48,-179.08C381.07,-171.93 383.36,-161.64 385.35,-152.69"/>
<polygon fill="midnightblue" stroke="midnightblue" points="388.8,-153.27 387.56,-142.75 381.97,-151.75 388.8,-153.27"/>
</g>
<!-- Node19&#45;&gt;Node10 -->
<g id="edge27" class="edge">
<title>Node19&#45;&gt;Node10</title>
<path fill="none" stroke="midnightblue" d="M655.99,-179.44C676.14,-170.6 707.82,-156.69 730.83,-146.59"/>
<polygon fill="midnightblue" stroke="midnightblue" points="732.35,-149.74 740.1,-142.52 729.54,-143.33 732.35,-149.74"/>
</g>
<!-- Node19&#45;&gt;Node12 -->
<g id="edge28" class="edge">
<title>Node19&#45;&gt;Node12</title>
<path fill="none" stroke="midnightblue" d="M625.09,-179.32C614.39,-171.18 598.16,-158.84 585.34,-149.09"/>
<polygon fill="midnightblue" stroke="midnightblue" points="587.19,-146.1 577.11,-142.83 582.96,-151.67 587.19,-146.1"/>
</g>
<!-- Node19&#45;&gt;Node14 -->
<g id="edge26" class="edge">
<title>Node19&#45;&gt;Node14</title>
<path fill="none" stroke="midnightblue" d="M636.5,-179.08C636.5,-172.01 636.5,-161.86 636.5,-152.99"/>
<polygon fill="midnightblue" stroke="midnightblue" points="640,-152.75 636.5,-142.75 633,-152.75 640,-152.75"/>
</g>
<!-- Node20 -->
<g id="node20" class="node">
<title>Node20</title>
<g id="a_node20"><a xlink:title=" ">
<polygon fill="white" stroke="#bfbfbf" points="678.5,-123.5 678.5,-142.5 710.5,-142.5 710.5,-123.5 678.5,-123.5"/>
<text text-anchor="middle" x="694.5" y="-130.5" font-family="Helvetica,sans-Serif" font-size="10.00">list</text>
</a>
</g>
</g>
<!-- Node19&#45;&gt;Node20 -->
<g id="edge29" class="edge">
<title>Node19&#45;&gt;Node20</title>
<path fill="none" stroke="midnightblue" d="M645.82,-179.32C654.39,-171.34 667.31,-159.31 677.69,-149.65"/>
<polygon fill="midnightblue" stroke="midnightblue" points="680.08,-152.21 685.01,-142.83 675.31,-147.09 680.08,-152.21"/>
</g>
<!-- Node21&#45;&gt;Node5 -->
<g id="edge33" class="edge">
<title>Node21&#45;&gt;Node5</title>
<path fill="none" stroke="midnightblue" d="M772.94,-291.24C781.92,-282.97 794.25,-269.66 799.5,-255 819.29,-199.77 839.36,-166.05 799.5,-123 765.28,-86.03 433.65,-79.34 286.37,-78.2"/>
<polygon fill="midnightblue" stroke="midnightblue" points="286.12,-74.69 276.1,-78.12 286.07,-81.69 286.12,-74.69"/>
</g>
<!-- Node22 -->
<g id="node22" class="node">
<title>Node22</title>
<g id="a_node22"><a xlink:title=" ">
<polygon fill="white" stroke="#bfbfbf" points="847,-235.5 847,-254.5 900,-254.5 900,-235.5 847,-235.5"/>
<text text-anchor="middle" x="873.5" y="-242.5" font-family="Helvetica,sans-Serif" font-size="10.00">raylib.h</text>
</a>
</g>
</g>
<!-- Node21&#45;&gt;Node22 -->
<g id="edge32" class="edge">
<title>Node21&#45;&gt;Node22</title>
<path fill="none" stroke="midnightblue" d="M780.33,-291.32C798.22,-282.62 825.98,-269.12 846.55,-259.11"/>
<polygon fill="midnightblue" stroke="midnightblue" points="848.25,-262.18 855.71,-254.65 845.19,-255.88 848.25,-262.18"/>
</g>
<!-- Node23 -->
<g id="node23" class="node">
<title>Node23</title>
<g id="a_node23"><a xlink:title=" ">
<polygon fill="white" stroke="#bfbfbf" points="669,-235.5 669,-254.5 716,-254.5 716,-235.5 669,-235.5"/>
<text text-anchor="middle" x="692.5" y="-242.5" font-family="Helvetica,sans-Serif" font-size="10.00">cmath</text>
</a>
</g>
</g>
<!-- Node21&#45;&gt;Node23 -->
<g id="edge34" class="edge">
<title>Node21&#45;&gt;Node23</title>
<path fill="none" stroke="midnightblue" d="M751.25,-291.32C740.7,-283.18 724.7,-270.84 712.06,-261.09"/>
<polygon fill="midnightblue" stroke="midnightblue" points="714.01,-258.17 703.95,-254.83 709.73,-263.71 714.01,-258.17"/>
</g>
<!-- Node24 -->
<g id="node24" class="node">
<title>Node24</title>
<g id="a_node24"><a xlink:title=" ">
<polygon fill="white" stroke="#bfbfbf" points="734.5,-235.5 734.5,-254.5 790.5,-254.5 790.5,-235.5 734.5,-235.5"/>
<text text-anchor="middle" x="762.5" y="-242.5" font-family="Helvetica,sans-Serif" font-size="10.00">sstream</text>
</a>
</g>
</g>
<!-- Node21&#45;&gt;Node24 -->
<g id="edge35" class="edge">
<title>Node21&#45;&gt;Node24</title>
<path fill="none" stroke="midnightblue" d="M762.5,-291.08C762.5,-284.01 762.5,-273.86 762.5,-264.99"/>
<polygon fill="midnightblue" stroke="midnightblue" points="766,-264.75 762.5,-254.75 759,-264.75 766,-264.75"/>
</g>
</g>
</svg>
