<?xml version="1.0" encoding="UTF-8" standalone="no"?>
<!DOCTYPE svg PUBLIC "-//W3C//DTD SVG 1.1//EN"
 "http://www.w3.org/Graphics/SVG/1.1/DTD/svg11.dtd">
<!-- Generated by graphviz version 2.43.0 (0)
 -->
<!-- Title: Libs/Engine/sources/Components/PhysicsBody/PhysicsBody.cpp Pages: 1 -->
<svg width="419pt" height="285pt"
 viewBox="0.00 0.00 418.50 285.00" xmlns="http://www.w3.org/2000/svg" xmlns:xlink="http://www.w3.org/1999/xlink">
<g id="graph0" class="graph" transform="scale(1 1) rotate(0) translate(4 281)">
<title>Libs/Engine/sources/Components/PhysicsBody/PhysicsBody.cpp</title>
<polygon fill="white" stroke="transparent" points="-4,4 -4,-281 414.5,-281 414.5,4 -4,4"/>
<!-- Node1 -->
<g id="node1" class="node">
<title>Node1</title>
<g id="a_node1"><a xlink:title=" ">
<polygon fill="#bfbfbf" stroke="black" points="56,-235.5 56,-276.5 202,-276.5 202,-235.5 56,-235.5"/>
<text text-anchor="start" x="64" y="-264.5" font-family="Helvetica,sans-Serif" font-size="10.00">Libs/Engine/sources</text>
<text text-anchor="start" x="64" y="-253.5" font-family="Helvetica,sans-Serif" font-size="10.00">/Components/PhysicsBody</text>
<text text-anchor="middle" x="129" y="-242.5" font-family="Helvetica,sans-Serif" font-size="10.00">/PhysicsBody.cpp</text>
</a>
</g>
</g>
<!-- Node2 -->
<g id="node2" class="node">
<title>Node2</title>
<g id="a_node2"><a xlink:href="PhysicsBody_8hpp.html" target="_top" xlink:title=" ">
<polygon fill="white" stroke="black" points="80,-179.5 80,-198.5 178,-198.5 178,-179.5 80,-179.5"/>
<text text-anchor="middle" x="129" y="-186.5" font-family="Helvetica,sans-Serif" font-size="10.00">PhysicsBody.hpp</text>
</a>
</g>
</g>
<!-- Node1&#45;&gt;Node2 -->
<g id="edge1" class="edge">
<title>Node1&#45;&gt;Node2</title>
<path fill="none" stroke="midnightblue" d="M129,-235.5C129,-227.07 129,-217.24 129,-208.87"/>
<polygon fill="midnightblue" stroke="midnightblue" points="132.5,-208.65 129,-198.65 125.5,-208.65 132.5,-208.65"/>
</g>
<!-- Node2&#45;&gt;Node2 -->
<g id="edge15" class="edge">
<title>Node2&#45;&gt;Node2</title>
<path fill="none" stroke="midnightblue" d="M157.58,-198.53C176.99,-201.31 196,-198.13 196,-189 196,-181.51 183.21,-178.03 167.89,-178.55"/>
<polygon fill="midnightblue" stroke="midnightblue" points="167.22,-175.1 157.58,-179.47 167.85,-182.07 167.22,-175.1"/>
</g>
<!-- Node3 -->
<g id="node3" class="node">
<title>Node3</title>
<g id="a_node3"><a xlink:title=" ">
<polygon fill="white" stroke="#bfbfbf" points="0,-123.5 0,-142.5 62,-142.5 62,-123.5 0,-123.5"/>
<text text-anchor="middle" x="31" y="-130.5" font-family="Helvetica,sans-Serif" font-size="10.00">cinttypes</text>
</a>
</g>
</g>
<!-- Node2&#45;&gt;Node3 -->
<g id="edge2" class="edge">
<title>Node2&#45;&gt;Node3</title>
<path fill="none" stroke="midnightblue" d="M113.25,-179.32C97.68,-170.74 73.62,-157.49 55.54,-147.52"/>
<polygon fill="midnightblue" stroke="midnightblue" points="57.15,-144.42 46.71,-142.65 53.78,-150.55 57.15,-144.42"/>
</g>
<!-- Node4 -->
<g id="node4" class="node">
<title>Node4</title>
<g id="a_node4"><a xlink:href="IComponent_8hpp.html" target="_top" xlink:title=" ">
<polygon fill="white" stroke="black" points="80.5,-123.5 80.5,-142.5 177.5,-142.5 177.5,-123.5 80.5,-123.5"/>
<text text-anchor="middle" x="129" y="-130.5" font-family="Helvetica,sans-Serif" font-size="10.00">IComponent.hpp</text>
</a>
</g>
</g>
<!-- Node2&#45;&gt;Node4 -->
<g id="edge3" class="edge">
<title>Node2&#45;&gt;Node4</title>
<path fill="none" stroke="midnightblue" d="M129,-179.08C129,-172.01 129,-161.86 129,-152.99"/>
<polygon fill="midnightblue" stroke="midnightblue" points="132.5,-152.75 129,-142.75 125.5,-152.75 132.5,-152.75"/>
</g>
<!-- Node10 -->
<g id="node10" class="node">
<title>Node10</title>
<g id="a_node10"><a xlink:href="Vector3_8hpp.html" target="_top" xlink:title=" ">
<polygon fill="white" stroke="black" points="196,-123.5 196,-142.5 270,-142.5 270,-123.5 196,-123.5"/>
<text text-anchor="middle" x="233" y="-130.5" font-family="Helvetica,sans-Serif" font-size="10.00">Vector3.hpp</text>
</a>
</g>
</g>
<!-- Node2&#45;&gt;Node10 -->
<g id="edge10" class="edge">
<title>Node2&#45;&gt;Node10</title>
<path fill="none" stroke="midnightblue" d="M145.71,-179.32C162.31,-170.7 188,-157.36 207.22,-147.39"/>
<polygon fill="midnightblue" stroke="midnightblue" points="209.07,-150.37 216.33,-142.65 205.84,-144.16 209.07,-150.37"/>
</g>
<!-- Node5 -->
<g id="node5" class="node">
<title>Node5</title>
<g id="a_node5"><a xlink:title=" ">
<polygon fill="white" stroke="#bfbfbf" points="12.5,-6 12.5,-25 69.5,-25 69.5,-6 12.5,-6"/>
<text text-anchor="middle" x="41" y="-13" font-family="Helvetica,sans-Serif" font-size="10.00">ostream</text>
</a>
</g>
</g>
<!-- Node4&#45;&gt;Node5 -->
<g id="edge4" class="edge">
<title>Node4&#45;&gt;Node5</title>
<path fill="none" stroke="midnightblue" d="M108.21,-123.42C92.7,-115.99 72.18,-103.78 60,-87 48.96,-71.8 44.33,-50.57 42.4,-35.38"/>
<polygon fill="midnightblue" stroke="midnightblue" points="45.85,-34.76 41.38,-25.15 38.89,-35.45 45.85,-34.76"/>
</g>
<!-- Node6 -->
<g id="node6" class="node">
<title>Node6</title>
<g id="a_node6"><a xlink:href="IXMLSerializable_8hpp.html" target="_top" xlink:title=" ">
<polygon fill="white" stroke="black" points="69.5,-67.5 69.5,-86.5 188.5,-86.5 188.5,-67.5 69.5,-67.5"/>
<text text-anchor="middle" x="129" y="-74.5" font-family="Helvetica,sans-Serif" font-size="10.00">IXMLSerializable.hpp</text>
</a>
</g>
</g>
<!-- Node4&#45;&gt;Node6 -->
<g id="edge5" class="edge">
<title>Node4&#45;&gt;Node6</title>
<path fill="none" stroke="midnightblue" d="M129,-123.08C129,-116.01 129,-105.86 129,-96.99"/>
<polygon fill="midnightblue" stroke="midnightblue" points="132.5,-96.75 129,-86.75 125.5,-96.75 132.5,-96.75"/>
</g>
<!-- Node6&#45;&gt;Node5 -->
<g id="edge6" class="edge">
<title>Node6&#45;&gt;Node5</title>
<path fill="none" stroke="midnightblue" d="M116.39,-67.48C102.28,-57.93 79.17,-42.31 62.25,-30.87"/>
<polygon fill="midnightblue" stroke="midnightblue" points="63.83,-27.71 53.58,-25.01 59.91,-33.51 63.83,-27.71"/>
</g>
<!-- Node7 -->
<g id="node7" class="node">
<title>Node7</title>
<g id="a_node7"><a xlink:title=" ">
<polygon fill="white" stroke="#bfbfbf" points="88,-6 88,-25 148,-25 148,-6 88,-6"/>
<text text-anchor="middle" x="118" y="-13" font-family="Helvetica,sans-Serif" font-size="10.00">iostream</text>
</a>
</g>
</g>
<!-- Node6&#45;&gt;Node7 -->
<g id="edge7" class="edge">
<title>Node6&#45;&gt;Node7</title>
<path fill="none" stroke="midnightblue" d="M127.42,-67.48C125.87,-59.08 123.45,-45.98 121.45,-35.16"/>
<polygon fill="midnightblue" stroke="midnightblue" points="124.83,-34.21 119.57,-25.01 117.95,-35.48 124.83,-34.21"/>
</g>
<!-- Node8 -->
<g id="node8" class="node">
<title>Node8</title>
<g id="a_node8"><a xlink:title=" ">
<polygon fill="white" stroke="#bfbfbf" points="166.5,-0.5 166.5,-30.5 279.5,-30.5 279.5,-0.5 166.5,-0.5"/>
<text text-anchor="start" x="174.5" y="-18.5" font-family="Helvetica,sans-Serif" font-size="10.00">boost/property_tree</text>
<text text-anchor="middle" x="223" y="-7.5" font-family="Helvetica,sans-Serif" font-size="10.00">/ptree.hpp</text>
</a>
</g>
</g>
<!-- Node6&#45;&gt;Node8 -->
<g id="edge8" class="edge">
<title>Node6&#45;&gt;Node8</title>
<path fill="none" stroke="midnightblue" d="M142.47,-67.48C155.44,-59.27 175.51,-46.56 192.38,-35.88"/>
<polygon fill="midnightblue" stroke="midnightblue" points="194.27,-38.83 200.85,-30.52 190.52,-32.91 194.27,-38.83"/>
</g>
<!-- Node9 -->
<g id="node9" class="node">
<title>Node9</title>
<g id="a_node9"><a xlink:title=" ">
<polygon fill="white" stroke="#bfbfbf" points="297.5,-0.5 297.5,-30.5 410.5,-30.5 410.5,-0.5 297.5,-0.5"/>
<text text-anchor="start" x="305.5" y="-18.5" font-family="Helvetica,sans-Serif" font-size="10.00">boost/property_tree</text>
<text text-anchor="middle" x="354" y="-7.5" font-family="Helvetica,sans-Serif" font-size="10.00">/xml_parser.hpp</text>
</a>
</g>
</g>
<!-- Node6&#45;&gt;Node9 -->
<g id="edge9" class="edge">
<title>Node6&#45;&gt;Node9</title>
<path fill="none" stroke="midnightblue" d="M161.24,-67.48C194.99,-58.55 248.84,-44.31 291.06,-33.14"/>
<polygon fill="midnightblue" stroke="midnightblue" points="292.2,-36.46 300.97,-30.52 290.41,-29.7 292.2,-36.46"/>
</g>
<!-- Node10&#45;&gt;Node6 -->
<g id="edge12" class="edge">
<title>Node10&#45;&gt;Node6</title>
<path fill="none" stroke="midnightblue" d="M216.29,-123.32C199.69,-114.7 174,-101.36 154.78,-91.39"/>
<polygon fill="midnightblue" stroke="midnightblue" points="156.16,-88.16 145.67,-86.65 152.93,-94.37 156.16,-88.16"/>
</g>
<!-- Node11 -->
<g id="node11" class="node">
<title>Node11</title>
<g id="a_node11"><a xlink:title=" ">
<polygon fill="white" stroke="#bfbfbf" points="206.5,-67.5 206.5,-86.5 259.5,-86.5 259.5,-67.5 206.5,-67.5"/>
<text text-anchor="middle" x="233" y="-74.5" font-family="Helvetica,sans-Serif" font-size="10.00">raylib.h</text>
</a>
</g>
</g>
<!-- Node10&#45;&gt;Node11 -->
<g id="edge11" class="edge">
<title>Node10&#45;&gt;Node11</title>
<path fill="none" stroke="midnightblue" d="M233,-123.08C233,-116.01 233,-105.86 233,-96.99"/>
<polygon fill="midnightblue" stroke="midnightblue" points="236.5,-96.75 233,-86.75 229.5,-96.75 236.5,-96.75"/>
</g>
<!-- Node12 -->
<g id="node12" class="node">
<title>Node12</title>
<g id="a_node12"><a xlink:title=" ">
<polygon fill="white" stroke="#bfbfbf" points="277.5,-67.5 277.5,-86.5 324.5,-86.5 324.5,-67.5 277.5,-67.5"/>
<text text-anchor="middle" x="301" y="-74.5" font-family="Helvetica,sans-Serif" font-size="10.00">cmath</text>
</a>
</g>
</g>
<!-- Node10&#45;&gt;Node12 -->
<g id="edge13" class="edge">
<title>Node10&#45;&gt;Node12</title>
<path fill="none" stroke="midnightblue" d="M243.93,-123.32C254.17,-115.18 269.72,-102.84 282,-93.09"/>
<polygon fill="midnightblue" stroke="midnightblue" points="284.22,-95.79 289.88,-86.83 279.87,-90.31 284.22,-95.79"/>
</g>
<!-- Node13 -->
<g id="node13" class="node">
<title>Node13</title>
<g id="a_node13"><a xlink:title=" ">
<polygon fill="white" stroke="#bfbfbf" points="343,-67.5 343,-86.5 399,-86.5 399,-67.5 343,-67.5"/>
<text text-anchor="middle" x="371" y="-74.5" font-family="Helvetica,sans-Serif" font-size="10.00">sstream</text>
</a>
</g>
</g>
<!-- Node10&#45;&gt;Node13 -->
<g id="edge14" class="edge">
<title>Node10&#45;&gt;Node13</title>
<path fill="none" stroke="midnightblue" d="M254.87,-123.44C277.78,-114.48 313.98,-100.31 339.87,-90.18"/>
<polygon fill="midnightblue" stroke="midnightblue" points="341.2,-93.42 349.24,-86.52 338.65,-86.9 341.2,-93.42"/>
</g>
</g>
</svg>
