<?xml version="1.0" encoding="UTF-8" standalone="no"?>
<!DOCTYPE svg PUBLIC "-//W3C//DTD SVG 1.1//EN"
 "http://www.w3.org/Graphics/SVG/1.1/DTD/svg11.dtd">
<!-- Generated by graphviz version 2.43.0 (0)
 -->
<!-- Title: Libs/Engine/sources/Systems/PhysicsSystem/PhysicsSystem.cpp Pages: 1 -->
<svg width="2024pt" height="565pt"
 viewBox="0.00 0.00 2024.00 565.00" xmlns="http://www.w3.org/2000/svg" xmlns:xlink="http://www.w3.org/1999/xlink">
<g id="graph0" class="graph" transform="scale(1 1) rotate(0) translate(4 561)">
<title>Libs/Engine/sources/Systems/PhysicsSystem/PhysicsSystem.cpp</title>
<polygon fill="white" stroke="transparent" points="-4,4 -4,-561 2020,-561 2020,4 -4,4"/>
<!-- Node1 -->
<g id="node1" class="node">
<title>Node1</title>
<g id="a_node1"><a xlink:title=" ">
<polygon fill="#bfbfbf" stroke="black" points="1062,-515.5 1062,-556.5 1200,-556.5 1200,-515.5 1062,-515.5"/>
<text text-anchor="start" x="1070" y="-544.5" font-family="Helvetica,sans-Serif" font-size="10.00">Libs/Engine/sources</text>
<text text-anchor="start" x="1070" y="-533.5" font-family="Helvetica,sans-Serif" font-size="10.00">/Systems/PhysicsSystem</text>
<text text-anchor="middle" x="1131" y="-522.5" font-family="Helvetica,sans-Serif" font-size="10.00">/PhysicsSystem.cpp</text>
</a>
</g>
</g>
<!-- Node2 -->
<g id="node2" class="node">
<title>Node2</title>
<g id="a_node2"><a xlink:href="PhysicsSystem_8hpp.html" target="_top" xlink:title=" ">
<polygon fill="white" stroke="black" points="786.5,-347.5 786.5,-366.5 897.5,-366.5 897.5,-347.5 786.5,-347.5"/>
<text text-anchor="middle" x="842" y="-354.5" font-family="Helvetica,sans-Serif" font-size="10.00">PhysicsSystem.hpp</text>
</a>
</g>
</g>
<!-- Node1&#45;&gt;Node2 -->
<g id="edge1" class="edge">
<title>Node1&#45;&gt;Node2</title>
<path fill="none" stroke="midnightblue" d="M1076.62,-515.37C1027.84,-496.23 955.72,-464.04 901,-423 882.6,-409.2 865.38,-389.08 854.36,-374.88"/>
<polygon fill="midnightblue" stroke="midnightblue" points="856.87,-372.41 848.05,-366.54 851.29,-376.63 856.87,-372.41"/>
</g>
<!-- Node16 -->
<g id="node16" class="node">
<title>Node16</title>
<g id="a_node16"><a xlink:title=" ">
<polygon fill="white" stroke="#bfbfbf" points="433,-6 433,-25 493,-25 493,-6 433,-6"/>
<text text-anchor="middle" x="463" y="-13" font-family="Helvetica,sans-Serif" font-size="10.00">iostream</text>
</a>
</g>
</g>
<!-- Node1&#45;&gt;Node16 -->
<g id="edge94" class="edge">
<title>Node1&#45;&gt;Node16</title>
<path fill="none" stroke="midnightblue" d="M1061.95,-534.9C816.4,-533.64 0,-521.38 0,-414 0,-414 0,-414 0,-132 0,-45.22 310.05,-23.12 422.71,-17.96"/>
<polygon fill="midnightblue" stroke="midnightblue" points="423.14,-21.44 432.98,-17.51 422.83,-14.45 423.14,-21.44"/>
</g>
<!-- Node27 -->
<g id="node27" class="node">
<title>Node27</title>
<g id="a_node27"><a xlink:href="Transform_8hpp.html" target="_top" xlink:title=" ">
<polygon fill="white" stroke="black" points="1354,-179.5 1354,-198.5 1440,-198.5 1440,-179.5 1354,-179.5"/>
<text text-anchor="middle" x="1397" y="-186.5" font-family="Helvetica,sans-Serif" font-size="10.00">Transform.hpp</text>
</a>
</g>
</g>
<!-- Node1&#45;&gt;Node27 -->
<g id="edge43" class="edge">
<title>Node1&#45;&gt;Node27</title>
<path fill="none" stroke="midnightblue" d="M1200.15,-525.05C1262.35,-511.73 1344,-481.41 1344,-414 1344,-414 1344,-414 1344,-300 1344,-263.99 1367.33,-227.34 1383.04,-206.75"/>
<polygon fill="midnightblue" stroke="midnightblue" points="1385.93,-208.73 1389.41,-198.72 1380.45,-204.38 1385.93,-208.73"/>
</g>
<!-- Node28 -->
<g id="node28" class="node">
<title>Node28</title>
<g id="a_node28"><a xlink:href="Collider_8hpp.html" target="_top" xlink:title=" ">
<polygon fill="white" stroke="black" points="1094,-459.5 1094,-478.5 1168,-478.5 1168,-459.5 1094,-459.5"/>
<text text-anchor="middle" x="1131" y="-466.5" font-family="Helvetica,sans-Serif" font-size="10.00">Collider.hpp</text>
</a>
</g>
</g>
<!-- Node1&#45;&gt;Node28 -->
<g id="edge47" class="edge">
<title>Node1&#45;&gt;Node28</title>
<path fill="none" stroke="midnightblue" d="M1131,-515.5C1131,-507.07 1131,-497.24 1131,-488.87"/>
<polygon fill="midnightblue" stroke="midnightblue" points="1134.5,-488.65 1131,-478.65 1127.5,-488.65 1134.5,-488.65"/>
</g>
<!-- Node36 -->
<g id="node36" class="node">
<title>Node36</title>
<g id="a_node36"><a xlink:href="GameConfiguration_8hpp.html" target="_top" xlink:title=" ">
<polygon fill="white" stroke="black" points="1474,-291.5 1474,-310.5 1606,-310.5 1606,-291.5 1474,-291.5"/>
<text text-anchor="middle" x="1540" y="-298.5" font-family="Helvetica,sans-Serif" font-size="10.00">GameConfiguration.hpp</text>
</a>
</g>
</g>
<!-- Node1&#45;&gt;Node36 -->
<g id="edge80" class="edge">
<title>Node1&#45;&gt;Node36</title>
<path fill="none" stroke="midnightblue" d="M1200.01,-527.6C1246.88,-520.33 1309.02,-506.18 1358,-479 1434.06,-436.79 1501.02,-354.46 1527.7,-318.96"/>
<polygon fill="midnightblue" stroke="midnightblue" points="1530.73,-320.75 1533.87,-310.63 1525.1,-316.58 1530.73,-320.75"/>
</g>
<!-- Node3 -->
<g id="node3" class="node">
<title>Node3</title>
<g id="a_node3"><a xlink:href="ASystem_8hpp.html" target="_top" xlink:title=" ">
<polygon fill="white" stroke="black" points="739.5,-291.5 739.5,-310.5 820.5,-310.5 820.5,-291.5 739.5,-291.5"/>
<text text-anchor="middle" x="780" y="-298.5" font-family="Helvetica,sans-Serif" font-size="10.00">ASystem.hpp</text>
</a>
</g>
</g>
<!-- Node2&#45;&gt;Node3 -->
<g id="edge2" class="edge">
<title>Node2&#45;&gt;Node3</title>
<path fill="none" stroke="midnightblue" d="M832.04,-347.32C822.87,-339.34 809.06,-327.31 797.97,-317.65"/>
<polygon fill="midnightblue" stroke="midnightblue" points="799.98,-314.76 790.14,-310.83 795.38,-320.04 799.98,-314.76"/>
</g>
<!-- Node6 -->
<g id="node6" class="node">
<title>Node6</title>
<g id="a_node6"><a xlink:href="Entity_8hpp.html" target="_top" xlink:title=" ">
<polygon fill="white" stroke="black" points="537.5,-235.5 537.5,-254.5 602.5,-254.5 602.5,-235.5 537.5,-235.5"/>
<text text-anchor="middle" x="570" y="-242.5" font-family="Helvetica,sans-Serif" font-size="10.00">Entity.hpp</text>
</a>
</g>
</g>
<!-- Node2&#45;&gt;Node6 -->
<g id="edge33" class="edge">
<title>Node2&#45;&gt;Node6</title>
<path fill="none" stroke="midnightblue" d="M843.2,-347.44C844.63,-333.52 845.18,-306.01 830,-291 800.01,-261.34 678.63,-251.07 612.86,-247.64"/>
<polygon fill="midnightblue" stroke="midnightblue" points="612.96,-244.14 602.8,-247.14 612.62,-251.13 612.96,-244.14"/>
</g>
<!-- Node22 -->
<g id="node22" class="node">
<title>Node22</title>
<g id="a_node22"><a xlink:href="PhysicsBody_8hpp.html" target="_top" xlink:title=" ">
<polygon fill="white" stroke="black" points="1106,-179.5 1106,-198.5 1204,-198.5 1204,-179.5 1106,-179.5"/>
<text text-anchor="middle" x="1155" y="-186.5" font-family="Helvetica,sans-Serif" font-size="10.00">PhysicsBody.hpp</text>
</a>
</g>
</g>
<!-- Node2&#45;&gt;Node22 -->
<g id="edge34" class="edge">
<title>Node2&#45;&gt;Node22</title>
<path fill="none" stroke="midnightblue" d="M874.88,-347.49C924.78,-333.55 1021.33,-302.58 1092,-255 1111.86,-241.63 1130.4,-221.15 1142.15,-206.76"/>
<polygon fill="midnightblue" stroke="midnightblue" points="1145.07,-208.71 1148.55,-198.7 1139.59,-204.36 1145.07,-208.71"/>
</g>
<!-- Node4 -->
<g id="node4" class="node">
<title>Node4</title>
<g id="a_node4"><a xlink:title=" ">
<polygon fill="white" stroke="#bfbfbf" points="1295,-123.5 1295,-142.5 1339,-142.5 1339,-123.5 1295,-123.5"/>
<text text-anchor="middle" x="1317" y="-130.5" font-family="Helvetica,sans-Serif" font-size="10.00">string</text>
</a>
</g>
</g>
<!-- Node3&#45;&gt;Node4 -->
<g id="edge3" class="edge">
<title>Node3&#45;&gt;Node4</title>
<path fill="none" stroke="midnightblue" d="M796.45,-291.34C839.29,-269.18 958.3,-209.94 1064,-179 1156.56,-151.91 1183.41,-161.85 1278,-143 1280.21,-142.56 1282.5,-142.08 1284.79,-141.59"/>
<polygon fill="midnightblue" stroke="midnightblue" points="1285.77,-144.96 1294.78,-139.37 1284.25,-138.13 1285.77,-144.96"/>
</g>
<!-- Node5 -->
<g id="node5" class="node">
<title>Node5</title>
<g id="a_node5"><a xlink:title=" ">
<polygon fill="white" stroke="#bfbfbf" points="447.5,-123.5 447.5,-142.5 494.5,-142.5 494.5,-123.5 447.5,-123.5"/>
<text text-anchor="middle" x="471" y="-130.5" font-family="Helvetica,sans-Serif" font-size="10.00">vector</text>
</a>
</g>
</g>
<!-- Node3&#45;&gt;Node5 -->
<g id="edge4" class="edge">
<title>Node3&#45;&gt;Node5</title>
<path fill="none" stroke="midnightblue" d="M739.2,-296.97C688.43,-292.25 599.71,-280.83 528,-255 480.44,-237.87 454.47,-242.67 429,-199 418.83,-181.57 435.05,-162.22 450.2,-149.2"/>
<polygon fill="midnightblue" stroke="midnightblue" points="452.72,-151.66 458.32,-142.67 448.33,-146.21 452.72,-151.66"/>
</g>
<!-- Node3&#45;&gt;Node6 -->
<g id="edge5" class="edge">
<title>Node3&#45;&gt;Node6</title>
<path fill="none" stroke="midnightblue" d="M746.72,-291.44C710.45,-282.11 652.28,-267.16 612.67,-256.97"/>
<polygon fill="midnightblue" stroke="midnightblue" points="613.33,-253.53 602.77,-254.43 611.59,-260.31 613.33,-253.53"/>
</g>
<!-- Node6&#45;&gt;Node5 -->
<g id="edge10" class="edge">
<title>Node6&#45;&gt;Node5</title>
<path fill="none" stroke="midnightblue" d="M537.21,-243.11C505.71,-240.29 459.66,-230.59 437,-199 425.83,-183.43 439.54,-163.71 452.74,-150.09"/>
<polygon fill="midnightblue" stroke="midnightblue" points="455.47,-152.31 460.26,-142.86 450.62,-147.27 455.47,-152.31"/>
</g>
<!-- Node7 -->
<g id="node7" class="node">
<title>Node7</title>
<g id="a_node7"><a xlink:title=" ">
<polygon fill="white" stroke="#bfbfbf" points="1124,-123.5 1124,-142.5 1186,-142.5 1186,-123.5 1124,-123.5"/>
<text text-anchor="middle" x="1155" y="-130.5" font-family="Helvetica,sans-Serif" font-size="10.00">cinttypes</text>
</a>
</g>
</g>
<!-- Node6&#45;&gt;Node7 -->
<g id="edge6" class="edge">
<title>Node6&#45;&gt;Node7</title>
<path fill="none" stroke="midnightblue" d="M602.51,-238.11C649.45,-229.58 738.91,-213.26 815,-199 922.71,-178.81 1049.48,-154.41 1113.51,-142.03"/>
<polygon fill="midnightblue" stroke="midnightblue" points="1114.45,-145.41 1123.61,-140.08 1113.13,-138.54 1114.45,-145.41"/>
</g>
<!-- Node8 -->
<g id="node8" class="node">
<title>Node8</title>
<g id="a_node8"><a xlink:title=" ">
<polygon fill="white" stroke="#bfbfbf" points="176.5,-123.5 176.5,-142.5 269.5,-142.5 269.5,-123.5 176.5,-123.5"/>
<text text-anchor="middle" x="223" y="-130.5" font-family="Helvetica,sans-Serif" font-size="10.00">unordered_map</text>
</a>
</g>
</g>
<!-- Node6&#45;&gt;Node8 -->
<g id="edge7" class="edge">
<title>Node6&#45;&gt;Node8</title>
<path fill="none" stroke="midnightblue" d="M537.42,-237.31C500.72,-229.47 439.47,-215.42 388,-199 339.22,-183.44 284.19,-160.67 251.61,-146.62"/>
<polygon fill="midnightblue" stroke="midnightblue" points="252.82,-143.33 242.25,-142.56 250.03,-149.75 252.82,-143.33"/>
</g>
<!-- Node9 -->
<g id="node9" class="node">
<title>Node9</title>
<g id="a_node9"><a xlink:title=" ">
<polygon fill="white" stroke="#bfbfbf" points="90,-123.5 90,-142.5 148,-142.5 148,-123.5 90,-123.5"/>
<text text-anchor="middle" x="119" y="-130.5" font-family="Helvetica,sans-Serif" font-size="10.00">memory</text>
</a>
</g>
</g>
<!-- Node6&#45;&gt;Node9 -->
<g id="edge8" class="edge">
<title>Node6&#45;&gt;Node9</title>
<path fill="none" stroke="midnightblue" d="M537.39,-239.14C490.83,-231.92 402.75,-217.24 329,-199 266.02,-183.43 194.09,-159.88 152.86,-145.81"/>
<polygon fill="midnightblue" stroke="midnightblue" points="153.91,-142.47 143.31,-142.53 151.64,-149.09 153.91,-142.47"/>
</g>
<!-- Node10 -->
<g id="node10" class="node">
<title>Node10</title>
<g id="a_node10"><a xlink:title=" ">
<polygon fill="white" stroke="#bfbfbf" points="288,-123.5 288,-142.5 352,-142.5 352,-123.5 288,-123.5"/>
<text text-anchor="middle" x="320" y="-130.5" font-family="Helvetica,sans-Serif" font-size="10.00">algorithm</text>
</a>
</g>
</g>
<!-- Node6&#45;&gt;Node10 -->
<g id="edge9" class="edge">
<title>Node6&#45;&gt;Node10</title>
<path fill="none" stroke="midnightblue" d="M537.3,-235.85C508.21,-228.07 464.84,-215.15 429,-199 396.66,-184.43 361.88,-162.48 340.53,-148.19"/>
<polygon fill="midnightblue" stroke="midnightblue" points="342.49,-145.29 332.25,-142.58 338.56,-151.09 342.49,-145.29"/>
</g>
<!-- Node11 -->
<g id="node11" class="node">
<title>Node11</title>
<g id="a_node11"><a xlink:title=" ">
<polygon fill="white" stroke="#bfbfbf" points="728.5,-123.5 728.5,-142.5 819.5,-142.5 819.5,-123.5 728.5,-123.5"/>
<text text-anchor="middle" x="774" y="-130.5" font-family="Helvetica,sans-Serif" font-size="10.00">Exceptions.hpp</text>
</a>
</g>
</g>
<!-- Node6&#45;&gt;Node11 -->
<g id="edge11" class="edge">
<title>Node6&#45;&gt;Node11</title>
<path fill="none" stroke="midnightblue" d="M602.56,-239.33C633.89,-233.67 681.59,-221.9 717,-199 736.23,-186.57 752.79,-165.86 763.02,-151.17"/>
<polygon fill="midnightblue" stroke="midnightblue" points="766.15,-152.78 768.8,-142.52 760.34,-148.89 766.15,-152.78"/>
</g>
<!-- Node12 -->
<g id="node12" class="node">
<title>Node12</title>
<g id="a_node12"><a xlink:href="ComponentManager_8hpp.html" target="_top" xlink:title=" ">
<polygon fill="white" stroke="black" points="572,-179.5 572,-198.5 708,-198.5 708,-179.5 572,-179.5"/>
<text text-anchor="middle" x="640" y="-186.5" font-family="Helvetica,sans-Serif" font-size="10.00">ComponentManager.hpp</text>
</a>
</g>
</g>
<!-- Node6&#45;&gt;Node12 -->
<g id="edge12" class="edge">
<title>Node6&#45;&gt;Node12</title>
<path fill="none" stroke="midnightblue" d="M581.25,-235.32C591.8,-227.18 607.8,-214.84 620.44,-205.09"/>
<polygon fill="midnightblue" stroke="midnightblue" points="622.77,-207.71 628.55,-198.83 618.49,-202.17 622.77,-207.71"/>
</g>
<!-- Node13 -->
<g id="node13" class="node">
<title>Node13</title>
<g id="a_node13"><a xlink:href="IComponent_8hpp.html" target="_top" xlink:title=" ">
<polygon fill="white" stroke="black" points="981.5,-123.5 981.5,-142.5 1078.5,-142.5 1078.5,-123.5 981.5,-123.5"/>
<text text-anchor="middle" x="1030" y="-130.5" font-family="Helvetica,sans-Serif" font-size="10.00">IComponent.hpp</text>
</a>
</g>
</g>
<!-- Node6&#45;&gt;Node13 -->
<g id="edge32" class="edge">
<title>Node6&#45;&gt;Node13</title>
<path fill="none" stroke="midnightblue" d="M602.71,-236.18C683.33,-216.9 891.72,-167.07 984.4,-144.9"/>
<polygon fill="midnightblue" stroke="midnightblue" points="985.41,-148.26 994.32,-142.53 983.78,-141.45 985.41,-148.26"/>
</g>
<!-- Node20 -->
<g id="node20" class="node">
<title>Node20</title>
<g id="a_node20"><a xlink:href="EntityManager_8hpp.html" target="_top" xlink:title=" ">
<polygon fill="white" stroke="black" points="446,-179.5 446,-198.5 554,-198.5 554,-179.5 446,-179.5"/>
<text text-anchor="middle" x="500" y="-186.5" font-family="Helvetica,sans-Serif" font-size="10.00">EntityManager.hpp</text>
</a>
</g>
</g>
<!-- Node6&#45;&gt;Node20 -->
<g id="edge27" class="edge">
<title>Node6&#45;&gt;Node20</title>
<path fill="none" stroke="midnightblue" d="M558.75,-235.32C548.2,-227.18 532.2,-214.84 519.56,-205.09"/>
<polygon fill="midnightblue" stroke="midnightblue" points="521.51,-202.17 511.45,-198.83 517.23,-207.71 521.51,-202.17"/>
</g>
<!-- Node12&#45;&gt;Node4 -->
<g id="edge14" class="edge">
<title>Node12&#45;&gt;Node4</title>
<path fill="none" stroke="midnightblue" d="M708.37,-186.68C825.56,-183.64 1072.1,-173.83 1278,-143 1280.23,-142.67 1282.53,-142.27 1284.83,-141.84"/>
<polygon fill="midnightblue" stroke="midnightblue" points="1285.77,-145.22 1294.84,-139.75 1284.34,-138.37 1285.77,-145.22"/>
</g>
<!-- Node12&#45;&gt;Node5 -->
<g id="edge15" class="edge">
<title>Node12&#45;&gt;Node5</title>
<path fill="none" stroke="midnightblue" d="M613.22,-179.44C583.74,-170.02 536.31,-154.87 504.42,-144.68"/>
<polygon fill="midnightblue" stroke="midnightblue" points="505.24,-141.27 494.65,-141.56 503.11,-147.94 505.24,-141.27"/>
</g>
<!-- Node12&#45;&gt;Node8 -->
<g id="edge13" class="edge">
<title>Node12&#45;&gt;Node8</title>
<path fill="none" stroke="midnightblue" d="M571.64,-179.77C487.49,-169.59 348.3,-152.59 279.72,-143.05"/>
<polygon fill="midnightblue" stroke="midnightblue" points="280.12,-139.57 269.73,-141.64 279.15,-146.5 280.12,-139.57"/>
</g>
<!-- Node12&#45;&gt;Node9 -->
<g id="edge16" class="edge">
<title>Node12&#45;&gt;Node9</title>
<path fill="none" stroke="midnightblue" d="M571.99,-179.95C568.95,-179.63 565.95,-179.31 563,-179 387.22,-160.74 342.05,-167.31 167,-143 164.13,-142.6 161.16,-142.15 158.19,-141.66"/>
<polygon fill="midnightblue" stroke="midnightblue" points="158.57,-138.18 148.12,-139.92 157.37,-145.07 158.57,-138.18"/>
</g>
<!-- Node12&#45;&gt;Node10 -->
<g id="edge17" class="edge">
<title>Node12&#45;&gt;Node10</title>
<path fill="none" stroke="midnightblue" d="M589.3,-179.44C526.62,-168.87 421.08,-151.06 362.47,-141.17"/>
<polygon fill="midnightblue" stroke="midnightblue" points="362.88,-137.69 352.44,-139.47 361.71,-144.59 362.88,-137.69"/>
</g>
<!-- Node12&#45;&gt;Node11 -->
<g id="edge18" class="edge">
<title>Node12&#45;&gt;Node11</title>
<path fill="none" stroke="midnightblue" d="M661.23,-179.44C683.38,-170.52 718.32,-156.44 743.44,-146.32"/>
<polygon fill="midnightblue" stroke="midnightblue" points="744.9,-149.5 752.87,-142.52 742.28,-143.01 744.9,-149.5"/>
</g>
<!-- Node12&#45;&gt;Node13 -->
<g id="edge19" class="edge">
<title>Node12&#45;&gt;Node13</title>
<path fill="none" stroke="midnightblue" d="M701.8,-179.44C775.7,-169.21 898.5,-152.21 971.09,-142.16"/>
<polygon fill="midnightblue" stroke="midnightblue" points="972,-145.56 981.43,-140.73 971.04,-138.63 972,-145.56"/>
</g>
<!-- Node19 -->
<g id="node19" class="node">
<title>Node19</title>
<g id="a_node19"><a xlink:title=" ">
<polygon fill="white" stroke="#bfbfbf" points="1231,-123.5 1231,-142.5 1269,-142.5 1269,-123.5 1231,-123.5"/>
<text text-anchor="middle" x="1250" y="-130.5" font-family="Helvetica,sans-Serif" font-size="10.00">map</text>
</a>
</g>
</g>
<!-- Node12&#45;&gt;Node19 -->
<g id="edge26" class="edge">
<title>Node12&#45;&gt;Node19</title>
<path fill="none" stroke="midnightblue" d="M708.1,-184.27C812.95,-178.12 1020.12,-164.36 1195,-143 1203.44,-141.97 1212.57,-140.58 1220.92,-139.21"/>
<polygon fill="midnightblue" stroke="midnightblue" points="1221.69,-142.63 1230.96,-137.51 1220.52,-135.73 1221.69,-142.63"/>
</g>
<!-- Node14 -->
<g id="node14" class="node">
<title>Node14</title>
<g id="a_node14"><a xlink:title=" ">
<polygon fill="white" stroke="#bfbfbf" points="1001.5,-6 1001.5,-25 1058.5,-25 1058.5,-6 1001.5,-6"/>
<text text-anchor="middle" x="1030" y="-13" font-family="Helvetica,sans-Serif" font-size="10.00">ostream</text>
</a>
</g>
</g>
<!-- Node13&#45;&gt;Node14 -->
<g id="edge20" class="edge">
<title>Node13&#45;&gt;Node14</title>
<path fill="none" stroke="midnightblue" d="M1030,-123.32C1030,-104.76 1030,-60.84 1030,-35.47"/>
<polygon fill="midnightblue" stroke="midnightblue" points="1033.5,-35.28 1030,-25.28 1026.5,-35.28 1033.5,-35.28"/>
</g>
<!-- Node15 -->
<g id="node15" class="node">
<title>Node15</title>
<g id="a_node15"><a xlink:href="IXMLSerializable_8hpp.html" target="_top" xlink:title=" ">
<polygon fill="white" stroke="black" points="1073.5,-67.5 1073.5,-86.5 1192.5,-86.5 1192.5,-67.5 1073.5,-67.5"/>
<text text-anchor="middle" x="1133" y="-74.5" font-family="Helvetica,sans-Serif" font-size="10.00">IXMLSerializable.hpp</text>
</a>
</g>
</g>
<!-- Node13&#45;&gt;Node15 -->
<g id="edge21" class="edge">
<title>Node13&#45;&gt;Node15</title>
<path fill="none" stroke="midnightblue" d="M1046.55,-123.32C1062.99,-114.7 1088.43,-101.36 1107.47,-91.39"/>
<polygon fill="midnightblue" stroke="midnightblue" points="1109.26,-94.4 1116.49,-86.65 1106.01,-88.2 1109.26,-94.4"/>
</g>
<!-- Node15&#45;&gt;Node14 -->
<g id="edge22" class="edge">
<title>Node15&#45;&gt;Node14</title>
<path fill="none" stroke="midnightblue" d="M1118.24,-67.48C1101.34,-57.71 1073.42,-41.58 1053.51,-30.08"/>
<polygon fill="midnightblue" stroke="midnightblue" points="1055.14,-26.98 1044.73,-25.01 1051.64,-33.04 1055.14,-26.98"/>
</g>
<!-- Node15&#45;&gt;Node16 -->
<g id="edge23" class="edge">
<title>Node15&#45;&gt;Node16</title>
<path fill="none" stroke="midnightblue" d="M1073.25,-70.69C939.04,-58.78 616.61,-30.14 503.24,-20.07"/>
<polygon fill="midnightblue" stroke="midnightblue" points="503.52,-16.58 493.25,-19.19 502.9,-23.56 503.52,-16.58"/>
</g>
<!-- Node17 -->
<g id="node17" class="node">
<title>Node17</title>
<g id="a_node17"><a xlink:title=" ">
<polygon fill="white" stroke="#bfbfbf" points="1076.5,-0.5 1076.5,-30.5 1189.5,-30.5 1189.5,-0.5 1076.5,-0.5"/>
<text text-anchor="start" x="1084.5" y="-18.5" font-family="Helvetica,sans-Serif" font-size="10.00">boost/property_tree</text>
<text text-anchor="middle" x="1133" y="-7.5" font-family="Helvetica,sans-Serif" font-size="10.00">/ptree.hpp</text>
</a>
</g>
</g>
<!-- Node15&#45;&gt;Node17 -->
<g id="edge24" class="edge">
<title>Node15&#45;&gt;Node17</title>
<path fill="none" stroke="midnightblue" d="M1133,-67.48C1133,-60.47 1133,-50.19 1133,-40.7"/>
<polygon fill="midnightblue" stroke="midnightblue" points="1136.5,-40.52 1133,-30.52 1129.5,-40.52 1136.5,-40.52"/>
</g>
<!-- Node18 -->
<g id="node18" class="node">
<title>Node18</title>
<g id="a_node18"><a xlink:title=" ">
<polygon fill="white" stroke="#bfbfbf" points="1207.5,-0.5 1207.5,-30.5 1320.5,-30.5 1320.5,-0.5 1207.5,-0.5"/>
<text text-anchor="start" x="1215.5" y="-18.5" font-family="Helvetica,sans-Serif" font-size="10.00">boost/property_tree</text>
<text text-anchor="middle" x="1264" y="-7.5" font-family="Helvetica,sans-Serif" font-size="10.00">/xml_parser.hpp</text>
</a>
</g>
</g>
<!-- Node15&#45;&gt;Node18 -->
<g id="edge25" class="edge">
<title>Node15&#45;&gt;Node18</title>
<path fill="none" stroke="midnightblue" d="M1151.77,-67.48C1170.51,-58.96 1199.89,-45.62 1223.89,-34.72"/>
<polygon fill="midnightblue" stroke="midnightblue" points="1225.47,-37.85 1233.13,-30.52 1222.57,-31.47 1225.47,-37.85"/>
</g>
<!-- Node20&#45;&gt;Node5 -->
<g id="edge28" class="edge">
<title>Node20&#45;&gt;Node5</title>
<path fill="none" stroke="midnightblue" d="M495.21,-179.08C491.24,-171.69 485.47,-160.95 480.57,-151.81"/>
<polygon fill="midnightblue" stroke="midnightblue" points="483.51,-149.91 475.7,-142.75 477.35,-153.22 483.51,-149.91"/>
</g>
<!-- Node20&#45;&gt;Node7 -->
<g id="edge29" class="edge">
<title>Node20&#45;&gt;Node7</title>
<path fill="none" stroke="midnightblue" d="M554.26,-179.99C557.22,-179.63 560.14,-179.3 563,-179 795.59,-154.45 855.31,-166.58 1088,-143 1096.3,-142.16 1105.16,-141.09 1113.62,-139.99"/>
<polygon fill="midnightblue" stroke="midnightblue" points="1114.25,-143.43 1123.69,-138.63 1113.31,-136.5 1114.25,-143.43"/>
</g>
<!-- Node20&#45;&gt;Node9 -->
<g id="edge30" class="edge">
<title>Node20&#45;&gt;Node9</title>
<path fill="none" stroke="midnightblue" d="M445.95,-181.56C379.97,-173.49 265.05,-158.81 167,-143 164.14,-142.54 161.18,-142.04 158.21,-141.52"/>
<polygon fill="midnightblue" stroke="midnightblue" points="158.61,-138.04 148.15,-139.71 157.37,-144.93 158.61,-138.04"/>
</g>
<!-- Node21 -->
<g id="node21" class="node">
<title>Node21</title>
<g id="a_node21"><a xlink:title=" ">
<polygon fill="white" stroke="#bfbfbf" points="513,-123.5 513,-142.5 545,-142.5 545,-123.5 513,-123.5"/>
<text text-anchor="middle" x="529" y="-130.5" font-family="Helvetica,sans-Serif" font-size="10.00">list</text>
</a>
</g>
</g>
<!-- Node20&#45;&gt;Node21 -->
<g id="edge31" class="edge">
<title>Node20&#45;&gt;Node21</title>
<path fill="none" stroke="midnightblue" d="M504.79,-179.08C508.76,-171.69 514.53,-160.95 519.43,-151.81"/>
<polygon fill="midnightblue" stroke="midnightblue" points="522.65,-153.22 524.3,-142.75 516.49,-149.91 522.65,-153.22"/>
</g>
<!-- Node22&#45;&gt;Node7 -->
<g id="edge35" class="edge">
<title>Node22&#45;&gt;Node7</title>
<path fill="none" stroke="midnightblue" d="M1155,-179.08C1155,-172.01 1155,-161.86 1155,-152.99"/>
<polygon fill="midnightblue" stroke="midnightblue" points="1158.5,-152.75 1155,-142.75 1151.5,-152.75 1158.5,-152.75"/>
</g>
<!-- Node22&#45;&gt;Node13 -->
<g id="edge36" class="edge">
<title>Node22&#45;&gt;Node13</title>
<path fill="none" stroke="midnightblue" d="M1135.19,-179.44C1114.71,-170.6 1082.52,-156.69 1059.14,-146.59"/>
<polygon fill="midnightblue" stroke="midnightblue" points="1060.28,-143.27 1049.71,-142.52 1057.51,-149.7 1060.28,-143.27"/>
</g>
<!-- Node22&#45;&gt;Node22 -->
<g id="edge42" class="edge">
<title>Node22&#45;&gt;Node22</title>
<path fill="none" stroke="midnightblue" d="M1183.58,-198.53C1202.99,-201.31 1222,-198.13 1222,-189 1222,-181.51 1209.21,-178.03 1193.89,-178.55"/>
<polygon fill="midnightblue" stroke="midnightblue" points="1193.22,-175.1 1183.58,-179.47 1193.85,-182.07 1193.22,-175.1"/>
</g>
<!-- Node23 -->
<g id="node23" class="node">
<title>Node23</title>
<g id="a_node23"><a xlink:href="Vector3_8hpp.html" target="_top" xlink:title=" ">
<polygon fill="white" stroke="black" points="1658,-123.5 1658,-142.5 1732,-142.5 1732,-123.5 1658,-123.5"/>
<text text-anchor="middle" x="1695" y="-130.5" font-family="Helvetica,sans-Serif" font-size="10.00">Vector3.hpp</text>
</a>
</g>
</g>
<!-- Node22&#45;&gt;Node23 -->
<g id="edge37" class="edge">
<title>Node22&#45;&gt;Node23</title>
<path fill="none" stroke="midnightblue" d="M1204.35,-183.06C1307.81,-172.72 1546.2,-148.88 1647.78,-138.72"/>
<polygon fill="midnightblue" stroke="midnightblue" points="1648.14,-142.2 1657.75,-137.73 1647.45,-135.24 1648.14,-142.2"/>
</g>
<!-- Node23&#45;&gt;Node15 -->
<g id="edge39" class="edge">
<title>Node23&#45;&gt;Node15</title>
<path fill="none" stroke="midnightblue" d="M1657.69,-128.42C1565.03,-119.51 1323.22,-96.28 1202.98,-84.72"/>
<polygon fill="midnightblue" stroke="midnightblue" points="1203.07,-81.22 1192.78,-83.74 1202.4,-88.18 1203.07,-81.22"/>
</g>
<!-- Node24 -->
<g id="node24" class="node">
<title>Node24</title>
<g id="a_node24"><a xlink:title=" ">
<polygon fill="white" stroke="#bfbfbf" points="1829.5,-67.5 1829.5,-86.5 1882.5,-86.5 1882.5,-67.5 1829.5,-67.5"/>
<text text-anchor="middle" x="1856" y="-74.5" font-family="Helvetica,sans-Serif" font-size="10.00">raylib.h</text>
</a>
</g>
</g>
<!-- Node23&#45;&gt;Node24 -->
<g id="edge38" class="edge">
<title>Node23&#45;&gt;Node24</title>
<path fill="none" stroke="midnightblue" d="M1720.51,-123.44C1747.6,-114.36 1790.59,-99.94 1820.87,-89.78"/>
<polygon fill="midnightblue" stroke="midnightblue" points="1822.24,-93.01 1830.61,-86.52 1820.01,-86.38 1822.24,-93.01"/>
</g>
<!-- Node25 -->
<g id="node25" class="node">
<title>Node25</title>
<g id="a_node25"><a xlink:title=" ">
<polygon fill="white" stroke="#bfbfbf" points="1736.5,-67.5 1736.5,-86.5 1783.5,-86.5 1783.5,-67.5 1736.5,-67.5"/>
<text text-anchor="middle" x="1760" y="-74.5" font-family="Helvetica,sans-Serif" font-size="10.00">cmath</text>
</a>
</g>
</g>
<!-- Node23&#45;&gt;Node25 -->
<g id="edge40" class="edge">
<title>Node23&#45;&gt;Node25</title>
<path fill="none" stroke="midnightblue" d="M1705.44,-123.32C1715.15,-115.26 1729.82,-103.08 1741.5,-93.37"/>
<polygon fill="midnightblue" stroke="midnightblue" points="1743.91,-95.92 1749.37,-86.83 1739.44,-90.53 1743.91,-95.92"/>
</g>
<!-- Node26 -->
<g id="node26" class="node">
<title>Node26</title>
<g id="a_node26"><a xlink:title=" ">
<polygon fill="white" stroke="#bfbfbf" points="1662,-67.5 1662,-86.5 1718,-86.5 1718,-67.5 1662,-67.5"/>
<text text-anchor="middle" x="1690" y="-74.5" font-family="Helvetica,sans-Serif" font-size="10.00">sstream</text>
</a>
</g>
</g>
<!-- Node23&#45;&gt;Node26 -->
<g id="edge41" class="edge">
<title>Node23&#45;&gt;Node26</title>
<path fill="none" stroke="midnightblue" d="M1694.17,-123.08C1693.52,-116.01 1692.58,-105.86 1691.76,-96.99"/>
<polygon fill="midnightblue" stroke="midnightblue" points="1695.22,-96.39 1690.81,-86.75 1688.25,-97.03 1695.22,-96.39"/>
</g>
<!-- Node27&#45;&gt;Node7 -->
<g id="edge44" class="edge">
<title>Node27&#45;&gt;Node7</title>
<path fill="none" stroke="midnightblue" d="M1358.65,-179.44C1314.3,-169.55 1241.55,-153.31 1196.07,-143.16"/>
<polygon fill="midnightblue" stroke="midnightblue" points="1196.76,-139.73 1186.24,-140.97 1195.24,-146.56 1196.76,-139.73"/>
</g>
<!-- Node27&#45;&gt;Node13 -->
<g id="edge45" class="edge">
<title>Node27&#45;&gt;Node13</title>
<path fill="none" stroke="midnightblue" d="M1353.82,-181.65C1288.04,-171.97 1162.58,-153.51 1088.62,-142.63"/>
<polygon fill="midnightblue" stroke="midnightblue" points="1088.94,-139.13 1078.54,-141.14 1087.92,-146.06 1088.94,-139.13"/>
</g>
<!-- Node27&#45;&gt;Node23 -->
<g id="edge46" class="edge">
<title>Node27&#45;&gt;Node23</title>
<path fill="none" stroke="midnightblue" d="M1440.01,-180.21C1495.21,-170.2 1590.63,-152.91 1647.79,-142.56"/>
<polygon fill="midnightblue" stroke="midnightblue" points="1648.43,-146 1657.65,-140.77 1647.19,-139.11 1648.43,-146"/>
</g>
<!-- Node28&#45;&gt;Node5 -->
<g id="edge51" class="edge">
<title>Node28&#45;&gt;Node5</title>
<path fill="none" stroke="midnightblue" d="M1093.75,-468.12C1022,-467.42 860.32,-461.29 731,-423 596.2,-383.09 562.87,-353.94 463,-255 435.74,-227.99 406.56,-214.14 422,-179 427.39,-166.73 437.96,-156.34 447.9,-148.65"/>
<polygon fill="midnightblue" stroke="midnightblue" points="450.25,-151.27 456.34,-142.6 446.17,-145.58 450.25,-151.27"/>
</g>
<!-- Node28&#45;&gt;Node6 -->
<g id="edge53" class="edge">
<title>Node28&#45;&gt;Node6</title>
<path fill="none" stroke="midnightblue" d="M1093.68,-464.2C992.6,-453.3 716.19,-419.34 643,-367 606.87,-341.16 585.33,-291.35 575.82,-264.4"/>
<polygon fill="midnightblue" stroke="midnightblue" points="579.06,-263.05 572.56,-254.68 572.42,-265.27 579.06,-263.05"/>
</g>
<!-- Node28&#45;&gt;Node7 -->
<g id="edge48" class="edge">
<title>Node28&#45;&gt;Node7</title>
<path fill="none" stroke="midnightblue" d="M1135.45,-459.5C1152.23,-426.9 1211.68,-306.39 1231,-199 1232.57,-190.25 1235.4,-186.72 1231,-179 1222.59,-164.25 1207.23,-153.84 1192.52,-146.77"/>
<polygon fill="midnightblue" stroke="midnightblue" points="1193.58,-143.42 1183.02,-142.6 1190.76,-149.83 1193.58,-143.42"/>
</g>
<!-- Node28&#45;&gt;Node9 -->
<g id="edge52" class="edge">
<title>Node28&#45;&gt;Node9</title>
<path fill="none" stroke="midnightblue" d="M1093.95,-466.34C937.29,-459 329.03,-427.11 148,-367 94.11,-349.1 38,-358.79 38,-302 38,-302 38,-302 38,-244 38,-203.45 74.14,-167.99 98.14,-148.91"/>
<polygon fill="midnightblue" stroke="midnightblue" points="100.52,-151.5 106.34,-142.65 96.27,-145.94 100.52,-151.5"/>
</g>
<!-- Node28&#45;&gt;Node13 -->
<g id="edge49" class="edge">
<title>Node28&#45;&gt;Node13</title>
<path fill="none" stroke="midnightblue" d="M1128.4,-459.41C1115.09,-415.38 1054.42,-214.74 1035.59,-152.48"/>
<polygon fill="midnightblue" stroke="midnightblue" points="1038.83,-151.09 1032.58,-142.54 1032.13,-153.12 1038.83,-151.09"/>
</g>
<!-- Node28&#45;&gt;Node23 -->
<g id="edge50" class="edge">
<title>Node28&#45;&gt;Node23</title>
<path fill="none" stroke="midnightblue" d="M1168.42,-466C1311.79,-457.85 1818,-424.36 1818,-358 1818,-358 1818,-358 1818,-244 1818,-195.48 1764.16,-163.01 1727.73,-146.6"/>
<polygon fill="midnightblue" stroke="midnightblue" points="1728.99,-143.33 1718.42,-142.58 1726.22,-149.76 1728.99,-143.33"/>
</g>
<!-- Node28&#45;&gt;Node27 -->
<g id="edge67" class="edge">
<title>Node28&#45;&gt;Node27</title>
<path fill="none" stroke="midnightblue" d="M1168.11,-461.75C1219.48,-450.73 1306,-422.59 1306,-358 1306,-358 1306,-358 1306,-300 1306,-269.2 1310.96,-259.2 1330,-235 1340.42,-221.76 1355.83,-211.03 1369.25,-203.37"/>
<polygon fill="midnightblue" stroke="midnightblue" points="1371,-206.4 1378.13,-198.57 1367.67,-200.24 1371,-206.4"/>
</g>
<!-- Node29 -->
<g id="node29" class="node">
<title>Node29</title>
<g id="a_node29"><a xlink:href="Coordinator_8hpp.html" target="_top" xlink:title=" ">
<polygon fill="white" stroke="black" points="910,-403.5 910,-422.5 1004,-422.5 1004,-403.5 910,-403.5"/>
<text text-anchor="middle" x="957" y="-410.5" font-family="Helvetica,sans-Serif" font-size="10.00">Coordinator.hpp</text>
</a>
</g>
</g>
<!-- Node28&#45;&gt;Node29 -->
<g id="edge54" class="edge">
<title>Node28&#45;&gt;Node29</title>
<path fill="none" stroke="midnightblue" d="M1103.43,-459.44C1073.9,-450.28 1026.88,-435.69 994.12,-425.52"/>
<polygon fill="midnightblue" stroke="midnightblue" points="995.03,-422.14 984.44,-422.52 992.96,-428.82 995.03,-422.14"/>
</g>
<!-- Node32 -->
<g id="node32" class="node">
<title>Node32</title>
<g id="a_node32"><a xlink:href="Circle_8hpp.html" target="_top" xlink:title=" ">
<polygon fill="white" stroke="black" points="1846.5,-235.5 1846.5,-254.5 1911.5,-254.5 1911.5,-235.5 1846.5,-235.5"/>
<text text-anchor="middle" x="1879" y="-242.5" font-family="Helvetica,sans-Serif" font-size="10.00">Circle.hpp</text>
</a>
</g>
</g>
<!-- Node28&#45;&gt;Node32 -->
<g id="edge68" class="edge">
<title>Node28&#45;&gt;Node32</title>
<path fill="none" stroke="midnightblue" d="M1168.41,-466.19C1311.8,-459.17 1819.06,-433.63 1832,-423 1879.66,-383.85 1882.08,-302.39 1880.45,-265.23"/>
<polygon fill="midnightblue" stroke="midnightblue" points="1883.92,-264.6 1879.83,-254.83 1876.93,-265.02 1883.92,-264.6"/>
</g>
<!-- Node34 -->
<g id="node34" class="node">
<title>Node34</title>
<g id="a_node34"><a xlink:href="Rectangle_8hpp.html" target="_top" xlink:title=" ">
<polygon fill="white" stroke="black" points="1930,-235.5 1930,-254.5 2016,-254.5 2016,-235.5 1930,-235.5"/>
<text text-anchor="middle" x="1973" y="-242.5" font-family="Helvetica,sans-Serif" font-size="10.00">Rectangle.hpp</text>
</a>
</g>
</g>
<!-- Node28&#45;&gt;Node34 -->
<g id="edge75" class="edge">
<title>Node28&#45;&gt;Node34</title>
<path fill="none" stroke="midnightblue" d="M1168.26,-467.61C1307.89,-465.88 1795.25,-457.41 1855,-423 1917.92,-386.77 1953.79,-301.8 1967.05,-264.32"/>
<polygon fill="midnightblue" stroke="midnightblue" points="1970.42,-265.29 1970.32,-254.7 1963.79,-263.04 1970.42,-265.29"/>
</g>
<!-- Node29&#45;&gt;Node4 -->
<g id="edge57" class="edge">
<title>Node29&#45;&gt;Node4</title>
<path fill="none" stroke="midnightblue" d="M983.61,-403.35C1006.83,-395.33 1041.08,-382.34 1069,-367 1175.35,-308.58 1270.68,-193.92 1304.22,-150.87"/>
<polygon fill="midnightblue" stroke="midnightblue" points="1307.1,-152.87 1310.42,-142.81 1301.55,-148.6 1307.1,-152.87"/>
</g>
<!-- Node29&#45;&gt;Node9 -->
<g id="edge56" class="edge">
<title>Node29&#45;&gt;Node9</title>
<path fill="none" stroke="midnightblue" d="M909.95,-411.12C727.38,-407.1 76,-386.82 76,-302 76,-302 76,-302 76,-244 76,-209.31 94.78,-172.42 107.52,-151.4"/>
<polygon fill="midnightblue" stroke="midnightblue" points="110.65,-153 113.02,-142.67 104.73,-149.27 110.65,-153"/>
</g>
<!-- Node29&#45;&gt;Node19 -->
<g id="edge58" class="edge">
<title>Node29&#45;&gt;Node19</title>
<path fill="none" stroke="midnightblue" d="M974.5,-403.45C1023.03,-378.84 1160.36,-302.88 1231,-199 1240.4,-185.18 1245.22,-166.66 1247.65,-152.92"/>
<polygon fill="midnightblue" stroke="midnightblue" points="1251.16,-153.13 1249.17,-142.72 1244.23,-152.09 1251.16,-153.13"/>
</g>
<!-- Node29&#45;&gt;Node20 -->
<g id="edge66" class="edge">
<title>Node29&#45;&gt;Node20</title>
<path fill="none" stroke="midnightblue" d="M951.99,-403.28C938.54,-380.7 899.2,-320.06 849,-291 797.25,-261.04 630.73,-220.06 547.82,-200.82"/>
<polygon fill="midnightblue" stroke="midnightblue" points="548.43,-197.36 537.9,-198.52 546.86,-204.18 548.43,-197.36"/>
</g>
<!-- Node30 -->
<g id="node30" class="node">
<title>Node30</title>
<g id="a_node30"><a xlink:title=" ">
<polygon fill="white" stroke="#bfbfbf" points="954,-347.5 954,-366.5 1004,-366.5 1004,-347.5 954,-347.5"/>
<text text-anchor="middle" x="979" y="-354.5" font-family="Helvetica,sans-Serif" font-size="10.00">chrono</text>
</a>
</g>
</g>
<!-- Node29&#45;&gt;Node30 -->
<g id="edge55" class="edge">
<title>Node29&#45;&gt;Node30</title>
<path fill="none" stroke="midnightblue" d="M960.63,-403.08C963.61,-395.77 967.93,-385.18 971.62,-376.1"/>
<polygon fill="midnightblue" stroke="midnightblue" points="974.9,-377.33 975.43,-366.75 968.42,-374.69 974.9,-377.33"/>
</g>
<!-- Node31 -->
<g id="node31" class="node">
<title>Node31</title>
<g id="a_node31"><a xlink:href="SystemManager_8hpp.html" target="_top" xlink:title=" ">
<polygon fill="white" stroke="black" points="652,-347.5 652,-366.5 768,-366.5 768,-347.5 652,-347.5"/>
<text text-anchor="middle" x="710" y="-354.5" font-family="Helvetica,sans-Serif" font-size="10.00">SystemManager.hpp</text>
</a>
</g>
</g>
<!-- Node29&#45;&gt;Node31 -->
<g id="edge59" class="edge">
<title>Node29&#45;&gt;Node31</title>
<path fill="none" stroke="midnightblue" d="M917.86,-403.44C874.77,-394.02 805.44,-378.87 758.83,-368.68"/>
<polygon fill="midnightblue" stroke="midnightblue" points="759.47,-365.23 748.95,-366.52 757.98,-372.07 759.47,-365.23"/>
</g>
<!-- Node31&#45;&gt;Node3 -->
<g id="edge64" class="edge">
<title>Node31&#45;&gt;Node3</title>
<path fill="none" stroke="midnightblue" d="M721.25,-347.32C731.8,-339.18 747.8,-326.84 760.44,-317.09"/>
<polygon fill="midnightblue" stroke="midnightblue" points="762.77,-319.71 768.55,-310.83 758.49,-314.17 762.77,-319.71"/>
</g>
<!-- Node31&#45;&gt;Node4 -->
<g id="edge62" class="edge">
<title>Node31&#45;&gt;Node4</title>
<path fill="none" stroke="midnightblue" d="M735.11,-347.41C759.59,-338.84 797.74,-324.98 830,-311 890.73,-284.68 1034.33,-200.31 1097,-179 1174.65,-152.6 1197.81,-160.22 1278,-143 1280.21,-142.53 1282.48,-142.03 1284.77,-141.52"/>
<polygon fill="midnightblue" stroke="midnightblue" points="1285.77,-144.88 1294.75,-139.26 1284.23,-138.05 1285.77,-144.88"/>
</g>
<!-- Node31&#45;&gt;Node8 -->
<g id="edge63" class="edge">
<title>Node31&#45;&gt;Node8</title>
<path fill="none" stroke="midnightblue" d="M663.3,-347.48C626.82,-340.04 575.23,-327.8 532,-311 435.96,-273.66 417.78,-251.31 329,-199 299.84,-181.82 266.63,-161.3 245.28,-147.98"/>
<polygon fill="midnightblue" stroke="midnightblue" points="246.96,-144.9 236.63,-142.57 243.25,-150.84 246.96,-144.9"/>
</g>
<!-- Node31&#45;&gt;Node9 -->
<g id="edge60" class="edge">
<title>Node31&#45;&gt;Node9</title>
<path fill="none" stroke="midnightblue" d="M651.99,-348.87C605.04,-342.09 537.65,-330.05 481,-311 346.55,-265.79 197.98,-181.15 142.01,-147.91"/>
<polygon fill="midnightblue" stroke="midnightblue" points="143.62,-144.8 133.24,-142.68 140.03,-150.81 143.62,-144.8"/>
</g>
<!-- Node31&#45;&gt;Node10 -->
<g id="edge61" class="edge">
<title>Node31&#45;&gt;Node10</title>
<path fill="none" stroke="midnightblue" d="M683.02,-347.48C636.48,-332.25 538.81,-297.88 463,-255 426.79,-234.52 419.76,-225.87 388,-199 369.24,-183.13 349.04,-163.46 335.57,-149.94"/>
<polygon fill="midnightblue" stroke="midnightblue" points="338,-147.42 328.49,-142.77 333.02,-152.34 338,-147.42"/>
</g>
<!-- Node31&#45;&gt;Node11 -->
<g id="edge65" class="edge">
<title>Node31&#45;&gt;Node11</title>
<path fill="none" stroke="midnightblue" d="M712.51,-347.3C721.95,-314.56 755.44,-198.38 768.62,-152.67"/>
<polygon fill="midnightblue" stroke="midnightblue" points="772.03,-153.46 771.44,-142.88 765.31,-151.52 772.03,-153.46"/>
</g>
<!-- Node32&#45;&gt;Node24 -->
<g id="edge69" class="edge">
<title>Node32&#45;&gt;Node24</title>
<path fill="none" stroke="midnightblue" d="M1877.76,-235.08C1874.14,-208.95 1863.51,-132.21 1858.57,-96.58"/>
<polygon fill="midnightblue" stroke="midnightblue" points="1862.03,-95.99 1857.19,-86.57 1855.09,-96.95 1862.03,-95.99"/>
</g>
<!-- Node33 -->
<g id="node33" class="node">
<title>Node33</title>
<g id="a_node33"><a xlink:href="Vector2_8hpp.html" target="_top" xlink:title=" ">
<polygon fill="white" stroke="black" points="1690,-179.5 1690,-198.5 1764,-198.5 1764,-179.5 1690,-179.5"/>
<text text-anchor="middle" x="1727" y="-186.5" font-family="Helvetica,sans-Serif" font-size="10.00">Vector2.hpp</text>
</a>
</g>
</g>
<!-- Node32&#45;&gt;Node33 -->
<g id="edge70" class="edge">
<title>Node32&#45;&gt;Node33</title>
<path fill="none" stroke="midnightblue" d="M1854.92,-235.44C1829.46,-226.4 1789.11,-212.06 1760.54,-201.92"/>
<polygon fill="midnightblue" stroke="midnightblue" points="1761.57,-198.57 1750.97,-198.52 1759.22,-205.16 1761.57,-198.57"/>
</g>
<!-- Node33&#45;&gt;Node15 -->
<g id="edge74" class="edge">
<title>Node33&#45;&gt;Node15</title>
<path fill="none" stroke="midnightblue" d="M1689.84,-181.12C1588.9,-162.43 1309.17,-110.62 1189.02,-88.37"/>
<polygon fill="midnightblue" stroke="midnightblue" points="1189.4,-84.88 1178.93,-86.51 1188.12,-91.77 1189.4,-84.88"/>
</g>
<!-- Node33&#45;&gt;Node23 -->
<g id="edge73" class="edge">
<title>Node33&#45;&gt;Node23</title>
<path fill="none" stroke="midnightblue" d="M1721.72,-179.08C1717.29,-171.61 1710.84,-160.72 1705.38,-151.52"/>
<polygon fill="midnightblue" stroke="midnightblue" points="1708.29,-149.57 1700.19,-142.75 1702.27,-153.14 1708.29,-149.57"/>
</g>
<!-- Node33&#45;&gt;Node24 -->
<g id="edge71" class="edge">
<title>Node33&#45;&gt;Node24</title>
<path fill="none" stroke="midnightblue" d="M1737.12,-179.37C1758.98,-160.73 1810.81,-116.53 1838.25,-93.13"/>
<polygon fill="midnightblue" stroke="midnightblue" points="1840.59,-95.74 1845.92,-86.59 1836.04,-90.42 1840.59,-95.74"/>
</g>
<!-- Node33&#45;&gt;Node25 -->
<g id="edge72" class="edge">
<title>Node33&#45;&gt;Node25</title>
<path fill="none" stroke="midnightblue" d="M1729.73,-179.39C1732.58,-170.34 1737.17,-155.69 1741,-143 1745.72,-127.35 1750.92,-109.52 1754.68,-96.5"/>
<polygon fill="midnightblue" stroke="midnightblue" points="1758.06,-97.42 1757.47,-86.85 1751.33,-95.49 1758.06,-97.42"/>
</g>
<!-- Node34&#45;&gt;Node24 -->
<g id="edge76" class="edge">
<title>Node34&#45;&gt;Node24</title>
<path fill="none" stroke="midnightblue" d="M1972.02,-235.47C1970.25,-222.53 1965.64,-197.46 1955,-179 1934.44,-143.32 1898.32,-111.03 1875.86,-93.01"/>
<polygon fill="midnightblue" stroke="midnightblue" points="1877.73,-90.04 1867.7,-86.62 1873.41,-95.54 1877.73,-90.04"/>
</g>
<!-- Node35 -->
<g id="node35" class="node">
<title>Node35</title>
<g id="a_node35"><a xlink:href="Color_8hpp.html" target="_top" xlink:title=" ">
<polygon fill="white" stroke="black" points="1884,-179.5 1884,-198.5 1946,-198.5 1946,-179.5 1884,-179.5"/>
<text text-anchor="middle" x="1915" y="-186.5" font-family="Helvetica,sans-Serif" font-size="10.00">Color.hpp</text>
</a>
</g>
</g>
<!-- Node34&#45;&gt;Node35 -->
<g id="edge77" class="edge">
<title>Node34&#45;&gt;Node35</title>
<path fill="none" stroke="midnightblue" d="M1963.68,-235.32C1955.11,-227.34 1942.19,-215.31 1931.81,-205.65"/>
<polygon fill="midnightblue" stroke="midnightblue" points="1934.19,-203.09 1924.49,-198.83 1929.42,-208.21 1934.19,-203.09"/>
</g>
<!-- Node35&#45;&gt;Node23 -->
<g id="edge79" class="edge">
<title>Node35&#45;&gt;Node23</title>
<path fill="none" stroke="midnightblue" d="M1883.95,-180.38C1846.34,-171.15 1782.7,-155.53 1739.79,-144.99"/>
<polygon fill="midnightblue" stroke="midnightblue" points="1740.44,-141.55 1729.89,-142.56 1738.77,-148.35 1740.44,-141.55"/>
</g>
<!-- Node35&#45;&gt;Node24 -->
<g id="edge78" class="edge">
<title>Node35&#45;&gt;Node24</title>
<path fill="none" stroke="midnightblue" d="M1910.37,-179.37C1900.72,-161.38 1878.29,-119.55 1865.45,-95.63"/>
<polygon fill="midnightblue" stroke="midnightblue" points="1868.42,-93.75 1860.61,-86.59 1862.25,-97.06 1868.42,-93.75"/>
</g>
<!-- Node36&#45;&gt;Node5 -->
<g id="edge92" class="edge">
<title>Node36&#45;&gt;Node5</title>
<path fill="none" stroke="midnightblue" d="M1475.47,-291.47C1350.9,-274.84 1068.69,-236.45 832,-199 780.76,-190.89 768.13,-187.77 717,-179 625.51,-163.31 599.47,-163.62 504.73,-142.97"/>
<polygon fill="midnightblue" stroke="midnightblue" points="505.24,-139.5 494.72,-140.77 503.74,-146.34 505.24,-139.5"/>
</g>
<!-- Node36&#45;&gt;Node11 -->
<g id="edge83" class="edge">
<title>Node36&#45;&gt;Node11</title>
<path fill="none" stroke="midnightblue" d="M1500.7,-291.48C1372.34,-263.67 965.58,-175.52 823.53,-144.73"/>
<polygon fill="midnightblue" stroke="midnightblue" points="823.89,-141.23 813.38,-142.53 822.41,-148.07 823.89,-141.23"/>
</g>
<!-- Node36&#45;&gt;Node19 -->
<g id="edge93" class="edge">
<title>Node36&#45;&gt;Node19</title>
<path fill="none" stroke="midnightblue" d="M1473.87,-294.99C1447.06,-289.31 1418.58,-277.84 1402,-255 1377.72,-221.54 1446.84,-203.37 1449,-199 1452.93,-191.03 1454.57,-185.93 1449,-179 1402.54,-121.16 1358.22,-160 1286,-143 1283.67,-142.45 1281.26,-141.87 1278.84,-141.29"/>
<polygon fill="midnightblue" stroke="midnightblue" points="1279.58,-137.86 1269.03,-138.86 1277.9,-144.66 1279.58,-137.86"/>
</g>
<!-- Node36&#45;&gt;Node33 -->
<g id="edge87" class="edge">
<title>Node36&#45;&gt;Node33</title>
<path fill="none" stroke="midnightblue" d="M1593.3,-291.46C1621.41,-284.97 1655.29,-273.82 1681,-255 1697.86,-242.66 1710.84,-222.24 1718.65,-207.57"/>
<polygon fill="midnightblue" stroke="midnightblue" points="1721.84,-209.02 1723.22,-198.51 1715.59,-205.87 1721.84,-209.02"/>
</g>
<!-- Node37 -->
<g id="node37" class="node">
<title>Node37</title>
<g id="a_node37"><a xlink:href="Input_8hpp.html" target="_top" xlink:title=" ">
<polygon fill="white" stroke="black" points="1728,-235.5 1728,-254.5 1790,-254.5 1790,-235.5 1728,-235.5"/>
<text text-anchor="middle" x="1759" y="-242.5" font-family="Helvetica,sans-Serif" font-size="10.00">Input.hpp</text>
</a>
</g>
</g>
<!-- Node36&#45;&gt;Node37 -->
<g id="edge81" class="edge">
<title>Node36&#45;&gt;Node37</title>
<path fill="none" stroke="midnightblue" d="M1574.7,-291.44C1613.59,-281.86 1676.58,-266.32 1717.9,-256.13"/>
<polygon fill="midnightblue" stroke="midnightblue" points="1718.78,-259.52 1727.65,-253.73 1717.11,-252.72 1718.78,-259.52"/>
</g>
<!-- Node38 -->
<g id="node38" class="node">
<title>Node38</title>
<g id="a_node38"><a xlink:href="EngineExceptions_8hpp.html" target="_top" xlink:title=" ">
<polygon fill="white" stroke="black" points="1548,-235.5 1548,-254.5 1672,-254.5 1672,-235.5 1548,-235.5"/>
<text text-anchor="middle" x="1610" y="-242.5" font-family="Helvetica,sans-Serif" font-size="10.00">EngineExceptions.hpp</text>
</a>
</g>
</g>
<!-- Node36&#45;&gt;Node38 -->
<g id="edge84" class="edge">
<title>Node36&#45;&gt;Node38</title>
<path fill="none" stroke="midnightblue" d="M1551.25,-291.32C1561.8,-283.18 1577.8,-270.84 1590.44,-261.09"/>
<polygon fill="midnightblue" stroke="midnightblue" points="1592.77,-263.71 1598.55,-254.83 1588.49,-258.17 1592.77,-263.71"/>
</g>
<!-- Node40 -->
<g id="node40" class="node">
<title>Node40</title>
<g id="a_node40"><a xlink:href="TerrainGenerator_8hpp.html" target="_top" xlink:title=" ">
<polygon fill="white" stroke="black" points="1410.5,-235.5 1410.5,-254.5 1529.5,-254.5 1529.5,-235.5 1410.5,-235.5"/>
<text text-anchor="middle" x="1470" y="-242.5" font-family="Helvetica,sans-Serif" font-size="10.00">TerrainGenerator.hpp</text>
</a>
</g>
</g>
<!-- Node36&#45;&gt;Node40 -->
<g id="edge88" class="edge">
<title>Node36&#45;&gt;Node40</title>
<path fill="none" stroke="midnightblue" d="M1528.75,-291.32C1518.2,-283.18 1502.2,-270.84 1489.56,-261.09"/>
<polygon fill="midnightblue" stroke="midnightblue" points="1491.51,-258.17 1481.45,-254.83 1487.23,-263.71 1491.51,-258.17"/>
</g>
<!-- Node37&#45;&gt;Node33 -->
<g id="edge82" class="edge">
<title>Node37&#45;&gt;Node33</title>
<path fill="none" stroke="midnightblue" d="M1753.72,-235.08C1749.29,-227.61 1742.84,-216.72 1737.38,-207.52"/>
<polygon fill="midnightblue" stroke="midnightblue" points="1740.29,-205.57 1732.19,-198.75 1734.27,-209.14 1740.29,-205.57"/>
</g>
<!-- Node38&#45;&gt;Node4 -->
<g id="edge86" class="edge">
<title>Node38&#45;&gt;Node4</title>
<path fill="none" stroke="midnightblue" d="M1597.83,-235.38C1577.87,-221.6 1536.55,-194.61 1498,-179 1447.87,-158.7 1386.11,-145.74 1349.24,-139.17"/>
<polygon fill="midnightblue" stroke="midnightblue" points="1349.53,-135.67 1339.08,-137.42 1348.33,-142.57 1349.53,-135.67"/>
</g>
<!-- Node39 -->
<g id="node39" class="node">
<title>Node39</title>
<g id="a_node39"><a xlink:title=" ">
<polygon fill="white" stroke="#bfbfbf" points="1577.5,-179.5 1577.5,-198.5 1642.5,-198.5 1642.5,-179.5 1577.5,-179.5"/>
<text text-anchor="middle" x="1610" y="-186.5" font-family="Helvetica,sans-Serif" font-size="10.00">exception</text>
</a>
</g>
</g>
<!-- Node38&#45;&gt;Node39 -->
<g id="edge85" class="edge">
<title>Node38&#45;&gt;Node39</title>
<path fill="none" stroke="midnightblue" d="M1610,-235.08C1610,-228.01 1610,-217.86 1610,-208.99"/>
<polygon fill="midnightblue" stroke="midnightblue" points="1613.5,-208.75 1610,-198.75 1606.5,-208.75 1613.5,-208.75"/>
</g>
<!-- Node40&#45;&gt;Node4 -->
<g id="edge89" class="edge">
<title>Node40&#45;&gt;Node4</title>
<path fill="none" stroke="midnightblue" d="M1475.36,-235.45C1483.01,-222.02 1494.82,-195.78 1482,-179 1465.97,-158.02 1392.59,-144.47 1349.27,-138.16"/>
<polygon fill="midnightblue" stroke="midnightblue" points="1349.61,-134.67 1339.22,-136.74 1348.63,-141.6 1349.61,-134.67"/>
</g>
<!-- Node40&#45;&gt;Node5 -->
<g id="edge90" class="edge">
<title>Node40&#45;&gt;Node5</title>
<path fill="none" stroke="midnightblue" d="M1410.46,-238.34C1219.65,-220.13 629.1,-163.17 504.66,-142.7"/>
<polygon fill="midnightblue" stroke="midnightblue" points="505.14,-139.24 494.69,-140.95 503.93,-146.13 505.14,-139.24"/>
</g>
<!-- Node40&#45;&gt;Node33 -->
<g id="edge91" class="edge">
<title>Node40&#45;&gt;Node33</title>
<path fill="none" stroke="midnightblue" d="M1510.72,-235.44C1556.71,-225.78 1631.42,-210.08 1679.88,-199.9"/>
<polygon fill="midnightblue" stroke="midnightblue" points="1680.74,-203.3 1689.81,-197.82 1679.3,-196.45 1680.74,-203.3"/>
</g>
</g>
</svg>
