<?xml version="1.0" encoding="UTF-8" standalone="no"?>
<!DOCTYPE svg PUBLIC "-//W3C//DTD SVG 1.1//EN"
 "http://www.w3.org/Graphics/SVG/1.1/DTD/svg11.dtd">
<!-- Generated by graphviz version 2.43.0 (0)
 -->
<!-- Title: Libs/RayLib/sources/Physics2D/Physics2D.cpp Pages: 1 -->
<svg width="507pt" height="386pt"
 viewBox="0.00 0.00 507.25 386.00" xmlns="http://www.w3.org/2000/svg" xmlns:xlink="http://www.w3.org/1999/xlink">
<g id="graph0" class="graph" transform="scale(1 1) rotate(0) translate(4 382)">
<title>Libs/RayLib/sources/Physics2D/Physics2D.cpp</title>
<polygon fill="white" stroke="transparent" points="-4,4 -4,-382 503.25,-382 503.25,4 -4,4"/>
<!-- Node1 -->
<g id="node1" class="node">
<title>Node1</title>
<g id="a_node1"><a xlink:title=" ">
<polygon fill="#bfbfbf" stroke="black" points="106.25,-347.5 106.25,-377.5 249.25,-377.5 249.25,-347.5 106.25,-347.5"/>
<text text-anchor="start" x="114.25" y="-365.5" font-family="Helvetica,sans-Serif" font-size="10.00">Libs/RayLib/sources</text>
<text text-anchor="middle" x="177.75" y="-354.5" font-family="Helvetica,sans-Serif" font-size="10.00">/Physics2D/Physics2D.cpp</text>
</a>
</g>
</g>
<!-- Node2 -->
<g id="node2" class="node">
<title>Node2</title>
<g id="a_node2"><a xlink:href="Physics2D_8hpp.html" target="_top" xlink:title=" ">
<polygon fill="white" stroke="black" points="133.75,-291.5 133.75,-310.5 221.75,-310.5 221.75,-291.5 133.75,-291.5"/>
<text text-anchor="middle" x="177.75" y="-298.5" font-family="Helvetica,sans-Serif" font-size="10.00">Physics2D.hpp</text>
</a>
</g>
</g>
<!-- Node1&#45;&gt;Node2 -->
<g id="edge1" class="edge">
<title>Node1&#45;&gt;Node2</title>
<path fill="none" stroke="midnightblue" d="M177.75,-347.4C177.75,-339.47 177.75,-329.46 177.75,-320.86"/>
<polygon fill="midnightblue" stroke="midnightblue" points="181.25,-320.66 177.75,-310.66 174.25,-320.66 181.25,-320.66"/>
</g>
<!-- Node3 -->
<g id="node3" class="node">
<title>Node3</title>
<g id="a_node3"><a xlink:title=" ">
<polygon fill="white" stroke="#bfbfbf" points="54.25,-67.5 54.25,-86.5 107.25,-86.5 107.25,-67.5 54.25,-67.5"/>
<text text-anchor="middle" x="80.75" y="-74.5" font-family="Helvetica,sans-Serif" font-size="10.00">raylib.h</text>
</a>
</g>
</g>
<!-- Node2&#45;&gt;Node3 -->
<g id="edge2" class="edge">
<title>Node2&#45;&gt;Node3</title>
<path fill="none" stroke="midnightblue" d="M133.65,-299.9C98.98,-297.2 52.67,-287.22 28.75,-255 13.65,-234.67 -32,-281.43 38.75,-123 43.83,-111.61 53.01,-101.26 61.49,-93.36"/>
<polygon fill="midnightblue" stroke="midnightblue" points="64.02,-95.79 69.26,-86.58 59.42,-90.52 64.02,-95.79"/>
</g>
<!-- Node4 -->
<g id="node4" class="node">
<title>Node4</title>
<g id="a_node4"><a xlink:href="Vector3_8hpp.html" target="_top" xlink:title=" ">
<polygon fill="white" stroke="black" points="205.75,-123.5 205.75,-142.5 279.75,-142.5 279.75,-123.5 205.75,-123.5"/>
<text text-anchor="middle" x="242.75" y="-130.5" font-family="Helvetica,sans-Serif" font-size="10.00">Vector3.hpp</text>
</a>
</g>
</g>
<!-- Node2&#45;&gt;Node4 -->
<g id="edge3" class="edge">
<title>Node2&#45;&gt;Node4</title>
<path fill="none" stroke="midnightblue" d="M180.02,-291.48C183.43,-278.95 190.29,-254.9 197.75,-235 208.94,-205.15 224.55,-171.53 234.13,-151.59"/>
<polygon fill="midnightblue" stroke="midnightblue" points="237.33,-153.03 238.54,-142.5 231.03,-149.97 237.33,-153.03"/>
</g>
<!-- Node12 -->
<g id="node12" class="node">
<title>Node12</title>
<g id="a_node12"><a xlink:href="Vector2_8hpp.html" target="_top" xlink:title=" ">
<polygon fill="white" stroke="black" points="233.75,-179.5 233.75,-198.5 307.75,-198.5 307.75,-179.5 233.75,-179.5"/>
<text text-anchor="middle" x="270.75" y="-186.5" font-family="Helvetica,sans-Serif" font-size="10.00">Vector2.hpp</text>
</a>
</g>
</g>
<!-- Node2&#45;&gt;Node12 -->
<g id="edge12" class="edge">
<title>Node2&#45;&gt;Node12</title>
<path fill="none" stroke="midnightblue" d="M221.89,-292.37C243.51,-286.17 267.66,-275 280.75,-255 289.82,-241.14 285.4,-222.13 279.87,-208.24"/>
<polygon fill="midnightblue" stroke="midnightblue" points="282.91,-206.48 275.62,-198.8 276.53,-209.35 282.91,-206.48"/>
</g>
<!-- Node13 -->
<g id="node13" class="node">
<title>Node13</title>
<g id="a_node13"><a xlink:href="Rectangle_8hpp.html" target="_top" xlink:title=" ">
<polygon fill="white" stroke="black" points="37.75,-235.5 37.75,-254.5 123.75,-254.5 123.75,-235.5 37.75,-235.5"/>
<text text-anchor="middle" x="80.75" y="-242.5" font-family="Helvetica,sans-Serif" font-size="10.00">Rectangle.hpp</text>
</a>
</g>
</g>
<!-- Node2&#45;&gt;Node13 -->
<g id="edge17" class="edge">
<title>Node2&#45;&gt;Node13</title>
<path fill="none" stroke="midnightblue" d="M162.16,-291.32C146.75,-282.74 122.94,-269.49 105.04,-259.52"/>
<polygon fill="midnightblue" stroke="midnightblue" points="106.73,-256.46 96.29,-254.65 103.33,-262.58 106.73,-256.46"/>
</g>
<!-- Node15 -->
<g id="node15" class="node">
<title>Node15</title>
<g id="a_node15"><a xlink:href="Circle_8hpp.html" target="_top" xlink:title=" ">
<polygon fill="white" stroke="black" points="206.25,-235.5 206.25,-254.5 271.25,-254.5 271.25,-235.5 206.25,-235.5"/>
<text text-anchor="middle" x="238.75" y="-242.5" font-family="Helvetica,sans-Serif" font-size="10.00">Circle.hpp</text>
</a>
</g>
</g>
<!-- Node2&#45;&gt;Node15 -->
<g id="edge22" class="edge">
<title>Node2&#45;&gt;Node15</title>
<path fill="none" stroke="midnightblue" d="M187.55,-291.32C196.57,-283.34 210.15,-271.31 221.07,-261.65"/>
<polygon fill="midnightblue" stroke="midnightblue" points="223.6,-264.08 228.77,-254.83 218.96,-258.84 223.6,-264.08"/>
</g>
<!-- Node4&#45;&gt;Node3 -->
<g id="edge4" class="edge">
<title>Node4&#45;&gt;Node3</title>
<path fill="none" stroke="midnightblue" d="M217.08,-123.44C189.83,-114.36 146.57,-99.94 116.1,-89.78"/>
<polygon fill="midnightblue" stroke="midnightblue" points="116.89,-86.36 106.3,-86.52 114.68,-93 116.89,-86.36"/>
</g>
<!-- Node5 -->
<g id="node5" class="node">
<title>Node5</title>
<g id="a_node5"><a xlink:href="IXMLSerializable_8hpp.html" target="_top" xlink:title=" ">
<polygon fill="white" stroke="black" points="200.25,-67.5 200.25,-86.5 319.25,-86.5 319.25,-67.5 200.25,-67.5"/>
<text text-anchor="middle" x="259.75" y="-74.5" font-family="Helvetica,sans-Serif" font-size="10.00">IXMLSerializable.hpp</text>
</a>
</g>
</g>
<!-- Node4&#45;&gt;Node5 -->
<g id="edge5" class="edge">
<title>Node4&#45;&gt;Node5</title>
<path fill="none" stroke="midnightblue" d="M245.56,-123.08C247.83,-115.85 251.12,-105.41 253.96,-96.4"/>
<polygon fill="midnightblue" stroke="midnightblue" points="257.33,-97.34 256.99,-86.75 250.65,-95.24 257.33,-97.34"/>
</g>
<!-- Node10 -->
<g id="node10" class="node">
<title>Node10</title>
<g id="a_node10"><a xlink:title=" ">
<polygon fill="white" stroke="#bfbfbf" points="337.25,-67.5 337.25,-86.5 384.25,-86.5 384.25,-67.5 337.25,-67.5"/>
<text text-anchor="middle" x="360.75" y="-74.5" font-family="Helvetica,sans-Serif" font-size="10.00">cmath</text>
</a>
</g>
</g>
<!-- Node4&#45;&gt;Node10 -->
<g id="edge10" class="edge">
<title>Node4&#45;&gt;Node10</title>
<path fill="none" stroke="midnightblue" d="M261.45,-123.44C280.69,-114.64 310.9,-100.81 332.95,-90.72"/>
<polygon fill="midnightblue" stroke="midnightblue" points="334.5,-93.86 342.14,-86.52 331.59,-87.5 334.5,-93.86"/>
</g>
<!-- Node11 -->
<g id="node11" class="node">
<title>Node11</title>
<g id="a_node11"><a xlink:title=" ">
<polygon fill="white" stroke="#bfbfbf" points="125.75,-67.5 125.75,-86.5 181.75,-86.5 181.75,-67.5 125.75,-67.5"/>
<text text-anchor="middle" x="153.75" y="-74.5" font-family="Helvetica,sans-Serif" font-size="10.00">sstream</text>
</a>
</g>
</g>
<!-- Node4&#45;&gt;Node11 -->
<g id="edge11" class="edge">
<title>Node4&#45;&gt;Node11</title>
<path fill="none" stroke="midnightblue" d="M228.45,-123.32C214.57,-114.9 193.26,-101.97 176.95,-92.07"/>
<polygon fill="midnightblue" stroke="midnightblue" points="178.38,-88.85 168.01,-86.65 174.75,-94.83 178.38,-88.85"/>
</g>
<!-- Node6 -->
<g id="node6" class="node">
<title>Node6</title>
<g id="a_node6"><a xlink:title=" ">
<polygon fill="white" stroke="#bfbfbf" points="101.25,-6 101.25,-25 158.25,-25 158.25,-6 101.25,-6"/>
<text text-anchor="middle" x="129.75" y="-13" font-family="Helvetica,sans-Serif" font-size="10.00">ostream</text>
</a>
</g>
</g>
<!-- Node5&#45;&gt;Node6 -->
<g id="edge6" class="edge">
<title>Node5&#45;&gt;Node6</title>
<path fill="none" stroke="midnightblue" d="M241.12,-67.48C219.31,-57.49 182.95,-40.85 157.73,-29.31"/>
<polygon fill="midnightblue" stroke="midnightblue" points="158.89,-25.99 148.34,-25.01 155.98,-32.35 158.89,-25.99"/>
</g>
<!-- Node7 -->
<g id="node7" class="node">
<title>Node7</title>
<g id="a_node7"><a xlink:title=" ">
<polygon fill="white" stroke="#bfbfbf" points="176.75,-6 176.75,-25 236.75,-25 236.75,-6 176.75,-6"/>
<text text-anchor="middle" x="206.75" y="-13" font-family="Helvetica,sans-Serif" font-size="10.00">iostream</text>
</a>
</g>
</g>
<!-- Node5&#45;&gt;Node7 -->
<g id="edge7" class="edge">
<title>Node5&#45;&gt;Node7</title>
<path fill="none" stroke="midnightblue" d="M252.16,-67.48C244.05,-58.37 231.01,-43.74 220.99,-32.48"/>
<polygon fill="midnightblue" stroke="midnightblue" points="223.59,-30.15 214.33,-25.01 218.37,-34.8 223.59,-30.15"/>
</g>
<!-- Node8 -->
<g id="node8" class="node">
<title>Node8</title>
<g id="a_node8"><a xlink:title=" ">
<polygon fill="white" stroke="#bfbfbf" points="255.25,-0.5 255.25,-30.5 368.25,-30.5 368.25,-0.5 255.25,-0.5"/>
<text text-anchor="start" x="263.25" y="-18.5" font-family="Helvetica,sans-Serif" font-size="10.00">boost/property_tree</text>
<text text-anchor="middle" x="311.75" y="-7.5" font-family="Helvetica,sans-Serif" font-size="10.00">/ptree.hpp</text>
</a>
</g>
</g>
<!-- Node5&#45;&gt;Node8 -->
<g id="edge8" class="edge">
<title>Node5&#45;&gt;Node8</title>
<path fill="none" stroke="midnightblue" d="M267.2,-67.48C273.85,-59.87 283.87,-48.4 292.73,-38.26"/>
<polygon fill="midnightblue" stroke="midnightblue" points="295.55,-40.36 299.49,-30.52 290.28,-35.75 295.55,-40.36"/>
</g>
<!-- Node9 -->
<g id="node9" class="node">
<title>Node9</title>
<g id="a_node9"><a xlink:title=" ">
<polygon fill="white" stroke="#bfbfbf" points="386.25,-0.5 386.25,-30.5 499.25,-30.5 499.25,-0.5 386.25,-0.5"/>
<text text-anchor="start" x="394.25" y="-18.5" font-family="Helvetica,sans-Serif" font-size="10.00">boost/property_tree</text>
<text text-anchor="middle" x="442.75" y="-7.5" font-family="Helvetica,sans-Serif" font-size="10.00">/xml_parser.hpp</text>
</a>
</g>
</g>
<!-- Node5&#45;&gt;Node9 -->
<g id="edge9" class="edge">
<title>Node5&#45;&gt;Node9</title>
<path fill="none" stroke="midnightblue" d="M285.97,-67.48C312.95,-58.7 355.75,-44.79 389.81,-33.71"/>
<polygon fill="midnightblue" stroke="midnightblue" points="391.19,-36.94 399.62,-30.52 389.03,-30.29 391.19,-36.94"/>
</g>
<!-- Node12&#45;&gt;Node3 -->
<g id="edge13" class="edge">
<title>Node12&#45;&gt;Node3</title>
<path fill="none" stroke="midnightblue" d="M255.84,-179.37C222.96,-160.33 143.99,-114.62 104.33,-91.65"/>
<polygon fill="midnightblue" stroke="midnightblue" points="106,-88.57 95.59,-86.59 102.49,-94.63 106,-88.57"/>
</g>
<!-- Node12&#45;&gt;Node4 -->
<g id="edge15" class="edge">
<title>Node12&#45;&gt;Node4</title>
<path fill="none" stroke="midnightblue" d="M266.13,-179.08C262.29,-171.69 256.72,-160.95 251.98,-151.81"/>
<polygon fill="midnightblue" stroke="midnightblue" points="255,-150.02 247.29,-142.75 248.78,-153.24 255,-150.02"/>
</g>
<!-- Node12&#45;&gt;Node5 -->
<g id="edge16" class="edge">
<title>Node12&#45;&gt;Node5</title>
<path fill="none" stroke="midnightblue" d="M276.38,-179.14C283.63,-166.61 294.63,-142.99 288.75,-123 285.74,-112.76 279.59,-102.66 273.73,-94.63"/>
<polygon fill="midnightblue" stroke="midnightblue" points="276.33,-92.27 267.42,-86.54 270.82,-96.58 276.33,-92.27"/>
</g>
<!-- Node12&#45;&gt;Node10 -->
<g id="edge14" class="edge">
<title>Node12&#45;&gt;Node10</title>
<path fill="none" stroke="midnightblue" d="M277.81,-179.37C292.79,-161.05 327.98,-118.05 347.36,-94.36"/>
<polygon fill="midnightblue" stroke="midnightblue" points="350.1,-96.55 353.72,-86.59 344.68,-92.11 350.1,-96.55"/>
</g>
<!-- Node13&#45;&gt;Node3 -->
<g id="edge18" class="edge">
<title>Node13&#45;&gt;Node3</title>
<path fill="none" stroke="midnightblue" d="M69.48,-235.43C59.78,-227.27 46.47,-214.05 40.75,-199 26.8,-162.3 51.4,-118.34 67.82,-94.82"/>
<polygon fill="midnightblue" stroke="midnightblue" points="70.75,-96.74 73.81,-86.6 65.1,-92.62 70.75,-96.74"/>
</g>
<!-- Node14 -->
<g id="node14" class="node">
<title>Node14</title>
<g id="a_node14"><a xlink:href="Color_8hpp.html" target="_top" xlink:title=" ">
<polygon fill="white" stroke="black" points="49.75,-179.5 49.75,-198.5 111.75,-198.5 111.75,-179.5 49.75,-179.5"/>
<text text-anchor="middle" x="80.75" y="-186.5" font-family="Helvetica,sans-Serif" font-size="10.00">Color.hpp</text>
</a>
</g>
</g>
<!-- Node13&#45;&gt;Node14 -->
<g id="edge19" class="edge">
<title>Node13&#45;&gt;Node14</title>
<path fill="none" stroke="midnightblue" d="M80.75,-235.08C80.75,-228.01 80.75,-217.86 80.75,-208.99"/>
<polygon fill="midnightblue" stroke="midnightblue" points="84.25,-208.75 80.75,-198.75 77.25,-208.75 84.25,-208.75"/>
</g>
<!-- Node14&#45;&gt;Node3 -->
<g id="edge20" class="edge">
<title>Node14&#45;&gt;Node3</title>
<path fill="none" stroke="midnightblue" d="M80.75,-179.37C80.75,-161.62 80.75,-120.67 80.75,-96.6"/>
<polygon fill="midnightblue" stroke="midnightblue" points="84.25,-96.59 80.75,-86.59 77.25,-96.59 84.25,-96.59"/>
</g>
<!-- Node14&#45;&gt;Node4 -->
<g id="edge21" class="edge">
<title>Node14&#45;&gt;Node4</title>
<path fill="none" stroke="midnightblue" d="M106.42,-179.44C133.67,-170.36 176.93,-155.94 207.4,-145.78"/>
<polygon fill="midnightblue" stroke="midnightblue" points="208.82,-149 217.2,-142.52 206.61,-142.36 208.82,-149"/>
</g>
<!-- Node15&#45;&gt;Node3 -->
<g id="edge23" class="edge">
<title>Node15&#45;&gt;Node3</title>
<path fill="none" stroke="midnightblue" d="M230.25,-235.08C204.74,-208.27 128.52,-128.19 95.87,-93.89"/>
<polygon fill="midnightblue" stroke="midnightblue" points="98.33,-91.4 88.9,-86.57 93.26,-96.22 98.33,-91.4"/>
</g>
<!-- Node15&#45;&gt;Node12 -->
<g id="edge24" class="edge">
<title>Node15&#45;&gt;Node12</title>
<path fill="none" stroke="midnightblue" d="M244.03,-235.08C248.46,-227.61 254.91,-216.72 260.37,-207.52"/>
<polygon fill="midnightblue" stroke="midnightblue" points="263.48,-209.14 265.56,-198.75 257.45,-205.57 263.48,-209.14"/>
</g>
</g>
</svg>
