<?xml version="1.0" encoding="UTF-8" standalone="no"?>
<!DOCTYPE svg PUBLIC "-//W3C//DTD SVG 1.1//EN"
 "http://www.w3.org/Graphics/SVG/1.1/DTD/svg11.dtd">
<!-- Generated by graphviz version 2.43.0 (0)
 -->
<!-- Title: Libs/Engine/sources/Systems/PhysicsSystem/PhysicsSystem.hpp Pages: 1 -->
<svg width="989pt" height="397pt"
 viewBox="0.00 0.00 988.50 397.00" xmlns="http://www.w3.org/2000/svg" xmlns:xlink="http://www.w3.org/1999/xlink">
<g id="graph0" class="graph" transform="scale(1 1) rotate(0) translate(4 393)">
<title>Libs/Engine/sources/Systems/PhysicsSystem/PhysicsSystem.hpp</title>
<polygon fill="white" stroke="transparent" points="-4,4 -4,-393 984.5,-393 984.5,4 -4,4"/>
<!-- Node1 -->
<g id="node1" class="node">
<title>Node1</title>
<g id="a_node1"><a xlink:title=" ">
<polygon fill="#bfbfbf" stroke="black" points="388,-347.5 388,-388.5 526,-388.5 526,-347.5 388,-347.5"/>
<text text-anchor="start" x="396" y="-376.5" font-family="Helvetica,sans-Serif" font-size="10.00">Libs/Engine/sources</text>
<text text-anchor="start" x="396" y="-365.5" font-family="Helvetica,sans-Serif" font-size="10.00">/Systems/PhysicsSystem</text>
<text text-anchor="middle" x="457" y="-354.5" font-family="Helvetica,sans-Serif" font-size="10.00">/PhysicsSystem.hpp</text>
</a>
</g>
</g>
<!-- Node2 -->
<g id="node2" class="node">
<title>Node2</title>
<g id="a_node2"><a xlink:href="ASystem_8hpp.html" target="_top" xlink:title=" ">
<polygon fill="white" stroke="black" points="345.5,-291.5 345.5,-310.5 426.5,-310.5 426.5,-291.5 345.5,-291.5"/>
<text text-anchor="middle" x="386" y="-298.5" font-family="Helvetica,sans-Serif" font-size="10.00">ASystem.hpp</text>
</a>
</g>
</g>
<!-- Node1&#45;&gt;Node2 -->
<g id="edge1" class="edge">
<title>Node1&#45;&gt;Node2</title>
<path fill="none" stroke="midnightblue" d="M435.7,-347.5C425.23,-337.92 412.79,-326.53 402.98,-317.54"/>
<polygon fill="midnightblue" stroke="midnightblue" points="405.19,-314.82 395.45,-310.65 400.46,-319.99 405.19,-314.82"/>
</g>
<!-- Node5 -->
<g id="node5" class="node">
<title>Node5</title>
<g id="a_node5"><a xlink:href="Entity_8hpp.html" target="_top" xlink:title=" ">
<polygon fill="white" stroke="black" points="424.5,-235.5 424.5,-254.5 489.5,-254.5 489.5,-235.5 424.5,-235.5"/>
<text text-anchor="middle" x="457" y="-242.5" font-family="Helvetica,sans-Serif" font-size="10.00">Entity.hpp</text>
</a>
</g>
</g>
<!-- Node1&#45;&gt;Node5 -->
<g id="edge32" class="edge">
<title>Node1&#45;&gt;Node5</title>
<path fill="none" stroke="midnightblue" d="M457,-347.29C457,-324.48 457,-287.19 457,-264.78"/>
<polygon fill="midnightblue" stroke="midnightblue" points="460.5,-264.57 457,-254.57 453.5,-264.57 460.5,-264.57"/>
</g>
<!-- Node21 -->
<g id="node21" class="node">
<title>Node21</title>
<g id="a_node21"><a xlink:href="PhysicsBody_8hpp.html" target="_top" xlink:title=" ">
<polygon fill="white" stroke="black" points="727,-179.5 727,-198.5 825,-198.5 825,-179.5 727,-179.5"/>
<text text-anchor="middle" x="776" y="-186.5" font-family="Helvetica,sans-Serif" font-size="10.00">PhysicsBody.hpp</text>
</a>
</g>
</g>
<!-- Node1&#45;&gt;Node21 -->
<g id="edge33" class="edge">
<title>Node1&#45;&gt;Node21</title>
<path fill="none" stroke="midnightblue" d="M492.36,-347.38C557.68,-311.14 695.72,-234.55 751.67,-203.5"/>
<polygon fill="midnightblue" stroke="midnightblue" points="753.48,-206.5 760.53,-198.58 750.09,-200.38 753.48,-206.5"/>
</g>
<!-- Node3 -->
<g id="node3" class="node">
<title>Node3</title>
<g id="a_node3"><a xlink:title=" ">
<polygon fill="white" stroke="#bfbfbf" points="0,-123.5 0,-142.5 44,-142.5 44,-123.5 0,-123.5"/>
<text text-anchor="middle" x="22" y="-130.5" font-family="Helvetica,sans-Serif" font-size="10.00">string</text>
</a>
</g>
</g>
<!-- Node2&#45;&gt;Node3 -->
<g id="edge2" class="edge">
<title>Node2&#45;&gt;Node3</title>
<path fill="none" stroke="midnightblue" d="M366.69,-291.45C327.72,-274.18 236.9,-233.78 161,-199 122,-181.13 77.07,-160.03 49.1,-146.82"/>
<polygon fill="midnightblue" stroke="midnightblue" points="50.49,-143.61 39.95,-142.5 47.5,-149.94 50.49,-143.61"/>
</g>
<!-- Node4 -->
<g id="node4" class="node">
<title>Node4</title>
<g id="a_node4"><a xlink:title=" ">
<polygon fill="white" stroke="#bfbfbf" points="421.5,-123.5 421.5,-142.5 468.5,-142.5 468.5,-123.5 421.5,-123.5"/>
<text text-anchor="middle" x="445" y="-130.5" font-family="Helvetica,sans-Serif" font-size="10.00">vector</text>
</a>
</g>
</g>
<!-- Node2&#45;&gt;Node4 -->
<g id="edge3" class="edge">
<title>Node2&#45;&gt;Node4</title>
<path fill="none" stroke="midnightblue" d="M389.17,-291.08C398.5,-264.83 425.97,-187.55 438.56,-152.12"/>
<polygon fill="midnightblue" stroke="midnightblue" points="441.9,-153.16 441.95,-142.57 435.31,-150.82 441.9,-153.16"/>
</g>
<!-- Node2&#45;&gt;Node5 -->
<g id="edge4" class="edge">
<title>Node2&#45;&gt;Node5</title>
<path fill="none" stroke="midnightblue" d="M397.41,-291.32C408.11,-283.18 424.34,-270.84 437.16,-261.09"/>
<polygon fill="midnightblue" stroke="midnightblue" points="439.54,-263.67 445.39,-254.83 435.31,-258.1 439.54,-263.67"/>
</g>
<!-- Node5&#45;&gt;Node4 -->
<g id="edge9" class="edge">
<title>Node5&#45;&gt;Node4</title>
<path fill="none" stroke="midnightblue" d="M456.06,-235.37C454.12,-217.62 449.65,-176.67 447.03,-152.6"/>
<polygon fill="midnightblue" stroke="midnightblue" points="450.5,-152.15 445.94,-142.59 443.54,-152.91 450.5,-152.15"/>
</g>
<!-- Node6 -->
<g id="node6" class="node">
<title>Node6</title>
<g id="a_node6"><a xlink:title=" ">
<polygon fill="white" stroke="#bfbfbf" points="729,-123.5 729,-142.5 791,-142.5 791,-123.5 729,-123.5"/>
<text text-anchor="middle" x="760" y="-130.5" font-family="Helvetica,sans-Serif" font-size="10.00">cinttypes</text>
</a>
</g>
</g>
<!-- Node5&#45;&gt;Node6 -->
<g id="edge5" class="edge">
<title>Node5&#45;&gt;Node6</title>
<path fill="none" stroke="midnightblue" d="M489.73,-240.59C531.17,-235.43 604.13,-223.53 662,-199 692.18,-186.21 723.06,-163.89 741.88,-149.03"/>
<polygon fill="midnightblue" stroke="midnightblue" points="744.27,-151.6 749.87,-142.6 739.88,-146.14 744.27,-151.6"/>
</g>
<!-- Node7 -->
<g id="node7" class="node">
<title>Node7</title>
<g id="a_node7"><a xlink:title=" ">
<polygon fill="white" stroke="#bfbfbf" points="171.5,-123.5 171.5,-142.5 264.5,-142.5 264.5,-123.5 171.5,-123.5"/>
<text text-anchor="middle" x="218" y="-130.5" font-family="Helvetica,sans-Serif" font-size="10.00">unordered_map</text>
</a>
</g>
</g>
<!-- Node5&#45;&gt;Node7 -->
<g id="edge6" class="edge">
<title>Node5&#45;&gt;Node7</title>
<path fill="none" stroke="midnightblue" d="M424.38,-243.03C363.65,-240.47 236.95,-231.3 210,-199 199.22,-186.07 203.58,-166.36 209.18,-152.03"/>
<polygon fill="midnightblue" stroke="midnightblue" points="212.45,-153.28 213.28,-142.72 206.05,-150.46 212.45,-153.28"/>
</g>
<!-- Node8 -->
<g id="node8" class="node">
<title>Node8</title>
<g id="a_node8"><a xlink:title=" ">
<polygon fill="white" stroke="#bfbfbf" points="487,-123.5 487,-142.5 545,-142.5 545,-123.5 487,-123.5"/>
<text text-anchor="middle" x="516" y="-130.5" font-family="Helvetica,sans-Serif" font-size="10.00">memory</text>
</a>
</g>
</g>
<!-- Node5&#45;&gt;Node8 -->
<g id="edge7" class="edge">
<title>Node5&#45;&gt;Node8</title>
<path fill="none" stroke="midnightblue" d="M461.63,-235.37C471.28,-217.38 493.71,-175.55 506.55,-151.63"/>
<polygon fill="midnightblue" stroke="midnightblue" points="509.75,-153.06 511.39,-142.59 503.58,-149.75 509.75,-153.06"/>
</g>
<!-- Node9 -->
<g id="node9" class="node">
<title>Node9</title>
<g id="a_node9"><a xlink:title=" ">
<polygon fill="white" stroke="#bfbfbf" points="339,-123.5 339,-142.5 403,-142.5 403,-123.5 339,-123.5"/>
<text text-anchor="middle" x="371" y="-130.5" font-family="Helvetica,sans-Serif" font-size="10.00">algorithm</text>
</a>
</g>
</g>
<!-- Node5&#45;&gt;Node9 -->
<g id="edge8" class="edge">
<title>Node5&#45;&gt;Node9</title>
<path fill="none" stroke="midnightblue" d="M450.25,-235.37C436,-217.14 402.61,-174.43 384.04,-150.68"/>
<polygon fill="midnightblue" stroke="midnightblue" points="386.63,-148.31 377.72,-142.59 381.12,-152.63 386.63,-148.31"/>
</g>
<!-- Node10 -->
<g id="node10" class="node">
<title>Node10</title>
<g id="a_node10"><a xlink:title=" ">
<polygon fill="white" stroke="#bfbfbf" points="62.5,-123.5 62.5,-142.5 153.5,-142.5 153.5,-123.5 62.5,-123.5"/>
<text text-anchor="middle" x="108" y="-130.5" font-family="Helvetica,sans-Serif" font-size="10.00">Exceptions.hpp</text>
</a>
</g>
</g>
<!-- Node5&#45;&gt;Node10 -->
<g id="edge10" class="edge">
<title>Node5&#45;&gt;Node10</title>
<path fill="none" stroke="midnightblue" d="M424.48,-242.85C374.44,-240.1 276.33,-230.75 200,-199 170.98,-186.93 142.14,-164.4 124.69,-149.3"/>
<polygon fill="midnightblue" stroke="midnightblue" points="126.89,-146.57 117.09,-142.56 122.25,-151.81 126.89,-146.57"/>
</g>
<!-- Node11 -->
<g id="node11" class="node">
<title>Node11</title>
<g id="a_node11"><a xlink:href="ComponentManager_8hpp.html" target="_top" xlink:title=" ">
<polygon fill="white" stroke="black" points="219,-179.5 219,-198.5 355,-198.5 355,-179.5 219,-179.5"/>
<text text-anchor="middle" x="287" y="-186.5" font-family="Helvetica,sans-Serif" font-size="10.00">ComponentManager.hpp</text>
</a>
</g>
</g>
<!-- Node5&#45;&gt;Node11 -->
<g id="edge11" class="edge">
<title>Node5&#45;&gt;Node11</title>
<path fill="none" stroke="midnightblue" d="M430.06,-235.44C401.34,-226.32 355.67,-211.81 323.68,-201.65"/>
<polygon fill="midnightblue" stroke="midnightblue" points="324.4,-198.21 313.81,-198.52 322.28,-204.88 324.4,-198.21"/>
</g>
<!-- Node12 -->
<g id="node12" class="node">
<title>Node12</title>
<g id="a_node12"><a xlink:href="IComponent_8hpp.html" target="_top" xlink:title=" ">
<polygon fill="white" stroke="black" points="613.5,-123.5 613.5,-142.5 710.5,-142.5 710.5,-123.5 613.5,-123.5"/>
<text text-anchor="middle" x="662" y="-130.5" font-family="Helvetica,sans-Serif" font-size="10.00">IComponent.hpp</text>
</a>
</g>
</g>
<!-- Node5&#45;&gt;Node12 -->
<g id="edge31" class="edge">
<title>Node5&#45;&gt;Node12</title>
<path fill="none" stroke="midnightblue" d="M489.72,-239.96C536.76,-233.51 620.22,-219.51 642,-199 654.61,-187.12 659.34,-167.5 661.07,-152.91"/>
<polygon fill="midnightblue" stroke="midnightblue" points="664.59,-152.8 661.92,-142.54 657.62,-152.23 664.59,-152.8"/>
</g>
<!-- Node19 -->
<g id="node19" class="node">
<title>Node19</title>
<g id="a_node19"><a xlink:href="EntityManager_8hpp.html" target="_top" xlink:title=" ">
<polygon fill="white" stroke="black" points="525,-179.5 525,-198.5 633,-198.5 633,-179.5 525,-179.5"/>
<text text-anchor="middle" x="579" y="-186.5" font-family="Helvetica,sans-Serif" font-size="10.00">EntityManager.hpp</text>
</a>
</g>
</g>
<!-- Node5&#45;&gt;Node19 -->
<g id="edge26" class="edge">
<title>Node5&#45;&gt;Node19</title>
<path fill="none" stroke="midnightblue" d="M476.33,-235.44C496.32,-226.6 527.74,-212.69 550.56,-202.59"/>
<polygon fill="midnightblue" stroke="midnightblue" points="552.03,-205.76 559.76,-198.52 549.2,-199.36 552.03,-205.76"/>
</g>
<!-- Node11&#45;&gt;Node3 -->
<g id="edge13" class="edge">
<title>Node11&#45;&gt;Node3</title>
<path fill="none" stroke="midnightblue" d="M235.12,-179.44C189.74,-171.64 121.87,-159.2 54.26,-143.13"/>
<polygon fill="midnightblue" stroke="midnightblue" points="54.83,-139.67 44.29,-140.74 53.19,-146.48 54.83,-139.67"/>
</g>
<!-- Node11&#45;&gt;Node4 -->
<g id="edge14" class="edge">
<title>Node11&#45;&gt;Node4</title>
<path fill="none" stroke="midnightblue" d="M312.04,-179.44C339.01,-170.23 382.05,-155.51 411.83,-145.34"/>
<polygon fill="midnightblue" stroke="midnightblue" points="413.04,-148.62 421.37,-142.08 410.78,-142 413.04,-148.62"/>
</g>
<!-- Node11&#45;&gt;Node7 -->
<g id="edge12" class="edge">
<title>Node11&#45;&gt;Node7</title>
<path fill="none" stroke="midnightblue" d="M275.91,-179.32C265.51,-171.18 249.74,-158.84 237.28,-149.09"/>
<polygon fill="midnightblue" stroke="midnightblue" points="239.32,-146.24 229.29,-142.83 235.01,-151.75 239.32,-146.24"/>
</g>
<!-- Node11&#45;&gt;Node8 -->
<g id="edge15" class="edge">
<title>Node11&#45;&gt;Node8</title>
<path fill="none" stroke="midnightblue" d="M323.26,-179.47C359.66,-170.91 417.6,-157.26 477.02,-143.23"/>
<polygon fill="midnightblue" stroke="midnightblue" points="478.03,-146.59 486.95,-140.88 476.42,-139.78 478.03,-146.59"/>
</g>
<!-- Node11&#45;&gt;Node9 -->
<g id="edge16" class="edge">
<title>Node11&#45;&gt;Node9</title>
<path fill="none" stroke="midnightblue" d="M300.5,-179.32C313.6,-170.9 333.71,-157.97 349.11,-148.07"/>
<polygon fill="midnightblue" stroke="midnightblue" points="351.02,-151.01 357.54,-142.65 347.23,-145.12 351.02,-151.01"/>
</g>
<!-- Node11&#45;&gt;Node10 -->
<g id="edge17" class="edge">
<title>Node11&#45;&gt;Node10</title>
<path fill="none" stroke="midnightblue" d="M258.64,-179.44C228.26,-170.28 179.89,-155.69 146.18,-145.52"/>
<polygon fill="midnightblue" stroke="midnightblue" points="146.82,-142.05 136.23,-142.52 144.79,-148.76 146.82,-142.05"/>
</g>
<!-- Node11&#45;&gt;Node12 -->
<g id="edge18" class="edge">
<title>Node11&#45;&gt;Node12</title>
<path fill="none" stroke="midnightblue" d="M348.69,-179.48C410.42,-170.91 508.36,-157.15 603.22,-143.1"/>
<polygon fill="midnightblue" stroke="midnightblue" points="603.89,-146.54 613.27,-141.61 602.87,-139.61 603.89,-146.54"/>
</g>
<!-- Node18 -->
<g id="node18" class="node">
<title>Node18</title>
<g id="a_node18"><a xlink:title=" ">
<polygon fill="white" stroke="#bfbfbf" points="283,-123.5 283,-142.5 321,-142.5 321,-123.5 283,-123.5"/>
<text text-anchor="middle" x="302" y="-130.5" font-family="Helvetica,sans-Serif" font-size="10.00">map</text>
</a>
</g>
</g>
<!-- Node11&#45;&gt;Node18 -->
<g id="edge25" class="edge">
<title>Node11&#45;&gt;Node18</title>
<path fill="none" stroke="midnightblue" d="M289.48,-179.08C291.49,-171.85 294.39,-161.41 296.89,-152.4"/>
<polygon fill="midnightblue" stroke="midnightblue" points="300.26,-153.32 299.57,-142.75 293.52,-151.45 300.26,-153.32"/>
</g>
<!-- Node13 -->
<g id="node13" class="node">
<title>Node13</title>
<g id="a_node13"><a xlink:title=" ">
<polygon fill="white" stroke="#bfbfbf" points="578.5,-6 578.5,-25 635.5,-25 635.5,-6 578.5,-6"/>
<text text-anchor="middle" x="607" y="-13" font-family="Helvetica,sans-Serif" font-size="10.00">ostream</text>
</a>
</g>
</g>
<!-- Node12&#45;&gt;Node13 -->
<g id="edge19" class="edge">
<title>Node12&#45;&gt;Node13</title>
<path fill="none" stroke="midnightblue" d="M657.87,-123.32C648.91,-104.51 627.55,-59.65 615.55,-34.46"/>
<polygon fill="midnightblue" stroke="midnightblue" points="618.64,-32.81 611.18,-25.28 612.32,-35.82 618.64,-32.81"/>
</g>
<!-- Node14 -->
<g id="node14" class="node">
<title>Node14</title>
<g id="a_node14"><a xlink:href="IXMLSerializable_8hpp.html" target="_top" xlink:title=" ">
<polygon fill="white" stroke="black" points="650.5,-67.5 650.5,-86.5 769.5,-86.5 769.5,-67.5 650.5,-67.5"/>
<text text-anchor="middle" x="710" y="-74.5" font-family="Helvetica,sans-Serif" font-size="10.00">IXMLSerializable.hpp</text>
</a>
</g>
</g>
<!-- Node12&#45;&gt;Node14 -->
<g id="edge20" class="edge">
<title>Node12&#45;&gt;Node14</title>
<path fill="none" stroke="midnightblue" d="M669.93,-123.08C676.85,-115.3 687.07,-103.8 695.45,-94.37"/>
<polygon fill="midnightblue" stroke="midnightblue" points="698.19,-96.55 702.22,-86.75 692.96,-91.9 698.19,-96.55"/>
</g>
<!-- Node14&#45;&gt;Node13 -->
<g id="edge21" class="edge">
<title>Node14&#45;&gt;Node13</title>
<path fill="none" stroke="midnightblue" d="M695.24,-67.48C678.34,-57.71 650.42,-41.58 630.51,-30.08"/>
<polygon fill="midnightblue" stroke="midnightblue" points="632.14,-26.98 621.73,-25.01 628.64,-33.04 632.14,-26.98"/>
</g>
<!-- Node15 -->
<g id="node15" class="node">
<title>Node15</title>
<g id="a_node15"><a xlink:title=" ">
<polygon fill="white" stroke="#bfbfbf" points="785,-6 785,-25 845,-25 845,-6 785,-6"/>
<text text-anchor="middle" x="815" y="-13" font-family="Helvetica,sans-Serif" font-size="10.00">iostream</text>
</a>
</g>
</g>
<!-- Node14&#45;&gt;Node15 -->
<g id="edge22" class="edge">
<title>Node14&#45;&gt;Node15</title>
<path fill="none" stroke="midnightblue" d="M725.04,-67.48C742.28,-57.71 770.74,-41.58 791.03,-30.08"/>
<polygon fill="midnightblue" stroke="midnightblue" points="793.01,-32.98 799.98,-25.01 789.56,-26.89 793.01,-32.98"/>
</g>
<!-- Node16 -->
<g id="node16" class="node">
<title>Node16</title>
<g id="a_node16"><a xlink:title=" ">
<polygon fill="white" stroke="#bfbfbf" points="863.5,-0.5 863.5,-30.5 976.5,-30.5 976.5,-0.5 863.5,-0.5"/>
<text text-anchor="start" x="871.5" y="-18.5" font-family="Helvetica,sans-Serif" font-size="10.00">boost/property_tree</text>
<text text-anchor="middle" x="920" y="-7.5" font-family="Helvetica,sans-Serif" font-size="10.00">/ptree.hpp</text>
</a>
</g>
</g>
<!-- Node14&#45;&gt;Node16 -->
<g id="edge23" class="edge">
<title>Node14&#45;&gt;Node16</title>
<path fill="none" stroke="midnightblue" d="M740.09,-67.48C771.45,-58.59 821.43,-44.43 860.76,-33.29"/>
<polygon fill="midnightblue" stroke="midnightblue" points="861.84,-36.62 870.51,-30.52 859.93,-29.88 861.84,-36.62"/>
</g>
<!-- Node17 -->
<g id="node17" class="node">
<title>Node17</title>
<g id="a_node17"><a xlink:title=" ">
<polygon fill="white" stroke="#bfbfbf" points="653.5,-0.5 653.5,-30.5 766.5,-30.5 766.5,-0.5 653.5,-0.5"/>
<text text-anchor="start" x="661.5" y="-18.5" font-family="Helvetica,sans-Serif" font-size="10.00">boost/property_tree</text>
<text text-anchor="middle" x="710" y="-7.5" font-family="Helvetica,sans-Serif" font-size="10.00">/xml_parser.hpp</text>
</a>
</g>
</g>
<!-- Node14&#45;&gt;Node17 -->
<g id="edge24" class="edge">
<title>Node14&#45;&gt;Node17</title>
<path fill="none" stroke="midnightblue" d="M710,-67.48C710,-60.47 710,-50.19 710,-40.7"/>
<polygon fill="midnightblue" stroke="midnightblue" points="713.5,-40.52 710,-30.52 706.5,-40.52 713.5,-40.52"/>
</g>
<!-- Node19&#45;&gt;Node4 -->
<g id="edge27" class="edge">
<title>Node19&#45;&gt;Node4</title>
<path fill="none" stroke="midnightblue" d="M557.77,-179.44C535.62,-170.52 500.68,-156.44 475.56,-146.32"/>
<polygon fill="midnightblue" stroke="midnightblue" points="476.72,-143.01 466.13,-142.52 474.1,-149.5 476.72,-143.01"/>
</g>
<!-- Node19&#45;&gt;Node6 -->
<g id="edge28" class="edge">
<title>Node19&#45;&gt;Node6</title>
<path fill="none" stroke="midnightblue" d="M607.68,-179.44C638.53,-170.24 687.73,-155.56 721.83,-145.39"/>
<polygon fill="midnightblue" stroke="midnightblue" points="722.87,-148.73 731.45,-142.52 720.87,-142.02 722.87,-148.73"/>
</g>
<!-- Node19&#45;&gt;Node8 -->
<g id="edge29" class="edge">
<title>Node19&#45;&gt;Node8</title>
<path fill="none" stroke="midnightblue" d="M568.88,-179.32C559.47,-171.26 545.26,-159.08 533.93,-149.37"/>
<polygon fill="midnightblue" stroke="midnightblue" points="536.18,-146.68 526.31,-142.83 531.62,-152 536.18,-146.68"/>
</g>
<!-- Node20 -->
<g id="node20" class="node">
<title>Node20</title>
<g id="a_node20"><a xlink:title=" ">
<polygon fill="white" stroke="#bfbfbf" points="563,-123.5 563,-142.5 595,-142.5 595,-123.5 563,-123.5"/>
<text text-anchor="middle" x="579" y="-130.5" font-family="Helvetica,sans-Serif" font-size="10.00">list</text>
</a>
</g>
</g>
<!-- Node19&#45;&gt;Node20 -->
<g id="edge30" class="edge">
<title>Node19&#45;&gt;Node20</title>
<path fill="none" stroke="midnightblue" d="M579,-179.08C579,-172.01 579,-161.86 579,-152.99"/>
<polygon fill="midnightblue" stroke="midnightblue" points="582.5,-152.75 579,-142.75 575.5,-152.75 582.5,-152.75"/>
</g>
<!-- Node21&#45;&gt;Node6 -->
<g id="edge34" class="edge">
<title>Node21&#45;&gt;Node6</title>
<path fill="none" stroke="midnightblue" d="M773.36,-179.08C771.21,-171.85 768.12,-161.41 765.45,-152.4"/>
<polygon fill="midnightblue" stroke="midnightblue" points="768.79,-151.34 762.59,-142.75 762.08,-153.33 768.79,-151.34"/>
</g>
<!-- Node21&#45;&gt;Node12 -->
<g id="edge35" class="edge">
<title>Node21&#45;&gt;Node12</title>
<path fill="none" stroke="midnightblue" d="M757.94,-179.44C739.43,-170.68 710.42,-156.94 689.14,-146.86"/>
<polygon fill="midnightblue" stroke="midnightblue" points="690.51,-143.63 679.98,-142.52 687.52,-149.96 690.51,-143.63"/>
</g>
<!-- Node21&#45;&gt;Node21 -->
<g id="edge41" class="edge">
<title>Node21&#45;&gt;Node21</title>
<path fill="none" stroke="midnightblue" d="M804.58,-198.53C823.99,-201.31 843,-198.13 843,-189 843,-181.51 830.21,-178.03 814.89,-178.55"/>
<polygon fill="midnightblue" stroke="midnightblue" points="814.22,-175.1 804.58,-179.47 814.85,-182.07 814.22,-175.1"/>
</g>
<!-- Node22 -->
<g id="node22" class="node">
<title>Node22</title>
<g id="a_node22"><a xlink:href="Vector3_8hpp.html" target="_top" xlink:title=" ">
<polygon fill="white" stroke="black" points="809,-123.5 809,-142.5 883,-142.5 883,-123.5 809,-123.5"/>
<text text-anchor="middle" x="846" y="-130.5" font-family="Helvetica,sans-Serif" font-size="10.00">Vector3.hpp</text>
</a>
</g>
</g>
<!-- Node21&#45;&gt;Node22 -->
<g id="edge36" class="edge">
<title>Node21&#45;&gt;Node22</title>
<path fill="none" stroke="midnightblue" d="M787.25,-179.32C797.8,-171.18 813.8,-158.84 826.44,-149.09"/>
<polygon fill="midnightblue" stroke="midnightblue" points="828.77,-151.71 834.55,-142.83 824.49,-146.17 828.77,-151.71"/>
</g>
<!-- Node22&#45;&gt;Node14 -->
<g id="edge38" class="edge">
<title>Node22&#45;&gt;Node14</title>
<path fill="none" stroke="midnightblue" d="M824.45,-123.44C801.97,-114.52 766.51,-100.44 741.02,-90.32"/>
<polygon fill="midnightblue" stroke="midnightblue" points="742.03,-86.95 731.45,-86.52 739.45,-93.46 742.03,-86.95"/>
</g>
<!-- Node23 -->
<g id="node23" class="node">
<title>Node23</title>
<g id="a_node23"><a xlink:title=" ">
<polygon fill="white" stroke="#bfbfbf" points="927.5,-67.5 927.5,-86.5 980.5,-86.5 980.5,-67.5 927.5,-67.5"/>
<text text-anchor="middle" x="954" y="-74.5" font-family="Helvetica,sans-Serif" font-size="10.00">raylib.h</text>
</a>
</g>
</g>
<!-- Node22&#45;&gt;Node23 -->
<g id="edge37" class="edge">
<title>Node22&#45;&gt;Node23</title>
<path fill="none" stroke="midnightblue" d="M863.35,-123.32C880.67,-114.66 907.52,-101.24 927.5,-91.25"/>
<polygon fill="midnightblue" stroke="midnightblue" points="929.31,-94.26 936.69,-86.65 926.18,-88 929.31,-94.26"/>
</g>
<!-- Node24 -->
<g id="node24" class="node">
<title>Node24</title>
<g id="a_node24"><a xlink:title=" ">
<polygon fill="white" stroke="#bfbfbf" points="787.5,-67.5 787.5,-86.5 834.5,-86.5 834.5,-67.5 787.5,-67.5"/>
<text text-anchor="middle" x="811" y="-74.5" font-family="Helvetica,sans-Serif" font-size="10.00">cmath</text>
</a>
</g>
</g>
<!-- Node22&#45;&gt;Node24 -->
<g id="edge39" class="edge">
<title>Node22&#45;&gt;Node24</title>
<path fill="none" stroke="midnightblue" d="M840.22,-123.08C835.33,-115.53 828.17,-104.49 822.17,-95.23"/>
<polygon fill="midnightblue" stroke="midnightblue" points="825.05,-93.24 816.67,-86.75 819.17,-97.05 825.05,-93.24"/>
</g>
<!-- Node25 -->
<g id="node25" class="node">
<title>Node25</title>
<g id="a_node25"><a xlink:title=" ">
<polygon fill="white" stroke="#bfbfbf" points="853,-67.5 853,-86.5 909,-86.5 909,-67.5 853,-67.5"/>
<text text-anchor="middle" x="881" y="-74.5" font-family="Helvetica,sans-Serif" font-size="10.00">sstream</text>
</a>
</g>
</g>
<!-- Node22&#45;&gt;Node25 -->
<g id="edge40" class="edge">
<title>Node22&#45;&gt;Node25</title>
<path fill="none" stroke="midnightblue" d="M851.78,-123.08C856.67,-115.53 863.83,-104.49 869.83,-95.23"/>
<polygon fill="midnightblue" stroke="midnightblue" points="872.83,-97.05 875.33,-86.75 866.95,-93.24 872.83,-97.05"/>
</g>
</g>
</svg>
