<?xml version="1.0" encoding="UTF-8" standalone="no"?>
<!DOCTYPE svg PUBLIC "-//W3C//DTD SVG 1.1//EN"
 "http://www.w3.org/Graphics/SVG/1.1/DTD/svg11.dtd">
<!-- Generated by graphviz version 2.43.0 (0)
 -->
<!-- Title: Libs/RayLib/sources/Physics2D/Physics2D.hpp Pages: 1 -->
<svg width="507pt" height="330pt"
 viewBox="0.00 0.00 506.70 330.00" xmlns="http://www.w3.org/2000/svg" xmlns:xlink="http://www.w3.org/1999/xlink">
<g id="graph0" class="graph" transform="scale(1 1) rotate(0) translate(4 326)">
<title>Libs/RayLib/sources/Physics2D/Physics2D.hpp</title>
<polygon fill="white" stroke="transparent" points="-4,4 -4,-326 502.7,-326 502.7,4 -4,4"/>
<!-- Node1 -->
<g id="node1" class="node">
<title>Node1</title>
<g id="a_node1"><a xlink:title=" ">
<polygon fill="#bfbfbf" stroke="black" points="105.2,-291.5 105.2,-321.5 249.2,-321.5 249.2,-291.5 105.2,-291.5"/>
<text text-anchor="start" x="113.2" y="-309.5" font-family="Helvetica,sans-Serif" font-size="10.00">Libs/RayLib/sources</text>
<text text-anchor="middle" x="177.2" y="-298.5" font-family="Helvetica,sans-Serif" font-size="10.00">/Physics2D/Physics2D.hpp</text>
</a>
</g>
</g>
<!-- Node2 -->
<g id="node2" class="node">
<title>Node2</title>
<g id="a_node2"><a xlink:title=" ">
<polygon fill="white" stroke="#bfbfbf" points="53.7,-67.5 53.7,-86.5 106.7,-86.5 106.7,-67.5 53.7,-67.5"/>
<text text-anchor="middle" x="80.2" y="-74.5" font-family="Helvetica,sans-Serif" font-size="10.00">raylib.h</text>
</a>
</g>
</g>
<!-- Node1&#45;&gt;Node2 -->
<g id="edge1" class="edge">
<title>Node1&#45;&gt;Node2</title>
<path fill="none" stroke="midnightblue" d="M104.95,-298.96C76.23,-292.41 45.87,-279.64 28.2,-255 13.31,-234.22 -31.42,-278.91 38.2,-123 43.29,-111.61 52.47,-101.26 60.95,-93.36"/>
<polygon fill="midnightblue" stroke="midnightblue" points="63.48,-95.79 68.71,-86.58 58.87,-90.52 63.48,-95.79"/>
</g>
<!-- Node3 -->
<g id="node3" class="node">
<title>Node3</title>
<g id="a_node3"><a xlink:href="Vector3_8hpp.html" target="_top" xlink:title=" ">
<polygon fill="white" stroke="black" points="205.2,-123.5 205.2,-142.5 279.2,-142.5 279.2,-123.5 205.2,-123.5"/>
<text text-anchor="middle" x="242.2" y="-130.5" font-family="Helvetica,sans-Serif" font-size="10.00">Vector3.hpp</text>
</a>
</g>
</g>
<!-- Node1&#45;&gt;Node3 -->
<g id="edge2" class="edge">
<title>Node1&#45;&gt;Node3</title>
<path fill="none" stroke="midnightblue" d="M180.61,-291.27C184.19,-276.89 190.27,-254.14 197.2,-235 208.01,-205.19 223.61,-171.79 233.32,-151.85"/>
<polygon fill="midnightblue" stroke="midnightblue" points="236.52,-153.26 237.8,-142.74 230.24,-150.17 236.52,-153.26"/>
</g>
<!-- Node11 -->
<g id="node11" class="node">
<title>Node11</title>
<g id="a_node11"><a xlink:href="Vector2_8hpp.html" target="_top" xlink:title=" ">
<polygon fill="white" stroke="black" points="233.2,-179.5 233.2,-198.5 307.2,-198.5 307.2,-179.5 233.2,-179.5"/>
<text text-anchor="middle" x="270.2" y="-186.5" font-family="Helvetica,sans-Serif" font-size="10.00">Vector2.hpp</text>
</a>
</g>
</g>
<!-- Node1&#45;&gt;Node11 -->
<g id="edge11" class="edge">
<title>Node1&#45;&gt;Node11</title>
<path fill="none" stroke="midnightblue" d="M232.24,-291.49C250.74,-283.87 269.4,-272.32 280.2,-255 288.96,-240.95 284.59,-221.96 279.15,-208.13"/>
<polygon fill="midnightblue" stroke="midnightblue" points="282.24,-206.46 274.98,-198.73 275.84,-209.29 282.24,-206.46"/>
</g>
<!-- Node12 -->
<g id="node12" class="node">
<title>Node12</title>
<g id="a_node12"><a xlink:href="Rectangle_8hpp.html" target="_top" xlink:title=" ">
<polygon fill="white" stroke="black" points="37.2,-235.5 37.2,-254.5 123.2,-254.5 123.2,-235.5 37.2,-235.5"/>
<text text-anchor="middle" x="80.2" y="-242.5" font-family="Helvetica,sans-Serif" font-size="10.00">Rectangle.hpp</text>
</a>
</g>
</g>
<!-- Node1&#45;&gt;Node12 -->
<g id="edge16" class="edge">
<title>Node1&#45;&gt;Node12</title>
<path fill="none" stroke="midnightblue" d="M154.22,-291.4C138.81,-281.95 118.61,-269.56 103.21,-260.11"/>
<polygon fill="midnightblue" stroke="midnightblue" points="104.67,-256.9 94.32,-254.66 101.01,-262.87 104.67,-256.9"/>
</g>
<!-- Node14 -->
<g id="node14" class="node">
<title>Node14</title>
<g id="a_node14"><a xlink:href="Circle_8hpp.html" target="_top" xlink:title=" ">
<polygon fill="white" stroke="black" points="205.7,-235.5 205.7,-254.5 270.7,-254.5 270.7,-235.5 205.7,-235.5"/>
<text text-anchor="middle" x="238.2" y="-242.5" font-family="Helvetica,sans-Serif" font-size="10.00">Circle.hpp</text>
</a>
</g>
</g>
<!-- Node1&#45;&gt;Node14 -->
<g id="edge21" class="edge">
<title>Node1&#45;&gt;Node14</title>
<path fill="none" stroke="midnightblue" d="M191.66,-291.4C200.8,-282.49 212.62,-270.95 222.07,-261.74"/>
<polygon fill="midnightblue" stroke="midnightblue" points="224.61,-264.15 229.33,-254.66 219.73,-259.13 224.61,-264.15"/>
</g>
<!-- Node3&#45;&gt;Node2 -->
<g id="edge3" class="edge">
<title>Node3&#45;&gt;Node2</title>
<path fill="none" stroke="midnightblue" d="M216.54,-123.44C189.28,-114.36 146.02,-99.94 115.55,-89.78"/>
<polygon fill="midnightblue" stroke="midnightblue" points="116.35,-86.36 105.75,-86.52 114.13,-93 116.35,-86.36"/>
</g>
<!-- Node4 -->
<g id="node4" class="node">
<title>Node4</title>
<g id="a_node4"><a xlink:href="IXMLSerializable_8hpp.html" target="_top" xlink:title=" ">
<polygon fill="white" stroke="black" points="199.7,-67.5 199.7,-86.5 318.7,-86.5 318.7,-67.5 199.7,-67.5"/>
<text text-anchor="middle" x="259.2" y="-74.5" font-family="Helvetica,sans-Serif" font-size="10.00">IXMLSerializable.hpp</text>
</a>
</g>
</g>
<!-- Node3&#45;&gt;Node4 -->
<g id="edge4" class="edge">
<title>Node3&#45;&gt;Node4</title>
<path fill="none" stroke="midnightblue" d="M245.01,-123.08C247.29,-115.85 250.58,-105.41 253.41,-96.4"/>
<polygon fill="midnightblue" stroke="midnightblue" points="256.78,-97.34 256.45,-86.75 250.11,-95.24 256.78,-97.34"/>
</g>
<!-- Node9 -->
<g id="node9" class="node">
<title>Node9</title>
<g id="a_node9"><a xlink:title=" ">
<polygon fill="white" stroke="#bfbfbf" points="336.7,-67.5 336.7,-86.5 383.7,-86.5 383.7,-67.5 336.7,-67.5"/>
<text text-anchor="middle" x="360.2" y="-74.5" font-family="Helvetica,sans-Serif" font-size="10.00">cmath</text>
</a>
</g>
</g>
<!-- Node3&#45;&gt;Node9 -->
<g id="edge9" class="edge">
<title>Node3&#45;&gt;Node9</title>
<path fill="none" stroke="midnightblue" d="M260.9,-123.44C280.15,-114.64 310.36,-100.81 332.4,-90.72"/>
<polygon fill="midnightblue" stroke="midnightblue" points="333.96,-93.86 341.59,-86.52 331.04,-87.5 333.96,-93.86"/>
</g>
<!-- Node10 -->
<g id="node10" class="node">
<title>Node10</title>
<g id="a_node10"><a xlink:title=" ">
<polygon fill="white" stroke="#bfbfbf" points="125.2,-67.5 125.2,-86.5 181.2,-86.5 181.2,-67.5 125.2,-67.5"/>
<text text-anchor="middle" x="153.2" y="-74.5" font-family="Helvetica,sans-Serif" font-size="10.00">sstream</text>
</a>
</g>
</g>
<!-- Node3&#45;&gt;Node10 -->
<g id="edge10" class="edge">
<title>Node3&#45;&gt;Node10</title>
<path fill="none" stroke="midnightblue" d="M227.91,-123.32C214.02,-114.9 192.71,-101.97 176.4,-92.07"/>
<polygon fill="midnightblue" stroke="midnightblue" points="177.83,-88.85 167.47,-86.65 174.2,-94.83 177.83,-88.85"/>
</g>
<!-- Node5 -->
<g id="node5" class="node">
<title>Node5</title>
<g id="a_node5"><a xlink:title=" ">
<polygon fill="white" stroke="#bfbfbf" points="100.7,-6 100.7,-25 157.7,-25 157.7,-6 100.7,-6"/>
<text text-anchor="middle" x="129.2" y="-13" font-family="Helvetica,sans-Serif" font-size="10.00">ostream</text>
</a>
</g>
</g>
<!-- Node4&#45;&gt;Node5 -->
<g id="edge5" class="edge">
<title>Node4&#45;&gt;Node5</title>
<path fill="none" stroke="midnightblue" d="M240.58,-67.48C218.76,-57.49 182.4,-40.85 157.19,-29.31"/>
<polygon fill="midnightblue" stroke="midnightblue" points="158.35,-25.99 147.8,-25.01 155.43,-32.35 158.35,-25.99"/>
</g>
<!-- Node6 -->
<g id="node6" class="node">
<title>Node6</title>
<g id="a_node6"><a xlink:title=" ">
<polygon fill="white" stroke="#bfbfbf" points="176.2,-6 176.2,-25 236.2,-25 236.2,-6 176.2,-6"/>
<text text-anchor="middle" x="206.2" y="-13" font-family="Helvetica,sans-Serif" font-size="10.00">iostream</text>
</a>
</g>
</g>
<!-- Node4&#45;&gt;Node6 -->
<g id="edge6" class="edge">
<title>Node4&#45;&gt;Node6</title>
<path fill="none" stroke="midnightblue" d="M251.61,-67.48C243.5,-58.37 230.47,-43.74 220.44,-32.48"/>
<polygon fill="midnightblue" stroke="midnightblue" points="223.05,-30.15 213.78,-25.01 217.82,-34.8 223.05,-30.15"/>
</g>
<!-- Node7 -->
<g id="node7" class="node">
<title>Node7</title>
<g id="a_node7"><a xlink:title=" ">
<polygon fill="white" stroke="#bfbfbf" points="254.7,-0.5 254.7,-30.5 367.7,-30.5 367.7,-0.5 254.7,-0.5"/>
<text text-anchor="start" x="262.7" y="-18.5" font-family="Helvetica,sans-Serif" font-size="10.00">boost/property_tree</text>
<text text-anchor="middle" x="311.2" y="-7.5" font-family="Helvetica,sans-Serif" font-size="10.00">/ptree.hpp</text>
</a>
</g>
</g>
<!-- Node4&#45;&gt;Node7 -->
<g id="edge7" class="edge">
<title>Node4&#45;&gt;Node7</title>
<path fill="none" stroke="midnightblue" d="M266.65,-67.48C273.3,-59.87 283.33,-48.4 292.18,-38.26"/>
<polygon fill="midnightblue" stroke="midnightblue" points="295,-40.36 298.95,-30.52 289.73,-35.75 295,-40.36"/>
</g>
<!-- Node8 -->
<g id="node8" class="node">
<title>Node8</title>
<g id="a_node8"><a xlink:title=" ">
<polygon fill="white" stroke="#bfbfbf" points="385.7,-0.5 385.7,-30.5 498.7,-30.5 498.7,-0.5 385.7,-0.5"/>
<text text-anchor="start" x="393.7" y="-18.5" font-family="Helvetica,sans-Serif" font-size="10.00">boost/property_tree</text>
<text text-anchor="middle" x="442.2" y="-7.5" font-family="Helvetica,sans-Serif" font-size="10.00">/xml_parser.hpp</text>
</a>
</g>
</g>
<!-- Node4&#45;&gt;Node8 -->
<g id="edge8" class="edge">
<title>Node4&#45;&gt;Node8</title>
<path fill="none" stroke="midnightblue" d="M285.42,-67.48C312.41,-58.7 355.2,-44.79 389.27,-33.71"/>
<polygon fill="midnightblue" stroke="midnightblue" points="390.65,-36.94 399.07,-30.52 388.48,-30.29 390.65,-36.94"/>
</g>
<!-- Node11&#45;&gt;Node2 -->
<g id="edge12" class="edge">
<title>Node11&#45;&gt;Node2</title>
<path fill="none" stroke="midnightblue" d="M255.3,-179.37C222.41,-160.33 143.45,-114.62 103.78,-91.65"/>
<polygon fill="midnightblue" stroke="midnightblue" points="105.45,-88.57 95.04,-86.59 101.94,-94.63 105.45,-88.57"/>
</g>
<!-- Node11&#45;&gt;Node3 -->
<g id="edge14" class="edge">
<title>Node11&#45;&gt;Node3</title>
<path fill="none" stroke="midnightblue" d="M265.58,-179.08C261.75,-171.69 256.18,-160.95 251.44,-151.81"/>
<polygon fill="midnightblue" stroke="midnightblue" points="254.45,-150.02 246.74,-142.75 248.24,-153.24 254.45,-150.02"/>
</g>
<!-- Node11&#45;&gt;Node4 -->
<g id="edge15" class="edge">
<title>Node11&#45;&gt;Node4</title>
<path fill="none" stroke="midnightblue" d="M275.84,-179.14C283.09,-166.61 294.09,-142.99 288.2,-123 285.19,-112.76 279.05,-102.66 273.19,-94.63"/>
<polygon fill="midnightblue" stroke="midnightblue" points="275.79,-92.27 266.88,-86.54 270.27,-96.58 275.79,-92.27"/>
</g>
<!-- Node11&#45;&gt;Node9 -->
<g id="edge13" class="edge">
<title>Node11&#45;&gt;Node9</title>
<path fill="none" stroke="midnightblue" d="M277.27,-179.37C292.25,-161.05 327.44,-118.05 346.82,-94.36"/>
<polygon fill="midnightblue" stroke="midnightblue" points="349.55,-96.55 353.18,-86.59 344.13,-92.11 349.55,-96.55"/>
</g>
<!-- Node12&#45;&gt;Node2 -->
<g id="edge17" class="edge">
<title>Node12&#45;&gt;Node2</title>
<path fill="none" stroke="midnightblue" d="M68.94,-235.43C59.24,-227.27 45.93,-214.05 40.2,-199 26.25,-162.3 50.86,-118.34 67.28,-94.82"/>
<polygon fill="midnightblue" stroke="midnightblue" points="70.21,-96.74 73.27,-86.6 64.55,-92.62 70.21,-96.74"/>
</g>
<!-- Node13 -->
<g id="node13" class="node">
<title>Node13</title>
<g id="a_node13"><a xlink:href="Color_8hpp.html" target="_top" xlink:title=" ">
<polygon fill="white" stroke="black" points="49.2,-179.5 49.2,-198.5 111.2,-198.5 111.2,-179.5 49.2,-179.5"/>
<text text-anchor="middle" x="80.2" y="-186.5" font-family="Helvetica,sans-Serif" font-size="10.00">Color.hpp</text>
</a>
</g>
</g>
<!-- Node12&#45;&gt;Node13 -->
<g id="edge18" class="edge">
<title>Node12&#45;&gt;Node13</title>
<path fill="none" stroke="midnightblue" d="M80.2,-235.08C80.2,-228.01 80.2,-217.86 80.2,-208.99"/>
<polygon fill="midnightblue" stroke="midnightblue" points="83.7,-208.75 80.2,-198.75 76.7,-208.75 83.7,-208.75"/>
</g>
<!-- Node13&#45;&gt;Node2 -->
<g id="edge19" class="edge">
<title>Node13&#45;&gt;Node2</title>
<path fill="none" stroke="midnightblue" d="M80.2,-179.37C80.2,-161.62 80.2,-120.67 80.2,-96.6"/>
<polygon fill="midnightblue" stroke="midnightblue" points="83.7,-96.59 80.2,-86.59 76.7,-96.59 83.7,-96.59"/>
</g>
<!-- Node13&#45;&gt;Node3 -->
<g id="edge20" class="edge">
<title>Node13&#45;&gt;Node3</title>
<path fill="none" stroke="midnightblue" d="M105.87,-179.44C133.13,-170.36 176.39,-155.94 206.85,-145.78"/>
<polygon fill="midnightblue" stroke="midnightblue" points="208.28,-149 216.66,-142.52 206.06,-142.36 208.28,-149"/>
</g>
<!-- Node14&#45;&gt;Node2 -->
<g id="edge22" class="edge">
<title>Node14&#45;&gt;Node2</title>
<path fill="none" stroke="midnightblue" d="M229.71,-235.08C204.19,-208.27 127.98,-128.19 95.32,-93.89"/>
<polygon fill="midnightblue" stroke="midnightblue" points="97.79,-91.4 88.36,-86.57 92.72,-96.22 97.79,-91.4"/>
</g>
<!-- Node14&#45;&gt;Node11 -->
<g id="edge23" class="edge">
<title>Node14&#45;&gt;Node11</title>
<path fill="none" stroke="midnightblue" d="M243.49,-235.08C247.92,-227.61 254.37,-216.72 259.82,-207.52"/>
<polygon fill="midnightblue" stroke="midnightblue" points="262.93,-209.14 265.02,-198.75 256.91,-205.57 262.93,-209.14"/>
</g>
</g>
</svg>
