<?xml version="1.0" encoding="UTF-8" standalone="no"?>
<!DOCTYPE svg PUBLIC "-//W3C//DTD SVG 1.1//EN"
 "http://www.w3.org/Graphics/SVG/1.1/DTD/svg11.dtd">
<!-- Generated by graphviz version 2.43.0 (0)
 -->
<!-- Title: Libs/Engine/sources/Systems/PhysicsSystem/PhysicsSystem.hpp Pages: 1 -->
<svg width="1303pt" height="206pt"
 viewBox="0.00 0.00 1303.21 206.00" xmlns="http://www.w3.org/2000/svg" xmlns:xlink="http://www.w3.org/1999/xlink">
<g id="graph0" class="graph" transform="scale(1 1) rotate(0) translate(4 202)">
<title>Libs/Engine/sources/Systems/PhysicsSystem/PhysicsSystem.hpp</title>
<polygon fill="white" stroke="transparent" points="-4,4 -4,-202 1299.21,-202 1299.21,4 -4,4"/>
<!-- Node1 -->
<g id="node1" class="node">
<title>Node1</title>
<g id="a_node1"><a xlink:title=" ">
<polygon fill="#bfbfbf" stroke="black" points="521.21,-156.5 521.21,-197.5 659.21,-197.5 659.21,-156.5 521.21,-156.5"/>
<text text-anchor="start" x="529.21" y="-185.5" font-family="Helvetica,sans-Serif" font-size="10.00">Libs/Engine/sources</text>
<text text-anchor="start" x="529.21" y="-174.5" font-family="Helvetica,sans-Serif" font-size="10.00">/Systems/PhysicsSystem</text>
<text text-anchor="middle" x="590.21" y="-163.5" font-family="Helvetica,sans-Serif" font-size="10.00">/PhysicsSystem.hpp</text>
</a>
</g>
</g>
<!-- Node2 -->
<g id="node2" class="node">
<title>Node2</title>
<g id="a_node2"><a xlink:href="Bomberman_2sources_2main_8cpp.html" target="_top" xlink:title=" ">
<polygon fill="white" stroke="black" points="125.71,-11.5 125.71,-30.5 290.71,-30.5 290.71,-11.5 125.71,-11.5"/>
<text text-anchor="middle" x="208.21" y="-18.5" font-family="Helvetica,sans-Serif" font-size="10.00">Bomberman/sources/main.cpp</text>
</a>
</g>
</g>
<!-- Node1&#45;&gt;Node2 -->
<g id="edge1" class="edge">
<title>Node1&#45;&gt;Node2</title>
<path fill="none" stroke="midnightblue" d="M510.95,-174.13C360.2,-169.75 44.16,-156.29 11.21,-120 -33.53,-70.72 73.91,-43.12 147.09,-30.52"/>
<polygon fill="midnightblue" stroke="midnightblue" points="510.98,-177.63 521.08,-174.42 511.18,-170.63 510.98,-177.63"/>
</g>
<!-- Node3 -->
<g id="node3" class="node">
<title>Node3</title>
<g id="a_node3"><a xlink:href="ButtonCallbacks_8cpp.html" target="_top" xlink:title=" ">
<polygon fill="white" stroke="black" points="20.21,-78.5 20.21,-119.5 184.21,-119.5 184.21,-78.5 20.21,-78.5"/>
<text text-anchor="start" x="28.21" y="-107.5" font-family="Helvetica,sans-Serif" font-size="10.00">Libs/Engine/sources</text>
<text text-anchor="start" x="28.21" y="-96.5" font-family="Helvetica,sans-Serif" font-size="10.00">/Components/ButtonCallbacks</text>
<text text-anchor="middle" x="102.21" y="-85.5" font-family="Helvetica,sans-Serif" font-size="10.00">/ButtonCallbacks.cpp</text>
</a>
</g>
</g>
<!-- Node1&#45;&gt;Node3 -->
<g id="edge2" class="edge">
<title>Node1&#45;&gt;Node3</title>
<path fill="none" stroke="midnightblue" d="M511.06,-166.64C430.73,-156.72 302.92,-139.76 193.21,-120 190.35,-119.48 187.43,-118.94 184.49,-118.38"/>
<polygon fill="midnightblue" stroke="midnightblue" points="510.75,-170.13 521.11,-167.87 511.61,-163.18 510.75,-170.13"/>
</g>
<!-- Node4 -->
<g id="node4" class="node">
<title>Node4</title>
<g id="a_node4"><a xlink:href="GameConfigurator_8cpp.html" target="_top" xlink:title=" ">
<polygon fill="white" stroke="black" points="202.71,-78.5 202.71,-119.5 375.71,-119.5 375.71,-78.5 202.71,-78.5"/>
<text text-anchor="start" x="210.71" y="-107.5" font-family="Helvetica,sans-Serif" font-size="10.00">Libs/Engine/sources</text>
<text text-anchor="start" x="210.71" y="-96.5" font-family="Helvetica,sans-Serif" font-size="10.00">/Components/GameConfigurator</text>
<text text-anchor="middle" x="289.21" y="-85.5" font-family="Helvetica,sans-Serif" font-size="10.00">/GameConfigurator.cpp</text>
</a>
</g>
</g>
<!-- Node1&#45;&gt;Node4 -->
<g id="edge3" class="edge">
<title>Node1&#45;&gt;Node4</title>
<path fill="none" stroke="midnightblue" d="M511.23,-156.06C466.61,-144.79 411.06,-130.77 366.69,-119.56"/>
<polygon fill="midnightblue" stroke="midnightblue" points="510.6,-159.51 521.16,-158.56 512.32,-152.72 510.6,-159.51"/>
</g>
<!-- Node5 -->
<g id="node5" class="node">
<title>Node5</title>
<g id="a_node5"><a xlink:href="Scenes_8cpp.html" target="_top" xlink:title=" ">
<polygon fill="white" stroke="black" points="393.71,-84 393.71,-114 506.71,-114 506.71,-84 393.71,-84"/>
<text text-anchor="start" x="401.71" y="-102" font-family="Helvetica,sans-Serif" font-size="10.00">Libs/Engine/sources</text>
<text text-anchor="middle" x="450.21" y="-91" font-family="Helvetica,sans-Serif" font-size="10.00">/Scenes/Scenes.cpp</text>
</a>
</g>
</g>
<!-- Node1&#45;&gt;Node5 -->
<g id="edge4" class="edge">
<title>Node1&#45;&gt;Node5</title>
<path fill="none" stroke="midnightblue" d="M545.34,-151.64C522.6,-139.3 495.77,-124.73 476.42,-114.23"/>
<polygon fill="midnightblue" stroke="midnightblue" points="543.7,-154.73 554.16,-156.43 547.04,-148.58 543.7,-154.73"/>
</g>
<!-- Node6 -->
<g id="node6" class="node">
<title>Node6</title>
<g id="a_node6"><a xlink:href="PauseSystem_8hpp.html" target="_top" xlink:title=" ">
<polygon fill="white" stroke="black" points="525.21,-78.5 525.21,-119.5 655.21,-119.5 655.21,-78.5 525.21,-78.5"/>
<text text-anchor="start" x="533.21" y="-107.5" font-family="Helvetica,sans-Serif" font-size="10.00">Libs/Engine/sources</text>
<text text-anchor="start" x="533.21" y="-96.5" font-family="Helvetica,sans-Serif" font-size="10.00">/Systems/PauseSystem</text>
<text text-anchor="middle" x="590.21" y="-85.5" font-family="Helvetica,sans-Serif" font-size="10.00">/PauseSystem.hpp</text>
</a>
</g>
</g>
<!-- Node1&#45;&gt;Node6 -->
<g id="edge5" class="edge">
<title>Node1&#45;&gt;Node6</title>
<path fill="none" stroke="midnightblue" d="M590.21,-146.3C590.21,-137.3 590.21,-127.65 590.21,-119.51"/>
<polygon fill="midnightblue" stroke="midnightblue" points="586.71,-146.43 590.21,-156.43 593.71,-146.43 586.71,-146.43"/>
</g>
<!-- Node8 -->
<g id="node8" class="node">
<title>Node8</title>
<g id="a_node8"><a xlink:href="PhysicsSystem_8cpp.html" target="_top" xlink:title=" ">
<polygon fill="white" stroke="black" points="673.21,-78.5 673.21,-119.5 811.21,-119.5 811.21,-78.5 673.21,-78.5"/>
<text text-anchor="start" x="681.21" y="-107.5" font-family="Helvetica,sans-Serif" font-size="10.00">Libs/Engine/sources</text>
<text text-anchor="start" x="681.21" y="-96.5" font-family="Helvetica,sans-Serif" font-size="10.00">/Systems/PhysicsSystem</text>
<text text-anchor="middle" x="742.21" y="-85.5" font-family="Helvetica,sans-Serif" font-size="10.00">/PhysicsSystem.cpp</text>
</a>
</g>
</g>
<!-- Node1&#45;&gt;Node8 -->
<g id="edge8" class="edge">
<title>Node1&#45;&gt;Node8</title>
<path fill="none" stroke="midnightblue" d="M638.39,-151.91C659.29,-141.46 683.45,-129.38 703.2,-119.51"/>
<polygon fill="midnightblue" stroke="midnightblue" points="636.73,-148.83 629.35,-156.43 639.86,-155.09 636.73,-148.83"/>
</g>
<!-- Node9 -->
<g id="node9" class="node">
<title>Node9</title>
<g id="a_node9"><a xlink:href="tests__PhysicsSystem_8cpp.html" target="_top" xlink:title=" ">
<polygon fill="white" stroke="black" points="829.21,-84 829.21,-114 955.21,-114 955.21,-84 829.21,-84"/>
<text text-anchor="start" x="837.21" y="-102" font-family="Helvetica,sans-Serif" font-size="10.00">Libs/Engine/tests/tests</text>
<text text-anchor="middle" x="892.21" y="-91" font-family="Helvetica,sans-Serif" font-size="10.00">_PhysicsSystem.cpp</text>
</a>
</g>
</g>
<!-- Node1&#45;&gt;Node9 -->
<g id="edge9" class="edge">
<title>Node1&#45;&gt;Node9</title>
<path fill="none" stroke="midnightblue" d="M669.17,-157.44C713.63,-146.82 770.11,-133.05 820.21,-120 827.37,-118.14 834.91,-116.11 842.3,-114.09"/>
<polygon fill="midnightblue" stroke="midnightblue" points="668.21,-154.07 659.3,-159.79 669.84,-160.88 668.21,-154.07"/>
</g>
<!-- Node10 -->
<g id="node10" class="node">
<title>Node10</title>
<g id="a_node10"><a xlink:href="Prototype_2sources_2Behaviour_2main_8cpp.html" target="_top" xlink:title=" ">
<polygon fill="white" stroke="black" points="973.71,-84 973.71,-114 1130.71,-114 1130.71,-84 973.71,-84"/>
<text text-anchor="start" x="981.71" y="-102" font-family="Helvetica,sans-Serif" font-size="10.00">Prototype/sources/Behaviour</text>
<text text-anchor="middle" x="1052.21" y="-91" font-family="Helvetica,sans-Serif" font-size="10.00">/main.cpp</text>
</a>
</g>
</g>
<!-- Node1&#45;&gt;Node10 -->
<g id="edge10" class="edge">
<title>Node1&#45;&gt;Node10</title>
<path fill="none" stroke="midnightblue" d="M669.37,-165.9C745.27,-155.8 862.94,-139.06 964.21,-120 973.6,-118.23 983.52,-116.17 993.17,-114.06"/>
<polygon fill="midnightblue" stroke="midnightblue" points="668.86,-162.44 659.4,-167.22 669.78,-169.37 668.86,-162.44"/>
</g>
<!-- Node11 -->
<g id="node11" class="node">
<title>Node11</title>
<g id="a_node11"><a xlink:href="Prototype_2sources_2Shaders_2main_8cpp.html" target="_top" xlink:title=" ">
<polygon fill="white" stroke="black" points="1149.21,-84 1149.21,-114 1295.21,-114 1295.21,-84 1149.21,-84"/>
<text text-anchor="start" x="1157.21" y="-102" font-family="Helvetica,sans-Serif" font-size="10.00">Prototype/sources/Shaders</text>
<text text-anchor="middle" x="1222.21" y="-91" font-family="Helvetica,sans-Serif" font-size="10.00">/main.cpp</text>
</a>
</g>
</g>
<!-- Node1&#45;&gt;Node11 -->
<g id="edge11" class="edge">
<title>Node1&#45;&gt;Node11</title>
<path fill="none" stroke="midnightblue" d="M669.32,-171.38C776.59,-164.34 973.89,-148.61 1140.21,-120 1149.6,-118.39 1159.5,-116.3 1169.06,-114.09"/>
<polygon fill="midnightblue" stroke="midnightblue" points="668.97,-167.9 659.22,-172.04 669.43,-174.88 668.97,-167.9"/>
</g>
<!-- Node6&#45;&gt;Node2 -->
<g id="edge6" class="edge">
<title>Node6&#45;&gt;Node2</title>
<path fill="none" stroke="midnightblue" d="M514.98,-77.8C421.19,-56.95 322.71,-40.15 263.02,-30.53"/>
<polygon fill="midnightblue" stroke="midnightblue" points="514.39,-81.26 524.92,-80.03 515.92,-74.43 514.39,-81.26"/>
</g>
<!-- Node7 -->
<g id="node7" class="node">
<title>Node7</title>
<g id="a_node7"><a xlink:href="PauseSystem_8cpp.html" target="_top" xlink:title=" ">
<polygon fill="white" stroke="black" points="525.21,-0.5 525.21,-41.5 655.21,-41.5 655.21,-0.5 525.21,-0.5"/>
<text text-anchor="start" x="533.21" y="-29.5" font-family="Helvetica,sans-Serif" font-size="10.00">Libs/Engine/sources</text>
<text text-anchor="start" x="533.21" y="-18.5" font-family="Helvetica,sans-Serif" font-size="10.00">/Systems/PauseSystem</text>
<text text-anchor="middle" x="590.21" y="-7.5" font-family="Helvetica,sans-Serif" font-size="10.00">/PauseSystem.cpp</text>
</a>
</g>
</g>
<!-- Node6&#45;&gt;Node7 -->
<g id="edge7" class="edge">
<title>Node6&#45;&gt;Node7</title>
<path fill="none" stroke="midnightblue" d="M590.21,-68.3C590.21,-59.3 590.21,-49.65 590.21,-41.51"/>
<polygon fill="midnightblue" stroke="midnightblue" points="586.71,-68.43 590.21,-78.43 593.71,-68.43 586.71,-68.43"/>
</g>
</g>
</svg>
