<?xml version="1.0" encoding="UTF-8" standalone="no"?>
<!DOCTYPE svg PUBLIC "-//W3C//DTD SVG 1.1//EN"
 "http://www.w3.org/Graphics/SVG/1.1/DTD/svg11.dtd">
<!-- Generated by graphviz version 2.43.0 (0)
 -->
<!-- Title: Libs/Engine/sources/Components/PlayerInputs/PlayerInputs.hpp Pages: 1 -->
<svg width="1522pt" height="362pt"
 viewBox="0.00 0.00 1521.62 362.00" xmlns="http://www.w3.org/2000/svg" xmlns:xlink="http://www.w3.org/1999/xlink">
<g id="graph0" class="graph" transform="scale(1 1) rotate(0) translate(4 358)">
<title>Libs/Engine/sources/Components/PlayerInputs/PlayerInputs.hpp</title>
<polygon fill="white" stroke="transparent" points="-4,4 -4,-358 1517.62,-358 1517.62,4 -4,4"/>
<!-- Node1 -->
<g id="node1" class="node">
<title>Node1</title>
<g id="a_node1"><a xlink:title=" ">
<polygon fill="#bfbfbf" stroke="black" points="435.62,-312.5 435.62,-353.5 580.62,-353.5 580.62,-312.5 435.62,-312.5"/>
<text text-anchor="start" x="443.62" y="-341.5" font-family="Helvetica,sans-Serif" font-size="10.00">Libs/Engine/sources</text>
<text text-anchor="start" x="443.62" y="-330.5" font-family="Helvetica,sans-Serif" font-size="10.00">/Components/PlayerInputs</text>
<text text-anchor="middle" x="508.12" y="-319.5" font-family="Helvetica,sans-Serif" font-size="10.00">/PlayerInputs.hpp</text>
</a>
</g>
</g>
<!-- Node2 -->
<g id="node2" class="node">
<title>Node2</title>
<g id="a_node2"><a xlink:href="Bomberman_2sources_2main_8cpp.html" target="_top" xlink:title=" ">
<polygon fill="white" stroke="black" points="1348.62,-11.5 1348.62,-30.5 1513.62,-30.5 1513.62,-11.5 1348.62,-11.5"/>
<text text-anchor="middle" x="1431.12" y="-18.5" font-family="Helvetica,sans-Serif" font-size="10.00">Bomberman/sources/main.cpp</text>
</a>
</g>
</g>
<!-- Node1&#45;&gt;Node2 -->
<g id="edge1" class="edge">
<title>Node1&#45;&gt;Node2</title>
<path fill="none" stroke="midnightblue" d="M590.9,-323.97C792,-302.74 1298.16,-238.48 1412.12,-120 1436.03,-95.14 1434.25,-49.71 1432.27,-30.72"/>
<polygon fill="midnightblue" stroke="midnightblue" points="590.27,-320.51 580.69,-325.03 591,-327.47 590.27,-320.51"/>
</g>
<!-- Node3 -->
<g id="node3" class="node">
<title>Node3</title>
<g id="a_node3"><a xlink:href="CoolDownBoost_8hpp.html" target="_top" xlink:title=" ">
<polygon fill="white" stroke="black" points="41.62,-156.5 41.62,-197.5 202.62,-197.5 202.62,-156.5 41.62,-156.5"/>
<text text-anchor="start" x="49.62" y="-185.5" font-family="Helvetica,sans-Serif" font-size="10.00">Libs/Engine/sources</text>
<text text-anchor="start" x="49.62" y="-174.5" font-family="Helvetica,sans-Serif" font-size="10.00">/Components/CoolDownBoost</text>
<text text-anchor="middle" x="122.12" y="-163.5" font-family="Helvetica,sans-Serif" font-size="10.00">/CoolDownBoost.hpp</text>
</a>
</g>
</g>
<!-- Node1&#45;&gt;Node3 -->
<g id="edge2" class="edge">
<title>Node1&#45;&gt;Node3</title>
<path fill="none" stroke="midnightblue" d="M438.16,-309.17C409.45,-299.45 376.01,-287.68 346.12,-276 281.88,-250.89 208.94,-218.17 164.23,-197.62"/>
<polygon fill="midnightblue" stroke="midnightblue" points="437.11,-312.51 447.7,-312.39 439.34,-305.88 437.11,-312.51"/>
</g>
<!-- Node5 -->
<g id="node5" class="node">
<title>Node5</title>
<g id="a_node5"><a xlink:href="EntityFactory_8cpp.html" target="_top" xlink:title=" ">
<polygon fill="white" stroke="black" points="307.62,-6 307.62,-36 476.62,-36 476.62,-6 307.62,-6"/>
<text text-anchor="start" x="315.62" y="-24" font-family="Helvetica,sans-Serif" font-size="10.00">Libs/Engine/sources</text>
<text text-anchor="middle" x="392.12" y="-13" font-family="Helvetica,sans-Serif" font-size="10.00">/EntityFactory/EntityFactory.cpp</text>
</a>
</g>
</g>
<!-- Node1&#45;&gt;Node5 -->
<g id="edge30" class="edge">
<title>Node1&#45;&gt;Node5</title>
<path fill="none" stroke="midnightblue" d="M425.33,-320.32C302.55,-301.18 81.32,-259.03 32.12,-198 -1.49,-156.3 -13.81,-118.6 21.12,-78 57.29,-35.97 209.44,-25.07 307.31,-22.49"/>
<polygon fill="midnightblue" stroke="midnightblue" points="425.03,-323.82 435.45,-321.89 426.1,-316.9 425.03,-323.82"/>
</g>
<!-- Node6 -->
<g id="node6" class="node">
<title>Node6</title>
<g id="a_node6"><a xlink:href="PlayerInputs_8cpp.html" target="_top" xlink:title=" ">
<polygon fill="white" stroke="black" points="516.62,-234.5 516.62,-275.5 661.62,-275.5 661.62,-234.5 516.62,-234.5"/>
<text text-anchor="start" x="524.62" y="-263.5" font-family="Helvetica,sans-Serif" font-size="10.00">Libs/Engine/sources</text>
<text text-anchor="start" x="524.62" y="-252.5" font-family="Helvetica,sans-Serif" font-size="10.00">/Components/PlayerInputs</text>
<text text-anchor="middle" x="589.12" y="-241.5" font-family="Helvetica,sans-Serif" font-size="10.00">/PlayerInputs.cpp</text>
</a>
</g>
</g>
<!-- Node1&#45;&gt;Node6 -->
<g id="edge5" class="edge">
<title>Node1&#45;&gt;Node6</title>
<path fill="none" stroke="midnightblue" d="M536.38,-305.49C546.89,-295.63 558.61,-284.63 568.34,-275.51"/>
<polygon fill="midnightblue" stroke="midnightblue" points="533.88,-303.03 528.98,-312.43 538.67,-308.14 533.88,-303.03"/>
</g>
<!-- Node7 -->
<g id="node7" class="node">
<title>Node7</title>
<g id="a_node7"><a xlink:href="RangeBoost_8hpp.html" target="_top" xlink:title=" ">
<polygon fill="white" stroke="black" points="355.62,-234.5 355.62,-275.5 498.62,-275.5 498.62,-234.5 355.62,-234.5"/>
<text text-anchor="start" x="363.62" y="-263.5" font-family="Helvetica,sans-Serif" font-size="10.00">Libs/Engine/sources</text>
<text text-anchor="start" x="363.62" y="-252.5" font-family="Helvetica,sans-Serif" font-size="10.00">/Components/RangeBoost</text>
<text text-anchor="middle" x="427.12" y="-241.5" font-family="Helvetica,sans-Serif" font-size="10.00">/RangeBoost.hpp</text>
</a>
</g>
</g>
<!-- Node1&#45;&gt;Node7 -->
<g id="edge6" class="edge">
<title>Node1&#45;&gt;Node7</title>
<path fill="none" stroke="midnightblue" d="M479.87,-305.49C469.36,-295.63 457.64,-284.63 447.91,-275.51"/>
<polygon fill="midnightblue" stroke="midnightblue" points="477.58,-308.14 487.27,-312.43 482.37,-303.03 477.58,-308.14"/>
</g>
<!-- Node21 -->
<g id="node21" class="node">
<title>Node21</title>
<g id="a_node21"><a xlink:href="SpeedBoost_8hpp.html" target="_top" xlink:title=" ">
<polygon fill="white" stroke="black" points="844.12,-156.5 844.12,-197.5 986.12,-197.5 986.12,-156.5 844.12,-156.5"/>
<text text-anchor="start" x="852.12" y="-185.5" font-family="Helvetica,sans-Serif" font-size="10.00">Libs/Engine/sources</text>
<text text-anchor="start" x="852.12" y="-174.5" font-family="Helvetica,sans-Serif" font-size="10.00">/Components/SpeedBoost</text>
<text text-anchor="middle" x="915.12" y="-163.5" font-family="Helvetica,sans-Serif" font-size="10.00">/SpeedBoost.hpp</text>
</a>
</g>
</g>
<!-- Node1&#45;&gt;Node21 -->
<g id="edge27" class="edge">
<title>Node1&#45;&gt;Node21</title>
<path fill="none" stroke="midnightblue" d="M576.48,-309.18C605.47,-299.29 639.56,-287.39 670.12,-276 739.45,-250.17 818.81,-217.93 867.96,-197.64"/>
<polygon fill="midnightblue" stroke="midnightblue" points="575.19,-305.92 566.85,-312.45 577.45,-312.55 575.19,-305.92"/>
</g>
<!-- Node4 -->
<g id="node4" class="node">
<title>Node4</title>
<g id="a_node4"><a xlink:href="CoolDownBoost_8cpp.html" target="_top" xlink:title=" ">
<polygon fill="white" stroke="black" points="41.62,-78.5 41.62,-119.5 202.62,-119.5 202.62,-78.5 41.62,-78.5"/>
<text text-anchor="start" x="49.62" y="-107.5" font-family="Helvetica,sans-Serif" font-size="10.00">Libs/Engine/sources</text>
<text text-anchor="start" x="49.62" y="-96.5" font-family="Helvetica,sans-Serif" font-size="10.00">/Components/CoolDownBoost</text>
<text text-anchor="middle" x="122.12" y="-85.5" font-family="Helvetica,sans-Serif" font-size="10.00">/CoolDownBoost.cpp</text>
</a>
</g>
</g>
<!-- Node3&#45;&gt;Node4 -->
<g id="edge3" class="edge">
<title>Node3&#45;&gt;Node4</title>
<path fill="none" stroke="midnightblue" d="M122.12,-146.3C122.12,-137.3 122.12,-127.65 122.12,-119.51"/>
<polygon fill="midnightblue" stroke="midnightblue" points="118.62,-146.43 122.12,-156.43 125.62,-146.43 118.62,-146.43"/>
</g>
<!-- Node3&#45;&gt;Node5 -->
<g id="edge4" class="edge">
<title>Node3&#45;&gt;Node5</title>
<path fill="none" stroke="midnightblue" d="M62.96,-151.12C50.64,-143.07 39.24,-132.81 32.12,-120 23.06,-103.68 19.98,-92.18 32.12,-78 66.84,-37.47 212.21,-26.04 307.28,-22.96"/>
<polygon fill="midnightblue" stroke="midnightblue" points="61.24,-154.17 71.6,-156.35 64.86,-148.18 61.24,-154.17"/>
</g>
<!-- Node8 -->
<g id="node8" class="node">
<title>Node8</title>
<g id="a_node8"><a xlink:href="RangeBoost_8cpp.html" target="_top" xlink:title=" ">
<polygon fill="white" stroke="black" points="220.62,-78.5 220.62,-119.5 363.62,-119.5 363.62,-78.5 220.62,-78.5"/>
<text text-anchor="start" x="228.62" y="-107.5" font-family="Helvetica,sans-Serif" font-size="10.00">Libs/Engine/sources</text>
<text text-anchor="start" x="228.62" y="-96.5" font-family="Helvetica,sans-Serif" font-size="10.00">/Components/RangeBoost</text>
<text text-anchor="middle" x="292.12" y="-85.5" font-family="Helvetica,sans-Serif" font-size="10.00">/RangeBoost.cpp</text>
</a>
</g>
</g>
<!-- Node7&#45;&gt;Node8 -->
<g id="edge7" class="edge">
<title>Node7&#45;&gt;Node8</title>
<path fill="none" stroke="midnightblue" d="M403.23,-226.75C376.36,-196.1 333.37,-147.05 309.51,-119.83"/>
<polygon fill="midnightblue" stroke="midnightblue" points="400.8,-229.28 410.03,-234.5 406.07,-224.67 400.8,-229.28"/>
</g>
<!-- Node9 -->
<g id="node9" class="node">
<title>Node9</title>
<g id="a_node9"><a xlink:href="EntityFactory_8hpp.html" target="_top" xlink:title=" ">
<polygon fill="white" stroke="black" points="564.12,-162 564.12,-192 734.12,-192 734.12,-162 564.12,-162"/>
<text text-anchor="start" x="572.12" y="-180" font-family="Helvetica,sans-Serif" font-size="10.00">Libs/Engine/sources</text>
<text text-anchor="middle" x="649.12" y="-169" font-family="Helvetica,sans-Serif" font-size="10.00">/EntityFactory/EntityFactory.hpp</text>
</a>
</g>
</g>
<!-- Node7&#45;&gt;Node9 -->
<g id="edge8" class="edge">
<title>Node7&#45;&gt;Node9</title>
<path fill="none" stroke="midnightblue" d="M494.03,-231.1C531.09,-218.41 575.99,-203.04 607.92,-192.11"/>
<polygon fill="midnightblue" stroke="midnightblue" points="492.62,-227.88 484.3,-234.43 494.89,-234.5 492.62,-227.88"/>
</g>
<!-- Node9&#45;&gt;Node4 -->
<g id="edge10" class="edge">
<title>Node9&#45;&gt;Node4</title>
<path fill="none" stroke="midnightblue" d="M553.91,-166.43C464.92,-156.88 328.53,-140.65 211.12,-120 208.47,-119.53 205.78,-119.04 203.07,-118.53"/>
<polygon fill="midnightblue" stroke="midnightblue" points="553.67,-169.93 563.98,-167.51 554.41,-162.97 553.67,-169.93"/>
</g>
<!-- Node9&#45;&gt;Node5 -->
<g id="edge14" class="edge">
<title>Node9&#45;&gt;Node5</title>
<path fill="none" stroke="midnightblue" d="M553.66,-164.21C496.44,-155.18 431.03,-140.71 411.12,-120 389.27,-97.26 388.88,-57.32 390.49,-36.13"/>
<polygon fill="midnightblue" stroke="midnightblue" points="553.45,-167.72 563.86,-165.78 554.51,-160.8 553.45,-167.72"/>
</g>
<!-- Node9&#45;&gt;Node8 -->
<g id="edge12" class="edge">
<title>Node9&#45;&gt;Node8</title>
<path fill="none" stroke="midnightblue" d="M568.98,-159.98C514.97,-149.05 442.18,-134.06 378.12,-120 373.48,-118.98 368.7,-117.92 363.89,-116.83"/>
<polygon fill="midnightblue" stroke="midnightblue" points="568.34,-163.42 578.84,-161.97 569.73,-156.56 568.34,-163.42"/>
</g>
<!-- Node10 -->
<g id="node10" class="node">
<title>Node10</title>
<g id="a_node10"><a xlink:href="Box_8cpp.html" target="_top" xlink:title=" ">
<polygon fill="white" stroke="black" points="420.62,-84 420.62,-114 565.62,-114 565.62,-84 420.62,-84"/>
<text text-anchor="start" x="428.62" y="-102" font-family="Helvetica,sans-Serif" font-size="10.00">Libs/Engine/sources</text>
<text text-anchor="middle" x="493.12" y="-91" font-family="Helvetica,sans-Serif" font-size="10.00">/Components/Box/Box.cpp</text>
</a>
</g>
</g>
<!-- Node9&#45;&gt;Node10 -->
<g id="edge9" class="edge">
<title>Node9&#45;&gt;Node10</title>
<path fill="none" stroke="midnightblue" d="M610.84,-157.35C583.38,-143.97 546.96,-126.23 521.95,-114.04"/>
<polygon fill="midnightblue" stroke="midnightblue" points="609.62,-160.65 620.15,-161.88 612.69,-154.36 609.62,-160.65"/>
</g>
<!-- Node11 -->
<g id="node11" class="node">
<title>Node11</title>
<g id="a_node11"><a xlink:href="Explosion_8cpp.html" target="_top" xlink:title=" ">
<polygon fill="white" stroke="black" points="583.62,-78.5 583.62,-119.5 714.62,-119.5 714.62,-78.5 583.62,-78.5"/>
<text text-anchor="start" x="591.62" y="-107.5" font-family="Helvetica,sans-Serif" font-size="10.00">Libs/Engine/sources</text>
<text text-anchor="start" x="591.62" y="-96.5" font-family="Helvetica,sans-Serif" font-size="10.00">/Components/Explosion</text>
<text text-anchor="middle" x="649.12" y="-85.5" font-family="Helvetica,sans-Serif" font-size="10.00">/Explosion.cpp</text>
</a>
</g>
</g>
<!-- Node9&#45;&gt;Node11 -->
<g id="edge11" class="edge">
<title>Node9&#45;&gt;Node11</title>
<path fill="none" stroke="midnightblue" d="M649.12,-151.66C649.12,-141.33 649.12,-129.44 649.12,-119.68"/>
<polygon fill="midnightblue" stroke="midnightblue" points="645.62,-151.7 649.12,-161.7 652.62,-151.71 645.62,-151.7"/>
</g>
<!-- Node12 -->
<g id="node12" class="node">
<title>Node12</title>
<g id="a_node12"><a xlink:href="SpeedBoost_8cpp.html" target="_top" xlink:title=" ">
<polygon fill="white" stroke="black" points="1261.12,-78.5 1261.12,-119.5 1403.12,-119.5 1403.12,-78.5 1261.12,-78.5"/>
<text text-anchor="start" x="1269.12" y="-107.5" font-family="Helvetica,sans-Serif" font-size="10.00">Libs/Engine/sources</text>
<text text-anchor="start" x="1269.12" y="-96.5" font-family="Helvetica,sans-Serif" font-size="10.00">/Components/SpeedBoost</text>
<text text-anchor="middle" x="1332.12" y="-85.5" font-family="Helvetica,sans-Serif" font-size="10.00">/SpeedBoost.cpp</text>
</a>
</g>
</g>
<!-- Node9&#45;&gt;Node12 -->
<g id="edge13" class="edge">
<title>Node9&#45;&gt;Node12</title>
<path fill="none" stroke="midnightblue" d="M744.43,-165.36C773.53,-162.22 805.63,-158.86 835.12,-156 1020.28,-138.06 1068.65,-150.66 1252.12,-120 1254.95,-119.53 1257.82,-119.01 1260.71,-118.45"/>
<polygon fill="midnightblue" stroke="midnightblue" points="743.84,-161.91 734.27,-166.46 744.59,-168.87 743.84,-161.91"/>
</g>
<!-- Node13 -->
<g id="node13" class="node">
<title>Node13</title>
<g id="a_node13"><a xlink:href="Scenes_8cpp.html" target="_top" xlink:title=" ">
<polygon fill="white" stroke="black" points="519.62,-6 519.62,-36 632.62,-36 632.62,-6 519.62,-6"/>
<text text-anchor="start" x="527.62" y="-24" font-family="Helvetica,sans-Serif" font-size="10.00">Libs/Engine/sources</text>
<text text-anchor="middle" x="576.12" y="-13" font-family="Helvetica,sans-Serif" font-size="10.00">/Scenes/Scenes.cpp</text>
</a>
</g>
</g>
<!-- Node9&#45;&gt;Node13 -->
<g id="edge15" class="edge">
<title>Node9&#45;&gt;Node13</title>
<path fill="none" stroke="midnightblue" d="M744.39,-168.89C833.2,-158.68 945.14,-134.42 896.12,-78 858.59,-34.8 696.98,-54.45 641.12,-42 633.75,-40.36 626,-38.28 618.52,-36.1"/>
<polygon fill="midnightblue" stroke="midnightblue" points="743.79,-165.43 734.24,-170 744.56,-172.39 743.79,-165.43"/>
</g>
<!-- Node14 -->
<g id="node14" class="node">
<title>Node14</title>
<g id="a_node14"><a xlink:href="Scenes_8hpp.html" target="_top" xlink:title=" ">
<polygon fill="white" stroke="black" points="981.62,-84 981.62,-114 1094.62,-114 1094.62,-84 981.62,-84"/>
<text text-anchor="start" x="989.62" y="-102" font-family="Helvetica,sans-Serif" font-size="10.00">Libs/Engine/sources</text>
<text text-anchor="middle" x="1038.12" y="-91" font-family="Helvetica,sans-Serif" font-size="10.00">/Scenes/Scenes.hpp</text>
</a>
</g>
</g>
<!-- Node9&#45;&gt;Node14 -->
<g id="edge16" class="edge">
<title>Node9&#45;&gt;Node14</title>
<path fill="none" stroke="midnightblue" d="M744.28,-161.8C807.73,-151.71 892.81,-136.96 967.12,-120 974.87,-118.23 983.02,-116.15 990.94,-114"/>
<polygon fill="midnightblue" stroke="midnightblue" points="743.62,-158.36 734.29,-163.38 744.71,-165.28 743.62,-158.36"/>
</g>
<!-- Node18 -->
<g id="node18" class="node">
<title>Node18</title>
<g id="a_node18"><a xlink:href="PauseSystem_8hpp.html" target="_top" xlink:title=" ">
<polygon fill="white" stroke="black" points="1113.12,-78.5 1113.12,-119.5 1243.12,-119.5 1243.12,-78.5 1113.12,-78.5"/>
<text text-anchor="start" x="1121.12" y="-107.5" font-family="Helvetica,sans-Serif" font-size="10.00">Libs/Engine/sources</text>
<text text-anchor="start" x="1121.12" y="-96.5" font-family="Helvetica,sans-Serif" font-size="10.00">/Systems/PauseSystem</text>
<text text-anchor="middle" x="1178.12" y="-85.5" font-family="Helvetica,sans-Serif" font-size="10.00">/PauseSystem.hpp</text>
</a>
</g>
</g>
<!-- Node9&#45;&gt;Node18 -->
<g id="edge23" class="edge">
<title>Node9&#45;&gt;Node18</title>
<path fill="none" stroke="midnightblue" d="M744.52,-165.87C857.09,-153.63 1037.4,-133.05 1104.12,-120 1107,-119.44 1109.92,-118.82 1112.87,-118.17"/>
<polygon fill="midnightblue" stroke="midnightblue" points="744.08,-162.39 734.52,-166.95 744.84,-169.35 744.08,-162.39"/>
</g>
<!-- Node20 -->
<g id="node20" class="node">
<title>Node20</title>
<g id="a_node20"><a xlink:href="Prototype_2sources_2Drawable_2main_8cpp.html" target="_top" xlink:title=" ">
<polygon fill="white" stroke="black" points="733.12,-84 733.12,-114 887.12,-114 887.12,-84 733.12,-84"/>
<text text-anchor="start" x="741.12" y="-102" font-family="Helvetica,sans-Serif" font-size="10.00">Prototype/sources/Drawable</text>
<text text-anchor="middle" x="810.12" y="-91" font-family="Helvetica,sans-Serif" font-size="10.00">/main.cpp</text>
</a>
</g>
</g>
<!-- Node9&#45;&gt;Node20 -->
<g id="edge26" class="edge">
<title>Node9&#45;&gt;Node20</title>
<path fill="none" stroke="midnightblue" d="M688.26,-157.52C716.65,-144.13 754.45,-126.28 780.38,-114.04"/>
<polygon fill="midnightblue" stroke="midnightblue" points="686.58,-154.45 679.03,-161.88 689.57,-160.78 686.58,-154.45"/>
</g>
<!-- Node14&#45;&gt;Node2 -->
<g id="edge17" class="edge">
<title>Node14&#45;&gt;Node2</title>
<path fill="none" stroke="midnightblue" d="M1090.9,-81.28C1095.35,-80.09 1099.8,-78.98 1104.12,-78 1207.17,-54.62 1235.23,-61.23 1339.12,-42 1357.45,-38.61 1377.69,-34.27 1394.52,-30.5"/>
<polygon fill="midnightblue" stroke="midnightblue" points="1089.9,-77.93 1081.2,-83.99 1091.77,-84.67 1089.9,-77.93"/>
</g>
<!-- Node14&#45;&gt;Node5 -->
<g id="edge20" class="edge">
<title>Node14&#45;&gt;Node5</title>
<path fill="none" stroke="midnightblue" d="M971.43,-84.72C957.49,-82.24 942.86,-79.85 929.12,-78 743.88,-53.11 695.53,-65.64 510.12,-42 496.93,-40.32 482.96,-38.23 469.43,-36.04"/>
<polygon fill="midnightblue" stroke="midnightblue" points="970.97,-88.19 981.43,-86.53 972.22,-81.3 970.97,-88.19"/>
</g>
<!-- Node14&#45;&gt;Node13 -->
<g id="edge21" class="edge">
<title>Node14&#45;&gt;Node13</title>
<path fill="none" stroke="midnightblue" d="M982.61,-81.42C977.4,-80.15 972.18,-78.98 967.12,-78 824.04,-50.14 783.86,-71.57 641.12,-42 633.49,-40.42 625.48,-38.32 617.78,-36.09"/>
<polygon fill="midnightblue" stroke="midnightblue" points="982,-84.88 992.56,-83.97 983.74,-78.1 982,-84.88"/>
</g>
<!-- Node15 -->
<g id="node15" class="node">
<title>Node15</title>
<g id="a_node15"><a xlink:href="ButtonCallbacks_8cpp.html" target="_top" xlink:title=" ">
<polygon fill="white" stroke="black" points="826.12,-0.5 826.12,-41.5 990.12,-41.5 990.12,-0.5 826.12,-0.5"/>
<text text-anchor="start" x="834.12" y="-29.5" font-family="Helvetica,sans-Serif" font-size="10.00">Libs/Engine/sources</text>
<text text-anchor="start" x="834.12" y="-18.5" font-family="Helvetica,sans-Serif" font-size="10.00">/Components/ButtonCallbacks</text>
<text text-anchor="middle" x="908.12" y="-7.5" font-family="Helvetica,sans-Serif" font-size="10.00">/ButtonCallbacks.cpp</text>
</a>
</g>
</g>
<!-- Node14&#45;&gt;Node15 -->
<g id="edge18" class="edge">
<title>Node14&#45;&gt;Node15</title>
<path fill="none" stroke="midnightblue" d="M1005.2,-78.75C985.86,-67.44 961.45,-53.17 941.94,-41.77"/>
<polygon fill="midnightblue" stroke="midnightblue" points="1003.58,-81.86 1013.98,-83.88 1007.11,-75.81 1003.58,-81.86"/>
</g>
<!-- Node16 -->
<g id="node16" class="node">
<title>Node16</title>
<g id="a_node16"><a xlink:href="GameConfigurator_8cpp.html" target="_top" xlink:title=" ">
<polygon fill="white" stroke="black" points="1008.62,-0.5 1008.62,-41.5 1181.62,-41.5 1181.62,-0.5 1008.62,-0.5"/>
<text text-anchor="start" x="1016.62" y="-29.5" font-family="Helvetica,sans-Serif" font-size="10.00">Libs/Engine/sources</text>
<text text-anchor="start" x="1016.62" y="-18.5" font-family="Helvetica,sans-Serif" font-size="10.00">/Components/GameConfigurator</text>
<text text-anchor="middle" x="1095.12" y="-7.5" font-family="Helvetica,sans-Serif" font-size="10.00">/GameConfigurator.cpp</text>
</a>
</g>
</g>
<!-- Node14&#45;&gt;Node16 -->
<g id="edge19" class="edge">
<title>Node14&#45;&gt;Node16</title>
<path fill="none" stroke="midnightblue" d="M1054.93,-75.59C1063,-64.84 1072.58,-52.06 1080.36,-41.68"/>
<polygon fill="midnightblue" stroke="midnightblue" points="1052.05,-73.6 1048.85,-83.7 1057.65,-77.8 1052.05,-73.6"/>
</g>
<!-- Node17 -->
<g id="node17" class="node">
<title>Node17</title>
<g id="a_node17"><a xlink:href="Prototype_2sources_2Behaviour_2main_8cpp.html" target="_top" xlink:title=" ">
<polygon fill="white" stroke="black" points="650.62,-6 650.62,-36 807.62,-36 807.62,-6 650.62,-6"/>
<text text-anchor="start" x="658.62" y="-24" font-family="Helvetica,sans-Serif" font-size="10.00">Prototype/sources/Behaviour</text>
<text text-anchor="middle" x="729.12" y="-13" font-family="Helvetica,sans-Serif" font-size="10.00">/main.cpp</text>
</a>
</g>
</g>
<!-- Node14&#45;&gt;Node17 -->
<g id="edge22" class="edge">
<title>Node14&#45;&gt;Node17</title>
<path fill="none" stroke="midnightblue" d="M979.53,-81.28C975.34,-80.15 971.17,-79.05 967.12,-78 934.14,-69.48 848.97,-49.63 790.01,-36.01"/>
<polygon fill="midnightblue" stroke="midnightblue" points="978.74,-84.69 989.31,-83.95 980.59,-77.94 978.74,-84.69"/>
</g>
<!-- Node18&#45;&gt;Node2 -->
<g id="edge24" class="edge">
<title>Node18&#45;&gt;Node2</title>
<path fill="none" stroke="midnightblue" d="M1253.14,-75.47C1303.38,-60.38 1366.67,-41.36 1402.66,-30.55"/>
<polygon fill="midnightblue" stroke="midnightblue" points="1251.85,-72.2 1243.28,-78.43 1253.86,-78.9 1251.85,-72.2"/>
</g>
<!-- Node19 -->
<g id="node19" class="node">
<title>Node19</title>
<g id="a_node19"><a xlink:href="PauseSystem_8cpp.html" target="_top" xlink:title=" ">
<polygon fill="white" stroke="black" points="1200.12,-0.5 1200.12,-41.5 1330.12,-41.5 1330.12,-0.5 1200.12,-0.5"/>
<text text-anchor="start" x="1208.12" y="-29.5" font-family="Helvetica,sans-Serif" font-size="10.00">Libs/Engine/sources</text>
<text text-anchor="start" x="1208.12" y="-18.5" font-family="Helvetica,sans-Serif" font-size="10.00">/Systems/PauseSystem</text>
<text text-anchor="middle" x="1265.12" y="-7.5" font-family="Helvetica,sans-Serif" font-size="10.00">/PauseSystem.cpp</text>
</a>
</g>
</g>
<!-- Node18&#45;&gt;Node19 -->
<g id="edge25" class="edge">
<title>Node18&#45;&gt;Node19</title>
<path fill="none" stroke="midnightblue" d="M1208.14,-71.78C1219.51,-61.84 1232.25,-50.72 1242.8,-41.51"/>
<polygon fill="midnightblue" stroke="midnightblue" points="1205.76,-69.21 1200.53,-78.43 1210.36,-74.49 1205.76,-69.21"/>
</g>
<!-- Node21&#45;&gt;Node5 -->
<g id="edge29" class="edge">
<title>Node21&#45;&gt;Node5</title>
<path fill="none" stroke="midnightblue" d="M918.01,-145.93C918.34,-123.82 914.67,-94.8 896.12,-78 832.28,-20.16 595.54,-53.21 510.12,-42 497.04,-40.28 483.19,-38.19 469.75,-36.01"/>
<polygon fill="midnightblue" stroke="midnightblue" points="914.51,-146.01 917.58,-156.15 921.5,-146.31 914.51,-146.01"/>
</g>
<!-- Node21&#45;&gt;Node12 -->
<g id="edge28" class="edge">
<title>Node21&#45;&gt;Node12</title>
<path fill="none" stroke="midnightblue" d="M996.72,-164.32C1065.19,-154.07 1165.41,-138.01 1252.12,-120 1255.07,-119.39 1258.07,-118.74 1261.09,-118.07"/>
<polygon fill="midnightblue" stroke="midnightblue" points="995.81,-160.91 986.44,-165.85 996.84,-167.84 995.81,-160.91"/>
</g>
</g>
</svg>
