<?xml version="1.0" encoding="UTF-8" standalone="no"?>
<!DOCTYPE svg PUBLIC "-//W3C//DTD SVG 1.1//EN"
 "http://www.w3.org/Graphics/SVG/1.1/DTD/svg11.dtd">
<!-- Generated by graphviz version 2.43.0 (0)
 -->
<!-- Title: Prototype/sources/Loop/main.cpp Pages: 1 -->
<svg width="1645pt" height="442pt"
 viewBox="0.00 0.00 1645.00 442.00" xmlns="http://www.w3.org/2000/svg" xmlns:xlink="http://www.w3.org/1999/xlink">
<g id="graph0" class="graph" transform="scale(1 1) rotate(0) translate(4 438)">
<title>Prototype/sources/Loop/main.cpp</title>
<polygon fill="white" stroke="transparent" points="-4,4 -4,-438 1641,-438 1641,4 -4,4"/>
<!-- Node1 -->
<g id="node1" class="node">
<title>Node1</title>
<g id="a_node1"><a xlink:title=" ">
<polygon fill="#bfbfbf" stroke="black" points="212.5,-403.5 212.5,-433.5 343.5,-433.5 343.5,-403.5 212.5,-403.5"/>
<text text-anchor="start" x="220.5" y="-421.5" font-family="Helvetica,sans-Serif" font-size="10.00">Prototype/sources/Loop</text>
<text text-anchor="middle" x="278" y="-410.5" font-family="Helvetica,sans-Serif" font-size="10.00">/main.cpp</text>
</a>
</g>
</g>
<!-- Node2 -->
<g id="node2" class="node">
<title>Node2</title>
<g id="a_node2"><a xlink:title=" ">
<polygon fill="white" stroke="#bfbfbf" points="74,-6 74,-25 134,-25 134,-6 74,-6"/>
<text text-anchor="middle" x="104" y="-13" font-family="Helvetica,sans-Serif" font-size="10.00">iostream</text>
</a>
</g>
</g>
<!-- Node1&#45;&gt;Node2 -->
<g id="edge1" class="edge">
<title>Node1&#45;&gt;Node2</title>
<path fill="none" stroke="midnightblue" d="M212.47,-417.61C130.28,-413.91 0,-393.59 0,-302 0,-302 0,-302 0,-132 0,-85.29 47.55,-48.94 78.34,-30.3"/>
<polygon fill="midnightblue" stroke="midnightblue" points="80.41,-33.15 87.29,-25.09 76.89,-27.1 80.41,-33.15"/>
</g>
<!-- Node3 -->
<g id="node3" class="node">
<title>Node3</title>
<g id="a_node3"><a xlink:href="Window_8hpp.html" target="_top" xlink:title=" ">
<polygon fill="white" stroke="black" points="590,-291.5 590,-310.5 666,-310.5 666,-291.5 590,-291.5"/>
<text text-anchor="middle" x="628" y="-298.5" font-family="Helvetica,sans-Serif" font-size="10.00">Window.hpp</text>
</a>
</g>
</g>
<!-- Node1&#45;&gt;Node3 -->
<g id="edge2" class="edge">
<title>Node1&#45;&gt;Node3</title>
<path fill="none" stroke="midnightblue" d="M301.09,-403.31C327.83,-387.44 373.65,-362.01 416,-347 470.5,-327.68 535.96,-315.34 579.59,-308.56"/>
<polygon fill="midnightblue" stroke="midnightblue" points="580.28,-311.99 589.64,-307.04 579.23,-305.07 580.28,-311.99"/>
</g>
<!-- Node4 -->
<g id="node4" class="node">
<title>Node4</title>
<g id="a_node4"><a xlink:href="Vector2_8hpp.html" target="_top" xlink:title=" ">
<polygon fill="white" stroke="black" points="335,-179.5 335,-198.5 409,-198.5 409,-179.5 335,-179.5"/>
<text text-anchor="middle" x="372" y="-186.5" font-family="Helvetica,sans-Serif" font-size="10.00">Vector2.hpp</text>
</a>
</g>
</g>
<!-- Node1&#45;&gt;Node4 -->
<g id="edge36" class="edge">
<title>Node1&#45;&gt;Node4</title>
<path fill="none" stroke="midnightblue" d="M279.17,-403.2C282.33,-371.01 293.26,-291.27 327,-235 333.7,-223.83 343.77,-213.4 352.69,-205.4"/>
<polygon fill="midnightblue" stroke="midnightblue" points="355.1,-207.95 360.43,-198.79 350.55,-202.63 355.1,-207.95"/>
</g>
<!-- Node6 -->
<g id="node6" class="node">
<title>Node6</title>
<g id="a_node6"><a xlink:title=" ">
<polygon fill="white" stroke="#bfbfbf" points="171.5,-67.5 171.5,-86.5 218.5,-86.5 218.5,-67.5 171.5,-67.5"/>
<text text-anchor="middle" x="195" y="-74.5" font-family="Helvetica,sans-Serif" font-size="10.00">cmath</text>
</a>
</g>
</g>
<!-- Node1&#45;&gt;Node6 -->
<g id="edge79" class="edge">
<title>Node1&#45;&gt;Node6</title>
<path fill="none" stroke="midnightblue" d="M212.42,-413.48C141.36,-405.15 38,-379.68 38,-302 38,-302 38,-302 38,-188 38,-128.13 115.53,-98.08 161.62,-85.51"/>
<polygon fill="midnightblue" stroke="midnightblue" points="162.69,-88.85 171.5,-82.95 160.94,-82.07 162.69,-88.85"/>
</g>
<!-- Node7 -->
<g id="node7" class="node">
<title>Node7</title>
<g id="a_node7"><a xlink:href="Vector3_8hpp.html" target="_top" xlink:title=" ">
<polygon fill="white" stroke="black" points="482,-123.5 482,-142.5 556,-142.5 556,-123.5 482,-123.5"/>
<text text-anchor="middle" x="519" y="-130.5" font-family="Helvetica,sans-Serif" font-size="10.00">Vector3.hpp</text>
</a>
</g>
</g>
<!-- Node1&#45;&gt;Node7 -->
<g id="edge37" class="edge">
<title>Node1&#45;&gt;Node7</title>
<path fill="none" stroke="midnightblue" d="M212.42,-407.86C153.43,-395.05 76,-366.03 76,-302 76,-302 76,-302 76,-244 76,-163.12 357.66,-141.28 471.81,-135.76"/>
<polygon fill="midnightblue" stroke="midnightblue" points="472.16,-139.24 481.99,-135.29 471.84,-132.25 472.16,-139.24"/>
</g>
<!-- Node17 -->
<g id="node17" class="node">
<title>Node17</title>
<g id="a_node17"><a xlink:href="BoundingBox_8hpp.html" target="_top" xlink:title=" ">
<polygon fill="white" stroke="black" points="451,-235.5 451,-254.5 553,-254.5 553,-235.5 451,-235.5"/>
<text text-anchor="middle" x="502" y="-242.5" font-family="Helvetica,sans-Serif" font-size="10.00">BoundingBox.hpp</text>
</a>
</g>
</g>
<!-- Node1&#45;&gt;Node17 -->
<g id="edge72" class="edge">
<title>Node1&#45;&gt;Node17</title>
<path fill="none" stroke="midnightblue" d="M295.85,-403.36C313.96,-389.05 342.82,-366.35 368,-347 408.29,-316.04 455.89,-280.38 482.13,-260.8"/>
<polygon fill="midnightblue" stroke="midnightblue" points="484.55,-263.36 490.47,-254.58 480.36,-257.75 484.55,-263.36"/>
</g>
<!-- Node18 -->
<g id="node18" class="node">
<title>Node18</title>
<g id="a_node18"><a xlink:href="Camera3D_8hpp.html" target="_top" xlink:title=" ">
<polygon fill="white" stroke="black" points="344.5,-235.5 344.5,-254.5 433.5,-254.5 433.5,-235.5 344.5,-235.5"/>
<text text-anchor="middle" x="389" y="-242.5" font-family="Helvetica,sans-Serif" font-size="10.00">Camera3D.hpp</text>
</a>
</g>
</g>
<!-- Node1&#45;&gt;Node18 -->
<g id="edge30" class="edge">
<title>Node1&#45;&gt;Node18</title>
<path fill="none" stroke="midnightblue" d="M282.97,-403.26C291.94,-378.79 312.47,-327.83 340,-291 348.34,-279.84 359.71,-269.2 369.39,-261.07"/>
<polygon fill="midnightblue" stroke="midnightblue" points="371.78,-263.64 377.35,-254.63 367.37,-258.2 371.78,-263.64"/>
</g>
<!-- Node19 -->
<g id="node19" class="node">
<title>Node19</title>
<g id="a_node19"><a xlink:href="Ray_8hpp.html" target="_top" xlink:title=" ">
<polygon fill="white" stroke="black" points="261.5,-179.5 261.5,-198.5 316.5,-198.5 316.5,-179.5 261.5,-179.5"/>
<text text-anchor="middle" x="289" y="-186.5" font-family="Helvetica,sans-Serif" font-size="10.00">Ray.hpp</text>
</a>
</g>
</g>
<!-- Node1&#45;&gt;Node19 -->
<g id="edge73" class="edge">
<title>Node1&#45;&gt;Node19</title>
<path fill="none" stroke="midnightblue" d="M224.13,-403.41C203.77,-395.66 181.93,-384.04 167,-367 127.09,-321.43 96.58,-283.41 133,-235 147.22,-216.1 209.81,-202.65 251.26,-195.62"/>
<polygon fill="midnightblue" stroke="midnightblue" points="252,-199.04 261.3,-193.97 250.86,-192.13 252,-199.04"/>
</g>
<!-- Node20 -->
<g id="node20" class="node">
<title>Node20</title>
<g id="a_node20"><a xlink:href="Model_8hpp.html" target="_top" xlink:title=" ">
<polygon fill="white" stroke="black" points="1249,-347.5 1249,-366.5 1317,-366.5 1317,-347.5 1249,-347.5"/>
<text text-anchor="middle" x="1283" y="-354.5" font-family="Helvetica,sans-Serif" font-size="10.00">Model.hpp</text>
</a>
</g>
</g>
<!-- Node1&#45;&gt;Node20 -->
<g id="edge38" class="edge">
<title>Node1&#45;&gt;Node20</title>
<path fill="none" stroke="midnightblue" d="M343.55,-413.62C533.14,-402.39 1078.72,-370.09 1238.52,-360.63"/>
<polygon fill="midnightblue" stroke="midnightblue" points="1239.14,-364.1 1248.91,-360.02 1238.72,-357.12 1239.14,-364.1"/>
</g>
<!-- Node21 -->
<g id="node21" class="node">
<title>Node21</title>
<g id="a_node21"><a xlink:href="Texture_8hpp.html" target="_top" xlink:title=" ">
<polygon fill="white" stroke="black" points="793,-291.5 793,-310.5 867,-310.5 867,-291.5 793,-291.5"/>
<text text-anchor="middle" x="830" y="-298.5" font-family="Helvetica,sans-Serif" font-size="10.00">Texture.hpp</text>
</a>
</g>
</g>
<!-- Node1&#45;&gt;Node21 -->
<g id="edge69" class="edge">
<title>Node1&#45;&gt;Node21</title>
<path fill="none" stroke="midnightblue" d="M315.21,-403.49C340.88,-393.67 375.71,-380.01 406,-367 425.37,-358.68 428.72,-352.75 449,-347 510.65,-329.51 694.89,-312.89 782.59,-305.71"/>
<polygon fill="midnightblue" stroke="midnightblue" points="783.11,-309.18 792.79,-304.88 782.54,-302.2 783.11,-309.18"/>
</g>
<!-- Node29 -->
<g id="node29" class="node">
<title>Node29</title>
<g id="a_node29"><a xlink:href="Input_8hpp.html" target="_top" xlink:title=" ">
<polygon fill="white" stroke="black" points="188,-347.5 188,-366.5 250,-366.5 250,-347.5 188,-347.5"/>
<text text-anchor="middle" x="219" y="-354.5" font-family="Helvetica,sans-Serif" font-size="10.00">Input.hpp</text>
</a>
</g>
</g>
<!-- Node1&#45;&gt;Node29 -->
<g id="edge70" class="edge">
<title>Node1&#45;&gt;Node29</title>
<path fill="none" stroke="midnightblue" d="M264.02,-403.4C255.27,-394.58 243.97,-383.18 234.88,-374.02"/>
<polygon fill="midnightblue" stroke="midnightblue" points="237.11,-371.29 227.59,-366.66 232.14,-376.22 237.11,-371.29"/>
</g>
<!-- Node30 -->
<g id="node30" class="node">
<title>Node30</title>
<g id="a_node30"><a xlink:title=" ">
<polygon fill="white" stroke="#bfbfbf" points="458,-347.5 458,-366.5 546,-366.5 546,-347.5 458,-347.5"/>
<text text-anchor="middle" x="502" y="-354.5" font-family="Helvetica,sans-Serif" font-size="10.00">Physics3D.hpp</text>
</a>
</g>
</g>
<!-- Node1&#45;&gt;Node30 -->
<g id="edge74" class="edge">
<title>Node1&#45;&gt;Node30</title>
<path fill="none" stroke="midnightblue" d="M330.8,-403.47C370.29,-392.99 423.56,-378.84 460.13,-369.12"/>
<polygon fill="midnightblue" stroke="midnightblue" points="461.21,-372.46 469.98,-366.51 459.41,-365.69 461.21,-372.46"/>
</g>
<!-- Node31 -->
<g id="node31" class="node">
<title>Node31</title>
<g id="a_node31"><a xlink:href="Mouse_8hpp.html" target="_top" xlink:title=" ">
<polygon fill="white" stroke="black" points="142,-235.5 142,-254.5 212,-254.5 212,-235.5 142,-235.5"/>
<text text-anchor="middle" x="177" y="-242.5" font-family="Helvetica,sans-Serif" font-size="10.00">Mouse.hpp</text>
</a>
</g>
</g>
<!-- Node1&#45;&gt;Node31 -->
<g id="edge75" class="edge">
<title>Node1&#45;&gt;Node31</title>
<path fill="none" stroke="midnightblue" d="M226.49,-403.46C208.31,-395.77 189.72,-384.19 179,-367 159.33,-335.48 165.88,-289.77 171.81,-264.52"/>
<polygon fill="midnightblue" stroke="midnightblue" points="175.22,-265.31 174.32,-254.76 168.44,-263.57 175.22,-265.31"/>
</g>
<!-- Node3&#45;&gt;Node3 -->
<g id="edge22" class="edge">
<title>Node3&#45;&gt;Node3</title>
<path fill="none" stroke="midnightblue" d="M651.88,-310.53C668.11,-313.31 684,-310.13 684,-301 684,-293.79 674.11,-290.3 661.96,-290.51"/>
<polygon fill="midnightblue" stroke="midnightblue" points="661.5,-287.04 651.88,-291.47 662.17,-294 661.5,-287.04"/>
</g>
<!-- Node3&#45;&gt;Node4 -->
<g id="edge3" class="edge">
<title>Node3&#45;&gt;Node4</title>
<path fill="none" stroke="midnightblue" d="M589.78,-300C518.21,-299.09 368.27,-292.62 336,-255 323.1,-239.96 338.63,-219.58 353.13,-205.67"/>
<polygon fill="midnightblue" stroke="midnightblue" points="355.79,-207.98 360.88,-198.69 351.11,-202.78 355.79,-207.98"/>
</g>
<!-- Node3&#45;&gt;Node7 -->
<g id="edge16" class="edge">
<title>Node3&#45;&gt;Node7</title>
<path fill="none" stroke="midnightblue" d="M632.4,-291.15C638.18,-278.21 646.63,-253.65 638,-235 619.1,-194.17 574.66,-163.82 545.76,-147.53"/>
<polygon fill="midnightblue" stroke="midnightblue" points="547.43,-144.45 536.97,-142.74 544.08,-150.6 547.43,-144.45"/>
</g>
<!-- Node13 -->
<g id="node13" class="node">
<title>Node13</title>
<g id="a_node13"><a xlink:href="Color_8hpp.html" target="_top" xlink:title=" ">
<polygon fill="white" stroke="black" points="940,-179.5 940,-198.5 1002,-198.5 1002,-179.5 940,-179.5"/>
<text text-anchor="middle" x="971" y="-186.5" font-family="Helvetica,sans-Serif" font-size="10.00">Color.hpp</text>
</a>
</g>
</g>
<!-- Node3&#45;&gt;Node13 -->
<g id="edge17" class="edge">
<title>Node3&#45;&gt;Node13</title>
<path fill="none" stroke="midnightblue" d="M666.31,-294.66C709,-288.06 779.68,-275.16 838,-255 878.02,-241.16 921.62,-218.21 947.61,-203.61"/>
<polygon fill="midnightblue" stroke="midnightblue" points="949.39,-206.63 956.35,-198.64 945.93,-200.54 949.39,-206.63"/>
</g>
<!-- Node14 -->
<g id="node14" class="node">
<title>Node14</title>
<g id="a_node14"><a xlink:title=" ">
<polygon fill="white" stroke="#bfbfbf" points="835,-179.5 835,-198.5 879,-198.5 879,-179.5 835,-179.5"/>
<text text-anchor="middle" x="857" y="-186.5" font-family="Helvetica,sans-Serif" font-size="10.00">string</text>
</a>
</g>
</g>
<!-- Node3&#45;&gt;Node14 -->
<g id="edge20" class="edge">
<title>Node3&#45;&gt;Node14</title>
<path fill="none" stroke="midnightblue" d="M643.46,-291.4C666.73,-278.56 712.27,-253.89 752,-235 776.58,-223.31 804.99,-211.22 826.06,-202.52"/>
<polygon fill="midnightblue" stroke="midnightblue" points="827.54,-205.69 835.47,-198.65 824.89,-199.21 827.54,-205.69"/>
</g>
<!-- Node15 -->
<g id="node15" class="node">
<title>Node15</title>
<g id="a_node15"><a xlink:title=" ">
<polygon fill="white" stroke="#bfbfbf" points="571,-235.5 571,-254.5 629,-254.5 629,-235.5 571,-235.5"/>
<text text-anchor="middle" x="600" y="-242.5" font-family="Helvetica,sans-Serif" font-size="10.00">memory</text>
</a>
</g>
</g>
<!-- Node3&#45;&gt;Node15 -->
<g id="edge21" class="edge">
<title>Node3&#45;&gt;Node15</title>
<path fill="none" stroke="midnightblue" d="M623.38,-291.08C619.54,-283.69 613.98,-272.95 609.24,-263.81"/>
<polygon fill="midnightblue" stroke="midnightblue" points="612.25,-262.02 604.54,-254.75 606.03,-265.24 612.25,-262.02"/>
</g>
<!-- Node16 -->
<g id="node16" class="node">
<title>Node16</title>
<g id="a_node16"><a xlink:href="Image_8hpp.html" target="_top" xlink:title=" ">
<polygon fill="white" stroke="black" points="761,-235.5 761,-254.5 829,-254.5 829,-235.5 761,-235.5"/>
<text text-anchor="middle" x="795" y="-242.5" font-family="Helvetica,sans-Serif" font-size="10.00">Image.hpp</text>
</a>
</g>
</g>
<!-- Node3&#45;&gt;Node16 -->
<g id="edge23" class="edge">
<title>Node3&#45;&gt;Node16</title>
<path fill="none" stroke="midnightblue" d="M654.46,-291.44C682.68,-282.32 727.54,-267.81 758.97,-257.65"/>
<polygon fill="midnightblue" stroke="midnightblue" points="760.22,-260.92 768.66,-254.52 758.07,-254.26 760.22,-260.92"/>
</g>
<!-- Node3&#45;&gt;Node17 -->
<g id="edge28" class="edge">
<title>Node3&#45;&gt;Node17</title>
<path fill="none" stroke="midnightblue" d="M608.03,-291.44C587.39,-282.6 554.94,-268.69 531.37,-258.59"/>
<polygon fill="midnightblue" stroke="midnightblue" points="532.44,-255.24 521.87,-254.52 529.68,-261.67 532.44,-255.24"/>
</g>
<!-- Node5 -->
<g id="node5" class="node">
<title>Node5</title>
<g id="a_node5"><a xlink:title=" ">
<polygon fill="white" stroke="#bfbfbf" points="1035.5,-67.5 1035.5,-86.5 1088.5,-86.5 1088.5,-67.5 1035.5,-67.5"/>
<text text-anchor="middle" x="1062" y="-74.5" font-family="Helvetica,sans-Serif" font-size="10.00">raylib.h</text>
</a>
</g>
</g>
<!-- Node4&#45;&gt;Node5 -->
<g id="edge4" class="edge">
<title>Node4&#45;&gt;Node5</title>
<path fill="none" stroke="midnightblue" d="M376.58,-179.33C384.83,-164.72 403.73,-135.55 429,-123 482.39,-96.49 897.89,-82.64 1025.11,-78.99"/>
<polygon fill="midnightblue" stroke="midnightblue" points="1025.24,-82.49 1035.14,-78.71 1025.04,-75.49 1025.24,-82.49"/>
</g>
<!-- Node4&#45;&gt;Node6 -->
<g id="edge5" class="edge">
<title>Node4&#45;&gt;Node6</title>
<path fill="none" stroke="midnightblue" d="M358.11,-179.37C327.61,-160.41 254.54,-115 217.43,-91.94"/>
<polygon fill="midnightblue" stroke="midnightblue" points="219.17,-88.9 208.82,-86.59 215.47,-94.84 219.17,-88.9"/>
</g>
<!-- Node4&#45;&gt;Node7 -->
<g id="edge6" class="edge">
<title>Node4&#45;&gt;Node7</title>
<path fill="none" stroke="midnightblue" d="M395.29,-179.44C419.81,-170.44 458.6,-156.19 486.2,-146.05"/>
<polygon fill="midnightblue" stroke="midnightblue" points="487.64,-149.25 495.82,-142.52 485.22,-142.68 487.64,-149.25"/>
</g>
<!-- Node8 -->
<g id="node8" class="node">
<title>Node8</title>
<g id="a_node8"><a xlink:href="IXMLSerializable_8hpp.html" target="_top" xlink:title=" ">
<polygon fill="white" stroke="black" points="307.5,-67.5 307.5,-86.5 426.5,-86.5 426.5,-67.5 307.5,-67.5"/>
<text text-anchor="middle" x="367" y="-74.5" font-family="Helvetica,sans-Serif" font-size="10.00">IXMLSerializable.hpp</text>
</a>
</g>
</g>
<!-- Node4&#45;&gt;Node8 -->
<g id="edge15" class="edge">
<title>Node4&#45;&gt;Node8</title>
<path fill="none" stroke="midnightblue" d="M371.61,-179.37C370.8,-161.62 368.94,-120.67 367.85,-96.6"/>
<polygon fill="midnightblue" stroke="midnightblue" points="371.34,-96.42 367.39,-86.59 364.35,-96.74 371.34,-96.42"/>
</g>
<!-- Node7&#45;&gt;Node5 -->
<g id="edge7" class="edge">
<title>Node7&#45;&gt;Node5</title>
<path fill="none" stroke="midnightblue" d="M556.32,-128.29C655.85,-118.39 926.7,-91.46 1025.39,-81.64"/>
<polygon fill="midnightblue" stroke="midnightblue" points="1025.88,-85.11 1035.48,-80.64 1025.18,-78.14 1025.88,-85.11"/>
</g>
<!-- Node7&#45;&gt;Node6 -->
<g id="edge13" class="edge">
<title>Node7&#45;&gt;Node6</title>
<path fill="none" stroke="midnightblue" d="M481.83,-125.81C418.2,-115.2 289.35,-93.72 228.4,-83.57"/>
<polygon fill="midnightblue" stroke="midnightblue" points="228.96,-80.11 218.53,-81.92 227.81,-87.02 228.96,-80.11"/>
</g>
<!-- Node7&#45;&gt;Node8 -->
<g id="edge8" class="edge">
<title>Node7&#45;&gt;Node8</title>
<path fill="none" stroke="midnightblue" d="M494.92,-123.44C469.46,-114.4 429.11,-100.06 400.54,-89.92"/>
<polygon fill="midnightblue" stroke="midnightblue" points="401.57,-86.57 390.97,-86.52 399.22,-93.16 401.57,-86.57"/>
</g>
<!-- Node12 -->
<g id="node12" class="node">
<title>Node12</title>
<g id="a_node12"><a xlink:title=" ">
<polygon fill="white" stroke="#bfbfbf" points="491,-67.5 491,-86.5 547,-86.5 547,-67.5 491,-67.5"/>
<text text-anchor="middle" x="519" y="-74.5" font-family="Helvetica,sans-Serif" font-size="10.00">sstream</text>
</a>
</g>
</g>
<!-- Node7&#45;&gt;Node12 -->
<g id="edge14" class="edge">
<title>Node7&#45;&gt;Node12</title>
<path fill="none" stroke="midnightblue" d="M519,-123.08C519,-116.01 519,-105.86 519,-96.99"/>
<polygon fill="midnightblue" stroke="midnightblue" points="522.5,-96.75 519,-86.75 515.5,-96.75 522.5,-96.75"/>
</g>
<!-- Node8&#45;&gt;Node2 -->
<g id="edge10" class="edge">
<title>Node8&#45;&gt;Node2</title>
<path fill="none" stroke="midnightblue" d="M329.32,-67.48C280.15,-56.35 194.48,-36.97 144.13,-25.58"/>
<polygon fill="midnightblue" stroke="midnightblue" points="144.78,-22.14 134.25,-23.34 143.23,-28.96 144.78,-22.14"/>
</g>
<!-- Node9 -->
<g id="node9" class="node">
<title>Node9</title>
<g id="a_node9"><a xlink:title=" ">
<polygon fill="white" stroke="#bfbfbf" points="235.5,-6 235.5,-25 292.5,-25 292.5,-6 235.5,-6"/>
<text text-anchor="middle" x="264" y="-13" font-family="Helvetica,sans-Serif" font-size="10.00">ostream</text>
</a>
</g>
</g>
<!-- Node8&#45;&gt;Node9 -->
<g id="edge9" class="edge">
<title>Node8&#45;&gt;Node9</title>
<path fill="none" stroke="midnightblue" d="M352.24,-67.48C335.34,-57.71 307.42,-41.58 287.51,-30.08"/>
<polygon fill="midnightblue" stroke="midnightblue" points="289.14,-26.98 278.73,-25.01 285.64,-33.04 289.14,-26.98"/>
</g>
<!-- Node10 -->
<g id="node10" class="node">
<title>Node10</title>
<g id="a_node10"><a xlink:title=" ">
<polygon fill="white" stroke="#bfbfbf" points="310.5,-0.5 310.5,-30.5 423.5,-30.5 423.5,-0.5 310.5,-0.5"/>
<text text-anchor="start" x="318.5" y="-18.5" font-family="Helvetica,sans-Serif" font-size="10.00">boost/property_tree</text>
<text text-anchor="middle" x="367" y="-7.5" font-family="Helvetica,sans-Serif" font-size="10.00">/ptree.hpp</text>
</a>
</g>
</g>
<!-- Node8&#45;&gt;Node10 -->
<g id="edge11" class="edge">
<title>Node8&#45;&gt;Node10</title>
<path fill="none" stroke="midnightblue" d="M367,-67.48C367,-60.47 367,-50.19 367,-40.7"/>
<polygon fill="midnightblue" stroke="midnightblue" points="370.5,-40.52 367,-30.52 363.5,-40.52 370.5,-40.52"/>
</g>
<!-- Node11 -->
<g id="node11" class="node">
<title>Node11</title>
<g id="a_node11"><a xlink:title=" ">
<polygon fill="white" stroke="#bfbfbf" points="441.5,-0.5 441.5,-30.5 554.5,-30.5 554.5,-0.5 441.5,-0.5"/>
<text text-anchor="start" x="449.5" y="-18.5" font-family="Helvetica,sans-Serif" font-size="10.00">boost/property_tree</text>
<text text-anchor="middle" x="498" y="-7.5" font-family="Helvetica,sans-Serif" font-size="10.00">/xml_parser.hpp</text>
</a>
</g>
</g>
<!-- Node8&#45;&gt;Node11 -->
<g id="edge12" class="edge">
<title>Node8&#45;&gt;Node11</title>
<path fill="none" stroke="midnightblue" d="M385.77,-67.48C404.51,-58.96 433.89,-45.62 457.89,-34.72"/>
<polygon fill="midnightblue" stroke="midnightblue" points="459.47,-37.85 467.13,-30.52 456.57,-31.47 459.47,-37.85"/>
</g>
<!-- Node13&#45;&gt;Node5 -->
<g id="edge18" class="edge">
<title>Node13&#45;&gt;Node5</title>
<path fill="none" stroke="midnightblue" d="M978.14,-179.37C993.29,-161.05 1028.87,-118.05 1048.46,-94.36"/>
<polygon fill="midnightblue" stroke="midnightblue" points="1051.22,-96.53 1054.89,-86.59 1045.82,-92.07 1051.22,-96.53"/>
</g>
<!-- Node13&#45;&gt;Node7 -->
<g id="edge19" class="edge">
<title>Node13&#45;&gt;Node7</title>
<path fill="none" stroke="midnightblue" d="M939.93,-184.29C862.17,-175 658.75,-150.7 566.14,-139.63"/>
<polygon fill="midnightblue" stroke="midnightblue" points="566.55,-136.16 556.21,-138.45 565.72,-143.11 566.55,-136.16"/>
</g>
<!-- Node16&#45;&gt;Node4 -->
<g id="edge27" class="edge">
<title>Node16&#45;&gt;Node4</title>
<path fill="none" stroke="midnightblue" d="M760.74,-239.63C685.43,-230.01 505.32,-207.02 419.3,-196.04"/>
<polygon fill="midnightblue" stroke="midnightblue" points="419.65,-192.55 409.29,-194.76 418.76,-199.5 419.65,-192.55"/>
</g>
<!-- Node16&#45;&gt;Node5 -->
<g id="edge25" class="edge">
<title>Node16&#45;&gt;Node5</title>
<path fill="none" stroke="midnightblue" d="M797.04,-235.25C800.65,-221.54 809.41,-194.93 826,-179 883.14,-124.13 974.71,-96.77 1025.35,-85.16"/>
<polygon fill="midnightblue" stroke="midnightblue" points="1026.2,-88.56 1035.21,-82.98 1024.69,-81.72 1026.2,-88.56"/>
</g>
<!-- Node16&#45;&gt;Node13 -->
<g id="edge26" class="edge">
<title>Node16&#45;&gt;Node13</title>
<path fill="none" stroke="midnightblue" d="M822.89,-235.44C852.75,-226.28 900.31,-211.69 933.46,-201.52"/>
<polygon fill="midnightblue" stroke="midnightblue" points="934.71,-204.8 943.24,-198.52 932.66,-198.1 934.71,-204.8"/>
</g>
<!-- Node16&#45;&gt;Node14 -->
<g id="edge24" class="edge">
<title>Node16&#45;&gt;Node14</title>
<path fill="none" stroke="midnightblue" d="M804.96,-235.32C814.13,-227.34 827.94,-215.31 839.03,-205.65"/>
<polygon fill="midnightblue" stroke="midnightblue" points="841.62,-208.04 846.86,-198.83 837.02,-202.76 841.62,-208.04"/>
</g>
<!-- Node17&#45;&gt;Node7 -->
<g id="edge29" class="edge">
<title>Node17&#45;&gt;Node7</title>
<path fill="none" stroke="midnightblue" d="M503.33,-235.37C506.08,-217.62 512.41,-176.67 516.13,-152.6"/>
<polygon fill="midnightblue" stroke="midnightblue" points="519.6,-153.01 517.67,-142.59 512.69,-151.94 519.6,-153.01"/>
</g>
<!-- Node18&#45;&gt;Node4 -->
<g id="edge32" class="edge">
<title>Node18&#45;&gt;Node4</title>
<path fill="none" stroke="midnightblue" d="M386.19,-235.08C383.92,-227.85 380.63,-217.41 377.79,-208.4"/>
<polygon fill="midnightblue" stroke="midnightblue" points="381.1,-207.24 374.75,-198.75 374.42,-209.34 381.1,-207.24"/>
</g>
<!-- Node18&#45;&gt;Node5 -->
<g id="edge31" class="edge">
<title>Node18&#45;&gt;Node5</title>
<path fill="none" stroke="midnightblue" d="M394.81,-235.19C412.86,-207.9 467.09,-126.38 473,-123 520.84,-95.6 903.8,-82.48 1025.21,-78.98"/>
<polygon fill="midnightblue" stroke="midnightblue" points="1025.58,-82.48 1035.48,-78.69 1025.38,-75.48 1025.58,-82.48"/>
</g>
<!-- Node18&#45;&gt;Node7 -->
<g id="edge33" class="edge">
<title>Node18&#45;&gt;Node7</title>
<path fill="none" stroke="midnightblue" d="M404,-235.42C418.24,-226.96 439.96,-213.26 457,-199 475.03,-183.92 493.32,-164.06 505.31,-150.28"/>
<polygon fill="midnightblue" stroke="midnightblue" points="508.06,-152.46 511.91,-142.59 502.74,-147.9 508.06,-152.46"/>
</g>
<!-- Node18&#45;&gt;Node19 -->
<g id="edge34" class="edge">
<title>Node18&#45;&gt;Node19</title>
<path fill="none" stroke="midnightblue" d="M372.93,-235.32C357.04,-226.74 332.49,-213.49 314.04,-203.52"/>
<polygon fill="midnightblue" stroke="midnightblue" points="315.49,-200.33 305.03,-198.65 312.16,-206.49 315.49,-200.33"/>
</g>
<!-- Node19&#45;&gt;Node7 -->
<g id="edge35" class="edge">
<title>Node19&#45;&gt;Node7</title>
<path fill="none" stroke="midnightblue" d="M316.87,-181.19C319.95,-180.45 323.04,-179.7 326,-179 375.88,-167.12 433.09,-153.82 472.19,-144.78"/>
<polygon fill="midnightblue" stroke="midnightblue" points="473.02,-148.18 481.98,-142.52 471.44,-141.36 473.02,-148.18"/>
</g>
<!-- Node20&#45;&gt;Node5 -->
<g id="edge39" class="edge">
<title>Node20&#45;&gt;Node5</title>
<path fill="none" stroke="midnightblue" d="M1317.03,-355.43C1369.39,-353.43 1471.92,-345.07 1551,-311 1595,-292.04 1637,-293.91 1637,-246 1637,-246 1637,-246 1637,-188 1637,-132.95 1225.15,-92.29 1098.56,-81.09"/>
<polygon fill="midnightblue" stroke="midnightblue" points="1098.85,-77.61 1088.58,-80.22 1098.24,-84.58 1098.85,-77.61"/>
</g>
<!-- Node20&#45;&gt;Node7 -->
<g id="edge41" class="edge">
<title>Node20&#45;&gt;Node7</title>
<path fill="none" stroke="midnightblue" d="M1265.24,-347.36C1247.96,-338.76 1221.16,-324.87 1199,-311 1150.17,-280.44 1141.22,-268 1094,-235 1084.88,-228.63 1021.48,-182.73 1011,-179 929.88,-150.09 673.28,-138.84 566.43,-135.34"/>
<polygon fill="midnightblue" stroke="midnightblue" points="566.37,-131.84 556.26,-135.02 566.14,-138.83 566.37,-131.84"/>
</g>
<!-- Node20&#45;&gt;Node13 -->
<g id="edge42" class="edge">
<title>Node20&#45;&gt;Node13</title>
<path fill="none" stroke="midnightblue" d="M1311.2,-347.41C1366.65,-329.19 1480.73,-284.27 1436,-235 1432.44,-231.08 1125.54,-203.64 1012.34,-193.64"/>
<polygon fill="midnightblue" stroke="midnightblue" points="1012.59,-190.14 1002.32,-192.75 1011.97,-197.12 1012.59,-190.14"/>
</g>
<!-- Node20&#45;&gt;Node14 -->
<g id="edge40" class="edge">
<title>Node20&#45;&gt;Node14</title>
<path fill="none" stroke="midnightblue" d="M1253.18,-347.43C1223.54,-338.76 1176.88,-324.72 1137,-311 1070.89,-288.25 1054.14,-282.82 990,-255 951.99,-238.51 909.11,-217.02 882.57,-203.36"/>
<polygon fill="midnightblue" stroke="midnightblue" points="884.06,-200.19 873.57,-198.7 880.84,-206.4 884.06,-200.19"/>
</g>
<!-- Node20&#45;&gt;Node21 -->
<g id="edge43" class="edge">
<title>Node20&#45;&gt;Node21</title>
<path fill="none" stroke="midnightblue" d="M1248.76,-352.9C1179.26,-346.46 1016.72,-330.55 881,-311 879.72,-310.82 878.43,-310.62 877.13,-310.43"/>
<polygon fill="midnightblue" stroke="midnightblue" points="877.43,-306.93 867,-308.81 876.33,-313.84 877.43,-306.93"/>
</g>
<!-- Node24 -->
<g id="node24" class="node">
<title>Node24</title>
<g id="a_node24"><a xlink:href="Mesh_8hpp.html" target="_top" xlink:title=" ">
<polygon fill="white" stroke="black" points="1208,-291.5 1208,-310.5 1272,-310.5 1272,-291.5 1208,-291.5"/>
<text text-anchor="middle" x="1240" y="-298.5" font-family="Helvetica,sans-Serif" font-size="10.00">Mesh.hpp</text>
</a>
</g>
</g>
<!-- Node20&#45;&gt;Node24 -->
<g id="edge54" class="edge">
<title>Node20&#45;&gt;Node24</title>
<path fill="none" stroke="midnightblue" d="M1275.9,-347.08C1269.76,-339.38 1260.73,-328.03 1253.26,-318.65"/>
<polygon fill="midnightblue" stroke="midnightblue" points="1255.94,-316.39 1246.97,-310.75 1250.46,-320.75 1255.94,-316.39"/>
</g>
<!-- Node25 -->
<g id="node25" class="node">
<title>Node25</title>
<g id="a_node25"><a xlink:href="IDrawable_8hpp.html" target="_top" xlink:title=" ">
<polygon fill="white" stroke="black" points="1483.5,-235.5 1483.5,-254.5 1570.5,-254.5 1570.5,-235.5 1483.5,-235.5"/>
<text text-anchor="middle" x="1527" y="-242.5" font-family="Helvetica,sans-Serif" font-size="10.00">IDrawable.hpp</text>
</a>
</g>
</g>
<!-- Node20&#45;&gt;Node25 -->
<g id="edge59" class="edge">
<title>Node20&#45;&gt;Node25</title>
<path fill="none" stroke="midnightblue" d="M1317.11,-355.08C1379.18,-352.61 1506.73,-343.6 1534,-311 1544.78,-298.11 1540.75,-278.39 1535.43,-264.05"/>
<polygon fill="midnightblue" stroke="midnightblue" points="1538.62,-262.6 1531.53,-254.73 1532.17,-265.31 1538.62,-262.6"/>
</g>
<!-- Node26 -->
<g id="node26" class="node">
<title>Node26</title>
<g id="a_node26"><a xlink:href="Shader_8hpp.html" target="_top" xlink:title=" ">
<polygon fill="white" stroke="black" points="1290.5,-291.5 1290.5,-310.5 1361.5,-310.5 1361.5,-291.5 1290.5,-291.5"/>
<text text-anchor="middle" x="1326" y="-298.5" font-family="Helvetica,sans-Serif" font-size="10.00">Shader.hpp</text>
</a>
</g>
</g>
<!-- Node20&#45;&gt;Node26 -->
<g id="edge63" class="edge">
<title>Node20&#45;&gt;Node26</title>
<path fill="none" stroke="midnightblue" d="M1290.1,-347.08C1296.24,-339.38 1305.27,-328.03 1312.74,-318.65"/>
<polygon fill="midnightblue" stroke="midnightblue" points="1315.54,-320.75 1319.03,-310.75 1310.06,-316.39 1315.54,-320.75"/>
</g>
<!-- Node28 -->
<g id="node28" class="node">
<title>Node28</title>
<g id="a_node28"><a xlink:title=" ">
<polygon fill="white" stroke="#bfbfbf" points="1457.5,-291.5 1457.5,-310.5 1524.5,-310.5 1524.5,-291.5 1457.5,-291.5"/>
<text text-anchor="middle" x="1491" y="-298.5" font-family="Helvetica,sans-Serif" font-size="10.00">raymath.h</text>
</a>
</g>
</g>
<!-- Node20&#45;&gt;Node28 -->
<g id="edge68" class="edge">
<title>Node20&#45;&gt;Node28</title>
<path fill="none" stroke="midnightblue" d="M1315.96,-347.44C1351.79,-338.14 1409.16,-323.25 1448.39,-313.06"/>
<polygon fill="midnightblue" stroke="midnightblue" points="1449.4,-316.42 1458.2,-310.52 1447.64,-309.64 1449.4,-316.42"/>
</g>
<!-- Node21&#45;&gt;Node4 -->
<g id="edge48" class="edge">
<title>Node21&#45;&gt;Node4</title>
<path fill="none" stroke="midnightblue" d="M808.45,-291.45C773.29,-277.77 701.13,-250.92 638,-235 562.64,-216 473.21,-202.72 419.62,-195.73"/>
<polygon fill="midnightblue" stroke="midnightblue" points="419.76,-192.22 409.39,-194.42 418.87,-199.17 419.76,-192.22"/>
</g>
<!-- Node21&#45;&gt;Node5 -->
<g id="edge44" class="edge">
<title>Node21&#45;&gt;Node5</title>
<path fill="none" stroke="midnightblue" d="M867.14,-299.32C932.85,-297.26 1065.4,-288.89 1094,-255 1133.4,-208.32 1093.9,-129.63 1073.08,-95.11"/>
<polygon fill="midnightblue" stroke="midnightblue" points="1076.04,-93.24 1067.78,-86.61 1070.1,-96.94 1076.04,-93.24"/>
</g>
<!-- Node21&#45;&gt;Node13 -->
<g id="edge47" class="edge">
<title>Node21&#45;&gt;Node13</title>
<path fill="none" stroke="midnightblue" d="M867.12,-294.01C892.62,-288.11 925.6,-276.69 947,-255 959.27,-242.57 965.34,-223.33 968.3,-209"/>
<polygon fill="midnightblue" stroke="midnightblue" points="971.81,-209.24 970.06,-198.79 964.91,-208.05 971.81,-209.24"/>
</g>
<!-- Node21&#45;&gt;Node14 -->
<g id="edge45" class="edge">
<title>Node21&#45;&gt;Node14</title>
<path fill="none" stroke="midnightblue" d="M832.12,-291.37C836.48,-273.62 846.53,-232.67 852.44,-208.6"/>
<polygon fill="midnightblue" stroke="midnightblue" points="855.91,-209.14 854.89,-198.59 849.11,-207.47 855.91,-209.14"/>
</g>
<!-- Node21&#45;&gt;Node16 -->
<g id="edge46" class="edge">
<title>Node21&#45;&gt;Node16</title>
<path fill="none" stroke="midnightblue" d="M824.22,-291.08C819.33,-283.53 812.17,-272.49 806.17,-263.23"/>
<polygon fill="midnightblue" stroke="midnightblue" points="809.05,-261.24 800.67,-254.75 803.17,-265.05 809.05,-261.24"/>
</g>
<!-- Node21&#45;&gt;Node18 -->
<g id="edge49" class="edge">
<title>Node21&#45;&gt;Node18</title>
<path fill="none" stroke="midnightblue" d="M792.73,-296.34C725.19,-289.56 577.82,-274.11 443.56,-255.16"/>
<polygon fill="midnightblue" stroke="midnightblue" points="443.9,-251.68 433.51,-253.73 442.91,-258.61 443.9,-251.68"/>
</g>
<!-- Node22 -->
<g id="node22" class="node">
<title>Node22</title>
<g id="a_node22"><a xlink:href="Rectangle_8hpp.html" target="_top" xlink:title=" ">
<polygon fill="white" stroke="black" points="999,-235.5 999,-254.5 1085,-254.5 1085,-235.5 999,-235.5"/>
<text text-anchor="middle" x="1042" y="-242.5" font-family="Helvetica,sans-Serif" font-size="10.00">Rectangle.hpp</text>
</a>
</g>
</g>
<!-- Node21&#45;&gt;Node22 -->
<g id="edge50" class="edge">
<title>Node21&#45;&gt;Node22</title>
<path fill="none" stroke="midnightblue" d="M863.59,-291.44C900.19,-282.12 958.84,-267.18 998.83,-257"/>
<polygon fill="midnightblue" stroke="midnightblue" points="999.74,-260.38 1008.57,-254.52 998.01,-253.59 999.74,-260.38"/>
</g>
<!-- Node23 -->
<g id="node23" class="node">
<title>Node23</title>
<g id="a_node23"><a xlink:href="IAsset_8hpp.html" target="_top" xlink:title=" ">
<polygon fill="white" stroke="black" points="1179,-235.5 1179,-254.5 1247,-254.5 1247,-235.5 1179,-235.5"/>
<text text-anchor="middle" x="1213" y="-242.5" font-family="Helvetica,sans-Serif" font-size="10.00">IAsset.hpp</text>
</a>
</g>
</g>
<!-- Node21&#45;&gt;Node23 -->
<g id="edge53" class="edge">
<title>Node21&#45;&gt;Node23</title>
<path fill="none" stroke="midnightblue" d="M867.07,-294.77C937.98,-284.78 1092.55,-262.98 1168.74,-252.24"/>
<polygon fill="midnightblue" stroke="midnightblue" points="1169.54,-255.66 1178.95,-250.8 1168.56,-248.73 1169.54,-255.66"/>
</g>
<!-- Node22&#45;&gt;Node5 -->
<g id="edge51" class="edge">
<title>Node22&#45;&gt;Node5</title>
<path fill="none" stroke="midnightblue" d="M1043.08,-235.08C1046.22,-208.95 1055.47,-132.21 1059.76,-96.58"/>
<polygon fill="midnightblue" stroke="midnightblue" points="1063.25,-96.92 1060.97,-86.57 1056.3,-96.08 1063.25,-96.92"/>
</g>
<!-- Node22&#45;&gt;Node13 -->
<g id="edge52" class="edge">
<title>Node22&#45;&gt;Node13</title>
<path fill="none" stroke="midnightblue" d="M1030.59,-235.32C1019.89,-227.18 1003.66,-214.84 990.84,-205.09"/>
<polygon fill="midnightblue" stroke="midnightblue" points="992.69,-202.1 982.61,-198.83 988.46,-207.67 992.69,-202.1"/>
</g>
<!-- Node24&#45;&gt;Node5 -->
<g id="edge55" class="edge">
<title>Node24&#45;&gt;Node5</title>
<path fill="none" stroke="midnightblue" d="M1248.75,-291.29C1256.56,-282.84 1267.45,-269.25 1272,-255 1274.7,-246.53 1274.61,-243.5 1272,-235 1254.33,-177.5 1243.92,-159.37 1196,-123 1167.28,-101.2 1127.37,-89.6 1098.59,-83.67"/>
<polygon fill="midnightblue" stroke="midnightblue" points="1099.01,-80.19 1088.53,-81.74 1097.69,-87.06 1099.01,-80.19"/>
</g>
<!-- Node24&#45;&gt;Node7 -->
<g id="edge57" class="edge">
<title>Node24&#45;&gt;Node7</title>
<path fill="none" stroke="midnightblue" d="M1246.29,-291.4C1255.33,-277.91 1269.5,-251.58 1256,-235 1206.14,-173.76 1156.34,-225.65 1082,-199 1064.03,-192.56 1062.32,-184.37 1044,-179 955.13,-152.96 678.44,-139.96 566.61,-135.66"/>
<polygon fill="midnightblue" stroke="midnightblue" points="566.44,-132.16 556.31,-135.28 566.17,-139.15 566.44,-132.16"/>
</g>
<!-- Node24&#45;&gt;Node16 -->
<g id="edge56" class="edge">
<title>Node24&#45;&gt;Node16</title>
<path fill="none" stroke="midnightblue" d="M1208,-296.12C1129.78,-286.63 928.81,-262.24 839.24,-251.37"/>
<polygon fill="midnightblue" stroke="midnightblue" points="839.48,-247.87 829.13,-250.14 838.64,-254.82 839.48,-247.87"/>
</g>
<!-- Node24&#45;&gt;Node23 -->
<g id="edge58" class="edge">
<title>Node24&#45;&gt;Node23</title>
<path fill="none" stroke="midnightblue" d="M1235.54,-291.08C1231.85,-283.69 1226.48,-272.95 1221.91,-263.81"/>
<polygon fill="midnightblue" stroke="midnightblue" points="1224.98,-262.13 1217.38,-254.75 1218.72,-265.26 1224.98,-262.13"/>
</g>
<!-- Node25&#45;&gt;Node5 -->
<g id="edge60" class="edge">
<title>Node25&#45;&gt;Node5</title>
<path fill="none" stroke="midnightblue" d="M1518.84,-235.47C1496.6,-212.8 1432.08,-150.93 1365,-123 1274.64,-85.38 1157.6,-78.6 1098.94,-77.75"/>
<polygon fill="midnightblue" stroke="midnightblue" points="1098.72,-74.25 1088.69,-77.66 1098.65,-81.25 1098.72,-74.25"/>
</g>
<!-- Node25&#45;&gt;Node7 -->
<g id="edge61" class="edge">
<title>Node25&#45;&gt;Node7</title>
<path fill="none" stroke="midnightblue" d="M1483.3,-237.17C1478.48,-236.43 1473.64,-235.7 1469,-235 1297.13,-209.23 1254.71,-198.38 1082,-179 891.38,-157.61 663.33,-142.63 566.37,-136.76"/>
<polygon fill="midnightblue" stroke="midnightblue" points="566.49,-133.26 556.3,-136.15 566.07,-140.25 566.49,-133.26"/>
</g>
<!-- Node25&#45;&gt;Node13 -->
<g id="edge62" class="edge">
<title>Node25&#45;&gt;Node13</title>
<path fill="none" stroke="midnightblue" d="M1483.34,-236.92C1478.51,-236.23 1473.65,-235.57 1469,-235 1300.05,-214.28 1097.77,-198.9 1012.32,-192.84"/>
<polygon fill="midnightblue" stroke="midnightblue" points="1012.47,-189.34 1002.25,-192.13 1011.98,-196.32 1012.47,-189.34"/>
</g>
<!-- Node26&#45;&gt;Node5 -->
<g id="edge66" class="edge">
<title>Node26&#45;&gt;Node5</title>
<path fill="none" stroke="midnightblue" d="M1361.54,-296.23C1428.09,-288.82 1566.08,-271.6 1580,-255 1585.71,-248.19 1584.34,-242.76 1580,-235 1533.67,-152.09 1487.46,-154.89 1398,-123 1293.97,-85.92 1161.92,-79.02 1098.82,-77.98"/>
<polygon fill="midnightblue" stroke="midnightblue" points="1098.63,-74.48 1088.58,-77.85 1098.54,-81.48 1098.63,-74.48"/>
</g>
<!-- Node26&#45;&gt;Node14 -->
<g id="edge65" class="edge">
<title>Node26&#45;&gt;Node14</title>
<path fill="none" stroke="midnightblue" d="M1319.81,-291.43C1308.81,-276.95 1284.35,-247.98 1256,-235 1123.86,-174.5 1075.36,-215.77 931,-199 917.34,-197.41 902.27,-195.59 889.32,-194.01"/>
<polygon fill="midnightblue" stroke="midnightblue" points="889.36,-190.49 879.01,-192.74 888.51,-197.43 889.36,-190.49"/>
</g>
<!-- Node26&#45;&gt;Node23 -->
<g id="edge64" class="edge">
<title>Node26&#45;&gt;Node23</title>
<path fill="none" stroke="midnightblue" d="M1308.09,-291.44C1289.75,-282.68 1260.99,-268.94 1239.91,-258.86"/>
<polygon fill="midnightblue" stroke="midnightblue" points="1241.35,-255.67 1230.82,-254.52 1238.33,-261.99 1241.35,-255.67"/>
</g>
<!-- Node27 -->
<g id="node27" class="node">
<title>Node27</title>
<g id="a_node27"><a xlink:title=" ">
<polygon fill="white" stroke="#bfbfbf" points="1379.5,-235.5 1379.5,-254.5 1426.5,-254.5 1426.5,-235.5 1379.5,-235.5"/>
<text text-anchor="middle" x="1403" y="-242.5" font-family="Helvetica,sans-Serif" font-size="10.00">vector</text>
</a>
</g>
</g>
<!-- Node26&#45;&gt;Node27 -->
<g id="edge67" class="edge">
<title>Node26&#45;&gt;Node27</title>
<path fill="none" stroke="midnightblue" d="M1338.37,-291.32C1350.16,-283.06 1368.13,-270.45 1382.14,-260.63"/>
<polygon fill="midnightblue" stroke="midnightblue" points="1384.48,-263.26 1390.66,-254.65 1380.46,-257.53 1384.48,-263.26"/>
</g>
<!-- Node29&#45;&gt;Node4 -->
<g id="edge71" class="edge">
<title>Node29&#45;&gt;Node4</title>
<path fill="none" stroke="midnightblue" d="M219.85,-347.45C222.45,-325.78 232.15,-268.11 264,-235 280.35,-218 304.09,-207.17 325.15,-200.4"/>
<polygon fill="midnightblue" stroke="midnightblue" points="326.33,-203.7 334.91,-197.48 324.33,-196.99 326.33,-203.7"/>
</g>
<!-- Node31&#45;&gt;Node4 -->
<g id="edge77" class="edge">
<title>Node31&#45;&gt;Node4</title>
<path fill="none" stroke="midnightblue" d="M207.9,-235.44C241.27,-226.2 294.59,-211.44 331.35,-201.26"/>
<polygon fill="midnightblue" stroke="midnightblue" points="332.54,-204.56 341.25,-198.52 330.67,-197.81 332.54,-204.56"/>
</g>
<!-- Node31&#45;&gt;Node5 -->
<g id="edge76" class="edge">
<title>Node31&#45;&gt;Node5</title>
<path fill="none" stroke="midnightblue" d="M185.14,-235.34C198.3,-221.77 225.55,-195.34 253,-179 312.72,-143.45 331.13,-137.96 399,-123 519.85,-96.36 903.73,-82.77 1024.95,-79.06"/>
<polygon fill="midnightblue" stroke="midnightblue" points="1025.3,-82.55 1035.19,-78.75 1025.09,-75.56 1025.3,-82.55"/>
</g>
<!-- Node31&#45;&gt;Node19 -->
<g id="edge78" class="edge">
<title>Node31&#45;&gt;Node19</title>
<path fill="none" stroke="midnightblue" d="M194.99,-235.32C213.04,-226.62 241.05,-213.12 261.8,-203.11"/>
<polygon fill="midnightblue" stroke="midnightblue" points="263.56,-206.15 271.05,-198.65 260.52,-199.84 263.56,-206.15"/>
</g>
</g>
</svg>
