<?xml version="1.0" encoding="UTF-8" standalone="no"?>
<!DOCTYPE svg PUBLIC "-//W3C//DTD SVG 1.1//EN"
 "http://www.w3.org/Graphics/SVG/1.1/DTD/svg11.dtd">
<!-- Generated by graphviz version 2.43.0 (0)
 -->
<!-- Title: Prototype/sources/Drag/main.cpp Pages: 1 -->
<svg width="1799pt" height="442pt"
 viewBox="0.00 0.00 1799.00 442.00" xmlns="http://www.w3.org/2000/svg" xmlns:xlink="http://www.w3.org/1999/xlink">
<g id="graph0" class="graph" transform="scale(1 1) rotate(0) translate(4 438)">
<title>Prototype/sources/Drag/main.cpp</title>
<polygon fill="white" stroke="transparent" points="-4,4 -4,-438 1795,-438 1795,4 -4,4"/>
<!-- Node1 -->
<g id="node1" class="node">
<title>Node1</title>
<g id="a_node1"><a xlink:title=" ">
<polygon fill="#bfbfbf" stroke="black" points="248.5,-403.5 248.5,-433.5 379.5,-433.5 379.5,-403.5 248.5,-403.5"/>
<text text-anchor="start" x="256.5" y="-421.5" font-family="Helvetica,sans-Serif" font-size="10.00">Prototype/sources/Drag</text>
<text text-anchor="middle" x="314" y="-410.5" font-family="Helvetica,sans-Serif" font-size="10.00">/main.cpp</text>
</a>
</g>
</g>
<!-- Node2 -->
<g id="node2" class="node">
<title>Node2</title>
<g id="a_node2"><a xlink:title=" ">
<polygon fill="white" stroke="#bfbfbf" points="74,-6 74,-25 134,-25 134,-6 74,-6"/>
<text text-anchor="middle" x="104" y="-13" font-family="Helvetica,sans-Serif" font-size="10.00">iostream</text>
</a>
</g>
</g>
<!-- Node1&#45;&gt;Node2 -->
<g id="edge1" class="edge">
<title>Node1&#45;&gt;Node2</title>
<path fill="none" stroke="midnightblue" d="M248.25,-410.44C180.89,-402.26 81.56,-387.26 49,-367 18.28,-347.89 0,-338.18 0,-302 0,-302 0,-302 0,-132 0,-85.29 47.55,-48.94 78.34,-30.3"/>
<polygon fill="midnightblue" stroke="midnightblue" points="80.41,-33.15 87.29,-25.09 76.89,-27.1 80.41,-33.15"/>
</g>
<!-- Node3 -->
<g id="node3" class="node">
<title>Node3</title>
<g id="a_node3"><a xlink:href="Window_8hpp.html" target="_top" xlink:title=" ">
<polygon fill="white" stroke="black" points="571,-291.5 571,-310.5 647,-310.5 647,-291.5 571,-291.5"/>
<text text-anchor="middle" x="609" y="-298.5" font-family="Helvetica,sans-Serif" font-size="10.00">Window.hpp</text>
</a>
</g>
</g>
<!-- Node1&#45;&gt;Node3 -->
<g id="edge2" class="edge">
<title>Node1&#45;&gt;Node3</title>
<path fill="none" stroke="midnightblue" d="M352.51,-403.42C379.58,-393.44 416.6,-379.64 449,-367 494.57,-349.23 547.03,-327.71 579.09,-314.44"/>
<polygon fill="midnightblue" stroke="midnightblue" points="580.46,-317.66 588.36,-310.6 577.78,-311.19 580.46,-317.66"/>
</g>
<!-- Node4 -->
<g id="node4" class="node">
<title>Node4</title>
<g id="a_node4"><a xlink:href="Vector2_8hpp.html" target="_top" xlink:title=" ">
<polygon fill="white" stroke="black" points="352,-179.5 352,-198.5 426,-198.5 426,-179.5 352,-179.5"/>
<text text-anchor="middle" x="389" y="-186.5" font-family="Helvetica,sans-Serif" font-size="10.00">Vector2.hpp</text>
</a>
</g>
</g>
<!-- Node1&#45;&gt;Node4 -->
<g id="edge36" class="edge">
<title>Node1&#45;&gt;Node4</title>
<path fill="none" stroke="midnightblue" d="M311.17,-403.09C305.57,-370.69 296.15,-290.54 327,-235 334.54,-221.43 348.08,-210.89 360.59,-203.42"/>
<polygon fill="midnightblue" stroke="midnightblue" points="362.37,-206.44 369.42,-198.54 358.98,-200.32 362.37,-206.44"/>
</g>
<!-- Node6 -->
<g id="node6" class="node">
<title>Node6</title>
<g id="a_node6"><a xlink:title=" ">
<polygon fill="white" stroke="#bfbfbf" points="188.5,-67.5 188.5,-86.5 235.5,-86.5 235.5,-67.5 188.5,-67.5"/>
<text text-anchor="middle" x="212" y="-74.5" font-family="Helvetica,sans-Serif" font-size="10.00">cmath</text>
</a>
</g>
</g>
<!-- Node1&#45;&gt;Node6 -->
<g id="edge82" class="edge">
<title>Node1&#45;&gt;Node6</title>
<path fill="none" stroke="midnightblue" d="M248.24,-417.41C166.61,-413.44 38,-392.77 38,-302 38,-302 38,-302 38,-188 38,-122.3 127.73,-94.23 178.31,-83.63"/>
<polygon fill="midnightblue" stroke="midnightblue" points="179.04,-87.06 188.17,-81.68 177.68,-80.19 179.04,-87.06"/>
</g>
<!-- Node7 -->
<g id="node7" class="node">
<title>Node7</title>
<g id="a_node7"><a xlink:href="Vector3_8hpp.html" target="_top" xlink:title=" ">
<polygon fill="white" stroke="black" points="525,-123.5 525,-142.5 599,-142.5 599,-123.5 525,-123.5"/>
<text text-anchor="middle" x="562" y="-130.5" font-family="Helvetica,sans-Serif" font-size="10.00">Vector3.hpp</text>
</a>
</g>
</g>
<!-- Node1&#45;&gt;Node7 -->
<g id="edge37" class="edge">
<title>Node1&#45;&gt;Node7</title>
<path fill="none" stroke="midnightblue" d="M248.34,-413.22C177.89,-404.64 76,-378.93 76,-302 76,-302 76,-302 76,-244 76,-154.69 392.17,-137.89 514.48,-134.73"/>
<polygon fill="midnightblue" stroke="midnightblue" points="514.76,-138.22 524.67,-134.49 514.59,-131.23 514.76,-138.22"/>
</g>
<!-- Node17 -->
<g id="node17" class="node">
<title>Node17</title>
<g id="a_node17"><a xlink:href="BoundingBox_8hpp.html" target="_top" xlink:title=" ">
<polygon fill="white" stroke="black" points="451,-235.5 451,-254.5 553,-254.5 553,-235.5 451,-235.5"/>
<text text-anchor="middle" x="502" y="-242.5" font-family="Helvetica,sans-Serif" font-size="10.00">BoundingBox.hpp</text>
</a>
</g>
</g>
<!-- Node1&#45;&gt;Node17 -->
<g id="edge72" class="edge">
<title>Node1&#45;&gt;Node17</title>
<path fill="none" stroke="midnightblue" d="M329.38,-403.47C364.13,-371.77 448.48,-294.82 484.85,-261.65"/>
<polygon fill="midnightblue" stroke="midnightblue" points="487.59,-263.88 492.62,-254.56 482.87,-258.71 487.59,-263.88"/>
</g>
<!-- Node18 -->
<g id="node18" class="node">
<title>Node18</title>
<g id="a_node18"><a xlink:href="Camera3D_8hpp.html" target="_top" xlink:title=" ">
<polygon fill="white" stroke="black" points="344.5,-235.5 344.5,-254.5 433.5,-254.5 433.5,-235.5 344.5,-235.5"/>
<text text-anchor="middle" x="389" y="-242.5" font-family="Helvetica,sans-Serif" font-size="10.00">Camera3D.hpp</text>
</a>
</g>
</g>
<!-- Node1&#45;&gt;Node18 -->
<g id="edge30" class="edge">
<title>Node1&#45;&gt;Node18</title>
<path fill="none" stroke="midnightblue" d="M320.14,-403.47C333.71,-372.44 366.24,-298.05 381.21,-263.81"/>
<polygon fill="midnightblue" stroke="midnightblue" points="384.46,-265.12 385.26,-254.56 378.04,-262.32 384.46,-265.12"/>
</g>
<!-- Node19 -->
<g id="node19" class="node">
<title>Node19</title>
<g id="a_node19"><a xlink:href="Ray_8hpp.html" target="_top" xlink:title=" ">
<polygon fill="white" stroke="black" points="278.5,-179.5 278.5,-198.5 333.5,-198.5 333.5,-179.5 278.5,-179.5"/>
<text text-anchor="middle" x="306" y="-186.5" font-family="Helvetica,sans-Serif" font-size="10.00">Ray.hpp</text>
</a>
</g>
</g>
<!-- Node1&#45;&gt;Node19 -->
<g id="edge73" class="edge">
<title>Node1&#45;&gt;Node19</title>
<path fill="none" stroke="midnightblue" d="M248.17,-403.53C224.98,-395.92 200.2,-384.36 182,-367 136.72,-323.8 94.72,-284.51 133,-235 149.38,-213.82 222.28,-200.75 268.06,-194.47"/>
<polygon fill="midnightblue" stroke="midnightblue" points="268.77,-197.91 278.23,-193.13 267.86,-190.97 268.77,-197.91"/>
</g>
<!-- Node20 -->
<g id="node20" class="node">
<title>Node20</title>
<g id="a_node20"><a xlink:href="Model_8hpp.html" target="_top" xlink:title=" ">
<polygon fill="white" stroke="black" points="1211,-347.5 1211,-366.5 1279,-366.5 1279,-347.5 1211,-347.5"/>
<text text-anchor="middle" x="1245" y="-354.5" font-family="Helvetica,sans-Serif" font-size="10.00">Model.hpp</text>
</a>
</g>
</g>
<!-- Node1&#45;&gt;Node20 -->
<g id="edge38" class="edge">
<title>Node1&#45;&gt;Node20</title>
<path fill="none" stroke="midnightblue" d="M379.84,-413.29C558.62,-401.87 1049.81,-370.47 1200.47,-360.85"/>
<polygon fill="midnightblue" stroke="midnightblue" points="1200.96,-364.32 1210.72,-360.19 1200.52,-357.34 1200.96,-364.32"/>
</g>
<!-- Node21 -->
<g id="node21" class="node">
<title>Node21</title>
<g id="a_node21"><a xlink:href="Texture_8hpp.html" target="_top" xlink:title=" ">
<polygon fill="white" stroke="black" points="877,-291.5 877,-310.5 951,-310.5 951,-291.5 877,-291.5"/>
<text text-anchor="middle" x="914" y="-298.5" font-family="Helvetica,sans-Serif" font-size="10.00">Texture.hpp</text>
</a>
</g>
</g>
<!-- Node1&#45;&gt;Node21 -->
<g id="edge69" class="edge">
<title>Node1&#45;&gt;Node21</title>
<path fill="none" stroke="midnightblue" d="M379.64,-404.86C501.62,-381.38 760.47,-331.55 866.85,-311.08"/>
<polygon fill="midnightblue" stroke="midnightblue" points="867.8,-314.46 876.96,-309.13 866.48,-307.58 867.8,-314.46"/>
</g>
<!-- Node29 -->
<g id="node29" class="node">
<title>Node29</title>
<g id="a_node29"><a xlink:href="Input_8hpp.html" target="_top" xlink:title=" ">
<polygon fill="white" stroke="black" points="205,-347.5 205,-366.5 267,-366.5 267,-347.5 205,-347.5"/>
<text text-anchor="middle" x="236" y="-354.5" font-family="Helvetica,sans-Serif" font-size="10.00">Input.hpp</text>
</a>
</g>
</g>
<!-- Node1&#45;&gt;Node29 -->
<g id="edge70" class="edge">
<title>Node1&#45;&gt;Node29</title>
<path fill="none" stroke="midnightblue" d="M295.52,-403.4C283.48,-394.22 267.8,-382.26 255.56,-372.92"/>
<polygon fill="midnightblue" stroke="midnightblue" points="257.42,-369.94 247.35,-366.66 253.18,-375.51 257.42,-369.94"/>
</g>
<!-- Node30 -->
<g id="node30" class="node">
<title>Node30</title>
<g id="a_node30"><a xlink:title=" ">
<polygon fill="white" stroke="#bfbfbf" points="1703,-347.5 1703,-366.5 1791,-366.5 1791,-347.5 1703,-347.5"/>
<text text-anchor="middle" x="1747" y="-354.5" font-family="Helvetica,sans-Serif" font-size="10.00">Physics3D.hpp</text>
</a>
</g>
</g>
<!-- Node1&#45;&gt;Node30 -->
<g id="edge74" class="edge">
<title>Node1&#45;&gt;Node30</title>
<path fill="none" stroke="midnightblue" d="M379.66,-417.81C577.8,-418.18 1186.96,-415 1689,-367 1690.26,-366.88 1691.52,-366.75 1692.8,-366.61"/>
<polygon fill="midnightblue" stroke="midnightblue" points="1693.22,-370.09 1702.73,-365.42 1692.39,-363.14 1693.22,-370.09"/>
</g>
<!-- Node31 -->
<g id="node31" class="node">
<title>Node31</title>
<g id="a_node31"><a xlink:href="Mouse_8hpp.html" target="_top" xlink:title=" ">
<polygon fill="white" stroke="black" points="142,-235.5 142,-254.5 212,-254.5 212,-235.5 142,-235.5"/>
<text text-anchor="middle" x="177" y="-242.5" font-family="Helvetica,sans-Serif" font-size="10.00">Mouse.hpp</text>
</a>
</g>
</g>
<!-- Node1&#45;&gt;Node31 -->
<g id="edge75" class="edge">
<title>Node1&#45;&gt;Node31</title>
<path fill="none" stroke="midnightblue" d="M250.58,-403.46C230.26,-395.91 209.54,-384.41 196,-367 172.8,-337.17 172.65,-290.45 174.73,-264.66"/>
<polygon fill="midnightblue" stroke="midnightblue" points="178.22,-265.01 175.74,-254.71 171.25,-264.31 178.22,-265.01"/>
</g>
<!-- Node32 -->
<g id="node32" class="node">
<title>Node32</title>
<g id="a_node32"><a xlink:href="RayCollision_8hpp.html" target="_top" xlink:title=" ">
<polygon fill="white" stroke="black" points="1665,-179.5 1665,-198.5 1763,-198.5 1763,-179.5 1665,-179.5"/>
<text text-anchor="middle" x="1714" y="-186.5" font-family="Helvetica,sans-Serif" font-size="10.00">RayCollision.hpp</text>
</a>
</g>
</g>
<!-- Node1&#45;&gt;Node32 -->
<g id="edge79" class="edge">
<title>Node1&#45;&gt;Node32</title>
<path fill="none" stroke="midnightblue" d="M379.73,-416.39C537.01,-413.22 947.34,-402.02 1288,-367 1450.39,-350.31 1518.32,-406.1 1651,-311 1685.85,-286.02 1702.92,-235.85 1709.92,-208.62"/>
<polygon fill="midnightblue" stroke="midnightblue" points="1713.35,-209.33 1712.27,-198.79 1706.54,-207.71 1713.35,-209.33"/>
</g>
<!-- Node3&#45;&gt;Node3 -->
<g id="edge22" class="edge">
<title>Node3&#45;&gt;Node3</title>
<path fill="none" stroke="midnightblue" d="M632.88,-310.53C649.11,-313.31 665,-310.13 665,-301 665,-293.79 655.11,-290.3 642.96,-290.51"/>
<polygon fill="midnightblue" stroke="midnightblue" points="642.5,-287.04 632.88,-291.47 643.17,-294 642.5,-287.04"/>
</g>
<!-- Node3&#45;&gt;Node4 -->
<g id="edge3" class="edge">
<title>Node3&#45;&gt;Node4</title>
<path fill="none" stroke="midnightblue" d="M570.88,-299.53C503.04,-297.81 365.68,-289.98 336,-255 321.23,-237.59 344.43,-217.12 364.64,-203.88"/>
<polygon fill="midnightblue" stroke="midnightblue" points="366.63,-206.76 373.28,-198.5 362.94,-200.81 366.63,-206.76"/>
</g>
<!-- Node3&#45;&gt;Node7 -->
<g id="edge16" class="edge">
<title>Node3&#45;&gt;Node7</title>
<path fill="none" stroke="midnightblue" d="M606.47,-291.08C599.07,-264.95 577.35,-188.21 567.26,-152.58"/>
<polygon fill="midnightblue" stroke="midnightblue" points="570.52,-151.24 564.43,-142.57 563.78,-153.14 570.52,-151.24"/>
</g>
<!-- Node13 -->
<g id="node13" class="node">
<title>Node13</title>
<g id="a_node13"><a xlink:href="Color_8hpp.html" target="_top" xlink:title=" ">
<polygon fill="white" stroke="black" points="970,-179.5 970,-198.5 1032,-198.5 1032,-179.5 970,-179.5"/>
<text text-anchor="middle" x="1001" y="-186.5" font-family="Helvetica,sans-Serif" font-size="10.00">Color.hpp</text>
</a>
</g>
</g>
<!-- Node3&#45;&gt;Node13 -->
<g id="edge17" class="edge">
<title>Node3&#45;&gt;Node13</title>
<path fill="none" stroke="midnightblue" d="M647.2,-294.71C693.09,-287.85 772.13,-274.42 838,-255 886.99,-240.55 941.72,-217.15 973.67,-202.72"/>
<polygon fill="midnightblue" stroke="midnightblue" points="975.17,-205.88 982.82,-198.55 972.26,-199.51 975.17,-205.88"/>
</g>
<!-- Node14 -->
<g id="node14" class="node">
<title>Node14</title>
<g id="a_node14"><a xlink:title=" ">
<polygon fill="white" stroke="#bfbfbf" points="835,-179.5 835,-198.5 879,-198.5 879,-179.5 835,-179.5"/>
<text text-anchor="middle" x="857" y="-186.5" font-family="Helvetica,sans-Serif" font-size="10.00">string</text>
</a>
</g>
</g>
<!-- Node3&#45;&gt;Node14 -->
<g id="edge20" class="edge">
<title>Node3&#45;&gt;Node14</title>
<path fill="none" stroke="midnightblue" d="M627.45,-291.46C654.64,-278.91 707.09,-254.83 752,-235 777.22,-223.87 806,-211.56 827.05,-202.63"/>
<polygon fill="midnightblue" stroke="midnightblue" points="828.58,-205.79 836.42,-198.66 825.85,-199.34 828.58,-205.79"/>
</g>
<!-- Node15 -->
<g id="node15" class="node">
<title>Node15</title>
<g id="a_node15"><a xlink:title=" ">
<polygon fill="white" stroke="#bfbfbf" points="609,-235.5 609,-254.5 667,-254.5 667,-235.5 609,-235.5"/>
<text text-anchor="middle" x="638" y="-242.5" font-family="Helvetica,sans-Serif" font-size="10.00">memory</text>
</a>
</g>
</g>
<!-- Node3&#45;&gt;Node15 -->
<g id="edge21" class="edge">
<title>Node3&#45;&gt;Node15</title>
<path fill="none" stroke="midnightblue" d="M613.79,-291.08C617.76,-283.69 623.53,-272.95 628.43,-263.81"/>
<polygon fill="midnightblue" stroke="midnightblue" points="631.65,-265.22 633.3,-254.75 625.49,-261.91 631.65,-265.22"/>
</g>
<!-- Node16 -->
<g id="node16" class="node">
<title>Node16</title>
<g id="a_node16"><a xlink:href="Image_8hpp.html" target="_top" xlink:title=" ">
<polygon fill="white" stroke="black" points="761,-235.5 761,-254.5 829,-254.5 829,-235.5 761,-235.5"/>
<text text-anchor="middle" x="795" y="-242.5" font-family="Helvetica,sans-Serif" font-size="10.00">Image.hpp</text>
</a>
</g>
</g>
<!-- Node3&#45;&gt;Node16 -->
<g id="edge23" class="edge">
<title>Node3&#45;&gt;Node16</title>
<path fill="none" stroke="midnightblue" d="M638.47,-291.44C670.17,-282.24 720.73,-267.56 755.77,-257.39"/>
<polygon fill="midnightblue" stroke="midnightblue" points="757.04,-260.67 765.67,-254.52 755.09,-253.94 757.04,-260.67"/>
</g>
<!-- Node3&#45;&gt;Node17 -->
<g id="edge28" class="edge">
<title>Node3&#45;&gt;Node17</title>
<path fill="none" stroke="midnightblue" d="M591.81,-291.32C574.65,-282.66 548.05,-269.24 528.25,-259.25"/>
<polygon fill="midnightblue" stroke="midnightblue" points="529.65,-256.04 519.15,-254.65 526.5,-262.28 529.65,-256.04"/>
</g>
<!-- Node5 -->
<g id="node5" class="node">
<title>Node5</title>
<g id="a_node5"><a xlink:title=" ">
<polygon fill="white" stroke="#bfbfbf" points="1169.5,-67.5 1169.5,-86.5 1222.5,-86.5 1222.5,-67.5 1169.5,-67.5"/>
<text text-anchor="middle" x="1196" y="-74.5" font-family="Helvetica,sans-Serif" font-size="10.00">raylib.h</text>
</a>
</g>
</g>
<!-- Node4&#45;&gt;Node5 -->
<g id="edge4" class="edge">
<title>Node4&#45;&gt;Node5</title>
<path fill="none" stroke="midnightblue" d="M394.17,-179.29C403.44,-164.61 424.41,-135.35 451,-123 515.5,-93.05 1017.23,-81.38 1158.88,-78.66"/>
<polygon fill="midnightblue" stroke="midnightblue" points="1159.27,-82.15 1169.2,-78.46 1159.14,-75.15 1159.27,-82.15"/>
</g>
<!-- Node4&#45;&gt;Node6 -->
<g id="edge5" class="edge">
<title>Node4&#45;&gt;Node6</title>
<path fill="none" stroke="midnightblue" d="M375.11,-179.37C344.61,-160.41 271.54,-115 234.43,-91.94"/>
<polygon fill="midnightblue" stroke="midnightblue" points="236.17,-88.9 225.82,-86.59 232.47,-94.84 236.17,-88.9"/>
</g>
<!-- Node4&#45;&gt;Node7 -->
<g id="edge6" class="edge">
<title>Node4&#45;&gt;Node7</title>
<path fill="none" stroke="midnightblue" d="M416.41,-179.44C445.77,-170.28 492.52,-155.69 525.1,-145.52"/>
<polygon fill="midnightblue" stroke="midnightblue" points="526.21,-148.84 534.72,-142.52 524.13,-142.16 526.21,-148.84"/>
</g>
<!-- Node8 -->
<g id="node8" class="node">
<title>Node8</title>
<g id="a_node8"><a xlink:href="IXMLSerializable_8hpp.html" target="_top" xlink:title=" ">
<polygon fill="white" stroke="black" points="329.5,-67.5 329.5,-86.5 448.5,-86.5 448.5,-67.5 329.5,-67.5"/>
<text text-anchor="middle" x="389" y="-74.5" font-family="Helvetica,sans-Serif" font-size="10.00">IXMLSerializable.hpp</text>
</a>
</g>
</g>
<!-- Node4&#45;&gt;Node8 -->
<g id="edge15" class="edge">
<title>Node4&#45;&gt;Node8</title>
<path fill="none" stroke="midnightblue" d="M389,-179.37C389,-161.62 389,-120.67 389,-96.6"/>
<polygon fill="midnightblue" stroke="midnightblue" points="392.5,-96.59 389,-86.59 385.5,-96.59 392.5,-96.59"/>
</g>
<!-- Node7&#45;&gt;Node5 -->
<g id="edge7" class="edge">
<title>Node7&#45;&gt;Node5</title>
<path fill="none" stroke="midnightblue" d="M599.29,-128.82C711.92,-119.23 1047.69,-90.63 1159.4,-81.12"/>
<polygon fill="midnightblue" stroke="midnightblue" points="1159.83,-84.59 1169.49,-80.26 1159.23,-77.62 1159.83,-84.59"/>
</g>
<!-- Node7&#45;&gt;Node6 -->
<g id="edge13" class="edge">
<title>Node7&#45;&gt;Node6</title>
<path fill="none" stroke="midnightblue" d="M524.88,-126.27C456.55,-115.73 311.85,-93.41 245.96,-83.24"/>
<polygon fill="midnightblue" stroke="midnightblue" points="246.13,-79.72 235.72,-81.66 245.07,-86.64 246.13,-79.72"/>
</g>
<!-- Node7&#45;&gt;Node8 -->
<g id="edge8" class="edge">
<title>Node7&#45;&gt;Node8</title>
<path fill="none" stroke="midnightblue" d="M534.59,-123.44C505.23,-114.28 458.48,-99.69 425.9,-89.52"/>
<polygon fill="midnightblue" stroke="midnightblue" points="426.87,-86.16 416.28,-86.52 424.79,-92.84 426.87,-86.16"/>
</g>
<!-- Node12 -->
<g id="node12" class="node">
<title>Node12</title>
<g id="a_node12"><a xlink:title=" ">
<polygon fill="white" stroke="#bfbfbf" points="534,-67.5 534,-86.5 590,-86.5 590,-67.5 534,-67.5"/>
<text text-anchor="middle" x="562" y="-74.5" font-family="Helvetica,sans-Serif" font-size="10.00">sstream</text>
</a>
</g>
</g>
<!-- Node7&#45;&gt;Node12 -->
<g id="edge14" class="edge">
<title>Node7&#45;&gt;Node12</title>
<path fill="none" stroke="midnightblue" d="M562,-123.08C562,-116.01 562,-105.86 562,-96.99"/>
<polygon fill="midnightblue" stroke="midnightblue" points="565.5,-96.75 562,-86.75 558.5,-96.75 565.5,-96.75"/>
</g>
<!-- Node8&#45;&gt;Node2 -->
<g id="edge10" class="edge">
<title>Node8&#45;&gt;Node2</title>
<path fill="none" stroke="midnightblue" d="M348.17,-67.48C293.8,-56.12 198.23,-36.17 144.19,-24.89"/>
<polygon fill="midnightblue" stroke="midnightblue" points="144.78,-21.44 134.28,-22.82 143.35,-28.29 144.78,-21.44"/>
</g>
<!-- Node9 -->
<g id="node9" class="node">
<title>Node9</title>
<g id="a_node9"><a xlink:title=" ">
<polygon fill="white" stroke="#bfbfbf" points="257.5,-6 257.5,-25 314.5,-25 314.5,-6 257.5,-6"/>
<text text-anchor="middle" x="286" y="-13" font-family="Helvetica,sans-Serif" font-size="10.00">ostream</text>
</a>
</g>
</g>
<!-- Node8&#45;&gt;Node9 -->
<g id="edge9" class="edge">
<title>Node8&#45;&gt;Node9</title>
<path fill="none" stroke="midnightblue" d="M374.24,-67.48C357.34,-57.71 329.42,-41.58 309.51,-30.08"/>
<polygon fill="midnightblue" stroke="midnightblue" points="311.14,-26.98 300.73,-25.01 307.64,-33.04 311.14,-26.98"/>
</g>
<!-- Node10 -->
<g id="node10" class="node">
<title>Node10</title>
<g id="a_node10"><a xlink:title=" ">
<polygon fill="white" stroke="#bfbfbf" points="332.5,-0.5 332.5,-30.5 445.5,-30.5 445.5,-0.5 332.5,-0.5"/>
<text text-anchor="start" x="340.5" y="-18.5" font-family="Helvetica,sans-Serif" font-size="10.00">boost/property_tree</text>
<text text-anchor="middle" x="389" y="-7.5" font-family="Helvetica,sans-Serif" font-size="10.00">/ptree.hpp</text>
</a>
</g>
</g>
<!-- Node8&#45;&gt;Node10 -->
<g id="edge11" class="edge">
<title>Node8&#45;&gt;Node10</title>
<path fill="none" stroke="midnightblue" d="M389,-67.48C389,-60.47 389,-50.19 389,-40.7"/>
<polygon fill="midnightblue" stroke="midnightblue" points="392.5,-40.52 389,-30.52 385.5,-40.52 392.5,-40.52"/>
</g>
<!-- Node11 -->
<g id="node11" class="node">
<title>Node11</title>
<g id="a_node11"><a xlink:title=" ">
<polygon fill="white" stroke="#bfbfbf" points="463.5,-0.5 463.5,-30.5 576.5,-30.5 576.5,-0.5 463.5,-0.5"/>
<text text-anchor="start" x="471.5" y="-18.5" font-family="Helvetica,sans-Serif" font-size="10.00">boost/property_tree</text>
<text text-anchor="middle" x="520" y="-7.5" font-family="Helvetica,sans-Serif" font-size="10.00">/xml_parser.hpp</text>
</a>
</g>
</g>
<!-- Node8&#45;&gt;Node11 -->
<g id="edge12" class="edge">
<title>Node8&#45;&gt;Node11</title>
<path fill="none" stroke="midnightblue" d="M407.77,-67.48C426.51,-58.96 455.89,-45.62 479.89,-34.72"/>
<polygon fill="midnightblue" stroke="midnightblue" points="481.47,-37.85 489.13,-30.52 478.57,-31.47 481.47,-37.85"/>
</g>
<!-- Node13&#45;&gt;Node5 -->
<g id="edge18" class="edge">
<title>Node13&#45;&gt;Node5</title>
<path fill="none" stroke="midnightblue" d="M1016.3,-179.37C1050.12,-160.29 1131.43,-114.42 1172.06,-91.51"/>
<polygon fill="midnightblue" stroke="midnightblue" points="1173.78,-94.55 1180.77,-86.59 1170.34,-88.46 1173.78,-94.55"/>
</g>
<!-- Node13&#45;&gt;Node7 -->
<g id="edge19" class="edge">
<title>Node13&#45;&gt;Node7</title>
<path fill="none" stroke="midnightblue" d="M969.78,-184.16C893.86,-174.82 699.22,-150.88 609.1,-139.79"/>
<polygon fill="midnightblue" stroke="midnightblue" points="609.51,-136.32 599.16,-138.57 608.66,-143.27 609.51,-136.32"/>
</g>
<!-- Node16&#45;&gt;Node4 -->
<g id="edge27" class="edge">
<title>Node16&#45;&gt;Node4</title>
<path fill="none" stroke="midnightblue" d="M760.96,-237.35C756.27,-236.52 751.52,-235.71 747,-235 636.04,-217.64 504.9,-202.52 436.27,-195.02"/>
<polygon fill="midnightblue" stroke="midnightblue" points="436.53,-191.53 426.21,-193.93 435.77,-198.49 436.53,-191.53"/>
</g>
<!-- Node16&#45;&gt;Node5 -->
<g id="edge25" class="edge">
<title>Node16&#45;&gt;Node5</title>
<path fill="none" stroke="midnightblue" d="M796.68,-235.42C799.88,-221.47 808.16,-193.91 826,-179 925.14,-96.15 1086.56,-80.87 1158.89,-78.33"/>
<polygon fill="midnightblue" stroke="midnightblue" points="1159.41,-81.81 1169.31,-78.03 1159.21,-74.81 1159.41,-81.81"/>
</g>
<!-- Node16&#45;&gt;Node13 -->
<g id="edge26" class="edge">
<title>Node16&#45;&gt;Node13</title>
<path fill="none" stroke="midnightblue" d="M827.64,-235.44C863.47,-226.05 921.05,-210.96 959.92,-200.77"/>
<polygon fill="midnightblue" stroke="midnightblue" points="961.07,-204.08 969.86,-198.16 959.3,-197.31 961.07,-204.08"/>
</g>
<!-- Node16&#45;&gt;Node14 -->
<g id="edge24" class="edge">
<title>Node16&#45;&gt;Node14</title>
<path fill="none" stroke="midnightblue" d="M804.96,-235.32C814.13,-227.34 827.94,-215.31 839.03,-205.65"/>
<polygon fill="midnightblue" stroke="midnightblue" points="841.62,-208.04 846.86,-198.83 837.02,-202.76 841.62,-208.04"/>
</g>
<!-- Node17&#45;&gt;Node7 -->
<g id="edge29" class="edge">
<title>Node17&#45;&gt;Node7</title>
<path fill="none" stroke="midnightblue" d="M506.71,-235.37C516.52,-217.38 539.34,-175.55 552.39,-151.63"/>
<polygon fill="midnightblue" stroke="midnightblue" points="555.6,-153.05 557.31,-142.59 549.45,-149.69 555.6,-153.05"/>
</g>
<!-- Node18&#45;&gt;Node4 -->
<g id="edge32" class="edge">
<title>Node18&#45;&gt;Node4</title>
<path fill="none" stroke="midnightblue" d="M389,-235.08C389,-228.01 389,-217.86 389,-208.99"/>
<polygon fill="midnightblue" stroke="midnightblue" points="392.5,-208.75 389,-198.75 385.5,-208.75 392.5,-208.75"/>
</g>
<!-- Node18&#45;&gt;Node5 -->
<g id="edge31" class="edge">
<title>Node18&#45;&gt;Node5</title>
<path fill="none" stroke="midnightblue" d="M397.83,-235.43C426.03,-208.09 512.27,-124.64 516,-123 575,-97.1 1026.02,-82.69 1159.13,-78.97"/>
<polygon fill="midnightblue" stroke="midnightblue" points="1159.33,-82.47 1169.23,-78.7 1159.14,-75.47 1159.33,-82.47"/>
</g>
<!-- Node18&#45;&gt;Node7 -->
<g id="edge33" class="edge">
<title>Node18&#45;&gt;Node7</title>
<path fill="none" stroke="midnightblue" d="M408.93,-235.43C427.59,-227.09 455.97,-213.57 479,-199 502.97,-183.84 528.34,-163.21 544.63,-149.29"/>
<polygon fill="midnightblue" stroke="midnightblue" points="546.99,-151.88 552.26,-142.69 542.41,-146.58 546.99,-151.88"/>
</g>
<!-- Node18&#45;&gt;Node19 -->
<g id="edge34" class="edge">
<title>Node18&#45;&gt;Node19</title>
<path fill="none" stroke="midnightblue" d="M375.66,-235.32C362.84,-226.98 343.22,-214.21 328.06,-204.35"/>
<polygon fill="midnightblue" stroke="midnightblue" points="329.59,-201.17 319.3,-198.65 325.78,-207.04 329.59,-201.17"/>
</g>
<!-- Node19&#45;&gt;Node7 -->
<g id="edge35" class="edge">
<title>Node19&#45;&gt;Node7</title>
<path fill="none" stroke="midnightblue" d="M333.86,-181.11C336.94,-180.38 340.03,-179.67 343,-179 402.03,-165.76 470.36,-151.96 514.78,-143.19"/>
<polygon fill="midnightblue" stroke="midnightblue" points="515.58,-146.6 524.71,-141.24 514.23,-139.74 515.58,-146.6"/>
</g>
<!-- Node20&#45;&gt;Node5 -->
<g id="edge39" class="edge">
<title>Node20&#45;&gt;Node5</title>
<path fill="none" stroke="midnightblue" d="M1279.01,-348.03C1280.69,-347.67 1282.36,-347.33 1284,-347 1444,-314.92 1637,-409.18 1637,-246 1637,-246 1637,-246 1637,-188 1637,-104.94 1338.77,-84.1 1232.81,-79.32"/>
<polygon fill="midnightblue" stroke="midnightblue" points="1232.73,-75.81 1222.59,-78.88 1232.43,-82.8 1232.73,-75.81"/>
</g>
<!-- Node20&#45;&gt;Node7 -->
<g id="edge41" class="edge">
<title>Node20&#45;&gt;Node7</title>
<path fill="none" stroke="midnightblue" d="M1210.78,-353.71C1180.22,-349.79 1136.46,-339.26 1111,-311 1087.83,-285.29 1110.26,-265.56 1094,-235 1077.9,-204.75 1071.81,-194.01 1041,-179 965.69,-142.32 714.36,-135.49 609.05,-134.26"/>
<polygon fill="midnightblue" stroke="midnightblue" points="609.07,-130.76 599.03,-134.15 608.99,-137.76 609.07,-130.76"/>
</g>
<!-- Node20&#45;&gt;Node13 -->
<g id="edge42" class="edge">
<title>Node20&#45;&gt;Node13</title>
<path fill="none" stroke="midnightblue" d="M1279.02,-354.18C1314.25,-350.68 1369.2,-340.5 1406,-311 1434.33,-288.29 1460.32,-261.97 1436,-235 1422.88,-220.46 1148.21,-200.12 1042.22,-192.78"/>
<polygon fill="midnightblue" stroke="midnightblue" points="1042.42,-189.28 1032.21,-192.09 1041.94,-196.27 1042.42,-189.28"/>
</g>
<!-- Node20&#45;&gt;Node14 -->
<g id="edge40" class="edge">
<title>Node20&#45;&gt;Node14</title>
<path fill="none" stroke="midnightblue" d="M1241.04,-347.15C1234.13,-332.81 1218.42,-304.71 1196,-291 1116.71,-242.51 1078.4,-283.69 990,-255 949.5,-241.86 905.73,-218.51 879.87,-203.66"/>
<polygon fill="midnightblue" stroke="midnightblue" points="881.6,-200.62 871.2,-198.61 878.08,-206.67 881.6,-200.62"/>
</g>
<!-- Node20&#45;&gt;Node21 -->
<g id="edge43" class="edge">
<title>Node20&#45;&gt;Node21</title>
<path fill="none" stroke="midnightblue" d="M1210.82,-350.42C1151.28,-340.71 1028.44,-320.67 960.95,-309.66"/>
<polygon fill="midnightblue" stroke="midnightblue" points="961.44,-306.19 951.01,-308.04 960.31,-313.1 961.44,-306.19"/>
</g>
<!-- Node24 -->
<g id="node24" class="node">
<title>Node24</title>
<g id="a_node24"><a xlink:href="Mesh_8hpp.html" target="_top" xlink:title=" ">
<polygon fill="white" stroke="black" points="1243,-291.5 1243,-310.5 1307,-310.5 1307,-291.5 1243,-291.5"/>
<text text-anchor="middle" x="1275" y="-298.5" font-family="Helvetica,sans-Serif" font-size="10.00">Mesh.hpp</text>
</a>
</g>
</g>
<!-- Node20&#45;&gt;Node24 -->
<g id="edge54" class="edge">
<title>Node20&#45;&gt;Node24</title>
<path fill="none" stroke="midnightblue" d="M1249.95,-347.08C1254.1,-339.61 1260.15,-328.72 1265.27,-319.52"/>
<polygon fill="midnightblue" stroke="midnightblue" points="1268.34,-321.19 1270.14,-310.75 1262.22,-317.79 1268.34,-321.19"/>
</g>
<!-- Node25 -->
<g id="node25" class="node">
<title>Node25</title>
<g id="a_node25"><a xlink:href="IDrawable_8hpp.html" target="_top" xlink:title=" ">
<polygon fill="white" stroke="black" points="1483.5,-235.5 1483.5,-254.5 1570.5,-254.5 1570.5,-235.5 1483.5,-235.5"/>
<text text-anchor="middle" x="1527" y="-242.5" font-family="Helvetica,sans-Serif" font-size="10.00">IDrawable.hpp</text>
</a>
</g>
</g>
<!-- Node20&#45;&gt;Node25 -->
<g id="edge59" class="edge">
<title>Node20&#45;&gt;Node25</title>
<path fill="none" stroke="midnightblue" d="M1279.21,-355.73C1325.27,-353.96 1408.42,-345.7 1469,-311 1489.21,-299.42 1506.1,-278.24 1516.35,-263.21"/>
<polygon fill="midnightblue" stroke="midnightblue" points="1519.31,-265.07 1521.84,-254.79 1513.44,-261.25 1519.31,-265.07"/>
</g>
<!-- Node26 -->
<g id="node26" class="node">
<title>Node26</title>
<g id="a_node26"><a xlink:href="Shader_8hpp.html" target="_top" xlink:title=" ">
<polygon fill="white" stroke="black" points="1325.5,-291.5 1325.5,-310.5 1396.5,-310.5 1396.5,-291.5 1325.5,-291.5"/>
<text text-anchor="middle" x="1361" y="-298.5" font-family="Helvetica,sans-Serif" font-size="10.00">Shader.hpp</text>
</a>
</g>
</g>
<!-- Node20&#45;&gt;Node26 -->
<g id="edge63" class="edge">
<title>Node20&#45;&gt;Node26</title>
<path fill="none" stroke="midnightblue" d="M1263.38,-347.44C1282.22,-338.68 1311.73,-324.94 1333.38,-314.86"/>
<polygon fill="midnightblue" stroke="midnightblue" points="1335.12,-317.91 1342.71,-310.52 1332.16,-311.56 1335.12,-317.91"/>
</g>
<!-- Node28 -->
<g id="node28" class="node">
<title>Node28</title>
<g id="a_node28"><a xlink:title=" ">
<polygon fill="white" stroke="#bfbfbf" points="1119.5,-291.5 1119.5,-310.5 1186.5,-310.5 1186.5,-291.5 1119.5,-291.5"/>
<text text-anchor="middle" x="1153" y="-298.5" font-family="Helvetica,sans-Serif" font-size="10.00">raymath.h</text>
</a>
</g>
</g>
<!-- Node20&#45;&gt;Node28 -->
<g id="edge68" class="edge">
<title>Node20&#45;&gt;Node28</title>
<path fill="none" stroke="midnightblue" d="M1230.22,-347.32C1215.73,-338.82 1193.43,-325.73 1176.51,-315.8"/>
<polygon fill="midnightblue" stroke="midnightblue" points="1178.14,-312.7 1167.74,-310.65 1174.6,-318.74 1178.14,-312.7"/>
</g>
<!-- Node21&#45;&gt;Node4 -->
<g id="edge48" class="edge">
<title>Node21&#45;&gt;Node4</title>
<path fill="none" stroke="midnightblue" d="M883.38,-291.43C823.82,-274.8 696.42,-239.37 676,-235 592.43,-217.09 493.75,-203.18 436.57,-195.81"/>
<polygon fill="midnightblue" stroke="midnightblue" points="436.76,-192.31 426.39,-194.51 435.87,-199.25 436.76,-192.31"/>
</g>
<!-- Node21&#45;&gt;Node5 -->
<g id="edge44" class="edge">
<title>Node21&#45;&gt;Node5</title>
<path fill="none" stroke="midnightblue" d="M951.35,-298.94C990.46,-296.08 1051.94,-286.42 1094,-255 1149.36,-213.64 1179.54,-132.71 1190.8,-96.4"/>
<polygon fill="midnightblue" stroke="midnightblue" points="1194.2,-97.24 1193.69,-86.65 1187.49,-95.24 1194.2,-97.24"/>
</g>
<!-- Node21&#45;&gt;Node13 -->
<g id="edge47" class="edge">
<title>Node21&#45;&gt;Node13</title>
<path fill="none" stroke="midnightblue" d="M920.83,-291.37C935.25,-273.14 969.03,-230.43 987.81,-206.68"/>
<polygon fill="midnightblue" stroke="midnightblue" points="990.75,-208.61 994.2,-198.59 985.26,-204.26 990.75,-208.61"/>
</g>
<!-- Node21&#45;&gt;Node14 -->
<g id="edge45" class="edge">
<title>Node21&#45;&gt;Node14</title>
<path fill="none" stroke="midnightblue" d="M906.38,-291.19C899.12,-282.46 888.25,-268.48 881,-255 872.99,-240.1 866.54,-221.96 862.35,-208.63"/>
<polygon fill="midnightblue" stroke="midnightblue" points="865.61,-207.31 859.38,-198.74 858.91,-209.33 865.61,-207.31"/>
</g>
<!-- Node21&#45;&gt;Node16 -->
<g id="edge46" class="edge">
<title>Node21&#45;&gt;Node16</title>
<path fill="none" stroke="midnightblue" d="M895.14,-291.44C875.73,-282.64 845.27,-268.81 823.04,-258.72"/>
<polygon fill="midnightblue" stroke="midnightblue" points="824.32,-255.46 813.77,-254.52 821.43,-261.84 824.32,-255.46"/>
</g>
<!-- Node21&#45;&gt;Node18 -->
<g id="edge49" class="edge">
<title>Node21&#45;&gt;Node18</title>
<path fill="none" stroke="midnightblue" d="M876.87,-297.39C798.64,-291.69 610.89,-276.96 443.75,-255.15"/>
<polygon fill="midnightblue" stroke="midnightblue" points="444.16,-251.68 433.78,-253.84 443.24,-258.62 444.16,-251.68"/>
</g>
<!-- Node22 -->
<g id="node22" class="node">
<title>Node22</title>
<g id="a_node22"><a xlink:href="Rectangle_8hpp.html" target="_top" xlink:title=" ">
<polygon fill="white" stroke="black" points="999,-235.5 999,-254.5 1085,-254.5 1085,-235.5 999,-235.5"/>
<text text-anchor="middle" x="1042" y="-242.5" font-family="Helvetica,sans-Serif" font-size="10.00">Rectangle.hpp</text>
</a>
</g>
</g>
<!-- Node21&#45;&gt;Node22 -->
<g id="edge50" class="edge">
<title>Node21&#45;&gt;Node22</title>
<path fill="none" stroke="midnightblue" d="M934.28,-291.44C955.35,-282.56 988.52,-268.56 1012.49,-258.45"/>
<polygon fill="midnightblue" stroke="midnightblue" points="1013.96,-261.63 1021.81,-254.52 1011.24,-255.18 1013.96,-261.63"/>
</g>
<!-- Node23 -->
<g id="node23" class="node">
<title>Node23</title>
<g id="a_node23"><a xlink:href="IAsset_8hpp.html" target="_top" xlink:title=" ">
<polygon fill="white" stroke="black" points="1179,-235.5 1179,-254.5 1247,-254.5 1247,-235.5 1179,-235.5"/>
<text text-anchor="middle" x="1213" y="-242.5" font-family="Helvetica,sans-Serif" font-size="10.00">IAsset.hpp</text>
</a>
</g>
</g>
<!-- Node21&#45;&gt;Node23 -->
<g id="edge53" class="edge">
<title>Node21&#45;&gt;Node23</title>
<path fill="none" stroke="midnightblue" d="M951.26,-293.27C1006.5,-283.29 1109.89,-264.62 1168.85,-253.97"/>
<polygon fill="midnightblue" stroke="midnightblue" points="1169.75,-257.37 1178.97,-252.15 1168.5,-250.48 1169.75,-257.37"/>
</g>
<!-- Node22&#45;&gt;Node5 -->
<g id="edge51" class="edge">
<title>Node22&#45;&gt;Node5</title>
<path fill="none" stroke="midnightblue" d="M1050.28,-235.08C1075.05,-208.38 1148.81,-128.87 1180.86,-94.32"/>
<polygon fill="midnightblue" stroke="midnightblue" points="1183.82,-96.28 1188.05,-86.57 1178.68,-91.52 1183.82,-96.28"/>
</g>
<!-- Node22&#45;&gt;Node13 -->
<g id="edge52" class="edge">
<title>Node22&#45;&gt;Node13</title>
<path fill="none" stroke="midnightblue" d="M1035.23,-235.08C1029.44,-227.46 1020.94,-216.26 1013.86,-206.94"/>
<polygon fill="midnightblue" stroke="midnightblue" points="1016.48,-204.6 1007.64,-198.75 1010.9,-208.83 1016.48,-204.6"/>
</g>
<!-- Node24&#45;&gt;Node5 -->
<g id="edge55" class="edge">
<title>Node24&#45;&gt;Node5</title>
<path fill="none" stroke="midnightblue" d="M1278.74,-291.42C1289.97,-264.27 1320.48,-178.79 1286,-123 1274.29,-104.06 1251.93,-92.82 1232.43,-86.32"/>
<polygon fill="midnightblue" stroke="midnightblue" points="1233.44,-82.96 1222.85,-83.41 1231.4,-89.66 1233.44,-82.96"/>
</g>
<!-- Node24&#45;&gt;Node7 -->
<g id="edge57" class="edge">
<title>Node24&#45;&gt;Node7</title>
<path fill="none" stroke="midnightblue" d="M1274.74,-291.31C1273.89,-277.69 1270.35,-251.19 1256,-235 1229.06,-204.6 1208.67,-216.47 1172,-199 1154.77,-190.79 1152.33,-184.3 1134,-179 1035.89,-150.63 727.94,-138.84 609.28,-135.27"/>
<polygon fill="midnightblue" stroke="midnightblue" points="609.16,-131.76 599.06,-134.97 608.95,-138.76 609.16,-131.76"/>
</g>
<!-- Node24&#45;&gt;Node16 -->
<g id="edge56" class="edge">
<title>Node24&#45;&gt;Node16</title>
<path fill="none" stroke="midnightblue" d="M1242.71,-296.31C1228.4,-294.68 1211.36,-292.74 1196,-291 1066.45,-276.35 913.35,-259.22 839.39,-250.96"/>
<polygon fill="midnightblue" stroke="midnightblue" points="839.39,-247.44 829.07,-249.8 838.62,-254.39 839.39,-247.44"/>
</g>
<!-- Node24&#45;&gt;Node23 -->
<g id="edge58" class="edge">
<title>Node24&#45;&gt;Node23</title>
<path fill="none" stroke="midnightblue" d="M1265.04,-291.32C1255.87,-283.34 1242.06,-271.31 1230.97,-261.65"/>
<polygon fill="midnightblue" stroke="midnightblue" points="1232.98,-258.76 1223.14,-254.83 1228.38,-264.04 1232.98,-258.76"/>
</g>
<!-- Node25&#45;&gt;Node5 -->
<g id="edge60" class="edge">
<title>Node25&#45;&gt;Node5</title>
<path fill="none" stroke="midnightblue" d="M1517.99,-235.24C1494.69,-213.09 1429.77,-154.36 1365,-123 1322.03,-102.2 1268.09,-89.97 1232.87,-83.64"/>
<polygon fill="midnightblue" stroke="midnightblue" points="1233.02,-80.11 1222.57,-81.86 1231.83,-87.01 1233.02,-80.11"/>
</g>
<!-- Node25&#45;&gt;Node7 -->
<g id="edge61" class="edge">
<title>Node25&#45;&gt;Node7</title>
<path fill="none" stroke="midnightblue" d="M1488.08,-235.45C1422.98,-221.48 1287.75,-193.82 1172,-179 963.24,-152.27 712.1,-139.96 609.33,-135.76"/>
<polygon fill="midnightblue" stroke="midnightblue" points="609.41,-132.26 599.27,-135.35 609.13,-139.25 609.41,-132.26"/>
</g>
<!-- Node25&#45;&gt;Node13 -->
<g id="edge62" class="edge">
<title>Node25&#45;&gt;Node13</title>
<path fill="none" stroke="midnightblue" d="M1483.33,-236.95C1478.5,-236.25 1473.65,-235.58 1469,-235 1311.85,-215.27 1124.06,-199.6 1042.36,-193.16"/>
<polygon fill="midnightblue" stroke="midnightblue" points="1042.25,-189.65 1032.01,-192.35 1041.71,-196.62 1042.25,-189.65"/>
</g>
<!-- Node26&#45;&gt;Node5 -->
<g id="edge66" class="edge">
<title>Node26&#45;&gt;Node5</title>
<path fill="none" stroke="midnightblue" d="M1396.5,-297.99C1452.48,-294 1557.25,-282.9 1580,-255 1585.62,-248.11 1584.35,-242.75 1580,-235 1509.42,-109.41 1314.71,-84.23 1232.93,-79.22"/>
<polygon fill="midnightblue" stroke="midnightblue" points="1232.8,-75.71 1222.62,-78.66 1232.42,-82.7 1232.8,-75.71"/>
</g>
<!-- Node26&#45;&gt;Node14 -->
<g id="edge65" class="edge">
<title>Node26&#45;&gt;Node14</title>
<path fill="none" stroke="midnightblue" d="M1350.77,-291.47C1332.86,-277.06 1294.09,-248.19 1256,-235 1221.62,-223.1 977.97,-200.68 889.23,-192.82"/>
<polygon fill="midnightblue" stroke="midnightblue" points="889.47,-189.32 879.2,-191.93 888.85,-196.3 889.47,-189.32"/>
</g>
<!-- Node26&#45;&gt;Node23 -->
<g id="edge64" class="edge">
<title>Node26&#45;&gt;Node23</title>
<path fill="none" stroke="midnightblue" d="M1337.55,-291.44C1312.87,-282.44 1273.81,-268.19 1246.02,-258.05"/>
<polygon fill="midnightblue" stroke="midnightblue" points="1246.94,-254.66 1236.34,-254.52 1244.54,-261.23 1246.94,-254.66"/>
</g>
<!-- Node27 -->
<g id="node27" class="node">
<title>Node27</title>
<g id="a_node27"><a xlink:title=" ">
<polygon fill="white" stroke="#bfbfbf" points="1379.5,-235.5 1379.5,-254.5 1426.5,-254.5 1426.5,-235.5 1379.5,-235.5"/>
<text text-anchor="middle" x="1403" y="-242.5" font-family="Helvetica,sans-Serif" font-size="10.00">vector</text>
</a>
</g>
</g>
<!-- Node26&#45;&gt;Node27 -->
<g id="edge67" class="edge">
<title>Node26&#45;&gt;Node27</title>
<path fill="none" stroke="midnightblue" d="M1367.94,-291.08C1373.93,-283.38 1382.75,-272.03 1390.05,-262.65"/>
<polygon fill="midnightblue" stroke="midnightblue" points="1392.82,-264.79 1396.19,-254.75 1387.29,-260.5 1392.82,-264.79"/>
</g>
<!-- Node29&#45;&gt;Node4 -->
<g id="edge71" class="edge">
<title>Node29&#45;&gt;Node4</title>
<path fill="none" stroke="midnightblue" d="M235.4,-347.44C234.35,-325.76 234.64,-268.05 264,-235 274.99,-222.63 312.92,-209.99 344.15,-201.27"/>
<polygon fill="midnightblue" stroke="midnightblue" points="345.28,-204.59 354.01,-198.58 343.44,-197.84 345.28,-204.59"/>
</g>
<!-- Node31&#45;&gt;Node4 -->
<g id="edge77" class="edge">
<title>Node31&#45;&gt;Node4</title>
<path fill="none" stroke="midnightblue" d="M210.59,-235.44C247.19,-226.12 305.84,-211.18 345.83,-201"/>
<polygon fill="midnightblue" stroke="midnightblue" points="346.74,-204.38 355.57,-198.52 345.01,-197.59 346.74,-204.38"/>
</g>
<!-- Node31&#45;&gt;Node5 -->
<g id="edge76" class="edge">
<title>Node31&#45;&gt;Node5</title>
<path fill="none" stroke="midnightblue" d="M187.32,-235.48C203.92,-222.08 237.93,-195.89 270,-179 332.59,-146.03 349.79,-137.66 419,-123 562.99,-92.51 1024.59,-81.32 1158.97,-78.67"/>
<polygon fill="midnightblue" stroke="midnightblue" points="1159.22,-82.16 1169.15,-78.47 1159.09,-75.17 1159.22,-82.16"/>
</g>
<!-- Node31&#45;&gt;Node19 -->
<g id="edge78" class="edge">
<title>Node31&#45;&gt;Node19</title>
<path fill="none" stroke="midnightblue" d="M197.44,-235.44C218.67,-226.56 252.1,-212.56 276.25,-202.45"/>
<polygon fill="midnightblue" stroke="midnightblue" points="277.78,-205.61 285.66,-198.52 275.08,-199.15 277.78,-205.61"/>
</g>
<!-- Node32&#45;&gt;Node5 -->
<g id="edge81" class="edge">
<title>Node32&#45;&gt;Node5</title>
<path fill="none" stroke="midnightblue" d="M1708.66,-179.4C1699.11,-164.88 1677.61,-135.85 1651,-123 1577.35,-87.44 1327.47,-79.97 1232.78,-78.41"/>
<polygon fill="midnightblue" stroke="midnightblue" points="1232.6,-74.91 1222.55,-78.25 1232.49,-81.91 1232.6,-74.91"/>
</g>
<!-- Node32&#45;&gt;Node7 -->
<g id="edge80" class="edge">
<title>Node32&#45;&gt;Node7</title>
<path fill="none" stroke="midnightblue" d="M1664.87,-185.7C1475.62,-176.83 795.16,-144.93 609.23,-136.21"/>
<polygon fill="midnightblue" stroke="midnightblue" points="609.38,-132.72 599.23,-135.74 609.05,-139.71 609.38,-132.72"/>
</g>
</g>
</svg>
