<?xml version="1.0" encoding="UTF-8" standalone="no"?>
<!DOCTYPE svg PUBLIC "-//W3C//DTD SVG 1.1//EN"
 "http://www.w3.org/Graphics/SVG/1.1/DTD/svg11.dtd">
<!-- Generated by graphviz version 2.43.0 (0)
 -->
<!-- Title: Libs/RayLib/sources/Rectangle/Rectangle.hpp Pages: 1 -->
<svg width="406pt" height="274pt"
 viewBox="0.00 0.00 406.00 274.00" xmlns="http://www.w3.org/2000/svg" xmlns:xlink="http://www.w3.org/1999/xlink">
<g id="graph0" class="graph" transform="scale(1 1) rotate(0) translate(4 270)">
<title>Libs/RayLib/sources/Rectangle/Rectangle.hpp</title>
<polygon fill="white" stroke="transparent" points="-4,4 -4,-270 402,-270 402,4 -4,4"/>
<!-- Node1 -->
<g id="node1" class="node">
<title>Node1</title>
<g id="a_node1"><a xlink:title=" ">
<polygon fill="#bfbfbf" stroke="black" points="12,-235.5 12,-265.5 153,-265.5 153,-235.5 12,-235.5"/>
<text text-anchor="start" x="20" y="-253.5" font-family="Helvetica,sans-Serif" font-size="10.00">Libs/RayLib/sources</text>
<text text-anchor="middle" x="82.5" y="-242.5" font-family="Helvetica,sans-Serif" font-size="10.00">/Rectangle/Rectangle.hpp</text>
</a>
</g>
</g>
<!-- Node2 -->
<g id="node2" class="node">
<title>Node2</title>
<g id="a_node2"><a xlink:title=" ">
<polygon fill="white" stroke="#bfbfbf" points="27,-67.5 27,-86.5 80,-86.5 80,-67.5 27,-67.5"/>
<text text-anchor="middle" x="53.5" y="-74.5" font-family="Helvetica,sans-Serif" font-size="10.00">raylib.h</text>
</a>
</g>
</g>
<!-- Node1&#45;&gt;Node2 -->
<g id="edge1" class="edge">
<title>Node1&#45;&gt;Node2</title>
<path fill="none" stroke="midnightblue" d="M79.55,-235.38C77.47,-225.27 74.69,-211.32 72.5,-199 66.08,-162.83 59.67,-120.38 56.19,-96.6"/>
<polygon fill="midnightblue" stroke="midnightblue" points="59.62,-95.92 54.72,-86.53 52.7,-96.93 59.62,-95.92"/>
</g>
<!-- Node3 -->
<g id="node3" class="node">
<title>Node3</title>
<g id="a_node3"><a xlink:href="Color_8hpp.html" target="_top" xlink:title=" ">
<polygon fill="white" stroke="black" points="81.5,-179.5 81.5,-198.5 143.5,-198.5 143.5,-179.5 81.5,-179.5"/>
<text text-anchor="middle" x="112.5" y="-186.5" font-family="Helvetica,sans-Serif" font-size="10.00">Color.hpp</text>
</a>
</g>
</g>
<!-- Node1&#45;&gt;Node3 -->
<g id="edge2" class="edge">
<title>Node1&#45;&gt;Node3</title>
<path fill="none" stroke="midnightblue" d="M89.61,-235.4C93.79,-227.11 99.11,-216.55 103.57,-207.71"/>
<polygon fill="midnightblue" stroke="midnightblue" points="106.76,-209.16 108.13,-198.66 100.51,-206.01 106.76,-209.16"/>
</g>
<!-- Node3&#45;&gt;Node2 -->
<g id="edge3" class="edge">
<title>Node3&#45;&gt;Node2</title>
<path fill="none" stroke="midnightblue" d="M107.87,-179.37C98.22,-161.38 75.79,-119.55 62.95,-95.63"/>
<polygon fill="midnightblue" stroke="midnightblue" points="65.92,-93.75 58.11,-86.59 59.75,-97.06 65.92,-93.75"/>
</g>
<!-- Node4 -->
<g id="node4" class="node">
<title>Node4</title>
<g id="a_node4"><a xlink:href="Vector3_8hpp.html" target="_top" xlink:title=" ">
<polygon fill="white" stroke="black" points="120.5,-123.5 120.5,-142.5 194.5,-142.5 194.5,-123.5 120.5,-123.5"/>
<text text-anchor="middle" x="157.5" y="-130.5" font-family="Helvetica,sans-Serif" font-size="10.00">Vector3.hpp</text>
</a>
</g>
</g>
<!-- Node3&#45;&gt;Node4 -->
<g id="edge4" class="edge">
<title>Node3&#45;&gt;Node4</title>
<path fill="none" stroke="midnightblue" d="M119.93,-179.08C126.35,-171.38 135.81,-160.03 143.62,-150.65"/>
<polygon fill="midnightblue" stroke="midnightblue" points="146.49,-152.67 150.21,-142.75 141.12,-148.19 146.49,-152.67"/>
</g>
<!-- Node4&#45;&gt;Node2 -->
<g id="edge5" class="edge">
<title>Node4&#45;&gt;Node2</title>
<path fill="none" stroke="midnightblue" d="M140.79,-123.32C124.19,-114.7 98.5,-101.36 79.28,-91.39"/>
<polygon fill="midnightblue" stroke="midnightblue" points="80.66,-88.16 70.17,-86.65 77.43,-94.37 80.66,-88.16"/>
</g>
<!-- Node5 -->
<g id="node5" class="node">
<title>Node5</title>
<g id="a_node5"><a xlink:href="IXMLSerializable_8hpp.html" target="_top" xlink:title=" ">
<polygon fill="white" stroke="black" points="98,-67.5 98,-86.5 217,-86.5 217,-67.5 98,-67.5"/>
<text text-anchor="middle" x="157.5" y="-74.5" font-family="Helvetica,sans-Serif" font-size="10.00">IXMLSerializable.hpp</text>
</a>
</g>
</g>
<!-- Node4&#45;&gt;Node5 -->
<g id="edge6" class="edge">
<title>Node4&#45;&gt;Node5</title>
<path fill="none" stroke="midnightblue" d="M157.5,-123.08C157.5,-116.01 157.5,-105.86 157.5,-96.99"/>
<polygon fill="midnightblue" stroke="midnightblue" points="161,-96.75 157.5,-86.75 154,-96.75 161,-96.75"/>
</g>
<!-- Node10 -->
<g id="node10" class="node">
<title>Node10</title>
<g id="a_node10"><a xlink:title=" ">
<polygon fill="white" stroke="#bfbfbf" points="235,-67.5 235,-86.5 282,-86.5 282,-67.5 235,-67.5"/>
<text text-anchor="middle" x="258.5" y="-74.5" font-family="Helvetica,sans-Serif" font-size="10.00">cmath</text>
</a>
</g>
</g>
<!-- Node4&#45;&gt;Node10 -->
<g id="edge11" class="edge">
<title>Node4&#45;&gt;Node10</title>
<path fill="none" stroke="midnightblue" d="M173.73,-123.32C189.85,-114.7 214.8,-101.36 233.46,-91.39"/>
<polygon fill="midnightblue" stroke="midnightblue" points="235.14,-94.46 242.31,-86.65 231.84,-88.28 235.14,-94.46"/>
</g>
<!-- Node11 -->
<g id="node11" class="node">
<title>Node11</title>
<g id="a_node11"><a xlink:title=" ">
<polygon fill="white" stroke="#bfbfbf" points="300.5,-67.5 300.5,-86.5 356.5,-86.5 356.5,-67.5 300.5,-67.5"/>
<text text-anchor="middle" x="328.5" y="-74.5" font-family="Helvetica,sans-Serif" font-size="10.00">sstream</text>
</a>
</g>
</g>
<!-- Node4&#45;&gt;Node11 -->
<g id="edge12" class="edge">
<title>Node4&#45;&gt;Node11</title>
<path fill="none" stroke="midnightblue" d="M184.6,-123.44C213.49,-114.32 259.42,-99.81 291.61,-89.65"/>
<polygon fill="midnightblue" stroke="midnightblue" points="293.05,-92.87 301.53,-86.52 290.94,-86.19 293.05,-92.87"/>
</g>
<!-- Node6 -->
<g id="node6" class="node">
<title>Node6</title>
<g id="a_node6"><a xlink:title=" ">
<polygon fill="white" stroke="#bfbfbf" points="0,-6 0,-25 57,-25 57,-6 0,-6"/>
<text text-anchor="middle" x="28.5" y="-13" font-family="Helvetica,sans-Serif" font-size="10.00">ostream</text>
</a>
</g>
</g>
<!-- Node5&#45;&gt;Node6 -->
<g id="edge7" class="edge">
<title>Node5&#45;&gt;Node6</title>
<path fill="none" stroke="midnightblue" d="M139.02,-67.48C117.37,-57.49 81.29,-40.85 56.27,-29.31"/>
<polygon fill="midnightblue" stroke="midnightblue" points="57.49,-26.02 46.95,-25.01 54.56,-32.38 57.49,-26.02"/>
</g>
<!-- Node7 -->
<g id="node7" class="node">
<title>Node7</title>
<g id="a_node7"><a xlink:title=" ">
<polygon fill="white" stroke="#bfbfbf" points="75.5,-6 75.5,-25 135.5,-25 135.5,-6 75.5,-6"/>
<text text-anchor="middle" x="105.5" y="-13" font-family="Helvetica,sans-Serif" font-size="10.00">iostream</text>
</a>
</g>
</g>
<!-- Node5&#45;&gt;Node7 -->
<g id="edge8" class="edge">
<title>Node5&#45;&gt;Node7</title>
<path fill="none" stroke="midnightblue" d="M150.05,-67.48C142.17,-58.46 129.56,-44.02 119.76,-32.81"/>
<polygon fill="midnightblue" stroke="midnightblue" points="122.15,-30.24 112.94,-25.01 116.88,-34.84 122.15,-30.24"/>
</g>
<!-- Node8 -->
<g id="node8" class="node">
<title>Node8</title>
<g id="a_node8"><a xlink:title=" ">
<polygon fill="white" stroke="#bfbfbf" points="154,-0.5 154,-30.5 267,-30.5 267,-0.5 154,-0.5"/>
<text text-anchor="start" x="162" y="-18.5" font-family="Helvetica,sans-Serif" font-size="10.00">boost/property_tree</text>
<text text-anchor="middle" x="210.5" y="-7.5" font-family="Helvetica,sans-Serif" font-size="10.00">/ptree.hpp</text>
</a>
</g>
</g>
<!-- Node5&#45;&gt;Node8 -->
<g id="edge9" class="edge">
<title>Node5&#45;&gt;Node8</title>
<path fill="none" stroke="midnightblue" d="M165.09,-67.48C171.87,-59.87 182.09,-48.4 191.11,-38.26"/>
<polygon fill="midnightblue" stroke="midnightblue" points="193.97,-40.32 198.01,-30.52 188.74,-35.66 193.97,-40.32"/>
</g>
<!-- Node9 -->
<g id="node9" class="node">
<title>Node9</title>
<g id="a_node9"><a xlink:title=" ">
<polygon fill="white" stroke="#bfbfbf" points="285,-0.5 285,-30.5 398,-30.5 398,-0.5 285,-0.5"/>
<text text-anchor="start" x="293" y="-18.5" font-family="Helvetica,sans-Serif" font-size="10.00">boost/property_tree</text>
<text text-anchor="middle" x="341.5" y="-7.5" font-family="Helvetica,sans-Serif" font-size="10.00">/xml_parser.hpp</text>
</a>
</g>
</g>
<!-- Node5&#45;&gt;Node9 -->
<g id="edge10" class="edge">
<title>Node5&#45;&gt;Node9</title>
<path fill="none" stroke="midnightblue" d="M183.86,-67.48C211,-58.7 254.02,-44.79 288.27,-33.71"/>
<polygon fill="midnightblue" stroke="midnightblue" points="289.7,-36.93 298.13,-30.52 287.54,-30.27 289.7,-36.93"/>
</g>
</g>
</svg>
