<?xml version="1.0" encoding="UTF-8" standalone="no"?>
<!DOCTYPE svg PUBLIC "-//W3C//DTD SVG 1.1//EN"
 "http://www.w3.org/Graphics/SVG/1.1/DTD/svg11.dtd">
<!-- Generated by graphviz version 2.43.0 (0)
 -->
<!-- Title: Libs/Engine/sources/Components/Renderer/Renderer.cpp Pages: 1 -->
<svg width="1124pt" height="509pt"
 viewBox="0.00 0.00 1123.50 509.00" xmlns="http://www.w3.org/2000/svg" xmlns:xlink="http://www.w3.org/1999/xlink">
<g id="graph0" class="graph" transform="scale(1 1) rotate(0) translate(4 505)">
<title>Libs/Engine/sources/Components/Renderer/Renderer.cpp</title>
<polygon fill="white" stroke="transparent" points="-4,4 -4,-505 1119.5,-505 1119.5,4 -4,4"/>
<!-- Node1 -->
<g id="node1" class="node">
<title>Node1</title>
<g id="a_node1"><a xlink:title=" ">
<polygon fill="#bfbfbf" stroke="black" points="440,-459.5 440,-500.5 568,-500.5 568,-459.5 440,-459.5"/>
<text text-anchor="start" x="448" y="-488.5" font-family="Helvetica,sans-Serif" font-size="10.00">Libs/Engine/sources</text>
<text text-anchor="start" x="448" y="-477.5" font-family="Helvetica,sans-Serif" font-size="10.00">/Components/Renderer</text>
<text text-anchor="middle" x="504" y="-466.5" font-family="Helvetica,sans-Serif" font-size="10.00">/Renderer.cpp</text>
</a>
</g>
</g>
<!-- Node2 -->
<g id="node2" class="node">
<title>Node2</title>
<g id="a_node2"><a xlink:href="Renderer_8hpp.html" target="_top" xlink:title=" ">
<polygon fill="white" stroke="black" points="463.5,-403.5 463.5,-422.5 544.5,-422.5 544.5,-403.5 463.5,-403.5"/>
<text text-anchor="middle" x="504" y="-410.5" font-family="Helvetica,sans-Serif" font-size="10.00">Renderer.hpp</text>
</a>
</g>
</g>
<!-- Node1&#45;&gt;Node2 -->
<g id="edge1" class="edge">
<title>Node1&#45;&gt;Node2</title>
<path fill="none" stroke="midnightblue" d="M504,-459.5C504,-451.07 504,-441.24 504,-432.87"/>
<polygon fill="midnightblue" stroke="midnightblue" points="507.5,-432.65 504,-422.65 500.5,-432.65 507.5,-432.65"/>
</g>
<!-- Node3 -->
<g id="node3" class="node">
<title>Node3</title>
<g id="a_node3"><a xlink:href="IComponent_8hpp.html" target="_top" xlink:title=" ">
<polygon fill="white" stroke="black" points="1012.5,-123.5 1012.5,-142.5 1109.5,-142.5 1109.5,-123.5 1012.5,-123.5"/>
<text text-anchor="middle" x="1061" y="-130.5" font-family="Helvetica,sans-Serif" font-size="10.00">IComponent.hpp</text>
</a>
</g>
</g>
<!-- Node2&#45;&gt;Node3 -->
<g id="edge2" class="edge">
<title>Node2&#45;&gt;Node3</title>
<path fill="none" stroke="midnightblue" d="M544.52,-412.52C671.76,-413.08 1055,-406.13 1055,-302 1055,-302 1055,-302 1055,-244 1055,-211.9 1057.58,-174.61 1059.36,-152.73"/>
<polygon fill="midnightblue" stroke="midnightblue" points="1062.86,-152.81 1060.22,-142.55 1055.89,-152.22 1062.86,-152.81"/>
</g>
<!-- Node9 -->
<g id="node9" class="node">
<title>Node9</title>
<g id="a_node9"><a xlink:href="Model_8hpp.html" target="_top" xlink:title=" ">
<polygon fill="white" stroke="black" points="358,-347.5 358,-366.5 426,-366.5 426,-347.5 358,-347.5"/>
<text text-anchor="middle" x="392" y="-354.5" font-family="Helvetica,sans-Serif" font-size="10.00">Model.hpp</text>
</a>
</g>
</g>
<!-- Node2&#45;&gt;Node9 -->
<g id="edge9" class="edge">
<title>Node2&#45;&gt;Node9</title>
<path fill="none" stroke="midnightblue" d="M486.01,-403.32C467.96,-394.62 439.95,-381.12 419.2,-371.11"/>
<polygon fill="midnightblue" stroke="midnightblue" points="420.48,-367.84 409.95,-366.65 417.44,-374.15 420.48,-367.84"/>
</g>
<!-- Node16 -->
<g id="node16" class="node">
<title>Node16</title>
<g id="a_node16"><a xlink:href="Texture_8hpp.html" target="_top" xlink:title=" ">
<polygon fill="white" stroke="black" points="467,-291.5 467,-310.5 541,-310.5 541,-291.5 467,-291.5"/>
<text text-anchor="middle" x="504" y="-298.5" font-family="Helvetica,sans-Serif" font-size="10.00">Texture.hpp</text>
</a>
</g>
</g>
<!-- Node2&#45;&gt;Node16 -->
<g id="edge59" class="edge">
<title>Node2&#45;&gt;Node16</title>
<path fill="none" stroke="midnightblue" d="M504,-403.37C504,-385.62 504,-344.67 504,-320.6"/>
<polygon fill="midnightblue" stroke="midnightblue" points="507.5,-320.59 504,-310.59 500.5,-320.59 507.5,-320.59"/>
</g>
<!-- Node4 -->
<g id="node4" class="node">
<title>Node4</title>
<g id="a_node4"><a xlink:title=" ">
<polygon fill="white" stroke="#bfbfbf" points="1058.5,-6 1058.5,-25 1115.5,-25 1115.5,-6 1058.5,-6"/>
<text text-anchor="middle" x="1087" y="-13" font-family="Helvetica,sans-Serif" font-size="10.00">ostream</text>
</a>
</g>
</g>
<!-- Node3&#45;&gt;Node4 -->
<g id="edge3" class="edge">
<title>Node3&#45;&gt;Node4</title>
<path fill="none" stroke="midnightblue" d="M1062.95,-123.32C1067.15,-104.67 1077.11,-60.44 1082.81,-35.13"/>
<polygon fill="midnightblue" stroke="midnightblue" points="1086.24,-35.81 1085.02,-25.28 1079.41,-34.27 1086.24,-35.81"/>
</g>
<!-- Node5 -->
<g id="node5" class="node">
<title>Node5</title>
<g id="a_node5"><a xlink:href="IXMLSerializable_8hpp.html" target="_top" xlink:title=" ">
<polygon fill="white" stroke="black" points="924.5,-67.5 924.5,-86.5 1043.5,-86.5 1043.5,-67.5 924.5,-67.5"/>
<text text-anchor="middle" x="984" y="-74.5" font-family="Helvetica,sans-Serif" font-size="10.00">IXMLSerializable.hpp</text>
</a>
</g>
</g>
<!-- Node3&#45;&gt;Node5 -->
<g id="edge4" class="edge">
<title>Node3&#45;&gt;Node5</title>
<path fill="none" stroke="midnightblue" d="M1048.63,-123.32C1036.84,-115.06 1018.87,-102.45 1004.86,-92.63"/>
<polygon fill="midnightblue" stroke="midnightblue" points="1006.54,-89.53 996.34,-86.65 1002.52,-95.26 1006.54,-89.53"/>
</g>
<!-- Node5&#45;&gt;Node4 -->
<g id="edge5" class="edge">
<title>Node5&#45;&gt;Node4</title>
<path fill="none" stroke="midnightblue" d="M998.76,-67.48C1015.66,-57.71 1043.58,-41.58 1063.49,-30.08"/>
<polygon fill="midnightblue" stroke="midnightblue" points="1065.36,-33.04 1072.27,-25.01 1061.86,-26.98 1065.36,-33.04"/>
</g>
<!-- Node6 -->
<g id="node6" class="node">
<title>Node6</title>
<g id="a_node6"><a xlink:title=" ">
<polygon fill="white" stroke="#bfbfbf" points="849,-6 849,-25 909,-25 909,-6 849,-6"/>
<text text-anchor="middle" x="879" y="-13" font-family="Helvetica,sans-Serif" font-size="10.00">iostream</text>
</a>
</g>
</g>
<!-- Node5&#45;&gt;Node6 -->
<g id="edge6" class="edge">
<title>Node5&#45;&gt;Node6</title>
<path fill="none" stroke="midnightblue" d="M968.96,-67.48C951.72,-57.71 923.26,-41.58 902.97,-30.08"/>
<polygon fill="midnightblue" stroke="midnightblue" points="904.44,-26.89 894.02,-25.01 900.99,-32.98 904.44,-26.89"/>
</g>
<!-- Node7 -->
<g id="node7" class="node">
<title>Node7</title>
<g id="a_node7"><a xlink:title=" ">
<polygon fill="white" stroke="#bfbfbf" points="927.5,-0.5 927.5,-30.5 1040.5,-30.5 1040.5,-0.5 927.5,-0.5"/>
<text text-anchor="start" x="935.5" y="-18.5" font-family="Helvetica,sans-Serif" font-size="10.00">boost/property_tree</text>
<text text-anchor="middle" x="984" y="-7.5" font-family="Helvetica,sans-Serif" font-size="10.00">/ptree.hpp</text>
</a>
</g>
</g>
<!-- Node5&#45;&gt;Node7 -->
<g id="edge7" class="edge">
<title>Node5&#45;&gt;Node7</title>
<path fill="none" stroke="midnightblue" d="M984,-67.48C984,-60.47 984,-50.19 984,-40.7"/>
<polygon fill="midnightblue" stroke="midnightblue" points="987.5,-40.52 984,-30.52 980.5,-40.52 987.5,-40.52"/>
</g>
<!-- Node8 -->
<g id="node8" class="node">
<title>Node8</title>
<g id="a_node8"><a xlink:title=" ">
<polygon fill="white" stroke="#bfbfbf" points="717.5,-0.5 717.5,-30.5 830.5,-30.5 830.5,-0.5 717.5,-0.5"/>
<text text-anchor="start" x="725.5" y="-18.5" font-family="Helvetica,sans-Serif" font-size="10.00">boost/property_tree</text>
<text text-anchor="middle" x="774" y="-7.5" font-family="Helvetica,sans-Serif" font-size="10.00">/xml_parser.hpp</text>
</a>
</g>
</g>
<!-- Node5&#45;&gt;Node8 -->
<g id="edge8" class="edge">
<title>Node5&#45;&gt;Node8</title>
<path fill="none" stroke="midnightblue" d="M953.91,-67.48C922.55,-58.59 872.57,-44.43 833.24,-33.29"/>
<polygon fill="midnightblue" stroke="midnightblue" points="834.07,-29.88 823.49,-30.52 832.16,-36.62 834.07,-29.88"/>
</g>
<!-- Node10 -->
<g id="node10" class="node">
<title>Node10</title>
<g id="a_node10"><a xlink:title=" ">
<polygon fill="white" stroke="#bfbfbf" points="538.5,-67.5 538.5,-86.5 591.5,-86.5 591.5,-67.5 538.5,-67.5"/>
<text text-anchor="middle" x="565" y="-74.5" font-family="Helvetica,sans-Serif" font-size="10.00">raylib.h</text>
</a>
</g>
</g>
<!-- Node9&#45;&gt;Node10 -->
<g id="edge10" class="edge">
<title>Node9&#45;&gt;Node10</title>
<path fill="none" stroke="midnightblue" d="M357.8,-353.77C285.86,-348.68 121.4,-334.74 71,-311 32.3,-292.77 0,-288.78 0,-246 0,-246 0,-246 0,-188 0,-80.1 402.07,-75.96 527.85,-77.31"/>
<polygon fill="midnightblue" stroke="midnightblue" points="528.09,-80.81 538.13,-77.44 528.17,-73.82 528.09,-80.81"/>
</g>
<!-- Node11 -->
<g id="node11" class="node">
<title>Node11</title>
<g id="a_node11"><a xlink:title=" ">
<polygon fill="white" stroke="#bfbfbf" points="332,-179.5 332,-198.5 376,-198.5 376,-179.5 332,-179.5"/>
<text text-anchor="middle" x="354" y="-186.5" font-family="Helvetica,sans-Serif" font-size="10.00">string</text>
</a>
</g>
</g>
<!-- Node9&#45;&gt;Node11 -->
<g id="edge11" class="edge">
<title>Node9&#45;&gt;Node11</title>
<path fill="none" stroke="midnightblue" d="M357.78,-356.33C285.28,-356.23 119.96,-351.45 85,-311 15.41,-230.46 236.17,-200.94 321.66,-192.68"/>
<polygon fill="midnightblue" stroke="midnightblue" points="322.22,-196.15 331.85,-191.74 321.57,-189.18 322.22,-196.15"/>
</g>
<!-- Node12 -->
<g id="node12" class="node">
<title>Node12</title>
<g id="a_node12"><a xlink:href="Vector3_8hpp.html" target="_top" xlink:title=" ">
<polygon fill="white" stroke="black" points="806,-123.5 806,-142.5 880,-142.5 880,-123.5 806,-123.5"/>
<text text-anchor="middle" x="843" y="-130.5" font-family="Helvetica,sans-Serif" font-size="10.00">Vector3.hpp</text>
</a>
</g>
</g>
<!-- Node9&#45;&gt;Node12 -->
<g id="edge12" class="edge">
<title>Node9&#45;&gt;Node12</title>
<path fill="none" stroke="midnightblue" d="M426.33,-356.44C488.16,-356.13 621.42,-350.45 725,-311 766.59,-295.16 785.08,-293.14 808,-255 825.49,-225.89 805.23,-211.21 816,-179 819.28,-169.19 824.96,-159.23 830.27,-151.18"/>
<polygon fill="midnightblue" stroke="midnightblue" points="833.31,-152.94 836.17,-142.73 827.57,-148.93 833.31,-152.94"/>
</g>
<!-- Node15 -->
<g id="node15" class="node">
<title>Node15</title>
<g id="a_node15"><a xlink:href="Color_8hpp.html" target="_top" xlink:title=" ">
<polygon fill="white" stroke="black" points="593,-179.5 593,-198.5 655,-198.5 655,-179.5 593,-179.5"/>
<text text-anchor="middle" x="624" y="-186.5" font-family="Helvetica,sans-Serif" font-size="10.00">Color.hpp</text>
</a>
</g>
</g>
<!-- Node9&#45;&gt;Node15 -->
<g id="edge17" class="edge">
<title>Node9&#45;&gt;Node15</title>
<path fill="none" stroke="midnightblue" d="M426.27,-354.78C484.51,-350.58 600.77,-332.41 645,-255 653.6,-239.94 645.52,-220.87 637.01,-207.29"/>
<polygon fill="midnightblue" stroke="midnightblue" points="639.79,-205.16 631.25,-198.88 634.02,-209.11 639.79,-205.16"/>
</g>
<!-- Node9&#45;&gt;Node16 -->
<g id="edge20" class="edge">
<title>Node9&#45;&gt;Node16</title>
<path fill="none" stroke="midnightblue" d="M409.99,-347.32C428.04,-338.62 456.05,-325.12 476.8,-315.11"/>
<polygon fill="midnightblue" stroke="midnightblue" points="478.56,-318.15 486.05,-310.65 475.52,-311.84 478.56,-318.15"/>
</g>
<!-- Node23 -->
<g id="node23" class="node">
<title>Node23</title>
<g id="a_node23"><a xlink:href="Mesh_8hpp.html" target="_top" xlink:title=" ">
<polygon fill="white" stroke="black" points="310,-291.5 310,-310.5 374,-310.5 374,-291.5 310,-291.5"/>
<text text-anchor="middle" x="342" y="-298.5" font-family="Helvetica,sans-Serif" font-size="10.00">Mesh.hpp</text>
</a>
</g>
</g>
<!-- Node9&#45;&gt;Node23 -->
<g id="edge44" class="edge">
<title>Node9&#45;&gt;Node23</title>
<path fill="none" stroke="midnightblue" d="M383.74,-347.08C376.54,-339.3 365.89,-327.8 357.15,-318.37"/>
<polygon fill="midnightblue" stroke="midnightblue" points="359.47,-315.71 350.1,-310.75 354.33,-320.47 359.47,-315.71"/>
</g>
<!-- Node24 -->
<g id="node24" class="node">
<title>Node24</title>
<g id="a_node24"><a xlink:href="IDrawable_8hpp.html" target="_top" xlink:title=" ">
<polygon fill="white" stroke="black" points="712.5,-235.5 712.5,-254.5 799.5,-254.5 799.5,-235.5 712.5,-235.5"/>
<text text-anchor="middle" x="756" y="-242.5" font-family="Helvetica,sans-Serif" font-size="10.00">IDrawable.hpp</text>
</a>
</g>
</g>
<!-- Node9&#45;&gt;Node24 -->
<g id="edge49" class="edge">
<title>Node9&#45;&gt;Node24</title>
<path fill="none" stroke="midnightblue" d="M426.11,-353.91C495.73,-349.18 651.49,-336.05 698,-311 718.51,-299.95 735.34,-278.67 745.49,-263.46"/>
<polygon fill="midnightblue" stroke="midnightblue" points="748.5,-265.25 750.92,-254.93 742.6,-261.49 748.5,-265.25"/>
</g>
<!-- Node25 -->
<g id="node25" class="node">
<title>Node25</title>
<g id="a_node25"><a xlink:href="Shader_8hpp.html" target="_top" xlink:title=" ">
<polygon fill="white" stroke="black" points="179.5,-291.5 179.5,-310.5 250.5,-310.5 250.5,-291.5 179.5,-291.5"/>
<text text-anchor="middle" x="215" y="-298.5" font-family="Helvetica,sans-Serif" font-size="10.00">Shader.hpp</text>
</a>
</g>
</g>
<!-- Node9&#45;&gt;Node25 -->
<g id="edge53" class="edge">
<title>Node9&#45;&gt;Node25</title>
<path fill="none" stroke="midnightblue" d="M363.95,-347.44C333.92,-338.28 286.09,-323.69 252.76,-313.52"/>
<polygon fill="midnightblue" stroke="midnightblue" points="253.5,-310.09 242.91,-310.52 251.46,-316.78 253.5,-310.09"/>
</g>
<!-- Node27 -->
<g id="node27" class="node">
<title>Node27</title>
<g id="a_node27"><a xlink:title=" ">
<polygon fill="white" stroke="#bfbfbf" points="94.5,-291.5 94.5,-310.5 161.5,-310.5 161.5,-291.5 94.5,-291.5"/>
<text text-anchor="middle" x="128" y="-298.5" font-family="Helvetica,sans-Serif" font-size="10.00">raymath.h</text>
</a>
</g>
</g>
<!-- Node9&#45;&gt;Node27 -->
<g id="edge58" class="edge">
<title>Node9&#45;&gt;Node27</title>
<path fill="none" stroke="midnightblue" d="M357.75,-349.18C316.08,-340.86 243.32,-326.23 171.97,-311.4"/>
<polygon fill="midnightblue" stroke="midnightblue" points="172.42,-307.92 161.92,-309.3 171,-314.77 172.42,-307.92"/>
</g>
<!-- Node12&#45;&gt;Node5 -->
<g id="edge14" class="edge">
<title>Node12&#45;&gt;Node5</title>
<path fill="none" stroke="midnightblue" d="M865.34,-123.44C888.75,-114.48 925.74,-100.31 952.19,-90.18"/>
<polygon fill="midnightblue" stroke="midnightblue" points="953.68,-93.36 961.76,-86.52 951.17,-86.82 953.68,-93.36"/>
</g>
<!-- Node12&#45;&gt;Node10 -->
<g id="edge13" class="edge">
<title>Node12&#45;&gt;Node10</title>
<path fill="none" stroke="midnightblue" d="M805.8,-124.77C752.39,-114.4 654.62,-95.41 601.57,-85.1"/>
<polygon fill="midnightblue" stroke="midnightblue" points="602.07,-81.63 591.58,-83.16 600.73,-88.51 602.07,-81.63"/>
</g>
<!-- Node13 -->
<g id="node13" class="node">
<title>Node13</title>
<g id="a_node13"><a xlink:title=" ">
<polygon fill="white" stroke="#bfbfbf" points="859.5,-67.5 859.5,-86.5 906.5,-86.5 906.5,-67.5 859.5,-67.5"/>
<text text-anchor="middle" x="883" y="-74.5" font-family="Helvetica,sans-Serif" font-size="10.00">cmath</text>
</a>
</g>
</g>
<!-- Node12&#45;&gt;Node13 -->
<g id="edge15" class="edge">
<title>Node12&#45;&gt;Node13</title>
<path fill="none" stroke="midnightblue" d="M849.61,-123.08C855.26,-115.46 863.54,-104.26 870.45,-94.94"/>
<polygon fill="midnightblue" stroke="midnightblue" points="873.38,-96.87 876.52,-86.75 867.75,-92.7 873.38,-96.87"/>
</g>
<!-- Node14 -->
<g id="node14" class="node">
<title>Node14</title>
<g id="a_node14"><a xlink:title=" ">
<polygon fill="white" stroke="#bfbfbf" points="785,-67.5 785,-86.5 841,-86.5 841,-67.5 785,-67.5"/>
<text text-anchor="middle" x="813" y="-74.5" font-family="Helvetica,sans-Serif" font-size="10.00">sstream</text>
</a>
</g>
</g>
<!-- Node12&#45;&gt;Node14 -->
<g id="edge16" class="edge">
<title>Node12&#45;&gt;Node14</title>
<path fill="none" stroke="midnightblue" d="M838.05,-123.08C833.9,-115.61 827.85,-104.72 822.73,-95.52"/>
<polygon fill="midnightblue" stroke="midnightblue" points="825.78,-93.79 817.86,-86.75 819.66,-97.19 825.78,-93.79"/>
</g>
<!-- Node15&#45;&gt;Node10 -->
<g id="edge18" class="edge">
<title>Node15&#45;&gt;Node10</title>
<path fill="none" stroke="midnightblue" d="M619.37,-179.37C609.72,-161.38 587.29,-119.55 574.45,-95.63"/>
<polygon fill="midnightblue" stroke="midnightblue" points="577.42,-93.75 569.61,-86.59 571.25,-97.06 577.42,-93.75"/>
</g>
<!-- Node15&#45;&gt;Node12 -->
<g id="edge19" class="edge">
<title>Node15&#45;&gt;Node12</title>
<path fill="none" stroke="midnightblue" d="M655.38,-180.26C692.93,-171 756.07,-155.43 798.62,-144.94"/>
<polygon fill="midnightblue" stroke="midnightblue" points="799.56,-148.32 808.43,-142.52 797.88,-141.52 799.56,-148.32"/>
</g>
<!-- Node16&#45;&gt;Node10 -->
<g id="edge21" class="edge">
<title>Node16&#45;&gt;Node10</title>
<path fill="none" stroke="midnightblue" d="M506.39,-291.3C515.39,-258.56 547.31,-142.38 559.87,-96.67"/>
<polygon fill="midnightblue" stroke="midnightblue" points="563.28,-97.45 562.56,-86.88 556.53,-95.6 563.28,-97.45"/>
</g>
<!-- Node16&#45;&gt;Node11 -->
<g id="edge22" class="edge">
<title>Node16&#45;&gt;Node11</title>
<path fill="none" stroke="midnightblue" d="M472.11,-291.48C449.89,-284.38 420.5,-272.57 399,-255 383.11,-242.02 370.43,-222.03 362.63,-207.65"/>
<polygon fill="midnightblue" stroke="midnightblue" points="365.73,-206.02 358.04,-198.74 359.51,-209.23 365.73,-206.02"/>
</g>
<!-- Node16&#45;&gt;Node15 -->
<g id="edge32" class="edge">
<title>Node16&#45;&gt;Node15</title>
<path fill="none" stroke="midnightblue" d="M541.2,-297.42C569.88,-293.24 607.79,-282.49 627,-255 636.29,-241.7 634.22,-222.87 630.6,-208.9"/>
<polygon fill="midnightblue" stroke="midnightblue" points="633.83,-207.47 627.56,-198.93 627.13,-209.52 633.83,-207.47"/>
</g>
<!-- Node17 -->
<g id="node17" class="node">
<title>Node17</title>
<g id="a_node17"><a xlink:href="Image_8hpp.html" target="_top" xlink:title=" ">
<polygon fill="white" stroke="black" points="408,-235.5 408,-254.5 476,-254.5 476,-235.5 408,-235.5"/>
<text text-anchor="middle" x="442" y="-242.5" font-family="Helvetica,sans-Serif" font-size="10.00">Image.hpp</text>
</a>
</g>
</g>
<!-- Node16&#45;&gt;Node17 -->
<g id="edge23" class="edge">
<title>Node16&#45;&gt;Node17</title>
<path fill="none" stroke="midnightblue" d="M494.04,-291.32C484.87,-283.34 471.06,-271.31 459.97,-261.65"/>
<polygon fill="midnightblue" stroke="midnightblue" points="461.98,-258.76 452.14,-254.83 457.38,-264.04 461.98,-258.76"/>
</g>
<!-- Node18 -->
<g id="node18" class="node">
<title>Node18</title>
<g id="a_node18"><a xlink:href="Vector2_8hpp.html" target="_top" xlink:title=" ">
<polygon fill="white" stroke="black" points="937,-179.5 937,-198.5 1011,-198.5 1011,-179.5 937,-179.5"/>
<text text-anchor="middle" x="974" y="-186.5" font-family="Helvetica,sans-Serif" font-size="10.00">Vector2.hpp</text>
</a>
</g>
</g>
<!-- Node16&#45;&gt;Node18 -->
<g id="edge33" class="edge">
<title>Node16&#45;&gt;Node18</title>
<path fill="none" stroke="midnightblue" d="M541.19,-298.65C643.46,-294.6 923.41,-281.23 955,-255 968.41,-243.87 972.66,-223.84 973.86,-208.94"/>
<polygon fill="midnightblue" stroke="midnightblue" points="977.37,-208.93 974.29,-198.79 970.37,-208.63 977.37,-208.93"/>
</g>
<!-- Node19 -->
<g id="node19" class="node">
<title>Node19</title>
<g id="a_node19"><a xlink:href="Camera3D_8hpp.html" target="_top" xlink:title=" ">
<polygon fill="white" stroke="black" points="856.5,-235.5 856.5,-254.5 945.5,-254.5 945.5,-235.5 856.5,-235.5"/>
<text text-anchor="middle" x="901" y="-242.5" font-family="Helvetica,sans-Serif" font-size="10.00">Camera3D.hpp</text>
</a>
</g>
</g>
<!-- Node16&#45;&gt;Node19 -->
<g id="edge34" class="edge">
<title>Node16&#45;&gt;Node19</title>
<path fill="none" stroke="midnightblue" d="M541.35,-294.92C611.69,-285.35 764.09,-264.62 846.11,-253.47"/>
<polygon fill="midnightblue" stroke="midnightblue" points="846.8,-256.9 856.24,-252.09 845.86,-249.97 846.8,-256.9"/>
</g>
<!-- Node21 -->
<g id="node21" class="node">
<title>Node21</title>
<g id="a_node21"><a xlink:href="Rectangle_8hpp.html" target="_top" xlink:title=" ">
<polygon fill="white" stroke="black" points="532,-235.5 532,-254.5 618,-254.5 618,-235.5 532,-235.5"/>
<text text-anchor="middle" x="575" y="-242.5" font-family="Helvetica,sans-Serif" font-size="10.00">Rectangle.hpp</text>
</a>
</g>
</g>
<!-- Node16&#45;&gt;Node21 -->
<g id="edge40" class="edge">
<title>Node16&#45;&gt;Node21</title>
<path fill="none" stroke="midnightblue" d="M515.41,-291.32C526.11,-283.18 542.34,-270.84 555.16,-261.09"/>
<polygon fill="midnightblue" stroke="midnightblue" points="557.54,-263.67 563.39,-254.83 553.31,-258.1 557.54,-263.67"/>
</g>
<!-- Node22 -->
<g id="node22" class="node">
<title>Node22</title>
<g id="a_node22"><a xlink:href="IAsset_8hpp.html" target="_top" xlink:title=" ">
<polygon fill="white" stroke="black" points="208,-235.5 208,-254.5 276,-254.5 276,-235.5 208,-235.5"/>
<text text-anchor="middle" x="242" y="-242.5" font-family="Helvetica,sans-Serif" font-size="10.00">IAsset.hpp</text>
</a>
</g>
</g>
<!-- Node16&#45;&gt;Node22 -->
<g id="edge43" class="edge">
<title>Node16&#45;&gt;Node22</title>
<path fill="none" stroke="midnightblue" d="M466.74,-292.32C419.16,-282.51 336.93,-265.57 286.22,-255.11"/>
<polygon fill="midnightblue" stroke="midnightblue" points="286.71,-251.64 276.21,-253.05 285.3,-258.5 286.71,-251.64"/>
</g>
<!-- Node17&#45;&gt;Node10 -->
<g id="edge25" class="edge">
<title>Node17&#45;&gt;Node10</title>
<path fill="none" stroke="midnightblue" d="M443.44,-235.4C447.4,-214.11 460.16,-158.14 490,-123 501.69,-109.23 518.71,-98.54 533.58,-91.05"/>
<polygon fill="midnightblue" stroke="midnightblue" points="535.44,-94.04 542.96,-86.58 532.43,-87.72 535.44,-94.04"/>
</g>
<!-- Node17&#45;&gt;Node11 -->
<g id="edge24" class="edge">
<title>Node17&#45;&gt;Node11</title>
<path fill="none" stroke="midnightblue" d="M427.86,-235.32C414.13,-226.9 393.06,-213.97 376.94,-204.07"/>
<polygon fill="midnightblue" stroke="midnightblue" points="378.46,-200.9 368.1,-198.65 374.8,-206.87 378.46,-200.9"/>
</g>
<!-- Node17&#45;&gt;Node15 -->
<g id="edge26" class="edge">
<title>Node17&#45;&gt;Node15</title>
<path fill="none" stroke="midnightblue" d="M470.84,-235.44C501.86,-226.24 551.33,-211.56 585.62,-201.39"/>
<polygon fill="midnightblue" stroke="midnightblue" points="586.71,-204.72 595.3,-198.52 584.71,-198.01 586.71,-204.72"/>
</g>
<!-- Node17&#45;&gt;Node18 -->
<g id="edge27" class="edge">
<title>Node17&#45;&gt;Node18</title>
<path fill="none" stroke="midnightblue" d="M476.28,-240.09C490.7,-238.47 507.66,-236.6 523,-235 686,-217.95 726.96,-215.73 890,-199 901.85,-197.78 914.63,-196.43 926.57,-195.16"/>
<polygon fill="midnightblue" stroke="midnightblue" points="927.22,-198.61 936.79,-194.06 926.47,-191.65 927.22,-198.61"/>
</g>
<!-- Node18&#45;&gt;Node5 -->
<g id="edge31" class="edge">
<title>Node18&#45;&gt;Node5</title>
<path fill="none" stroke="midnightblue" d="M974.78,-179.37C976.4,-161.62 980.12,-120.67 982.31,-96.6"/>
<polygon fill="midnightblue" stroke="midnightblue" points="985.8,-96.87 983.22,-86.59 978.83,-96.23 985.8,-96.87"/>
</g>
<!-- Node18&#45;&gt;Node10 -->
<g id="edge28" class="edge">
<title>Node18&#45;&gt;Node10</title>
<path fill="none" stroke="midnightblue" d="M964.1,-179.38C945.45,-163.34 905.54,-129.91 889,-123 791.16,-82.16 663.7,-76.95 601.86,-77.13"/>
<polygon fill="midnightblue" stroke="midnightblue" points="601.78,-73.63 591.81,-77.21 601.84,-80.63 601.78,-73.63"/>
</g>
<!-- Node18&#45;&gt;Node12 -->
<g id="edge30" class="edge">
<title>Node18&#45;&gt;Node12</title>
<path fill="none" stroke="midnightblue" d="M953.24,-179.44C931.68,-170.56 897.74,-156.56 873.21,-146.45"/>
<polygon fill="midnightblue" stroke="midnightblue" points="874.24,-143.09 863.66,-142.52 871.57,-149.56 874.24,-143.09"/>
</g>
<!-- Node18&#45;&gt;Node13 -->
<g id="edge29" class="edge">
<title>Node18&#45;&gt;Node13</title>
<path fill="none" stroke="midnightblue" d="M967.04,-179.08C957.17,-166.47 938.46,-142.77 922,-123 913.96,-113.35 904.77,-102.72 897.33,-94.22"/>
<polygon fill="midnightblue" stroke="midnightblue" points="899.81,-91.74 890.58,-86.54 894.55,-96.36 899.81,-91.74"/>
</g>
<!-- Node19&#45;&gt;Node10 -->
<g id="edge35" class="edge">
<title>Node19&#45;&gt;Node10</title>
<path fill="none" stroke="midnightblue" d="M883.41,-235.31C828.18,-208.02 658,-123.95 591.77,-91.22"/>
<polygon fill="midnightblue" stroke="midnightblue" points="592.93,-87.9 582.42,-86.61 589.83,-94.17 592.93,-87.9"/>
</g>
<!-- Node19&#45;&gt;Node12 -->
<g id="edge37" class="edge">
<title>Node19&#45;&gt;Node12</title>
<path fill="none" stroke="midnightblue" d="M901.22,-235.46C901.2,-222.49 899.76,-197.4 890,-179 883.78,-167.27 873.36,-156.82 863.91,-148.95"/>
<polygon fill="midnightblue" stroke="midnightblue" points="866.01,-146.15 855.99,-142.73 861.69,-151.66 866.01,-146.15"/>
</g>
<!-- Node19&#45;&gt;Node18 -->
<g id="edge36" class="edge">
<title>Node19&#45;&gt;Node18</title>
<path fill="none" stroke="midnightblue" d="M912.73,-235.32C923.84,-227.11 940.74,-214.6 953.98,-204.81"/>
<polygon fill="midnightblue" stroke="midnightblue" points="956.1,-207.59 962.06,-198.83 951.94,-201.97 956.1,-207.59"/>
</g>
<!-- Node20 -->
<g id="node20" class="node">
<title>Node20</title>
<g id="a_node20"><a xlink:href="Ray_8hpp.html" target="_top" xlink:title=" ">
<polygon fill="white" stroke="black" points="825.5,-179.5 825.5,-198.5 880.5,-198.5 880.5,-179.5 825.5,-179.5"/>
<text text-anchor="middle" x="853" y="-186.5" font-family="Helvetica,sans-Serif" font-size="10.00">Ray.hpp</text>
</a>
</g>
</g>
<!-- Node19&#45;&gt;Node20 -->
<g id="edge38" class="edge">
<title>Node19&#45;&gt;Node20</title>
<path fill="none" stroke="midnightblue" d="M893.07,-235.08C886.15,-227.3 875.93,-215.8 867.55,-206.37"/>
<polygon fill="midnightblue" stroke="midnightblue" points="870.04,-203.9 860.78,-198.75 864.81,-208.55 870.04,-203.9"/>
</g>
<!-- Node20&#45;&gt;Node12 -->
<g id="edge39" class="edge">
<title>Node20&#45;&gt;Node12</title>
<path fill="none" stroke="midnightblue" d="M851.35,-179.08C850.02,-171.93 848.12,-161.64 846.46,-152.69"/>
<polygon fill="midnightblue" stroke="midnightblue" points="849.88,-151.95 844.62,-142.75 843,-153.22 849.88,-151.95"/>
</g>
<!-- Node21&#45;&gt;Node10 -->
<g id="edge41" class="edge">
<title>Node21&#45;&gt;Node10</title>
<path fill="none" stroke="midnightblue" d="M574.46,-235.08C572.89,-208.95 568.27,-132.21 566.12,-96.58"/>
<polygon fill="midnightblue" stroke="midnightblue" points="569.61,-96.34 565.52,-86.57 562.62,-96.76 569.61,-96.34"/>
</g>
<!-- Node21&#45;&gt;Node15 -->
<g id="edge42" class="edge">
<title>Node21&#45;&gt;Node15</title>
<path fill="none" stroke="midnightblue" d="M583.09,-235.08C590.16,-227.3 600.59,-215.8 609.15,-206.37"/>
<polygon fill="midnightblue" stroke="midnightblue" points="611.93,-208.51 616.06,-198.75 606.75,-203.8 611.93,-208.51"/>
</g>
<!-- Node23&#45;&gt;Node10 -->
<g id="edge45" class="edge">
<title>Node23&#45;&gt;Node10</title>
<path fill="none" stroke="midnightblue" d="M336.82,-291.21C325.04,-269.96 299.07,-214.92 323,-179 369.12,-109.77 472.69,-87.91 528.21,-81.07"/>
<polygon fill="midnightblue" stroke="midnightblue" points="528.77,-84.53 538.31,-79.93 527.98,-77.57 528.77,-84.53"/>
</g>
<!-- Node23&#45;&gt;Node12 -->
<g id="edge47" class="edge">
<title>Node23&#45;&gt;Node12</title>
<path fill="none" stroke="midnightblue" d="M347.19,-291.47C356.08,-277.58 375.53,-250.12 399,-235 525.62,-153.41 709.74,-137.32 795.61,-134.43"/>
<polygon fill="midnightblue" stroke="midnightblue" points="795.93,-137.92 805.83,-134.13 795.73,-130.93 795.93,-137.92"/>
</g>
<!-- Node23&#45;&gt;Node17 -->
<g id="edge46" class="edge">
<title>Node23&#45;&gt;Node17</title>
<path fill="none" stroke="midnightblue" d="M358.07,-291.32C373.96,-282.74 398.51,-269.49 416.96,-259.52"/>
<polygon fill="midnightblue" stroke="midnightblue" points="418.84,-262.49 425.97,-254.65 415.51,-256.33 418.84,-262.49"/>
</g>
<!-- Node23&#45;&gt;Node22 -->
<g id="edge48" class="edge">
<title>Node23&#45;&gt;Node22</title>
<path fill="none" stroke="midnightblue" d="M325.93,-291.32C310.04,-282.74 285.49,-269.49 267.04,-259.52"/>
<polygon fill="midnightblue" stroke="midnightblue" points="268.49,-256.33 258.03,-254.65 265.16,-262.49 268.49,-256.33"/>
</g>
<!-- Node24&#45;&gt;Node10 -->
<g id="edge50" class="edge">
<title>Node24&#45;&gt;Node10</title>
<path fill="none" stroke="midnightblue" d="M746,-235.31C715.32,-208.64 622.2,-127.72 582.86,-93.52"/>
<polygon fill="midnightblue" stroke="midnightblue" points="584.74,-90.52 574.9,-86.61 580.15,-95.81 584.74,-90.52"/>
</g>
<!-- Node24&#45;&gt;Node12 -->
<g id="edge51" class="edge">
<title>Node24&#45;&gt;Node12</title>
<path fill="none" stroke="midnightblue" d="M750.96,-235.24C744.06,-221.99 733.76,-196.54 745,-179 756.41,-161.2 776.82,-150.35 796.08,-143.78"/>
<polygon fill="midnightblue" stroke="midnightblue" points="797.17,-147.11 805.69,-140.8 795.1,-140.42 797.17,-147.11"/>
</g>
<!-- Node24&#45;&gt;Node15 -->
<g id="edge52" class="edge">
<title>Node24&#45;&gt;Node15</title>
<path fill="none" stroke="midnightblue" d="M735.08,-235.44C713.26,-226.52 678.85,-212.44 654.11,-202.32"/>
<polygon fill="midnightblue" stroke="midnightblue" points="655.4,-199.06 644.82,-198.52 652.75,-205.54 655.4,-199.06"/>
</g>
<!-- Node25&#45;&gt;Node10 -->
<g id="edge56" class="edge">
<title>Node25&#45;&gt;Node10</title>
<path fill="none" stroke="midnightblue" d="M182.59,-291.43C150.42,-281.18 108.16,-261.98 125,-235 212.38,-95 438.83,-78.37 528.07,-77.43"/>
<polygon fill="midnightblue" stroke="midnightblue" points="528.27,-80.93 538.26,-77.39 528.24,-73.93 528.27,-80.93"/>
</g>
<!-- Node25&#45;&gt;Node11 -->
<g id="edge55" class="edge">
<title>Node25&#45;&gt;Node11</title>
<path fill="none" stroke="midnightblue" d="M187.92,-291.41C157.04,-280.22 113.23,-259.2 133,-235 156.5,-206.23 266.6,-195.38 322,-191.7"/>
<polygon fill="midnightblue" stroke="midnightblue" points="322.23,-195.19 331.99,-191.07 321.79,-188.21 322.23,-195.19"/>
</g>
<!-- Node25&#45;&gt;Node22 -->
<g id="edge54" class="edge">
<title>Node25&#45;&gt;Node22</title>
<path fill="none" stroke="midnightblue" d="M219.46,-291.08C223.15,-283.69 228.52,-272.95 233.09,-263.81"/>
<polygon fill="midnightblue" stroke="midnightblue" points="236.28,-265.26 237.62,-254.75 230.02,-262.13 236.28,-265.26"/>
</g>
<!-- Node26 -->
<g id="node26" class="node">
<title>Node26</title>
<g id="a_node26"><a xlink:title=" ">
<polygon fill="white" stroke="#bfbfbf" points="142.5,-235.5 142.5,-254.5 189.5,-254.5 189.5,-235.5 142.5,-235.5"/>
<text text-anchor="middle" x="166" y="-242.5" font-family="Helvetica,sans-Serif" font-size="10.00">vector</text>
</a>
</g>
</g>
<!-- Node25&#45;&gt;Node26 -->
<g id="edge57" class="edge">
<title>Node25&#45;&gt;Node26</title>
<path fill="none" stroke="midnightblue" d="M206.91,-291.08C199.84,-283.3 189.41,-271.8 180.85,-262.37"/>
<polygon fill="midnightblue" stroke="midnightblue" points="183.25,-259.8 173.94,-254.75 178.07,-264.51 183.25,-259.8"/>
</g>
</g>
</svg>
