<?xml version="1.0" encoding="UTF-8" standalone="no"?>
<!DOCTYPE svg PUBLIC "-//W3C//DTD SVG 1.1//EN"
 "http://www.w3.org/Graphics/SVG/1.1/DTD/svg11.dtd">
<!-- Generated by graphviz version 2.43.0 (0)
 -->
<!-- Title: Libs/Engine/sources/Scenes/Scenes.hpp Pages: 1 -->
<svg width="1040pt" height="117pt"
 viewBox="0.00 0.00 1040.00 117.00" xmlns="http://www.w3.org/2000/svg" xmlns:xlink="http://www.w3.org/1999/xlink">
<g id="graph0" class="graph" transform="scale(1 1) rotate(0) translate(4 113)">
<title>Libs/Engine/sources/Scenes/Scenes.hpp</title>
<polygon fill="white" stroke="transparent" points="-4,4 -4,-113 1036,-113 1036,4 -4,4"/>
<!-- Node1 -->
<g id="node1" class="node">
<title>Node1</title>
<g id="a_node1"><a xlink:title=" ">
<polygon fill="#bfbfbf" stroke="black" points="490,-78.5 490,-108.5 603,-108.5 603,-78.5 490,-78.5"/>
<text text-anchor="start" x="498" y="-96.5" font-family="Helvetica,sans-Serif" font-size="10.00">Libs/Engine/sources</text>
<text text-anchor="middle" x="546.5" y="-85.5" font-family="Helvetica,sans-Serif" font-size="10.00">/Scenes/Scenes.hpp</text>
</a>
</g>
</g>
<!-- Node2 -->
<g id="node2" class="node">
<title>Node2</title>
<g id="a_node2"><a xlink:href="Bomberman_2sources_2main_8cpp.html" target="_top" xlink:title=" ">
<polygon fill="white" stroke="black" points="0,-11.5 0,-30.5 165,-30.5 165,-11.5 0,-11.5"/>
<text text-anchor="middle" x="82.5" y="-18.5" font-family="Helvetica,sans-Serif" font-size="10.00">Bomberman/sources/main.cpp</text>
</a>
</g>
</g>
<!-- Node1&#45;&gt;Node2 -->
<g id="edge1" class="edge">
<title>Node1&#45;&gt;Node2</title>
<path fill="none" stroke="midnightblue" d="M479.68,-85.04C405.03,-76.34 280.71,-60.72 174.5,-42 155.99,-38.74 135.54,-34.37 118.64,-30.55"/>
<polygon fill="midnightblue" stroke="midnightblue" points="479.54,-88.55 489.88,-86.23 480.35,-81.6 479.54,-88.55"/>
</g>
<!-- Node3 -->
<g id="node3" class="node">
<title>Node3</title>
<g id="a_node3"><a xlink:href="ButtonCallbacks_8cpp.html" target="_top" xlink:title=" ">
<polygon fill="white" stroke="black" points="183.5,-0.5 183.5,-41.5 347.5,-41.5 347.5,-0.5 183.5,-0.5"/>
<text text-anchor="start" x="191.5" y="-29.5" font-family="Helvetica,sans-Serif" font-size="10.00">Libs/Engine/sources</text>
<text text-anchor="start" x="191.5" y="-18.5" font-family="Helvetica,sans-Serif" font-size="10.00">/Components/ButtonCallbacks</text>
<text text-anchor="middle" x="265.5" y="-7.5" font-family="Helvetica,sans-Serif" font-size="10.00">/ButtonCallbacks.cpp</text>
</a>
</g>
</g>
<!-- Node1&#45;&gt;Node3 -->
<g id="edge2" class="edge">
<title>Node1&#45;&gt;Node3</title>
<path fill="none" stroke="midnightblue" d="M480.74,-76C439.64,-65.69 386.51,-52.36 343.32,-41.53"/>
<polygon fill="midnightblue" stroke="midnightblue" points="480.1,-79.45 490.65,-78.49 481.8,-72.66 480.1,-79.45"/>
</g>
<!-- Node4 -->
<g id="node4" class="node">
<title>Node4</title>
<g id="a_node4"><a xlink:href="GameConfigurator_8cpp.html" target="_top" xlink:title=" ">
<polygon fill="white" stroke="black" points="366,-0.5 366,-41.5 539,-41.5 539,-0.5 366,-0.5"/>
<text text-anchor="start" x="374" y="-29.5" font-family="Helvetica,sans-Serif" font-size="10.00">Libs/Engine/sources</text>
<text text-anchor="start" x="374" y="-18.5" font-family="Helvetica,sans-Serif" font-size="10.00">/Components/GameConfigurator</text>
<text text-anchor="middle" x="452.5" y="-7.5" font-family="Helvetica,sans-Serif" font-size="10.00">/GameConfigurator.cpp</text>
</a>
</g>
</g>
<!-- Node1&#45;&gt;Node4 -->
<g id="edge3" class="edge">
<title>Node1&#45;&gt;Node4</title>
<path fill="none" stroke="midnightblue" d="M519.45,-72.21C506.61,-62.58 491.33,-51.12 478.62,-41.59"/>
<polygon fill="midnightblue" stroke="midnightblue" points="517.38,-75.03 527.48,-78.23 521.58,-69.43 517.38,-75.03"/>
</g>
<!-- Node5 -->
<g id="node5" class="node">
<title>Node5</title>
<g id="a_node5"><a xlink:href="EntityFactory_8cpp.html" target="_top" xlink:title=" ">
<polygon fill="white" stroke="black" points="557,-6 557,-36 726,-36 726,-6 557,-6"/>
<text text-anchor="start" x="565" y="-24" font-family="Helvetica,sans-Serif" font-size="10.00">Libs/Engine/sources</text>
<text text-anchor="middle" x="641.5" y="-13" font-family="Helvetica,sans-Serif" font-size="10.00">/EntityFactory/EntityFactory.cpp</text>
</a>
</g>
</g>
<!-- Node1&#45;&gt;Node5 -->
<g id="edge4" class="edge">
<title>Node1&#45;&gt;Node5</title>
<path fill="none" stroke="midnightblue" d="M573.98,-72.11C589.58,-60.53 608.72,-46.33 622.63,-36"/>
<polygon fill="midnightblue" stroke="midnightblue" points="571.67,-69.46 565.72,-78.23 575.84,-75.08 571.67,-69.46"/>
</g>
<!-- Node6 -->
<g id="node6" class="node">
<title>Node6</title>
<g id="a_node6"><a xlink:href="Scenes_8cpp.html" target="_top" xlink:title=" ">
<polygon fill="white" stroke="black" points="744,-6 744,-36 857,-36 857,-6 744,-6"/>
<text text-anchor="start" x="752" y="-24" font-family="Helvetica,sans-Serif" font-size="10.00">Libs/Engine/sources</text>
<text text-anchor="middle" x="800.5" y="-13" font-family="Helvetica,sans-Serif" font-size="10.00">/Scenes/Scenes.cpp</text>
</a>
</g>
</g>
<!-- Node1&#45;&gt;Node6 -->
<g id="edge5" class="edge">
<title>Node1&#45;&gt;Node6</title>
<path fill="none" stroke="midnightblue" d="M611.27,-75.83C647.84,-66.26 694.32,-53.83 735.5,-42 741.97,-40.14 748.78,-38.12 755.46,-36.1"/>
<polygon fill="midnightblue" stroke="midnightblue" points="610.03,-72.54 601.24,-78.45 611.8,-79.31 610.03,-72.54"/>
</g>
<!-- Node7 -->
<g id="node7" class="node">
<title>Node7</title>
<g id="a_node7"><a xlink:href="Prototype_2sources_2Behaviour_2main_8cpp.html" target="_top" xlink:title=" ">
<polygon fill="white" stroke="black" points="875,-6 875,-36 1032,-36 1032,-6 875,-6"/>
<text text-anchor="start" x="883" y="-24" font-family="Helvetica,sans-Serif" font-size="10.00">Prototype/sources/Behaviour</text>
<text text-anchor="middle" x="953.5" y="-13" font-family="Helvetica,sans-Serif" font-size="10.00">/main.cpp</text>
</a>
</g>
</g>
<!-- Node1&#45;&gt;Node7 -->
<g id="edge6" class="edge">
<title>Node1&#45;&gt;Node7</title>
<path fill="none" stroke="midnightblue" d="M613.16,-83.36C678.06,-74.13 779.36,-58.87 866.5,-42 875.78,-40.2 885.58,-38.13 895.12,-36.01"/>
<polygon fill="midnightblue" stroke="midnightblue" points="612.48,-79.92 603.07,-84.78 613.46,-86.85 612.48,-79.92"/>
</g>
</g>
</svg>
