<?xml version="1.0" encoding="UTF-8" standalone="no"?>
<!DOCTYPE svg PUBLIC "-//W3C//DTD SVG 1.1//EN"
 "http://www.w3.org/Graphics/SVG/1.1/DTD/svg11.dtd">
<!-- Generated by graphviz version 2.43.0 (0)
 -->
<!-- Title: Libs/RayLib/sources/Sound/Sound.cpp Pages: 1 -->
<svg width="210pt" height="151pt"
 viewBox="0.00 0.00 210.00 151.00" xmlns="http://www.w3.org/2000/svg" xmlns:xlink="http://www.w3.org/1999/xlink">
<g id="graph0" class="graph" transform="scale(1 1) rotate(0) translate(4 147)">
<title>Libs/RayLib/sources/Sound/Sound.cpp</title>
<polygon fill="white" stroke="transparent" points="-4,4 -4,-147 206,-147 206,4 -4,4"/>
<!-- Node1 -->
<g id="node1" class="node">
<title>Node1</title>
<g id="a_node1"><a xlink:title=" ">
<polygon fill="#bfbfbf" stroke="black" points="32.5,-112.5 32.5,-142.5 145.5,-142.5 145.5,-112.5 32.5,-112.5"/>
<text text-anchor="start" x="40.5" y="-130.5" font-family="Helvetica,sans-Serif" font-size="10.00">Libs/RayLib/sources</text>
<text text-anchor="middle" x="89" y="-119.5" font-family="Helvetica,sans-Serif" font-size="10.00">/Sound/Sound.cpp</text>
</a>
</g>
</g>
<!-- Node2 -->
<g id="node2" class="node">
<title>Node2</title>
<g id="a_node2"><a xlink:href="Sound_8hpp.html" target="_top" xlink:title=" ">
<polygon fill="white" stroke="black" points="55,-56.5 55,-75.5 123,-75.5 123,-56.5 55,-56.5"/>
<text text-anchor="middle" x="89" y="-63.5" font-family="Helvetica,sans-Serif" font-size="10.00">Sound.hpp</text>
</a>
</g>
</g>
<!-- Node1&#45;&gt;Node2 -->
<g id="edge1" class="edge">
<title>Node1&#45;&gt;Node2</title>
<path fill="none" stroke="midnightblue" d="M89,-112.4C89,-104.47 89,-94.46 89,-85.86"/>
<polygon fill="midnightblue" stroke="midnightblue" points="92.5,-85.66 89,-75.66 85.5,-85.66 92.5,-85.66"/>
</g>
<!-- Node3 -->
<g id="node3" class="node">
<title>Node3</title>
<g id="a_node3"><a xlink:title=" ">
<polygon fill="white" stroke="#bfbfbf" points="0,-0.5 0,-19.5 44,-19.5 44,-0.5 0,-0.5"/>
<text text-anchor="middle" x="22" y="-7.5" font-family="Helvetica,sans-Serif" font-size="10.00">string</text>
</a>
</g>
</g>
<!-- Node2&#45;&gt;Node3 -->
<g id="edge2" class="edge">
<title>Node2&#45;&gt;Node3</title>
<path fill="none" stroke="midnightblue" d="M78.24,-56.32C68.23,-48.26 53.11,-36.08 41.07,-26.37"/>
<polygon fill="midnightblue" stroke="midnightblue" points="42.94,-23.38 32.96,-19.83 38.55,-28.83 42.94,-23.38"/>
</g>
<!-- Node4 -->
<g id="node4" class="node">
<title>Node4</title>
<g id="a_node4"><a xlink:title=" ">
<polygon fill="white" stroke="#bfbfbf" points="62.5,-0.5 62.5,-19.5 115.5,-19.5 115.5,-0.5 62.5,-0.5"/>
<text text-anchor="middle" x="89" y="-7.5" font-family="Helvetica,sans-Serif" font-size="10.00">raylib.h</text>
</a>
</g>
</g>
<!-- Node2&#45;&gt;Node4 -->
<g id="edge3" class="edge">
<title>Node2&#45;&gt;Node4</title>
<path fill="none" stroke="midnightblue" d="M89,-56.08C89,-49.01 89,-38.86 89,-29.99"/>
<polygon fill="midnightblue" stroke="midnightblue" points="92.5,-29.75 89,-19.75 85.5,-29.75 92.5,-29.75"/>
</g>
<!-- Node5 -->
<g id="node5" class="node">
<title>Node5</title>
<g id="a_node5"><a xlink:href="IAsset_8hpp.html" target="_top" xlink:title=" ">
<polygon fill="white" stroke="black" points="134,-0.5 134,-19.5 202,-19.5 202,-0.5 134,-0.5"/>
<text text-anchor="middle" x="168" y="-7.5" font-family="Helvetica,sans-Serif" font-size="10.00">IAsset.hpp</text>
</a>
</g>
</g>
<!-- Node2&#45;&gt;Node5 -->
<g id="edge4" class="edge">
<title>Node2&#45;&gt;Node5</title>
<path fill="none" stroke="midnightblue" d="M101.69,-56.32C113.9,-47.98 132.58,-35.21 147,-25.35"/>
<polygon fill="midnightblue" stroke="midnightblue" points="149.06,-28.19 155.34,-19.65 145.11,-22.41 149.06,-28.19"/>
</g>
</g>
</svg>
