<?xml version="1.0" encoding="UTF-8" standalone="no"?>
<!DOCTYPE svg PUBLIC "-//W3C//DTD SVG 1.1//EN"
 "http://www.w3.org/Graphics/SVG/1.1/DTD/svg11.dtd">
<!-- Generated by graphviz version 2.43.0 (0)
 -->
<!-- Title: Libs/Engine/sources/Components/SpeedBoost/SpeedBoost.hpp Pages: 1 -->
<svg width="338pt" height="128pt"
 viewBox="0.00 0.00 337.50 128.00" xmlns="http://www.w3.org/2000/svg" xmlns:xlink="http://www.w3.org/1999/xlink">
<g id="graph0" class="graph" transform="scale(1 1) rotate(0) translate(4 124)">
<title>Libs/Engine/sources/Components/SpeedBoost/SpeedBoost.hpp</title>
<polygon fill="white" stroke="transparent" points="-4,4 -4,-124 333.5,-124 333.5,4 -4,4"/>
<!-- Node1 -->
<g id="node1" class="node">
<title>Node1</title>
<g id="a_node1"><a xlink:title=" ">
<polygon fill="#bfbfbf" stroke="black" points="87,-78.5 87,-119.5 229,-119.5 229,-78.5 87,-78.5"/>
<text text-anchor="start" x="95" y="-107.5" font-family="Helvetica,sans-Serif" font-size="10.00">Libs/Engine/sources</text>
<text text-anchor="start" x="95" y="-96.5" font-family="Helvetica,sans-Serif" font-size="10.00">/Components/SpeedBoost</text>
<text text-anchor="middle" x="158" y="-85.5" font-family="Helvetica,sans-Serif" font-size="10.00">/SpeedBoost.hpp</text>
</a>
</g>
</g>
<!-- Node2 -->
<g id="node2" class="node">
<title>Node2</title>
<g id="a_node2"><a xlink:href="SpeedBoost_8cpp.html" target="_top" xlink:title=" ">
<polygon fill="white" stroke="black" points="0,-0.5 0,-41.5 142,-41.5 142,-0.5 0,-0.5"/>
<text text-anchor="start" x="8" y="-29.5" font-family="Helvetica,sans-Serif" font-size="10.00">Libs/Engine/sources</text>
<text text-anchor="start" x="8" y="-18.5" font-family="Helvetica,sans-Serif" font-size="10.00">/Components/SpeedBoost</text>
<text text-anchor="middle" x="71" y="-7.5" font-family="Helvetica,sans-Serif" font-size="10.00">/SpeedBoost.cpp</text>
</a>
</g>
</g>
<!-- Node1&#45;&gt;Node2 -->
<g id="edge1" class="edge">
<title>Node1&#45;&gt;Node2</title>
<path fill="none" stroke="midnightblue" d="M127.98,-71.78C116.61,-61.84 103.87,-50.72 93.33,-41.51"/>
<polygon fill="midnightblue" stroke="midnightblue" points="125.76,-74.49 135.6,-78.43 130.37,-69.21 125.76,-74.49"/>
</g>
<!-- Node3 -->
<g id="node3" class="node">
<title>Node3</title>
<g id="a_node3"><a xlink:href="EntityFactory_8cpp.html" target="_top" xlink:title=" ">
<polygon fill="white" stroke="black" points="160.5,-6 160.5,-36 329.5,-36 329.5,-6 160.5,-6"/>
<text text-anchor="start" x="168.5" y="-24" font-family="Helvetica,sans-Serif" font-size="10.00">Libs/Engine/sources</text>
<text text-anchor="middle" x="245" y="-13" font-family="Helvetica,sans-Serif" font-size="10.00">/EntityFactory/EntityFactory.cpp</text>
</a>
</g>
</g>
<!-- Node1&#45;&gt;Node3 -->
<g id="edge2" class="edge">
<title>Node1&#45;&gt;Node3</title>
<path fill="none" stroke="midnightblue" d="M188.15,-71.66C201.77,-59.76 217.33,-46.18 228.72,-36.23"/>
<polygon fill="midnightblue" stroke="midnightblue" points="185.63,-69.21 180.4,-78.43 190.24,-74.49 185.63,-69.21"/>
</g>
</g>
</svg>
