<?xml version="1.0" encoding="UTF-8" standalone="no"?>
<!DOCTYPE svg PUBLIC "-//W3C//DTD SVG 1.1//EN"
 "http://www.w3.org/Graphics/SVG/1.1/DTD/svg11.dtd">
<!-- Generated by graphviz version 2.43.0 (0)
 -->
<!-- Title: Libs/Engine/sources/Components/SquareCollider/SquareCollider.hpp Pages: 1 -->
<svg width="1616pt" height="565pt"
 viewBox="0.00 0.00 1615.50 565.00" xmlns="http://www.w3.org/2000/svg" xmlns:xlink="http://www.w3.org/1999/xlink">
<g id="graph0" class="graph" transform="scale(1 1) rotate(0) translate(4 561)">
<title>Libs/Engine/sources/Components/SquareCollider/SquareCollider.hpp</title>
<polygon fill="white" stroke="transparent" points="-4,4 -4,-561 1611.5,-561 1611.5,4 -4,4"/>
<!-- Node1 -->
<g id="node1" class="node">
<title>Node1</title>
<g id="a_node1"><a xlink:title=" ">
<polygon fill="#bfbfbf" stroke="black" points="986.5,-515.5 986.5,-556.5 1141.5,-556.5 1141.5,-515.5 986.5,-515.5"/>
<text text-anchor="start" x="994.5" y="-544.5" font-family="Helvetica,sans-Serif" font-size="10.00">Libs/Engine/sources</text>
<text text-anchor="start" x="994.5" y="-533.5" font-family="Helvetica,sans-Serif" font-size="10.00">/Components/SquareCollider</text>
<text text-anchor="middle" x="1064" y="-522.5" font-family="Helvetica,sans-Serif" font-size="10.00">/SquareCollider.hpp</text>
</a>
</g>
</g>
<!-- Node2 -->
<g id="node2" class="node">
<title>Node2</title>
<g id="a_node2"><a xlink:title=" ">
<polygon fill="white" stroke="#bfbfbf" points="265,-123.5 265,-142.5 327,-142.5 327,-123.5 265,-123.5"/>
<text text-anchor="middle" x="296" y="-130.5" font-family="Helvetica,sans-Serif" font-size="10.00">cinttypes</text>
</a>
</g>
</g>
<!-- Node1&#45;&gt;Node2 -->
<g id="edge1" class="edge">
<title>Node1&#45;&gt;Node2</title>
<path fill="none" stroke="midnightblue" d="M986.42,-532.93C780.8,-527.05 232.28,-508.76 156,-479 113.32,-462.35 76,-459.81 76,-414 76,-414 76,-414 76,-300 76,-234.79 106.83,-218.13 159,-179 174.36,-167.48 220.48,-153.61 255,-144.35"/>
<polygon fill="midnightblue" stroke="midnightblue" points="256.07,-147.68 264.84,-141.74 254.28,-140.92 256.07,-147.68"/>
</g>
<!-- Node3 -->
<g id="node3" class="node">
<title>Node3</title>
<g id="a_node3"><a xlink:href="IComponent_8hpp.html" target="_top" xlink:title=" ">
<polygon fill="white" stroke="black" points="149.5,-123.5 149.5,-142.5 246.5,-142.5 246.5,-123.5 149.5,-123.5"/>
<text text-anchor="middle" x="198" y="-130.5" font-family="Helvetica,sans-Serif" font-size="10.00">IComponent.hpp</text>
</a>
</g>
</g>
<!-- Node1&#45;&gt;Node3 -->
<g id="edge2" class="edge">
<title>Node1&#45;&gt;Node3</title>
<path fill="none" stroke="midnightblue" d="M986.46,-535.59C787.66,-536.3 263.96,-532.83 100,-479 49.64,-462.47 0,-467.01 0,-414 0,-414 0,-414 0,-244 0,-179.6 81.04,-152.58 139.42,-141.47"/>
<polygon fill="midnightblue" stroke="midnightblue" points="140.08,-144.9 149.31,-139.69 138.85,-138.01 140.08,-144.9"/>
</g>
<!-- Node9 -->
<g id="node9" class="node">
<title>Node9</title>
<g id="a_node9"><a xlink:href="Vector3_8hpp.html" target="_top" xlink:title=" ">
<polygon fill="white" stroke="black" points="1288,-291.5 1288,-310.5 1362,-310.5 1362,-291.5 1288,-291.5"/>
<text text-anchor="middle" x="1325" y="-298.5" font-family="Helvetica,sans-Serif" font-size="10.00">Vector3.hpp</text>
</a>
</g>
</g>
<!-- Node1&#45;&gt;Node9 -->
<g id="edge9" class="edge">
<title>Node1&#45;&gt;Node9</title>
<path fill="none" stroke="midnightblue" d="M1141.95,-525.38C1176.55,-517.69 1215.74,-503.86 1244,-479 1292.99,-435.89 1314.16,-357.11 1321.61,-321"/>
<polygon fill="midnightblue" stroke="midnightblue" points="1325.1,-321.35 1323.56,-310.87 1318.23,-320.03 1325.1,-321.35"/>
</g>
<!-- Node13 -->
<g id="node13" class="node">
<title>Node13</title>
<g id="a_node13"><a xlink:href="Vector2_8hpp.html" target="_top" xlink:title=" ">
<polygon fill="white" stroke="black" points="1372,-347.5 1372,-366.5 1446,-366.5 1446,-347.5 1372,-347.5"/>
<text text-anchor="middle" x="1409" y="-354.5" font-family="Helvetica,sans-Serif" font-size="10.00">Vector2.hpp</text>
</a>
</g>
</g>
<!-- Node1&#45;&gt;Node13 -->
<g id="edge14" class="edge">
<title>Node1&#45;&gt;Node13</title>
<path fill="none" stroke="midnightblue" d="M1141.73,-524.91C1185.03,-516.93 1238.77,-502.97 1282,-479 1295.01,-471.78 1362.18,-405.06 1393.22,-373.9"/>
<polygon fill="midnightblue" stroke="midnightblue" points="1395.72,-376.36 1400.29,-366.8 1390.75,-371.42 1395.72,-376.36"/>
</g>
<!-- Node14 -->
<g id="node14" class="node">
<title>Node14</title>
<g id="a_node14"><a xlink:title=" ">
<polygon fill="white" stroke="#bfbfbf" points="390.5,-123.5 390.5,-142.5 437.5,-142.5 437.5,-123.5 390.5,-123.5"/>
<text text-anchor="middle" x="414" y="-130.5" font-family="Helvetica,sans-Serif" font-size="10.00">vector</text>
</a>
</g>
</g>
<!-- Node1&#45;&gt;Node14 -->
<g id="edge19" class="edge">
<title>Node1&#45;&gt;Node14</title>
<path fill="none" stroke="midnightblue" d="M986.22,-534.44C810.76,-531.55 391.59,-514.94 291,-423 245.85,-381.73 235.71,-349.96 252,-291 267.45,-235.09 276.05,-217.98 319,-179 336.69,-162.95 361.12,-151.54 380.78,-144.24"/>
<polygon fill="midnightblue" stroke="midnightblue" points="382.02,-147.51 390.28,-140.88 379.69,-140.91 382.02,-147.51"/>
</g>
<!-- Node15 -->
<g id="node15" class="node">
<title>Node15</title>
<g id="a_node15"><a xlink:title=" ">
<polygon fill="white" stroke="#bfbfbf" points="1011,-123.5 1011,-142.5 1069,-142.5 1069,-123.5 1011,-123.5"/>
<text text-anchor="middle" x="1040" y="-130.5" font-family="Helvetica,sans-Serif" font-size="10.00">memory</text>
</a>
</g>
</g>
<!-- Node1&#45;&gt;Node15 -->
<g id="edge20" class="edge">
<title>Node1&#45;&gt;Node15</title>
<path fill="none" stroke="midnightblue" d="M1131.04,-515.46C1177.11,-497.44 1230,-465.53 1230,-414 1230,-414 1230,-414 1230,-300 1230,-218.6 1129.87,-167.9 1074.99,-146.23"/>
<polygon fill="midnightblue" stroke="midnightblue" points="1076.21,-142.95 1065.62,-142.64 1073.71,-149.49 1076.21,-142.95"/>
</g>
<!-- Node16 -->
<g id="node16" class="node">
<title>Node16</title>
<g id="a_node16"><a xlink:href="Entity_8hpp.html" target="_top" xlink:title=" ">
<polygon fill="white" stroke="black" points="554.5,-235.5 554.5,-254.5 619.5,-254.5 619.5,-235.5 554.5,-235.5"/>
<text text-anchor="middle" x="587" y="-242.5" font-family="Helvetica,sans-Serif" font-size="10.00">Entity.hpp</text>
</a>
</g>
</g>
<!-- Node1&#45;&gt;Node16 -->
<g id="edge21" class="edge">
<title>Node1&#45;&gt;Node16</title>
<path fill="none" stroke="midnightblue" d="M986.39,-530.05C799.92,-517.12 342,-478.78 342,-414 342,-414 342,-414 342,-356 342,-268.41 473.93,-250.14 544.16,-246.61"/>
<polygon fill="midnightblue" stroke="midnightblue" points="544.62,-250.1 554.47,-246.18 544.33,-243.1 544.62,-250.1"/>
</g>
<!-- Node25 -->
<g id="node25" class="node">
<title>Node25</title>
<g id="a_node25"><a xlink:href="Coordinator_8hpp.html" target="_top" xlink:title=" ">
<polygon fill="white" stroke="black" points="1055,-403.5 1055,-422.5 1149,-422.5 1149,-403.5 1055,-403.5"/>
<text text-anchor="middle" x="1102" y="-410.5" font-family="Helvetica,sans-Serif" font-size="10.00">Coordinator.hpp</text>
</a>
</g>
</g>
<!-- Node1&#45;&gt;Node25 -->
<g id="edge43" class="edge">
<title>Node1&#45;&gt;Node25</title>
<path fill="none" stroke="midnightblue" d="M1070.19,-515.29C1077.42,-492.27 1089.28,-454.5 1096.29,-432.17"/>
<polygon fill="midnightblue" stroke="midnightblue" points="1099.65,-433.16 1099.31,-422.57 1092.97,-431.07 1099.65,-433.16"/>
</g>
<!-- Node29 -->
<g id="node29" class="node">
<title>Node29</title>
<g id="a_node29"><a xlink:href="Transform_8hpp.html" target="_top" xlink:title=" ">
<polygon fill="white" stroke="black" points="104,-347.5 104,-366.5 190,-366.5 190,-347.5 104,-347.5"/>
<text text-anchor="middle" x="147" y="-354.5" font-family="Helvetica,sans-Serif" font-size="10.00">Transform.hpp</text>
</a>
</g>
</g>
<!-- Node1&#45;&gt;Node29 -->
<g id="edge59" class="edge">
<title>Node1&#45;&gt;Node29</title>
<path fill="none" stroke="midnightblue" d="M986.32,-535.29C781.33,-535.32 237.25,-530.52 176,-479 146.2,-453.94 143.99,-404.18 145.29,-376.93"/>
<polygon fill="midnightblue" stroke="midnightblue" points="148.79,-376.98 145.99,-366.77 141.81,-376.5 148.79,-376.98"/>
</g>
<!-- Node30 -->
<g id="node30" class="node">
<title>Node30</title>
<g id="a_node30"><a xlink:href="Collider_8hpp.html" target="_top" xlink:title=" ">
<polygon fill="white" stroke="black" points="990,-459.5 990,-478.5 1064,-478.5 1064,-459.5 990,-459.5"/>
<text text-anchor="middle" x="1027" y="-466.5" font-family="Helvetica,sans-Serif" font-size="10.00">Collider.hpp</text>
</a>
</g>
</g>
<!-- Node1&#45;&gt;Node30 -->
<g id="edge63" class="edge">
<title>Node1&#45;&gt;Node30</title>
<path fill="none" stroke="midnightblue" d="M1052.9,-515.5C1047.83,-506.59 1041.86,-496.11 1036.94,-487.46"/>
<polygon fill="midnightblue" stroke="midnightblue" points="1039.91,-485.61 1031.93,-478.65 1033.83,-489.07 1039.91,-485.61"/>
</g>
<!-- Node32 -->
<g id="node32" class="node">
<title>Node32</title>
<g id="a_node32"><a xlink:href="Rectangle_8hpp.html" target="_top" xlink:title=" ">
<polygon fill="white" stroke="black" points="1494,-403.5 1494,-422.5 1580,-422.5 1580,-403.5 1494,-403.5"/>
<text text-anchor="middle" x="1537" y="-410.5" font-family="Helvetica,sans-Serif" font-size="10.00">Rectangle.hpp</text>
</a>
</g>
</g>
<!-- Node1&#45;&gt;Node32 -->
<g id="edge80" class="edge">
<title>Node1&#45;&gt;Node32</title>
<path fill="none" stroke="midnightblue" d="M1141.91,-530.32C1243.95,-523.18 1416.54,-507.3 1473,-479 1495.01,-467.97 1513.9,-446.36 1525.33,-431.09"/>
<polygon fill="midnightblue" stroke="midnightblue" points="1528.18,-433.13 1531.17,-422.96 1522.49,-429.04 1528.18,-433.13"/>
</g>
<!-- Node34 -->
<g id="node34" class="node">
<title>Node34</title>
<g id="a_node34"><a xlink:href="Physics2D_8hpp.html" target="_top" xlink:title=" ">
<polygon fill="white" stroke="black" points="1376,-459.5 1376,-478.5 1464,-478.5 1464,-459.5 1376,-459.5"/>
<text text-anchor="middle" x="1420" y="-466.5" font-family="Helvetica,sans-Serif" font-size="10.00">Physics2D.hpp</text>
</a>
</g>
</g>
<!-- Node1&#45;&gt;Node34 -->
<g id="edge81" class="edge">
<title>Node1&#45;&gt;Node34</title>
<path fill="none" stroke="midnightblue" d="M1141.69,-520.82C1209.47,-508.44 1306.08,-490.8 1365.82,-479.89"/>
<polygon fill="midnightblue" stroke="midnightblue" points="1366.59,-483.31 1375.8,-478.07 1365.33,-476.42 1366.59,-483.31"/>
</g>
<!-- Node4 -->
<g id="node4" class="node">
<title>Node4</title>
<g id="a_node4"><a xlink:title=" ">
<polygon fill="white" stroke="#bfbfbf" points="866.5,-6 866.5,-25 923.5,-25 923.5,-6 866.5,-6"/>
<text text-anchor="middle" x="895" y="-13" font-family="Helvetica,sans-Serif" font-size="10.00">ostream</text>
</a>
</g>
</g>
<!-- Node3&#45;&gt;Node4 -->
<g id="edge3" class="edge">
<title>Node3&#45;&gt;Node4</title>
<path fill="none" stroke="midnightblue" d="M246.73,-123.92C378.09,-102.16 737.54,-42.59 856.33,-22.91"/>
<polygon fill="midnightblue" stroke="midnightblue" points="857.12,-26.32 866.41,-21.24 855.98,-19.42 857.12,-26.32"/>
</g>
<!-- Node5 -->
<g id="node5" class="node">
<title>Node5</title>
<g id="a_node5"><a xlink:href="IXMLSerializable_8hpp.html" target="_top" xlink:title=" ">
<polygon fill="white" stroke="black" points="1159.5,-67.5 1159.5,-86.5 1278.5,-86.5 1278.5,-67.5 1159.5,-67.5"/>
<text text-anchor="middle" x="1219" y="-74.5" font-family="Helvetica,sans-Serif" font-size="10.00">IXMLSerializable.hpp</text>
</a>
</g>
</g>
<!-- Node3&#45;&gt;Node5 -->
<g id="edge4" class="edge">
<title>Node3&#45;&gt;Node5</title>
<path fill="none" stroke="midnightblue" d="M246.69,-124.06C249.83,-123.66 252.96,-123.31 256,-123 589.44,-89.44 990.4,-80.85 1149.27,-78.7"/>
<polygon fill="midnightblue" stroke="midnightblue" points="1149.43,-82.2 1159.39,-78.57 1149.34,-75.2 1149.43,-82.2"/>
</g>
<!-- Node5&#45;&gt;Node4 -->
<g id="edge5" class="edge">
<title>Node5&#45;&gt;Node4</title>
<path fill="none" stroke="midnightblue" d="M1172.58,-67.48C1108.37,-55.68 993.61,-34.61 933.74,-23.61"/>
<polygon fill="midnightblue" stroke="midnightblue" points="934.05,-20.11 923.58,-21.75 932.78,-27 934.05,-20.11"/>
</g>
<!-- Node6 -->
<g id="node6" class="node">
<title>Node6</title>
<g id="a_node6"><a xlink:title=" ">
<polygon fill="white" stroke="#bfbfbf" points="1189,-6 1189,-25 1249,-25 1249,-6 1189,-6"/>
<text text-anchor="middle" x="1219" y="-13" font-family="Helvetica,sans-Serif" font-size="10.00">iostream</text>
</a>
</g>
</g>
<!-- Node5&#45;&gt;Node6 -->
<g id="edge6" class="edge">
<title>Node5&#45;&gt;Node6</title>
<path fill="none" stroke="midnightblue" d="M1219,-67.48C1219,-59.08 1219,-45.98 1219,-35.16"/>
<polygon fill="midnightblue" stroke="midnightblue" points="1222.5,-35.01 1219,-25.01 1215.5,-35.01 1222.5,-35.01"/>
</g>
<!-- Node7 -->
<g id="node7" class="node">
<title>Node7</title>
<g id="a_node7"><a xlink:title=" ">
<polygon fill="white" stroke="#bfbfbf" points="1267.5,-0.5 1267.5,-30.5 1380.5,-30.5 1380.5,-0.5 1267.5,-0.5"/>
<text text-anchor="start" x="1275.5" y="-18.5" font-family="Helvetica,sans-Serif" font-size="10.00">boost/property_tree</text>
<text text-anchor="middle" x="1324" y="-7.5" font-family="Helvetica,sans-Serif" font-size="10.00">/ptree.hpp</text>
</a>
</g>
</g>
<!-- Node5&#45;&gt;Node7 -->
<g id="edge7" class="edge">
<title>Node5&#45;&gt;Node7</title>
<path fill="none" stroke="midnightblue" d="M1234.04,-67.48C1248.66,-59.19 1271.37,-46.32 1290.31,-35.59"/>
<polygon fill="midnightblue" stroke="midnightblue" points="1292.28,-38.5 1299.25,-30.52 1288.83,-32.41 1292.28,-38.5"/>
</g>
<!-- Node8 -->
<g id="node8" class="node">
<title>Node8</title>
<g id="a_node8"><a xlink:title=" ">
<polygon fill="white" stroke="#bfbfbf" points="1057.5,-0.5 1057.5,-30.5 1170.5,-30.5 1170.5,-0.5 1057.5,-0.5"/>
<text text-anchor="start" x="1065.5" y="-18.5" font-family="Helvetica,sans-Serif" font-size="10.00">boost/property_tree</text>
<text text-anchor="middle" x="1114" y="-7.5" font-family="Helvetica,sans-Serif" font-size="10.00">/xml_parser.hpp</text>
</a>
</g>
</g>
<!-- Node5&#45;&gt;Node8 -->
<g id="edge8" class="edge">
<title>Node5&#45;&gt;Node8</title>
<path fill="none" stroke="midnightblue" d="M1203.96,-67.48C1189.34,-59.19 1166.63,-46.32 1147.69,-35.59"/>
<polygon fill="midnightblue" stroke="midnightblue" points="1149.17,-32.41 1138.75,-30.52 1145.72,-38.5 1149.17,-32.41"/>
</g>
<!-- Node9&#45;&gt;Node5 -->
<g id="edge11" class="edge">
<title>Node9&#45;&gt;Node5</title>
<path fill="none" stroke="midnightblue" d="M1314.52,-291.22C1305.45,-282.92 1292.89,-269.6 1287,-255 1274.33,-223.61 1292.38,-211.22 1282,-179 1271.49,-146.4 1248.18,-113.67 1233.05,-94.65"/>
<polygon fill="midnightblue" stroke="midnightblue" points="1235.6,-92.23 1226.56,-86.7 1230.17,-96.66 1235.6,-92.23"/>
</g>
<!-- Node10 -->
<g id="node10" class="node">
<title>Node10</title>
<g id="a_node10"><a xlink:title=" ">
<polygon fill="white" stroke="#bfbfbf" points="1498.5,-235.5 1498.5,-254.5 1551.5,-254.5 1551.5,-235.5 1498.5,-235.5"/>
<text text-anchor="middle" x="1525" y="-242.5" font-family="Helvetica,sans-Serif" font-size="10.00">raylib.h</text>
</a>
</g>
</g>
<!-- Node9&#45;&gt;Node10 -->
<g id="edge10" class="edge">
<title>Node9&#45;&gt;Node10</title>
<path fill="none" stroke="midnightblue" d="M1356.69,-291.44C1392.43,-281.79 1450.47,-266.12 1488.19,-255.94"/>
<polygon fill="midnightblue" stroke="midnightblue" points="1489.52,-259.21 1498.26,-253.22 1487.69,-252.45 1489.52,-259.21"/>
</g>
<!-- Node11 -->
<g id="node11" class="node">
<title>Node11</title>
<g id="a_node11"><a xlink:title=" ">
<polygon fill="white" stroke="#bfbfbf" points="1370.5,-235.5 1370.5,-254.5 1417.5,-254.5 1417.5,-235.5 1370.5,-235.5"/>
<text text-anchor="middle" x="1394" y="-242.5" font-family="Helvetica,sans-Serif" font-size="10.00">cmath</text>
</a>
</g>
</g>
<!-- Node9&#45;&gt;Node11 -->
<g id="edge12" class="edge">
<title>Node9&#45;&gt;Node11</title>
<path fill="none" stroke="midnightblue" d="M1336.09,-291.32C1346.49,-283.18 1362.26,-270.84 1374.72,-261.09"/>
<polygon fill="midnightblue" stroke="midnightblue" points="1376.99,-263.75 1382.71,-254.83 1372.68,-258.24 1376.99,-263.75"/>
</g>
<!-- Node12 -->
<g id="node12" class="node">
<title>Node12</title>
<g id="a_node12"><a xlink:title=" ">
<polygon fill="white" stroke="#bfbfbf" points="1296,-235.5 1296,-254.5 1352,-254.5 1352,-235.5 1296,-235.5"/>
<text text-anchor="middle" x="1324" y="-242.5" font-family="Helvetica,sans-Serif" font-size="10.00">sstream</text>
</a>
</g>
</g>
<!-- Node9&#45;&gt;Node12 -->
<g id="edge13" class="edge">
<title>Node9&#45;&gt;Node12</title>
<path fill="none" stroke="midnightblue" d="M1324.83,-291.08C1324.7,-284.01 1324.52,-273.86 1324.35,-264.99"/>
<polygon fill="midnightblue" stroke="midnightblue" points="1327.85,-264.68 1324.16,-254.75 1320.85,-264.81 1327.85,-264.68"/>
</g>
<!-- Node13&#45;&gt;Node5 -->
<g id="edge18" class="edge">
<title>Node13&#45;&gt;Node5</title>
<path fill="none" stroke="midnightblue" d="M1413.62,-347.25C1423.86,-326.54 1446.13,-273.4 1427,-235 1389.92,-160.55 1298.83,-112.07 1250.43,-90.65"/>
<polygon fill="midnightblue" stroke="midnightblue" points="1251.63,-87.35 1241.06,-86.6 1248.86,-93.78 1251.63,-87.35"/>
</g>
<!-- Node13&#45;&gt;Node9 -->
<g id="edge17" class="edge">
<title>Node13&#45;&gt;Node9</title>
<path fill="none" stroke="midnightblue" d="M1395.5,-347.32C1382.4,-338.9 1362.29,-325.97 1346.89,-316.07"/>
<polygon fill="midnightblue" stroke="midnightblue" points="1348.77,-313.12 1338.46,-310.65 1344.98,-319.01 1348.77,-313.12"/>
</g>
<!-- Node13&#45;&gt;Node10 -->
<g id="edge15" class="edge">
<title>Node13&#45;&gt;Node10</title>
<path fill="none" stroke="midnightblue" d="M1418.1,-347.37C1437.58,-328.89 1483.56,-285.29 1508.4,-261.74"/>
<polygon fill="midnightblue" stroke="midnightblue" points="1511.09,-264.01 1515.94,-254.59 1506.28,-258.93 1511.09,-264.01"/>
</g>
<!-- Node13&#45;&gt;Node11 -->
<g id="edge16" class="edge">
<title>Node13&#45;&gt;Node11</title>
<path fill="none" stroke="midnightblue" d="M1407.82,-347.37C1405.4,-329.62 1399.82,-288.67 1396.54,-264.6"/>
<polygon fill="midnightblue" stroke="midnightblue" points="1399.99,-264.03 1395.17,-254.59 1393.05,-264.97 1399.99,-264.03"/>
</g>
<!-- Node16&#45;&gt;Node2 -->
<g id="edge22" class="edge">
<title>Node16&#45;&gt;Node2</title>
<path fill="none" stroke="midnightblue" d="M564.17,-235.37C512.74,-215.93 387.73,-168.67 328.35,-146.23"/>
<polygon fill="midnightblue" stroke="midnightblue" points="329.32,-142.85 318.73,-142.59 326.84,-149.4 329.32,-142.85"/>
</g>
<!-- Node16&#45;&gt;Node3 -->
<g id="edge42" class="edge">
<title>Node16&#45;&gt;Node3</title>
<path fill="none" stroke="midnightblue" d="M554.31,-236.04C519.07,-227.36 461.39,-212.84 412,-199 349.35,-181.44 277.03,-159.02 234.54,-145.62"/>
<polygon fill="midnightblue" stroke="midnightblue" points="235.51,-142.26 224.92,-142.58 233.4,-148.93 235.51,-142.26"/>
</g>
<!-- Node16&#45;&gt;Node14 -->
<g id="edge26" class="edge">
<title>Node16&#45;&gt;Node14</title>
<path fill="none" stroke="midnightblue" d="M568.16,-235.4C550.19,-226.93 522.59,-213.23 500,-199 475.46,-183.54 449.11,-162.97 432.14,-149.15"/>
<polygon fill="midnightblue" stroke="midnightblue" points="434.13,-146.25 424.18,-142.6 429.68,-151.66 434.13,-146.25"/>
</g>
<!-- Node16&#45;&gt;Node15 -->
<g id="edge24" class="edge">
<title>Node16&#45;&gt;Node15</title>
<path fill="none" stroke="midnightblue" d="M619.68,-240.39C670.69,-234.35 772.1,-220.66 856,-199 911.47,-184.68 973.94,-160.92 1009.96,-146.43"/>
<polygon fill="midnightblue" stroke="midnightblue" points="1011.44,-149.61 1019.39,-142.61 1008.81,-143.12 1011.44,-149.61"/>
</g>
<!-- Node17 -->
<g id="node17" class="node">
<title>Node17</title>
<g id="a_node17"><a xlink:title=" ">
<polygon fill="white" stroke="#bfbfbf" points="707.5,-123.5 707.5,-142.5 800.5,-142.5 800.5,-123.5 707.5,-123.5"/>
<text text-anchor="middle" x="754" y="-130.5" font-family="Helvetica,sans-Serif" font-size="10.00">unordered_map</text>
</a>
</g>
</g>
<!-- Node16&#45;&gt;Node17 -->
<g id="edge23" class="edge">
<title>Node16&#45;&gt;Node17</title>
<path fill="none" stroke="midnightblue" d="M598.12,-235.43C614.88,-222.65 647.77,-198.04 677,-179 694.19,-167.81 714.22,-156.14 729.53,-147.5"/>
<polygon fill="midnightblue" stroke="midnightblue" points="731.38,-150.48 738.4,-142.54 727.96,-144.37 731.38,-150.48"/>
</g>
<!-- Node18 -->
<g id="node18" class="node">
<title>Node18</title>
<g id="a_node18"><a xlink:title=" ">
<polygon fill="white" stroke="#bfbfbf" points="856,-123.5 856,-142.5 920,-142.5 920,-123.5 856,-123.5"/>
<text text-anchor="middle" x="888" y="-130.5" font-family="Helvetica,sans-Serif" font-size="10.00">algorithm</text>
</a>
</g>
</g>
<!-- Node16&#45;&gt;Node18 -->
<g id="edge25" class="edge">
<title>Node16&#45;&gt;Node18</title>
<path fill="none" stroke="midnightblue" d="M619.69,-244.6C668.79,-244.1 763.02,-237.62 831,-199 851.1,-187.58 867.65,-166.37 877.64,-151.29"/>
<polygon fill="midnightblue" stroke="midnightblue" points="880.6,-153.15 882.99,-142.83 874.69,-149.41 880.6,-153.15"/>
</g>
<!-- Node19 -->
<g id="node19" class="node">
<title>Node19</title>
<g id="a_node19"><a xlink:title=" ">
<polygon fill="white" stroke="#bfbfbf" points="455.5,-123.5 455.5,-142.5 546.5,-142.5 546.5,-123.5 455.5,-123.5"/>
<text text-anchor="middle" x="501" y="-130.5" font-family="Helvetica,sans-Serif" font-size="10.00">Exceptions.hpp</text>
</a>
</g>
</g>
<!-- Node16&#45;&gt;Node19 -->
<g id="edge27" class="edge">
<title>Node16&#45;&gt;Node19</title>
<path fill="none" stroke="midnightblue" d="M562.9,-235.48C546.26,-228.33 525.03,-216.46 513,-199 503.74,-185.57 501.06,-167 500.52,-153.15"/>
<polygon fill="midnightblue" stroke="midnightblue" points="504.01,-152.82 500.46,-142.84 497.01,-152.86 504.01,-152.82"/>
</g>
<!-- Node20 -->
<g id="node20" class="node">
<title>Node20</title>
<g id="a_node20"><a xlink:href="ComponentManager_8hpp.html" target="_top" xlink:title=" ">
<polygon fill="white" stroke="black" points="686,-179.5 686,-198.5 822,-198.5 822,-179.5 686,-179.5"/>
<text text-anchor="middle" x="754" y="-186.5" font-family="Helvetica,sans-Serif" font-size="10.00">ComponentManager.hpp</text>
</a>
</g>
</g>
<!-- Node16&#45;&gt;Node20 -->
<g id="edge28" class="edge">
<title>Node16&#45;&gt;Node20</title>
<path fill="none" stroke="midnightblue" d="M613.46,-235.44C641.68,-226.32 686.54,-211.81 717.97,-201.65"/>
<polygon fill="midnightblue" stroke="midnightblue" points="719.22,-204.92 727.66,-198.52 717.07,-198.26 719.22,-204.92"/>
</g>
<!-- Node23 -->
<g id="node23" class="node">
<title>Node23</title>
<g id="a_node23"><a xlink:href="EntityManager_8hpp.html" target="_top" xlink:title=" ">
<polygon fill="white" stroke="black" points="522,-179.5 522,-198.5 630,-198.5 630,-179.5 522,-179.5"/>
<text text-anchor="middle" x="576" y="-186.5" font-family="Helvetica,sans-Serif" font-size="10.00">EntityManager.hpp</text>
</a>
</g>
</g>
<!-- Node16&#45;&gt;Node23 -->
<g id="edge37" class="edge">
<title>Node16&#45;&gt;Node23</title>
<path fill="none" stroke="midnightblue" d="M585.18,-235.08C583.73,-227.93 581.63,-217.64 579.81,-208.69"/>
<polygon fill="midnightblue" stroke="midnightblue" points="583.21,-207.85 577.78,-198.75 576.35,-209.25 583.21,-207.85"/>
</g>
<!-- Node20&#45;&gt;Node3 -->
<g id="edge35" class="edge">
<title>Node20&#45;&gt;Node3</title>
<path fill="none" stroke="midnightblue" d="M685.79,-182.38C573.54,-173.04 353.5,-154.35 256.77,-143"/>
<polygon fill="midnightblue" stroke="midnightblue" points="257.05,-139.51 246.7,-141.79 256.21,-146.46 257.05,-139.51"/>
</g>
<!-- Node20&#45;&gt;Node14 -->
<g id="edge31" class="edge">
<title>Node20&#45;&gt;Node14</title>
<path fill="none" stroke="midnightblue" d="M685.96,-180.62C625.51,-173.48 534.65,-161.32 447.47,-143.1"/>
<polygon fill="midnightblue" stroke="midnightblue" points="448.19,-139.68 437.68,-141.03 446.74,-146.53 448.19,-139.68"/>
</g>
<!-- Node20&#45;&gt;Node15 -->
<g id="edge32" class="edge">
<title>Node20&#45;&gt;Node15</title>
<path fill="none" stroke="midnightblue" d="M799.32,-179.44C854.84,-168.96 947.99,-151.37 1000.64,-141.43"/>
<polygon fill="midnightblue" stroke="midnightblue" points="1001.44,-144.84 1010.61,-139.55 1000.14,-137.96 1001.44,-144.84"/>
</g>
<!-- Node20&#45;&gt;Node17 -->
<g id="edge29" class="edge">
<title>Node20&#45;&gt;Node17</title>
<path fill="none" stroke="midnightblue" d="M754,-179.08C754,-172.01 754,-161.86 754,-152.99"/>
<polygon fill="midnightblue" stroke="midnightblue" points="757.5,-152.75 754,-142.75 750.5,-152.75 757.5,-152.75"/>
</g>
<!-- Node20&#45;&gt;Node18 -->
<g id="edge33" class="edge">
<title>Node20&#45;&gt;Node18</title>
<path fill="none" stroke="midnightblue" d="M775.23,-179.44C797.38,-170.52 832.32,-156.44 857.44,-146.32"/>
<polygon fill="midnightblue" stroke="midnightblue" points="858.9,-149.5 866.87,-142.52 856.28,-143.01 858.9,-149.5"/>
</g>
<!-- Node20&#45;&gt;Node19 -->
<g id="edge34" class="edge">
<title>Node20&#45;&gt;Node19</title>
<path fill="none" stroke="midnightblue" d="M713.91,-179.44C669.68,-170 598.46,-154.8 550.72,-144.61"/>
<polygon fill="midnightblue" stroke="midnightblue" points="551.41,-141.18 540.9,-142.52 549.95,-148.03 551.41,-141.18"/>
</g>
<!-- Node21 -->
<g id="node21" class="node">
<title>Node21</title>
<g id="a_node21"><a xlink:title=" ">
<polygon fill="white" stroke="#bfbfbf" points="1170,-123.5 1170,-142.5 1214,-142.5 1214,-123.5 1170,-123.5"/>
<text text-anchor="middle" x="1192" y="-130.5" font-family="Helvetica,sans-Serif" font-size="10.00">string</text>
</a>
</g>
</g>
<!-- Node20&#45;&gt;Node21 -->
<g id="edge30" class="edge">
<title>Node20&#45;&gt;Node21</title>
<path fill="none" stroke="midnightblue" d="M822.44,-179.56C918.33,-167.74 1088.86,-146.72 1159.73,-137.98"/>
<polygon fill="midnightblue" stroke="midnightblue" points="1160.33,-141.43 1169.83,-136.73 1159.48,-134.48 1160.33,-141.43"/>
</g>
<!-- Node22 -->
<g id="node22" class="node">
<title>Node22</title>
<g id="a_node22"><a xlink:title=" ">
<polygon fill="white" stroke="#bfbfbf" points="942,-123.5 942,-142.5 980,-142.5 980,-123.5 942,-123.5"/>
<text text-anchor="middle" x="961" y="-130.5" font-family="Helvetica,sans-Serif" font-size="10.00">map</text>
</a>
</g>
</g>
<!-- Node20&#45;&gt;Node22 -->
<g id="edge36" class="edge">
<title>Node20&#45;&gt;Node22</title>
<path fill="none" stroke="midnightblue" d="M788.26,-179.43C823.59,-170.54 880.23,-156.13 929,-143 929.9,-142.76 930.82,-142.51 931.74,-142.26"/>
<polygon fill="midnightblue" stroke="midnightblue" points="933.02,-145.53 941.73,-139.5 931.16,-138.79 933.02,-145.53"/>
</g>
<!-- Node23&#45;&gt;Node2 -->
<g id="edge39" class="edge">
<title>Node23&#45;&gt;Node2</title>
<path fill="none" stroke="midnightblue" d="M531.63,-179.44C478.14,-169.13 388.98,-151.93 337.03,-141.91"/>
<polygon fill="midnightblue" stroke="midnightblue" points="337.64,-138.47 327.15,-140.01 336.31,-145.34 337.64,-138.47"/>
</g>
<!-- Node23&#45;&gt;Node14 -->
<g id="edge38" class="edge">
<title>Node23&#45;&gt;Node14</title>
<path fill="none" stroke="midnightblue" d="M550.33,-179.44C522.52,-170.17 478.03,-155.34 447.48,-145.16"/>
<polygon fill="midnightblue" stroke="midnightblue" points="448.3,-141.74 437.7,-141.9 446.08,-148.38 448.3,-141.74"/>
</g>
<!-- Node23&#45;&gt;Node15 -->
<g id="edge40" class="edge">
<title>Node23&#45;&gt;Node15</title>
<path fill="none" stroke="midnightblue" d="M630.26,-183.24C709.35,-176.04 860.83,-161.27 989,-143 992.89,-142.44 996.95,-141.82 1000.99,-141.16"/>
<polygon fill="midnightblue" stroke="midnightblue" points="1001.65,-144.59 1010.93,-139.47 1000.48,-137.69 1001.65,-144.59"/>
</g>
<!-- Node24 -->
<g id="node24" class="node">
<title>Node24</title>
<g id="a_node24"><a xlink:title=" ">
<polygon fill="white" stroke="#bfbfbf" points="565,-123.5 565,-142.5 597,-142.5 597,-123.5 565,-123.5"/>
<text text-anchor="middle" x="581" y="-130.5" font-family="Helvetica,sans-Serif" font-size="10.00">list</text>
</a>
</g>
</g>
<!-- Node23&#45;&gt;Node24 -->
<g id="edge41" class="edge">
<title>Node23&#45;&gt;Node24</title>
<path fill="none" stroke="midnightblue" d="M576.83,-179.08C577.48,-172.01 578.42,-161.86 579.24,-152.99"/>
<polygon fill="midnightblue" stroke="midnightblue" points="582.75,-153.03 580.19,-142.75 575.78,-152.39 582.75,-153.03"/>
</g>
<!-- Node25&#45;&gt;Node15 -->
<g id="edge45" class="edge">
<title>Node25&#45;&gt;Node15</title>
<path fill="none" stroke="midnightblue" d="M1102.52,-403.41C1104.65,-366.28 1111.64,-219.65 1092,-179 1085.99,-166.57 1074.81,-156.19 1064.34,-148.54"/>
<polygon fill="midnightblue" stroke="midnightblue" points="1066.09,-145.5 1055.85,-142.78 1062.16,-151.29 1066.09,-145.5"/>
</g>
<!-- Node25&#45;&gt;Node21 -->
<g id="edge46" class="edge">
<title>Node25&#45;&gt;Node21</title>
<path fill="none" stroke="midnightblue" d="M1126.01,-403.43C1142.19,-396.3 1162.43,-384.49 1173,-367 1214.92,-297.64 1203,-194.71 1195.73,-152.79"/>
<polygon fill="midnightblue" stroke="midnightblue" points="1199.16,-152.07 1193.89,-142.87 1192.27,-153.34 1199.16,-152.07"/>
</g>
<!-- Node25&#45;&gt;Node22 -->
<g id="edge47" class="edge">
<title>Node25&#45;&gt;Node22</title>
<path fill="none" stroke="midnightblue" d="M1097.63,-403.38C1077.89,-364.46 996.91,-204.81 969.85,-151.45"/>
<polygon fill="midnightblue" stroke="midnightblue" points="972.97,-149.86 965.32,-142.52 966.73,-153.03 972.97,-149.86"/>
</g>
<!-- Node25&#45;&gt;Node23 -->
<g id="edge58" class="edge">
<title>Node25&#45;&gt;Node23</title>
<path fill="none" stroke="midnightblue" d="M1054.92,-411.14C997.58,-408.61 898.75,-399.41 821,-367 768.16,-344.97 763.38,-324.56 717,-291 674.26,-260.08 623.98,-224.18 596.5,-204.59"/>
<polygon fill="midnightblue" stroke="midnightblue" points="598.27,-201.56 588.1,-198.61 594.21,-207.26 598.27,-201.56"/>
</g>
<!-- Node26 -->
<g id="node26" class="node">
<title>Node26</title>
<g id="a_node26"><a xlink:title=" ">
<polygon fill="white" stroke="#bfbfbf" points="1114,-347.5 1114,-366.5 1164,-366.5 1164,-347.5 1114,-347.5"/>
<text text-anchor="middle" x="1139" y="-354.5" font-family="Helvetica,sans-Serif" font-size="10.00">chrono</text>
</a>
</g>
</g>
<!-- Node25&#45;&gt;Node26 -->
<g id="edge44" class="edge">
<title>Node25&#45;&gt;Node26</title>
<path fill="none" stroke="midnightblue" d="M1108.11,-403.08C1113.28,-395.53 1120.85,-384.49 1127.19,-375.23"/>
<polygon fill="midnightblue" stroke="midnightblue" points="1130.24,-376.98 1133,-366.75 1124.46,-373.02 1130.24,-376.98"/>
</g>
<!-- Node27 -->
<g id="node27" class="node">
<title>Node27</title>
<g id="a_node27"><a xlink:href="SystemManager_8hpp.html" target="_top" xlink:title=" ">
<polygon fill="white" stroke="black" points="830,-347.5 830,-366.5 946,-366.5 946,-347.5 830,-347.5"/>
<text text-anchor="middle" x="888" y="-354.5" font-family="Helvetica,sans-Serif" font-size="10.00">SystemManager.hpp</text>
</a>
</g>
</g>
<!-- Node25&#45;&gt;Node27 -->
<g id="edge48" class="edge">
<title>Node25&#45;&gt;Node27</title>
<path fill="none" stroke="midnightblue" d="M1068.09,-403.44C1031.15,-394.12 971.95,-379.18 931.58,-369"/>
<polygon fill="midnightblue" stroke="midnightblue" points="932.3,-365.57 921.75,-366.52 930.59,-372.36 932.3,-365.57"/>
</g>
<!-- Node27&#45;&gt;Node15 -->
<g id="edge49" class="edge">
<title>Node27&#45;&gt;Node15</title>
<path fill="none" stroke="midnightblue" d="M893.96,-347.3C916.61,-314.22 997.61,-195.91 1028.2,-151.24"/>
<polygon fill="midnightblue" stroke="midnightblue" points="1031.16,-153.11 1033.92,-142.88 1025.38,-149.16 1031.16,-153.11"/>
</g>
<!-- Node27&#45;&gt;Node17 -->
<g id="edge52" class="edge">
<title>Node27&#45;&gt;Node17</title>
<path fill="none" stroke="midnightblue" d="M887.36,-347.23C884.93,-319.54 874.06,-232.61 831,-179 819.6,-164.8 802.42,-154.16 787.19,-146.79"/>
<polygon fill="midnightblue" stroke="midnightblue" points="788.57,-143.57 778.02,-142.63 785.67,-149.95 788.57,-143.57"/>
</g>
<!-- Node27&#45;&gt;Node18 -->
<g id="edge50" class="edge">
<title>Node27&#45;&gt;Node18</title>
<path fill="none" stroke="midnightblue" d="M888,-347.3C888,-314.63 888,-198.87 888,-152.96"/>
<polygon fill="midnightblue" stroke="midnightblue" points="891.5,-152.88 888,-142.88 884.5,-152.88 891.5,-152.88"/>
</g>
<!-- Node27&#45;&gt;Node19 -->
<g id="edge57" class="edge">
<title>Node27&#45;&gt;Node19</title>
<path fill="none" stroke="midnightblue" d="M829.82,-354.52C773.5,-351.22 686.77,-341.14 618,-311 551.78,-281.97 524.37,-267.07 500,-199 494.65,-184.06 495.48,-165.92 497.31,-152.6"/>
<polygon fill="midnightblue" stroke="midnightblue" points="500.77,-153.17 498.98,-142.73 493.86,-152.01 500.77,-153.17"/>
</g>
<!-- Node27&#45;&gt;Node21 -->
<g id="edge51" class="edge">
<title>Node27&#45;&gt;Node21</title>
<path fill="none" stroke="midnightblue" d="M899.92,-347.3C946.08,-313.59 1113.43,-191.37 1171.77,-148.77"/>
<polygon fill="midnightblue" stroke="midnightblue" points="1174.15,-151.37 1180.17,-142.64 1170.03,-145.71 1174.15,-151.37"/>
</g>
<!-- Node28 -->
<g id="node28" class="node">
<title>Node28</title>
<g id="a_node28"><a xlink:href="ASystem_8hpp.html" target="_top" xlink:title=" ">
<polygon fill="white" stroke="black" points="626.5,-291.5 626.5,-310.5 707.5,-310.5 707.5,-291.5 626.5,-291.5"/>
<text text-anchor="middle" x="667" y="-298.5" font-family="Helvetica,sans-Serif" font-size="10.00">ASystem.hpp</text>
</a>
</g>
</g>
<!-- Node27&#45;&gt;Node28 -->
<g id="edge53" class="edge">
<title>Node27&#45;&gt;Node28</title>
<path fill="none" stroke="midnightblue" d="M852.98,-347.44C814.75,-338.1 753.43,-323.12 711.74,-312.93"/>
<polygon fill="midnightblue" stroke="midnightblue" points="712.4,-309.49 701.85,-310.52 710.74,-316.29 712.4,-309.49"/>
</g>
<!-- Node28&#45;&gt;Node14 -->
<g id="edge55" class="edge">
<title>Node28&#45;&gt;Node14</title>
<path fill="none" stroke="midnightblue" d="M637.16,-291.47C612.03,-283.69 575.58,-270.99 546,-255 509.09,-235.05 500.78,-227.52 470,-199 453.69,-183.89 437.36,-164.29 426.57,-150.59"/>
<polygon fill="midnightblue" stroke="midnightblue" points="429.23,-148.3 420.35,-142.53 423.7,-152.59 429.23,-148.3"/>
</g>
<!-- Node28&#45;&gt;Node16 -->
<g id="edge56" class="edge">
<title>Node28&#45;&gt;Node16</title>
<path fill="none" stroke="midnightblue" d="M654.15,-291.32C641.78,-282.98 622.87,-270.21 608.26,-260.35"/>
<polygon fill="midnightblue" stroke="midnightblue" points="610.07,-257.35 599.82,-254.65 606.15,-263.15 610.07,-257.35"/>
</g>
<!-- Node28&#45;&gt;Node21 -->
<g id="edge54" class="edge">
<title>Node28&#45;&gt;Node21</title>
<path fill="none" stroke="midnightblue" d="M694.12,-291.42C782.96,-263.34 1064.94,-174.17 1160.21,-144.05"/>
<polygon fill="midnightblue" stroke="midnightblue" points="1161.38,-147.35 1169.86,-141 1159.27,-140.68 1161.38,-147.35"/>
</g>
<!-- Node29&#45;&gt;Node2 -->
<g id="edge60" class="edge">
<title>Node29&#45;&gt;Node2</title>
<path fill="none" stroke="midnightblue" d="M145.67,-347.43C141.86,-319.59 133.73,-230.51 176,-179 186.37,-166.37 224.35,-153.42 254.84,-144.67"/>
<polygon fill="midnightblue" stroke="midnightblue" points="256.15,-147.94 264.84,-141.87 254.27,-141.2 256.15,-147.94"/>
</g>
<!-- Node29&#45;&gt;Node3 -->
<g id="edge61" class="edge">
<title>Node29&#45;&gt;Node3</title>
<path fill="none" stroke="midnightblue" d="M143.71,-347.28C134.14,-320.44 108.83,-237.34 138,-179 144.73,-165.54 157.61,-155.07 169.71,-147.62"/>
<polygon fill="midnightblue" stroke="midnightblue" points="171.73,-150.5 178.7,-142.52 168.28,-144.41 171.73,-150.5"/>
</g>
<!-- Node29&#45;&gt;Node9 -->
<g id="edge62" class="edge">
<title>Node29&#45;&gt;Node9</title>
<path fill="none" stroke="midnightblue" d="M190.32,-354.01C373.85,-345.6 1086.57,-312.93 1277.64,-304.17"/>
<polygon fill="midnightblue" stroke="midnightblue" points="1278.08,-307.65 1287.91,-303.7 1277.76,-300.66 1278.08,-307.65"/>
</g>
<!-- Node30&#45;&gt;Node2 -->
<g id="edge64" class="edge">
<title>Node30&#45;&gt;Node2</title>
<path fill="none" stroke="midnightblue" d="M989.99,-467.37C871.71,-465.06 503.98,-455.37 390,-423 330.14,-406 266,-420.22 266,-358 266,-358 266,-358 266,-244 266,-210.64 279,-173.53 287.89,-152.07"/>
<polygon fill="midnightblue" stroke="midnightblue" points="291.21,-153.19 291.95,-142.62 284.78,-150.42 291.21,-153.19"/>
</g>
<!-- Node30&#45;&gt;Node3 -->
<g id="edge65" class="edge">
<title>Node30&#45;&gt;Node3</title>
<path fill="none" stroke="midnightblue" d="M989.97,-467.98C850.48,-467.59 357.02,-463.34 206,-423 117.1,-399.26 38,-394.02 38,-302 38,-302 38,-302 38,-244 38,-189.24 102.42,-159.68 149.51,-145.4"/>
<polygon fill="midnightblue" stroke="midnightblue" points="150.63,-148.71 159.27,-142.57 148.69,-141.99 150.63,-148.71"/>
</g>
<!-- Node30&#45;&gt;Node9 -->
<g id="edge66" class="edge">
<title>Node30&#45;&gt;Node9</title>
<path fill="none" stroke="midnightblue" d="M1060.41,-459.49C1087.57,-451.88 1126.41,-439.4 1158,-423 1217,-392.36 1278.26,-342.52 1307.47,-317.44"/>
<polygon fill="midnightblue" stroke="midnightblue" points="1309.89,-319.98 1315.15,-310.78 1305.3,-314.69 1309.89,-319.98"/>
</g>
<!-- Node30&#45;&gt;Node14 -->
<g id="edge67" class="edge">
<title>Node30&#45;&gt;Node14</title>
<path fill="none" stroke="midnightblue" d="M989.9,-466.32C842.21,-459.12 304,-428.11 304,-358 304,-358 304,-358 304,-244 304,-197.91 352.88,-164.39 385.47,-147.16"/>
<polygon fill="midnightblue" stroke="midnightblue" points="387.25,-150.18 394.59,-142.54 384.09,-143.94 387.25,-150.18"/>
</g>
<!-- Node30&#45;&gt;Node15 -->
<g id="edge68" class="edge">
<title>Node30&#45;&gt;Node15</title>
<path fill="none" stroke="midnightblue" d="M1027.33,-459.41C1029.04,-415.47 1036.83,-215.57 1039.27,-152.87"/>
<polygon fill="midnightblue" stroke="midnightblue" points="1042.78,-152.66 1039.67,-142.54 1035.78,-152.39 1042.78,-152.66"/>
</g>
<!-- Node30&#45;&gt;Node16 -->
<g id="edge69" class="edge">
<title>Node30&#45;&gt;Node16</title>
<path fill="none" stroke="midnightblue" d="M989.97,-463.13C911.84,-451.05 728.3,-412.97 618,-311 604.54,-298.56 596.33,-279.04 591.77,-264.64"/>
<polygon fill="midnightblue" stroke="midnightblue" points="595.08,-263.48 588.97,-254.83 588.35,-265.4 595.08,-263.48"/>
</g>
<!-- Node30&#45;&gt;Node25 -->
<g id="edge70" class="edge">
<title>Node30&#45;&gt;Node25</title>
<path fill="none" stroke="midnightblue" d="M1039.05,-459.32C1050.46,-451.11 1067.83,-438.6 1081.43,-428.81"/>
<polygon fill="midnightblue" stroke="midnightblue" points="1083.66,-431.52 1089.73,-422.83 1079.57,-425.84 1083.66,-431.52"/>
</g>
<!-- Node30&#45;&gt;Node29 -->
<g id="edge71" class="edge">
<title>Node30&#45;&gt;Node29</title>
<path fill="none" stroke="midnightblue" d="M989.64,-468.25C854.52,-468.77 391.91,-467.23 252,-423 218.34,-412.36 184.55,-388.52 164.72,-372.86"/>
<polygon fill="midnightblue" stroke="midnightblue" points="166.85,-370.09 156.87,-366.52 162.44,-375.53 166.85,-370.09"/>
</g>
<!-- Node31 -->
<g id="node31" class="node">
<title>Node31</title>
<g id="a_node31"><a xlink:href="Circle_8hpp.html" target="_top" xlink:title=" ">
<polygon fill="white" stroke="black" points="1372.5,-403.5 1372.5,-422.5 1437.5,-422.5 1437.5,-403.5 1372.5,-403.5"/>
<text text-anchor="middle" x="1405" y="-410.5" font-family="Helvetica,sans-Serif" font-size="10.00">Circle.hpp</text>
</a>
</g>
</g>
<!-- Node30&#45;&gt;Node31 -->
<g id="edge72" class="edge">
<title>Node30&#45;&gt;Node31</title>
<path fill="none" stroke="midnightblue" d="M1064.28,-462.67C1134.9,-452.59 1287.78,-430.75 1362.36,-420.09"/>
<polygon fill="midnightblue" stroke="midnightblue" points="1362.94,-423.54 1372.35,-418.66 1361.95,-416.61 1362.94,-423.54"/>
</g>
<!-- Node30&#45;&gt;Node32 -->
<g id="edge75" class="edge">
<title>Node30&#45;&gt;Node32</title>
<path fill="none" stroke="midnightblue" d="M1064.09,-464.07C1153.26,-454.63 1379.97,-430.63 1483.71,-419.64"/>
<polygon fill="midnightblue" stroke="midnightblue" points="1484.08,-423.12 1493.65,-418.59 1483.34,-416.16 1484.08,-423.12"/>
</g>
<!-- Node31&#45;&gt;Node10 -->
<g id="edge73" class="edge">
<title>Node31&#45;&gt;Node10</title>
<path fill="none" stroke="midnightblue" d="M1416.68,-403.24C1427.47,-394.77 1443.53,-381.15 1455,-367 1482.01,-333.68 1505.09,-288.69 1516.79,-264.03"/>
<polygon fill="midnightblue" stroke="midnightblue" points="1520.04,-265.34 1521.09,-254.8 1513.7,-262.39 1520.04,-265.34"/>
</g>
<!-- Node31&#45;&gt;Node13 -->
<g id="edge74" class="edge">
<title>Node31&#45;&gt;Node13</title>
<path fill="none" stroke="midnightblue" d="M1405.66,-403.08C1406.18,-396.01 1406.94,-385.86 1407.59,-376.99"/>
<polygon fill="midnightblue" stroke="midnightblue" points="1411.1,-376.98 1408.35,-366.75 1404.12,-376.47 1411.1,-376.98"/>
</g>
<!-- Node32&#45;&gt;Node10 -->
<g id="edge76" class="edge">
<title>Node32&#45;&gt;Node10</title>
<path fill="none" stroke="midnightblue" d="M1547.71,-403.3C1556.94,-395.07 1569.59,-381.79 1575,-367 1578.05,-358.65 1577.03,-355.66 1575,-347 1567.64,-315.55 1548.98,-282.65 1536.65,-263.26"/>
<polygon fill="midnightblue" stroke="midnightblue" points="1539.43,-261.12 1531.03,-254.66 1533.57,-264.95 1539.43,-261.12"/>
</g>
<!-- Node33 -->
<g id="node33" class="node">
<title>Node33</title>
<g id="a_node33"><a xlink:href="Color_8hpp.html" target="_top" xlink:title=" ">
<polygon fill="white" stroke="black" points="1504,-347.5 1504,-366.5 1566,-366.5 1566,-347.5 1504,-347.5"/>
<text text-anchor="middle" x="1535" y="-354.5" font-family="Helvetica,sans-Serif" font-size="10.00">Color.hpp</text>
</a>
</g>
</g>
<!-- Node32&#45;&gt;Node33 -->
<g id="edge77" class="edge">
<title>Node32&#45;&gt;Node33</title>
<path fill="none" stroke="midnightblue" d="M1536.67,-403.08C1536.41,-396.01 1536.03,-385.86 1535.7,-376.99"/>
<polygon fill="midnightblue" stroke="midnightblue" points="1539.19,-376.61 1535.32,-366.75 1532.2,-376.87 1539.19,-376.61"/>
</g>
<!-- Node33&#45;&gt;Node9 -->
<g id="edge79" class="edge">
<title>Node33&#45;&gt;Node9</title>
<path fill="none" stroke="midnightblue" d="M1503.56,-347.92C1467.59,-338.67 1408.48,-323.47 1368.2,-313.11"/>
<polygon fill="midnightblue" stroke="midnightblue" points="1368.95,-309.69 1358.39,-310.59 1367.21,-316.47 1368.95,-309.69"/>
</g>
<!-- Node33&#45;&gt;Node10 -->
<g id="edge78" class="edge">
<title>Node33&#45;&gt;Node10</title>
<path fill="none" stroke="midnightblue" d="M1534.22,-347.37C1532.6,-329.62 1528.88,-288.67 1526.69,-264.6"/>
<polygon fill="midnightblue" stroke="midnightblue" points="1530.17,-264.23 1525.78,-254.59 1523.2,-264.87 1530.17,-264.23"/>
</g>
<!-- Node34&#45;&gt;Node9 -->
<g id="edge83" class="edge">
<title>Node34&#45;&gt;Node9</title>
<path fill="none" stroke="midnightblue" d="M1405.1,-459.49C1392.48,-451.55 1374.75,-438.62 1364,-423 1341.97,-390.99 1331.8,-345.79 1327.59,-320.67"/>
<polygon fill="midnightblue" stroke="midnightblue" points="1331.03,-320.02 1326.06,-310.67 1324.11,-321.08 1331.03,-320.02"/>
</g>
<!-- Node34&#45;&gt;Node10 -->
<g id="edge82" class="edge">
<title>Node34&#45;&gt;Node10</title>
<path fill="none" stroke="midnightblue" d="M1464.32,-462.33C1509.13,-455.58 1573.87,-442.68 1589,-423 1625.08,-376.05 1602.13,-341.36 1571,-291 1564.07,-279.8 1553.77,-269.37 1544.67,-261.38"/>
<polygon fill="midnightblue" stroke="midnightblue" points="1546.69,-258.51 1536.78,-254.77 1542.2,-263.87 1546.69,-258.51"/>
</g>
<!-- Node34&#45;&gt;Node13 -->
<g id="edge84" class="edge">
<title>Node34&#45;&gt;Node13</title>
<path fill="none" stroke="midnightblue" d="M1428.07,-459.26C1438.5,-446.87 1454.47,-423.43 1447,-403 1442.94,-391.91 1434.81,-381.67 1427.11,-373.76"/>
<polygon fill="midnightblue" stroke="midnightblue" points="1429.36,-371.07 1419.71,-366.7 1424.53,-376.14 1429.36,-371.07"/>
</g>
<!-- Node34&#45;&gt;Node31 -->
<g id="edge86" class="edge">
<title>Node34&#45;&gt;Node31</title>
<path fill="none" stroke="midnightblue" d="M1417.52,-459.08C1415.51,-451.85 1412.61,-441.41 1410.11,-432.4"/>
<polygon fill="midnightblue" stroke="midnightblue" points="1413.48,-431.45 1407.43,-422.75 1406.74,-433.32 1413.48,-431.45"/>
</g>
<!-- Node34&#45;&gt;Node32 -->
<g id="edge85" class="edge">
<title>Node34&#45;&gt;Node32</title>
<path fill="none" stroke="midnightblue" d="M1438.54,-459.44C1457.62,-450.64 1487.57,-436.81 1509.44,-426.72"/>
<polygon fill="midnightblue" stroke="midnightblue" points="1510.93,-429.88 1518.55,-422.52 1508,-423.53 1510.93,-429.88"/>
</g>
</g>
</svg>
