<?xml version="1.0" encoding="UTF-8" standalone="no"?>
<!DOCTYPE svg PUBLIC "-//W3C//DTD SVG 1.1//EN"
 "http://www.w3.org/Graphics/SVG/1.1/DTD/svg11.dtd">
<!-- Generated by graphviz version 2.43.0 (0)
 -->
<!-- Title: Libs/Lua/sources/State/State.cpp Pages: 1 -->
<svg width="927pt" height="330pt"
 viewBox="0.00 0.00 927.00 330.00" xmlns="http://www.w3.org/2000/svg" xmlns:xlink="http://www.w3.org/1999/xlink">
<g id="graph0" class="graph" transform="scale(1 1) rotate(0) translate(4 326)">
<title>Libs/Lua/sources/State/State.cpp</title>
<polygon fill="white" stroke="transparent" points="-4,4 -4,-326 923,-326 923,4 -4,4"/>
<!-- Node1 -->
<g id="node1" class="node">
<title>Node1</title>
<g id="a_node1"><a xlink:title=" ">
<polygon fill="#bfbfbf" stroke="black" points="21,-291.5 21,-321.5 146,-321.5 146,-291.5 21,-291.5"/>
<text text-anchor="start" x="29" y="-309.5" font-family="Helvetica,sans-Serif" font-size="10.00">Libs/Lua/sources/State</text>
<text text-anchor="middle" x="83.5" y="-298.5" font-family="Helvetica,sans-Serif" font-size="10.00">/State.cpp</text>
</a>
</g>
</g>
<!-- Node2 -->
<g id="node2" class="node">
<title>Node2</title>
<g id="a_node2"><a xlink:title=" ">
<polygon fill="white" stroke="#bfbfbf" points="0,-235.5 0,-254.5 55,-254.5 55,-235.5 0,-235.5"/>
<text text-anchor="middle" x="27.5" y="-242.5" font-family="Helvetica,sans-Serif" font-size="10.00">fstream</text>
</a>
</g>
</g>
<!-- Node1&#45;&gt;Node2 -->
<g id="edge1" class="edge">
<title>Node1&#45;&gt;Node2</title>
<path fill="none" stroke="midnightblue" d="M70.23,-291.4C61.92,-282.58 51.2,-271.18 42.58,-262.02"/>
<polygon fill="midnightblue" stroke="midnightblue" points="45.05,-259.54 35.65,-254.66 39.95,-264.34 45.05,-259.54"/>
</g>
<!-- Node3 -->
<g id="node3" class="node">
<title>Node3</title>
<g id="a_node3"><a xlink:title=" ">
<polygon fill="white" stroke="#bfbfbf" points="232.5,-67.5 232.5,-86.5 288.5,-86.5 288.5,-67.5 232.5,-67.5"/>
<text text-anchor="middle" x="260.5" y="-74.5" font-family="Helvetica,sans-Serif" font-size="10.00">sstream</text>
</a>
</g>
</g>
<!-- Node1&#45;&gt;Node3 -->
<g id="edge2" class="edge">
<title>Node1&#45;&gt;Node3</title>
<path fill="none" stroke="midnightblue" d="M82.03,-291.28C80.19,-266.38 79.65,-214.21 102.5,-179 131.7,-134 188.77,-105.08 225.73,-90.19"/>
<polygon fill="midnightblue" stroke="midnightblue" points="227.08,-93.42 235.13,-86.53 224.54,-86.9 227.08,-93.42"/>
</g>
<!-- Node4 -->
<g id="node4" class="node">
<title>Node4</title>
<g id="a_node4"><a xlink:href="State_8hpp.html" target="_top" xlink:title=" ">
<polygon fill="white" stroke="black" points="383,-235.5 383,-254.5 446,-254.5 446,-235.5 383,-235.5"/>
<text text-anchor="middle" x="414.5" y="-242.5" font-family="Helvetica,sans-Serif" font-size="10.00">State.hpp</text>
</a>
</g>
</g>
<!-- Node1&#45;&gt;Node4 -->
<g id="edge3" class="edge">
<title>Node1&#45;&gt;Node4</title>
<path fill="none" stroke="midnightblue" d="M146.15,-294.24C212.49,-282.31 315.36,-263.82 372.55,-253.54"/>
<polygon fill="midnightblue" stroke="midnightblue" points="373.45,-256.94 382.67,-251.72 372.21,-250.05 373.45,-256.94"/>
</g>
<!-- Node5 -->
<g id="node5" class="node">
<title>Node5</title>
<g id="a_node5"><a xlink:title=" ">
<polygon fill="white" stroke="#bfbfbf" points="695.5,-179.5 695.5,-198.5 753.5,-198.5 753.5,-179.5 695.5,-179.5"/>
<text text-anchor="middle" x="724.5" y="-186.5" font-family="Helvetica,sans-Serif" font-size="10.00">memory</text>
</a>
</g>
</g>
<!-- Node4&#45;&gt;Node5 -->
<g id="edge4" class="edge">
<title>Node4&#45;&gt;Node5</title>
<path fill="none" stroke="midnightblue" d="M446.04,-239.5C495.12,-232.34 592.94,-217.46 685.67,-199.05"/>
<polygon fill="midnightblue" stroke="midnightblue" points="686.38,-202.48 695.5,-197.08 685.01,-195.62 686.38,-202.48"/>
</g>
<!-- Node6 -->
<g id="node6" class="node">
<title>Node6</title>
<g id="a_node6"><a xlink:title=" ">
<polygon fill="white" stroke="#bfbfbf" points="771.5,-179.5 771.5,-198.5 809.5,-198.5 809.5,-179.5 771.5,-179.5"/>
<text text-anchor="middle" x="790.5" y="-186.5" font-family="Helvetica,sans-Serif" font-size="10.00">map</text>
</a>
</g>
</g>
<!-- Node4&#45;&gt;Node6 -->
<g id="edge5" class="edge">
<title>Node4&#45;&gt;Node6</title>
<path fill="none" stroke="midnightblue" d="M446.03,-241.86C505.88,-237.38 640.13,-225.36 761.52,-198.85"/>
<polygon fill="midnightblue" stroke="midnightblue" points="762.35,-202.25 771.35,-196.66 760.83,-195.42 762.35,-202.25"/>
</g>
<!-- Node7 -->
<g id="node7" class="node">
<title>Node7</title>
<g id="a_node7"><a xlink:title=" ">
<polygon fill="white" stroke="#bfbfbf" points="112,-179.5 112,-198.5 159,-198.5 159,-179.5 112,-179.5"/>
<text text-anchor="middle" x="135.5" y="-186.5" font-family="Helvetica,sans-Serif" font-size="10.00">vector</text>
</a>
</g>
</g>
<!-- Node4&#45;&gt;Node7 -->
<g id="edge6" class="edge">
<title>Node4&#45;&gt;Node7</title>
<path fill="none" stroke="midnightblue" d="M382.87,-239.1C337.66,-231.91 251.78,-217.53 169.04,-198.96"/>
<polygon fill="midnightblue" stroke="midnightblue" points="169.76,-195.53 159.23,-196.73 168.21,-202.36 169.76,-195.53"/>
</g>
<!-- Node8 -->
<g id="node8" class="node">
<title>Node8</title>
<g id="a_node8"><a xlink:title=" ">
<polygon fill="white" stroke="#bfbfbf" points="177.5,-179.5 177.5,-198.5 221.5,-198.5 221.5,-179.5 177.5,-179.5"/>
<text text-anchor="middle" x="199.5" y="-186.5" font-family="Helvetica,sans-Serif" font-size="10.00">string</text>
</a>
</g>
</g>
<!-- Node4&#45;&gt;Node8 -->
<g id="edge7" class="edge">
<title>Node4&#45;&gt;Node8</title>
<path fill="none" stroke="midnightblue" d="M382.81,-236.68C348,-228.55 290.22,-214.78 231.61,-199.22"/>
<polygon fill="midnightblue" stroke="midnightblue" points="232.38,-195.8 221.82,-196.6 230.58,-202.56 232.38,-195.8"/>
</g>
<!-- Node9 -->
<g id="node9" class="node">
<title>Node9</title>
<g id="a_node9"><a xlink:href="DelayedPop_8hpp.html" target="_top" xlink:title=" ">
<polygon fill="white" stroke="black" points="239.5,-179.5 239.5,-198.5 335.5,-198.5 335.5,-179.5 239.5,-179.5"/>
<text text-anchor="middle" x="287.5" y="-186.5" font-family="Helvetica,sans-Serif" font-size="10.00">DelayedPop.hpp</text>
</a>
</g>
</g>
<!-- Node4&#45;&gt;Node9 -->
<g id="edge8" class="edge">
<title>Node4&#45;&gt;Node9</title>
<path fill="none" stroke="midnightblue" d="M394.38,-235.44C373.48,-226.56 340.57,-212.56 316.78,-202.45"/>
<polygon fill="midnightblue" stroke="midnightblue" points="318.1,-199.21 307.53,-198.52 315.36,-205.65 318.1,-199.21"/>
</g>
<!-- Node10 -->
<g id="node10" class="node">
<title>Node10</title>
<g id="a_node10"><a xlink:href="Nil_8hpp.html" target="_top" xlink:title=" ">
<polygon fill="white" stroke="black" points="354,-179.5 354,-198.5 405,-198.5 405,-179.5 354,-179.5"/>
<text text-anchor="middle" x="379.5" y="-186.5" font-family="Helvetica,sans-Serif" font-size="10.00">Nil.hpp</text>
</a>
</g>
</g>
<!-- Node4&#45;&gt;Node10 -->
<g id="edge9" class="edge">
<title>Node4&#45;&gt;Node10</title>
<path fill="none" stroke="midnightblue" d="M408.72,-235.08C403.83,-227.53 396.67,-216.49 390.67,-207.23"/>
<polygon fill="midnightblue" stroke="midnightblue" points="393.55,-205.24 385.17,-198.75 387.67,-209.05 393.55,-205.24"/>
</g>
<!-- Node11 -->
<g id="node11" class="node">
<title>Node11</title>
<g id="a_node11"><a xlink:title=" ">
<polygon fill="white" stroke="#bfbfbf" points="423,-179.5 423,-198.5 476,-198.5 476,-179.5 423,-179.5"/>
<text text-anchor="middle" x="449.5" y="-186.5" font-family="Helvetica,sans-Serif" font-size="10.00">lua.hpp</text>
</a>
</g>
</g>
<!-- Node4&#45;&gt;Node11 -->
<g id="edge10" class="edge">
<title>Node4&#45;&gt;Node11</title>
<path fill="none" stroke="midnightblue" d="M420.28,-235.08C425.17,-227.53 432.33,-216.49 438.33,-207.23"/>
<polygon fill="midnightblue" stroke="midnightblue" points="441.33,-209.05 443.83,-198.75 435.45,-205.24 441.33,-209.05"/>
</g>
<!-- Node12 -->
<g id="node12" class="node">
<title>Node12</title>
<g id="a_node12"><a xlink:href="Vector2_8hpp.html" target="_top" xlink:title=" ">
<polygon fill="white" stroke="black" points="603.5,-179.5 603.5,-198.5 677.5,-198.5 677.5,-179.5 603.5,-179.5"/>
<text text-anchor="middle" x="640.5" y="-186.5" font-family="Helvetica,sans-Serif" font-size="10.00">Vector2.hpp</text>
</a>
</g>
</g>
<!-- Node4&#45;&gt;Node12 -->
<g id="edge11" class="edge">
<title>Node4&#45;&gt;Node12</title>
<path fill="none" stroke="midnightblue" d="M446.4,-236.38C485.12,-227.13 550.69,-211.46 594.77,-200.93"/>
<polygon fill="midnightblue" stroke="midnightblue" points="595.75,-204.29 604.66,-198.56 594.12,-197.48 595.75,-204.29"/>
</g>
<!-- Node21 -->
<g id="node21" class="node">
<title>Node21</title>
<g id="a_node21"><a xlink:title=" ">
<polygon fill="white" stroke="#bfbfbf" points="494,-179.5 494,-198.5 585,-198.5 585,-179.5 494,-179.5"/>
<text text-anchor="middle" x="539.5" y="-186.5" font-family="Helvetica,sans-Serif" font-size="10.00">Exceptions.hpp</text>
</a>
</g>
</g>
<!-- Node4&#45;&gt;Node21 -->
<g id="edge24" class="edge">
<title>Node4&#45;&gt;Node21</title>
<path fill="none" stroke="midnightblue" d="M434.31,-235.44C454.79,-226.6 486.98,-212.69 510.36,-202.59"/>
<polygon fill="midnightblue" stroke="midnightblue" points="511.99,-205.7 519.79,-198.52 509.22,-199.27 511.99,-205.7"/>
</g>
<!-- Node13 -->
<g id="node13" class="node">
<title>Node13</title>
<g id="a_node13"><a xlink:title=" ">
<polygon fill="white" stroke="#bfbfbf" points="484,-67.5 484,-86.5 537,-86.5 537,-67.5 484,-67.5"/>
<text text-anchor="middle" x="510.5" y="-74.5" font-family="Helvetica,sans-Serif" font-size="10.00">raylib.h</text>
</a>
</g>
</g>
<!-- Node12&#45;&gt;Node13 -->
<g id="edge12" class="edge">
<title>Node12&#45;&gt;Node13</title>
<path fill="none" stroke="midnightblue" d="M611.7,-179.48C582.76,-170.38 540.86,-155.57 529.5,-143 518.05,-130.34 513.48,-111.13 511.66,-96.88"/>
<polygon fill="midnightblue" stroke="midnightblue" points="515.13,-96.36 510.72,-86.72 508.16,-97.01 515.13,-96.36"/>
</g>
<!-- Node14 -->
<g id="node14" class="node">
<title>Node14</title>
<g id="a_node14"><a xlink:title=" ">
<polygon fill="white" stroke="#bfbfbf" points="555,-67.5 555,-86.5 602,-86.5 602,-67.5 555,-67.5"/>
<text text-anchor="middle" x="578.5" y="-74.5" font-family="Helvetica,sans-Serif" font-size="10.00">cmath</text>
</a>
</g>
</g>
<!-- Node12&#45;&gt;Node14 -->
<g id="edge13" class="edge">
<title>Node12&#45;&gt;Node14</title>
<path fill="none" stroke="midnightblue" d="M639.34,-179.49C637.29,-166.57 632.2,-141.53 621.5,-123 615.11,-111.94 605.46,-101.49 596.91,-93.46"/>
<polygon fill="midnightblue" stroke="midnightblue" points="598.98,-90.62 589.2,-86.55 594.31,-95.83 598.98,-90.62"/>
</g>
<!-- Node15 -->
<g id="node15" class="node">
<title>Node15</title>
<g id="a_node15"><a xlink:href="Vector3_8hpp.html" target="_top" xlink:title=" ">
<polygon fill="white" stroke="black" points="538.5,-123.5 538.5,-142.5 612.5,-142.5 612.5,-123.5 538.5,-123.5"/>
<text text-anchor="middle" x="575.5" y="-130.5" font-family="Helvetica,sans-Serif" font-size="10.00">Vector3.hpp</text>
</a>
</g>
</g>
<!-- Node12&#45;&gt;Node15 -->
<g id="edge14" class="edge">
<title>Node12&#45;&gt;Node15</title>
<path fill="none" stroke="midnightblue" d="M630.06,-179.32C620.35,-171.26 605.68,-159.08 594,-149.37"/>
<polygon fill="midnightblue" stroke="midnightblue" points="596.06,-146.53 586.13,-142.83 591.59,-151.92 596.06,-146.53"/>
</g>
<!-- Node16 -->
<g id="node16" class="node">
<title>Node16</title>
<g id="a_node16"><a xlink:href="IXMLSerializable_8hpp.html" target="_top" xlink:title=" ">
<polygon fill="white" stroke="black" points="620,-67.5 620,-86.5 739,-86.5 739,-67.5 620,-67.5"/>
<text text-anchor="middle" x="679.5" y="-74.5" font-family="Helvetica,sans-Serif" font-size="10.00">IXMLSerializable.hpp</text>
</a>
</g>
</g>
<!-- Node12&#45;&gt;Node16 -->
<g id="edge23" class="edge">
<title>Node12&#45;&gt;Node16</title>
<path fill="none" stroke="midnightblue" d="M643.56,-179.37C649.88,-161.54 664.5,-120.3 673.02,-96.27"/>
<polygon fill="midnightblue" stroke="midnightblue" points="676.41,-97.19 676.45,-86.59 669.81,-94.85 676.41,-97.19"/>
</g>
<!-- Node15&#45;&gt;Node3 -->
<g id="edge22" class="edge">
<title>Node15&#45;&gt;Node3</title>
<path fill="none" stroke="midnightblue" d="M538.44,-125.65C478.17,-115.32 359.55,-94.98 298.61,-84.53"/>
<polygon fill="midnightblue" stroke="midnightblue" points="299.09,-81.06 288.64,-82.82 297.91,-87.96 299.09,-81.06"/>
</g>
<!-- Node15&#45;&gt;Node13 -->
<g id="edge15" class="edge">
<title>Node15&#45;&gt;Node13</title>
<path fill="none" stroke="midnightblue" d="M565.06,-123.32C555.35,-115.26 540.68,-103.08 529,-93.37"/>
<polygon fill="midnightblue" stroke="midnightblue" points="531.06,-90.53 521.13,-86.83 526.59,-95.92 531.06,-90.53"/>
</g>
<!-- Node15&#45;&gt;Node14 -->
<g id="edge21" class="edge">
<title>Node15&#45;&gt;Node14</title>
<path fill="none" stroke="midnightblue" d="M576,-123.08C576.39,-116.01 576.95,-105.86 577.45,-96.99"/>
<polygon fill="midnightblue" stroke="midnightblue" points="580.95,-96.93 578.01,-86.75 573.96,-96.54 580.95,-96.93"/>
</g>
<!-- Node15&#45;&gt;Node16 -->
<g id="edge16" class="edge">
<title>Node15&#45;&gt;Node16</title>
<path fill="none" stroke="midnightblue" d="M592.21,-123.32C608.81,-114.7 634.5,-101.36 653.72,-91.39"/>
<polygon fill="midnightblue" stroke="midnightblue" points="655.57,-94.37 662.83,-86.65 652.34,-88.16 655.57,-94.37"/>
</g>
<!-- Node17 -->
<g id="node17" class="node">
<title>Node17</title>
<g id="a_node17"><a xlink:title=" ">
<polygon fill="white" stroke="#bfbfbf" points="521,-6 521,-25 578,-25 578,-6 521,-6"/>
<text text-anchor="middle" x="549.5" y="-13" font-family="Helvetica,sans-Serif" font-size="10.00">ostream</text>
</a>
</g>
</g>
<!-- Node16&#45;&gt;Node17 -->
<g id="edge17" class="edge">
<title>Node16&#45;&gt;Node17</title>
<path fill="none" stroke="midnightblue" d="M660.87,-67.48C639.06,-57.49 602.7,-40.85 577.48,-29.31"/>
<polygon fill="midnightblue" stroke="midnightblue" points="578.64,-25.99 568.09,-25.01 575.73,-32.35 578.64,-25.99"/>
</g>
<!-- Node18 -->
<g id="node18" class="node">
<title>Node18</title>
<g id="a_node18"><a xlink:title=" ">
<polygon fill="white" stroke="#bfbfbf" points="596.5,-6 596.5,-25 656.5,-25 656.5,-6 596.5,-6"/>
<text text-anchor="middle" x="626.5" y="-13" font-family="Helvetica,sans-Serif" font-size="10.00">iostream</text>
</a>
</g>
</g>
<!-- Node16&#45;&gt;Node18 -->
<g id="edge18" class="edge">
<title>Node16&#45;&gt;Node18</title>
<path fill="none" stroke="midnightblue" d="M671.91,-67.48C663.8,-58.37 650.77,-43.74 640.74,-32.48"/>
<polygon fill="midnightblue" stroke="midnightblue" points="643.34,-30.15 634.08,-25.01 638.12,-34.8 643.34,-30.15"/>
</g>
<!-- Node19 -->
<g id="node19" class="node">
<title>Node19</title>
<g id="a_node19"><a xlink:title=" ">
<polygon fill="white" stroke="#bfbfbf" points="675,-0.5 675,-30.5 788,-30.5 788,-0.5 675,-0.5"/>
<text text-anchor="start" x="683" y="-18.5" font-family="Helvetica,sans-Serif" font-size="10.00">boost/property_tree</text>
<text text-anchor="middle" x="731.5" y="-7.5" font-family="Helvetica,sans-Serif" font-size="10.00">/ptree.hpp</text>
</a>
</g>
</g>
<!-- Node16&#45;&gt;Node19 -->
<g id="edge19" class="edge">
<title>Node16&#45;&gt;Node19</title>
<path fill="none" stroke="midnightblue" d="M686.95,-67.48C693.6,-59.87 703.62,-48.4 712.48,-38.26"/>
<polygon fill="midnightblue" stroke="midnightblue" points="715.3,-40.36 719.24,-30.52 710.03,-35.75 715.3,-40.36"/>
</g>
<!-- Node20 -->
<g id="node20" class="node">
<title>Node20</title>
<g id="a_node20"><a xlink:title=" ">
<polygon fill="white" stroke="#bfbfbf" points="806,-0.5 806,-30.5 919,-30.5 919,-0.5 806,-0.5"/>
<text text-anchor="start" x="814" y="-18.5" font-family="Helvetica,sans-Serif" font-size="10.00">boost/property_tree</text>
<text text-anchor="middle" x="862.5" y="-7.5" font-family="Helvetica,sans-Serif" font-size="10.00">/xml_parser.hpp</text>
</a>
</g>
</g>
<!-- Node16&#45;&gt;Node20 -->
<g id="edge20" class="edge">
<title>Node16&#45;&gt;Node20</title>
<path fill="none" stroke="midnightblue" d="M705.72,-67.48C732.7,-58.7 775.5,-44.79 809.56,-33.71"/>
<polygon fill="midnightblue" stroke="midnightblue" points="810.94,-36.94 819.37,-30.52 808.78,-30.29 810.94,-36.94"/>
</g>
</g>
</svg>
