<?xml version="1.0" encoding="UTF-8" standalone="no"?>
<!DOCTYPE svg PUBLIC "-//W3C//DTD SVG 1.1//EN"
 "http://www.w3.org/Graphics/SVG/1.1/DTD/svg11.dtd">
<!-- Generated by graphviz version 2.43.0 (0)
 -->
<!-- Title: Libs/ECS/tests/StorageComponent/StorageComponent.hpp Pages: 1 -->
<svg width="421pt" height="173pt"
 viewBox="0.00 0.00 420.50 173.00" xmlns="http://www.w3.org/2000/svg" xmlns:xlink="http://www.w3.org/1999/xlink">
<g id="graph0" class="graph" transform="scale(1 1) rotate(0) translate(4 169)">
<title>Libs/ECS/tests/StorageComponent/StorageComponent.hpp</title>
<polygon fill="white" stroke="transparent" points="-4,4 -4,-169 416.5,-169 416.5,4 -4,4"/>
<!-- Node1 -->
<g id="node1" class="node">
<title>Node1</title>
<g id="a_node1"><a xlink:title=" ">
<polygon fill="#bfbfbf" stroke="black" points="111,-134.5 111,-164.5 293,-164.5 293,-134.5 111,-134.5"/>
<text text-anchor="start" x="119" y="-152.5" font-family="Helvetica,sans-Serif" font-size="10.00">Libs/ECS/tests/StorageComponent</text>
<text text-anchor="middle" x="202" y="-141.5" font-family="Helvetica,sans-Serif" font-size="10.00">/StorageComponent.hpp</text>
</a>
</g>
</g>
<!-- Node2 -->
<g id="node2" class="node">
<title>Node2</title>
<g id="a_node2"><a xlink:href="AddSystem_8hpp.html" target="_top" xlink:title=" ">
<polygon fill="white" stroke="black" points="130.5,-67.5 130.5,-97.5 273.5,-97.5 273.5,-67.5 130.5,-67.5"/>
<text text-anchor="start" x="138.5" y="-85.5" font-family="Helvetica,sans-Serif" font-size="10.00">Libs/ECS/tests/AddSystem</text>
<text text-anchor="middle" x="202" y="-74.5" font-family="Helvetica,sans-Serif" font-size="10.00">/AddSystem.hpp</text>
</a>
</g>
</g>
<!-- Node1&#45;&gt;Node2 -->
<g id="edge1" class="edge">
<title>Node1&#45;&gt;Node2</title>
<path fill="none" stroke="midnightblue" d="M202,-124.11C202,-115.15 202,-105.32 202,-97.58"/>
<polygon fill="midnightblue" stroke="midnightblue" points="198.5,-124.4 202,-134.4 205.5,-124.4 198.5,-124.4"/>
</g>
<!-- Node4 -->
<g id="node4" class="node">
<title>Node4</title>
<g id="a_node4"><a xlink:href="tests__Coordinator_8cpp.html" target="_top" xlink:title=" ">
<polygon fill="white" stroke="black" points="0,-0.5 0,-30.5 112,-30.5 112,-0.5 0,-0.5"/>
<text text-anchor="start" x="8" y="-18.5" font-family="Helvetica,sans-Serif" font-size="10.00">Libs/ECS/tests/tests</text>
<text text-anchor="middle" x="56" y="-7.5" font-family="Helvetica,sans-Serif" font-size="10.00">_Coordinator.cpp</text>
</a>
</g>
</g>
<!-- Node1&#45;&gt;Node4 -->
<g id="edge5" class="edge">
<title>Node1&#45;&gt;Node4</title>
<path fill="none" stroke="midnightblue" d="M165.68,-129.43C151.02,-120.85 134.43,-109.96 121,-98 97.89,-77.42 76.65,-47.97 65.09,-30.68"/>
<polygon fill="midnightblue" stroke="midnightblue" points="164.1,-132.55 174.52,-134.46 167.56,-126.47 164.1,-132.55"/>
</g>
<!-- Node5 -->
<g id="node5" class="node">
<title>Node5</title>
<g id="a_node5"><a xlink:href="tests__SystemManager_8cpp.html" target="_top" xlink:title=" ">
<polygon fill="white" stroke="black" points="291.5,-0.5 291.5,-30.5 412.5,-30.5 412.5,-0.5 291.5,-0.5"/>
<text text-anchor="start" x="299.5" y="-18.5" font-family="Helvetica,sans-Serif" font-size="10.00">Libs/ECS/tests/tests</text>
<text text-anchor="middle" x="352" y="-7.5" font-family="Helvetica,sans-Serif" font-size="10.00">_SystemManager.cpp</text>
</a>
</g>
</g>
<!-- Node1&#45;&gt;Node5 -->
<g id="edge6" class="edge">
<title>Node1&#45;&gt;Node5</title>
<path fill="none" stroke="midnightblue" d="M238.14,-129.23C252.78,-120.62 269.4,-109.76 283,-98 306.98,-77.27 329.71,-47.87 342.16,-30.63"/>
<polygon fill="midnightblue" stroke="midnightblue" points="236.26,-126.28 229.33,-134.29 239.75,-132.35 236.26,-126.28"/>
</g>
<!-- Node3 -->
<g id="node3" class="node">
<title>Node3</title>
<g id="a_node3"><a xlink:href="AddSystem_8cpp.html" target="_top" xlink:title=" ">
<polygon fill="white" stroke="black" points="130.5,-0.5 130.5,-30.5 273.5,-30.5 273.5,-0.5 130.5,-0.5"/>
<text text-anchor="start" x="138.5" y="-18.5" font-family="Helvetica,sans-Serif" font-size="10.00">Libs/ECS/tests/AddSystem</text>
<text text-anchor="middle" x="202" y="-7.5" font-family="Helvetica,sans-Serif" font-size="10.00">/AddSystem.cpp</text>
</a>
</g>
</g>
<!-- Node2&#45;&gt;Node3 -->
<g id="edge2" class="edge">
<title>Node2&#45;&gt;Node3</title>
<path fill="none" stroke="midnightblue" d="M202,-57.11C202,-48.15 202,-38.32 202,-30.58"/>
<polygon fill="midnightblue" stroke="midnightblue" points="198.5,-57.4 202,-67.4 205.5,-57.4 198.5,-57.4"/>
</g>
<!-- Node2&#45;&gt;Node4 -->
<g id="edge3" class="edge">
<title>Node2&#45;&gt;Node4</title>
<path fill="none" stroke="midnightblue" d="M161.05,-63.27C137.8,-52.92 109.13,-40.15 87.62,-30.58"/>
<polygon fill="midnightblue" stroke="midnightblue" points="159.76,-66.53 170.32,-67.4 162.61,-60.13 159.76,-66.53"/>
</g>
<!-- Node2&#45;&gt;Node5 -->
<g id="edge4" class="edge">
<title>Node2&#45;&gt;Node5</title>
<path fill="none" stroke="midnightblue" d="M243.75,-63.41C267.7,-53.03 297.32,-40.2 319.52,-30.58"/>
<polygon fill="midnightblue" stroke="midnightblue" points="242.33,-60.21 234.55,-67.4 245.11,-66.63 242.33,-60.21"/>
</g>
</g>
</svg>
