<?xml version="1.0" encoding="UTF-8" standalone="no"?>
<!DOCTYPE svg PUBLIC "-//W3C//DTD SVG 1.1//EN"
 "http://www.w3.org/Graphics/SVG/1.1/DTD/svg11.dtd">
<!-- Generated by graphviz version 2.43.0 (0)
 -->
<!-- Title: Libs/ECS/sources/Managers/SystemManager/SystemManager.hpp Pages: 1 -->
<svg width="827pt" height="386pt"
 viewBox="0.00 0.00 826.50 386.00" xmlns="http://www.w3.org/2000/svg" xmlns:xlink="http://www.w3.org/1999/xlink">
<g id="graph0" class="graph" transform="scale(1 1) rotate(0) translate(4 382)">
<title>Libs/ECS/sources/Managers/SystemManager/SystemManager.hpp</title>
<polygon fill="white" stroke="transparent" points="-4,4 -4,-382 822.5,-382 822.5,4 -4,4"/>
<!-- Node1 -->
<g id="node1" class="node">
<title>Node1</title>
<g id="a_node1"><a xlink:title=" ">
<polygon fill="#bfbfbf" stroke="black" points="585,-347.5 585,-377.5 787,-377.5 787,-347.5 585,-347.5"/>
<text text-anchor="start" x="593" y="-365.5" font-family="Helvetica,sans-Serif" font-size="10.00">Libs/ECS/sources/Managers</text>
<text text-anchor="middle" x="686" y="-354.5" font-family="Helvetica,sans-Serif" font-size="10.00">/SystemManager/SystemManager.hpp</text>
</a>
</g>
</g>
<!-- Node2 -->
<g id="node2" class="node">
<title>Node2</title>
<g id="a_node2"><a xlink:title=" ">
<polygon fill="white" stroke="#bfbfbf" points="88,-123.5 88,-142.5 146,-142.5 146,-123.5 88,-123.5"/>
<text text-anchor="middle" x="117" y="-130.5" font-family="Helvetica,sans-Serif" font-size="10.00">memory</text>
</a>
</g>
</g>
<!-- Node1&#45;&gt;Node2 -->
<g id="edge1" class="edge">
<title>Node1&#45;&gt;Node2</title>
<path fill="none" stroke="midnightblue" d="M585.03,-347.5C532.1,-339.05 466.5,-326.84 409,-311 271.79,-273.2 190.15,-315.92 109,-199 99.6,-185.45 103.42,-166.39 108.49,-152.42"/>
<polygon fill="midnightblue" stroke="midnightblue" points="111.84,-153.47 112.42,-142.89 105.37,-150.8 111.84,-153.47"/>
</g>
<!-- Node3 -->
<g id="node3" class="node">
<title>Node3</title>
<g id="a_node3"><a xlink:title=" ">
<polygon fill="white" stroke="#bfbfbf" points="234,-123.5 234,-142.5 298,-142.5 298,-123.5 234,-123.5"/>
<text text-anchor="middle" x="266" y="-130.5" font-family="Helvetica,sans-Serif" font-size="10.00">algorithm</text>
</a>
</g>
</g>
<!-- Node1&#45;&gt;Node3 -->
<g id="edge2" class="edge">
<title>Node1&#45;&gt;Node3</title>
<path fill="none" stroke="midnightblue" d="M584.77,-347.71C513.04,-333.87 417.57,-306.82 348,-255 311.17,-227.57 285.43,-178.45 273.51,-152.02"/>
<polygon fill="midnightblue" stroke="midnightblue" points="276.7,-150.57 269.5,-142.79 270.28,-153.36 276.7,-150.57"/>
</g>
<!-- Node4 -->
<g id="node4" class="node">
<title>Node4</title>
<g id="a_node4"><a xlink:title=" ">
<polygon fill="white" stroke="#bfbfbf" points="665,-123.5 665,-142.5 709,-142.5 709,-123.5 665,-123.5"/>
<text text-anchor="middle" x="687" y="-130.5" font-family="Helvetica,sans-Serif" font-size="10.00">string</text>
</a>
</g>
</g>
<!-- Node1&#45;&gt;Node4 -->
<g id="edge3" class="edge">
<title>Node1&#45;&gt;Node4</title>
<path fill="none" stroke="midnightblue" d="M707.3,-347.38C718.73,-338.46 731.73,-325.84 738,-311 760.85,-256.96 762.13,-232.47 738,-179 732.38,-166.56 721.44,-156.17 711.12,-148.53"/>
<polygon fill="midnightblue" stroke="midnightblue" points="712.96,-145.54 702.73,-142.76 708.99,-151.31 712.96,-145.54"/>
</g>
<!-- Node5 -->
<g id="node5" class="node">
<title>Node5</title>
<g id="a_node5"><a xlink:title=" ">
<polygon fill="white" stroke="#bfbfbf" points="553.5,-123.5 553.5,-142.5 646.5,-142.5 646.5,-123.5 553.5,-123.5"/>
<text text-anchor="middle" x="600" y="-130.5" font-family="Helvetica,sans-Serif" font-size="10.00">unordered_map</text>
</a>
</g>
</g>
<!-- Node1&#45;&gt;Node5 -->
<g id="edge4" class="edge">
<title>Node1&#45;&gt;Node5</title>
<path fill="none" stroke="midnightblue" d="M680.87,-347.44C675.66,-333.19 667.34,-310.54 660,-291 641.09,-240.64 618.3,-181.39 607.02,-152.17"/>
<polygon fill="midnightblue" stroke="midnightblue" points="610.29,-150.91 603.42,-142.84 603.76,-153.43 610.29,-150.91"/>
</g>
<!-- Node6 -->
<g id="node6" class="node">
<title>Node6</title>
<g id="a_node6"><a xlink:href="ASystem_8hpp.html" target="_top" xlink:title=" ">
<polygon fill="white" stroke="black" points="569.5,-291.5 569.5,-310.5 650.5,-310.5 650.5,-291.5 569.5,-291.5"/>
<text text-anchor="middle" x="610" y="-298.5" font-family="Helvetica,sans-Serif" font-size="10.00">ASystem.hpp</text>
</a>
</g>
</g>
<!-- Node1&#45;&gt;Node6 -->
<g id="edge5" class="edge">
<title>Node1&#45;&gt;Node6</title>
<path fill="none" stroke="midnightblue" d="M667.99,-347.4C656.26,-338.22 640.98,-326.26 629.06,-316.92"/>
<polygon fill="midnightblue" stroke="midnightblue" points="631.09,-314.07 621.06,-310.66 626.78,-319.58 631.09,-314.07"/>
</g>
<!-- Node10 -->
<g id="node10" class="node">
<title>Node10</title>
<g id="a_node10"><a xlink:title=" ">
<polygon fill="white" stroke="#bfbfbf" points="727.5,-123.5 727.5,-142.5 818.5,-142.5 818.5,-123.5 727.5,-123.5"/>
<text text-anchor="middle" x="773" y="-130.5" font-family="Helvetica,sans-Serif" font-size="10.00">Exceptions.hpp</text>
</a>
</g>
</g>
<!-- Node1&#45;&gt;Node10 -->
<g id="edge36" class="edge">
<title>Node1&#45;&gt;Node10</title>
<path fill="none" stroke="midnightblue" d="M713.58,-347.46C727.95,-338.8 744.65,-326.4 755,-311 787.98,-261.95 781.71,-187.32 776.44,-152.77"/>
<polygon fill="midnightblue" stroke="midnightblue" points="779.86,-151.97 774.75,-142.68 772.96,-153.12 779.86,-151.97"/>
</g>
<!-- Node6&#45;&gt;Node4 -->
<g id="edge6" class="edge">
<title>Node6&#45;&gt;Node4</title>
<path fill="none" stroke="midnightblue" d="M614.14,-291.08C626.37,-264.72 662.47,-186.88 678.81,-151.66"/>
<polygon fill="midnightblue" stroke="midnightblue" points="681.99,-153.11 683.03,-142.57 675.64,-150.17 681.99,-153.11"/>
</g>
<!-- Node7 -->
<g id="node7" class="node">
<title>Node7</title>
<g id="a_node7"><a xlink:title=" ">
<polygon fill="white" stroke="#bfbfbf" points="488.5,-123.5 488.5,-142.5 535.5,-142.5 535.5,-123.5 488.5,-123.5"/>
<text text-anchor="middle" x="512" y="-130.5" font-family="Helvetica,sans-Serif" font-size="10.00">vector</text>
</a>
</g>
</g>
<!-- Node6&#45;&gt;Node7 -->
<g id="edge7" class="edge">
<title>Node6&#45;&gt;Node7</title>
<path fill="none" stroke="midnightblue" d="M604.73,-291.08C589.1,-264.61 542.82,-186.21 522.16,-151.21"/>
<polygon fill="midnightblue" stroke="midnightblue" points="525.16,-149.4 517.06,-142.57 519.13,-152.96 525.16,-149.4"/>
</g>
<!-- Node8 -->
<g id="node8" class="node">
<title>Node8</title>
<g id="a_node8"><a xlink:href="Entity_8hpp.html" target="_top" xlink:title=" ">
<polygon fill="white" stroke="black" points="357.5,-235.5 357.5,-254.5 422.5,-254.5 422.5,-235.5 357.5,-235.5"/>
<text text-anchor="middle" x="390" y="-242.5" font-family="Helvetica,sans-Serif" font-size="10.00">Entity.hpp</text>
</a>
</g>
</g>
<!-- Node6&#45;&gt;Node8 -->
<g id="edge8" class="edge">
<title>Node6&#45;&gt;Node8</title>
<path fill="none" stroke="midnightblue" d="M575.14,-291.44C536.41,-281.94 473.88,-266.59 432.36,-256.4"/>
<polygon fill="midnightblue" stroke="midnightblue" points="433.09,-252.97 422.54,-253.99 431.42,-259.77 433.09,-252.97"/>
</g>
<!-- Node8&#45;&gt;Node2 -->
<g id="edge11" class="edge">
<title>Node8&#45;&gt;Node2</title>
<path fill="none" stroke="midnightblue" d="M357.22,-243.41C292.52,-241.5 151.98,-233.39 121,-199 109.9,-186.68 110.21,-167.15 112.49,-152.71"/>
<polygon fill="midnightblue" stroke="midnightblue" points="115.93,-153.36 114.47,-142.86 109.07,-151.98 115.93,-153.36"/>
</g>
<!-- Node8&#45;&gt;Node3 -->
<g id="edge12" class="edge">
<title>Node8&#45;&gt;Node3</title>
<path fill="none" stroke="midnightblue" d="M380.27,-235.37C359.35,-216.81 309.87,-172.91 283.4,-149.44"/>
<polygon fill="midnightblue" stroke="midnightblue" points="285.49,-146.61 275.68,-142.59 280.84,-151.85 285.49,-146.61"/>
</g>
<!-- Node8&#45;&gt;Node5 -->
<g id="edge10" class="edge">
<title>Node8&#45;&gt;Node5</title>
<path fill="none" stroke="midnightblue" d="M422.76,-238.05C452.73,-231.62 497.51,-219.43 532,-199 553.61,-186.2 573.8,-165.31 586.48,-150.68"/>
<polygon fill="midnightblue" stroke="midnightblue" points="589.26,-152.8 593.02,-142.9 583.91,-148.3 589.26,-152.8"/>
</g>
<!-- Node8&#45;&gt;Node7 -->
<g id="edge13" class="edge">
<title>Node8&#45;&gt;Node7</title>
<path fill="none" stroke="midnightblue" d="M422.56,-242.27C452.15,-238.77 494.24,-228.53 515,-199 524.42,-185.6 522.2,-166.52 518.51,-152.5"/>
<polygon fill="midnightblue" stroke="midnightblue" points="521.86,-151.46 515.57,-142.94 515.17,-153.52 521.86,-151.46"/>
</g>
<!-- Node9 -->
<g id="node9" class="node">
<title>Node9</title>
<g id="a_node9"><a xlink:title=" ">
<polygon fill="white" stroke="#bfbfbf" points="0,-123.5 0,-142.5 62,-142.5 62,-123.5 0,-123.5"/>
<text text-anchor="middle" x="31" y="-130.5" font-family="Helvetica,sans-Serif" font-size="10.00">cinttypes</text>
</a>
</g>
</g>
<!-- Node8&#45;&gt;Node9 -->
<g id="edge9" class="edge">
<title>Node8&#45;&gt;Node9</title>
<path fill="none" stroke="midnightblue" d="M357.22,-244.28C303.09,-243.56 192.65,-237.04 109,-199 83.82,-187.55 60.2,-165.71 45.69,-150.52"/>
<polygon fill="midnightblue" stroke="midnightblue" points="47.97,-147.84 38.61,-142.88 42.84,-152.59 47.97,-147.84"/>
</g>
<!-- Node8&#45;&gt;Node10 -->
<g id="edge14" class="edge">
<title>Node8&#45;&gt;Node10</title>
<path fill="none" stroke="midnightblue" d="M422.81,-235.62C456.92,-226.83 511.84,-212.44 559,-199 621.57,-181.17 693.92,-158.83 736.43,-145.53"/>
<polygon fill="midnightblue" stroke="midnightblue" points="737.57,-148.84 746.06,-142.51 735.47,-142.16 737.57,-148.84"/>
</g>
<!-- Node11 -->
<g id="node11" class="node">
<title>Node11</title>
<g id="a_node11"><a xlink:href="ComponentManager_8hpp.html" target="_top" xlink:title=" ">
<polygon fill="white" stroke="black" points="370,-179.5 370,-198.5 506,-198.5 506,-179.5 370,-179.5"/>
<text text-anchor="middle" x="438" y="-186.5" font-family="Helvetica,sans-Serif" font-size="10.00">ComponentManager.hpp</text>
</a>
</g>
</g>
<!-- Node8&#45;&gt;Node11 -->
<g id="edge15" class="edge">
<title>Node8&#45;&gt;Node11</title>
<path fill="none" stroke="midnightblue" d="M397.93,-235.08C404.85,-227.3 415.07,-215.8 423.45,-206.37"/>
<polygon fill="midnightblue" stroke="midnightblue" points="426.19,-208.55 430.22,-198.75 420.96,-203.9 426.19,-208.55"/>
</g>
<!-- Node12 -->
<g id="node12" class="node">
<title>Node12</title>
<g id="a_node12"><a xlink:href="IComponent_8hpp.html" target="_top" xlink:title=" ">
<polygon fill="white" stroke="black" points="316.5,-123.5 316.5,-142.5 413.5,-142.5 413.5,-123.5 316.5,-123.5"/>
<text text-anchor="middle" x="365" y="-130.5" font-family="Helvetica,sans-Serif" font-size="10.00">IComponent.hpp</text>
</a>
</g>
</g>
<!-- Node8&#45;&gt;Node12 -->
<g id="edge35" class="edge">
<title>Node8&#45;&gt;Node12</title>
<path fill="none" stroke="midnightblue" d="M382.33,-235.46C375.22,-226.93 365.15,-213.09 361,-199 356.51,-183.75 358.16,-165.64 360.56,-152.41"/>
<polygon fill="midnightblue" stroke="midnightblue" points="363.99,-153.13 362.63,-142.62 357.14,-151.68 363.99,-153.13"/>
</g>
<!-- Node19 -->
<g id="node19" class="node">
<title>Node19</title>
<g id="a_node19"><a xlink:href="EntityManager_8hpp.html" target="_top" xlink:title=" ">
<polygon fill="white" stroke="black" points="130,-179.5 130,-198.5 238,-198.5 238,-179.5 130,-179.5"/>
<text text-anchor="middle" x="184" y="-186.5" font-family="Helvetica,sans-Serif" font-size="10.00">EntityManager.hpp</text>
</a>
</g>
</g>
<!-- Node8&#45;&gt;Node19 -->
<g id="edge30" class="edge">
<title>Node8&#45;&gt;Node19</title>
<path fill="none" stroke="midnightblue" d="M357.36,-235.44C321.95,-226.16 265.29,-211.31 226.45,-201.13"/>
<polygon fill="midnightblue" stroke="midnightblue" points="227.05,-197.67 216.49,-198.52 225.27,-204.44 227.05,-197.67"/>
</g>
<!-- Node11&#45;&gt;Node2 -->
<g id="edge19" class="edge">
<title>Node11&#45;&gt;Node2</title>
<path fill="none" stroke="midnightblue" d="M379.6,-179.47C323.05,-171 234.95,-157.25 159,-143 158.1,-142.83 157.19,-142.66 156.28,-142.48"/>
<polygon fill="midnightblue" stroke="midnightblue" points="156.83,-139.02 146.33,-140.49 155.45,-145.89 156.83,-139.02"/>
</g>
<!-- Node11&#45;&gt;Node3 -->
<g id="edge20" class="edge">
<title>Node11&#45;&gt;Node3</title>
<path fill="none" stroke="midnightblue" d="M410.75,-179.44C381.56,-170.28 335.08,-155.69 302.69,-145.52"/>
<polygon fill="midnightblue" stroke="midnightblue" points="303.72,-142.17 293.13,-142.52 301.62,-148.85 303.72,-142.17"/>
</g>
<!-- Node11&#45;&gt;Node4 -->
<g id="edge17" class="edge">
<title>Node11&#45;&gt;Node4</title>
<path fill="none" stroke="midnightblue" d="M484.59,-179.49C526.73,-171.54 590.68,-158.87 654.83,-143.15"/>
<polygon fill="midnightblue" stroke="midnightblue" points="655.84,-146.5 664.71,-140.7 654.16,-139.71 655.84,-146.5"/>
</g>
<!-- Node11&#45;&gt;Node5 -->
<g id="edge16" class="edge">
<title>Node11&#45;&gt;Node5</title>
<path fill="none" stroke="midnightblue" d="M463.67,-179.44C490.92,-170.36 534.18,-155.94 564.65,-145.78"/>
<polygon fill="midnightblue" stroke="midnightblue" points="566.07,-149 574.45,-142.52 563.86,-142.36 566.07,-149"/>
</g>
<!-- Node11&#45;&gt;Node7 -->
<g id="edge18" class="edge">
<title>Node11&#45;&gt;Node7</title>
<path fill="none" stroke="midnightblue" d="M449.89,-179.32C461.15,-171.11 478.29,-158.6 491.71,-148.81"/>
<polygon fill="midnightblue" stroke="midnightblue" points="493.88,-151.56 499.89,-142.83 489.75,-145.9 493.88,-151.56"/>
</g>
<!-- Node11&#45;&gt;Node10 -->
<g id="edge21" class="edge">
<title>Node11&#45;&gt;Node10</title>
<path fill="none" stroke="midnightblue" d="M491.42,-179.46C545.63,-170.79 632.24,-156.9 717.29,-143.11"/>
<polygon fill="midnightblue" stroke="midnightblue" points="718.07,-146.53 727.38,-141.47 716.95,-139.62 718.07,-146.53"/>
</g>
<!-- Node11&#45;&gt;Node12 -->
<g id="edge22" class="edge">
<title>Node11&#45;&gt;Node12</title>
<path fill="none" stroke="midnightblue" d="M426.27,-179.32C415.16,-171.11 398.26,-158.6 385.02,-148.81"/>
<polygon fill="midnightblue" stroke="midnightblue" points="387.06,-145.97 376.94,-142.83 382.9,-151.59 387.06,-145.97"/>
</g>
<!-- Node18 -->
<g id="node18" class="node">
<title>Node18</title>
<g id="a_node18"><a xlink:title=" ">
<polygon fill="white" stroke="#bfbfbf" points="432,-123.5 432,-142.5 470,-142.5 470,-123.5 432,-123.5"/>
<text text-anchor="middle" x="451" y="-130.5" font-family="Helvetica,sans-Serif" font-size="10.00">map</text>
</a>
</g>
</g>
<!-- Node11&#45;&gt;Node18 -->
<g id="edge29" class="edge">
<title>Node11&#45;&gt;Node18</title>
<path fill="none" stroke="midnightblue" d="M440.15,-179.08C441.87,-171.93 444.35,-161.64 446.5,-152.69"/>
<polygon fill="midnightblue" stroke="midnightblue" points="449.96,-153.29 448.89,-142.75 443.15,-151.65 449.96,-153.29"/>
</g>
<!-- Node13 -->
<g id="node13" class="node">
<title>Node13</title>
<g id="a_node13"><a xlink:title=" ">
<polygon fill="white" stroke="#bfbfbf" points="281.5,-6 281.5,-25 338.5,-25 338.5,-6 281.5,-6"/>
<text text-anchor="middle" x="310" y="-13" font-family="Helvetica,sans-Serif" font-size="10.00">ostream</text>
</a>
</g>
</g>
<!-- Node12&#45;&gt;Node13 -->
<g id="edge23" class="edge">
<title>Node12&#45;&gt;Node13</title>
<path fill="none" stroke="midnightblue" d="M360.87,-123.32C351.91,-104.51 330.55,-59.65 318.55,-34.46"/>
<polygon fill="midnightblue" stroke="midnightblue" points="321.64,-32.81 314.18,-25.28 315.32,-35.82 321.64,-32.81"/>
</g>
<!-- Node14 -->
<g id="node14" class="node">
<title>Node14</title>
<g id="a_node14"><a xlink:href="IXMLSerializable_8hpp.html" target="_top" xlink:title=" ">
<polygon fill="white" stroke="black" points="353.5,-67.5 353.5,-86.5 472.5,-86.5 472.5,-67.5 353.5,-67.5"/>
<text text-anchor="middle" x="413" y="-74.5" font-family="Helvetica,sans-Serif" font-size="10.00">IXMLSerializable.hpp</text>
</a>
</g>
</g>
<!-- Node12&#45;&gt;Node14 -->
<g id="edge24" class="edge">
<title>Node12&#45;&gt;Node14</title>
<path fill="none" stroke="midnightblue" d="M372.93,-123.08C379.85,-115.3 390.07,-103.8 398.45,-94.37"/>
<polygon fill="midnightblue" stroke="midnightblue" points="401.19,-96.55 405.22,-86.75 395.96,-91.9 401.19,-96.55"/>
</g>
<!-- Node14&#45;&gt;Node13 -->
<g id="edge25" class="edge">
<title>Node14&#45;&gt;Node13</title>
<path fill="none" stroke="midnightblue" d="M398.24,-67.48C381.34,-57.71 353.42,-41.58 333.51,-30.08"/>
<polygon fill="midnightblue" stroke="midnightblue" points="335.14,-26.98 324.73,-25.01 331.64,-33.04 335.14,-26.98"/>
</g>
<!-- Node15 -->
<g id="node15" class="node">
<title>Node15</title>
<g id="a_node15"><a xlink:title=" ">
<polygon fill="white" stroke="#bfbfbf" points="619,-6 619,-25 679,-25 679,-6 619,-6"/>
<text text-anchor="middle" x="649" y="-13" font-family="Helvetica,sans-Serif" font-size="10.00">iostream</text>
</a>
</g>
</g>
<!-- Node14&#45;&gt;Node15 -->
<g id="edge26" class="edge">
<title>Node14&#45;&gt;Node15</title>
<path fill="none" stroke="midnightblue" d="M458.03,-67.47C498.25,-59.44 558.57,-46.36 610,-31 612.57,-30.23 615.22,-29.38 617.86,-28.49"/>
<polygon fill="midnightblue" stroke="midnightblue" points="619.05,-31.78 627.31,-25.14 616.71,-25.18 619.05,-31.78"/>
</g>
<!-- Node16 -->
<g id="node16" class="node">
<title>Node16</title>
<g id="a_node16"><a xlink:title=" ">
<polygon fill="white" stroke="#bfbfbf" points="356.5,-0.5 356.5,-30.5 469.5,-30.5 469.5,-0.5 356.5,-0.5"/>
<text text-anchor="start" x="364.5" y="-18.5" font-family="Helvetica,sans-Serif" font-size="10.00">boost/property_tree</text>
<text text-anchor="middle" x="413" y="-7.5" font-family="Helvetica,sans-Serif" font-size="10.00">/ptree.hpp</text>
</a>
</g>
</g>
<!-- Node14&#45;&gt;Node16 -->
<g id="edge27" class="edge">
<title>Node14&#45;&gt;Node16</title>
<path fill="none" stroke="midnightblue" d="M413,-67.48C413,-60.47 413,-50.19 413,-40.7"/>
<polygon fill="midnightblue" stroke="midnightblue" points="416.5,-40.52 413,-30.52 409.5,-40.52 416.5,-40.52"/>
</g>
<!-- Node17 -->
<g id="node17" class="node">
<title>Node17</title>
<g id="a_node17"><a xlink:title=" ">
<polygon fill="white" stroke="#bfbfbf" points="487.5,-0.5 487.5,-30.5 600.5,-30.5 600.5,-0.5 487.5,-0.5"/>
<text text-anchor="start" x="495.5" y="-18.5" font-family="Helvetica,sans-Serif" font-size="10.00">boost/property_tree</text>
<text text-anchor="middle" x="544" y="-7.5" font-family="Helvetica,sans-Serif" font-size="10.00">/xml_parser.hpp</text>
</a>
</g>
</g>
<!-- Node14&#45;&gt;Node17 -->
<g id="edge28" class="edge">
<title>Node14&#45;&gt;Node17</title>
<path fill="none" stroke="midnightblue" d="M431.77,-67.48C450.51,-58.96 479.89,-45.62 503.89,-34.72"/>
<polygon fill="midnightblue" stroke="midnightblue" points="505.47,-37.85 513.13,-30.52 502.57,-31.47 505.47,-37.85"/>
</g>
<!-- Node19&#45;&gt;Node2 -->
<g id="edge33" class="edge">
<title>Node19&#45;&gt;Node2</title>
<path fill="none" stroke="midnightblue" d="M173.24,-179.32C163.23,-171.26 148.11,-159.08 136.07,-149.37"/>
<polygon fill="midnightblue" stroke="midnightblue" points="137.94,-146.38 127.96,-142.83 133.55,-151.83 137.94,-146.38"/>
</g>
<!-- Node19&#45;&gt;Node7 -->
<g id="edge31" class="edge">
<title>Node19&#45;&gt;Node7</title>
<path fill="none" stroke="midnightblue" d="M238.17,-181.63C295.51,-174.47 388.78,-161.61 478.5,-142.89"/>
<polygon fill="midnightblue" stroke="midnightblue" points="479.23,-146.31 488.29,-140.82 477.78,-139.46 479.23,-146.31"/>
</g>
<!-- Node19&#45;&gt;Node9 -->
<g id="edge32" class="edge">
<title>Node19&#45;&gt;Node9</title>
<path fill="none" stroke="midnightblue" d="M159.76,-179.44C134.13,-170.4 93.51,-156.06 64.76,-145.92"/>
<polygon fill="midnightblue" stroke="midnightblue" points="65.72,-142.54 55.13,-142.52 63.39,-149.15 65.72,-142.54"/>
</g>
<!-- Node20 -->
<g id="node20" class="node">
<title>Node20</title>
<g id="a_node20"><a xlink:title=" ">
<polygon fill="white" stroke="#bfbfbf" points="168,-123.5 168,-142.5 200,-142.5 200,-123.5 168,-123.5"/>
<text text-anchor="middle" x="184" y="-130.5" font-family="Helvetica,sans-Serif" font-size="10.00">list</text>
</a>
</g>
</g>
<!-- Node19&#45;&gt;Node20 -->
<g id="edge34" class="edge">
<title>Node19&#45;&gt;Node20</title>
<path fill="none" stroke="midnightblue" d="M184,-179.08C184,-172.01 184,-161.86 184,-152.99"/>
<polygon fill="midnightblue" stroke="midnightblue" points="187.5,-152.75 184,-142.75 180.5,-152.75 187.5,-152.75"/>
</g>
</g>
</svg>
