<?xml version="1.0" encoding="UTF-8" standalone="no"?>
<!DOCTYPE svg PUBLIC "-//W3C//DTD SVG 1.1//EN"
 "http://www.w3.org/Graphics/SVG/1.1/DTD/svg11.dtd">
<!-- Generated by graphviz version 2.43.0 (0)
 -->
<!-- Title: Libs/TerrainGenerator/sources/TerrainGenerator.hpp Pages: 1 -->
<svg width="2500pt" height="496pt"
 viewBox="0.00 0.00 2500.13 496.00" xmlns="http://www.w3.org/2000/svg" xmlns:xlink="http://www.w3.org/1999/xlink">
<g id="graph0" class="graph" transform="scale(1 1) rotate(0) translate(4 492)">
<title>Libs/TerrainGenerator/sources/TerrainGenerator.hpp</title>
<polygon fill="white" stroke="transparent" points="-4,4 -4,-492 2496.13,-492 2496.13,4 -4,4"/>
<!-- Node1 -->
<g id="node1" class="node">
<title>Node1</title>
<g id="a_node1"><a xlink:title=" ">
<polygon fill="#bfbfbf" stroke="black" points="1966.63,-457.5 1966.63,-487.5 2128.63,-487.5 2128.63,-457.5 1966.63,-457.5"/>
<text text-anchor="start" x="1974.63" y="-475.5" font-family="Helvetica,sans-Serif" font-size="10.00">Libs/TerrainGenerator</text>
<text text-anchor="middle" x="2047.63" y="-464.5" font-family="Helvetica,sans-Serif" font-size="10.00">/sources/TerrainGenerator.hpp</text>
</a>
</g>
</g>
<!-- Node2 -->
<g id="node2" class="node">
<title>Node2</title>
<g id="a_node2"><a xlink:href="Bomberman_2sources_2main_8cpp.html" target="_top" xlink:title=" ">
<polygon fill="white" stroke="black" points="1785.13,-11.5 1785.13,-30.5 1950.13,-30.5 1950.13,-11.5 1785.13,-11.5"/>
<text text-anchor="middle" x="1867.63" y="-18.5" font-family="Helvetica,sans-Serif" font-size="10.00">Bomberman/sources/main.cpp</text>
</a>
</g>
</g>
<!-- Node1&#45;&gt;Node2 -->
<g id="edge1" class="edge">
<title>Node1&#45;&gt;Node2</title>
<path fill="none" stroke="midnightblue" d="M2036.53,-448.31C2010.12,-392.59 1942.3,-246.4 1896.63,-120 1884.93,-87.63 1874.31,-48.04 1869.85,-30.76"/>
<polygon fill="midnightblue" stroke="midnightblue" points="2033.37,-449.82 2040.83,-457.35 2039.7,-446.81 2033.37,-449.82"/>
</g>
<!-- Node3 -->
<g id="node3" class="node">
<title>Node3</title>
<g id="a_node3"><a xlink:href="GameConfiguration_8hpp.html" target="_top" xlink:title=" ">
<polygon fill="white" stroke="black" points="916.13,-390.5 916.13,-420.5 1149.13,-420.5 1149.13,-390.5 916.13,-390.5"/>
<text text-anchor="start" x="924.13" y="-408.5" font-family="Helvetica,sans-Serif" font-size="10.00">Libs/Engine/sources</text>
<text text-anchor="middle" x="1032.63" y="-397.5" font-family="Helvetica,sans-Serif" font-size="10.00">/GameConfiguration/GameConfiguration.hpp</text>
</a>
</g>
</g>
<!-- Node1&#45;&gt;Node3 -->
<g id="edge2" class="edge">
<title>Node1&#45;&gt;Node3</title>
<path fill="none" stroke="midnightblue" d="M1956.05,-465.64C1771.19,-453.8 1353.7,-427.06 1149.52,-413.99"/>
<polygon fill="midnightblue" stroke="midnightblue" points="1956.08,-469.14 1966.29,-466.29 1956.53,-462.16 1956.08,-469.14"/>
</g>
<!-- Node18 -->
<g id="node18" class="node">
<title>Node18</title>
<g id="a_node18"><a xlink:href="Scenes_8hpp.html" target="_top" xlink:title=" ">
<polygon fill="white" stroke="black" points="1474.13,-84 1474.13,-114 1587.13,-114 1587.13,-84 1474.13,-84"/>
<text text-anchor="start" x="1482.13" y="-102" font-family="Helvetica,sans-Serif" font-size="10.00">Libs/Engine/sources</text>
<text text-anchor="middle" x="1530.63" y="-91" font-family="Helvetica,sans-Serif" font-size="10.00">/Scenes/Scenes.hpp</text>
</a>
</g>
</g>
<!-- Node1&#45;&gt;Node18 -->
<g id="edge64" class="edge">
<title>Node1&#45;&gt;Node18</title>
<path fill="none" stroke="midnightblue" d="M2029.12,-449.43C1994.55,-408.33 1922.4,-323.19 1908.63,-312 1794.05,-218.86 1633,-143.93 1564.07,-114.03"/>
<polygon fill="midnightblue" stroke="midnightblue" points="2026.59,-451.85 2035.7,-457.26 2031.95,-447.35 2026.59,-451.85"/>
</g>
<!-- Node21 -->
<g id="node21" class="node">
<title>Node21</title>
<g id="a_node21"><a xlink:href="Prototype_2sources_2Behaviour_2main_8cpp.html" target="_top" xlink:title=" ">
<polygon fill="white" stroke="black" points="1968.13,-6 1968.13,-36 2125.13,-36 2125.13,-6 1968.13,-6"/>
<text text-anchor="start" x="1976.13" y="-24" font-family="Helvetica,sans-Serif" font-size="10.00">Prototype/sources/Behaviour</text>
<text text-anchor="middle" x="2046.63" y="-13" font-family="Helvetica,sans-Serif" font-size="10.00">/main.cpp</text>
</a>
</g>
</g>
<!-- Node1&#45;&gt;Node21 -->
<g id="edge68" class="edge">
<title>Node1&#45;&gt;Node21</title>
<path fill="none" stroke="midnightblue" d="M2067.09,-449.47C2087.8,-423.68 2117.63,-378.76 2117.63,-334 2117.63,-334 2117.63,-334 2117.63,-176 2117.63,-131.63 2118.72,-117.56 2098.63,-78 2090.28,-61.56 2075.67,-46.46 2064.06,-36.1"/>
<polygon fill="midnightblue" stroke="midnightblue" points="2064.16,-447.52 2060.47,-457.46 2069.55,-451.99 2064.16,-447.52"/>
</g>
<!-- Node36 -->
<g id="node36" class="node">
<title>Node36</title>
<g id="a_node36"><a xlink:href="TerrainGenerator_8cpp.html" target="_top" xlink:title=" ">
<polygon fill="white" stroke="black" points="2146.13,-390.5 2146.13,-420.5 2307.13,-420.5 2307.13,-390.5 2146.13,-390.5"/>
<text text-anchor="start" x="2154.13" y="-408.5" font-family="Helvetica,sans-Serif" font-size="10.00">Libs/TerrainGenerator</text>
<text text-anchor="middle" x="2226.63" y="-397.5" font-family="Helvetica,sans-Serif" font-size="10.00">/sources/TerrainGenerator.cpp</text>
</a>
</g>
</g>
<!-- Node1&#45;&gt;Node36 -->
<g id="edge65" class="edge">
<title>Node1&#45;&gt;Node36</title>
<path fill="none" stroke="midnightblue" d="M2095.95,-453.96C2124.78,-443.48 2160.91,-430.37 2187.87,-420.58"/>
<polygon fill="midnightblue" stroke="midnightblue" points="2094.68,-450.69 2086.47,-457.4 2097.07,-457.27 2094.68,-450.69"/>
</g>
<!-- Node37 -->
<g id="node37" class="node">
<title>Node37</title>
<g id="a_node37"><a xlink:href="testTerrainGenerator_8hpp.html" target="_top" xlink:title=" ">
<polygon fill="white" stroke="black" points="2325.13,-390.5 2325.13,-420.5 2492.13,-420.5 2492.13,-390.5 2325.13,-390.5"/>
<text text-anchor="start" x="2333.13" y="-408.5" font-family="Helvetica,sans-Serif" font-size="10.00">Libs/TerrainGenerator</text>
<text text-anchor="middle" x="2408.63" y="-397.5" font-family="Helvetica,sans-Serif" font-size="10.00">/tests/testTerrainGenerator.hpp</text>
</a>
</g>
</g>
<!-- Node1&#45;&gt;Node37 -->
<g id="edge66" class="edge">
<title>Node1&#45;&gt;Node37</title>
<path fill="none" stroke="midnightblue" d="M2135.67,-455.65C2195.24,-444.92 2273.22,-430.88 2330.57,-420.55"/>
<polygon fill="midnightblue" stroke="midnightblue" points="2134.74,-452.26 2125.52,-457.48 2135.98,-459.15 2134.74,-452.26"/>
</g>
<!-- Node4 -->
<g id="node4" class="node">
<title>Node4</title>
<g id="a_node4"><a xlink:href="AIAlgo_8hpp.html" target="_top" xlink:title=" ">
<polygon fill="white" stroke="black" points="500.13,-162 500.13,-192 671.13,-192 671.13,-162 500.13,-162"/>
<text text-anchor="start" x="508.13" y="-180" font-family="Helvetica,sans-Serif" font-size="10.00">Libs/Engine/sources</text>
<text text-anchor="middle" x="585.63" y="-169" font-family="Helvetica,sans-Serif" font-size="10.00">/Components/AIAlgo/AIAlgo.hpp</text>
</a>
</g>
</g>
<!-- Node3&#45;&gt;Node4 -->
<g id="edge3" class="edge">
<title>Node3&#45;&gt;Node4</title>
<path fill="none" stroke="midnightblue" d="M906.07,-391.99C858.63,-384.53 805.02,-372.7 758.63,-354 700.32,-330.5 683.44,-322.04 640.63,-276 616.85,-250.42 599.44,-212.7 591.11,-192.32"/>
<polygon fill="midnightblue" stroke="midnightblue" points="905.68,-395.47 916.09,-393.52 906.73,-388.55 905.68,-395.47"/>
</g>
<!-- Node10 -->
<g id="node10" class="node">
<title>Node10</title>
<g id="a_node10"><a xlink:href="APickUp_8hpp.html" target="_top" xlink:title=" ">
<polygon fill="white" stroke="black" points="468.13,-312.5 468.13,-353.5 593.13,-353.5 593.13,-312.5 468.13,-312.5"/>
<text text-anchor="start" x="476.13" y="-341.5" font-family="Helvetica,sans-Serif" font-size="10.00">Libs/Engine/sources</text>
<text text-anchor="start" x="476.13" y="-330.5" font-family="Helvetica,sans-Serif" font-size="10.00">/Components/APickUp</text>
<text text-anchor="middle" x="530.63" y="-319.5" font-family="Helvetica,sans-Serif" font-size="10.00">/APickUp.hpp</text>
</a>
</g>
</g>
<!-- Node3&#45;&gt;Node10 -->
<g id="edge9" class="edge">
<title>Node3&#45;&gt;Node10</title>
<path fill="none" stroke="midnightblue" d="M905.89,-393.98C821.03,-385.83 707.09,-372.74 607.63,-354 603.02,-353.13 598.27,-352.14 593.51,-351.07"/>
<polygon fill="midnightblue" stroke="midnightblue" points="905.8,-397.49 916.09,-394.95 906.46,-390.52 905.8,-397.49"/>
</g>
<!-- Node12 -->
<g id="node12" class="node">
<title>Node12</title>
<g id="a_node12"><a xlink:href="CoolDownBoost_8hpp.html" target="_top" xlink:title=" ">
<polygon fill="white" stroke="black" points="321.13,-156.5 321.13,-197.5 482.13,-197.5 482.13,-156.5 321.13,-156.5"/>
<text text-anchor="start" x="329.13" y="-185.5" font-family="Helvetica,sans-Serif" font-size="10.00">Libs/Engine/sources</text>
<text text-anchor="start" x="329.13" y="-174.5" font-family="Helvetica,sans-Serif" font-size="10.00">/Components/CoolDownBoost</text>
<text text-anchor="middle" x="401.63" y="-163.5" font-family="Helvetica,sans-Serif" font-size="10.00">/CoolDownBoost.hpp</text>
</a>
</g>
</g>
<!-- Node3&#45;&gt;Node12 -->
<g id="edge40" class="edge">
<title>Node3&#45;&gt;Node12</title>
<path fill="none" stroke="midnightblue" d="M905.61,-400.26C747.48,-393.93 493.76,-379.86 458.63,-354 408.58,-317.15 401.63,-235.46 401.22,-197.76"/>
<polygon fill="midnightblue" stroke="midnightblue" points="905.76,-403.77 915.89,-400.67 906.03,-396.78 905.76,-403.77"/>
</g>
<!-- Node13 -->
<g id="node13" class="node">
<title>Node13</title>
<g id="a_node13"><a xlink:href="RangeBoost_8hpp.html" target="_top" xlink:title=" ">
<polygon fill="white" stroke="black" points="650.13,-234.5 650.13,-275.5 793.13,-275.5 793.13,-234.5 650.13,-234.5"/>
<text text-anchor="start" x="658.13" y="-263.5" font-family="Helvetica,sans-Serif" font-size="10.00">Libs/Engine/sources</text>
<text text-anchor="start" x="658.13" y="-252.5" font-family="Helvetica,sans-Serif" font-size="10.00">/Components/RangeBoost</text>
<text text-anchor="middle" x="721.63" y="-241.5" font-family="Helvetica,sans-Serif" font-size="10.00">/RangeBoost.hpp</text>
</a>
</g>
</g>
<!-- Node3&#45;&gt;Node13 -->
<g id="edge51" class="edge">
<title>Node3&#45;&gt;Node13</title>
<path fill="none" stroke="midnightblue" d="M906.19,-390.58C872.54,-383.1 837.32,-371.62 807.63,-354 774.93,-334.59 748.11,-298.45 733.54,-275.9"/>
<polygon fill="midnightblue" stroke="midnightblue" points="905.6,-394.03 916.11,-392.68 907.05,-387.18 905.6,-394.03"/>
</g>
<!-- Node14 -->
<g id="node14" class="node">
<title>Node14</title>
<g id="a_node14"><a xlink:href="EntityFactory_8hpp.html" target="_top" xlink:title=" ">
<polygon fill="white" stroke="black" points="849.63,-162 849.63,-192 1019.63,-192 1019.63,-162 849.63,-162"/>
<text text-anchor="start" x="857.63" y="-180" font-family="Helvetica,sans-Serif" font-size="10.00">Libs/Engine/sources</text>
<text text-anchor="middle" x="934.63" y="-169" font-family="Helvetica,sans-Serif" font-size="10.00">/EntityFactory/EntityFactory.hpp</text>
</a>
</g>
</g>
<!-- Node3&#45;&gt;Node14 -->
<g id="edge53" class="edge">
<title>Node3&#45;&gt;Node14</title>
<path fill="none" stroke="midnightblue" d="M920.62,-386.54C904.16,-379.07 889.22,-368.61 878.63,-354 841.01,-302.07 896.35,-223.86 922.36,-192.13"/>
<polygon fill="midnightblue" stroke="midnightblue" points="919.32,-389.79 929.9,-390.39 922,-383.33 919.32,-389.79"/>
</g>
<!-- Node16 -->
<g id="node16" class="node">
<title>Node16</title>
<g id="a_node16"><a xlink:href="Explosion_8cpp.html" target="_top" xlink:title=" ">
<polygon fill="white" stroke="black" points="765.13,-78.5 765.13,-119.5 896.13,-119.5 896.13,-78.5 765.13,-78.5"/>
<text text-anchor="start" x="773.13" y="-107.5" font-family="Helvetica,sans-Serif" font-size="10.00">Libs/Engine/sources</text>
<text text-anchor="start" x="773.13" y="-96.5" font-family="Helvetica,sans-Serif" font-size="10.00">/Components/Explosion</text>
<text text-anchor="middle" x="830.63" y="-85.5" font-family="Helvetica,sans-Serif" font-size="10.00">/Explosion.cpp</text>
</a>
</g>
</g>
<!-- Node3&#45;&gt;Node16 -->
<g id="edge41" class="edge">
<title>Node3&#45;&gt;Node16</title>
<path fill="none" stroke="midnightblue" d="M910.05,-386.73C892.02,-379.22 875.29,-368.7 862.63,-354 803.89,-285.81 818.06,-166.57 826.54,-119.71"/>
<polygon fill="midnightblue" stroke="midnightblue" points="908.99,-390.08 919.58,-390.39 911.5,-383.54 908.99,-390.08"/>
</g>
<!-- Node3&#45;&gt;Node18 -->
<g id="edge55" class="edge">
<title>Node3&#45;&gt;Node18</title>
<path fill="none" stroke="midnightblue" d="M1049.73,-381.95C1069.65,-355.95 1100.84,-316.24 1108.63,-312 1232.8,-244.45 1305.71,-352.41 1424.63,-276 1485.7,-236.76 1516.66,-148.69 1526.79,-114.22"/>
<polygon fill="midnightblue" stroke="midnightblue" points="1046.74,-380.09 1043.45,-390.17 1052.3,-384.34 1046.74,-380.09"/>
</g>
<!-- Node19 -->
<g id="node19" class="node">
<title>Node19</title>
<g id="a_node19"><a xlink:href="ButtonCallbacks_8cpp.html" target="_top" xlink:title=" ">
<polygon fill="white" stroke="black" points="1454.63,-0.5 1454.63,-41.5 1618.63,-41.5 1618.63,-0.5 1454.63,-0.5"/>
<text text-anchor="start" x="1462.63" y="-29.5" font-family="Helvetica,sans-Serif" font-size="10.00">Libs/Engine/sources</text>
<text text-anchor="start" x="1462.63" y="-18.5" font-family="Helvetica,sans-Serif" font-size="10.00">/Components/ButtonCallbacks</text>
<text text-anchor="middle" x="1536.63" y="-7.5" font-family="Helvetica,sans-Serif" font-size="10.00">/ButtonCallbacks.cpp</text>
</a>
</g>
</g>
<!-- Node3&#45;&gt;Node19 -->
<g id="edge38" class="edge">
<title>Node3&#45;&gt;Node19</title>
<path fill="none" stroke="midnightblue" d="M1159.63,-401.52C1391.53,-395.46 1862.12,-380.01 1886.63,-354 1938.35,-299.13 1849.31,-314.74 1634.63,-120 1615.76,-102.88 1613.55,-96.11 1595.63,-78 1583.42,-65.65 1569.32,-52.24 1557.97,-41.64"/>
<polygon fill="midnightblue" stroke="midnightblue" points="1159.35,-398.03 1149.44,-401.79 1159.53,-405.03 1159.35,-398.03"/>
</g>
<!-- Node25 -->
<g id="node25" class="node">
<title>Node25</title>
<g id="a_node25"><a xlink:href="SpeedBoost_8hpp.html" target="_top" xlink:title=" ">
<polygon fill="white" stroke="black" points="226.63,-234.5 226.63,-275.5 368.63,-275.5 368.63,-234.5 226.63,-234.5"/>
<text text-anchor="start" x="234.63" y="-263.5" font-family="Helvetica,sans-Serif" font-size="10.00">Libs/Engine/sources</text>
<text text-anchor="start" x="234.63" y="-252.5" font-family="Helvetica,sans-Serif" font-size="10.00">/Components/SpeedBoost</text>
<text text-anchor="middle" x="297.63" y="-241.5" font-family="Helvetica,sans-Serif" font-size="10.00">/SpeedBoost.hpp</text>
</a>
</g>
</g>
<!-- Node3&#45;&gt;Node25 -->
<g id="edge52" class="edge">
<title>Node3&#45;&gt;Node25</title>
<path fill="none" stroke="midnightblue" d="M905.39,-405.45C743.93,-404.79 475.83,-396.93 387.63,-354 352.12,-336.71 323.89,-298.79 309.06,-275.52"/>
<polygon fill="midnightblue" stroke="midnightblue" points="905.85,-408.95 915.87,-405.48 905.88,-401.95 905.85,-408.95"/>
</g>
<!-- Node26 -->
<g id="node26" class="node">
<title>Node26</title>
<g id="a_node26"><a xlink:href="Camera_8cpp.html" target="_top" xlink:title=" ">
<polygon fill="white" stroke="black" points="1117.63,-318 1117.63,-348 1301.63,-348 1301.63,-318 1117.63,-318"/>
<text text-anchor="start" x="1125.63" y="-336" font-family="Helvetica,sans-Serif" font-size="10.00">Libs/Engine/sources</text>
<text text-anchor="middle" x="1209.63" y="-325" font-family="Helvetica,sans-Serif" font-size="10.00">/Components/Camera/Camera.cpp</text>
</a>
</g>
</g>
<!-- Node3&#45;&gt;Node26 -->
<g id="edge39" class="edge">
<title>Node3&#45;&gt;Node26</title>
<path fill="none" stroke="midnightblue" d="M1077.43,-386.65C1107.47,-374.69 1146.46,-359.16 1174.3,-348.07"/>
<polygon fill="midnightblue" stroke="midnightblue" points="1076.02,-383.45 1068.02,-390.4 1078.61,-389.95 1076.02,-383.45"/>
</g>
<!-- Node27 -->
<g id="node27" class="node">
<title>Node27</title>
<g id="a_node27"><a xlink:href="GameConfigurator_8hpp.html" target="_top" xlink:title=" ">
<polygon fill="white" stroke="black" points="888.13,-312.5 888.13,-353.5 1061.13,-353.5 1061.13,-312.5 888.13,-312.5"/>
<text text-anchor="start" x="896.13" y="-341.5" font-family="Helvetica,sans-Serif" font-size="10.00">Libs/Engine/sources</text>
<text text-anchor="start" x="896.13" y="-330.5" font-family="Helvetica,sans-Serif" font-size="10.00">/Components/GameConfigurator</text>
<text text-anchor="middle" x="974.63" y="-319.5" font-family="Helvetica,sans-Serif" font-size="10.00">/GameConfigurator.hpp</text>
</a>
</g>
</g>
<!-- Node3&#45;&gt;Node27 -->
<g id="edge42" class="edge">
<title>Node3&#45;&gt;Node27</title>
<path fill="none" stroke="midnightblue" d="M1014.33,-382.26C1006.77,-373.06 998.07,-362.49 990.75,-353.59"/>
<polygon fill="midnightblue" stroke="midnightblue" points="1011.84,-384.73 1020.89,-390.23 1017.24,-380.29 1011.84,-384.73"/>
</g>
<!-- Node30 -->
<g id="node30" class="node">
<title>Node30</title>
<g id="a_node30"><a xlink:href="GameConfiguration_8cpp.html" target="_top" xlink:title=" ">
<polygon fill="white" stroke="black" points="1319.63,-318 1319.63,-348 1551.63,-348 1551.63,-318 1319.63,-318"/>
<text text-anchor="start" x="1327.63" y="-336" font-family="Helvetica,sans-Serif" font-size="10.00">Libs/Engine/sources</text>
<text text-anchor="middle" x="1435.63" y="-325" font-family="Helvetica,sans-Serif" font-size="10.00">/GameConfiguration/GameConfiguration.cpp</text>
</a>
</g>
</g>
<!-- Node3&#45;&gt;Node30 -->
<g id="edge54" class="edge">
<title>Node3&#45;&gt;Node30</title>
<path fill="none" stroke="midnightblue" d="M1122.83,-388.72C1192.57,-376.52 1288.22,-359.79 1355.34,-348.05"/>
<polygon fill="midnightblue" stroke="midnightblue" points="1121.98,-385.32 1112.73,-390.49 1123.19,-392.21 1121.98,-385.32"/>
</g>
<!-- Node31 -->
<g id="node31" class="node">
<title>Node31</title>
<g id="a_node31"><a xlink:href="BehaviourSystem_8cpp.html" target="_top" xlink:title=" ">
<polygon fill="white" stroke="black" points="1570.13,-312.5 1570.13,-353.5 1721.13,-353.5 1721.13,-312.5 1570.13,-312.5"/>
<text text-anchor="start" x="1578.13" y="-341.5" font-family="Helvetica,sans-Serif" font-size="10.00">Libs/Engine/sources</text>
<text text-anchor="start" x="1578.13" y="-330.5" font-family="Helvetica,sans-Serif" font-size="10.00">/Systems/BehaviourSystem</text>
<text text-anchor="middle" x="1645.63" y="-319.5" font-family="Helvetica,sans-Serif" font-size="10.00">/BehaviourSystem.cpp</text>
</a>
</g>
</g>
<!-- Node3&#45;&gt;Node31 -->
<g id="edge56" class="edge">
<title>Node3&#45;&gt;Node31</title>
<path fill="none" stroke="midnightblue" d="M1159.58,-397.21C1266.93,-389.89 1424.53,-376.41 1560.63,-354 1563.62,-353.51 1566.67,-352.97 1569.73,-352.4"/>
<polygon fill="midnightblue" stroke="midnightblue" points="1159.1,-393.73 1149.35,-397.9 1159.57,-400.72 1159.1,-393.73"/>
</g>
<!-- Node32 -->
<g id="node32" class="node">
<title>Node32</title>
<g id="a_node32"><a xlink:href="PhysicsSystem_8cpp.html" target="_top" xlink:title=" ">
<polygon fill="white" stroke="black" points="1739.63,-312.5 1739.63,-353.5 1877.63,-353.5 1877.63,-312.5 1739.63,-312.5"/>
<text text-anchor="start" x="1747.63" y="-341.5" font-family="Helvetica,sans-Serif" font-size="10.00">Libs/Engine/sources</text>
<text text-anchor="start" x="1747.63" y="-330.5" font-family="Helvetica,sans-Serif" font-size="10.00">/Systems/PhysicsSystem</text>
<text text-anchor="middle" x="1808.63" y="-319.5" font-family="Helvetica,sans-Serif" font-size="10.00">/PhysicsSystem.cpp</text>
</a>
</g>
</g>
<!-- Node3&#45;&gt;Node32 -->
<g id="edge57" class="edge">
<title>Node3&#45;&gt;Node32</title>
<path fill="none" stroke="midnightblue" d="M1159.64,-401.98C1299.94,-397.65 1532.16,-385.9 1729.63,-354 1732.84,-353.48 1736.12,-352.89 1739.41,-352.26"/>
<polygon fill="midnightblue" stroke="midnightblue" points="1159.17,-398.5 1149.28,-402.3 1159.38,-405.49 1159.17,-398.5"/>
</g>
<!-- Node33 -->
<g id="node33" class="node">
<title>Node33</title>
<g id="a_node33"><a xlink:href="UISystem_8hpp.html" target="_top" xlink:title=" ">
<polygon fill="white" stroke="black" points="1906.13,-84 1906.13,-114 2089.13,-114 2089.13,-84 1906.13,-84"/>
<text text-anchor="start" x="1914.13" y="-102" font-family="Helvetica,sans-Serif" font-size="10.00">Libs/Engine/sources</text>
<text text-anchor="middle" x="1997.63" y="-91" font-family="Helvetica,sans-Serif" font-size="10.00">/Systems/UISystem/UISystem.hpp</text>
</a>
</g>
</g>
<!-- Node3&#45;&gt;Node33 -->
<g id="edge58" class="edge">
<title>Node3&#45;&gt;Node33</title>
<path fill="none" stroke="midnightblue" d="M1159.34,-405.17C1390.25,-405.26 1861.28,-399.74 1919.63,-354 1996.78,-293.52 1999.59,-158.43 1998.32,-114.27"/>
<polygon fill="midnightblue" stroke="midnightblue" points="1159.2,-401.67 1149.2,-405.17 1159.2,-408.67 1159.2,-401.67"/>
</g>
<!-- Node5 -->
<g id="node5" class="node">
<title>Node5</title>
<g id="a_node5"><a xlink:href="AIAlgo_8cpp.html" target="_top" xlink:title=" ">
<polygon fill="white" stroke="black" points="236.63,-84 236.63,-114 406.63,-114 406.63,-84 236.63,-84"/>
<text text-anchor="start" x="244.63" y="-102" font-family="Helvetica,sans-Serif" font-size="10.00">Libs/Engine/sources</text>
<text text-anchor="middle" x="321.63" y="-91" font-family="Helvetica,sans-Serif" font-size="10.00">/Components/AIAlgo/AIAlgo.cpp</text>
</a>
</g>
</g>
<!-- Node4&#45;&gt;Node5 -->
<g id="edge4" class="edge">
<title>Node4&#45;&gt;Node5</title>
<path fill="none" stroke="midnightblue" d="M527.16,-159.17C480.13,-145.63 414.81,-126.82 370.52,-114.07"/>
<polygon fill="midnightblue" stroke="midnightblue" points="526.32,-162.57 536.9,-161.97 528.26,-155.84 526.32,-162.57"/>
</g>
<!-- Node6 -->
<g id="node6" class="node">
<title>Node6</title>
<g id="a_node6"><a xlink:href="CoolDownBoost_8cpp.html" target="_top" xlink:title=" ">
<polygon fill="white" stroke="black" points="425.13,-78.5 425.13,-119.5 586.13,-119.5 586.13,-78.5 425.13,-78.5"/>
<text text-anchor="start" x="433.13" y="-107.5" font-family="Helvetica,sans-Serif" font-size="10.00">Libs/Engine/sources</text>
<text text-anchor="start" x="433.13" y="-96.5" font-family="Helvetica,sans-Serif" font-size="10.00">/Components/CoolDownBoost</text>
<text text-anchor="middle" x="505.63" y="-85.5" font-family="Helvetica,sans-Serif" font-size="10.00">/CoolDownBoost.cpp</text>
</a>
</g>
</g>
<!-- Node4&#45;&gt;Node6 -->
<g id="edge5" class="edge">
<title>Node4&#45;&gt;Node6</title>
<path fill="none" stroke="midnightblue" d="M563.05,-154.55C551.52,-143.6 537.6,-130.37 526.35,-119.68"/>
<polygon fill="midnightblue" stroke="midnightblue" points="560.92,-157.35 570.58,-161.7 565.74,-152.28 560.92,-157.35"/>
</g>
<!-- Node7 -->
<g id="node7" class="node">
<title>Node7</title>
<g id="a_node7"><a xlink:href="RangeBoost_8cpp.html" target="_top" xlink:title=" ">
<polygon fill="white" stroke="black" points="604.13,-78.5 604.13,-119.5 747.13,-119.5 747.13,-78.5 604.13,-78.5"/>
<text text-anchor="start" x="612.13" y="-107.5" font-family="Helvetica,sans-Serif" font-size="10.00">Libs/Engine/sources</text>
<text text-anchor="start" x="612.13" y="-96.5" font-family="Helvetica,sans-Serif" font-size="10.00">/Components/RangeBoost</text>
<text text-anchor="middle" x="675.63" y="-85.5" font-family="Helvetica,sans-Serif" font-size="10.00">/RangeBoost.cpp</text>
</a>
</g>
</g>
<!-- Node4&#45;&gt;Node7 -->
<g id="edge6" class="edge">
<title>Node4&#45;&gt;Node7</title>
<path fill="none" stroke="midnightblue" d="M610.29,-155.18C623.4,-144.11 639.43,-130.57 652.33,-119.68"/>
<polygon fill="midnightblue" stroke="midnightblue" points="607.94,-152.58 602.56,-161.7 612.46,-157.93 607.94,-152.58"/>
</g>
<!-- Node8 -->
<g id="node8" class="node">
<title>Node8</title>
<g id="a_node8"><a xlink:href="SpeedBoost_8cpp.html" target="_top" xlink:title=" ">
<polygon fill="white" stroke="black" points="38.63,-78.5 38.63,-119.5 180.63,-119.5 180.63,-78.5 38.63,-78.5"/>
<text text-anchor="start" x="46.63" y="-107.5" font-family="Helvetica,sans-Serif" font-size="10.00">Libs/Engine/sources</text>
<text text-anchor="start" x="46.63" y="-96.5" font-family="Helvetica,sans-Serif" font-size="10.00">/Components/SpeedBoost</text>
<text text-anchor="middle" x="109.63" y="-85.5" font-family="Helvetica,sans-Serif" font-size="10.00">/SpeedBoost.cpp</text>
</a>
</g>
</g>
<!-- Node4&#45;&gt;Node8 -->
<g id="edge7" class="edge">
<title>Node4&#45;&gt;Node8</title>
<path fill="none" stroke="midnightblue" d="M513.04,-160.04C505.49,-158.59 497.92,-157.21 490.63,-156 359.89,-134.33 325.11,-143.21 194.63,-120 190.15,-119.2 185.56,-118.32 180.93,-117.38"/>
<polygon fill="midnightblue" stroke="midnightblue" points="512.43,-163.49 522.92,-162 513.79,-156.63 512.43,-163.49"/>
</g>
<!-- Node9 -->
<g id="node9" class="node">
<title>Node9</title>
<g id="a_node9"><a xlink:href="EntityFactory_8cpp.html" target="_top" xlink:title=" ">
<polygon fill="white" stroke="black" points="482.13,-6 482.13,-36 651.13,-36 651.13,-6 482.13,-6"/>
<text text-anchor="start" x="490.13" y="-24" font-family="Helvetica,sans-Serif" font-size="10.00">Libs/Engine/sources</text>
<text text-anchor="middle" x="566.63" y="-13" font-family="Helvetica,sans-Serif" font-size="10.00">/EntityFactory/EntityFactory.cpp</text>
</a>
</g>
</g>
<!-- Node4&#45;&gt;Node9 -->
<g id="edge8" class="edge">
<title>Node4&#45;&gt;Node9</title>
<path fill="none" stroke="midnightblue" d="M512.23,-160C504.95,-158.58 497.65,-157.22 490.63,-156 432.51,-145.92 266.41,-164.45 227.63,-120 215.36,-105.93 215.56,-92.23 227.63,-78 259.61,-40.3 392.29,-27.94 481.87,-23.92"/>
<polygon fill="midnightblue" stroke="midnightblue" points="511.64,-163.45 522.13,-161.98 513.01,-156.59 511.64,-163.45"/>
</g>
<!-- Node11 -->
<g id="node11" class="node">
<title>Node11</title>
<g id="a_node11"><a xlink:href="APickUp_8cpp.html" target="_top" xlink:title=" ">
<polygon fill="white" stroke="black" points="468.13,-234.5 468.13,-275.5 593.13,-275.5 593.13,-234.5 468.13,-234.5"/>
<text text-anchor="start" x="476.13" y="-263.5" font-family="Helvetica,sans-Serif" font-size="10.00">Libs/Engine/sources</text>
<text text-anchor="start" x="476.13" y="-252.5" font-family="Helvetica,sans-Serif" font-size="10.00">/Components/APickUp</text>
<text text-anchor="middle" x="530.63" y="-241.5" font-family="Helvetica,sans-Serif" font-size="10.00">/APickUp.cpp</text>
</a>
</g>
</g>
<!-- Node10&#45;&gt;Node11 -->
<g id="edge10" class="edge">
<title>Node10&#45;&gt;Node11</title>
<path fill="none" stroke="midnightblue" d="M530.63,-302.3C530.63,-293.3 530.63,-283.65 530.63,-275.51"/>
<polygon fill="midnightblue" stroke="midnightblue" points="527.13,-302.43 530.63,-312.43 534.13,-302.43 527.13,-302.43"/>
</g>
<!-- Node10&#45;&gt;Node12 -->
<g id="edge11" class="edge">
<title>Node10&#45;&gt;Node12</title>
<path fill="none" stroke="midnightblue" d="M492.15,-306.39C480.57,-297.59 468.36,-287.13 458.63,-276 437.52,-251.84 420.18,-218.72 410.37,-197.84"/>
<polygon fill="midnightblue" stroke="midnightblue" points="490.3,-309.37 500.43,-312.48 494.45,-303.74 490.3,-309.37"/>
</g>
<!-- Node10&#45;&gt;Node13 -->
<g id="edge14" class="edge">
<title>Node10&#45;&gt;Node13</title>
<path fill="none" stroke="midnightblue" d="M589.42,-308.61C616.08,-298 647.24,-285.6 672.61,-275.51"/>
<polygon fill="midnightblue" stroke="midnightblue" points="587.82,-305.48 579.82,-312.43 590.4,-311.98 587.82,-305.48"/>
</g>
<!-- Node10&#45;&gt;Node25 -->
<g id="edge35" class="edge">
<title>Node10&#45;&gt;Node25</title>
<path fill="none" stroke="midnightblue" d="M461.05,-309.3C428.07,-298.55 389.06,-285.82 357.43,-275.51"/>
<polygon fill="midnightblue" stroke="midnightblue" points="460.04,-312.65 470.63,-312.43 462.21,-306 460.04,-312.65"/>
</g>
<!-- Node12&#45;&gt;Node6 -->
<g id="edge12" class="edge">
<title>Node12&#45;&gt;Node6</title>
<path fill="none" stroke="midnightblue" d="M436.73,-150.35C450.52,-140.27 466.09,-128.89 478.94,-119.51"/>
<polygon fill="midnightblue" stroke="midnightblue" points="434.42,-147.7 428.41,-156.43 438.55,-153.35 434.42,-147.7"/>
</g>
<!-- Node12&#45;&gt;Node9 -->
<g id="edge13" class="edge">
<title>Node12&#45;&gt;Node9</title>
<path fill="none" stroke="midnightblue" d="M310.64,-175.38C212.4,-172.55 65.17,-161.29 29.63,-120 17.45,-105.85 17.14,-91.87 29.63,-78 59.3,-45.08 338.22,-30.24 481.91,-24.73"/>
<polygon fill="midnightblue" stroke="midnightblue" points="310.79,-178.89 320.87,-175.65 310.97,-171.89 310.79,-178.89"/>
</g>
<!-- Node13&#45;&gt;Node7 -->
<g id="edge15" class="edge">
<title>Node13&#45;&gt;Node7</title>
<path fill="none" stroke="midnightblue" d="M712.9,-224.77C703.71,-194.02 689.51,-146.47 681.56,-119.83"/>
<polygon fill="midnightblue" stroke="midnightblue" points="709.59,-225.92 715.81,-234.5 716.3,-223.91 709.59,-225.92"/>
</g>
<!-- Node13&#45;&gt;Node14 -->
<g id="edge16" class="edge">
<title>Node13&#45;&gt;Node14</title>
<path fill="none" stroke="midnightblue" d="M786.28,-230.93C821.75,-218.28 864.59,-202.99 895.1,-192.11"/>
<polygon fill="midnightblue" stroke="midnightblue" points="784.73,-227.77 776.48,-234.43 787.08,-234.36 784.73,-227.77"/>
</g>
<!-- Node14&#45;&gt;Node6 -->
<g id="edge18" class="edge">
<title>Node14&#45;&gt;Node6</title>
<path fill="none" stroke="midnightblue" d="M839.62,-161.86C771.29,-151.32 677.05,-136.03 594.63,-120 591.99,-119.49 589.3,-118.95 586.6,-118.4"/>
<polygon fill="midnightblue" stroke="midnightblue" points="839.09,-165.32 849.5,-163.38 840.15,-158.4 839.09,-165.32"/>
</g>
<!-- Node14&#45;&gt;Node7 -->
<g id="edge20" class="edge">
<title>Node14&#45;&gt;Node7</title>
<path fill="none" stroke="midnightblue" d="M876.98,-159.08C837.09,-147.38 783.89,-131.77 742.19,-119.53"/>
<polygon fill="midnightblue" stroke="midnightblue" points="876.24,-162.51 886.83,-161.97 878.22,-155.8 876.24,-162.51"/>
</g>
<!-- Node14&#45;&gt;Node8 -->
<g id="edge21" class="edge">
<title>Node14&#45;&gt;Node8</title>
<path fill="none" stroke="midnightblue" d="M839.34,-168.51C648.12,-153.46 235.14,-120.93 227.63,-120 212.48,-118.12 196.3,-115.67 180.93,-113.13"/>
<polygon fill="midnightblue" stroke="midnightblue" points="839.14,-172 849.39,-169.3 839.69,-165.02 839.14,-172"/>
</g>
<!-- Node14&#45;&gt;Node9 -->
<g id="edge22" class="edge">
<title>Node14&#45;&gt;Node9</title>
<path fill="none" stroke="midnightblue" d="M934.08,-151.74C932.2,-129.2 925.69,-96.43 904.63,-78 867.82,-45.78 738.75,-31.84 651.19,-26"/>
<polygon fill="midnightblue" stroke="midnightblue" points="930.6,-152.09 934.68,-161.87 937.59,-151.68 930.6,-152.09"/>
</g>
<!-- Node15 -->
<g id="node15" class="node">
<title>Node15</title>
<g id="a_node15"><a xlink:href="Box_8cpp.html" target="_top" xlink:title=" ">
<polygon fill="white" stroke="black" points="991.13,-84 991.13,-114 1136.13,-114 1136.13,-84 991.13,-84"/>
<text text-anchor="start" x="999.13" y="-102" font-family="Helvetica,sans-Serif" font-size="10.00">Libs/Engine/sources</text>
<text text-anchor="middle" x="1063.63" y="-91" font-family="Helvetica,sans-Serif" font-size="10.00">/Components/Box/Box.cpp</text>
</a>
</g>
</g>
<!-- Node14&#45;&gt;Node15 -->
<g id="edge17" class="edge">
<title>Node14&#45;&gt;Node15</title>
<path fill="none" stroke="midnightblue" d="M967.49,-156.64C990.04,-143.35 1019.47,-126.02 1039.8,-114.04"/>
<polygon fill="midnightblue" stroke="midnightblue" points="965.43,-153.79 958.59,-161.88 968.99,-159.82 965.43,-153.79"/>
</g>
<!-- Node14&#45;&gt;Node16 -->
<g id="edge19" class="edge">
<title>Node14&#45;&gt;Node16</title>
<path fill="none" stroke="midnightblue" d="M906.99,-155.8C891.69,-144.62 872.75,-130.78 857.56,-119.68"/>
<polygon fill="midnightblue" stroke="midnightblue" points="904.93,-158.63 915.07,-161.7 909.06,-152.98 904.93,-158.63"/>
</g>
<!-- Node17 -->
<g id="node17" class="node">
<title>Node17</title>
<g id="a_node17"><a xlink:href="Scenes_8cpp.html" target="_top" xlink:title=" ">
<polygon fill="white" stroke="black" points="1132.13,-6 1132.13,-36 1245.13,-36 1245.13,-6 1132.13,-6"/>
<text text-anchor="start" x="1140.13" y="-24" font-family="Helvetica,sans-Serif" font-size="10.00">Libs/Engine/sources</text>
<text text-anchor="middle" x="1188.63" y="-13" font-family="Helvetica,sans-Serif" font-size="10.00">/Scenes/Scenes.cpp</text>
</a>
</g>
</g>
<!-- Node14&#45;&gt;Node17 -->
<g id="edge23" class="edge">
<title>Node14&#45;&gt;Node17</title>
<path fill="none" stroke="midnightblue" d="M940.05,-151.92C946.32,-129.56 958.84,-96.96 981.63,-78 1023.99,-42.76 1086.56,-29.55 1131.81,-24.68"/>
<polygon fill="midnightblue" stroke="midnightblue" points="936.64,-151.12 937.52,-161.67 943.42,-152.87 936.64,-151.12"/>
</g>
<!-- Node14&#45;&gt;Node18 -->
<g id="edge24" class="edge">
<title>Node14&#45;&gt;Node18</title>
<path fill="none" stroke="midnightblue" d="M1029.69,-163.88C1155.03,-147.9 1371.63,-120.28 1473.96,-107.23"/>
<polygon fill="midnightblue" stroke="midnightblue" points="1029.18,-160.41 1019.71,-165.15 1030.07,-167.36 1029.18,-160.41"/>
</g>
<!-- Node22 -->
<g id="node22" class="node">
<title>Node22</title>
<g id="a_node22"><a xlink:href="PauseSystem_8hpp.html" target="_top" xlink:title=" ">
<polygon fill="white" stroke="black" points="1643.63,-78.5 1643.63,-119.5 1773.63,-119.5 1773.63,-78.5 1643.63,-78.5"/>
<text text-anchor="start" x="1651.63" y="-107.5" font-family="Helvetica,sans-Serif" font-size="10.00">Libs/Engine/sources</text>
<text text-anchor="start" x="1651.63" y="-96.5" font-family="Helvetica,sans-Serif" font-size="10.00">/Systems/PauseSystem</text>
<text text-anchor="middle" x="1708.63" y="-85.5" font-family="Helvetica,sans-Serif" font-size="10.00">/PauseSystem.hpp</text>
</a>
</g>
</g>
<!-- Node14&#45;&gt;Node22 -->
<g id="edge31" class="edge">
<title>Node14&#45;&gt;Node22</title>
<path fill="none" stroke="midnightblue" d="M1029.89,-170.65C1158.61,-162.8 1395.08,-146.19 1595.63,-120 1611.14,-117.97 1627.76,-115.31 1643.36,-112.59"/>
<polygon fill="midnightblue" stroke="midnightblue" points="1029.44,-167.17 1019.67,-171.27 1029.87,-174.16 1029.44,-167.17"/>
</g>
<!-- Node24 -->
<g id="node24" class="node">
<title>Node24</title>
<g id="a_node24"><a xlink:href="Prototype_2sources_2Drawable_2main_8cpp.html" target="_top" xlink:title=" ">
<polygon fill="white" stroke="black" points="1154.63,-84 1154.63,-114 1308.63,-114 1308.63,-84 1154.63,-84"/>
<text text-anchor="start" x="1162.63" y="-102" font-family="Helvetica,sans-Serif" font-size="10.00">Prototype/sources/Drawable</text>
<text text-anchor="middle" x="1231.63" y="-91" font-family="Helvetica,sans-Serif" font-size="10.00">/main.cpp</text>
</a>
</g>
</g>
<!-- Node14&#45;&gt;Node24 -->
<g id="edge34" class="edge">
<title>Node14&#45;&gt;Node24</title>
<path fill="none" stroke="midnightblue" d="M999.44,-159.42C1052.51,-145.84 1126.75,-126.84 1176.88,-114.01"/>
<polygon fill="midnightblue" stroke="midnightblue" points="998.27,-156.1 989.45,-161.97 1000.01,-162.88 998.27,-156.1"/>
</g>
<!-- Node18&#45;&gt;Node2 -->
<g id="edge25" class="edge">
<title>Node18&#45;&gt;Node2</title>
<path fill="none" stroke="midnightblue" d="M1597.39,-82.95C1666.84,-67.28 1773.16,-43.31 1829.5,-30.6"/>
<polygon fill="midnightblue" stroke="midnightblue" points="1596.4,-79.58 1587.42,-85.19 1597.94,-86.41 1596.4,-79.58"/>
</g>
<!-- Node18&#45;&gt;Node9 -->
<g id="edge28" class="edge">
<title>Node18&#45;&gt;Node9</title>
<path fill="none" stroke="midnightblue" d="M1463.61,-91.37C1421.68,-87.31 1366.53,-82.12 1317.63,-78 1075.96,-57.65 790.2,-37.39 651.14,-27.77"/>
<polygon fill="midnightblue" stroke="midnightblue" points="1463.41,-94.87 1473.7,-92.36 1464.09,-87.9 1463.41,-94.87"/>
</g>
<!-- Node18&#45;&gt;Node17 -->
<g id="edge29" class="edge">
<title>Node18&#45;&gt;Node17</title>
<path fill="none" stroke="midnightblue" d="M1464.17,-86.47C1407.79,-76.24 1324.95,-60.13 1253.63,-42 1246.65,-40.23 1239.31,-38.16 1232.17,-36.05"/>
<polygon fill="midnightblue" stroke="midnightblue" points="1463.56,-89.92 1474.03,-88.25 1464.81,-83.03 1463.56,-89.92"/>
</g>
<!-- Node18&#45;&gt;Node19 -->
<g id="edge26" class="edge">
<title>Node18&#45;&gt;Node19</title>
<path fill="none" stroke="midnightblue" d="M1532.55,-73.66C1533.37,-63.33 1534.31,-51.44 1535.08,-41.68"/>
<polygon fill="midnightblue" stroke="midnightblue" points="1529.06,-73.46 1531.76,-83.7 1536.04,-74.01 1529.06,-73.46"/>
</g>
<!-- Node20 -->
<g id="node20" class="node">
<title>Node20</title>
<g id="a_node20"><a xlink:href="GameConfigurator_8cpp.html" target="_top" xlink:title=" ">
<polygon fill="white" stroke="black" points="1263.13,-0.5 1263.13,-41.5 1436.13,-41.5 1436.13,-0.5 1263.13,-0.5"/>
<text text-anchor="start" x="1271.13" y="-29.5" font-family="Helvetica,sans-Serif" font-size="10.00">Libs/Engine/sources</text>
<text text-anchor="start" x="1271.13" y="-18.5" font-family="Helvetica,sans-Serif" font-size="10.00">/Components/GameConfigurator</text>
<text text-anchor="middle" x="1349.63" y="-7.5" font-family="Helvetica,sans-Serif" font-size="10.00">/GameConfigurator.cpp</text>
</a>
</g>
</g>
<!-- Node18&#45;&gt;Node20 -->
<g id="edge27" class="edge">
<title>Node18&#45;&gt;Node20</title>
<path fill="none" stroke="midnightblue" d="M1487.66,-79.96C1460.19,-68.42 1424.56,-53.46 1396.38,-41.63"/>
<polygon fill="midnightblue" stroke="midnightblue" points="1486.44,-83.24 1497.01,-83.88 1489.15,-76.78 1486.44,-83.24"/>
</g>
<!-- Node18&#45;&gt;Node21 -->
<g id="edge30" class="edge">
<title>Node18&#45;&gt;Node21</title>
<path fill="none" stroke="midnightblue" d="M1597.03,-84.42C1609.5,-82.1 1622.44,-79.85 1634.63,-78 1777.88,-56.3 1815.76,-66.09 1958.63,-42 1968.52,-40.33 1978.96,-38.25 1989.07,-36.06"/>
<polygon fill="midnightblue" stroke="midnightblue" points="1596.34,-80.99 1587.17,-86.28 1597.64,-87.86 1596.34,-80.99"/>
</g>
<!-- Node22&#45;&gt;Node2 -->
<g id="edge32" class="edge">
<title>Node22&#45;&gt;Node2</title>
<path fill="none" stroke="midnightblue" d="M1758.96,-73.94C1789.98,-59.12 1827.88,-41 1849.74,-30.55"/>
<polygon fill="midnightblue" stroke="midnightblue" points="1757.09,-70.96 1749.58,-78.43 1760.11,-77.27 1757.09,-70.96"/>
</g>
<!-- Node23 -->
<g id="node23" class="node">
<title>Node23</title>
<g id="a_node23"><a xlink:href="PauseSystem_8cpp.html" target="_top" xlink:title=" ">
<polygon fill="white" stroke="black" points="1636.63,-0.5 1636.63,-41.5 1766.63,-41.5 1766.63,-0.5 1636.63,-0.5"/>
<text text-anchor="start" x="1644.63" y="-29.5" font-family="Helvetica,sans-Serif" font-size="10.00">Libs/Engine/sources</text>
<text text-anchor="start" x="1644.63" y="-18.5" font-family="Helvetica,sans-Serif" font-size="10.00">/Systems/PauseSystem</text>
<text text-anchor="middle" x="1701.63" y="-7.5" font-family="Helvetica,sans-Serif" font-size="10.00">/PauseSystem.cpp</text>
</a>
</g>
</g>
<!-- Node22&#45;&gt;Node23 -->
<g id="edge33" class="edge">
<title>Node22&#45;&gt;Node23</title>
<path fill="none" stroke="midnightblue" d="M1705.9,-68.3C1705.07,-59.3 1704.18,-49.65 1703.43,-41.51"/>
<polygon fill="midnightblue" stroke="midnightblue" points="1702.43,-68.79 1706.83,-78.43 1709.4,-68.15 1702.43,-68.79"/>
</g>
<!-- Node25&#45;&gt;Node8 -->
<g id="edge36" class="edge">
<title>Node25&#45;&gt;Node8</title>
<path fill="none" stroke="midnightblue" d="M265.76,-227.89C228.34,-197.24 167.13,-147.1 133.54,-119.59"/>
<polygon fill="midnightblue" stroke="midnightblue" points="263.87,-230.87 273.82,-234.5 268.3,-225.45 263.87,-230.87"/>
</g>
<!-- Node25&#45;&gt;Node9 -->
<g id="edge37" class="edge">
<title>Node25&#45;&gt;Node9</title>
<path fill="none" stroke="midnightblue" d="M216.58,-236.23C111.09,-209.58 -52.15,-154.14 16.63,-78 47.19,-44.17 335.35,-29.71 481.9,-24.5"/>
<polygon fill="midnightblue" stroke="midnightblue" points="216.05,-239.7 226.6,-238.72 217.74,-232.91 216.05,-239.7"/>
</g>
<!-- Node27&#45;&gt;Node2 -->
<g id="edge43" class="edge">
<title>Node27&#45;&gt;Node2</title>
<path fill="none" stroke="midnightblue" d="M1071.34,-311.67C1227.64,-288.57 1273.93,-315.42 1424.63,-276 1592.54,-232.08 1642.76,-222.76 1782.63,-120 1801.14,-106.4 1844.13,-52.24 1860.83,-30.8"/>
<polygon fill="midnightblue" stroke="midnightblue" points="1070.74,-308.22 1061.38,-313.18 1071.79,-315.14 1070.74,-308.22"/>
</g>
<!-- Node27&#45;&gt;Node17 -->
<g id="edge45" class="edge">
<title>Node27&#45;&gt;Node17</title>
<path fill="none" stroke="midnightblue" d="M1012.94,-306.97C1066.36,-272.27 1166.49,-207.95 1253.63,-156 1281.66,-139.29 1301.16,-148.17 1317.63,-120 1327.06,-103.89 1327.87,-93.61 1317.63,-78 1307.92,-63.2 1267.83,-47.2 1234.88,-36.11"/>
<polygon fill="midnightblue" stroke="midnightblue" points="1010.94,-304.1 1004.46,-312.49 1014.75,-309.97 1010.94,-304.1"/>
</g>
<!-- Node27&#45;&gt;Node20 -->
<g id="edge44" class="edge">
<title>Node27&#45;&gt;Node20</title>
<path fill="none" stroke="midnightblue" d="M1071.21,-312.7C1072.7,-312.46 1074.17,-312.23 1075.63,-312 1145.47,-301.13 1333.92,-316.8 1391.63,-276 1437.31,-243.7 1444.51,-209.93 1429.63,-156 1417.31,-111.34 1385.76,-66.55 1366.16,-41.74"/>
<polygon fill="midnightblue" stroke="midnightblue" points="1070.61,-309.25 1061.32,-314.36 1071.76,-316.16 1070.61,-309.25"/>
</g>
<!-- Node27&#45;&gt;Node21 -->
<g id="edge50" class="edge">
<title>Node27&#45;&gt;Node21</title>
<path fill="none" stroke="midnightblue" d="M1071.38,-316.86C1083.9,-315.11 1096.56,-313.43 1108.63,-312 1288.52,-290.62 1338.33,-317.63 1514.63,-276 1606.68,-254.27 1628.59,-241.39 1712.63,-198 1799.38,-153.21 1809.48,-122.01 1896.63,-78 1930.5,-60.9 1970.9,-46.11 2001.23,-36.03"/>
<polygon fill="midnightblue" stroke="midnightblue" points="1070.8,-313.41 1061.39,-318.28 1071.78,-320.34 1070.8,-313.41"/>
</g>
<!-- Node28 -->
<g id="node28" class="node">
<title>Node28</title>
<g id="a_node28"><a xlink:href="AIMapsGenerator_8hpp.html" target="_top" xlink:title=" ">
<polygon fill="white" stroke="black" points="1234.13,-234.5 1234.13,-275.5 1383.13,-275.5 1383.13,-234.5 1234.13,-234.5"/>
<text text-anchor="start" x="1242.13" y="-263.5" font-family="Helvetica,sans-Serif" font-size="10.00">Libs/Engine/sources</text>
<text text-anchor="start" x="1242.13" y="-252.5" font-family="Helvetica,sans-Serif" font-size="10.00">/Systems/AIMapsGenerator</text>
<text text-anchor="middle" x="1308.63" y="-241.5" font-family="Helvetica,sans-Serif" font-size="10.00">/AIMapsGenerator.hpp</text>
</a>
</g>
</g>
<!-- Node27&#45;&gt;Node28 -->
<g id="edge46" class="edge">
<title>Node27&#45;&gt;Node28</title>
<path fill="none" stroke="midnightblue" d="M1070.54,-310.18C1122.49,-298.35 1185.73,-283.96 1233.98,-272.99"/>
<polygon fill="midnightblue" stroke="midnightblue" points="1069.62,-306.8 1060.64,-312.43 1071.17,-313.62 1069.62,-306.8"/>
</g>
<!-- Node28&#45;&gt;Node4 -->
<g id="edge47" class="edge">
<title>Node28&#45;&gt;Node4</title>
<path fill="none" stroke="midnightblue" d="M1223.82,-245.08C1084.96,-230.49 810.67,-201.66 671.28,-187"/>
<polygon fill="midnightblue" stroke="midnightblue" points="1223.67,-248.59 1233.98,-246.15 1224.4,-241.63 1223.67,-248.59"/>
</g>
<!-- Node28&#45;&gt;Node17 -->
<g id="edge48" class="edge">
<title>Node28&#45;&gt;Node17</title>
<path fill="none" stroke="midnightblue" d="M1280.9,-226.62C1263.76,-206.28 1247.65,-178.32 1262.63,-156 1286.19,-120.92 1327.08,-155.08 1350.63,-120 1361.04,-104.5 1361.46,-93.2 1350.63,-78 1347.05,-72.97 1280,-50.92 1233.29,-36.03"/>
<polygon fill="midnightblue" stroke="midnightblue" points="1278.46,-229.14 1287.72,-234.29 1283.69,-224.49 1278.46,-229.14"/>
</g>
<!-- Node29 -->
<g id="node29" class="node">
<title>Node29</title>
<g id="a_node29"><a xlink:href="AIMapsGenerator_8cpp.html" target="_top" xlink:title=" ">
<polygon fill="white" stroke="black" points="1272.13,-156.5 1272.13,-197.5 1421.13,-197.5 1421.13,-156.5 1272.13,-156.5"/>
<text text-anchor="start" x="1280.13" y="-185.5" font-family="Helvetica,sans-Serif" font-size="10.00">Libs/Engine/sources</text>
<text text-anchor="start" x="1280.13" y="-174.5" font-family="Helvetica,sans-Serif" font-size="10.00">/Systems/AIMapsGenerator</text>
<text text-anchor="middle" x="1346.63" y="-163.5" font-family="Helvetica,sans-Serif" font-size="10.00">/AIMapsGenerator.cpp</text>
</a>
</g>
</g>
<!-- Node28&#45;&gt;Node29 -->
<g id="edge49" class="edge">
<title>Node28&#45;&gt;Node29</title>
<path fill="none" stroke="midnightblue" d="M1322.9,-225.47C1327.56,-216.14 1332.63,-206.01 1336.88,-197.51"/>
<polygon fill="midnightblue" stroke="midnightblue" points="1319.76,-223.92 1318.42,-234.43 1326.02,-227.05 1319.76,-223.92"/>
</g>
<!-- Node33&#45;&gt;Node2 -->
<g id="edge59" class="edge">
<title>Node33&#45;&gt;Node2</title>
<path fill="none" stroke="midnightblue" d="M1964.55,-78.66C1938.07,-63.18 1902.19,-42.2 1882.35,-30.61"/>
<polygon fill="midnightblue" stroke="midnightblue" points="1963.08,-81.86 1973.48,-83.88 1966.62,-75.81 1963.08,-81.86"/>
</g>
<!-- Node33&#45;&gt;Node9 -->
<g id="edge60" class="edge">
<title>Node33&#45;&gt;Node9</title>
<path fill="none" stroke="midnightblue" d="M1895.94,-87.56C1860.15,-84.14 1819.64,-80.57 1782.63,-78 1358.34,-48.51 849.66,-30.78 651.48,-24.54"/>
<polygon fill="midnightblue" stroke="midnightblue" points="1895.61,-91.04 1905.9,-88.52 1896.28,-84.07 1895.61,-91.04"/>
</g>
<!-- Node33&#45;&gt;Node21 -->
<g id="edge62" class="edge">
<title>Node33&#45;&gt;Node21</title>
<path fill="none" stroke="midnightblue" d="M2012.41,-75.07C2020.56,-62.44 2030.42,-47.15 2037.46,-36.23"/>
<polygon fill="midnightblue" stroke="midnightblue" points="2009.33,-73.4 2006.85,-83.7 2015.21,-77.2 2009.33,-73.4"/>
</g>
<!-- Node34 -->
<g id="node34" class="node">
<title>Node34</title>
<g id="a_node34"><a xlink:href="UISystem_8cpp.html" target="_top" xlink:title=" ">
<polygon fill="white" stroke="black" points="2307.63,-6 2307.63,-36 2489.63,-36 2489.63,-6 2307.63,-6"/>
<text text-anchor="start" x="2315.63" y="-24" font-family="Helvetica,sans-Serif" font-size="10.00">Libs/Engine/sources</text>
<text text-anchor="middle" x="2398.63" y="-13" font-family="Helvetica,sans-Serif" font-size="10.00">/Systems/UISystem/UISystem.cpp</text>
</a>
</g>
</g>
<!-- Node33&#45;&gt;Node34 -->
<g id="edge61" class="edge">
<title>Node33&#45;&gt;Node34</title>
<path fill="none" stroke="midnightblue" d="M2084.54,-82.15C2144.69,-71.1 2226.58,-55.91 2298.63,-42 2308.45,-40.1 2318.81,-38.07 2328.99,-36.05"/>
<polygon fill="midnightblue" stroke="midnightblue" points="2083.91,-78.71 2074.7,-83.96 2085.17,-85.59 2083.91,-78.71"/>
</g>
<!-- Node35 -->
<g id="node35" class="node">
<title>Node35</title>
<g id="a_node35"><a xlink:href="Prototype_2sources_2Shaders_2main_8cpp.html" target="_top" xlink:title=" ">
<polygon fill="white" stroke="black" points="2143.63,-6 2143.63,-36 2289.63,-36 2289.63,-6 2143.63,-6"/>
<text text-anchor="start" x="2151.63" y="-24" font-family="Helvetica,sans-Serif" font-size="10.00">Prototype/sources/Shaders</text>
<text text-anchor="middle" x="2216.63" y="-13" font-family="Helvetica,sans-Serif" font-size="10.00">/main.cpp</text>
</a>
</g>
</g>
<!-- Node33&#45;&gt;Node35 -->
<g id="edge63" class="edge">
<title>Node33&#45;&gt;Node35</title>
<path fill="none" stroke="midnightblue" d="M2047.61,-80.65C2086.51,-67.16 2139.8,-48.66 2176.07,-36.07"/>
<polygon fill="midnightblue" stroke="midnightblue" points="2046.35,-77.39 2038.05,-83.97 2048.65,-84 2046.35,-77.39"/>
</g>
<!-- Node38 -->
<g id="node38" class="node">
<title>Node38</title>
<g id="a_node38"><a xlink:href="testTerrainGenerator_8cpp.html" target="_top" xlink:title=" ">
<polygon fill="white" stroke="black" points="2325.13,-318 2325.13,-348 2492.13,-348 2492.13,-318 2325.13,-318"/>
<text text-anchor="start" x="2333.13" y="-336" font-family="Helvetica,sans-Serif" font-size="10.00">Libs/TerrainGenerator</text>
<text text-anchor="middle" x="2408.63" y="-325" font-family="Helvetica,sans-Serif" font-size="10.00">/tests/testTerrainGenerator.cpp</text>
</a>
</g>
</g>
<!-- Node37&#45;&gt;Node38 -->
<g id="edge67" class="edge">
<title>Node37&#45;&gt;Node38</title>
<path fill="none" stroke="midnightblue" d="M2408.63,-380.23C2408.63,-369.57 2408.63,-357.41 2408.63,-348.25"/>
<polygon fill="midnightblue" stroke="midnightblue" points="2405.13,-380.23 2408.63,-390.23 2412.13,-380.23 2405.13,-380.23"/>
</g>
</g>
</svg>
