<?xml version="1.0" encoding="UTF-8" standalone="no"?>
<!DOCTYPE svg PUBLIC "-//W3C//DTD SVG 1.1//EN"
 "http://www.w3.org/Graphics/SVG/1.1/DTD/svg11.dtd">
<!-- Generated by graphviz version 2.43.0 (0)
 -->
<!-- Title: Libs/Engine/sources/ModelShader/TerrainShader/TerrainShader.cpp Pages: 1 -->
<svg width="797pt" height="341pt"
 viewBox="0.00 0.00 796.50 341.00" xmlns="http://www.w3.org/2000/svg" xmlns:xlink="http://www.w3.org/1999/xlink">
<g id="graph0" class="graph" transform="scale(1 1) rotate(0) translate(4 337)">
<title>Libs/Engine/sources/ModelShader/TerrainShader/TerrainShader.cpp</title>
<polygon fill="white" stroke="transparent" points="-4,4 -4,-337 792.5,-337 792.5,4 -4,4"/>
<!-- Node1 -->
<g id="node1" class="node">
<title>Node1</title>
<g id="a_node1"><a xlink:title=" ">
<polygon fill="#bfbfbf" stroke="black" points="312.5,-291.5 312.5,-332.5 465.5,-332.5 465.5,-291.5 312.5,-291.5"/>
<text text-anchor="start" x="320.5" y="-320.5" font-family="Helvetica,sans-Serif" font-size="10.00">Libs/Engine/sources</text>
<text text-anchor="start" x="320.5" y="-309.5" font-family="Helvetica,sans-Serif" font-size="10.00">/ModelShader/TerrainShader</text>
<text text-anchor="middle" x="389" y="-298.5" font-family="Helvetica,sans-Serif" font-size="10.00">/TerrainShader.cpp</text>
</a>
</g>
</g>
<!-- Node2 -->
<g id="node2" class="node">
<title>Node2</title>
<g id="a_node2"><a xlink:href="TerrainShader_8hpp.html" target="_top" xlink:title=" ">
<polygon fill="white" stroke="black" points="492,-235.5 492,-254.5 596,-254.5 596,-235.5 492,-235.5"/>
<text text-anchor="middle" x="544" y="-242.5" font-family="Helvetica,sans-Serif" font-size="10.00">TerrainShader.hpp</text>
</a>
</g>
</g>
<!-- Node1&#45;&gt;Node2 -->
<g id="edge1" class="edge">
<title>Node1&#45;&gt;Node2</title>
<path fill="none" stroke="midnightblue" d="M435.51,-291.5C460.98,-280.81 491.81,-267.89 514.09,-258.54"/>
<polygon fill="midnightblue" stroke="midnightblue" points="515.5,-261.75 523.37,-254.65 512.79,-255.29 515.5,-261.75"/>
</g>
<!-- Node15 -->
<g id="node15" class="node">
<title>Node15</title>
<g id="a_node15"><a xlink:href="AssetCache_8hpp.html" target="_top" xlink:title=" ">
<polygon fill="white" stroke="black" points="179.5,-235.5 179.5,-254.5 274.5,-254.5 274.5,-235.5 179.5,-235.5"/>
<text text-anchor="middle" x="227" y="-242.5" font-family="Helvetica,sans-Serif" font-size="10.00">AssetCache.hpp</text>
</a>
</g>
</g>
<!-- Node1&#45;&gt;Node15 -->
<g id="edge19" class="edge">
<title>Node1&#45;&gt;Node15</title>
<path fill="none" stroke="midnightblue" d="M340.39,-291.5C313.65,-280.77 281.26,-267.77 257.95,-258.42"/>
<polygon fill="midnightblue" stroke="midnightblue" points="259.15,-255.13 248.56,-254.65 256.54,-261.62 259.15,-255.13"/>
</g>
<!-- Node22 -->
<g id="node22" class="node">
<title>Node22</title>
<g id="a_node22"><a xlink:href="Shader_8hpp.html" target="_top" xlink:title=" ">
<polygon fill="white" stroke="black" points="353.5,-235.5 353.5,-254.5 424.5,-254.5 424.5,-235.5 353.5,-235.5"/>
<text text-anchor="middle" x="389" y="-242.5" font-family="Helvetica,sans-Serif" font-size="10.00">Shader.hpp</text>
</a>
</g>
</g>
<!-- Node1&#45;&gt;Node22 -->
<g id="edge26" class="edge">
<title>Node1&#45;&gt;Node22</title>
<path fill="none" stroke="midnightblue" d="M389,-291.5C389,-283.07 389,-273.24 389,-264.87"/>
<polygon fill="midnightblue" stroke="midnightblue" points="392.5,-264.65 389,-254.65 385.5,-264.65 392.5,-264.65"/>
</g>
<!-- Node3 -->
<g id="node3" class="node">
<title>Node3</title>
<g id="a_node3"><a xlink:href="ModelShader_8hpp.html" target="_top" xlink:title=" ">
<polygon fill="white" stroke="black" points="620.5,-179.5 620.5,-198.5 721.5,-198.5 721.5,-179.5 620.5,-179.5"/>
<text text-anchor="middle" x="671" y="-186.5" font-family="Helvetica,sans-Serif" font-size="10.00">ModelShader.hpp</text>
</a>
</g>
</g>
<!-- Node2&#45;&gt;Node3 -->
<g id="edge2" class="edge">
<title>Node2&#45;&gt;Node3</title>
<path fill="none" stroke="midnightblue" d="M564.12,-235.44C585.02,-226.56 617.93,-212.56 641.72,-202.45"/>
<polygon fill="midnightblue" stroke="midnightblue" points="643.14,-205.65 650.97,-198.52 640.4,-199.21 643.14,-205.65"/>
</g>
<!-- Node10 -->
<g id="node10" class="node">
<title>Node10</title>
<g id="a_node10"><a xlink:href="Vector2_8hpp.html" target="_top" xlink:title=" ">
<polygon fill="white" stroke="black" points="507,-179.5 507,-198.5 581,-198.5 581,-179.5 507,-179.5"/>
<text text-anchor="middle" x="544" y="-186.5" font-family="Helvetica,sans-Serif" font-size="10.00">Vector2.hpp</text>
</a>
</g>
</g>
<!-- Node2&#45;&gt;Node10 -->
<g id="edge10" class="edge">
<title>Node2&#45;&gt;Node10</title>
<path fill="none" stroke="midnightblue" d="M544,-235.08C544,-228.01 544,-217.86 544,-208.99"/>
<polygon fill="midnightblue" stroke="midnightblue" points="547.5,-208.75 544,-198.75 540.5,-208.75 547.5,-208.75"/>
</g>
<!-- Node4 -->
<g id="node4" class="node">
<title>Node4</title>
<g id="a_node4"><a xlink:href="IComponent_8hpp.html" target="_top" xlink:title=" ">
<polygon fill="white" stroke="black" points="642.5,-123.5 642.5,-142.5 739.5,-142.5 739.5,-123.5 642.5,-123.5"/>
<text text-anchor="middle" x="691" y="-130.5" font-family="Helvetica,sans-Serif" font-size="10.00">IComponent.hpp</text>
</a>
</g>
</g>
<!-- Node3&#45;&gt;Node4 -->
<g id="edge3" class="edge">
<title>Node3&#45;&gt;Node4</title>
<path fill="none" stroke="midnightblue" d="M674.3,-179.08C676.98,-171.85 680.85,-161.41 684.19,-152.4"/>
<polygon fill="midnightblue" stroke="midnightblue" points="687.57,-153.34 687.76,-142.75 681,-150.91 687.57,-153.34"/>
</g>
<!-- Node5 -->
<g id="node5" class="node">
<title>Node5</title>
<g id="a_node5"><a xlink:title=" ">
<polygon fill="white" stroke="#bfbfbf" points="731.5,-6 731.5,-25 788.5,-25 788.5,-6 731.5,-6"/>
<text text-anchor="middle" x="760" y="-13" font-family="Helvetica,sans-Serif" font-size="10.00">ostream</text>
</a>
</g>
</g>
<!-- Node4&#45;&gt;Node5 -->
<g id="edge4" class="edge">
<title>Node4&#45;&gt;Node5</title>
<path fill="none" stroke="midnightblue" d="M698.55,-123.44C706.07,-114.67 717.65,-100.46 726,-87 736.61,-69.9 746.32,-49 752.62,-34.41"/>
<polygon fill="midnightblue" stroke="midnightblue" points="755.91,-35.62 756.57,-25.05 749.46,-32.9 755.91,-35.62"/>
</g>
<!-- Node6 -->
<g id="node6" class="node">
<title>Node6</title>
<g id="a_node6"><a xlink:href="IXMLSerializable_8hpp.html" target="_top" xlink:title=" ">
<polygon fill="white" stroke="black" points="597.5,-67.5 597.5,-86.5 716.5,-86.5 716.5,-67.5 597.5,-67.5"/>
<text text-anchor="middle" x="657" y="-74.5" font-family="Helvetica,sans-Serif" font-size="10.00">IXMLSerializable.hpp</text>
</a>
</g>
</g>
<!-- Node4&#45;&gt;Node6 -->
<g id="edge5" class="edge">
<title>Node4&#45;&gt;Node6</title>
<path fill="none" stroke="midnightblue" d="M685.39,-123.08C680.63,-115.53 673.68,-104.49 667.85,-95.23"/>
<polygon fill="midnightblue" stroke="midnightblue" points="670.8,-93.35 662.51,-86.75 664.88,-97.08 670.8,-93.35"/>
</g>
<!-- Node6&#45;&gt;Node5 -->
<g id="edge6" class="edge">
<title>Node6&#45;&gt;Node5</title>
<path fill="none" stroke="midnightblue" d="M671.76,-67.48C688.66,-57.71 716.58,-41.58 736.49,-30.08"/>
<polygon fill="midnightblue" stroke="midnightblue" points="738.36,-33.04 745.27,-25.01 734.86,-26.98 738.36,-33.04"/>
</g>
<!-- Node7 -->
<g id="node7" class="node">
<title>Node7</title>
<g id="a_node7"><a xlink:title=" ">
<polygon fill="white" stroke="#bfbfbf" points="522,-6 522,-25 582,-25 582,-6 522,-6"/>
<text text-anchor="middle" x="552" y="-13" font-family="Helvetica,sans-Serif" font-size="10.00">iostream</text>
</a>
</g>
</g>
<!-- Node6&#45;&gt;Node7 -->
<g id="edge7" class="edge">
<title>Node6&#45;&gt;Node7</title>
<path fill="none" stroke="midnightblue" d="M641.96,-67.48C624.72,-57.71 596.26,-41.58 575.97,-30.08"/>
<polygon fill="midnightblue" stroke="midnightblue" points="577.44,-26.89 567.02,-25.01 573.99,-32.98 577.44,-26.89"/>
</g>
<!-- Node8 -->
<g id="node8" class="node">
<title>Node8</title>
<g id="a_node8"><a xlink:title=" ">
<polygon fill="white" stroke="#bfbfbf" points="600.5,-0.5 600.5,-30.5 713.5,-30.5 713.5,-0.5 600.5,-0.5"/>
<text text-anchor="start" x="608.5" y="-18.5" font-family="Helvetica,sans-Serif" font-size="10.00">boost/property_tree</text>
<text text-anchor="middle" x="657" y="-7.5" font-family="Helvetica,sans-Serif" font-size="10.00">/ptree.hpp</text>
</a>
</g>
</g>
<!-- Node6&#45;&gt;Node8 -->
<g id="edge8" class="edge">
<title>Node6&#45;&gt;Node8</title>
<path fill="none" stroke="midnightblue" d="M657,-67.48C657,-60.47 657,-50.19 657,-40.7"/>
<polygon fill="midnightblue" stroke="midnightblue" points="660.5,-40.52 657,-30.52 653.5,-40.52 660.5,-40.52"/>
</g>
<!-- Node9 -->
<g id="node9" class="node">
<title>Node9</title>
<g id="a_node9"><a xlink:title=" ">
<polygon fill="white" stroke="#bfbfbf" points="390.5,-0.5 390.5,-30.5 503.5,-30.5 503.5,-0.5 390.5,-0.5"/>
<text text-anchor="start" x="398.5" y="-18.5" font-family="Helvetica,sans-Serif" font-size="10.00">boost/property_tree</text>
<text text-anchor="middle" x="447" y="-7.5" font-family="Helvetica,sans-Serif" font-size="10.00">/xml_parser.hpp</text>
</a>
</g>
</g>
<!-- Node6&#45;&gt;Node9 -->
<g id="edge9" class="edge">
<title>Node6&#45;&gt;Node9</title>
<path fill="none" stroke="midnightblue" d="M626.91,-67.48C595.55,-58.59 545.57,-44.43 506.24,-33.29"/>
<polygon fill="midnightblue" stroke="midnightblue" points="507.07,-29.88 496.49,-30.52 505.16,-36.62 507.07,-29.88"/>
</g>
<!-- Node10&#45;&gt;Node6 -->
<g id="edge18" class="edge">
<title>Node10&#45;&gt;Node6</title>
<path fill="none" stroke="midnightblue" d="M554.39,-179.29C564.87,-170.4 581.38,-156.1 595,-143 611.75,-126.88 630.02,-107.5 642.35,-94.11"/>
<polygon fill="midnightblue" stroke="midnightblue" points="645.03,-96.38 649.2,-86.64 639.86,-91.65 645.03,-96.38"/>
</g>
<!-- Node11 -->
<g id="node11" class="node">
<title>Node11</title>
<g id="a_node11"><a xlink:title=" ">
<polygon fill="white" stroke="#bfbfbf" points="386.5,-67.5 386.5,-86.5 439.5,-86.5 439.5,-67.5 386.5,-67.5"/>
<text text-anchor="middle" x="413" y="-74.5" font-family="Helvetica,sans-Serif" font-size="10.00">raylib.h</text>
</a>
</g>
</g>
<!-- Node10&#45;&gt;Node11 -->
<g id="edge11" class="edge">
<title>Node10&#45;&gt;Node11</title>
<path fill="none" stroke="midnightblue" d="M533.63,-179.39C522.75,-170.35 505.15,-155.7 490,-143 469.87,-126.12 446.86,-106.67 431.27,-93.48"/>
<polygon fill="midnightblue" stroke="midnightblue" points="433.34,-90.64 423.44,-86.85 428.81,-95.99 433.34,-90.64"/>
</g>
<!-- Node12 -->
<g id="node12" class="node">
<title>Node12</title>
<g id="a_node12"><a xlink:title=" ">
<polygon fill="white" stroke="#bfbfbf" points="457.5,-67.5 457.5,-86.5 504.5,-86.5 504.5,-67.5 457.5,-67.5"/>
<text text-anchor="middle" x="481" y="-74.5" font-family="Helvetica,sans-Serif" font-size="10.00">cmath</text>
</a>
</g>
</g>
<!-- Node10&#45;&gt;Node12 -->
<g id="edge12" class="edge">
<title>Node10&#45;&gt;Node12</title>
<path fill="none" stroke="midnightblue" d="M533.95,-179.27C524.77,-170.81 511.37,-157.2 503,-143 494.49,-128.57 488.69,-110.38 485.19,-96.91"/>
<polygon fill="midnightblue" stroke="midnightblue" points="488.53,-95.8 482.79,-86.9 481.72,-97.44 488.53,-95.8"/>
</g>
<!-- Node13 -->
<g id="node13" class="node">
<title>Node13</title>
<g id="a_node13"><a xlink:href="Vector3_8hpp.html" target="_top" xlink:title=" ">
<polygon fill="white" stroke="black" points="512,-123.5 512,-142.5 586,-142.5 586,-123.5 512,-123.5"/>
<text text-anchor="middle" x="549" y="-130.5" font-family="Helvetica,sans-Serif" font-size="10.00">Vector3.hpp</text>
</a>
</g>
</g>
<!-- Node10&#45;&gt;Node13 -->
<g id="edge13" class="edge">
<title>Node10&#45;&gt;Node13</title>
<path fill="none" stroke="midnightblue" d="M544.83,-179.08C545.48,-172.01 546.42,-161.86 547.24,-152.99"/>
<polygon fill="midnightblue" stroke="midnightblue" points="550.75,-153.03 548.19,-142.75 543.78,-152.39 550.75,-153.03"/>
</g>
<!-- Node13&#45;&gt;Node6 -->
<g id="edge15" class="edge">
<title>Node13&#45;&gt;Node6</title>
<path fill="none" stroke="midnightblue" d="M566.35,-123.32C583.67,-114.66 610.52,-101.24 630.5,-91.25"/>
<polygon fill="midnightblue" stroke="midnightblue" points="632.31,-94.26 639.69,-86.65 629.18,-88 632.31,-94.26"/>
</g>
<!-- Node13&#45;&gt;Node11 -->
<g id="edge14" class="edge">
<title>Node13&#45;&gt;Node11</title>
<path fill="none" stroke="midnightblue" d="M527.45,-123.44C504.97,-114.52 469.51,-100.44 444.02,-90.32"/>
<polygon fill="midnightblue" stroke="midnightblue" points="445.03,-86.95 434.45,-86.52 442.45,-93.46 445.03,-86.95"/>
</g>
<!-- Node13&#45;&gt;Node12 -->
<g id="edge16" class="edge">
<title>Node13&#45;&gt;Node12</title>
<path fill="none" stroke="midnightblue" d="M538.07,-123.32C527.83,-115.18 512.28,-102.84 500,-93.09"/>
<polygon fill="midnightblue" stroke="midnightblue" points="502.13,-90.31 492.12,-86.83 497.78,-95.79 502.13,-90.31"/>
</g>
<!-- Node14 -->
<g id="node14" class="node">
<title>Node14</title>
<g id="a_node14"><a xlink:title=" ">
<polygon fill="white" stroke="#bfbfbf" points="523,-67.5 523,-86.5 579,-86.5 579,-67.5 523,-67.5"/>
<text text-anchor="middle" x="551" y="-74.5" font-family="Helvetica,sans-Serif" font-size="10.00">sstream</text>
</a>
</g>
</g>
<!-- Node13&#45;&gt;Node14 -->
<g id="edge17" class="edge">
<title>Node13&#45;&gt;Node14</title>
<path fill="none" stroke="midnightblue" d="M549.33,-123.08C549.59,-116.01 549.97,-105.86 550.3,-96.99"/>
<polygon fill="midnightblue" stroke="midnightblue" points="553.8,-96.87 550.68,-86.75 546.81,-96.61 553.8,-96.87"/>
</g>
<!-- Node16 -->
<g id="node16" class="node">
<title>Node16</title>
<g id="a_node16"><a xlink:href="IAsset_8hpp.html" target="_top" xlink:title=" ">
<polygon fill="white" stroke="black" points="274,-179.5 274,-198.5 342,-198.5 342,-179.5 274,-179.5"/>
<text text-anchor="middle" x="308" y="-186.5" font-family="Helvetica,sans-Serif" font-size="10.00">IAsset.hpp</text>
</a>
</g>
</g>
<!-- Node15&#45;&gt;Node16 -->
<g id="edge20" class="edge">
<title>Node15&#45;&gt;Node16</title>
<path fill="none" stroke="midnightblue" d="M240.01,-235.32C252.53,-226.98 271.68,-214.21 286.47,-204.35"/>
<polygon fill="midnightblue" stroke="midnightblue" points="288.64,-207.11 295.02,-198.65 284.76,-201.29 288.64,-207.11"/>
</g>
<!-- Node17 -->
<g id="node17" class="node">
<title>Node17</title>
<g id="a_node17"><a xlink:href="EngineExceptions_8hpp.html" target="_top" xlink:title=" ">
<polygon fill="white" stroke="black" points="0,-179.5 0,-198.5 124,-198.5 124,-179.5 0,-179.5"/>
<text text-anchor="middle" x="62" y="-186.5" font-family="Helvetica,sans-Serif" font-size="10.00">EngineExceptions.hpp</text>
</a>
</g>
</g>
<!-- Node15&#45;&gt;Node17 -->
<g id="edge21" class="edge">
<title>Node15&#45;&gt;Node17</title>
<path fill="none" stroke="midnightblue" d="M200.86,-235.44C172.98,-226.32 128.65,-211.81 97.6,-201.65"/>
<polygon fill="midnightblue" stroke="midnightblue" points="98.62,-198.3 88.02,-198.52 96.44,-204.95 98.62,-198.3"/>
</g>
<!-- Node20 -->
<g id="node20" class="node">
<title>Node20</title>
<g id="a_node20"><a xlink:title=" ">
<polygon fill="white" stroke="#bfbfbf" points="142,-179.5 142,-198.5 180,-198.5 180,-179.5 142,-179.5"/>
<text text-anchor="middle" x="161" y="-186.5" font-family="Helvetica,sans-Serif" font-size="10.00">map</text>
</a>
</g>
</g>
<!-- Node15&#45;&gt;Node20 -->
<g id="edge24" class="edge">
<title>Node15&#45;&gt;Node20</title>
<path fill="none" stroke="midnightblue" d="M216.4,-235.32C206.54,-227.26 191.65,-215.08 179.78,-205.37"/>
<polygon fill="midnightblue" stroke="midnightblue" points="181.75,-202.46 171.8,-198.83 177.32,-207.88 181.75,-202.46"/>
</g>
<!-- Node21 -->
<g id="node21" class="node">
<title>Node21</title>
<g id="a_node21"><a xlink:title=" ">
<polygon fill="white" stroke="#bfbfbf" points="198,-179.5 198,-198.5 256,-198.5 256,-179.5 198,-179.5"/>
<text text-anchor="middle" x="227" y="-186.5" font-family="Helvetica,sans-Serif" font-size="10.00">memory</text>
</a>
</g>
</g>
<!-- Node15&#45;&gt;Node21 -->
<g id="edge25" class="edge">
<title>Node15&#45;&gt;Node21</title>
<path fill="none" stroke="midnightblue" d="M227,-235.08C227,-228.01 227,-217.86 227,-208.99"/>
<polygon fill="midnightblue" stroke="midnightblue" points="230.5,-208.75 227,-198.75 223.5,-208.75 230.5,-208.75"/>
</g>
<!-- Node18 -->
<g id="node18" class="node">
<title>Node18</title>
<g id="a_node18"><a xlink:title=" ">
<polygon fill="white" stroke="#bfbfbf" points="29.5,-123.5 29.5,-142.5 94.5,-142.5 94.5,-123.5 29.5,-123.5"/>
<text text-anchor="middle" x="62" y="-130.5" font-family="Helvetica,sans-Serif" font-size="10.00">exception</text>
</a>
</g>
</g>
<!-- Node17&#45;&gt;Node18 -->
<g id="edge22" class="edge">
<title>Node17&#45;&gt;Node18</title>
<path fill="none" stroke="midnightblue" d="M62,-179.08C62,-172.01 62,-161.86 62,-152.99"/>
<polygon fill="midnightblue" stroke="midnightblue" points="65.5,-152.75 62,-142.75 58.5,-152.75 65.5,-152.75"/>
</g>
<!-- Node19 -->
<g id="node19" class="node">
<title>Node19</title>
<g id="a_node19"><a xlink:title=" ">
<polygon fill="white" stroke="#bfbfbf" points="225,-123.5 225,-142.5 269,-142.5 269,-123.5 225,-123.5"/>
<text text-anchor="middle" x="247" y="-130.5" font-family="Helvetica,sans-Serif" font-size="10.00">string</text>
</a>
</g>
</g>
<!-- Node17&#45;&gt;Node19 -->
<g id="edge23" class="edge">
<title>Node17&#45;&gt;Node19</title>
<path fill="none" stroke="midnightblue" d="M91.31,-179.44C125.07,-169.59 180.32,-153.46 215.12,-143.3"/>
<polygon fill="midnightblue" stroke="midnightblue" points="216.17,-146.64 224.79,-140.48 214.21,-139.92 216.17,-146.64"/>
</g>
<!-- Node22&#45;&gt;Node11 -->
<g id="edge29" class="edge">
<title>Node22&#45;&gt;Node11</title>
<path fill="none" stroke="midnightblue" d="M390.29,-235.08C394.07,-208.95 405.16,-132.21 410.31,-96.58"/>
<polygon fill="midnightblue" stroke="midnightblue" points="413.79,-96.97 411.76,-86.57 406.87,-95.96 413.79,-96.97"/>
</g>
<!-- Node22&#45;&gt;Node16 -->
<g id="edge27" class="edge">
<title>Node22&#45;&gt;Node16</title>
<path fill="none" stroke="midnightblue" d="M375.99,-235.32C363.47,-226.98 344.32,-214.21 329.53,-204.35"/>
<polygon fill="midnightblue" stroke="midnightblue" points="331.24,-201.29 320.98,-198.65 327.36,-207.11 331.24,-201.29"/>
</g>
<!-- Node22&#45;&gt;Node19 -->
<g id="edge28" class="edge">
<title>Node22&#45;&gt;Node19</title>
<path fill="none" stroke="midnightblue" d="M385.95,-235.25C380.76,-221.55 369,-194.95 351,-179 330.31,-160.67 301.01,-148.91 278.78,-142.02"/>
<polygon fill="midnightblue" stroke="midnightblue" points="279.7,-138.65 269.12,-139.2 277.74,-145.36 279.7,-138.65"/>
</g>
<!-- Node23 -->
<g id="node23" class="node">
<title>Node23</title>
<g id="a_node23"><a xlink:title=" ">
<polygon fill="white" stroke="#bfbfbf" points="436.5,-179.5 436.5,-198.5 483.5,-198.5 483.5,-179.5 436.5,-179.5"/>
<text text-anchor="middle" x="460" y="-186.5" font-family="Helvetica,sans-Serif" font-size="10.00">vector</text>
</a>
</g>
</g>
<!-- Node22&#45;&gt;Node23 -->
<g id="edge30" class="edge">
<title>Node22&#45;&gt;Node23</title>
<path fill="none" stroke="midnightblue" d="M400.41,-235.32C411.11,-227.18 427.34,-214.84 440.16,-205.09"/>
<polygon fill="midnightblue" stroke="midnightblue" points="442.54,-207.67 448.39,-198.83 438.31,-202.1 442.54,-207.67"/>
</g>
</g>
</svg>
