<?xml version="1.0" encoding="UTF-8" standalone="no"?>
<!DOCTYPE svg PUBLIC "-//W3C//DTD SVG 1.1//EN"
 "http://www.w3.org/Graphics/SVG/1.1/DTD/svg11.dtd">
<!-- Generated by graphviz version 2.43.0 (0)
 -->
<!-- Title: Libs/TerrainGenerator/sources/TerrainGenerator.cpp Pages: 1 -->
<svg width="592pt" height="330pt"
 viewBox="0.00 0.00 591.50 330.00" xmlns="http://www.w3.org/2000/svg" xmlns:xlink="http://www.w3.org/1999/xlink">
<g id="graph0" class="graph" transform="scale(1 1) rotate(0) translate(4 326)">
<title>Libs/TerrainGenerator/sources/TerrainGenerator.cpp</title>
<polygon fill="white" stroke="transparent" points="-4,4 -4,-326 587.5,-326 587.5,4 -4,4"/>
<!-- Node1 -->
<g id="node1" class="node">
<title>Node1</title>
<g id="a_node1"><a xlink:title=" ">
<polygon fill="#bfbfbf" stroke="black" points="334,-291.5 334,-321.5 495,-321.5 495,-291.5 334,-291.5"/>
<text text-anchor="start" x="342" y="-309.5" font-family="Helvetica,sans-Serif" font-size="10.00">Libs/TerrainGenerator</text>
<text text-anchor="middle" x="414.5" y="-298.5" font-family="Helvetica,sans-Serif" font-size="10.00">/sources/TerrainGenerator.cpp</text>
</a>
</g>
</g>
<!-- Node2 -->
<g id="node2" class="node">
<title>Node2</title>
<g id="a_node2"><a xlink:href="TerrainGenerator_8hpp.html" target="_top" xlink:title=" ">
<polygon fill="white" stroke="black" points="87,-235.5 87,-254.5 206,-254.5 206,-235.5 87,-235.5"/>
<text text-anchor="middle" x="146.5" y="-242.5" font-family="Helvetica,sans-Serif" font-size="10.00">TerrainGenerator.hpp</text>
</a>
</g>
</g>
<!-- Node1&#45;&gt;Node2 -->
<g id="edge1" class="edge">
<title>Node1&#45;&gt;Node2</title>
<path fill="none" stroke="midnightblue" d="M351.33,-291.47C303.38,-280.83 238.44,-266.41 194.65,-256.69"/>
<polygon fill="midnightblue" stroke="midnightblue" points="195.34,-253.26 184.81,-254.51 193.82,-260.09 195.34,-253.26"/>
</g>
<!-- Node11 -->
<g id="node11" class="node">
<title>Node11</title>
<g id="a_node11"><a xlink:title=" ">
<polygon fill="white" stroke="#bfbfbf" points="345.5,-6 345.5,-25 405.5,-25 405.5,-6 345.5,-6"/>
<text text-anchor="middle" x="375.5" y="-13" font-family="Helvetica,sans-Serif" font-size="10.00">iostream</text>
</a>
</g>
</g>
<!-- Node1&#45;&gt;Node11 -->
<g id="edge20" class="edge">
<title>Node1&#45;&gt;Node11</title>
<path fill="none" stroke="midnightblue" d="M404.53,-291.31C390.74,-270.24 367.5,-228.97 367.5,-190 367.5,-190 367.5,-190 367.5,-132 367.5,-97.78 371.04,-58 373.41,-35.18"/>
<polygon fill="midnightblue" stroke="midnightblue" points="376.89,-35.5 374.49,-25.18 369.93,-34.75 376.89,-35.5"/>
</g>
<!-- Node15 -->
<g id="node15" class="node">
<title>Node15</title>
<g id="a_node15"><a xlink:title=" ">
<polygon fill="white" stroke="#bfbfbf" points="395.5,-235.5 395.5,-254.5 433.5,-254.5 433.5,-235.5 395.5,-235.5"/>
<text text-anchor="middle" x="414.5" y="-242.5" font-family="Helvetica,sans-Serif" font-size="10.00">map</text>
</a>
</g>
</g>
<!-- Node1&#45;&gt;Node15 -->
<g id="edge17" class="edge">
<title>Node1&#45;&gt;Node15</title>
<path fill="none" stroke="midnightblue" d="M414.5,-291.4C414.5,-283.47 414.5,-273.46 414.5,-264.86"/>
<polygon fill="midnightblue" stroke="midnightblue" points="418,-264.66 414.5,-254.66 411,-264.66 418,-264.66"/>
</g>
<!-- Node16 -->
<g id="node16" class="node">
<title>Node16</title>
<g id="a_node16"><a xlink:title=" ">
<polygon fill="white" stroke="#bfbfbf" points="452,-235.5 452,-254.5 501,-254.5 501,-235.5 452,-235.5"/>
<text text-anchor="middle" x="476.5" y="-242.5" font-family="Helvetica,sans-Serif" font-size="10.00">cstdlib</text>
</a>
</g>
</g>
<!-- Node1&#45;&gt;Node16 -->
<g id="edge18" class="edge">
<title>Node1&#45;&gt;Node16</title>
<path fill="none" stroke="midnightblue" d="M429.19,-291.4C438.48,-282.49 450.5,-270.95 460.1,-261.74"/>
<polygon fill="midnightblue" stroke="midnightblue" points="462.69,-264.11 467.48,-254.66 457.84,-259.06 462.69,-264.11"/>
</g>
<!-- Node17 -->
<g id="node17" class="node">
<title>Node17</title>
<g id="a_node17"><a xlink:title=" ">
<polygon fill="white" stroke="#bfbfbf" points="519.5,-235.5 519.5,-254.5 583.5,-254.5 583.5,-235.5 519.5,-235.5"/>
<text text-anchor="middle" x="551.5" y="-242.5" font-family="Helvetica,sans-Serif" font-size="10.00">algorithm</text>
</a>
</g>
</g>
<!-- Node1&#45;&gt;Node17 -->
<g id="edge19" class="edge">
<title>Node1&#45;&gt;Node17</title>
<path fill="none" stroke="midnightblue" d="M446.97,-291.4C469.85,-281.46 500.23,-268.26 522.34,-258.66"/>
<polygon fill="midnightblue" stroke="midnightblue" points="523.79,-261.85 531.57,-254.66 521,-255.43 523.79,-261.85"/>
</g>
<!-- Node3 -->
<g id="node3" class="node">
<title>Node3</title>
<g id="a_node3"><a xlink:title=" ">
<polygon fill="white" stroke="#bfbfbf" points="20.5,-179.5 20.5,-198.5 64.5,-198.5 64.5,-179.5 20.5,-179.5"/>
<text text-anchor="middle" x="42.5" y="-186.5" font-family="Helvetica,sans-Serif" font-size="10.00">string</text>
</a>
</g>
</g>
<!-- Node2&#45;&gt;Node3 -->
<g id="edge2" class="edge">
<title>Node2&#45;&gt;Node3</title>
<path fill="none" stroke="midnightblue" d="M129.79,-235.32C113.19,-226.7 87.5,-213.36 68.28,-203.39"/>
<polygon fill="midnightblue" stroke="midnightblue" points="69.66,-200.16 59.17,-198.65 66.43,-206.37 69.66,-200.16"/>
</g>
<!-- Node4 -->
<g id="node4" class="node">
<title>Node4</title>
<g id="a_node4"><a xlink:title=" ">
<polygon fill="white" stroke="#bfbfbf" points="83,-179.5 83,-198.5 130,-198.5 130,-179.5 83,-179.5"/>
<text text-anchor="middle" x="106.5" y="-186.5" font-family="Helvetica,sans-Serif" font-size="10.00">vector</text>
</a>
</g>
</g>
<!-- Node2&#45;&gt;Node4 -->
<g id="edge3" class="edge">
<title>Node2&#45;&gt;Node4</title>
<path fill="none" stroke="midnightblue" d="M139.89,-235.08C134.24,-227.46 125.96,-216.26 119.05,-206.94"/>
<polygon fill="midnightblue" stroke="midnightblue" points="121.75,-204.7 112.98,-198.75 116.12,-208.87 121.75,-204.7"/>
</g>
<!-- Node5 -->
<g id="node5" class="node">
<title>Node5</title>
<g id="a_node5"><a xlink:href="Vector2_8hpp.html" target="_top" xlink:title=" ">
<polygon fill="white" stroke="black" points="148.5,-179.5 148.5,-198.5 222.5,-198.5 222.5,-179.5 148.5,-179.5"/>
<text text-anchor="middle" x="185.5" y="-186.5" font-family="Helvetica,sans-Serif" font-size="10.00">Vector2.hpp</text>
</a>
</g>
</g>
<!-- Node2&#45;&gt;Node5 -->
<g id="edge4" class="edge">
<title>Node2&#45;&gt;Node5</title>
<path fill="none" stroke="midnightblue" d="M152.94,-235.08C158.45,-227.46 166.53,-216.26 173.26,-206.94"/>
<polygon fill="midnightblue" stroke="midnightblue" points="176.16,-208.91 179.18,-198.75 170.49,-204.81 176.16,-208.91"/>
</g>
<!-- Node6 -->
<g id="node6" class="node">
<title>Node6</title>
<g id="a_node6"><a xlink:title=" ">
<polygon fill="white" stroke="#bfbfbf" points="0,-67.5 0,-86.5 53,-86.5 53,-67.5 0,-67.5"/>
<text text-anchor="middle" x="26.5" y="-74.5" font-family="Helvetica,sans-Serif" font-size="10.00">raylib.h</text>
</a>
</g>
</g>
<!-- Node5&#45;&gt;Node6 -->
<g id="edge5" class="edge">
<title>Node5&#45;&gt;Node6</title>
<path fill="none" stroke="midnightblue" d="M151.45,-179.5C128.1,-172.46 97.34,-160.72 74.5,-143 57.93,-130.14 44.34,-110.13 35.91,-95.71"/>
<polygon fill="midnightblue" stroke="midnightblue" points="38.85,-93.8 30.92,-86.78 32.74,-97.21 38.85,-93.8"/>
</g>
<!-- Node7 -->
<g id="node7" class="node">
<title>Node7</title>
<g id="a_node7"><a xlink:title=" ">
<polygon fill="white" stroke="#bfbfbf" points="146,-67.5 146,-86.5 193,-86.5 193,-67.5 146,-67.5"/>
<text text-anchor="middle" x="169.5" y="-74.5" font-family="Helvetica,sans-Serif" font-size="10.00">cmath</text>
</a>
</g>
</g>
<!-- Node5&#45;&gt;Node7 -->
<g id="edge6" class="edge">
<title>Node5&#45;&gt;Node7</title>
<path fill="none" stroke="midnightblue" d="M184.24,-179.37C181.66,-161.62 175.71,-120.67 172.21,-96.6"/>
<polygon fill="midnightblue" stroke="midnightblue" points="175.65,-95.98 170.75,-86.59 168.73,-96.99 175.65,-95.98"/>
</g>
<!-- Node8 -->
<g id="node8" class="node">
<title>Node8</title>
<g id="a_node8"><a xlink:href="Vector3_8hpp.html" target="_top" xlink:title=" ">
<polygon fill="white" stroke="black" points="83.5,-123.5 83.5,-142.5 157.5,-142.5 157.5,-123.5 83.5,-123.5"/>
<text text-anchor="middle" x="120.5" y="-130.5" font-family="Helvetica,sans-Serif" font-size="10.00">Vector3.hpp</text>
</a>
</g>
</g>
<!-- Node5&#45;&gt;Node8 -->
<g id="edge7" class="edge">
<title>Node5&#45;&gt;Node8</title>
<path fill="none" stroke="midnightblue" d="M175.06,-179.32C165.35,-171.26 150.68,-159.08 139,-149.37"/>
<polygon fill="midnightblue" stroke="midnightblue" points="141.06,-146.53 131.13,-142.83 136.59,-151.92 141.06,-146.53"/>
</g>
<!-- Node9 -->
<g id="node9" class="node">
<title>Node9</title>
<g id="a_node9"><a xlink:href="IXMLSerializable_8hpp.html" target="_top" xlink:title=" ">
<polygon fill="white" stroke="black" points="211,-67.5 211,-86.5 330,-86.5 330,-67.5 211,-67.5"/>
<text text-anchor="middle" x="270.5" y="-74.5" font-family="Helvetica,sans-Serif" font-size="10.00">IXMLSerializable.hpp</text>
</a>
</g>
</g>
<!-- Node5&#45;&gt;Node9 -->
<g id="edge16" class="edge">
<title>Node5&#45;&gt;Node9</title>
<path fill="none" stroke="midnightblue" d="M192.17,-179.37C206.26,-161.14 239.26,-118.43 257.61,-94.68"/>
<polygon fill="midnightblue" stroke="midnightblue" points="260.52,-96.64 263.86,-86.59 254.98,-92.36 260.52,-96.64"/>
</g>
<!-- Node8&#45;&gt;Node6 -->
<g id="edge8" class="edge">
<title>Node8&#45;&gt;Node6</title>
<path fill="none" stroke="midnightblue" d="M105.4,-123.32C90.6,-114.82 67.81,-101.73 50.52,-91.8"/>
<polygon fill="midnightblue" stroke="midnightblue" points="51.98,-88.6 41.57,-86.65 48.49,-94.67 51.98,-88.6"/>
</g>
<!-- Node8&#45;&gt;Node7 -->
<g id="edge14" class="edge">
<title>Node8&#45;&gt;Node7</title>
<path fill="none" stroke="midnightblue" d="M128.59,-123.08C135.66,-115.3 146.09,-103.8 154.65,-94.37"/>
<polygon fill="midnightblue" stroke="midnightblue" points="157.43,-96.51 161.56,-86.75 152.25,-91.8 157.43,-96.51"/>
</g>
<!-- Node8&#45;&gt;Node9 -->
<g id="edge9" class="edge">
<title>Node8&#45;&gt;Node9</title>
<path fill="none" stroke="midnightblue" d="M144.27,-123.44C169.39,-114.4 209.21,-100.06 237.4,-89.92"/>
<polygon fill="midnightblue" stroke="midnightblue" points="238.62,-93.2 246.84,-86.52 236.25,-86.61 238.62,-93.2"/>
</g>
<!-- Node14 -->
<g id="node14" class="node">
<title>Node14</title>
<g id="a_node14"><a xlink:title=" ">
<polygon fill="white" stroke="#bfbfbf" points="71.5,-67.5 71.5,-86.5 127.5,-86.5 127.5,-67.5 71.5,-67.5"/>
<text text-anchor="middle" x="99.5" y="-74.5" font-family="Helvetica,sans-Serif" font-size="10.00">sstream</text>
</a>
</g>
</g>
<!-- Node8&#45;&gt;Node14 -->
<g id="edge15" class="edge">
<title>Node8&#45;&gt;Node14</title>
<path fill="none" stroke="midnightblue" d="M117.03,-123.08C114.19,-115.77 110.07,-105.18 106.54,-96.1"/>
<polygon fill="midnightblue" stroke="midnightblue" points="109.79,-94.8 102.9,-86.75 103.27,-97.34 109.79,-94.8"/>
</g>
<!-- Node10 -->
<g id="node10" class="node">
<title>Node10</title>
<g id="a_node10"><a xlink:title=" ">
<polygon fill="white" stroke="#bfbfbf" points="8,-6 8,-25 65,-25 65,-6 8,-6"/>
<text text-anchor="middle" x="36.5" y="-13" font-family="Helvetica,sans-Serif" font-size="10.00">ostream</text>
</a>
</g>
</g>
<!-- Node9&#45;&gt;Node10 -->
<g id="edge10" class="edge">
<title>Node9&#45;&gt;Node10</title>
<path fill="none" stroke="midnightblue" d="M224.21,-67.45C183.96,-59.54 124.29,-46.66 73.5,-31 71.08,-30.25 68.59,-29.42 66.1,-28.55"/>
<polygon fill="midnightblue" stroke="midnightblue" points="67.26,-25.24 56.66,-25.03 64.81,-31.8 67.26,-25.24"/>
</g>
<!-- Node9&#45;&gt;Node11 -->
<g id="edge11" class="edge">
<title>Node9&#45;&gt;Node11</title>
<path fill="none" stroke="midnightblue" d="M285.54,-67.48C302.78,-57.71 331.24,-41.58 351.53,-30.08"/>
<polygon fill="midnightblue" stroke="midnightblue" points="353.51,-32.98 360.48,-25.01 350.06,-26.89 353.51,-32.98"/>
</g>
<!-- Node12 -->
<g id="node12" class="node">
<title>Node12</title>
<g id="a_node12"><a xlink:title=" ">
<polygon fill="white" stroke="#bfbfbf" points="83,-0.5 83,-30.5 196,-30.5 196,-0.5 83,-0.5"/>
<text text-anchor="start" x="91" y="-18.5" font-family="Helvetica,sans-Serif" font-size="10.00">boost/property_tree</text>
<text text-anchor="middle" x="139.5" y="-7.5" font-family="Helvetica,sans-Serif" font-size="10.00">/ptree.hpp</text>
</a>
</g>
</g>
<!-- Node9&#45;&gt;Node12 -->
<g id="edge12" class="edge">
<title>Node9&#45;&gt;Node12</title>
<path fill="none" stroke="midnightblue" d="M251.73,-67.48C232.99,-58.96 203.61,-45.62 179.61,-34.72"/>
<polygon fill="midnightblue" stroke="midnightblue" points="180.93,-31.47 170.37,-30.52 178.03,-37.85 180.93,-31.47"/>
</g>
<!-- Node13 -->
<g id="node13" class="node">
<title>Node13</title>
<g id="a_node13"><a xlink:title=" ">
<polygon fill="white" stroke="#bfbfbf" points="214,-0.5 214,-30.5 327,-30.5 327,-0.5 214,-0.5"/>
<text text-anchor="start" x="222" y="-18.5" font-family="Helvetica,sans-Serif" font-size="10.00">boost/property_tree</text>
<text text-anchor="middle" x="270.5" y="-7.5" font-family="Helvetica,sans-Serif" font-size="10.00">/xml_parser.hpp</text>
</a>
</g>
</g>
<!-- Node9&#45;&gt;Node13 -->
<g id="edge13" class="edge">
<title>Node9&#45;&gt;Node13</title>
<path fill="none" stroke="midnightblue" d="M270.5,-67.48C270.5,-60.47 270.5,-50.19 270.5,-40.7"/>
<polygon fill="midnightblue" stroke="midnightblue" points="274,-40.52 270.5,-30.52 267,-40.52 274,-40.52"/>
</g>
</g>
</svg>
