<?xml version="1.0" encoding="UTF-8" standalone="no"?>
<!DOCTYPE svg PUBLIC "-//W3C//DTD SVG 1.1//EN"
 "http://www.w3.org/Graphics/SVG/1.1/DTD/svg11.dtd">
<!-- Generated by graphviz version 2.43.0 (0)
 -->
<!-- Title: Libs/Engine/sources/ModelShader/TerrainShader/TerrainShader.hpp Pages: 1 -->
<svg width="406pt" height="285pt"
 viewBox="0.00 0.00 406.00 285.00" xmlns="http://www.w3.org/2000/svg" xmlns:xlink="http://www.w3.org/1999/xlink">
<g id="graph0" class="graph" transform="scale(1 1) rotate(0) translate(4 281)">
<title>Libs/Engine/sources/ModelShader/TerrainShader/TerrainShader.hpp</title>
<polygon fill="white" stroke="transparent" points="-4,4 -4,-281 402,-281 402,4 -4,4"/>
<!-- Node1 -->
<g id="node1" class="node">
<title>Node1</title>
<g id="a_node1"><a xlink:title=" ">
<polygon fill="#bfbfbf" stroke="black" points="87,-235.5 87,-276.5 240,-276.5 240,-235.5 87,-235.5"/>
<text text-anchor="start" x="95" y="-264.5" font-family="Helvetica,sans-Serif" font-size="10.00">Libs/Engine/sources</text>
<text text-anchor="start" x="95" y="-253.5" font-family="Helvetica,sans-Serif" font-size="10.00">/ModelShader/TerrainShader</text>
<text text-anchor="middle" x="163.5" y="-242.5" font-family="Helvetica,sans-Serif" font-size="10.00">/TerrainShader.hpp</text>
</a>
</g>
</g>
<!-- Node2 -->
<g id="node2" class="node">
<title>Node2</title>
<g id="a_node2"><a xlink:href="ModelShader_8hpp.html" target="_top" xlink:title=" ">
<polygon fill="white" stroke="black" points="60,-179.5 60,-198.5 161,-198.5 161,-179.5 60,-179.5"/>
<text text-anchor="middle" x="110.5" y="-186.5" font-family="Helvetica,sans-Serif" font-size="10.00">ModelShader.hpp</text>
</a>
</g>
</g>
<!-- Node1&#45;&gt;Node2 -->
<g id="edge1" class="edge">
<title>Node1&#45;&gt;Node2</title>
<path fill="none" stroke="midnightblue" d="M147.6,-235.5C140.1,-226.3 131.24,-215.44 124.06,-206.63"/>
<polygon fill="midnightblue" stroke="midnightblue" points="126.59,-204.19 117.56,-198.65 121.16,-208.61 126.59,-204.19"/>
</g>
<!-- Node9 -->
<g id="node9" class="node">
<title>Node9</title>
<g id="a_node9"><a xlink:href="Vector2_8hpp.html" target="_top" xlink:title=" ">
<polygon fill="white" stroke="black" points="183.5,-179.5 183.5,-198.5 257.5,-198.5 257.5,-179.5 183.5,-179.5"/>
<text text-anchor="middle" x="220.5" y="-186.5" font-family="Helvetica,sans-Serif" font-size="10.00">Vector2.hpp</text>
</a>
</g>
</g>
<!-- Node1&#45;&gt;Node9 -->
<g id="edge9" class="edge">
<title>Node1&#45;&gt;Node9</title>
<path fill="none" stroke="midnightblue" d="M180.6,-235.5C188.75,-226.2 198.39,-215.21 206.16,-206.36"/>
<polygon fill="midnightblue" stroke="midnightblue" points="208.95,-208.48 212.91,-198.65 203.69,-203.86 208.95,-208.48"/>
</g>
<!-- Node3 -->
<g id="node3" class="node">
<title>Node3</title>
<g id="a_node3"><a xlink:href="IComponent_8hpp.html" target="_top" xlink:title=" ">
<polygon fill="white" stroke="black" points="57,-123.5 57,-142.5 154,-142.5 154,-123.5 57,-123.5"/>
<text text-anchor="middle" x="105.5" y="-130.5" font-family="Helvetica,sans-Serif" font-size="10.00">IComponent.hpp</text>
</a>
</g>
</g>
<!-- Node2&#45;&gt;Node3 -->
<g id="edge2" class="edge">
<title>Node2&#45;&gt;Node3</title>
<path fill="none" stroke="midnightblue" d="M109.67,-179.08C109.02,-172.01 108.08,-161.86 107.26,-152.99"/>
<polygon fill="midnightblue" stroke="midnightblue" points="110.72,-152.39 106.31,-142.75 103.75,-153.03 110.72,-152.39"/>
</g>
<!-- Node4 -->
<g id="node4" class="node">
<title>Node4</title>
<g id="a_node4"><a xlink:title=" ">
<polygon fill="white" stroke="#bfbfbf" points="0,-6 0,-25 57,-25 57,-6 0,-6"/>
<text text-anchor="middle" x="28.5" y="-13" font-family="Helvetica,sans-Serif" font-size="10.00">ostream</text>
</a>
</g>
</g>
<!-- Node3&#45;&gt;Node4 -->
<g id="edge3" class="edge">
<title>Node3&#45;&gt;Node4</title>
<path fill="none" stroke="midnightblue" d="M89.35,-123.43C76.18,-115.63 58.09,-102.92 47.5,-87 37.09,-71.36 32.37,-50.2 30.23,-35.15"/>
<polygon fill="midnightblue" stroke="midnightblue" points="33.69,-34.56 29.06,-25.03 26.73,-35.37 33.69,-34.56"/>
</g>
<!-- Node5 -->
<g id="node5" class="node">
<title>Node5</title>
<g id="a_node5"><a xlink:href="IXMLSerializable_8hpp.html" target="_top" xlink:title=" ">
<polygon fill="white" stroke="black" points="57,-67.5 57,-86.5 176,-86.5 176,-67.5 57,-67.5"/>
<text text-anchor="middle" x="116.5" y="-74.5" font-family="Helvetica,sans-Serif" font-size="10.00">IXMLSerializable.hpp</text>
</a>
</g>
</g>
<!-- Node3&#45;&gt;Node5 -->
<g id="edge4" class="edge">
<title>Node3&#45;&gt;Node5</title>
<path fill="none" stroke="midnightblue" d="M107.32,-123.08C108.77,-115.93 110.87,-105.64 112.69,-96.69"/>
<polygon fill="midnightblue" stroke="midnightblue" points="116.15,-97.25 114.72,-86.75 109.29,-95.85 116.15,-97.25"/>
</g>
<!-- Node5&#45;&gt;Node4 -->
<g id="edge5" class="edge">
<title>Node5&#45;&gt;Node4</title>
<path fill="none" stroke="midnightblue" d="M103.89,-67.48C89.78,-57.93 66.67,-42.31 49.75,-30.87"/>
<polygon fill="midnightblue" stroke="midnightblue" points="51.33,-27.71 41.08,-25.01 47.41,-33.51 51.33,-27.71"/>
</g>
<!-- Node6 -->
<g id="node6" class="node">
<title>Node6</title>
<g id="a_node6"><a xlink:title=" ">
<polygon fill="white" stroke="#bfbfbf" points="75.5,-6 75.5,-25 135.5,-25 135.5,-6 75.5,-6"/>
<text text-anchor="middle" x="105.5" y="-13" font-family="Helvetica,sans-Serif" font-size="10.00">iostream</text>
</a>
</g>
</g>
<!-- Node5&#45;&gt;Node6 -->
<g id="edge6" class="edge">
<title>Node5&#45;&gt;Node6</title>
<path fill="none" stroke="midnightblue" d="M114.92,-67.48C113.37,-59.08 110.95,-45.98 108.95,-35.16"/>
<polygon fill="midnightblue" stroke="midnightblue" points="112.33,-34.21 107.07,-25.01 105.45,-35.48 112.33,-34.21"/>
</g>
<!-- Node7 -->
<g id="node7" class="node">
<title>Node7</title>
<g id="a_node7"><a xlink:title=" ">
<polygon fill="white" stroke="#bfbfbf" points="154,-0.5 154,-30.5 267,-30.5 267,-0.5 154,-0.5"/>
<text text-anchor="start" x="162" y="-18.5" font-family="Helvetica,sans-Serif" font-size="10.00">boost/property_tree</text>
<text text-anchor="middle" x="210.5" y="-7.5" font-family="Helvetica,sans-Serif" font-size="10.00">/ptree.hpp</text>
</a>
</g>
</g>
<!-- Node5&#45;&gt;Node7 -->
<g id="edge7" class="edge">
<title>Node5&#45;&gt;Node7</title>
<path fill="none" stroke="midnightblue" d="M129.97,-67.48C142.94,-59.27 163.01,-46.56 179.88,-35.88"/>
<polygon fill="midnightblue" stroke="midnightblue" points="181.77,-38.83 188.35,-30.52 178.02,-32.91 181.77,-38.83"/>
</g>
<!-- Node8 -->
<g id="node8" class="node">
<title>Node8</title>
<g id="a_node8"><a xlink:title=" ">
<polygon fill="white" stroke="#bfbfbf" points="285,-0.5 285,-30.5 398,-30.5 398,-0.5 285,-0.5"/>
<text text-anchor="start" x="293" y="-18.5" font-family="Helvetica,sans-Serif" font-size="10.00">boost/property_tree</text>
<text text-anchor="middle" x="341.5" y="-7.5" font-family="Helvetica,sans-Serif" font-size="10.00">/xml_parser.hpp</text>
</a>
</g>
</g>
<!-- Node5&#45;&gt;Node8 -->
<g id="edge8" class="edge">
<title>Node5&#45;&gt;Node8</title>
<path fill="none" stroke="midnightblue" d="M148.74,-67.48C182.49,-58.55 236.34,-44.31 278.56,-33.14"/>
<polygon fill="midnightblue" stroke="midnightblue" points="279.7,-36.46 288.47,-30.52 277.91,-29.7 279.7,-36.46"/>
</g>
<!-- Node9&#45;&gt;Node5 -->
<g id="edge17" class="edge">
<title>Node9&#45;&gt;Node5</title>
<path fill="none" stroke="midnightblue" d="M213.17,-179.42C202.34,-166.82 181.3,-142.69 162.5,-123 153.05,-113.1 142.11,-102.37 133.27,-93.88"/>
<polygon fill="midnightblue" stroke="midnightblue" points="135.49,-91.16 125.85,-86.79 130.66,-96.22 135.49,-91.16"/>
</g>
<!-- Node10 -->
<g id="node10" class="node">
<title>Node10</title>
<g id="a_node10"><a xlink:title=" ">
<polygon fill="white" stroke="#bfbfbf" points="194,-67.5 194,-86.5 247,-86.5 247,-67.5 194,-67.5"/>
<text text-anchor="middle" x="220.5" y="-74.5" font-family="Helvetica,sans-Serif" font-size="10.00">raylib.h</text>
</a>
</g>
</g>
<!-- Node9&#45;&gt;Node10 -->
<g id="edge10" class="edge">
<title>Node9&#45;&gt;Node10</title>
<path fill="none" stroke="midnightblue" d="M220.5,-179.37C220.5,-161.62 220.5,-120.67 220.5,-96.6"/>
<polygon fill="midnightblue" stroke="midnightblue" points="224,-96.59 220.5,-86.59 217,-96.59 224,-96.59"/>
</g>
<!-- Node11 -->
<g id="node11" class="node">
<title>Node11</title>
<g id="a_node11"><a xlink:title=" ">
<polygon fill="white" stroke="#bfbfbf" points="340,-67.5 340,-86.5 387,-86.5 387,-67.5 340,-67.5"/>
<text text-anchor="middle" x="363.5" y="-74.5" font-family="Helvetica,sans-Serif" font-size="10.00">cmath</text>
</a>
</g>
</g>
<!-- Node9&#45;&gt;Node11 -->
<g id="edge11" class="edge">
<title>Node9&#45;&gt;Node11</title>
<path fill="none" stroke="midnightblue" d="M257.68,-180.16C281.2,-173.59 310.95,-162.12 331.5,-143 345,-130.44 353.54,-110.94 358.36,-96.58"/>
<polygon fill="midnightblue" stroke="midnightblue" points="361.78,-97.38 361.35,-86.79 355.08,-95.33 361.78,-97.38"/>
</g>
<!-- Node12 -->
<g id="node12" class="node">
<title>Node12</title>
<g id="a_node12"><a xlink:href="Vector3_8hpp.html" target="_top" xlink:title=" ">
<polygon fill="white" stroke="black" points="248.5,-123.5 248.5,-142.5 322.5,-142.5 322.5,-123.5 248.5,-123.5"/>
<text text-anchor="middle" x="285.5" y="-130.5" font-family="Helvetica,sans-Serif" font-size="10.00">Vector3.hpp</text>
</a>
</g>
</g>
<!-- Node9&#45;&gt;Node12 -->
<g id="edge12" class="edge">
<title>Node9&#45;&gt;Node12</title>
<path fill="none" stroke="midnightblue" d="M230.94,-179.32C240.65,-171.26 255.32,-159.08 267,-149.37"/>
<polygon fill="midnightblue" stroke="midnightblue" points="269.41,-151.92 274.87,-142.83 264.94,-146.53 269.41,-151.92"/>
</g>
<!-- Node12&#45;&gt;Node5 -->
<g id="edge14" class="edge">
<title>Node12&#45;&gt;Node5</title>
<path fill="none" stroke="midnightblue" d="M258.72,-123.44C230.17,-114.32 184.77,-99.81 152.96,-89.65"/>
<polygon fill="midnightblue" stroke="midnightblue" points="153.74,-86.23 143.15,-86.52 151.61,-92.89 153.74,-86.23"/>
</g>
<!-- Node12&#45;&gt;Node10 -->
<g id="edge13" class="edge">
<title>Node12&#45;&gt;Node10</title>
<path fill="none" stroke="midnightblue" d="M275.06,-123.32C265.35,-115.26 250.68,-103.08 239,-93.37"/>
<polygon fill="midnightblue" stroke="midnightblue" points="241.06,-90.53 231.13,-86.83 236.59,-95.92 241.06,-90.53"/>
</g>
<!-- Node12&#45;&gt;Node11 -->
<g id="edge15" class="edge">
<title>Node12&#45;&gt;Node11</title>
<path fill="none" stroke="midnightblue" d="M298.03,-123.32C310.09,-114.98 328.53,-102.21 342.77,-92.35"/>
<polygon fill="midnightblue" stroke="midnightblue" points="344.77,-95.22 351,-86.65 340.78,-89.47 344.77,-95.22"/>
</g>
<!-- Node13 -->
<g id="node13" class="node">
<title>Node13</title>
<g id="a_node13"><a xlink:title=" ">
<polygon fill="white" stroke="#bfbfbf" points="265.5,-67.5 265.5,-86.5 321.5,-86.5 321.5,-67.5 265.5,-67.5"/>
<text text-anchor="middle" x="293.5" y="-74.5" font-family="Helvetica,sans-Serif" font-size="10.00">sstream</text>
</a>
</g>
</g>
<!-- Node12&#45;&gt;Node13 -->
<g id="edge16" class="edge">
<title>Node12&#45;&gt;Node13</title>
<path fill="none" stroke="midnightblue" d="M286.82,-123.08C287.88,-115.93 289.41,-105.64 290.73,-96.69"/>
<polygon fill="midnightblue" stroke="midnightblue" points="294.2,-97.16 292.2,-86.75 287.28,-96.13 294.2,-97.16"/>
</g>
</g>
</svg>
