<?xml version="1.0" encoding="UTF-8" standalone="no"?>
<!DOCTYPE svg PUBLIC "-//W3C//DTD SVG 1.1//EN"
 "http://www.w3.org/Graphics/SVG/1.1/DTD/svg11.dtd">
<!-- Generated by graphviz version 2.43.0 (0)
 -->
<!-- Title: Libs/TerrainGenerator/tests/testTerrainGenerator.cpp Pages: 1 -->
<svg width="740pt" height="386pt"
 viewBox="0.00 0.00 740.00 386.00" xmlns="http://www.w3.org/2000/svg" xmlns:xlink="http://www.w3.org/1999/xlink">
<g id="graph0" class="graph" transform="scale(1 1) rotate(0) translate(4 382)">
<title>Libs/TerrainGenerator/tests/testTerrainGenerator.cpp</title>
<polygon fill="white" stroke="transparent" points="-4,4 -4,-382 736,-382 736,4 -4,4"/>
<!-- Node1 -->
<g id="node1" class="node">
<title>Node1</title>
<g id="a_node1"><a xlink:title=" ">
<polygon fill="#bfbfbf" stroke="black" points="347,-347.5 347,-377.5 514,-377.5 514,-347.5 347,-347.5"/>
<text text-anchor="start" x="355" y="-365.5" font-family="Helvetica,sans-Serif" font-size="10.00">Libs/TerrainGenerator</text>
<text text-anchor="middle" x="430.5" y="-354.5" font-family="Helvetica,sans-Serif" font-size="10.00">/tests/testTerrainGenerator.cpp</text>
</a>
</g>
</g>
<!-- Node2 -->
<g id="node2" class="node">
<title>Node2</title>
<g id="a_node2"><a xlink:href="testTerrainGenerator_8hpp.html" target="_top" xlink:title=" ">
<polygon fill="white" stroke="black" points="214,-291.5 214,-310.5 351,-310.5 351,-291.5 214,-291.5"/>
<text text-anchor="middle" x="282.5" y="-298.5" font-family="Helvetica,sans-Serif" font-size="10.00">testTerrainGenerator.hpp</text>
</a>
</g>
</g>
<!-- Node1&#45;&gt;Node2 -->
<g id="edge1" class="edge">
<title>Node1&#45;&gt;Node2</title>
<path fill="none" stroke="midnightblue" d="M395.43,-347.4C370.48,-337.37 337.29,-324.03 313.36,-314.4"/>
<polygon fill="midnightblue" stroke="midnightblue" points="314.62,-311.14 304.04,-310.66 312.01,-317.64 314.62,-311.14"/>
</g>
<!-- Node12 -->
<g id="node12" class="node">
<title>Node12</title>
<g id="a_node12"><a xlink:title=" ">
<polygon fill="white" stroke="#bfbfbf" points="400.5,-6 400.5,-25 460.5,-25 460.5,-6 400.5,-6"/>
<text text-anchor="middle" x="430.5" y="-13" font-family="Helvetica,sans-Serif" font-size="10.00">iostream</text>
</a>
</g>
</g>
<!-- Node1&#45;&gt;Node12 -->
<g id="edge22" class="edge">
<title>Node1&#45;&gt;Node12</title>
<path fill="none" stroke="midnightblue" d="M430.5,-347.28C430.5,-325.48 430.5,-282.49 430.5,-246 430.5,-246 430.5,-246 430.5,-132 430.5,-97.86 430.5,-58.05 430.5,-35.21"/>
<polygon fill="midnightblue" stroke="midnightblue" points="434,-35.19 430.5,-25.19 427,-35.19 434,-35.19"/>
</g>
<!-- Node16 -->
<g id="node16" class="node">
<title>Node16</title>
<g id="a_node16"><a xlink:href="OSRedirector_8hpp.html" target="_top" xlink:title=" ">
<polygon fill="white" stroke="black" points="480,-291.5 480,-310.5 581,-310.5 581,-291.5 480,-291.5"/>
<text text-anchor="middle" x="530.5" y="-298.5" font-family="Helvetica,sans-Serif" font-size="10.00">OSRedirector.hpp</text>
</a>
</g>
</g>
<!-- Node1&#45;&gt;Node16 -->
<g id="edge18" class="edge">
<title>Node1&#45;&gt;Node16</title>
<path fill="none" stroke="midnightblue" d="M454.2,-347.4C470.23,-337.86 491.3,-325.32 507.24,-315.84"/>
<polygon fill="midnightblue" stroke="midnightblue" points="509.14,-318.78 515.95,-310.66 505.57,-312.76 509.14,-318.78"/>
</g>
<!-- Node3 -->
<g id="node3" class="node">
<title>Node3</title>
<g id="a_node3"><a xlink:href="TerrainGenerator_8hpp.html" target="_top" xlink:title=" ">
<polygon fill="white" stroke="black" points="204,-235.5 204,-254.5 323,-254.5 323,-235.5 204,-235.5"/>
<text text-anchor="middle" x="263.5" y="-242.5" font-family="Helvetica,sans-Serif" font-size="10.00">TerrainGenerator.hpp</text>
</a>
</g>
</g>
<!-- Node2&#45;&gt;Node3 -->
<g id="edge2" class="edge">
<title>Node2&#45;&gt;Node3</title>
<path fill="none" stroke="midnightblue" d="M279.36,-291.08C276.82,-283.85 273.14,-273.41 269.97,-264.4"/>
<polygon fill="midnightblue" stroke="midnightblue" points="273.2,-263.02 266.58,-254.75 266.6,-265.35 273.2,-263.02"/>
</g>
<!-- Node4 -->
<g id="node4" class="node">
<title>Node4</title>
<g id="a_node4"><a xlink:title=" ">
<polygon fill="white" stroke="#bfbfbf" points="152.5,-179.5 152.5,-198.5 196.5,-198.5 196.5,-179.5 152.5,-179.5"/>
<text text-anchor="middle" x="174.5" y="-186.5" font-family="Helvetica,sans-Serif" font-size="10.00">string</text>
</a>
</g>
</g>
<!-- Node3&#45;&gt;Node4 -->
<g id="edge3" class="edge">
<title>Node3&#45;&gt;Node4</title>
<path fill="none" stroke="midnightblue" d="M249.2,-235.32C235.32,-226.9 214.01,-213.97 197.7,-204.07"/>
<polygon fill="midnightblue" stroke="midnightblue" points="199.13,-200.85 188.76,-198.65 195.5,-206.83 199.13,-200.85"/>
</g>
<!-- Node5 -->
<g id="node5" class="node">
<title>Node5</title>
<g id="a_node5"><a xlink:title=" ">
<polygon fill="white" stroke="#bfbfbf" points="215,-179.5 215,-198.5 262,-198.5 262,-179.5 215,-179.5"/>
<text text-anchor="middle" x="238.5" y="-186.5" font-family="Helvetica,sans-Serif" font-size="10.00">vector</text>
</a>
</g>
</g>
<!-- Node3&#45;&gt;Node5 -->
<g id="edge4" class="edge">
<title>Node3&#45;&gt;Node5</title>
<path fill="none" stroke="midnightblue" d="M259.37,-235.08C255.99,-227.77 251.08,-217.18 246.88,-208.1"/>
<polygon fill="midnightblue" stroke="midnightblue" points="249.93,-206.36 242.55,-198.75 243.58,-209.3 249.93,-206.36"/>
</g>
<!-- Node6 -->
<g id="node6" class="node">
<title>Node6</title>
<g id="a_node6"><a xlink:href="Vector2_8hpp.html" target="_top" xlink:title=" ">
<polygon fill="white" stroke="black" points="280.5,-179.5 280.5,-198.5 354.5,-198.5 354.5,-179.5 280.5,-179.5"/>
<text text-anchor="middle" x="317.5" y="-186.5" font-family="Helvetica,sans-Serif" font-size="10.00">Vector2.hpp</text>
</a>
</g>
</g>
<!-- Node3&#45;&gt;Node6 -->
<g id="edge5" class="edge">
<title>Node3&#45;&gt;Node6</title>
<path fill="none" stroke="midnightblue" d="M272.42,-235.08C280.28,-227.22 291.93,-215.57 301.42,-206.08"/>
<polygon fill="midnightblue" stroke="midnightblue" points="304.15,-208.3 308.75,-198.75 299.2,-203.35 304.15,-208.3"/>
</g>
<!-- Node7 -->
<g id="node7" class="node">
<title>Node7</title>
<g id="a_node7"><a xlink:title=" ">
<polygon fill="white" stroke="#bfbfbf" points="284,-67.5 284,-86.5 337,-86.5 337,-67.5 284,-67.5"/>
<text text-anchor="middle" x="310.5" y="-74.5" font-family="Helvetica,sans-Serif" font-size="10.00">raylib.h</text>
</a>
</g>
</g>
<!-- Node6&#45;&gt;Node7 -->
<g id="edge6" class="edge">
<title>Node6&#45;&gt;Node7</title>
<path fill="none" stroke="midnightblue" d="M316.95,-179.37C315.82,-161.62 313.22,-120.67 311.68,-96.6"/>
<polygon fill="midnightblue" stroke="midnightblue" points="315.17,-96.35 311.05,-86.59 308.19,-96.79 315.17,-96.35"/>
</g>
<!-- Node8 -->
<g id="node8" class="node">
<title>Node8</title>
<g id="a_node8"><a xlink:title=" ">
<polygon fill="white" stroke="#bfbfbf" points="355,-67.5 355,-86.5 402,-86.5 402,-67.5 355,-67.5"/>
<text text-anchor="middle" x="378.5" y="-74.5" font-family="Helvetica,sans-Serif" font-size="10.00">cmath</text>
</a>
</g>
</g>
<!-- Node6&#45;&gt;Node8 -->
<g id="edge7" class="edge">
<title>Node6&#45;&gt;Node8</title>
<path fill="none" stroke="midnightblue" d="M322.29,-179.37C332.26,-161.38 355.46,-119.55 368.73,-95.63"/>
<polygon fill="midnightblue" stroke="midnightblue" points="371.95,-97.03 373.74,-86.59 365.83,-93.64 371.95,-97.03"/>
</g>
<!-- Node9 -->
<g id="node9" class="node">
<title>Node9</title>
<g id="a_node9"><a xlink:href="Vector3_8hpp.html" target="_top" xlink:title=" ">
<polygon fill="white" stroke="black" points="215.5,-123.5 215.5,-142.5 289.5,-142.5 289.5,-123.5 215.5,-123.5"/>
<text text-anchor="middle" x="252.5" y="-130.5" font-family="Helvetica,sans-Serif" font-size="10.00">Vector3.hpp</text>
</a>
</g>
</g>
<!-- Node6&#45;&gt;Node9 -->
<g id="edge8" class="edge">
<title>Node6&#45;&gt;Node9</title>
<path fill="none" stroke="midnightblue" d="M307.06,-179.32C297.35,-171.26 282.68,-159.08 271,-149.37"/>
<polygon fill="midnightblue" stroke="midnightblue" points="273.06,-146.53 263.13,-142.83 268.59,-151.92 273.06,-146.53"/>
</g>
<!-- Node10 -->
<g id="node10" class="node">
<title>Node10</title>
<g id="a_node10"><a xlink:href="IXMLSerializable_8hpp.html" target="_top" xlink:title=" ">
<polygon fill="white" stroke="black" points="72,-67.5 72,-86.5 191,-86.5 191,-67.5 72,-67.5"/>
<text text-anchor="middle" x="131.5" y="-74.5" font-family="Helvetica,sans-Serif" font-size="10.00">IXMLSerializable.hpp</text>
</a>
</g>
</g>
<!-- Node6&#45;&gt;Node10 -->
<g id="edge17" class="edge">
<title>Node6&#45;&gt;Node10</title>
<path fill="none" stroke="midnightblue" d="M289.38,-179.47C266.19,-171.77 232.92,-159.18 206.5,-143 183.69,-129.03 160.96,-108.1 146.61,-93.79"/>
<polygon fill="midnightblue" stroke="midnightblue" points="149.05,-91.28 139.55,-86.6 144.06,-96.19 149.05,-91.28"/>
</g>
<!-- Node9&#45;&gt;Node7 -->
<g id="edge9" class="edge">
<title>Node9&#45;&gt;Node7</title>
<path fill="none" stroke="midnightblue" d="M261.82,-123.32C270.39,-115.34 283.31,-103.31 293.69,-93.65"/>
<polygon fill="midnightblue" stroke="midnightblue" points="296.08,-96.21 301.01,-86.83 291.31,-91.09 296.08,-96.21"/>
</g>
<!-- Node9&#45;&gt;Node8 -->
<g id="edge15" class="edge">
<title>Node9&#45;&gt;Node8</title>
<path fill="none" stroke="midnightblue" d="M272.47,-123.44C293.11,-114.6 325.56,-100.69 349.13,-90.59"/>
<polygon fill="midnightblue" stroke="midnightblue" points="350.82,-93.67 358.63,-86.52 348.06,-87.24 350.82,-93.67"/>
</g>
<!-- Node9&#45;&gt;Node10 -->
<g id="edge10" class="edge">
<title>Node9&#45;&gt;Node10</title>
<path fill="none" stroke="midnightblue" d="M233.33,-123.44C213.59,-114.64 182.61,-100.81 160.01,-90.72"/>
<polygon fill="midnightblue" stroke="midnightblue" points="161.14,-87.4 150.58,-86.52 158.29,-93.79 161.14,-87.4"/>
</g>
<!-- Node15 -->
<g id="node15" class="node">
<title>Node15</title>
<g id="a_node15"><a xlink:title=" ">
<polygon fill="white" stroke="#bfbfbf" points="209.5,-67.5 209.5,-86.5 265.5,-86.5 265.5,-67.5 209.5,-67.5"/>
<text text-anchor="middle" x="237.5" y="-74.5" font-family="Helvetica,sans-Serif" font-size="10.00">sstream</text>
</a>
</g>
</g>
<!-- Node9&#45;&gt;Node15 -->
<g id="edge16" class="edge">
<title>Node9&#45;&gt;Node15</title>
<path fill="none" stroke="midnightblue" d="M250.02,-123.08C248.01,-115.85 245.11,-105.41 242.61,-96.4"/>
<polygon fill="midnightblue" stroke="midnightblue" points="245.98,-95.45 239.93,-86.75 239.24,-97.32 245.98,-95.45"/>
</g>
<!-- Node11 -->
<g id="node11" class="node">
<title>Node11</title>
<g id="a_node11"><a xlink:title=" ">
<polygon fill="white" stroke="#bfbfbf" points="0,-6 0,-25 57,-25 57,-6 0,-6"/>
<text text-anchor="middle" x="28.5" y="-13" font-family="Helvetica,sans-Serif" font-size="10.00">ostream</text>
</a>
</g>
</g>
<!-- Node10&#45;&gt;Node11 -->
<g id="edge11" class="edge">
<title>Node10&#45;&gt;Node11</title>
<path fill="none" stroke="midnightblue" d="M116.74,-67.48C99.84,-57.71 71.92,-41.58 52.01,-30.08"/>
<polygon fill="midnightblue" stroke="midnightblue" points="53.64,-26.98 43.23,-25.01 50.14,-33.04 53.64,-26.98"/>
</g>
<!-- Node10&#45;&gt;Node12 -->
<g id="edge12" class="edge">
<title>Node10&#45;&gt;Node12</title>
<path fill="none" stroke="midnightblue" d="M174.34,-67.48C232.11,-55.98 334.2,-35.66 390.48,-24.46"/>
<polygon fill="midnightblue" stroke="midnightblue" points="391.31,-27.87 400.44,-22.48 389.95,-21 391.31,-27.87"/>
</g>
<!-- Node13 -->
<g id="node13" class="node">
<title>Node13</title>
<g id="a_node13"><a xlink:title=" ">
<polygon fill="white" stroke="#bfbfbf" points="75,-0.5 75,-30.5 188,-30.5 188,-0.5 75,-0.5"/>
<text text-anchor="start" x="83" y="-18.5" font-family="Helvetica,sans-Serif" font-size="10.00">boost/property_tree</text>
<text text-anchor="middle" x="131.5" y="-7.5" font-family="Helvetica,sans-Serif" font-size="10.00">/ptree.hpp</text>
</a>
</g>
</g>
<!-- Node10&#45;&gt;Node13 -->
<g id="edge13" class="edge">
<title>Node10&#45;&gt;Node13</title>
<path fill="none" stroke="midnightblue" d="M131.5,-67.48C131.5,-60.47 131.5,-50.19 131.5,-40.7"/>
<polygon fill="midnightblue" stroke="midnightblue" points="135,-40.52 131.5,-30.52 128,-40.52 135,-40.52"/>
</g>
<!-- Node14 -->
<g id="node14" class="node">
<title>Node14</title>
<g id="a_node14"><a xlink:title=" ">
<polygon fill="white" stroke="#bfbfbf" points="206,-0.5 206,-30.5 319,-30.5 319,-0.5 206,-0.5"/>
<text text-anchor="start" x="214" y="-18.5" font-family="Helvetica,sans-Serif" font-size="10.00">boost/property_tree</text>
<text text-anchor="middle" x="262.5" y="-7.5" font-family="Helvetica,sans-Serif" font-size="10.00">/xml_parser.hpp</text>
</a>
</g>
</g>
<!-- Node10&#45;&gt;Node14 -->
<g id="edge14" class="edge">
<title>Node10&#45;&gt;Node14</title>
<path fill="none" stroke="midnightblue" d="M150.27,-67.48C169.01,-58.96 198.39,-45.62 222.39,-34.72"/>
<polygon fill="midnightblue" stroke="midnightblue" points="223.97,-37.85 231.63,-30.52 221.07,-31.47 223.97,-37.85"/>
</g>
<!-- Node16&#45;&gt;Node12 -->
<g id="edge19" class="edge">
<title>Node16&#45;&gt;Node12</title>
<path fill="none" stroke="midnightblue" d="M519.8,-291.45C510.05,-283.12 495.93,-269.6 487.5,-255 472.45,-228.93 468.5,-220.1 468.5,-190 468.5,-190 468.5,-190 468.5,-132 468.5,-95.75 451.41,-56.17 440.15,-34.03"/>
<polygon fill="midnightblue" stroke="midnightblue" points="443.23,-32.37 435.47,-25.16 437.04,-35.64 443.23,-32.37"/>
</g>
<!-- Node17 -->
<g id="node17" class="node">
<title>Node17</title>
<g id="a_node17"><a xlink:title=" ">
<polygon fill="white" stroke="#bfbfbf" points="496.5,-235.5 496.5,-254.5 606.5,-254.5 606.5,-235.5 496.5,-235.5"/>
<text text-anchor="middle" x="551.5" y="-242.5" font-family="Helvetica,sans-Serif" font-size="10.00">criterion/criterion.h</text>
</a>
</g>
</g>
<!-- Node16&#45;&gt;Node17 -->
<g id="edge20" class="edge">
<title>Node16&#45;&gt;Node17</title>
<path fill="none" stroke="midnightblue" d="M533.97,-291.08C536.81,-283.77 540.93,-273.18 544.46,-264.1"/>
<polygon fill="midnightblue" stroke="midnightblue" points="547.73,-265.34 548.1,-254.75 541.21,-262.8 547.73,-265.34"/>
</g>
<!-- Node18 -->
<g id="node18" class="node">
<title>Node18</title>
<g id="a_node18"><a xlink:title=" ">
<polygon fill="white" stroke="#bfbfbf" points="625,-235.5 625,-254.5 732,-254.5 732,-235.5 625,-235.5"/>
<text text-anchor="middle" x="678.5" y="-242.5" font-family="Helvetica,sans-Serif" font-size="10.00">criterion/redirect.h</text>
</a>
</g>
</g>
<!-- Node16&#45;&gt;Node18 -->
<g id="edge21" class="edge">
<title>Node16&#45;&gt;Node18</title>
<path fill="none" stroke="midnightblue" d="M553.95,-291.44C578.63,-282.44 617.69,-268.19 645.48,-258.05"/>
<polygon fill="midnightblue" stroke="midnightblue" points="646.96,-261.23 655.16,-254.52 644.56,-254.66 646.96,-261.23"/>
</g>
</g>
</svg>
