<?xml version="1.0" encoding="UTF-8" standalone="no"?>
<!DOCTYPE svg PUBLIC "-//W3C//DTD SVG 1.1//EN"
 "http://www.w3.org/Graphics/SVG/1.1/DTD/svg11.dtd">
<!-- Generated by graphviz version 2.43.0 (0)
 -->
<!-- Title: Libs/Engine/tests/testEntitySerializer.cpp Pages: 1 -->
<svg width="1238pt" height="498pt"
 viewBox="0.00 0.00 1237.84 498.00" xmlns="http://www.w3.org/2000/svg" xmlns:xlink="http://www.w3.org/1999/xlink">
<g id="graph0" class="graph" transform="scale(1 1) rotate(0) translate(4 494)">
<title>Libs/Engine/tests/testEntitySerializer.cpp</title>
<polygon fill="white" stroke="transparent" points="-4,4 -4,-494 1233.84,-494 1233.84,4 -4,4"/>
<!-- Node1 -->
<g id="node1" class="node">
<title>Node1</title>
<g id="a_node1"><a xlink:title=" ">
<polygon fill="#bfbfbf" stroke="black" points="825.34,-459.5 825.34,-489.5 974.34,-489.5 974.34,-459.5 825.34,-459.5"/>
<text text-anchor="start" x="833.34" y="-477.5" font-family="Helvetica,sans-Serif" font-size="10.00">Libs/Engine/tests/testEntity</text>
<text text-anchor="middle" x="899.84" y="-466.5" font-family="Helvetica,sans-Serif" font-size="10.00">Serializer.cpp</text>
</a>
</g>
</g>
<!-- Node2 -->
<g id="node2" class="node">
<title>Node2</title>
<g id="a_node2"><a xlink:title=" ">
<polygon fill="white" stroke="#bfbfbf" points="426.84,-403.5 426.84,-422.5 536.84,-422.5 536.84,-403.5 426.84,-403.5"/>
<text text-anchor="middle" x="481.84" y="-410.5" font-family="Helvetica,sans-Serif" font-size="10.00">criterion/criterion.h</text>
</a>
</g>
</g>
<!-- Node1&#45;&gt;Node2 -->
<g id="edge1" class="edge">
<title>Node1&#45;&gt;Node2</title>
<path fill="none" stroke="midnightblue" d="M825.11,-462.86C746.05,-451.61 622.54,-434.03 547.22,-423.31"/>
<polygon fill="midnightblue" stroke="midnightblue" points="547.31,-419.79 536.92,-421.84 546.33,-426.72 547.31,-419.79"/>
</g>
<!-- Node3 -->
<g id="node3" class="node">
<title>Node3</title>
<g id="a_node3"><a xlink:href="Vector3_8hpp.html" target="_top" xlink:title=" ">
<polygon fill="white" stroke="black" points="769.84,-123.5 769.84,-142.5 843.84,-142.5 843.84,-123.5 769.84,-123.5"/>
<text text-anchor="middle" x="806.84" y="-130.5" font-family="Helvetica,sans-Serif" font-size="10.00">Vector3.hpp</text>
</a>
</g>
</g>
<!-- Node1&#45;&gt;Node3 -->
<g id="edge2" class="edge">
<title>Node1&#45;&gt;Node3</title>
<path fill="none" stroke="midnightblue" d="M908.96,-459.19C921.58,-437.97 942.84,-396.51 942.84,-358 942.84,-358 942.84,-358 942.84,-244 942.84,-193.08 884.49,-161.67 844.23,-146.06"/>
<polygon fill="midnightblue" stroke="midnightblue" points="845.28,-142.72 834.69,-142.52 842.84,-149.28 845.28,-142.72"/>
</g>
<!-- Node5 -->
<g id="node5" class="node">
<title>Node5</title>
<g id="a_node5"><a xlink:href="IXMLSerializable_8hpp.html" target="_top" xlink:title=" ">
<polygon fill="white" stroke="black" points="917.34,-67.5 917.34,-86.5 1036.34,-86.5 1036.34,-67.5 917.34,-67.5"/>
<text text-anchor="middle" x="976.84" y="-74.5" font-family="Helvetica,sans-Serif" font-size="10.00">IXMLSerializable.hpp</text>
</a>
</g>
</g>
<!-- Node1&#45;&gt;Node5 -->
<g id="edge11" class="edge">
<title>Node1&#45;&gt;Node5</title>
<path fill="none" stroke="midnightblue" d="M918.62,-459.34C942.55,-439.53 980.84,-401.11 980.84,-358 980.84,-358 980.84,-358 980.84,-244 980.84,-190.58 978.74,-127.51 977.58,-96.75"/>
<polygon fill="midnightblue" stroke="midnightblue" points="981.08,-96.5 977.19,-86.64 974.08,-96.77 981.08,-96.5"/>
</g>
<!-- Node7 -->
<g id="node7" class="node">
<title>Node7</title>
<g id="a_node7"><a xlink:title=" ">
<polygon fill="white" stroke="#bfbfbf" points="1169.84,-6 1169.84,-25 1229.84,-25 1229.84,-6 1169.84,-6"/>
<text text-anchor="middle" x="1199.84" y="-13" font-family="Helvetica,sans-Serif" font-size="10.00">iostream</text>
</a>
</g>
</g>
<!-- Node1&#45;&gt;Node7 -->
<g id="edge18" class="edge">
<title>Node1&#45;&gt;Node7</title>
<path fill="none" stroke="midnightblue" d="M974.54,-460.71C1065.42,-442.99 1206.84,-407.47 1206.84,-358 1206.84,-358 1206.84,-358 1206.84,-132 1206.84,-97.8 1203.74,-58.01 1201.67,-35.19"/>
<polygon fill="midnightblue" stroke="midnightblue" points="1205.15,-34.81 1200.72,-25.18 1198.18,-35.47 1205.15,-34.81"/>
</g>
<!-- Node12 -->
<g id="node12" class="node">
<title>Node12</title>
<g id="a_node12"><a xlink:href="Transform_8hpp.html" target="_top" xlink:title=" ">
<polygon fill="white" stroke="black" points="1008.84,-179.5 1008.84,-198.5 1094.84,-198.5 1094.84,-179.5 1008.84,-179.5"/>
<text text-anchor="middle" x="1051.84" y="-186.5" font-family="Helvetica,sans-Serif" font-size="10.00">Transform.hpp</text>
</a>
</g>
</g>
<!-- Node1&#45;&gt;Node12 -->
<g id="edge12" class="edge">
<title>Node1&#45;&gt;Node12</title>
<path fill="none" stroke="midnightblue" d="M938.88,-459.39C978.75,-442.16 1034.84,-408.89 1034.84,-358 1034.84,-358 1034.84,-358 1034.84,-300 1034.84,-267.58 1042.14,-230.42 1047.17,-208.64"/>
<polygon fill="midnightblue" stroke="midnightblue" points="1050.61,-209.31 1049.54,-198.77 1043.8,-207.67 1050.61,-209.31"/>
</g>
<!-- Node15 -->
<g id="node15" class="node">
<title>Node15</title>
<g id="a_node15"><a xlink:href="Texture_8hpp.html" target="_top" xlink:title=" ">
<polygon fill="white" stroke="black" points="387.84,-291.5 387.84,-310.5 461.84,-310.5 461.84,-291.5 387.84,-291.5"/>
<text text-anchor="middle" x="424.84" y="-298.5" font-family="Helvetica,sans-Serif" font-size="10.00">Texture.hpp</text>
</a>
</g>
</g>
<!-- Node1&#45;&gt;Node15 -->
<g id="edge19" class="edge">
<title>Node1&#45;&gt;Node15</title>
<path fill="none" stroke="midnightblue" d="M825.33,-463.36C776.73,-455.43 712.41,-442.45 657.84,-423 575.98,-393.83 486.82,-341 446.63,-315.93"/>
<polygon fill="midnightblue" stroke="midnightblue" points="448.49,-312.96 438.16,-310.6 444.76,-318.88 448.49,-312.96"/>
</g>
<!-- Node24 -->
<g id="node24" class="node">
<title>Node24</title>
<g id="a_node24"><a xlink:href="Model_8hpp.html" target="_top" xlink:title=" ">
<polygon fill="white" stroke="black" points="630.84,-347.5 630.84,-366.5 698.84,-366.5 698.84,-347.5 630.84,-347.5"/>
<text text-anchor="middle" x="664.84" y="-354.5" font-family="Helvetica,sans-Serif" font-size="10.00">Model.hpp</text>
</a>
</g>
</g>
<!-- Node1&#45;&gt;Node24 -->
<g id="edge45" class="edge">
<title>Node1&#45;&gt;Node24</title>
<path fill="none" stroke="midnightblue" d="M871.36,-459.43C842.51,-445.18 796.59,-422.52 756.84,-403 734.92,-392.24 710.04,-380.07 691.69,-371.11"/>
<polygon fill="midnightblue" stroke="midnightblue" points="693,-367.85 682.48,-366.61 689.93,-374.14 693,-367.85"/>
</g>
<!-- Node30 -->
<g id="node30" class="node">
<title>Node30</title>
<g id="a_node30"><a xlink:href="Renderer_8hpp.html" target="_top" xlink:title=" ">
<polygon fill="white" stroke="black" points="666.34,-403.5 666.34,-422.5 747.34,-422.5 747.34,-403.5 666.34,-403.5"/>
<text text-anchor="middle" x="706.84" y="-410.5" font-family="Helvetica,sans-Serif" font-size="10.00">Renderer.hpp</text>
</a>
</g>
</g>
<!-- Node1&#45;&gt;Node30 -->
<g id="edge66" class="edge">
<title>Node1&#45;&gt;Node30</title>
<path fill="none" stroke="midnightblue" d="M854.1,-459.4C820.6,-449.07 775.7,-435.23 744.32,-425.56"/>
<polygon fill="midnightblue" stroke="midnightblue" points="745.23,-422.17 734.64,-422.57 743.16,-428.86 745.23,-422.17"/>
</g>
<!-- Node4 -->
<g id="node4" class="node">
<title>Node4</title>
<g id="a_node4"><a xlink:title=" ">
<polygon fill="white" stroke="#bfbfbf" points="425.34,-67.5 425.34,-86.5 478.34,-86.5 478.34,-67.5 425.34,-67.5"/>
<text text-anchor="middle" x="451.84" y="-74.5" font-family="Helvetica,sans-Serif" font-size="10.00">raylib.h</text>
</a>
</g>
</g>
<!-- Node3&#45;&gt;Node4 -->
<g id="edge3" class="edge">
<title>Node3&#45;&gt;Node4</title>
<path fill="none" stroke="midnightblue" d="M769.52,-126.32C701.25,-115.94 557.03,-94 488.93,-83.64"/>
<polygon fill="midnightblue" stroke="midnightblue" points="489.09,-80.13 478.68,-82.08 488.04,-87.05 489.09,-80.13"/>
</g>
<!-- Node3&#45;&gt;Node5 -->
<g id="edge4" class="edge">
<title>Node3&#45;&gt;Node5</title>
<path fill="none" stroke="midnightblue" d="M833.77,-123.44C862.5,-114.32 908.16,-99.81 940.16,-89.65"/>
<polygon fill="midnightblue" stroke="midnightblue" points="941.55,-92.88 950.03,-86.52 939.44,-86.21 941.55,-92.88"/>
</g>
<!-- Node10 -->
<g id="node10" class="node">
<title>Node10</title>
<g id="a_node10"><a xlink:title=" ">
<polygon fill="white" stroke="#bfbfbf" points="691.34,-67.5 691.34,-86.5 738.34,-86.5 738.34,-67.5 691.34,-67.5"/>
<text text-anchor="middle" x="714.84" y="-74.5" font-family="Helvetica,sans-Serif" font-size="10.00">cmath</text>
</a>
</g>
</g>
<!-- Node3&#45;&gt;Node10 -->
<g id="edge9" class="edge">
<title>Node3&#45;&gt;Node10</title>
<path fill="none" stroke="midnightblue" d="M792.05,-123.32C777.57,-114.82 755.26,-101.73 738.34,-91.8"/>
<polygon fill="midnightblue" stroke="midnightblue" points="739.98,-88.7 729.58,-86.65 736.43,-94.74 739.98,-88.7"/>
</g>
<!-- Node11 -->
<g id="node11" class="node">
<title>Node11</title>
<g id="a_node11"><a xlink:title=" ">
<polygon fill="white" stroke="#bfbfbf" points="778.84,-67.5 778.84,-86.5 834.84,-86.5 834.84,-67.5 778.84,-67.5"/>
<text text-anchor="middle" x="806.84" y="-74.5" font-family="Helvetica,sans-Serif" font-size="10.00">sstream</text>
</a>
</g>
</g>
<!-- Node3&#45;&gt;Node11 -->
<g id="edge10" class="edge">
<title>Node3&#45;&gt;Node11</title>
<path fill="none" stroke="midnightblue" d="M806.84,-123.08C806.84,-116.01 806.84,-105.86 806.84,-96.99"/>
<polygon fill="midnightblue" stroke="midnightblue" points="810.34,-96.75 806.84,-86.75 803.34,-96.75 810.34,-96.75"/>
</g>
<!-- Node6 -->
<g id="node6" class="node">
<title>Node6</title>
<g id="a_node6"><a xlink:title=" ">
<polygon fill="white" stroke="#bfbfbf" points="1081.34,-6 1081.34,-25 1138.34,-25 1138.34,-6 1081.34,-6"/>
<text text-anchor="middle" x="1109.84" y="-13" font-family="Helvetica,sans-Serif" font-size="10.00">ostream</text>
</a>
</g>
</g>
<!-- Node5&#45;&gt;Node6 -->
<g id="edge5" class="edge">
<title>Node5&#45;&gt;Node6</title>
<path fill="none" stroke="midnightblue" d="M995.89,-67.48C1018.31,-57.45 1055.74,-40.7 1081.55,-29.15"/>
<polygon fill="midnightblue" stroke="midnightblue" points="1083.12,-32.29 1090.82,-25.01 1080.26,-25.9 1083.12,-32.29"/>
</g>
<!-- Node5&#45;&gt;Node7 -->
<g id="edge6" class="edge">
<title>Node5&#45;&gt;Node7</title>
<path fill="none" stroke="midnightblue" d="M1009.98,-67.43C1044.45,-58.48 1099.98,-43.97 1147.84,-31 1151.69,-29.95 1155.71,-28.85 1159.73,-27.75"/>
<polygon fill="midnightblue" stroke="midnightblue" points="1160.91,-31.05 1169.61,-25.01 1159.04,-24.31 1160.91,-31.05"/>
</g>
<!-- Node8 -->
<g id="node8" class="node">
<title>Node8</title>
<g id="a_node8"><a xlink:title=" ">
<polygon fill="white" stroke="#bfbfbf" points="792.34,-0.5 792.34,-30.5 905.34,-30.5 905.34,-0.5 792.34,-0.5"/>
<text text-anchor="start" x="800.34" y="-18.5" font-family="Helvetica,sans-Serif" font-size="10.00">boost/property_tree</text>
<text text-anchor="middle" x="848.84" y="-7.5" font-family="Helvetica,sans-Serif" font-size="10.00">/ptree.hpp</text>
</a>
</g>
</g>
<!-- Node5&#45;&gt;Node8 -->
<g id="edge7" class="edge">
<title>Node5&#45;&gt;Node8</title>
<path fill="none" stroke="midnightblue" d="M958.5,-67.48C940.27,-59 911.73,-45.74 888.34,-34.86"/>
<polygon fill="midnightblue" stroke="midnightblue" points="889.55,-31.56 879,-30.52 886.6,-37.91 889.55,-31.56"/>
</g>
<!-- Node9 -->
<g id="node9" class="node">
<title>Node9</title>
<g id="a_node9"><a xlink:title=" ">
<polygon fill="white" stroke="#bfbfbf" points="923.34,-0.5 923.34,-30.5 1036.34,-30.5 1036.34,-0.5 923.34,-0.5"/>
<text text-anchor="start" x="931.34" y="-18.5" font-family="Helvetica,sans-Serif" font-size="10.00">boost/property_tree</text>
<text text-anchor="middle" x="979.84" y="-7.5" font-family="Helvetica,sans-Serif" font-size="10.00">/xml_parser.hpp</text>
</a>
</g>
</g>
<!-- Node5&#45;&gt;Node9 -->
<g id="edge8" class="edge">
<title>Node5&#45;&gt;Node9</title>
<path fill="none" stroke="midnightblue" d="M977.27,-67.48C977.62,-60.47 978.14,-50.19 978.62,-40.7"/>
<polygon fill="midnightblue" stroke="midnightblue" points="982.12,-40.69 979.13,-30.52 975.13,-40.33 982.12,-40.69"/>
</g>
<!-- Node12&#45;&gt;Node3 -->
<g id="edge17" class="edge">
<title>Node12&#45;&gt;Node3</title>
<path fill="none" stroke="midnightblue" d="M1013.02,-179.44C969.77,-169.91 899.88,-154.51 853.65,-144.32"/>
<polygon fill="midnightblue" stroke="midnightblue" points="854.39,-140.9 843.87,-142.16 852.88,-147.73 854.39,-140.9"/>
</g>
<!-- Node13 -->
<g id="node13" class="node">
<title>Node13</title>
<g id="a_node13"><a xlink:title=" ">
<polygon fill="white" stroke="#bfbfbf" points="1000.84,-123.5 1000.84,-142.5 1062.84,-142.5 1062.84,-123.5 1000.84,-123.5"/>
<text text-anchor="middle" x="1031.84" y="-130.5" font-family="Helvetica,sans-Serif" font-size="10.00">cinttypes</text>
</a>
</g>
</g>
<!-- Node12&#45;&gt;Node13 -->
<g id="edge13" class="edge">
<title>Node12&#45;&gt;Node13</title>
<path fill="none" stroke="midnightblue" d="M1048.53,-179.08C1045.85,-171.85 1041.99,-161.41 1038.65,-152.4"/>
<polygon fill="midnightblue" stroke="midnightblue" points="1041.83,-150.91 1035.08,-142.75 1035.27,-153.34 1041.83,-150.91"/>
</g>
<!-- Node14 -->
<g id="node14" class="node">
<title>Node14</title>
<g id="a_node14"><a xlink:href="IComponent_8hpp.html" target="_top" xlink:title=" ">
<polygon fill="white" stroke="black" points="1081.34,-123.5 1081.34,-142.5 1178.34,-142.5 1178.34,-123.5 1081.34,-123.5"/>
<text text-anchor="middle" x="1129.84" y="-130.5" font-family="Helvetica,sans-Serif" font-size="10.00">IComponent.hpp</text>
</a>
</g>
</g>
<!-- Node12&#45;&gt;Node14 -->
<g id="edge14" class="edge">
<title>Node12&#45;&gt;Node14</title>
<path fill="none" stroke="midnightblue" d="M1064.37,-179.32C1076.42,-170.98 1094.86,-158.21 1109.11,-148.35"/>
<polygon fill="midnightblue" stroke="midnightblue" points="1111.11,-151.22 1117.34,-142.65 1107.12,-145.47 1111.11,-151.22"/>
</g>
<!-- Node14&#45;&gt;Node5 -->
<g id="edge16" class="edge">
<title>Node14&#45;&gt;Node5</title>
<path fill="none" stroke="midnightblue" d="M1105.59,-123.44C1079.97,-114.4 1039.35,-100.06 1010.6,-89.92"/>
<polygon fill="midnightblue" stroke="midnightblue" points="1011.56,-86.54 1000.97,-86.52 1009.23,-93.15 1011.56,-86.54"/>
</g>
<!-- Node14&#45;&gt;Node6 -->
<g id="edge15" class="edge">
<title>Node14&#45;&gt;Node6</title>
<path fill="none" stroke="midnightblue" d="M1128.33,-123.32C1125.12,-104.76 1117.51,-60.84 1113.12,-35.47"/>
<polygon fill="midnightblue" stroke="midnightblue" points="1116.51,-34.54 1111.36,-25.28 1109.61,-35.73 1116.51,-34.54"/>
</g>
<!-- Node15&#45;&gt;Node4 -->
<g id="edge20" class="edge">
<title>Node15&#45;&gt;Node4</title>
<path fill="none" stroke="midnightblue" d="M387.68,-300.76C329.86,-300.24 227.1,-291.55 248.84,-235 272.88,-172.43 295.53,-162.29 349.84,-123 369.78,-108.57 395.09,-97.37 415.5,-89.76"/>
<polygon fill="midnightblue" stroke="midnightblue" points="416.86,-92.99 425.08,-86.31 414.49,-86.4 416.86,-92.99"/>
</g>
<!-- Node16 -->
<g id="node16" class="node">
<title>Node16</title>
<g id="a_node16"><a xlink:title=" ">
<polygon fill="white" stroke="#bfbfbf" points="68.84,-179.5 68.84,-198.5 112.84,-198.5 112.84,-179.5 68.84,-179.5"/>
<text text-anchor="middle" x="90.84" y="-186.5" font-family="Helvetica,sans-Serif" font-size="10.00">string</text>
</a>
</g>
</g>
<!-- Node15&#45;&gt;Node16 -->
<g id="edge21" class="edge">
<title>Node15&#45;&gt;Node16</title>
<path fill="none" stroke="midnightblue" d="M387.76,-295.08C345.32,-288.76 274.15,-276.01 215.84,-255 195.9,-247.82 145.7,-220.59 115.33,-203.73"/>
<polygon fill="midnightblue" stroke="midnightblue" points="116.66,-200.47 106.23,-198.66 113.26,-206.59 116.66,-200.47"/>
</g>
<!-- Node17 -->
<g id="node17" class="node">
<title>Node17</title>
<g id="a_node17"><a xlink:href="Image_8hpp.html" target="_top" xlink:title=" ">
<polygon fill="white" stroke="black" points="361.84,-235.5 361.84,-254.5 429.84,-254.5 429.84,-235.5 361.84,-235.5"/>
<text text-anchor="middle" x="395.84" y="-242.5" font-family="Helvetica,sans-Serif" font-size="10.00">Image.hpp</text>
</a>
</g>
</g>
<!-- Node15&#45;&gt;Node17 -->
<g id="edge22" class="edge">
<title>Node15&#45;&gt;Node17</title>
<path fill="none" stroke="midnightblue" d="M420.05,-291.08C416.08,-283.69 410.31,-272.95 405.4,-263.81"/>
<polygon fill="midnightblue" stroke="midnightblue" points="408.35,-261.91 400.54,-254.75 402.18,-265.22 408.35,-261.91"/>
</g>
<!-- Node18 -->
<g id="node18" class="node">
<title>Node18</title>
<g id="a_node18"><a xlink:href="Color_8hpp.html" target="_top" xlink:title=" ">
<polygon fill="white" stroke="black" points="420.84,-179.5 420.84,-198.5 482.84,-198.5 482.84,-179.5 420.84,-179.5"/>
<text text-anchor="middle" x="451.84" y="-186.5" font-family="Helvetica,sans-Serif" font-size="10.00">Color.hpp</text>
</a>
</g>
</g>
<!-- Node15&#45;&gt;Node18 -->
<g id="edge33" class="edge">
<title>Node15&#45;&gt;Node18</title>
<path fill="none" stroke="midnightblue" d="M427.79,-291.45C430.83,-282.45 435.56,-267.84 438.84,-255 442.75,-239.65 446.21,-222.01 448.58,-208.98"/>
<polygon fill="midnightblue" stroke="midnightblue" points="452.07,-209.35 450.36,-198.9 445.17,-208.14 452.07,-209.35"/>
</g>
<!-- Node19 -->
<g id="node19" class="node">
<title>Node19</title>
<g id="a_node19"><a xlink:href="Vector2_8hpp.html" target="_top" xlink:title=" ">
<polygon fill="white" stroke="black" points="614.84,-179.5 614.84,-198.5 688.84,-198.5 688.84,-179.5 614.84,-179.5"/>
<text text-anchor="middle" x="651.84" y="-186.5" font-family="Helvetica,sans-Serif" font-size="10.00">Vector2.hpp</text>
</a>
</g>
</g>
<!-- Node15&#45;&gt;Node19 -->
<g id="edge34" class="edge">
<title>Node15&#45;&gt;Node19</title>
<path fill="none" stroke="midnightblue" d="M442.65,-291.37C482.26,-272.17 577.87,-225.84 624.86,-203.07"/>
<polygon fill="midnightblue" stroke="midnightblue" points="626.63,-206.1 634.11,-198.59 623.58,-199.8 626.63,-206.1"/>
</g>
<!-- Node20 -->
<g id="node20" class="node">
<title>Node20</title>
<g id="a_node20"><a xlink:href="Camera3D_8hpp.html" target="_top" xlink:title=" ">
<polygon fill="white" stroke="black" points="744.34,-235.5 744.34,-254.5 833.34,-254.5 833.34,-235.5 744.34,-235.5"/>
<text text-anchor="middle" x="788.84" y="-242.5" font-family="Helvetica,sans-Serif" font-size="10.00">Camera3D.hpp</text>
</a>
</g>
</g>
<!-- Node15&#45;&gt;Node20 -->
<g id="edge35" class="edge">
<title>Node15&#45;&gt;Node20</title>
<path fill="none" stroke="midnightblue" d="M461.96,-292.56C464.96,-292.01 467.95,-291.49 470.84,-291 562.89,-275.49 670.56,-261.02 734.04,-252.86"/>
<polygon fill="midnightblue" stroke="midnightblue" points="734.74,-256.3 744.22,-251.56 733.86,-249.36 734.74,-256.3"/>
</g>
<!-- Node22 -->
<g id="node22" class="node">
<title>Node22</title>
<g id="a_node22"><a xlink:href="Rectangle_8hpp.html" target="_top" xlink:title=" ">
<polygon fill="white" stroke="black" points="257.84,-235.5 257.84,-254.5 343.84,-254.5 343.84,-235.5 257.84,-235.5"/>
<text text-anchor="middle" x="300.84" y="-242.5" font-family="Helvetica,sans-Serif" font-size="10.00">Rectangle.hpp</text>
</a>
</g>
</g>
<!-- Node15&#45;&gt;Node22 -->
<g id="edge41" class="edge">
<title>Node15&#45;&gt;Node22</title>
<path fill="none" stroke="midnightblue" d="M405.19,-291.44C384.87,-282.6 352.93,-268.69 329.74,-258.59"/>
<polygon fill="midnightblue" stroke="midnightblue" points="330.96,-255.3 320.39,-254.52 328.16,-261.72 330.96,-255.3"/>
</g>
<!-- Node23 -->
<g id="node23" class="node">
<title>Node23</title>
<g id="a_node23"><a xlink:href="IAsset_8hpp.html" target="_top" xlink:title=" ">
<polygon fill="white" stroke="black" points="95.84,-235.5 95.84,-254.5 163.84,-254.5 163.84,-235.5 95.84,-235.5"/>
<text text-anchor="middle" x="129.84" y="-242.5" font-family="Helvetica,sans-Serif" font-size="10.00">IAsset.hpp</text>
</a>
</g>
</g>
<!-- Node15&#45;&gt;Node23 -->
<g id="edge44" class="edge">
<title>Node15&#45;&gt;Node23</title>
<path fill="none" stroke="midnightblue" d="M387.58,-293.27C339.22,-284.53 252.2,-268.75 177.84,-255 176.57,-254.77 175.29,-254.53 173.99,-254.29"/>
<polygon fill="midnightblue" stroke="midnightblue" points="174.39,-250.8 163.92,-252.41 173.11,-257.68 174.39,-250.8"/>
</g>
<!-- Node17&#45;&gt;Node4 -->
<g id="edge24" class="edge">
<title>Node17&#45;&gt;Node4</title>
<path fill="none" stroke="midnightblue" d="M391.25,-235.42C380.83,-214.65 357.84,-160.6 378.84,-123 386.99,-108.39 402.06,-97.94 416.39,-90.8"/>
<polygon fill="midnightblue" stroke="midnightblue" points="417.98,-93.92 425.62,-86.59 415.07,-87.56 417.98,-93.92"/>
</g>
<!-- Node17&#45;&gt;Node16 -->
<g id="edge23" class="edge">
<title>Node17&#45;&gt;Node16</title>
<path fill="none" stroke="midnightblue" d="M361.59,-236.72C358.63,-236.12 355.68,-235.54 352.84,-235 270.26,-219.27 172.56,-203.15 123.06,-195.15"/>
<polygon fill="midnightblue" stroke="midnightblue" points="123.4,-191.66 112.97,-193.52 122.28,-198.57 123.4,-191.66"/>
</g>
<!-- Node17&#45;&gt;Node18 -->
<g id="edge25" class="edge">
<title>Node17&#45;&gt;Node18</title>
<path fill="none" stroke="midnightblue" d="M404.83,-235.32C413.03,-227.42 425.34,-215.55 435.31,-205.94"/>
<polygon fill="midnightblue" stroke="midnightblue" points="437.91,-208.29 442.68,-198.83 433.05,-203.26 437.91,-208.29"/>
</g>
<!-- Node17&#45;&gt;Node19 -->
<g id="edge28" class="edge">
<title>Node17&#45;&gt;Node19</title>
<path fill="none" stroke="midnightblue" d="M430.1,-236.77C474.96,-227.31 553.85,-210.67 604.43,-200"/>
<polygon fill="midnightblue" stroke="midnightblue" points="605.4,-203.37 614.46,-197.88 603.95,-196.52 605.4,-203.37"/>
</g>
<!-- Node18&#45;&gt;Node3 -->
<g id="edge27" class="edge">
<title>Node18&#45;&gt;Node3</title>
<path fill="none" stroke="midnightblue" d="M483.03,-183.26C545.48,-173.75 686.2,-152.35 759.86,-141.15"/>
<polygon fill="midnightblue" stroke="midnightblue" points="760.44,-144.6 769.8,-139.63 759.38,-137.68 760.44,-144.6"/>
</g>
<!-- Node18&#45;&gt;Node4 -->
<g id="edge26" class="edge">
<title>Node18&#45;&gt;Node4</title>
<path fill="none" stroke="midnightblue" d="M451.84,-179.37C451.84,-161.62 451.84,-120.67 451.84,-96.6"/>
<polygon fill="midnightblue" stroke="midnightblue" points="455.34,-96.59 451.84,-86.59 448.34,-96.59 455.34,-96.59"/>
</g>
<!-- Node19&#45;&gt;Node3 -->
<g id="edge31" class="edge">
<title>Node19&#45;&gt;Node3</title>
<path fill="none" stroke="midnightblue" d="M676.4,-179.44C702.36,-170.4 743.5,-156.06 772.63,-145.92"/>
<polygon fill="midnightblue" stroke="midnightblue" points="774.1,-149.11 782.39,-142.52 771.8,-142.5 774.1,-149.11"/>
</g>
<!-- Node19&#45;&gt;Node4 -->
<g id="edge29" class="edge">
<title>Node19&#45;&gt;Node4</title>
<path fill="none" stroke="midnightblue" d="M647.42,-179.45C639.81,-165.54 622.86,-138.05 600.84,-123 566.86,-99.78 520.58,-88.27 488.66,-82.74"/>
<polygon fill="midnightblue" stroke="midnightblue" points="488.85,-79.23 478.42,-81.09 487.74,-86.14 488.85,-79.23"/>
</g>
<!-- Node19&#45;&gt;Node5 -->
<g id="edge32" class="edge">
<title>Node19&#45;&gt;Node5</title>
<path fill="none" stroke="midnightblue" d="M663.26,-179.42C682.41,-165.45 722.65,-137.88 760.84,-123 807.92,-104.65 863.84,-93.27 906.98,-86.54"/>
<polygon fill="midnightblue" stroke="midnightblue" points="907.74,-89.96 917.1,-85.01 906.69,-83.04 907.74,-89.96"/>
</g>
<!-- Node19&#45;&gt;Node10 -->
<g id="edge30" class="edge">
<title>Node19&#45;&gt;Node10</title>
<path fill="none" stroke="midnightblue" d="M656.78,-179.37C667.13,-161.3 691.25,-119.18 704.92,-95.31"/>
<polygon fill="midnightblue" stroke="midnightblue" points="707.98,-97.01 709.92,-86.59 701.91,-93.53 707.98,-97.01"/>
</g>
<!-- Node20&#45;&gt;Node3 -->
<g id="edge38" class="edge">
<title>Node20&#45;&gt;Node3</title>
<path fill="none" stroke="midnightblue" d="M784.2,-235.45C778.01,-222.89 768.52,-198.79 774.84,-179 778.18,-168.54 784.94,-158.43 791.39,-150.45"/>
<polygon fill="midnightblue" stroke="midnightblue" points="794.18,-152.56 798.08,-142.71 788.89,-147.98 794.18,-152.56"/>
</g>
<!-- Node20&#45;&gt;Node4 -->
<g id="edge36" class="edge">
<title>Node20&#45;&gt;Node4</title>
<path fill="none" stroke="midnightblue" d="M744.06,-237.16C697.15,-229.28 627.35,-215.3 605.84,-199 574.91,-175.56 592,-148.61 562.84,-123 541.74,-104.48 512.02,-92.97 488.64,-86.24"/>
<polygon fill="midnightblue" stroke="midnightblue" points="489.29,-82.79 478.73,-83.56 487.46,-89.55 489.29,-82.79"/>
</g>
<!-- Node20&#45;&gt;Node19 -->
<g id="edge37" class="edge">
<title>Node20&#45;&gt;Node19</title>
<path fill="none" stroke="midnightblue" d="M767.13,-235.44C744.48,-226.52 708.76,-212.44 683.08,-202.32"/>
<polygon fill="midnightblue" stroke="midnightblue" points="684.03,-198.93 673.44,-198.52 681.46,-205.44 684.03,-198.93"/>
</g>
<!-- Node21 -->
<g id="node21" class="node">
<title>Node21</title>
<g id="a_node21"><a xlink:href="Ray_8hpp.html" target="_top" xlink:title=" ">
<polygon fill="white" stroke="black" points="783.34,-179.5 783.34,-198.5 838.34,-198.5 838.34,-179.5 783.34,-179.5"/>
<text text-anchor="middle" x="810.84" y="-186.5" font-family="Helvetica,sans-Serif" font-size="10.00">Ray.hpp</text>
</a>
</g>
</g>
<!-- Node20&#45;&gt;Node21 -->
<g id="edge39" class="edge">
<title>Node20&#45;&gt;Node21</title>
<path fill="none" stroke="midnightblue" d="M792.47,-235.08C795.45,-227.77 799.76,-217.18 803.46,-208.1"/>
<polygon fill="midnightblue" stroke="midnightblue" points="806.74,-209.33 807.27,-198.75 800.26,-206.69 806.74,-209.33"/>
</g>
<!-- Node21&#45;&gt;Node3 -->
<g id="edge40" class="edge">
<title>Node21&#45;&gt;Node3</title>
<path fill="none" stroke="midnightblue" d="M810.18,-179.08C809.65,-172.01 808.9,-161.86 808.24,-152.99"/>
<polygon fill="midnightblue" stroke="midnightblue" points="811.71,-152.47 807.48,-142.75 804.73,-152.98 811.71,-152.47"/>
</g>
<!-- Node22&#45;&gt;Node4 -->
<g id="edge42" class="edge">
<title>Node22&#45;&gt;Node4</title>
<path fill="none" stroke="midnightblue" d="M303.78,-235.32C311.43,-213.85 333.81,-157.49 368.84,-123 382.99,-109.06 402.35,-98.23 418.81,-90.69"/>
<polygon fill="midnightblue" stroke="midnightblue" points="420.34,-93.84 428.11,-86.64 417.54,-87.43 420.34,-93.84"/>
</g>
<!-- Node22&#45;&gt;Node18 -->
<g id="edge43" class="edge">
<title>Node22&#45;&gt;Node18</title>
<path fill="none" stroke="midnightblue" d="M324.76,-235.44C350.06,-226.4 390.14,-212.06 418.52,-201.92"/>
<polygon fill="midnightblue" stroke="midnightblue" points="419.78,-205.18 428.02,-198.52 417.43,-198.59 419.78,-205.18"/>
</g>
<!-- Node24&#45;&gt;Node3 -->
<g id="edge48" class="edge">
<title>Node24&#45;&gt;Node3</title>
<path fill="none" stroke="midnightblue" d="M698.89,-349.63C745.07,-338.98 826.02,-312.76 862.84,-255 881,-226.51 879.7,-209.34 864.84,-179 858.31,-165.68 845.74,-155.18 833.96,-147.68"/>
<polygon fill="midnightblue" stroke="midnightblue" points="835.62,-144.59 825.23,-142.53 832.07,-150.62 835.62,-144.59"/>
</g>
<!-- Node24&#45;&gt;Node4 -->
<g id="edge46" class="edge">
<title>Node24&#45;&gt;Node4</title>
<path fill="none" stroke="midnightblue" d="M671.49,-347.49C687.1,-326.4 722.9,-270.85 696.84,-235 666.34,-193.05 630.74,-224.95 585.84,-199 559.79,-183.95 497.47,-123.44 467.91,-94.1"/>
<polygon fill="midnightblue" stroke="midnightblue" points="470.06,-91.3 460.5,-86.72 465.11,-96.26 470.06,-91.3"/>
</g>
<!-- Node24&#45;&gt;Node15 -->
<g id="edge50" class="edge">
<title>Node24&#45;&gt;Node15</title>
<path fill="none" stroke="midnightblue" d="M630.71,-348.32C589.11,-338.96 518.61,-323.1 471.88,-312.59"/>
<polygon fill="midnightblue" stroke="midnightblue" points="472.53,-309.14 462,-310.36 470.99,-315.97 472.53,-309.14"/>
</g>
<!-- Node24&#45;&gt;Node16 -->
<g id="edge47" class="edge">
<title>Node24&#45;&gt;Node16</title>
<path fill="none" stroke="midnightblue" d="M630.8,-356.31C502.27,-357.14 51.54,-356.73 8.84,-311 -1.03,-300.43 -6.45,-266.97 13.84,-235 24.14,-218.76 42.58,-207.69 58.82,-200.59"/>
<polygon fill="midnightblue" stroke="midnightblue" points="60.59,-203.65 68.57,-196.67 57.98,-197.15 60.59,-203.65"/>
</g>
<!-- Node24&#45;&gt;Node18 -->
<g id="edge49" class="edge">
<title>Node24&#45;&gt;Node18</title>
<path fill="none" stroke="midnightblue" d="M645.03,-347.42C628.94,-339.69 606.43,-327.09 590.84,-311 563.83,-283.13 576.31,-261.37 547.84,-235 531.74,-220.09 509.81,-209.31 490.98,-202.04"/>
<polygon fill="midnightblue" stroke="midnightblue" points="492.05,-198.71 481.46,-198.56 489.65,-205.28 492.05,-198.71"/>
</g>
<!-- Node25 -->
<g id="node25" class="node">
<title>Node25</title>
<g id="a_node25"><a xlink:href="Mesh_8hpp.html" target="_top" xlink:title=" ">
<polygon fill="white" stroke="black" points="479.84,-291.5 479.84,-310.5 543.84,-310.5 543.84,-291.5 479.84,-291.5"/>
<text text-anchor="middle" x="511.84" y="-298.5" font-family="Helvetica,sans-Serif" font-size="10.00">Mesh.hpp</text>
</a>
</g>
</g>
<!-- Node24&#45;&gt;Node25 -->
<g id="edge51" class="edge">
<title>Node24&#45;&gt;Node25</title>
<path fill="none" stroke="midnightblue" d="M640.59,-347.44C614.97,-338.4 574.35,-324.06 545.6,-313.92"/>
<polygon fill="midnightblue" stroke="midnightblue" points="546.56,-310.54 535.97,-310.52 544.23,-317.15 546.56,-310.54"/>
</g>
<!-- Node26 -->
<g id="node26" class="node">
<title>Node26</title>
<g id="a_node26"><a xlink:href="IDrawable_8hpp.html" target="_top" xlink:title=" ">
<polygon fill="white" stroke="black" points="600.34,-235.5 600.34,-254.5 687.34,-254.5 687.34,-235.5 600.34,-235.5"/>
<text text-anchor="middle" x="643.84" y="-242.5" font-family="Helvetica,sans-Serif" font-size="10.00">IDrawable.hpp</text>
</a>
</g>
</g>
<!-- Node24&#45;&gt;Node26 -->
<g id="edge56" class="edge">
<title>Node24&#45;&gt;Node26</title>
<path fill="none" stroke="midnightblue" d="M669.08,-347.41C674.72,-334.79 683.26,-310.63 676.84,-291 673.35,-280.34 666.26,-270.12 659.55,-262.12"/>
<polygon fill="midnightblue" stroke="midnightblue" points="662.14,-259.76 652.86,-254.66 656.93,-264.44 662.14,-259.76"/>
</g>
<!-- Node27 -->
<g id="node27" class="node">
<title>Node27</title>
<g id="a_node27"><a xlink:href="Shader_8hpp.html" target="_top" xlink:title=" ">
<polygon fill="white" stroke="black" points="18.34,-291.5 18.34,-310.5 89.34,-310.5 89.34,-291.5 18.34,-291.5"/>
<text text-anchor="middle" x="53.84" y="-298.5" font-family="Helvetica,sans-Serif" font-size="10.00">Shader.hpp</text>
</a>
</g>
</g>
<!-- Node24&#45;&gt;Node27 -->
<g id="edge60" class="edge">
<title>Node24&#45;&gt;Node27</title>
<path fill="none" stroke="midnightblue" d="M630.68,-352.98C527.24,-343.84 217.35,-316.45 99.77,-306.06"/>
<polygon fill="midnightblue" stroke="midnightblue" points="99.93,-302.56 89.66,-305.17 99.31,-309.53 99.93,-302.56"/>
</g>
<!-- Node29 -->
<g id="node29" class="node">
<title>Node29</title>
<g id="a_node29"><a xlink:title=" ">
<polygon fill="white" stroke="#bfbfbf" points="600.34,-291.5 600.34,-310.5 667.34,-310.5 667.34,-291.5 600.34,-291.5"/>
<text text-anchor="middle" x="633.84" y="-298.5" font-family="Helvetica,sans-Serif" font-size="10.00">raymath.h</text>
</a>
</g>
</g>
<!-- Node24&#45;&gt;Node29 -->
<g id="edge65" class="edge">
<title>Node24&#45;&gt;Node29</title>
<path fill="none" stroke="midnightblue" d="M659.72,-347.08C655.43,-339.61 649.18,-328.72 643.89,-319.52"/>
<polygon fill="midnightblue" stroke="midnightblue" points="646.87,-317.68 638.86,-310.75 640.8,-321.17 646.87,-317.68"/>
</g>
<!-- Node25&#45;&gt;Node3 -->
<g id="edge54" class="edge">
<title>Node25&#45;&gt;Node3</title>
<path fill="none" stroke="midnightblue" d="M543.89,-296.17C625.98,-286.31 837.67,-260.41 842.84,-255 866.21,-230.52 860.06,-210.57 847.84,-179 843.38,-167.5 834.47,-157.13 826.09,-149.25"/>
<polygon fill="midnightblue" stroke="midnightblue" points="828.21,-146.46 818.38,-142.51 823.6,-151.73 828.21,-146.46"/>
</g>
<!-- Node25&#45;&gt;Node4 -->
<g id="edge52" class="edge">
<title>Node25&#45;&gt;Node4</title>
<path fill="none" stroke="midnightblue" d="M501.63,-291.49C478.1,-271.61 421.32,-222.05 411.84,-199 396.9,-162.69 421.89,-118.58 438.63,-94.93"/>
<polygon fill="midnightblue" stroke="midnightblue" points="441.62,-96.78 444.75,-86.66 435.99,-92.62 441.62,-96.78"/>
</g>
<!-- Node25&#45;&gt;Node17 -->
<g id="edge53" class="edge">
<title>Node25&#45;&gt;Node17</title>
<path fill="none" stroke="midnightblue" d="M493.46,-291.44C474.62,-282.68 445.11,-268.94 423.46,-258.86"/>
<polygon fill="midnightblue" stroke="midnightblue" points="424.67,-255.56 414.13,-254.52 421.72,-261.91 424.67,-255.56"/>
</g>
<!-- Node25&#45;&gt;Node23 -->
<g id="edge55" class="edge">
<title>Node25&#45;&gt;Node23</title>
<path fill="none" stroke="midnightblue" d="M479.66,-292.67C476.68,-292.07 473.71,-291.5 470.84,-291 364.98,-272.43 239.42,-257.73 174.18,-250.64"/>
<polygon fill="midnightblue" stroke="midnightblue" points="174.18,-247.11 163.86,-249.52 173.43,-254.07 174.18,-247.11"/>
</g>
<!-- Node26&#45;&gt;Node3 -->
<g id="edge58" class="edge">
<title>Node26&#45;&gt;Node3</title>
<path fill="none" stroke="midnightblue" d="M656.63,-235.37C684.6,-216.49 751.44,-171.38 785.74,-148.24"/>
<polygon fill="midnightblue" stroke="midnightblue" points="787.77,-151.09 794.11,-142.59 783.86,-145.28 787.77,-151.09"/>
</g>
<!-- Node26&#45;&gt;Node4 -->
<g id="edge57" class="edge">
<title>Node26&#45;&gt;Node4</title>
<path fill="none" stroke="midnightblue" d="M609.71,-235.46C586.75,-228.46 556.8,-216.78 534.84,-199 499.16,-170.12 472.59,-121.95 459.98,-95.96"/>
<polygon fill="midnightblue" stroke="midnightblue" points="462.99,-94.14 455.57,-86.58 456.66,-97.12 462.99,-94.14"/>
</g>
<!-- Node26&#45;&gt;Node18 -->
<g id="edge59" class="edge">
<title>Node26&#45;&gt;Node18</title>
<path fill="none" stroke="midnightblue" d="M613.41,-235.44C580.55,-226.2 528.05,-211.44 491.86,-201.26"/>
<polygon fill="midnightblue" stroke="midnightblue" points="492.69,-197.85 482.12,-198.52 490.8,-204.59 492.69,-197.85"/>
</g>
<!-- Node27&#45;&gt;Node4 -->
<g id="edge63" class="edge">
<title>Node27&#45;&gt;Node4</title>
<path fill="none" stroke="midnightblue" d="M42.57,-291.43C32.87,-283.27 19.56,-270.05 13.84,-255 -0.2,-218.09 26.55,-200.23 59.84,-179 175.05,-105.53 341.38,-85.4 414.72,-79.97"/>
<polygon fill="midnightblue" stroke="midnightblue" points="415.11,-83.45 424.85,-79.27 414.63,-76.47 415.11,-83.45"/>
</g>
<!-- Node27&#45;&gt;Node16 -->
<g id="edge62" class="edge">
<title>Node27&#45;&gt;Node16</title>
<path fill="none" stroke="midnightblue" d="M43.51,-291.08C30.21,-278.47 10.04,-254.77 20.84,-235 29.13,-219.81 44.98,-208.99 59.51,-201.77"/>
<polygon fill="midnightblue" stroke="midnightblue" points="61.13,-204.87 68.77,-197.53 58.22,-198.51 61.13,-204.87"/>
</g>
<!-- Node27&#45;&gt;Node23 -->
<g id="edge61" class="edge">
<title>Node27&#45;&gt;Node23</title>
<path fill="none" stroke="midnightblue" d="M66.05,-291.32C77.61,-283.11 95.21,-270.6 109,-260.81"/>
<polygon fill="midnightblue" stroke="midnightblue" points="111.28,-263.48 117.4,-254.83 107.22,-257.77 111.28,-263.48"/>
</g>
<!-- Node28 -->
<g id="node28" class="node">
<title>Node28</title>
<g id="a_node28"><a xlink:title=" ">
<polygon fill="white" stroke="#bfbfbf" points="30.34,-235.5 30.34,-254.5 77.34,-254.5 77.34,-235.5 30.34,-235.5"/>
<text text-anchor="middle" x="53.84" y="-242.5" font-family="Helvetica,sans-Serif" font-size="10.00">vector</text>
</a>
</g>
</g>
<!-- Node27&#45;&gt;Node28 -->
<g id="edge64" class="edge">
<title>Node27&#45;&gt;Node28</title>
<path fill="none" stroke="midnightblue" d="M53.84,-291.08C53.84,-284.01 53.84,-273.86 53.84,-264.99"/>
<polygon fill="midnightblue" stroke="midnightblue" points="57.34,-264.75 53.84,-254.75 50.34,-264.75 57.34,-264.75"/>
</g>
<!-- Node30&#45;&gt;Node14 -->
<g id="edge67" class="edge">
<title>Node30&#45;&gt;Node14</title>
<path fill="none" stroke="midnightblue" d="M737.77,-403.45C811.31,-381.63 998.28,-317.09 1103.84,-199 1115.6,-185.84 1122.38,-166.7 1126.05,-152.6"/>
<polygon fill="midnightblue" stroke="midnightblue" points="1129.52,-153.11 1128.36,-142.58 1122.7,-151.53 1129.52,-153.11"/>
</g>
<!-- Node30&#45;&gt;Node15 -->
<g id="edge69" class="edge">
<title>Node30&#45;&gt;Node15</title>
<path fill="none" stroke="midnightblue" d="M691.01,-403.5C661.96,-387.97 601.08,-355.81 578.84,-347 543.47,-332.99 502.01,-321.13 471.03,-313.1"/>
<polygon fill="midnightblue" stroke="midnightblue" points="471.5,-309.61 460.94,-310.53 469.77,-316.39 471.5,-309.61"/>
</g>
<!-- Node30&#45;&gt;Node24 -->
<g id="edge68" class="edge">
<title>Node30&#45;&gt;Node24</title>
<path fill="none" stroke="midnightblue" d="M699.9,-403.08C693.91,-395.38 685.08,-384.03 677.79,-374.65"/>
<polygon fill="midnightblue" stroke="midnightblue" points="680.54,-372.5 671.64,-366.75 675.02,-376.79 680.54,-372.5"/>
</g>
</g>
</svg>
