<?xml version="1.0" encoding="UTF-8" standalone="no"?>
<!DOCTYPE svg PUBLIC "-//W3C//DTD SVG 1.1//EN"
 "http://www.w3.org/Graphics/SVG/1.1/DTD/svg11.dtd">
<!-- Generated by graphviz version 2.43.0 (0)
 -->
<!-- Title: Libs/TerrainGenerator/tests/testTerrainGenerator.hpp Pages: 1 -->
<svg width="558pt" height="330pt"
 viewBox="0.00 0.00 557.50 330.00" xmlns="http://www.w3.org/2000/svg" xmlns:xlink="http://www.w3.org/1999/xlink">
<g id="graph0" class="graph" transform="scale(1 1) rotate(0) translate(4 326)">
<title>Libs/TerrainGenerator/tests/testTerrainGenerator.hpp</title>
<polygon fill="white" stroke="transparent" points="-4,4 -4,-326 553.5,-326 553.5,4 -4,4"/>
<!-- Node1 -->
<g id="node1" class="node">
<title>Node1</title>
<g id="a_node1"><a xlink:title=" ">
<polygon fill="#bfbfbf" stroke="black" points="2.5,-291.5 2.5,-321.5 169.5,-321.5 169.5,-291.5 2.5,-291.5"/>
<text text-anchor="start" x="10.5" y="-309.5" font-family="Helvetica,sans-Serif" font-size="10.00">Libs/TerrainGenerator</text>
<text text-anchor="middle" x="86" y="-298.5" font-family="Helvetica,sans-Serif" font-size="10.00">/tests/testTerrainGenerator.hpp</text>
</a>
</g>
</g>
<!-- Node2 -->
<g id="node2" class="node">
<title>Node2</title>
<g id="a_node2"><a xlink:href="TerrainGenerator_8hpp.html" target="_top" xlink:title=" ">
<polygon fill="white" stroke="black" points="26.5,-235.5 26.5,-254.5 145.5,-254.5 145.5,-235.5 26.5,-235.5"/>
<text text-anchor="middle" x="86" y="-242.5" font-family="Helvetica,sans-Serif" font-size="10.00">TerrainGenerator.hpp</text>
</a>
</g>
</g>
<!-- Node1&#45;&gt;Node2 -->
<g id="edge1" class="edge">
<title>Node1&#45;&gt;Node2</title>
<path fill="none" stroke="midnightblue" d="M86,-291.4C86,-283.47 86,-273.46 86,-264.86"/>
<polygon fill="midnightblue" stroke="midnightblue" points="89.5,-264.66 86,-254.66 82.5,-264.66 89.5,-264.66"/>
</g>
<!-- Node3 -->
<g id="node3" class="node">
<title>Node3</title>
<g id="a_node3"><a xlink:title=" ">
<polygon fill="white" stroke="#bfbfbf" points="0,-179.5 0,-198.5 44,-198.5 44,-179.5 0,-179.5"/>
<text text-anchor="middle" x="22" y="-186.5" font-family="Helvetica,sans-Serif" font-size="10.00">string</text>
</a>
</g>
</g>
<!-- Node2&#45;&gt;Node3 -->
<g id="edge2" class="edge">
<title>Node2&#45;&gt;Node3</title>
<path fill="none" stroke="midnightblue" d="M75.72,-235.32C66.16,-227.26 51.72,-215.08 40.22,-205.37"/>
<polygon fill="midnightblue" stroke="midnightblue" points="42.37,-202.61 32.47,-198.83 37.86,-207.96 42.37,-202.61"/>
</g>
<!-- Node4 -->
<g id="node4" class="node">
<title>Node4</title>
<g id="a_node4"><a xlink:title=" ">
<polygon fill="white" stroke="#bfbfbf" points="62.5,-179.5 62.5,-198.5 109.5,-198.5 109.5,-179.5 62.5,-179.5"/>
<text text-anchor="middle" x="86" y="-186.5" font-family="Helvetica,sans-Serif" font-size="10.00">vector</text>
</a>
</g>
</g>
<!-- Node2&#45;&gt;Node4 -->
<g id="edge3" class="edge">
<title>Node2&#45;&gt;Node4</title>
<path fill="none" stroke="midnightblue" d="M86,-235.08C86,-228.01 86,-217.86 86,-208.99"/>
<polygon fill="midnightblue" stroke="midnightblue" points="89.5,-208.75 86,-198.75 82.5,-208.75 89.5,-208.75"/>
</g>
<!-- Node5 -->
<g id="node5" class="node">
<title>Node5</title>
<g id="a_node5"><a xlink:href="Vector2_8hpp.html" target="_top" xlink:title=" ">
<polygon fill="white" stroke="black" points="128,-179.5 128,-198.5 202,-198.5 202,-179.5 128,-179.5"/>
<text text-anchor="middle" x="165" y="-186.5" font-family="Helvetica,sans-Serif" font-size="10.00">Vector2.hpp</text>
</a>
</g>
</g>
<!-- Node2&#45;&gt;Node5 -->
<g id="edge4" class="edge">
<title>Node2&#45;&gt;Node5</title>
<path fill="none" stroke="midnightblue" d="M98.69,-235.32C110.9,-226.98 129.58,-214.21 144,-204.35"/>
<polygon fill="midnightblue" stroke="midnightblue" points="146.06,-207.19 152.34,-198.65 142.11,-201.41 146.06,-207.19"/>
</g>
<!-- Node6 -->
<g id="node6" class="node">
<title>Node6</title>
<g id="a_node6"><a xlink:title=" ">
<polygon fill="white" stroke="#bfbfbf" points="38.5,-67.5 38.5,-86.5 91.5,-86.5 91.5,-67.5 38.5,-67.5"/>
<text text-anchor="middle" x="65" y="-74.5" font-family="Helvetica,sans-Serif" font-size="10.00">raylib.h</text>
</a>
</g>
</g>
<!-- Node5&#45;&gt;Node6 -->
<g id="edge5" class="edge">
<title>Node5&#45;&gt;Node6</title>
<path fill="none" stroke="midnightblue" d="M157.15,-179.37C140.43,-160.97 101.06,-117.67 79.59,-94.05"/>
<polygon fill="midnightblue" stroke="midnightblue" points="82.13,-91.64 72.81,-86.59 76.95,-96.35 82.13,-91.64"/>
</g>
<!-- Node7 -->
<g id="node7" class="node">
<title>Node7</title>
<g id="a_node7"><a xlink:title=" ">
<polygon fill="white" stroke="#bfbfbf" points="109.5,-67.5 109.5,-86.5 156.5,-86.5 156.5,-67.5 109.5,-67.5"/>
<text text-anchor="middle" x="133" y="-74.5" font-family="Helvetica,sans-Serif" font-size="10.00">cmath</text>
</a>
</g>
</g>
<!-- Node5&#45;&gt;Node7 -->
<g id="edge6" class="edge">
<title>Node5&#45;&gt;Node7</title>
<path fill="none" stroke="midnightblue" d="M162.49,-179.37C157.3,-161.54 145.3,-120.3 138.32,-96.27"/>
<polygon fill="midnightblue" stroke="midnightblue" points="141.65,-95.22 135.5,-86.59 134.93,-97.17 141.65,-95.22"/>
</g>
<!-- Node8 -->
<g id="node8" class="node">
<title>Node8</title>
<g id="a_node8"><a xlink:href="Vector3_8hpp.html" target="_top" xlink:title=" ">
<polygon fill="white" stroke="black" points="161,-123.5 161,-142.5 235,-142.5 235,-123.5 161,-123.5"/>
<text text-anchor="middle" x="198" y="-130.5" font-family="Helvetica,sans-Serif" font-size="10.00">Vector3.hpp</text>
</a>
</g>
</g>
<!-- Node5&#45;&gt;Node8 -->
<g id="edge7" class="edge">
<title>Node5&#45;&gt;Node8</title>
<path fill="none" stroke="midnightblue" d="M170.45,-179.08C175.01,-171.61 181.67,-160.72 187.29,-151.52"/>
<polygon fill="midnightblue" stroke="midnightblue" points="190.42,-153.11 192.65,-142.75 184.45,-149.46 190.42,-153.11"/>
</g>
<!-- Node9 -->
<g id="node9" class="node">
<title>Node9</title>
<g id="a_node9"><a xlink:href="IXMLSerializable_8hpp.html" target="_top" xlink:title=" ">
<polygon fill="white" stroke="black" points="249.5,-67.5 249.5,-86.5 368.5,-86.5 368.5,-67.5 249.5,-67.5"/>
<text text-anchor="middle" x="309" y="-74.5" font-family="Helvetica,sans-Serif" font-size="10.00">IXMLSerializable.hpp</text>
</a>
</g>
</g>
<!-- Node5&#45;&gt;Node9 -->
<g id="edge16" class="edge">
<title>Node5&#45;&gt;Node9</title>
<path fill="none" stroke="midnightblue" d="M183.1,-179.44C199.69,-171.2 224.55,-157.84 244,-143 263.13,-128.41 282.26,-108.47 294.77,-94.54"/>
<polygon fill="midnightblue" stroke="midnightblue" points="297.65,-96.56 301.64,-86.74 292.4,-91.93 297.65,-96.56"/>
</g>
<!-- Node8&#45;&gt;Node6 -->
<g id="edge8" class="edge">
<title>Node8&#45;&gt;Node6</title>
<path fill="none" stroke="midnightblue" d="M176.93,-123.44C154.94,-114.52 120.27,-100.44 95.34,-90.32"/>
<polygon fill="midnightblue" stroke="midnightblue" points="96.56,-87.04 85.98,-86.52 93.92,-93.52 96.56,-87.04"/>
</g>
<!-- Node8&#45;&gt;Node7 -->
<g id="edge14" class="edge">
<title>Node8&#45;&gt;Node7</title>
<path fill="none" stroke="midnightblue" d="M187.56,-123.32C177.85,-115.26 163.18,-103.08 151.5,-93.37"/>
<polygon fill="midnightblue" stroke="midnightblue" points="153.56,-90.53 143.63,-86.83 149.09,-95.92 153.56,-90.53"/>
</g>
<!-- Node8&#45;&gt;Node9 -->
<g id="edge9" class="edge">
<title>Node8&#45;&gt;Node9</title>
<path fill="none" stroke="midnightblue" d="M215.83,-123.32C233.72,-114.62 261.48,-101.12 282.05,-91.11"/>
<polygon fill="midnightblue" stroke="midnightblue" points="283.75,-94.18 291.21,-86.65 280.69,-87.88 283.75,-94.18"/>
</g>
<!-- Node14 -->
<g id="node14" class="node">
<title>Node14</title>
<g id="a_node14"><a xlink:title=" ">
<polygon fill="white" stroke="#bfbfbf" points="175,-67.5 175,-86.5 231,-86.5 231,-67.5 175,-67.5"/>
<text text-anchor="middle" x="203" y="-74.5" font-family="Helvetica,sans-Serif" font-size="10.00">sstream</text>
</a>
</g>
</g>
<!-- Node8&#45;&gt;Node14 -->
<g id="edge15" class="edge">
<title>Node8&#45;&gt;Node14</title>
<path fill="none" stroke="midnightblue" d="M198.83,-123.08C199.48,-116.01 200.42,-105.86 201.24,-96.99"/>
<polygon fill="midnightblue" stroke="midnightblue" points="204.75,-97.03 202.19,-86.75 197.78,-96.39 204.75,-97.03"/>
</g>
<!-- Node10 -->
<g id="node10" class="node">
<title>Node10</title>
<g id="a_node10"><a xlink:title=" ">
<polygon fill="white" stroke="#bfbfbf" points="151.5,-6 151.5,-25 208.5,-25 208.5,-6 151.5,-6"/>
<text text-anchor="middle" x="180" y="-13" font-family="Helvetica,sans-Serif" font-size="10.00">ostream</text>
</a>
</g>
</g>
<!-- Node9&#45;&gt;Node10 -->
<g id="edge10" class="edge">
<title>Node9&#45;&gt;Node10</title>
<path fill="none" stroke="midnightblue" d="M290.52,-67.48C268.87,-57.49 232.79,-40.85 207.77,-29.31"/>
<polygon fill="midnightblue" stroke="midnightblue" points="208.99,-26.02 198.45,-25.01 206.06,-32.38 208.99,-26.02"/>
</g>
<!-- Node11 -->
<g id="node11" class="node">
<title>Node11</title>
<g id="a_node11"><a xlink:title=" ">
<polygon fill="white" stroke="#bfbfbf" points="227,-6 227,-25 287,-25 287,-6 227,-6"/>
<text text-anchor="middle" x="257" y="-13" font-family="Helvetica,sans-Serif" font-size="10.00">iostream</text>
</a>
</g>
</g>
<!-- Node9&#45;&gt;Node11 -->
<g id="edge11" class="edge">
<title>Node9&#45;&gt;Node11</title>
<path fill="none" stroke="midnightblue" d="M301.55,-67.48C293.67,-58.46 281.06,-44.02 271.26,-32.81"/>
<polygon fill="midnightblue" stroke="midnightblue" points="273.65,-30.24 264.44,-25.01 268.38,-34.84 273.65,-30.24"/>
</g>
<!-- Node12 -->
<g id="node12" class="node">
<title>Node12</title>
<g id="a_node12"><a xlink:title=" ">
<polygon fill="white" stroke="#bfbfbf" points="305.5,-0.5 305.5,-30.5 418.5,-30.5 418.5,-0.5 305.5,-0.5"/>
<text text-anchor="start" x="313.5" y="-18.5" font-family="Helvetica,sans-Serif" font-size="10.00">boost/property_tree</text>
<text text-anchor="middle" x="362" y="-7.5" font-family="Helvetica,sans-Serif" font-size="10.00">/ptree.hpp</text>
</a>
</g>
</g>
<!-- Node9&#45;&gt;Node12 -->
<g id="edge12" class="edge">
<title>Node9&#45;&gt;Node12</title>
<path fill="none" stroke="midnightblue" d="M316.59,-67.48C323.37,-59.87 333.59,-48.4 342.61,-38.26"/>
<polygon fill="midnightblue" stroke="midnightblue" points="345.47,-40.32 349.51,-30.52 340.24,-35.66 345.47,-40.32"/>
</g>
<!-- Node13 -->
<g id="node13" class="node">
<title>Node13</title>
<g id="a_node13"><a xlink:title=" ">
<polygon fill="white" stroke="#bfbfbf" points="436.5,-0.5 436.5,-30.5 549.5,-30.5 549.5,-0.5 436.5,-0.5"/>
<text text-anchor="start" x="444.5" y="-18.5" font-family="Helvetica,sans-Serif" font-size="10.00">boost/property_tree</text>
<text text-anchor="middle" x="493" y="-7.5" font-family="Helvetica,sans-Serif" font-size="10.00">/xml_parser.hpp</text>
</a>
</g>
</g>
<!-- Node9&#45;&gt;Node13 -->
<g id="edge13" class="edge">
<title>Node9&#45;&gt;Node13</title>
<path fill="none" stroke="midnightblue" d="M335.36,-67.48C362.5,-58.7 405.52,-44.79 439.77,-33.71"/>
<polygon fill="midnightblue" stroke="midnightblue" points="441.2,-36.93 449.63,-30.52 439.04,-30.27 441.2,-36.93"/>
</g>
</g>
</svg>
