<?xml version="1.0" encoding="UTF-8" standalone="no"?>
<!DOCTYPE svg PUBLIC "-//W3C//DTD SVG 1.1//EN"
 "http://www.w3.org/Graphics/SVG/1.1/DTD/svg11.dtd">
<!-- Generated by graphviz version 2.43.0 (0)
 -->
<!-- Title: Libs/RayLib/sources/Texture/Texture.hpp Pages: 1 -->
<svg width="731pt" height="330pt"
 viewBox="0.00 0.00 730.88 330.00" xmlns="http://www.w3.org/2000/svg" xmlns:xlink="http://www.w3.org/1999/xlink">
<g id="graph0" class="graph" transform="scale(1 1) rotate(0) translate(4 326)">
<title>Libs/RayLib/sources/Texture/Texture.hpp</title>
<polygon fill="white" stroke="transparent" points="-4,4 -4,-326 726.88,-326 726.88,4 -4,4"/>
<!-- Node1 -->
<g id="node1" class="node">
<title>Node1</title>
<g id="a_node1"><a xlink:title=" ">
<polygon fill="#bfbfbf" stroke="black" points="185.38,-291.5 185.38,-321.5 301.38,-321.5 301.38,-291.5 185.38,-291.5"/>
<text text-anchor="start" x="193.38" y="-309.5" font-family="Helvetica,sans-Serif" font-size="10.00">Libs/RayLib/sources</text>
<text text-anchor="middle" x="243.38" y="-298.5" font-family="Helvetica,sans-Serif" font-size="10.00">/Texture/Texture.hpp</text>
</a>
</g>
</g>
<!-- Node2 -->
<g id="node2" class="node">
<title>Node2</title>
<g id="a_node2"><a xlink:title=" ">
<polygon fill="white" stroke="#bfbfbf" points="150.88,-67.5 150.88,-86.5 203.88,-86.5 203.88,-67.5 150.88,-67.5"/>
<text text-anchor="middle" x="177.38" y="-74.5" font-family="Helvetica,sans-Serif" font-size="10.00">raylib.h</text>
</a>
</g>
</g>
<!-- Node1&#45;&gt;Node2 -->
<g id="edge1" class="edge">
<title>Node1&#45;&gt;Node2</title>
<path fill="none" stroke="midnightblue" d="M185.24,-299.96C128.11,-293.17 46.76,-279.44 27.38,-255 -6.61,-212.16 -30.47,-244.26 96.38,-123 110.53,-109.47 129.54,-98.63 145.59,-90.98"/>
<polygon fill="midnightblue" stroke="midnightblue" points="147.47,-93.97 155.12,-86.64 144.57,-87.6 147.47,-93.97"/>
</g>
<!-- Node3 -->
<g id="node3" class="node">
<title>Node3</title>
<g id="a_node3"><a xlink:title=" ">
<polygon fill="white" stroke="#bfbfbf" points="205.38,-179.5 205.38,-198.5 249.38,-198.5 249.38,-179.5 205.38,-179.5"/>
<text text-anchor="middle" x="227.38" y="-186.5" font-family="Helvetica,sans-Serif" font-size="10.00">string</text>
</a>
</g>
</g>
<!-- Node1&#45;&gt;Node3 -->
<g id="edge2" class="edge">
<title>Node1&#45;&gt;Node3</title>
<path fill="none" stroke="midnightblue" d="M249.47,-291.25C254.78,-276.86 260.83,-254.1 255.38,-235 252.47,-224.84 246.54,-214.75 240.89,-206.7"/>
<polygon fill="midnightblue" stroke="midnightblue" points="243.59,-204.48 234.79,-198.59 238,-208.69 243.59,-204.48"/>
</g>
<!-- Node4 -->
<g id="node4" class="node">
<title>Node4</title>
<g id="a_node4"><a xlink:href="Image_8hpp.html" target="_top" xlink:title=" ">
<polygon fill="white" stroke="black" points="178.38,-235.5 178.38,-254.5 246.38,-254.5 246.38,-235.5 178.38,-235.5"/>
<text text-anchor="middle" x="212.38" y="-242.5" font-family="Helvetica,sans-Serif" font-size="10.00">Image.hpp</text>
</a>
</g>
</g>
<!-- Node1&#45;&gt;Node4 -->
<g id="edge3" class="edge">
<title>Node1&#45;&gt;Node4</title>
<path fill="none" stroke="midnightblue" d="M236.03,-291.4C231.71,-283.11 226.21,-272.55 221.6,-263.71"/>
<polygon fill="midnightblue" stroke="midnightblue" points="224.61,-261.91 216.89,-254.66 218.4,-265.14 224.61,-261.91"/>
</g>
<!-- Node5 -->
<g id="node5" class="node">
<title>Node5</title>
<g id="a_node5"><a xlink:href="Color_8hpp.html" target="_top" xlink:title=" ">
<polygon fill="white" stroke="black" points="87.38,-179.5 87.38,-198.5 149.38,-198.5 149.38,-179.5 87.38,-179.5"/>
<text text-anchor="middle" x="118.38" y="-186.5" font-family="Helvetica,sans-Serif" font-size="10.00">Color.hpp</text>
</a>
</g>
</g>
<!-- Node1&#45;&gt;Node5 -->
<g id="edge22" class="edge">
<title>Node1&#45;&gt;Node5</title>
<path fill="none" stroke="midnightblue" d="M218.66,-291.31C203.57,-282.02 184.37,-269.03 169.38,-255 153.89,-240.51 139.28,-221.07 129.7,-207.24"/>
<polygon fill="midnightblue" stroke="midnightblue" points="132.42,-205.01 123.92,-198.68 126.61,-208.93 132.42,-205.01"/>
</g>
<!-- Node14 -->
<g id="node14" class="node">
<title>Node14</title>
<g id="a_node14"><a xlink:href="Vector2_8hpp.html" target="_top" xlink:title=" ">
<polygon fill="white" stroke="black" points="417.38,-179.5 417.38,-198.5 491.38,-198.5 491.38,-179.5 417.38,-179.5"/>
<text text-anchor="middle" x="454.38" y="-186.5" font-family="Helvetica,sans-Serif" font-size="10.00">Vector2.hpp</text>
</a>
</g>
</g>
<!-- Node1&#45;&gt;Node14 -->
<g id="edge23" class="edge">
<title>Node1&#45;&gt;Node14</title>
<path fill="none" stroke="midnightblue" d="M301.4,-295.37C332.95,-287.88 371.51,-275.35 401.38,-255 419.74,-242.49 435.04,-221.8 444.4,-207.13"/>
<polygon fill="midnightblue" stroke="midnightblue" points="447.45,-208.86 449.67,-198.5 441.47,-205.21 447.45,-208.86"/>
</g>
<!-- Node15 -->
<g id="node15" class="node">
<title>Node15</title>
<g id="a_node15"><a xlink:href="Camera3D_8hpp.html" target="_top" xlink:title=" ">
<polygon fill="white" stroke="black" points="302.88,-235.5 302.88,-254.5 391.88,-254.5 391.88,-235.5 302.88,-235.5"/>
<text text-anchor="middle" x="347.38" y="-242.5" font-family="Helvetica,sans-Serif" font-size="10.00">Camera3D.hpp</text>
</a>
</g>
</g>
<!-- Node1&#45;&gt;Node15 -->
<g id="edge24" class="edge">
<title>Node1&#45;&gt;Node15</title>
<path fill="none" stroke="midnightblue" d="M268.02,-291.4C284.69,-281.86 306.61,-269.32 323.18,-259.84"/>
<polygon fill="midnightblue" stroke="midnightblue" points="325.3,-262.66 332.24,-254.66 321.82,-256.59 325.3,-262.66"/>
</g>
<!-- Node17 -->
<g id="node17" class="node">
<title>Node17</title>
<g id="a_node17"><a xlink:href="Rectangle_8hpp.html" target="_top" xlink:title=" ">
<polygon fill="white" stroke="black" points="36.38,-235.5 36.38,-254.5 122.38,-254.5 122.38,-235.5 36.38,-235.5"/>
<text text-anchor="middle" x="79.38" y="-242.5" font-family="Helvetica,sans-Serif" font-size="10.00">Rectangle.hpp</text>
</a>
</g>
</g>
<!-- Node1&#45;&gt;Node17 -->
<g id="edge30" class="edge">
<title>Node1&#45;&gt;Node17</title>
<path fill="none" stroke="midnightblue" d="M204.51,-291.4C176.62,-281.28 139.44,-267.79 112.86,-258.15"/>
<polygon fill="midnightblue" stroke="midnightblue" points="113.83,-254.78 103.24,-254.66 111.45,-261.36 113.83,-254.78"/>
</g>
<!-- Node18 -->
<g id="node18" class="node">
<title>Node18</title>
<g id="a_node18"><a xlink:href="IAsset_8hpp.html" target="_top" xlink:title=" ">
<polygon fill="white" stroke="black" points="448.38,-235.5 448.38,-254.5 516.38,-254.5 516.38,-235.5 448.38,-235.5"/>
<text text-anchor="middle" x="482.38" y="-242.5" font-family="Helvetica,sans-Serif" font-size="10.00">IAsset.hpp</text>
</a>
</g>
</g>
<!-- Node1&#45;&gt;Node18 -->
<g id="edge33" class="edge">
<title>Node1&#45;&gt;Node18</title>
<path fill="none" stroke="midnightblue" d="M299.71,-291.47C342.03,-280.94 399.16,-266.72 438.2,-257"/>
<polygon fill="midnightblue" stroke="midnightblue" points="439.35,-260.32 448.21,-254.51 437.66,-253.53 439.35,-260.32"/>
</g>
<!-- Node4&#45;&gt;Node2 -->
<g id="edge5" class="edge">
<title>Node4&#45;&gt;Node2</title>
<path fill="none" stroke="midnightblue" d="M208.69,-235.19C205.07,-226.22 199.64,-211.86 196.38,-199 187.33,-163.4 181.84,-120.75 179.23,-96.78"/>
<polygon fill="midnightblue" stroke="midnightblue" points="182.69,-96.2 178.17,-86.62 175.73,-96.93 182.69,-96.2"/>
</g>
<!-- Node4&#45;&gt;Node3 -->
<g id="edge4" class="edge">
<title>Node4&#45;&gt;Node3</title>
<path fill="none" stroke="midnightblue" d="M214.85,-235.08C216.86,-227.85 219.76,-217.41 222.27,-208.4"/>
<polygon fill="midnightblue" stroke="midnightblue" points="225.64,-209.32 224.94,-198.75 218.9,-207.45 225.64,-209.32"/>
</g>
<!-- Node4&#45;&gt;Node5 -->
<g id="edge6" class="edge">
<title>Node4&#45;&gt;Node5</title>
<path fill="none" stroke="midnightblue" d="M197.27,-235.32C182.47,-226.82 159.68,-213.73 142.39,-203.8"/>
<polygon fill="midnightblue" stroke="midnightblue" points="143.86,-200.6 133.44,-198.65 140.37,-206.67 143.86,-200.6"/>
</g>
<!-- Node4&#45;&gt;Node14 -->
<g id="edge17" class="edge">
<title>Node4&#45;&gt;Node14</title>
<path fill="none" stroke="midnightblue" d="M246.53,-236.38C288.53,-227.01 360.03,-211.05 407.24,-200.52"/>
<polygon fill="midnightblue" stroke="midnightblue" points="408.22,-203.89 417.22,-198.29 406.69,-197.05 408.22,-203.89"/>
</g>
<!-- Node5&#45;&gt;Node2 -->
<g id="edge7" class="edge">
<title>Node5&#45;&gt;Node2</title>
<path fill="none" stroke="midnightblue" d="M123.01,-179.37C132.66,-161.38 155.09,-119.55 167.92,-95.63"/>
<polygon fill="midnightblue" stroke="midnightblue" points="171.13,-97.06 172.77,-86.59 164.96,-93.75 171.13,-97.06"/>
</g>
<!-- Node6 -->
<g id="node6" class="node">
<title>Node6</title>
<g id="a_node6"><a xlink:href="Vector3_8hpp.html" target="_top" xlink:title=" ">
<polygon fill="white" stroke="black" points="343.38,-123.5 343.38,-142.5 417.38,-142.5 417.38,-123.5 343.38,-123.5"/>
<text text-anchor="middle" x="380.38" y="-130.5" font-family="Helvetica,sans-Serif" font-size="10.00">Vector3.hpp</text>
</a>
</g>
</g>
<!-- Node5&#45;&gt;Node6 -->
<g id="edge8" class="edge">
<title>Node5&#45;&gt;Node6</title>
<path fill="none" stroke="midnightblue" d="M149.46,-181.59C194.92,-172.22 279.91,-154.71 333.13,-143.74"/>
<polygon fill="midnightblue" stroke="midnightblue" points="333.92,-147.15 343,-141.7 332.5,-140.29 333.92,-147.15"/>
</g>
<!-- Node6&#45;&gt;Node2 -->
<g id="edge9" class="edge">
<title>Node6&#45;&gt;Node2</title>
<path fill="none" stroke="midnightblue" d="M348.21,-123.44C311.57,-113.7 251.85,-97.81 213.6,-87.64"/>
<polygon fill="midnightblue" stroke="midnightblue" points="214.46,-84.24 203.89,-85.05 212.66,-91.01 214.46,-84.24"/>
</g>
<!-- Node7 -->
<g id="node7" class="node">
<title>Node7</title>
<g id="a_node7"><a xlink:href="IXMLSerializable_8hpp.html" target="_top" xlink:title=" ">
<polygon fill="white" stroke="black" points="423.88,-67.5 423.88,-86.5 542.88,-86.5 542.88,-67.5 423.88,-67.5"/>
<text text-anchor="middle" x="483.38" y="-74.5" font-family="Helvetica,sans-Serif" font-size="10.00">IXMLSerializable.hpp</text>
</a>
</g>
</g>
<!-- Node6&#45;&gt;Node7 -->
<g id="edge10" class="edge">
<title>Node6&#45;&gt;Node7</title>
<path fill="none" stroke="midnightblue" d="M396.92,-123.32C413.37,-114.7 438.81,-101.36 457.84,-91.39"/>
<polygon fill="midnightblue" stroke="midnightblue" points="459.64,-94.4 466.87,-86.65 456.39,-88.2 459.64,-94.4"/>
</g>
<!-- Node12 -->
<g id="node12" class="node">
<title>Node12</title>
<g id="a_node12"><a xlink:title=" ">
<polygon fill="white" stroke="#bfbfbf" points="358.88,-67.5 358.88,-86.5 405.88,-86.5 405.88,-67.5 358.88,-67.5"/>
<text text-anchor="middle" x="382.38" y="-74.5" font-family="Helvetica,sans-Serif" font-size="10.00">cmath</text>
</a>
</g>
</g>
<!-- Node6&#45;&gt;Node12 -->
<g id="edge15" class="edge">
<title>Node6&#45;&gt;Node12</title>
<path fill="none" stroke="midnightblue" d="M380.71,-123.08C380.97,-116.01 381.34,-105.86 381.67,-96.99"/>
<polygon fill="midnightblue" stroke="midnightblue" points="385.18,-96.87 382.05,-86.75 378.18,-96.61 385.18,-96.87"/>
</g>
<!-- Node13 -->
<g id="node13" class="node">
<title>Node13</title>
<g id="a_node13"><a xlink:title=" ">
<polygon fill="white" stroke="#bfbfbf" points="284.38,-67.5 284.38,-86.5 340.38,-86.5 340.38,-67.5 284.38,-67.5"/>
<text text-anchor="middle" x="312.38" y="-74.5" font-family="Helvetica,sans-Serif" font-size="10.00">sstream</text>
</a>
</g>
</g>
<!-- Node6&#45;&gt;Node13 -->
<g id="edge16" class="edge">
<title>Node6&#45;&gt;Node13</title>
<path fill="none" stroke="midnightblue" d="M369.45,-123.32C359.2,-115.18 343.65,-102.84 331.37,-93.09"/>
<polygon fill="midnightblue" stroke="midnightblue" points="333.51,-90.31 323.5,-86.83 329.15,-95.79 333.51,-90.31"/>
</g>
<!-- Node8 -->
<g id="node8" class="node">
<title>Node8</title>
<g id="a_node8"><a xlink:title=" ">
<polygon fill="white" stroke="#bfbfbf" points="324.88,-6 324.88,-25 381.88,-25 381.88,-6 324.88,-6"/>
<text text-anchor="middle" x="353.38" y="-13" font-family="Helvetica,sans-Serif" font-size="10.00">ostream</text>
</a>
</g>
</g>
<!-- Node7&#45;&gt;Node8 -->
<g id="edge11" class="edge">
<title>Node7&#45;&gt;Node8</title>
<path fill="none" stroke="midnightblue" d="M464.75,-67.48C442.93,-57.49 406.57,-40.85 381.36,-29.31"/>
<polygon fill="midnightblue" stroke="midnightblue" points="382.52,-25.99 371.97,-25.01 379.6,-32.35 382.52,-25.99"/>
</g>
<!-- Node9 -->
<g id="node9" class="node">
<title>Node9</title>
<g id="a_node9"><a xlink:title=" ">
<polygon fill="white" stroke="#bfbfbf" points="400.38,-6 400.38,-25 460.38,-25 460.38,-6 400.38,-6"/>
<text text-anchor="middle" x="430.38" y="-13" font-family="Helvetica,sans-Serif" font-size="10.00">iostream</text>
</a>
</g>
</g>
<!-- Node7&#45;&gt;Node9 -->
<g id="edge12" class="edge">
<title>Node7&#45;&gt;Node9</title>
<path fill="none" stroke="midnightblue" d="M475.78,-67.48C467.67,-58.37 454.64,-43.74 444.61,-32.48"/>
<polygon fill="midnightblue" stroke="midnightblue" points="447.22,-30.15 437.96,-25.01 441.99,-34.8 447.22,-30.15"/>
</g>
<!-- Node10 -->
<g id="node10" class="node">
<title>Node10</title>
<g id="a_node10"><a xlink:title=" ">
<polygon fill="white" stroke="#bfbfbf" points="478.88,-0.5 478.88,-30.5 591.88,-30.5 591.88,-0.5 478.88,-0.5"/>
<text text-anchor="start" x="486.88" y="-18.5" font-family="Helvetica,sans-Serif" font-size="10.00">boost/property_tree</text>
<text text-anchor="middle" x="535.38" y="-7.5" font-family="Helvetica,sans-Serif" font-size="10.00">/ptree.hpp</text>
</a>
</g>
</g>
<!-- Node7&#45;&gt;Node10 -->
<g id="edge13" class="edge">
<title>Node7&#45;&gt;Node10</title>
<path fill="none" stroke="midnightblue" d="M490.83,-67.48C497.47,-59.87 507.5,-48.4 516.35,-38.26"/>
<polygon fill="midnightblue" stroke="midnightblue" points="519.17,-40.36 523.12,-30.52 513.9,-35.75 519.17,-40.36"/>
</g>
<!-- Node11 -->
<g id="node11" class="node">
<title>Node11</title>
<g id="a_node11"><a xlink:title=" ">
<polygon fill="white" stroke="#bfbfbf" points="609.88,-0.5 609.88,-30.5 722.88,-30.5 722.88,-0.5 609.88,-0.5"/>
<text text-anchor="start" x="617.88" y="-18.5" font-family="Helvetica,sans-Serif" font-size="10.00">boost/property_tree</text>
<text text-anchor="middle" x="666.38" y="-7.5" font-family="Helvetica,sans-Serif" font-size="10.00">/xml_parser.hpp</text>
</a>
</g>
</g>
<!-- Node7&#45;&gt;Node11 -->
<g id="edge14" class="edge">
<title>Node7&#45;&gt;Node11</title>
<path fill="none" stroke="midnightblue" d="M509.59,-67.48C536.58,-58.7 579.37,-44.79 613.44,-33.71"/>
<polygon fill="midnightblue" stroke="midnightblue" points="614.82,-36.94 623.25,-30.52 612.65,-30.29 614.82,-36.94"/>
</g>
<!-- Node14&#45;&gt;Node2 -->
<g id="edge18" class="edge">
<title>Node14&#45;&gt;Node2</title>
<path fill="none" stroke="midnightblue" d="M429.8,-179.41C405.39,-170.73 367,-156.68 334.38,-143 314.94,-134.85 310.74,-131.32 291.38,-123 264.13,-111.3 232.76,-99 209.83,-90.22"/>
<polygon fill="midnightblue" stroke="midnightblue" points="210.84,-86.86 200.25,-86.57 208.35,-93.4 210.84,-86.86"/>
</g>
<!-- Node14&#45;&gt;Node6 -->
<g id="edge20" class="edge">
<title>Node14&#45;&gt;Node6</title>
<path fill="none" stroke="midnightblue" d="M442.49,-179.32C431.23,-171.11 414.09,-158.6 400.67,-148.81"/>
<polygon fill="midnightblue" stroke="midnightblue" points="402.62,-145.9 392.48,-142.83 398.5,-151.56 402.62,-145.9"/>
</g>
<!-- Node14&#45;&gt;Node7 -->
<g id="edge21" class="edge">
<title>Node14&#45;&gt;Node7</title>
<path fill="none" stroke="midnightblue" d="M456.65,-179.37C461.35,-161.54 472.22,-120.3 478.56,-96.27"/>
<polygon fill="midnightblue" stroke="midnightblue" points="481.95,-97.15 481.11,-86.59 475.18,-95.37 481.95,-97.15"/>
</g>
<!-- Node14&#45;&gt;Node12 -->
<g id="edge19" class="edge">
<title>Node14&#45;&gt;Node12</title>
<path fill="none" stroke="midnightblue" d="M451.69,-179.07C447.53,-166.04 438.69,-141.37 426.38,-123 419.11,-112.16 409.05,-101.64 400.38,-93.5"/>
<polygon fill="midnightblue" stroke="midnightblue" points="402.69,-90.87 392.93,-86.75 397.99,-96.06 402.69,-90.87"/>
</g>
<!-- Node15&#45;&gt;Node2 -->
<g id="edge25" class="edge">
<title>Node15&#45;&gt;Node2</title>
<path fill="none" stroke="midnightblue" d="M337.26,-235.2C327.05,-226.24 310.9,-211.89 297.38,-199 258.86,-162.31 215.25,-117.47 192.7,-94.03"/>
<polygon fill="midnightblue" stroke="midnightblue" points="195.1,-91.47 185.65,-86.68 190.05,-96.31 195.1,-91.47"/>
</g>
<!-- Node15&#45;&gt;Node6 -->
<g id="edge27" class="edge">
<title>Node15&#45;&gt;Node6</title>
<path fill="none" stroke="midnightblue" d="M352.83,-235.4C358.15,-226.6 366.06,-212.36 370.38,-199 375.26,-183.87 377.79,-165.98 379.08,-152.8"/>
<polygon fill="midnightblue" stroke="midnightblue" points="382.59,-152.87 379.93,-142.61 375.61,-152.29 382.59,-152.87"/>
</g>
<!-- Node15&#45;&gt;Node14 -->
<g id="edge26" class="edge">
<title>Node15&#45;&gt;Node14</title>
<path fill="none" stroke="midnightblue" d="M364.57,-235.32C381.73,-226.66 408.32,-213.24 428.12,-203.25"/>
<polygon fill="midnightblue" stroke="midnightblue" points="429.88,-206.28 437.23,-198.65 426.72,-200.04 429.88,-206.28"/>
</g>
<!-- Node16 -->
<g id="node16" class="node">
<title>Node16</title>
<g id="a_node16"><a xlink:href="Ray_8hpp.html" target="_top" xlink:title=" ">
<polygon fill="white" stroke="black" points="305.88,-179.5 305.88,-198.5 360.88,-198.5 360.88,-179.5 305.88,-179.5"/>
<text text-anchor="middle" x="333.38" y="-186.5" font-family="Helvetica,sans-Serif" font-size="10.00">Ray.hpp</text>
</a>
</g>
</g>
<!-- Node15&#45;&gt;Node16 -->
<g id="edge28" class="edge">
<title>Node15&#45;&gt;Node16</title>
<path fill="none" stroke="midnightblue" d="M345.06,-235.08C343.21,-227.93 340.54,-217.64 338.22,-208.69"/>
<polygon fill="midnightblue" stroke="midnightblue" points="341.54,-207.55 335.64,-198.75 334.77,-209.31 341.54,-207.55"/>
</g>
<!-- Node16&#45;&gt;Node6 -->
<g id="edge29" class="edge">
<title>Node16&#45;&gt;Node6</title>
<path fill="none" stroke="midnightblue" d="M341.14,-179.08C347.91,-171.3 357.92,-159.8 366.13,-150.37"/>
<polygon fill="midnightblue" stroke="midnightblue" points="368.83,-152.59 372.76,-142.75 363.55,-148 368.83,-152.59"/>
</g>
<!-- Node17&#45;&gt;Node2 -->
<g id="edge31" class="edge">
<title>Node17&#45;&gt;Node2</title>
<path fill="none" stroke="midnightblue" d="M77.13,-235.19C74.31,-222.3 70.7,-197.81 78.38,-179 93.85,-141.11 131.15,-109.74 155.29,-92.46"/>
<polygon fill="midnightblue" stroke="midnightblue" points="157.6,-95.12 163.82,-86.55 153.61,-89.37 157.6,-95.12"/>
</g>
<!-- Node17&#45;&gt;Node5 -->
<g id="edge32" class="edge">
<title>Node17&#45;&gt;Node5</title>
<path fill="none" stroke="midnightblue" d="M85.82,-235.08C91.32,-227.46 99.41,-216.26 106.14,-206.94"/>
<polygon fill="midnightblue" stroke="midnightblue" points="109.04,-208.91 112.06,-198.75 103.36,-204.81 109.04,-208.91"/>
</g>
</g>
</svg>
