<?xml version="1.0" encoding="UTF-8" standalone="no"?>
<!DOCTYPE svg PUBLIC "-//W3C//DTD SVG 1.1//EN"
 "http://www.w3.org/Graphics/SVG/1.1/DTD/svg11.dtd">
<!-- Generated by graphviz version 2.43.0 (0)
 -->
<!-- Title: Libs/RayLib/sources/Texture/Texture.cpp Pages: 1 -->
<svg width="625pt" height="386pt"
 viewBox="0.00 0.00 624.71 386.00" xmlns="http://www.w3.org/2000/svg" xmlns:xlink="http://www.w3.org/1999/xlink">
<g id="graph0" class="graph" transform="scale(1 1) rotate(0) translate(4 382)">
<title>Libs/RayLib/sources/Texture/Texture.cpp</title>
<polygon fill="white" stroke="transparent" points="-4,4 -4,-382 620.71,-382 620.71,4 -4,4"/>
<!-- Node1 -->
<g id="node1" class="node">
<title>Node1</title>
<g id="a_node1"><a xlink:title=" ">
<polygon fill="#bfbfbf" stroke="black" points="350.21,-347.5 350.21,-377.5 465.21,-377.5 465.21,-347.5 350.21,-347.5"/>
<text text-anchor="start" x="358.21" y="-365.5" font-family="Helvetica,sans-Serif" font-size="10.00">Libs/RayLib/sources</text>
<text text-anchor="middle" x="407.71" y="-354.5" font-family="Helvetica,sans-Serif" font-size="10.00">/Texture/Texture.cpp</text>
</a>
</g>
</g>
<!-- Node2 -->
<g id="node2" class="node">
<title>Node2</title>
<g id="a_node2"><a xlink:href="Texture_8hpp.html" target="_top" xlink:title=" ">
<polygon fill="white" stroke="black" points="218.71,-291.5 218.71,-310.5 292.71,-310.5 292.71,-291.5 218.71,-291.5"/>
<text text-anchor="middle" x="255.71" y="-298.5" font-family="Helvetica,sans-Serif" font-size="10.00">Texture.hpp</text>
</a>
</g>
</g>
<!-- Node1&#45;&gt;Node2 -->
<g id="edge1" class="edge">
<title>Node1&#45;&gt;Node2</title>
<path fill="none" stroke="midnightblue" d="M371.68,-347.4C346.07,-337.37 311.98,-324.03 287.4,-314.4"/>
<polygon fill="midnightblue" stroke="midnightblue" points="288.41,-311.04 277.82,-310.66 285.86,-317.56 288.41,-311.04"/>
</g>
<!-- Node10 -->
<g id="node10" class="node">
<title>Node10</title>
<g id="a_node10"><a xlink:title=" ">
<polygon fill="white" stroke="#bfbfbf" points="556.71,-6 556.71,-25 616.71,-25 616.71,-6 556.71,-6"/>
<text text-anchor="middle" x="586.71" y="-13" font-family="Helvetica,sans-Serif" font-size="10.00">iostream</text>
</a>
</g>
</g>
<!-- Node1&#45;&gt;Node10 -->
<g id="edge35" class="edge">
<title>Node1&#45;&gt;Node10</title>
<path fill="none" stroke="midnightblue" d="M465.26,-347.88C514.58,-332.38 577.71,-301.66 577.71,-246 577.71,-246 577.71,-246 577.71,-132 577.71,-97.76 581.69,-57.98 584.35,-35.17"/>
<polygon fill="midnightblue" stroke="midnightblue" points="587.84,-35.52 585.57,-25.18 580.89,-34.68 587.84,-35.52"/>
</g>
<!-- Node3 -->
<g id="node3" class="node">
<title>Node3</title>
<g id="a_node3"><a xlink:title=" ">
<polygon fill="white" stroke="#bfbfbf" points="201.21,-67.5 201.21,-86.5 254.21,-86.5 254.21,-67.5 201.21,-67.5"/>
<text text-anchor="middle" x="227.71" y="-74.5" font-family="Helvetica,sans-Serif" font-size="10.00">raylib.h</text>
</a>
</g>
</g>
<!-- Node2&#45;&gt;Node3 -->
<g id="edge2" class="edge">
<title>Node2&#45;&gt;Node3</title>
<path fill="none" stroke="midnightblue" d="M218.5,-298.68C157.23,-295.63 39.31,-285.81 13.71,-255 -47.64,-181.19 115.81,-115.15 191.55,-89.42"/>
<polygon fill="midnightblue" stroke="midnightblue" points="192.82,-92.69 201.2,-86.2 190.6,-86.05 192.82,-92.69"/>
</g>
<!-- Node4 -->
<g id="node4" class="node">
<title>Node4</title>
<g id="a_node4"><a xlink:title=" ">
<polygon fill="white" stroke="#bfbfbf" points="96.71,-179.5 96.71,-198.5 140.71,-198.5 140.71,-179.5 96.71,-179.5"/>
<text text-anchor="middle" x="118.71" y="-186.5" font-family="Helvetica,sans-Serif" font-size="10.00">string</text>
</a>
</g>
</g>
<!-- Node2&#45;&gt;Node4 -->
<g id="edge3" class="edge">
<title>Node2&#45;&gt;Node4</title>
<path fill="none" stroke="midnightblue" d="M218.44,-298.37C159.04,-294.92 47.09,-284.55 22.71,-255 0.84,-228.51 50.79,-208.45 86.52,-198.02"/>
<polygon fill="midnightblue" stroke="midnightblue" points="87.91,-201.27 96.6,-195.22 86.03,-194.53 87.91,-201.27"/>
</g>
<!-- Node5 -->
<g id="node5" class="node">
<title>Node5</title>
<g id="a_node5"><a xlink:href="Image_8hpp.html" target="_top" xlink:title=" ">
<polygon fill="white" stroke="black" points="135.71,-235.5 135.71,-254.5 203.71,-254.5 203.71,-235.5 135.71,-235.5"/>
<text text-anchor="middle" x="169.71" y="-242.5" font-family="Helvetica,sans-Serif" font-size="10.00">Image.hpp</text>
</a>
</g>
</g>
<!-- Node2&#45;&gt;Node5 -->
<g id="edge4" class="edge">
<title>Node2&#45;&gt;Node5</title>
<path fill="none" stroke="midnightblue" d="M241.89,-291.32C228.47,-282.9 207.88,-269.97 192.12,-260.07"/>
<polygon fill="midnightblue" stroke="midnightblue" points="193.82,-257.01 183.49,-254.65 190.1,-262.94 193.82,-257.01"/>
</g>
<!-- Node6 -->
<g id="node6" class="node">
<title>Node6</title>
<g id="a_node6"><a xlink:href="Color_8hpp.html" target="_top" xlink:title=" ">
<polygon fill="white" stroke="black" points="196.71,-179.5 196.71,-198.5 258.71,-198.5 258.71,-179.5 196.71,-179.5"/>
<text text-anchor="middle" x="227.71" y="-186.5" font-family="Helvetica,sans-Serif" font-size="10.00">Color.hpp</text>
</a>
</g>
</g>
<!-- Node2&#45;&gt;Node6 -->
<g id="edge23" class="edge">
<title>Node2&#45;&gt;Node6</title>
<path fill="none" stroke="midnightblue" d="M268.48,-291.45C284.99,-279.28 310.31,-256.1 298.71,-235 290.82,-220.66 276.22,-210.25 262.3,-203.08"/>
<polygon fill="midnightblue" stroke="midnightblue" points="263.4,-199.73 252.87,-198.62 260.41,-206.06 263.4,-199.73"/>
</g>
<!-- Node15 -->
<g id="node15" class="node">
<title>Node15</title>
<g id="a_node15"><a xlink:href="Vector2_8hpp.html" target="_top" xlink:title=" ">
<polygon fill="white" stroke="black" points="426.71,-179.5 426.71,-198.5 500.71,-198.5 500.71,-179.5 426.71,-179.5"/>
<text text-anchor="middle" x="463.71" y="-186.5" font-family="Helvetica,sans-Serif" font-size="10.00">Vector2.hpp</text>
</a>
</g>
</g>
<!-- Node2&#45;&gt;Node15 -->
<g id="edge24" class="edge">
<title>Node2&#45;&gt;Node15</title>
<path fill="none" stroke="midnightblue" d="M292.82,-295.61C341.47,-289.13 423.13,-275.51 444.71,-255 457.21,-243.11 461.62,-223.49 463.11,-208.91"/>
<polygon fill="midnightblue" stroke="midnightblue" points="466.63,-208.75 463.78,-198.54 459.64,-208.3 466.63,-208.75"/>
</g>
<!-- Node16 -->
<g id="node16" class="node">
<title>Node16</title>
<g id="a_node16"><a xlink:href="Camera3D_8hpp.html" target="_top" xlink:title=" ">
<polygon fill="white" stroke="black" points="346.21,-235.5 346.21,-254.5 435.21,-254.5 435.21,-235.5 346.21,-235.5"/>
<text text-anchor="middle" x="390.71" y="-242.5" font-family="Helvetica,sans-Serif" font-size="10.00">Camera3D.hpp</text>
</a>
</g>
</g>
<!-- Node2&#45;&gt;Node16 -->
<g id="edge25" class="edge">
<title>Node2&#45;&gt;Node16</title>
<path fill="none" stroke="midnightblue" d="M277.1,-291.44C299.41,-282.52 334.61,-268.44 359.91,-258.32"/>
<polygon fill="midnightblue" stroke="midnightblue" points="361.43,-261.48 369.41,-254.52 358.83,-254.98 361.43,-261.48"/>
</g>
<!-- Node18 -->
<g id="node18" class="node">
<title>Node18</title>
<g id="a_node18"><a xlink:href="Rectangle_8hpp.html" target="_top" xlink:title=" ">
<polygon fill="white" stroke="black" points="31.71,-235.5 31.71,-254.5 117.71,-254.5 117.71,-235.5 31.71,-235.5"/>
<text text-anchor="middle" x="74.71" y="-242.5" font-family="Helvetica,sans-Serif" font-size="10.00">Rectangle.hpp</text>
</a>
</g>
</g>
<!-- Node2&#45;&gt;Node18 -->
<g id="edge31" class="edge">
<title>Node2&#45;&gt;Node18</title>
<path fill="none" stroke="midnightblue" d="M227.03,-291.44C196.18,-282.24 146.98,-267.56 112.88,-257.39"/>
<polygon fill="midnightblue" stroke="midnightblue" points="113.83,-254.02 103.25,-254.52 111.83,-260.73 113.83,-254.02"/>
</g>
<!-- Node19 -->
<g id="node19" class="node">
<title>Node19</title>
<g id="a_node19"><a xlink:href="IAsset_8hpp.html" target="_top" xlink:title=" ">
<polygon fill="white" stroke="black" points="221.71,-235.5 221.71,-254.5 289.71,-254.5 289.71,-235.5 221.71,-235.5"/>
<text text-anchor="middle" x="255.71" y="-242.5" font-family="Helvetica,sans-Serif" font-size="10.00">IAsset.hpp</text>
</a>
</g>
</g>
<!-- Node2&#45;&gt;Node19 -->
<g id="edge34" class="edge">
<title>Node2&#45;&gt;Node19</title>
<path fill="none" stroke="midnightblue" d="M255.71,-291.08C255.71,-284.01 255.71,-273.86 255.71,-264.99"/>
<polygon fill="midnightblue" stroke="midnightblue" points="259.21,-264.75 255.71,-254.75 252.21,-264.75 259.21,-264.75"/>
</g>
<!-- Node5&#45;&gt;Node3 -->
<g id="edge6" class="edge">
<title>Node5&#45;&gt;Node3</title>
<path fill="none" stroke="midnightblue" d="M171.75,-235.5C174.83,-223 181,-198.98 187.71,-179 197.62,-149.44 211.41,-115.95 219.93,-95.92"/>
<polygon fill="midnightblue" stroke="midnightblue" points="223.24,-97.1 223.97,-86.53 216.8,-94.34 223.24,-97.1"/>
</g>
<!-- Node5&#45;&gt;Node4 -->
<g id="edge5" class="edge">
<title>Node5&#45;&gt;Node4</title>
<path fill="none" stroke="midnightblue" d="M161.28,-235.08C153.86,-227.22 142.85,-215.57 133.89,-206.08"/>
<polygon fill="midnightblue" stroke="midnightblue" points="136.38,-203.62 126.97,-198.75 131.29,-208.42 136.38,-203.62"/>
</g>
<!-- Node5&#45;&gt;Node6 -->
<g id="edge7" class="edge">
<title>Node5&#45;&gt;Node6</title>
<path fill="none" stroke="midnightblue" d="M179.02,-235.32C187.6,-227.34 200.52,-215.31 210.89,-205.65"/>
<polygon fill="midnightblue" stroke="midnightblue" points="213.28,-208.21 218.22,-198.83 208.51,-203.09 213.28,-208.21"/>
</g>
<!-- Node5&#45;&gt;Node15 -->
<g id="edge18" class="edge">
<title>Node5&#45;&gt;Node15</title>
<path fill="none" stroke="midnightblue" d="M203.95,-236.73C206.91,-236.13 209.86,-235.55 212.71,-235 300.44,-218.12 325.09,-216.01 416.59,-199.18"/>
<polygon fill="midnightblue" stroke="midnightblue" points="417.36,-202.59 426.56,-197.33 416.09,-195.71 417.36,-202.59"/>
</g>
<!-- Node6&#45;&gt;Node3 -->
<g id="edge8" class="edge">
<title>Node6&#45;&gt;Node3</title>
<path fill="none" stroke="midnightblue" d="M227.71,-179.37C227.71,-161.62 227.71,-120.67 227.71,-96.6"/>
<polygon fill="midnightblue" stroke="midnightblue" points="231.21,-96.59 227.71,-86.59 224.21,-96.59 231.21,-96.59"/>
</g>
<!-- Node7 -->
<g id="node7" class="node">
<title>Node7</title>
<g id="a_node7"><a xlink:href="Vector3_8hpp.html" target="_top" xlink:title=" ">
<polygon fill="white" stroke="black" points="314.71,-123.5 314.71,-142.5 388.71,-142.5 388.71,-123.5 314.71,-123.5"/>
<text text-anchor="middle" x="351.71" y="-130.5" font-family="Helvetica,sans-Serif" font-size="10.00">Vector3.hpp</text>
</a>
</g>
</g>
<!-- Node6&#45;&gt;Node7 -->
<g id="edge9" class="edge">
<title>Node6&#45;&gt;Node7</title>
<path fill="none" stroke="midnightblue" d="M247.35,-179.44C267.67,-170.6 299.61,-156.69 322.8,-146.59"/>
<polygon fill="midnightblue" stroke="midnightblue" points="324.38,-149.72 332.15,-142.52 321.58,-143.3 324.38,-149.72"/>
</g>
<!-- Node7&#45;&gt;Node3 -->
<g id="edge10" class="edge">
<title>Node7&#45;&gt;Node3</title>
<path fill="none" stroke="midnightblue" d="M332.06,-123.44C311.74,-114.6 279.8,-100.69 256.61,-90.59"/>
<polygon fill="midnightblue" stroke="midnightblue" points="257.83,-87.3 247.26,-86.52 255.03,-93.72 257.83,-87.3"/>
</g>
<!-- Node8 -->
<g id="node8" class="node">
<title>Node8</title>
<g id="a_node8"><a xlink:href="IXMLSerializable_8hpp.html" target="_top" xlink:title=" ">
<polygon fill="white" stroke="black" points="422.21,-67.5 422.21,-86.5 541.21,-86.5 541.21,-67.5 422.21,-67.5"/>
<text text-anchor="middle" x="481.71" y="-74.5" font-family="Helvetica,sans-Serif" font-size="10.00">IXMLSerializable.hpp</text>
</a>
</g>
</g>
<!-- Node7&#45;&gt;Node8 -->
<g id="edge11" class="edge">
<title>Node7&#45;&gt;Node8</title>
<path fill="none" stroke="midnightblue" d="M372.3,-123.44C393.7,-114.56 427.39,-100.56 451.73,-90.45"/>
<polygon fill="midnightblue" stroke="midnightblue" points="453.31,-93.58 461.2,-86.52 450.63,-87.12 453.31,-93.58"/>
</g>
<!-- Node13 -->
<g id="node13" class="node">
<title>Node13</title>
<g id="a_node13"><a xlink:title=" ">
<polygon fill="white" stroke="#bfbfbf" points="357.21,-67.5 357.21,-86.5 404.21,-86.5 404.21,-67.5 357.21,-67.5"/>
<text text-anchor="middle" x="380.71" y="-74.5" font-family="Helvetica,sans-Serif" font-size="10.00">cmath</text>
</a>
</g>
</g>
<!-- Node7&#45;&gt;Node13 -->
<g id="edge16" class="edge">
<title>Node7&#45;&gt;Node13</title>
<path fill="none" stroke="midnightblue" d="M356.49,-123.08C360.46,-115.69 366.23,-104.95 371.14,-95.81"/>
<polygon fill="midnightblue" stroke="midnightblue" points="374.36,-97.22 376.01,-86.75 368.19,-93.91 374.36,-97.22"/>
</g>
<!-- Node14 -->
<g id="node14" class="node">
<title>Node14</title>
<g id="a_node14"><a xlink:title=" ">
<polygon fill="white" stroke="#bfbfbf" points="282.71,-67.5 282.71,-86.5 338.71,-86.5 338.71,-67.5 282.71,-67.5"/>
<text text-anchor="middle" x="310.71" y="-74.5" font-family="Helvetica,sans-Serif" font-size="10.00">sstream</text>
</a>
</g>
</g>
<!-- Node7&#45;&gt;Node14 -->
<g id="edge17" class="edge">
<title>Node7&#45;&gt;Node14</title>
<path fill="none" stroke="midnightblue" d="M344.94,-123.08C339.14,-115.46 330.65,-104.26 323.57,-94.94"/>
<polygon fill="midnightblue" stroke="midnightblue" points="326.18,-92.6 317.35,-86.75 320.61,-96.83 326.18,-92.6"/>
</g>
<!-- Node9 -->
<g id="node9" class="node">
<title>Node9</title>
<g id="a_node9"><a xlink:title=" ">
<polygon fill="white" stroke="#bfbfbf" points="219.21,-6 219.21,-25 276.21,-25 276.21,-6 219.21,-6"/>
<text text-anchor="middle" x="247.71" y="-13" font-family="Helvetica,sans-Serif" font-size="10.00">ostream</text>
</a>
</g>
</g>
<!-- Node8&#45;&gt;Node9 -->
<g id="edge12" class="edge">
<title>Node8&#45;&gt;Node9</title>
<path fill="none" stroke="midnightblue" d="M436.48,-67.47C396.45,-59.49 336.65,-46.48 285.71,-31 283.13,-30.22 280.49,-29.35 277.84,-28.43"/>
<polygon fill="midnightblue" stroke="midnightblue" points="279.03,-25.14 268.43,-25 276.63,-31.72 279.03,-25.14"/>
</g>
<!-- Node8&#45;&gt;Node10 -->
<g id="edge13" class="edge">
<title>Node8&#45;&gt;Node10</title>
<path fill="none" stroke="midnightblue" d="M496.75,-67.48C513.98,-57.71 542.45,-41.58 562.74,-30.08"/>
<polygon fill="midnightblue" stroke="midnightblue" points="564.72,-32.98 571.69,-25.01 561.26,-26.89 564.72,-32.98"/>
</g>
<!-- Node11 -->
<g id="node11" class="node">
<title>Node11</title>
<g id="a_node11"><a xlink:title=" ">
<polygon fill="white" stroke="#bfbfbf" points="294.21,-0.5 294.21,-30.5 407.21,-30.5 407.21,-0.5 294.21,-0.5"/>
<text text-anchor="start" x="302.21" y="-18.5" font-family="Helvetica,sans-Serif" font-size="10.00">boost/property_tree</text>
<text text-anchor="middle" x="350.71" y="-7.5" font-family="Helvetica,sans-Serif" font-size="10.00">/ptree.hpp</text>
</a>
</g>
</g>
<!-- Node8&#45;&gt;Node11 -->
<g id="edge14" class="edge">
<title>Node8&#45;&gt;Node11</title>
<path fill="none" stroke="midnightblue" d="M462.94,-67.48C444.2,-58.96 414.82,-45.62 390.82,-34.72"/>
<polygon fill="midnightblue" stroke="midnightblue" points="392.13,-31.47 381.58,-30.52 389.24,-37.85 392.13,-31.47"/>
</g>
<!-- Node12 -->
<g id="node12" class="node">
<title>Node12</title>
<g id="a_node12"><a xlink:title=" ">
<polygon fill="white" stroke="#bfbfbf" points="425.21,-0.5 425.21,-30.5 538.21,-30.5 538.21,-0.5 425.21,-0.5"/>
<text text-anchor="start" x="433.21" y="-18.5" font-family="Helvetica,sans-Serif" font-size="10.00">boost/property_tree</text>
<text text-anchor="middle" x="481.71" y="-7.5" font-family="Helvetica,sans-Serif" font-size="10.00">/xml_parser.hpp</text>
</a>
</g>
</g>
<!-- Node8&#45;&gt;Node12 -->
<g id="edge15" class="edge">
<title>Node8&#45;&gt;Node12</title>
<path fill="none" stroke="midnightblue" d="M481.71,-67.48C481.71,-60.47 481.71,-50.19 481.71,-40.7"/>
<polygon fill="midnightblue" stroke="midnightblue" points="485.21,-40.52 481.71,-30.52 478.21,-40.52 485.21,-40.52"/>
</g>
<!-- Node15&#45;&gt;Node3 -->
<g id="edge19" class="edge">
<title>Node15&#45;&gt;Node3</title>
<path fill="none" stroke="midnightblue" d="M457.43,-179.4C446.76,-165.42 423.69,-137.82 397.71,-123 375.1,-110.11 307.24,-94.44 264.4,-85.4"/>
<polygon fill="midnightblue" stroke="midnightblue" points="264.86,-81.92 254.36,-83.31 263.43,-88.77 264.86,-81.92"/>
</g>
<!-- Node15&#45;&gt;Node7 -->
<g id="edge21" class="edge">
<title>Node15&#45;&gt;Node7</title>
<path fill="none" stroke="midnightblue" d="M445.71,-179.32C427.67,-170.62 399.66,-157.12 378.9,-147.11"/>
<polygon fill="midnightblue" stroke="midnightblue" points="380.18,-143.84 369.66,-142.65 377.14,-150.15 380.18,-143.84"/>
</g>
<!-- Node15&#45;&gt;Node8 -->
<g id="edge22" class="edge">
<title>Node15&#45;&gt;Node8</title>
<path fill="none" stroke="midnightblue" d="M465.12,-179.37C468.02,-161.62 474.72,-120.67 478.66,-96.6"/>
<polygon fill="midnightblue" stroke="midnightblue" points="482.14,-97.03 480.3,-86.59 475.23,-95.89 482.14,-97.03"/>
</g>
<!-- Node15&#45;&gt;Node13 -->
<g id="edge20" class="edge">
<title>Node15&#45;&gt;Node13</title>
<path fill="none" stroke="midnightblue" d="M460.54,-179.43C455.48,-166.42 444.72,-141.28 430.71,-123 422.13,-111.82 410.54,-101.18 400.67,-93.06"/>
<polygon fill="midnightblue" stroke="midnightblue" points="402.57,-90.1 392.56,-86.62 398.21,-95.58 402.57,-90.1"/>
</g>
<!-- Node16&#45;&gt;Node3 -->
<g id="edge26" class="edge">
<title>Node16&#45;&gt;Node3</title>
<path fill="none" stroke="midnightblue" d="M379.56,-235.47C368.35,-226.73 350.78,-212.54 336.71,-199 300.05,-163.73 261.08,-118.28 241.16,-94.37"/>
<polygon fill="midnightblue" stroke="midnightblue" points="243.79,-92.06 234.72,-86.59 238.4,-96.53 243.79,-92.06"/>
</g>
<!-- Node16&#45;&gt;Node7 -->
<g id="edge28" class="edge">
<title>Node16&#45;&gt;Node7</title>
<path fill="none" stroke="midnightblue" d="M376.92,-235.19C365.88,-227.24 351.2,-214.45 344.71,-199 338.45,-184.14 341.29,-165.76 345.06,-152.34"/>
<polygon fill="midnightblue" stroke="midnightblue" points="348.4,-153.4 348.13,-142.81 341.74,-151.26 348.4,-153.4"/>
</g>
<!-- Node16&#45;&gt;Node15 -->
<g id="edge27" class="edge">
<title>Node16&#45;&gt;Node15</title>
<path fill="none" stroke="midnightblue" d="M402.43,-235.32C413.54,-227.11 430.45,-214.6 443.69,-204.81"/>
<polygon fill="midnightblue" stroke="midnightblue" points="445.81,-207.59 451.76,-198.83 441.64,-201.97 445.81,-207.59"/>
</g>
<!-- Node17 -->
<g id="node17" class="node">
<title>Node17</title>
<g id="a_node17"><a xlink:href="Ray_8hpp.html" target="_top" xlink:title=" ">
<polygon fill="white" stroke="black" points="353.21,-179.5 353.21,-198.5 408.21,-198.5 408.21,-179.5 353.21,-179.5"/>
<text text-anchor="middle" x="380.71" y="-186.5" font-family="Helvetica,sans-Serif" font-size="10.00">Ray.hpp</text>
</a>
</g>
</g>
<!-- Node16&#45;&gt;Node17 -->
<g id="edge29" class="edge">
<title>Node16&#45;&gt;Node17</title>
<path fill="none" stroke="midnightblue" d="M389.05,-235.08C387.73,-227.93 385.82,-217.64 384.17,-208.69"/>
<polygon fill="midnightblue" stroke="midnightblue" points="387.59,-207.95 382.33,-198.75 380.71,-209.22 387.59,-207.95"/>
</g>
<!-- Node17&#45;&gt;Node7 -->
<g id="edge30" class="edge">
<title>Node17&#45;&gt;Node7</title>
<path fill="none" stroke="midnightblue" d="M375.92,-179.08C371.95,-171.69 366.18,-160.95 361.27,-151.81"/>
<polygon fill="midnightblue" stroke="midnightblue" points="364.22,-149.91 356.41,-142.75 358.05,-153.22 364.22,-149.91"/>
</g>
<!-- Node18&#45;&gt;Node3 -->
<g id="edge32" class="edge">
<title>Node18&#45;&gt;Node3</title>
<path fill="none" stroke="midnightblue" d="M74.5,-235.26C74.58,-222.04 76.37,-196.62 87.71,-179 114.67,-137.08 165.68,-107 198.12,-91.07"/>
<polygon fill="midnightblue" stroke="midnightblue" points="200.02,-94.04 207.54,-86.58 197.01,-87.72 200.02,-94.04"/>
</g>
<!-- Node18&#45;&gt;Node6 -->
<g id="edge33" class="edge">
<title>Node18&#45;&gt;Node6</title>
<path fill="none" stroke="midnightblue" d="M98.95,-235.44C124.58,-226.4 165.19,-212.06 193.94,-201.92"/>
<polygon fill="midnightblue" stroke="midnightblue" points="195.31,-205.15 203.58,-198.52 192.98,-198.54 195.31,-205.15"/>
</g>
</g>
</svg>
