<?xml version="1.0" encoding="UTF-8" standalone="no"?>
<!DOCTYPE svg PUBLIC "-//W3C//DTD SVG 1.1//EN"
 "http://www.w3.org/Graphics/SVG/1.1/DTD/svg11.dtd">
<!-- Generated by graphviz version 2.43.0 (0)
 -->
<!-- Title: Libs/Engine/sources/Components/TextUI/TextUI.hpp Pages: 1 -->
<svg width="819pt" height="442pt"
 viewBox="0.00 0.00 818.50 442.00" xmlns="http://www.w3.org/2000/svg" xmlns:xlink="http://www.w3.org/1999/xlink">
<g id="graph0" class="graph" transform="scale(1 1) rotate(0) translate(4 438)">
<title>Libs/Engine/sources/Components/TextUI/TextUI.hpp</title>
<polygon fill="white" stroke="transparent" points="-4,4 -4,-438 814.5,-438 814.5,4 -4,4"/>
<!-- Node1 -->
<g id="node1" class="node">
<title>Node1</title>
<g id="a_node1"><a xlink:title=" ">
<polygon fill="#bfbfbf" stroke="black" points="426.5,-403.5 426.5,-433.5 596.5,-433.5 596.5,-403.5 426.5,-403.5"/>
<text text-anchor="start" x="434.5" y="-421.5" font-family="Helvetica,sans-Serif" font-size="10.00">Libs/Engine/sources</text>
<text text-anchor="middle" x="511.5" y="-410.5" font-family="Helvetica,sans-Serif" font-size="10.00">/Components/TextUI/TextUI.hpp</text>
</a>
</g>
</g>
<!-- Node2 -->
<g id="node2" class="node">
<title>Node2</title>
<g id="a_node2"><a xlink:href="IComponent_8hpp.html" target="_top" xlink:title=" ">
<polygon fill="white" stroke="black" points="47,-123.5 47,-142.5 144,-142.5 144,-123.5 47,-123.5"/>
<text text-anchor="middle" x="95.5" y="-130.5" font-family="Helvetica,sans-Serif" font-size="10.00">IComponent.hpp</text>
</a>
</g>
</g>
<!-- Node1&#45;&gt;Node2 -->
<g id="edge1" class="edge">
<title>Node1&#45;&gt;Node2</title>
<path fill="none" stroke="midnightblue" d="M426.27,-411.07C304.82,-399.52 96.5,-369.82 96.5,-302 96.5,-302 96.5,-302 96.5,-244 96.5,-211.95 96.07,-174.64 95.77,-152.75"/>
<polygon fill="midnightblue" stroke="midnightblue" points="99.27,-152.51 95.63,-142.56 92.27,-152.61 99.27,-152.51"/>
</g>
<!-- Node8 -->
<g id="node8" class="node">
<title>Node8</title>
<g id="a_node8"><a xlink:href="IUIObject_8hpp.html" target="_top" xlink:title=" ">
<polygon fill="white" stroke="black" points="332,-347.5 332,-366.5 415,-366.5 415,-347.5 332,-347.5"/>
<text text-anchor="middle" x="373.5" y="-354.5" font-family="Helvetica,sans-Serif" font-size="10.00">IUIObject.hpp</text>
</a>
</g>
</g>
<!-- Node1&#45;&gt;Node8 -->
<g id="edge8" class="edge">
<title>Node1&#45;&gt;Node8</title>
<path fill="none" stroke="midnightblue" d="M478.8,-403.4C455.75,-393.46 425.14,-380.26 402.87,-370.66"/>
<polygon fill="midnightblue" stroke="midnightblue" points="404.15,-367.4 393.58,-366.66 401.38,-373.83 404.15,-367.4"/>
</g>
<!-- Node17 -->
<g id="node17" class="node">
<title>Node17</title>
<g id="a_node17"><a xlink:href="Color_8hpp.html" target="_top" xlink:title=" ">
<polygon fill="white" stroke="black" points="544.5,-179.5 544.5,-198.5 606.5,-198.5 606.5,-179.5 544.5,-179.5"/>
<text text-anchor="middle" x="575.5" y="-186.5" font-family="Helvetica,sans-Serif" font-size="10.00">Color.hpp</text>
</a>
</g>
</g>
<!-- Node1&#45;&gt;Node17 -->
<g id="edge47" class="edge">
<title>Node1&#45;&gt;Node17</title>
<path fill="none" stroke="midnightblue" d="M515.5,-403.27C526.6,-363.81 557.77,-253.02 570.24,-208.68"/>
<polygon fill="midnightblue" stroke="midnightblue" points="573.65,-209.5 572.99,-198.93 566.91,-207.61 573.65,-209.5"/>
</g>
<!-- Node22 -->
<g id="node22" class="node">
<title>Node22</title>
<g id="a_node22"><a xlink:href="Font_8hpp.html" target="_top" xlink:title=" ">
<polygon fill="white" stroke="black" points="609,-235.5 609,-254.5 668,-254.5 668,-235.5 609,-235.5"/>
<text text-anchor="middle" x="638.5" y="-242.5" font-family="Helvetica,sans-Serif" font-size="10.00">Font.hpp</text>
</a>
</g>
</g>
<!-- Node1&#45;&gt;Node22 -->
<g id="edge41" class="edge">
<title>Node1&#45;&gt;Node22</title>
<path fill="none" stroke="midnightblue" d="M545.61,-403.35C562.31,-394.93 581.56,-382.79 594.5,-367 619.56,-336.41 631,-290.32 635.67,-264.75"/>
<polygon fill="midnightblue" stroke="midnightblue" points="639.18,-265.02 637.37,-254.58 632.27,-263.87 639.18,-265.02"/>
</g>
<!-- Node3 -->
<g id="node3" class="node">
<title>Node3</title>
<g id="a_node3"><a xlink:title=" ">
<polygon fill="white" stroke="#bfbfbf" points="0,-6 0,-25 57,-25 57,-6 0,-6"/>
<text text-anchor="middle" x="28.5" y="-13" font-family="Helvetica,sans-Serif" font-size="10.00">ostream</text>
</a>
</g>
</g>
<!-- Node2&#45;&gt;Node3 -->
<g id="edge2" class="edge">
<title>Node2&#45;&gt;Node3</title>
<path fill="none" stroke="midnightblue" d="M88.43,-123.37C81.38,-114.54 70.48,-100.29 62.5,-87 52.14,-69.75 42.39,-48.87 36.01,-34.33"/>
<polygon fill="midnightblue" stroke="midnightblue" points="39.17,-32.81 32,-25.01 32.73,-35.58 39.17,-32.81"/>
</g>
<!-- Node4 -->
<g id="node4" class="node">
<title>Node4</title>
<g id="a_node4"><a xlink:href="IXMLSerializable_8hpp.html" target="_top" xlink:title=" ">
<polygon fill="white" stroke="black" points="72,-67.5 72,-86.5 191,-86.5 191,-67.5 72,-67.5"/>
<text text-anchor="middle" x="131.5" y="-74.5" font-family="Helvetica,sans-Serif" font-size="10.00">IXMLSerializable.hpp</text>
</a>
</g>
</g>
<!-- Node2&#45;&gt;Node4 -->
<g id="edge3" class="edge">
<title>Node2&#45;&gt;Node4</title>
<path fill="none" stroke="midnightblue" d="M101.44,-123.08C106.48,-115.53 113.84,-104.49 120.01,-95.23"/>
<polygon fill="midnightblue" stroke="midnightblue" points="123.03,-97.01 125.67,-86.75 117.21,-93.13 123.03,-97.01"/>
</g>
<!-- Node4&#45;&gt;Node3 -->
<g id="edge4" class="edge">
<title>Node4&#45;&gt;Node3</title>
<path fill="none" stroke="midnightblue" d="M116.74,-67.48C99.84,-57.71 71.92,-41.58 52.01,-30.08"/>
<polygon fill="midnightblue" stroke="midnightblue" points="53.64,-26.98 43.23,-25.01 50.14,-33.04 53.64,-26.98"/>
</g>
<!-- Node5 -->
<g id="node5" class="node">
<title>Node5</title>
<g id="a_node5"><a xlink:title=" ">
<polygon fill="white" stroke="#bfbfbf" points="337.5,-6 337.5,-25 397.5,-25 397.5,-6 337.5,-6"/>
<text text-anchor="middle" x="367.5" y="-13" font-family="Helvetica,sans-Serif" font-size="10.00">iostream</text>
</a>
</g>
</g>
<!-- Node4&#45;&gt;Node5 -->
<g id="edge5" class="edge">
<title>Node4&#45;&gt;Node5</title>
<path fill="none" stroke="midnightblue" d="M176.53,-67.47C216.75,-59.44 277.07,-46.36 328.5,-31 331.07,-30.23 333.72,-29.38 336.36,-28.49"/>
<polygon fill="midnightblue" stroke="midnightblue" points="337.55,-31.78 345.81,-25.14 335.21,-25.18 337.55,-31.78"/>
</g>
<!-- Node6 -->
<g id="node6" class="node">
<title>Node6</title>
<g id="a_node6"><a xlink:title=" ">
<polygon fill="white" stroke="#bfbfbf" points="75,-0.5 75,-30.5 188,-30.5 188,-0.5 75,-0.5"/>
<text text-anchor="start" x="83" y="-18.5" font-family="Helvetica,sans-Serif" font-size="10.00">boost/property_tree</text>
<text text-anchor="middle" x="131.5" y="-7.5" font-family="Helvetica,sans-Serif" font-size="10.00">/ptree.hpp</text>
</a>
</g>
</g>
<!-- Node4&#45;&gt;Node6 -->
<g id="edge6" class="edge">
<title>Node4&#45;&gt;Node6</title>
<path fill="none" stroke="midnightblue" d="M131.5,-67.48C131.5,-60.47 131.5,-50.19 131.5,-40.7"/>
<polygon fill="midnightblue" stroke="midnightblue" points="135,-40.52 131.5,-30.52 128,-40.52 135,-40.52"/>
</g>
<!-- Node7 -->
<g id="node7" class="node">
<title>Node7</title>
<g id="a_node7"><a xlink:title=" ">
<polygon fill="white" stroke="#bfbfbf" points="206,-0.5 206,-30.5 319,-30.5 319,-0.5 206,-0.5"/>
<text text-anchor="start" x="214" y="-18.5" font-family="Helvetica,sans-Serif" font-size="10.00">boost/property_tree</text>
<text text-anchor="middle" x="262.5" y="-7.5" font-family="Helvetica,sans-Serif" font-size="10.00">/xml_parser.hpp</text>
</a>
</g>
</g>
<!-- Node4&#45;&gt;Node7 -->
<g id="edge7" class="edge">
<title>Node4&#45;&gt;Node7</title>
<path fill="none" stroke="midnightblue" d="M150.27,-67.48C169.01,-58.96 198.39,-45.62 222.39,-34.72"/>
<polygon fill="midnightblue" stroke="midnightblue" points="223.97,-37.85 231.63,-30.52 221.07,-31.47 223.97,-37.85"/>
</g>
<!-- Node8&#45;&gt;Node2 -->
<g id="edge9" class="edge">
<title>Node8&#45;&gt;Node2</title>
<path fill="none" stroke="midnightblue" d="M348.05,-347.43C308.38,-333.13 230.92,-301.33 178.5,-255 144.27,-224.76 117.28,-177.52 104.17,-151.93"/>
<polygon fill="midnightblue" stroke="midnightblue" points="107.16,-150.08 99.56,-142.69 100.89,-153.2 107.16,-150.08"/>
</g>
<!-- Node9 -->
<g id="node9" class="node">
<title>Node9</title>
<g id="a_node9"><a xlink:href="Vector2_8hpp.html" target="_top" xlink:title=" ">
<polygon fill="white" stroke="black" points="314.5,-179.5 314.5,-198.5 388.5,-198.5 388.5,-179.5 314.5,-179.5"/>
<text text-anchor="middle" x="351.5" y="-186.5" font-family="Helvetica,sans-Serif" font-size="10.00">Vector2.hpp</text>
</a>
</g>
</g>
<!-- Node8&#45;&gt;Node9 -->
<g id="edge10" class="edge">
<title>Node8&#45;&gt;Node9</title>
<path fill="none" stroke="midnightblue" d="M371.15,-347.44C366.51,-330.14 356.34,-289.71 352.5,-255 350.79,-239.56 350.63,-221.92 350.85,-208.93"/>
<polygon fill="midnightblue" stroke="midnightblue" points="354.35,-208.95 351.11,-198.86 347.35,-208.77 354.35,-208.95"/>
</g>
<!-- Node14 -->
<g id="node14" class="node">
<title>Node14</title>
<g id="a_node14"><a xlink:href="Texture_8hpp.html" target="_top" xlink:title=" ">
<polygon fill="white" stroke="black" points="405.5,-291.5 405.5,-310.5 479.5,-310.5 479.5,-291.5 405.5,-291.5"/>
<text text-anchor="middle" x="442.5" y="-298.5" font-family="Helvetica,sans-Serif" font-size="10.00">Texture.hpp</text>
</a>
</g>
</g>
<!-- Node8&#45;&gt;Node14 -->
<g id="edge19" class="edge">
<title>Node8&#45;&gt;Node14</title>
<path fill="none" stroke="midnightblue" d="M384.59,-347.32C394.99,-339.18 410.76,-326.84 423.22,-317.09"/>
<polygon fill="midnightblue" stroke="midnightblue" points="425.49,-319.75 431.21,-310.83 421.18,-314.24 425.49,-319.75"/>
</g>
<!-- Node9&#45;&gt;Node4 -->
<g id="edge18" class="edge">
<title>Node9&#45;&gt;Node4</title>
<path fill="none" stroke="midnightblue" d="M314.24,-183.43C280.25,-177.94 229.64,-166.37 191.5,-143 171.33,-130.64 153.71,-109.62 142.87,-94.84"/>
<polygon fill="midnightblue" stroke="midnightblue" points="145.67,-92.73 137.04,-86.57 139.95,-96.76 145.67,-92.73"/>
</g>
<!-- Node10 -->
<g id="node10" class="node">
<title>Node10</title>
<g id="a_node10"><a xlink:title=" ">
<polygon fill="white" stroke="#bfbfbf" points="409,-67.5 409,-86.5 462,-86.5 462,-67.5 409,-67.5"/>
<text text-anchor="middle" x="435.5" y="-74.5" font-family="Helvetica,sans-Serif" font-size="10.00">raylib.h</text>
</a>
</g>
</g>
<!-- Node9&#45;&gt;Node10 -->
<g id="edge11" class="edge">
<title>Node9&#45;&gt;Node10</title>
<path fill="none" stroke="midnightblue" d="M358.09,-179.37C372.02,-161.14 404.63,-118.43 422.77,-94.68"/>
<polygon fill="midnightblue" stroke="midnightblue" points="425.65,-96.66 428.94,-86.59 420.09,-92.41 425.65,-96.66"/>
</g>
<!-- Node11 -->
<g id="node11" class="node">
<title>Node11</title>
<g id="a_node11"><a xlink:title=" ">
<polygon fill="white" stroke="#bfbfbf" points="284,-67.5 284,-86.5 331,-86.5 331,-67.5 284,-67.5"/>
<text text-anchor="middle" x="307.5" y="-74.5" font-family="Helvetica,sans-Serif" font-size="10.00">cmath</text>
</a>
</g>
</g>
<!-- Node9&#45;&gt;Node11 -->
<g id="edge12" class="edge">
<title>Node9&#45;&gt;Node11</title>
<path fill="none" stroke="midnightblue" d="M348.05,-179.37C340.88,-161.46 324.27,-119.92 314.68,-95.95"/>
<polygon fill="midnightblue" stroke="midnightblue" points="317.9,-94.58 310.94,-86.59 311.4,-97.18 317.9,-94.58"/>
</g>
<!-- Node12 -->
<g id="node12" class="node">
<title>Node12</title>
<g id="a_node12"><a xlink:href="Vector3_8hpp.html" target="_top" xlink:title=" ">
<polygon fill="white" stroke="black" points="200.5,-123.5 200.5,-142.5 274.5,-142.5 274.5,-123.5 200.5,-123.5"/>
<text text-anchor="middle" x="237.5" y="-130.5" font-family="Helvetica,sans-Serif" font-size="10.00">Vector3.hpp</text>
</a>
</g>
</g>
<!-- Node9&#45;&gt;Node12 -->
<g id="edge13" class="edge">
<title>Node9&#45;&gt;Node12</title>
<path fill="none" stroke="midnightblue" d="M333.44,-179.44C314.93,-170.68 285.92,-156.94 264.64,-146.86"/>
<polygon fill="midnightblue" stroke="midnightblue" points="266.01,-143.63 255.48,-142.52 263.02,-149.96 266.01,-143.63"/>
</g>
<!-- Node12&#45;&gt;Node4 -->
<g id="edge15" class="edge">
<title>Node12&#45;&gt;Node4</title>
<path fill="none" stroke="midnightblue" d="M220.47,-123.32C203.47,-114.66 177.12,-101.24 157.51,-91.25"/>
<polygon fill="midnightblue" stroke="midnightblue" points="158.99,-88.08 148.49,-86.65 155.81,-94.31 158.99,-88.08"/>
</g>
<!-- Node12&#45;&gt;Node10 -->
<g id="edge14" class="edge">
<title>Node12&#45;&gt;Node10</title>
<path fill="none" stroke="midnightblue" d="M268.87,-123.44C304.16,-113.82 361.4,-98.21 398.75,-88.02"/>
<polygon fill="midnightblue" stroke="midnightblue" points="399.99,-91.31 408.72,-85.3 398.15,-84.56 399.99,-91.31"/>
</g>
<!-- Node12&#45;&gt;Node11 -->
<g id="edge16" class="edge">
<title>Node12&#45;&gt;Node11</title>
<path fill="none" stroke="midnightblue" d="M248.75,-123.32C259.3,-115.18 275.3,-102.84 287.94,-93.09"/>
<polygon fill="midnightblue" stroke="midnightblue" points="290.27,-95.71 296.05,-86.83 285.99,-90.17 290.27,-95.71"/>
</g>
<!-- Node13 -->
<g id="node13" class="node">
<title>Node13</title>
<g id="a_node13"><a xlink:title=" ">
<polygon fill="white" stroke="#bfbfbf" points="209.5,-67.5 209.5,-86.5 265.5,-86.5 265.5,-67.5 209.5,-67.5"/>
<text text-anchor="middle" x="237.5" y="-74.5" font-family="Helvetica,sans-Serif" font-size="10.00">sstream</text>
</a>
</g>
</g>
<!-- Node12&#45;&gt;Node13 -->
<g id="edge17" class="edge">
<title>Node12&#45;&gt;Node13</title>
<path fill="none" stroke="midnightblue" d="M237.5,-123.08C237.5,-116.01 237.5,-105.86 237.5,-96.99"/>
<polygon fill="midnightblue" stroke="midnightblue" points="241,-96.75 237.5,-86.75 234,-96.75 241,-96.75"/>
</g>
<!-- Node14&#45;&gt;Node9 -->
<g id="edge30" class="edge">
<title>Node14&#45;&gt;Node9</title>
<path fill="none" stroke="midnightblue" d="M418,-291.48C401.02,-284.33 379.26,-272.45 366.5,-255 356.78,-241.71 353.23,-223.13 351.99,-209.24"/>
<polygon fill="midnightblue" stroke="midnightblue" points="355.47,-208.68 351.42,-198.89 348.48,-209.07 355.47,-208.68"/>
</g>
<!-- Node14&#45;&gt;Node10 -->
<g id="edge20" class="edge">
<title>Node14&#45;&gt;Node10</title>
<path fill="none" stroke="midnightblue" d="M430,-291.3C419.63,-283.25 405.61,-270.24 399.5,-255 387.93,-226.13 415.9,-135.74 429.08,-96.49"/>
<polygon fill="midnightblue" stroke="midnightblue" points="432.45,-97.47 432.37,-86.87 425.83,-95.21 432.45,-97.47"/>
</g>
<!-- Node15 -->
<g id="node15" class="node">
<title>Node15</title>
<g id="a_node15"><a xlink:title=" ">
<polygon fill="white" stroke="#bfbfbf" points="482.5,-179.5 482.5,-198.5 526.5,-198.5 526.5,-179.5 482.5,-179.5"/>
<text text-anchor="middle" x="504.5" y="-186.5" font-family="Helvetica,sans-Serif" font-size="10.00">string</text>
</a>
</g>
</g>
<!-- Node14&#45;&gt;Node15 -->
<g id="edge21" class="edge">
<title>Node14&#45;&gt;Node15</title>
<path fill="none" stroke="midnightblue" d="M453.2,-291.45C462.95,-283.12 477.07,-269.6 485.5,-255 493.86,-240.52 498.79,-222.07 501.53,-208.53"/>
<polygon fill="midnightblue" stroke="midnightblue" points="505.01,-208.97 503.34,-198.51 498.12,-207.73 505.01,-208.97"/>
</g>
<!-- Node16 -->
<g id="node16" class="node">
<title>Node16</title>
<g id="a_node16"><a xlink:href="Image_8hpp.html" target="_top" xlink:title=" ">
<polygon fill="white" stroke="black" points="408.5,-235.5 408.5,-254.5 476.5,-254.5 476.5,-235.5 408.5,-235.5"/>
<text text-anchor="middle" x="442.5" y="-242.5" font-family="Helvetica,sans-Serif" font-size="10.00">Image.hpp</text>
</a>
</g>
</g>
<!-- Node14&#45;&gt;Node16 -->
<g id="edge22" class="edge">
<title>Node14&#45;&gt;Node16</title>
<path fill="none" stroke="midnightblue" d="M442.5,-291.08C442.5,-284.01 442.5,-273.86 442.5,-264.99"/>
<polygon fill="midnightblue" stroke="midnightblue" points="446,-264.75 442.5,-254.75 439,-264.75 446,-264.75"/>
</g>
<!-- Node14&#45;&gt;Node17 -->
<g id="edge29" class="edge">
<title>Node14&#45;&gt;Node17</title>
<path fill="none" stroke="midnightblue" d="M454.92,-291.38C467.44,-282.57 487.19,-268.32 503.5,-255 523.12,-238.97 544.55,-219.33 558.89,-205.86"/>
<polygon fill="midnightblue" stroke="midnightblue" points="561.58,-208.13 566.44,-198.71 556.77,-203.04 561.58,-208.13"/>
</g>
<!-- Node18 -->
<g id="node18" class="node">
<title>Node18</title>
<g id="a_node18"><a xlink:href="Camera3D_8hpp.html" target="_top" xlink:title=" ">
<polygon fill="white" stroke="black" points="187,-235.5 187,-254.5 276,-254.5 276,-235.5 187,-235.5"/>
<text text-anchor="middle" x="231.5" y="-242.5" font-family="Helvetica,sans-Serif" font-size="10.00">Camera3D.hpp</text>
</a>
</g>
</g>
<!-- Node14&#45;&gt;Node18 -->
<g id="edge31" class="edge">
<title>Node14&#45;&gt;Node18</title>
<path fill="none" stroke="midnightblue" d="M409.07,-291.44C372.64,-282.12 314.27,-267.18 274.47,-257"/>
<polygon fill="midnightblue" stroke="midnightblue" points="275.33,-253.61 264.78,-254.52 273.6,-260.39 275.33,-253.61"/>
</g>
<!-- Node20 -->
<g id="node20" class="node">
<title>Node20</title>
<g id="a_node20"><a xlink:href="Rectangle_8hpp.html" target="_top" xlink:title=" ">
<polygon fill="white" stroke="black" points="724.5,-235.5 724.5,-254.5 810.5,-254.5 810.5,-235.5 724.5,-235.5"/>
<text text-anchor="middle" x="767.5" y="-242.5" font-family="Helvetica,sans-Serif" font-size="10.00">Rectangle.hpp</text>
</a>
</g>
</g>
<!-- Node14&#45;&gt;Node20 -->
<g id="edge37" class="edge">
<title>Node14&#45;&gt;Node20</title>
<path fill="none" stroke="midnightblue" d="M479.78,-293.81C537.39,-284.23 648.27,-265.81 714.29,-254.84"/>
<polygon fill="midnightblue" stroke="midnightblue" points="715.2,-258.24 724.49,-253.15 714.05,-251.33 715.2,-258.24"/>
</g>
<!-- Node21 -->
<g id="node21" class="node">
<title>Node21</title>
<g id="a_node21"><a xlink:href="IAsset_8hpp.html" target="_top" xlink:title=" ">
<polygon fill="white" stroke="black" points="662.5,-179.5 662.5,-198.5 730.5,-198.5 730.5,-179.5 662.5,-179.5"/>
<text text-anchor="middle" x="696.5" y="-186.5" font-family="Helvetica,sans-Serif" font-size="10.00">IAsset.hpp</text>
</a>
</g>
</g>
<!-- Node14&#45;&gt;Node21 -->
<g id="edge40" class="edge">
<title>Node14&#45;&gt;Node21</title>
<path fill="none" stroke="midnightblue" d="M479.66,-297.54C538.41,-292.9 648.99,-280.92 677.5,-255 690.39,-243.28 694.73,-223.34 696.09,-208.63"/>
<polygon fill="midnightblue" stroke="midnightblue" points="699.58,-208.8 696.64,-198.62 692.6,-208.41 699.58,-208.8"/>
</g>
<!-- Node16&#45;&gt;Node9 -->
<g id="edge28" class="edge">
<title>Node16&#45;&gt;Node9</title>
<path fill="none" stroke="midnightblue" d="M427.88,-235.32C413.55,-226.82 391.49,-213.73 374.75,-203.8"/>
<polygon fill="midnightblue" stroke="midnightblue" points="376.47,-200.75 366.08,-198.65 372.9,-206.77 376.47,-200.75"/>
</g>
<!-- Node16&#45;&gt;Node10 -->
<g id="edge24" class="edge">
<title>Node16&#45;&gt;Node10</title>
<path fill="none" stroke="midnightblue" d="M442.12,-235.08C441.02,-208.95 437.79,-132.21 436.28,-96.58"/>
<polygon fill="midnightblue" stroke="midnightblue" points="439.78,-96.41 435.86,-86.57 432.79,-96.71 439.78,-96.41"/>
</g>
<!-- Node16&#45;&gt;Node15 -->
<g id="edge23" class="edge">
<title>Node16&#45;&gt;Node15</title>
<path fill="none" stroke="midnightblue" d="M452.46,-235.32C461.63,-227.34 475.44,-215.31 486.53,-205.65"/>
<polygon fill="midnightblue" stroke="midnightblue" points="489.12,-208.04 494.36,-198.83 484.52,-202.76 489.12,-208.04"/>
</g>
<!-- Node16&#45;&gt;Node17 -->
<g id="edge25" class="edge">
<title>Node16&#45;&gt;Node17</title>
<path fill="none" stroke="midnightblue" d="M463.57,-235.44C485.56,-226.52 520.23,-212.44 545.16,-202.32"/>
<polygon fill="midnightblue" stroke="midnightblue" points="546.58,-205.52 554.52,-198.52 543.94,-199.04 546.58,-205.52"/>
</g>
<!-- Node17&#45;&gt;Node10 -->
<g id="edge26" class="edge">
<title>Node17&#45;&gt;Node10</title>
<path fill="none" stroke="midnightblue" d="M564.51,-179.37C540.69,-160.65 484.06,-116.15 454.38,-92.83"/>
<polygon fill="midnightblue" stroke="midnightblue" points="456.46,-90.02 446.43,-86.59 452.14,-95.52 456.46,-90.02"/>
</g>
<!-- Node17&#45;&gt;Node12 -->
<g id="edge27" class="edge">
<title>Node17&#45;&gt;Node12</title>
<path fill="none" stroke="midnightblue" d="M544.1,-180.71C541.2,-180.11 538.3,-179.53 535.5,-179 447.45,-162.47 343.88,-147.92 284.93,-140.1"/>
<polygon fill="midnightblue" stroke="midnightblue" points="285.18,-136.6 274.81,-138.76 284.27,-143.54 285.18,-136.6"/>
</g>
<!-- Node18&#45;&gt;Node9 -->
<g id="edge33" class="edge">
<title>Node18&#45;&gt;Node9</title>
<path fill="none" stroke="midnightblue" d="M250.51,-235.44C270.09,-226.64 300.81,-212.81 323.23,-202.72"/>
<polygon fill="midnightblue" stroke="midnightblue" points="324.89,-205.81 332.57,-198.52 322.02,-199.43 324.89,-205.81"/>
</g>
<!-- Node18&#45;&gt;Node10 -->
<g id="edge32" class="edge">
<title>Node18&#45;&gt;Node10</title>
<path fill="none" stroke="midnightblue" d="M240.92,-235.4C254.83,-222.78 281.77,-198.61 305.5,-179 343.73,-147.4 389.87,-112.23 415.63,-92.85"/>
<polygon fill="midnightblue" stroke="midnightblue" points="417.94,-95.49 423.84,-86.69 413.74,-89.89 417.94,-95.49"/>
</g>
<!-- Node18&#45;&gt;Node12 -->
<g id="edge34" class="edge">
<title>Node18&#45;&gt;Node12</title>
<path fill="none" stroke="midnightblue" d="M220.14,-235.17C206.03,-223.04 184.82,-200.3 193.5,-179 198.3,-167.23 207.83,-156.86 216.79,-149.05"/>
<polygon fill="midnightblue" stroke="midnightblue" points="219.15,-151.64 224.72,-142.63 214.75,-146.2 219.15,-151.64"/>
</g>
<!-- Node19 -->
<g id="node19" class="node">
<title>Node19</title>
<g id="a_node19"><a xlink:href="Ray_8hpp.html" target="_top" xlink:title=" ">
<polygon fill="white" stroke="black" points="203,-179.5 203,-198.5 258,-198.5 258,-179.5 203,-179.5"/>
<text text-anchor="middle" x="230.5" y="-186.5" font-family="Helvetica,sans-Serif" font-size="10.00">Ray.hpp</text>
</a>
</g>
</g>
<!-- Node18&#45;&gt;Node19 -->
<g id="edge35" class="edge">
<title>Node18&#45;&gt;Node19</title>
<path fill="none" stroke="midnightblue" d="M231.33,-235.08C231.2,-228.01 231.02,-217.86 230.85,-208.99"/>
<polygon fill="midnightblue" stroke="midnightblue" points="234.35,-208.68 230.66,-198.75 227.35,-208.81 234.35,-208.68"/>
</g>
<!-- Node19&#45;&gt;Node12 -->
<g id="edge36" class="edge">
<title>Node19&#45;&gt;Node12</title>
<path fill="none" stroke="midnightblue" d="M231.66,-179.08C232.58,-171.93 233.92,-161.64 235.08,-152.69"/>
<polygon fill="midnightblue" stroke="midnightblue" points="238.55,-153.12 236.37,-142.75 231.61,-152.22 238.55,-153.12"/>
</g>
<!-- Node20&#45;&gt;Node10 -->
<g id="edge38" class="edge">
<title>Node20&#45;&gt;Node10</title>
<path fill="none" stroke="midnightblue" d="M766.04,-235.11C763.31,-221.21 756.11,-194.34 739.5,-179 662.83,-108.2 535.23,-86.93 472.55,-80.61"/>
<polygon fill="midnightblue" stroke="midnightblue" points="472.63,-77.11 462.35,-79.66 471.98,-84.08 472.63,-77.11"/>
</g>
<!-- Node20&#45;&gt;Node17 -->
<g id="edge39" class="edge">
<title>Node20&#45;&gt;Node17</title>
<path fill="none" stroke="midnightblue" d="M737.08,-235.44C704.22,-226.2 651.72,-211.44 615.53,-201.26"/>
<polygon fill="midnightblue" stroke="midnightblue" points="616.35,-197.85 605.78,-198.52 614.46,-204.59 616.35,-197.85"/>
</g>
<!-- Node22&#45;&gt;Node9 -->
<g id="edge44" class="edge">
<title>Node22&#45;&gt;Node9</title>
<path fill="none" stroke="midnightblue" d="M608.87,-238.42C559.04,-229.05 458.11,-210.06 398.52,-198.85"/>
<polygon fill="midnightblue" stroke="midnightblue" points="399.09,-195.39 388.62,-196.98 397.8,-202.27 399.09,-195.39"/>
</g>
<!-- Node22&#45;&gt;Node10 -->
<g id="edge42" class="edge">
<title>Node22&#45;&gt;Node10</title>
<path fill="none" stroke="midnightblue" d="M637.4,-235.49C635.28,-222.12 629.54,-195.97 615.5,-179 577.29,-132.84 512.2,-103.89 471.65,-89.36"/>
<polygon fill="midnightblue" stroke="midnightblue" points="472.74,-86.04 462.15,-86.06 470.44,-92.65 472.74,-86.04"/>
</g>
<!-- Node22&#45;&gt;Node15 -->
<g id="edge43" class="edge">
<title>Node22&#45;&gt;Node15</title>
<path fill="none" stroke="midnightblue" d="M617.27,-235.44C595.12,-226.52 560.18,-212.44 535.06,-202.32"/>
<polygon fill="midnightblue" stroke="midnightblue" points="536.22,-199.01 525.63,-198.52 533.6,-205.5 536.22,-199.01"/>
</g>
<!-- Node22&#45;&gt;Node17 -->
<g id="edge45" class="edge">
<title>Node22&#45;&gt;Node17</title>
<path fill="none" stroke="midnightblue" d="M628.38,-235.32C618.97,-227.26 604.76,-215.08 593.43,-205.37"/>
<polygon fill="midnightblue" stroke="midnightblue" points="595.68,-202.68 585.81,-198.83 591.12,-208 595.68,-202.68"/>
</g>
<!-- Node22&#45;&gt;Node21 -->
<g id="edge46" class="edge">
<title>Node22&#45;&gt;Node21</title>
<path fill="none" stroke="midnightblue" d="M647.82,-235.32C656.39,-227.34 669.31,-215.31 679.69,-205.65"/>
<polygon fill="midnightblue" stroke="midnightblue" points="682.08,-208.21 687.01,-198.83 677.31,-203.09 682.08,-208.21"/>
</g>
</g>
</svg>
