<?xml version="1.0" encoding="UTF-8" standalone="no"?>
<!DOCTYPE svg PUBLIC "-//W3C//DTD SVG 1.1//EN"
 "http://www.w3.org/Graphics/SVG/1.1/DTD/svg11.dtd">
<!-- Generated by graphviz version 2.43.0 (0)
 -->
<!-- Title: Libs/Engine/sources/Components/TextUI/TextUI.cpp Pages: 1 -->
<svg width="1028pt" height="498pt"
 viewBox="0.00 0.00 1028.31 498.00" xmlns="http://www.w3.org/2000/svg" xmlns:xlink="http://www.w3.org/1999/xlink">
<g id="graph0" class="graph" transform="scale(1 1) rotate(0) translate(4 494)">
<title>Libs/Engine/sources/Components/TextUI/TextUI.cpp</title>
<polygon fill="white" stroke="transparent" points="-4,4 -4,-494 1024.31,-494 1024.31,4 -4,4"/>
<!-- Node1 -->
<g id="node1" class="node">
<title>Node1</title>
<g id="a_node1"><a xlink:title=" ">
<polygon fill="#bfbfbf" stroke="black" points="199.31,-459.5 199.31,-489.5 368.31,-489.5 368.31,-459.5 199.31,-459.5"/>
<text text-anchor="start" x="207.31" y="-477.5" font-family="Helvetica,sans-Serif" font-size="10.00">Libs/Engine/sources</text>
<text text-anchor="middle" x="283.81" y="-466.5" font-family="Helvetica,sans-Serif" font-size="10.00">/Components/TextUI/TextUI.cpp</text>
</a>
</g>
</g>
<!-- Node2 -->
<g id="node2" class="node">
<title>Node2</title>
<g id="a_node2"><a xlink:href="AssetCache_8hpp.html" target="_top" xlink:title=" ">
<polygon fill="white" stroke="black" points="86.31,-291.5 86.31,-310.5 181.31,-310.5 181.31,-291.5 86.31,-291.5"/>
<text text-anchor="middle" x="133.81" y="-298.5" font-family="Helvetica,sans-Serif" font-size="10.00">AssetCache.hpp</text>
</a>
</g>
</g>
<!-- Node1&#45;&gt;Node2 -->
<g id="edge1" class="edge">
<title>Node1&#45;&gt;Node2</title>
<path fill="none" stroke="midnightblue" d="M271.54,-459.47C244.05,-428.03 177.65,-352.12 148.24,-318.5"/>
<polygon fill="midnightblue" stroke="midnightblue" points="150.52,-315.78 141.3,-310.56 145.25,-320.39 150.52,-315.78"/>
</g>
<!-- Node9 -->
<g id="node9" class="node">
<title>Node9</title>
<g id="a_node9"><a xlink:href="TextUI_8hpp.html" target="_top" xlink:title=" ">
<polygon fill="white" stroke="black" points="419.81,-403.5 419.81,-422.5 487.81,-422.5 487.81,-403.5 419.81,-403.5"/>
<text text-anchor="middle" x="453.81" y="-410.5" font-family="Helvetica,sans-Serif" font-size="10.00">TextUI.hpp</text>
</a>
</g>
</g>
<!-- Node1&#45;&gt;Node9 -->
<g id="edge8" class="edge">
<title>Node1&#45;&gt;Node9</title>
<path fill="none" stroke="midnightblue" d="M324.1,-459.4C353.13,-449.24 391.89,-435.67 419.46,-426.02"/>
<polygon fill="midnightblue" stroke="midnightblue" points="420.79,-429.26 429.07,-422.66 418.48,-422.66 420.79,-429.26"/>
</g>
<!-- Node3 -->
<g id="node3" class="node">
<title>Node3</title>
<g id="a_node3"><a xlink:href="IAsset_8hpp.html" target="_top" xlink:title=" ">
<polygon fill="white" stroke="black" points="241.81,-179.5 241.81,-198.5 309.81,-198.5 309.81,-179.5 241.81,-179.5"/>
<text text-anchor="middle" x="275.81" y="-186.5" font-family="Helvetica,sans-Serif" font-size="10.00">IAsset.hpp</text>
</a>
</g>
</g>
<!-- Node2&#45;&gt;Node3 -->
<g id="edge2" class="edge">
<title>Node2&#45;&gt;Node3</title>
<path fill="none" stroke="midnightblue" d="M86.22,-292.86C40.07,-283.96 -19.44,-266 6.81,-235 21.15,-218.06 158.83,-201.79 231.45,-194.3"/>
<polygon fill="midnightblue" stroke="midnightblue" points="232.08,-197.75 241.67,-193.26 231.37,-190.79 232.08,-197.75"/>
</g>
<!-- Node4 -->
<g id="node4" class="node">
<title>Node4</title>
<g id="a_node4"><a xlink:href="EngineExceptions_8hpp.html" target="_top" xlink:title=" ">
<polygon fill="white" stroke="black" points="71.81,-235.5 71.81,-254.5 195.81,-254.5 195.81,-235.5 71.81,-235.5"/>
<text text-anchor="middle" x="133.81" y="-242.5" font-family="Helvetica,sans-Serif" font-size="10.00">EngineExceptions.hpp</text>
</a>
</g>
</g>
<!-- Node2&#45;&gt;Node4 -->
<g id="edge3" class="edge">
<title>Node2&#45;&gt;Node4</title>
<path fill="none" stroke="midnightblue" d="M133.81,-291.08C133.81,-284.01 133.81,-273.86 133.81,-264.99"/>
<polygon fill="midnightblue" stroke="midnightblue" points="137.31,-264.75 133.81,-254.75 130.31,-264.75 137.31,-264.75"/>
</g>
<!-- Node7 -->
<g id="node7" class="node">
<title>Node7</title>
<g id="a_node7"><a xlink:title=" ">
<polygon fill="white" stroke="#bfbfbf" points="15.81,-235.5 15.81,-254.5 53.81,-254.5 53.81,-235.5 15.81,-235.5"/>
<text text-anchor="middle" x="34.81" y="-242.5" font-family="Helvetica,sans-Serif" font-size="10.00">map</text>
</a>
</g>
</g>
<!-- Node2&#45;&gt;Node7 -->
<g id="edge6" class="edge">
<title>Node2&#45;&gt;Node7</title>
<path fill="none" stroke="midnightblue" d="M117.91,-291.32C102.17,-282.74 77.87,-269.49 59.6,-259.52"/>
<polygon fill="midnightblue" stroke="midnightblue" points="61.13,-256.37 50.68,-254.65 57.78,-262.52 61.13,-256.37"/>
</g>
<!-- Node8 -->
<g id="node8" class="node">
<title>Node8</title>
<g id="a_node8"><a xlink:title=" ">
<polygon fill="white" stroke="#bfbfbf" points="213.81,-235.5 213.81,-254.5 271.81,-254.5 271.81,-235.5 213.81,-235.5"/>
<text text-anchor="middle" x="242.81" y="-242.5" font-family="Helvetica,sans-Serif" font-size="10.00">memory</text>
</a>
</g>
</g>
<!-- Node2&#45;&gt;Node8 -->
<g id="edge7" class="edge">
<title>Node2&#45;&gt;Node8</title>
<path fill="none" stroke="midnightblue" d="M151.32,-291.32C168.88,-282.62 196.14,-269.12 216.34,-259.11"/>
<polygon fill="midnightblue" stroke="midnightblue" points="217.94,-262.23 225.34,-254.65 214.83,-255.96 217.94,-262.23"/>
</g>
<!-- Node5 -->
<g id="node5" class="node">
<title>Node5</title>
<g id="a_node5"><a xlink:title=" ">
<polygon fill="white" stroke="#bfbfbf" points="101.31,-179.5 101.31,-198.5 166.31,-198.5 166.31,-179.5 101.31,-179.5"/>
<text text-anchor="middle" x="133.81" y="-186.5" font-family="Helvetica,sans-Serif" font-size="10.00">exception</text>
</a>
</g>
</g>
<!-- Node4&#45;&gt;Node5 -->
<g id="edge4" class="edge">
<title>Node4&#45;&gt;Node5</title>
<path fill="none" stroke="midnightblue" d="M133.81,-235.08C133.81,-228.01 133.81,-217.86 133.81,-208.99"/>
<polygon fill="midnightblue" stroke="midnightblue" points="137.31,-208.75 133.81,-198.75 130.31,-208.75 137.31,-208.75"/>
</g>
<!-- Node6 -->
<g id="node6" class="node">
<title>Node6</title>
<g id="a_node6"><a xlink:title=" ">
<polygon fill="white" stroke="#bfbfbf" points="448.81,-179.5 448.81,-198.5 492.81,-198.5 492.81,-179.5 448.81,-179.5"/>
<text text-anchor="middle" x="470.81" y="-186.5" font-family="Helvetica,sans-Serif" font-size="10.00">string</text>
</a>
</g>
</g>
<!-- Node4&#45;&gt;Node6 -->
<g id="edge5" class="edge">
<title>Node4&#45;&gt;Node6</title>
<path fill="none" stroke="midnightblue" d="M187.21,-235.44C257.97,-224.1 380.61,-204.45 438.63,-195.16"/>
<polygon fill="midnightblue" stroke="midnightblue" points="439.36,-198.58 448.68,-193.55 438.25,-191.67 439.36,-198.58"/>
</g>
<!-- Node10 -->
<g id="node10" class="node">
<title>Node10</title>
<g id="a_node10"><a xlink:href="IComponent_8hpp.html" target="_top" xlink:title=" ">
<polygon fill="white" stroke="black" points="923.31,-123.5 923.31,-142.5 1020.31,-142.5 1020.31,-123.5 923.31,-123.5"/>
<text text-anchor="middle" x="971.81" y="-130.5" font-family="Helvetica,sans-Serif" font-size="10.00">IComponent.hpp</text>
</a>
</g>
</g>
<!-- Node9&#45;&gt;Node10 -->
<g id="edge9" class="edge">
<title>Node9&#45;&gt;Node10</title>
<path fill="none" stroke="midnightblue" d="M487.92,-412.16C604.48,-411.82 979.81,-402.88 979.81,-302 979.81,-302 979.81,-302 979.81,-244 979.81,-211.86 976.37,-174.58 974,-152.72"/>
<polygon fill="midnightblue" stroke="midnightblue" points="977.46,-152.09 972.86,-142.54 970.5,-152.87 977.46,-152.09"/>
</g>
<!-- Node16 -->
<g id="node16" class="node">
<title>Node16</title>
<g id="a_node16"><a xlink:href="IUIObject_8hpp.html" target="_top" xlink:title=" ">
<polygon fill="white" stroke="black" points="727.31,-347.5 727.31,-366.5 810.31,-366.5 810.31,-347.5 727.31,-347.5"/>
<text text-anchor="middle" x="768.81" y="-354.5" font-family="Helvetica,sans-Serif" font-size="10.00">IUIObject.hpp</text>
</a>
</g>
</g>
<!-- Node9&#45;&gt;Node16 -->
<g id="edge16" class="edge">
<title>Node9&#45;&gt;Node16</title>
<path fill="none" stroke="midnightblue" d="M487.82,-406.17C543.01,-396.71 652.43,-377.95 717.24,-366.84"/>
<polygon fill="midnightblue" stroke="midnightblue" points="717.98,-370.27 727.24,-365.13 716.79,-363.37 717.98,-370.27"/>
</g>
<!-- Node24 -->
<g id="node24" class="node">
<title>Node24</title>
<g id="a_node24"><a xlink:href="Color_8hpp.html" target="_top" xlink:title=" ">
<polygon fill="white" stroke="black" points="555.81,-179.5 555.81,-198.5 617.81,-198.5 617.81,-179.5 555.81,-179.5"/>
<text text-anchor="middle" x="586.81" y="-186.5" font-family="Helvetica,sans-Serif" font-size="10.00">Color.hpp</text>
</a>
</g>
</g>
<!-- Node9&#45;&gt;Node24 -->
<g id="edge55" class="edge">
<title>Node9&#45;&gt;Node24</title>
<path fill="none" stroke="midnightblue" d="M454.46,-403.24C456.94,-375.58 467.9,-288.73 510.81,-235 522.14,-220.81 539.25,-210.12 554.37,-202.73"/>
<polygon fill="midnightblue" stroke="midnightblue" points="555.84,-205.91 563.46,-198.55 552.91,-199.55 555.84,-205.91"/>
</g>
<!-- Node28 -->
<g id="node28" class="node">
<title>Node28</title>
<g id="a_node28"><a xlink:href="Font_8hpp.html" target="_top" xlink:title=" ">
<polygon fill="white" stroke="black" points="366.31,-235.5 366.31,-254.5 425.31,-254.5 425.31,-235.5 366.31,-235.5"/>
<text text-anchor="middle" x="395.81" y="-242.5" font-family="Helvetica,sans-Serif" font-size="10.00">Font.hpp</text>
</a>
</g>
</g>
<!-- Node9&#45;&gt;Node28 -->
<g id="edge49" class="edge">
<title>Node9&#45;&gt;Node28</title>
<path fill="none" stroke="midnightblue" d="M450.69,-403.08C441.52,-376.83 414.52,-299.55 402.14,-264.12"/>
<polygon fill="midnightblue" stroke="midnightblue" points="405.41,-262.85 398.8,-254.57 398.8,-265.16 405.41,-262.85"/>
</g>
<!-- Node11 -->
<g id="node11" class="node">
<title>Node11</title>
<g id="a_node11"><a xlink:title=" ">
<polygon fill="white" stroke="#bfbfbf" points="949.31,-6 949.31,-25 1006.31,-25 1006.31,-6 949.31,-6"/>
<text text-anchor="middle" x="977.81" y="-13" font-family="Helvetica,sans-Serif" font-size="10.00">ostream</text>
</a>
</g>
</g>
<!-- Node10&#45;&gt;Node11 -->
<g id="edge10" class="edge">
<title>Node10&#45;&gt;Node11</title>
<path fill="none" stroke="midnightblue" d="M972.26,-123.32C973.23,-104.76 975.51,-60.84 976.83,-35.47"/>
<polygon fill="midnightblue" stroke="midnightblue" points="980.33,-35.45 977.36,-25.28 973.34,-35.09 980.33,-35.45"/>
</g>
<!-- Node12 -->
<g id="node12" class="node">
<title>Node12</title>
<g id="a_node12"><a xlink:href="IXMLSerializable_8hpp.html" target="_top" xlink:title=" ">
<polygon fill="white" stroke="black" points="830.31,-67.5 830.31,-86.5 949.31,-86.5 949.31,-67.5 830.31,-67.5"/>
<text text-anchor="middle" x="889.81" y="-74.5" font-family="Helvetica,sans-Serif" font-size="10.00">IXMLSerializable.hpp</text>
</a>
</g>
</g>
<!-- Node10&#45;&gt;Node12 -->
<g id="edge11" class="edge">
<title>Node10&#45;&gt;Node12</title>
<path fill="none" stroke="midnightblue" d="M958.64,-123.32C945.96,-114.98 926.58,-102.21 911.61,-92.35"/>
<polygon fill="midnightblue" stroke="midnightblue" points="913.23,-89.23 902.95,-86.65 909.38,-95.08 913.23,-89.23"/>
</g>
<!-- Node12&#45;&gt;Node11 -->
<g id="edge12" class="edge">
<title>Node12&#45;&gt;Node11</title>
<path fill="none" stroke="midnightblue" d="M902.42,-67.48C916.53,-57.93 939.64,-42.31 956.56,-30.87"/>
<polygon fill="midnightblue" stroke="midnightblue" points="958.9,-33.51 965.23,-25.01 954.98,-27.71 958.9,-33.51"/>
</g>
<!-- Node13 -->
<g id="node13" class="node">
<title>Node13</title>
<g id="a_node13"><a xlink:title=" ">
<polygon fill="white" stroke="#bfbfbf" points="870.81,-6 870.81,-25 930.81,-25 930.81,-6 870.81,-6"/>
<text text-anchor="middle" x="900.81" y="-13" font-family="Helvetica,sans-Serif" font-size="10.00">iostream</text>
</a>
</g>
</g>
<!-- Node12&#45;&gt;Node13 -->
<g id="edge13" class="edge">
<title>Node12&#45;&gt;Node13</title>
<path fill="none" stroke="midnightblue" d="M891.39,-67.48C892.94,-59.08 895.36,-45.98 897.36,-35.16"/>
<polygon fill="midnightblue" stroke="midnightblue" points="900.86,-35.48 899.24,-25.01 893.98,-34.21 900.86,-35.48"/>
</g>
<!-- Node14 -->
<g id="node14" class="node">
<title>Node14</title>
<g id="a_node14"><a xlink:title=" ">
<polygon fill="white" stroke="#bfbfbf" points="608.31,-0.5 608.31,-30.5 721.31,-30.5 721.31,-0.5 608.31,-0.5"/>
<text text-anchor="start" x="616.31" y="-18.5" font-family="Helvetica,sans-Serif" font-size="10.00">boost/property_tree</text>
<text text-anchor="middle" x="664.81" y="-7.5" font-family="Helvetica,sans-Serif" font-size="10.00">/ptree.hpp</text>
</a>
</g>
</g>
<!-- Node12&#45;&gt;Node14 -->
<g id="edge14" class="edge">
<title>Node12&#45;&gt;Node14</title>
<path fill="none" stroke="midnightblue" d="M857.57,-67.48C823.83,-58.55 769.97,-44.31 727.75,-33.14"/>
<polygon fill="midnightblue" stroke="midnightblue" points="728.4,-29.7 717.84,-30.52 726.61,-36.46 728.4,-29.7"/>
</g>
<!-- Node15 -->
<g id="node15" class="node">
<title>Node15</title>
<g id="a_node15"><a xlink:title=" ">
<polygon fill="white" stroke="#bfbfbf" points="739.31,-0.5 739.31,-30.5 852.31,-30.5 852.31,-0.5 739.31,-0.5"/>
<text text-anchor="start" x="747.31" y="-18.5" font-family="Helvetica,sans-Serif" font-size="10.00">boost/property_tree</text>
<text text-anchor="middle" x="795.81" y="-7.5" font-family="Helvetica,sans-Serif" font-size="10.00">/xml_parser.hpp</text>
</a>
</g>
</g>
<!-- Node12&#45;&gt;Node15 -->
<g id="edge15" class="edge">
<title>Node12&#45;&gt;Node15</title>
<path fill="none" stroke="midnightblue" d="M876.34,-67.48C863.37,-59.27 843.3,-46.56 826.44,-35.88"/>
<polygon fill="midnightblue" stroke="midnightblue" points="828.29,-32.91 817.97,-30.52 824.54,-38.83 828.29,-32.91"/>
</g>
<!-- Node16&#45;&gt;Node10 -->
<g id="edge17" class="edge">
<title>Node16&#45;&gt;Node10</title>
<path fill="none" stroke="midnightblue" d="M790.13,-347.43C807.54,-339.71 832.07,-327.11 849.81,-311 903.15,-262.57 945.41,-186.54 962.98,-152.07"/>
<polygon fill="midnightblue" stroke="midnightblue" points="966.28,-153.29 967.62,-142.78 960.02,-150.16 966.28,-153.29"/>
</g>
<!-- Node17 -->
<g id="node17" class="node">
<title>Node17</title>
<g id="a_node17"><a xlink:href="Vector2_8hpp.html" target="_top" xlink:title=" ">
<polygon fill="white" stroke="black" points="828.81,-179.5 828.81,-198.5 902.81,-198.5 902.81,-179.5 828.81,-179.5"/>
<text text-anchor="middle" x="865.81" y="-186.5" font-family="Helvetica,sans-Serif" font-size="10.00">Vector2.hpp</text>
</a>
</g>
</g>
<!-- Node16&#45;&gt;Node17 -->
<g id="edge18" class="edge">
<title>Node16&#45;&gt;Node17</title>
<path fill="none" stroke="midnightblue" d="M782.23,-347.42C804.79,-332.08 849.55,-297.57 866.81,-255 872.77,-240.29 871.88,-222.13 869.87,-208.74"/>
<polygon fill="midnightblue" stroke="midnightblue" points="873.29,-208.01 868.04,-198.81 866.41,-209.28 873.29,-208.01"/>
</g>
<!-- Node22 -->
<g id="node22" class="node">
<title>Node22</title>
<g id="a_node22"><a xlink:href="Texture_8hpp.html" target="_top" xlink:title=" ">
<polygon fill="white" stroke="black" points="596.81,-291.5 596.81,-310.5 670.81,-310.5 670.81,-291.5 596.81,-291.5"/>
<text text-anchor="middle" x="633.81" y="-298.5" font-family="Helvetica,sans-Serif" font-size="10.00">Texture.hpp</text>
</a>
</g>
</g>
<!-- Node16&#45;&gt;Node22 -->
<g id="edge27" class="edge">
<title>Node16&#45;&gt;Node22</title>
<path fill="none" stroke="midnightblue" d="M747.42,-347.44C725.1,-338.52 689.91,-324.44 664.6,-314.32"/>
<polygon fill="midnightblue" stroke="midnightblue" points="665.69,-310.98 655.1,-310.52 663.09,-317.48 665.69,-310.98"/>
</g>
<!-- Node17&#45;&gt;Node12 -->
<g id="edge26" class="edge">
<title>Node17&#45;&gt;Node12</title>
<path fill="none" stroke="midnightblue" d="M867.69,-179.37C871.57,-161.62 880.5,-120.67 885.75,-96.6"/>
<polygon fill="midnightblue" stroke="midnightblue" points="889.22,-97.11 887.94,-86.59 882.39,-95.62 889.22,-97.11"/>
</g>
<!-- Node18 -->
<g id="node18" class="node">
<title>Node18</title>
<g id="a_node18"><a xlink:title=" ">
<polygon fill="white" stroke="#bfbfbf" points="600.31,-67.5 600.31,-86.5 653.31,-86.5 653.31,-67.5 600.31,-67.5"/>
<text text-anchor="middle" x="626.81" y="-74.5" font-family="Helvetica,sans-Serif" font-size="10.00">raylib.h</text>
</a>
</g>
</g>
<!-- Node17&#45;&gt;Node18 -->
<g id="edge19" class="edge">
<title>Node17&#45;&gt;Node18</title>
<path fill="none" stroke="midnightblue" d="M837.46,-179.34C811.75,-171.13 773.07,-157.87 740.81,-143 707.68,-127.73 671.39,-106.13 648.86,-92.1"/>
<polygon fill="midnightblue" stroke="midnightblue" points="650.43,-88.95 640.1,-86.58 646.7,-94.87 650.43,-88.95"/>
</g>
<!-- Node19 -->
<g id="node19" class="node">
<title>Node19</title>
<g id="a_node19"><a xlink:title=" ">
<polygon fill="white" stroke="#bfbfbf" points="765.31,-67.5 765.31,-86.5 812.31,-86.5 812.31,-67.5 765.31,-67.5"/>
<text text-anchor="middle" x="788.81" y="-74.5" font-family="Helvetica,sans-Serif" font-size="10.00">cmath</text>
</a>
</g>
</g>
<!-- Node17&#45;&gt;Node19 -->
<g id="edge20" class="edge">
<title>Node17&#45;&gt;Node19</title>
<path fill="none" stroke="midnightblue" d="M862.32,-179.11C857.01,-166.13 846.08,-141.51 832.81,-123 825.11,-112.26 814.86,-101.62 806.19,-93.39"/>
<polygon fill="midnightblue" stroke="midnightblue" points="808.52,-90.77 798.8,-86.57 803.78,-95.92 808.52,-90.77"/>
</g>
<!-- Node20 -->
<g id="node20" class="node">
<title>Node20</title>
<g id="a_node20"><a xlink:href="Vector3_8hpp.html" target="_top" xlink:title=" ">
<polygon fill="white" stroke="black" points="749.81,-123.5 749.81,-142.5 823.81,-142.5 823.81,-123.5 749.81,-123.5"/>
<text text-anchor="middle" x="786.81" y="-130.5" font-family="Helvetica,sans-Serif" font-size="10.00">Vector3.hpp</text>
</a>
</g>
</g>
<!-- Node17&#45;&gt;Node20 -->
<g id="edge21" class="edge">
<title>Node17&#45;&gt;Node20</title>
<path fill="none" stroke="midnightblue" d="M853.12,-179.32C840.91,-170.98 822.23,-158.21 807.81,-148.35"/>
<polygon fill="midnightblue" stroke="midnightblue" points="809.7,-145.41 799.47,-142.65 805.75,-151.19 809.7,-145.41"/>
</g>
<!-- Node20&#45;&gt;Node12 -->
<g id="edge23" class="edge">
<title>Node20&#45;&gt;Node12</title>
<path fill="none" stroke="midnightblue" d="M803.36,-123.32C819.8,-114.7 845.25,-101.36 864.28,-91.39"/>
<polygon fill="midnightblue" stroke="midnightblue" points="866.07,-94.4 873.3,-86.65 862.82,-88.2 866.07,-94.4"/>
</g>
<!-- Node20&#45;&gt;Node18 -->
<g id="edge22" class="edge">
<title>Node20&#45;&gt;Node18</title>
<path fill="none" stroke="midnightblue" d="M761.46,-123.44C734.54,-114.36 691.82,-99.94 661.72,-89.78"/>
<polygon fill="midnightblue" stroke="midnightblue" points="662.64,-86.4 652.05,-86.52 660.4,-93.03 662.64,-86.4"/>
</g>
<!-- Node20&#45;&gt;Node19 -->
<g id="edge24" class="edge">
<title>Node20&#45;&gt;Node19</title>
<path fill="none" stroke="midnightblue" d="M787.14,-123.08C787.4,-116.01 787.78,-105.86 788.11,-96.99"/>
<polygon fill="midnightblue" stroke="midnightblue" points="791.61,-96.87 788.49,-86.75 784.62,-96.61 791.61,-96.87"/>
</g>
<!-- Node21 -->
<g id="node21" class="node">
<title>Node21</title>
<g id="a_node21"><a xlink:title=" ">
<polygon fill="white" stroke="#bfbfbf" points="690.81,-67.5 690.81,-86.5 746.81,-86.5 746.81,-67.5 690.81,-67.5"/>
<text text-anchor="middle" x="718.81" y="-74.5" font-family="Helvetica,sans-Serif" font-size="10.00">sstream</text>
</a>
</g>
</g>
<!-- Node20&#45;&gt;Node21 -->
<g id="edge25" class="edge">
<title>Node20&#45;&gt;Node21</title>
<path fill="none" stroke="midnightblue" d="M775.89,-123.32C765.64,-115.18 750.09,-102.84 737.81,-93.09"/>
<polygon fill="midnightblue" stroke="midnightblue" points="739.94,-90.31 729.94,-86.83 735.59,-95.79 739.94,-90.31"/>
</g>
<!-- Node22&#45;&gt;Node3 -->
<g id="edge48" class="edge">
<title>Node22&#45;&gt;Node3</title>
<path fill="none" stroke="midnightblue" d="M596.59,-298.16C524.56,-294.03 369.19,-282.17 323.81,-255 305.62,-244.11 292.18,-223.43 284.22,-208.31"/>
<polygon fill="midnightblue" stroke="midnightblue" points="287.15,-206.34 279.59,-198.92 280.87,-209.43 287.15,-206.34"/>
</g>
<!-- Node22&#45;&gt;Node6 -->
<g id="edge29" class="edge">
<title>Node22&#45;&gt;Node6</title>
<path fill="none" stroke="midnightblue" d="M596.68,-293.19C570.43,-286.87 535.64,-275.28 510.81,-255 495.62,-242.59 484.62,-222.79 478.04,-208.3"/>
<polygon fill="midnightblue" stroke="midnightblue" points="481.17,-206.71 474.04,-198.87 474.73,-209.45 481.17,-206.71"/>
</g>
<!-- Node22&#45;&gt;Node17 -->
<g id="edge38" class="edge">
<title>Node22&#45;&gt;Node17</title>
<path fill="none" stroke="midnightblue" d="M671.04,-296.71C725.1,-291.19 821.65,-278.31 846.81,-255 859.47,-243.27 863.86,-223.63 865.3,-209"/>
<polygon fill="midnightblue" stroke="midnightblue" points="868.82,-208.78 865.92,-198.59 861.83,-208.36 868.82,-208.78"/>
</g>
<!-- Node22&#45;&gt;Node18 -->
<g id="edge28" class="edge">
<title>Node22&#45;&gt;Node18</title>
<path fill="none" stroke="midnightblue" d="M596.75,-299.66C528.51,-298.16 387.2,-290.72 356.81,-255 282.32,-167.43 500.56,-106.55 590.24,-85.82"/>
<polygon fill="midnightblue" stroke="midnightblue" points="591.28,-89.17 600.26,-83.54 589.73,-82.34 591.28,-89.17"/>
</g>
<!-- Node23 -->
<g id="node23" class="node">
<title>Node23</title>
<g id="a_node23"><a xlink:href="Image_8hpp.html" target="_top" xlink:title=" ">
<polygon fill="white" stroke="black" points="661.81,-235.5 661.81,-254.5 729.81,-254.5 729.81,-235.5 661.81,-235.5"/>
<text text-anchor="middle" x="695.81" y="-242.5" font-family="Helvetica,sans-Serif" font-size="10.00">Image.hpp</text>
</a>
</g>
</g>
<!-- Node22&#45;&gt;Node23 -->
<g id="edge30" class="edge">
<title>Node22&#45;&gt;Node23</title>
<path fill="none" stroke="midnightblue" d="M643.77,-291.32C652.94,-283.34 666.75,-271.31 677.84,-261.65"/>
<polygon fill="midnightblue" stroke="midnightblue" points="680.43,-264.04 685.67,-254.83 675.83,-258.76 680.43,-264.04"/>
</g>
<!-- Node22&#45;&gt;Node24 -->
<g id="edge37" class="edge">
<title>Node22&#45;&gt;Node24</title>
<path fill="none" stroke="midnightblue" d="M632.07,-291.32C629.33,-278.61 623.45,-254.32 614.81,-235 610.44,-225.24 604.27,-215.06 598.83,-206.86"/>
<polygon fill="midnightblue" stroke="midnightblue" points="601.68,-204.83 593.14,-198.57 595.91,-208.79 601.68,-204.83"/>
</g>
<!-- Node25 -->
<g id="node25" class="node">
<title>Node25</title>
<g id="a_node25"><a xlink:href="Camera3D_8hpp.html" target="_top" xlink:title=" ">
<polygon fill="white" stroke="black" points="748.31,-235.5 748.31,-254.5 837.31,-254.5 837.31,-235.5 748.31,-235.5"/>
<text text-anchor="middle" x="792.81" y="-242.5" font-family="Helvetica,sans-Serif" font-size="10.00">Camera3D.hpp</text>
</a>
</g>
</g>
<!-- Node22&#45;&gt;Node25 -->
<g id="edge39" class="edge">
<title>Node22&#45;&gt;Node25</title>
<path fill="none" stroke="midnightblue" d="M659.01,-291.44C685.75,-282.36 728.21,-267.94 758.12,-257.78"/>
<polygon fill="midnightblue" stroke="midnightblue" points="759.39,-261.05 767.74,-254.52 757.14,-254.42 759.39,-261.05"/>
</g>
<!-- Node27 -->
<g id="node27" class="node">
<title>Node27</title>
<g id="a_node27"><a xlink:href="Rectangle_8hpp.html" target="_top" xlink:title=" ">
<polygon fill="white" stroke="black" points="519.81,-235.5 519.81,-254.5 605.81,-254.5 605.81,-235.5 519.81,-235.5"/>
<text text-anchor="middle" x="562.81" y="-242.5" font-family="Helvetica,sans-Serif" font-size="10.00">Rectangle.hpp</text>
</a>
</g>
</g>
<!-- Node22&#45;&gt;Node27 -->
<g id="edge45" class="edge">
<title>Node22&#45;&gt;Node27</title>
<path fill="none" stroke="midnightblue" d="M622.4,-291.32C611.7,-283.18 595.47,-270.84 582.65,-261.09"/>
<polygon fill="midnightblue" stroke="midnightblue" points="584.5,-258.1 574.43,-254.83 580.27,-263.67 584.5,-258.1"/>
</g>
<!-- Node23&#45;&gt;Node6 -->
<g id="edge31" class="edge">
<title>Node23&#45;&gt;Node6</title>
<path fill="none" stroke="midnightblue" d="M661.64,-235.8C618.48,-225.44 544.79,-207.76 502.73,-197.66"/>
<polygon fill="midnightblue" stroke="midnightblue" points="503.55,-194.26 493.01,-195.33 501.91,-201.06 503.55,-194.26"/>
</g>
<!-- Node23&#45;&gt;Node17 -->
<g id="edge36" class="edge">
<title>Node23&#45;&gt;Node17</title>
<path fill="none" stroke="midnightblue" d="M722.75,-235.44C751.47,-226.32 797.14,-211.81 829.13,-201.65"/>
<polygon fill="midnightblue" stroke="midnightblue" points="830.53,-204.88 839,-198.52 828.41,-198.21 830.53,-204.88"/>
</g>
<!-- Node23&#45;&gt;Node18 -->
<g id="edge32" class="edge">
<title>Node23&#45;&gt;Node18</title>
<path fill="none" stroke="midnightblue" d="M690.14,-235.29C684.51,-226.41 675.86,-212.11 669.81,-199 653.52,-163.72 639.48,-120.39 632.18,-96.32"/>
<polygon fill="midnightblue" stroke="midnightblue" points="635.52,-95.3 629.31,-86.72 628.82,-97.31 635.52,-95.3"/>
</g>
<!-- Node23&#45;&gt;Node24 -->
<g id="edge33" class="edge">
<title>Node23&#45;&gt;Node24</title>
<path fill="none" stroke="midnightblue" d="M678.3,-235.32C660.74,-226.62 633.48,-213.12 613.28,-203.11"/>
<polygon fill="midnightblue" stroke="midnightblue" points="614.79,-199.96 604.28,-198.65 611.69,-206.23 614.79,-199.96"/>
</g>
<!-- Node24&#45;&gt;Node18 -->
<g id="edge34" class="edge">
<title>Node24&#45;&gt;Node18</title>
<path fill="none" stroke="midnightblue" d="M589.95,-179.37C596.43,-161.54 611.43,-120.3 620.17,-96.27"/>
<polygon fill="midnightblue" stroke="midnightblue" points="623.56,-97.19 623.69,-86.59 616.98,-94.79 623.56,-97.19"/>
</g>
<!-- Node24&#45;&gt;Node20 -->
<g id="edge35" class="edge">
<title>Node24&#45;&gt;Node20</title>
<path fill="none" stroke="midnightblue" d="M618.06,-179.56C652.35,-170.3 707.54,-155.4 745.41,-145.18"/>
<polygon fill="midnightblue" stroke="midnightblue" points="746.38,-148.54 755.12,-142.56 744.55,-141.78 746.38,-148.54"/>
</g>
<!-- Node25&#45;&gt;Node17 -->
<g id="edge41" class="edge">
<title>Node25&#45;&gt;Node17</title>
<path fill="none" stroke="midnightblue" d="M804.54,-235.32C815.65,-227.11 832.55,-214.6 845.79,-204.81"/>
<polygon fill="midnightblue" stroke="midnightblue" points="847.91,-207.59 853.87,-198.83 843.75,-201.97 847.91,-207.59"/>
</g>
<!-- Node25&#45;&gt;Node18 -->
<g id="edge40" class="edge">
<title>Node25&#45;&gt;Node18</title>
<path fill="none" stroke="midnightblue" d="M781.94,-235.39C771,-226.58 753.79,-212.33 739.81,-199 702.39,-163.31 661.76,-118.02 640.91,-94.26"/>
<polygon fill="midnightblue" stroke="midnightblue" points="643.38,-91.76 634.17,-86.53 638.11,-96.37 643.38,-91.76"/>
</g>
<!-- Node25&#45;&gt;Node20 -->
<g id="edge42" class="edge">
<title>Node25&#45;&gt;Node20</title>
<path fill="none" stroke="midnightblue" d="M779.02,-235.19C767.99,-227.24 753.31,-214.45 746.81,-199 739.25,-181.03 753.59,-162.25 767.16,-149.52"/>
<polygon fill="midnightblue" stroke="midnightblue" points="769.65,-151.99 774.88,-142.78 765.05,-146.72 769.65,-151.99"/>
</g>
<!-- Node26 -->
<g id="node26" class="node">
<title>Node26</title>
<g id="a_node26"><a xlink:href="Ray_8hpp.html" target="_top" xlink:title=" ">
<polygon fill="white" stroke="black" points="755.31,-179.5 755.31,-198.5 810.31,-198.5 810.31,-179.5 755.31,-179.5"/>
<text text-anchor="middle" x="782.81" y="-186.5" font-family="Helvetica,sans-Serif" font-size="10.00">Ray.hpp</text>
</a>
</g>
</g>
<!-- Node25&#45;&gt;Node26 -->
<g id="edge43" class="edge">
<title>Node25&#45;&gt;Node26</title>
<path fill="none" stroke="midnightblue" d="M791.16,-235.08C789.83,-227.93 787.93,-217.64 786.27,-208.69"/>
<polygon fill="midnightblue" stroke="midnightblue" points="789.69,-207.95 784.43,-198.75 782.81,-209.22 789.69,-207.95"/>
</g>
<!-- Node26&#45;&gt;Node20 -->
<g id="edge44" class="edge">
<title>Node26&#45;&gt;Node20</title>
<path fill="none" stroke="midnightblue" d="M783.47,-179.08C784,-172.01 784.75,-161.86 785.4,-152.99"/>
<polygon fill="midnightblue" stroke="midnightblue" points="788.91,-152.98 786.16,-142.75 781.93,-152.47 788.91,-152.98"/>
</g>
<!-- Node27&#45;&gt;Node18 -->
<g id="edge46" class="edge">
<title>Node27&#45;&gt;Node18</title>
<path fill="none" stroke="midnightblue" d="M557.6,-235.44C550.64,-222.87 539.93,-198.76 546.81,-179 559.04,-143.88 589.12,-111.78 608.71,-93.59"/>
<polygon fill="midnightblue" stroke="midnightblue" points="611.3,-95.97 616.39,-86.67 606.61,-90.77 611.3,-95.97"/>
</g>
<!-- Node27&#45;&gt;Node24 -->
<g id="edge47" class="edge">
<title>Node27&#45;&gt;Node24</title>
<path fill="none" stroke="midnightblue" d="M566.77,-235.08C570.02,-227.77 574.73,-217.18 578.77,-208.1"/>
<polygon fill="midnightblue" stroke="midnightblue" points="582.06,-209.31 582.92,-198.75 575.66,-206.47 582.06,-209.31"/>
</g>
<!-- Node28&#45;&gt;Node3 -->
<g id="edge54" class="edge">
<title>Node28&#45;&gt;Node3</title>
<path fill="none" stroke="midnightblue" d="M376.8,-235.44C357.22,-226.64 326.5,-212.81 304.08,-202.72"/>
<polygon fill="midnightblue" stroke="midnightblue" points="305.29,-199.43 294.74,-198.52 302.42,-205.81 305.29,-199.43"/>
</g>
<!-- Node28&#45;&gt;Node6 -->
<g id="edge51" class="edge">
<title>Node28&#45;&gt;Node6</title>
<path fill="none" stroke="midnightblue" d="M407.86,-235.32C419.27,-227.11 436.64,-214.6 450.25,-204.81"/>
<polygon fill="midnightblue" stroke="midnightblue" points="452.47,-207.52 458.54,-198.83 448.38,-201.84 452.47,-207.52"/>
</g>
<!-- Node28&#45;&gt;Node17 -->
<g id="edge52" class="edge">
<title>Node28&#45;&gt;Node17</title>
<path fill="none" stroke="midnightblue" d="M425.48,-241.75C493.28,-236.42 664.91,-221.83 818.61,-199.06"/>
<polygon fill="midnightblue" stroke="midnightblue" points="819.33,-202.49 828.7,-197.55 818.29,-195.57 819.33,-202.49"/>
</g>
<!-- Node28&#45;&gt;Node18 -->
<g id="edge50" class="edge">
<title>Node28&#45;&gt;Node18</title>
<path fill="none" stroke="midnightblue" d="M399.88,-235.46C406.62,-222.04 421.22,-195.82 439.81,-179 486.35,-136.89 553.59,-106.15 593.49,-90.26"/>
<polygon fill="midnightblue" stroke="midnightblue" points="594.97,-93.44 603.01,-86.55 592.42,-86.92 594.97,-93.44"/>
</g>
<!-- Node28&#45;&gt;Node24 -->
<g id="edge53" class="edge">
<title>Node28&#45;&gt;Node24</title>
<path fill="none" stroke="midnightblue" d="M425.66,-235.56C458.26,-226.34 510.66,-211.53 546.81,-201.31"/>
<polygon fill="midnightblue" stroke="midnightblue" points="547.88,-204.65 556.55,-198.56 545.97,-197.91 547.88,-204.65"/>
</g>
</g>
</svg>
