<?xml version="1.0" encoding="UTF-8" standalone="no"?>
<!DOCTYPE svg PUBLIC "-//W3C//DTD SVG 1.1//EN"
 "http://www.w3.org/Graphics/SVG/1.1/DTD/svg11.dtd">
<!-- Generated by graphviz version 2.43.0 (0)
 -->
<!-- Title: Libs/Engine/sources/Components/TextBox/TextBox.cpp Pages: 1 -->
<svg width="1564pt" height="509pt"
 viewBox="0.00 0.00 1563.90 509.00" xmlns="http://www.w3.org/2000/svg" xmlns:xlink="http://www.w3.org/1999/xlink">
<g id="graph0" class="graph" transform="scale(1 1) rotate(0) translate(4 505)">
<title>Libs/Engine/sources/Components/TextBox/TextBox.cpp</title>
<polygon fill="white" stroke="transparent" points="-4,4 -4,-505 1559.9,-505 1559.9,4 -4,4"/>
<!-- Node1 -->
<g id="node1" class="node">
<title>Node1</title>
<g id="a_node1"><a xlink:title=" ">
<polygon fill="#bfbfbf" stroke="black" points="540.9,-459.5 540.9,-500.5 663.9,-500.5 663.9,-459.5 540.9,-459.5"/>
<text text-anchor="start" x="548.9" y="-488.5" font-family="Helvetica,sans-Serif" font-size="10.00">Libs/Engine/sources</text>
<text text-anchor="start" x="548.9" y="-477.5" font-family="Helvetica,sans-Serif" font-size="10.00">/Components/TextBox</text>
<text text-anchor="middle" x="602.4" y="-466.5" font-family="Helvetica,sans-Serif" font-size="10.00">/TextBox.cpp</text>
</a>
</g>
</g>
<!-- Node2 -->
<g id="node2" class="node">
<title>Node2</title>
<g id="a_node2"><a xlink:href="TextBox_8hpp.html" target="_top" xlink:title=" ">
<polygon fill="white" stroke="black" points="563.9,-403.5 563.9,-422.5 640.9,-422.5 640.9,-403.5 563.9,-403.5"/>
<text text-anchor="middle" x="602.4" y="-410.5" font-family="Helvetica,sans-Serif" font-size="10.00">TextBox.hpp</text>
</a>
</g>
</g>
<!-- Node1&#45;&gt;Node2 -->
<g id="edge1" class="edge">
<title>Node1&#45;&gt;Node2</title>
<path fill="none" stroke="midnightblue" d="M602.4,-459.5C602.4,-451.07 602.4,-441.24 602.4,-432.87"/>
<polygon fill="midnightblue" stroke="midnightblue" points="605.9,-432.65 602.4,-422.65 598.9,-432.65 605.9,-432.65"/>
</g>
<!-- Node3 -->
<g id="node3" class="node">
<title>Node3</title>
<g id="a_node3"><a xlink:title=" ">
<polygon fill="white" stroke="#bfbfbf" points="612.4,-179.5 612.4,-198.5 656.4,-198.5 656.4,-179.5 612.4,-179.5"/>
<text text-anchor="middle" x="634.4" y="-186.5" font-family="Helvetica,sans-Serif" font-size="10.00">string</text>
</a>
</g>
</g>
<!-- Node2&#45;&gt;Node3 -->
<g id="edge2" class="edge">
<title>Node2&#45;&gt;Node3</title>
<path fill="none" stroke="midnightblue" d="M605.99,-403.2C609.49,-394.25 614.67,-379.89 617.4,-367 629.42,-310.25 632.95,-241.44 633.98,-208.85"/>
<polygon fill="midnightblue" stroke="midnightblue" points="637.49,-208.67 634.26,-198.58 630.49,-208.48 637.49,-208.67"/>
</g>
<!-- Node4 -->
<g id="node4" class="node">
<title>Node4</title>
<g id="a_node4"><a xlink:href="IUIObject_8hpp.html" target="_top" xlink:title=" ">
<polygon fill="white" stroke="black" points="525.9,-347.5 525.9,-366.5 608.9,-366.5 608.9,-347.5 525.9,-347.5"/>
<text text-anchor="middle" x="567.4" y="-354.5" font-family="Helvetica,sans-Serif" font-size="10.00">IUIObject.hpp</text>
</a>
</g>
</g>
<!-- Node2&#45;&gt;Node4 -->
<g id="edge3" class="edge">
<title>Node2&#45;&gt;Node4</title>
<path fill="none" stroke="midnightblue" d="M596.62,-403.08C591.72,-395.53 584.57,-384.49 578.56,-375.23"/>
<polygon fill="midnightblue" stroke="midnightblue" points="581.44,-373.24 573.07,-366.75 575.57,-377.05 581.44,-373.24"/>
</g>
<!-- Node18 -->
<g id="node18" class="node">
<title>Node18</title>
<g id="a_node18"><a xlink:href="Color_8hpp.html" target="_top" xlink:title=" ">
<polygon fill="white" stroke="black" points="124.4,-179.5 124.4,-198.5 186.4,-198.5 186.4,-179.5 124.4,-179.5"/>
<text text-anchor="middle" x="155.4" y="-186.5" font-family="Helvetica,sans-Serif" font-size="10.00">Color.hpp</text>
</a>
</g>
</g>
<!-- Node2&#45;&gt;Node18 -->
<g id="edge66" class="edge">
<title>Node2&#45;&gt;Node18</title>
<path fill="none" stroke="midnightblue" d="M563.72,-410.21C478.59,-404.04 274.59,-376.64 173.4,-255 162.52,-241.93 158.19,-222.78 156.48,-208.65"/>
<polygon fill="midnightblue" stroke="midnightblue" points="159.96,-208.26 155.6,-198.6 152.99,-208.87 159.96,-208.26"/>
</g>
<!-- Node23 -->
<g id="node23" class="node">
<title>Node23</title>
<g id="a_node23"><a xlink:href="IBehaviour_8hpp.html" target="_top" xlink:title=" ">
<polygon fill="white" stroke="black" points="1184.9,-347.5 1184.9,-366.5 1273.9,-366.5 1273.9,-347.5 1184.9,-347.5"/>
<text text-anchor="middle" x="1229.4" y="-354.5" font-family="Helvetica,sans-Serif" font-size="10.00">IBehaviour.hpp</text>
</a>
</g>
</g>
<!-- Node2&#45;&gt;Node23 -->
<g id="edge42" class="edge">
<title>Node2&#45;&gt;Node23</title>
<path fill="none" stroke="midnightblue" d="M641.14,-408.66C748.53,-399.41 1050.19,-373.43 1174.65,-362.72"/>
<polygon fill="midnightblue" stroke="midnightblue" points="1175.05,-366.19 1184.72,-361.85 1174.45,-359.22 1175.05,-366.19"/>
</g>
<!-- Node35 -->
<g id="node35" class="node">
<title>Node35</title>
<g id="a_node35"><a xlink:href="Font_8hpp.html" target="_top" xlink:title=" ">
<polygon fill="white" stroke="black" points="435.9,-235.5 435.9,-254.5 494.9,-254.5 494.9,-235.5 435.9,-235.5"/>
<text text-anchor="middle" x="465.4" y="-242.5" font-family="Helvetica,sans-Serif" font-size="10.00">Font.hpp</text>
</a>
</g>
</g>
<!-- Node2&#45;&gt;Node35 -->
<g id="edge67" class="edge">
<title>Node2&#45;&gt;Node35</title>
<path fill="none" stroke="midnightblue" d="M575.26,-403.35C556.59,-396.19 532.37,-384.36 516.4,-367 488.97,-337.19 475.04,-290.46 469.09,-264.67"/>
<polygon fill="midnightblue" stroke="midnightblue" points="472.48,-263.76 466.96,-254.71 465.63,-265.22 472.48,-263.76"/>
</g>
<!-- Node36 -->
<g id="node36" class="node">
<title>Node36</title>
<g id="a_node36"><a xlink:href="AssetCache_8hpp.html" target="_top" xlink:title=" ">
<polygon fill="white" stroke="black" points="717.9,-291.5 717.9,-310.5 812.9,-310.5 812.9,-291.5 717.9,-291.5"/>
<text text-anchor="middle" x="765.4" y="-298.5" font-family="Helvetica,sans-Serif" font-size="10.00">AssetCache.hpp</text>
</a>
</g>
</g>
<!-- Node2&#45;&gt;Node36 -->
<g id="edge73" class="edge">
<title>Node2&#45;&gt;Node36</title>
<path fill="none" stroke="midnightblue" d="M615.19,-403.37C643.16,-384.49 710,-339.38 744.3,-316.24"/>
<polygon fill="midnightblue" stroke="midnightblue" points="746.33,-319.09 752.66,-310.59 742.42,-313.28 746.33,-319.09"/>
</g>
<!-- Node5 -->
<g id="node5" class="node">
<title>Node5</title>
<g id="a_node5"><a xlink:href="IComponent_8hpp.html" target="_top" xlink:title=" ">
<polygon fill="white" stroke="black" points="1458.9,-179.5 1458.9,-198.5 1555.9,-198.5 1555.9,-179.5 1458.9,-179.5"/>
<text text-anchor="middle" x="1507.4" y="-186.5" font-family="Helvetica,sans-Serif" font-size="10.00">IComponent.hpp</text>
</a>
</g>
</g>
<!-- Node4&#45;&gt;Node5 -->
<g id="edge4" class="edge">
<title>Node4&#45;&gt;Node5</title>
<path fill="none" stroke="midnightblue" d="M609.12,-355.23C740.51,-352.51 1144.5,-341.8 1271.4,-311 1357.56,-290.09 1447.63,-232.17 1486.98,-204.76"/>
<polygon fill="midnightblue" stroke="midnightblue" points="1489.28,-207.41 1495.43,-198.78 1485.24,-201.69 1489.28,-207.41"/>
</g>
<!-- Node11 -->
<g id="node11" class="node">
<title>Node11</title>
<g id="a_node11"><a xlink:href="Vector2_8hpp.html" target="_top" xlink:title=" ">
<polygon fill="white" stroke="black" points="430.4,-179.5 430.4,-198.5 504.4,-198.5 504.4,-179.5 430.4,-179.5"/>
<text text-anchor="middle" x="467.4" y="-186.5" font-family="Helvetica,sans-Serif" font-size="10.00">Vector2.hpp</text>
</a>
</g>
</g>
<!-- Node4&#45;&gt;Node11 -->
<g id="edge11" class="edge">
<title>Node4&#45;&gt;Node11</title>
<path fill="none" stroke="midnightblue" d="M563.57,-347.48C554.35,-327.27 529.73,-275.14 503.4,-235 496.88,-225.07 488.66,-214.67 481.72,-206.37"/>
<polygon fill="midnightblue" stroke="midnightblue" points="484.24,-203.92 475.08,-198.59 478.91,-208.47 484.24,-203.92"/>
</g>
<!-- Node16 -->
<g id="node16" class="node">
<title>Node16</title>
<g id="a_node16"><a xlink:href="Texture_8hpp.html" target="_top" xlink:title=" ">
<polygon fill="white" stroke="black" points="297.4,-291.5 297.4,-310.5 371.4,-310.5 371.4,-291.5 297.4,-291.5"/>
<text text-anchor="middle" x="334.4" y="-298.5" font-family="Helvetica,sans-Serif" font-size="10.00">Texture.hpp</text>
</a>
</g>
</g>
<!-- Node4&#45;&gt;Node16 -->
<g id="edge20" class="edge">
<title>Node4&#45;&gt;Node16</title>
<path fill="none" stroke="midnightblue" d="M530.48,-347.44C490,-338.06 424.98,-322.99 381.01,-312.8"/>
<polygon fill="midnightblue" stroke="midnightblue" points="381.67,-309.36 371.14,-310.52 380.09,-316.18 381.67,-309.36"/>
</g>
<!-- Node6 -->
<g id="node6" class="node">
<title>Node6</title>
<g id="a_node6"><a xlink:title=" ">
<polygon fill="white" stroke="#bfbfbf" points="1283.9,-6 1283.9,-25 1340.9,-25 1340.9,-6 1283.9,-6"/>
<text text-anchor="middle" x="1312.4" y="-13" font-family="Helvetica,sans-Serif" font-size="10.00">ostream</text>
</a>
</g>
</g>
<!-- Node5&#45;&gt;Node6 -->
<g id="edge5" class="edge">
<title>Node5&#45;&gt;Node6</title>
<path fill="none" stroke="midnightblue" d="M1497.73,-179.5C1466.73,-152.24 1369.57,-66.78 1329.71,-31.73"/>
<polygon fill="midnightblue" stroke="midnightblue" points="1331.94,-29.03 1322.12,-25.06 1327.32,-34.29 1331.94,-29.03"/>
</g>
<!-- Node7 -->
<g id="node7" class="node">
<title>Node7</title>
<g id="a_node7"><a xlink:href="IXMLSerializable_8hpp.html" target="_top" xlink:title=" ">
<polygon fill="white" stroke="black" points="877.9,-67.5 877.9,-86.5 996.9,-86.5 996.9,-67.5 877.9,-67.5"/>
<text text-anchor="middle" x="937.4" y="-74.5" font-family="Helvetica,sans-Serif" font-size="10.00">IXMLSerializable.hpp</text>
</a>
</g>
</g>
<!-- Node5&#45;&gt;Node7 -->
<g id="edge6" class="edge">
<title>Node5&#45;&gt;Node7</title>
<path fill="none" stroke="midnightblue" d="M1463.14,-179.46C1360.03,-159.56 1104.05,-110.16 991.71,-88.48"/>
<polygon fill="midnightblue" stroke="midnightblue" points="992.1,-84.99 981.62,-86.53 990.78,-91.87 992.1,-84.99"/>
</g>
<!-- Node7&#45;&gt;Node6 -->
<g id="edge7" class="edge">
<title>Node7&#45;&gt;Node6</title>
<path fill="none" stroke="midnightblue" d="M991.12,-67.48C1067.63,-55.34 1206.15,-33.36 1273.51,-22.67"/>
<polygon fill="midnightblue" stroke="midnightblue" points="1274.37,-26.08 1283.69,-21.05 1273.27,-19.16 1274.37,-26.08"/>
</g>
<!-- Node8 -->
<g id="node8" class="node">
<title>Node8</title>
<g id="a_node8"><a xlink:title=" ">
<polygon fill="white" stroke="#bfbfbf" points="1012.4,-6 1012.4,-25 1072.4,-25 1072.4,-6 1012.4,-6"/>
<text text-anchor="middle" x="1042.4" y="-13" font-family="Helvetica,sans-Serif" font-size="10.00">iostream</text>
</a>
</g>
</g>
<!-- Node7&#45;&gt;Node8 -->
<g id="edge8" class="edge">
<title>Node7&#45;&gt;Node8</title>
<path fill="none" stroke="midnightblue" d="M952.44,-67.48C969.67,-57.71 998.14,-41.58 1018.43,-30.08"/>
<polygon fill="midnightblue" stroke="midnightblue" points="1020.41,-32.98 1027.38,-25.01 1016.95,-26.89 1020.41,-32.98"/>
</g>
<!-- Node9 -->
<g id="node9" class="node">
<title>Node9</title>
<g id="a_node9"><a xlink:title=" ">
<polygon fill="white" stroke="#bfbfbf" points="749.9,-0.5 749.9,-30.5 862.9,-30.5 862.9,-0.5 749.9,-0.5"/>
<text text-anchor="start" x="757.9" y="-18.5" font-family="Helvetica,sans-Serif" font-size="10.00">boost/property_tree</text>
<text text-anchor="middle" x="806.4" y="-7.5" font-family="Helvetica,sans-Serif" font-size="10.00">/ptree.hpp</text>
</a>
</g>
</g>
<!-- Node7&#45;&gt;Node9 -->
<g id="edge9" class="edge">
<title>Node7&#45;&gt;Node9</title>
<path fill="none" stroke="midnightblue" d="M918.63,-67.48C899.89,-58.96 870.51,-45.62 846.51,-34.72"/>
<polygon fill="midnightblue" stroke="midnightblue" points="847.82,-31.47 837.27,-30.52 844.93,-37.85 847.82,-31.47"/>
</g>
<!-- Node10 -->
<g id="node10" class="node">
<title>Node10</title>
<g id="a_node10"><a xlink:title=" ">
<polygon fill="white" stroke="#bfbfbf" points="880.9,-0.5 880.9,-30.5 993.9,-30.5 993.9,-0.5 880.9,-0.5"/>
<text text-anchor="start" x="888.9" y="-18.5" font-family="Helvetica,sans-Serif" font-size="10.00">boost/property_tree</text>
<text text-anchor="middle" x="937.4" y="-7.5" font-family="Helvetica,sans-Serif" font-size="10.00">/xml_parser.hpp</text>
</a>
</g>
</g>
<!-- Node7&#45;&gt;Node10 -->
<g id="edge10" class="edge">
<title>Node7&#45;&gt;Node10</title>
<path fill="none" stroke="midnightblue" d="M937.4,-67.48C937.4,-60.47 937.4,-50.19 937.4,-40.7"/>
<polygon fill="midnightblue" stroke="midnightblue" points="940.9,-40.52 937.4,-30.52 933.9,-40.52 940.9,-40.52"/>
</g>
<!-- Node11&#45;&gt;Node7 -->
<g id="edge19" class="edge">
<title>Node11&#45;&gt;Node7</title>
<path fill="none" stroke="midnightblue" d="M503.88,-179.46C588.39,-159.68 797.43,-110.76 890.92,-88.88"/>
<polygon fill="midnightblue" stroke="midnightblue" points="891.99,-92.22 900.93,-86.53 890.4,-85.41 891.99,-92.22"/>
</g>
<!-- Node12 -->
<g id="node12" class="node">
<title>Node12</title>
<g id="a_node12"><a xlink:title=" ">
<polygon fill="white" stroke="#bfbfbf" points="206.9,-67.5 206.9,-86.5 259.9,-86.5 259.9,-67.5 206.9,-67.5"/>
<text text-anchor="middle" x="233.4" y="-74.5" font-family="Helvetica,sans-Serif" font-size="10.00">raylib.h</text>
</a>
</g>
</g>
<!-- Node11&#45;&gt;Node12 -->
<g id="edge12" class="edge">
<title>Node11&#45;&gt;Node12</title>
<path fill="none" stroke="midnightblue" d="M462.28,-179.35C453.5,-165.29 434.2,-137.59 410.4,-123 366.78,-96.27 307.84,-85.36 270.22,-80.94"/>
<polygon fill="midnightblue" stroke="midnightblue" points="270.52,-77.45 260.2,-79.86 269.77,-84.41 270.52,-77.45"/>
</g>
<!-- Node13 -->
<g id="node13" class="node">
<title>Node13</title>
<g id="a_node13"><a xlink:title=" ">
<polygon fill="white" stroke="#bfbfbf" points="426.9,-67.5 426.9,-86.5 473.9,-86.5 473.9,-67.5 426.9,-67.5"/>
<text text-anchor="middle" x="450.4" y="-74.5" font-family="Helvetica,sans-Serif" font-size="10.00">cmath</text>
</a>
</g>
</g>
<!-- Node11&#45;&gt;Node13 -->
<g id="edge13" class="edge">
<title>Node11&#45;&gt;Node13</title>
<path fill="none" stroke="midnightblue" d="M466.06,-179.37C463.32,-161.62 456.99,-120.67 453.27,-96.6"/>
<polygon fill="midnightblue" stroke="midnightblue" points="456.71,-95.94 451.72,-86.59 449.79,-97.01 456.71,-95.94"/>
</g>
<!-- Node14 -->
<g id="node14" class="node">
<title>Node14</title>
<g id="a_node14"><a xlink:href="Vector3_8hpp.html" target="_top" xlink:title=" ">
<polygon fill="white" stroke="black" points="327.4,-123.5 327.4,-142.5 401.4,-142.5 401.4,-123.5 327.4,-123.5"/>
<text text-anchor="middle" x="364.4" y="-130.5" font-family="Helvetica,sans-Serif" font-size="10.00">Vector3.hpp</text>
</a>
</g>
</g>
<!-- Node11&#45;&gt;Node14 -->
<g id="edge14" class="edge">
<title>Node11&#45;&gt;Node14</title>
<path fill="none" stroke="midnightblue" d="M450.85,-179.32C434.4,-170.7 408.96,-157.36 389.93,-147.39"/>
<polygon fill="midnightblue" stroke="midnightblue" points="391.39,-144.2 380.9,-142.65 388.14,-150.4 391.39,-144.2"/>
</g>
<!-- Node14&#45;&gt;Node7 -->
<g id="edge16" class="edge">
<title>Node14&#45;&gt;Node7</title>
<path fill="none" stroke="midnightblue" d="M401.55,-128.5C495.74,-119.62 745.08,-96.12 867.53,-84.58"/>
<polygon fill="midnightblue" stroke="midnightblue" points="867.92,-88.06 877.55,-83.64 867.27,-81.09 867.92,-88.06"/>
</g>
<!-- Node14&#45;&gt;Node12 -->
<g id="edge15" class="edge">
<title>Node14&#45;&gt;Node12</title>
<path fill="none" stroke="midnightblue" d="M343.64,-123.44C322.08,-114.56 288.13,-100.56 263.6,-90.45"/>
<polygon fill="midnightblue" stroke="midnightblue" points="264.64,-87.09 254.06,-86.52 261.97,-93.56 264.64,-87.09"/>
</g>
<!-- Node14&#45;&gt;Node13 -->
<g id="edge17" class="edge">
<title>Node14&#45;&gt;Node13</title>
<path fill="none" stroke="midnightblue" d="M378.21,-123.32C391.63,-114.9 412.22,-101.97 427.98,-92.07"/>
<polygon fill="midnightblue" stroke="midnightblue" points="430.01,-94.94 436.61,-86.65 426.28,-89.01 430.01,-94.94"/>
</g>
<!-- Node15 -->
<g id="node15" class="node">
<title>Node15</title>
<g id="a_node15"><a xlink:title=" ">
<polygon fill="white" stroke="#bfbfbf" points="336.4,-67.5 336.4,-86.5 392.4,-86.5 392.4,-67.5 336.4,-67.5"/>
<text text-anchor="middle" x="364.4" y="-74.5" font-family="Helvetica,sans-Serif" font-size="10.00">sstream</text>
</a>
</g>
</g>
<!-- Node14&#45;&gt;Node15 -->
<g id="edge18" class="edge">
<title>Node14&#45;&gt;Node15</title>
<path fill="none" stroke="midnightblue" d="M364.4,-123.08C364.4,-116.01 364.4,-105.86 364.4,-96.99"/>
<polygon fill="midnightblue" stroke="midnightblue" points="367.9,-96.75 364.4,-86.75 360.9,-96.75 367.9,-96.75"/>
</g>
<!-- Node16&#45;&gt;Node3 -->
<g id="edge22" class="edge">
<title>Node16&#45;&gt;Node3</title>
<path fill="none" stroke="midnightblue" d="M371.43,-295.15C411.5,-289.06 476.71,-276.69 529.4,-255 561.52,-241.78 595.04,-219.25 615.32,-204.5"/>
<polygon fill="midnightblue" stroke="midnightblue" points="617.45,-207.28 623.41,-198.52 613.29,-201.65 617.45,-207.28"/>
</g>
<!-- Node16&#45;&gt;Node11 -->
<g id="edge31" class="edge">
<title>Node16&#45;&gt;Node11</title>
<path fill="none" stroke="midnightblue" d="M344.83,-291.37C367.36,-272.73 420.81,-228.53 449.1,-205.13"/>
<polygon fill="midnightblue" stroke="midnightblue" points="451.53,-207.66 457.01,-198.59 447.07,-202.27 451.53,-207.66"/>
</g>
<!-- Node16&#45;&gt;Node12 -->
<g id="edge21" class="edge">
<title>Node16&#45;&gt;Node12</title>
<path fill="none" stroke="midnightblue" d="M297.31,-300.58C221.03,-300.88 50.69,-296.76 14.4,-255 -49.6,-181.38 119.22,-114.99 196.8,-89.29"/>
<polygon fill="midnightblue" stroke="midnightblue" points="198.24,-92.5 206.67,-86.07 196.08,-85.84 198.24,-92.5"/>
</g>
<!-- Node17 -->
<g id="node17" class="node">
<title>Node17</title>
<g id="a_node17"><a xlink:href="Image_8hpp.html" target="_top" xlink:title=" ">
<polygon fill="white" stroke="black" points="203.4,-235.5 203.4,-254.5 271.4,-254.5 271.4,-235.5 203.4,-235.5"/>
<text text-anchor="middle" x="237.4" y="-242.5" font-family="Helvetica,sans-Serif" font-size="10.00">Image.hpp</text>
</a>
</g>
</g>
<!-- Node16&#45;&gt;Node17 -->
<g id="edge23" class="edge">
<title>Node16&#45;&gt;Node17</title>
<path fill="none" stroke="midnightblue" d="M318.81,-291.32C303.4,-282.74 279.58,-269.49 261.69,-259.52"/>
<polygon fill="midnightblue" stroke="midnightblue" points="263.38,-256.46 252.94,-254.65 259.98,-262.58 263.38,-256.46"/>
</g>
<!-- Node16&#45;&gt;Node18 -->
<g id="edge30" class="edge">
<title>Node16&#45;&gt;Node18</title>
<path fill="none" stroke="midnightblue" d="M297.39,-295.43C267.02,-290.08 224.3,-278.72 194.4,-255 178.97,-242.76 168.25,-222.61 162.01,-207.99"/>
<polygon fill="midnightblue" stroke="midnightblue" points="165.19,-206.52 158.25,-198.51 158.68,-209.1 165.19,-206.52"/>
</g>
<!-- Node19 -->
<g id="node19" class="node">
<title>Node19</title>
<g id="a_node19"><a xlink:href="Camera3D_8hpp.html" target="_top" xlink:title=" ">
<polygon fill="white" stroke="black" points="289.9,-235.5 289.9,-254.5 378.9,-254.5 378.9,-235.5 289.9,-235.5"/>
<text text-anchor="middle" x="334.4" y="-242.5" font-family="Helvetica,sans-Serif" font-size="10.00">Camera3D.hpp</text>
</a>
</g>
</g>
<!-- Node16&#45;&gt;Node19 -->
<g id="edge32" class="edge">
<title>Node16&#45;&gt;Node19</title>
<path fill="none" stroke="midnightblue" d="M334.4,-291.08C334.4,-284.01 334.4,-273.86 334.4,-264.99"/>
<polygon fill="midnightblue" stroke="midnightblue" points="337.9,-264.75 334.4,-254.75 330.9,-264.75 337.9,-264.75"/>
</g>
<!-- Node21 -->
<g id="node21" class="node">
<title>Node21</title>
<g id="a_node21"><a xlink:href="Rectangle_8hpp.html" target="_top" xlink:title=" ">
<polygon fill="white" stroke="black" points="23.4,-235.5 23.4,-254.5 109.4,-254.5 109.4,-235.5 23.4,-235.5"/>
<text text-anchor="middle" x="66.4" y="-242.5" font-family="Helvetica,sans-Serif" font-size="10.00">Rectangle.hpp</text>
</a>
</g>
</g>
<!-- Node16&#45;&gt;Node21 -->
<g id="edge38" class="edge">
<title>Node16&#45;&gt;Node21</title>
<path fill="none" stroke="midnightblue" d="M297.13,-292.49C250.75,-283.15 171.25,-267.13 118.76,-256.55"/>
<polygon fill="midnightblue" stroke="midnightblue" points="119.13,-253.06 108.64,-254.51 117.75,-259.92 119.13,-253.06"/>
</g>
<!-- Node22 -->
<g id="node22" class="node">
<title>Node22</title>
<g id="a_node22"><a xlink:href="IAsset_8hpp.html" target="_top" xlink:title=" ">
<polygon fill="white" stroke="black" points="522.4,-179.5 522.4,-198.5 590.4,-198.5 590.4,-179.5 522.4,-179.5"/>
<text text-anchor="middle" x="556.4" y="-186.5" font-family="Helvetica,sans-Serif" font-size="10.00">IAsset.hpp</text>
</a>
</g>
</g>
<!-- Node16&#45;&gt;Node22 -->
<g id="edge41" class="edge">
<title>Node16&#45;&gt;Node22</title>
<path fill="none" stroke="midnightblue" d="M371.67,-296.75C407.82,-292.14 462.97,-281.11 503.4,-255 522.06,-242.95 537.3,-222.17 546.57,-207.35"/>
<polygon fill="midnightblue" stroke="midnightblue" points="549.66,-209.01 551.78,-198.63 543.65,-205.42 549.66,-209.01"/>
</g>
<!-- Node17&#45;&gt;Node3 -->
<g id="edge24" class="edge">
<title>Node17&#45;&gt;Node3</title>
<path fill="none" stroke="midnightblue" d="M271.61,-236.54C274.57,-235.98 277.53,-235.46 280.4,-235 421.27,-212.36 459.08,-224.83 599.4,-199 600.31,-198.83 601.24,-198.65 602.18,-198.46"/>
<polygon fill="midnightblue" stroke="midnightblue" points="603.3,-201.8 612.28,-196.18 601.76,-194.97 603.3,-201.8"/>
</g>
<!-- Node17&#45;&gt;Node11 -->
<g id="edge29" class="edge">
<title>Node17&#45;&gt;Node11</title>
<path fill="none" stroke="midnightblue" d="M271.83,-235.92C311.47,-226.61 376.79,-211.27 420.92,-200.91"/>
<polygon fill="midnightblue" stroke="midnightblue" points="421.89,-204.28 430.82,-198.59 420.29,-197.46 421.89,-204.28"/>
</g>
<!-- Node17&#45;&gt;Node12 -->
<g id="edge25" class="edge">
<title>Node17&#45;&gt;Node12</title>
<path fill="none" stroke="midnightblue" d="M237.18,-235.08C236.55,-208.95 234.7,-132.21 233.84,-96.58"/>
<polygon fill="midnightblue" stroke="midnightblue" points="237.34,-96.48 233.6,-86.57 230.34,-96.65 237.34,-96.48"/>
</g>
<!-- Node17&#45;&gt;Node18 -->
<g id="edge26" class="edge">
<title>Node17&#45;&gt;Node18</title>
<path fill="none" stroke="midnightblue" d="M224.22,-235.32C211.55,-226.98 192.16,-214.21 177.19,-204.35"/>
<polygon fill="midnightblue" stroke="midnightblue" points="178.81,-201.23 168.54,-198.65 174.96,-207.08 178.81,-201.23"/>
</g>
<!-- Node18&#45;&gt;Node12 -->
<g id="edge27" class="edge">
<title>Node18&#45;&gt;Node12</title>
<path fill="none" stroke="midnightblue" d="M161.43,-179.12C170,-166.55 186.22,-142.9 200.4,-123 207.08,-113.61 214.68,-103.23 220.9,-94.81"/>
<polygon fill="midnightblue" stroke="midnightblue" points="223.86,-96.7 227,-86.58 218.24,-92.53 223.86,-96.7"/>
</g>
<!-- Node18&#45;&gt;Node14 -->
<g id="edge28" class="edge">
<title>Node18&#45;&gt;Node14</title>
<path fill="none" stroke="midnightblue" d="M186.69,-179.92C222.48,-170.67 281.31,-155.47 321.4,-145.11"/>
<polygon fill="midnightblue" stroke="midnightblue" points="322.36,-148.48 331.16,-142.59 320.61,-141.7 322.36,-148.48"/>
</g>
<!-- Node19&#45;&gt;Node11 -->
<g id="edge34" class="edge">
<title>Node19&#45;&gt;Node11</title>
<path fill="none" stroke="midnightblue" d="M355.47,-235.44C377.46,-226.52 412.13,-212.44 437.06,-202.32"/>
<polygon fill="midnightblue" stroke="midnightblue" points="438.47,-205.52 446.42,-198.52 435.84,-199.04 438.47,-205.52"/>
</g>
<!-- Node19&#45;&gt;Node12 -->
<g id="edge33" class="edge">
<title>Node19&#45;&gt;Node12</title>
<path fill="none" stroke="midnightblue" d="M318.82,-235.37C305.83,-227.45 287.67,-214.59 276.4,-199 253.39,-167.2 241.69,-121.92 236.63,-96.73"/>
<polygon fill="midnightblue" stroke="midnightblue" points="240.03,-95.88 234.75,-86.7 233.15,-97.17 240.03,-95.88"/>
</g>
<!-- Node19&#45;&gt;Node14 -->
<g id="edge35" class="edge">
<title>Node19&#45;&gt;Node14</title>
<path fill="none" stroke="midnightblue" d="M335.64,-235.48C337.58,-222.96 341.69,-198.91 347.4,-179 349.96,-170.07 353.5,-160.4 356.69,-152.33"/>
<polygon fill="midnightblue" stroke="midnightblue" points="360.03,-153.4 360.57,-142.82 353.55,-150.76 360.03,-153.4"/>
</g>
<!-- Node20 -->
<g id="node20" class="node">
<title>Node20</title>
<g id="a_node20"><a xlink:href="Ray_8hpp.html" target="_top" xlink:title=" ">
<polygon fill="white" stroke="black" points="356.9,-179.5 356.9,-198.5 411.9,-198.5 411.9,-179.5 356.9,-179.5"/>
<text text-anchor="middle" x="384.4" y="-186.5" font-family="Helvetica,sans-Serif" font-size="10.00">Ray.hpp</text>
</a>
</g>
</g>
<!-- Node19&#45;&gt;Node20 -->
<g id="edge36" class="edge">
<title>Node19&#45;&gt;Node20</title>
<path fill="none" stroke="midnightblue" d="M342.65,-235.08C349.86,-227.3 360.51,-215.8 369.24,-206.37"/>
<polygon fill="midnightblue" stroke="midnightblue" points="372.07,-208.47 376.29,-198.75 366.93,-203.71 372.07,-208.47"/>
</g>
<!-- Node20&#45;&gt;Node14 -->
<g id="edge37" class="edge">
<title>Node20&#45;&gt;Node14</title>
<path fill="none" stroke="midnightblue" d="M381.09,-179.08C378.41,-171.85 374.55,-161.41 371.21,-152.4"/>
<polygon fill="midnightblue" stroke="midnightblue" points="374.39,-150.91 367.64,-142.75 367.83,-153.34 374.39,-150.91"/>
</g>
<!-- Node21&#45;&gt;Node12 -->
<g id="edge39" class="edge">
<title>Node21&#45;&gt;Node12</title>
<path fill="none" stroke="midnightblue" d="M72.18,-235.12C80.83,-222.14 97.97,-197.54 115.4,-179 146.98,-145.4 189.02,-111.62 213.45,-92.9"/>
<polygon fill="midnightblue" stroke="midnightblue" points="215.76,-95.54 221.61,-86.71 211.53,-89.97 215.76,-95.54"/>
</g>
<!-- Node21&#45;&gt;Node18 -->
<g id="edge40" class="edge">
<title>Node21&#45;&gt;Node18</title>
<path fill="none" stroke="midnightblue" d="M80.7,-235.32C94.58,-226.9 115.89,-213.97 132.2,-204.07"/>
<polygon fill="midnightblue" stroke="midnightblue" points="134.4,-206.83 141.13,-198.65 130.77,-200.85 134.4,-206.83"/>
</g>
<!-- Node23&#45;&gt;Node5 -->
<g id="edge43" class="edge">
<title>Node23&#45;&gt;Node5</title>
<path fill="none" stroke="midnightblue" d="M1274.02,-354.53C1340.82,-351.35 1462.12,-341.43 1491.4,-311 1517.75,-283.61 1515.03,-235.2 1511.04,-208.67"/>
<polygon fill="midnightblue" stroke="midnightblue" points="1514.48,-208.03 1509.33,-198.77 1507.58,-209.22 1514.48,-208.03"/>
</g>
<!-- Node24 -->
<g id="node24" class="node">
<title>Node24</title>
<g id="a_node24"><a xlink:href="Entity_8hpp.html" target="_top" xlink:title=" ">
<polygon fill="white" stroke="black" points="1196.9,-291.5 1196.9,-310.5 1261.9,-310.5 1261.9,-291.5 1196.9,-291.5"/>
<text text-anchor="middle" x="1229.4" y="-298.5" font-family="Helvetica,sans-Serif" font-size="10.00">Entity.hpp</text>
</a>
</g>
</g>
<!-- Node23&#45;&gt;Node24 -->
<g id="edge44" class="edge">
<title>Node23&#45;&gt;Node24</title>
<path fill="none" stroke="midnightblue" d="M1229.4,-347.08C1229.4,-340.01 1229.4,-329.86 1229.4,-320.99"/>
<polygon fill="midnightblue" stroke="midnightblue" points="1232.9,-320.75 1229.4,-310.75 1225.9,-320.75 1232.9,-320.75"/>
</g>
<!-- Node24&#45;&gt;Node5 -->
<g id="edge65" class="edge">
<title>Node24&#45;&gt;Node5</title>
<path fill="none" stroke="midnightblue" d="M1257.4,-291.49C1284.72,-282.99 1327.3,-269.17 1363.4,-255 1404.96,-238.69 1451.9,-216.83 1480.57,-203.08"/>
<polygon fill="midnightblue" stroke="midnightblue" points="1482.42,-206.08 1489.9,-198.58 1479.38,-199.77 1482.42,-206.08"/>
</g>
<!-- Node25 -->
<g id="node25" class="node">
<title>Node25</title>
<g id="a_node25"><a xlink:title=" ">
<polygon fill="white" stroke="#bfbfbf" points="828.4,-179.5 828.4,-198.5 890.4,-198.5 890.4,-179.5 828.4,-179.5"/>
<text text-anchor="middle" x="859.4" y="-186.5" font-family="Helvetica,sans-Serif" font-size="10.00">cinttypes</text>
</a>
</g>
</g>
<!-- Node24&#45;&gt;Node25 -->
<g id="edge45" class="edge">
<title>Node24&#45;&gt;Node25</title>
<path fill="none" stroke="midnightblue" d="M1196.65,-300.45C1117.95,-300.82 921.29,-297.39 874.4,-255 861.66,-243.49 858.65,-223.52 858.36,-208.74"/>
<polygon fill="midnightblue" stroke="midnightblue" points="861.86,-208.75 858.56,-198.68 854.86,-208.61 861.86,-208.75"/>
</g>
<!-- Node26 -->
<g id="node26" class="node">
<title>Node26</title>
<g id="a_node26"><a xlink:title=" ">
<polygon fill="white" stroke="#bfbfbf" points="1264.9,-179.5 1264.9,-198.5 1357.9,-198.5 1357.9,-179.5 1264.9,-179.5"/>
<text text-anchor="middle" x="1311.4" y="-186.5" font-family="Helvetica,sans-Serif" font-size="10.00">unordered_map</text>
</a>
</g>
</g>
<!-- Node24&#45;&gt;Node26 -->
<g id="edge46" class="edge">
<title>Node24&#45;&gt;Node26</title>
<path fill="none" stroke="midnightblue" d="M1262.19,-293.27C1283.06,-287.1 1308.5,-275.67 1321.4,-255 1330.16,-240.95 1325.79,-221.96 1320.35,-208.13"/>
<polygon fill="midnightblue" stroke="midnightblue" points="1323.43,-206.46 1316.18,-198.73 1317.03,-209.3 1323.43,-206.46"/>
</g>
<!-- Node27 -->
<g id="node27" class="node">
<title>Node27</title>
<g id="a_node27"><a xlink:title=" ">
<polygon fill="white" stroke="#bfbfbf" points="958.4,-179.5 958.4,-198.5 1016.4,-198.5 1016.4,-179.5 958.4,-179.5"/>
<text text-anchor="middle" x="987.4" y="-186.5" font-family="Helvetica,sans-Serif" font-size="10.00">memory</text>
</a>
</g>
</g>
<!-- Node24&#45;&gt;Node27 -->
<g id="edge47" class="edge">
<title>Node24&#45;&gt;Node27</title>
<path fill="none" stroke="midnightblue" d="M1210.41,-291.37C1168,-272.09 1065.39,-225.45 1015.53,-202.79"/>
<polygon fill="midnightblue" stroke="midnightblue" points="1016.85,-199.54 1006.3,-198.59 1013.95,-205.92 1016.85,-199.54"/>
</g>
<!-- Node28 -->
<g id="node28" class="node">
<title>Node28</title>
<g id="a_node28"><a xlink:title=" ">
<polygon fill="white" stroke="#bfbfbf" points="1376.4,-179.5 1376.4,-198.5 1440.4,-198.5 1440.4,-179.5 1376.4,-179.5"/>
<text text-anchor="middle" x="1408.4" y="-186.5" font-family="Helvetica,sans-Serif" font-size="10.00">algorithm</text>
</a>
</g>
</g>
<!-- Node24&#45;&gt;Node28 -->
<g id="edge48" class="edge">
<title>Node24&#45;&gt;Node28</title>
<path fill="none" stroke="midnightblue" d="M1257.31,-291.37C1279.92,-283.69 1312.05,-271.17 1337.4,-255 1359.06,-241.17 1380.33,-220.5 1393.85,-206.19"/>
<polygon fill="midnightblue" stroke="midnightblue" points="1396.64,-208.33 1400.86,-198.61 1391.5,-203.57 1396.64,-208.33"/>
</g>
<!-- Node29 -->
<g id="node29" class="node">
<title>Node29</title>
<g id="a_node29"><a xlink:title=" ">
<polygon fill="white" stroke="#bfbfbf" points="1199.9,-179.5 1199.9,-198.5 1246.9,-198.5 1246.9,-179.5 1199.9,-179.5"/>
<text text-anchor="middle" x="1223.4" y="-186.5" font-family="Helvetica,sans-Serif" font-size="10.00">vector</text>
</a>
</g>
</g>
<!-- Node24&#45;&gt;Node29 -->
<g id="edge49" class="edge">
<title>Node24&#45;&gt;Node29</title>
<path fill="none" stroke="midnightblue" d="M1255.27,-291.38C1283.12,-280.59 1321.52,-260.4 1306.4,-235 1300.4,-224.92 1275.17,-212.05 1254.09,-202.66"/>
<polygon fill="midnightblue" stroke="midnightblue" points="1255.35,-199.39 1244.78,-198.61 1252.56,-205.81 1255.35,-199.39"/>
</g>
<!-- Node30 -->
<g id="node30" class="node">
<title>Node30</title>
<g id="a_node30"><a xlink:title=" ">
<polygon fill="white" stroke="#bfbfbf" points="1090.9,-179.5 1090.9,-198.5 1181.9,-198.5 1181.9,-179.5 1090.9,-179.5"/>
<text text-anchor="middle" x="1136.4" y="-186.5" font-family="Helvetica,sans-Serif" font-size="10.00">Exceptions.hpp</text>
</a>
</g>
</g>
<!-- Node24&#45;&gt;Node30 -->
<g id="edge50" class="edge">
<title>Node24&#45;&gt;Node30</title>
<path fill="none" stroke="midnightblue" d="M1204.29,-291.35C1187.18,-284.2 1165.37,-272.37 1152.4,-255 1142.51,-241.76 1138.67,-223.18 1137.21,-209.27"/>
<polygon fill="midnightblue" stroke="midnightblue" points="1140.67,-208.63 1136.46,-198.91 1133.69,-209.13 1140.67,-208.63"/>
</g>
<!-- Node31 -->
<g id="node31" class="node">
<title>Node31</title>
<g id="a_node31"><a xlink:href="ComponentManager_8hpp.html" target="_top" xlink:title=" ">
<polygon fill="white" stroke="black" points="1161.4,-235.5 1161.4,-254.5 1297.4,-254.5 1297.4,-235.5 1161.4,-235.5"/>
<text text-anchor="middle" x="1229.4" y="-242.5" font-family="Helvetica,sans-Serif" font-size="10.00">ComponentManager.hpp</text>
</a>
</g>
</g>
<!-- Node24&#45;&gt;Node31 -->
<g id="edge51" class="edge">
<title>Node24&#45;&gt;Node31</title>
<path fill="none" stroke="midnightblue" d="M1229.4,-291.08C1229.4,-284.01 1229.4,-273.86 1229.4,-264.99"/>
<polygon fill="midnightblue" stroke="midnightblue" points="1232.9,-264.75 1229.4,-254.75 1225.9,-264.75 1232.9,-264.75"/>
</g>
<!-- Node33 -->
<g id="node33" class="node">
<title>Node33</title>
<g id="a_node33"><a xlink:href="EntityManager_8hpp.html" target="_top" xlink:title=" ">
<polygon fill="white" stroke="black" points="883.4,-235.5 883.4,-254.5 991.4,-254.5 991.4,-235.5 883.4,-235.5"/>
<text text-anchor="middle" x="937.4" y="-242.5" font-family="Helvetica,sans-Serif" font-size="10.00">EntityManager.hpp</text>
</a>
</g>
</g>
<!-- Node24&#45;&gt;Node33 -->
<g id="edge60" class="edge">
<title>Node24&#45;&gt;Node33</title>
<path fill="none" stroke="midnightblue" d="M1196.75,-293.96C1147.58,-284.87 1053.87,-267.54 993.58,-256.39"/>
<polygon fill="midnightblue" stroke="midnightblue" points="993.94,-252.9 983.47,-254.52 992.67,-259.78 993.94,-252.9"/>
</g>
<!-- Node31&#45;&gt;Node3 -->
<g id="edge53" class="edge">
<title>Node31&#45;&gt;Node3</title>
<path fill="none" stroke="midnightblue" d="M1161.03,-238.18C1063.78,-229.85 879.9,-213.87 723.4,-199 704.75,-197.23 683.93,-195.13 667.11,-193.4"/>
<polygon fill="midnightblue" stroke="midnightblue" points="667.01,-189.87 656.7,-192.33 666.29,-196.84 667.01,-189.87"/>
</g>
<!-- Node31&#45;&gt;Node5 -->
<g id="edge58" class="edge">
<title>Node31&#45;&gt;Node5</title>
<path fill="none" stroke="midnightblue" d="M1273.45,-235.44C1322.25,-225.96 1400.96,-210.67 1453.43,-200.48"/>
<polygon fill="midnightblue" stroke="midnightblue" points="1454.4,-203.86 1463.55,-198.52 1453.07,-196.99 1454.4,-203.86"/>
</g>
<!-- Node31&#45;&gt;Node26 -->
<g id="edge52" class="edge">
<title>Node31&#45;&gt;Node26</title>
<path fill="none" stroke="midnightblue" d="M1242.57,-235.32C1255.24,-226.98 1274.63,-214.21 1289.6,-204.35"/>
<polygon fill="midnightblue" stroke="midnightblue" points="1291.83,-207.08 1298.25,-198.65 1287.98,-201.23 1291.83,-207.08"/>
</g>
<!-- Node31&#45;&gt;Node27 -->
<g id="edge55" class="edge">
<title>Node31&#45;&gt;Node27</title>
<path fill="none" stroke="midnightblue" d="M1189.87,-235.47C1150.83,-227 1089.16,-213.52 1026.49,-199.23"/>
<polygon fill="midnightblue" stroke="midnightblue" points="1026.96,-195.74 1016.43,-196.93 1025.4,-202.57 1026.96,-195.74"/>
</g>
<!-- Node31&#45;&gt;Node28 -->
<g id="edge56" class="edge">
<title>Node31&#45;&gt;Node28</title>
<path fill="none" stroke="midnightblue" d="M1257.76,-235.44C1288.13,-226.28 1336.51,-211.69 1370.21,-201.52"/>
<polygon fill="midnightblue" stroke="midnightblue" points="1371.6,-204.76 1380.17,-198.52 1369.58,-198.05 1371.6,-204.76"/>
</g>
<!-- Node31&#45;&gt;Node29 -->
<g id="edge54" class="edge">
<title>Node31&#45;&gt;Node29</title>
<path fill="none" stroke="midnightblue" d="M1228.41,-235.08C1227.61,-227.93 1226.47,-217.64 1225.47,-208.69"/>
<polygon fill="midnightblue" stroke="midnightblue" points="1228.95,-208.3 1224.37,-198.75 1221.99,-209.08 1228.95,-208.3"/>
</g>
<!-- Node31&#45;&gt;Node30 -->
<g id="edge57" class="edge">
<title>Node31&#45;&gt;Node30</title>
<path fill="none" stroke="midnightblue" d="M1214.45,-235.32C1199.81,-226.82 1177.26,-213.73 1160.16,-203.8"/>
<polygon fill="midnightblue" stroke="midnightblue" points="1161.71,-200.65 1151.3,-198.65 1158.19,-206.7 1161.71,-200.65"/>
</g>
<!-- Node32 -->
<g id="node32" class="node">
<title>Node32</title>
<g id="a_node32"><a xlink:title=" ">
<polygon fill="white" stroke="#bfbfbf" points="1034.4,-179.5 1034.4,-198.5 1072.4,-198.5 1072.4,-179.5 1034.4,-179.5"/>
<text text-anchor="middle" x="1053.4" y="-186.5" font-family="Helvetica,sans-Serif" font-size="10.00">map</text>
</a>
</g>
</g>
<!-- Node31&#45;&gt;Node32 -->
<g id="edge59" class="edge">
<title>Node31&#45;&gt;Node32</title>
<path fill="none" stroke="midnightblue" d="M1200.71,-235.42C1172.78,-227.04 1128.91,-213.79 1082.33,-199.26"/>
<polygon fill="midnightblue" stroke="midnightblue" points="1083.25,-195.88 1072.66,-196.24 1081.16,-202.56 1083.25,-195.88"/>
</g>
<!-- Node33&#45;&gt;Node25 -->
<g id="edge62" class="edge">
<title>Node33&#45;&gt;Node25</title>
<path fill="none" stroke="midnightblue" d="M924.86,-235.32C912.81,-226.98 894.37,-214.21 880.13,-204.35"/>
<polygon fill="midnightblue" stroke="midnightblue" points="882.11,-201.47 871.9,-198.65 878.13,-207.22 882.11,-201.47"/>
</g>
<!-- Node33&#45;&gt;Node27 -->
<g id="edge63" class="edge">
<title>Node33&#45;&gt;Node27</title>
<path fill="none" stroke="midnightblue" d="M945.65,-235.08C952.86,-227.3 963.51,-215.8 972.24,-206.37"/>
<polygon fill="midnightblue" stroke="midnightblue" points="975.07,-208.47 979.29,-198.75 969.93,-203.71 975.07,-208.47"/>
</g>
<!-- Node33&#45;&gt;Node29 -->
<g id="edge61" class="edge">
<title>Node33&#45;&gt;Node29</title>
<path fill="none" stroke="midnightblue" d="M991.72,-235.97C1041.14,-228.3 1116.27,-215.76 1189.81,-199.2"/>
<polygon fill="midnightblue" stroke="midnightblue" points="1190.72,-202.58 1199.7,-196.95 1189.17,-195.76 1190.72,-202.58"/>
</g>
<!-- Node34 -->
<g id="node34" class="node">
<title>Node34</title>
<g id="a_node34"><a xlink:title=" ">
<polygon fill="white" stroke="#bfbfbf" points="908.4,-179.5 908.4,-198.5 940.4,-198.5 940.4,-179.5 908.4,-179.5"/>
<text text-anchor="middle" x="924.4" y="-186.5" font-family="Helvetica,sans-Serif" font-size="10.00">list</text>
</a>
</g>
</g>
<!-- Node33&#45;&gt;Node34 -->
<g id="edge64" class="edge">
<title>Node33&#45;&gt;Node34</title>
<path fill="none" stroke="midnightblue" d="M935.25,-235.08C933.53,-227.93 931.05,-217.64 928.9,-208.69"/>
<polygon fill="midnightblue" stroke="midnightblue" points="932.25,-207.65 926.5,-198.75 925.44,-209.29 932.25,-207.65"/>
</g>
<!-- Node35&#45;&gt;Node3 -->
<g id="edge69" class="edge">
<title>Node35&#45;&gt;Node3</title>
<path fill="none" stroke="midnightblue" d="M492.17,-235.44C522.16,-225.86 570.71,-210.35 602.6,-200.16"/>
<polygon fill="midnightblue" stroke="midnightblue" points="603.86,-203.43 612.32,-197.05 601.73,-196.76 603.86,-203.43"/>
</g>
<!-- Node35&#45;&gt;Node11 -->
<g id="edge70" class="edge">
<title>Node35&#45;&gt;Node11</title>
<path fill="none" stroke="midnightblue" d="M465.73,-235.08C465.99,-228.01 466.36,-217.86 466.69,-208.99"/>
<polygon fill="midnightblue" stroke="midnightblue" points="470.2,-208.87 467.07,-198.75 463.2,-208.61 470.2,-208.87"/>
</g>
<!-- Node35&#45;&gt;Node12 -->
<g id="edge68" class="edge">
<title>Node35&#45;&gt;Node12</title>
<path fill="none" stroke="midnightblue" d="M435.52,-236.65C410.54,-229.6 374.73,-217.29 347.4,-199 303.6,-169.69 264.29,-120.64 245.34,-94.92"/>
<polygon fill="midnightblue" stroke="midnightblue" points="248.01,-92.63 239.31,-86.58 242.33,-96.73 248.01,-92.63"/>
</g>
<!-- Node35&#45;&gt;Node18 -->
<g id="edge71" class="edge">
<title>Node35&#45;&gt;Node18</title>
<path fill="none" stroke="midnightblue" d="M435.67,-238.82C379.97,-229.12 259.81,-208.19 196.44,-197.15"/>
<polygon fill="midnightblue" stroke="midnightblue" points="196.86,-193.67 186.41,-195.4 195.66,-200.57 196.86,-193.67"/>
</g>
<!-- Node35&#45;&gt;Node22 -->
<g id="edge72" class="edge">
<title>Node35&#45;&gt;Node22</title>
<path fill="none" stroke="midnightblue" d="M480.02,-235.32C494.34,-226.82 516.41,-213.73 533.14,-203.8"/>
<polygon fill="midnightblue" stroke="midnightblue" points="535,-206.77 541.81,-198.65 531.43,-200.75 535,-206.77"/>
</g>
<!-- Node36&#45;&gt;Node22 -->
<g id="edge74" class="edge">
<title>Node36&#45;&gt;Node22</title>
<path fill="none" stroke="midnightblue" d="M749,-291.37C712.67,-272.25 625.23,-226.23 581.78,-203.36"/>
<polygon fill="midnightblue" stroke="midnightblue" points="583.2,-200.15 572.72,-198.59 579.94,-206.35 583.2,-200.15"/>
</g>
<!-- Node36&#45;&gt;Node27 -->
<g id="edge79" class="edge">
<title>Node36&#45;&gt;Node27</title>
<path fill="none" stroke="midnightblue" d="M813.08,-297.82C874.76,-293.88 977.1,-283.17 1000.4,-255 1011.36,-241.74 1005.08,-221.8 997.97,-207.5"/>
<polygon fill="midnightblue" stroke="midnightblue" points="1000.99,-205.74 993.1,-198.66 994.85,-209.11 1000.99,-205.74"/>
</g>
<!-- Node36&#45;&gt;Node32 -->
<g id="edge78" class="edge">
<title>Node36&#45;&gt;Node32</title>
<path fill="none" stroke="midnightblue" d="M812.9,-296.37C876.57,-290.71 985.31,-277.94 1017.4,-255 1033.1,-243.77 1042.75,-223.45 1048.05,-208.51"/>
<polygon fill="midnightblue" stroke="midnightblue" points="1051.45,-209.38 1051.17,-198.79 1044.78,-207.24 1051.45,-209.38"/>
</g>
<!-- Node37 -->
<g id="node37" class="node">
<title>Node37</title>
<g id="a_node37"><a xlink:href="EngineExceptions_8hpp.html" target="_top" xlink:title=" ">
<polygon fill="white" stroke="black" points="703.4,-235.5 703.4,-254.5 827.4,-254.5 827.4,-235.5 703.4,-235.5"/>
<text text-anchor="middle" x="765.4" y="-242.5" font-family="Helvetica,sans-Serif" font-size="10.00">EngineExceptions.hpp</text>
</a>
</g>
</g>
<!-- Node36&#45;&gt;Node37 -->
<g id="edge75" class="edge">
<title>Node36&#45;&gt;Node37</title>
<path fill="none" stroke="midnightblue" d="M765.4,-291.08C765.4,-284.01 765.4,-273.86 765.4,-264.99"/>
<polygon fill="midnightblue" stroke="midnightblue" points="768.9,-264.75 765.4,-254.75 761.9,-264.75 768.9,-264.75"/>
</g>
<!-- Node37&#45;&gt;Node3 -->
<g id="edge77" class="edge">
<title>Node37&#45;&gt;Node3</title>
<path fill="none" stroke="midnightblue" d="M744.64,-235.44C723.08,-226.56 689.13,-212.56 664.6,-202.45"/>
<polygon fill="midnightblue" stroke="midnightblue" points="665.64,-199.09 655.06,-198.52 662.97,-205.56 665.64,-199.09"/>
</g>
<!-- Node38 -->
<g id="node38" class="node">
<title>Node38</title>
<g id="a_node38"><a xlink:title=" ">
<polygon fill="white" stroke="#bfbfbf" points="732.9,-179.5 732.9,-198.5 797.9,-198.5 797.9,-179.5 732.9,-179.5"/>
<text text-anchor="middle" x="765.4" y="-186.5" font-family="Helvetica,sans-Serif" font-size="10.00">exception</text>
</a>
</g>
</g>
<!-- Node37&#45;&gt;Node38 -->
<g id="edge76" class="edge">
<title>Node37&#45;&gt;Node38</title>
<path fill="none" stroke="midnightblue" d="M765.4,-235.08C765.4,-228.01 765.4,-217.86 765.4,-208.99"/>
<polygon fill="midnightblue" stroke="midnightblue" points="768.9,-208.75 765.4,-198.75 761.9,-208.75 768.9,-208.75"/>
</g>
</g>
</svg>
