<?xml version="1.0" encoding="UTF-8" standalone="no"?>
<!DOCTYPE svg PUBLIC "-//W3C//DTD SVG 1.1//EN"
 "http://www.w3.org/Graphics/SVG/1.1/DTD/svg11.dtd">
<!-- Generated by graphviz version 2.43.0 (0)
 -->
<!-- Title: Libs/Engine/sources/Components/TextBox/TextBox.hpp Pages: 1 -->
<svg width="610pt" height="206pt"
 viewBox="0.00 0.00 609.50 206.00" xmlns="http://www.w3.org/2000/svg" xmlns:xlink="http://www.w3.org/1999/xlink">
<g id="graph0" class="graph" transform="scale(1 1) rotate(0) translate(4 202)">
<title>Libs/Engine/sources/Components/TextBox/TextBox.hpp</title>
<polygon fill="white" stroke="transparent" points="-4,4 -4,-202 605.5,-202 605.5,4 -4,4"/>
<!-- Node1 -->
<g id="node1" class="node">
<title>Node1</title>
<g id="a_node1"><a xlink:title=" ">
<polygon fill="#bfbfbf" stroke="black" points="263.5,-156.5 263.5,-197.5 386.5,-197.5 386.5,-156.5 263.5,-156.5"/>
<text text-anchor="start" x="271.5" y="-185.5" font-family="Helvetica,sans-Serif" font-size="10.00">Libs/Engine/sources</text>
<text text-anchor="start" x="271.5" y="-174.5" font-family="Helvetica,sans-Serif" font-size="10.00">/Components/TextBox</text>
<text text-anchor="middle" x="325" y="-163.5" font-family="Helvetica,sans-Serif" font-size="10.00">/TextBox.hpp</text>
</a>
</g>
</g>
<!-- Node2 -->
<g id="node2" class="node">
<title>Node2</title>
<g id="a_node2"><a xlink:href="ButtonCallbacks_8cpp.html" target="_top" xlink:title=" ">
<polygon fill="white" stroke="black" points="0,-78.5 0,-119.5 164,-119.5 164,-78.5 0,-78.5"/>
<text text-anchor="start" x="8" y="-107.5" font-family="Helvetica,sans-Serif" font-size="10.00">Libs/Engine/sources</text>
<text text-anchor="start" x="8" y="-96.5" font-family="Helvetica,sans-Serif" font-size="10.00">/Components/ButtonCallbacks</text>
<text text-anchor="middle" x="82" y="-85.5" font-family="Helvetica,sans-Serif" font-size="10.00">/ButtonCallbacks.cpp</text>
</a>
</g>
</g>
<!-- Node1&#45;&gt;Node2 -->
<g id="edge1" class="edge">
<title>Node1&#45;&gt;Node2</title>
<path fill="none" stroke="midnightblue" d="M253.78,-153.72C219.12,-142.88 177.82,-129.97 144.41,-119.52"/>
<polygon fill="midnightblue" stroke="midnightblue" points="252.78,-157.08 263.37,-156.72 254.87,-150.4 252.78,-157.08"/>
</g>
<!-- Node3 -->
<g id="node3" class="node">
<title>Node3</title>
<g id="a_node3"><a xlink:href="TextBox_8cpp.html" target="_top" xlink:title=" ">
<polygon fill="white" stroke="black" points="182.5,-78.5 182.5,-119.5 305.5,-119.5 305.5,-78.5 182.5,-78.5"/>
<text text-anchor="start" x="190.5" y="-107.5" font-family="Helvetica,sans-Serif" font-size="10.00">Libs/Engine/sources</text>
<text text-anchor="start" x="190.5" y="-96.5" font-family="Helvetica,sans-Serif" font-size="10.00">/Components/TextBox</text>
<text text-anchor="middle" x="244" y="-85.5" font-family="Helvetica,sans-Serif" font-size="10.00">/TextBox.cpp</text>
</a>
</g>
</g>
<!-- Node1&#45;&gt;Node3 -->
<g id="edge2" class="edge">
<title>Node1&#45;&gt;Node3</title>
<path fill="none" stroke="midnightblue" d="M296.75,-149.49C286.24,-139.63 274.51,-128.63 264.79,-119.51"/>
<polygon fill="midnightblue" stroke="midnightblue" points="294.45,-152.14 304.14,-156.43 299.24,-147.03 294.45,-152.14"/>
</g>
<!-- Node4 -->
<g id="node4" class="node">
<title>Node4</title>
<g id="a_node4"><a xlink:href="TextBoxCallback_8hpp.html" target="_top" xlink:title=" ">
<polygon fill="white" stroke="black" points="323.5,-78.5 323.5,-119.5 488.5,-119.5 488.5,-78.5 323.5,-78.5"/>
<text text-anchor="start" x="331.5" y="-107.5" font-family="Helvetica,sans-Serif" font-size="10.00">Libs/Engine/sources</text>
<text text-anchor="start" x="331.5" y="-96.5" font-family="Helvetica,sans-Serif" font-size="10.00">/Components/TextBoxCallback</text>
<text text-anchor="middle" x="406" y="-85.5" font-family="Helvetica,sans-Serif" font-size="10.00">/TextBoxCallback.hpp</text>
</a>
</g>
</g>
<!-- Node1&#45;&gt;Node4 -->
<g id="edge3" class="edge">
<title>Node1&#45;&gt;Node4</title>
<path fill="none" stroke="midnightblue" d="M353.25,-149.49C363.76,-139.63 375.49,-128.63 385.21,-119.51"/>
<polygon fill="midnightblue" stroke="midnightblue" points="350.76,-147.03 345.86,-156.43 355.55,-152.14 350.76,-147.03"/>
</g>
<!-- Node6 -->
<g id="node6" class="node">
<title>Node6</title>
<g id="a_node6"><a xlink:href="EntityFactory_8cpp.html" target="_top" xlink:title=" ">
<polygon fill="white" stroke="black" points="432.5,-6 432.5,-36 601.5,-36 601.5,-6 432.5,-6"/>
<text text-anchor="start" x="440.5" y="-24" font-family="Helvetica,sans-Serif" font-size="10.00">Libs/Engine/sources</text>
<text text-anchor="middle" x="517" y="-13" font-family="Helvetica,sans-Serif" font-size="10.00">/EntityFactory/EntityFactory.cpp</text>
</a>
</g>
</g>
<!-- Node1&#45;&gt;Node6 -->
<g id="edge6" class="edge">
<title>Node1&#45;&gt;Node6</title>
<path fill="none" stroke="midnightblue" d="M397.02,-169.65C432.31,-162.79 472.57,-148.72 498,-120 518.79,-96.51 519.68,-57.25 518.42,-36.26"/>
<polygon fill="midnightblue" stroke="midnightblue" points="395.97,-166.28 386.74,-171.48 397.2,-173.18 395.97,-166.28"/>
</g>
<!-- Node5 -->
<g id="node5" class="node">
<title>Node5</title>
<g id="a_node5"><a xlink:href="TextBoxCallback_8cpp.html" target="_top" xlink:title=" ">
<polygon fill="white" stroke="black" points="249.5,-0.5 249.5,-41.5 414.5,-41.5 414.5,-0.5 249.5,-0.5"/>
<text text-anchor="start" x="257.5" y="-29.5" font-family="Helvetica,sans-Serif" font-size="10.00">Libs/Engine/sources</text>
<text text-anchor="start" x="257.5" y="-18.5" font-family="Helvetica,sans-Serif" font-size="10.00">/Components/TextBoxCallback</text>
<text text-anchor="middle" x="332" y="-7.5" font-family="Helvetica,sans-Serif" font-size="10.00">/TextBoxCallback.cpp</text>
</a>
</g>
</g>
<!-- Node4&#45;&gt;Node5 -->
<g id="edge4" class="edge">
<title>Node4&#45;&gt;Node5</title>
<path fill="none" stroke="midnightblue" d="M379.91,-71.2C370.38,-61.42 359.79,-50.54 350.99,-41.51"/>
<polygon fill="midnightblue" stroke="midnightblue" points="377.46,-73.71 386.94,-78.43 382.47,-68.82 377.46,-73.71"/>
</g>
<!-- Node4&#45;&gt;Node6 -->
<g id="edge5" class="edge">
<title>Node4&#45;&gt;Node6</title>
<path fill="none" stroke="midnightblue" d="M443.02,-72.66C460.73,-60.53 481.28,-46.45 496.22,-36.23"/>
<polygon fill="midnightblue" stroke="midnightblue" points="440.86,-69.89 434.59,-78.43 444.81,-75.67 440.86,-69.89"/>
</g>
</g>
</svg>
