<?xml version="1.0" encoding="UTF-8" standalone="no"?>
<!DOCTYPE svg PUBLIC "-//W3C//DTD SVG 1.1//EN"
 "http://www.w3.org/Graphics/SVG/1.1/DTD/svg11.dtd">
<!-- Generated by graphviz version 2.43.0 (0)
 -->
<!-- Title: Libs/Engine/sources/Components/TextBoxCallback/TextBoxCallback.hpp Pages: 1 -->
<svg width="1603pt" height="509pt"
 viewBox="0.00 0.00 1603.00 509.00" xmlns="http://www.w3.org/2000/svg" xmlns:xlink="http://www.w3.org/1999/xlink">
<g id="graph0" class="graph" transform="scale(1 1) rotate(0) translate(4 505)">
<title>Libs/Engine/sources/Components/TextBoxCallback/TextBoxCallback.hpp</title>
<polygon fill="white" stroke="transparent" points="-4,4 -4,-505 1599,-505 1599,4 -4,4"/>
<!-- Node1 -->
<g id="node1" class="node">
<title>Node1</title>
<g id="a_node1"><a xlink:title=" ">
<polygon fill="#bfbfbf" stroke="black" points="540,-459.5 540,-500.5 705,-500.5 705,-459.5 540,-459.5"/>
<text text-anchor="start" x="548" y="-488.5" font-family="Helvetica,sans-Serif" font-size="10.00">Libs/Engine/sources</text>
<text text-anchor="start" x="548" y="-477.5" font-family="Helvetica,sans-Serif" font-size="10.00">/Components/TextBoxCallback</text>
<text text-anchor="middle" x="622.5" y="-466.5" font-family="Helvetica,sans-Serif" font-size="10.00">/TextBoxCallback.hpp</text>
</a>
</g>
</g>
<!-- Node2 -->
<g id="node2" class="node">
<title>Node2</title>
<g id="a_node2"><a xlink:href="TextBox_8hpp.html" target="_top" xlink:title=" ">
<polygon fill="white" stroke="black" points="584,-403.5 584,-422.5 661,-422.5 661,-403.5 584,-403.5"/>
<text text-anchor="middle" x="622.5" y="-410.5" font-family="Helvetica,sans-Serif" font-size="10.00">TextBox.hpp</text>
</a>
</g>
</g>
<!-- Node1&#45;&gt;Node2 -->
<g id="edge1" class="edge">
<title>Node1&#45;&gt;Node2</title>
<path fill="none" stroke="midnightblue" d="M622.5,-459.5C622.5,-451.07 622.5,-441.24 622.5,-432.87"/>
<polygon fill="midnightblue" stroke="midnightblue" points="626,-432.65 622.5,-422.65 619,-432.65 626,-432.65"/>
</g>
<!-- Node23 -->
<g id="node23" class="node">
<title>Node23</title>
<g id="a_node23"><a xlink:href="IBehaviour_8hpp.html" target="_top" xlink:title=" ">
<polygon fill="white" stroke="black" points="841,-347.5 841,-366.5 930,-366.5 930,-347.5 841,-347.5"/>
<text text-anchor="middle" x="885.5" y="-354.5" font-family="Helvetica,sans-Serif" font-size="10.00">IBehaviour.hpp</text>
</a>
</g>
</g>
<!-- Node1&#45;&gt;Node23 -->
<g id="edge80" class="edge">
<title>Node1&#45;&gt;Node23</title>
<path fill="none" stroke="midnightblue" d="M665.05,-459.42C719.34,-434.45 811.71,-391.95 857.73,-370.78"/>
<polygon fill="midnightblue" stroke="midnightblue" points="859.19,-373.96 866.82,-366.6 856.27,-367.6 859.19,-373.96"/>
</g>
<!-- Node39 -->
<g id="node39" class="node">
<title>Node39</title>
<g id="a_node39"><a xlink:href="Input_8hpp.html" target="_top" xlink:title=" ">
<polygon fill="white" stroke="black" points="299.5,-403.5 299.5,-422.5 361.5,-422.5 361.5,-403.5 299.5,-403.5"/>
<text text-anchor="middle" x="330.5" y="-410.5" font-family="Helvetica,sans-Serif" font-size="10.00">Input.hpp</text>
</a>
</g>
</g>
<!-- Node1&#45;&gt;Node39 -->
<g id="edge81" class="edge">
<title>Node1&#45;&gt;Node39</title>
<path fill="none" stroke="midnightblue" d="M540,-460.63C485.04,-448.4 415.17,-432.85 371.64,-423.16"/>
<polygon fill="midnightblue" stroke="midnightblue" points="372.22,-419.7 361.7,-420.94 370.7,-426.53 372.22,-419.7"/>
</g>
<!-- Node3 -->
<g id="node3" class="node">
<title>Node3</title>
<g id="a_node3"><a xlink:title=" ">
<polygon fill="white" stroke="#bfbfbf" points="647.5,-179.5 647.5,-198.5 691.5,-198.5 691.5,-179.5 647.5,-179.5"/>
<text text-anchor="middle" x="669.5" y="-186.5" font-family="Helvetica,sans-Serif" font-size="10.00">string</text>
</a>
</g>
</g>
<!-- Node2&#45;&gt;Node3 -->
<g id="edge2" class="edge">
<title>Node2&#45;&gt;Node3</title>
<path fill="none" stroke="midnightblue" d="M624.34,-403.3C631.26,-370.63 655.77,-254.87 665.49,-208.96"/>
<polygon fill="midnightblue" stroke="midnightblue" points="668.97,-209.39 667.62,-198.88 662.12,-207.94 668.97,-209.39"/>
</g>
<!-- Node4 -->
<g id="node4" class="node">
<title>Node4</title>
<g id="a_node4"><a xlink:href="IUIObject_8hpp.html" target="_top" xlink:title=" ">
<polygon fill="white" stroke="black" points="415,-347.5 415,-366.5 498,-366.5 498,-347.5 415,-347.5"/>
<text text-anchor="middle" x="456.5" y="-354.5" font-family="Helvetica,sans-Serif" font-size="10.00">IUIObject.hpp</text>
</a>
</g>
</g>
<!-- Node2&#45;&gt;Node4 -->
<g id="edge3" class="edge">
<title>Node2&#45;&gt;Node4</title>
<path fill="none" stroke="midnightblue" d="M596.2,-403.44C568.15,-394.32 523.56,-379.81 492.32,-369.65"/>
<polygon fill="midnightblue" stroke="midnightblue" points="493.27,-366.28 482.68,-366.52 491.11,-372.94 493.27,-366.28"/>
</g>
<!-- Node18 -->
<g id="node18" class="node">
<title>Node18</title>
<g id="a_node18"><a xlink:href="Color_8hpp.html" target="_top" xlink:title=" ">
<polygon fill="white" stroke="black" points="295.5,-179.5 295.5,-198.5 357.5,-198.5 357.5,-179.5 295.5,-179.5"/>
<text text-anchor="middle" x="326.5" y="-186.5" font-family="Helvetica,sans-Serif" font-size="10.00">Color.hpp</text>
</a>
</g>
</g>
<!-- Node2&#45;&gt;Node18 -->
<g id="edge66" class="edge">
<title>Node2&#45;&gt;Node18</title>
<path fill="none" stroke="midnightblue" d="M583.88,-409.91C539.09,-406.18 464.05,-395.8 406.5,-367 339.2,-333.32 310.46,-323.59 279.5,-255 270.91,-235.98 288.49,-216.95 304.54,-204.44"/>
<polygon fill="midnightblue" stroke="midnightblue" points="306.63,-207.25 312.64,-198.53 302.5,-201.6 306.63,-207.25"/>
</g>
<!-- Node2&#45;&gt;Node23 -->
<g id="edge42" class="edge">
<title>Node2&#45;&gt;Node23</title>
<path fill="none" stroke="midnightblue" d="M661.02,-404.09C706.77,-394.7 783.25,-378.99 834.03,-368.57"/>
<polygon fill="midnightblue" stroke="midnightblue" points="834.74,-372 843.83,-366.56 833.33,-365.14 834.74,-372"/>
</g>
<!-- Node35 -->
<g id="node35" class="node">
<title>Node35</title>
<g id="a_node35"><a xlink:href="Font_8hpp.html" target="_top" xlink:title=" ">
<polygon fill="white" stroke="black" points="488,-235.5 488,-254.5 547,-254.5 547,-235.5 488,-235.5"/>
<text text-anchor="middle" x="517.5" y="-242.5" font-family="Helvetica,sans-Serif" font-size="10.00">Font.hpp</text>
</a>
</g>
</g>
<!-- Node2&#45;&gt;Node35 -->
<g id="edge67" class="edge">
<title>Node2&#45;&gt;Node35</title>
<path fill="none" stroke="midnightblue" d="M616.85,-403.08C600.11,-376.61 550.52,-298.21 528.39,-263.21"/>
<polygon fill="midnightblue" stroke="midnightblue" points="531.22,-261.15 522.92,-254.57 525.31,-264.89 531.22,-261.15"/>
</g>
<!-- Node36 -->
<g id="node36" class="node">
<title>Node36</title>
<g id="a_node36"><a xlink:href="AssetCache_8hpp.html" target="_top" xlink:title=" ">
<polygon fill="white" stroke="black" points="732,-291.5 732,-310.5 827,-310.5 827,-291.5 732,-291.5"/>
<text text-anchor="middle" x="779.5" y="-298.5" font-family="Helvetica,sans-Serif" font-size="10.00">AssetCache.hpp</text>
</a>
</g>
</g>
<!-- Node2&#45;&gt;Node36 -->
<g id="edge73" class="edge">
<title>Node2&#45;&gt;Node36</title>
<path fill="none" stroke="midnightblue" d="M640.17,-403.48C656.99,-395.07 682.76,-381.41 703.5,-367 725.39,-351.79 748.37,-331.44 763.25,-317.59"/>
<polygon fill="midnightblue" stroke="midnightblue" points="765.75,-320.04 770.62,-310.63 760.95,-314.95 765.75,-320.04"/>
</g>
<!-- Node5 -->
<g id="node5" class="node">
<title>Node5</title>
<g id="a_node5"><a xlink:href="IComponent_8hpp.html" target="_top" xlink:title=" ">
<polygon fill="white" stroke="black" points="867,-179.5 867,-198.5 964,-198.5 964,-179.5 867,-179.5"/>
<text text-anchor="middle" x="915.5" y="-186.5" font-family="Helvetica,sans-Serif" font-size="10.00">IComponent.hpp</text>
</a>
</g>
</g>
<!-- Node4&#45;&gt;Node5 -->
<g id="edge4" class="edge">
<title>Node4&#45;&gt;Node5</title>
<path fill="none" stroke="midnightblue" d="M490.59,-347.5C541.31,-334.9 639.66,-310.64 723.5,-291 794.47,-274.38 826.25,-300.11 883.5,-255 898.14,-243.46 906.56,-223.5 911.05,-208.73"/>
<polygon fill="midnightblue" stroke="midnightblue" points="914.53,-209.24 913.75,-198.67 907.77,-207.42 914.53,-209.24"/>
</g>
<!-- Node11 -->
<g id="node11" class="node">
<title>Node11</title>
<g id="a_node11"><a xlink:href="Vector2_8hpp.html" target="_top" xlink:title=" ">
<polygon fill="white" stroke="black" points="196.5,-179.5 196.5,-198.5 270.5,-198.5 270.5,-179.5 196.5,-179.5"/>
<text text-anchor="middle" x="233.5" y="-186.5" font-family="Helvetica,sans-Serif" font-size="10.00">Vector2.hpp</text>
</a>
</g>
</g>
<!-- Node4&#45;&gt;Node11 -->
<g id="edge11" class="edge">
<title>Node4&#45;&gt;Node11</title>
<path fill="none" stroke="midnightblue" d="M421.95,-347.44C377.36,-334.67 300.22,-306.42 255.5,-255 244.15,-241.95 238.6,-222.79 235.92,-208.66"/>
<polygon fill="midnightblue" stroke="midnightblue" points="239.35,-207.94 234.33,-198.61 232.43,-209.03 239.35,-207.94"/>
</g>
<!-- Node16 -->
<g id="node16" class="node">
<title>Node16</title>
<g id="a_node16"><a xlink:href="Texture_8hpp.html" target="_top" xlink:title=" ">
<polygon fill="white" stroke="black" points="389.5,-291.5 389.5,-310.5 463.5,-310.5 463.5,-291.5 389.5,-291.5"/>
<text text-anchor="middle" x="426.5" y="-298.5" font-family="Helvetica,sans-Serif" font-size="10.00">Texture.hpp</text>
</a>
</g>
</g>
<!-- Node4&#45;&gt;Node16 -->
<g id="edge20" class="edge">
<title>Node4&#45;&gt;Node16</title>
<path fill="none" stroke="midnightblue" d="M451.55,-347.08C447.4,-339.61 441.35,-328.72 436.23,-319.52"/>
<polygon fill="midnightblue" stroke="midnightblue" points="439.28,-317.79 431.36,-310.75 433.16,-321.19 439.28,-317.79"/>
</g>
<!-- Node6 -->
<g id="node6" class="node">
<title>Node6</title>
<g id="a_node6"><a xlink:title=" ">
<polygon fill="white" stroke="#bfbfbf" points="671,-6 671,-25 728,-25 728,-6 671,-6"/>
<text text-anchor="middle" x="699.5" y="-13" font-family="Helvetica,sans-Serif" font-size="10.00">ostream</text>
</a>
</g>
</g>
<!-- Node5&#45;&gt;Node6 -->
<g id="edge5" class="edge">
<title>Node5&#45;&gt;Node6</title>
<path fill="none" stroke="midnightblue" d="M908.21,-179.49C896.94,-166.56 874.29,-141.53 852.5,-123 809.15,-86.15 753.18,-49.68 722.37,-30.45"/>
<polygon fill="midnightblue" stroke="midnightblue" points="724,-27.35 713.66,-25.06 720.32,-33.3 724,-27.35"/>
</g>
<!-- Node7 -->
<g id="node7" class="node">
<title>Node7</title>
<g id="a_node7"><a xlink:href="IXMLSerializable_8hpp.html" target="_top" xlink:title=" ">
<polygon fill="white" stroke="black" points="195,-67.5 195,-86.5 314,-86.5 314,-67.5 195,-67.5"/>
<text text-anchor="middle" x="254.5" y="-74.5" font-family="Helvetica,sans-Serif" font-size="10.00">IXMLSerializable.hpp</text>
</a>
</g>
</g>
<!-- Node5&#45;&gt;Node7 -->
<g id="edge6" class="edge">
<title>Node5&#45;&gt;Node7</title>
<path fill="none" stroke="midnightblue" d="M866.9,-179.91C748.75,-160.25 446.65,-109.98 316.11,-88.25"/>
<polygon fill="midnightblue" stroke="midnightblue" points="316.33,-84.74 305.89,-86.55 315.18,-91.65 316.33,-84.74"/>
</g>
<!-- Node7&#45;&gt;Node6 -->
<g id="edge7" class="edge">
<title>Node7&#45;&gt;Node6</title>
<path fill="none" stroke="midnightblue" d="M314.05,-68.04C406.57,-55.67 582.28,-32.17 660.38,-21.73"/>
<polygon fill="midnightblue" stroke="midnightblue" points="661.29,-25.14 670.74,-20.35 660.36,-18.2 661.29,-25.14"/>
</g>
<!-- Node8 -->
<g id="node8" class="node">
<title>Node8</title>
<g id="a_node8"><a xlink:title=" ">
<polygon fill="white" stroke="#bfbfbf" points="119.5,-6 119.5,-25 179.5,-25 179.5,-6 119.5,-6"/>
<text text-anchor="middle" x="149.5" y="-13" font-family="Helvetica,sans-Serif" font-size="10.00">iostream</text>
</a>
</g>
</g>
<!-- Node7&#45;&gt;Node8 -->
<g id="edge8" class="edge">
<title>Node7&#45;&gt;Node8</title>
<path fill="none" stroke="midnightblue" d="M239.46,-67.48C222.22,-57.71 193.76,-41.58 173.47,-30.08"/>
<polygon fill="midnightblue" stroke="midnightblue" points="174.94,-26.89 164.52,-25.01 171.49,-32.98 174.94,-26.89"/>
</g>
<!-- Node9 -->
<g id="node9" class="node">
<title>Node9</title>
<g id="a_node9"><a xlink:title=" ">
<polygon fill="white" stroke="#bfbfbf" points="198,-0.5 198,-30.5 311,-30.5 311,-0.5 198,-0.5"/>
<text text-anchor="start" x="206" y="-18.5" font-family="Helvetica,sans-Serif" font-size="10.00">boost/property_tree</text>
<text text-anchor="middle" x="254.5" y="-7.5" font-family="Helvetica,sans-Serif" font-size="10.00">/ptree.hpp</text>
</a>
</g>
</g>
<!-- Node7&#45;&gt;Node9 -->
<g id="edge9" class="edge">
<title>Node7&#45;&gt;Node9</title>
<path fill="none" stroke="midnightblue" d="M254.5,-67.48C254.5,-60.47 254.5,-50.19 254.5,-40.7"/>
<polygon fill="midnightblue" stroke="midnightblue" points="258,-40.52 254.5,-30.52 251,-40.52 258,-40.52"/>
</g>
<!-- Node10 -->
<g id="node10" class="node">
<title>Node10</title>
<g id="a_node10"><a xlink:title=" ">
<polygon fill="white" stroke="#bfbfbf" points="329,-0.5 329,-30.5 442,-30.5 442,-0.5 329,-0.5"/>
<text text-anchor="start" x="337" y="-18.5" font-family="Helvetica,sans-Serif" font-size="10.00">boost/property_tree</text>
<text text-anchor="middle" x="385.5" y="-7.5" font-family="Helvetica,sans-Serif" font-size="10.00">/xml_parser.hpp</text>
</a>
</g>
</g>
<!-- Node7&#45;&gt;Node10 -->
<g id="edge10" class="edge">
<title>Node7&#45;&gt;Node10</title>
<path fill="none" stroke="midnightblue" d="M273.27,-67.48C292.01,-58.96 321.39,-45.62 345.39,-34.72"/>
<polygon fill="midnightblue" stroke="midnightblue" points="346.97,-37.85 354.63,-30.52 344.07,-31.47 346.97,-37.85"/>
</g>
<!-- Node11&#45;&gt;Node7 -->
<g id="edge19" class="edge">
<title>Node11&#45;&gt;Node7</title>
<path fill="none" stroke="midnightblue" d="M235.15,-179.37C238.54,-161.62 246.35,-120.67 250.95,-96.6"/>
<polygon fill="midnightblue" stroke="midnightblue" points="254.42,-97.07 252.86,-86.59 247.55,-95.76 254.42,-97.07"/>
</g>
<!-- Node12 -->
<g id="node12" class="node">
<title>Node12</title>
<g id="a_node12"><a xlink:title=" ">
<polygon fill="white" stroke="#bfbfbf" points="337,-67.5 337,-86.5 390,-86.5 390,-67.5 337,-67.5"/>
<text text-anchor="middle" x="363.5" y="-74.5" font-family="Helvetica,sans-Serif" font-size="10.00">raylib.h</text>
</a>
</g>
</g>
<!-- Node11&#45;&gt;Node12 -->
<g id="edge12" class="edge">
<title>Node11&#45;&gt;Node12</title>
<path fill="none" stroke="midnightblue" d="M243.7,-179.37C265.72,-160.73 317.96,-116.53 345.61,-93.13"/>
<polygon fill="midnightblue" stroke="midnightblue" points="347.97,-95.72 353.35,-86.59 343.45,-90.38 347.97,-95.72"/>
</g>
<!-- Node13 -->
<g id="node13" class="node">
<title>Node13</title>
<g id="a_node13"><a xlink:title=" ">
<polygon fill="white" stroke="#bfbfbf" points="31,-67.5 31,-86.5 78,-86.5 78,-67.5 31,-67.5"/>
<text text-anchor="middle" x="54.5" y="-74.5" font-family="Helvetica,sans-Serif" font-size="10.00">cmath</text>
</a>
</g>
</g>
<!-- Node11&#45;&gt;Node13 -->
<g id="edge13" class="edge">
<title>Node11&#45;&gt;Node13</title>
<path fill="none" stroke="midnightblue" d="M196.26,-181.82C154.63,-174.19 90.78,-160.1 73.5,-143 61.37,-130.99 56.89,-111.7 55.28,-97.24"/>
<polygon fill="midnightblue" stroke="midnightblue" points="58.74,-96.64 54.51,-86.92 51.76,-97.15 58.74,-96.64"/>
</g>
<!-- Node14 -->
<g id="node14" class="node">
<title>Node14</title>
<g id="a_node14"><a xlink:href="Vector3_8hpp.html" target="_top" xlink:title=" ">
<polygon fill="white" stroke="black" points="82.5,-123.5 82.5,-142.5 156.5,-142.5 156.5,-123.5 82.5,-123.5"/>
<text text-anchor="middle" x="119.5" y="-130.5" font-family="Helvetica,sans-Serif" font-size="10.00">Vector3.hpp</text>
</a>
</g>
</g>
<!-- Node11&#45;&gt;Node14 -->
<g id="edge14" class="edge">
<title>Node11&#45;&gt;Node14</title>
<path fill="none" stroke="midnightblue" d="M215.44,-179.44C196.93,-170.68 167.92,-156.94 146.64,-146.86"/>
<polygon fill="midnightblue" stroke="midnightblue" points="148.01,-143.63 137.48,-142.52 145.02,-149.96 148.01,-143.63"/>
</g>
<!-- Node14&#45;&gt;Node7 -->
<g id="edge16" class="edge">
<title>Node14&#45;&gt;Node7</title>
<path fill="none" stroke="midnightblue" d="M140.89,-123.44C163.21,-114.52 198.4,-100.44 223.71,-90.32"/>
<polygon fill="midnightblue" stroke="midnightblue" points="225.22,-93.48 233.21,-86.52 222.62,-86.98 225.22,-93.48"/>
</g>
<!-- Node14&#45;&gt;Node12 -->
<g id="edge15" class="edge">
<title>Node14&#45;&gt;Node12</title>
<path fill="none" stroke="midnightblue" d="M156.74,-123.84C197.64,-114.86 265.27,-99.97 323.5,-87 324.58,-86.76 325.67,-86.52 326.77,-86.27"/>
<polygon fill="midnightblue" stroke="midnightblue" points="327.83,-89.62 336.82,-84.02 326.3,-82.79 327.83,-89.62"/>
</g>
<!-- Node14&#45;&gt;Node13 -->
<g id="edge17" class="edge">
<title>Node14&#45;&gt;Node13</title>
<path fill="none" stroke="midnightblue" d="M109.06,-123.32C99.35,-115.26 84.68,-103.08 73,-93.37"/>
<polygon fill="midnightblue" stroke="midnightblue" points="75.06,-90.53 65.13,-86.83 70.59,-95.92 75.06,-90.53"/>
</g>
<!-- Node15 -->
<g id="node15" class="node">
<title>Node15</title>
<g id="a_node15"><a xlink:title=" ">
<polygon fill="white" stroke="#bfbfbf" points="96.5,-67.5 96.5,-86.5 152.5,-86.5 152.5,-67.5 96.5,-67.5"/>
<text text-anchor="middle" x="124.5" y="-74.5" font-family="Helvetica,sans-Serif" font-size="10.00">sstream</text>
</a>
</g>
</g>
<!-- Node14&#45;&gt;Node15 -->
<g id="edge18" class="edge">
<title>Node14&#45;&gt;Node15</title>
<path fill="none" stroke="midnightblue" d="M120.33,-123.08C120.98,-116.01 121.92,-105.86 122.74,-96.99"/>
<polygon fill="midnightblue" stroke="midnightblue" points="126.25,-97.03 123.69,-86.75 119.28,-96.39 126.25,-97.03"/>
</g>
<!-- Node16&#45;&gt;Node3 -->
<g id="edge22" class="edge">
<title>Node16&#45;&gt;Node3</title>
<path fill="none" stroke="midnightblue" d="M463.51,-292.22C494.41,-284.94 539.11,-272.54 575.5,-255 603.92,-241.3 633.29,-219.55 651.48,-205.03"/>
<polygon fill="midnightblue" stroke="midnightblue" points="653.9,-207.57 659.45,-198.55 649.48,-202.14 653.9,-207.57"/>
</g>
<!-- Node16&#45;&gt;Node11 -->
<g id="edge31" class="edge">
<title>Node16&#45;&gt;Node11</title>
<path fill="none" stroke="midnightblue" d="M389.39,-295.47C357.73,-290.1 312.27,-278.69 279.5,-255 262.57,-242.76 249.6,-222.32 241.81,-207.63"/>
<polygon fill="midnightblue" stroke="midnightblue" points="244.87,-205.92 237.26,-198.54 238.61,-209.05 244.87,-205.92"/>
</g>
<!-- Node16&#45;&gt;Node12 -->
<g id="edge21" class="edge">
<title>Node16&#45;&gt;Node12</title>
<path fill="none" stroke="midnightblue" d="M463.62,-298.84C562.21,-295.38 824.82,-283.55 850.5,-255 856.44,-248.39 852.72,-243.61 850.5,-235 843.38,-207.46 842.29,-196.03 819.5,-179 752.35,-128.83 496.24,-93.82 400.18,-82.21"/>
<polygon fill="midnightblue" stroke="midnightblue" points="400.42,-78.71 390.07,-81 399.59,-85.66 400.42,-78.71"/>
</g>
<!-- Node17 -->
<g id="node17" class="node">
<title>Node17</title>
<g id="a_node17"><a xlink:href="Image_8hpp.html" target="_top" xlink:title=" ">
<polygon fill="white" stroke="black" points="297.5,-235.5 297.5,-254.5 365.5,-254.5 365.5,-235.5 297.5,-235.5"/>
<text text-anchor="middle" x="331.5" y="-242.5" font-family="Helvetica,sans-Serif" font-size="10.00">Image.hpp</text>
</a>
</g>
</g>
<!-- Node16&#45;&gt;Node17 -->
<g id="edge23" class="edge">
<title>Node16&#45;&gt;Node17</title>
<path fill="none" stroke="midnightblue" d="M411.24,-291.32C396.28,-282.82 373.25,-269.73 355.77,-259.8"/>
<polygon fill="midnightblue" stroke="midnightblue" points="357.15,-256.55 346.73,-254.65 353.69,-262.64 357.15,-256.55"/>
</g>
<!-- Node16&#45;&gt;Node18 -->
<g id="edge30" class="edge">
<title>Node16&#45;&gt;Node18</title>
<path fill="none" stroke="midnightblue" d="M389.41,-299.25C356.9,-296.38 311.37,-286.51 288.5,-255 276.77,-238.84 292.56,-218.83 307.21,-205.31"/>
<polygon fill="midnightblue" stroke="midnightblue" points="309.77,-207.73 315.05,-198.54 305.19,-202.43 309.77,-207.73"/>
</g>
<!-- Node19 -->
<g id="node19" class="node">
<title>Node19</title>
<g id="a_node19"><a xlink:href="Camera3D_8hpp.html" target="_top" xlink:title=" ">
<polygon fill="white" stroke="black" points="0,-235.5 0,-254.5 89,-254.5 89,-235.5 0,-235.5"/>
<text text-anchor="middle" x="44.5" y="-242.5" font-family="Helvetica,sans-Serif" font-size="10.00">Camera3D.hpp</text>
</a>
</g>
</g>
<!-- Node16&#45;&gt;Node19 -->
<g id="edge32" class="edge">
<title>Node16&#45;&gt;Node19</title>
<path fill="none" stroke="midnightblue" d="M389.18,-294.72C321.53,-285.16 178.39,-264.93 99.52,-253.78"/>
<polygon fill="midnightblue" stroke="midnightblue" points="99.68,-250.27 89.29,-252.33 98.7,-257.2 99.68,-250.27"/>
</g>
<!-- Node21 -->
<g id="node21" class="node">
<title>Node21</title>
<g id="a_node21"><a xlink:href="Rectangle_8hpp.html" target="_top" xlink:title=" ">
<polygon fill="white" stroke="black" points="383.5,-235.5 383.5,-254.5 469.5,-254.5 469.5,-235.5 383.5,-235.5"/>
<text text-anchor="middle" x="426.5" y="-242.5" font-family="Helvetica,sans-Serif" font-size="10.00">Rectangle.hpp</text>
</a>
</g>
</g>
<!-- Node16&#45;&gt;Node21 -->
<g id="edge38" class="edge">
<title>Node16&#45;&gt;Node21</title>
<path fill="none" stroke="midnightblue" d="M426.5,-291.08C426.5,-284.01 426.5,-273.86 426.5,-264.99"/>
<polygon fill="midnightblue" stroke="midnightblue" points="430,-264.75 426.5,-254.75 423,-264.75 430,-264.75"/>
</g>
<!-- Node22 -->
<g id="node22" class="node">
<title>Node22</title>
<g id="a_node22"><a xlink:href="IAsset_8hpp.html" target="_top" xlink:title=" ">
<polygon fill="white" stroke="black" points="541.5,-179.5 541.5,-198.5 609.5,-198.5 609.5,-179.5 541.5,-179.5"/>
<text text-anchor="middle" x="575.5" y="-186.5" font-family="Helvetica,sans-Serif" font-size="10.00">IAsset.hpp</text>
</a>
</g>
</g>
<!-- Node16&#45;&gt;Node22 -->
<g id="edge41" class="edge">
<title>Node16&#45;&gt;Node22</title>
<path fill="none" stroke="midnightblue" d="M463.67,-296.35C492.75,-291.56 532.21,-280.51 556.5,-255 568.27,-242.64 572.8,-223.39 574.52,-209.04"/>
<polygon fill="midnightblue" stroke="midnightblue" points="578.03,-209.07 575.38,-198.82 571.05,-208.49 578.03,-209.07"/>
</g>
<!-- Node17&#45;&gt;Node3 -->
<g id="edge24" class="edge">
<title>Node17&#45;&gt;Node3</title>
<path fill="none" stroke="midnightblue" d="M365.73,-236.64C368.69,-236.06 371.65,-235.51 374.5,-235 482.42,-215.76 510.29,-216.53 618.5,-199 624.58,-198.01 631.07,-196.91 637.3,-195.82"/>
<polygon fill="midnightblue" stroke="midnightblue" points="638.19,-199.22 647.43,-194.03 636.98,-192.33 638.19,-199.22"/>
</g>
<!-- Node17&#45;&gt;Node11 -->
<g id="edge29" class="edge">
<title>Node17&#45;&gt;Node11</title>
<path fill="none" stroke="midnightblue" d="M315.75,-235.32C300.18,-226.74 276.12,-213.49 258.04,-203.52"/>
<polygon fill="midnightblue" stroke="midnightblue" points="259.65,-200.42 249.21,-198.65 256.28,-206.55 259.65,-200.42"/>
</g>
<!-- Node17&#45;&gt;Node12 -->
<g id="edge25" class="edge">
<title>Node17&#45;&gt;Node12</title>
<path fill="none" stroke="midnightblue" d="M341.06,-235.45C349.59,-227.12 361.49,-213.6 366.5,-199 378.39,-164.34 372.69,-120.75 367.85,-96.49"/>
<polygon fill="midnightblue" stroke="midnightblue" points="371.23,-95.55 365.68,-86.52 364.38,-97.04 371.23,-95.55"/>
</g>
<!-- Node17&#45;&gt;Node18 -->
<g id="edge26" class="edge">
<title>Node17&#45;&gt;Node18</title>
<path fill="none" stroke="midnightblue" d="M330.67,-235.08C330.02,-228.01 329.08,-217.86 328.26,-208.99"/>
<polygon fill="midnightblue" stroke="midnightblue" points="331.72,-208.39 327.31,-198.75 324.75,-209.03 331.72,-208.39"/>
</g>
<!-- Node18&#45;&gt;Node12 -->
<g id="edge27" class="edge">
<title>Node18&#45;&gt;Node12</title>
<path fill="none" stroke="midnightblue" d="M329.4,-179.37C335.4,-161.54 349.27,-120.3 357.35,-96.27"/>
<polygon fill="midnightblue" stroke="midnightblue" points="360.74,-97.19 360.61,-86.59 354.1,-94.95 360.74,-97.19"/>
</g>
<!-- Node18&#45;&gt;Node14 -->
<g id="edge28" class="edge">
<title>Node18&#45;&gt;Node14</title>
<path fill="none" stroke="midnightblue" d="M295.06,-179.8C259.58,-170.54 201.68,-155.44 162.14,-145.12"/>
<polygon fill="midnightblue" stroke="midnightblue" points="162.82,-141.68 152.26,-142.55 161.05,-148.46 162.82,-141.68"/>
</g>
<!-- Node19&#45;&gt;Node11 -->
<g id="edge34" class="edge">
<title>Node19&#45;&gt;Node11</title>
<path fill="none" stroke="midnightblue" d="M74.45,-235.44C106.66,-226.24 158.03,-211.56 193.64,-201.39"/>
<polygon fill="midnightblue" stroke="midnightblue" points="195.04,-204.63 203.69,-198.52 193.12,-197.9 195.04,-204.63"/>
</g>
<!-- Node19&#45;&gt;Node12 -->
<g id="edge33" class="edge">
<title>Node19&#45;&gt;Node12</title>
<path fill="none" stroke="midnightblue" d="M65.03,-235.35C85.41,-226.62 117.43,-212.54 144.5,-199 154.28,-194.11 284.15,-122.06 339.16,-91.52"/>
<polygon fill="midnightblue" stroke="midnightblue" points="340.87,-94.57 347.91,-86.66 337.47,-88.45 340.87,-94.57"/>
</g>
<!-- Node19&#45;&gt;Node14 -->
<g id="edge35" class="edge">
<title>Node19&#45;&gt;Node14</title>
<path fill="none" stroke="midnightblue" d="M46.79,-235.43C50.53,-222.42 58.84,-197.28 71.5,-179 79.35,-167.67 90.46,-157.02 100.02,-148.93"/>
<polygon fill="midnightblue" stroke="midnightblue" points="102.34,-151.55 107.89,-142.53 97.93,-146.12 102.34,-151.55"/>
</g>
<!-- Node20 -->
<g id="node20" class="node">
<title>Node20</title>
<g id="a_node20"><a xlink:href="Ray_8hpp.html" target="_top" xlink:title=" ">
<polygon fill="white" stroke="black" points="81,-179.5 81,-198.5 136,-198.5 136,-179.5 81,-179.5"/>
<text text-anchor="middle" x="108.5" y="-186.5" font-family="Helvetica,sans-Serif" font-size="10.00">Ray.hpp</text>
</a>
</g>
</g>
<!-- Node19&#45;&gt;Node20 -->
<g id="edge36" class="edge">
<title>Node19&#45;&gt;Node20</title>
<path fill="none" stroke="midnightblue" d="M54.78,-235.32C64.34,-227.26 78.78,-215.08 90.28,-205.37"/>
<polygon fill="midnightblue" stroke="midnightblue" points="92.64,-207.96 98.03,-198.83 88.13,-202.61 92.64,-207.96"/>
</g>
<!-- Node20&#45;&gt;Node14 -->
<g id="edge37" class="edge">
<title>Node20&#45;&gt;Node14</title>
<path fill="none" stroke="midnightblue" d="M110.32,-179.08C111.77,-171.93 113.87,-161.64 115.69,-152.69"/>
<polygon fill="midnightblue" stroke="midnightblue" points="119.15,-153.25 117.72,-142.75 112.29,-151.85 119.15,-153.25"/>
</g>
<!-- Node21&#45;&gt;Node12 -->
<g id="edge39" class="edge">
<title>Node21&#45;&gt;Node12</title>
<path fill="none" stroke="midnightblue" d="M424.13,-235.33C418.53,-215.22 403.65,-164.03 386.5,-123 382.65,-113.79 377.68,-103.88 373.35,-95.71"/>
<polygon fill="midnightblue" stroke="midnightblue" points="376.34,-93.89 368.49,-86.77 370.19,-97.23 376.34,-93.89"/>
</g>
<!-- Node21&#45;&gt;Node18 -->
<g id="edge40" class="edge">
<title>Node21&#45;&gt;Node18</title>
<path fill="none" stroke="midnightblue" d="M410.43,-235.32C394.54,-226.74 369.99,-213.49 351.54,-203.52"/>
<polygon fill="midnightblue" stroke="midnightblue" points="352.99,-200.33 342.53,-198.65 349.66,-206.49 352.99,-200.33"/>
</g>
<!-- Node23&#45;&gt;Node5 -->
<g id="edge43" class="edge">
<title>Node23&#45;&gt;Node5</title>
<path fill="none" stroke="midnightblue" d="M889.73,-347.36C897.85,-330.24 915.35,-290.59 921.5,-255 923.01,-246.24 922.09,-243.87 921.5,-235 920.93,-226.34 919.73,-216.81 918.56,-208.75"/>
<polygon fill="midnightblue" stroke="midnightblue" points="921.98,-207.94 916.99,-198.59 915.06,-209.01 921.98,-207.94"/>
</g>
<!-- Node24 -->
<g id="node24" class="node">
<title>Node24</title>
<g id="a_node24"><a xlink:href="Entity_8hpp.html" target="_top" xlink:title=" ">
<polygon fill="white" stroke="black" points="1241,-291.5 1241,-310.5 1306,-310.5 1306,-291.5 1241,-291.5"/>
<text text-anchor="middle" x="1273.5" y="-298.5" font-family="Helvetica,sans-Serif" font-size="10.00">Entity.hpp</text>
</a>
</g>
</g>
<!-- Node23&#45;&gt;Node24 -->
<g id="edge44" class="edge">
<title>Node23&#45;&gt;Node24</title>
<path fill="none" stroke="midnightblue" d="M930.01,-349.81C1005.23,-339.34 1156.55,-318.28 1230.64,-307.96"/>
<polygon fill="midnightblue" stroke="midnightblue" points="1231.57,-311.37 1241,-306.52 1230.61,-304.44 1231.57,-311.37"/>
</g>
<!-- Node24&#45;&gt;Node5 -->
<g id="edge65" class="edge">
<title>Node24&#45;&gt;Node5</title>
<path fill="none" stroke="midnightblue" d="M1240.87,-294.7C1200.18,-287.65 1128.77,-273.87 1069.5,-255 1023.59,-240.38 972.45,-217.38 942.18,-203.03"/>
<polygon fill="midnightblue" stroke="midnightblue" points="943.65,-199.85 933.12,-198.69 940.63,-206.16 943.65,-199.85"/>
</g>
<!-- Node25 -->
<g id="node25" class="node">
<title>Node25</title>
<g id="a_node25"><a xlink:title=" ">
<polygon fill="white" stroke="#bfbfbf" points="1417.5,-179.5 1417.5,-198.5 1479.5,-198.5 1479.5,-179.5 1417.5,-179.5"/>
<text text-anchor="middle" x="1448.5" y="-186.5" font-family="Helvetica,sans-Serif" font-size="10.00">cinttypes</text>
</a>
</g>
</g>
<!-- Node24&#45;&gt;Node25 -->
<g id="edge45" class="edge">
<title>Node24&#45;&gt;Node25</title>
<path fill="none" stroke="midnightblue" d="M1293.64,-291.44C1312.5,-283.1 1341.19,-269.58 1364.5,-255 1388.73,-239.85 1414.41,-219.22 1430.9,-205.3"/>
<polygon fill="midnightblue" stroke="midnightblue" points="1433.3,-207.85 1438.63,-198.69 1428.76,-202.53 1433.3,-207.85"/>
</g>
<!-- Node26 -->
<g id="node26" class="node">
<title>Node26</title>
<g id="a_node26"><a xlink:title=" ">
<polygon fill="white" stroke="#bfbfbf" points="1148,-179.5 1148,-198.5 1241,-198.5 1241,-179.5 1148,-179.5"/>
<text text-anchor="middle" x="1194.5" y="-186.5" font-family="Helvetica,sans-Serif" font-size="10.00">unordered_map</text>
</a>
</g>
</g>
<!-- Node24&#45;&gt;Node26 -->
<g id="edge46" class="edge">
<title>Node24&#45;&gt;Node26</title>
<path fill="none" stroke="midnightblue" d="M1269.13,-291.23C1262.56,-278.39 1249.44,-253.96 1235.5,-235 1228,-224.8 1218.55,-214.3 1210.61,-206.01"/>
<polygon fill="midnightblue" stroke="midnightblue" points="1213.07,-203.52 1203.58,-198.82 1208.07,-208.42 1213.07,-203.52"/>
</g>
<!-- Node27 -->
<g id="node27" class="node">
<title>Node27</title>
<g id="a_node27"><a xlink:title=" ">
<polygon fill="white" stroke="#bfbfbf" points="1341.5,-179.5 1341.5,-198.5 1399.5,-198.5 1399.5,-179.5 1341.5,-179.5"/>
<text text-anchor="middle" x="1370.5" y="-186.5" font-family="Helvetica,sans-Serif" font-size="10.00">memory</text>
</a>
</g>
</g>
<!-- Node24&#45;&gt;Node27 -->
<g id="edge47" class="edge">
<title>Node24&#45;&gt;Node27</title>
<path fill="none" stroke="midnightblue" d="M1293.7,-291.45C1309.42,-283.89 1330.79,-271.5 1344.5,-255 1355.65,-241.57 1362.48,-222.76 1366.32,-208.82"/>
<polygon fill="midnightblue" stroke="midnightblue" points="1369.77,-209.44 1368.78,-198.89 1362.97,-207.75 1369.77,-209.44"/>
</g>
<!-- Node28 -->
<g id="node28" class="node">
<title>Node28</title>
<g id="a_node28"><a xlink:title=" ">
<polygon fill="white" stroke="#bfbfbf" points="1259.5,-179.5 1259.5,-198.5 1323.5,-198.5 1323.5,-179.5 1259.5,-179.5"/>
<text text-anchor="middle" x="1291.5" y="-186.5" font-family="Helvetica,sans-Serif" font-size="10.00">algorithm</text>
</a>
</g>
</g>
<!-- Node24&#45;&gt;Node28 -->
<g id="edge48" class="edge">
<title>Node24&#45;&gt;Node28</title>
<path fill="none" stroke="midnightblue" d="M1274.91,-291.37C1277.82,-273.62 1284.52,-232.67 1288.46,-208.6"/>
<polygon fill="midnightblue" stroke="midnightblue" points="1291.93,-209.03 1290.09,-198.59 1285.03,-207.89 1291.93,-209.03"/>
</g>
<!-- Node29 -->
<g id="node29" class="node">
<title>Node29</title>
<g id="a_node29"><a xlink:title=" ">
<polygon fill="white" stroke="#bfbfbf" points="1548,-179.5 1548,-198.5 1595,-198.5 1595,-179.5 1548,-179.5"/>
<text text-anchor="middle" x="1571.5" y="-186.5" font-family="Helvetica,sans-Serif" font-size="10.00">vector</text>
</a>
</g>
</g>
<!-- Node24&#45;&gt;Node29 -->
<g id="edge49" class="edge">
<title>Node24&#45;&gt;Node29</title>
<path fill="none" stroke="midnightblue" d="M1306.2,-298.93C1371.6,-296.13 1515.36,-286.46 1551.5,-255 1564.7,-243.51 1569.32,-223.53 1570.87,-208.75"/>
<polygon fill="midnightblue" stroke="midnightblue" points="1574.37,-208.9 1571.55,-198.69 1567.38,-208.43 1574.37,-208.9"/>
</g>
<!-- Node30 -->
<g id="node30" class="node">
<title>Node30</title>
<g id="a_node30"><a xlink:title=" ">
<polygon fill="white" stroke="#bfbfbf" points="1039,-179.5 1039,-198.5 1130,-198.5 1130,-179.5 1039,-179.5"/>
<text text-anchor="middle" x="1084.5" y="-186.5" font-family="Helvetica,sans-Serif" font-size="10.00">Exceptions.hpp</text>
</a>
</g>
</g>
<!-- Node24&#45;&gt;Node30 -->
<g id="edge50" class="edge">
<title>Node24&#45;&gt;Node30</title>
<path fill="none" stroke="midnightblue" d="M1240.72,-297.14C1191.2,-292.06 1101.01,-279.62 1081.5,-255 1071.21,-242.02 1073.69,-222.59 1077.69,-208.35"/>
<polygon fill="midnightblue" stroke="midnightblue" points="1081.07,-209.26 1080.86,-198.67 1074.42,-207.08 1081.07,-209.26"/>
</g>
<!-- Node31 -->
<g id="node31" class="node">
<title>Node31</title>
<g id="a_node31"><a xlink:href="ComponentManager_8hpp.html" target="_top" xlink:title=" ">
<polygon fill="white" stroke="black" points="1090.5,-235.5 1090.5,-254.5 1226.5,-254.5 1226.5,-235.5 1090.5,-235.5"/>
<text text-anchor="middle" x="1158.5" y="-242.5" font-family="Helvetica,sans-Serif" font-size="10.00">ComponentManager.hpp</text>
</a>
</g>
</g>
<!-- Node24&#45;&gt;Node31 -->
<g id="edge51" class="edge">
<title>Node24&#45;&gt;Node31</title>
<path fill="none" stroke="midnightblue" d="M1255.28,-291.44C1236.6,-282.68 1207.34,-268.94 1185.88,-258.86"/>
<polygon fill="midnightblue" stroke="midnightblue" points="1187.18,-255.6 1176.64,-254.52 1184.2,-261.93 1187.18,-255.6"/>
</g>
<!-- Node33 -->
<g id="node33" class="node">
<title>Node33</title>
<g id="a_node33"><a xlink:href="EntityManager_8hpp.html" target="_top" xlink:title=" ">
<polygon fill="white" stroke="black" points="1434.5,-235.5 1434.5,-254.5 1542.5,-254.5 1542.5,-235.5 1434.5,-235.5"/>
<text text-anchor="middle" x="1488.5" y="-242.5" font-family="Helvetica,sans-Serif" font-size="10.00">EntityManager.hpp</text>
</a>
</g>
</g>
<!-- Node24&#45;&gt;Node33 -->
<g id="edge60" class="edge">
<title>Node24&#45;&gt;Node33</title>
<path fill="none" stroke="midnightblue" d="M1306.15,-291.8C1343.16,-282.5 1403.66,-267.31 1444.73,-256.99"/>
<polygon fill="midnightblue" stroke="midnightblue" points="1445.63,-260.38 1454.47,-254.55 1443.92,-253.59 1445.63,-260.38"/>
</g>
<!-- Node31&#45;&gt;Node3 -->
<g id="edge53" class="edge">
<title>Node31&#45;&gt;Node3</title>
<path fill="none" stroke="midnightblue" d="M1090.46,-237.32C1007,-229 861.22,-214.02 736.5,-199 725.11,-197.63 712.65,-195.99 701.59,-194.49"/>
<polygon fill="midnightblue" stroke="midnightblue" points="701.89,-191 691.51,-193.11 700.94,-197.94 701.89,-191"/>
</g>
<!-- Node31&#45;&gt;Node5 -->
<g id="edge58" class="edge">
<title>Node31&#45;&gt;Node5</title>
<path fill="none" stroke="midnightblue" d="M1120,-235.44C1077.69,-226.04 1009.68,-210.93 963.83,-200.74"/>
<polygon fill="midnightblue" stroke="midnightblue" points="964.35,-197.27 953.82,-198.52 962.83,-204.1 964.35,-197.27"/>
</g>
<!-- Node31&#45;&gt;Node26 -->
<g id="edge52" class="edge">
<title>Node31&#45;&gt;Node26</title>
<path fill="none" stroke="midnightblue" d="M1164.44,-235.08C1169.48,-227.53 1176.84,-216.49 1183.01,-207.23"/>
<polygon fill="midnightblue" stroke="midnightblue" points="1186.03,-209.01 1188.67,-198.75 1180.21,-205.13 1186.03,-209.01"/>
</g>
<!-- Node31&#45;&gt;Node27 -->
<g id="edge55" class="edge">
<title>Node31&#45;&gt;Node27</title>
<path fill="none" stroke="midnightblue" d="M1192.09,-235.44C1230.01,-225.79 1291.59,-210.1 1331.57,-199.92"/>
<polygon fill="midnightblue" stroke="midnightblue" points="1332.67,-203.25 1341.49,-197.39 1330.94,-196.47 1332.67,-203.25"/>
</g>
<!-- Node31&#45;&gt;Node28 -->
<g id="edge56" class="edge">
<title>Node31&#45;&gt;Node28</title>
<path fill="none" stroke="midnightblue" d="M1179.57,-235.44C1201.56,-226.52 1236.23,-212.44 1261.16,-202.32"/>
<polygon fill="midnightblue" stroke="midnightblue" points="1262.58,-205.52 1270.52,-198.52 1259.94,-199.04 1262.58,-205.52"/>
</g>
<!-- Node31&#45;&gt;Node29 -->
<g id="edge54" class="edge">
<title>Node31&#45;&gt;Node29</title>
<path fill="none" stroke="midnightblue" d="M1226.58,-239C1300.83,-232.86 1423.24,-220.73 1537.81,-198.85"/>
<polygon fill="midnightblue" stroke="midnightblue" points="1538.66,-202.25 1547.81,-196.91 1537.32,-195.38 1538.66,-202.25"/>
</g>
<!-- Node31&#45;&gt;Node30 -->
<g id="edge57" class="edge">
<title>Node31&#45;&gt;Node30</title>
<path fill="none" stroke="midnightblue" d="M1146.61,-235.32C1135.35,-227.11 1118.21,-214.6 1104.79,-204.81"/>
<polygon fill="midnightblue" stroke="midnightblue" points="1106.75,-201.9 1096.61,-198.83 1102.62,-207.56 1106.75,-201.9"/>
</g>
<!-- Node32 -->
<g id="node32" class="node">
<title>Node32</title>
<g id="a_node32"><a xlink:title=" ">
<polygon fill="white" stroke="#bfbfbf" points="982.5,-179.5 982.5,-198.5 1020.5,-198.5 1020.5,-179.5 982.5,-179.5"/>
<text text-anchor="middle" x="1001.5" y="-186.5" font-family="Helvetica,sans-Serif" font-size="10.00">map</text>
</a>
</g>
</g>
<!-- Node31&#45;&gt;Node32 -->
<g id="edge59" class="edge">
<title>Node31&#45;&gt;Node32</title>
<path fill="none" stroke="midnightblue" d="M1133.62,-235.44C1105.62,-225.81 1060.19,-210.19 1030.58,-200"/>
<polygon fill="midnightblue" stroke="midnightblue" points="1031.41,-196.59 1020.82,-196.64 1029.13,-203.21 1031.41,-196.59"/>
</g>
<!-- Node33&#45;&gt;Node25 -->
<g id="edge62" class="edge">
<title>Node33&#45;&gt;Node25</title>
<path fill="none" stroke="midnightblue" d="M1481.89,-235.08C1476.24,-227.46 1467.96,-216.26 1461.05,-206.94"/>
<polygon fill="midnightblue" stroke="midnightblue" points="1463.75,-204.7 1454.98,-198.75 1458.12,-208.87 1463.75,-204.7"/>
</g>
<!-- Node33&#45;&gt;Node27 -->
<g id="edge63" class="edge">
<title>Node33&#45;&gt;Node27</title>
<path fill="none" stroke="midnightblue" d="M1469.8,-235.44C1450.56,-226.64 1420.35,-212.81 1398.3,-202.72"/>
<polygon fill="midnightblue" stroke="midnightblue" points="1399.66,-199.5 1389.11,-198.52 1396.75,-205.86 1399.66,-199.5"/>
</g>
<!-- Node33&#45;&gt;Node29 -->
<g id="edge61" class="edge">
<title>Node33&#45;&gt;Node29</title>
<path fill="none" stroke="midnightblue" d="M1501.84,-235.32C1514.66,-226.98 1534.28,-214.21 1549.44,-204.35"/>
<polygon fill="midnightblue" stroke="midnightblue" points="1551.72,-207.04 1558.2,-198.65 1547.91,-201.17 1551.72,-207.04"/>
</g>
<!-- Node34 -->
<g id="node34" class="node">
<title>Node34</title>
<g id="a_node34"><a xlink:title=" ">
<polygon fill="white" stroke="#bfbfbf" points="1497.5,-179.5 1497.5,-198.5 1529.5,-198.5 1529.5,-179.5 1497.5,-179.5"/>
<text text-anchor="middle" x="1513.5" y="-186.5" font-family="Helvetica,sans-Serif" font-size="10.00">list</text>
</a>
</g>
</g>
<!-- Node33&#45;&gt;Node34 -->
<g id="edge64" class="edge">
<title>Node33&#45;&gt;Node34</title>
<path fill="none" stroke="midnightblue" d="M1492.63,-235.08C1496.01,-227.77 1500.92,-217.18 1505.12,-208.1"/>
<polygon fill="midnightblue" stroke="midnightblue" points="1508.42,-209.3 1509.45,-198.75 1502.07,-206.36 1508.42,-209.3"/>
</g>
<!-- Node35&#45;&gt;Node3 -->
<g id="edge69" class="edge">
<title>Node35&#45;&gt;Node3</title>
<path fill="none" stroke="midnightblue" d="M541.58,-235.44C567.49,-226.24 608.82,-211.56 637.46,-201.38"/>
<polygon fill="midnightblue" stroke="midnightblue" points="638.76,-204.63 647.01,-197.99 636.42,-198.04 638.76,-204.63"/>
</g>
<!-- Node35&#45;&gt;Node11 -->
<g id="edge70" class="edge">
<title>Node35&#45;&gt;Node11</title>
<path fill="none" stroke="midnightblue" d="M487.72,-236.98C484.61,-236.29 481.49,-235.62 478.5,-235 409.91,-220.79 330.03,-206.55 280.61,-198"/>
<polygon fill="midnightblue" stroke="midnightblue" points="280.99,-194.52 270.54,-196.27 279.8,-201.41 280.99,-194.52"/>
</g>
<!-- Node35&#45;&gt;Node12 -->
<g id="edge68" class="edge">
<title>Node35&#45;&gt;Node12</title>
<path fill="none" stroke="midnightblue" d="M509.22,-235.08C484.45,-208.38 410.69,-128.87 378.64,-94.32"/>
<polygon fill="midnightblue" stroke="midnightblue" points="380.82,-91.52 371.45,-86.57 375.68,-96.28 380.82,-91.52"/>
</g>
<!-- Node35&#45;&gt;Node18 -->
<g id="edge71" class="edge">
<title>Node35&#45;&gt;Node18</title>
<path fill="none" stroke="midnightblue" d="M487.66,-235.56C455.05,-226.34 402.65,-211.53 366.5,-201.31"/>
<polygon fill="midnightblue" stroke="midnightblue" points="367.34,-197.91 356.76,-198.56 365.44,-204.65 367.34,-197.91"/>
</g>
<!-- Node35&#45;&gt;Node22 -->
<g id="edge72" class="edge">
<title>Node35&#45;&gt;Node22</title>
<path fill="none" stroke="midnightblue" d="M526.82,-235.32C535.39,-227.34 548.31,-215.31 558.69,-205.65"/>
<polygon fill="midnightblue" stroke="midnightblue" points="561.08,-208.21 566.01,-198.83 556.31,-203.09 561.08,-208.21"/>
</g>
<!-- Node36&#45;&gt;Node22 -->
<g id="edge74" class="edge">
<title>Node36&#45;&gt;Node22</title>
<path fill="none" stroke="midnightblue" d="M763.49,-291.37C728.04,-272.25 642.69,-226.23 600.28,-203.36"/>
<polygon fill="midnightblue" stroke="midnightblue" points="601.9,-200.26 591.43,-198.59 598.57,-206.42 601.9,-200.26"/>
</g>
<!-- Node36&#45;&gt;Node27 -->
<g id="edge79" class="edge">
<title>Node36&#45;&gt;Node27</title>
<path fill="none" stroke="midnightblue" d="M827.11,-300.71C911.18,-300.79 1090.74,-295.62 1235.5,-255 1277.44,-243.23 1322.27,-219.05 1348.27,-203.73"/>
<polygon fill="midnightblue" stroke="midnightblue" points="1350.17,-206.67 1356.95,-198.53 1346.57,-200.66 1350.17,-206.67"/>
</g>
<!-- Node36&#45;&gt;Node32 -->
<g id="edge78" class="edge">
<title>Node36&#45;&gt;Node32</title>
<path fill="none" stroke="midnightblue" d="M819.98,-291.47C849.31,-284.29 889.29,-272.37 921.5,-255 945.95,-241.81 970.17,-220.71 985.44,-206.15"/>
<polygon fill="midnightblue" stroke="midnightblue" points="988.24,-208.31 992.95,-198.82 983.35,-203.3 988.24,-208.31"/>
</g>
<!-- Node37 -->
<g id="node37" class="node">
<title>Node37</title>
<g id="a_node37"><a xlink:href="EngineExceptions_8hpp.html" target="_top" xlink:title=" ">
<polygon fill="white" stroke="black" points="717.5,-235.5 717.5,-254.5 841.5,-254.5 841.5,-235.5 717.5,-235.5"/>
<text text-anchor="middle" x="779.5" y="-242.5" font-family="Helvetica,sans-Serif" font-size="10.00">EngineExceptions.hpp</text>
</a>
</g>
</g>
<!-- Node36&#45;&gt;Node37 -->
<g id="edge75" class="edge">
<title>Node36&#45;&gt;Node37</title>
<path fill="none" stroke="midnightblue" d="M779.5,-291.08C779.5,-284.01 779.5,-273.86 779.5,-264.99"/>
<polygon fill="midnightblue" stroke="midnightblue" points="783,-264.75 779.5,-254.75 776,-264.75 783,-264.75"/>
</g>
<!-- Node37&#45;&gt;Node3 -->
<g id="edge77" class="edge">
<title>Node37&#45;&gt;Node3</title>
<path fill="none" stroke="midnightblue" d="M761.83,-235.32C744.11,-226.62 716.6,-213.12 696.21,-203.11"/>
<polygon fill="midnightblue" stroke="midnightblue" points="697.65,-199.92 687.13,-198.65 694.56,-206.2 697.65,-199.92"/>
</g>
<!-- Node38 -->
<g id="node38" class="node">
<title>Node38</title>
<g id="a_node38"><a xlink:title=" ">
<polygon fill="white" stroke="#bfbfbf" points="745,-179.5 745,-198.5 810,-198.5 810,-179.5 745,-179.5"/>
<text text-anchor="middle" x="777.5" y="-186.5" font-family="Helvetica,sans-Serif" font-size="10.00">exception</text>
</a>
</g>
</g>
<!-- Node37&#45;&gt;Node38 -->
<g id="edge76" class="edge">
<title>Node37&#45;&gt;Node38</title>
<path fill="none" stroke="midnightblue" d="M779.17,-235.08C778.91,-228.01 778.53,-217.86 778.2,-208.99"/>
<polygon fill="midnightblue" stroke="midnightblue" points="781.69,-208.61 777.82,-198.75 774.7,-208.87 781.69,-208.61"/>
</g>
<!-- Node39&#45;&gt;Node11 -->
<g id="edge82" class="edge">
<title>Node39&#45;&gt;Node11</title>
<path fill="none" stroke="midnightblue" d="M299.41,-409.04C272.7,-404.66 235.69,-393.83 217.5,-367 184.07,-317.71 210.15,-242.12 225,-207.91"/>
<polygon fill="midnightblue" stroke="midnightblue" points="228.24,-209.25 229.18,-198.7 221.86,-206.37 228.24,-209.25"/>
</g>
</g>
</svg>
