<?xml version="1.0" encoding="UTF-8" standalone="no"?>
<!DOCTYPE svg PUBLIC "-//W3C//DTD SVG 1.1//EN"
 "http://www.w3.org/Graphics/SVG/1.1/DTD/svg11.dtd">
<!-- Generated by graphviz version 2.43.0 (0)
 -->
<!-- Title: Libs/Engine/sources/Components/TextUI/TextUI.hpp Pages: 1 -->
<svg width="678pt" height="117pt"
 viewBox="0.00 0.00 677.50 117.00" xmlns="http://www.w3.org/2000/svg" xmlns:xlink="http://www.w3.org/1999/xlink">
<g id="graph0" class="graph" transform="scale(1 1) rotate(0) translate(4 113)">
<title>Libs/Engine/sources/Components/TextUI/TextUI.hpp</title>
<polygon fill="white" stroke="transparent" points="-4,4 -4,-113 673.5,-113 673.5,4 -4,4"/>
<!-- Node1 -->
<g id="node1" class="node">
<title>Node1</title>
<g id="a_node1"><a xlink:title=" ">
<polygon fill="#bfbfbf" stroke="black" points="275,-78.5 275,-108.5 445,-108.5 445,-78.5 275,-78.5"/>
<text text-anchor="start" x="283" y="-96.5" font-family="Helvetica,sans-Serif" font-size="10.00">Libs/Engine/sources</text>
<text text-anchor="middle" x="360" y="-85.5" font-family="Helvetica,sans-Serif" font-size="10.00">/Components/TextUI/TextUI.hpp</text>
</a>
</g>
</g>
<!-- Node2 -->
<g id="node2" class="node">
<title>Node2</title>
<g id="a_node2"><a xlink:href="ButtonCallbacks_8cpp.html" target="_top" xlink:title=" ">
<polygon fill="white" stroke="black" points="0,-0.5 0,-41.5 164,-41.5 164,-0.5 0,-0.5"/>
<text text-anchor="start" x="8" y="-29.5" font-family="Helvetica,sans-Serif" font-size="10.00">Libs/Engine/sources</text>
<text text-anchor="start" x="8" y="-18.5" font-family="Helvetica,sans-Serif" font-size="10.00">/Components/ButtonCallbacks</text>
<text text-anchor="middle" x="82" y="-7.5" font-family="Helvetica,sans-Serif" font-size="10.00">/ButtonCallbacks.cpp</text>
</a>
</g>
</g>
<!-- Node1&#45;&gt;Node2 -->
<g id="edge1" class="edge">
<title>Node1&#45;&gt;Node2</title>
<path fill="none" stroke="midnightblue" d="M294.94,-76C254.28,-65.69 201.72,-52.36 158.99,-41.53"/>
<polygon fill="midnightblue" stroke="midnightblue" points="294.19,-79.42 304.74,-78.49 295.91,-72.64 294.19,-79.42"/>
</g>
<!-- Node3 -->
<g id="node3" class="node">
<title>Node3</title>
<g id="a_node3"><a xlink:href="TextUI_8cpp.html" target="_top" xlink:title=" ">
<polygon fill="white" stroke="black" points="182.5,-6 182.5,-36 351.5,-36 351.5,-6 182.5,-6"/>
<text text-anchor="start" x="190.5" y="-24" font-family="Helvetica,sans-Serif" font-size="10.00">Libs/Engine/sources</text>
<text text-anchor="middle" x="267" y="-13" font-family="Helvetica,sans-Serif" font-size="10.00">/Components/TextUI/TextUI.cpp</text>
</a>
</g>
</g>
<!-- Node1&#45;&gt;Node3 -->
<g id="edge2" class="edge">
<title>Node1&#45;&gt;Node3</title>
<path fill="none" stroke="midnightblue" d="M333.1,-72.11C317.83,-60.53 299.09,-46.33 285.47,-36"/>
<polygon fill="midnightblue" stroke="midnightblue" points="331.1,-74.98 341.18,-78.23 335.33,-69.4 331.1,-74.98"/>
</g>
<!-- Node4 -->
<g id="node4" class="node">
<title>Node4</title>
<g id="a_node4"><a xlink:href="EntityFactory_8cpp.html" target="_top" xlink:title=" ">
<polygon fill="white" stroke="black" points="369.5,-6 369.5,-36 538.5,-36 538.5,-6 369.5,-6"/>
<text text-anchor="start" x="377.5" y="-24" font-family="Helvetica,sans-Serif" font-size="10.00">Libs/Engine/sources</text>
<text text-anchor="middle" x="454" y="-13" font-family="Helvetica,sans-Serif" font-size="10.00">/EntityFactory/EntityFactory.cpp</text>
</a>
</g>
</g>
<!-- Node1&#45;&gt;Node4 -->
<g id="edge3" class="edge">
<title>Node1&#45;&gt;Node4</title>
<path fill="none" stroke="midnightblue" d="M387.19,-72.11C402.63,-60.53 421.56,-46.33 435.33,-36"/>
<polygon fill="midnightblue" stroke="midnightblue" points="384.92,-69.43 379.02,-78.23 389.12,-75.03 384.92,-69.43"/>
</g>
<!-- Node5 -->
<g id="node5" class="node">
<title>Node5</title>
<g id="a_node5"><a xlink:href="Scenes_8cpp.html" target="_top" xlink:title=" ">
<polygon fill="white" stroke="black" points="556.5,-6 556.5,-36 669.5,-36 669.5,-6 556.5,-6"/>
<text text-anchor="start" x="564.5" y="-24" font-family="Helvetica,sans-Serif" font-size="10.00">Libs/Engine/sources</text>
<text text-anchor="middle" x="613" y="-13" font-family="Helvetica,sans-Serif" font-size="10.00">/Scenes/Scenes.cpp</text>
</a>
</g>
</g>
<!-- Node1&#45;&gt;Node5 -->
<g id="edge4" class="edge">
<title>Node1&#45;&gt;Node5</title>
<path fill="none" stroke="midnightblue" d="M424.43,-75.81C460.8,-66.23 507.04,-53.8 548,-42 554.47,-40.14 561.28,-38.11 567.96,-36.09"/>
<polygon fill="midnightblue" stroke="midnightblue" points="423.22,-72.51 414.44,-78.43 425,-79.28 423.22,-72.51"/>
</g>
</g>
</svg>
