<?xml version="1.0" encoding="UTF-8" standalone="no"?>
<!DOCTYPE svg PUBLIC "-//W3C//DTD SVG 1.1//EN"
 "http://www.w3.org/Graphics/SVG/1.1/DTD/svg11.dtd">
<!-- Generated by graphviz version 2.43.0 (0)
 -->
<!-- Title: Libs/RayLib/sources/Vector2/Vector2.hpp Pages: 1 -->
<svg width="519pt" height="218pt"
 viewBox="0.00 0.00 519.00 218.00" xmlns="http://www.w3.org/2000/svg" xmlns:xlink="http://www.w3.org/1999/xlink">
<g id="graph0" class="graph" transform="scale(1 1) rotate(0) translate(4 214)">
<title>Libs/RayLib/sources/Vector2/Vector2.hpp</title>
<polygon fill="white" stroke="transparent" points="-4,4 -4,-214 515,-214 515,4 -4,4"/>
<!-- Node1 -->
<g id="node1" class="node">
<title>Node1</title>
<g id="a_node1"><a xlink:title=" ">
<polygon fill="#bfbfbf" stroke="black" points="68,-179.5 68,-209.5 185,-209.5 185,-179.5 68,-179.5"/>
<text text-anchor="start" x="76" y="-197.5" font-family="Helvetica,sans-Serif" font-size="10.00">Libs/RayLib/sources</text>
<text text-anchor="middle" x="126.5" y="-186.5" font-family="Helvetica,sans-Serif" font-size="10.00">/Vector2/Vector2.hpp</text>
</a>
</g>
</g>
<!-- Node2 -->
<g id="node2" class="node">
<title>Node2</title>
<g id="a_node2"><a xlink:title=" ">
<polygon fill="white" stroke="#bfbfbf" points="0,-67.5 0,-86.5 53,-86.5 53,-67.5 0,-67.5"/>
<text text-anchor="middle" x="26.5" y="-74.5" font-family="Helvetica,sans-Serif" font-size="10.00">raylib.h</text>
</a>
</g>
</g>
<!-- Node1&#45;&gt;Node2 -->
<g id="edge1" class="edge">
<title>Node1&#45;&gt;Node2</title>
<path fill="none" stroke="midnightblue" d="M114.24,-179.34C95.65,-157.86 60.41,-117.17 40.72,-94.43"/>
<polygon fill="midnightblue" stroke="midnightblue" points="43.2,-91.94 34.01,-86.67 37.91,-96.52 43.2,-91.94"/>
</g>
<!-- Node3 -->
<g id="node3" class="node">
<title>Node3</title>
<g id="a_node3"><a xlink:title=" ">
<polygon fill="white" stroke="#bfbfbf" points="71,-67.5 71,-86.5 118,-86.5 118,-67.5 71,-67.5"/>
<text text-anchor="middle" x="94.5" y="-74.5" font-family="Helvetica,sans-Serif" font-size="10.00">cmath</text>
</a>
</g>
</g>
<!-- Node1&#45;&gt;Node3 -->
<g id="edge2" class="edge">
<title>Node1&#45;&gt;Node3</title>
<path fill="none" stroke="midnightblue" d="M122.58,-179.34C116.81,-158.53 106.04,-119.66 99.65,-96.58"/>
<polygon fill="midnightblue" stroke="midnightblue" points="102.94,-95.37 96.9,-86.67 96.2,-97.24 102.94,-95.37"/>
</g>
<!-- Node4 -->
<g id="node4" class="node">
<title>Node4</title>
<g id="a_node4"><a xlink:href="Vector3_8hpp.html" target="_top" xlink:title=" ">
<polygon fill="white" stroke="black" points="122.5,-123.5 122.5,-142.5 196.5,-142.5 196.5,-123.5 122.5,-123.5"/>
<text text-anchor="middle" x="159.5" y="-130.5" font-family="Helvetica,sans-Serif" font-size="10.00">Vector3.hpp</text>
</a>
</g>
</g>
<!-- Node1&#45;&gt;Node4 -->
<g id="edge3" class="edge">
<title>Node1&#45;&gt;Node4</title>
<path fill="none" stroke="midnightblue" d="M134.32,-179.4C138.97,-171.02 144.9,-160.33 149.84,-151.42"/>
<polygon fill="midnightblue" stroke="midnightblue" points="152.91,-153.1 154.7,-142.66 146.79,-149.71 152.91,-153.1"/>
</g>
<!-- Node5 -->
<g id="node5" class="node">
<title>Node5</title>
<g id="a_node5"><a xlink:href="IXMLSerializable_8hpp.html" target="_top" xlink:title=" ">
<polygon fill="white" stroke="black" points="211,-67.5 211,-86.5 330,-86.5 330,-67.5 211,-67.5"/>
<text text-anchor="middle" x="270.5" y="-74.5" font-family="Helvetica,sans-Serif" font-size="10.00">IXMLSerializable.hpp</text>
</a>
</g>
</g>
<!-- Node1&#45;&gt;Node5 -->
<g id="edge12" class="edge">
<title>Node1&#45;&gt;Node5</title>
<path fill="none" stroke="midnightblue" d="M151.64,-179.34C167.65,-169.86 188.5,-156.67 205.5,-143 224.25,-127.93 243.45,-108.07 256.07,-94.29"/>
<polygon fill="midnightblue" stroke="midnightblue" points="258.92,-96.36 263.02,-86.59 253.72,-91.67 258.92,-96.36"/>
</g>
<!-- Node4&#45;&gt;Node2 -->
<g id="edge4" class="edge">
<title>Node4&#45;&gt;Node2</title>
<path fill="none" stroke="midnightblue" d="M138.43,-123.44C116.44,-114.52 81.77,-100.44 56.84,-90.32"/>
<polygon fill="midnightblue" stroke="midnightblue" points="58.06,-87.04 47.48,-86.52 55.42,-93.52 58.06,-87.04"/>
</g>
<!-- Node4&#45;&gt;Node3 -->
<g id="edge10" class="edge">
<title>Node4&#45;&gt;Node3</title>
<path fill="none" stroke="midnightblue" d="M149.06,-123.32C139.35,-115.26 124.68,-103.08 113,-93.37"/>
<polygon fill="midnightblue" stroke="midnightblue" points="115.06,-90.53 105.13,-86.83 110.59,-95.92 115.06,-90.53"/>
</g>
<!-- Node4&#45;&gt;Node5 -->
<g id="edge5" class="edge">
<title>Node4&#45;&gt;Node5</title>
<path fill="none" stroke="midnightblue" d="M177.33,-123.32C195.22,-114.62 222.98,-101.12 243.55,-91.11"/>
<polygon fill="midnightblue" stroke="midnightblue" points="245.25,-94.18 252.71,-86.65 242.19,-87.88 245.25,-94.18"/>
</g>
<!-- Node10 -->
<g id="node10" class="node">
<title>Node10</title>
<g id="a_node10"><a xlink:title=" ">
<polygon fill="white" stroke="#bfbfbf" points="136.5,-67.5 136.5,-86.5 192.5,-86.5 192.5,-67.5 136.5,-67.5"/>
<text text-anchor="middle" x="164.5" y="-74.5" font-family="Helvetica,sans-Serif" font-size="10.00">sstream</text>
</a>
</g>
</g>
<!-- Node4&#45;&gt;Node10 -->
<g id="edge11" class="edge">
<title>Node4&#45;&gt;Node10</title>
<path fill="none" stroke="midnightblue" d="M160.33,-123.08C160.98,-116.01 161.92,-105.86 162.74,-96.99"/>
<polygon fill="midnightblue" stroke="midnightblue" points="166.25,-97.03 163.69,-86.75 159.28,-96.39 166.25,-97.03"/>
</g>
<!-- Node6 -->
<g id="node6" class="node">
<title>Node6</title>
<g id="a_node6"><a xlink:title=" ">
<polygon fill="white" stroke="#bfbfbf" points="113,-6 113,-25 170,-25 170,-6 113,-6"/>
<text text-anchor="middle" x="141.5" y="-13" font-family="Helvetica,sans-Serif" font-size="10.00">ostream</text>
</a>
</g>
</g>
<!-- Node5&#45;&gt;Node6 -->
<g id="edge6" class="edge">
<title>Node5&#45;&gt;Node6</title>
<path fill="none" stroke="midnightblue" d="M252.02,-67.48C230.37,-57.49 194.29,-40.85 169.27,-29.31"/>
<polygon fill="midnightblue" stroke="midnightblue" points="170.49,-26.02 159.95,-25.01 167.56,-32.38 170.49,-26.02"/>
</g>
<!-- Node7 -->
<g id="node7" class="node">
<title>Node7</title>
<g id="a_node7"><a xlink:title=" ">
<polygon fill="white" stroke="#bfbfbf" points="188.5,-6 188.5,-25 248.5,-25 248.5,-6 188.5,-6"/>
<text text-anchor="middle" x="218.5" y="-13" font-family="Helvetica,sans-Serif" font-size="10.00">iostream</text>
</a>
</g>
</g>
<!-- Node5&#45;&gt;Node7 -->
<g id="edge7" class="edge">
<title>Node5&#45;&gt;Node7</title>
<path fill="none" stroke="midnightblue" d="M263.05,-67.48C255.17,-58.46 242.56,-44.02 232.76,-32.81"/>
<polygon fill="midnightblue" stroke="midnightblue" points="235.15,-30.24 225.94,-25.01 229.88,-34.84 235.15,-30.24"/>
</g>
<!-- Node8 -->
<g id="node8" class="node">
<title>Node8</title>
<g id="a_node8"><a xlink:title=" ">
<polygon fill="white" stroke="#bfbfbf" points="267,-0.5 267,-30.5 380,-30.5 380,-0.5 267,-0.5"/>
<text text-anchor="start" x="275" y="-18.5" font-family="Helvetica,sans-Serif" font-size="10.00">boost/property_tree</text>
<text text-anchor="middle" x="323.5" y="-7.5" font-family="Helvetica,sans-Serif" font-size="10.00">/ptree.hpp</text>
</a>
</g>
</g>
<!-- Node5&#45;&gt;Node8 -->
<g id="edge8" class="edge">
<title>Node5&#45;&gt;Node8</title>
<path fill="none" stroke="midnightblue" d="M278.09,-67.48C284.87,-59.87 295.09,-48.4 304.11,-38.26"/>
<polygon fill="midnightblue" stroke="midnightblue" points="306.97,-40.32 311.01,-30.52 301.74,-35.66 306.97,-40.32"/>
</g>
<!-- Node9 -->
<g id="node9" class="node">
<title>Node9</title>
<g id="a_node9"><a xlink:title=" ">
<polygon fill="white" stroke="#bfbfbf" points="398,-0.5 398,-30.5 511,-30.5 511,-0.5 398,-0.5"/>
<text text-anchor="start" x="406" y="-18.5" font-family="Helvetica,sans-Serif" font-size="10.00">boost/property_tree</text>
<text text-anchor="middle" x="454.5" y="-7.5" font-family="Helvetica,sans-Serif" font-size="10.00">/xml_parser.hpp</text>
</a>
</g>
</g>
<!-- Node5&#45;&gt;Node9 -->
<g id="edge9" class="edge">
<title>Node5&#45;&gt;Node9</title>
<path fill="none" stroke="midnightblue" d="M296.86,-67.48C324,-58.7 367.02,-44.79 401.27,-33.71"/>
<polygon fill="midnightblue" stroke="midnightblue" points="402.7,-36.93 411.13,-30.52 400.54,-30.27 402.7,-36.93"/>
</g>
</g>
</svg>
