<?xml version="1.0" encoding="UTF-8" standalone="no"?>
<!DOCTYPE svg PUBLIC "-//W3C//DTD SVG 1.1//EN"
 "http://www.w3.org/Graphics/SVG/1.1/DTD/svg11.dtd">
<!-- Generated by graphviz version 2.43.0 (0)
 -->
<!-- Title: Libs/RayLib/sources/Vector3/Vector3.hpp Pages: 1 -->
<svg width="406pt" height="162pt"
 viewBox="0.00 0.00 406.00 162.00" xmlns="http://www.w3.org/2000/svg" xmlns:xlink="http://www.w3.org/1999/xlink">
<g id="graph0" class="graph" transform="scale(1 1) rotate(0) translate(4 158)">
<title>Libs/RayLib/sources/Vector3/Vector3.hpp</title>
<polygon fill="white" stroke="transparent" points="-4,4 -4,-158 402,-158 402,4 -4,4"/>
<!-- Node1 -->
<g id="node1" class="node">
<title>Node1</title>
<g id="a_node1"><a xlink:title=" ">
<polygon fill="#bfbfbf" stroke="black" points="149,-123.5 149,-153.5 266,-153.5 266,-123.5 149,-123.5"/>
<text text-anchor="start" x="157" y="-141.5" font-family="Helvetica,sans-Serif" font-size="10.00">Libs/RayLib/sources</text>
<text text-anchor="middle" x="207.5" y="-130.5" font-family="Helvetica,sans-Serif" font-size="10.00">/Vector3/Vector3.hpp</text>
</a>
</g>
</g>
<!-- Node2 -->
<g id="node2" class="node">
<title>Node2</title>
<g id="a_node2"><a xlink:title=" ">
<polygon fill="white" stroke="#bfbfbf" points="27,-67.5 27,-86.5 80,-86.5 80,-67.5 27,-67.5"/>
<text text-anchor="middle" x="53.5" y="-74.5" font-family="Helvetica,sans-Serif" font-size="10.00">raylib.h</text>
</a>
</g>
</g>
<!-- Node1&#45;&gt;Node2 -->
<g id="edge1" class="edge">
<title>Node1&#45;&gt;Node2</title>
<path fill="none" stroke="midnightblue" d="M171,-123.4C144.93,-113.33 110.21,-99.91 85.28,-90.28"/>
<polygon fill="midnightblue" stroke="midnightblue" points="86.5,-87 75.91,-86.66 83.97,-93.53 86.5,-87"/>
</g>
<!-- Node3 -->
<g id="node3" class="node">
<title>Node3</title>
<g id="a_node3"><a xlink:href="IXMLSerializable_8hpp.html" target="_top" xlink:title=" ">
<polygon fill="white" stroke="black" points="98,-67.5 98,-86.5 217,-86.5 217,-67.5 98,-67.5"/>
<text text-anchor="middle" x="157.5" y="-74.5" font-family="Helvetica,sans-Serif" font-size="10.00">IXMLSerializable.hpp</text>
</a>
</g>
</g>
<!-- Node1&#45;&gt;Node3 -->
<g id="edge2" class="edge">
<title>Node1&#45;&gt;Node3</title>
<path fill="none" stroke="midnightblue" d="M195.65,-123.4C188.39,-114.75 179.05,-103.64 171.43,-94.58"/>
<polygon fill="midnightblue" stroke="midnightblue" points="173.89,-92.06 164.78,-86.66 168.53,-96.57 173.89,-92.06"/>
</g>
<!-- Node8 -->
<g id="node8" class="node">
<title>Node8</title>
<g id="a_node8"><a xlink:title=" ">
<polygon fill="white" stroke="#bfbfbf" points="235,-67.5 235,-86.5 282,-86.5 282,-67.5 235,-67.5"/>
<text text-anchor="middle" x="258.5" y="-74.5" font-family="Helvetica,sans-Serif" font-size="10.00">cmath</text>
</a>
</g>
</g>
<!-- Node1&#45;&gt;Node8 -->
<g id="edge7" class="edge">
<title>Node1&#45;&gt;Node8</title>
<path fill="none" stroke="midnightblue" d="M219.59,-123.4C227.07,-114.66 236.72,-103.41 244.53,-94.3"/>
<polygon fill="midnightblue" stroke="midnightblue" points="247.23,-96.53 251.08,-86.66 241.91,-91.97 247.23,-96.53"/>
</g>
<!-- Node9 -->
<g id="node9" class="node">
<title>Node9</title>
<g id="a_node9"><a xlink:title=" ">
<polygon fill="white" stroke="#bfbfbf" points="300.5,-67.5 300.5,-86.5 356.5,-86.5 356.5,-67.5 300.5,-67.5"/>
<text text-anchor="middle" x="328.5" y="-74.5" font-family="Helvetica,sans-Serif" font-size="10.00">sstream</text>
</a>
</g>
</g>
<!-- Node1&#45;&gt;Node9 -->
<g id="edge8" class="edge">
<title>Node1&#45;&gt;Node9</title>
<path fill="none" stroke="midnightblue" d="M236.18,-123.4C256.02,-113.64 282.26,-100.74 301.69,-91.18"/>
<polygon fill="midnightblue" stroke="midnightblue" points="303.46,-94.21 310.89,-86.66 300.38,-87.93 303.46,-94.21"/>
</g>
<!-- Node4 -->
<g id="node4" class="node">
<title>Node4</title>
<g id="a_node4"><a xlink:title=" ">
<polygon fill="white" stroke="#bfbfbf" points="0,-6 0,-25 57,-25 57,-6 0,-6"/>
<text text-anchor="middle" x="28.5" y="-13" font-family="Helvetica,sans-Serif" font-size="10.00">ostream</text>
</a>
</g>
</g>
<!-- Node3&#45;&gt;Node4 -->
<g id="edge3" class="edge">
<title>Node3&#45;&gt;Node4</title>
<path fill="none" stroke="midnightblue" d="M139.02,-67.48C117.37,-57.49 81.29,-40.85 56.27,-29.31"/>
<polygon fill="midnightblue" stroke="midnightblue" points="57.49,-26.02 46.95,-25.01 54.56,-32.38 57.49,-26.02"/>
</g>
<!-- Node5 -->
<g id="node5" class="node">
<title>Node5</title>
<g id="a_node5"><a xlink:title=" ">
<polygon fill="white" stroke="#bfbfbf" points="75.5,-6 75.5,-25 135.5,-25 135.5,-6 75.5,-6"/>
<text text-anchor="middle" x="105.5" y="-13" font-family="Helvetica,sans-Serif" font-size="10.00">iostream</text>
</a>
</g>
</g>
<!-- Node3&#45;&gt;Node5 -->
<g id="edge4" class="edge">
<title>Node3&#45;&gt;Node5</title>
<path fill="none" stroke="midnightblue" d="M150.05,-67.48C142.17,-58.46 129.56,-44.02 119.76,-32.81"/>
<polygon fill="midnightblue" stroke="midnightblue" points="122.15,-30.24 112.94,-25.01 116.88,-34.84 122.15,-30.24"/>
</g>
<!-- Node6 -->
<g id="node6" class="node">
<title>Node6</title>
<g id="a_node6"><a xlink:title=" ">
<polygon fill="white" stroke="#bfbfbf" points="154,-0.5 154,-30.5 267,-30.5 267,-0.5 154,-0.5"/>
<text text-anchor="start" x="162" y="-18.5" font-family="Helvetica,sans-Serif" font-size="10.00">boost/property_tree</text>
<text text-anchor="middle" x="210.5" y="-7.5" font-family="Helvetica,sans-Serif" font-size="10.00">/ptree.hpp</text>
</a>
</g>
</g>
<!-- Node3&#45;&gt;Node6 -->
<g id="edge5" class="edge">
<title>Node3&#45;&gt;Node6</title>
<path fill="none" stroke="midnightblue" d="M165.09,-67.48C171.87,-59.87 182.09,-48.4 191.11,-38.26"/>
<polygon fill="midnightblue" stroke="midnightblue" points="193.97,-40.32 198.01,-30.52 188.74,-35.66 193.97,-40.32"/>
</g>
<!-- Node7 -->
<g id="node7" class="node">
<title>Node7</title>
<g id="a_node7"><a xlink:title=" ">
<polygon fill="white" stroke="#bfbfbf" points="285,-0.5 285,-30.5 398,-30.5 398,-0.5 285,-0.5"/>
<text text-anchor="start" x="293" y="-18.5" font-family="Helvetica,sans-Serif" font-size="10.00">boost/property_tree</text>
<text text-anchor="middle" x="341.5" y="-7.5" font-family="Helvetica,sans-Serif" font-size="10.00">/xml_parser.hpp</text>
</a>
</g>
</g>
<!-- Node3&#45;&gt;Node7 -->
<g id="edge6" class="edge">
<title>Node3&#45;&gt;Node7</title>
<path fill="none" stroke="midnightblue" d="M183.86,-67.48C211,-58.7 254.02,-44.79 288.27,-33.71"/>
<polygon fill="midnightblue" stroke="midnightblue" points="289.7,-36.93 298.13,-30.52 287.54,-30.27 289.7,-36.93"/>
</g>
</g>
</svg>
