<?xml version="1.0" encoding="UTF-8" standalone="no"?>
<!DOCTYPE svg PUBLIC "-//W3C//DTD SVG 1.1//EN"
 "http://www.w3.org/Graphics/SVG/1.1/DTD/svg11.dtd">
<!-- Generated by graphviz version 2.43.0 (0)
 -->
<!-- Title: Libs/RayLib/sources/Window/Window.cpp Pages: 1 -->
<svg width="513pt" height="386pt"
 viewBox="0.00 0.00 512.50 386.00" xmlns="http://www.w3.org/2000/svg" xmlns:xlink="http://www.w3.org/1999/xlink">
<g id="graph0" class="graph" transform="scale(1 1) rotate(0) translate(4 382)">
<title>Libs/RayLib/sources/Window/Window.cpp</title>
<polygon fill="white" stroke="transparent" points="-4,4 -4,-382 508.5,-382 508.5,4 -4,4"/>
<!-- Node1 -->
<g id="node1" class="node">
<title>Node1</title>
<g id="a_node1"><a xlink:title=" ">
<polygon fill="#bfbfbf" stroke="black" points="308.5,-347.5 308.5,-377.5 428.5,-377.5 428.5,-347.5 308.5,-347.5"/>
<text text-anchor="start" x="316.5" y="-365.5" font-family="Helvetica,sans-Serif" font-size="10.00">Libs/RayLib/sources</text>
<text text-anchor="middle" x="368.5" y="-354.5" font-family="Helvetica,sans-Serif" font-size="10.00">/Window/Window.cpp</text>
</a>
</g>
</g>
<!-- Node2 -->
<g id="node2" class="node">
<title>Node2</title>
<g id="a_node2"><a xlink:href="Window_8hpp.html" target="_top" xlink:title=" ">
<polygon fill="white" stroke="black" points="213.5,-291.5 213.5,-310.5 289.5,-310.5 289.5,-291.5 213.5,-291.5"/>
<text text-anchor="middle" x="251.5" y="-298.5" font-family="Helvetica,sans-Serif" font-size="10.00">Window.hpp</text>
</a>
</g>
</g>
<!-- Node1&#45;&gt;Node2 -->
<g id="edge1" class="edge">
<title>Node1&#45;&gt;Node2</title>
<path fill="none" stroke="midnightblue" d="M340.77,-347.4C321.67,-337.68 296.44,-324.86 277.68,-315.31"/>
<polygon fill="midnightblue" stroke="midnightblue" points="279.02,-312.07 268.52,-310.66 275.85,-318.31 279.02,-312.07"/>
</g>
<!-- Node9 -->
<g id="node9" class="node">
<title>Node9</title>
<g id="a_node9"><a xlink:title=" ">
<polygon fill="white" stroke="#bfbfbf" points="406.5,-6 406.5,-25 466.5,-25 466.5,-6 406.5,-6"/>
<text text-anchor="middle" x="436.5" y="-13" font-family="Helvetica,sans-Serif" font-size="10.00">iostream</text>
</a>
</g>
</g>
<!-- Node1&#45;&gt;Node9 -->
<g id="edge29" class="edge">
<title>Node1&#45;&gt;Node9</title>
<path fill="none" stroke="midnightblue" d="M407.84,-347.47C448,-330.32 504.5,-297.11 504.5,-246 504.5,-246 504.5,-246 504.5,-132 504.5,-91.74 473.43,-53.14 453.3,-32.34"/>
<polygon fill="midnightblue" stroke="midnightblue" points="455.51,-29.61 445.96,-25.04 450.58,-34.58 455.51,-29.61"/>
</g>
<!-- Node2&#45;&gt;Node2 -->
<g id="edge21" class="edge">
<title>Node2&#45;&gt;Node2</title>
<path fill="none" stroke="midnightblue" d="M275.38,-310.53C291.61,-313.31 307.5,-310.13 307.5,-301 307.5,-293.79 297.61,-290.3 285.46,-290.51"/>
<polygon fill="midnightblue" stroke="midnightblue" points="285,-287.04 275.38,-291.47 285.67,-294 285,-287.04"/>
</g>
<!-- Node3 -->
<g id="node3" class="node">
<title>Node3</title>
<g id="a_node3"><a xlink:href="Vector2_8hpp.html" target="_top" xlink:title=" ">
<polygon fill="white" stroke="black" points="118.5,-179.5 118.5,-198.5 192.5,-198.5 192.5,-179.5 118.5,-179.5"/>
<text text-anchor="middle" x="155.5" y="-186.5" font-family="Helvetica,sans-Serif" font-size="10.00">Vector2.hpp</text>
</a>
</g>
</g>
<!-- Node2&#45;&gt;Node3 -->
<g id="edge2" class="edge">
<title>Node2&#45;&gt;Node3</title>
<path fill="none" stroke="midnightblue" d="M243.97,-291.37C227.98,-273.05 190.45,-230.05 169.78,-206.36"/>
<polygon fill="midnightblue" stroke="midnightblue" points="172.21,-203.82 163,-198.59 166.94,-208.43 172.21,-203.82"/>
</g>
<!-- Node6 -->
<g id="node6" class="node">
<title>Node6</title>
<g id="a_node6"><a xlink:href="Vector3_8hpp.html" target="_top" xlink:title=" ">
<polygon fill="white" stroke="black" points="234.5,-123.5 234.5,-142.5 308.5,-142.5 308.5,-123.5 234.5,-123.5"/>
<text text-anchor="middle" x="271.5" y="-130.5" font-family="Helvetica,sans-Serif" font-size="10.00">Vector3.hpp</text>
</a>
</g>
</g>
<!-- Node2&#45;&gt;Node6 -->
<g id="edge15" class="edge">
<title>Node2&#45;&gt;Node6</title>
<path fill="none" stroke="midnightblue" d="M252.58,-291.08C255.72,-264.95 264.97,-188.21 269.26,-152.58"/>
<polygon fill="midnightblue" stroke="midnightblue" points="272.75,-152.92 270.47,-142.57 265.8,-152.08 272.75,-152.92"/>
</g>
<!-- Node13 -->
<g id="node13" class="node">
<title>Node13</title>
<g id="a_node13"><a xlink:href="Color_8hpp.html" target="_top" xlink:title=" ">
<polygon fill="white" stroke="black" points="0.5,-179.5 0.5,-198.5 62.5,-198.5 62.5,-179.5 0.5,-179.5"/>
<text text-anchor="middle" x="31.5" y="-186.5" font-family="Helvetica,sans-Serif" font-size="10.00">Color.hpp</text>
</a>
</g>
</g>
<!-- Node2&#45;&gt;Node13 -->
<g id="edge16" class="edge">
<title>Node2&#45;&gt;Node13</title>
<path fill="none" stroke="midnightblue" d="M213.35,-295.62C178.87,-290.28 127.79,-278.83 89.5,-255 69.91,-242.81 53.07,-222.06 42.66,-207.29"/>
<polygon fill="midnightblue" stroke="midnightblue" points="45.28,-204.91 36.78,-198.59 39.48,-208.83 45.28,-204.91"/>
</g>
<!-- Node14 -->
<g id="node14" class="node">
<title>Node14</title>
<g id="a_node14"><a xlink:title=" ">
<polygon fill="white" stroke="#bfbfbf" points="210.5,-179.5 210.5,-198.5 254.5,-198.5 254.5,-179.5 210.5,-179.5"/>
<text text-anchor="middle" x="232.5" y="-186.5" font-family="Helvetica,sans-Serif" font-size="10.00">string</text>
</a>
</g>
</g>
<!-- Node2&#45;&gt;Node14 -->
<g id="edge19" class="edge">
<title>Node2&#45;&gt;Node14</title>
<path fill="none" stroke="midnightblue" d="M250.01,-291.37C246.94,-273.62 239.87,-232.67 235.71,-208.6"/>
<polygon fill="midnightblue" stroke="midnightblue" points="239.14,-207.85 233.98,-198.59 232.24,-209.04 239.14,-207.85"/>
</g>
<!-- Node15 -->
<g id="node15" class="node">
<title>Node15</title>
<g id="a_node15"><a xlink:title=" ">
<polygon fill="white" stroke="#bfbfbf" points="418.5,-235.5 418.5,-254.5 476.5,-254.5 476.5,-235.5 418.5,-235.5"/>
<text text-anchor="middle" x="447.5" y="-242.5" font-family="Helvetica,sans-Serif" font-size="10.00">memory</text>
</a>
</g>
</g>
<!-- Node2&#45;&gt;Node15 -->
<g id="edge20" class="edge">
<title>Node2&#45;&gt;Node15</title>
<path fill="none" stroke="midnightblue" d="M282.56,-291.44C316.6,-282.07 371.28,-267 408.26,-256.81"/>
<polygon fill="midnightblue" stroke="midnightblue" points="409.48,-260.11 418.19,-254.08 407.62,-253.36 409.48,-260.11"/>
</g>
<!-- Node16 -->
<g id="node16" class="node">
<title>Node16</title>
<g id="a_node16"><a xlink:href="Image_8hpp.html" target="_top" xlink:title=" ">
<polygon fill="white" stroke="black" points="98.5,-235.5 98.5,-254.5 166.5,-254.5 166.5,-235.5 98.5,-235.5"/>
<text text-anchor="middle" x="132.5" y="-242.5" font-family="Helvetica,sans-Serif" font-size="10.00">Image.hpp</text>
</a>
</g>
</g>
<!-- Node2&#45;&gt;Node16 -->
<g id="edge22" class="edge">
<title>Node2&#45;&gt;Node16</title>
<path fill="none" stroke="midnightblue" d="M232.64,-291.44C213.23,-282.64 182.77,-268.81 160.54,-258.72"/>
<polygon fill="midnightblue" stroke="midnightblue" points="161.82,-255.46 151.27,-254.52 158.93,-261.84 161.82,-255.46"/>
</g>
<!-- Node17 -->
<g id="node17" class="node">
<title>Node17</title>
<g id="a_node17"><a xlink:href="BoundingBox_8hpp.html" target="_top" xlink:title=" ">
<polygon fill="white" stroke="black" points="298.5,-235.5 298.5,-254.5 400.5,-254.5 400.5,-235.5 298.5,-235.5"/>
<text text-anchor="middle" x="349.5" y="-242.5" font-family="Helvetica,sans-Serif" font-size="10.00">BoundingBox.hpp</text>
</a>
</g>
</g>
<!-- Node2&#45;&gt;Node17 -->
<g id="edge27" class="edge">
<title>Node2&#45;&gt;Node17</title>
<path fill="none" stroke="midnightblue" d="M267.25,-291.32C282.82,-282.74 306.88,-269.49 324.96,-259.52"/>
<polygon fill="midnightblue" stroke="midnightblue" points="326.72,-262.55 333.79,-254.65 323.35,-256.42 326.72,-262.55"/>
</g>
<!-- Node4 -->
<g id="node4" class="node">
<title>Node4</title>
<g id="a_node4"><a xlink:title=" ">
<polygon fill="white" stroke="#bfbfbf" points="57,-67.5 57,-86.5 110,-86.5 110,-67.5 57,-67.5"/>
<text text-anchor="middle" x="83.5" y="-74.5" font-family="Helvetica,sans-Serif" font-size="10.00">raylib.h</text>
</a>
</g>
</g>
<!-- Node3&#45;&gt;Node4 -->
<g id="edge3" class="edge">
<title>Node3&#45;&gt;Node4</title>
<path fill="none" stroke="midnightblue" d="M149.85,-179.37C137.97,-161.22 110.21,-118.8 94.62,-94.99"/>
<polygon fill="midnightblue" stroke="midnightblue" points="97.53,-93.04 89.12,-86.59 91.67,-96.88 97.53,-93.04"/>
</g>
<!-- Node5 -->
<g id="node5" class="node">
<title>Node5</title>
<g id="a_node5"><a xlink:title=" ">
<polygon fill="white" stroke="#bfbfbf" points="340,-67.5 340,-86.5 387,-86.5 387,-67.5 340,-67.5"/>
<text text-anchor="middle" x="363.5" y="-74.5" font-family="Helvetica,sans-Serif" font-size="10.00">cmath</text>
</a>
</g>
</g>
<!-- Node3&#45;&gt;Node5 -->
<g id="edge4" class="edge">
<title>Node3&#45;&gt;Node5</title>
<path fill="none" stroke="midnightblue" d="M192.66,-180.7C233.94,-172.08 297.44,-157.11 317.5,-143 334.59,-130.98 347.53,-110.5 355.27,-95.74"/>
<polygon fill="midnightblue" stroke="midnightblue" points="358.49,-97.12 359.78,-86.6 352.21,-94.02 358.49,-97.12"/>
</g>
<!-- Node3&#45;&gt;Node6 -->
<g id="edge5" class="edge">
<title>Node3&#45;&gt;Node6</title>
<path fill="none" stroke="midnightblue" d="M173.88,-179.44C192.72,-170.68 222.23,-156.94 243.88,-146.86"/>
<polygon fill="midnightblue" stroke="midnightblue" points="245.62,-149.91 253.21,-142.52 242.66,-143.56 245.62,-149.91"/>
</g>
<!-- Node7 -->
<g id="node7" class="node">
<title>Node7</title>
<g id="a_node7"><a xlink:href="IXMLSerializable_8hpp.html" target="_top" xlink:title=" ">
<polygon fill="white" stroke="black" points="128,-67.5 128,-86.5 247,-86.5 247,-67.5 128,-67.5"/>
<text text-anchor="middle" x="187.5" y="-74.5" font-family="Helvetica,sans-Serif" font-size="10.00">IXMLSerializable.hpp</text>
</a>
</g>
</g>
<!-- Node3&#45;&gt;Node7 -->
<g id="edge14" class="edge">
<title>Node3&#45;&gt;Node7</title>
<path fill="none" stroke="midnightblue" d="M158.01,-179.37C163.2,-161.54 175.2,-120.3 182.18,-96.27"/>
<polygon fill="midnightblue" stroke="midnightblue" points="185.57,-97.17 185,-86.59 178.85,-95.22 185.57,-97.17"/>
</g>
<!-- Node6&#45;&gt;Node4 -->
<g id="edge6" class="edge">
<title>Node6&#45;&gt;Node4</title>
<path fill="none" stroke="midnightblue" d="M241.71,-123.44C208.73,-113.97 155.54,-98.69 120.06,-88.5"/>
<polygon fill="midnightblue" stroke="midnightblue" points="120.69,-85.04 110.11,-85.64 118.76,-91.77 120.69,-85.04"/>
</g>
<!-- Node6&#45;&gt;Node5 -->
<g id="edge12" class="edge">
<title>Node6&#45;&gt;Node5</title>
<path fill="none" stroke="midnightblue" d="M286.28,-123.32C300.77,-114.82 323.07,-101.73 339.99,-91.8"/>
<polygon fill="midnightblue" stroke="midnightblue" points="341.9,-94.74 348.76,-86.65 338.36,-88.7 341.9,-94.74"/>
</g>
<!-- Node6&#45;&gt;Node7 -->
<g id="edge7" class="edge">
<title>Node6&#45;&gt;Node7</title>
<path fill="none" stroke="midnightblue" d="M258,-123.32C244.9,-114.9 224.79,-101.97 209.39,-92.07"/>
<polygon fill="midnightblue" stroke="midnightblue" points="211.27,-89.12 200.96,-86.65 207.48,-95.01 211.27,-89.12"/>
</g>
<!-- Node12 -->
<g id="node12" class="node">
<title>Node12</title>
<g id="a_node12"><a xlink:title=" ">
<polygon fill="white" stroke="#bfbfbf" points="265.5,-67.5 265.5,-86.5 321.5,-86.5 321.5,-67.5 265.5,-67.5"/>
<text text-anchor="middle" x="293.5" y="-74.5" font-family="Helvetica,sans-Serif" font-size="10.00">sstream</text>
</a>
</g>
</g>
<!-- Node6&#45;&gt;Node12 -->
<g id="edge13" class="edge">
<title>Node6&#45;&gt;Node12</title>
<path fill="none" stroke="midnightblue" d="M275.13,-123.08C278.11,-115.77 282.43,-105.18 286.12,-96.1"/>
<polygon fill="midnightblue" stroke="midnightblue" points="289.4,-97.33 289.93,-86.75 282.92,-94.69 289.4,-97.33"/>
</g>
<!-- Node8 -->
<g id="node8" class="node">
<title>Node8</title>
<g id="a_node8"><a xlink:title=" ">
<polygon fill="white" stroke="#bfbfbf" points="262,-6 262,-25 319,-25 319,-6 262,-6"/>
<text text-anchor="middle" x="290.5" y="-13" font-family="Helvetica,sans-Serif" font-size="10.00">ostream</text>
</a>
</g>
</g>
<!-- Node7&#45;&gt;Node8 -->
<g id="edge8" class="edge">
<title>Node7&#45;&gt;Node8</title>
<path fill="none" stroke="midnightblue" d="M202.26,-67.48C219.16,-57.71 247.08,-41.58 266.99,-30.08"/>
<polygon fill="midnightblue" stroke="midnightblue" points="268.86,-33.04 275.77,-25.01 265.36,-26.98 268.86,-33.04"/>
</g>
<!-- Node7&#45;&gt;Node9 -->
<g id="edge9" class="edge">
<title>Node7&#45;&gt;Node9</title>
<path fill="none" stroke="midnightblue" d="M223.18,-67.48C269.03,-56.52 348.42,-37.55 396.35,-26.1"/>
<polygon fill="midnightblue" stroke="midnightblue" points="397.45,-29.43 406.36,-23.7 395.82,-22.62 397.45,-29.43"/>
</g>
<!-- Node10 -->
<g id="node10" class="node">
<title>Node10</title>
<g id="a_node10"><a xlink:title=" ">
<polygon fill="white" stroke="#bfbfbf" points="0,-0.5 0,-30.5 113,-30.5 113,-0.5 0,-0.5"/>
<text text-anchor="start" x="8" y="-18.5" font-family="Helvetica,sans-Serif" font-size="10.00">boost/property_tree</text>
<text text-anchor="middle" x="56.5" y="-7.5" font-family="Helvetica,sans-Serif" font-size="10.00">/ptree.hpp</text>
</a>
</g>
</g>
<!-- Node7&#45;&gt;Node10 -->
<g id="edge10" class="edge">
<title>Node7&#45;&gt;Node10</title>
<path fill="none" stroke="midnightblue" d="M168.73,-67.48C149.99,-58.96 120.61,-45.62 96.61,-34.72"/>
<polygon fill="midnightblue" stroke="midnightblue" points="97.93,-31.47 87.37,-30.52 95.03,-37.85 97.93,-31.47"/>
</g>
<!-- Node11 -->
<g id="node11" class="node">
<title>Node11</title>
<g id="a_node11"><a xlink:title=" ">
<polygon fill="white" stroke="#bfbfbf" points="131,-0.5 131,-30.5 244,-30.5 244,-0.5 131,-0.5"/>
<text text-anchor="start" x="139" y="-18.5" font-family="Helvetica,sans-Serif" font-size="10.00">boost/property_tree</text>
<text text-anchor="middle" x="187.5" y="-7.5" font-family="Helvetica,sans-Serif" font-size="10.00">/xml_parser.hpp</text>
</a>
</g>
</g>
<!-- Node7&#45;&gt;Node11 -->
<g id="edge11" class="edge">
<title>Node7&#45;&gt;Node11</title>
<path fill="none" stroke="midnightblue" d="M187.5,-67.48C187.5,-60.47 187.5,-50.19 187.5,-40.7"/>
<polygon fill="midnightblue" stroke="midnightblue" points="191,-40.52 187.5,-30.52 184,-40.52 191,-40.52"/>
</g>
<!-- Node13&#45;&gt;Node4 -->
<g id="edge17" class="edge">
<title>Node13&#45;&gt;Node4</title>
<path fill="none" stroke="midnightblue" d="M35.58,-179.37C44.05,-161.46 63.68,-119.92 75.02,-95.95"/>
<polygon fill="midnightblue" stroke="midnightblue" points="78.33,-97.13 79.44,-86.59 72,-94.14 78.33,-97.13"/>
</g>
<!-- Node13&#45;&gt;Node6 -->
<g id="edge18" class="edge">
<title>Node13&#45;&gt;Node6</title>
<path fill="none" stroke="midnightblue" d="M62.88,-180.94C104.04,-171.68 176.63,-155.35 224.4,-144.6"/>
<polygon fill="midnightblue" stroke="midnightblue" points="225.21,-148 234.2,-142.39 223.68,-141.17 225.21,-148"/>
</g>
<!-- Node16&#45;&gt;Node3 -->
<g id="edge26" class="edge">
<title>Node16&#45;&gt;Node3</title>
<path fill="none" stroke="midnightblue" d="M136.3,-235.08C139.41,-227.77 143.92,-217.18 147.79,-208.1"/>
<polygon fill="midnightblue" stroke="midnightblue" points="151.07,-209.32 151.77,-198.75 144.63,-206.58 151.07,-209.32"/>
</g>
<!-- Node16&#45;&gt;Node4 -->
<g id="edge24" class="edge">
<title>Node16&#45;&gt;Node4</title>
<path fill="none" stroke="midnightblue" d="M127.21,-235.34C122.02,-226.5 114.21,-212.22 109.5,-199 96.99,-163.88 89.5,-120.78 85.96,-96.65"/>
<polygon fill="midnightblue" stroke="midnightblue" points="89.43,-96.14 84.58,-86.72 82.49,-97.11 89.43,-96.14"/>
</g>
<!-- Node16&#45;&gt;Node13 -->
<g id="edge25" class="edge">
<title>Node16&#45;&gt;Node13</title>
<path fill="none" stroke="midnightblue" d="M116.27,-235.32C100.15,-226.7 75.2,-213.36 56.54,-203.39"/>
<polygon fill="midnightblue" stroke="midnightblue" points="58.16,-200.28 47.69,-198.65 54.86,-206.46 58.16,-200.28"/>
</g>
<!-- Node16&#45;&gt;Node14 -->
<g id="edge23" class="edge">
<title>Node16&#45;&gt;Node14</title>
<path fill="none" stroke="midnightblue" d="M148.57,-235.32C164.46,-226.74 189.01,-213.49 207.46,-203.52"/>
<polygon fill="midnightblue" stroke="midnightblue" points="209.34,-206.49 216.47,-198.65 206.01,-200.33 209.34,-206.49"/>
</g>
<!-- Node17&#45;&gt;Node6 -->
<g id="edge28" class="edge">
<title>Node17&#45;&gt;Node6</title>
<path fill="none" stroke="midnightblue" d="M343.38,-235.37C330.51,-217.22 300.43,-174.8 283.55,-150.99"/>
<polygon fill="midnightblue" stroke="midnightblue" points="286.23,-148.72 277.59,-142.59 280.52,-152.77 286.23,-148.72"/>
</g>
</g>
</svg>
