<?xml version="1.0" encoding="UTF-8" standalone="no"?>
<!DOCTYPE svg PUBLIC "-//W3C//DTD SVG 1.1//EN"
 "http://www.w3.org/Graphics/SVG/1.1/DTD/svg11.dtd">
<!-- Generated by graphviz version 2.43.0 (0)
 -->
<!-- Title: Libs/RayLib/sources/Window/Window.hpp Pages: 1 -->
<svg width="575pt" height="330pt"
 viewBox="0.00 0.00 574.50 330.00" xmlns="http://www.w3.org/2000/svg" xmlns:xlink="http://www.w3.org/1999/xlink">
<g id="graph0" class="graph" transform="scale(1 1) rotate(0) translate(4 326)">
<title>Libs/RayLib/sources/Window/Window.hpp</title>
<polygon fill="white" stroke="transparent" points="-4,4 -4,-326 570.5,-326 570.5,4 -4,4"/>
<!-- Node1 -->
<g id="node1" class="node">
<title>Node1</title>
<g id="a_node1"><a xlink:title=" ">
<polygon fill="#bfbfbf" stroke="black" points="296,-291.5 296,-321.5 417,-321.5 417,-291.5 296,-291.5"/>
<text text-anchor="start" x="304" y="-309.5" font-family="Helvetica,sans-Serif" font-size="10.00">Libs/RayLib/sources</text>
<text text-anchor="middle" x="356.5" y="-298.5" font-family="Helvetica,sans-Serif" font-size="10.00">/Window/Window.hpp</text>
</a>
</g>
</g>
<!-- Node1&#45;&gt;Node1 -->
<g id="edge20" class="edge">
<title>Node1&#45;&gt;Node1</title>
<path fill="none" stroke="midnightblue" d="M417.06,-317.05C427.64,-315.64 435,-312.12 435,-306.5 435,-302.9 431.98,-300.16 427.03,-298.29"/>
<polygon fill="midnightblue" stroke="midnightblue" points="427.6,-294.83 417.06,-295.95 426,-301.64 427.6,-294.83"/>
</g>
<!-- Node2 -->
<g id="node2" class="node">
<title>Node2</title>
<g id="a_node2"><a xlink:href="Vector2_8hpp.html" target="_top" xlink:title=" ">
<polygon fill="white" stroke="black" points="281.5,-179.5 281.5,-198.5 355.5,-198.5 355.5,-179.5 281.5,-179.5"/>
<text text-anchor="middle" x="318.5" y="-186.5" font-family="Helvetica,sans-Serif" font-size="10.00">Vector2.hpp</text>
</a>
</g>
</g>
<!-- Node1&#45;&gt;Node2 -->
<g id="edge1" class="edge">
<title>Node1&#45;&gt;Node2</title>
<path fill="none" stroke="midnightblue" d="M351.84,-291.34C344.96,-270.43 332.09,-231.31 324.51,-208.27"/>
<polygon fill="midnightblue" stroke="midnightblue" points="327.8,-207.07 321.35,-198.67 321.15,-209.26 327.8,-207.07"/>
</g>
<!-- Node5 -->
<g id="node5" class="node">
<title>Node5</title>
<g id="a_node5"><a xlink:href="Vector3_8hpp.html" target="_top" xlink:title=" ">
<polygon fill="white" stroke="black" points="226.5,-123.5 226.5,-142.5 300.5,-142.5 300.5,-123.5 226.5,-123.5"/>
<text text-anchor="middle" x="263.5" y="-130.5" font-family="Helvetica,sans-Serif" font-size="10.00">Vector3.hpp</text>
</a>
</g>
</g>
<!-- Node1&#45;&gt;Node5 -->
<g id="edge14" class="edge">
<title>Node1&#45;&gt;Node5</title>
<path fill="none" stroke="midnightblue" d="M341.11,-291.32C321.59,-272.35 288.56,-236.7 272.5,-199 266.28,-184.41 264.17,-166.46 263.53,-153.13"/>
<polygon fill="midnightblue" stroke="midnightblue" points="267.02,-152.71 263.28,-142.8 260.02,-152.88 267.02,-152.71"/>
</g>
<!-- Node12 -->
<g id="node12" class="node">
<title>Node12</title>
<g id="a_node12"><a xlink:href="Color_8hpp.html" target="_top" xlink:title=" ">
<polygon fill="white" stroke="black" points="373.5,-179.5 373.5,-198.5 435.5,-198.5 435.5,-179.5 373.5,-179.5"/>
<text text-anchor="middle" x="404.5" y="-186.5" font-family="Helvetica,sans-Serif" font-size="10.00">Color.hpp</text>
</a>
</g>
</g>
<!-- Node1&#45;&gt;Node12 -->
<g id="edge15" class="edge">
<title>Node1&#45;&gt;Node12</title>
<path fill="none" stroke="midnightblue" d="M358.99,-291.29C361.84,-276.73 367.22,-253.65 375.5,-235 379.88,-225.13 386.27,-214.94 391.93,-206.76"/>
<polygon fill="midnightblue" stroke="midnightblue" points="394.87,-208.67 397.87,-198.5 389.19,-204.58 394.87,-208.67"/>
</g>
<!-- Node13 -->
<g id="node13" class="node">
<title>Node13</title>
<g id="a_node13"><a xlink:title=" ">
<polygon fill="white" stroke="#bfbfbf" points="491.5,-179.5 491.5,-198.5 535.5,-198.5 535.5,-179.5 491.5,-179.5"/>
<text text-anchor="middle" x="513.5" y="-186.5" font-family="Helvetica,sans-Serif" font-size="10.00">string</text>
</a>
</g>
</g>
<!-- Node1&#45;&gt;Node13 -->
<g id="edge18" class="edge">
<title>Node1&#45;&gt;Node13</title>
<path fill="none" stroke="midnightblue" d="M396.06,-291.42C416.83,-282.86 441.95,-270.56 461.5,-255 478.41,-241.55 493.3,-221.64 502.77,-207.4"/>
<polygon fill="midnightblue" stroke="midnightblue" points="505.96,-208.91 508.41,-198.6 500.07,-205.13 505.96,-208.91"/>
</g>
<!-- Node14 -->
<g id="node14" class="node">
<title>Node14</title>
<g id="a_node14"><a xlink:title=" ">
<polygon fill="white" stroke="#bfbfbf" points="508.5,-235.5 508.5,-254.5 566.5,-254.5 566.5,-235.5 508.5,-235.5"/>
<text text-anchor="middle" x="537.5" y="-242.5" font-family="Helvetica,sans-Serif" font-size="10.00">memory</text>
</a>
</g>
</g>
<!-- Node1&#45;&gt;Node14 -->
<g id="edge19" class="edge">
<title>Node1&#45;&gt;Node14</title>
<path fill="none" stroke="midnightblue" d="M399.39,-291.4C430.53,-281.16 472.19,-267.47 501.58,-257.81"/>
<polygon fill="midnightblue" stroke="midnightblue" points="503.02,-261.02 511.43,-254.57 500.83,-254.37 503.02,-261.02"/>
</g>
<!-- Node15 -->
<g id="node15" class="node">
<title>Node15</title>
<g id="a_node15"><a xlink:href="Image_8hpp.html" target="_top" xlink:title=" ">
<polygon fill="white" stroke="black" points="384.5,-235.5 384.5,-254.5 452.5,-254.5 452.5,-235.5 384.5,-235.5"/>
<text text-anchor="middle" x="418.5" y="-242.5" font-family="Helvetica,sans-Serif" font-size="10.00">Image.hpp</text>
</a>
</g>
</g>
<!-- Node1&#45;&gt;Node15 -->
<g id="edge21" class="edge">
<title>Node1&#45;&gt;Node15</title>
<path fill="none" stroke="midnightblue" d="M371.19,-291.4C380.48,-282.49 392.5,-270.95 402.1,-261.74"/>
<polygon fill="midnightblue" stroke="midnightblue" points="404.69,-264.11 409.48,-254.66 399.84,-259.06 404.69,-264.11"/>
</g>
<!-- Node16 -->
<g id="node16" class="node">
<title>Node16</title>
<g id="a_node16"><a xlink:href="BoundingBox_8hpp.html" target="_top" xlink:title=" ">
<polygon fill="white" stroke="black" points="123.5,-235.5 123.5,-254.5 225.5,-254.5 225.5,-235.5 123.5,-235.5"/>
<text text-anchor="middle" x="174.5" y="-242.5" font-family="Helvetica,sans-Serif" font-size="10.00">BoundingBox.hpp</text>
</a>
</g>
</g>
<!-- Node1&#45;&gt;Node16 -->
<g id="edge26" class="edge">
<title>Node1&#45;&gt;Node16</title>
<path fill="none" stroke="midnightblue" d="M313.37,-291.4C281.92,-281.12 239.81,-267.35 210.23,-257.68"/>
<polygon fill="midnightblue" stroke="midnightblue" points="211.31,-254.35 200.72,-254.57 209.13,-261.01 211.31,-254.35"/>
</g>
<!-- Node3 -->
<g id="node3" class="node">
<title>Node3</title>
<g id="a_node3"><a xlink:title=" ">
<polygon fill="white" stroke="#bfbfbf" points="377,-67.5 377,-86.5 430,-86.5 430,-67.5 377,-67.5"/>
<text text-anchor="middle" x="403.5" y="-74.5" font-family="Helvetica,sans-Serif" font-size="10.00">raylib.h</text>
</a>
</g>
</g>
<!-- Node2&#45;&gt;Node3 -->
<g id="edge2" class="edge">
<title>Node2&#45;&gt;Node3</title>
<path fill="none" stroke="midnightblue" d="M325.17,-179.37C339.26,-161.14 372.26,-118.43 390.61,-94.68"/>
<polygon fill="midnightblue" stroke="midnightblue" points="393.52,-96.64 396.86,-86.59 387.98,-92.36 393.52,-96.64"/>
</g>
<!-- Node4 -->
<g id="node4" class="node">
<title>Node4</title>
<g id="a_node4"><a xlink:title=" ">
<polygon fill="white" stroke="#bfbfbf" points="310,-67.5 310,-86.5 357,-86.5 357,-67.5 310,-67.5"/>
<text text-anchor="middle" x="333.5" y="-74.5" font-family="Helvetica,sans-Serif" font-size="10.00">cmath</text>
</a>
</g>
</g>
<!-- Node2&#45;&gt;Node4 -->
<g id="edge3" class="edge">
<title>Node2&#45;&gt;Node4</title>
<path fill="none" stroke="midnightblue" d="M319.68,-179.37C322.1,-161.62 327.68,-120.67 330.96,-96.6"/>
<polygon fill="midnightblue" stroke="midnightblue" points="334.45,-96.97 332.33,-86.59 327.51,-96.03 334.45,-96.97"/>
</g>
<!-- Node2&#45;&gt;Node5 -->
<g id="edge4" class="edge">
<title>Node2&#45;&gt;Node5</title>
<path fill="none" stroke="midnightblue" d="M309.42,-179.08C301.33,-171.14 289.3,-159.34 279.59,-149.8"/>
<polygon fill="midnightblue" stroke="midnightblue" points="282,-147.26 272.41,-142.75 277.1,-152.25 282,-147.26"/>
</g>
<!-- Node6 -->
<g id="node6" class="node">
<title>Node6</title>
<g id="a_node6"><a xlink:href="IXMLSerializable_8hpp.html" target="_top" xlink:title=" ">
<polygon fill="white" stroke="black" points="98,-67.5 98,-86.5 217,-86.5 217,-67.5 98,-67.5"/>
<text text-anchor="middle" x="157.5" y="-74.5" font-family="Helvetica,sans-Serif" font-size="10.00">IXMLSerializable.hpp</text>
</a>
</g>
</g>
<!-- Node2&#45;&gt;Node6 -->
<g id="edge13" class="edge">
<title>Node2&#45;&gt;Node6</title>
<path fill="none" stroke="midnightblue" d="M291.63,-179.42C270.33,-171.84 240.43,-159.45 217.5,-143 198.49,-129.36 180.85,-108.93 169.69,-94.62"/>
<polygon fill="midnightblue" stroke="midnightblue" points="172.45,-92.48 163.62,-86.62 166.87,-96.71 172.45,-92.48"/>
</g>
<!-- Node5&#45;&gt;Node3 -->
<g id="edge5" class="edge">
<title>Node5&#45;&gt;Node3</title>
<path fill="none" stroke="midnightblue" d="M285.68,-123.44C308.93,-114.48 345.65,-100.31 371.92,-90.18"/>
<polygon fill="midnightblue" stroke="midnightblue" points="373.35,-93.38 381.42,-86.52 370.83,-86.85 373.35,-93.38"/>
</g>
<!-- Node5&#45;&gt;Node4 -->
<g id="edge11" class="edge">
<title>Node5&#45;&gt;Node4</title>
<path fill="none" stroke="midnightblue" d="M274.75,-123.32C285.3,-115.18 301.3,-102.84 313.94,-93.09"/>
<polygon fill="midnightblue" stroke="midnightblue" points="316.27,-95.71 322.05,-86.83 311.99,-90.17 316.27,-95.71"/>
</g>
<!-- Node5&#45;&gt;Node6 -->
<g id="edge6" class="edge">
<title>Node5&#45;&gt;Node6</title>
<path fill="none" stroke="midnightblue" d="M246.47,-123.32C229.47,-114.66 203.12,-101.24 183.51,-91.25"/>
<polygon fill="midnightblue" stroke="midnightblue" points="184.99,-88.08 174.49,-86.65 181.81,-94.31 184.99,-88.08"/>
</g>
<!-- Node11 -->
<g id="node11" class="node">
<title>Node11</title>
<g id="a_node11"><a xlink:title=" ">
<polygon fill="white" stroke="#bfbfbf" points="235.5,-67.5 235.5,-86.5 291.5,-86.5 291.5,-67.5 235.5,-67.5"/>
<text text-anchor="middle" x="263.5" y="-74.5" font-family="Helvetica,sans-Serif" font-size="10.00">sstream</text>
</a>
</g>
</g>
<!-- Node5&#45;&gt;Node11 -->
<g id="edge12" class="edge">
<title>Node5&#45;&gt;Node11</title>
<path fill="none" stroke="midnightblue" d="M263.5,-123.08C263.5,-116.01 263.5,-105.86 263.5,-96.99"/>
<polygon fill="midnightblue" stroke="midnightblue" points="267,-96.75 263.5,-86.75 260,-96.75 267,-96.75"/>
</g>
<!-- Node7 -->
<g id="node7" class="node">
<title>Node7</title>
<g id="a_node7"><a xlink:title=" ">
<polygon fill="white" stroke="#bfbfbf" points="0,-6 0,-25 57,-25 57,-6 0,-6"/>
<text text-anchor="middle" x="28.5" y="-13" font-family="Helvetica,sans-Serif" font-size="10.00">ostream</text>
</a>
</g>
</g>
<!-- Node6&#45;&gt;Node7 -->
<g id="edge7" class="edge">
<title>Node6&#45;&gt;Node7</title>
<path fill="none" stroke="midnightblue" d="M139.02,-67.48C117.37,-57.49 81.29,-40.85 56.27,-29.31"/>
<polygon fill="midnightblue" stroke="midnightblue" points="57.49,-26.02 46.95,-25.01 54.56,-32.38 57.49,-26.02"/>
</g>
<!-- Node8 -->
<g id="node8" class="node">
<title>Node8</title>
<g id="a_node8"><a xlink:title=" ">
<polygon fill="white" stroke="#bfbfbf" points="75.5,-6 75.5,-25 135.5,-25 135.5,-6 75.5,-6"/>
<text text-anchor="middle" x="105.5" y="-13" font-family="Helvetica,sans-Serif" font-size="10.00">iostream</text>
</a>
</g>
</g>
<!-- Node6&#45;&gt;Node8 -->
<g id="edge8" class="edge">
<title>Node6&#45;&gt;Node8</title>
<path fill="none" stroke="midnightblue" d="M150.05,-67.48C142.17,-58.46 129.56,-44.02 119.76,-32.81"/>
<polygon fill="midnightblue" stroke="midnightblue" points="122.15,-30.24 112.94,-25.01 116.88,-34.84 122.15,-30.24"/>
</g>
<!-- Node9 -->
<g id="node9" class="node">
<title>Node9</title>
<g id="a_node9"><a xlink:title=" ">
<polygon fill="white" stroke="#bfbfbf" points="154,-0.5 154,-30.5 267,-30.5 267,-0.5 154,-0.5"/>
<text text-anchor="start" x="162" y="-18.5" font-family="Helvetica,sans-Serif" font-size="10.00">boost/property_tree</text>
<text text-anchor="middle" x="210.5" y="-7.5" font-family="Helvetica,sans-Serif" font-size="10.00">/ptree.hpp</text>
</a>
</g>
</g>
<!-- Node6&#45;&gt;Node9 -->
<g id="edge9" class="edge">
<title>Node6&#45;&gt;Node9</title>
<path fill="none" stroke="midnightblue" d="M165.09,-67.48C171.87,-59.87 182.09,-48.4 191.11,-38.26"/>
<polygon fill="midnightblue" stroke="midnightblue" points="193.97,-40.32 198.01,-30.52 188.74,-35.66 193.97,-40.32"/>
</g>
<!-- Node10 -->
<g id="node10" class="node">
<title>Node10</title>
<g id="a_node10"><a xlink:title=" ">
<polygon fill="white" stroke="#bfbfbf" points="285,-0.5 285,-30.5 398,-30.5 398,-0.5 285,-0.5"/>
<text text-anchor="start" x="293" y="-18.5" font-family="Helvetica,sans-Serif" font-size="10.00">boost/property_tree</text>
<text text-anchor="middle" x="341.5" y="-7.5" font-family="Helvetica,sans-Serif" font-size="10.00">/xml_parser.hpp</text>
</a>
</g>
</g>
<!-- Node6&#45;&gt;Node10 -->
<g id="edge10" class="edge">
<title>Node6&#45;&gt;Node10</title>
<path fill="none" stroke="midnightblue" d="M183.86,-67.48C211,-58.7 254.02,-44.79 288.27,-33.71"/>
<polygon fill="midnightblue" stroke="midnightblue" points="289.7,-36.93 298.13,-30.52 287.54,-30.27 289.7,-36.93"/>
</g>
<!-- Node12&#45;&gt;Node3 -->
<g id="edge16" class="edge">
<title>Node12&#45;&gt;Node3</title>
<path fill="none" stroke="midnightblue" d="M404.42,-179.37C404.26,-161.62 403.89,-120.67 403.67,-96.6"/>
<polygon fill="midnightblue" stroke="midnightblue" points="407.17,-96.56 403.58,-86.59 400.17,-96.62 407.17,-96.56"/>
</g>
<!-- Node12&#45;&gt;Node5 -->
<g id="edge17" class="edge">
<title>Node12&#45;&gt;Node5</title>
<path fill="none" stroke="midnightblue" d="M382.16,-179.44C358.75,-170.48 321.76,-156.31 295.31,-146.18"/>
<polygon fill="midnightblue" stroke="midnightblue" points="296.33,-142.82 285.74,-142.52 293.82,-149.36 296.33,-142.82"/>
</g>
<!-- Node15&#45;&gt;Node2 -->
<g id="edge25" class="edge">
<title>Node15&#45;&gt;Node2</title>
<path fill="none" stroke="midnightblue" d="M402.43,-235.32C386.54,-226.74 361.99,-213.49 343.54,-203.52"/>
<polygon fill="midnightblue" stroke="midnightblue" points="344.99,-200.33 334.53,-198.65 341.66,-206.49 344.99,-200.33"/>
</g>
<!-- Node15&#45;&gt;Node3 -->
<g id="edge23" class="edge">
<title>Node15&#45;&gt;Node3</title>
<path fill="none" stroke="midnightblue" d="M425.39,-235.32C431.77,-226.68 440.81,-212.77 444.5,-199 446.8,-190.41 446.2,-187.72 444.5,-179 438.51,-148.32 423.18,-115.17 413.05,-95.52"/>
<polygon fill="midnightblue" stroke="midnightblue" points="416.08,-93.76 408.31,-86.56 409.9,-97.04 416.08,-93.76"/>
</g>
<!-- Node15&#45;&gt;Node12 -->
<g id="edge24" class="edge">
<title>Node15&#45;&gt;Node12</title>
<path fill="none" stroke="midnightblue" d="M416.19,-235.08C414.33,-227.93 411.66,-217.64 409.35,-208.69"/>
<polygon fill="midnightblue" stroke="midnightblue" points="412.67,-207.55 406.77,-198.75 405.89,-209.31 412.67,-207.55"/>
</g>
<!-- Node15&#45;&gt;Node13 -->
<g id="edge22" class="edge">
<title>Node15&#45;&gt;Node13</title>
<path fill="none" stroke="midnightblue" d="M433.76,-235.32C448.72,-226.82 471.75,-213.73 489.23,-203.8"/>
<polygon fill="midnightblue" stroke="midnightblue" points="491.31,-206.64 498.27,-198.65 487.85,-200.55 491.31,-206.64"/>
</g>
<!-- Node16&#45;&gt;Node5 -->
<g id="edge27" class="edge">
<title>Node16&#45;&gt;Node5</title>
<path fill="none" stroke="midnightblue" d="M181.48,-235.37C196.24,-217.14 230.79,-174.43 250.01,-150.68"/>
<polygon fill="midnightblue" stroke="midnightblue" points="252.98,-152.57 256.55,-142.59 247.54,-148.16 252.98,-152.57"/>
</g>
</g>
</svg>
